<svg width="76" height="76" viewBox="0 0 76 76" fill="none" xmlns="http://www.w3.org/2000/svg">
<path d="M38.2144 11C29.2144 11 21.3144 17.8 20.2144 26.4C19.7144 30.2 20.0143 33.9 21.9143 37.2C27.2143 46.3 32.6144 55.3 38.0144 64.4C38.2144 64.1 38.4144 63.9 38.5144 63.8C43.6144 55.2 48.8143 46.7 53.8143 38.1C55.9143 34.5 56.6144 30.6 56.0144 26.4C54.9144 17.8 47.1144 11 38.2144 11ZM38.1143 37.4C33.8143 37.4 30.2144 33.8 30.2144 29.4C30.2144 25 33.8143 21.4 38.1143 21.4C42.4143 21.4 46.0144 25 46.0144 29.4C46.0144 33.7 42.5143 37.3 38.1143 37.4Z" fill="white"/>
</svg>
