<svg width="76" height="76" viewBox="0 0 76 76" fill="none" xmlns="http://www.w3.org/2000/svg">
<path d="M27.5 58.7292C24.1 55.3292 20.6 51.8292 17.2 48.4292C26.8 38.8292 36.5 29.1292 46.2 19.4292C46.6 19.8292 47 20.3292 47.5 20.8292C38.4 29.9292 29.2 39.1292 20.1 48.2292C20.6 48.7292 21.1 49.2292 21.5 49.6292C30.7 40.4292 39.8 31.3292 48.9 22.2292C51.4 24.7292 53.9 27.2292 56.3 29.6292C46.8 39.4292 37.1 49.1292 27.5 58.7292Z" fill="white"/>
<path d="M47.7 18.1294C48.7 17.0294 49.6 15.8294 50.8 14.8294C52.3 13.5294 54.5 13.8294 55.9 15.2294C57.5 16.8294 59.1 18.4294 60.8 20.1294C62.2 21.5294 62.3 23.6294 61.2 25.2294C61 25.4294 60.9 25.6294 60.7 25.8294C59.8 26.7294 58.9 27.6294 58 28.5294C54.5 24.9294 51.1 21.4294 47.7 18.1294Z" fill="white"/>
<path d="M15.8 49.9292C19.2 53.3292 22.6 56.7292 26 60.1292C22 60.7292 18.1 61.3292 14 61.9292C14.6 57.9292 15.2 53.9292 15.8 49.9292Z" fill="white"/>
</svg>
