<svg width="76" height="76" viewBox="0 0 76 76" fill="none" xmlns="http://www.w3.org/2000/svg">
<path d="M40.4302 64.0083C34.6302 64.0083 28.6302 61.1083 26.2302 59.9083C20.8302 57.1083 16.6302 52.9083 14.1302 47.9083C12.4302 44.6083 11.4302 41.5083 11.1302 38.4083C10.7302 34.8083 11.2302 32.0083 12.9302 29.2083C14.0302 27.4083 15.5302 26.2083 17.6302 25.3083C18.1302 25.1083 18.6302 25.0083 19.2302 25.0083C21.2302 25.0083 23.0302 26.3083 23.5302 28.2083C24.3302 31.0083 25.0302 33.8083 25.6302 37.1083C25.7302 37.8083 25.6302 38.5083 25.6302 39.0083C25.5302 39.8083 25.2302 40.3083 24.6302 40.8083C24.1302 41.1083 23.6302 41.5083 23.0302 41.8083L22.3302 42.2083C22.2302 42.2083 22.1302 42.3083 22.1302 42.4083C22.0302 42.6083 22.3302 43.2083 22.5302 43.6083L22.6302 43.9083C23.1302 45.0083 23.6302 45.9083 24.2302 46.8083C25.3302 48.5083 26.6302 49.9083 28.1302 51.0083C29.5302 52.0083 31.3302 52.9083 33.4302 53.7083H33.5302C33.6302 53.7083 33.7302 53.7083 33.8302 53.5083C33.9302 53.2083 34.0302 53.0083 34.2302 52.7083C34.5302 52.2083 34.6302 51.9083 35.0302 51.3083C35.5302 50.5083 36.4302 49.9083 37.3302 49.9083H37.6302C38.1302 49.9083 38.7302 49.9083 39.2302 49.9083C40.0302 49.9083 40.6302 49.9083 41.2302 50.0083L42.3302 50.1083C44.4302 50.4083 46.5302 50.7083 48.5302 51.3083C50.6302 51.9083 51.7302 54.1083 51.1302 56.1083C49.9302 60.2083 47.4302 62.6083 43.4302 63.5083C42.6302 63.9083 41.5302 64.0083 40.4302 64.0083Z" fill="white"/>
<path d="M21.2303 42.2082C21.0303 42.9082 21.4303 43.6082 21.8303 44.4082C22.3303 45.4082 22.8303 46.4082 23.4303 47.4082C24.5303 49.1082 25.9303 50.6082 27.5303 51.9082C29.2303 53.1082 31.1303 54.0082 33.0303 54.8082C33.6303 55.0082 34.3303 54.8082 34.6303 54.1082C34.7303 53.9082 34.8303 53.6082 34.9303 53.4082C35.2303 52.9082 35.3303 52.6082 35.6303 52.0082C35.9303 51.5082 36.5303 51.1082 37.1303 51.1082C38.4303 51.1082 39.7303 51.0082 40.9303 51.2082C43.3303 51.5082 45.8303 51.8082 48.0303 52.5082C49.5303 53.0082 50.5303 54.6082 50.0303 56.1082C48.9303 59.9082 46.7303 62.0082 43.0303 62.8082C37.9303 64.0082 30.9303 61.5082 26.4303 59.1082C21.4303 56.5082 17.2303 52.5082 14.7303 47.5082C13.2303 44.5082 12.2303 41.5082 11.8303 38.3082C11.4303 35.1082 11.8303 32.4082 13.4303 29.7082C14.4303 28.0082 15.7303 27.0082 17.6303 26.3082C19.5303 25.6082 21.7303 26.6082 22.3303 28.6082C23.2303 31.5082 23.8303 34.4082 24.4303 37.4082C24.5303 37.9082 24.4303 38.6082 24.4303 39.1082C24.3303 39.6082 24.2303 39.9082 23.8303 40.2082C23.1303 40.7082 22.3303 41.1082 21.6303 41.6082C21.5303 41.6082 21.3303 41.9082 21.2303 42.2082Z" fill="white"/>
<path d="M64.4301 38.7084C64.4301 40.2084 63.6301 41.1084 62.5301 41.2084C61.3301 41.3084 60.3301 40.6084 60.1301 39.4084C59.6301 36.4084 58.7301 33.5084 57.2301 30.8084C52.8301 22.6084 46.0301 17.6084 36.9301 15.8084C36.2301 15.7084 35.4301 15.6084 34.7301 15.5084C33.4301 15.3084 32.5301 14.3084 32.6301 13.0084C32.8301 11.7084 33.9301 10.9084 35.2301 11.0084C49.6301 12.8084 60.6301 22.5084 64.0301 36.4084C64.1301 37.3084 64.3301 38.1084 64.4301 38.7084Z" fill="white"/>
<path d="M52.5301 39.1083C52.5301 40.3083 51.7301 41.2083 50.6301 41.3083C49.4301 41.5083 48.4301 40.8083 48.1301 39.6083C47.5301 37.2083 46.6301 35.1083 45.1301 33.1083C42.5301 29.7083 39.0301 27.7083 34.8301 27.0083C33.5301 26.8083 32.6301 26.0083 32.6301 24.9083C32.6301 23.8083 33.2301 22.8083 34.3301 22.6083C34.9301 22.5083 35.6301 22.6083 36.2301 22.7083C44.7301 24.7083 50.1301 29.8083 52.4301 38.3083C52.4301 38.4083 52.5301 38.6083 52.5301 38.7083C52.5301 38.9083 52.5301 39.0083 52.5301 39.1083Z" fill="white"/>
</svg>
