<svg width="49" height="49" viewBox="0 0 49 49" fill="none" xmlns="http://www.w3.org/2000/svg">
<g clip-path="url(#clip0_64_2)">
<g opacity="0.75">
<path d="M24.4 0C10.9 0 0 10.9 0 24.4C0 37.9 10.9 48.8 24.4 48.8C37.9 48.8 48.8 37.9 48.8 24.4C48.9 10.9 37.9 0 24.4 0ZM5.9 14.9C5.8 14.8 5.8 14.7 5.8 14.6C5.8 14.5 5.9 14.4 5.9 14.3L10.5 11.4C10.6 11.3 10.8 11.3 10.9 11.5C11 11.7 11 11.8 10.8 11.9L7.2 14.2H16C16.2 14.2 16.3 14.3 16.3 14.5C16.3 14.7 16.2 14.8 16 14.8H7.1L10.7 17.1C10.9 17.2 10.9 17.4 10.8 17.5C10.7 17.6 10.6 17.6 10.5 17.6C10.4 17.6 10.4 17.6 10.3 17.5L5.9 14.9ZM35.4 39.9C34.9 42.5 32.6 44.6 29.9 44.9C29.5 44.9 29.1 45 28.6 45H27C25.7 45 24.3 45 23 45C21.3 45 20.1 44.3 19.1 42.9C17.9 41.2 16.8 39.4 15.6 37.7L14.3 35.7C13.9 35.1 13.5 34.5 13.1 33.9C12.2 32.6 11.4 31.3 10.5 30C10 29.2 9.9 28.3 10.2 27.5C10.5 26.7 11.2 26.2 12 25.9C12.3 25.8 12.5 25.8 12.7 25.8C13.5 25.8 14.2 26.2 14.8 26.9C15.6 27.9 16.4 28.8 17.2 29.8L17.3 29.9C17.3 30 17.4 30 17.5 30.1L18 30.7V24.8C18 21.2 18 17.6 18 13.9C18 12.6 18.7 11.6 19.8 11.2C20.6 11 21.4 11.1 22 11.5C22.6 11.9 23 12.6 23.1 13.4C23.2 14.7 23.2 16.1 23.2 17.4C23.2 18.1 23.2 18.9 23.2 19.6C23.2 19.9 23.2 20.1 23.4 20.2C23.5 20.3 23.7 20.3 24 20.2C24.9 19.9 25.8 20.1 26.5 20.7C26.7 20.9 27 21 27.3 20.7C28 20.1 29 19.9 29.8 20.2C30.6 20.5 31.3 21.2 31.5 22.2C31.5 22.4 31.6 22.6 31.8 22.7C32 22.8 32.2 22.7 32.4 22.7C33.2 22.4 34 22.5 34.7 23C35.4 23.5 35.8 24.3 35.8 25.3C35.8 27.8 35.8 30.2 35.8 32.7C35.8 34.6 35.8 36.5 35.8 38.3C35.6 38.7 35.5 39.3 35.4 39.9ZM38.1 14.9L33.5 17.8C33.4 17.9 33.2 17.9 33.1 17.7C33 17.6 33 17.4 33.2 17.3L36.8 15H28C27.8 15 27.7 14.9 27.7 14.7C27.7 14.5 27.8 14.4 28 14.4H36.8L33.1 12C33 11.9 33 11.7 33 11.6C33.1 11.5 33.2 11.5 33.3 11.5C33.4 11.5 33.4 11.5 33.5 11.6L38.1 14.5C38.2 14.6 38.2 14.7 38.2 14.8C38.2 14.8 38.2 14.9 38.1 14.9Z" fill="white"/>
<path d="M34.7 25.1C34.7 24.9 34.7 24.6 34.5 24.3C34.2 23.6 33.4 23.3 32.7 23.4C31.9 23.6 31.3 24.2 31.3 25C31.3 25.9 31.3 26.7 31.3 27.6C31.3 28.2 31.3 28.8 31.3 29.3C31.3 29.5 31.2 29.7 31.1 29.8C31 29.9 30.9 29.9 30.8 29.9C30.6 29.9 30.4 29.8 30.4 29.3C30.4 27.2 30.4 25.1 30.4 23.1C30.4 22.8 30.4 22.5 30.3 22.2C30.1 21.5 29.5 21 28.8 21C28 21 27.4 21.4 27.1 22.1C27 22.3 27 22.6 27 22.9C27 24.9 27 26.9 27 28.8C27 29 26.9 29.2 26.8 29.3C26.7 29.4 26.5 29.4 26.4 29.4C26.2 29.4 26.1 29.2 26.1 28.8C26.1 27.8 26.1 26.8 26.1 25.7C26.1 24.7 26.1 23.7 26.1 22.8C26.1 22.2 25.9 21.7 25.5 21.4C25 21 24.4 20.9 23.8 21.2C23.2 21.5 22.8 22 22.8 22.7C22.8 23.5 22.8 24.3 22.8 25.1C22.8 26.2 22.8 27.3 22.8 28.3C22.8 28.6 22.8 28.8 22.8 29C22.8 29.2 22.6 29.4 22.4 29.3C22.2 29.3 22 29.2 22 28.9C22 28.8 22 28.7 22 28.5V28.4C22 24.4 22 20.4 22 16.4V13.9C22 13.8 22 13.7 22 13.5C22 12.6 21.3 12 20.4 11.9C19.9 11.9 19.5 12 19.2 12.3C18.9 12.6 18.7 13 18.7 13.5C18.7 15.7 18.7 17.8 18.7 20V22.3V31.5C18.7 31.9 18.6 32.1 18.4 32.2C18.1 32.3 18 32.2 17.8 31.9C17.5 31.5 17.1 31 16.8 30.6L16.4 30.1C16.2 29.8 15.9 29.5 15.7 29.3C15.2 28.6 14.6 27.9 14 27.3C13.5 26.7 12.7 26.5 11.9 26.8C11.2 27.1 10.8 27.8 10.9 28.6C10.9 29.1 11.2 29.5 11.4 29.8C11.5 29.9 11.5 30 11.6 30.1C13.1 32.4 14.7 34.7 16.2 37.1C17.4 38.9 18.6 40.7 19.8 42.5C20.5 43.6 21.5 44.1 22.7 44.1C23.4 44.1 24.1 44.1 24.7 44.1C25.3 44.1 25.9 44.1 26.5 44.1C27.5 44.1 28.4 44.1 29.4 44.1C32.3 44 34.6 41.6 34.6 38.8C34.6 35.6 34.6 32.3 34.6 29.2C34.7 27.7 34.7 26.4 34.7 25.1Z" fill="white"/>
</g>
</g>
<defs>
<clipPath id="clip0_64_2">
<rect width="48.9" height="48.9" fill="white"/>
</clipPath>
</defs>
</svg>
