<svg width="194" height="169" viewBox="0 0 194 169" fill="none" xmlns="http://www.w3.org/2000/svg">
<path d="M2.75024 7.48026C2.36024 9.28026 1.88032 10.7803 1.33032 11.9803L0.520264 11.1802C0.990264 10.1002 1.42031 8.71023 1.82031 7.02023L2.75024 7.49023V7.48026ZM2.80029 5.08023L2.13013 6.16025C1.64013 5.63025 1.14035 5.21024 0.610352 4.90024L1.19019 4.01025C1.77019 4.31025 2.31029 4.67023 2.80029 5.08023ZM3.0603 2.47025L2.22021 3.36023C1.87021 2.95023 1.3702 2.52023 0.700195 2.05023L1.50024 1.25024C2.12024 1.66024 2.6303 2.07025 3.0603 2.47025ZM10.6301 6.40024H4.13013V7.29025C4.13013 7.58025 4.12034 7.85025 4.10034 8.13025H10.8604V8.98026H7.78027C7.93027 9.27026 8.10027 9.51025 8.28027 9.72025C8.51027 9.67025 8.74019 9.60024 8.94019 9.50024C9.19019 9.40024 9.44019 9.27025 9.69019 9.10025L10.4902 9.62024C10.1902 9.87024 9.91013 10.0602 9.63013 10.2102C9.46013 10.3102 9.28032 10.3902 9.08032 10.4602C9.54032 10.7702 10.1203 11.0003 10.8503 11.1703L10.4502 12.0602C9.4902 11.7702 8.68026 11.3502 8.02026 10.8002C7.52026 10.3602 7.09021 9.74026 6.72021 8.98026H5.85034V10.7502C6.33034 10.6702 6.82031 10.5602 7.32031 10.4302V11.3602C6.33031 11.6102 5.23027 11.8202 4.03027 11.9702L3.89014 10.9902C4.23014 10.9702 4.57017 10.9303 4.92017 10.8903V8.97025H4.00024C3.97024 9.17025 3.93015 9.38025 3.90015 9.57025C3.72015 10.4003 3.42025 11.2002 3.01025 12.0202L2.21021 11.2603C2.60021 10.6203 2.86026 9.96023 3.02026 9.27023C3.13026 8.55023 3.19019 7.89024 3.19019 7.28024V5.54025H10.6204V6.39026L10.6301 6.40024ZM5.33032 1.66025V1.01025H6.22021V1.66025H7.34033V1.01025H8.23022V1.66025H10.3704V5.13025H3.25024V1.66025H5.34033H5.33032ZM5.33032 3.03024V2.42026H4.18018V3.03024H5.33032ZM5.33032 3.73026H4.18018V4.39026H5.33032V3.73026ZM10.2302 6.92026V7.66025H4.67017V6.92026H10.2302ZM6.22021 3.03024H7.34033V2.42026H6.22021V3.03024ZM7.34033 3.73026H6.22021V4.39026H7.34033V3.73026ZM8.23022 3.03024H9.44019V2.42026H8.23022V3.03024ZM9.44019 3.73026H8.23022V4.39026H9.44019V3.73026Z" fill="white"/>
<path d="M13.1702 8.93024C13.1002 10.1802 12.9603 11.2102 12.7703 12.0602L11.8403 11.7802C12.0803 10.8602 12.2403 9.87023 12.3303 8.83023L13.1702 8.93024ZM14.5503 1.43024C14.1703 2.56024 13.7603 3.55026 13.3203 4.42026C13.6303 4.37026 13.9202 4.32024 14.2102 4.28024C14.4302 3.80024 14.6404 3.28023 14.8604 2.74023L15.7502 3.06024C15.0202 4.81024 14.2803 6.25025 13.5203 7.35025C14.0403 7.30025 14.4904 7.23023 14.8604 7.11023C14.7704 6.77023 14.6903 6.44025 14.6003 6.10025L15.3503 5.87024C15.4903 6.27024 15.6102 6.69026 15.7302 7.14026C16.3902 5.99026 16.8802 4.72024 17.2202 3.34024L18.1104 3.53024C17.9204 4.18024 17.7203 4.77025 17.5403 5.29025V11.9102H16.6501V7.39026C16.5101 7.65026 16.3802 7.89023 16.2402 8.11023L15.8403 7.59024C15.8903 7.81024 15.9302 8.01026 15.9802 8.20026L15.1401 8.44025C15.1101 8.27025 15.0703 8.09025 15.0403 7.91025C14.3703 8.11025 13.4302 8.27026 12.2502 8.39026L11.9802 7.41025C12.1702 7.41025 12.3703 7.41024 12.5503 7.40024C12.9603 6.80024 13.3703 6.07024 13.7903 5.21024C13.2803 5.33024 12.7204 5.44024 12.1104 5.53024L11.8901 4.55023C12.0301 4.55023 12.1803 4.54025 12.3103 4.51025C12.8103 3.49025 13.2404 2.35023 13.6204 1.08023L14.5503 1.42026V1.43024ZM14.6401 11.5902L13.7502 11.6902C13.7202 10.5002 13.6403 9.58024 13.5203 8.93024L14.2803 8.83023C14.4503 9.51023 14.5701 10.4402 14.6301 11.5902H14.6401ZM16.1902 11.0403L15.3503 11.2702C15.1903 10.4302 14.9902 9.62024 14.7302 8.84024L15.4802 8.60025C15.7402 9.32025 15.9802 10.1402 16.1902 11.0502V11.0403ZM19.5503 2.08023H22.3003V4.19025H21.9802V4.71024H20.6003L20.3801 5.79025H21.8801V11.9302H20.9902V11.2702H19.1204V11.9302H18.2302V5.79025H19.4402L19.6602 4.71024H18.1003V3.82025H21.3103V2.98026H16.8103V4.38025H15.8303V2.08023H18.5103C18.3503 1.74023 18.1903 1.43026 18.0203 1.14026L19.0803 1.01025C19.2403 1.33025 19.4003 1.69023 19.5503 2.08023ZM21.0002 8.04025V6.67026H19.1301V8.04025H21.0002ZM21.0002 10.4302V8.88025H19.1301V10.4302H21.0002Z" fill="white"/>
<path d="M27.9602 1.95026V1.01025H29.0703V1.95026H33.5303V3.03024H29.0703V3.77023H32.7302V8.36023H30.1702C30.6302 8.90023 31.0602 9.28025 31.4602 9.51025C32.0302 9.91025 32.8203 10.2902 33.8403 10.6502L33.3503 11.7303C32.1203 11.1703 31.2101 10.6403 30.6301 10.1403C30.1501 9.77026 29.6501 9.18023 29.1401 8.36023H29.0803V12.0502H27.9702V8.36023H27.9202C27.5802 8.97023 27.1802 9.49024 26.7502 9.90024C26.0902 10.5202 25.1204 11.1502 23.8704 11.7802L23.3003 10.8002C24.5803 10.2502 25.4903 9.74024 26.0103 9.28024C26.3203 9.03024 26.6004 8.73024 26.8604 8.37024H24.4402V3.78024H27.9602V3.04025H23.5002V1.96024H27.9602V1.95026ZM27.9602 5.60025V4.81024H25.4602V5.60025H27.9602ZM27.9602 6.50024H25.4602V7.34024H27.9602V6.50024ZM29.0703 5.60025H31.7002V4.81024H29.0703V5.60025ZM31.7002 6.50024H29.0703V7.34024H31.7002V6.50024Z" fill="white"/>
<path d="M40.5703 2.1803H45.1501V3.2103H34.7703V2.1803H39.4302C39.2602 1.8603 39.0804 1.5403 38.8704 1.2403L40.0203 1.05029C40.2003 1.39029 40.3803 1.7703 40.5703 2.1803ZM37.7502 8.60031C37.1902 9.70031 36.5002 10.6903 35.6602 11.5503L34.9402 10.5703C35.6902 9.86031 36.3802 8.97031 36.9902 7.91031L37.7402 8.61029L37.7502 8.60031ZM44.0303 3.97031V7.48032H40.4602V10.7503C40.4602 11.1803 40.3602 11.4803 40.1602 11.6503C39.9702 11.8303 39.6204 11.9303 39.1204 11.9303H37.9202L37.6902 10.7503C38.1302 10.8203 38.5103 10.8503 38.8103 10.8503C39.1303 10.8503 39.3003 10.7503 39.3003 10.5603V7.48032H35.9102V3.97031H44.0103H44.0303ZM42.9602 5.05029H37.0002V6.41031H42.9602V5.05029ZM44.6602 10.6203L43.8003 11.5203C43.3303 10.6803 42.6703 9.78029 41.8103 8.80029L42.6104 8.01031C43.4104 8.89031 44.0902 9.7603 44.6602 10.6203Z" fill="white"/>
<path d="M48.4001 2.23004V1.02002H49.4302V2.23004H50.9302V3.17004H49.4302V4.49002H50.0903C50.6403 3.85002 51.2003 3.01002 51.7903 1.96002L52.5903 2.38004C52.1903 3.17004 51.7603 3.87002 51.2903 4.49002H52.1003V5.43002H50.5403C50.3503 5.65002 50.1502 5.84003 49.9602 6.03003C49.7502 6.22003 49.5303 6.41003 49.3003 6.59003H51.6602V12.04H50.6802V11.33H48.2302V12.07H47.2002V7.85004C46.9802 7.95004 46.7703 8.04005 46.5403 8.14005L46.0002 7.30002C47.2702 6.77002 48.3102 6.15002 49.1602 5.43002H46.2603V4.49002H48.4001V3.17004H46.5803V2.23004H48.4001ZM50.6702 8.47003V7.49002H48.2202V8.47003H50.6702ZM50.6702 10.44V9.31003H48.2202V10.44H50.6702ZM56.4102 1.58002V2.43002C56.0602 3.69002 55.6803 4.86003 55.2903 5.94003C55.8003 6.66003 56.1303 7.20002 56.2703 7.58002C56.4503 8.00002 56.5403 8.41004 56.5403 8.79004C56.5403 9.53004 56.4001 10.09 56.1301 10.45C55.8601 10.82 55.1703 11 54.0903 11L53.7703 9.82004C54.0903 9.89004 54.4202 9.92004 54.7502 9.92004C55.0102 9.92004 55.2103 9.82003 55.3303 9.62003C55.4203 9.48003 55.4702 9.20004 55.4702 8.79004C55.4802 8.54004 55.4103 8.23003 55.2603 7.84003C55.1003 7.46003 54.7602 6.82002 54.2102 5.93002C54.6402 4.73002 54.9802 3.63004 55.2402 2.60004H53.6401V12.03H52.6104V1.57004H56.3901L56.4102 1.58002Z" fill="white"/>
<path d="M63.5803 1.76004H67.9802V2.65002H59.0303V5.74002C59.0303 6.70002 58.9801 7.69002 58.8901 8.74002C58.7801 9.82002 58.5803 10.87 58.3203 11.93L57.4802 11.13C57.7102 10.28 57.8602 9.38003 57.9502 8.44003C58.0202 7.48003 58.0503 6.58002 58.0503 5.74002V1.76004H62.4802C62.3702 1.54004 62.2403 1.34002 62.1003 1.15002L63.2102 1.02002C63.3402 1.25002 63.4603 1.50004 63.5703 1.76004H63.5803ZM61.4402 8.22003V8.93002H60.6902V9.49002H61.3503V10.19H60.6902V10.72C60.9602 10.67 61.2102 10.6 61.4402 10.53V11.18C60.9802 11.37 60.2003 11.54 59.0803 11.7L58.9902 10.91C59.3302 10.89 59.6602 10.87 59.9702 10.84V10.2H59.2603V9.50003H59.9702V8.94003H59.2202V8.23004H61.4402V8.22003ZM62.8203 3.06003V3.91003H62.5103V10.93C62.7603 10.38 63.0002 9.75003 63.2202 9.06003L63.8901 9.40002C63.6701 10.28 63.4201 11.02 63.1401 11.64L62.5103 11.18V11.88H61.6702V7.56003C61.0202 7.70003 60.2902 7.85002 59.4802 7.99002L59.3103 7.19003C59.4503 7.18003 59.5702 7.17005 59.7102 7.14005V3.91003H59.3604V3.06003H62.8203ZM61.6702 4.48004V3.92004H60.5503V4.48004H61.6702ZM61.6702 5.69003V5.13004H60.5503V5.69003H61.6702ZM61.6702 6.84003V6.35004H60.5503V7.03003C60.9303 6.98003 61.3002 6.91003 61.6702 6.84003ZM67.6802 7.66003V8.46002H65.3303C65.6803 8.77002 65.9902 9.08002 66.2502 9.40002L65.6702 10.01C65.4402 9.66004 65.1102 9.29004 64.6902 8.88004L65.1204 8.46002H62.9102V7.66003H67.6702H67.6802ZM64.8303 3.45004L64.8801 2.89005H65.7703L65.7202 3.45004H67.7703V4.29004H65.6501L65.6204 4.76004H67.5903V7.24002H63.0103V4.76004H64.7202L64.7703 4.29004H62.9702V3.45004H64.8403H64.8303ZM64.3403 5.46002H63.7102V6.54004H64.3403V5.46002ZM64.8801 9.30002V10.9C64.8801 11.08 64.9802 11.18 65.1902 11.18H65.8604C65.9704 11.18 66.0704 11.14 66.1204 11.08C66.1904 11.01 66.2303 10.72 66.2603 10.19L66.9102 10.38C66.7402 9.95004 66.5701 9.56004 66.4001 9.20004L67.1501 8.97003C67.4601 9.56003 67.7302 10.18 67.9602 10.84L67.2002 11.16C67.1402 10.98 67.0903 10.82 67.0303 10.68C66.9603 11.26 66.8602 11.59 66.7202 11.71C66.5802 11.84 66.3202 11.91 65.9602 11.91H64.8901C64.6301 11.91 64.4203 11.84 64.2703 11.69C64.1103 11.55 64.0403 11.34 64.0403 11.1V9.28003H64.8801V9.30002ZM65.6301 5.46002H65.0103V6.54004H65.6301V5.46002ZM66.8801 5.46002H66.3003V6.54004H66.8801V5.46002Z" fill="white"/>
<path d="M73.1802 2.47021H75.1602C75.4602 2.01021 75.7202 1.52021 75.9602 0.970215L77.0703 1.34021C76.8403 1.76021 76.6003 2.13021 76.3503 2.47021H79.3503V3.50021H68.8901V2.47021H71.9602C71.7502 2.04021 71.5403 1.63021 71.3003 1.25021L72.5403 1.06021C72.7703 1.48021 72.9802 1.95021 73.1902 2.47021H73.1802ZM73.9502 10.7102C73.9502 11.0902 73.8502 11.3902 73.6702 11.6102C73.5102 11.7902 73.2903 11.8902 73.0203 11.8902H71.8604L71.6401 10.7602L72.6702 10.8602C72.8702 10.8402 72.9802 10.6802 72.9802 10.3902V9.45023H70.3901V12.0302H69.4102V4.20023H73.9602V10.7102H73.9502ZM72.9702 6.40021V5.22021H70.3801V6.40021H72.9702ZM72.9702 8.51022V7.3302H70.3801V8.51022H72.9702ZM76.0803 4.56021V10.0102H74.9702V4.56021H76.0803ZM78.6204 4.01022V10.8502C78.6204 11.2802 78.5203 11.5802 78.3403 11.7502C78.1603 11.9302 77.8401 12.0302 77.3801 12.0302H75.9102L75.6802 10.8502C76.2402 10.9102 76.6903 10.9502 77.0603 10.9502C77.3603 10.9502 77.5002 10.8502 77.5002 10.6602V4.0202H78.6204V4.01022Z" fill="white"/>
<path d="M86.3901 1.52011V6.54013H85.5303V0.620117H89.1104V1.52011H86.3901Z" fill="white"/>
<path d="M95.0803 1.86002H97.0603V2.84003H95.9302L96.4402 3.03003C96.2302 3.70003 96.0403 4.25002 95.8503 4.71002H97.0603V5.65002H94.9702V6.59003H97.0103V7.54004H95.0603C95.8103 8.13004 96.4603 8.70002 97.0103 9.27002L96.3503 9.98004C95.9903 9.55004 95.5302 9.09002 94.9702 8.61002V12.04H93.9902V8.89005C93.4902 9.75005 92.9102 10.47 92.2502 11.06L91.6301 10.11C92.5601 9.39002 93.2903 8.54004 93.8403 7.54004H91.9402V6.59003H93.9902V5.65002H91.8003V4.71002H93.0703C92.9503 4.21002 92.7703 3.67004 92.5703 3.07004L93.1602 2.84003H91.8503V1.86002H93.8403C93.6903 1.60002 93.5304 1.37002 93.3604 1.15002L94.3901 1.02002C94.6401 1.28002 94.8703 1.57002 95.0703 1.86002H95.0803ZM94.9202 4.71002C95.1102 4.23002 95.3103 3.61003 95.5103 2.84003H93.4502C93.6602 3.39003 93.8503 4.02002 94.0203 4.71002H94.9202ZM102.15 2.47003C101.1 2.78003 99.9402 2.96004 98.6702 3.01004V4.95004H102.15V5.93002H100.99V12.02H99.9602V5.93002H98.6702V6.96002C98.6402 7.81002 98.5103 8.71003 98.2903 9.66003C98.0703 10.48 97.7202 11.23 97.2402 11.97L96.4802 11.12C96.8702 10.53 97.1403 9.92002 97.3203 9.30002C97.4803 8.63002 97.5901 7.85002 97.6401 6.96002V2.04004C99.2101 2.04004 100.51 1.81002 101.56 1.33002L102.14 2.46002L102.15 2.47003Z" fill="white"/>
<path d="M106.33 3.92004C106.08 4.72004 105.82 5.42002 105.57 5.99002V12.02H104.51V7.83002C104.2 8.29002 103.87 8.72002 103.53 9.15002L103.17 7.79004C103.63 7.19004 104.03 6.57002 104.38 5.93002C104.73 5.35002 105.08 4.53003 105.41 3.44003L106.34 3.91003L106.33 3.92004ZM109.05 2.00003H113.27V4.53003H112.69V4.95004H110.25C110.17 5.31004 110.07 5.66004 109.95 5.98004H112.69V12.02H111.63V11.36H107.8V12.02H106.73V5.98004H108.9C109.02 5.64004 109.13 5.31004 109.22 4.95004H106.51V4.01004H112.16V3.03003H104.59V4.76004H103.48V2.00003H107.88C107.74 1.71003 107.6 1.45004 107.44 1.20004L108.65 1.02002C108.79 1.32002 108.92 1.64003 109.06 2.00003H109.05ZM111.63 8.08002V6.92004H107.8V8.08002H111.63ZM111.63 10.43V9.03003H107.8V10.43H111.63Z" fill="white"/>
<path d="M119.11 3.31003V1.02002H120.26V3.31003H124.27V8.98004H120.26V12.03H119.11V8.98004H115.14V3.31003H119.11ZM119.11 4.39005H116.31V7.90002H119.11V4.39005ZM123.11 4.39005H120.26V7.90002H123.11V4.39005Z" fill="white"/>
<path d="M135.14 6.35004H136.21V7.43002H132.52C132.77 8.15002 133.15 8.74003 133.64 9.22003C134.31 9.89003 135.21 10.43 136.35 10.85L135.68 12.03C134.33 11.38 133.33 10.66 132.67 9.87003C132.05 9.20003 131.62 8.38002 131.36 7.43002H131.2C130.98 8.13002 130.7 8.75004 130.33 9.29004C129.56 10.47 128.28 11.35 126.5 11.98L125.88 10.95C127.67 10.29 128.89 9.45002 129.54 8.43002C129.73 8.12002 129.89 7.79002 130.03 7.43002H126.01V6.35004H127.08V2.60004H130.56V1.02002H131.67V2.60004H135.15V6.35004H135.14ZM130.35 6.35004C130.49 5.70004 130.56 4.99002 130.56 4.24002V3.63004H128.16V6.35004H130.36H130.35ZM131.66 4.24002C131.64 5.01002 131.57 5.70004 131.45 6.35004H134.06V3.63004H131.66V4.24002Z" fill="white"/>
<path d="M141.07 1.95004C140.66 3.16004 140.29 4.04003 140 4.56003C139.7 5.16003 139.2 5.86004 138.48 6.67004L137.55 5.83002C138.17 5.17002 138.67 4.52004 139.05 3.88004C139.39 3.23004 139.7 2.44003 139.95 1.53003L141.07 1.95004ZM142.71 5.18002C141.98 7.21002 141.25 8.85003 140.5 10.12C142.16 10.07 143.67 9.96004 145.01 9.82004C144.67 9.00004 144.28 8.21002 143.87 7.43002L144.98 7.05002C145.76 8.41002 146.46 9.95003 147.08 11.69L145.84 12.03C145.7 11.61 145.56 11.2 145.42 10.82C143.89 11.04 141.44 11.23 138.09 11.42L137.91 10.2C138.34 10.2 138.78 10.19 139.19 10.18C139.94 8.91002 140.72 7.09003 141.53 4.72003L142.73 5.19003L142.71 5.18002ZM145.21 1.29004C145.62 2.78004 146.5 4.17002 147.83 5.46002L147.08 6.58002C146.42 5.96002 145.89 5.32004 145.5 4.67004C145.02 3.97004 144.65 3.18004 144.36 2.32004H142.06V1.29004H145.22H145.21Z" fill="white"/>
<path d="M158.83 11.9303H157.85V11.5103H150.02V11.9303H149.04V1.34033H158.83V11.9303ZM157.85 10.5603V2.27032H150.02V10.5603H157.85ZM156.96 5.64035V7.80032H153.81C153.75 7.87032 153.71 7.94033 153.66 7.99033V10.3303H152.72V8.88034C152.13 9.31034 151.44 9.67033 150.67 9.96033L150.18 9.11032C150.95 8.86032 151.57 8.58034 152.02 8.29034C152.26 8.13034 152.48 7.97032 152.66 7.80032H151.04V5.64035H156.96ZM153.31 3.03033V2.55032H154.24V3.03033H156.95V3.77032H154.24V4.38034H157.44V5.17035H150.27V4.38034H153.3V3.77032H150.76V3.03033H153.3H153.31ZM156.07 6.40033H151.93V7.05032H156.07V6.40033ZM155.5 8.63034C155.72 8.39034 155.89 8.14033 156.02 7.90033L156.86 8.42035C156.75 8.60035 156.59 8.80034 156.38 9.04034C156.77 9.23034 157.13 9.44034 157.49 9.63034L156.95 10.4803C155.95 9.81035 154.93 9.27034 153.88 8.88034L154.32 8.17035C154.72 8.31035 155.11 8.47034 155.48 8.63034H155.5Z" fill="white"/>
<path d="M161.76 12.4703V11.5703H164.48V6.55029H165.34V12.4703H161.76Z" fill="white"/>
<path d="M176.24 2.6503H173.17V1.57031H177.35C177.51 3.88031 177.99 5.70031 178.77 7.01031C179.51 8.37031 180.59 9.62029 182.02 10.8003L181.27 12.0203C179.65 10.5203 178.51 9.08032 177.83 7.70032C177.42 6.92032 177.09 6.08031 176.83 5.19031C176.47 6.45031 176.07 7.4903 175.61 8.3103C174.95 9.4603 173.85 10.6903 172.33 11.9703L171.57 10.8403C173.02 9.6903 174.08 8.51031 174.76 7.29031C175.38 6.19031 175.9 4.80031 176.33 3.13031C176.28 2.96031 176.26 2.81032 176.24 2.64032V2.6503Z" fill="white"/>
<path d="M192.45 1.29004V4.76004H188.53C188.6 4.93004 188.67 5.11003 188.74 5.28003H193.31V6.22003H182.97V5.28003H187.59C187.5 5.10003 187.42 4.93004 187.33 4.76004H183.88V1.29004H192.46H192.45ZM186.31 9.96002C185.85 10.44 185.44 10.78 185.1 10.98C184.69 11.23 184.17 11.48 183.55 11.74L183.01 10.76C183.63 10.58 184.16 10.35 184.63 10.09C185.06 9.85003 185.44 9.56002 185.77 9.21002L186.31 9.97003V9.96002ZM192.33 6.67004V8.97003H188.81V10.79C188.81 11.17 188.72 11.45 188.54 11.61C188.37 11.78 188.06 11.87 187.62 11.87H186.37L186.15 10.79C186.61 10.85 186.99 10.89 187.3 10.89C187.61 10.89 187.74 10.79 187.74 10.6V8.97003H184V6.67004H192.33ZM191.4 2.69003V2.08002H184.94V2.69003H191.4ZM191.4 3.40002H184.94V3.96002H191.4V3.40002ZM191.35 7.53003H184.98V8.13004H191.35V7.53003ZM193.27 10.76L192.87 11.79C191.96 11.03 191 10.48 190.02 10.1L190.46 9.21002C191.35 9.55002 192.28 10.06 193.26 10.76H193.27Z" fill="white"/>
<path d="M39.1802 32.9102V33.9901H35.7002C35.4702 34.5101 35.2202 34.9901 34.9502 35.4301V43.2302H33.7903V37.0102C33.7003 37.1102 33.6203 37.2002 33.5403 37.2902C32.5803 38.3702 31.3403 39.3501 29.8403 40.2401L29.1702 39.2902C30.5702 38.4702 31.7502 37.5801 32.6902 36.6201C33.3302 36.0001 33.9302 35.1302 34.5002 34.0102H29.3003V32.9301H39.1802V32.9102ZM39.1802 39.2401L38.3403 40.1302C37.6803 39.1702 36.7403 38.1201 35.5403 36.9901L36.3403 36.2002C37.4703 37.2302 38.4102 38.2402 39.1902 39.2502L39.1802 39.2401Z" fill="white"/>
<path d="M45.1003 33.7202V32.2202H46.1602V33.7202H49.7302V34.7902H46.1602V36.0102H50.8801V37.1402H46.3403V38.7702H50.2202V39.8502H46.3403V41.8702C46.8803 41.9402 47.5102 41.9702 48.2402 41.9702C49.2802 41.9702 50.1504 41.9502 50.8704 41.8702L50.5603 43.0902C47.1203 43.0902 45.0802 42.9102 44.4202 42.5702C43.7502 42.2602 43.1802 41.6502 42.7002 40.7002C42.3102 41.5202 41.8202 42.3002 41.2202 43.0902L40.3801 42.2902C41.0101 41.4402 41.4703 40.6702 41.7803 40.0002C42.0203 39.4202 42.1903 38.6802 42.2903 37.7602L43.3503 37.8902C43.2703 38.6002 43.1803 39.1902 43.0703 39.6402C43.5503 40.6002 44.1203 41.2202 44.8003 41.5102C44.9403 41.5802 45.0803 41.6302 45.2703 41.6802V37.1502H40.3303V36.0202H45.0903V34.8002H41.4302V33.7302H45.0903L45.1003 33.7202Z" fill="white"/>
<path d="M61.4402 33.33C60.3502 33.69 59.0704 33.97 57.6104 34.13V36.74H62.2502V37.92H57.6104V43.26H56.4102V37.92H51.7402V36.74H56.4102V34.26C55.2802 34.36 54.0603 34.4 52.7603 34.4L52.4001 33.27C55.7301 33.27 58.5404 32.95 60.8604 32.29L61.4402 33.32V33.33Z" fill="white"/>
<path d="M66.3901 32.7303C66.1301 33.6303 65.8703 34.4003 65.5903 35.0403V43.1202H64.5603V36.9602C64.2503 37.4402 63.9203 37.9203 63.5803 38.3903L63.2202 37.0802C63.6802 36.4202 64.0902 35.7403 64.4302 35.0403C64.7802 34.4203 65.1302 33.4903 65.4602 32.2903L66.3901 32.7202V32.7303ZM73.3303 36.2402L69.6301 36.6502C69.7001 37.4002 69.7804 37.9902 69.8704 38.4002C70.1404 39.5002 70.5002 40.3403 70.9402 40.9203C71.4202 41.5803 71.8302 41.9002 72.1802 41.9002C72.2702 41.9002 72.3404 41.8502 72.3704 41.7402C72.4504 41.6202 72.5304 40.9802 72.6204 39.8302L73.7302 40.4902C73.5702 41.6202 73.3802 42.3602 73.1702 42.7202C72.9602 43.0102 72.6703 43.1602 72.2603 43.1602C71.6403 43.1602 70.9803 42.7302 70.2803 41.8802C69.6603 41.1402 69.1703 40.0702 68.8203 38.6802C68.6903 38.2002 68.5903 37.5603 68.5103 36.7603L66.0703 37.0202L65.9502 35.9402L68.4102 35.6802C68.3402 34.7102 68.2803 33.5602 68.2603 32.2402H69.3801C69.4101 33.5402 69.4703 34.6502 69.5403 35.5602L73.2002 35.1502L73.3403 36.2303L73.3303 36.2402ZM72.6204 34.2603L71.6401 34.9702C71.3101 34.4502 70.8703 33.8703 70.3103 33.2003L71.1104 32.6802C71.7504 33.3002 72.2601 33.8303 72.6301 34.2603H72.6204Z" fill="white"/>
<path d="M84.4702 43.2303H83.4001V42.3303H76.3704V43.2303H75.3003V32.8203H84.4802V43.2303H84.4702ZM79.3103 36.9503V33.8603H76.3704V36.9503H79.3103ZM79.3103 41.3003V37.9803H76.3704V41.3003H79.3103ZM80.3704 36.9503H83.4001V33.8603H80.3704V36.9503ZM83.4001 41.3003V37.9803H80.3704V41.3003H83.4001Z" fill="white"/>
<path d="M95.9902 38.3902V39.3702H91.7603V40.2202H95.7302V41.1602H91.7603V42.0002H96.4001V42.9802H86.1104V42.0002H90.6602V41.1602H86.6501V40.2202H90.6602V39.3702H86.4302V38.3902H95.9902ZM91.8103 32.3502C91.7403 32.6702 91.6603 32.9702 91.5603 33.2502H95.5503V37.6502H86.8801V33.2502H90.3901C90.4801 32.9302 90.5604 32.5802 90.6204 32.2202L91.8203 32.3502H91.8103ZM94.5303 34.9802V34.2402H87.9001V34.9802H94.5303ZM94.5303 35.8702H87.9001V36.6702H94.5303V35.8702Z" fill="white"/>
<path d="M104.02 37.0401H107.67V38.0201H104.02V39.2401H107.18V43.2201H106.11V42.7001H100.99V43.2201H99.9202V39.2401H103V38.0201H99.4202C99.3702 38.6001 99.3202 39.1801 99.2402 39.7801C99.0502 40.9401 98.7303 42.0801 98.2803 43.2201L97.3901 42.3701C97.8101 41.4501 98.1103 40.4701 98.2703 39.4701C98.3803 38.4301 98.4502 37.4501 98.4502 36.5701V32.6401H107.32V35.7301H104.03V37.0401H104.02ZM99.4702 36.5701C99.4702 36.7401 99.4602 36.8901 99.4602 37.0401H102.99V35.7301H99.4702V36.5701ZM99.4702 33.6701V34.7001H106.29V33.6701H99.4702ZM106.1 41.7301V40.2301H100.98V41.7301H106.1Z" fill="white"/>
<path d="M112.2 32.4002C112.06 33.0202 111.87 33.6102 111.63 34.1402H113.27V36.6502C113.6 36.0702 113.86 35.5002 114.04 34.9202C114.27 34.2502 114.45 33.3502 114.6 32.2202L115.72 32.4002C115.62 33.0502 115.51 33.6102 115.41 34.0902H118.92C118.92 38.3102 118.85 40.8102 118.74 41.5702C118.63 42.1702 118.43 42.5802 118.16 42.7702C117.84 43.0102 117.25 43.1302 116.39 43.1302C116.14 43.1302 115.85 43.1102 115.54 43.0802L115.37 41.9002C115.7 41.9702 116.04 42.0002 116.4 42.0002C117.12 42.0002 117.52 41.7502 117.61 41.2402C117.75 40.6202 117.84 38.5902 117.86 35.1602H115.15C115.12 35.2402 115.09 35.3202 115.08 35.3602C114.83 36.2202 114.41 37.1502 113.81 38.1102L113.27 37.4102V42.3202H112.29V41.7602H110.2V42.6602H109.22V34.1302H110.63C110.87 33.5502 111.05 32.9202 111.18 32.2502L112.19 32.3902L112.2 32.4002ZM112.29 37.4602V35.1202H110.2V37.4602H112.29ZM112.29 40.7802V38.3902H110.2V40.7802H112.29ZM117.01 39.6202L115.94 40.3602C115.62 39.5002 115.18 38.4902 114.61 37.3602L115.5 36.7502C116.14 37.8702 116.65 38.8202 117.02 39.6202H117.01Z" fill="white"/>
<path d="M121.87 35.4902V37.0402H123.56V35.1702H124.63V43.2302H123.56V40.1802H122.29C122.24 40.8502 122.16 41.3202 122.06 41.6002C121.9 42.1302 121.56 42.6602 121.02 43.1802L120.13 42.4702C120.56 42.1102 120.86 41.7702 121.02 41.4102C121.12 41.1202 121.2 40.7002 121.25 40.1702H120.26V39.1402H123.55V38.0602H120.84V35.4802H121.87V35.4902ZM122.85 33.2502V32.2202H123.92V33.2502H125.16V34.2702H123.92V35.0302H122.85V34.2702H120.22V33.2502H122.85ZM127.31 37.5102V35.3502H128.37V37.5102H130.6V38.5402H128.37V41.5902H130.42V42.5702H125.26V41.5902H127.31V38.5402H124.95V37.5102H127.31ZM126.9 33.2502V32.2202H127.97V33.2502H130.6V34.2702H127.97V35.1702H126.9V34.2702H125.7V33.2502H126.9Z" fill="white"/>
<path d="M141.51 33.06C140.3 33.26 138.89 33.41 137.28 33.5V34.23H141.86V35.17H137.28V35.87H141.02V39.76H137.28V40.37H141.51V41.31H137.28V41.97H141.95V42.91H131.7V41.97H136.25V41.31H132.1V40.37H136.25V39.76H132.51V35.87H136.25V35.17H131.79V34.23H136.25V33.55C135.05 33.6 133.77 33.62 132.37 33.62L132.1 32.73C135.61 32.73 138.6 32.56 141.06 32.21L141.5 33.05L141.51 33.06ZM136.26 37.37V36.67H133.54V37.37H136.26ZM136.26 38.22H133.54V38.96H136.26V38.22ZM137.29 37.37H140V36.67H137.29V37.37ZM140 38.22H137.29V38.96H140V38.22Z" fill="white"/>
<path d="M144.85 39.05C144.61 40.17 144.31 41.18 143.96 42.1L142.98 41.73C143.31 40.97 143.61 40 143.87 38.81L144.85 39.05ZM146.18 34.5V35.39H148.14V36.37H146.18V37.31H148.45V38.25H146.49V41.86C146.49 42.29 146.4 42.59 146.22 42.76C146.05 42.94 145.74 43.04 145.3 43.04H144.63L144.41 41.87C144.64 41.94 144.82 41.97 144.98 41.97C145.28 41.97 145.42 41.89 145.42 41.69V38.26H143.11V37.32H145.16V34.51H146.19L146.18 34.5ZM148.86 33.15H153.21V35.86H152.57C152.52 37.25 152.33 38.4 152 39.31C151.84 39.74 151.65 40.14 151.42 40.5C151.94 41.15 152.63 41.69 153.47 42.14L152.85 43.12C151.95 42.57 151.24 41.98 150.74 41.35C150.03 42.09 149.14 42.73 148.08 43.26L147.5 42.24C148.66 41.74 149.53 41.16 150.09 40.54C150.11 40.52 150.12 40.5 150.14 40.48C149.59 39.59 149.14 38.56 148.79 37.36L149.68 36.84C149.98 37.91 150.33 38.81 150.76 39.55C150.92 39.26 151.07 38.94 151.19 38.6C151.41 38.01 151.53 37.3 151.58 36.47H148.66V35.44H152.08V34.13H144.3V35.86H143.18V33.15H147.69C147.56 32.89 147.43 32.63 147.27 32.39L148.43 32.21C148.57 32.49 148.7 32.8 148.84 33.15H148.86ZM148.63 40.97L147.6 41.25C147.43 40.51 147.22 39.8 146.97 39.1L147.9 38.81C148.16 39.45 148.4 40.17 148.62 40.97H148.63Z" fill="white"/>
<path d="M156.47 32.9602V32.2202H157.45V32.9602H159.27V33.8502H157.45V34.4102H159.1V35.2502H157.45V35.9102H159.32V36.8002H154.38V35.9102H156.47V35.2502H154.83V34.4102H156.47V33.8502H154.56V32.9602H156.47ZM159.06 42.1502C159.06 42.4602 158.96 42.7002 158.78 42.8702C158.62 43.0102 158.4 43.0902 158.13 43.0902H156.8L156.62 42.2002L157.77 42.2502C157.98 42.2302 158.09 42.1102 158.09 41.8702V41.2202H155.73V43.2402H154.75V37.3702H159.07V42.1602L159.06 42.1502ZM158.08 38.9102V38.2502H155.72V38.9102H158.08ZM158.08 40.3602V39.7102H155.72V40.3602H158.08ZM164.22 36.0102V37.8302H164.88V38.7702H164.22V40.7902H162.21V42.2102C162.21 42.5702 162.12 42.8302 161.96 42.9902C161.8 43.1602 161.52 43.2402 161.09 43.2402H159.98L159.8 42.2102C160.21 42.2602 160.55 42.2902 160.83 42.2902C161.11 42.2902 161.23 42.2102 161.23 42.0602V40.7902H159.63V39.8502H161.23V38.7702H159.41V37.8302H161.23V36.9402H159.67V36.0002H164.22V36.0102ZM164.66 33.1602C163.43 33.5102 161.8 33.6802 159.76 33.6802L159.5 32.7402C161.32 32.7402 162.89 32.5802 164.17 32.2602L164.66 33.1602ZM161.14 35.6002L160.16 35.8302C160.02 35.3002 159.86 34.7902 159.67 34.2802L160.57 34.0002C160.77 34.4702 160.97 35.0002 161.14 35.6002ZM162.88 35.4602L161.9 35.7002C161.74 35.1202 161.55 34.5802 161.32 34.0602L162.21 33.7702C162.46 34.2702 162.68 34.8402 162.88 35.4602ZM162.21 37.8502H163.28V36.9602H162.21V37.8502ZM162.21 39.8702H163.28V38.7902H162.21V39.8702ZM164.61 33.8702C164.46 34.5902 164.28 35.2502 164.07 35.8402L163.14 35.5202C163.35 35.0402 163.52 34.4202 163.68 33.6502L164.61 33.8802V33.8702Z" fill="white"/>
<path d="M20.1602 67.8201L19.5002 68.9001C18.9202 68.3001 18.3302 67.8301 17.7102 67.4801L18.2903 66.5901C18.9603 66.9401 19.5902 67.3501 20.1602 67.8101V67.8201ZM20.4302 70.1101C19.8802 71.7401 19.2803 73.1701 18.5903 74.3801L17.7903 73.4401C18.3603 72.5001 18.9503 71.1701 19.5703 69.4501L20.4202 70.1101H20.4302ZM20.6902 64.9501L20.0203 66.0801C19.4503 65.4301 18.8602 64.9201 18.2402 64.5301L18.8203 63.5901C19.4903 63.9701 20.1202 64.4301 20.6902 64.9501ZM27.2302 68.5601V69.3601C26.8502 70.5101 26.2303 71.4901 25.3403 72.3201C26.0703 72.6801 26.9803 73.0401 28.0803 73.3901L27.2402 74.4201C26.0802 73.9401 25.1204 73.5001 24.3704 73.0601C23.4504 73.6101 22.1603 74.0901 20.5203 74.5001L19.8604 73.4301C21.2704 73.1201 22.4203 72.7601 23.2903 72.3401C22.5203 71.7501 21.8703 71.0801 21.3303 70.3401L22.1702 69.7301C22.7402 70.5001 23.4603 71.1701 24.3203 71.7201C24.3403 71.7101 24.3802 71.6801 24.4102 71.6601C25.1202 71.0801 25.6402 70.3801 25.9802 69.5401H20.7402V68.5601H27.2402H27.2302ZM23.4001 63.5501C23.3401 63.8301 23.2902 64.0801 23.2402 64.3101H27.4102C27.3302 66.1801 27.1802 67.2701 26.9502 67.5801C26.7202 67.8901 26.2001 68.0501 25.4001 68.0501C24.7701 68.0501 24.3303 68.0401 24.0703 68.0001L23.8003 66.9301C24.3203 66.9901 24.8602 67.0101 25.4102 67.0101C25.8002 67.0101 26.0401 66.9301 26.1301 66.7301C26.2201 66.6101 26.2803 66.1401 26.3003 65.3301H22.9602C22.8702 65.6201 22.7802 65.8801 22.6902 66.1001C22.4202 66.8401 21.9403 67.6401 21.2803 68.4601L20.5203 67.4801C21.0403 66.8601 21.4402 66.2401 21.7102 65.6501C21.9702 65.0901 22.1904 64.3301 22.3604 63.3701L23.4202 63.5501H23.4001Z" fill="white"/>
<path d="M32.9902 64.7202C33.1702 64.3402 33.3403 63.9202 33.5303 63.4502L34.6902 63.5902C34.5502 64.0002 34.4103 64.3802 34.2603 64.7202H39.4102V65.8002H33.7202C33.5102 66.1702 33.3003 66.5202 33.0703 66.8302H38.4702V73.2002C38.4702 73.5502 38.3802 73.8202 38.2102 74.0302C38.0302 74.2202 37.7404 74.3302 37.3604 74.3302H35.5403L35.3103 73.3002L37.0503 73.3502C37.2603 73.3502 37.3604 73.2402 37.3604 73.0102V71.8902H32.3704V74.3702H31.2603V68.9102C30.7503 69.3902 30.2004 69.8302 29.6104 70.2402L28.9001 69.3002C30.0501 68.4802 31.0203 67.5802 31.8103 66.6102C32.0203 66.3702 32.2102 66.0902 32.4102 65.7802H29.2102V64.7002H32.9902V64.7202ZM37.3604 68.8502V67.8702H32.3704V68.8502H37.3604ZM37.3604 70.9102V69.7802H32.3704V70.9102H37.3604Z" fill="white"/>
<path d="M44.7402 71.9401H41.8103V72.8801H40.7803V64.1101H44.7402V71.9401ZM43.7302 67.4401V65.1901H41.8203V67.4401H43.7302ZM43.7302 70.8601V68.4601H41.8203V70.8601H43.7302ZM45.7703 63.8301H50.5803V73.1001C50.5803 73.4801 50.4803 73.7801 50.2803 74.0001C50.1003 74.1801 49.8603 74.2801 49.5503 74.2801H47.7302L47.5103 73.1501L49.1104 73.2501C49.3404 73.2301 49.4602 73.0701 49.4602 72.7801V70.6701H46.7002C46.6102 71.1101 46.5004 71.5101 46.3604 71.8601C46.0304 72.7401 45.3902 73.6101 44.4302 74.5101L43.5002 73.6701C44.3502 73.0001 44.9603 72.2701 45.3103 71.4701C45.6103 70.8301 45.7703 69.8601 45.7703 68.5601V63.8301ZM49.4602 69.5901V67.7201H46.8801V68.5601C46.8801 68.9301 46.8603 69.2801 46.8303 69.5901H49.4502H49.4602ZM49.4602 66.6401V64.9101H46.8801V66.6401H49.4602Z" fill="white"/>
<path d="M54.2703 67.8199L53.6104 68.8999C53.0304 68.2999 52.4403 67.8299 51.8203 67.4799L52.4001 66.5899C53.0801 66.9399 53.7003 67.3499 54.2703 67.8099V67.8199ZM54.5403 70.1099C53.9903 71.7399 53.3902 73.1699 52.7202 74.3799L51.9102 73.4399C52.4802 72.4999 53.0702 71.1699 53.7002 69.4499L54.5403 70.1099ZM54.8003 64.9499L54.1401 66.0799C53.5601 65.4799 52.9703 64.9899 52.3503 64.6299L52.9302 63.6899C53.6002 64.0499 54.2303 64.4699 54.8003 64.9499ZM58.4902 63.8299C57.9402 65.1999 57.3703 66.3399 56.8003 67.2199C58.0803 67.1599 59.2302 67.0599 60.2502 66.9299C59.9502 66.3799 59.6303 65.7999 59.2903 65.1799L60.1301 64.6199C61.0401 66.0299 61.7503 67.2599 62.2603 68.2799L61.2502 69.0199C61.0902 68.6599 60.9102 68.2799 60.7302 67.8699C59.4802 68.0899 57.5003 68.2899 54.7903 68.4599L54.6204 67.2999C54.9404 67.2999 55.2603 67.2899 55.5603 67.2799C56.1503 66.3399 56.7601 65.0499 57.3801 63.4199L58.4902 63.8399V63.8299ZM61.5703 74.4199H60.5002V73.8099H56.2703V74.4599H55.2002V69.4499H61.5703V74.4299V74.4199ZM60.5002 72.7799V70.4799H56.2703V72.7799H60.5002Z" fill="white"/>
<path d="M66.3901 63.9299C66.1301 64.8299 65.8703 65.5999 65.5903 66.2399V74.3199H64.5603V68.1599C64.2503 68.6399 63.9203 69.1199 63.5803 69.5899L63.2202 68.2799C63.6802 67.6199 64.0902 66.9399 64.4302 66.2399C64.7802 65.6199 65.1302 64.6899 65.4602 63.4899L66.3901 63.92V63.9299ZM73.3303 67.4399L69.6301 67.8499C69.7001 68.6099 69.7804 69.1899 69.8704 69.5999C70.1404 70.6999 70.5002 71.5399 70.9402 72.1199C71.4202 72.7799 71.8302 73.0999 72.1802 73.0999C72.2702 73.0999 72.3404 73.0499 72.3704 72.9399C72.4504 72.8199 72.5304 72.1799 72.6204 71.0299L73.7302 71.6899C73.5702 72.8199 73.3802 73.56 73.1702 73.92C72.9602 74.21 72.6703 74.3599 72.2603 74.3599C71.6403 74.3599 70.9803 73.9299 70.2803 73.0799C69.6603 72.3399 69.1703 71.2699 68.8203 69.8799C68.6903 69.3999 68.5903 68.7599 68.5103 67.9599L66.0703 68.2199L65.9502 67.14L68.4102 66.8799C68.3402 65.9099 68.2803 64.7599 68.2603 63.4399H69.3801C69.4101 64.7399 69.4703 65.8499 69.5403 66.7599L73.2002 66.3499L73.3403 67.4299L73.3303 67.4399ZM72.6204 65.4599L71.6401 66.17C71.3101 65.65 70.8703 65.0699 70.3103 64.3999L71.1104 63.8799C71.7504 64.4999 72.2601 65.0299 72.6301 65.4599H72.6204Z" fill="white"/>
<path d="M77.7903 63.9299C77.5303 64.8299 77.2702 65.5999 76.9902 66.2399V74.3199H75.9602V68.1599C75.6502 68.6399 75.3202 69.1199 74.9802 69.5899L74.6204 68.2799C75.0804 67.6199 75.4903 66.9399 75.8303 66.2399C76.1803 65.6199 76.5304 64.6899 76.8604 63.4899L77.7903 63.92V63.9299ZM84.7302 67.4399L81.0303 67.8499C81.1003 68.6099 81.1803 69.1899 81.2703 69.5999C81.5403 70.6999 81.9003 71.5399 82.3403 72.1199C82.8203 72.7799 83.2303 73.0999 83.5803 73.0999C83.6703 73.0999 83.7403 73.0499 83.7703 72.9399C83.8503 72.8199 83.9303 72.1799 84.0203 71.0299L85.1301 71.6899C84.9701 72.8199 84.7803 73.56 84.5703 73.92C84.3603 74.21 84.0702 74.3599 83.6602 74.3599C83.0402 74.3599 82.3802 73.9299 81.6802 73.0799C81.0602 72.3399 80.5702 71.2699 80.2202 69.8799C80.0902 69.3999 79.9902 68.7599 79.9102 67.9599L77.4702 68.2199L77.3503 67.14L79.8103 66.8799C79.7403 65.9099 79.6802 64.7599 79.6602 63.4399H80.7803C80.8103 64.7399 80.8702 65.8499 80.9402 66.7599L84.6003 66.3499L84.7402 67.4299L84.7302 67.4399ZM84.0203 65.4599L83.0403 66.17C82.7103 65.65 82.2702 65.0699 81.7102 64.3999L82.5103 63.8799C83.1503 64.4999 83.6603 65.0299 84.0303 65.4599H84.0203Z" fill="white"/>
<path d="M90.6104 65.6599V63.4199H91.8103V65.6599H96.3604V66.7899H92.9001C93.2601 67.6899 93.7203 68.5299 94.2603 69.2999C94.8003 70.0699 95.5603 70.9099 96.5403 71.8099L95.7402 72.8899C94.6902 71.8699 93.8502 70.8399 93.2102 69.7799C92.6602 68.9399 92.2003 67.9399 91.8203 66.7899V74.4699H90.6204V66.7899C90.2804 67.8299 89.9403 68.6599 89.5703 69.2599C88.9703 70.4099 87.9704 71.6099 86.6104 72.8799L85.9902 71.7499C86.9802 70.8599 87.7603 69.9699 88.3303 69.1099C88.7603 68.4899 89.1503 67.7099 89.5203 66.7799H86.0803V65.6499H90.6301L90.6104 65.6599Z" fill="white"/>
<path d="M101.17 64.3499C100.76 65.5599 100.39 66.4399 100.1 66.9599C99.8003 67.5599 99.3003 68.2599 98.5803 69.0699L97.6501 68.2299C98.2701 67.5699 98.7701 66.9199 99.1501 66.2799C99.4901 65.6299 99.8003 64.8399 100.05 63.9299L101.17 64.3499ZM102.81 67.5799C102.08 69.6099 101.35 71.2499 100.6 72.5199C102.26 72.4699 103.77 72.3599 105.11 72.2199C104.77 71.3999 104.38 70.6099 103.97 69.8299L105.08 69.45C105.86 70.8 106.56 72.3499 107.18 74.0899L105.94 74.4299C105.8 74.0099 105.66 73.5999 105.52 73.2199C103.99 73.4399 101.54 73.6299 98.1902 73.8199L98.0103 72.5999C98.4403 72.5999 98.8803 72.5899 99.2903 72.5799C100.04 71.3099 100.82 69.4899 101.63 67.1199L102.83 67.5899L102.81 67.5799ZM105.31 63.6899C105.72 65.1799 106.6 66.5699 107.93 67.8599L107.18 68.9799C106.52 68.3599 105.99 67.7199 105.6 67.0699C105.12 66.3699 104.75 65.5799 104.46 64.7199H102.16V63.6899H105.32H105.31Z" fill="white"/>
<path d="M118.93 74.3302H117.95V73.9102H110.12V74.3302H109.14V63.7402H118.93V74.3302ZM117.95 72.9602V64.6703H110.12V72.9602H117.95ZM117.06 68.0403V70.2003H113.91C113.85 70.2703 113.81 70.3403 113.76 70.3903V72.7303H112.82V71.2802C112.23 71.7102 111.54 72.0702 110.77 72.3602L110.28 71.5103C111.05 71.2603 111.67 70.9802 112.11 70.6902C112.35 70.5302 112.57 70.3703 112.75 70.2003H111.13V68.0403H117.05H117.06ZM113.41 65.4302V64.9503H114.34V65.4302H117.05V66.1703H114.34V66.7802H117.54V67.5703H110.37V66.7802H113.4V66.1703H110.86V65.4302H113.4H113.41ZM116.17 68.8002H112.03V69.4503H116.17V68.8002ZM115.6 71.0302C115.82 70.7902 115.99 70.5402 116.12 70.3002L116.96 70.8203C116.85 71.0003 116.69 71.2002 116.48 71.4402C116.87 71.6302 117.23 71.8402 117.59 72.0302L117.05 72.8802C116.05 72.2102 115.03 71.6703 113.98 71.2903L114.42 70.5802C114.82 70.7202 115.21 70.8803 115.58 71.0403L115.6 71.0302Z" fill="white"/>
<path d="M123.6 63.5999C123.46 64.2199 123.27 64.8099 123.03 65.3399H124.67V67.8499C125 67.2699 125.26 66.6999 125.44 66.1199C125.67 65.4499 125.85 64.5499 126 63.4199L127.12 63.5999C127.02 64.2499 126.91 64.8099 126.81 65.2899H130.32C130.32 69.5099 130.25 72.0099 130.14 72.7699C130.03 73.3699 129.83 73.7799 129.56 73.9699C129.24 74.2099 128.65 74.3299 127.79 74.3299C127.54 74.3299 127.25 74.3099 126.93 74.2799L126.76 73.0999C127.09 73.1699 127.43 73.1999 127.79 73.1999C128.51 73.1999 128.91 72.9499 129 72.4399C129.14 71.8199 129.23 69.7899 129.25 66.3599H126.54C126.51 66.4399 126.48 66.5199 126.47 66.5599C126.22 67.4199 125.8 68.3499 125.2 69.3099L124.66 68.6099V73.5199H123.68V72.9599H121.59V73.8599H120.61V65.3299H122.02C122.26 64.7499 122.44 64.1199 122.57 63.4499L123.58 63.5899L123.6 63.5999ZM123.69 68.6599V66.3199H121.6V68.6599H123.69ZM123.69 71.9799V69.5899H121.6V71.9799H123.69ZM128.41 70.8199L127.34 71.5599C127.02 70.6999 126.58 69.6899 126.01 68.5599L126.9 67.9499C127.54 69.0699 128.05 70.0199 128.42 70.8199H128.41Z" fill="white"/>
<path d="M136.38 63.5499C136.13 63.9599 135.78 64.3399 135.32 64.6899C136.55 64.6699 137.6 64.6099 138.48 64.5199C138.27 64.3799 138.07 64.2199 137.85 64.0599L138.57 63.5899C139.55 64.2099 140.33 64.7399 140.88 65.1899L140.04 65.7999C139.84 65.6099 139.62 65.4199 139.37 65.1999C138.09 65.3799 136.3 65.5099 133.98 65.6099L134.61 65.8499C134.34 66.3099 134.03 66.6999 133.7 67.0499C134.45 66.9999 135.1 66.9299 135.65 66.8299C135.49 66.6599 135.32 66.4799 135.15 66.3099L135.78 65.6999C136.3 66.1899 136.75 66.6699 137.12 67.1399C137.43 66.6399 137.7 66.0999 137.95 65.5099L138.93 65.8499C138.75 66.2299 138.55 66.5799 138.35 66.9199C139.01 66.8999 139.57 66.8499 140.05 66.7799C139.9 66.6399 139.75 66.4799 139.61 66.3199L140.32 65.8499C141.05 66.4999 141.63 67.0599 142.06 67.5299L141.2 68.1399C141.05 67.9499 140.89 67.7299 140.72 67.5199C140.08 67.6599 139.23 67.7799 138.17 67.8699C138.63 68.1699 139.08 68.4199 139.56 68.6299C140.08 68.8899 140.97 69.1799 142.23 69.5099L141.65 70.4599C141.02 70.2999 140.41 70.1099 139.8 69.8699C138.87 69.4999 137.91 68.9599 136.93 68.2499C136.22 68.7299 135.55 69.1299 134.89 69.4399C134.18 69.7799 133.23 70.1099 132.04 70.4599L131.55 69.4599C132.87 69.1399 133.89 68.7999 134.6 68.4599C135.07 68.2399 135.56 67.9599 136.07 67.6099C135.11 67.8299 133.77 67.9799 132.04 68.0999L131.77 67.1199C132.04 67.1199 132.31 67.1199 132.57 67.1099C132.92 66.6499 133.23 66.1699 133.5 65.6499C133.32 65.6599 133.15 65.6699 132.98 65.6699L132.71 64.7299C133.2 64.7299 133.67 64.7299 134.11 64.7199C134.6 64.3099 134.97 63.8799 135.2 63.4199L136.4 63.5499H136.38ZM137.85 69.4499C137.12 70.0699 136.46 70.5199 135.88 70.7999C135.24 71.1099 134.36 71.3999 133.27 71.6499L132.69 70.8599C133.87 70.5999 134.8 70.3099 135.44 69.9999C135.94 69.7599 136.49 69.3999 137.06 68.8999L137.86 69.4499H137.85ZM139.32 70.3499C138.45 71.0899 137.69 71.6299 137.01 71.9799C136.25 72.3599 135.22 72.7099 133.94 73.0099L133.36 72.1699C134.75 71.8599 135.82 71.5199 136.57 71.1399C137.16 70.8499 137.8 70.3999 138.47 69.7899L139.31 70.3499H139.32ZM140.97 71.2399C139.92 72.1499 138.99 72.8199 138.15 73.2399C137.23 73.7099 135.98 74.1299 134.42 74.5099L133.79 73.6199C135.5 73.2399 136.81 72.7999 137.73 72.3199C138.46 71.9599 139.25 71.3799 140.07 70.6199L140.96 71.2299L140.97 71.2399Z" fill="white"/>
<path d="M152.73 63.9702V65.0002H148.68V65.9002C148.67 66.4302 148.63 66.9302 148.59 67.4002H153.04V68.4702H149.47C149.73 69.5402 150.12 70.4102 150.64 71.0802C151.31 71.9902 152.21 72.7202 153.35 73.3002L152.72 74.4302C151.38 73.6002 150.37 72.7002 149.71 71.7002C149.09 70.8502 148.66 69.8302 148.4 68.6302C148.18 69.7302 147.85 70.6702 147.4 71.4602C146.65 72.7502 145.42 73.7402 143.73 74.4302L143.1 73.4002C144.81 72.6602 145.98 71.7202 146.6 70.5802C146.92 69.9702 147.17 69.2602 147.33 68.4702H143.24V67.4002H147.49C147.54 66.9202 147.56 66.4302 147.56 65.9002V65.0002H143.68V63.9702H152.72H152.73Z" fill="white"/>
<path d="M156.7 69.1702V67.9502H157.68V69.1702H159.41V70.1501H157.73C158.23 70.5601 158.74 71.0102 159.27 71.5002L158.73 72.3502C158.31 71.8602 157.95 71.4502 157.67 71.1402V74.4102H156.69V71.3502C156.18 72.1402 155.58 72.8001 154.9 73.3301L154.33 72.4301C155.26 71.7801 155.99 71.0302 156.54 70.1402H154.37V69.1602H156.68L156.7 69.1702ZM159.11 64.5302V63.4102H160.12V64.5302H164.39V65.5102H161.26C161.66 65.9202 162.03 66.2202 162.38 66.3902C162.9 66.7302 163.63 67.0402 164.58 67.3502L164.14 68.3802C162.97 67.9002 162.1 67.4301 161.54 66.9901C161.1 66.6801 160.64 66.1902 160.17 65.5102H160.12V68.5102H159.11V65.5102H159.05C158.74 65.9702 158.43 66.3101 158.13 66.5801C157.53 67.1801 156.53 67.8201 155.14 68.4601L154.6 67.4802C155.63 67.0802 156.42 66.6902 156.99 66.2902C157.34 66.0702 157.66 65.8102 157.96 65.5102H154.83V64.5302H159.1H159.11ZM161.47 69.1702V67.9502H162.45V69.1702H164.86V70.1501H162.64C162.87 70.5301 163.13 70.8902 163.44 71.2302C163.8 71.6402 164.33 72.0702 164.99 72.5402L164.28 73.4802C163.62 72.8902 163.08 72.2902 162.68 71.6902C162.59 71.5802 162.52 71.4601 162.45 71.3401V74.4202H161.47V71.3102C160.84 72.1902 160.11 72.9201 159.28 73.5201L158.7 72.6302C159.81 71.9302 160.68 71.1101 161.32 70.1501H159.68V69.1702H161.47Z" fill="white"/>
<path d="M167.61 65.7099V63.4199H168.67V65.7099H170.28V66.7399H168.67V67.0999C169.33 67.7599 169.99 68.4999 170.68 69.3199L170.06 70.2999C169.5 69.4799 169.03 68.8399 168.67 68.3599V74.4299H167.61V68.3899C167.56 68.5499 167.52 68.6899 167.47 68.8299C167.13 69.8999 166.72 70.8199 166.23 71.6099L165.79 70.3499C166.43 69.3099 166.95 68.1099 167.37 66.7399H165.87V65.7099H167.61ZM172.59 65.7099V63.4199H173.66V65.7099H176.02V66.7399H174.07C174.3 67.5699 174.58 68.3499 174.92 69.0799C175.27 69.8199 175.78 70.6399 176.41 71.5099L175.66 72.5399C175.02 71.5599 174.52 70.5499 174.14 69.5299C173.96 69.0699 173.79 68.5799 173.65 68.0399V74.4199H172.58V68.3299C171.99 70.0299 171.29 71.4599 170.49 72.5899L169.82 71.5099C170.85 70.1799 171.64 68.5799 172.24 66.7399H170.67V65.7099H172.58H172.59Z" fill="white"/>
<path d="M10.5403 95.8301C8.24028 96.2101 5.66029 96.4302 2.80029 96.4802V98.0402H9.92017V98.8802C9.51017 100.49 8.8003 101.85 7.8103 102.98C8.6903 103.6 9.71015 104.12 10.9001 104.55L10.2703 105.67C8.94026 105.08 7.83021 104.46 6.96021 103.78C5.99021 104.51 4.67024 105.15 3.00024 105.67L2.34033 104.6C3.89033 104.14 5.12028 103.6 6.04028 102.98C5.94028 102.88 5.85026 102.79 5.77026 102.69C4.81026 101.71 4.14024 100.49 3.75024 99.0702H2.78027V99.9102C2.75027 100.86 2.61036 101.85 2.37036 102.91C2.13036 103.82 1.74021 104.67 1.22021 105.49L0.420166 104.6C0.840166 103.93 1.15034 103.24 1.35034 102.55C1.53034 101.79 1.6502 100.92 1.7002 99.9102V95.4601C4.9802 95.4601 7.71015 95.2002 9.90015 94.6602L10.5203 95.8401L10.5403 95.8301ZM6.71021 102.09C6.78021 102.16 6.86018 102.23 6.93018 102.28C6.98018 102.23 7.02029 102.2 7.05029 102.15C7.80029 101.32 8.36021 100.29 8.71021 99.0702H4.87036C5.27036 100.31 5.8802 101.31 6.7002 102.09H6.71021Z" fill="white"/>
<path d="M14.6003 94.7502V102.27C15.4003 101.96 16.2003 101.59 17.0103 101.17L17.2703 102.3C15.9503 103.08 14.3201 103.76 12.3801 104.36L11.8901 103.18C12.4001 103.05 12.9202 102.89 13.4402 102.71V94.7502H14.6003ZM20.7002 94.7502C20.6702 97.2202 20.4202 99.2102 19.9502 100.72C20.8502 101.87 21.6303 103.02 22.2603 104.16L21.3303 105.14C20.8603 104.18 20.2402 103.14 19.4502 102.03C18.8302 103.28 17.6903 104.45 16.0303 105.57L15.2302 104.54C16.8002 103.57 17.8602 102.54 18.4102 101.43C19.1102 100.06 19.4803 97.8302 19.5403 94.7402H20.7002V94.7502ZM18.2502 99.1502L17.1401 99.9503C16.7401 98.9403 16.2103 97.7803 15.5303 96.4803L16.4702 95.8702C17.2202 97.1402 17.8102 98.2303 18.2502 99.1403V99.1502Z" fill="white"/>
<path d="M32.6301 97.6501V102.15H29.0603V103.05H33.7402V104.03H29.0603V105.63H28.0002V104.03H23.2402V103.05H28.0002V102.15H24.4302V97.6501H32.6301ZM25.8103 95.6001V94.6201H26.8801V95.6001H28.2102V96.6301H26.8801V97.2801H25.8103V96.6301H23.3103V95.6001H25.8103ZM31.6003 99.4401V98.6001H25.4602V99.4401H31.6003ZM31.6003 100.33H25.4602V101.22H31.6003V100.33ZM30.0403 95.6001V94.6201H31.1104V95.6001H33.6501V96.6301H31.1104V97.2801H30.0403V96.6301H28.7502V95.6001H30.0403Z" fill="white"/>
<path d="M36.0203 97.75V94.75H37.1301V97.75H38.2903V98.88H37.1301V102.49C37.5101 102.33 37.8903 102.14 38.2903 101.93V103.15C37.2903 103.68 36.1702 104.1 34.9502 104.41L34.8103 103.15C35.2003 103.1 35.6003 103.02 36.0203 102.89V98.88H34.8103V97.75H36.0203ZM44.8801 100.58C44.8601 101.11 44.7703 101.5 44.5903 101.76C44.4103 102.02 43.9203 102.16 43.1003 102.16L42.6602 101.04H43.3203C43.5503 101.04 43.6802 100.99 43.7402 100.88C43.7702 100.8 43.8003 100.58 43.8103 100.23V98.06L42.3901 98.64V103.15H41.3801V99.06L40.1301 99.58V103.8C40.1301 104.09 40.2603 104.22 40.5303 104.22H43.5203C43.7503 104.22 43.9103 104.17 44.0203 104.08C44.1503 103.98 44.2303 103.52 44.2703 102.68L45.3003 103.02C45.2003 104.15 45.0303 104.81 44.7903 105C44.5803 105.2 44.2102 105.31 43.6602 105.31H40.1401C39.8101 105.31 39.5504 105.2 39.3704 105.01C39.1604 104.79 39.0703 104.52 39.0703 104.18V100.03L38.1802 100.39V99.26L39.0703 98.9V95.94H40.1401V98.48L41.3901 97.98V94.77H42.4001V97.58L44.9402 96.56C44.9102 99.26 44.8901 100.6 44.8901 100.6L44.8801 100.58Z" fill="white"/>
<path d="M52.1003 101.81C51.8703 101.44 51.5303 100.97 51.0603 100.41C50.7703 100.09 50.3302 99.6801 49.7402 99.2001L50.4702 98.5801C50.8602 98.8701 51.3003 99.2601 51.8103 99.7801C52.1303 100.12 52.4804 100.57 52.8704 101.15L52.1003 101.82V101.81Z" fill="white"/>
<path d="M59.0303 96.9101V94.6201H60.0103V96.9101H61.2202V97.8901H60.0103V98.3001C60.4903 98.9001 60.9602 99.5601 61.4302 100.28L60.8503 101.17C60.5203 100.51 60.2303 99.9701 60.0103 99.5501V105.63H59.0303V100.11C58.6903 101.05 58.2903 101.87 57.8303 102.58L57.3901 101.31C58.0401 100.31 58.5803 99.1801 59.0103 97.8901H57.5603V96.9101H59.0303ZM63.9302 95.6501C63.9802 95.3101 64.0203 94.9701 64.0703 94.6201L65.1003 94.7501C65.0503 95.0601 65.0102 95.3601 64.9602 95.6501H67.7202V96.6301H64.7603C64.6903 96.8901 64.6303 97.1301 64.5703 97.3701H67.1003V104.3H68.0303V105.33H60.7803V104.3H61.7603V97.3701H63.5803C63.6403 97.1301 63.6902 96.8801 63.7502 96.6301H61.1702V95.6501H63.9302ZM66.0603 99.2001V98.3601H62.7703V99.2001H66.0603ZM66.0603 100.89V100.05H62.7703V100.89H66.0603ZM66.0603 102.63V101.73H62.7703V102.63H66.0603ZM66.0603 104.31V103.47H62.7703V104.31H66.0603Z" fill="white"/>
<path d="M70.2202 96.9101V94.6201H71.2002V96.9101H72.3103V97.8901H71.2002V98.5601C71.6002 99.0501 72.0001 99.5801 72.4001 100.13V98.9701H75.8801V101.82H72.4001V100.52L71.9602 101.2C71.6602 100.65 71.4102 100.19 71.2102 99.8201V105.61H70.2302V100.32C69.9402 101.16 69.6102 101.92 69.2502 102.56L68.8503 101.38C69.4103 100.4 69.8602 99.2601 70.2302 97.9901V97.8701H69.0203V96.8901H70.2302L70.2202 96.9101ZM75.6902 102.44C75.5202 102.99 75.3401 103.48 75.1301 103.93C75.5201 103.86 75.9203 103.79 76.3203 103.7V104.68C74.9703 104.96 73.4703 105.17 71.8203 105.34L71.6902 104.31C72.4602 104.29 73.2901 104.2 74.1401 104.08C74.3901 103.48 74.6103 102.83 74.8003 102.11L75.6902 102.43V102.44ZM73.6802 95.5601V94.6201H74.6104V95.5601H76.1702V96.5001H74.6104V97.4401H75.8604V98.3801H72.3801V97.4401H73.6702V96.5001H72.0703V95.5601H73.6702H73.6802ZM73.7703 103.75L72.8403 103.99C72.7003 103.44 72.5403 102.9 72.3503 102.39L73.1902 102.11C73.4102 102.59 73.6003 103.13 73.7703 103.74V103.75ZM74.9802 99.9101H73.2803V100.89H74.9802V99.9101ZM77.6902 101.83L76.7102 102.07C76.5502 101.12 76.3303 100.21 76.0803 99.3501L76.9802 99.0701C77.2402 99.8701 77.4802 100.8 77.6902 101.83ZM77.8704 96.7201V94.6201H78.8003V96.7201H79.3704V97.7001H78.8003V104.36C78.8003 104.79 78.7203 105.09 78.5603 105.26C78.4203 105.44 78.1603 105.54 77.7703 105.54H76.7402L76.5103 104.37C76.9103 104.44 77.2402 104.47 77.4902 104.47C77.7402 104.47 77.8503 104.37 77.8503 104.18V97.7201H76.2002V96.7401H77.8503L77.8704 96.7201Z" fill="white"/>
<path d="M86.3003 101.81C86.0703 101.44 85.7303 100.97 85.2603 100.41C84.9703 100.09 84.5302 99.6801 83.9402 99.2001L84.6702 98.5801C85.0602 98.8701 85.5003 99.2601 86.0103 99.7801C86.3303 100.12 86.6803 100.57 87.0703 101.15L86.3003 101.82V101.81Z" fill="white"/>
<path d="M94.5303 95.2201V94.6201H95.5403V95.2201H96.7502V96.0701H95.5403V96.3901H94.5303V96.0701H91.6401V95.2201H94.5303ZM94.1702 96.8201V96.5001H95.1003V96.8201H96.8901V97.4801H95.1003V97.9001H97.2402V98.6101H96.2102V98.7401C96.2102 98.8701 96.3103 98.9301 96.5203 98.9301H97.1902V99.4901H96.3503C96.0503 99.4901 95.8302 99.4501 95.6702 99.3601C95.5002 99.2801 95.4202 99.1301 95.4202 98.9301V98.6101H93.8203C93.7503 98.9301 93.6302 99.2001 93.4202 99.4101C93.3302 99.5101 93.2404 99.6001 93.1204 99.6701H94.1104V99.0201H95.0903V99.6701H96.7002V100.33H95.0903V100.77C95.7503 100.73 96.3702 100.69 96.9302 100.61V101.26C96.0002 101.42 94.3803 101.56 92.0703 101.68L91.9802 100.89C92.7302 100.89 93.4504 100.87 94.1104 100.83V100.33H92.7302V99.9101C92.5602 99.9901 92.3802 100.08 92.1902 100.15L91.7502 99.3901C92.1902 99.2701 92.5202 99.1401 92.7302 98.9701C92.8702 98.8701 92.9603 98.7501 93.0203 98.6001H91.8901V97.8901H94.1602V97.4701H92.2502V96.8101H94.1602L94.1702 96.8201ZM102.06 102.96V103.75H100.25C100.79 104.22 101.25 104.71 101.66 105.25L100.76 105.67C100.65 105.5 100.53 105.36 100.43 105.23C98.8002 105.34 96.1201 105.45 92.3901 105.54L92.2502 104.65C92.7302 104.65 93.2001 104.64 93.6501 104.64C93.9201 104.35 94.1503 104.06 94.3203 103.75H91.8003V102.96H102.05H102.06ZM100.9 101.78V102.54H93.0703V101.78H100.9ZM99.2603 103.94L99.8503 103.75H95.6003C95.4403 104.05 95.2202 104.34 94.9602 104.61C96.7602 104.59 98.3703 104.54 99.8003 104.49C99.6203 104.3 99.4402 104.11 99.2502 103.94H99.2603ZM98.6301 97.4301V96.6701H99.4702V97.4301H101.08V100.06C101.14 100.41 101.2 100.58 101.3 100.58C101.4 100.58 101.47 100.21 101.53 99.4501L102.16 99.9701C102.02 100.8 101.89 101.27 101.75 101.39C101.6 101.55 101.43 101.62 101.23 101.62C100.96 101.62 100.74 101.54 100.6 101.36C100.38 101.12 100.27 100.7 100.25 100.08V98.2501H99.4902C99.4702 98.8001 99.4103 99.2701 99.3003 99.6601C99.6003 99.8901 99.8902 100.12 100.17 100.36L99.7302 101.12C99.4802 100.88 99.2402 100.66 98.9902 100.46C98.7502 100.89 98.4002 101.31 97.9402 101.72L97.2302 101.07C97.7102 100.71 98.0603 100.33 98.2903 99.9201C97.9903 99.7201 97.7002 99.5401 97.4102 99.3801L97.8103 98.7201C98.0603 98.8601 98.3103 99.0201 98.5603 99.1601C98.6103 98.9001 98.6401 98.5801 98.6501 98.2501H97.4102V97.4601H98.6501L98.6301 97.4301ZM98.5403 95.2201V94.6201H99.5703V95.2201H102.19V96.0701H99.5703V96.5401H98.5403V96.0701H97.3403V95.2201H98.5403Z" fill="white"/>
<path d="M105.97 95.3599C105.37 96.1999 104.61 96.9399 103.7 97.6099L103.04 96.6599C103.86 96.1299 104.6 95.4799 105.26 94.6899L105.97 95.3499V95.3599ZM105.89 97.9899C105.64 98.5999 105.39 99.1199 105.13 99.5499V105.63H104.15V100.82C103.91 101.08 103.66 101.35 103.4 101.6L103.05 100.33C103.44 99.9499 103.79 99.5599 104.11 99.1599C104.42 98.7999 104.71 98.2699 105.01 97.5799L105.9 97.9999L105.89 97.9899ZM107 98.9299C106.97 100.86 106.78 102.68 106.46 104.41L105.53 104.17C105.88 102.38 106.07 100.62 106.07 98.8799L107 98.9299ZM107.44 96.8699V94.6299H108.42V96.8699H110.12V97.8499H108.42V105.63H107.44V97.8499H105.94V96.8699H107.44ZM110.12 96.2099L109.23 96.6399C109.04 96.0899 108.83 95.6099 108.6 95.1799L109.49 94.8999C109.72 95.3099 109.93 95.7499 110.12 96.2099ZM109.8 98.8799V102.39C109.8 102.61 109.91 102.71 110.16 102.71H110.6V103.65H109.93C109.59 103.65 109.33 103.58 109.14 103.43C108.95 103.29 108.86 103.05 108.86 102.71V98.8699H109.79L109.8 98.8799ZM113.55 98.5999V99.6699H112.52V104.36C112.52 104.79 112.43 105.09 112.25 105.26C112.09 105.44 111.79 105.54 111.36 105.54H110.38L110.16 104.37C110.52 104.44 110.84 104.47 111.09 104.47C111.34 104.47 111.49 104.37 111.49 104.18V99.6799H110.28V98.6099H113.54L113.55 98.5999ZM113.32 95.3099V96.3899H110.42V95.3099H113.32Z" fill="white"/>
<path d="M120.5 101.81C120.27 101.44 119.93 100.97 119.46 100.41C119.17 100.09 118.73 99.6801 118.14 99.2001L118.87 98.5801C119.26 98.8701 119.7 99.2601 120.21 99.7801C120.53 100.12 120.88 100.57 121.27 101.15L120.5 101.82V101.81Z" fill="white"/>
<path d="M127.97 100.42V99.5302H128.95V100.42H130.77V101.4H128.95V105.62H127.97V102.57C127.94 102.64 127.9 102.7 127.87 102.76C127.44 103.49 126.92 104.13 126.33 104.67L125.92 103.64C126.71 102.99 127.37 102.24 127.89 101.4H125.92V100.42H127.97ZM128.98 95.6501H130.72V96.6302H130.2L129.78 98.3601H130.77V99.3401H126.01V98.3601H127.09L126.63 96.6302H126.09V95.6501H127.93C127.81 95.3501 127.67 95.0601 127.52 94.8001L128.59 94.6602C128.73 94.9602 128.85 95.3002 128.98 95.6602V95.6501ZM128.84 98.3601L129.26 96.6302H127.61L128.07 98.3601H128.85H128.84ZM131.13 103.61L130.15 103.98C129.85 103.26 129.48 102.56 129.03 101.87L129.83 101.64C130.38 102.36 130.81 103.01 131.13 103.61ZM135.8 95.0302V101.82H134.55V104.07C134.55 104.32 134.66 104.44 134.91 104.44H135.08C135.22 104.44 135.31 104.39 135.38 104.27C135.45 104.16 135.51 103.63 135.53 102.7L136.46 102.99C136.38 104.19 136.25 104.88 136.07 105.1C135.91 105.32 135.63 105.42 135.22 105.42H134.55C134.25 105.42 134.01 105.32 133.84 105.14C133.66 104.95 133.57 104.7 133.57 104.38V101.8H132.93C132.86 102.69 132.69 103.4 132.42 103.92C132.15 104.47 131.53 105 130.55 105.5L129.88 104.61C130.63 104.27 131.15 103.93 131.42 103.55C131.69 103.17 131.88 102.58 131.94 101.79H131.17V95.0002H135.81L135.8 95.0302ZM134.82 97.0002V96.0602H132.14V97.0002H134.82ZM134.82 98.7802V97.8902H132.14V98.7802H134.82ZM134.82 99.7202H132.14V100.8H134.82V99.7202Z" fill="white"/>
<path d="M146.54 95.1699V96.1499C145.91 96.8499 144.83 97.7299 143.29 98.8099V99.6299H147.61V100.75H143.29V104.46C143.29 104.8 143.21 105.06 143.06 105.25C142.85 105.47 142.58 105.59 142.26 105.59H140.13L140.04 104.37C140.75 104.44 141.33 104.47 141.77 104.47C141.98 104.47 142.08 104.35 142.08 104.1V100.77H137.45V99.6499H142.08V98.1899C143.2 97.5799 144.18 96.9399 145.02 96.2699H138.57V95.1899H146.54V95.1699Z" fill="white"/>
<path d="M157.99 101.16V102.19H154.47V104.3H159.15V105.38H148.64V104.3H153.31V102.19H149.83V101.16H157.98H157.99ZM153.36 97.7901C152.94 98.5601 152.45 99.1501 151.9 99.5501C151.33 99.9601 150.49 100.32 149.35 100.61L148.77 99.5301C149.96 99.2901 150.78 99.0101 151.21 98.7001C151.64 98.4501 152.06 97.9601 152.48 97.2301L153.37 97.7901H153.36ZM154.57 95.7801H158.79V98.2601H157.73V96.8101H155.63V98.6801C155.63 98.9701 155.78 99.1101 156.07 99.1101H159.01V100.09H155.81C155.4 100.09 155.09 100.01 154.86 99.8401C154.62 99.6801 154.51 99.4201 154.51 99.0601V96.8101H150.06V98.2601H148.99V95.7801H153.42C153.27 95.4301 153.11 95.1101 152.95 94.8001L154.1 94.6201C154.26 94.9701 154.41 95.3501 154.56 95.7801H154.57Z" fill="white"/>
<path d="M164.8 99.4402H161.46V105.63H160.43V94.9902H164.8V99.4402ZM163.77 96.7202V95.9302H161.46V96.7202H163.77ZM163.77 98.5103V97.6202H161.46V98.5103H163.77ZM167.6 100.01V104.55H162.93V100.01H167.6ZM166.57 101.78V100.94H163.94V101.78H166.57ZM166.57 102.67H163.94V103.62H166.57V102.67ZM170.13 94.9902V104.45C170.13 104.87 170.02 105.18 169.8 105.39C169.61 105.57 169.29 105.67 168.84 105.67H168L167.77 104.55L168.63 104.6C168.92 104.59 169.06 104.42 169.07 104.08V99.4402H165.64V94.9902H170.13ZM169.07 96.7702V95.9302H166.71V96.7702H169.07ZM169.07 97.6202H166.71V98.5103H169.07V97.6202Z" fill="white"/>
<path d="M176.24 96.2499H173.17V95.1699H177.35C177.51 97.4799 177.99 99.2999 178.77 100.62C179.51 101.98 180.59 103.23 182.02 104.41L181.27 105.63C179.65 104.13 178.51 102.69 177.83 101.31C177.42 100.53 177.09 99.6899 176.83 98.7999C176.47 100.06 176.07 101.1 175.61 101.92C174.95 103.07 173.85 104.29 172.33 105.58L171.57 104.45C173.02 103.3 174.08 102.12 174.76 100.9C175.38 99.7999 175.9 98.3999 176.33 96.7399C176.28 96.5699 176.26 96.4199 176.24 96.2499Z" fill="white"/>
<path d="M188.17 99.2899V100.23H186.3V101.45H187.77V102.34H186.3V103.89C186.46 103.96 186.62 104.03 186.78 104.08C187.69 104.37 189.15 104.5 191.13 104.5C191.94 104.5 192.69 104.46 193.38 104.4L193.21 105.58C189.88 105.56 187.72 105.38 186.71 105.06C185.78 104.75 184.97 104.27 184.27 103.61C184.11 104.22 183.88 104.86 183.59 105.53L182.92 104.64C183.17 104.04 183.35 103.45 183.48 102.88C183.59 102.34 183.69 101.61 183.78 100.7L184.76 100.84C184.68 101.5 184.6 102.05 184.52 102.51C184.77 102.8 185.03 103.05 185.29 103.24V100.23H182.96V99.2899H188.17ZM187.77 94.9399V98.7299H183.59V94.9399H187.77ZM186.84 96.4399V95.8299H184.53V96.4399H186.84ZM186.84 97.2299H184.53V97.8399H186.84V97.2299ZM190.27 102.95C189.56 103.53 188.87 103.95 188.17 104.21L187.77 103.27C188.5 103.05 189.14 102.72 189.68 102.24L190.26 102.95H190.27ZM193.16 94.9899V95.9299H191.21C191.14 96.2199 191.06 96.5099 190.97 96.7699H192.76V102.15H188.53V96.7699H189.95C190.05 96.5099 190.14 96.2199 190.21 95.9299H188.16V94.9899H193.15H193.16ZM191.78 98.2599V97.6099H189.51V98.2599H191.78ZM191.78 99.7599V99.0199H189.51V99.7599H191.78ZM191.78 100.56H189.51V101.3H191.78V100.56ZM193.3 103.32L192.76 104.16C192.14 103.67 191.53 103.28 190.89 103L191.33 102.29C192.04 102.58 192.7 102.93 193.29 103.32H193.3Z" fill="white"/>
<path d="M37.4001 125.95V133.47C38.2001 133.16 39.0003 132.79 39.8103 132.37L40.0703 133.5C38.7503 134.28 37.1202 134.96 35.1802 135.56L34.6902 134.38C35.2002 134.25 35.7202 134.09 36.2402 133.91V125.95H37.4001ZM43.5002 125.95C43.4702 128.42 43.2202 130.41 42.7502 131.92C43.6502 133.07 44.4303 134.22 45.0603 135.36L44.1301 136.34C43.6601 135.38 43.0402 134.34 42.2502 133.23C41.6302 134.48 40.4903 135.65 38.8303 136.77L38.0303 135.74C39.6003 134.77 40.6602 133.74 41.2102 132.63C41.9102 131.26 42.2803 129.03 42.3403 125.94H43.5002V125.95ZM41.0503 130.35L39.9402 131.15C39.5402 130.14 39.0103 128.98 38.3303 127.68L39.2603 127.07C40.0103 128.34 40.6003 129.43 41.0403 130.34L41.0503 130.35Z" fill="white"/>
<path d="M47.6401 126.66V128.85H48.8901V125.95H49.8704V136.73H48.8901V131.99H48.1204C48.0704 133.09 48.0202 133.86 47.9402 134.29C47.8102 135.08 47.5404 135.84 47.1104 136.58L46.2202 135.87C46.5602 135.33 46.7901 134.78 46.9001 134.23C46.9901 133.73 47.0503 132.97 47.0903 131.99H46.2102V131.01H48.8901V129.88H46.6602V126.65H47.6401V126.66ZM53.2102 126.19C53.0702 126.41 52.9503 126.59 52.8303 126.75H56.3203V127.54C55.8403 128.43 55.1703 129.2 54.3303 129.87C53.2603 130.76 51.9903 131.38 50.5303 131.72L50.0903 130.78C50.5703 130.68 51.0202 130.58 51.4402 130.43C51.1402 130.13 50.7901 129.81 50.4001 129.46L51.0703 129.04C51.5803 129.42 52.0003 129.76 52.3503 130.05C52.5903 129.93 52.8203 129.81 53.0303 129.67C52.6403 129.36 52.1704 129.03 51.6104 128.67L52.2402 128.06C52.8302 128.41 53.3603 128.74 53.7903 129.08C54.2303 128.68 54.6302 128.22 55.0002 127.69H52.1204C51.6904 128.19 51.2303 128.61 50.7703 128.95L50.0503 128.01C51.0003 127.4 51.7102 126.71 52.1902 125.95L53.2202 126.19H53.2102ZM54.3203 131.81V130.54H55.3901V131.81H56.4602V132.88H55.3901V135.6C55.3901 136.01 55.3004 136.3 55.1204 136.46C54.9504 136.63 54.6402 136.72 54.2002 136.72H52.9502L52.7302 135.59C53.1902 135.65 53.5701 135.69 53.8801 135.69C54.1901 135.69 54.3203 135.59 54.3203 135.4V132.87H50.1802V131.8H54.3203V131.81ZM52.9402 134.99L51.9102 135.75C51.6202 135.17 51.2403 134.53 50.7603 133.78L51.6003 133.22C52.1703 133.92 52.6102 134.5 52.9302 134.99H52.9402Z" fill="white"/>
<path d="M63.3103 125.77V128.62C63.6903 130.37 64.2603 131.81 65.0103 132.93C65.6103 133.87 66.6102 134.82 67.9902 135.8L67.2402 136.87C66.1002 136.08 65.2301 135.32 64.6501 134.57C63.8901 133.66 63.2803 132.54 62.8303 131.21C62.4503 132.6 61.9403 133.67 61.2903 134.41C60.6103 135.25 59.5802 136.06 58.2002 136.87L57.4902 135.8C59.2002 134.72 60.3903 133.53 61.0503 132.24C61.7003 131.02 62.0403 129.81 62.0803 128.63V125.78H63.3203L63.3103 125.77Z" fill="white"/>
<path d="M78.9402 126.88C77.7902 127.19 76.4602 127.43 74.9402 127.58V129.23H78.7202V130.35H74.9402V132.04H79.3503V133.22H74.9402V135.37C74.9402 135.83 74.8401 136.15 74.6501 136.34C74.4701 136.53 74.1502 136.64 73.6802 136.64H71.8604L71.6003 135.37C72.3203 135.44 72.9101 135.47 73.3801 135.47C73.6801 135.47 73.8203 135.39 73.8203 135.19V133.22H68.8403V132.04H73.8203V130.35H69.5903V129.23H73.8203V127.68C72.5303 127.78 71.1401 127.82 69.6401 127.82L69.2903 126.69C72.8503 126.69 75.8804 126.41 78.3704 125.84L78.9402 126.87V126.88Z" fill="white"/>
<path d="M83.1301 126.42V125.82H84.1401V126.42H85.3503V127.27H84.1401V127.59H83.1301V127.27H80.2302V126.42H83.1301ZM82.7703 128.02V127.7H83.7002V128.02H85.4902V128.68H83.7002V129.1H85.8403V129.81H84.8103V129.94C84.8103 130.07 84.9104 130.13 85.1204 130.13H85.7903V130.69H84.9502C84.6502 130.69 84.4303 130.65 84.2703 130.56C84.1003 130.48 84.0203 130.33 84.0203 130.13V129.81H82.4202C82.3502 130.13 82.2303 130.4 82.0203 130.61C81.9303 130.71 81.8402 130.8 81.7202 130.87H82.7102V130.22H83.6902V130.87H85.3003V131.53H83.6902V131.97C84.3502 131.93 84.9703 131.89 85.5303 131.81V132.46C84.6003 132.62 82.9802 132.76 80.6702 132.88L80.5803 132.09C81.3303 132.09 82.0502 132.07 82.7102 132.03V131.53H81.3303V131.11C81.1603 131.19 80.9803 131.28 80.7903 131.35L80.3503 130.59C80.7903 130.47 81.1203 130.34 81.3303 130.17C81.4703 130.07 81.5604 129.95 81.6204 129.8H80.4902V129.09H82.7603V128.67H80.8503V128.01H82.7603L82.7703 128.02ZM90.6602 134.16V134.95H88.8503C89.3903 135.42 89.8503 135.91 90.2603 136.45L89.3604 136.87C89.2504 136.7 89.1303 136.56 89.0303 136.43C87.4003 136.54 84.7202 136.65 80.9902 136.74L80.8503 135.85C81.3303 135.85 81.8002 135.84 82.2502 135.84C82.5202 135.55 82.7502 135.26 82.9202 134.95H80.4001V134.16H90.6501H90.6602ZM89.5002 132.98V133.74H81.6702V132.98H89.5002ZM87.8604 135.14L88.4502 134.95H84.2002C84.0402 135.25 83.8203 135.54 83.5603 135.81C85.3603 135.79 86.9701 135.74 88.4001 135.69C88.2201 135.5 88.0403 135.31 87.8503 135.14H87.8604ZM87.2302 128.63V127.87H88.0703V128.63H89.6802V131.26C89.7402 131.61 89.8001 131.78 89.9001 131.78C90.0001 131.78 90.0701 131.41 90.1301 130.65L90.7603 131.17C90.6203 132 90.4903 132.47 90.3503 132.59C90.2003 132.75 90.0303 132.82 89.8303 132.82C89.5603 132.82 89.3402 132.74 89.2002 132.56C88.9802 132.32 88.8703 131.9 88.8503 131.28V129.44H88.0903C88.0703 129.99 88.0101 130.46 87.9001 130.86C88.2001 131.09 88.4903 131.32 88.7703 131.56L88.3303 132.32C88.0803 132.08 87.8403 131.86 87.5903 131.66C87.3503 132.09 87.0003 132.51 86.5403 132.92L85.8303 132.27C86.3103 131.91 86.6601 131.53 86.8901 131.12C86.5901 130.92 86.3003 130.74 86.0103 130.58L86.4102 129.92C86.6602 130.06 86.9102 130.22 87.1602 130.36C87.2102 130.1 87.2402 129.78 87.2502 129.45H86.0103V128.66H87.2502L87.2302 128.63ZM87.1401 126.42V125.82H88.1702V126.42H90.7903V127.27H88.1702V127.74H87.1401V127.27H85.9402V126.42H87.1401Z" fill="white"/>
<path d="M92.9702 128.01V125.82H94.0002V128.01H95.1501V128.99H94.0002V131.29C94.3402 131.09 94.6803 130.85 95.0303 130.58V131.76C94.6903 132.01 94.3502 132.24 94.0002 132.44V135.59C94.0002 136 93.9102 136.29 93.7302 136.45C93.5702 136.62 93.2703 136.71 92.8403 136.71H92.1301L91.9001 135.58C92.1701 135.64 92.3903 135.68 92.5703 135.68C92.8303 135.68 92.9702 135.58 92.9702 135.39V132.97C92.5702 133.16 92.1703 133.33 91.7603 133.47L91.6301 132.26C92.0601 132.19 92.5102 132.04 92.9602 131.83V128.98H91.7102V128H92.9602L92.9702 128.01ZM97.9502 132.51V131.85H98.9802V132.51H101.97V133.49H99.9602C100.22 133.9 100.46 134.2 100.69 134.37C101.03 134.71 101.52 135.02 102.15 135.33L101.69 136.31C100.88 135.83 100.29 135.37 99.9001 134.94C99.6001 134.64 99.3002 134.17 98.9802 133.53V136.83H97.9502V133.58C97.7402 133.98 97.5503 134.29 97.3503 134.53C96.9203 135.11 96.2102 135.71 95.2402 136.35L94.7002 135.41C95.3902 135.03 95.9403 134.63 96.3403 134.25C96.5803 134.03 96.8002 133.78 97.0002 133.49H95.0503V132.51H97.9502ZM101.29 126.19V127.03C100.81 127.53 100.31 127.97 99.7903 128.35H101.97V129.24C101.55 129.91 101.09 130.45 100.59 130.87L99.8704 130.27C100.2 130.02 100.52 129.67 100.83 129.24H99.4302V130.74C99.4302 131.09 99.3502 131.33 99.2002 131.45C99.0502 131.61 98.7901 131.68 98.4001 131.68H97.4202L97.2502 130.74C97.6002 130.81 97.9001 130.84 98.1401 130.84C98.3801 130.84 98.4902 130.77 98.4902 130.6V129.24H98.4602C97.6102 130.18 96.6902 130.88 95.7402 131.39L95.1602 130.65C96.0802 130.22 96.8402 129.75 97.4102 129.25H95.4802V128.36H97.7803C97.5503 128.19 97.3003 128.02 97.0303 127.84L97.6602 127.23C98.0902 127.49 98.4903 127.76 98.8303 128.01C99.2603 127.73 99.6803 127.41 100.08 127.04H95.6003V126.2H101.3L101.29 126.19Z" fill="white"/>
<path d="M104.46 128.01V125.82H105.49V128.01H106.6V128.13C107.35 127.77 107.93 127.41 108.34 127.04C108.66 126.75 109.01 126.34 109.4 125.82H110.47C110.91 126.41 111.38 126.88 111.86 127.23C112.2 127.51 112.77 127.83 113.58 128.2L112.96 129.18C112.55 129.01 112.16 128.78 111.78 128.52C111.18 128.1 110.56 127.49 109.93 126.7C109.51 127.24 109.11 127.68 108.72 128.03C108.3 128.4 107.74 128.79 107.03 129.18L106.59 128.24V128.98H105.48V131.16C105.81 130.97 106.15 130.74 106.49 130.48V131.65C106.16 131.89 105.82 132.12 105.48 132.31V135.54C105.48 135.97 105.39 136.27 105.21 136.44C105.05 136.62 104.75 136.72 104.32 136.72H103.52L103.29 135.54C103.59 135.61 103.85 135.64 104.05 135.64C104.31 135.64 104.45 135.54 104.45 135.35V132.86C104.05 133.04 103.65 133.2 103.24 133.34L103.1 132.13C103.53 132.06 103.99 131.93 104.45 131.71V128.99H103.15V128.01H104.45H104.46ZM107.53 133.54C107.23 134.57 106.89 135.47 106.5 136.21L105.66 135.55C106.05 134.87 106.4 134.07 106.73 133.16L107.53 133.53V133.54ZM110.96 128.85L110.42 129.41H112.82V130.26C112.55 130.8 112.25 131.21 111.91 131.48C111.51 131.88 110.69 132.26 109.44 132.64L109.04 131.61C109.97 131.39 110.64 131.15 111.01 130.89C111.19 130.78 111.37 130.61 111.56 130.39H106.77V129.41H110.16C109.84 129.07 109.43 128.71 108.95 128.34L109.58 127.73C110.13 128.11 110.58 128.49 110.96 128.85ZM108.82 133.02V135.23C108.82 135.48 108.96 135.6 109.23 135.6H110.61C110.75 135.6 110.86 135.56 110.93 135.47C111.01 135.39 111.07 134.98 111.1 134.25L112.08 134.57C111.99 135.57 111.84 136.14 111.66 136.32C111.49 136.49 111.18 136.58 110.74 136.58H108.82C108.5 136.58 108.26 136.48 108.08 136.3C107.9 136.11 107.81 135.86 107.81 135.54V133.01H108.82V133.02ZM111.05 134.05L110.24 134.61C109.99 134.18 109.66 133.67 109.23 133.11L109.89 132.69C110.38 133.22 110.77 133.67 111.05 134.05ZM113.58 134.81L112.65 135.23C112.33 134.43 111.98 133.71 111.59 133.07L112.52 132.75C112.93 133.4 113.28 134.08 113.58 134.81Z" fill="white"/>
<path d="M123.65 136.86H122.54V135.97H116.89V136.82H115.77V126.23H123.65V136.86ZM122.54 130.4V127.4H116.89V130.4H122.54ZM122.54 134.85V131.58H116.89V134.85H122.54Z" fill="white"/>
<path d="M129.62 133.78C128.85 134.75 127.88 135.63 126.72 136.39L126 135.41C127.06 134.79 128.01 134.01 128.85 133.07L129.61 133.78H129.62ZM135.85 126.93C134.46 127.23 132.8 127.45 130.87 127.57C130.57 128.1 130.14 128.64 129.57 129.21C130.44 129.17 131.28 129.13 132.12 129.07C132.56 128.65 133.01 128.21 133.44 127.74L134.45 128.26C132.99 129.75 131.56 130.98 130.14 131.94C131.75 131.89 133.1 131.81 134.21 131.68C133.96 131.24 133.71 130.78 133.44 130.33L134.24 129.81C135.07 131.05 135.72 132.1 136.2 132.99L135.22 133.7C135.06 133.34 134.88 132.96 134.67 132.55C133.88 132.66 132.94 132.75 131.83 132.83V135.58C131.83 136.02 131.73 136.34 131.52 136.52C131.34 136.71 131 136.81 130.49 136.81H129.46L129.23 135.59C129.61 135.66 129.91 135.69 130.16 135.69C130.48 135.69 130.65 135.59 130.65 135.4V132.92C129.48 132.99 128.15 133.06 126.7 133.11L126.43 132.03C127.15 132.03 127.83 132.03 128.48 132.02C129.37 131.44 130.22 130.78 131.07 130.04C129.86 130.15 128.52 130.26 127.06 130.35L126.84 129.37C127.27 129.36 127.7 129.35 128.12 129.32C128.74 128.82 129.25 128.27 129.65 127.67C128.66 127.72 127.62 127.73 126.53 127.73L126.22 126.75C129.8 126.75 132.84 126.52 135.35 126.04L135.84 126.98L135.85 126.93ZM136.2 135.51L135.4 136.35C134.76 135.56 133.85 134.71 132.68 133.78L133.44 133.02C134.52 133.86 135.45 134.69 136.2 135.5V135.51Z" fill="white"/>
<path d="M143.5 126.75H147.75V127.69H139.24V130.92C139.24 131.82 139.17 132.76 139.04 133.74C138.86 134.76 138.57 135.75 138.19 136.74L137.26 135.89C137.62 135.1 137.89 134.27 138.02 133.41C138.13 132.52 138.19 131.7 138.19 130.93V126.77H142.36C142.21 126.51 142.05 126.25 141.88 126.01L143.03 125.83C143.19 126.11 143.35 126.42 143.51 126.77L143.5 126.75ZM142.22 128.43V129.46C141.79 130.16 141.4 130.72 141.06 131.15H142.41C142.38 132.25 142.25 133.13 142.03 133.78C141.94 134.09 141.82 134.38 141.69 134.64H141.7C142.09 134.98 142.57 135.23 143.14 135.37C143.7 135.53 144.48 135.6 145.49 135.6C146.22 135.6 146.97 135.58 147.76 135.5L147.58 136.68C144.96 136.68 143.29 136.55 142.61 136.31C142.12 136.19 141.63 135.91 141.14 135.49C140.8 135.87 140.35 136.27 139.78 136.68L139.21 135.55C139.69 135.27 140.08 134.99 140.35 134.67C140.01 134.2 139.71 133.61 139.47 132.92L140.36 132.6C140.52 133.07 140.71 133.46 140.94 133.79C140.97 133.71 141.01 133.62 141.04 133.55C141.16 133.19 141.26 132.71 141.3 132.09H139.65V131.3C140.15 130.71 140.61 130.06 141.02 129.37H139.56V128.43H142.23H142.22ZM147.38 129.04C146.86 129.23 146.26 129.39 145.6 129.48V130.86H147.56V131.81H145.6V133.58H147.33V134.52H142.79V133.58H144.52V131.81H142.61V130.86H144.52V129.6C144.05 129.64 143.56 129.65 143.05 129.65L142.74 128.67C144.36 128.67 145.74 128.49 146.88 128.11L147.37 129.05L147.38 129.04Z" fill="white"/>
<path d="M158.83 136.73H157.85V136.31H150.02V136.73H149.04V126.14H158.83V136.73ZM157.85 135.36V127.07H150.02V135.36H157.85ZM156.96 130.44V132.6H153.81C153.75 132.67 153.71 132.74 153.66 132.79V135.13H152.72V133.68C152.13 134.11 151.44 134.47 150.67 134.76L150.18 133.91C150.95 133.66 151.57 133.38 152.02 133.09C152.26 132.93 152.48 132.77 152.66 132.6H151.04V130.44H156.96ZM153.31 127.82V127.34H154.24V127.82H156.95V128.56H154.24V129.17H157.44V129.96H150.27V129.17H153.3V128.56H150.76V127.82H153.3H153.31ZM156.07 131.19H151.93V131.84H156.07V131.19ZM155.5 133.42C155.72 133.18 155.89 132.93 156.02 132.69L156.86 133.21C156.75 133.39 156.59 133.59 156.38 133.83C156.77 134.02 157.13 134.23 157.49 134.42L156.95 135.27C155.95 134.6 154.93 134.06 153.88 133.67L154.32 132.96C154.72 133.1 155.11 133.26 155.48 133.42H155.5Z" fill="white"/>
<path d="M14.4302 159.77H11.2603C11.3603 161.47 11.5801 162.83 11.9001 163.82C12.4201 163 12.9104 161.92 13.3604 160.61L14.3403 161.04C13.7003 162.84 13.0501 164.16 12.4001 165.02C12.9001 166.08 13.2702 166.6 13.4902 166.6C13.6002 166.6 13.7502 166.05 13.9302 164.92L14.8203 165.57C14.5603 166.71 14.3203 167.39 14.1003 167.63C13.9503 167.82 13.7904 167.92 13.6204 167.92C13.1404 167.92 12.6502 167.63 12.1702 167.06C11.9202 166.76 11.7003 166.41 11.5203 166.02C10.8003 166.73 9.9003 167.34 8.8103 167.88L8.18018 166.85C9.35018 166.29 10.3103 165.63 11.0403 164.88C10.8803 164.48 10.7501 164.06 10.6401 163.61C10.4001 162.58 10.2402 161.31 10.1602 159.77H6.35034V161.22H9.47021C9.44021 163.38 9.3402 164.75 9.2002 165.32C9.0302 165.99 8.65031 166.33 8.07031 166.33H6.58032L6.40015 165.2C7.16015 165.27 7.73035 165.3 8.11035 165.3C8.20035 165.3 8.28032 165.13 8.33032 164.78C8.36032 164.37 8.39016 163.54 8.41016 162.3H6.35034C6.33034 163.15 6.26036 164.03 6.12036 164.94C5.91036 166.04 5.57036 167.12 5.12036 168.2L4.19019 167.36C4.62019 166.48 4.93034 165.57 5.10034 164.61C5.23034 163.63 5.29028 162.72 5.29028 161.88V158.69H10.1204C10.1004 158.16 10.1003 157.6 10.1003 157.01H11.1702C11.1702 157.61 11.1702 158.16 11.1902 158.69H12.8203C12.5203 158.38 12.1602 158.04 11.7002 157.71L12.4102 157.01C12.9302 157.37 13.3902 157.72 13.7502 158.08L13.1702 158.69H14.4102V159.77H14.4302Z" fill="white"/>
<path d="M17.6003 163.76C17.3603 164.84 17.0602 165.82 16.7002 166.71L15.7202 166.34C16.0602 165.61 16.3604 164.67 16.6204 163.53L17.6003 163.76ZM19.1204 158.23H21.1104V159.21H15.8103V158.23H18.0203C17.8603 157.89 17.6903 157.56 17.5103 157.25L18.6204 157.11C18.7904 157.45 18.9604 157.83 19.1204 158.24V158.23ZM20.6702 159.97V163.15H19.1104V166.76C19.1104 167.17 19.0203 167.46 18.8403 167.62C18.6703 167.79 18.3602 167.88 17.9202 167.88H17.2502L17.0303 166.75C17.2603 166.82 17.4504 166.85 17.6104 166.85C17.9104 166.85 18.0503 166.75 18.0503 166.56V163.14H16.2603V159.96H20.6702V159.97ZM19.6401 160.91H17.2803V162.22H19.6401V160.91ZM20.9702 165.64L19.9902 166.02C19.8802 165.29 19.7503 164.57 19.5903 163.86L20.4001 163.62C20.6401 164.36 20.8302 165.04 20.9702 165.64ZM22.3103 159.74V157.03H23.3203V159.74H26.0403V160.77H23.2903C23.2203 162.12 23.0603 163.28 22.8003 164.24C22.4603 165.49 21.8204 166.75 20.8704 168.04L20.0203 167.24C20.8703 166.22 21.4803 165.12 21.8303 163.92C22.0703 163.18 22.2203 162.12 22.2703 160.78H20.9102V159.75H22.2903L22.3103 159.74ZM24.4001 161.99V166.44C24.4001 166.64 24.5002 166.75 24.7202 166.76C25.0202 166.76 25.1602 166.64 25.1602 166.39V164.55L26.1003 164.98C26.1003 166.32 25.9903 167.14 25.7703 167.46C25.5903 167.7 25.2502 167.83 24.7202 167.83C24.2602 167.83 23.9202 167.73 23.6902 167.55C23.4702 167.38 23.3704 167.11 23.3704 166.75V161.98H24.4001V161.99ZM25.9202 158.85L25.0303 159.51C24.7603 159.05 24.3802 158.54 23.9102 157.96L24.6702 157.49C25.1902 158.02 25.6002 158.47 25.9102 158.85H25.9202Z" fill="white"/>
<path d="M37.5503 161.42V162.36H32.3801V168.12H31.3704V166.92C30.1804 167.06 28.8303 167.22 27.3103 167.38L27.0903 166.35C27.4103 166.34 27.7403 166.33 28.0703 166.3V162.37H27.0903V161.43H37.5503V161.42ZM36.4802 157.29V160.95H28.3303V157.29H36.4802ZM31.3604 163.1V162.36H29.0803V163.1H31.3604ZM31.3604 164.6V163.9H29.0803V164.6H31.3604ZM31.3604 166.02V165.41H29.0803V166.24C29.8503 166.19 30.6104 166.12 31.3604 166.02ZM35.3604 158.75V158.14H29.4402V158.75H35.3604ZM35.3604 159.46H29.4402V160.11H35.3604V159.46ZM37.1401 162.97V163.71C36.8901 164.78 36.4403 165.68 35.8103 166.41C36.3003 166.71 36.8903 166.96 37.5903 167.18L37.0703 168.03C36.2403 167.72 35.5803 167.38 35.0903 167.05C34.5403 167.41 33.8603 167.75 33.0203 168.03L32.4802 167.13C33.2002 166.9 33.8003 166.65 34.2903 166.35C33.7703 165.83 33.3403 165.23 33.0103 164.55L33.7703 164.08C34.0903 164.79 34.5103 165.36 35.0103 165.81C35.0803 165.74 35.1502 165.68 35.2002 165.62C35.6102 165.14 35.9204 164.55 36.1204 163.86H32.7302V162.97H37.1301H37.1401Z" fill="white"/>
<path d="M43.0203 157.48V158.51H42.2703V161.36H43.1104V162.39H42.2703V166.7C42.2703 167.14 42.1802 167.46 42.0002 167.64C41.8402 167.83 41.5404 167.93 41.1104 167.93H40.0803L39.8604 166.71C40.2504 166.78 40.5803 166.81 40.8403 166.81C41.1003 166.81 41.2402 166.73 41.2402 166.53V162.69C40.5802 164.62 39.8801 166.12 39.1401 167.18L38.4802 166.34C39.2802 165.14 39.9003 163.83 40.3503 162.41H38.8303C39.0103 161.08 39.1402 159.89 39.2302 158.85L40.1602 158.95C40.0702 159.91 39.9901 160.71 39.9001 161.38H41.2302V158.53H39.0002V157.5H43.0103L43.0203 157.48ZM45.3303 157.38C45.0803 158.04 44.8203 158.63 44.5403 159.15H48.7102V160.23H47.1003V161.5H48.5703V162.48H47.1003V163.88H48.5703V164.86H47.1003V166.36H48.8403V167.44H44.5703V168.04H43.5403V160.8C43.4303 160.97 43.3002 161.12 43.1902 161.26L42.4702 160.32C43.2702 159.36 43.8803 158.3 44.2903 157.13L45.3203 157.37L45.3303 157.38ZM46.0903 160.23H44.5703V161.5H46.0903V160.23ZM46.0903 162.48H44.5703V163.88H46.0903V162.48ZM46.0903 166.37V164.87H44.5703V166.37H46.0903ZM47.5503 158.59L46.6602 159.02C46.4202 158.38 46.1604 157.82 45.8604 157.33L46.7502 157.04C47.0602 157.53 47.3203 158.05 47.5503 158.59Z" fill="white"/>
<path d="M52.2502 157.24C51.9302 158.34 51.5902 159.32 51.2202 160.17C51.4702 160.13 51.7202 160.09 51.9602 160.04C52.1402 159.57 52.3203 159.08 52.5103 158.55L53.3503 158.89C52.6903 160.66 52.0303 162.12 51.3403 163.23C51.7303 163.19 52.0703 163.13 52.3503 163.06C52.2903 162.7 52.2402 162.36 52.1902 162.03L52.9001 161.79C53.0501 162.47 53.1803 163.25 53.3003 164.13L52.5002 164.32C52.4802 164.16 52.4702 164.01 52.4502 163.86C51.8702 164.02 51.0901 164.14 50.1401 164.22L49.8801 163.28C50.0601 163.28 50.2402 163.28 50.4202 163.27C50.8102 162.65 51.1903 161.87 51.5903 160.93C51.0903 161.05 50.5402 161.16 49.9602 161.27L49.7903 160.33C49.9403 160.32 50.1003 160.31 50.2603 160.28C50.6703 159.27 51.0303 158.16 51.3403 156.91L52.2402 157.23L52.2502 157.24ZM50.9001 164.78C50.8501 166.03 50.7902 167.06 50.6802 167.92L49.8403 167.63C49.9903 166.72 50.0901 165.73 50.1501 164.68L50.9001 164.78ZM52.1501 167.45L51.3103 167.53C51.2903 166.33 51.2602 165.4 51.2202 164.72L51.9302 164.67C52.0402 165.37 52.1102 166.29 52.1602 167.44L52.1501 167.45ZM53.3003 166.89L52.5503 167.17C52.4603 166.33 52.3602 165.5 52.2402 164.69L52.8604 164.51C53.0404 165.37 53.1903 166.18 53.3003 166.9V166.89ZM57.2703 157.66V158.55H55.3203C55.1603 159.35 54.9304 160.12 54.6104 160.85C55.0804 160.83 55.4903 160.78 55.8503 160.71C55.7403 160.3 55.6202 159.89 55.4902 159.5L56.2903 159.21C56.5003 159.74 56.6803 160.33 56.8503 160.95C56.9903 160.57 57.1002 160.18 57.2102 159.79C57.3902 159.17 57.5502 158.24 57.7102 157.02L58.6401 157.1C58.5501 157.84 58.4303 158.52 58.3003 159.11H60.3003V160.09H59.8801C59.8301 162.03 59.5901 163.62 59.1501 164.82C59.1301 164.88 59.1003 164.93 59.0903 164.98C59.4503 165.82 59.9203 166.54 60.5103 167.13L59.8801 168.07C59.3201 167.45 58.8803 166.81 58.5503 166.12C58.1403 166.79 57.6403 167.43 57.0303 168.04L56.5103 167.14C57.1803 166.54 57.7103 165.83 58.0903 165.04C57.7803 164.2 57.5203 163.24 57.3003 162.17C57.1903 162.42 57.0602 162.66 56.9502 162.88L56.3704 162.12C56.4404 161.98 56.5103 161.82 56.5603 161.68L56.0903 161.8C56.0703 161.7 56.0403 161.61 56.0303 161.51C55.8803 161.55 55.7203 161.57 55.5603 161.59V163.05H56.8003V164H55.5603V165.77C56.0403 165.66 56.5202 165.54 56.9802 165.4V166.34C56.0002 166.65 54.8503 166.94 53.5503 167.23L53.3203 166.15C53.7503 166.1 54.1904 166.04 54.6204 165.96V164.01H53.3704V163.06H54.6204V161.72C54.1904 161.77 53.7102 161.82 53.2002 161.85L52.9302 160.91C53.1802 160.91 53.4201 160.91 53.6401 160.9C53.9701 160.17 54.2201 159.39 54.4001 158.56H53.1104V157.67H57.2502L57.2703 157.66ZM58.6003 163.62C58.8303 162.68 58.9502 161.51 58.9902 160.09H58.0603C58.0403 160.16 58.0102 160.23 57.9902 160.31C57.9702 160.38 57.9602 160.44 57.9302 160.49C58.1102 161.71 58.3303 162.76 58.6003 163.62Z" fill="white"/>
<path d="M63.9502 163.71C63.4302 165.33 62.8302 166.73 62.1702 167.93L61.3604 166.99C61.9104 166.07 62.4903 164.75 63.1003 163.04L63.9402 163.7L63.9502 163.71ZM63.8103 161.37L63.1501 162.45C62.5801 161.87 62.0002 161.42 61.4102 161.08L61.9902 160.19C62.6502 160.53 63.2603 160.91 63.8103 161.37ZM64.3901 158.55L63.7202 159.68C63.1502 159.03 62.5602 158.52 61.9402 158.13L62.5203 157.19C63.1903 157.57 63.8201 158.03 64.3901 158.55ZM65.8604 161.13C65.5604 163.07 65.1601 164.75 64.6501 166.14L63.6802 165.49C64.2002 164.06 64.5703 162.53 64.7903 160.9L65.8604 161.13ZM69.4602 159.21L68.6204 160.1C68.0004 159.42 67.1402 158.67 66.0002 157.86L66.8003 157.06C67.8503 157.79 68.7402 158.51 69.4702 159.22L69.4602 159.21ZM67.3704 159.68V166.34C67.3704 166.59 67.5003 166.71 67.7703 166.71H68.4802C68.6402 166.71 68.7603 166.65 68.8403 166.52C68.9203 166.4 68.9803 165.79 69.0103 164.7L70.0803 165.04C69.9903 166.38 69.8304 167.15 69.6104 167.39C69.4304 167.63 69.1004 167.75 68.6104 167.75H67.3704C67.0304 167.75 66.7503 167.65 66.5503 167.46C66.3403 167.26 66.2502 166.99 66.2502 166.67V159.69H67.3704V159.68ZM71.8203 165.07L70.7102 165.87C70.4202 164.49 70.0403 162.91 69.5503 161.13L70.4802 160.53C71.0502 162.29 71.4903 163.8 71.8103 165.06L71.8203 165.07Z" fill="white"/>
<path d="M78.5103 156.97V159.82C78.8903 161.57 79.4602 163.01 80.2102 164.13C80.8102 165.06 81.8102 166.02 83.1902 167L82.4402 168.07C81.3002 167.28 80.4303 166.52 79.8503 165.77C79.0903 164.86 78.4803 163.74 78.0303 162.41C77.6503 163.8 77.1402 164.87 76.4902 165.61C75.8102 166.45 74.7801 167.27 73.4001 168.07L72.6902 167C74.4002 165.92 75.5902 164.73 76.2502 163.44C76.9002 162.22 77.2403 161.01 77.2803 159.83V156.98H78.5203L78.5103 156.97Z" fill="white"/>
<path d="M87.5103 157.2C87.3703 157.82 87.1802 158.41 86.9402 158.94H88.5803V161.45C88.9103 160.87 89.1703 160.3 89.3503 159.72C89.5803 159.05 89.7602 158.15 89.9102 157.02L91.0303 157.2C90.9303 157.85 90.8202 158.41 90.7202 158.89H94.2302C94.2302 163.11 94.1603 165.61 94.0503 166.37C93.9403 166.97 93.7402 167.38 93.4702 167.57C93.1502 167.81 92.5602 167.93 91.7002 167.93C91.4502 167.93 91.1603 167.91 90.8503 167.88L90.6802 166.7C91.0102 166.77 91.3502 166.8 91.7102 166.8C92.4302 166.8 92.8302 166.55 92.9202 166.05C93.0602 165.43 93.1502 163.4 93.1702 159.97H90.4602C90.4302 160.05 90.4001 160.13 90.3901 160.17C90.1401 161.03 89.7204 161.96 89.1204 162.92L88.5803 162.22V167.13H87.6003V166.57H85.5103V167.47H84.5303V158.94H85.9402C86.1802 158.36 86.3602 157.73 86.4902 157.06L87.5002 157.2H87.5103ZM87.6003 162.26V159.92H85.5103V162.26H87.6003ZM87.6003 165.58V163.19H85.5103V165.58H87.6003ZM92.3203 164.42L91.2502 165.16C90.9302 164.3 90.4902 163.29 89.9202 162.16L90.8103 161.55C91.4503 162.67 91.9603 163.63 92.3303 164.42H92.3203Z" fill="white"/>
<path d="M105.39 157.52V162.54H104.54V156.62H108.12V157.52H105.4H105.39Z" fill="white"/>
<path d="M116.43 158.47H121.18V159.55H116.46V161.13H120.47V165.54C120.47 165.97 120.37 166.3 120.17 166.51C119.99 166.7 119.75 166.8 119.44 166.8H117.92L117.66 165.58L119.04 165.68C119.27 165.67 119.39 165.5 119.39 165.16V162.21H116.45V168.06H115.3V162.21H112.4V166.85H111.33V161.13H115.3V159.55H110.67V158.47H115.34C115.17 158.1 114.96 157.7 114.71 157.29L115.69 156.92C115.95 157.36 116.19 157.88 116.41 158.47H116.43Z" fill="white"/>
<path d="M127.46 157.76V158.74H125.68V161.32H126.63C126.97 160.77 127.27 160.18 127.52 159.54C127.75 158.98 127.98 158.14 128.18 157.01L129.29 157.14C129.18 157.74 129.06 158.29 128.93 158.78H132.55V159.86H131.67C131.59 161.85 131.2 163.47 130.5 164.71C130.44 164.81 130.39 164.9 130.33 164.99C130.88 165.63 131.63 166.27 132.59 166.95L132.02 168.03C131.04 167.36 130.25 166.66 129.65 165.92C129 166.66 128.16 167.36 127.12 168.03L126.49 167C127.54 166.42 128.38 165.76 129.01 165.03C128.5 164.18 128.08 163.03 127.76 161.59C127.55 161.96 127.33 162.31 127.08 162.63L126.89 162.35H125.7V165.28C126.26 165.09 126.79 164.87 127.31 164.64V165.72C125.9 166.37 124.3 166.96 122.5 167.51L122.18 166.38C122.37 166.33 122.57 166.27 122.76 166.22V160.24H123.79V165.93C124.1 165.83 124.39 165.74 124.68 165.64V158.74H122.28V157.76H127.49H127.46ZM129.67 164.08C130.24 163.06 130.56 161.66 130.64 159.87H128.57C128.52 159.99 128.48 160.11 128.43 160.21V160.23C128.75 161.98 129.17 163.26 129.67 164.08Z" fill="white"/>
<path d="M142.65 168.06H141.54V167.17H135.89V168.02H134.77V157.43H142.65V168.06ZM141.54 161.6V158.6H135.89V161.6H141.54ZM141.54 166.05V162.78H135.89V166.05H141.54Z" fill="white"/>
<path d="M150.57 159.12C150.55 158.5 150.54 157.85 150.54 157.15H151.65C151.65 157.86 151.66 158.52 151.7 159.12H155.13V160.06H151.74C151.88 162.02 152.16 163.49 152.59 164.47C153.25 165.93 153.72 166.66 154 166.66C154.16 166.66 154.35 165.9 154.58 164.37L155.51 165.03C155.2 166.48 154.93 167.34 154.68 167.66C154.51 167.9 154.33 168.03 154.13 168.03C153.64 168.03 153.15 167.74 152.65 167.18C152.01 166.39 151.49 165.25 151.09 163.74C150.85 162.76 150.69 161.52 150.61 160.06H145.05V159.12H150.57ZM150.44 161.52V162.46H148.43V165.46C149.2 165.27 150.01 165.02 150.83 164.7V165.78C149.13 166.38 147.25 166.85 145.18 167.18L145.04 166.05C145.77 166 146.53 165.88 147.31 165.71V162.45H145.53V161.51H150.43L150.44 161.52ZM154.41 158.28L153.51 158.94C153.2 158.54 152.79 158.09 152.27 157.57L153.02 157.1C153.61 157.56 154.07 157.95 154.41 158.27V158.28Z" fill="white"/>
<path d="M166.43 167.93H165.45V167.51H157.62V167.93H156.64V157.34H166.43V167.93ZM165.45 166.56V158.27H157.62V166.56H165.45ZM164.56 161.64V163.8H161.41C161.35 163.87 161.31 163.94 161.26 163.99V166.33H160.33V164.88C159.74 165.31 159.05 165.67 158.28 165.96L157.79 165.11C158.56 164.86 159.18 164.58 159.62 164.29C159.86 164.13 160.08 163.97 160.26 163.8H158.64V161.64H164.56ZM160.91 159.03V158.55H161.84V159.03H164.55V159.77H161.84V160.38H165.04V161.17H157.87V160.38H160.9V159.77H158.36V159.03H160.9H160.91ZM163.67 162.4H159.53V163.05H163.67V162.4ZM163.1 164.63C163.32 164.39 163.49 164.14 163.62 163.9L164.46 164.42C164.35 164.6 164.19 164.8 163.98 165.04C164.37 165.23 164.73 165.44 165.09 165.63L164.55 166.48C163.55 165.81 162.53 165.27 161.48 164.88L161.92 164.17C162.32 164.31 162.71 164.47 163.08 164.63H163.1Z" fill="white"/>
<path d="M169.51 159.31V157.02H170.57V159.31H172.18V160.34H170.57V160.7C171.23 161.36 171.89 162.1 172.58 162.92L171.96 163.9C171.4 163.08 170.93 162.44 170.57 161.96V168.03H169.51V161.99C169.46 162.15 169.42 162.29 169.37 162.43C169.03 163.5 168.62 164.42 168.13 165.21L167.69 163.95C168.33 162.91 168.85 161.71 169.27 160.34H167.77V159.31H169.51ZM174.49 159.31V157.02H175.56V159.31H177.92V160.34H175.97C176.2 161.17 176.48 161.95 176.82 162.68C177.17 163.42 177.68 164.24 178.31 165.12L177.56 166.15C176.92 165.17 176.42 164.16 176.04 163.14C175.86 162.68 175.69 162.19 175.55 161.65V168.03H174.48V161.94C173.89 163.64 173.19 165.07 172.39 166.2L171.72 165.12C172.75 163.79 173.54 162.19 174.14 160.35H172.57V159.32H174.49V159.31Z" fill="white"/>
<path d="M180.76 168.47V167.57H183.48V162.55H184.33V168.47H180.75H180.76Z" fill="white"/>
</svg>
