<?xml version="1.0" encoding="utf-8"?>
<!-- Generator: Adobe Illustrator 25.2.3, SVG Export Plug-In . SVG Version: 6.00 Build 0)  -->
<svg version="1.1" id="圖層_1" xmlns="http://www.w3.org/2000/svg" xmlns:xlink="http://www.w3.org/1999/xlink" x="0px" y="0px"
	 viewBox="0 0 380 81" style="enable-background:new 0 0 380 81;" xml:space="preserve">
<style type="text/css">
	.st0{fill:#C9A063;}
	.st1{opacity:0.6;}
	.st2{fill:#FFFFFF;}
	.st3{fill:#C79F62;}
</style>
<path class="st0" d="M8.8,2.4v12.9h13v2h-13v15.9H3.9v-28c0-1.9-1.2-3.5-3.9-4.3V0.7h24.4v1.7H8.8z"/>
<path class="st0" d="M22.4,33.2L37,0.7l14.9,32.5h-5.4l-2.8-6.1H27.4l-2.8,6.1H22.4z M28.1,25.4h14.8L35.5,9.1L28.1,25.4z"/>
<path class="st0" d="M74.8,24.9c0,3.4-2.5,9-10.2,9c-6.1,0-10-2.6-10.9-9.3h1.5c1,6.1,6,7.4,9,7.4c5.2,0,6.4-3.6,6.4-5.2
	c0-3.4-2.8-5.3-8.1-8c-3.4-1.7-9.1-4.6-9.1-10.1c0-7.1,7-8.5,9.5-8.5c6.2,0,8.8,3.3,9.7,7.9H71C70.3,5.7,68.6,2,63,2
	c-2.8,0-5.7,2.2-5.7,5c0,3.3,3.9,5.4,8,7.5C72.9,18.3,74.8,21,74.8,24.9z"/>
<path class="st0" d="M120.3,0.7v32.5h-4.4v-28c0-1.9-1.2-3.5-3.9-4.3V0.7H120.3z"/>
<path class="st0" d="M155.4,16.9c0,11.8-7,16.9-15.7,16.9c-8.7,0-15.7-5.1-15.7-16.9C124,5.5,131.1,0,139.7,0
	C148.4,0,155.4,5.4,155.4,16.9z M150,16.9c0-10.4-4.6-15.4-10.3-15.4s-10.3,5.1-10.3,15.4c0,10.7,4.7,15.4,10.3,15.4
	C145.4,32.3,150,27.6,150,16.9z"/>
<path class="st0" d="M186.6,0.7v32.5L162.9,10v23.2h-2v-25c0-2.5-0.4-6.2-3.9-7.2V0.7c3.2,0,5.4,1.9,6.5,2.8l21,20.4V0.7H186.6z"/>
<path class="st0" d="M222.7,24.9c0,3.4-2.5,9-10.2,9c-6.1,0-10-2.6-10.9-9.3h1.5c1,6.1,6,7.4,9,7.4c5.2,0,6.4-3.6,6.4-5.2
	c0-3.4-2.8-5.3-8.1-8c-3.4-1.7-9.1-4.6-9.1-10.1c0-7.1,7-8.5,9.5-8.5c6.2,0,8.8,3.3,9.7,7.9h-1.6c-0.7-2.4-2.4-6.1-8-6.1
	c-2.8,0-5.7,2.2-5.7,5c0,3.3,3.9,5.4,8,7.5C220.8,18.3,222.7,21,222.7,24.9z"/>
<path class="st0" d="M249.8,2.7h-10.7v30.5h-4.9V2.7h-10.8v-2h26.4V2.7z"/>
<path class="st0" d="M284.4,0.7l-11.7,18.5v14h-4.9V19.7l-11-16.4c-0.4-0.5-0.8-1-1.4-1.4c-0.5-0.4-1.2-0.7-1.8-0.8l-0.8-0.2V0.7
	h4.8c1.9,0,3.7,0.9,4.9,2.5l9.1,13.7l10.3-16.2C281.9,0.7,284.4,0.7,284.4,0.7z"/>
<path class="st0" d="M312.3,31.2v2h-20.9v-28c0-1.9-1.2-3.5-3.9-4.3V0.7h8.3v30.5H312.3z"/>
<path class="st0" d="M337.7,31.5v1.7h-20.5v-28c0-1.9-1.2-3.5-3.9-4.3V0.7h24.4v1.7h-15.6v12.9h13v2h-13v14.2H337.7z"/>
<path class="st0" d="M32.2,64.2c0,17-17.5,16.2-17.9,16.2H3.9v-28c0-2-1.5-4-3.9-4.3V48h14.3C14.7,48,32.2,46.9,32.2,64.2z
	 M26.8,64.2c0-14.6-10.4-14.6-12.5-14.6H8.8v29.2h5.5C16,78.8,26.9,78.7,26.8,64.2z"/>
<path class="st0" d="M32.7,80.4L47.2,48l14.9,32.5h-5.4L54,74.3H37.6l-2.8,6.1H32.7z M38.4,72.6h14.8l-7.5-16.3L38.4,72.6z"/>
<path class="st0" d="M71.6,48v32.5h-4.4v-28c0-1.9-1.2-3.5-3.9-4.3V48H71.6z"/>
<path class="st0" d="M99.3,78.4v2H78.5v-28c0-1.9-1.2-3.5-3.9-4.3V48h8.3v30.5L99.3,78.4L99.3,78.4z"/>
<path class="st0" d="M126,48l-11.7,18.5v14h-4.9V67l-11-16.4c-0.4-0.5-0.8-1-1.4-1.4c-0.5-0.4-1.2-0.7-1.8-0.8l-0.8-0.2V48h4.8
	c1.9,0,3.7,0.9,4.9,2.5l9.1,13.7L123.7,48H126z"/>
<g class="st1">
	<path class="st2" d="M141.9,56.6c0,0.5-0.2,0.9-0.7,1.2c-0.4,0.2-0.8,0.3-1.4,0.3c-0.1,0-0.4,0-0.9,0v-5.2h0.9
		c0.5,0,0.9,0.1,1.2,0.2c0.4,0.2,0.6,0.5,0.6,0.9c0,0.3-0.1,0.5-0.3,0.8c-0.2,0.2-0.4,0.4-0.7,0.5c0.4,0.1,0.7,0.2,0.9,0.4
		C141.8,55.9,141.9,56.2,141.9,56.6z M141.4,56.6c0-0.4-0.1-0.7-0.4-0.9c-0.2-0.2-0.5-0.3-0.9-0.3h-0.3v-0.2h0.2
		c0.4,0,0.6-0.1,0.8-0.4c0.1-0.2,0.2-0.5,0.2-0.7c0-0.7-0.5-1.1-1.4-1.1h-0.3v4.9h0.3C140.8,57.9,141.4,57.5,141.4,56.6z"/>
	<path class="st2" d="M145.7,56h-2v-0.2h1.5c0-0.6-0.3-0.9-0.8-0.9c-0.3,0-0.6,0.1-0.8,0.4c-0.2,0.3-0.3,0.6-0.3,1.1
		s0.1,0.8,0.3,1.1s0.5,0.4,0.8,0.4c0.4,0,0.7-0.2,1-0.5l0.2,0.2c-0.3,0.3-0.7,0.5-1.1,0.5c-0.5,0-0.8-0.2-1.2-0.5
		c-0.3-0.3-0.5-0.7-0.5-1.2s0.2-0.9,0.5-1.2s0.7-0.5,1.1-0.5c0.3,0,0.6,0.1,0.9,0.4S145.7,55.7,145.7,56z"/>
	<path class="st2" d="M148.9,56v2h-0.5v-0.3c-0.2,0.2-0.5,0.3-0.8,0.3s-0.6-0.1-0.8-0.3s-0.4-0.4-0.4-0.8c0-0.3,0.1-0.6,0.4-0.8
		c0.2-0.2,0.5-0.3,0.7-0.3c0.1,0,0.2,0,0.2,0c0.2,0,0.3,0.1,0.4,0.1l-0.1,0.2c-0.2-0.1-0.3-0.2-0.5-0.2s-0.4,0.1-0.5,0.2
		c-0.1,0.2-0.2,0.4-0.2,0.7s0.1,0.5,0.2,0.6c0.1,0.2,0.3,0.2,0.5,0.2c0.3,0,0.6-0.2,0.8-0.5V56c0-0.7-0.2-1-0.7-1
		c-0.3,0-0.5,0.1-0.8,0.3l-0.1-0.2c0.2-0.2,0.5-0.2,0.9-0.2C148.5,54.7,148.9,55.1,148.9,56z"/>
	<path class="st2" d="M152.6,58h-0.5v-0.6c-0.2,0.4-0.6,0.6-1,0.6c-0.8,0-1.2-0.4-1.2-1.2v-2.2h0.5V57c0,0.7,0.2,1,0.7,1
		c0.3,0,0.5-0.2,0.7-0.5c0.1-0.2,0.2-0.4,0.2-0.6v-2.1h0.5V58H152.6z"/>
	<path class="st2" d="M155,55h-0.6v2c0,0.3,0,0.6,0.1,0.7c0.1,0.1,0.2,0.2,0.5,0.2V58c-0.7,0-1.1-0.4-1.1-1.1v-2h-0.3v-0.2h0.3v-0.4
		h0.5v0.4h0.6V55z"/>
	<path class="st2" d="M158.8,54.8l-1.8,4.5h-0.2l0.5-1.3l-1.4-3.2h0.5l1.1,2.6l1-2.6H158.8z"/>
	<path class="st2" d="M161.6,58h-0.5v-5h0.5V58z"/>
	<path class="st2" d="M163.3,53.4c0,0.1,0,0.2-0.1,0.2s-0.1,0.1-0.2,0.1s-0.2,0-0.2-0.1s-0.1-0.1-0.1-0.2c0-0.1,0-0.2,0.1-0.2
		c0.1-0.1,0.1-0.1,0.2-0.1s0.2,0,0.2,0.1C163.3,53.2,163.3,53.3,163.3,53.4z M163.3,58h-0.5v-3.2h0.5V58z"/>
	<path class="st2" d="M167.2,56h-2v-0.2h1.5c0-0.6-0.3-0.9-0.8-0.9c-0.3,0-0.6,0.1-0.8,0.4c-0.2,0.3-0.3,0.6-0.3,1.1
		s0.1,0.8,0.3,1.1s0.5,0.4,0.8,0.4c0.4,0,0.7-0.2,1-0.5l0.2,0.2c-0.3,0.3-0.7,0.5-1.1,0.5c-0.5,0-0.8-0.2-1.2-0.5
		c-0.3-0.3-0.5-0.7-0.5-1.2s0.2-0.9,0.5-1.2s0.7-0.5,1.1-0.5c0.3,0,0.6,0.1,0.9,0.4S167.2,55.7,167.2,56z"/>
	<path class="st2" d="M169.9,57.3c0,0.3-0.1,0.5-0.3,0.6c-0.2,0.2-0.4,0.2-0.7,0.2c-0.4,0-0.7-0.1-0.9-0.4l0.1-0.2
		c0.2,0.3,0.5,0.4,0.8,0.4c0.2,0,0.3-0.1,0.4-0.2c0.1-0.1,0.2-0.3,0.2-0.4c0-0.2-0.1-0.4-0.3-0.5c-0.1-0.1-0.3-0.2-0.6-0.4
		c-0.4-0.2-0.5-0.5-0.5-0.9c0-0.2,0.1-0.4,0.3-0.6c0.2-0.1,0.4-0.2,0.6-0.2s0.3,0,0.5,0.1s0.3,0.2,0.3,0.3l-0.2,0.2
		c-0.2-0.3-0.4-0.4-0.7-0.4s-0.5,0.1-0.5,0.4c0,0.2,0.1,0.4,0.3,0.6c0.4,0.2,0.6,0.4,0.7,0.5C169.8,56.6,169.9,56.9,169.9,57.3z"/>
	<path class="st2" d="M172.9,53.4c0,0.1,0,0.2-0.1,0.2s-0.1,0.1-0.2,0.1c-0.1,0-0.2,0-0.2-0.1s-0.1-0.1-0.1-0.2c0-0.1,0-0.2,0.1-0.2
		c0.1-0.1,0.1-0.1,0.2-0.1c0.1,0,0.2,0,0.2,0.1C172.9,53.2,172.9,53.3,172.9,53.4z M172.8,58h-0.5v-3.2h0.5V58z"/>
	<path class="st2" d="M176.6,58h-0.5v-2.2c0-0.7-0.2-1-0.7-1s-0.8,0.3-1,0.9V58H174v-3.2h0.5v0.4c0.3-0.4,0.6-0.5,1-0.5
		s0.7,0.1,0.8,0.2c0.2,0.2,0.3,0.5,0.3,0.9V58z"/>
	<path class="st2" d="M180.5,55h-0.6v2c0,0.3,0,0.6,0.1,0.7c0.1,0.1,0.2,0.2,0.5,0.2V58c-0.7,0-1.1-0.4-1.1-1.1v-2h-0.3v-0.2h0.3
		v-0.4h0.5v0.4h0.6V55z"/>
	<path class="st2" d="M184,58h-0.5v-2.2c0-0.7-0.2-1-0.7-1s-0.8,0.3-1,0.9V58h-0.5v-5h0.5v2.2c0.3-0.4,0.6-0.5,1-0.5
		s0.7,0.1,0.8,0.2c0.2,0.2,0.3,0.5,0.3,0.9L184,58L184,58z"/>
	<path class="st2" d="M187.9,56h-2v-0.2h1.5c0-0.6-0.3-0.9-0.8-0.9c-0.3,0-0.6,0.1-0.8,0.4c-0.2,0.3-0.3,0.6-0.3,1.1
		s0.1,0.8,0.3,1.1s0.5,0.4,0.8,0.4c0.4,0,0.7-0.2,1-0.5l0.2,0.2c-0.3,0.3-0.7,0.5-1.1,0.5c-0.5,0-0.8-0.2-1.2-0.5
		c-0.3-0.3-0.5-0.7-0.5-1.2s0.2-0.9,0.5-1.2s0.7-0.5,1.1-0.5c0.3,0,0.6,0.1,0.9,0.4S187.9,55.7,187.9,56z"/>
	<path class="st2" d="M193,57.6c-0.3,0.3-0.7,0.4-1.1,0.4c-0.5,0-0.8-0.2-1.2-0.5c-0.3-0.3-0.5-0.7-0.5-1.2s0.2-0.9,0.5-1.2
		s0.7-0.5,1.2-0.5c0.4,0,0.7,0.1,1,0.3l-0.1,0.2c-0.2-0.2-0.5-0.4-0.9-0.4c-0.3,0-0.6,0.2-0.8,0.5s-0.3,0.6-0.3,1s0.1,0.8,0.3,1
		c0.2,0.3,0.5,0.5,0.8,0.5c0.4,0,0.7-0.2,1-0.5L193,57.6z"/>
	<path class="st2" d="M196.7,56.4c0,0.5-0.2,0.9-0.5,1.2s-0.7,0.5-1.2,0.5s-0.8-0.2-1.2-0.5c-0.3-0.3-0.5-0.7-0.5-1.2
		s0.2-0.9,0.5-1.2s0.7-0.5,1.2-0.5s0.8,0.2,1.2,0.5C196.6,55.6,196.7,56,196.7,56.4z M196.2,56.4c0-0.4-0.1-0.8-0.3-1.1
		s-0.5-0.4-0.8-0.4s-0.6,0.1-0.8,0.4c-0.2,0.3-0.3,0.6-0.3,1.1c0,0.4,0.1,0.8,0.3,1.1s0.5,0.4,0.8,0.4s0.6-0.1,0.8-0.4
		C196.1,57.2,196.2,56.8,196.2,56.4z"/>
	<path class="st2" d="M202.1,58h-0.5v-2.2c0-0.3,0-0.5-0.1-0.7c-0.1-0.1-0.2-0.2-0.5-0.2c-0.4,0-0.6,0.3-0.9,0.8v0.1V58h-0.5v-2.2
		c0-0.3,0-0.5-0.1-0.7c-0.1-0.1-0.3-0.2-0.5-0.2s-0.3,0.1-0.5,0.2c-0.2,0.2-0.3,0.4-0.4,0.6V58h-0.5v-3.2h0.5v0.4
		c0.3-0.3,0.6-0.5,0.9-0.5c0.5,0,0.8,0.2,1,0.5c0.3-0.4,0.6-0.5,1-0.5c0.7,0,1.1,0.4,1.1,1.1V58z"/>
	<path class="st2" d="M206,56.4c0,0.5-0.1,0.9-0.4,1.2c-0.3,0.3-0.6,0.5-1.1,0.5c-0.3,0-0.6-0.1-0.8-0.4V58h-0.5v-5h0.5v4.2
		c0.1,0.2,0.2,0.4,0.3,0.5s0.3,0.2,0.5,0.2c0.3,0,0.5-0.1,0.7-0.4s0.3-0.6,0.3-1.1c0-0.4-0.1-0.8-0.3-1.1s-0.4-0.4-0.7-0.4
		c-0.2,0-0.3,0.1-0.4,0.2l-0.1-0.2c0.2-0.1,0.4-0.1,0.6-0.1c0.4,0,0.8,0.2,1.1,0.5C205.9,55.6,206,56,206,56.4z"/>
	<path class="st2" d="M207.7,53.4c0,0.1,0,0.2-0.1,0.2s-0.1,0.1-0.2,0.1c-0.1,0-0.2,0-0.2-0.1s-0.1-0.1-0.1-0.2c0-0.1,0-0.2,0.1-0.2
		c0.1-0.1,0.1-0.1,0.2-0.1c0.1,0,0.2,0,0.2,0.1C207.6,53.2,207.7,53.3,207.7,53.4z M207.6,58h-0.5v-3.2h0.5V58z"/>
	<path class="st2" d="M211.3,58h-0.5v-2.2c0-0.7-0.2-1-0.7-1s-0.8,0.3-1,0.9V58h-0.5v-3.2h0.5v0.4c0.3-0.4,0.6-0.5,1-0.5
		s0.7,0.1,0.8,0.2c0.2,0.2,0.3,0.5,0.3,0.9L211.3,58L211.3,58z"/>
	<path class="st2" d="M214.8,56v2h-0.5v-0.3c-0.2,0.2-0.5,0.3-0.8,0.3s-0.6-0.1-0.8-0.3s-0.4-0.4-0.4-0.8c0-0.3,0.1-0.6,0.4-0.8
		c0.2-0.2,0.5-0.3,0.7-0.3c0.1,0,0.2,0,0.2,0c0.2,0,0.3,0.1,0.4,0.1l-0.1,0.2c-0.2-0.1-0.3-0.2-0.5-0.2s-0.4,0.1-0.5,0.2
		c-0.1,0.2-0.2,0.4-0.2,0.7s0.1,0.5,0.2,0.6c0.1,0.2,0.3,0.2,0.5,0.2c0.3,0,0.6-0.2,0.8-0.5V56c0-0.7-0.2-1-0.7-1
		c-0.3,0-0.5,0.1-0.8,0.3l-0.1-0.2c0.2-0.2,0.5-0.2,0.9-0.2C214.4,54.7,214.8,55.1,214.8,56z"/>
	<path class="st2" d="M217.2,55h-0.6v2c0,0.3,0,0.6,0.1,0.7c0.1,0.1,0.2,0.2,0.5,0.2V58c-0.7,0-1.1-0.4-1.1-1.1v-2h-0.3v-0.2h0.3
		v-0.4h0.5v0.4h0.6V55z"/>
	<path class="st2" d="M218.7,53.4c0,0.1,0,0.2-0.1,0.2s-0.1,0.1-0.2,0.1c-0.1,0-0.2,0-0.2-0.1s-0.1-0.1-0.1-0.2c0-0.1,0-0.2,0.1-0.2
		c0.1-0.1,0.1-0.1,0.2-0.1c0.1,0,0.2,0,0.2,0.1C218.6,53.2,218.7,53.3,218.7,53.4z M218.6,58h-0.5v-3.2h0.5V58z"/>
	<path class="st2" d="M222.9,56.4c0,0.5-0.2,0.9-0.5,1.2s-0.7,0.5-1.2,0.5s-0.8-0.2-1.2-0.5c-0.3-0.3-0.5-0.7-0.5-1.2
		s0.2-0.9,0.5-1.2s0.7-0.5,1.2-0.5s0.8,0.2,1.2,0.5C222.8,55.6,222.9,56,222.9,56.4z M222.4,56.4c0-0.4-0.1-0.8-0.3-1.1
		s-0.5-0.4-0.8-0.4s-0.6,0.1-0.8,0.4c-0.2,0.3-0.3,0.6-0.3,1.1c0,0.4,0.1,0.8,0.3,1.1s0.5,0.4,0.8,0.4s0.6-0.1,0.8-0.4
		C222.3,57.2,222.4,56.8,222.4,56.4z"/>
	<path class="st2" d="M226.6,58h-0.5v-2.2c0-0.7-0.2-1-0.7-1s-0.8,0.3-1,0.9V58h-0.5v-3.2h0.5v0.4c0.3-0.4,0.6-0.5,1-0.5
		s0.7,0.1,0.8,0.2c0.2,0.2,0.3,0.5,0.3,0.9L226.6,58L226.6,58z"/>
	<path class="st2" d="M232.4,56.4c0,0.5-0.2,0.9-0.5,1.2s-0.7,0.5-1.2,0.5s-0.8-0.2-1.2-0.5c-0.3-0.3-0.5-0.7-0.5-1.2
		s0.2-0.9,0.5-1.2s0.7-0.5,1.2-0.5s0.8,0.2,1.2,0.5C232.2,55.6,232.4,56,232.4,56.4z M231.8,56.4c0-0.4-0.1-0.8-0.3-1.1
		s-0.5-0.4-0.8-0.4s-0.6,0.1-0.8,0.4c-0.2,0.3-0.3,0.6-0.3,1.1c0,0.4,0.1,0.8,0.3,1.1s0.5,0.4,0.8,0.4s0.6-0.1,0.8-0.4
		C231.7,57.2,231.8,56.8,231.8,56.4z"/>
	<path class="st2" d="M234.6,55H234v3h-0.5v-3h-0.3v-0.2h0.3v-0.7c0-0.7,0.4-1,1.1-1v0.2c-0.2,0-0.4,0.1-0.5,0.2
		c-0.1,0.1-0.1,0.4-0.1,0.7v0.7L234.6,55L234.6,55z"/>
	<path class="st2" d="M141.4,67H141v-2.2c0-0.7-0.2-1-0.7-1s-0.8,0.3-1,0.9V67h-0.5v-3.2h0.5v0.4c0.3-0.4,0.6-0.5,1-0.5
		s0.7,0.1,0.8,0.2c0.2,0.2,0.3,0.5,0.3,0.9L141.4,67L141.4,67z"/>
	<path class="st2" d="M144.9,65v2h-0.5v-0.3c-0.2,0.2-0.5,0.3-0.8,0.3s-0.6-0.1-0.8-0.3c-0.2-0.2-0.4-0.4-0.4-0.8
		c0-0.3,0.1-0.6,0.4-0.8c0.2-0.2,0.5-0.3,0.7-0.3c0.1,0,0.2,0,0.2,0c0.2,0,0.3,0.1,0.4,0.1l-0.1,0.2c-0.2-0.1-0.3-0.2-0.5-0.2
		s-0.4,0.1-0.5,0.2c-0.1,0.2-0.2,0.4-0.2,0.7c0,0.3,0.1,0.5,0.2,0.6c0.1,0.2,0.3,0.2,0.5,0.2c0.3,0,0.6-0.2,0.8-0.5V65
		c0-0.7-0.2-1-0.7-1c-0.3,0-0.5,0.1-0.8,0.3l-0.1-0.2c0.2-0.2,0.5-0.2,0.9-0.2C144.5,63.7,144.9,64.1,144.9,65z"/>
	<path class="st2" d="M147.3,64h-0.6v2c0,0.3,0,0.6,0.1,0.7s0.2,0.2,0.5,0.2V67c-0.7,0-1.1-0.4-1.1-1.1v-2h-0.3v-0.2h0.3v-0.4h0.5
		v0.4h0.6V64z"/>
	<path class="st2" d="M150.8,67h-0.5v-0.6c-0.2,0.4-0.6,0.6-1,0.6c-0.8,0-1.2-0.4-1.2-1.2v-2.2h0.5V66c0,0.7,0.2,1,0.7,1
		c0.3,0,0.5-0.2,0.7-0.5c0.1-0.2,0.2-0.4,0.2-0.6v-2.1h0.5V67H150.8z"/>
	<path class="st2" d="M153.4,63.9l-0.1,0.2c-0.1-0.1-0.3-0.1-0.4-0.1c-0.1,0-0.1,0-0.2,0.1c-0.2,0.1-0.3,0.4-0.3,0.9v2h-0.5v-3.2
		h0.5v0.4c0.1-0.1,0.1-0.2,0.2-0.3c0.1-0.1,0.2-0.1,0.4-0.1S153.3,63.8,153.4,63.9z"/>
	<path class="st2" d="M156.5,65v2H156v-0.3c-0.2,0.2-0.5,0.3-0.8,0.3s-0.6-0.1-0.8-0.3c-0.2-0.2-0.4-0.4-0.4-0.8
		c0-0.3,0.1-0.6,0.4-0.8c0.2-0.2,0.5-0.3,0.7-0.3c0.1,0,0.2,0,0.2,0c0.2,0,0.3,0.1,0.4,0.1l-0.1,0.2c-0.2-0.1-0.3-0.2-0.5-0.2
		s-0.4,0.1-0.5,0.2c-0.1,0.2-0.2,0.4-0.2,0.7c0,0.3,0.1,0.5,0.2,0.6c0.1,0.2,0.3,0.2,0.5,0.2c0.3,0,0.6-0.2,0.8-0.5V65
		c0-0.7-0.2-1-0.7-1c-0.3,0-0.5,0.1-0.8,0.3l-0.1-0.2c0.2-0.2,0.5-0.2,0.9-0.2C156.1,63.7,156.5,64.1,156.5,65z"/>
	<path class="st2" d="M158.1,67h-0.5v-5h0.5V67z"/>
	<path class="st2" d="M161.1,67h-0.5v-5h0.5V67z"/>
	<path class="st2" d="M164.5,65v2H164v-0.3c-0.2,0.2-0.5,0.3-0.8,0.3s-0.6-0.1-0.8-0.3c-0.2-0.2-0.4-0.4-0.4-0.8
		c0-0.3,0.1-0.6,0.4-0.8c0.2-0.2,0.5-0.3,0.7-0.3c0.1,0,0.2,0,0.2,0c0.2,0,0.3,0.1,0.4,0.1l-0.1,0.2c-0.2-0.1-0.3-0.2-0.5-0.2
		s-0.4,0.1-0.5,0.2c-0.1,0.2-0.2,0.4-0.2,0.7c0,0.3,0.1,0.5,0.2,0.6c0.1,0.2,0.3,0.2,0.5,0.2c0.3,0,0.6-0.2,0.8-0.5V65
		c0-0.7-0.2-1-0.7-1c-0.3,0-0.5,0.1-0.8,0.3l-0.1-0.2c0.2-0.2,0.5-0.2,0.9-0.2C164.1,63.7,164.5,64.1,164.5,65z"/>
	<path class="st2" d="M168.3,67h-0.5v-2.2c0-0.7-0.2-1-0.7-1s-0.8,0.3-1,0.9V67h-0.5v-3.2h0.5v0.4c0.3-0.4,0.6-0.5,1-0.5
		s0.7,0.1,0.8,0.2c0.2,0.2,0.3,0.5,0.3,0.9L168.3,67L168.3,67z"/>
	<path class="st2" d="M172.1,67h-0.5v-0.3c-0.2,0.2-0.5,0.4-0.8,0.4c-0.4,0-0.8-0.2-1.1-0.5s-0.4-0.7-0.4-1.2s0.1-0.9,0.4-1.2
		c0.3-0.3,0.6-0.5,1.1-0.5c0.2,0,0.4,0,0.6,0.1l-0.1,0.2c-0.2-0.1-0.3-0.2-0.5-0.2s-0.5,0.1-0.6,0.4c-0.2,0.3-0.3,0.7-0.3,1.1
		s0.1,0.8,0.3,1.1c0.2,0.3,0.4,0.4,0.7,0.4c0.2,0,0.3-0.1,0.5-0.2c0.1-0.1,0.2-0.3,0.3-0.5V62h0.5L172.1,67L172.1,67z"/>
	<path class="st2" d="M175,66.3c0,0.3-0.1,0.5-0.3,0.6c-0.2,0.2-0.4,0.2-0.7,0.2c-0.4,0-0.7-0.1-0.9-0.4l0.2-0.2
		c0.2,0.3,0.5,0.4,0.8,0.4c0.2,0,0.3-0.1,0.4-0.2s0.2-0.3,0.2-0.4c0-0.2-0.1-0.4-0.3-0.5c-0.1-0.1-0.3-0.2-0.6-0.4
		c-0.4-0.2-0.5-0.5-0.5-0.9c0-0.2,0.1-0.4,0.3-0.6c0.2-0.1,0.4-0.2,0.6-0.2c0.1,0,0.3,0,0.5,0.1s0.3,0.2,0.3,0.3l-0.2,0.2
		c-0.2-0.3-0.4-0.4-0.7-0.4s-0.5,0.1-0.5,0.4c0,0.2,0.1,0.4,0.3,0.6c0.4,0.2,0.6,0.4,0.7,0.5C174.9,65.6,175,65.9,175,66.3z"/>
	<path class="st2" d="M178.7,66.6c-0.3,0.3-0.7,0.4-1.1,0.4c-0.5,0-0.8-0.2-1.2-0.5c-0.3-0.3-0.5-0.7-0.5-1.2s0.2-0.9,0.5-1.2
		c0.3-0.3,0.7-0.5,1.2-0.5c0.4,0,0.7,0.1,1,0.3l-0.1,0.2c-0.2-0.2-0.5-0.4-0.9-0.4c-0.3,0-0.6,0.2-0.8,0.5c-0.2,0.3-0.3,0.6-0.3,1
		s0.1,0.8,0.3,1c0.2,0.3,0.5,0.5,0.8,0.5c0.4,0,0.7-0.2,1-0.5L178.7,66.6z"/>
	<path class="st2" d="M181.7,65v2h-0.5v-0.3c-0.2,0.2-0.5,0.3-0.8,0.3s-0.6-0.1-0.8-0.3c-0.2-0.2-0.4-0.4-0.4-0.8
		c0-0.3,0.1-0.6,0.4-0.8c0.2-0.2,0.5-0.3,0.7-0.3c0.1,0,0.2,0,0.2,0c0.2,0,0.3,0.1,0.4,0.1l-0.1,0.2c-0.2-0.1-0.3-0.2-0.5-0.2
		s-0.4,0.1-0.5,0.2c-0.1,0.2-0.2,0.4-0.2,0.7c0,0.3,0.1,0.5,0.2,0.6c0.1,0.2,0.3,0.2,0.5,0.2c0.3,0,0.6-0.2,0.8-0.5V65
		c0-0.7-0.2-1-0.7-1c-0.3,0-0.5,0.1-0.8,0.3l-0.1-0.2c0.2-0.2,0.5-0.2,0.9-0.2C181.3,63.7,181.7,64.1,181.7,65z"/>
	<path class="st2" d="M185.5,65.4c0,0.5-0.1,0.8-0.4,1.2c-0.3,0.3-0.6,0.5-1,0.5c-0.2,0-0.4,0-0.6-0.1l0.1-0.2
		c0.1,0.1,0.3,0.2,0.5,0.2s0.5-0.1,0.6-0.4c0.2-0.3,0.3-0.6,0.3-1.1c0-0.4-0.1-0.8-0.3-1.1c-0.2-0.3-0.4-0.4-0.7-0.4
		c-0.2,0-0.3,0.1-0.5,0.2c-0.1,0.1-0.2,0.3-0.3,0.5v3.6h-0.5v-4.4h0.5v0.3c0.2-0.2,0.5-0.4,0.8-0.4c0.4,0,0.8,0.2,1,0.5
		C185.4,64.6,185.5,65,185.5,65.4z"/>
	<path class="st2" d="M189.4,65h-2v-0.2h1.5c0-0.6-0.3-0.9-0.8-0.9c-0.3,0-0.6,0.1-0.8,0.4s-0.3,0.6-0.3,1.1s0.1,0.8,0.3,1.1
		c0.2,0.3,0.5,0.4,0.8,0.4c0.4,0,0.7-0.2,1-0.5l0.2,0.2c-0.3,0.3-0.7,0.5-1.1,0.5c-0.5,0-0.8-0.2-1.2-0.5c-0.3-0.3-0.5-0.7-0.5-1.2
		s0.2-0.9,0.5-1.2c0.3-0.3,0.7-0.5,1.1-0.5c0.3,0,0.6,0.1,0.9,0.4C189.2,64.4,189.4,64.7,189.4,65z"/>
	<path class="st2" d="M141.2,74v2h-0.5v-0.3c-0.2,0.2-0.5,0.3-0.8,0.3s-0.6-0.1-0.8-0.3c-0.2-0.2-0.4-0.4-0.4-0.8
		c0-0.3,0.1-0.6,0.4-0.8c0.2-0.2,0.5-0.3,0.7-0.3c0.1,0,0.2,0,0.2,0c0.2,0,0.3,0.1,0.4,0.1l-0.1,0.2c-0.2-0.1-0.3-0.2-0.5-0.2
		s-0.4,0.1-0.5,0.2c-0.1,0.2-0.2,0.4-0.2,0.7c0,0.3,0.1,0.5,0.2,0.6c0.1,0.2,0.3,0.2,0.5,0.2c0.3,0,0.6-0.2,0.8-0.5V74
		c0-0.7-0.2-1-0.7-1c-0.3,0-0.5,0.1-0.8,0.3l-0.1-0.2c0.2-0.2,0.5-0.2,0.9-0.2C140.8,72.7,141.2,73.1,141.2,74z"/>
	<path class="st2" d="M145,76h-0.5v-2.2c0-0.7-0.2-1-0.7-1s-0.8,0.3-1,0.9V76h-0.5v-3.2h0.5v0.4c0.3-0.4,0.6-0.5,1-0.5
		s0.7,0.1,0.8,0.2c0.2,0.2,0.3,0.5,0.3,0.9L145,76L145,76z"/>
	<path class="st2" d="M148.8,76h-0.5v-0.3c-0.2,0.2-0.5,0.4-0.8,0.4c-0.4,0-0.8-0.2-1.1-0.5s-0.4-0.7-0.4-1.2s0.1-0.9,0.4-1.2
		c0.3-0.3,0.6-0.5,1.1-0.5c0.2,0,0.4,0,0.6,0.1L148,73c-0.2-0.1-0.3-0.2-0.5-0.2s-0.5,0.1-0.6,0.4c-0.2,0.3-0.3,0.7-0.3,1.1
		s0.1,0.8,0.3,1.1c0.2,0.3,0.4,0.4,0.7,0.4c0.2,0,0.3-0.1,0.5-0.2s0.2-0.3,0.3-0.5V71h0.5L148.8,76L148.8,76z"/>
	<path class="st2" d="M153.7,74v2h-0.5v-0.3c-0.2,0.2-0.5,0.3-0.8,0.3s-0.6-0.1-0.8-0.3c-0.2-0.2-0.4-0.4-0.4-0.8
		c0-0.3,0.1-0.6,0.4-0.8c0.2-0.2,0.5-0.3,0.7-0.3c0.1,0,0.2,0,0.2,0c0.2,0,0.3,0.1,0.4,0.1l-0.1,0.2c-0.2-0.1-0.3-0.2-0.5-0.2
		s-0.4,0.1-0.5,0.2c-0.1,0.2-0.2,0.4-0.2,0.7c0,0.3,0.1,0.5,0.2,0.6c0.1,0.2,0.3,0.2,0.5,0.2c0.3,0,0.6-0.2,0.8-0.5V74
		c0-0.7-0.2-1-0.7-1c-0.3,0-0.5,0.1-0.8,0.3l-0.1-0.2c0.2-0.2,0.5-0.2,0.9-0.2C153.3,72.7,153.7,73.1,153.7,74z"/>
	<path class="st2" d="M156.3,72.9l-0.1,0.2c-0.1-0.1-0.3-0.1-0.4-0.1c-0.1,0-0.1,0-0.2,0.1c-0.2,0.1-0.3,0.4-0.3,0.9v2h-0.5v-3.2
		h0.5v0.4c0.1-0.1,0.1-0.2,0.2-0.3c0.1-0.1,0.2-0.1,0.4-0.1C156.1,72.8,156.2,72.8,156.3,72.9z"/>
	<path class="st2" d="M158.6,73H158v2c0,0.3,0,0.6,0.1,0.7s0.2,0.2,0.5,0.2V76c-0.7,0-1.1-0.4-1.1-1.1v-2h-0.3v-0.2h0.3v-0.4h0.5
		v0.4h0.6V73z"/>
	<path class="st2" d="M160.1,71.4c0,0.1,0,0.2-0.1,0.2s-0.1,0.1-0.2,0.1c-0.1,0-0.2,0-0.2-0.1s-0.1-0.1-0.1-0.2s0-0.2,0.1-0.2
		c0.1-0.1,0.1-0.1,0.2-0.1c0.1,0,0.2,0,0.2,0.1C160.1,71.2,160.1,71.3,160.1,71.4z M160,76h-0.5v-3.2h0.5V76z"/>
	<path class="st2" d="M162.9,75.3c0,0.3-0.1,0.5-0.3,0.6c-0.2,0.2-0.4,0.2-0.7,0.2c-0.4,0-0.7-0.1-0.9-0.4l0.1-0.2
		c0.2,0.3,0.5,0.4,0.8,0.4c0.2,0,0.3-0.1,0.4-0.2c0.1-0.1,0.2-0.3,0.2-0.4c0-0.2-0.1-0.4-0.3-0.5c-0.1-0.1-0.3-0.2-0.6-0.4
		c-0.4-0.2-0.5-0.5-0.5-0.9c0-0.2,0.1-0.4,0.3-0.6c0.2-0.1,0.4-0.2,0.6-0.2s0.3,0,0.5,0.1s0.3,0.2,0.3,0.3l-0.2,0.2
		c-0.2-0.3-0.4-0.4-0.7-0.4s-0.5,0.1-0.6,0.4c0,0.2,0.1,0.4,0.3,0.6c0.4,0.2,0.6,0.4,0.7,0.5C162.8,74.6,162.9,74.9,162.9,75.3z"/>
	<path class="st2" d="M165.2,73h-0.6v2c0,0.3,0,0.6,0.1,0.7s0.2,0.2,0.5,0.2V76c-0.7,0-1.1-0.4-1.1-1.1v-2h-0.3v-0.2h0.3v-0.4h0.5
		v0.4h0.6V73z"/>
	<path class="st2" d="M166.7,71.4c0,0.1,0,0.2-0.1,0.2s-0.1,0.1-0.2,0.1c-0.1,0-0.2,0-0.2-0.1s-0.1-0.1-0.1-0.2s0-0.2,0.1-0.2
		c0.1-0.1,0.1-0.1,0.2-0.1c0.1,0,0.2,0,0.2,0.1C166.6,71.2,166.7,71.3,166.7,71.4z M166.6,76h-0.5v-3.2h0.5V76z"/>
	<path class="st2" d="M170.4,75.6c-0.3,0.3-0.7,0.4-1.1,0.4c-0.5,0-0.8-0.2-1.2-0.5c-0.3-0.3-0.5-0.7-0.5-1.2s0.2-0.9,0.5-1.2
		c0.3-0.3,0.7-0.5,1.2-0.5c0.4,0,0.7,0.1,1,0.3l-0.1,0.2c-0.2-0.2-0.5-0.4-0.9-0.4c-0.3,0-0.6,0.2-0.8,0.5s-0.3,0.6-0.3,1
		s0.1,0.8,0.3,1c0.2,0.3,0.5,0.5,0.8,0.5c0.4,0,0.7-0.2,1-0.5L170.4,75.6z"/>
	<path class="st2" d="M175.2,74h-2v-0.2h1.5c0-0.6-0.3-0.9-0.8-0.9c-0.3,0-0.6,0.1-0.8,0.4s-0.3,0.6-0.3,1.1s0.1,0.8,0.3,1.1
		c0.2,0.3,0.5,0.4,0.8,0.4c0.4,0,0.7-0.2,1-0.5l0.2,0.2c-0.3,0.3-0.7,0.5-1.1,0.5c-0.5,0-0.8-0.2-1.2-0.5c-0.3-0.3-0.5-0.7-0.5-1.2
		s0.2-0.9,0.5-1.2s0.7-0.5,1.1-0.5c0.3,0,0.6,0.1,0.9,0.4C175.1,73.4,175.2,73.7,175.2,74z"/>
	<path class="st2" d="M178.9,76h-0.6l-1-1.5l-1.2,1.5h-0.2l1.3-1.6l-1.1-1.6h0.6l0.9,1.2l1-1.2h0.2l-1.1,1.4L178.9,76z"/>
	<path class="st2" d="M182.4,74.4c0,0.5-0.1,0.8-0.4,1.2c-0.3,0.3-0.6,0.5-1,0.5c-0.2,0-0.4,0-0.6-0.1l0.1-0.2
		c0.1,0.1,0.3,0.2,0.5,0.2s0.5-0.1,0.6-0.4c0.2-0.3,0.3-0.6,0.3-1.1c0-0.4-0.1-0.8-0.3-1.1c-0.2-0.3-0.4-0.4-0.7-0.4
		c-0.2,0-0.3,0.1-0.5,0.2c-0.1,0.1-0.2,0.3-0.3,0.5v3.6h-0.5v-4.4h0.5v0.3c0.2-0.2,0.5-0.4,0.8-0.4c0.4,0,0.8,0.2,1,0.5
		C182.3,73.6,182.4,74,182.4,74.4z"/>
	<path class="st2" d="M184.9,72.9l-0.1,0.2c-0.1-0.1-0.3-0.1-0.4-0.1c-0.1,0-0.1,0-0.2,0.1c-0.2,0.1-0.3,0.4-0.3,0.9v2h-0.5v-3.2
		h0.5v0.4c0.1-0.1,0.1-0.2,0.2-0.3c0.1-0.1,0.2-0.1,0.4-0.1S184.8,72.8,184.9,72.9z"/>
	<path class="st2" d="M188.4,74h-2v-0.2h1.5c0-0.6-0.3-0.9-0.8-0.9c-0.3,0-0.6,0.1-0.8,0.4s-0.3,0.6-0.3,1.1s0.1,0.8,0.3,1.1
		c0.2,0.3,0.5,0.4,0.8,0.4c0.4,0,0.7-0.2,1-0.5l0.2,0.2c-0.3,0.3-0.7,0.5-1.1,0.5c-0.5,0-0.8-0.2-1.2-0.5c-0.3-0.3-0.5-0.7-0.5-1.2
		s0.2-0.9,0.5-1.2s0.7-0.5,1.1-0.5c0.3,0,0.6,0.1,0.9,0.4C188.3,73.4,188.4,73.7,188.4,74z"/>
	<path class="st2" d="M191.1,75.3c0,0.3-0.1,0.5-0.3,0.6c-0.2,0.2-0.4,0.2-0.7,0.2c-0.4,0-0.7-0.1-0.9-0.4l0.2-0.2
		c0.2,0.3,0.5,0.4,0.8,0.4c0.2,0,0.3-0.1,0.4-0.2c0.1-0.1,0.2-0.3,0.2-0.4c0-0.2-0.1-0.4-0.3-0.5c-0.1-0.1-0.3-0.2-0.6-0.4
		c-0.4-0.2-0.5-0.5-0.5-0.9c0-0.2,0.1-0.4,0.3-0.6c0.2-0.1,0.4-0.2,0.6-0.2c0.1,0,0.3,0,0.5,0.1s0.3,0.2,0.3,0.3l-0.2,0.2
		c-0.2-0.3-0.4-0.4-0.7-0.4s-0.5,0.1-0.5,0.4c0,0.2,0.1,0.4,0.3,0.6c0.4,0.2,0.6,0.4,0.7,0.5C191,74.6,191.1,74.9,191.1,75.3z"/>
	<path class="st2" d="M193.9,75.3c0,0.3-0.1,0.5-0.3,0.6c-0.2,0.2-0.4,0.2-0.7,0.2c-0.4,0-0.7-0.1-0.9-0.4l0.2-0.2
		c0.2,0.3,0.5,0.4,0.8,0.4c0.2,0,0.3-0.1,0.4-0.2c0.1-0.1,0.2-0.3,0.2-0.4c0-0.2-0.1-0.4-0.3-0.5c-0.1-0.1-0.3-0.2-0.6-0.4
		c-0.4-0.2-0.5-0.5-0.5-0.9c0-0.2,0.1-0.4,0.3-0.6c0.2-0.1,0.4-0.2,0.6-0.2c0.2,0,0.3,0,0.5,0.1s0.3,0.2,0.3,0.3l-0.2,0.2
		c-0.2-0.3-0.4-0.4-0.7-0.4s-0.5,0.1-0.5,0.4c0,0.2,0.1,0.4,0.3,0.6c0.4,0.2,0.6,0.4,0.7,0.5C193.7,74.6,193.9,74.9,193.9,75.3z"/>
	<path class="st2" d="M195.4,71.4c0,0.1,0,0.2-0.1,0.2s-0.1,0.1-0.2,0.1c-0.1,0-0.2,0-0.2-0.1s-0.1-0.1-0.1-0.2s0-0.2,0.1-0.2
		c0.1-0.1,0.1-0.1,0.2-0.1c0.1,0,0.2,0,0.2,0.1C195.4,71.2,195.4,71.3,195.4,71.4z M195.4,76h-0.5v-3.2h0.5V76z"/>
	<path class="st2" d="M199.7,74.4c0,0.5-0.2,0.9-0.5,1.2c-0.3,0.3-0.7,0.5-1.2,0.5s-0.8-0.2-1.2-0.5c-0.3-0.3-0.5-0.7-0.5-1.2
		s0.2-0.9,0.5-1.2s0.7-0.5,1.2-0.5s0.8,0.2,1.2,0.5C199.6,73.6,199.7,74,199.7,74.4z M199.2,74.4c0-0.4-0.1-0.8-0.3-1.1
		c-0.2-0.3-0.5-0.4-0.8-0.4s-0.6,0.1-0.8,0.4s-0.3,0.6-0.3,1.1c0,0.4,0.1,0.8,0.3,1.1c0.2,0.3,0.5,0.4,0.8,0.4s0.6-0.1,0.8-0.4
		C199.1,75.2,199.2,74.8,199.2,74.4z"/>
	<path class="st2" d="M203.4,76h-0.5v-2.2c0-0.7-0.2-1-0.7-1s-0.8,0.3-1,0.9V76h-0.5v-3.2h0.5v0.4c0.3-0.4,0.6-0.5,1-0.5
		s0.7,0.1,0.8,0.2c0.2,0.2,0.3,0.5,0.3,0.9L203.4,76L203.4,76z"/>
	<path class="st2" d="M205.1,75.8c0,0.1,0,0.2-0.1,0.2s-0.1,0.1-0.2,0.1c-0.1,0-0.2,0-0.2-0.1s-0.1-0.1-0.1-0.2s0-0.2,0.1-0.2
		s0.1-0.1,0.2-0.1c0.1,0,0.2,0,0.2,0.1S205.1,75.7,205.1,75.8z"/>
</g>
<path class="st3" d="M109.9,33v0.2h-6.3c-1.4-0.1-2.6-1.2-2.6-2.7v-13H84.7v15.7h-4.9v-28c0-1.9-1.2-3.5-3-4c0,0-0.1,0-0.1,0
	l-0.8-0.2V0.7h6.2c0.8,0,1.4,0.3,1.9,0.8c0.4,0.5,0.8,1.2,0.8,1.9v12.5h16.3V0.7h4.9v28c0,1.9,1.2,3.5,3.1,4.1h0.1L109.9,33z"/>
</svg>
