<?xml version="1.0" encoding="utf-8"?>
<!-- Generator: Adobe Illustrator 25.2.3, SVG Export Plug-In . SVG Version: 6.00 Build 0)  -->
<svg version="1.1" id="圖層_1" xmlns="http://www.w3.org/2000/svg" xmlns:xlink="http://www.w3.org/1999/xlink" x="0px" y="0px"
	 viewBox="0 0 280 34" style="enable-background:new 0 0 280 34;" xml:space="preserve">
<style type="text/css">
	.st0{fill:#FFFFFF;}
</style>
<path class="st0" d="M4,0.8V9c0.9-0.3,1.8-0.7,2.7-1.2L7,9c-1.5,0.8-3.4,1.6-5.6,2.2L0.8,9.9C1.4,9.8,2,9.6,2.6,9.4V0.8H4z
	 M10.9,0.8c0,2.7-0.3,4.8-0.9,6.5c1,1.2,1.9,2.5,2.6,3.7l-1.1,1.1c-0.5-1-1.2-2.2-2.1-3.4c-0.7,1.4-2,2.6-3.9,3.8l-0.9-1.1
	c1.8-1.1,3-2.2,3.6-3.4C9,6.5,9.4,4.1,9.5,0.7L10.9,0.8L10.9,0.8z M8.1,5.5L6.8,6.4C6.3,5.3,5.7,4,5,2.6l1.1-0.7
	C7,3.4,7.6,4.5,8.1,5.5z"/>
<path class="st0" d="M25.4,12.4h-1.1V12h-8.7v0.4h-1.1V0.9h11v11.5H25.4z M24.3,11V1.9h-8.7V11H24.3z M20.3,9.2
	c-1.2,0.3-2.5,0.6-4.1,0.9L16,9c1.5-0.1,2.9-0.4,4.3-0.8V9.2z M20.2,3.4c0-0.4,0-0.8,0-1.2h1.1c0,0.4,0,0.8,0,1.2h1.2
	c-0.1-0.3-0.3-0.7-0.5-1l0.9-0.3c0.2,0.3,0.4,0.7,0.6,1.1l-0.6,0.1h1v1h-2.6c0,0.8,0.1,1.5,0.2,2c0.1,0.4,0.2,0.8,0.3,1.2
	c0.4-0.7,0.8-1.6,1.2-2.8l0.9,0.6c-0.6,1.6-1.1,2.7-1.6,3.4c0,0.1,0.1,0.2,0.1,0.2c0.2,0.4,0.4,0.6,0.6,0.6c0.1,0,0.2-0.5,0.4-1.5
	l1,0.8c-0.3,1-0.5,1.5-0.6,1.7c-0.2,0.2-0.4,0.3-0.6,0.3c-0.4,0-0.7-0.2-1.1-0.7c-0.1-0.2-0.2-0.3-0.3-0.5c-0.4,0.5-0.9,0.9-1.5,1.3
	l-0.6-0.8c0.7-0.5,1.2-1,1.6-1.5c-0.2-0.4-0.3-0.9-0.5-1.5c-0.2-0.7-0.3-1.6-0.4-2.7H16v-1H20.2z M19.5,5v3h-3.1V5H19.5z M18.6,5.9
	h-1.3v1.3h1.3V5.9z"/>
<path class="st0" d="M37.9,11.1c0,0.4-0.1,0.8-0.3,1c-0.2,0.2-0.5,0.3-0.8,0.3h-2.2l-0.2-1.3l1.9,0.1c0.3,0,0.4-0.2,0.4-0.6V9
	l-0.8,0.9c-0.7-0.7-1.3-1.4-1.8-2c-0.4-0.6-0.8-1.4-1.1-2.2c-0.2,0.5-0.4,0.9-0.6,1.3c-0.6,1-1.5,2-2.6,3.1l-0.5-0.8v3.2H28V3.2h4.4
	V1.9h-2.8v-1h4.1v2.3H38L37.9,11.1L37.9,11.1z M31.3,6.2c0.3-0.5,0.6-1.2,0.9-2h-3v4.5C30.2,7.8,30.9,7,31.3,6.2z M34.6,6.5
	c0.4,0.7,1.1,1.5,2,2.2V4.3h-3C33.9,5.1,34.2,5.8,34.6,6.5z"/>
<path class="st0" d="M43.4,0.9c-0.1,0.4-0.2,0.8-0.3,1.2h3.1v1.1c-0.2,1.5-0.4,2.9-0.8,4c-0.3,1-0.8,1.9-1.4,2.7
	c-0.6,0.8-1.6,1.7-2.9,2.7l-1-1.1c1.5-1,2.6-2,3.3-3.1c-0.5-0.7-1.1-1.5-1.9-2.3l0.9-0.8C43,5.9,43.5,6.5,44,7.1
	c0.4-1,0.7-2.3,0.8-3.9h-2.2c-0.1,0.4-0.3,0.7-0.4,1c-0.5,1-1,1.9-1.7,2.7l-0.8-1c0.6-0.7,1.1-1.5,1.5-2.4c0.3-0.6,0.6-1.5,0.9-2.8
	L43.4,0.9z M48.3,0.6v4.2c1.2,0.6,2.4,1.3,3.6,2.1L51.1,8c-1.2-0.8-2.1-1.5-2.8-1.9v6.4H47V0.6H48.3z"/>
<path class="st0" d="M56,1c-0.2,0.5-0.3,1-0.5,1.3h3.3v1.2h-1.7C57.1,4.3,57,5,57,5.6h2.3v1.2h-2.4c-0.1,0.3-0.1,0.5-0.1,0.7
	c0.8,0.8,1.7,1.8,2.5,2.8l-0.8,1.2c-0.8-1.2-1.5-2.2-2-2.8c-0.4,1.3-1.3,2.4-2.7,3.5l-0.8-1c1.1-0.8,1.9-1.7,2.2-2.7
	c0.2-0.5,0.4-1.1,0.5-1.8h-2.3V5.5h2.5C56,4.9,56,4.1,56,3.4h-1c-0.3,0.5-0.7,1-1.2,1.6l-1-0.9c0.5-0.5,1-1.1,1.3-1.6
	c0.3-0.5,0.5-1.2,0.8-2L56,1z M64.5,12.3h-1.2v-0.9H61v1.1h-1.2V1.8h4.6L64.5,12.3L64.5,12.3z M63.3,10.3V2.9H61v7.4H63.3z"/>
<path class="st0" d="M72,0.8c-0.2,0.3-0.4,0.6-0.5,0.9h5.4v0.9c-1.4,1.8-2.8,3.1-4.3,4C72.4,6.7,72.2,6.9,72,7h5.1v5.6h-1.3v-0.8
	h-5.6v0.8h-1.3V8.3c-0.7,0.2-1.5,0.5-2.3,0.7l-0.7-1.2c1.9-0.4,3.6-1,4.9-1.6c-0.4-0.5-0.9-1-1.5-1.6l1-0.6c0.7,0.6,1.3,1.1,1.8,1.6
	c1-0.6,2-1.5,3.1-2.7h-4.6c-0.2,0.2-0.3,0.3-0.5,0.4c-0.8,0.7-1.8,1.3-3,1.9l-0.8-1c1.1-0.5,2-1,2.7-1.6c0.6-0.4,1.1-1,1.6-1.9
	L72,0.8z M75.7,10.6V8h-5.6v2.6H75.7z"/>
<path class="st0" d="M85.7,1.5V0.6h1.2v0.9H90v1.9h0.7v1H90v1.9h-3.1v0.8h3.2V8h-3.2v0.9h3.8v1h-3.8V11c0.2,0,0.4,0,0.5,0
	c1.5,0,2.7,0,3.4-0.1l-0.2,1.3c-4,0-6.5-0.1-7.4-0.3c-0.8-0.2-1.4-0.5-1.9-0.9c-0.1,0-0.1-0.1-0.1-0.1c-0.4,0.5-1,1.1-1.7,1.7
	l-0.7-1.2c0.7-0.5,1.2-1,1.6-1.5c-0.4-0.6-0.8-1.5-1.2-2.7l1-0.4c0.3,0.7,0.6,1.4,0.8,1.8c0-0.1,0-0.1,0.1-0.2
	c0.2-0.6,0.3-1.3,0.4-2.4h-2.2V5.2c0.8-0.9,1.5-2,2.1-3.1H79v-1h3.7v1.1c-0.7,1.2-1.4,2.1-2,2.8h2c0,1.5-0.2,2.6-0.5,3.5
	c-0.1,0.4-0.3,0.8-0.4,1.1c0.3,0.4,0.8,0.6,1.4,0.8c0.5,0.2,1.3,0.3,2.5,0.3V9.6h-3.1v-1h3.1V8h-2.5V7.1h2.5V6.3h-2.4V5.4h2.4v-1
	h-3.1v-1h3.1v-1h-2.4V1.5H85.7z M86.9,3.4h1.9v-1h-1.9V3.4z M86.9,5.4h1.9v-1h-1.9V5.4z"/>
<path class="st0" d="M95,0.8c-0.1,0.3-0.2,0.5-0.4,0.7h3.3v1c0.6-0.6,1-1.3,1.3-1.9l1.2,0.2c-0.1,0.3-0.2,0.5-0.4,0.8h3.9v1.1h-2.1
	c0.1,0.3,0.2,0.6,0.4,1l-1.3,0.1c-0.1-0.4-0.2-0.7-0.3-1.1h-1.2c-0.3,0.4-0.6,0.8-0.9,1.1l-1.1-0.7c0.2-0.2,0.3-0.3,0.5-0.5h-1.7
	c0.1,0.3,0.3,0.6,0.4,0.9l-1.3,0.1c-0.1-0.4-0.2-0.7-0.3-1h-1c-0.3,0.4-0.7,0.8-1.1,1.2l-1.1-0.7c1-0.8,1.6-1.6,2-2.5L95,0.8z
	 M97.4,8.2V7.6l-0.5-0.4C97.5,7,98,6.8,98.3,6.6c-0.3-0.2-0.7-0.3-1-0.4l0.6-0.8c0.4,0.1,0.7,0.2,1,0.4c0-0.1,0-0.2,0-0.4V4.9h-1.4
	V4h4.7v2.5c0,0.2,0.1,0.4,0.4,0.4h0.1c0.1,0,0.2,0,0.3-0.1c0.1-0.1,0.1-0.4,0.1-1.1l1,0.3c-0.1,0.9-0.2,1.4-0.4,1.6
	c-0.2,0.2-0.5,0.2-0.9,0.2h-0.5c-0.3,0-0.6-0.1-0.8-0.3c-0.2-0.2-0.3-0.4-0.3-0.8V4.8h-1.3v0.5c0,0.3,0,0.6-0.1,0.8
	c0.4,0.2,0.8,0.4,1.2,0.6l-0.6,1C100,7.5,99.6,7.2,99.3,7c-0.2,0.2-0.5,0.4-0.9,0.6h0.3v0.7h5.3v1.1h-4.1c0.5,0.4,0.9,0.6,1.3,0.8
	c0.6,0.3,1.5,0.6,2.7,0.9l-0.5,1.1c-1.4-0.5-2.5-0.9-3.1-1.4c-0.5-0.3-1.1-0.8-1.6-1.4v3.3h-1.2V9.4c-0.4,0.5-0.8,0.9-1.3,1.3
	c-0.8,0.6-2,1.1-3.5,1.7L92,11.3c1.5-0.5,2.6-0.9,3.3-1.3c0.3-0.2,0.6-0.4,0.9-0.6H92V8.3L97.4,8.2L97.4,8.2z M97,4.1v1.1h-1.7v1.1
	c0.6-0.1,1.2-0.2,1.7-0.4v1c-1.4,0.3-3,0.7-4.8,1l-0.3-1.2c0.7-0.1,1.4-0.2,2.1-0.3V5.1h-1.8V4H97V4.1z"/>
<path class="st0" d="M108.5,0.8c-0.1,0.4-0.3,0.8-0.5,1.1h1.7V6h-3.3v1.3h3.5v5h-1.2v-0.8h-2.4v0.8h-1.2V1.9h1.5
	c0.2-0.4,0.3-0.8,0.4-1.3L108.5,0.8z M108.6,4.9V3h-2.1v1.9H108.6z M108.8,10.4V8.3h-2.4v2.1H108.8z M116.8,1.2v1.2h-2.7v1.4h2.3
	v6.7c0,0.3-0.1,0.6-0.3,0.8c-0.2,0.2-0.4,0.3-0.8,0.3h-0.7l-0.3-1.2l0.7,0.1c0.2,0,0.2-0.1,0.2-0.4V4.9H114v7.7h-1V4.9h-1.2v6.7
	h-1.1V3.7h2.3V2.3h-2.7V1.1L116.8,1.2L116.8,1.2z"/>
<path class="st0" d="M121,1.1c-0.3,0.9-0.5,1.7-0.8,2.3v9.1h-1.1V5.6c-0.3,0.5-0.6,0.9-0.9,1.4l-0.4-1.4c0.4-0.7,0.8-1.4,1.2-2.1
	c0.3-0.7,0.7-1.6,1-2.8L121,1.1z M122.5,2.6v-2h1.2v2h1.6v1.1h-1.6v2.4h0.9l-0.3-0.4c0.6-0.8,1-1.5,1.3-2.3c0.3-0.7,0.5-1.7,0.7-2.8
	l1.1,0.1c-0.1,0.7-0.3,1.3-0.4,1.8h2.7v1.2h-0.6c-0.3,2.1-0.6,3.8-1.1,5.1c0,0.1-0.1,0.2-0.1,0.2c0.5,1,1.2,1.8,2,2.5l-0.7,1
	c-0.8-0.7-1.5-1.5-1.9-2.3c-0.5,0.8-1.1,1.6-1.8,2.2l-0.7-0.9c0.8-0.8,1.4-1.6,1.9-2.6c-0.4-0.9-0.8-2-1.1-3.2
	c-0.2,0.3-0.4,0.6-0.6,0.9l-0.1-0.2v4.9h-3.7V6.1h1.3V3.7h-1.6V2.6H122.5z M123.8,7.2h-1.5v3.1h1.5V7.2z M127.3,7.6
	c0.3-1,0.6-2.3,0.8-3.9h-1.4v0.1c-0.1,0.2-0.1,0.4-0.2,0.5C126.6,5.6,126.9,6.7,127.3,7.6z"/>
<path class="st0" d="M132.9,2.4c-0.2-0.5-0.3-0.9-0.5-1.3l1.2-0.2c0.2,0.4,0.3,0.9,0.5,1.5h0.9c0.2-0.6,0.3-1.2,0.4-1.8l1.1,0.2
	c-0.1,0.6-0.2,1.1-0.4,1.6h5.1c-0.1,0.9-0.2,1.7-0.4,2.3h1.2c-0.1,0.9-0.2,1.7-0.3,2.3h1c0,2.9-0.3,4.6-0.8,5
	c-0.3,0.4-1.1,0.5-2.6,0.5l-0.3-1.3c0.4,0.1,0.7,0.1,1,0.1c0.5,0,0.9-0.1,1.1-0.3c0.2-0.2,0.4-1.2,0.4-3h-7.8
	c-0.6,0.8-1.2,1.6-1.9,2.1l-1-0.7c1.7-1.6,3-3.6,3.8-5.9h-3.1V2.4H132.9z M134.6,9.1c-0.3,1.3-0.8,2.3-1.4,3.3l-1-0.7
	c0.6-0.9,1.1-1.8,1.3-2.8L134.6,9.1z M134.4,7h6.1c0.1-0.3,0.1-0.8,0.2-1.2H135C134.8,6.2,134.6,6.6,134.4,7z M136.6,12.1l-1.2,0.2
	c0-1.4-0.1-2.4-0.2-3.2l1-0.1C136.4,9.8,136.5,10.8,136.6,12.1z M135.4,4.7h4.3c0.1-0.3,0.1-0.7,0.2-1.2h-4.1
	C135.7,4,135.5,4.4,135.4,4.7z M138.8,11.3l-1.1,0.2c-0.2-0.9-0.4-1.7-0.7-2.5l1-0.3C138.3,9.4,138.6,10.3,138.8,11.3z M140.7,10.5
	l-1,0.4c-0.2-0.7-0.4-1.4-0.7-2.1l0.9-0.2C140.2,9.2,140.5,9.9,140.7,10.5z"/>
<path class="st0" d="M155.5,12.4h-1.1V12h-9.1v0.4h-1.1V0.9h11.2v11.5H155.5z M154.4,11.1V1.9h-9.1v9.2H154.4z M149.2,2.5V2h1v0.5
	h3.7v0.8h-3.7v0.5h3.2v3.1h-0.6c0.4,0.4,0.7,0.8,1,1.1L153,8.6c-0.1-0.2-0.2-0.4-0.4-0.5c-0.1,0-0.2,0-0.2,0v0.6h1.6v0.8h-1.6v0.6
	c0,0.3-0.1,0.5-0.3,0.7c-0.2,0.1-0.4,0.2-0.9,0.2h-1.5l-0.2-0.9c0.5,0.1,1,0.1,1.3,0.1s0.4-0.1,0.4-0.2V9.6H148
	c0.3,0.3,0.5,0.7,0.7,1.1l-1,0.4c-0.3-0.5-0.5-0.9-0.9-1.3l0.5-0.2h-1.8V8.8h5.5V8.2c-1.6,0.1-3.3,0.2-5.3,0.3l-0.2-0.9
	c1.1,0,2.2-0.1,3.4-0.1V7h-3.1V3.9h3.1V3.4h-3.5V2.6L149.2,2.5L149.2,2.5z M149.2,5V4.5h-2.1V5H149.2z M149.2,5.7h-2.1v0.5h2.1V5.7z
	 M150.2,5h2.2V4.5h-2.2V5z M152.5,5.7h-2.2v0.5h2.2V5.7z M151.7,6.9h-1.5v0.4c0.6,0,1.2-0.1,1.8-0.1C151.9,7.1,151.8,7,151.7,6.9z"
	/>
<path class="st0" d="M161.3,1.1V2c-0.3,1-0.6,2-1,3.1c0.3,0.6,0.6,1.1,0.7,1.6c0.2,0.5,0.3,0.9,0.3,1.2c0,0.7-0.2,1.2-0.4,1.5
	c-0.3,0.4-0.9,0.5-1.8,0.5l-0.4-1.2c0.2,0,0.4,0.1,0.6,0.1s0.4-0.1,0.5-0.2c0.1-0.1,0.2-0.3,0.2-0.6c0-0.4-0.1-0.8-0.2-1.1
	c-0.1-0.4-0.4-1-0.8-1.6c0.5-1.2,0.8-2.2,1-3.1h-1.5v10.3h-1.2V1.1H161.3z M164.3,2.2h1.5c0.3-0.5,0.5-1,0.8-1.6l1.2,0.4
	c-0.2,0.4-0.4,0.8-0.7,1.2h1.7v1.1h-3c-0.3,0.4-0.7,0.7-1,1c0.3,0.3,0.5,0.6,0.7,0.9c0.1,0.1,0.1,0.2,0.2,0.3
	c0.3-0.1,0.6-0.3,0.9-0.5c0.4-0.3,0.7-0.6,1.1-1.1l1,0.6c-0.4,0.5-0.9,1-1.2,1.3c0,0-0.1,0-0.1,0.1c0.2,0.8,0.4,1.5,0.6,2.1
	c0.2,0.6,0.6,1.3,1,2l-0.8,1.1c-0.5-0.8-0.9-1.7-1.2-2.5c-0.2-0.6-0.4-1.3-0.6-2c-0.1,0.1-0.2,0.1-0.4,0.2c0.1,0.7,0.2,1.4,0.2,2.1
	c0,1.8-0.2,2.8-0.6,3.2c-0.4,0.4-1.2,0.6-2.5,0.6l-0.3-1.2c0.3,0,0.6,0.1,0.9,0.1s0.6-0.1,0.9-0.3c0.2-0.1,0.4-0.9,0.4-2.4V8.7
	c-1,1-2.2,1.9-3.7,2.6l-0.8-1.1c1.9-0.8,3.3-1.7,4.3-2.9c-0.1-0.3-0.1-0.6-0.2-0.8c-0.4,0.4-0.7,0.7-1,0.9c-0.5,0.4-1.1,0.7-1.9,1
	L161,7.3c0.8-0.3,1.4-0.6,2-0.9c0.4-0.2,0.7-0.5,1.1-0.9c-0.1-0.2-0.2-0.3-0.4-0.5c-0.7,0.4-1.5,0.8-2.4,1.1L160.6,5
	c1.1-0.4,2-0.7,2.6-1.1c0.3-0.2,0.6-0.4,0.9-0.6h-3V2.2h1.8c-0.2-0.4-0.4-0.8-0.7-1.2l1.1-0.4C163.8,1.1,164.1,1.6,164.3,2.2z"/>
<path class="st0" d="M176.3,8c-0.2,0.3-0.5,0.5-1,0.8l-0.4-0.6c0.6-0.3,1-0.7,1.1-1.2h-0.8V5.4h1.6v1.3C176.7,7.2,176.5,7.6,176.3,8
	z"/>
<path class="st0" d="M185.5,2h1.5v1.1h-4.1V2h1.4c-0.1-0.4-0.2-0.9-0.2-1.3l1.2-0.1C185.4,1,185.4,1.5,185.5,2z M186.6,4v1h-3.5V4
	H186.6z M186.7,5.9v1h-3.5v-1H186.7z M186.7,11.6h-2.3v0.9h-1.2V7.9h3.5V11.6z M185.6,10.6V9h-1.2v1.6H185.6z M190.7,2.8v2h-0.9v0.6
	h2V4.8h-0.7v-2h3.1v2h-1.4v0.6h1.7v0.9h-1.7v0.6h1.5v0.8h-1.5v0.7h1.8v0.9h-2.9c0.3,0.5,0.6,0.8,0.8,1.1c0.1-0.1,0.3-0.2,0.4-0.3
	c0.2-0.2,0.3-0.4,0.5-0.7l0.8,0.5c-0.2,0.4-0.4,0.6-0.6,0.8c-0.1,0.1-0.2,0.2-0.3,0.3c0.4,0.3,0.9,0.5,1.5,0.7l-0.6,0.9
	c-1-0.4-1.7-0.8-2.2-1.3s-1-1.1-1.4-2c-0.3,0.2-0.5,0.5-0.8,0.6v1.2c0.6-0.1,1.1-0.2,1.6-0.3v1c-1,0.3-2.2,0.5-3.5,0.8l-0.3-1
	c0.4-0.1,0.8-0.1,1.2-0.2v-0.8c-0.4,0.2-1,0.4-1.6,0.5l-0.4-1c0.8-0.2,1.5-0.4,2-0.6c0.1-0.1,0.3-0.1,0.4-0.2H187V8.4h1.8V7.7h-1.3
	V6.9h1.3V6.3h-1.5V5.4h1.5V4.8h-1.2v-2H190.7z M191.5,1.4h3.2v0.9h-7.6V1.4h3.2c-0.1-0.2-0.2-0.5-0.3-0.7l1.2-0.1
	C191.4,0.9,191.5,1.1,191.5,1.4z M189.8,3.5h-1.2v0.7h1.2V3.5z M191.9,6.3h-2v0.6h2V6.3z M191.9,7.7h-2v0.7h2V7.7z M193.4,3.5h-1.2
	v0.7h1.2V3.5z"/>
<path class="st0" d="M199.6,1.1c-0.3,1-0.7,1.9-1,2.6v8.7h-1.2V5.6c-0.3,0.5-0.7,1-1.1,1.5l-0.4-1.4c0.5-0.7,1-1.4,1.4-2.2
	c0.4-0.7,0.8-1.6,1.2-2.9L199.6,1.1z M204.6,2.5l-0.8,0.8h3.7v1.2h-3.4v2.4h3V8h-3v3h3.7v1.2H199V11h3.8V8h-3V6.9h3V4.5h-3.5V3.3
	h4.2c-0.5-0.5-1.1-1.1-1.9-1.7l0.9-0.8C203.3,1.4,204,2,204.6,2.5z"/>
<path class="st0" d="M220.8,1.8c-2.7,0.4-5.8,0.6-9.2,0.7v1.3h8.6v4.7h-8.7c-0.1,0.5-0.2,1.1-0.4,1.7c-0.3,0.8-0.7,1.6-1.3,2.4
	l-1-1.1c0.5-0.6,0.9-1.2,1.1-1.8c0.2-0.7,0.4-1.4,0.4-2.3v-6c3.9,0,7.2-0.3,9.8-0.8L220.8,1.8z M219,7.3V5h-7.3v2.3H219z"/>
<path class="st0" d="M12.4,24.1h-3c0.1,0.6,0.1,1.1,0.2,1.5c0.1,0.4,0.2,0.7,0.3,1c0.4-0.6,0.8-1.3,1.2-2.1l1,0.5
	c-0.6,1.2-1.1,2.1-1.6,2.7c0.1,0.1,0.1,0.2,0.2,0.2c0.3,0.4,0.5,0.6,0.7,0.6c0.1,0,0.2-0.6,0.4-1.7l1.1,0.8
	c-0.3,1.1-0.5,1.7-0.7,1.9c-0.2,0.2-0.4,0.3-0.7,0.3c-0.4,0-0.9-0.2-1.3-0.7c-0.2-0.2-0.3-0.4-0.5-0.6c-0.5,0.5-1,1-1.6,1.4L7.6,29
	h-4v-2.9h4.1v2.6c0.5-0.3,1-0.8,1.4-1.3c-0.2-0.4-0.4-0.8-0.5-1.3c-0.2-0.6-0.3-1.4-0.4-2.3H3v1.1c0,0.8-0.1,1.6-0.2,2.4
	c-0.2,0.9-0.5,1.7-0.9,2.6L0.8,29c0.4-0.6,0.6-1.3,0.8-2c0.1-0.7,0.2-1.4,0.2-2v-2.2h6.5c0-0.4,0-0.8,0-1.3h1.2c0,0.5,0,0.9,0,1.3
	h1.6c-0.2-0.3-0.4-0.5-0.7-0.9l0.8-0.5c0.4,0.4,0.7,0.7,1,1l-0.6,0.4h0.8V24.1z M3.5,30.5c-0.4,1.1-0.9,2-1.4,2.8l-1-0.7
	c0.5-0.7,1-1.6,1.4-2.6L3.5,30.5z M7.9,24.8v1H3.6v-1H7.9z M5.3,30v2.1c0,0.2,0.1,0.4,0.5,0.4h2.8c0.1,0,0.2,0,0.3-0.1
	C9,32.3,9,31.8,9,31l1.1,0.4c-0.1,1.1-0.2,1.7-0.4,1.9s-0.5,0.3-0.9,0.3H5.3c-0.4,0-0.6-0.1-0.8-0.3s-0.3-0.5-0.3-0.8V30H5.3z
	 M6.7,27.3H4.8v1.1h1.9V27.3z M8.2,31.2l-1,0.7c-0.3-0.5-0.7-1.1-1.1-1.7L7,29.7C7.5,30.3,7.9,30.8,8.2,31.2z M12.8,32.3L11.7,33
	c-0.5-0.7-1.1-1.5-1.8-2.4l0.9-0.6C11.6,30.9,12.3,31.6,12.8,32.3z"/>
<path class="st0" d="M25.8,27.8v0.9c-0.4,1-1.2,1.9-2.4,2.7l-0.1,0.1c1.1,0.4,2.7,0.8,4.6,1.1l-0.8,1.1c-2.3-0.5-4-1-5.1-1.5
	c-1.2,0.5-2.9,1-5,1.5l-0.7-1.3c1.8-0.3,3.2-0.6,4.4-1c-0.8-0.5-1.4-1-2-1.7l1.1-0.6c0.6,0.7,1.4,1.2,2.3,1.7h0.1
	c0.9-0.4,1.6-1.1,2.2-1.9h-6v-1.1H25.8z M26.3,23.7c-0.3,0.7-0.6,1.4-1,2h2.3v3.1h-1.2v-2h-8.7v2h-1.2v-3.1h7.4
	c0.5-0.6,0.9-1.4,1.2-2.3L26.3,23.7z M27.1,23c-2.5,0.4-5.9,0.7-10,0.7l-0.4-1.1c3.8,0,7.1-0.2,9.8-0.6L27.1,23z M20,25.4l-1.2,0.3
	c-0.2-0.5-0.5-1.1-0.9-1.6l1.1-0.3C19.4,24.3,19.7,24.8,20,25.4z M23,25.3l-1.2,0.3c-0.2-0.5-0.5-1.1-0.8-1.6l1.1-0.3
	C22.4,24.2,22.7,24.7,23,25.3z"/>
<path class="st0" d="M43,26.6v1h-5.9v6.2h-1.2v-1.3c-1.4,0.2-2.9,0.3-4.6,0.5l-0.2-1.1c0.4,0,0.7,0,1.1-0.1v-4.3H31v-1h12V26.6z
	 M41.8,22.1v4h-9.3v-4H41.8z M35.9,28.4v-0.8h-2.6v0.8H35.9z M35.9,30v-0.8h-2.6V30H35.9z M35.9,31.6v-0.7h-2.6v0.9
	C34.2,31.7,35.1,31.7,35.9,31.6z M40.5,23.7V23h-6.7v0.7H40.5z M40.5,24.5h-6.7v0.7h6.7V24.5z M42.5,28.3v0.8
	c-0.3,1.2-0.8,2.1-1.5,2.9c0.6,0.3,1.2,0.6,2,0.8l-0.6,0.9c-0.9-0.3-1.7-0.7-2.3-1.1c-0.6,0.4-1.4,0.8-2.4,1.1l-0.6-1
	c0.8-0.2,1.5-0.5,2.1-0.8c-0.6-0.6-1.1-1.2-1.5-2l0.9-0.5c0.4,0.8,0.8,1.4,1.4,1.9c0.1-0.1,0.2-0.1,0.2-0.2c0.5-0.5,0.8-1.2,1.1-1.9
	h-3.9v-1h5.1V28.3z"/>
<path class="st0" d="M47.2,22.2h10.3v10.1c0,0.4-0.1,0.7-0.3,1c-0.2,0.2-0.5,0.3-0.8,0.3h-2l-0.2-1.2l1.8,0.1c0.3,0,0.4-0.2,0.4-0.5
	v-8.7h-7.9v3.5c0,1.6-0.1,2.8-0.3,3.9c-0.2,1-0.6,2-1.1,3.1l-1-0.9c0.4-0.8,0.8-1.7,1-2.6c0.2-0.8,0.3-1.9,0.3-3.4v-1.5v-3.2H47.2z
	 M51.6,24.5v-0.9h1.2v0.9h2.7v1h-2.7v1h3.1v1h-3.1v0.7h-1.2v-0.7h-2.7v-1h2.7v-1h-2.4v-1H51.6z M55.2,28.6v3.5h-5.9v-3.5H55.2z
	 M54,29.6h-3.7V31H54V29.6z"/>
<path class="st0" d="M68.1,22.1v1.1h-3.3l-1.1,2.6c1,0,2-0.1,2.8-0.2c-0.2-0.4-0.4-0.8-0.6-1.3l0.9-0.6c0.6,1.2,1.1,2.2,1.5,3
	l-1.1,0.8c-0.1-0.3-0.2-0.6-0.3-0.9c-0.5,0.1-1,0.1-1.6,0.2v1.7h2.4v1.1h-2.4v2c1-0.1,2-0.3,2.9-0.5v1.1c-1.9,0.3-4.1,0.7-6.6,1
	l-0.3-1.3c1-0.1,1.9-0.2,2.8-0.3v-2.1h-2.4v-1.1h2.4V27c-0.7,0.1-1.5,0.1-2.4,0.2l-0.2-1.3c0.3,0,0.5,0,0.8,0l1.2-2.6h-2.1v-1.1
	L68.1,22.1L68.1,22.1z M70,22.7v8.2h-1.3v-8.2H70z M72.5,21.8v10.3c0,0.5-0.1,0.8-0.3,1.1c-0.2,0.2-0.5,0.3-1.1,0.3h-1.7l-0.3-1.4
	c0.7,0.1,1.2,0.1,1.7,0.1c0.3,0,0.5-0.1,0.5-0.3V21.7h1.2V21.8z"/>
<path class="st0" d="M86.7,28.2c0,0.6-0.1,1.1-0.4,1.4c-0.2,0.3-0.8,0.5-1.9,0.5l-0.5-1.2h1c0.2,0,0.4-0.1,0.5-0.2
	c0.1-0.1,0.1-0.4,0.1-0.8v-3l-2.6,0.7v5.1h-1.2V26l-2.4,0.7v4.7c0,0.4,0.1,0.6,0.2,0.7c0.2,0.1,0.4,0.2,0.9,0.2h6.1
	c0.3,0,0.5-0.1,0.7-0.2c0.2-0.2,0.3-0.9,0.3-2.2l1.1,0.4c0,0.6-0.1,1.2-0.1,1.8c-0.1,0.5-0.3,0.8-0.5,1.1c-0.3,0.3-0.7,0.4-1.3,0.4
	H80c-0.6,0-1.1-0.1-1.4-0.4c-0.3-0.3-0.5-0.8-0.5-1.6v-4.4l-1.7,0.5v-1.2l1.7-0.5v-3h1.2v2.7l2.4-0.7v-3h1.2v2.7l3.9-1.1
	C86.7,26.6,86.7,28.2,86.7,28.2z"/>
<path class="st0" d="M103.3,26.6v1h-5.9v6.2h-1.2v-1.3c-1.4,0.2-2.9,0.3-4.6,0.5l-0.2-1.1c0.4,0,0.7,0,1.1-0.1v-4.3h-1.1v-1h11.9
	V26.6z M102.1,22.1v4h-9.3v-4H102.1z M96.2,28.4v-0.8h-2.6v0.8H96.2z M96.2,30v-0.8h-2.6V30H96.2z M96.2,31.6v-0.7h-2.6v0.9
	C94.5,31.7,95.4,31.7,96.2,31.6z M100.8,23.7V23h-6.7v0.7H100.8z M100.8,24.5h-6.7v0.7h6.7V24.5z M102.8,28.3v0.8
	c-0.3,1.2-0.8,2.1-1.5,2.9c0.6,0.3,1.2,0.6,2,0.8l-0.6,0.9c-0.9-0.3-1.7-0.7-2.3-1.1C99.8,33,99,33.4,98,33.7l-0.6-1
	c0.8-0.2,1.5-0.5,2.1-0.8c-0.6-0.6-1.1-1.2-1.5-2l0.9-0.5c0.4,0.8,0.8,1.4,1.4,1.9c0.1-0.1,0.2-0.1,0.2-0.2c0.5-0.5,0.8-1.2,1.1-1.9
	h-3.9v-1h5.1V28.3z"/>
<path class="st0" d="M108.6,23v-1h4.6c0.8,1.4,2.6,2.6,5.3,3.8l-0.8,1.2c-0.4-0.2-0.7-0.3-1.1-0.5v0.8H113v2h3.5v1.1H113v2.2h5v1.1
	h-11.2v-1.1h4.9v-2.2h-3.4v-1.1h3.4v-2h-3.5v-0.8c-0.3,0.2-0.7,0.3-1,0.5l-0.7-1.2c1.4-0.5,2.4-1,3.1-1.5c0.5-0.3,1-0.7,1.4-1.2
	h-2.4V23z M116.1,26.1c-0.6-0.3-1.1-0.6-1.5-1c-0.9-0.7-1.6-1.4-2.2-2.2c-0.4,0.7-0.9,1.2-1.3,1.5c-0.5,0.5-1.3,1.1-2.3,1.6h7.3
	V26.1z"/>
<path class="st0" d="M133.3,22.5v1.1h-5.1c-0.1,0.4-0.3,0.8-0.6,1.2h5.1v8.9h-1.2V33h-8.1v0.7h-1.2v-8.9h4.1
	c0.2-0.4,0.4-0.8,0.6-1.2h-5.1v-1.1H133.3z M124.9,32v-6.1h-1.5V32H124.9z M128.9,27.1v-1.3h-2.8v1.3H128.9z M128.9,29.5v-1.4h-2.8
	v1.4H128.9z M128.9,32v-1.4h-2.8V32H128.9z M131.5,32v-6.1H130V32H131.5z"/>
<path class="st0" d="M140.5,22c-0.2,0.7-0.4,1.3-0.7,1.9h1.9v2.7c0.4-0.6,0.7-1.2,0.9-1.9c0.3-0.7,0.5-1.7,0.6-2.9l1.3,0.2
	c-0.1,0.7-0.2,1.3-0.4,1.8h4c0,4.6-0.1,7.3-0.2,8.1c-0.1,0.7-0.4,1.1-0.7,1.3c-0.4,0.3-1,0.4-2,0.4c-0.3,0-0.6,0-1-0.1l-0.2-1.3
	c0.4,0.1,0.8,0.1,1.2,0.1c0.8,0,1.3-0.3,1.4-0.8c0.2-0.7,0.3-2.9,0.3-6.6h-3.1c0,0.1-0.1,0.2-0.1,0.2c-0.3,0.9-0.8,1.9-1.4,3
	l-0.6-0.8v5.3h-1.1V32h-2.4v1h-1.1v-9.2h1.6c0.3-0.6,0.5-1.3,0.6-2L140.5,22z M140.6,27.5V25h-2.4v2.5H140.6z M140.6,31.1v-2.6h-2.4
	v2.6H140.6z M146,29.8l-1.2,0.8c-0.4-0.9-0.9-2-1.5-3.2l1-0.7C145,27.9,145.6,29,146,29.8z"/>
<path class="st0" d="M155.2,22.6c-0.2,0.6-0.4,1.1-0.5,1.6h2.7v-2.3h1.3v2.3h4.8v1.2h-4.8v2.7h4.2v1.1h-4.2v3.1h5v1.2H152v-1.2h5.4
	v-3.1h-4.1v-1.1h4.1v-2.7h-3.2v0.1c-0.3,0.6-0.8,1.4-1.5,2.3l-1-0.9c0.6-0.7,1.1-1.4,1.5-2.1c0.4-0.7,0.7-1.5,0.9-2.5L155.2,22.6z"
	/>
<path class="st0" d="M169.7,26.6l-0.8,1.2c-0.7-0.6-1.4-1.1-2.2-1.5l0.7-1C168.2,25.7,169,26.1,169.7,26.6z M170.2,29.3
	c-0.7,1.7-1.5,3.2-2.3,4.5l-1-1.1c0.7-1,1.5-2.3,2.2-4.1L170.2,29.3z M170,23.2l-0.8,1.2c-0.7-0.6-1.4-1-2.1-1.3l0.7-1
	C168.6,22.4,169.3,22.8,170,23.2z M178.3,23c-1,0.3-2.1,0.5-3.4,0.7v1.9h3.8v1.1H175v1.9h3.1v5.2h-1.2V33H172v0.8h-1.2v-5.2h3v-1.9
	H170v-1.1h3.8v-1.8c-0.9,0.1-1.8,0.1-2.8,0.1l-0.3-1c2.8,0,5.2-0.3,7.2-0.8L178.3,23z M176.8,31.9v-2.3h-4.9v2.3H176.8z"/>
<path class="st0" d="M192.2,22.2v7.1c0,1.5,0.1,2.4,0.2,2.5c0.1,0.2,0.2,0.3,0.2,0.3c0.1,0,0.3-0.5,0.5-1.5l0.9,0.5
	c-0.2,1.1-0.4,1.7-0.6,2.1c-0.2,0.2-0.4,0.3-0.6,0.3c-0.4,0-0.7-0.2-1-0.5c-0.4-0.5-0.7-1.8-0.7-3.8v-6H184v4.3c0,0.9-0.1,1.9-0.2,3
	c-0.2,1.1-0.5,2.1-0.9,3.2l-1-0.9c0.4-0.8,0.6-1.7,0.8-2.6c0.1-0.9,0.2-1.8,0.2-2.6v-5.4h0.6H192.2z M190.7,24.1v1.1h-2.6v1.1h2.3v4
	h-2.3v1.6c0.5-0.1,1-0.1,1.4-0.2c-0.2-0.3-0.3-0.5-0.5-0.8l1-0.3c0.5,0.8,0.9,1.6,1.3,2.4l-1,0.4c-0.1-0.3-0.2-0.5-0.3-0.8
	c-1.3,0.3-3.2,0.5-5.6,0.6L184,32c1.1,0,2.1,0,2.9-0.1v-1.7h-2.2v-4h2.2v-1.1h-2.5V24h6.3V24.1z M186.9,27.3h-1.2v1.9h1.2V27.3z
	 M189.3,27.3h-1.2v1.9h1.2V27.3z"/>
<path class="st0" d="M207.8,22.1v3.8h-4.5c0.1,0.2,0.2,0.4,0.2,0.6h5.2v1H197v-1h5.3c-0.1-0.2-0.2-0.4-0.3-0.6h-4v-3.8H207.8z
	 M200.8,31.5c-0.5,0.5-1,0.9-1.4,1.1c-0.5,0.3-1.1,0.5-1.8,0.8l-0.6-1.1c0.7-0.2,1.3-0.4,1.8-0.7c0.5-0.3,0.9-0.6,1.3-0.9
	L200.8,31.5z M207.7,28v2.5h-4v2c0,0.4-0.1,0.7-0.3,0.9c-0.2,0.2-0.5,0.3-1.1,0.3h-1.4l-0.2-1.2c0.5,0.1,1,0.1,1.3,0.1
	s0.5-0.1,0.5-0.3v-1.8h-4.3V28H207.7z M206.6,23.6V23h-7.4v0.7h7.4V23.6z M206.6,24.4h-7.4V25h7.4V24.4z M206.6,28.9h-7.3v0.7h7.3
	V28.9z M208.8,32.4l-0.5,1.1c-1-0.8-2.1-1.4-3.2-1.8l0.5-1C206.6,31.1,207.6,31.6,208.8,32.4z"/>
<path class="st0" d="M219.3,29c-0.4,0.3-0.8,0.5-1.3,0.5s-0.9-0.2-1.3-0.5c-0.4-0.3-0.5-0.7-0.5-1.2s0.2-0.9,0.5-1.2
	c0.3-0.3,0.8-0.5,1.3-0.5s0.9,0.2,1.3,0.5c0.4,0.3,0.5,0.8,0.5,1.2C219.8,28.3,219.6,28.7,219.3,29z M218.6,27.2
	c-0.2-0.2-0.4-0.3-0.6-0.3s-0.5,0.1-0.6,0.3c-0.2,0.2-0.3,0.4-0.3,0.6c0,0.2,0.1,0.4,0.3,0.6c0.2,0.2,0.4,0.3,0.6,0.3
	s0.4-0.1,0.6-0.3c0.2-0.2,0.3-0.4,0.3-0.6C218.9,27.6,218.8,27.4,218.6,27.2z"/>
</svg>
