<svg width="300" height="99" viewBox="0 0 300 99" fill="none" xmlns="http://www.w3.org/2000/svg">
<path d="M16.76 47.7201C16.76 50.2701 15.57 52.1401 13.18 53.3201C11.27 54.2601 8.77003 54.7201 5.66003 54.7001C5.13003 54.7001 3.49001 54.6901 0.76001 54.6601V29.5801H5.31C7.87 29.5801 10 29.9601 11.7 30.7101C13.92 31.7001 15.04 33.1901 15.04 35.2001C15.04 36.4301 14.5 37.6401 13.41 38.8401C12.43 39.9501 11.27 40.7601 9.94 41.2901C11.86 41.6101 13.43 42.2801 14.64 43.2701C16.04 44.4401 16.74 45.9301 16.74 47.7201H16.76ZM14.18 47.7201C14.18 45.7001 13.5 44.1801 12.14 43.1701C10.98 42.3201 9.44002 41.8801 7.52002 41.8601H6.04999V41.0901H7.22003C9.07003 41.0901 10.46 40.4001 11.4 39.0301C12.09 38.0001 12.44 36.8401 12.44 35.5301C12.44 32.0501 9.95002 30.3101 4.96002 30.3101H3.33002V53.9301H4.79999C11.04 53.9301 14.16 51.8601 14.16 47.7201H14.18Z" fill="white" stroke="white" stroke-width="0.2" stroke-miterlimit="10"/>
<path d="M32.74 53.1802H22.65V32.9502H32.37V33.5702H24.76V41.7502H31.62V42.3702H24.76V52.5702H32.74V53.1902V53.1802Z" fill="white" stroke="white" stroke-width="0.2" stroke-miterlimit="10"/>
<path d="M50.66 33.5604H44.99V53.1704H42.88V33.5604H37.14V32.9404H50.67V33.5604H50.66Z" fill="white" stroke="white" stroke-width="0.2" stroke-miterlimit="10"/>
<path d="M69.22 33.5604H63.5499V53.1704H61.4399V33.5604H55.7V32.9404H69.2299V33.5604H69.22Z" fill="white" stroke="white" stroke-width="0.2" stroke-miterlimit="10"/>
<path d="M83.73 53.1802H73.64V32.9502H83.36V33.5702H75.75V41.7502H82.61V42.3702H75.75V52.5702H83.73V53.1902V53.1802Z" fill="white" stroke="white" stroke-width="0.2" stroke-miterlimit="10"/>
<path d="M102.88 53.1904H100.58L93.65 41.9504C93.99 41.9704 94.3099 41.9804 94.6299 41.9804C97.7099 41.9804 99.2599 40.6304 99.2599 37.9204C99.2599 34.9304 97.32 33.4704 93.45 33.5204H92.04V53.1804H89.95V32.9604C90.28 32.9404 91.5399 32.9304 93.7399 32.9304C98.8299 32.8904 101.37 34.5204 101.37 37.8304C101.37 39.1304 100.92 40.2004 100.01 41.0304C99.0999 41.8604 97.8699 42.3604 96.3199 42.5404L102.9 53.1804L102.88 53.1904Z" fill="white" stroke="white" stroke-width="0.2" stroke-miterlimit="10"/>
<path d="M132.74 33.5604H127.07V53.1704H124.96V33.5604H119.22V32.9404H132.75V33.5604H132.74Z" fill="white" stroke="white" stroke-width="0.2" stroke-miterlimit="10"/>
<path d="M156.13 43.05C156.13 45.96 155.13 48.39 153.13 50.34C151.09 52.36 148.49 53.37 145.33 53.37C142.17 53.37 139.56 52.36 137.51 50.34C135.52 48.39 134.52 45.96 134.52 43.05C134.52 40.14 135.52 37.72 137.51 35.76C139.56 33.74 142.16 32.73 145.33 32.73C148.5 32.73 151.1 33.74 153.13 35.76C155.13 37.73 156.13 40.16 156.13 43.05ZM153.81 43.05C153.81 40.26 153.05 37.94 151.52 36.1C149.93 34.18 147.86 33.22 145.32 33.22C142.78 33.22 140.7 34.18 139.11 36.1C137.58 37.95 136.82 40.26 136.82 43.05C136.82 45.84 137.58 48.16 139.11 50C140.7 51.92 142.78 52.88 145.32 52.88C147.86 52.88 149.92 51.92 151.52 50C153.05 48.16 153.81 45.84 153.81 43.05Z" fill="white" stroke="white" stroke-width="0.2" stroke-miterlimit="10"/>
<path d="M179.95 53.1801H177.84L176.74 37.8001L169.53 53.4901L162.13 38.0501L161.08 53.1801H160.38L161.83 32.6001L170.37 50.4201L178.5 32.6001L179.95 53.1801Z" fill="white" stroke="white" stroke-width="0.2" stroke-miterlimit="10"/>
<path d="M205.93 43.05C205.93 45.96 204.93 48.39 202.93 50.34C200.89 52.36 198.29 53.37 195.13 53.37C191.97 53.37 189.36 52.36 187.31 50.34C185.32 48.39 184.32 45.96 184.32 43.05C184.32 40.14 185.32 37.72 187.31 35.76C189.36 33.74 191.96 32.73 195.13 32.73C198.3 32.73 200.9 33.74 202.93 35.76C204.93 37.73 205.93 40.16 205.93 43.05ZM203.61 43.05C203.61 40.26 202.85 37.94 201.32 36.1C199.73 34.18 197.66 33.22 195.12 33.22C192.58 33.22 190.5 34.18 188.91 36.1C187.38 37.95 186.62 40.26 186.62 43.05C186.62 45.84 187.38 48.16 188.91 50C190.5 51.92 192.58 52.88 195.12 52.88C197.66 52.88 199.72 51.92 201.32 50C202.85 48.16 203.61 45.84 203.61 43.05Z" fill="white" stroke="white" stroke-width="0.2" stroke-miterlimit="10"/>
<path d="M223.72 53.1904H221.42L214.49 41.9504C214.83 41.9704 215.15 41.9804 215.47 41.9804C218.55 41.9804 220.1 40.6304 220.1 37.9204C220.1 34.9304 218.16 33.4704 214.29 33.5204H212.88V53.1804H210.79V32.9604C211.12 32.9404 212.38 32.9304 214.58 32.9304C219.67 32.8904 222.21 34.5204 222.21 37.8304C222.21 39.1304 221.76 40.2004 220.85 41.0304C219.94 41.8604 218.71 42.3604 217.16 42.5404L223.74 53.1804L223.72 53.1904Z" fill="white" stroke="white" stroke-width="0.2" stroke-miterlimit="10"/>
<path d="M241.72 53.1904H239.42L232.49 41.9504C232.83 41.9704 233.15 41.9804 233.47 41.9804C236.55 41.9804 238.1 40.6304 238.1 37.9204C238.1 34.9304 236.16 33.4704 232.29 33.5204H230.88V53.1804H228.79V32.9604C229.12 32.9404 230.38 32.9304 232.58 32.9304C237.67 32.8904 240.21 34.5204 240.21 37.8304C240.21 39.1304 239.76 40.2004 238.85 41.0304C237.94 41.8604 236.71 42.3604 235.16 42.5404L241.74 53.1804L241.72 53.1904Z" fill="white" stroke="white" stroke-width="0.2" stroke-miterlimit="10"/>
<path d="M266.31 43.05C266.31 45.96 265.31 48.39 263.31 50.34C261.27 52.36 258.67 53.37 255.51 53.37C252.35 53.37 249.74 52.36 247.69 50.34C245.7 48.39 244.7 45.96 244.7 43.05C244.7 40.14 245.7 37.72 247.69 35.76C249.74 33.74 252.34 32.73 255.51 32.73C258.68 32.73 261.28 33.74 263.31 35.76C265.31 37.73 266.31 40.16 266.31 43.05ZM263.99 43.05C263.99 40.26 263.23 37.94 261.7 36.1C260.11 34.18 258.04 33.22 255.5 33.22C252.96 33.22 250.88 34.18 249.29 36.1C247.76 37.95 247 40.26 247 43.05C247 45.84 247.76 48.16 249.29 50C250.88 51.92 252.96 52.88 255.5 52.88C258.04 52.88 260.1 51.92 261.7 50C263.23 48.16 263.99 45.84 263.99 43.05Z" fill="white" stroke="white" stroke-width="0.2" stroke-miterlimit="10"/>
<path d="M299.38 29.58L291.38 55.07L283.99 34.69L277.1 55.06L269.27 29.59L272.08 29.57L278.19 49.3L284.9 29.23L292.24 49.53L298.43 29.58H299.38Z" fill="white" stroke="white" stroke-width="0.2" stroke-miterlimit="10"/>
<path d="M142.22 5.33996C142.24 5.50996 142.25 5.65996 142.25 5.80996V6.25996C142.25 6.89996 142.09 7.51996 141.76 8.09996C141.43 8.68996 140.97 9.19996 140.37 9.65996C139.77 10.11 139.07 10.47 138.25 10.73C137.43 10.99 136.53 11.13 135.55 11.13C134.09 11.13 133 10.83 132.28 10.22C131.56 9.60996 131.2 8.81996 131.2 7.84996C131.2 7.05996 131.49 6.23996 132.07 5.40996C132.65 4.56996 133.61 3.79995 134.94 3.10995C136.27 2.41995 138.04 1.84995 140.22 1.38995C142.41 0.939954 145.12 0.709961 148.36 0.709961C149.36 0.709961 150.26 0.729961 151.08 0.779961C151.9 0.829961 152.6 0.84996 153.19 0.84996C153.71 0.84996 154.14 0.829961 154.48 0.779961C154.83 0.729961 155.12 0.709961 155.37 0.709961C155.58 0.709961 155.78 0.769956 155.96 0.899956C156.14 1.01996 156.23 1.19995 156.23 1.42995C156.23 1.57995 156.18 1.69996 156.08 1.78996C155.98 1.87996 155.81 1.93996 155.56 1.96996C155.31 1.99996 154.98 2.01996 154.56 2.02996C154.14 2.02996 153.61 2.03996 152.97 2.03996C151.72 2.03996 150.69 2.23996 149.86 2.64996C149.03 3.04996 148.26 3.65996 147.55 4.47996C146.84 5.28996 146.1 6.31996 145.34 7.53996C144.57 8.76996 143.62 10.19 142.48 11.83C142.09 12.39 141.59 13.02 141 13.73C140.4 14.44 139.7 15.11 138.88 15.73C138.06 16.36 137.13 16.88 136.08 17.31C135.03 17.74 133.85 17.95 132.53 17.95C132.03 17.95 131.51 17.9 130.95 17.79C130.4 17.68 129.9 17.51 129.44 17.27C128.99 17.03 128.61 16.71 128.32 16.32C128.03 15.92 127.88 15.44 127.88 14.86C127.88 14.5 127.99 14.19 128.21 13.93C128.43 13.67 128.75 13.55 129.16 13.55C129.44 13.55 129.68 13.64 129.87 13.81C130.06 13.98 130.15 14.2 130.15 14.46C130.15 14.71 130.06 14.91 129.88 15.05C129.7 15.2 129.5 15.27 129.27 15.27C129.14 15.27 129.04 15.25 128.95 15.22C129.04 16.01 129.44 16.61 130.15 17.02C130.86 17.43 131.74 17.64 132.79 17.64C133.79 17.64 134.7 17.44 135.54 17.02C136.38 16.61 137.16 16.07 137.88 15.39C138.6 14.71 139.28 13.94 139.92 13.08C140.56 12.22 141.2 11.32 141.83 10.39C142.46 9.45995 143.1 8.53996 143.74 7.61996C144.38 6.70996 145.06 5.86995 145.77 5.10995C146.48 4.34995 147.24 3.70996 148.05 3.16996C148.86 2.62996 149.75 2.27996 150.73 2.11996V2.06995C149.93 2.06995 149.06 2.03996 148.11 1.96996C147.17 1.89996 146.29 1.86996 145.49 1.86996C143.25 1.86996 141.26 2.01996 139.52 2.32996C137.78 2.62996 136.32 3.04996 135.13 3.58996C133.94 4.12996 133.04 4.75996 132.42 5.47996C131.81 6.20996 131.5 6.98996 131.5 7.82996C131.5 8.81996 131.86 9.56995 132.58 10.07C133.3 10.57 134.32 10.82 135.64 10.82C136.56 10.82 137.41 10.69 138.18 10.44C138.94 10.19 139.6 9.84995 140.16 9.42995C140.71 9.00995 141.14 8.52996 141.45 7.97996C141.76 7.43996 141.92 6.87996 141.92 6.29996V5.82996C141.92 5.66996 141.92 5.49996 141.89 5.33996H142.21H142.22Z" fill="white" stroke="white" stroke-width="0.2" stroke-miterlimit="10"/>
<path d="M160.67 0.450195L151.22 13.4402L151.27 13.4902C151.63 13.0802 152.04 12.6102 152.52 12.0702C153 11.5302 153.52 11.0302 154.08 10.5502C154.64 10.0702 155.23 9.67019 155.86 9.34019C156.48 9.01019 157.11 8.8502 157.73 8.8502C158.82 8.8502 159.36 9.35019 159.36 10.3602C159.36 10.6202 159.26 10.9402 159.05 11.3002C158.85 11.6602 158.59 12.0402 158.28 12.4502C157.97 12.8502 157.64 13.2602 157.28 13.6702C156.92 14.0802 156.59 14.4802 156.28 14.8702C155.97 15.2602 155.71 15.6202 155.51 15.9602C155.31 16.3002 155.2 16.5802 155.2 16.8102C155.2 16.9902 155.26 17.1402 155.37 17.2702C155.48 17.3902 155.64 17.4602 155.84 17.4602C156.25 17.4602 156.7 17.3402 157.19 17.1002C157.68 16.8602 158.19 16.5502 158.71 16.1602C159.23 15.7702 159.75 15.3402 160.27 14.8602C160.79 14.3802 161.26 13.9102 161.7 13.4402C162.14 12.9702 162.53 12.5302 162.87 12.1102C163.22 11.6902 163.47 11.3502 163.63 11.0802L163.79 11.1302C163.59 11.4402 163.32 11.8202 162.96 12.2702C162.6 12.7202 162.2 13.1902 161.75 13.6802C161.3 14.1702 160.81 14.6602 160.28 15.1502C159.76 15.6402 159.23 16.0702 158.71 16.4602C158.18 16.8502 157.66 17.1602 157.15 17.4002C156.63 17.6402 156.15 17.7602 155.71 17.7602C155.27 17.7602 154.87 17.6302 154.58 17.3602C154.29 17.1002 154.14 16.7302 154.14 16.2702C154.14 15.9402 154.24 15.5802 154.45 15.1802C154.65 14.7802 154.91 14.3802 155.22 13.9802C155.53 13.5802 155.86 13.1702 156.22 12.7702C156.58 12.3702 156.91 11.9802 157.22 11.6202C157.53 11.2602 157.79 10.9202 157.99 10.6202C158.19 10.3102 158.3 10.0602 158.3 9.84019C158.3 9.58019 158.22 9.40019 158.06 9.30019C157.9 9.20019 157.7 9.15019 157.47 9.15019C157.03 9.15019 156.53 9.30019 155.99 9.61019C155.45 9.92019 154.89 10.3102 154.31 10.8102C153.73 11.3102 153.16 11.8602 152.59 12.4802C152.02 13.1002 151.48 13.7202 150.98 14.3502C150.47 14.9802 150.03 15.5702 149.64 16.1302C149.26 16.6902 148.96 17.1702 148.75 17.5602H147.01C147.99 16.1402 148.99 14.7002 150.03 13.2402C151.06 11.7702 152.09 10.3202 153.11 8.87019C154.13 7.42019 155.13 5.99019 156.11 4.58019C157.09 3.17019 158.01 1.83019 158.89 0.540192L160.68 0.470192L160.67 0.450195Z" fill="white" stroke="white" stroke-width="0.2" stroke-miterlimit="10"/>
<path d="M175.13 11.1401C174.86 11.5501 174.53 12.0101 174.13 12.5001C173.73 12.9901 173.28 13.4801 172.77 13.9701C172.26 14.4601 171.72 14.9301 171.14 15.3801C170.56 15.8301 169.96 16.2401 169.34 16.5901C168.72 16.9401 168.09 17.2201 167.46 17.4301C166.83 17.6401 166.21 17.7401 165.6 17.7401C164.85 17.7401 164.27 17.5601 163.86 17.2101C163.45 16.8601 163.25 16.3501 163.25 15.6901C163.25 14.9701 163.49 14.2001 163.96 13.4101C164.43 12.6101 165.03 11.8701 165.76 11.2001C166.49 10.5201 167.29 9.9601 168.16 9.5201C169.03 9.0701 169.87 8.8501 170.67 8.8501C171.11 8.8501 171.46 8.94009 171.71 9.11009C171.96 9.28009 172.08 9.53009 172.08 9.86009C172.08 10.2501 171.85 10.6401 171.39 11.0101C170.93 11.3801 170.36 11.7201 169.7 12.0201C169.03 12.3301 168.32 12.6001 167.55 12.8401C166.79 13.0801 166.11 13.2601 165.52 13.3701C165.32 13.7001 165.16 14.0701 165.04 14.4801C164.91 14.8901 164.85 15.3001 164.85 15.7201C164.85 15.9201 164.87 16.1101 164.92 16.3001C164.96 16.4901 165.03 16.6601 165.13 16.8201C165.23 16.9801 165.36 17.1101 165.53 17.2001C165.7 17.3001 165.91 17.3501 166.16 17.3501C166.75 17.3501 167.44 17.1701 168.23 16.8201C169.02 16.4701 169.83 15.9901 170.65 15.4001C171.47 14.8101 172.25 14.1301 173 13.3701C173.75 12.6101 174.39 11.8301 174.92 11.0201L175.13 11.1401ZM170.81 9.83009C170.81 9.60009 170.74 9.4301 170.61 9.3101C170.48 9.1901 170.31 9.14009 170.12 9.14009C169.75 9.14009 169.34 9.28009 168.91 9.55009C168.47 9.82009 168.04 10.1601 167.62 10.5601C167.19 10.9601 166.81 11.4001 166.46 11.8601C166.11 12.3201 165.85 12.7301 165.67 13.1001C166.06 13.0301 166.55 12.9101 167.14 12.7201C167.73 12.5301 168.29 12.3001 168.84 12.0201C169.38 11.7401 169.85 11.4101 170.24 11.0401C170.63 10.6701 170.83 10.2701 170.83 9.8401L170.81 9.83009Z" fill="white" stroke="white" stroke-width="0.2" stroke-miterlimit="10"/>
<path d="M139.83 65.6704H160.31" stroke="white" stroke-miterlimit="10"/>
<path d="M120.69 93.9204V96.0904C120.55 97.0504 119.88 97.7604 118.69 98.2004V97.4204C119.29 97.1004 119.59 96.6404 119.59 96.0404H118.48V93.9304H120.69V93.9204Z" fill="#D8B167"/>
<path d="M136.02 89.4604H137.4C137.26 90.6704 136.64 91.5504 135.53 92.1104H136.71V91.6304H138.02V95.9704C138.16 97.0904 137.4 97.8404 135.74 98.2004C135.56 97.9604 135.39 97.9004 135.26 98.0204L134.64 98.1404V98.0204C136.07 97.6204 136.76 97.0304 136.71 96.2704V94.8804C136.34 95.2004 136.11 95.6204 136.02 96.1504C135.42 95.6304 135.19 94.6904 135.33 93.3204H135.4C135.63 94.0404 136.07 94.5304 136.71 94.7704V92.7804H129.52C129.11 94.6704 128.3 96.4804 127.1 98.2004H126.62C127.86 95.9904 128.49 93.7204 128.49 91.3904V87.4104H129.67C129.44 86.9704 129.23 86.2404 129.05 85.2404L129.19 85.1804C129.83 85.7004 130.32 86.1404 130.64 86.5104C130.32 86.9504 130.06 87.2704 129.88 87.4704V87.8304H135.2V87.4104H136.65C136.37 88.6504 135.68 89.5804 134.58 90.1804H136.03V89.4604H136.02ZM128.14 84.8804L128.07 84.7604C132.82 84.0804 135.61 83.5604 136.43 83.1904C136.94 83.7504 137.28 84.1704 137.47 84.4604C136.18 84.6204 133.07 84.7604 128.14 84.8804ZM129.8 93.7404H131.04C130.99 95.3504 130.37 96.3504 129.17 96.7504V96.2704C129.58 96.1904 129.79 95.9304 129.79 95.4904V93.7404H129.8ZM135.12 92.1104C135.58 91.8304 135.86 91.4104 135.95 90.8504H129.8C129.8 91.1704 129.75 91.5504 129.66 91.9904V92.1104H135.12ZM135.19 88.5004H129.87V90.1904H134.16C134.67 89.7904 135.01 89.2304 135.2 88.5004H135.19ZM131.87 93.5604L132.01 93.5004C132.29 94.2204 132.54 94.9704 132.77 95.7304C132.49 96.0104 132.17 96.2504 131.8 96.4504C131.71 96.2504 131.66 95.8904 131.66 95.3704C131.71 94.7304 131.77 94.1304 131.87 93.5604ZM131.94 85.0604L132.01 85.0004C132.42 85.3604 132.91 85.8204 133.46 86.3904C133.23 86.7904 132.93 87.1504 132.56 87.4704C132.24 86.7904 132.03 85.9804 131.94 85.0604ZM133.74 93.4904L133.81 93.4304C133.95 93.7904 134.22 94.4304 134.64 95.3604C134.41 95.6804 134.11 95.9604 133.74 96.2004C133.6 95.8004 133.6 94.8904 133.74 93.4904ZM135.88 85.0004L136.5 85.2404L135.12 87.4104L134.5 87.1704L135.88 85.0004Z" fill="#D8B167"/>
<path d="M146.69 88.5602V83.2002H148.21V88.9802C148.58 92.6402 150.28 95.0302 153.33 96.1502C153.05 96.4702 152.92 97.0302 152.92 97.8402C152.92 97.9202 152.9 97.9602 152.85 97.9602H152.71C149.9 96.5902 148.33 94.1402 148.01 90.6102C147.92 92.9002 145.96 95.3702 142.13 98.0202H141.44C143.47 96.4902 144.85 95.0702 145.59 93.7402C146.33 92.4602 146.7 90.7302 146.7 88.5602H146.69Z" fill="#D8B167"/>
<path d="M166.12 89.4604H167.5C167.36 90.6704 166.74 91.5504 165.63 92.1104H166.81V91.6304H168.12V95.9704C168.26 97.0904 167.5 97.8404 165.84 98.2004C165.66 97.9604 165.49 97.9004 165.36 98.0204L164.74 98.1404V98.0204C166.17 97.6204 166.86 97.0304 166.81 96.2704V94.8804C166.44 95.2004 166.21 95.6204 166.12 96.1504C165.52 95.6304 165.29 94.6904 165.43 93.3204H165.5C165.73 94.0404 166.17 94.5304 166.81 94.7704V92.7804H159.62C159.21 94.6704 158.4 96.4804 157.2 98.2004H156.72C157.96 95.9904 158.59 93.7204 158.59 91.3904V87.4104H159.77C159.54 86.9704 159.33 86.2404 159.15 85.2404L159.29 85.1804C159.93 85.7004 160.42 86.1404 160.74 86.5104C160.42 86.9504 160.16 87.2704 159.98 87.4704V87.8304H165.3V87.4104H166.75C166.47 88.6504 165.78 89.5804 164.68 90.1804H166.13V89.4604H166.12ZM158.24 84.8804L158.17 84.7604C162.92 84.0804 165.71 83.5604 166.53 83.1904C167.04 83.7504 167.38 84.1704 167.57 84.4604C166.28 84.6204 163.17 84.7604 158.24 84.8804ZM159.9 93.7404H161.14C161.09 95.3504 160.47 96.3504 159.27 96.7504V96.2704C159.68 96.1904 159.89 95.9304 159.89 95.4904V93.7404H159.9ZM165.22 92.1104C165.68 91.8304 165.96 91.4104 166.05 90.8504H159.9C159.9 91.1704 159.85 91.5504 159.76 91.9904V92.1104H165.22ZM165.29 88.5004H159.97V90.1904H164.26C164.77 89.7904 165.11 89.2304 165.3 88.5004H165.29ZM161.97 93.5604L162.11 93.5004C162.39 94.2204 162.64 94.9704 162.87 95.7304C162.59 96.0104 162.27 96.2504 161.9 96.4504C161.81 96.2504 161.76 95.8904 161.76 95.3704C161.81 94.7304 161.87 94.1304 161.97 93.5604ZM162.04 85.0604L162.11 85.0004C162.52 85.3604 163.01 85.8204 163.56 86.3904C163.33 86.7904 163.03 87.1504 162.66 87.4704C162.34 86.7904 162.13 85.9804 162.04 85.0604ZM163.84 93.4904L163.91 93.4304C164.05 93.7904 164.32 94.4304 164.74 95.3604C164.51 95.6804 164.21 95.9604 163.84 96.2004C163.7 95.8004 163.7 94.8904 163.84 93.4904ZM165.98 85.0004L166.6 85.2404L165.22 87.4104L164.6 87.1704L165.98 85.0004Z" fill="#D8B167"/>
<path d="M173.53 87.2904H181.48V87.8904H178.3L176.78 89.2204C176.92 89.3004 177.06 89.3804 177.2 89.4604C178.12 89.8604 178.56 90.3304 178.51 90.8504L181.62 88.7404L182.1 89.2204L179.68 90.7904C179.91 92.6804 181.15 94.1204 183.41 95.1304C182.81 95.6904 182.6 96.2904 182.79 96.9404L182.72 97.0004C180.78 96.2804 179.65 94.2904 179.33 91.0404L178.57 91.5204V96.1604C178.61 97.0004 177.9 97.6504 176.43 98.0904C176.38 97.8904 176.15 97.8504 175.74 97.9704L174.84 98.0904L174.77 97.9704C176.66 97.5304 177.47 96.9004 177.19 96.1004V92.6104C176.68 94.2204 175.05 95.7604 172.28 97.2504H171.52C173.78 96.2504 175.16 94.6404 175.67 92.4304C175.02 93.0704 173.9 93.8204 172.28 94.6604H171.66C173.73 93.5404 175.02 92.1304 175.53 90.4404H177.19C177.1 90.0404 176.89 89.7004 176.57 89.4204C175.28 90.3004 173.9 91.1304 172.42 91.8904H171.8C174.1 90.5704 175.63 89.2404 176.36 87.9104H173.53V87.3104V87.2904ZM172.08 84.7604H173.46V85.1204H177.33C176.87 84.6004 176.5 83.9704 176.22 83.2504V83.1904C177 83.4704 177.67 83.7504 178.22 84.0304C177.99 84.5104 177.76 84.8704 177.53 85.1104H181.47V84.6304H182.85V87.0404C182.34 86.6804 181.88 86.7404 181.47 87.2204V85.7104H173.45V87.2804H172.07V84.7504L172.08 84.7604ZM177.2 92.3504V90.6604C176.92 91.1004 176.51 91.6004 175.96 92.1704C175.87 92.2504 175.8 92.3104 175.75 92.3504H177.2Z" fill="#D8B167"/>
<path d="M193.18 91.6904V93.0204H197.95V93.6804H193.94C194.81 95.0904 196.34 95.8704 198.5 96.0304C197.9 96.2704 197.69 96.8304 197.88 97.7204C195.76 97.0404 194.33 95.6904 193.59 93.6804H193.18V98.2004H191.8V94.4004C191.11 95.2004 189.59 96.2904 187.24 97.6504H186.55C188.72 96.3204 190.17 95.0004 190.9 93.6704H187.1V93.0104H191.8V91.6804H193.18V91.6904ZM188.34 83.2604H190C189.82 83.7404 189.61 84.1404 189.38 84.4704H192.42V85.1304H189.59C190.05 85.4104 190.53 85.7304 191.04 86.0904C190.9 86.3704 190.65 86.7304 190.28 87.1704C189.82 86.4504 189.47 85.7604 189.24 85.1204H188.89C188.2 85.9204 187.6 86.5304 187.09 86.9304H186.61C187.67 85.8904 188.25 84.6604 188.34 83.2504V83.2604ZM191.73 87.4204V88.0804H190.07V90.4304C190.71 90.2704 191.36 90.0304 192.01 89.7104V89.8304C190.63 90.9604 188.88 91.7604 186.76 92.2404C187.08 91.6404 187.04 91.1004 186.62 90.6104C187.45 90.7304 188.19 90.7504 188.83 90.6704V88.0804H187.03V87.4204H191.73ZM193.46 83.2004H195.12C194.94 83.6004 194.73 84.0004 194.5 84.4004H198.03V85.0604H194.92C195.43 85.3404 195.93 85.6204 196.44 85.9004C196.26 86.2204 196.03 86.5604 195.75 86.9204H196.72V90.5404C196.67 90.7404 196.79 90.8204 197.07 90.7804C197.35 90.7804 197.48 90.7004 197.48 90.5404L197.76 88.4304H197.9V90.1204H198.18L198.11 91.3804C198.06 91.7804 197.83 91.9604 197.42 91.9204H196.45C195.67 91.9604 195.32 91.7204 195.41 91.2004V88.0104H193.68C193.68 88.4504 193.66 88.7704 193.61 88.9704C194.03 89.2104 194.53 89.5304 195.13 89.9304C195.04 90.2504 194.85 90.6304 194.58 91.0804C194.12 90.4404 193.8 89.8504 193.61 89.3304C193.43 90.0104 192.71 90.9004 191.47 91.9804C191.33 92.0604 191.24 92.1204 191.19 92.1604H190.64C191.84 91.4404 192.41 90.3304 192.37 88.8504V86.9204H193.68V87.3404H195.41V86.9204H195.62C195.11 86.0804 194.79 85.4504 194.65 85.0504H194.03C193.75 85.4104 193.27 85.9504 192.58 86.6804L192.51 86.7404H192.03C192.95 85.6604 193.43 84.4704 193.48 83.1904L193.46 83.2004Z" fill="#D8B167"/>
<path d="M78.5499 91.6904V93.0204H83.3199V93.6804H79.3099C80.1799 95.0904 81.7099 95.8704 83.8699 96.0304C83.2699 96.2704 83.0599 96.8304 83.2499 97.7204C81.1299 97.0404 79.7 95.6904 78.96 93.6804H78.5499V98.2004H77.1699V94.4004C76.4799 95.2004 74.9599 96.2904 72.6099 97.6504H71.9199C74.0899 96.3204 75.54 95.0004 76.27 93.6704H72.47V93.0104H77.1699V91.6804H78.5499V91.6904ZM73.71 83.2604H75.3699C75.1899 83.7404 74.9799 84.1404 74.7499 84.4704H77.79V85.1304H74.96C75.42 85.4104 75.9 85.7304 76.41 86.0904C76.27 86.3704 76.02 86.7304 75.65 87.1704C75.19 86.4504 74.8399 85.7604 74.6099 85.1204H74.2599C73.5699 85.9204 72.97 86.5304 72.46 86.9304H71.9799C73.0399 85.8904 73.62 84.6604 73.71 83.2504V83.2604ZM77.1 87.4204V88.0804H75.4399V90.4304C76.0799 90.2704 76.7299 90.0304 77.3799 89.7104V89.8304C75.9999 90.9604 74.2499 91.7604 72.1299 92.2404C72.4499 91.6404 72.4099 91.1004 71.9899 90.6104C72.8199 90.7304 73.56 90.7504 74.2 90.6704V88.0804H72.4V87.4204H77.1ZM78.83 83.2004H80.4899C80.3099 83.6004 80.0999 84.0004 79.8699 84.4004H83.4V85.0604H80.29C80.8 85.3404 81.2999 85.6204 81.8099 85.9004C81.6299 86.2204 81.3999 86.5604 81.1199 86.9204H82.09V90.5404C82.04 90.7404 82.1599 90.8204 82.4399 90.7804C82.7199 90.7804 82.85 90.7004 82.85 90.5404L83.1299 88.4304H83.27V90.1204H83.5499L83.4799 91.3804C83.4299 91.7804 83.2 91.9604 82.79 91.9204H81.8199C81.0399 91.9604 80.69 91.7204 80.78 91.2004V88.0104H79.0499C79.0499 88.4504 79.0299 88.7704 78.9799 88.9704C79.3999 89.2104 79.8999 89.5304 80.4999 89.9304C80.4099 90.2504 80.22 90.6304 79.95 91.0804C79.49 90.4404 79.1699 89.8504 78.9799 89.3304C78.7999 90.0104 78.08 90.9004 76.84 91.9804C76.7 92.0604 76.6099 92.1204 76.5599 92.1604H76.0099C77.2099 91.4404 77.7799 90.3304 77.7399 88.8504V86.9204H79.0499V87.3404H80.78V86.9204H80.9899C80.4799 86.0804 80.16 85.4504 80.02 85.0504H79.4C79.12 85.4104 78.64 85.9504 77.95 86.6804L77.8799 86.7404H77.4C78.32 85.6604 78.8 84.4704 78.85 83.1904L78.83 83.2004Z" fill="#D8B167"/>
<path d="M206.91 86.4503V84.4604H201.79V83.8604H213.4V84.4604H208.28V86.4503H210.63V85.8504H212.01V92.2404H210.63V91.6404H208.28C208.33 92.9304 208.05 94.0303 207.45 94.9503C209.06 95.7103 211.09 96.1104 213.53 96.1504C213.02 96.4704 212.88 97.0704 213.12 97.9604C210.22 97.4004 208.07 96.6503 206.69 95.7303C205.77 96.2503 204.27 97.0004 202.2 97.9604H201.58C203.79 96.8404 205.24 95.8904 205.94 95.1304C205.25 94.3704 204.74 93.4004 204.42 92.2404H203.18V85.8504H204.56V86.4503H206.91ZM204.56 87.0504V88.7404H206.91V87.0504H204.56ZM204.56 91.0303H206.91V89.3403H204.56V91.0303ZM206.91 91.6304H204.56V92.1703C204.88 92.8903 205.53 93.6404 206.5 94.4004C206.82 93.7604 206.96 92.8304 206.91 91.6304ZM210.64 87.0504H208.29V88.7404H210.64V87.0504ZM208.29 89.3403V91.0303H210.64V89.3403H208.29Z" fill="#D8B167"/>
<path d="M218.47 83.0803H219.85L219.43 86.9403H220.67V86.1003H222.05V89.8303H224.54V87.5403H223.85L226.96 84.4103H222.19V83.6903H227.58L227.86 83.3303H228V84.4103C227.72 84.5303 227.42 84.7703 227.1 85.1303C227.1 85.0903 227.08 85.1103 227.03 85.1903L224.82 87.3003H225.93V89.8303H228.56V90.5503H225.93V96.3903C226.07 96.9903 225.21 97.5503 223.37 98.0803C223.32 97.8003 223.21 97.7003 223.02 97.7803L222.12 98.0203L222.05 97.8403C223.94 97.2803 224.77 96.7903 224.54 96.3903V90.5503H222.05C221.87 91.9603 221.47 93.1403 220.88 94.1003C221.75 94.7003 222.28 95.1303 222.47 95.3703C222.42 95.6503 222.29 96.0303 222.05 96.5203C221.45 95.9203 220.88 95.3403 220.32 94.7703C219.77 95.3703 219.01 96.1403 218.04 97.0603C217.76 97.3403 217.49 97.6403 217.21 97.9603H216.66C217.53 97.0803 218.55 95.8503 219.7 94.2803C219.56 94.2403 219.4 94.1403 219.22 93.9803C219.04 93.8203 218.9 93.7003 218.81 93.6203L218.74 94.0403H217.36L218.05 87.5303H216.67V86.9303H218.05C218.23 85.6503 218.37 84.3603 218.46 83.0703L218.47 83.0803ZM220.68 90.3103V87.5403H219.44L218.89 93.0803C219.4 93.3603 219.76 93.5403 220 93.6203C220.46 92.7403 220.69 91.6303 220.69 90.3103H220.68Z" fill="#D8B167"/>
<path d="M238.5 83.2002H240.16C240.07 84.5702 239.84 85.6902 239.47 86.5702H241.68V85.7302H243.06V96.1502C243.01 96.9502 242.37 97.5602 241.12 97.9602C241.03 97.8002 240.87 97.7402 240.64 97.7802L239.81 97.9602L239.67 97.8402C240.91 97.4402 241.58 96.9202 241.67 96.2702V87.1702H239.18C238.81 87.8502 238.26 88.6602 237.52 89.5802H237.24V96.9902H235.86V96.2102H233.65V97.4802H232.27V85.9702H233.65V86.5702H234C234.37 85.9702 234.53 84.8802 234.48 83.3202H236C236 84.4902 235.45 85.5702 234.34 86.5702H235.86V85.9702H237.24V89.4602C238.11 88.0102 238.53 85.9302 238.48 83.2002H238.5ZM233.66 95.6702H235.87V87.1702H233.66V90.4202H235.18V91.0202H233.66V95.6602V95.6702ZM238.36 89.4602L238.43 89.4002C239.3 90.4002 239.93 91.2302 240.3 91.8702C240.12 92.5502 239.84 93.1202 239.47 93.5602C238.92 92.4402 238.55 91.0702 238.36 89.4602Z" fill="#D8B167"/>
<path d="M248.63 95.2503H247.25V83.9203H248.63V84.6403H250.29V83.9203H251.67V94.5203H250.29V93.8003H248.63V95.2503ZM248.63 93.2003H250.29V85.2503H248.63V88.5003H249.87V89.1003H248.63V93.2003ZM252.92 92.4803V83.3203H254.3V84.1603H256.79V83.3203H258.17V96.5103C258.26 97.1503 257.55 97.6703 256.03 98.0803C255.98 97.8803 255.82 97.8203 255.55 97.9003L254.31 98.0803L254.24 97.9003C255.35 97.5803 256.04 97.3403 256.31 97.1803C256.63 96.9803 256.79 96.6803 256.79 96.2803V84.7703H254.3V87.9003H256.24V88.5003H254.3V91.6303H256.1V92.2303H254.3C254.44 94.3203 253.17 96.3103 250.5 98.2003H249.88C252.05 96.4703 253.06 94.5603 252.92 92.4803Z" fill="#D8B167"/>
<path d="M264.86 97.7204H263.34V83.4404H264.86V84.2804H270.67V83.4404H272.19V97.6004H270.67V96.1504H264.86V97.7204ZM264.86 95.4904H270.67V85.0104H264.86V89.4704H269.7V90.1904H264.86V95.4904Z" fill="#D8B167"/>
<path d="M29.1699 95.1304H27.96V83.7204H29.1699V84.4503H30.6299V83.7204H31.84V94.4004H30.6299V93.6703H29.1699V95.1304ZM29.1699 93.0704H30.6299V85.0603H29.1699V88.3403H30.2599V88.9503H29.1699V93.0804V93.0704ZM32.9299 92.3403V83.1104H34.14V83.9604H36.33V83.1104H37.54V96.4004C37.62 97.0504 36.99 97.5703 35.66 97.9803C35.62 97.7803 35.4799 97.7204 35.2399 97.8004L34.15 97.9803L34.09 97.8004C35.06 97.4804 35.67 97.2304 35.91 97.0704C36.19 96.8704 36.34 96.5604 36.34 96.1604V84.5704H34.15V87.7303H35.85V88.3403H34.15V91.5004H35.7299V92.1104H34.15C34.27 94.2204 33.1599 96.2204 30.8099 98.1204H30.2599C32.1599 96.3804 33.0499 94.4604 32.9299 92.3504V92.3403Z" fill="#D8B167"/>
<path d="M92.6299 87.0699H91.3899V86.7599H90.6099V90.2499H91.3899V89.7899H92.6299V90.8399C91.5699 90.9399 90.6899 90.9299 89.9899 90.7999C90.1999 91.0599 90.2499 91.3399 90.1399 91.6499C90.9899 91.6499 91.8499 91.5499 92.6999 91.3399H92.8499C93.7799 91.1299 94.4799 90.8199 94.9499 90.4099C95.1299 91.2099 95.4699 91.7499 95.9599 92.0399C95.9299 91.5499 96.0099 91.2399 96.1899 91.1099C95.6999 90.9799 95.3099 90.6699 95.0299 90.1799H95.4199V86.6999H94.6399V87.0899H93.3999V86.3899H96.3499V85.7799H93.3999V85.1499H92.6199V85.7799H89.8999V86.3899H92.6199V87.0899L92.6299 87.0699ZM92.6299 89.3899H91.3899V88.6199H92.6299V89.3899ZM92.6299 88.2299H91.3899V87.4599H92.6299V88.2299ZM93.4099 88.6199H94.6499V89.3899H93.4099V88.6199ZM94.9199 90.1699V90.2899C94.4499 90.5199 93.9499 90.6599 93.4099 90.7199V89.7899H94.6499V90.1799H94.9199V90.1699ZM94.6499 87.4599V88.2299H93.4099V87.4599H94.6499Z" fill="#D8B167"/>
<path d="M93.1098 94.47C92.7098 94.17 92.1999 93.84 91.5999 93.48L91.5598 93.5C91.8098 94.08 92.1799 94.58 92.6599 95.01C92.9099 94.87 93.0598 94.69 93.1098 94.47Z" fill="#D8B167"/>
<path d="M95.0699 91.79H94.2399V92.7H89.9799V93.31H94.2399V94.96C94.2099 95.17 93.7099 95.33 92.7299 95.45L92.8399 95.51L93.3699 95.45C93.4499 95.45 93.5199 95.48 93.5999 95.53C94.5799 95.42 95.0699 95.21 95.0699 94.91V93.31H96.3499V92.7H95.0699V91.79Z" fill="#D8B167"/>
<path d="M96.7899 83.1301V83.8601H89.0899V83.1301H87.8799V98.0901H89.0899V96.6301H96.7899V97.3601H97.9999V83.1201H96.7899V83.1301ZM96.7899 96.0301H89.0899V84.4701H96.7899V96.0301Z" fill="#D8B167"/>
<path d="M104.97 84.0603H103.76V83.3303H102.61V98.0803H103.76V95.8303L104.25 95.6503C104.49 95.4903 104.67 95.5103 104.8 95.7103C105.57 95.3903 105.95 94.9003 105.95 94.2503V90.2403C105.91 89.3503 105.46 88.6603 104.61 88.1803C105.58 87.9803 106.07 87.4903 106.07 86.7203V83.3203H104.98V84.0503L104.97 84.0603ZM104.97 86.9103C104.97 87.4003 104.73 87.8203 104.24 88.1803C104.6 88.5403 104.79 89.0703 104.79 89.7603V94.2503C104.87 94.7803 104.53 95.1803 103.76 95.4603V84.6603H104.97V86.9103Z" fill="#D8B167"/>
<path d="M113.39 94.8101L113.35 94.7801C112.06 93.6901 111.33 92.1001 111.2 90.0601L112.59 88.3501L112.61 88.3201L112.27 87.6801L110.51 89.9501C110.48 89.4301 110.22 88.9501 109.73 88.5501L109.52 88.3201L110.37 86.9201H112.25V86.1401H107.51V86.9201H109.14C108.71 88.3401 107.83 89.7901 106.52 91.2101L106.43 91.3101H106.95L106.97 91.2901C107.8 90.4801 108.6 89.5801 109.34 88.6301C109.49 88.9001 109.59 89.2301 109.64 89.6001H108.69V89.6501C108.39 91.4901 107.64 93.0501 106.44 94.2701L106.35 94.3701H106.87L106.89 94.3501C107.72 93.5301 108.33 92.7801 108.73 92.1301C108.41 94.3901 107.62 96.0701 106.37 97.1201L106.25 97.2201H106.87L106.89 97.2001C108.33 95.7301 109.26 94.1801 109.65 92.6001V95.9101C109.81 96.7701 109.36 97.4301 108.27 97.9101L108.22 97.9301L108.29 98.1601L108.87 98.0101H108.88C108.99 97.9401 109.08 97.9201 109.13 97.9501C109.17 97.9701 109.19 98.0201 109.2 98.1001V98.1901L109.28 98.1501C110.15 97.6601 110.58 96.9201 110.56 95.9801V90.8801L110.9 90.4801C111.1 93.9801 111.77 96.1601 112.89 96.9601L112.94 96.9901L113.02 96.8601V96.8401C112.91 96.1501 113.03 95.4901 113.37 94.8801L113.39 94.8401V94.8101ZM109.64 90.2401V91.7101H108.95C108.95 91.7101 108.99 91.6401 109.02 91.5901C109.28 91.0901 109.48 90.6401 109.64 90.2301V90.2401Z" fill="#D8B167"/>
<path d="M112.75 86.2703L112.8 86.2903L112.94 86.2003L112.92 86.1303C112.81 85.7903 112.86 85.5303 113.08 85.3403L113.2 85.2303L113.04 85.1803C111.92 84.8003 111.15 84.1003 110.74 83.1103L110.72 83.0503H110.48V83.1503C110.64 84.6003 111.4 85.6503 112.75 86.2703Z" fill="#D8B167"/>
<path d="M106.96 86.1804C107.06 86.1004 107.22 85.9704 107.43 85.8104C108.57 84.9404 109.26 84.1004 109.49 83.3104L109.52 83.1904H108.28V83.2704C108.15 84.2804 107.59 85.2104 106.61 86.0304L106.41 86.2004H106.93L106.96 86.1804Z" fill="#D8B167"/>
<path d="M43.33 87.8499C43.57 87.6599 43.81 87.1199 44.08 86.4899C44.33 85.9299 44.61 85.2899 44.89 84.9399H45.08C45.14 85.1399 45.2199 85.4699 45.2999 85.8399C45.4799 86.6299 45.7 87.6099 45.97 88.0299L46.04 88.1399L46.1199 88.0399C46.4499 87.6499 46.6799 87.3199 46.7999 87.0699L46.84 86.9999L46.77 86.9499C46.57 86.8099 46.34 86.2999 46.14 85.8599C45.98 85.4999 45.82 85.1499 45.66 84.9399H48.02V84.1699H45.4299C45.5999 83.9099 45.75 83.5999 45.89 83.2399L45.9399 83.1099H44.2599V83.1999C44.1699 84.5099 43.6299 86.8499 42.7599 87.6999L42.6 87.8599H43.29L43.3199 87.8399L43.33 87.8499Z" fill="#D8B167"/>
<path d="M47.48 87.8701H48.17L48.2 87.8501C48.44 87.6601 48.68 87.1201 48.95 86.4901C49.2 85.9301 49.48 85.2901 49.76 84.9401H49.95C50.22 85.6001 51.36 87.5001 51.7 88.0301L51.77 88.1401L51.85 88.0401C52.18 87.6501 52.41 87.3201 52.53 87.0701L52.57 87.0001L52.5 86.9501C52.29 86.8001 51.88 86.3401 51.48 85.8901C51.14 85.5101 50.82 85.1501 50.58 84.9301H52.9V84.1601H50.31C50.48 83.9001 50.63 83.5901 50.77 83.2301L50.82 83.1001H49.14V83.1901C49.05 84.5001 48.51 86.8401 47.64 87.6901L47.48 87.8501V87.8701Z" fill="#D8B167"/>
<path d="M47.58 94.8103V94.6903C47.01 95.0103 46.4499 95.2603 45.8799 95.4203V89.7403H47.34V89.0703H43.21V89.7403H44.79V95.6603C44.22 95.7403 43.58 95.7203 42.85 95.6003C43.21 96.0903 43.25 96.6303 42.97 97.2403C44.83 96.7503 46.37 95.9503 47.58 94.8103Z" fill="#D8B167"/>
<path d="M52.7399 95.9798V94.2798H52.6199L52.3799 96.3999C52.3799 96.5599 52.2599 96.6398 52.0199 96.6398C51.7799 96.6798 51.6799 96.5999 51.7199 96.3999V88.5898H50.5699V89.0099H49.0499V88.5898H47.8999V94.6998C47.9399 96.1998 47.4299 97.3099 46.3799 98.0399H46.8699C46.8699 98.0399 46.9899 97.9398 47.1099 97.8598C48.1999 96.7698 48.8299 95.1199 48.9899 94.4299C49.1499 94.9599 49.4399 95.5398 49.8399 96.1898C50.0799 95.7398 50.2399 95.3599 50.3299 95.0399C49.7999 94.6399 49.3599 94.3099 48.9899 94.0699C49.0299 93.8699 49.0499 90.1298 49.0499 89.6898H50.5699V97.0798C50.4899 97.6098 50.7899 97.8498 51.4799 97.8098H52.3299C52.6899 97.8498 52.8999 97.6699 52.9399 97.2599L52.9999 95.9798H52.7599H52.7399Z" fill="#D8B167"/>
<path d="M59.64 84.7303H57.39V84.1504H59.64V83.4604H61.1C61.1 85.2704 60.1699 87.0004 58.3199 88.6504H59.91V88.0704H61.2299C61.2299 91.2604 60.74 93.5304 59.77 94.8704C60.17 95.4504 60.7799 95.7704 61.6199 95.8504H68.6299C68.0599 96.2704 67.9699 96.6604 68.3699 97.0004H61.7599C60.6599 96.9604 59.7999 96.5004 59.1799 95.6204C58.5599 96.3104 58.03 96.8503 57.59 97.2303H57.0599C57.7199 96.5403 58.27 95.8104 58.71 95.0404C58.22 93.8904 57.9599 92.1804 57.9199 89.9104H57.9899C58.0299 90.1004 58.1399 90.5304 58.3199 91.1804C58.5399 92.1404 58.8499 93.1003 59.2499 94.0603C59.6499 93.1403 59.87 92.1003 59.91 90.9503V89.2204H58.3199C58.0999 89.2204 57.86 89.3204 57.59 89.5104L57.52 89.5704V88.6504C58.71 87.8804 59.42 86.5703 59.64 84.7303ZM61.3599 86.5704H63.6099V85.1904H61.89V84.6104H63.6099V83.1104H64.9299V84.6104H66.2499V84.1504H67.5699V86.5704H68.6299V87.1504H67.5699V89.6904H66.2499V89.1104H64.9299V90.7204H67.4399V91.3004H64.9299V92.8004H67.84V93.3804H64.9299V95.5104H63.6099V93.3804H61.2299V92.8004H63.6099V91.3004H61.7599V90.7204H63.6099V89.1104H61.89V88.5303H63.6099V87.1504H61.3599V86.5704ZM64.9299 85.1904V86.5704H66.2499V85.1904H64.9299ZM64.9299 87.1504V88.5303H66.2499V87.1504H64.9299Z" fill="#D8B167"/>
</svg>
