<svg width="214" height="79" viewBox="0 0 214 79" fill="none" xmlns="http://www.w3.org/2000/svg">
<path d="M9.53027 18.6904L9.5603 18.6604C13.0903 19.5504 14.2002 21.2004 14.2002 22.4204C14.2002 23.1804 13.7204 23.7704 13.1204 23.7704C12.8404 23.7704 12.5202 23.6504 12.2402 23.3704C11.9602 21.9004 10.7003 20.1604 9.54028 19.0904V27.9004C9.54028 27.9604 9.23031 28.7004 7.32031 28.7004V20.6204C5.90031 22.8804 4.05035 24.8404 1.86035 26.4304L1.52026 25.9704C3.77026 23.5204 5.53033 20.2204 6.59033 16.9104H2.15015L1.98022 16.2104H7.33032V12.1704H1.78027L1.61035 11.4704H9.52026C10.0303 9.66043 10.5701 7.19042 10.8901 5.38042L14.1104 6.30043C14.0204 6.67043 13.7403 6.82043 13.0903 6.79043C12.3803 8.14043 11.2702 10.0004 10.2202 11.4704H12.1802L13.4602 9.70042L15.9602 11.5704C15.7302 12.0004 15.3904 12.1804 14.6204 12.1804H10.4102C10.3002 12.3304 10.0703 12.4604 9.5603 12.5204V16.2204H11.8704L13.1204 14.3804L15.4802 16.3104C15.2802 16.7404 14.9402 16.9204 14.1702 16.9204H9.5603V18.6904H9.53027ZM2.27026 5.11043L2.10034 4.41043H7.3103V0.19043L10.7202 0.500427C10.6902 0.960427 10.4103 1.14043 9.55029 1.30043V4.42043H11.5103L12.7903 2.58043L15.2402 4.51043C15.0102 4.94043 14.7001 5.12043 13.9001 5.12043H2.26025L2.27026 5.11043ZM4.35034 5.48043C6.46034 6.92043 7.14014 8.42043 7.14014 9.55043C7.14014 10.5904 6.51035 11.3204 5.86035 11.3204C5.55035 11.3204 5.21017 11.1404 4.92017 10.7104C4.95017 10.5004 4.9502 10.2504 4.9502 10.0104C4.9502 8.54043 4.55025 6.80043 4.01025 5.64043L4.35034 5.49043V5.48043ZM25.8103 9.06042L28.5403 11.2304C28.3103 11.6604 27.9402 11.8404 27.1702 11.8404H24.8604V27.9604C24.8604 28.1104 24.1202 28.6904 22.9502 28.6904H22.5803V11.8304H18.8203V12.8704C18.8203 18.4404 18.1703 24.6204 12.0803 28.6604L11.7102 28.2904C15.9202 24.0404 16.5803 18.6504 16.5803 12.8404V2.65043L19.1401 3.57043C21.4501 2.59043 23.9203 1.21042 25.2603 0.200424L27.9102 2.49043C27.7702 2.64043 27.5403 2.70042 27.2603 2.70042C27.0303 2.70042 26.7502 2.67043 26.4102 2.55043C24.5302 3.22043 21.5703 3.99043 18.8403 4.39043V11.1504H24.3303L25.8103 9.04043V9.06042Z" fill="white"/>
<path d="M52.5002 2.05053L55.2903 4.28053C55.1203 4.52053 54.6403 4.80052 54.0703 4.92052V27.1005C54.0703 27.1005 53.4402 27.9605 51.7102 27.9605V25.3305H38.3604V27.4105C38.3604 27.4105 38.1903 28.4505 36.0503 28.4505V2.35052L38.5803 3.57053H51.4102L52.4902 2.04053L52.5002 2.05053ZM51.7002 4.25053H38.3503V13.9205H51.7002V4.25053ZM38.3503 24.6605H51.7002V14.5905H38.3503V24.6605Z" fill="white"/>
<path d="M75.7302 4.71033C75.5902 4.92033 75.4201 5.02033 75.1301 5.02033C74.9901 5.02033 74.8203 4.99034 74.5903 4.93034C73.3703 6.31034 71.4601 8.11033 69.6401 9.49033C70.7801 10.3503 71.2102 11.3003 71.2102 12.0603C71.2102 12.8203 70.7802 13.3503 70.1902 13.3503C69.9602 13.3503 69.6802 13.2903 69.4202 13.1103C68.5902 11.3403 66.4602 9.22034 64.7002 8.12034L64.8403 7.78033C66.6903 8.02033 68.0603 8.51033 69.0203 9.06033C70.0403 7.59033 71.1002 5.73033 71.9202 4.13033C68.7002 4.41033 65.4003 4.62034 62.2703 4.68034L62.2102 4.13033C69.4402 3.33033 78.6903 1.59033 83.5503 0.090332L86.0303 2.72034C85.8903 2.84034 85.7202 2.90034 85.4602 2.90034C85.1802 2.90034 84.8103 2.81033 84.3503 2.59033C81.5003 3.08033 77.9802 3.54034 74.2502 3.91034L75.7302 4.71033ZM71.6003 21.1703C71.4903 21.3803 71.3202 21.5403 70.9702 21.5403C70.8302 21.5403 70.6903 21.5103 70.5103 21.4803C68.8003 23.5903 65.7303 26.1903 62.5703 27.8103L62.2903 27.3203C64.9103 25.2403 67.5302 21.9003 68.7502 19.4603L71.6003 21.1703ZM81.7603 7.92033C81.6503 8.07033 81.4803 8.16034 81.2803 8.16034C81.0803 8.16034 80.8203 8.10033 80.5403 7.95033C78.3203 10.3103 74.8803 13.3303 71.5803 15.7203C75.0203 15.6603 79.0402 15.5703 83.2502 15.4403C82.0802 14.3703 80.7703 13.3903 79.5803 12.7503L79.6902 12.3803C85.7502 13.3603 87.6602 16.0503 87.6602 17.7003C87.6602 18.4603 87.2601 18.9803 86.6401 18.9803C86.4101 18.9803 86.1604 18.9203 85.8704 18.7403C85.4704 17.9103 84.8203 17.0603 84.0203 16.2003C81.8603 16.4803 79.3201 16.7503 76.3901 17.0603V27.9503C76.3901 28.1003 75.6202 28.6803 74.4502 28.6803H74.0503V17.3003C71.2603 17.5503 68.1303 17.8503 64.6003 18.1603C64.4003 18.5303 64.0903 18.7403 63.8003 18.8003L62.4102 15.8003C64.7402 15.8303 67.7003 15.8003 70.3503 15.7403C73.3703 12.7103 76.7802 8.64034 78.9202 5.64034L81.7703 7.90034L81.7603 7.92033ZM79.3403 19.7303C85.3703 21.5003 87.2502 24.4403 87.2502 26.1903C87.2502 27.0503 86.7902 27.6003 86.1702 27.6003C85.9102 27.6003 85.6003 27.5103 85.2903 27.2603C84.3503 24.7803 81.5101 21.6903 79.1401 20.0403L79.3403 19.7303Z" fill="white"/>
<path d="M97.8103 5.38045V12.3204C97.8103 17.3705 97.5801 24.0705 93.4001 28.6905L93.0002 28.4204C95.3902 23.6504 95.5603 17.7405 95.5603 12.3605V3.55045L98.2102 4.68045H105.78V0.210449L109.34 0.550453C109.28 1.01045 108.97 1.22045 108.03 1.38045V4.68045H115.29L116.77 2.60045L119.53 4.77045C119.3 5.20045 118.96 5.38045 118.14 5.38045H97.8203H97.8103ZM119.52 14.8605C119.29 15.2905 118.95 15.4405 118.18 15.4405H112.92V22.0805H115.05L116.39 20.1805L118.89 22.1704C118.63 22.6004 118.32 22.7804 117.55 22.7804H105.91L105.74 22.0805H110.75V15.4405H106.6L107.03 15.8404C106.83 16.1204 106.55 16.2104 105.95 16.2704C105.41 18.9304 104.56 21.3504 103.1 23.4604C105.18 25.0804 108.05 25.4504 112.04 25.4504C113.75 25.4504 117.67 25.4504 119.52 25.3904V25.8204C118.72 25.9704 118.3 26.7705 118.27 27.7505H111.9C107.46 27.7505 104.42 27.0805 102.28 24.5405C100.86 26.2205 99.0103 27.6004 96.5303 28.6704L96.3604 28.1805C98.5504 26.8605 100.14 25.1505 101.28 23.1605C100.57 21.9405 99.9702 20.4405 99.4602 18.5405L99.8604 18.3305C100.4 19.9205 101.06 21.1805 101.82 22.1505C102.73 20.2205 103.33 18.0805 103.67 15.7605H101.48L101.02 16.9504C100.76 17.0404 100.48 17.0704 100.17 17.0704C99.8002 17.0704 99.3703 17.0105 98.8303 16.8305C99.8003 14.4105 100.88 11.2305 101.53 9.12045H98.2002L98.0002 8.45045H101.44L102.55 7.13045L104.97 9.30045C104.74 9.55045 104.29 9.70045 103.66 9.76045C103.2 11.0505 102.46 13.1905 101.72 15.0805H103.46L104.74 13.7004L105.88 14.7704H110.75V9.81045C108.99 10.0804 107.14 10.3304 105.4 10.4504L105.26 9.93045C108.93 9.13045 113.4 7.60045 115.68 6.38045L117.93 8.58045C117.79 8.70045 117.59 8.76045 117.36 8.76045C117.1 8.76045 116.82 8.70045 116.48 8.55045C115.48 8.83045 114.26 9.13045 112.92 9.41045V14.7605H115.74L117.05 12.8605L119.53 14.8504L119.52 14.8605Z" fill="white"/>
<path d="M147.5 0.860352L150.2 3.00035C150 3.28035 149.55 3.52035 148.98 3.64035V27.4704C148.98 27.5304 148.41 28.3304 146.73 28.3304V26.6204H127.78V27.6904C127.78 27.7504 127.61 28.7003 125.59 28.7003V1.14035L128.01 2.33035H146.45L147.5 0.860352ZM127.78 25.9503H146.73V3.00035H127.78V25.9503ZM143.49 8.05035L145.82 9.76035C145.59 10.2204 145.25 10.3704 144.51 10.3704H128.97L128.8 9.67035H136.14V7.19035H130.59L130.42 6.52035H136.14V3.83035L139.24 4.14035C139.21 4.51035 138.98 4.66035 138.24 4.78035V6.52035H140.92L142.09 4.93035L144.34 6.61035C144.11 7.04035 143.77 7.19035 143.06 7.19035H138.25V9.67035H142.29L143.49 8.05035ZM143.32 16.7703L143.38 16.6804L145.26 18.4503C145.17 18.5703 145.06 18.6303 144.89 18.6303C144.75 18.6303 144.58 18.6004 144.35 18.5104C143.72 18.9404 142.7 19.5804 141.85 20.0704C142.62 20.3804 144.89 21.3603 144.89 22.9503C144.89 23.4703 144.61 23.8403 144.18 23.8403C143.92 23.8403 143.61 23.7204 143.27 23.4104C142.36 22.1204 140.37 20.4703 138.26 19.5903V24.2403C138.26 24.4203 137.58 24.9704 136.5 24.9704H136.16V19.1303C134.34 21.0903 131.98 22.7104 129.3 23.9004L129.02 23.3803C131.67 21.7003 133.89 19.4003 135.37 16.9203H133.15V17.5303C133.15 17.5903 132.81 18.2604 131.16 18.2604V11.4704L133.29 12.4804H141.09L141.89 11.3503L144.25 13.0903C144.11 13.2703 143.77 13.4904 143.34 13.5504V16.7604L143.32 16.7703ZM133.13 16.2504H141.3V13.1604H133.13V16.2504ZM138.25 16.9203V19.0903C139.3 19.2703 140.27 19.5204 141.15 19.8204C141.63 19.2404 142.17 18.4703 142.66 17.7403C142.12 17.9803 141.75 17.9804 141.29 17.9804V16.9104H138.24L138.25 16.9203Z" fill="white"/>
<path d="M158 16.0002V11.0702C157.46 12.5702 156.61 14.0102 155.18 15.1702L154.84 14.8302C156.63 11.8602 156.75 8.31018 156.75 5.22018V0.810173L159.23 1.88017H164.24L165.15 0.630173L167.77 2.59017C167.6 2.80017 167.12 3.05017 166.6 3.17017V6.78017C166.6 6.84017 165.92 7.42017 164.52 7.42017V6.44018H158.8C158.77 7.08018 158.74 7.76017 158.63 8.46017L160.39 9.26018H164.49L165.37 8.07018L167.87 9.94018C167.7 10.1502 167.3 10.3702 166.82 10.4902V14.7402C166.82 14.8002 166.25 15.4402 164.74 15.4402V13.9102H160.02V15.2902C160.02 15.4702 159.37 15.9902 158.31 15.9902H158V16.0002ZM181.65 7.83018C181.42 8.26018 181.11 8.41018 180.34 8.41018H175.3V11.0102H177.49L178.71 9.33018L181.04 11.1002C180.81 11.5302 180.5 11.7102 179.73 11.7102H175.29V14.9802C175.29 14.9802 175.23 15.0702 175.15 15.1302L176.49 16.6002C176.38 16.7202 176.18 16.7802 175.95 16.7802C175.69 16.7802 175.35 16.6902 174.95 16.4702C173.36 16.7102 171.51 16.9002 169.51 17.0802V19.5302H175.4L176.77 17.7302L179.42 19.6302C179.19 20.0602 178.85 20.2102 178.08 20.2102H169.51V22.6602H177.34L178.76 20.7902L181.44 22.7502C181.24 23.1802 180.9 23.3602 180.1 23.3602H169.51V25.5602C169.51 27.3002 169.03 28.4402 166.01 28.7102C166.01 26.8102 164.84 26.6002 162.6 26.3802V25.9802H166.67C167.1 25.9802 167.24 25.8602 167.24 25.5202V23.3502H155.34L155.14 22.6502H167.23V20.2002H157.55L157.38 19.5302H167.23V17.2402C164.56 17.4202 161.77 17.5202 159.15 17.4802L159.06 16.9002C163.73 16.5002 169.42 15.5202 173.09 14.5402V11.6902H168.34L168.17 10.9902H173.09V8.39017H167.63L167.46 7.72018H171.47C171.27 7.66018 171.04 7.48017 170.87 7.20017C170.96 6.22017 170.61 4.87018 170.16 4.08018L170.44 3.90018C172.29 4.70018 172.92 5.71018 172.92 6.50018C172.92 7.11018 172.55 7.57018 172.09 7.72018H175.42C175.73 6.56018 176.05 5.00018 176.25 3.86018L179.3 4.72018C179.21 5.06018 178.93 5.18018 178.25 5.15018C177.77 5.91018 176.94 6.92018 176.2 7.72018H178.02L179.24 6.04018L181.63 7.81017L181.65 7.83018ZM164.52 2.60017H158.83V5.75018H164.52V2.60017ZM164.75 9.97018H160.03V13.2402H164.75V9.97018ZM178.21 1.53017L180.57 3.30018C180.34 3.73018 180.03 3.88017 179.26 3.88017H168.5L168.33 3.21017H173.11V0.180176L176.5 0.490173C176.44 0.950173 176.19 1.13018 175.3 1.29018V3.22018H176.98L178.2 1.54018L178.21 1.53017Z" fill="white"/>
<path d="M200.71 5.97041L201.73 4.41042L203.75 6.03041C203.52 6.49041 203.21 6.64041 202.47 6.64041H200.14V9.79041C200.14 9.91041 199.74 10.1904 199.26 10.3704L201.17 11.8104C200.94 12.2404 200.63 12.3904 199.89 12.3904H195V14.4704H199.18L200.4 12.8204L202.7 14.5604C202.47 14.9904 202.16 15.1404 201.39 15.1404H186.22L186.08 14.4704H192.88V12.3904H187.47L187.27 11.6904H192.88V9.61041H188.16L187.96 8.94041H192.88V6.65041H186.22L186.05 5.98042H192.88V3.69041H188.38L188.18 3.02041H192.88V0.17041L196.18 0.510414C196.15 0.940414 195.87 1.12041 194.98 1.28041V3.02041H197.83L198.71 1.80042L201.21 3.67041C201.04 3.88041 200.61 4.13041 200.13 4.22041V5.99041H200.7L200.71 5.97041ZM202.65 25.3404C199.35 26.1104 194.71 26.9604 188.11 28.0304C187.94 28.4304 187.65 28.6104 187.34 28.6704L186.12 25.6104C188.99 25.5804 195.62 25.2404 202.63 24.8504L202.66 25.3404H202.65ZM200.32 23.4404C200.29 23.6204 199.24 24.1104 198.58 24.1104H198.24V23.2804H189.87V23.9504C189.87 24.1004 189.22 24.6204 188.16 24.6204H187.85V15.9604L190.24 17.0304H197.95L198.86 15.7804L201.42 17.7104C201.25 17.9504 200.82 18.1704 200.31 18.2904V23.4304L200.32 23.4404ZM192.95 17.7204H189.88V19.7704H192.95V17.7204ZM189.88 20.4404V22.5804H192.95V20.4404H189.88ZM198.25 17.7204H194.95V19.7704H198.25V17.7204ZM194.95 22.5804H198.25V20.4404H194.95V22.5804ZM195.01 3.67041V5.96041H198.11V3.67041H195.01ZM198.11 8.93041V6.64041H195.01V8.93041H198.11ZM197.97 11.6804L198.82 10.5204C198.68 10.5504 198.62 10.5504 198.11 10.5504V9.60041H195.01V11.6804H197.97ZM207.08 4.25041C207.02 4.68041 206.77 4.89041 205.94 5.01041V20.8904C205.94 20.9504 205.63 21.6204 203.86 21.6204V3.97041L207.08 4.25041ZM209.04 0.760414L212.45 1.07041C212.39 1.53041 212.25 1.77041 211.2 1.93041V25.2404C211.2 27.0504 210.8 28.3604 208.01 28.7004C208.01 26.8604 207.18 26.5304 205.11 26.3104V25.8504H208.47C208.9 25.8504 209.04 25.6704 209.04 25.2404V0.760414Z" fill="white"/>
<path d="M24.3604 52.4604L27.3503 54.7204C27.1203 55.1504 26.8102 55.3304 25.9802 55.3304H16.2803C16.2203 55.7304 16.0002 55.9404 15.2302 56.0304V60.3704H21.5503L22.5703 58.9304L25.3901 61.1004C25.1901 61.3404 24.7602 61.6204 24.1702 61.7104V71.1004C24.1702 72.7504 23.8602 73.8504 20.7302 74.2204C20.7302 72.4804 19.8202 72.0804 17.7102 71.8604V71.4604H21.2703C21.7003 71.4604 21.8403 71.3704 21.8403 71.0004V61.0304H15.2402V76.9104C15.2402 77.0004 14.8703 77.8904 12.8503 77.8904V61.0304H6.25024V73.3304C6.25024 73.3904 5.97017 74.2504 3.92017 74.2504V59.2004L6.4502 60.3604H12.8503V55.3104H0.980225L0.810303 54.6104H12.8503V49.3804L16.5203 49.7204C16.4903 50.2104 16.1802 50.4204 15.2402 50.5504V54.6204H22.7803L24.3704 52.4504L24.3604 52.4604Z" fill="white"/>
<path d="M58.4802 56.4704C58.2502 56.9004 57.9104 57.0804 57.1104 57.0804H56.3704C55.6304 62.3704 54.3203 66.7804 51.8503 70.3304C53.5603 72.5004 55.7803 74.2804 58.5903 75.5304L58.5002 75.8404C57.3302 76.0804 56.5903 76.8204 56.2803 78.0404C53.7803 76.5104 51.9002 74.4904 50.4702 72.0404C48.1902 74.6104 45.1202 76.6004 40.9402 78.0404L40.8003 77.5504C44.7603 75.7404 47.5703 73.3604 49.5603 70.3304C48.2503 67.5204 47.4301 64.2704 46.8801 60.6604C46.0301 62.3704 45.0302 63.8404 43.9202 65.0404L43.4902 64.7604C43.9202 64.0304 44.3202 63.1404 44.7102 62.1604C44.5102 62.1904 44.2802 62.2204 44.0002 62.2204H40.1602V71.1804C42.1502 70.8404 44.3103 70.5104 46.5103 70.1404L46.5703 70.6004C43.6103 71.7304 39.4604 73.1704 33.6204 74.9404C33.4504 75.3104 33.1601 75.5804 32.8801 75.6704L31.5703 72.4304L33.3103 72.2204V58.1504L36.3303 58.4604C36.3003 58.8304 36.0503 58.9804 35.3303 59.1004V71.9204L37.9802 71.5204V53.1604H32.1204L31.9502 52.4904H42.0503L43.5002 50.5004L46.1802 52.5504C45.9502 52.9804 45.6103 53.1604 44.8403 53.1604H40.1702V61.5404H41.5903L42.9001 59.5504L45.0103 61.3204C46.1803 58.0204 47.0001 53.7304 47.4001 49.4204L50.9902 50.1204C50.9002 50.5504 50.7102 50.7604 49.9702 50.8204C49.6002 52.7804 49.1403 54.6404 48.5803 56.3904H54.2102L55.7202 54.2504L58.4802 56.4504V56.4704ZM48.3503 57.0804C48.0403 58.0004 47.7003 58.8504 47.3503 59.7104C48.0303 63.0404 49.0904 66.0104 50.6204 68.5504C52.3004 65.3404 53.2703 61.5104 53.7803 57.0804H48.3403H48.3503Z" fill="white"/>
<path d="M69.8901 64.1804C71.3101 63.8704 72.7903 63.5104 74.3003 63.1704L74.3901 63.6004C73.1901 64.2104 71.7201 64.9204 69.8901 65.7404V76.9704C69.8901 77.0604 69.5802 77.8904 67.7002 77.8904V66.7204C66.7302 67.1204 65.7103 67.5804 64.6003 68.0404C64.4903 68.4404 64.2302 68.7104 63.9202 68.8104L62.6702 65.6604C63.6902 65.5104 65.5202 65.1404 67.7102 64.6504V57.5504H65.3801C64.8701 59.6004 64.2402 61.5004 63.4402 62.9004L62.9602 62.6604C63.6102 60.0304 64.0401 55.5604 64.1301 51.6804L67.2002 52.2004C67.1402 52.6004 66.9703 52.7804 66.2603 52.8704C66.0903 54.1904 65.8303 55.5604 65.5503 56.8504H67.7102V49.4204L71.1003 49.7604C71.0403 50.1904 70.7901 50.4004 69.9001 50.4904V56.8504H70.6104L71.9502 54.7404L74.4802 56.9404C74.2502 57.3704 73.8804 57.5504 73.1104 57.5504H69.8901V64.1904V64.1804ZM87.0503 57.7604L89.7302 59.9904C89.5002 60.4204 89.1604 60.6004 88.3604 60.6004H72.4802L72.3103 59.9004H79.3403V54.7904H74.1003L73.9302 54.0904H79.3403V49.3804L82.9001 49.7204C82.8701 50.2104 82.5604 50.3904 81.6204 50.5504V54.1004H84.4402L85.8103 52.0504L88.4302 54.1904C88.2002 54.6204 87.8603 54.8004 87.0603 54.8004H81.6204V59.9104H85.6003L87.0503 57.7704V57.7604ZM85.6602 65.3504L87.0002 63.3304L89.4502 65.4404C89.2202 65.8704 88.8804 66.0504 88.1104 66.0504H84.5503V74.4604C84.5503 76.3304 84.1204 77.6104 81.1104 77.9504C81.1104 76.1404 80.1703 75.7504 77.8403 75.5304V75.0704H81.6501C82.1301 75.0704 82.2803 74.9204 82.2803 74.4904V66.0504H72.6003L72.4302 65.3504H82.2803V61.2804L85.7202 61.5604C85.6602 61.9604 85.5203 62.1704 84.5503 62.3304V65.3604H85.6602V65.3504ZM74.0503 67.3104C77.4603 68.5304 78.5503 70.3104 78.5503 71.6204C78.5503 72.6304 77.9202 73.3304 77.2102 73.3304C76.8702 73.3304 76.5302 73.1804 76.1902 72.7804C76.0502 71.0404 74.9703 68.8304 73.8003 67.5504L74.0603 67.3104H74.0503Z" fill="white"/>
<path d="M117.53 72.8102L120.4 74.9802C120.17 75.4102 119.83 75.5902 119.03 75.5902H97.9702V77.0602C97.9702 77.2702 97.2303 77.9202 96.0603 77.9202H95.6902V51.0602L98.3403 52.2202H114.93L116.41 50.2002L119.2 52.3102C118.97 52.7402 118.6 52.8902 117.83 52.8902H97.9702V74.8902H115.96L117.53 72.8102ZM107.46 72.0402C107.43 72.2202 106.44 72.6802 105.75 72.6802H105.44V71.4602H102.03V72.5302C102.03 72.5302 101.72 73.2902 100.04 73.2902V63.6502L102.15 64.6602H105.22L106.05 63.5302L108.41 65.3002C108.27 65.4802 107.93 65.7302 107.47 65.7902V72.0302L107.46 72.0402ZM102.02 70.7902H105.43V65.3402H102.02V70.7902ZM114 62.1902C114 62.2502 113.29 62.8602 111.78 62.8602V61.6402H105.26V62.2202C105.26 62.2202 104.89 63.0202 103.04 63.0202V54.6402L105.4 55.6802H111.49L112.43 54.4002L115.08 56.3902C114.91 56.6002 114.51 56.8502 114 56.9402V62.2002V62.1902ZM105.26 60.9402H111.78V56.3802H105.26V60.9402ZM117.21 72.0802C117.18 72.2602 116.13 72.7502 115.47 72.7502H115.16V71.4602H111.52V72.1002C111.52 72.1002 111.21 72.8602 109.5 72.8602V63.6502L111.66 64.6602H114.9L115.75 63.4702L118.23 65.3402C118.09 65.5202 117.69 65.7702 117.21 65.8602V72.0702V72.0802ZM111.52 70.8002H115.16V65.3502H111.52V70.8002Z" fill="white"/>
<path d="M148.64 68.5203L151.51 70.6603C151.28 71.0903 150.94 71.2703 150.14 71.2703H125.01L124.81 70.6003H147.09L148.63 68.5203H148.64ZM136.26 73.5103C136.12 73.7503 135.86 73.8503 135.46 73.8503C135.29 73.8503 135.06 73.8503 134.83 73.7903C132.64 75.3203 128.91 77.0303 125.33 77.9203L125.16 77.4903C128.26 76.0803 131.71 73.5103 133.3 71.6503L136.26 73.5203V73.5103ZM126.3 53.6903L126.13 53.0203H136.92V49.3203L140.53 49.6903C140.47 50.1503 140.19 50.3603 139.25 50.5203V53.0303H145.99L147.5 50.9803L150.37 53.0903C150.17 53.5203 149.8 53.7003 149 53.7003H139.24V56.7903H143.68L144.7 55.3503L147.52 57.5203C147.32 57.7603 146.87 58.0103 146.3 58.1303V68.3503C146.3 68.4103 145.65 69.1503 143.97 69.1503V67.8703H132.25V68.4203C132.25 68.4803 131.99 69.3403 129.94 69.3403V55.6603L132.42 56.7903H136.92V53.7003H126.31L126.3 53.6903ZM143.97 57.4803H132.25V60.1703H143.97V57.4803ZM132.25 60.8803V63.6303H143.97V60.8803H132.25ZM132.25 67.1503H143.97V64.3403H132.25V67.1503ZM140.7 72.2303C148.33 73.2703 150.43 75.4403 150.43 76.7903C150.43 77.4603 149.92 77.9203 149.26 77.9203C148.89 77.9203 148.52 77.7703 148.15 77.4603C146.81 75.9003 144.28 74.0903 140.55 72.6903L140.69 72.2303H140.7Z" fill="white"/>
<path d="M179.37 50.0806L182.07 52.2206C181.87 52.5006 181.42 52.7406 180.85 52.8606V76.6906C180.85 76.7506 180.28 77.5506 178.6 77.5506V75.8406H159.65V76.9106C159.65 76.9706 159.48 77.9206 157.46 77.9206V50.3606L159.88 51.5506H178.32L179.37 50.0806ZM159.65 75.1706H178.6V52.2206H159.65V75.1706ZM175.36 57.2706L177.69 58.9806C177.46 59.4406 177.12 59.5906 176.38 59.5906H160.84L160.67 58.8906H168.01V56.4106H162.46L162.29 55.7406H168.01V53.0506L171.11 53.3606C171.08 53.7306 170.85 53.8806 170.11 54.0006V55.7406H172.79L173.96 54.1506L176.21 55.8306C175.98 56.2606 175.64 56.4106 174.93 56.4106H170.12V58.8906H174.16L175.36 57.2706ZM175.19 65.9906L175.25 65.9006L177.13 67.6706C177.04 67.7906 176.93 67.8506 176.76 67.8506C176.62 67.8506 176.45 67.8206 176.22 67.7306C175.59 68.1606 174.57 68.8006 173.72 69.2906C174.49 69.6006 176.76 70.5806 176.76 72.1706C176.76 72.6906 176.48 73.0606 176.05 73.0606C175.79 73.0606 175.48 72.9406 175.14 72.6306C174.23 71.3406 172.24 69.6906 170.13 68.8106V73.4606C170.13 73.6406 169.45 74.1906 168.37 74.1906H168.03V68.3506C166.21 70.3106 163.85 71.9306 161.17 73.1206L160.89 72.6006C163.54 70.9206 165.76 68.6206 167.24 66.1406H165.02V66.7506C165.02 66.8106 164.68 67.4806 163.03 67.4806V60.6906L165.16 61.7006H172.96L173.76 60.5706L176.12 62.3106C175.98 62.4906 175.64 62.7106 175.21 62.7706V65.9806L175.19 65.9906ZM165 65.4706H173.17V62.3806H165V65.4706ZM170.12 66.1406V68.3106C171.17 68.4906 172.14 68.7406 173.02 69.0406C173.5 68.4606 174.04 67.6906 174.53 66.9606C173.99 67.2106 173.62 67.2106 173.16 67.2106V66.1406H170.11H170.12Z" fill="white"/>
<path d="M213.55 56.7802C213.32 57.2102 212.98 57.3902 212.21 57.3902H207.17C208.22 62.2202 210.93 67.3602 213.91 70.2102L213.88 70.4902C212.91 70.9502 211.94 71.7802 211.63 72.8802C209.35 69.4802 207.79 64.3402 206.88 59.4502V76.9502C206.88 77.0102 206.54 77.8702 204.63 77.8702V62.8502C202.89 66.8602 200.36 70.3802 197.03 73.1602L196.63 72.7002C200.24 68.6902 202.72 63.0602 203.94 57.4002H198.79V57.3702C198.62 57.4002 198.45 57.4002 198.22 57.4002H194.32V61.3202C197.73 62.6402 198.82 64.4402 198.82 65.6602C198.82 66.5502 198.28 67.1602 197.65 67.1602C197.34 67.1602 197 67.0102 196.68 66.6402C196.45 65.1102 195.4 63.0902 194.32 61.8102V77.1102C194.32 77.1702 194.04 77.9702 192.07 77.9702V64.2602C190.82 67.1402 189.14 69.7702 187.03 72.0002L186.63 71.6002C189.19 67.7402 190.93 62.5102 191.81 57.4002H187.11L186.94 56.7302H192.06V49.4502L195.5 49.7902C195.47 50.2202 195.22 50.4602 194.3 50.5502V56.7302H195.69L197.03 54.7702L199.39 56.7002H204.6V49.4502L208.04 49.7902C207.98 50.2202 207.73 50.4602 206.84 50.5502V56.7002H209.46L210.88 54.6802L213.5 56.7902L213.55 56.7802Z" fill="white"/>
</svg>
