<?xml version="1.0" encoding="utf-8"?>
<!-- Generator: Adobe Illustrator 25.2.3, SVG Export Plug-In . SVG Version: 6.00 Build 0)  -->
<svg version="1.1" id="圖層_1" xmlns="http://www.w3.org/2000/svg" xmlns:xlink="http://www.w3.org/1999/xlink" x="0px" y="0px"
	 viewBox="0 0 300 70" style="enable-background:new 0 0 300 70;" xml:space="preserve">
<style type="text/css">
	.st0{fill:#00404B;}
	.st1{fill:#C79F62;}
</style>
<path class="st0" d="M8,17.1c0.6,0.4,0.9,0.7,0.9,0.8s-0.1,0.2-0.3,0.3c-0.7-0.1-1.1-0.1-1.2-0.1c-1.5,0.8-3.9,1.4-7.1,1.7
	c0-0.2,0-0.3-0.1-0.3c2.7-0.7,4.9-1.8,6.4-3.3C6.9,16.3,7.4,16.6,8,17.1z M2.9,2H15c0.5-0.7,0.9-1,1.1-1s0.6,0.2,1.1,0.6
	S18,2.3,18,2.4c0,0.1-0.1,0.3-0.4,0.4c-0.4,0.3-0.6,0.4-0.7,0.5v1.6C17,5.5,17,5.9,17,6.1c0,0.5-0.4,0.7-1.1,0.7
	c-0.5,0-0.8-0.1-0.9-0.4V6H3.1v0.3C3,6.7,2.6,6.9,1.9,6.9c-0.4,0-0.7-0.1-0.8-0.2c0-0.8,0-1.7,0.1-2.5V2.6c0-0.7-0.1-1.1-0.2-1.2
	L2.9,2z M4.7,7.8h8.5c0.5-0.7,0.9-1,1.1-1.1c0.2,0,0.6,0.2,1.1,0.6s0.8,0.7,0.8,0.8s-0.1,0.3-0.3,0.4c-0.3,0.2-0.5,0.4-0.6,0.5v3.8
	c0.1,1.5,0.1,2.4,0.1,2.9s-0.4,0.7-1.1,0.7c-0.5,0-0.8-0.1-0.9-0.4v-0.3H4.8v0.5c-0.1,0.4-0.5,0.6-1.2,0.6c-0.4,0-0.7-0.1-0.8-0.2
	c0-1.5,0-3,0.1-4.4V9.3c0-1.2-0.1-2-0.2-2.2L4.7,7.8z M5.9,2.5H3.1v2.9h2.8C5.9,5.4,5.9,2.5,5.9,2.5z M13.5,10.1V8.4H4.9v1.7
	C4.9,10.1,13.5,10.1,13.5,10.1z M13.5,12.6v-2H4.9v2H13.5z M13.5,15.2v-2.1H4.9v2.1C4.9,15.2,13.5,15.2,13.5,15.2z M10.4,2.5H7.7
	v2.9h2.7V2.5z M16.7,18c0.3,0.2,0.4,0.5,0.4,0.9c0,0.5-0.3,0.8-0.7,0.8s-0.9-0.3-1.7-0.8c-1.4-0.8-2.9-1.5-4.5-2
	c0-0.1,0-0.3,0.1-0.3c0.9,0,2,0.1,3.2,0.2C15.1,17.1,16.3,17.5,16.7,18z M15.2,2.5h-2.9v2.9h2.9C15.2,5.4,15.2,2.5,15.2,2.5z"/>
<path class="st0" d="M38.2,4.1C38.7,4.5,39,4.8,39,5c0,0.1-0.1,0.3-0.3,0.4c-0.3,0.3-0.5,0.4-0.6,0.5V7c0.1,0.4,0.1,0.7,0.1,0.8
	c0,0.5-0.4,0.8-1.2,0.8c-0.6,0-0.9-0.1-0.9-0.4V7.8h-11c0,2.2-0.2,3.9-0.4,5.1c-0.2,1-0.5,2.2-1.2,3.4c-0.8,1.6-1.6,2.6-2.4,3.1
	c-0.1,0-0.2-0.1-0.3-0.2c0.7-1.3,1.3-2.8,1.7-4.7c0.4-1.5,0.6-4,0.6-7.5c0-2.1,0-3.4,0-3.9c0-0.4,0-0.9-0.1-1.5l2.4,1.1
	c4.7-0.5,8.2-1.2,10.7-2c1.4,1,2.2,1.6,2.2,1.7c0,0.1-0.1,0.2-0.3,0.3c-0.4,0-0.8-0.1-1.2-0.1C34.5,3,30.6,3.2,25.2,3.2v1.4h10.7
	c0.6-0.7,1-1,1.2-1C37.2,3.5,37.6,3.7,38.2,4.1z M38.4,9.6c0.9,0.8,1.3,1.2,1.3,1.4s-0.1,0.3-0.2,0.3H31c-0.1,0.8-0.2,1.5-0.3,2.1
	h4.5c0.5-0.7,0.9-1,1.2-1c0.2,0,0.5,0.2,0.9,0.5c0.6,0.5,0.9,0.8,0.9,0.9c0,0.1-0.1,0.3-0.3,0.3c-0.3,0.2-0.5,0.3-0.7,0.4
	c-0.1,1.8-0.4,3.1-0.9,3.7c-0.6,0.8-1.4,1.2-2.5,1.3c-0.2,0-0.4-0.1-0.4-0.4c0-0.4-0.3-0.7-0.7-1.1c-0.3-0.3-0.7-0.4-1-0.6
	c0-0.1,0-0.2,0.1-0.3c0.6,0.1,1.2,0.1,1.8,0.2c0.8,0,1.3-0.1,1.4-0.4c0.3-0.9,0.5-1.9,0.5-3.1h-4.9c-0.1,0.2-0.1,0.3-0.2,0.4
	c-1,2.8-3.1,4.6-6.4,5.4c0-0.1-0.1-0.1-0.2-0.3c2.4-1.1,4.1-3,4.9-5.6c0.3-0.9,0.4-1.8,0.4-2.6c-1.8,0-2.9,0.1-3.3,0.3
	c-0.1-0.4-0.3-0.7-0.5-1.1c0.7,0.1,2,0.2,3.8,0.2H32c-0.2-0.2-0.4-0.4-0.7-0.8c-0.4-0.6-0.9-1.1-1.4-1.4c0,0,0.1-0.1,0.1-0.3
	c2,0.2,3.1,0.6,3.2,1.4c0,0.3,0,0.5-0.1,0.7s-0.2,0.3-0.3,0.4h3.5c0.6-0.8,1.1-1.3,1.4-1.4c0,0,0.1,0,0.2,0
	C38.1,9.3,38.3,9.5,38.4,9.6z M25.1,7v0.3h11V5h-11C25.1,5,25.1,7,25.1,7z"/>
<path class="st0" d="M50.5,13.8l-0.4-0.4c0.8-0.7,1.2-1.3,1.2-2c0-0.1-0.1-0.2-0.3-0.2c-1-0.2-1.5-0.7-1.5-1.5c0-0.4,0.1-0.7,0.4-1
	c0.3-0.3,0.7-0.5,1.2-0.5s0.9,0.2,1.2,0.6c0.2,0.3,0.4,0.7,0.4,1.1C52.7,11.6,52,12.8,50.5,13.8z"/>
<path class="st0" d="M73.9,1.3c0,0.2-0.1,0.3-0.4,0.3c-0.4,0.2-0.6,0.3-0.6,0.4v2.7h1.7c0.7-1.1,1.1-2.3,1.3-3.4
	c1.7,0.6,2.5,1,2.5,1.2S78,2.8,77.3,2.8c-0.4,0.7-1.1,1.3-2,1.8h3.2c0.6-0.8,1-1.2,1.3-1.2c0.1,0,0.2,0.1,0.4,0.2
	c0.9,0.9,1.4,1.5,1.4,1.7c0,0.1-0.1,0.2-0.2,0.3c-0.7,0.1-1,0.1-1.1,0.2c-0.6,0.6-1.2,1.1-2,1.6c0,0-0.1-0.1-0.2-0.2
	c0.3-0.7,0.5-1.4,0.7-2.1H65.6c-0.1,1.8-0.7,2.8-1.7,2.8c-0.7,0-1-0.2-1-0.7c0-0.4,0.2-0.8,0.7-1.1c0.3-0.2,0.7-0.6,1-1.2
	c0.3-0.4,0.5-1,0.7-1.8c0.2,0,0.4,0,0.4,0c0,0.3,0.1,0.8,0.1,1.4h5.5v-2c0-0.9,0-1.7-0.1-2.2C72.9,0.8,73.9,1.1,73.9,1.3z
	 M78.8,11.6c0.6,0.4,0.9,0.7,0.9,0.9c0,0.1-0.1,0.3-0.3,0.4c-0.3,0.3-0.5,0.4-0.6,0.5v3.4c0,1.2,0.1,1.9,0.1,2.4
	c0,0.4-0.5,0.7-1.4,0.7c-0.4,0-0.6-0.1-0.6-0.4v-0.8h-10v0.7c-0.1,0.4-0.5,0.6-1.2,0.6c-0.4,0-0.7-0.1-0.8-0.2c0-1.3,0-2.6,0.1-3.8
	v-2.5c0-1.1-0.1-1.7-0.2-1.9l1.9,0.7h9.8c0.6-0.7,1-1,1.2-1C78,11.1,78.3,11.3,78.8,11.6z M68.1,1.8c0.8,0.4,1.2,0.9,1.2,1.5
	c0,0.5-0.2,0.9-0.4,1c-0.2,0.1-0.4,0.2-0.7,0.2c-0.4,0-0.6-0.3-0.7-0.9c-0.1-0.5-0.3-0.9-0.5-1.2s-0.4-0.5-0.7-0.9
	c0,0,0.1-0.1,0.2-0.2C67.2,1.4,67.7,1.5,68.1,1.8z M68.6,6.9h6.3C75.4,6.3,75.8,6,76,6s0.5,0.2,1.1,0.6c0.5,0.4,0.8,0.7,0.8,0.8
	c0,0.1-0.1,0.3-0.4,0.4c-0.3,0.3-0.5,0.4-0.6,0.5v1.3c0.1,0.5,0.1,0.8,0.1,1c0,0.5-0.4,0.7-1.1,0.7c-0.5,0-0.8-0.1-0.8-0.4v-0.4
	h-6.3v0.3c-0.1,0.4-0.5,0.6-1.2,0.6c-0.4,0-0.7-0.1-0.8-0.2c0-0.8,0-1.5,0.1-2.3V7.4c0-0.6-0.1-1-0.2-1.1L68.6,6.9z M71,14.9v-2.3
	h-4v2.3H71z M71,18v-2.5h-4V18H71z M75.1,7.5h-6.3v2.4h6.3V7.5z M72.9,14.9H77v-2.3h-4.1V14.9z M72.9,18H77v-2.5h-4.1V18z"/>
<path class="st0" d="M89.9,1.4c0,0.2-0.3,0.3-0.9,0.4c-0.2,0.5-0.4,0.9-0.5,1.3H91c0.6-0.7,0.9-1,1-1c0.2,0,0.6,0.2,1.1,0.5
	C93.7,3,94,3.3,94,3.4c0,0.1-0.2,0.3-0.5,0.4C93.2,3.9,93,4.1,93,4.2c-0.2,0.6-0.4,1.2-0.6,1.7h2.3c0.1-1.2,0.2-2.9,0.2-5.2
	c0.6,0.1,1.4,0.3,2.3,0.5C97.7,1.3,98,1.5,98,1.6s-0.1,0.3-0.3,0.3c-0.3,0.1-0.5,0.2-0.9,0.4c0,1.4-0.1,2.6-0.2,3.6h2.5
	c0.5-0.8,0.9-1.2,1.1-1.3h0.1c0.2,0,0.4,0.3,0.8,0.6c0.5,0.5,0.8,0.8,0.9,1c0,0.2-0.1,0.3-0.1,0.3h-4.7c0.2,1.2,0.7,2.3,1.4,3.2
	c0.9,1.2,2.2,2,3.8,2.4c0,0.2-0.1,0.3-0.1,0.4c-0.3,0.1-0.5,0.2-0.6,0.4c-0.2,0.2-0.4,0.4-0.4,0.7c-0.1,0.5-0.3,0.8-0.6,0.8
	c-0.6-0.2-1.4-1-2.3-2.3C97.5,10.7,97,8.9,97,6.7V6.6h-0.4c-0.1,0.5-0.1,1-0.2,1.3c-0.9,3.6-3.1,5.8-6.4,6.6l-0.2-0.3
	c2.8-1.8,4.4-4.1,4.8-7c0-0.2,0.1-0.4,0.1-0.6h-2.5c-0.8,2-1.9,3.6-3.2,4.9c-1.5,1.6-3.1,2.7-4.8,3.3c-0.1,0-0.1-0.1-0.2-0.2
	c1.9-1.4,3.4-3,4.5-4.7c1.4-2.1,2.2-4.2,2.5-6.2h-2.9c-0.2,0.5-0.4,0.9-0.7,1.3c1.4,0.4,2.1,1.2,2.1,2.2c0,0.6-0.3,0.9-1,0.9
	c-0.4,0-0.6-0.2-0.7-0.7c-0.1-0.1-0.1-0.4-0.1-0.8c0-0.3-0.1-0.5-0.2-0.8s-0.2-0.5-0.3-0.6c-0.5,0.9-1.1,1.7-1.6,2.4
	c1.3,0.4,1.9,1.2,1.9,2.2c0,0.6-0.3,0.9-0.9,0.9c-0.4,0-0.6-0.2-0.7-0.7c0-0.1-0.1-0.4-0.1-0.7s-0.1-0.5-0.2-0.8
	c-0.1-0.2-0.2-0.4-0.3-0.6c-0.5,0.6-1.1,1.1-1.7,1.5c-0.1-0.1-0.1-0.2-0.1-0.2c1.7-2.2,2.9-5.1,3.6-8.7C89.1,0.8,89.9,1.1,89.9,1.4z
	 M87.2,15c0,0.4,0.1,0.9,0.1,1.7c0,1.9-0.8,2.9-2.2,3c-0.7,0-1-0.2-1-0.7c0-0.4,0.2-0.7,0.7-1.1c0.4-0.2,0.9-0.6,1.4-1.2
	c0.3-0.4,0.6-1,0.8-1.7C87.1,15,87.2,15,87.2,15z M92.1,18.1c0,0.8-0.3,1.2-1,1.3c-0.7,0-1-0.3-1-0.9c0-0.2,0-0.5,0-1v-0.9
	c0-0.5-0.1-1-0.3-1.3c0.1,0,0.1,0,0.2-0.1C91.3,15.9,92,17,92.1,18.1z M97.3,17.6c0,0.6-0.1,1-0.3,1.3c-0.2,0.3-0.5,0.4-0.9,0.4
	c-0.3,0-0.5-0.4-0.6-1c-0.3-1.3-0.7-2.3-1.2-3l0.3-0.2C96.4,15.9,97.3,16.8,97.3,17.6z M99.8,1.6c0.8,0.4,1.1,0.9,1.1,1.4
	s-0.1,0.8-0.4,1c-0.2,0.1-0.4,0.2-0.7,0.2c-0.3,0-0.5-0.3-0.6-0.9c-0.1-0.5-0.3-0.9-0.4-1.1c-0.2-0.3-0.4-0.5-0.7-0.9
	c0,0,0.1-0.1,0.2-0.2C98.9,1.3,99.4,1.4,99.8,1.6z M102.5,17.8c0,0.6-0.1,1-0.3,1.2c-0.2,0.3-0.5,0.4-0.9,0.4s-0.7-0.4-0.8-1.2
	c-0.4-1.4-0.9-2.5-1.7-3.3l0.3-0.2C101.3,15.9,102.4,16.9,102.5,17.8z"/>
<path class="st0" d="M113,17.1c0.6,0.4,0.9,0.7,0.9,0.8s-0.1,0.2-0.3,0.3c-0.7-0.1-1.1-0.1-1.2-0.1c-1.5,0.8-3.9,1.4-7.1,1.7
	c0-0.2,0-0.3-0.1-0.3c2.7-0.7,4.9-1.8,6.4-3.3C111.9,16.3,112.4,16.6,113,17.1z M107.9,2H120c0.5-0.7,0.9-1,1.1-1s0.6,0.2,1.1,0.6
	s0.8,0.7,0.8,0.8c0,0.1-0.1,0.3-0.4,0.4c-0.4,0.3-0.6,0.4-0.7,0.5v1.6c0.1,0.6,0.1,1,0.1,1.2c0,0.5-0.4,0.7-1.1,0.7
	c-0.5,0-0.8-0.1-0.9-0.4V6h-12.2v0.3c-0.1,0.4-0.5,0.6-1.2,0.6c-0.4,0-0.7-0.1-0.8-0.2c0-0.8,0-1.7,0.1-2.5V2.6
	c0-0.7-0.1-1.1-0.2-1.2L107.9,2z M109.7,7.8h8.5c0.5-0.7,0.9-1,1.1-1.1c0.2,0,0.6,0.2,1.1,0.6s0.8,0.7,0.8,0.8s-0.1,0.3-0.3,0.4
	c-0.3,0.2-0.5,0.4-0.6,0.5v3.8c0.1,1.5,0.1,2.4,0.1,2.9s-0.4,0.7-1.1,0.7c-0.5,0-0.8-0.1-0.9-0.4v-0.3h-8.6v0.5
	c-0.1,0.4-0.5,0.6-1.2,0.6c-0.4,0-0.7-0.1-0.8-0.2c0-1.5,0-3,0.1-4.4V9.3c0-1.2-0.1-2-0.2-2.2L109.7,7.8z M110.9,2.5h-2.8v2.9h2.8
	V2.5z M118.5,10.1V8.4h-8.6v1.7C109.9,10.1,118.5,10.1,118.5,10.1z M118.5,12.6v-2h-8.6v2H118.5z M118.5,15.2v-2.1h-8.6v2.1
	C109.9,15.2,118.5,15.2,118.5,15.2z M115.4,2.5h-2.7v2.9h2.7V2.5z M121.7,18c0.3,0.2,0.4,0.5,0.4,0.9c0,0.5-0.3,0.8-0.7,0.8
	s-0.9-0.3-1.7-0.8c-1.4-0.8-2.9-1.5-4.5-2c0-0.1,0-0.3,0.1-0.3c0.9,0,2,0.1,3.2,0.2C120.1,17.1,121.3,17.5,121.7,18z M120.2,2.5
	h-2.9v2.9h2.9V2.5z"/>
<path class="st0" d="M143.4,6.4c0,0.2-0.5,0.3-1.4,0.3c-1.3,1.6-2.9,2.8-4.6,3.9c0.6,1.3,1.4,2.5,2.4,3.4c1.3,1.4,2.9,2.5,4.9,3.3
	c0,0.1,0,0.3-0.1,0.4c-0.3,0-0.6,0.1-0.9,0.3c-0.2,0.1-0.4,0.3-0.5,0.6c-0.2,0.4-0.4,0.6-0.6,0.6c-0.4-0.1-1.1-0.7-2.1-1.6
	c-2.5-2.3-4-5.4-4.5-9.4c-0.9,6.1-4.2,9.9-9.9,11.4c-0.1,0-0.1-0.1-0.2-0.2c5.4-2.9,8.2-8,8.3-15.4c-0.1-1.6-0.2-2.8-0.3-3.5
	c2,0.3,3,0.5,3,0.8c0,0.2-0.2,0.3-0.6,0.4c0,1,0,2-0.1,2.9c0,0.5,0,1,0,1.4c0.1,1.5,0.5,2.8,0.9,4c1.4-1.5,2.6-3.3,3.3-5.4
	C142.4,5.6,143.4,6.2,143.4,6.4z M130.9,5c0,0.5,0.1,1.2,0.1,2.2c0,3.1-0.9,4.7-2.7,4.8c-0.8,0-1.3-0.3-1.3-0.8s0.3-0.9,0.8-1.4
	c0.5-0.3,1-0.9,1.7-1.9c0.4-0.7,0.8-1.6,1-2.8C130.7,5,130.9,5,130.9,5z"/>
<path class="st0" d="M163.6,2.1c0.9,0.8,1.3,1.2,1.3,1.4s-0.1,0.3-0.2,0.3h-7.9v2.1h3.5c0.5-0.6,0.9-0.9,1.1-0.9
	c0.2,0,0.6,0.2,1.1,0.6s0.8,0.7,0.8,0.8s-0.1,0.3-0.3,0.4c-0.3,0.3-0.5,0.4-0.5,0.5v3.2c0.1,1.3,0.1,2.1,0.1,2.4
	c0,0.5-0.4,0.7-1.1,0.7c-0.5,0-0.8-0.1-0.9-0.4v-0.5h-3.8v1.6c0,0.3,0,0.7,0,0.9h5.2c0.7-0.9,1.2-1.4,1.5-1.6c0,0,0.1,0,0.2,0
	c0.2,0.1,0.4,0.2,0.6,0.4c0.9,0.8,1.4,1.3,1.4,1.6c0,0.2-0.1,0.3-0.2,0.3h-8.7c0,1.6,0,2.7,0.1,3.5c0,0.4-0.5,0.5-1.4,0.5
	c-0.5,0-0.7-0.1-0.7-0.4c0-0.7,0-1.8,0.1-3.6h-3.3c-2.5,0-4.1,0.1-4.7,0.2c-0.1-0.4-0.3-0.7-0.5-1.1c1,0.1,2.8,0.2,5.4,0.2h3.1v-2.5
	h-3.6v0.5c-0.1,0.4-0.5,0.6-1.2,0.6c-0.4,0-0.7-0.1-0.8-0.2c0-1.3,0-2.6,0.1-3.9V7.1c0-1.1-0.1-1.7-0.1-2l1.8,0.7h3.8V3.7h-3
	c-2.4,0-3.8,0.1-4.4,0.2c-0.1-0.4-0.3-0.7-0.5-1.1c1,0.1,2.6,0.2,5,0.2h2.9V2.4c0-0.7-0.1-1.3-0.2-2c0.7,0.1,1.5,0.2,2.3,0.3
	c0.6,0.1,0.9,0.3,0.9,0.4s-0.1,0.2-0.4,0.3c-0.4,0.1-0.6,0.3-0.6,0.3v1.2h4.7c0.6-0.8,1.1-1.3,1.4-1.4c0,0,0.1,0,0.2,0
	C163.3,1.9,163.4,2,163.6,2.1z M154.9,8.9V6.5h-3.6v2.4H154.9z M154.9,12.3V9.5h-3.6v2.8H154.9z M160.7,8.9V6.5h-3.8v2.4H160.7z
	 M160.7,12.3V9.5h-3.8v2.8H160.7z"/>
<path class="st0" d="M175.8,12.6c0,0.2-0.2,0.3-0.6,0.3c-0.3,0.1-0.4,0.1-0.4,0.1c-0.5,1.2-1.1,2.4-1.9,3.4c1.4-0.2,2.6-0.5,3.6-0.9
	c0,0,0.1,0.1,0.1,0.2c-1.8,1.2-4.4,2.3-7.7,3.2c0,0.4-0.1,0.6-0.2,0.6c-0.1,0-0.2-0.2-0.4-0.6s-0.5-1-0.8-1.9
	c1.8-0.1,3.4-0.3,4.8-0.5c0.6-1.4,0.9-3,1.1-4.8C175,12.1,175.8,12.4,175.8,12.6z M175.3,1.4c0.8,0.7,1.2,1.1,1.2,1.3
	c0,0.2-0.1,0.3-0.2,0.3h-6c-1.1,0-1.8,0.1-2.1,0.2c-0.1-0.4-0.3-0.7-0.5-1.1c0.4,0.1,1,0.2,2,0.2h3.8c0.6-0.7,1-1.1,1.3-1.3
	c0,0,0.1,0,0.2,0C175,1.2,175.1,1.3,175.3,1.4z M170.5,10.8c-0.1,0.4-0.5,0.6-1.2,0.6c-0.4,0-0.7-0.1-0.8-0.2c0-1,0-2,0.1-3v-2
	c0-0.8-0.1-1.3-0.1-1.5l1.8,0.7h3.1c0.5-0.7,0.9-1,1.1-1s0.6,0.2,1.1,0.6s0.8,0.7,0.8,0.8c0,0.1-0.1,0.3-0.3,0.4
	c-0.3,0.3-0.5,0.4-0.5,0.5v2.2c0.1,0.8,0.1,1.4,0.1,1.6c0,0.5-0.4,0.7-1.1,0.7c-0.5,0-0.8-0.1-0.9-0.4v-0.5h-3.3L170.5,10.8
	C170.4,10.8,170.5,10.8,170.5,10.8z M171.5,15c0,0.4-0.1,0.7-0.4,0.9c-0.2,0.1-0.4,0.2-0.6,0.2c-0.3,0-0.5-0.5-0.6-1.4
	c-0.2-1-0.4-1.9-0.8-2.5c0,0,0.1-0.1,0.2-0.2C170.8,13,171.5,14.1,171.5,15z M170.5,9.9h3.3V6h-3.3V9.9z M181.6,17.3
	c0,0.2-0.1,0.3-0.3,0.3c-0.3,0-0.6,0-0.9,0c-1.4,0.9-3.3,1.7-5.5,2.3c-0.1-0.1-0.1-0.3-0.2-0.4c2.2-1,3.8-2.3,4.7-3.8
	C180.9,16.6,181.6,17.2,181.6,17.3z M178.8,5h1.4c0.1-0.8,0.2-1.6,0.3-2.5h-0.9c-1.3,0-2.1,0.1-2.4,0.3c-0.1-0.4-0.3-0.7-0.5-1.1
	c0.5,0.1,1.3,0.2,2.4,0.2h4.7c0.5-0.6,0.9-1,1.2-1.2h0.1c0.1,0.1,0.3,0.2,0.4,0.3c0.7,0.6,1.1,1,1.1,1.2s-0.1,0.3-0.2,0.3h-4
	c-0.4,1-0.9,1.8-1.6,2.5h2.5c0.5-0.6,0.9-0.9,1.1-0.9c0.2,0,0.6,0.2,1.1,0.6s0.8,0.7,0.8,0.8s-0.1,0.3-0.4,0.4
	c-0.4,0.2-0.6,0.4-0.7,0.5v5c0.1,1.9,0.1,3.2,0.1,3.7s-0.4,0.7-1.1,0.7c-0.5,0-0.8-0.1-0.9-0.4V15h-4.2v0.2
	c-0.1,0.4-0.5,0.6-1.2,0.6c-0.4,0-0.7-0.1-0.8-0.2c0-1.8,0-3.5,0.1-5.2V7c0-1.5-0.1-2.3-0.1-2.6L178.8,5z M183.4,8V5.5h-4.2V8H183.4
	z M183.4,11.2V8.6h-4.2v2.6C179.2,11.2,183.4,11.2,183.4,11.2z M183.4,14.5v-2.7h-4.2v2.7H183.4z M186.6,18.3c0,0.4-0.1,0.6-0.1,0.7
	c-0.1,0.3-0.4,0.5-0.8,0.5c-0.3,0-0.8-0.5-1.4-1.5c-0.8-0.9-1.6-1.6-2.5-2c0.1,0,0.1,0,0.1-0.1C184.9,16.4,186.5,17.2,186.6,18.3z"
	/>
<path class="st0" d="M15.3,31.2c0.6,0.5,0.9,0.8,0.9,0.9c0,0.1-0.1,0.3-0.3,0.4c-0.3,0.3-0.5,0.4-0.5,0.5v8.7c0,3,0.1,5,0.1,6
	c0,0.5-0.5,0.7-1.5,0.7c-0.4,0-0.6-0.2-0.6-0.5v-1.4H4.9v1.4c-0.1,0.4-0.5,0.7-1.2,0.7c-0.5,0-0.7-0.1-0.8-0.2c0-2.7,0-5.4,0.1-8
	v-5.3c0-2.2-0.1-3.6-0.2-4l1.8,0.7H13c0.7-0.8,1.1-1.1,1.3-1.1S14.8,30.9,15.3,31.2z M13.4,38.8v-6.4H4.9v6.4H13.4z M13.4,46v-6.7
	H4.9V46H13.4z"/>
<path class="st0" d="M37.8,32.7c1,0.8,1.4,1.3,1.4,1.6c0,0.2-0.1,0.3-0.2,0.3h-6.9c0.6,1.8,1.6,3.5,3.1,5c1.6,1.6,3,2.6,4.3,3
	c0,0.2,0,0.4-0.1,0.4c-0.5,0.2-0.8,0.5-0.9,0.8s-0.2,0.6-0.3,0.8C38.1,44.9,38,45,37.9,45c-0.8,0-2.2-1.6-4.1-4.7
	c-1-1.8-1.8-3.7-2.4-5.7H31v9h1.5c0.7-0.8,1.1-1.3,1.2-1.4c0.1,0,0.1,0,0.1,0c0.1,0,0.5,0.4,1.1,1c0.3,0.3,0.5,0.5,0.5,0.7
	s-0.1,0.3-0.3,0.3H31c0,2,0,3.4,0.1,4.3c0,0.4-0.5,0.5-1.4,0.5c-0.5,0-0.7-0.1-0.7-0.4c0-0.8,0.1-2.2,0.1-4.4h-2.2
	c-0.6,0-1.1,0-1.6,0.1c-0.2-0.3-0.4-0.7-0.5-1c0.5,0.2,1.1,0.3,1.8,0.3h2.5v-8.3c-0.2,0.4-0.3,0.8-0.5,1.2c-1.3,3.7-3.9,6.7-7.9,8.9
	c-0.1,0-0.1-0.1-0.2-0.3c3.2-2.8,5.3-5.9,6.3-9.1c0.2-0.6,0.4-1.1,0.5-1.5H26c-2.4,0-3.9,0.1-4.5,0.3c-0.1-0.4-0.3-0.7-0.5-1.1
	c1,0.1,2.6,0.2,5,0.2h3.1v-2.1c0-0.7-0.1-1.3-0.2-2c0.7,0.1,1.4,0.2,2.2,0.3c0.6,0.1,0.9,0.3,0.9,0.4s-0.1,0.2-0.4,0.3
	c-0.4,0.1-0.6,0.3-0.6,0.3v2.7h4.6c0.7-0.9,1.2-1.4,1.5-1.6c0,0,0.1,0,0.2,0C37.5,32.4,37.6,32.6,37.8,32.7z"/>
<path class="st0" d="M48.9,43.7c0,0.2-0.4,0.2-1.2,0.2c-1.6,1.4-3.4,2.5-5.6,3.5c-0.2-0.1-0.3-0.1-0.4-0.2c2.1-1.4,3.7-3,4.7-5
	C48,42.9,48.9,43.4,48.9,43.7z M59,31.8c1,0.8,1.4,1.3,1.4,1.5s-0.1,0.3-0.2,0.3H46.9c-2.4,0-4,0.1-4.6,0.3
	c-0.1-0.4-0.3-0.7-0.5-1.1c1,0.1,2.7,0.2,5.1,0.2h9.8c0.7-0.9,1.2-1.4,1.5-1.6c0.1,0,0.1,0,0.2,0C58.6,31.5,58.8,31.6,59,31.8z
	 M46.7,35.8h8.7c0.5-0.7,0.9-1,1.1-1s0.6,0.2,1.1,0.6s0.8,0.7,0.8,0.8s-0.1,0.3-0.3,0.4c-0.3,0.2-0.5,0.4-0.6,0.5v2.1
	c0.1,0.8,0.1,1.3,0.1,1.6c0,0.5-0.4,0.7-1.1,0.7c-0.5,0-0.8-0.1-0.9-0.4v-0.5h-3.2v6c0,1.4-0.8,2.2-2.5,2.4c-0.2,0-0.3-0.2-0.4-0.6
	c-0.1-0.5-0.5-0.8-1-1c-0.5-0.3-0.9-0.4-1.4-0.5c0-0.1,0-0.2,0-0.3c0.6,0,1.4,0.1,2.6,0.2c0.4,0,0.7-0.1,0.7-0.5v-5.6H47V41
	c-0.1,0.4-0.5,0.6-1.2,0.6c-0.4,0-0.7-0.1-0.8-0.2c0-0.9,0-1.9,0.1-2.8v-1.8c0-0.8-0.1-1.2-0.2-1.4L46.7,35.8z M55.6,36.3H47v3.6
	h8.6V36.3z M52.3,31.4c0,0.3,0,0.5-0.1,0.7c-0.1,0.4-0.4,0.6-0.8,0.6c-0.3,0-0.7-0.3-1.2-1s-1.1-1.2-1.8-1.7c0,0,0.1-0.1,0.1-0.3
	C50.9,29.9,52.2,30.5,52.3,31.4z M57.9,43.9c1.3,0.7,1.9,1.4,1.9,2.1c0,0.4-0.1,0.7-0.2,0.9c-0.1,0.2-0.4,0.4-0.7,0.4
	c-0.2,0-0.7-0.5-1.4-1.4c-1.1-1.4-2.2-2.4-3.3-2.9v-0.4C55.7,42.9,57,43.3,57.9,43.9z"/>
<path class="st0" d="M69.1,30.5c0,0.2-0.1,0.3-0.4,0.3c-0.4,0.2-0.6,0.3-0.6,0.4V33h0.5c0.5-0.8,0.8-1.3,1-1.3
	c0.1,0,0.3,0.2,0.7,0.7c0.2,0.3,0.3,0.5,0.4,0.6c0.3-0.6,0.4-1.3,0.6-1.9c1.7,0.5,2.6,0.8,2.6,1.1c-0.1,0.2-0.5,0.4-1.1,0.4
	c-0.5,1.4-1.2,2.7-2,3.9h0.6c0.6-0.8,1-1.3,1.2-1.3c0.1,0,0.4,0.2,0.8,0.7c0.4,0.4,0.6,0.7,0.7,0.9c0,0.2-0.1,0.3-0.2,0.3h-3.5
	c-0.8,1-1.8,1.9-3,2.7h3.1c0.5-0.7,0.9-1,1.1-1s0.6,0.2,1.1,0.6s0.8,0.7,0.8,0.8s-0.1,0.3-0.3,0.4c-0.3,0.3-0.5,0.4-0.6,0.5v4
	c0.1,1.6,0.1,2.6,0.1,3c0,0.5-0.4,0.7-1.1,0.7c-0.5,0-0.8-0.1-0.9-0.4v-1.1h-3.6c0,0.3,0,0.6,0,0.9s-0.4,0.5-1.1,0.5
	c-0.6,0-0.9-0.1-0.9-0.2c0-0.3,0-1.2,0-2.5v-4.9c-0.7,0.4-1.5,0.8-2.3,1.1c-0.1-0.1-0.2-0.1-0.2-0.2c2.4-1.5,4.3-3.2,5.8-5H66
	c-2,0-3,0.1-3,0.2c-0.1-0.3-0.3-0.6-0.4-1.1c0.3,0.1,1.4,0.2,3.3,0.3h0.4v-2.9c-1.7,0-2.6,0.1-2.6,0.2c-0.1-0.3-0.3-0.6-0.4-1.1
	c0.3,0.1,1.3,0.2,3,0.3v-1c0-0.9,0-1.7-0.1-2.2C68.1,30,69.1,30.3,69.1,30.5z M66.9,43.2h3.7v-2.8h-3.7V43.2z M66.9,46.3
	c0,0.2,0,0.4,0,0.6h3.7v-3.2h-3.7V46.3z M70.4,33.7h-2.3v2.9h0.6C69.4,35.7,69.9,34.7,70.4,33.7z M80.8,31c0.5,0.5,0.8,0.8,0.8,1
	s-0.1,0.3-0.3,0.3c-0.4,0.2-0.7,0.3-0.8,0.4c-0.6,1.4-1.6,3.1-2.9,4.9c2.3,1.6,3.5,3.4,3.5,5.5c0,1.8-0.7,2.9-2.2,3.2
	c-0.3,0-0.4-0.1-0.5-0.4c-0.1-0.5-0.3-0.9-0.7-1.2c-0.3-0.2-0.6-0.4-0.9-0.5c0,0,0.1-0.2,0.1-0.3c0.4,0.2,0.9,0.3,1.4,0.3
	c0.6,0,0.9-0.5,0.9-1.3c0-2.2-0.7-3.9-2.2-5.2c0.8-1.5,1.3-3.5,1.7-5.9h-2.4v16.6c-0.1,0.4-0.5,0.6-1.1,0.6c-0.4,0-0.7-0.1-0.8-0.2
	c0-2.9,0-5.7,0.1-8.5v-5.6c0-2.4-0.1-3.8-0.1-4.2l1.9,0.7h2.4c0.5-0.6,0.9-0.9,1.2-0.9C79.9,30.3,80.2,30.5,80.8,31z"/>
<path class="st0" d="M92.5,43l-0.4-0.4c0.8-0.7,1.2-1.3,1.2-2c0-0.1-0.1-0.2-0.3-0.2c-1-0.2-1.5-0.7-1.5-1.5c0-0.4,0.1-0.7,0.4-1
	s0.7-0.5,1.2-0.5s0.9,0.2,1.2,0.6c0.2,0.3,0.4,0.7,0.4,1.1C94.7,40.8,94,42,92.5,43z"/>
<path class="st0" d="M109.7,31.5c0.6,0.1,0.9,0.3,0.9,0.4s-0.1,0.3-0.4,0.3c-0.4,0.1-0.6,0.3-0.6,0.3v3.6h3.1v-4.6
	c-0.1-0.5-0.1-0.9-0.1-1.2c1.7,0.2,2.6,0.4,2.9,0.7c0,0.2-0.1,0.3-0.4,0.4c-0.4,0.2-0.6,0.3-0.6,0.4v4.3h3.3v-4.4
	c-0.1-0.5-0.1-0.9-0.1-1.3c1.8,0.2,2.8,0.5,3,0.8c0,0.2-0.1,0.3-0.4,0.4c-0.4,0.2-0.6,0.3-0.6,0.4v4.1h0.8c0.7-0.9,1.2-1.4,1.3-1.5
	c0.1,0,0.1,0,0.1,0c0.2,0,0.6,0.4,1.2,1.1c0.3,0.3,0.5,0.6,0.5,0.8s-0.1,0.3-0.3,0.3h-3.7v6.5c0,0.4-0.4,0.6-1.2,0.6
	c-0.5,0-0.7-0.1-0.7-0.4c0-0.4,0-0.8,0-1.2h-3.2v1.1c0,0.4-0.4,0.6-1.2,0.6c-0.5,0-0.7-0.1-0.7-0.4c0-2.1,0.1-4.4,0.1-6.9h-3.1v6.6
	c0,1.4,0,2.5,0.1,3.4h10.2c0.6-0.9,1-1.4,1.3-1.6h0.1c0.2,0.1,0.5,0.3,1,0.7c0.6,0.6,1,1,1,1.2s-0.1,0.3-0.1,0.3h-13.5
	c0,0.4,0,0.8,0,1.1c0,0.4-0.5,0.5-1.4,0.5c-0.5,0-0.7-0.1-0.7-0.4c0-0.8,0.1-2.6,0.1-5.2v-6.6c-0.9,0-1.8,0.1-2.7,0.1
	c-0.2-0.3-0.4-0.7-0.5-1c1,0.2,2.1,0.3,3.2,0.3v-3c0-0.7-0.1-1.4-0.2-2C108.1,31.2,108.9,31.3,109.7,31.5z M117.6,41.7
	c0-1.6,0-3.3,0.1-5h-3.3v5H117.6z"/>
<path class="st0" d="M141.8,30.6c0.6,0.4,0.9,0.7,0.9,0.9c0,0.1-0.1,0.3-0.3,0.4c-0.3,0.3-0.5,0.4-0.5,0.5V36c0,1.2,0.1,2.1,0.1,2.5
	c0,0.5-0.5,0.7-1.4,0.7c-0.4,0-0.6-0.1-0.6-0.5v-0.5h-2.6c1,1.2,2.1,2.1,3.3,2.5c1.2,0.6,2.6,0.9,4.2,1c0,0.1,0,0.3,0,0.4
	c-0.1,0-0.3,0.1-0.5,0.4c-0.1,0.1-0.2,0.4-0.4,0.8c-0.1,0.3-0.2,0.4-0.4,0.4c-0.7,0-1.8-0.5-3.4-1.6c-0.1-0.1-0.2-0.1-0.3-0.2
	c0,0.2-0.1,0.3-0.4,0.4c-0.4,0.2-0.5,0.3-0.5,0.4v6c0,0.3-0.4,0.5-1.2,0.6c-0.5,0-0.7-0.1-0.7-0.4c0-1.9,0.1-4.1,0.1-6.6
	c-0.1-0.5-0.1-0.9-0.1-1.2c1.3,0.2,2.1,0.3,2.6,0.5c-1.1-0.9-2-2-2.6-3.4h-2.4c-0.2,0.3-0.4,0.6-0.7,0.9c-0.5,0.7-1.1,1.3-1.9,1.9
	c1.6,0.3,2.4,0.5,2.4,0.7s-0.3,0.3-1,0.4c0,1.1-0.1,2-0.4,2.5c-0.7,1.9-2.8,3.4-6.2,4.4c0-0.1-0.1-0.1-0.2-0.2
	c3.2-1.5,4.8-3.5,4.9-5.8c0-0.7,0-1.2,0-1.6c-1.4,0.9-3.2,1.7-5.4,2.3c-0.1,0-0.2-0.1-0.2-0.3c3.1-1.4,5.2-2.9,6.2-4.5
	c0.2-0.3,0.3-0.5,0.4-0.6h-2.2v0.4c-0.1,0.4-0.5,0.6-1.2,0.6c-0.4,0-0.7-0.1-0.8-0.2c0-1.3,0-2.6,0.1-3.9v-2.6c0-1.1-0.1-1.7-0.2-2
	l1.6,0.6h9.9c0.6-0.7,1-1,1.2-1C141,30.1,141.3,30.3,141.8,30.6z M134.1,34.3v-2.6h-3.9v2.6H134.1z M134.1,37.6v-2.7h-3.9v2.7H134.1
	z M140,34.3v-2.6h-4.1v2.6H140z M140,37.6v-2.7h-4.1v2.7H140z"/>
<path class="st0" d="M146.9,35.5c-0.1-0.3-0.3-0.6-0.4-1.1c0.3,0.1,1.4,0.2,3.2,0.3v-3c0-0.6-0.1-1.2-0.2-1.9
	c0.7,0.1,1.3,0.2,2.1,0.3c0.5,0.1,0.8,0.2,0.8,0.4c0,0.1-0.1,0.2-0.4,0.3c-0.4,0.1-0.5,0.2-0.5,0.3v3.6h0.3c0.5-0.8,0.8-1.3,1-1.3
	c0.1,0,0.3,0.2,0.7,0.7c0.3,0.4,0.5,0.7,0.6,0.9c0,0.2-0.1,0.3-0.3,0.3h-2.3v1.2c1.7,0.8,2.6,1.6,2.6,2.4c0,0.4-0.1,0.7-0.4,0.8
	c-0.2,0.1-0.4,0.2-0.6,0.2c-0.4,0-0.7-0.4-0.8-1.2c-0.2-0.7-0.5-1.3-0.9-1.7v6.9c0,2.2,0,3.7,0.1,4.7c0,0.3-0.4,0.5-1.3,0.5
	c-0.5,0-0.7-0.1-0.7-0.4c0-0.8,0.1-2.4,0.1-4.9v-4.5c-0.9,2-1.8,3.5-2.9,4.6c-0.1,0-0.2-0.1-0.3-0.2c1.5-2.5,2.5-5.2,2.9-8.4
	C147.8,35.3,146.9,35.4,146.9,35.5z M159.5,30.8c0,0.1-0.1,0.2-0.3,0.3c-0.4,0.2-0.7,0.3-0.7,0.4v6.9c0,5.6-1.8,9.1-5.5,10.5
	c-0.1-0.1-0.1-0.2-0.2-0.3c1.4-1.2,2.4-2.6,2.9-4.1c0.4-0.9,0.7-2.3,0.9-4.3c-0.5,0.6-1.1,1.2-1.7,1.8c0,0.1-0.1,0.4-0.1,0.9
	c0,0.1-0.1,0.2-0.2,0.2c-0.2,0-0.8-0.8-1.6-2.3c0.5,0,1.7-0.5,3.7-1.5c0-0.7,0.1-1.5,0.1-2.4v-4.8c0-0.9-0.1-1.6-0.2-2.2
	C158.5,30.3,159.5,30.6,159.5,30.8z M156.3,36.4c0,0.7-0.3,1-0.8,1s-0.7-0.3-0.7-0.8c0-0.3-0.1-0.7-0.1-1.2c-0.1-0.5-0.2-1-0.4-1.6
	c-0.2-0.5-0.3-0.8-0.4-1c0.1-0.1,0.2-0.2,0.3-0.2C155.5,33.9,156.3,35.2,156.3,36.4z M162.6,30.9c0,0.1-0.1,0.2-0.3,0.3
	c-0.4,0.1-0.6,0.3-0.7,0.4v4.9c0.8-1.1,1.4-2.4,1.7-3.7c0.3,0.2,0.9,0.5,1.7,1c0.4,0.3,0.6,0.5,0.6,0.6s-0.1,0.2-0.3,0.2
	c-0.4,0-0.7,0.1-0.8,0.1c-0.4,0.5-0.8,1-1.3,1.4s-1,0.8-1.5,1V39c0.9,0.2,1.7,0.5,2.3,0.8c0.9,0.5,1.4,1,1.4,1.5s-0.1,0.8-0.2,0.9
	c-0.1,0.3-0.4,0.4-0.7,0.4c-0.2,0-0.5-0.4-0.9-1.1c-0.6-0.9-1.2-1.6-1.8-2v6.6c0,0.5,0.2,0.7,0.6,0.7h0.6c0.6,0,1-0.4,1.2-1.3
	c0.3-1,0.5-1.6,0.5-1.9c0.1,0,0.2,0,0.3,0c0,0,0,0.8,0,2.3c0,0.3,0.1,0.5,0.3,0.6c0.3,0.2,0.5,0.4,0.5,0.6c0,0.5-0.4,0.8-1.1,1
	c-0.4,0.1-0.9,0.2-1.6,0.2c-0.8,0-1.2,0-1.4-0.1c-1.2-0.1-1.8-0.8-1.8-2V31.7c0-0.6,0-1.2-0.1-1.8C161.6,30.4,162.6,30.7,162.6,30.9
	z"/>
<path class="st0" d="M185.3,30.4c0.6,0.4,0.9,0.7,0.9,0.9c0,0.1-0.1,0.3-0.3,0.4c-0.3,0.3-0.5,0.4-0.5,0.5v9.7
	c0,3.3,0.1,5.5,0.1,6.7c0,0.4-0.5,0.7-1.4,0.7c-0.4,0-0.5-0.2-0.5-0.5v-1.2h-12.9v0.9c-0.1,0.4-0.5,0.6-1.2,0.6
	c-0.4,0-0.7-0.1-0.8-0.2c0-2.9,0-5.8,0.1-8.6v-5.6c0-2.4-0.1-3.8-0.1-4.3l2,0.8h12.6c0.6-0.8,1-1.2,1.2-1.2
	C184.6,29.9,184.9,30.1,185.3,30.4z M183.5,46.9V31.6h-12.9v15.3H183.5z M181.7,33.3c0.4,0.4,0.7,0.7,0.7,0.8c0,0.2-0.1,0.3-0.2,0.3
	h-4.4V36h2.8c0.6-0.8,1-1.2,1.2-1.3c0.1,0,0.4,0.2,0.8,0.7c0.4,0.4,0.7,0.7,0.7,0.9s-0.1,0.3-0.2,0.3h-8.7c-2,0-3.1,0.1-3.1,0.2
	c-0.1-0.3-0.3-0.6-0.4-1.1c0.3,0.1,1.4,0.2,3.2,0.3h2v-1.6h-0.6c-2,0-3,0.1-3,0.2c-0.1-0.3-0.3-0.6-0.4-1.1c0.3,0.1,1.4,0.2,3.3,0.3
	h0.8c0-0.7-0.1-1.3-0.1-1.8c1.8,0.3,2.8,0.5,2.8,0.7s-0.1,0.3-0.3,0.3c-0.4,0.2-0.6,0.3-0.6,0.4v0.4h2c0.6-0.8,1-1.1,1.2-1.1
	C181,32.6,181.3,32.8,181.7,33.3z M171.2,45.6c-0.1-0.1-0.2-0.2-0.2-0.3c2.2-1.3,3.7-2.6,4.6-3.9c0-0.1,0.1-0.1,0.1-0.2h-1.4
	c-0.1,0.4-0.5,0.6-1.1,0.6c-0.4,0-0.6-0.1-0.7-0.2c0-0.7,0-1.4,0.1-2v-1.3c0-0.6-0.1-0.9-0.1-1l1.6,0.6h5.1c0.5-0.6,0.9-1,1-1
	c0.2,0,0.5,0.2,1,0.6c0.5,0.4,0.7,0.6,0.7,0.8c0,0.1-0.1,0.3-0.3,0.4c-0.3,0.2-0.4,0.4-0.4,0.4v1.1c0.1,0.4,0.1,0.7,0.1,0.8
	c0.3,0.2,0.7,0.4,1.2,0.7c0.3,0.2,0.5,0.4,0.5,0.5s-0.1,0.1-0.3,0.1c-0.3,0-0.5,0.1-0.7,0.1c-0.3,0.2-0.6,0.4-1,0.6
	c-0.2,0.1-0.3,0.2-0.5,0.2c1.1,0.5,1.7,1.1,1.7,1.8c0,0.3-0.1,0.5-0.2,0.6c-0.1,0.3-0.3,0.4-0.7,0.4c-0.3,0-0.7-0.5-1.3-1.4
	c-0.6-0.7-1.4-1.3-2.4-1.9v2.4c0,0.3,0,0.6,0,0.8c0,0.4-0.4,0.5-1.1,0.5c-0.5,0-0.8-0.1-0.8-0.3V43C174.8,44,173.2,44.9,171.2,45.6z
	 M179.6,40.7v-2.3h-5.2v2.3H179.6z M181,41.5c-0.2,0.1-0.4,0.1-0.6,0.1c-0.5,0-0.8-0.1-0.8-0.3H178v1c0.8,0.2,1.6,0.4,2.1,0.6
	C180.5,42.4,180.8,41.9,181,41.5z"/>
<g>
	<rect x="0.2" y="69.2" class="st1" width="13" height="0.8"/>
</g>
</svg>
