<?xml version="1.0" encoding="utf-8"?>
<!-- Generator: Adobe Illustrator 25.2.3, SVG Export Plug-In . SVG Version: 6.00 Build 0)  -->
<svg version="1.1" id="圖層_1" xmlns="http://www.w3.org/2000/svg" xmlns:xlink="http://www.w3.org/1999/xlink" x="0px" y="0px"
	 viewBox="0 0 280 140" style="enable-background:new 0 0 280 140;" xml:space="preserve">
<style type="text/css">
	.st0{fill:#FFFFFF;}
</style>
<path class="st0" d="M2.5,3.2V1h1v2.2h1.1v0.9H3.5v0.2c0.4,0.5,0.9,1,1.3,1.6L4.2,6.8C3.9,6.3,3.7,5.9,3.5,5.5v6h-1V6.3
	C2.2,7.2,1.8,8,1.4,8.7L1,7.5c0.6-1,1.1-2.1,1.5-3.4H1.2V3.2H2.5z M7.4,1v5.3c0,1.2-0.2,2.2-0.5,2.9C6.6,10,6,10.8,5.1,11.6
	l-0.9-0.8c0.8-0.6,1.3-1.2,1.7-2c0.2-0.4,0.3-0.9,0.4-1.6C5.8,7.6,5.2,8,4.6,8.3L4.1,7.4c0.8-0.3,1.5-0.8,2.3-1.5v-5L7.4,1L7.4,1z
	 M6.3,5L5.4,5.4c-0.3-1-0.6-1.8-0.9-2.6l0.9-0.3C5.8,3.3,6.1,4.1,6.3,5z M9.1,1v4.4c0.9,0.5,1.7,1.2,2.4,1.9l-0.6,0.9
	C10.3,7.6,9.7,7,9.1,6.6v3.5c0,0.2,0.1,0.3,0.4,0.3h0.4c0.1,0,0.2-0.1,0.3-0.2c0.1-0.1,0.1-0.7,0.1-1.6l1,0.3
	c-0.1,1.2-0.2,1.9-0.4,2.1s-0.5,0.3-0.9,0.3H9c-0.3,0-0.6-0.1-0.8-0.2c-0.2-0.2-0.3-0.4-0.3-0.7V1H9.1z M11.3,2.9
	c-0.3,0.9-0.7,1.7-1.2,2.4L9.2,4.7c0.4-0.6,0.9-1.3,1.2-2.1L11.3,2.9z"/>
<path class="st0" d="M22.7,11.5h-1v-0.4h-7.9v0.4h-1V1.3h9.9V11.5z M21.7,10.2v-8h-7.9v8H21.7z M20.8,5.5v2.1h-3.2
	c-0.1,0.1-0.1,0.1-0.1,0.2V10h-0.9V8.6c-0.6,0.4-1.3,0.8-2.1,1L14,8.8c0.8-0.2,1.4-0.5,1.9-0.8c0.2-0.1,0.5-0.3,0.6-0.5h-1.6V5.4
	L20.8,5.5L20.8,5.5z M17.1,3V2.5H18V3h2.7v0.7H18v0.6h3.2v0.8H14V4.3h3.1V3.7h-2.6V3H17.1z M19.9,6.2h-4.2v0.6h4.2V6.2z M19.3,8.4
	c0.2-0.2,0.4-0.5,0.5-0.7l0.9,0.5c-0.1,0.2-0.3,0.4-0.5,0.6C20.6,9,21,9.2,21.3,9.4l-0.5,0.8c-1-0.6-2-1.2-3.1-1.5L18.1,8
	C18.5,8.1,18.9,8.2,19.3,8.4z"/>
<path class="st0" d="M27.4,1.9h2v0.9h-1.1L28.8,3c-0.2,0.6-0.4,1.2-0.6,1.6h1.2v0.9h-2.1v0.9h2.1v0.9h-2c0.8,0.6,1.4,1.1,2,1.7
	l-0.7,0.7c-0.4-0.4-0.8-0.9-1.4-1.3v3.3h-1v-3c-0.5,0.8-1.1,1.5-1.8,2.1l-0.6-0.9c0.9-0.7,1.7-1.5,2.2-2.5h-1.9V6.5h2.1V5.6h-2.2
	V4.7h1.3c-0.1-0.5-0.3-1-0.5-1.6l0.6-0.2h-1.3V2h2c-0.1-0.3-0.3-0.5-0.5-0.7l1-0.1C26.9,1.3,27.2,1.6,27.4,1.9z M27.2,4.6
	c0.2-0.5,0.4-1.1,0.6-1.8h-2.1c0.2,0.5,0.4,1.1,0.6,1.8H27.2z M34.5,2.4c-1.1,0.3-2.2,0.5-3.5,0.5v1.9h3.5v0.9h-1.2v5.8h-1V5.7H31v1
	c0,0.8-0.2,1.7-0.4,2.6c-0.2,0.8-0.6,1.5-1.1,2.2l-0.8-0.8c0.4-0.6,0.7-1.2,0.9-1.7c0.2-0.6,0.3-1.4,0.3-2.2V2c1.6,0,2.9-0.2,4-0.7
	L34.5,2.4z"/>
<path class="st0" d="M39.2,10.5h-1V9.6h-1.4v1.1h-1V1.8h3.4V10.5z M38.2,5.3V2.9h-1.4v2.4H38.2z M38.2,8.6V6.2h-1.4v2.4H38.2z
	 M42.1,2.2V1.1h1v1.1h2.5v1h-2.5v1.2H46v1h-1.1v1.2h1.2v1h-1.2v2.7c0,0.4-0.1,0.7-0.3,0.9s-0.5,0.3-0.9,0.3h-1.4l-0.2-1.1
	c0.6,0.1,1,0.1,1.4,0.1c0.3,0,0.4-0.1,0.4-0.3V7.6h-4.5v-1h4.5V5.4h-4.4v-1h2.7V3.2h-2.4v-1H42.1z M42.6,9.5l-1,0.7
	C41.2,9.7,40.7,9,40,8.4l0.9-0.5C41.6,8.5,42.1,9.1,42.6,9.5z"/>
<path class="st0" d="M50.2,1.5c-0.3,0.9-0.5,1.6-0.8,2.2v7.8h-1V5.6c-0.3,0.5-0.6,0.9-1,1.4L47,5.7c0.5-0.6,0.9-1.3,1.2-2
	c0.4-0.6,0.7-1.5,1-2.6L50.2,1.5z M57.2,4.9l-3.7,0.4C53.6,6,53.6,6.6,53.7,7c0.3,1.1,0.6,1.9,1.1,2.4c0.5,0.6,0.9,0.9,1.3,0.9
	c0.1,0,0.2,0,0.2-0.1c0.1-0.1,0.2-0.7,0.3-1.8L57.7,9c-0.2,1.1-0.4,1.8-0.6,2.1c-0.2,0.3-0.5,0.4-0.9,0.4c-0.6,0-1.3-0.4-2-1.2
	c-0.6-0.7-1.1-1.7-1.5-3.1c-0.1-0.5-0.2-1.1-0.3-1.8l-2.5,0.3l-0.1-1l2.5-0.3c-0.1-0.9-0.1-2-0.1-3.3h1.1c0,1.2,0.1,2.3,0.2,3.2
	l3.7-0.4C57.2,3.9,57.2,4.9,57.2,4.9z M56.5,3l-1,0.7c-0.3-0.5-0.8-1.1-1.3-1.7L55,1.5C55.6,2.1,56.1,2.6,56.5,3z"/>
<path class="st0" d="M64.1,7.5c-0.2,0.2-0.5,0.5-0.9,0.7l-0.4-0.6c0.5-0.3,0.9-0.6,0.9-1H63V5.2h1.4v1.1C64.4,6.9,64.3,7.3,64.1,7.5
	z"/>
<path class="st0" d="M72.7,1.2v7.2c0.8-0.3,1.6-0.7,2.4-1.1l0.3,1.1c-1.3,0.7-3,1.4-4.9,2L70,9.3c0.5-0.1,1-0.3,1.6-0.4V1.3
	L72.7,1.2L72.7,1.2z M78.8,1.2c0,2.4-0.3,4.3-0.8,5.7c0.9,1.1,1.7,2.2,2.3,3.3l-0.9,0.9c-0.5-0.9-1.1-1.9-1.9-3
	c-0.6,1.2-1.8,2.3-3.5,3.4l-0.8-1c1.6-0.9,2.7-1.9,3.2-3c0.7-1.3,1.1-3.5,1.1-6.4h1.3C78.8,1.1,78.8,1.2,78.8,1.2z M76.4,5.4
	l-1.1,0.8c-0.4-1-0.9-2.1-1.6-3.3l0.9-0.6C75.3,3.5,75.9,4.5,76.4,5.4z"/>
<path class="st0" d="M87.3,1v2.2c0,0.7,0.2,1.6,0.5,2.6c0.4,1.1,0.9,2,1.5,2.7c0.7,0.9,1.6,1.5,2.6,1.9l-0.5,1.2
	c-1.2-0.6-2.1-1.3-2.7-2.1c-0.8-0.9-1.5-2.2-2-3.7c-0.3,1.6-0.9,2.9-1.8,3.8c-0.7,0.8-1.7,1.5-3,2l-0.5-1.1c1.2-0.5,2.1-1.1,2.7-1.9
	c0.6-0.7,1.1-1.7,1.4-2.8C85.8,4.8,86,4,86,3.3V1H87.3z M84.4,3.2C84,4.7,83.6,6,83.1,7.1L82,6.3c0.5-1,1-2.2,1.4-3.6L84.4,3.2z
	 M91.4,3.2C91,4.7,90.5,6,90,7.1l-1.1-0.8c0.5-1,1-2.2,1.5-3.6L91.4,3.2z"/>
<path class="st0" d="M97.6,2V1h1.1v0.9h4.5v1h-4.5v0.8h3.7v4.6h-3.7v0.8h4.6v1h-4.6v1.5h-1.1v-1.5H93v-1h4.6V8.3H94V3.7h3.7V3h-4.5
	V2H97.6z M97.6,5.5V4.7H95v0.8H97.6z M97.6,6.4H95v0.9h2.7L97.6,6.4L97.6,6.4z M98.8,5.5h2.7V4.7h-2.7V5.5z M101.5,6.4h-2.7v0.9h2.7
	V6.4z"/>
<path class="st0" d="M107.4,2.8h1.7v1h-4.7v-1h1.8c-0.2-0.5-0.3-1-0.5-1.5l1.2-0.2C107.1,1.7,107.3,2.2,107.4,2.8z M108.8,9.9
	c-1.2,0.4-2.5,0.7-4,1l-0.3-1c1.6-0.3,3.1-0.6,4.4-1L108.8,9.9L108.8,9.9z M106.5,9l-1,0.2c-0.2-1.6-0.5-3.1-0.8-4.6l0.9-0.3
	C106,5.7,106.3,7.3,106.5,9z M108.6,4.3c0,1.6-0.3,3.2-0.7,4.7l-1-0.3c0.4-1.5,0.7-3,0.7-4.5L108.6,4.3z M112,1v2.1h3v1h-3V6h2.5
	v5.6h-1v-0.8h-3.2v0.8h-1V6h1.7V1H112z M113.5,9.9V7h-3.2v2.8L113.5,9.9L113.5,9.9z"/>
<path class="st0" d="M117.4,9.3c-0.1,0.9-0.3,1.6-0.5,2.3l-0.9-0.3c0.3-0.6,0.5-1.3,0.6-2.1L117.4,9.3z M121.3,1.3v4.3h-2.1v0.7h2
	v0.9h-2v0.7c0.8,0,1.5-0.1,2.2-0.2v0.8c-1,0.2-2.7,0.3-5.1,0.4L116.2,8c0.8,0,1.5,0,2.2-0.1V7.1h-1.8V6.2h1.8V5.5h-1.9V1.2
	L121.3,1.3L121.3,1.3z M118.3,2.2h-1.1v2.6h1.1V2.2z M118.2,4.3l-0.6,0.1c-0.1-0.6-0.2-1.1-0.3-1.6l0.5-0.2
	C118,3.1,118.1,3.7,118.2,4.3z M118.7,11.4l-0.9,0.1c0-0.9-0.1-1.6-0.1-2.1l0.8-0.1C118.6,9.8,118.7,10.5,118.7,11.4z M120.1,11.1
	l-0.8,0.2c-0.1-0.7-0.3-1.3-0.4-1.9l0.7-0.2C119.8,9.7,120,10.4,120.1,11.1z M120.5,2.2h-1.3v2.6h1.3V2.2z M120.3,2.8
	c-0.1,0.6-0.2,1.1-0.3,1.7l-0.6-0.2c0.2-0.5,0.3-1,0.4-1.6L120.3,2.8z M121.4,10.7l-0.8,0.3c-0.1-0.6-0.3-1.2-0.5-1.8l0.6-0.2
	C121,9.6,121.2,10.2,121.4,10.7z M124.1,1v1.9h2.4v0.9h-2.4V6h2v5.5h-1v-0.8h-2.3v0.8h-1V6h1.3V1H124.1z M125.1,9.9V7h-2.3v2.9
	H125.1z"/>
<path class="st0" d="M129.3,2.7c-0.1-0.4-0.3-0.8-0.5-1.2l1-0.1c0.1,0.4,0.3,0.8,0.4,1.3h0.8c0.1-0.5,0.2-1,0.3-1.6l1,0.1
	c-0.1,0.5-0.2,1-0.3,1.4h4.5c-0.1,0.8-0.2,1.5-0.3,2h1.1c-0.1,0.8-0.2,1.5-0.3,2h0.9c0,2.6-0.3,4-0.7,4.4c-0.2,0.3-1,0.5-2.3,0.5
	l-0.2-1.1c0.3,0.1,0.6,0.1,0.9,0.1c0.4,0,0.8-0.1,1-0.3s0.3-1.1,0.4-2.7h-7c-0.5,0.7-1,1.4-1.6,1.9l-0.9-0.6
	c1.5-1.4,2.7-3.2,3.3-5.2H128v-1h1.3V2.7z M130.8,8.6c-0.3,1.1-0.7,2.1-1.3,2.9l-0.9-0.6c0.6-0.8,0.9-1.6,1.2-2.5L130.8,8.6z
	 M130.5,6.7h5.4c0.1-0.3,0.1-0.7,0.2-1.1H131C130.9,6,130.7,6.4,130.5,6.7z M132.5,11.2l-1.1,0.1c0-1.2-0.1-2.2-0.2-2.8l0.9-0.1
	C132.3,9.1,132.4,10.1,132.5,11.2z M131.4,4.7h3.8c0.1-0.3,0.1-0.6,0.2-1h-3.6C131.7,4,131.5,4.4,131.4,4.7z M134.4,10.5l-1,0.2
	c-0.2-0.8-0.4-1.5-0.6-2.2l0.9-0.3C134,8.9,134.2,9.6,134.4,10.5z M136.1,9.8l-0.9,0.3c-0.2-0.6-0.4-1.3-0.6-1.9l0.8-0.2
	C135.7,8.7,135.9,9.2,136.1,9.8z"/>
<path class="st0" d="M149.2,11.5h-1v-0.4h-7.9v0.4h-1V1.3h9.9V11.5z M148.2,10.3V2.2h-7.9v8.1H148.2z M147.4,4.9v3.9h-1.9
	c0.9,0.3,1.7,0.5,2.3,0.7l-0.7,0.7c-0.6-0.3-1.4-0.6-2.6-0.9l0.5-0.5h-1.7l0.4,0.4c-0.7,0.4-1.5,0.7-2.6,1l-0.5-0.8
	c1-0.2,1.7-0.4,2.3-0.6H141V4.9H147.4z M147.1,2.6v1.9h-5.7V2.6H147.1z M146.4,6V5.6H142V6H146.4z M146.4,7.1V6.6H142v0.5H146.4z
	 M146.4,7.7H142v0.5h4.4V7.7z M146.2,3.2h-3.9v0.6h3.9V3.2z"/>
<path class="st0" d="M152.8,4.5c-0.3,2.3-0.7,4.2-1.2,5.8l-1.1-0.7c0.5-1.7,0.9-3.4,1.1-5.4L152.8,4.5z M154.7,3.9V10
	c0,0.3,0.1,0.4,0.4,0.4h2.1c0.1,0,0.3-0.1,0.3-0.3c0.1-0.2,0.1-1,0.2-2.4l1.1,0.3c-0.1,1.7-0.2,2.7-0.4,3s-0.5,0.5-1,0.5h-2.6
	c-0.3,0-0.6-0.1-0.8-0.3s-0.3-0.5-0.3-0.8V3.9H154.7z M157.7,4.1l-1.1,0.8c-0.5-0.8-1.2-1.8-2.1-2.8l0.9-0.6
	C156.4,2.4,157.1,3.3,157.7,4.1z M160.9,9.4l-1.1,0.5c-0.4-1.9-0.9-3.7-1.5-5.2l1.1-0.4C160,6,160.5,7.6,160.9,9.4z"/>
<path class="st0" d="M6.9,22.5c-0.2,0.5-0.4,0.9-0.7,1.3h4.7v7.7c0,0.4-0.1,0.7-0.3,0.9s-0.4,0.3-0.8,0.3H8.3l-0.2-1.1l1.3,0.1
	c0.3,0,0.4-0.2,0.4-0.5v-6.3h-7v8H1.6v-9H5c0.3-0.5,0.5-1,0.7-1.5L6.9,22.5z M8.6,26.1v4.2H3.9v-4.2C3.9,26.1,8.6,26.1,8.6,26.1z
	 M7.4,27.1H5v2.3h2.5L7.4,27.1L7.4,27.1z"/>
<path class="st0" d="M15.5,22.5c-0.1,0.4-0.2,0.7-0.3,1.1h2.7v1c-0.1,1.4-0.4,2.5-0.7,3.5c-0.3,0.9-0.7,1.7-1.2,2.3
	c-0.6,0.7-1.4,1.5-2.6,2.3l-0.9-0.9c1.3-0.9,2.3-1.7,2.9-2.7c-0.4-0.6-1-1.3-1.6-2l0.8-0.7c0.5,0.6,1,1.1,1.4,1.6
	c0.3-0.9,0.6-2,0.7-3.5h-1.9c-0.1,0.3-0.2,0.6-0.4,0.9c-0.4,0.9-0.9,1.6-1.5,2.3l-0.7-0.9c0.5-0.6,0.9-1.3,1.3-2.1
	c0.3-0.6,0.5-1.4,0.8-2.5L15.5,22.5z M19.8,22.2v3.7c1,0.6,2.1,1.2,3.2,1.9l-0.7,1c-1-0.7-1.9-1.3-2.5-1.7v5.7h-1.1V22.2H19.8z"/>
<path class="st0" d="M29.3,22.6c0.3,0.3,0.6,0.6,1,0.9c0.2-0.1,0.4-0.3,0.6-0.5s0.4-0.5,0.7-0.8l0.9,0.5c-0.3,0.4-0.5,0.7-0.8,1
	c-0.1,0.1-0.3,0.2-0.4,0.4c0.2,0.1,0.4,0.2,0.7,0.3c0.2-0.1,0.4-0.3,0.6-0.5c0.2-0.2,0.5-0.5,0.7-0.9l0.9,0.5
	c-0.3,0.5-0.6,0.8-0.8,1.1c-0.1,0.1-0.2,0.2-0.3,0.3c0.5,0.2,1.1,0.4,1.7,0.6l-0.6,0.9c-0.5-0.2-0.9-0.3-1.3-0.5v1.2
	c0,0.2,0.1,0.4,0.4,0.4h1v0.9H33c-0.4,0-0.7-0.1-0.8-0.3c-0.2-0.2-0.3-0.4-0.3-0.8v-0.5h-1.1c0,0.4-0.1,0.8-0.2,0.9
	c-0.1,0.3-0.5,0.6-1,0.9L28.8,28c0.5-0.3,0.8-0.6,0.9-0.7c0.1-0.2,0.1-0.6,0.1-1.3h2.9c-0.6-0.3-1.2-0.5-1.6-0.8
	c-0.7-0.4-1.3-0.8-1.8-1.3c-0.3,0.5-0.7,0.9-1.1,1.2c-0.4,0.3-0.9,0.6-1.8,0.9h2.2v2.6h-2.2l-0.1,0.9h2.4c0,1.4-0.1,2.3-0.3,2.7
	c-0.2,0.4-0.7,0.7-1.4,0.7h-2l-0.2-1.1c0.9,0.1,1.6,0.1,2,0.1c0.2,0,0.3-0.1,0.4-0.3c0.1-0.2,0.1-0.6,0.1-1.3h-2.6l0.3-2.6h2.1v-0.9
	H25v-0.5c-0.3,0.1-0.6,0.2-0.9,0.3l-0.5-1c0.7-0.1,1.2-0.3,1.7-0.4c-0.3-0.3-0.5-0.5-0.9-0.8l0.8-0.5c0.5,0.3,0.9,0.7,1.2,0.9
	c0.1,0,0.1-0.1,0.2-0.1c0.6-0.2,1-0.6,1.3-1H25v-0.9h4.3V22.6z M33.3,28.6v0.8c-0.3,0.7-0.8,1.3-1.4,1.8c0.6,0.3,1.5,0.5,2.5,0.7
	l-0.6,0.9c-1.2-0.3-2.1-0.6-2.7-0.9c-0.6,0.4-1.3,0.7-2,0.9l-0.4-0.9c0.6-0.1,1.1-0.3,1.6-0.6c-0.5-0.3-0.9-0.7-1.3-1.1l0.9-0.5
	c0.3,0.4,0.7,0.8,1.2,1c0.4-0.3,0.7-0.7,1-1.2h-2.8v-0.9C29.3,28.6,33.3,28.6,33.3,28.6z"/>
<path class="st0" d="M36.6,23.3v-1.1h1v1.1h1.3v-1.1h1v1.1H41v0.9h-1.1v1.1h1.2v0.9h-5.7v-0.9h1.2v-1.1h-0.9v-0.9H36.6z M40.6,31.6
	c0,0.4-0.1,0.6-0.3,0.8s-0.4,0.3-0.7,0.3h-0.9l-0.2-1h0.8c0.2,0,0.3-0.1,0.3-0.4v-0.6H37v2h-1v-6h4.5L40.6,31.6L40.6,31.6z
	 M39.6,28.3v-0.7H37v0.7H39.6z M39.6,29.9v-0.8H37v0.8H39.6z M38.9,25.3v-1.1h-1.3v1.1H38.9z M43.2,22.4c-0.1,0.6-0.2,1.2-0.3,1.7
	H46v1h-0.7c-0.1,1.9-0.4,3.5-1,4.6c-0.1,0.1-0.1,0.3-0.2,0.4c0,0.1,0.1,0.1,0.1,0.2c0.4,0.5,1,1,1.8,1.6l-0.6,0.9
	c-0.8-0.6-1.4-1.2-1.9-1.8c-0.5,0.6-1.2,1.3-2,1.8l-0.6-0.9c0.8-0.5,1.5-1.1,2-1.8c-0.2-0.4-0.4-0.9-0.6-1.3
	c-0.2-0.5-0.3-1.1-0.4-1.8c-0.1,0.3-0.3,0.6-0.5,0.9L40.7,27c0.4-0.7,0.7-1.4,0.9-2.1c0.2-0.6,0.4-1.5,0.5-2.6L43.2,22.4z
	 M43.2,28.5c0.1,0.2,0.2,0.4,0.3,0.6c0.5-1,0.8-2.3,0.8-4.1h-1.7c0,0.1,0,0.1,0,0.2C42.7,26.6,42.9,27.7,43.2,28.5z"/>
<path class="st0" d="M53,29.2c-0.2-0.4-0.6-0.8-1-1.3c-0.3-0.3-0.7-0.7-1.3-1.2l0.7-0.6c0.4,0.3,0.8,0.7,1.4,1.2
	c0.3,0.3,0.7,0.8,1.1,1.3L53,29.2z"/>
<path class="st0" d="M64.4,22.5c-0.2,0.5-0.4,0.9-0.7,1.3h4.7v7.7c0,0.4-0.1,0.7-0.3,0.9c-0.2,0.2-0.4,0.3-0.8,0.3h-1.5l-0.2-1.1
	l1.3,0.1c0.3,0,0.4-0.2,0.4-0.5v-6.3h-7v8h-1.2v-9h3.4c0.3-0.5,0.5-1,0.7-1.5L64.4,22.5z M66.1,26.1v4.2h-4.7v-4.2
	C61.4,26.1,66.1,26.1,66.1,26.1z M64.9,27.1h-2.5v2.3h2.5V27.1z"/>
<path class="st0" d="M72.3,25.7c-0.3,2.3-0.7,4.2-1.2,5.8L70,30.8c0.5-1.7,0.9-3.4,1.1-5.4L72.3,25.7z M74.2,25.1v6.1
	c0,0.3,0.1,0.4,0.4,0.4h2.1c0.1,0,0.3-0.1,0.3-0.3c0.1-0.2,0.1-1,0.2-2.4l1.1,0.3c-0.1,1.7-0.2,2.7-0.4,3c-0.2,0.3-0.5,0.5-1,0.5
	h-2.6c-0.3,0-0.6-0.1-0.8-0.3s-0.3-0.5-0.3-0.8v-6.5C73.2,25.1,74.2,25.1,74.2,25.1z M77.2,25.3L76,26c-0.5-0.8-1.2-1.8-2.1-2.8
	l0.9-0.6C75.9,23.6,76.6,24.5,77.2,25.3z M80.4,30.6l-1.1,0.5c-0.4-1.9-0.9-3.7-1.5-5.2l1.1-0.4C79.5,27.2,80,28.8,80.4,30.6z"/>
<path class="st0" d="M84.6,29.4c-0.1,0.4-0.2,0.7-0.4,1c0.6,0.4,1.1,0.8,1.6,1.2l-0.5,0.9c-0.5-0.5-1-1-1.5-1.3
	c-0.4,0.5-1,0.9-1.8,1.4l-0.5-1c0.6-0.3,1.1-0.6,1.4-0.9s0.5-0.7,0.7-1.4L84.6,29.4z M87,22.7v0.9h-0.5v4.5h-0.9v-0.6
	c-1.2,0.1-2.5,0.2-4,0.3l-0.1-0.9c0.2,0,0.4,0,0.7,0v-3.2h-0.4v-0.9L87,22.7L87,22.7z M91.4,28.6c-1.2,0.2-2.6,0.4-4.2,0.4v3.8h-1.1
	v-3.7c-1.3,0.1-2.6,0.1-4.1,0.1l-0.3-0.9c3.6,0,6.7-0.2,9.2-0.5L91.4,28.6z M85.5,24v-0.5H83V24H85.5z M85.5,25.3v-0.5H83v0.5H85.5z
	 M85.5,26.5V26H83v0.7C83.8,26.7,84.7,26.6,85.5,26.5z M91.5,22.9v0.8c-0.3,0.9-0.7,1.7-1.2,2.2c-0.1,0.1-0.1,0.2-0.2,0.3
	c0.5,0.3,1.2,0.5,2,0.7l-0.6,0.9c-0.9-0.3-1.6-0.6-2.2-1c-0.6,0.4-1.3,0.7-2.1,1.1l-0.4-1c0.7-0.2,1.3-0.5,1.7-0.7
	c-0.6-0.5-1-1.1-1.4-1.7L88,24c0.4,0.7,0.8,1.2,1.4,1.6l0.1-0.1c0.3-0.3,0.7-0.9,1-1.6h-3.3V23h4.3V22.9z M90.2,29.2
	c-0.1,0.4-0.2,0.7-0.3,1c0.8,0.4,1.5,0.9,2.1,1.5l-0.6,0.9c-0.6-0.6-1.3-1.2-1.9-1.6c-0.3,0.5-0.8,1-1.6,1.5l-0.5-1
	c0.5-0.3,0.9-0.7,1.1-1s0.4-0.8,0.6-1.5L90.2,29.2z"/>
<path class="st0" d="M96.3,22.4c-0.2,0.4-0.3,0.7-0.5,1h2.5c-0.2-0.3-0.5-0.6-0.7-0.9l1.2-0.2c0.3,0.3,0.5,0.7,0.7,1.1h3.3v0.9h-3.7
	v0.6h3.3v0.8h-3.3v0.6h3.3v0.8h-3.3v0.7h3.8v0.9h-4.1v0.6h4.5v0.9H100c0.5,0.5,0.9,0.8,1.3,0.9c0.5,0.3,1.2,0.5,2.1,0.7l-0.6,0.9
	c-1.1-0.3-1.9-0.7-2.4-1c-0.5-0.4-1-0.9-1.5-1.6h-0.1v2.8h-1.1v-2.8h-0.1c-0.3,0.4-0.7,0.8-1.1,1.1c-0.6,0.5-1.6,0.9-2.8,1.4
	l-0.6-0.9c1.2-0.4,2.1-0.7,2.7-1c0.3-0.1,0.5-0.3,0.7-0.5h-3.4v-0.9h4.6v-0.6h-3.5v-2.8c-0.2,0.2-0.4,0.4-0.5,0.6l-0.8-0.9
	c1-1,1.8-2.1,2.3-3.3L96.3,22.4z M98.1,24.2h-2.8c0,0,0,0.1-0.1,0.1v0.5H98L98.1,24.2L98.1,24.2z M98.1,25.6h-2.8v0.6h2.8V25.6z
	 M98.1,27h-2.8v0.7h2.8V27z"/>
<path class="st0" d="M110.5,29.2c-0.2-0.4-0.6-0.8-1-1.3c-0.3-0.3-0.7-0.7-1.3-1.2l0.7-0.6c0.4,0.3,0.8,0.7,1.4,1.2
	c0.3,0.3,0.7,0.8,1.1,1.3L110.5,29.2z"/>
<path class="st0" d="M121.9,22.5c-0.2,0.5-0.4,0.9-0.7,1.3h4.7v7.7c0,0.4-0.1,0.7-0.3,0.9c-0.2,0.2-0.4,0.3-0.8,0.3h-1.5l-0.2-1.1
	l1.3,0.1c0.3,0,0.4-0.2,0.4-0.5v-6.3h-7v8h-1.2v-9h3.4c0.3-0.5,0.5-1,0.7-1.5L121.9,22.5z M123.6,26.1v4.2h-4.7v-4.2
	C118.9,26.1,123.6,26.1,123.6,26.1z M122.4,27.1H120v2.3h2.5L122.4,27.1L122.4,27.1z"/>
<path class="st0" d="M133.3,22.2v2.7c0.4,1.7,1,3.1,1.7,4.1c0.6,0.9,1.6,1.8,3,2.7l-0.8,1c-1.2-0.8-2-1.5-2.6-2.2
	c-0.8-0.9-1.4-1.9-1.8-3.2c-0.4,1.3-0.9,2.4-1.6,3.1c-0.7,0.8-1.7,1.6-3.1,2.4l-0.7-1c1.7-1,2.9-2.2,3.6-3.4s1-2.3,1-3.5v-2.7
	C132,22.2,133.3,22.2,133.3,22.2z"/>
<path class="st0" d="M144.9,23.1h4.3v2.6h-1.1V24h-7.7v1.7h-1.1v-2.6h4.5c-0.1-0.3-0.3-0.5-0.4-0.7l1.2-0.2
	C144.6,22.5,144.7,22.8,144.9,23.1z M149.2,31.5v1h-9.9v-1H149.2z M148.2,26.4v4.3h-8v-4.3C140.2,26.4,148.2,26.4,148.2,26.4z
	 M147.6,24.8v0.9h-6.8v-0.9H147.6z M147.1,28.1v-0.8h-5.8v0.8H147.1z M147.1,28.9h-5.8v0.9h5.8V28.9z"/>
<path class="st0" d="M153.9,22.6c-0.2,0.4-0.4,0.8-0.6,1.2h1.9v-1.5h1.2v1.5h3.6v1h-3.6v1.7h4.5v1h-4.5v0.7h-1.2v-0.7h-4.6v-1h4.6
	v-1.7h-2.5c-0.3,0.5-0.7,0.9-1,1.2l-0.8-0.9c0.9-0.8,1.6-1.7,2-2.7L153.9,22.6z M159.8,32.8h-1.1v-0.7h-5.9v0.7h-1.1v-4.2h8v4.2
	H159.8z M158.7,31.1v-1.6h-5.9v1.6H158.7z"/>
<path class="st0" d="M11.2,47.8v1.1h-10v-1.1H11.2z"/>
<path class="st0" d="M18.9,44.6H23v1h-8.8v3.1c0,0.8-0.1,1.6-0.2,2.5c-0.2,0.9-0.4,1.8-0.8,2.7l-0.9-0.8c0.3-0.7,0.5-1.4,0.7-2.2
	c0.1-0.8,0.1-1.5,0.1-2.2v-4.1h4.4c-0.2-0.3-0.4-0.6-0.7-0.9l1.3-0.2C18.5,43.8,18.7,44.2,18.9,44.6z M18.1,50.6v-4.9h1v4.9h3.5v0.9
	h-3.5v1.3H23v1h-8.8v-1h3.9v-1.3h-3.3v-0.9H18.1z M16.9,46.3c-0.1,0.4-0.2,0.8-0.3,1.1c0.5,0.5,0.9,1,1.3,1.6l-0.6,0.9
	c-0.3-0.6-0.7-1.1-1-1.5c-0.2,0.6-0.6,1.1-1.1,1.8l-0.7-0.9c0.4-0.5,0.7-0.9,0.9-1.4c0.2-0.4,0.4-1,0.5-1.7L16.9,46.3z M21.6,46.2
	c-0.1,0.5-0.2,1-0.3,1.3c0.6,0.5,1.1,1,1.7,1.6L22.4,50c-0.6-0.7-1-1.3-1.4-1.7c-0.2,0.6-0.6,1.2-1.1,1.9l-0.7-0.9
	c0.4-0.5,0.7-1,0.9-1.5c0.2-0.5,0.4-1.1,0.5-1.9L21.6,46.2z"/>
<path class="st0" d="M34.2,44.1v1h-3.5c-0.2,0.5-0.5,1-0.8,1.4V54h-1.2v-6c-0.1,0.1-0.2,0.2-0.3,0.3c-1,1-2.2,2-3.7,2.8L24,50.2
	c1.4-0.8,2.6-1.6,3.6-2.6c0.6-0.6,1.3-1.4,1.8-2.5h-5.2v-1C24.2,44.1,34.2,44.1,34.2,44.1z M34.2,50.2l-0.9,0.9
	c-0.7-0.9-1.6-1.9-2.8-3l0.8-0.8C32.5,48.3,33.4,49.2,34.2,50.2z"/>
<path class="st0" d="M39.6,50.2c-0.9,1.4-2,2.6-3.4,3.6l-0.8-1c1.2-0.9,2.3-2,3.3-3.4L39.6,50.2z M45,44.1V49h-8.3v-4.9H45z
	 M43.8,45.1h-5.9V48h5.9V45.1z M45.9,53.2l-1.1,0.7c-0.7-1.1-1.7-2.4-3-3.8l0.9-0.6C44.1,51,45.2,52.2,45.9,53.2z"/>
<path class="st0" d="M57.4,48.5v1h-4.5v1.1h3.9v0.9h-3.9v1.2c0.6,0,1.2,0.1,2,0.1c1.1,0,2,0,2.7-0.1l-0.3,1.1
	c-3.5,0-5.6-0.1-6.3-0.4c-0.7-0.2-1.3-0.7-1.7-1.4c-0.3,0.6-0.9,1.3-1.6,2l-0.8-1c0.6-0.5,1.1-1,1.4-1.5s0.6-1.1,0.7-1.9l1.1,0.2
	c-0.1,0.5-0.3,0.9-0.4,1.3c0.5,0.7,1,1.1,1.7,1.3c0.1,0,0.3,0.1,0.4,0.1v-3.1H47v-1L57.4,48.5L57.4,48.5z M56.4,43.7v4.2h-8.2v-4.2
	H56.4z M55.2,45.4v-0.7h-6v0.7H55.2z M55.2,46.2h-6V47h6V46.2z"/>
<path class="st0" d="M64.4,44.3v-0.8h1v0.8h2.7V46h0.6v0.9h-0.6v1.7h-2.7v0.7h2.8v0.8h-2.8v0.8h3.3v0.9h-3.3v1c0.2,0,0.3,0,0.5,0
	c1.3,0,2.4,0,3-0.1l-0.2,1.2c-3.6,0-5.7-0.1-6.5-0.2c-0.7-0.2-1.3-0.5-1.7-0.8l-0.1-0.1c-0.4,0.5-0.9,0.9-1.5,1.5l-0.6-1.1
	c0.6-0.4,1.1-0.9,1.4-1.3c-0.3-0.6-0.7-1.4-1.1-2.4l0.9-0.3c0.3,0.7,0.5,1.2,0.7,1.6c0,0,0-0.1,0.1-0.2c0.1-0.5,0.3-1.2,0.3-2.1h-2
	v-0.7c0.7-0.8,1.3-1.7,1.9-2.7h-2.1V44h3.3v1c-0.7,1.1-1.2,1.9-1.8,2.5h1.7c0,1.3-0.2,2.3-0.4,3.1c-0.1,0.4-0.2,0.7-0.4,1
	c0.3,0.3,0.7,0.6,1.2,0.7c0.4,0.1,1.2,0.2,2.2,0.3v-0.9h-2.7v-0.9h2.7V50H62v-0.8h2.2v-0.7h-2.1v-0.8h2.1v-0.9h-2.7v-0.9h2.7V45
	h-2.1v-0.8L64.4,44.3L64.4,44.3z M65.5,45.9h1.7V45h-1.7V45.9z M65.5,47.7h1.7v-0.9h-1.7V47.7z"/>
<path class="st0" d="M72.7,43.6c-0.1,0.2-0.2,0.4-0.3,0.6h2.9v0.9c0.5-0.6,0.9-1.1,1.1-1.7l1,0.2c-0.1,0.2-0.2,0.5-0.3,0.7h3.5v0.9
	h-1.9c0.1,0.3,0.2,0.6,0.3,0.9l-1.1,0.1c-0.1-0.3-0.2-0.7-0.2-0.9h-1.1c-0.3,0.4-0.5,0.7-0.8,1l-0.9-0.6c0.2-0.1,0.3-0.3,0.4-0.4
	h-1.5c0.1,0.3,0.2,0.5,0.3,0.8L73,46.2c-0.1-0.3-0.2-0.6-0.3-0.9h-0.9c-0.3,0.4-0.6,0.7-1,1l-0.9-0.6c0.9-0.7,1.4-1.4,1.8-2.2
	L72.7,43.6z M74.8,50.1v-0.6l-0.4-0.4c0.6-0.2,1-0.4,1.3-0.6c-0.3-0.1-0.6-0.3-0.9-0.4l0.5-0.7c0.3,0.1,0.6,0.2,0.9,0.3
	c0-0.1,0-0.2,0-0.3V47h-1.3v-0.8H79v2.2c0,0.2,0.1,0.3,0.3,0.3c0.1,0,0.2,0,0.2-0.1c0.1-0.1,0.1-0.4,0.1-0.9l0.9,0.3
	c-0.1,0.8-0.2,1.3-0.3,1.4c-0.1,0.1-0.4,0.2-0.8,0.2H79c-0.3,0-0.5-0.1-0.7-0.2c-0.2-0.2-0.2-0.4-0.2-0.7V47H77v0.4
	c0,0.3,0,0.5-0.1,0.7c0.4,0.2,0.7,0.3,1,0.5l-0.5,0.9c-0.3-0.2-0.7-0.4-1-0.6c-0.2,0.2-0.5,0.4-0.8,0.5h0.2V50h4.7v0.9h-3.6
	c0.4,0.3,0.8,0.6,1.2,0.7c0.6,0.3,1.3,0.6,2.4,0.8l-0.4,0.9c-1.3-0.4-2.2-0.8-2.8-1.2c-0.5-0.3-0.9-0.7-1.4-1.3v2.9h-1v-2.9
	c-0.3,0.4-0.7,0.8-1.2,1.1c-0.7,0.5-1.7,1-3.1,1.5L70,52.5c1.4-0.4,2.3-0.8,2.9-1.1c0.3-0.1,0.5-0.3,0.8-0.5H70V50L74.8,50.1
	L74.8,50.1z M74.5,46.5v0.9H73v1c0.5-0.1,1-0.2,1.5-0.3V49c-1.2,0.3-2.6,0.6-4.2,0.9l-0.2-1c0.6-0.1,1.3-0.1,1.9-0.2v-1.2h-1.6v-0.9
	L74.5,46.5L74.5,46.5z"/>
<path class="st0" d="M84.9,43.6c-0.1,0.6-0.3,1.2-0.6,1.7H86v2.4c0.3-0.6,0.6-1.1,0.8-1.7c0.2-0.6,0.4-1.5,0.6-2.6l1.1,0.2
	c-0.1,0.6-0.2,1.2-0.3,1.6h3.5c0,4-0.1,6.4-0.2,7.2c-0.1,0.6-0.3,1-0.6,1.2c-0.3,0.2-0.9,0.3-1.8,0.3c-0.3,0-0.5,0-0.9,0L88,52.8
	c0.3,0.1,0.7,0.1,1,0.1c0.7,0,1.1-0.2,1.2-0.7c0.1-0.6,0.2-2.5,0.3-5.8h-2.7c0,0.1-0.1,0.1-0.1,0.2c-0.3,0.8-0.7,1.7-1.3,2.6
	l-0.5-0.7v4.7h-1v-0.5h-2.1v0.9h-1v-8.2h1.4c0.2-0.6,0.4-1.2,0.6-1.8H84.9z M85,48.5v-2.2h-2.1v2.2H85z M85,51.7v-2.3h-2.1v2.3H85z
	 M89.7,50.5l-1.1,0.7c-0.3-0.8-0.8-1.8-1.3-2.9l0.9-0.6C88.9,48.9,89.4,49.8,89.7,50.5z"/>
<path class="st0" d="M98.9,44.3v-0.8h1v0.8h2.7V46h0.6v0.9h-0.6v1.7H100v0.7h2.8v0.8H100v0.8h3.3v0.9H100v1c0.2,0,0.3,0,0.5,0
	c1.3,0,2.4,0,3-0.1l-0.2,1.2c-3.6,0-5.7-0.1-6.5-0.2c-0.7-0.2-1.3-0.5-1.7-0.8L95,52.8c-0.4,0.5-0.9,0.9-1.5,1.5l-0.6-1.1
	c0.6-0.4,1.1-0.9,1.4-1.3c-0.3-0.6-0.7-1.4-1.1-2.4l0.9-0.3c0.3,0.7,0.5,1.2,0.7,1.6c0,0,0-0.1,0.1-0.2c0.1-0.5,0.3-1.2,0.3-2.1h-2
	v-0.7c0.7-0.8,1.3-1.7,1.9-2.7H93V44h3.3v1c-0.7,1.1-1.2,1.9-1.8,2.5h1.7c0,1.3-0.2,2.3-0.4,3.1c-0.1,0.4-0.2,0.7-0.4,1
	c0.3,0.3,0.7,0.6,1.2,0.7c0.4,0.1,1.2,0.2,2.2,0.3v-0.9h-2.7v-0.9h2.7V50h-2.2v-0.8h2.2v-0.7h-2.1v-0.8h2.1v-0.9h-2.7v-0.9h2.7V45
	h-2.1v-0.8L98.9,44.3L98.9,44.3z M100,45.9h1.7V45H100V45.9z M100,47.7h1.7v-0.9H100V47.7z"/>
<path class="st0" d="M107.2,43.6c-0.1,0.2-0.2,0.4-0.3,0.6h2.9v0.9c0.5-0.6,0.9-1.1,1.1-1.7l1,0.2c-0.1,0.2-0.2,0.5-0.3,0.7h3.5v0.9
	h-1.9c0.1,0.3,0.2,0.6,0.3,0.9l-1.1,0.1c-0.1-0.3-0.2-0.7-0.2-0.9H111c-0.3,0.4-0.5,0.7-0.8,1l-0.9-0.6c0.2-0.1,0.3-0.3,0.4-0.4
	h-1.5c0.1,0.3,0.2,0.5,0.3,0.8l-1.1,0.1c-0.1-0.3-0.2-0.6-0.3-0.9h-0.9c-0.3,0.4-0.6,0.7-1,1l-0.9-0.6c0.9-0.7,1.4-1.4,1.8-2.2
	L107.2,43.6z M109.3,50.1v-0.6l-0.4-0.4c0.6-0.2,1-0.4,1.3-0.6c-0.3-0.1-0.6-0.3-0.9-0.4l0.5-0.7c0.3,0.1,0.6,0.2,0.9,0.3
	c0-0.1,0-0.2,0-0.3V47h-1.3v-0.8h4.1v2.2c0,0.2,0.1,0.3,0.3,0.3c0.1,0,0.2,0,0.2-0.1c0.1-0.1,0.1-0.4,0.1-0.9L115,48
	c-0.1,0.8-0.2,1.3-0.3,1.4c-0.1,0.1-0.4,0.2-0.8,0.2h-0.4c-0.3,0-0.5-0.1-0.7-0.2c-0.2-0.2-0.2-0.4-0.2-0.7V47h-1.1v0.4
	c0,0.3,0,0.5-0.1,0.7c0.4,0.2,0.7,0.3,1,0.5l-0.5,0.9c-0.3-0.2-0.7-0.4-1-0.6c-0.2,0.2-0.5,0.4-0.8,0.5h0.2V50h4.7v0.9h-3.6
	c0.4,0.3,0.8,0.6,1.2,0.7c0.6,0.3,1.3,0.6,2.4,0.8l-0.4,0.9c-1.3-0.4-2.2-0.8-2.8-1.2c-0.5-0.3-0.9-0.7-1.4-1.3v2.9h-1v-2.9
	c-0.3,0.4-0.7,0.8-1.2,1.1c-0.7,0.5-1.7,1-3.1,1.5l-0.6-0.9c1.4-0.4,2.3-0.8,2.9-1.1c0.3-0.1,0.5-0.3,0.8-0.5h-3.7V50L109.3,50.1
	L109.3,50.1z M109,46.5v0.9h-1.5v1c0.5-0.1,1-0.2,1.5-0.3V49c-1.2,0.3-2.6,0.6-4.2,0.9l-0.2-1c0.6-0.1,1.3-0.1,1.9-0.2v-1.2h-1.6
	v-0.9L109,46.5L109,46.5z"/>
<path class="st0" d="M11.5,65.4v1H6.9c-0.1,0.5-0.3,1-0.5,1.4h4.4V74c0,0.4-0.1,0.7-0.3,0.9c-0.2,0.2-0.4,0.3-0.7,0.3H8.6l-0.2-1.1
	l0.9,0.1c0.2,0,0.4-0.2,0.4-0.4v-4.9H8.1v6H7v-6H5.5v6H4.4v-6H3v6.4H1.9v-7.4h3.3c0.2-0.4,0.4-0.9,0.5-1.4H0.9v-1L11.5,65.4
	L11.5,65.4z"/>
<path class="st0" d="M22.9,69.7v1h-4.5v1.1h3.9v0.9h-3.9v1.2c0.6,0,1.2,0.1,2,0.1c1.1,0,2,0,2.7-0.1L22.8,75c-3.5,0-5.6-0.1-6.3-0.4
	c-0.7-0.2-1.3-0.7-1.7-1.4c-0.3,0.6-0.9,1.3-1.6,2l-0.8-1c0.6-0.5,1.1-1,1.4-1.5s0.6-1.1,0.7-1.9l1.1,0.2c-0.1,0.5-0.3,0.9-0.4,1.3
	c0.5,0.7,1,1.1,1.7,1.3c0.1,0,0.3,0.1,0.4,0.1v-3.1h-4.9v-1L22.9,69.7L22.9,69.7z M21.9,64.9v4.2h-8.2v-4.2H21.9z M20.7,66.6v-0.7
	h-6v0.7H20.7z M20.7,67.4h-6v0.8h6V67.4z"/>
<path class="st0" d="M33.3,65v6.4h-2.5v2.2c0,0.2,0.1,0.4,0.4,0.4h1.7c0.1,0,0.2-0.1,0.3-0.2s0.1-0.7,0.1-1.6l1,0.3
	c-0.1,1.2-0.2,1.9-0.4,2.1s-0.5,0.3-0.9,0.3h-2.2c-0.3,0-0.6-0.1-0.8-0.3c-0.2-0.2-0.3-0.4-0.3-0.7v-2.6h-1.5
	c-0.1,0.9-0.4,1.6-0.9,2.2s-1.4,1.1-2.7,1.6L23.9,74c1.1-0.3,1.9-0.7,2.4-1.1c0.4-0.4,0.7-0.9,0.8-1.6H25V65H33.3z M32.3,66.8v-0.9
	h-6.2v0.9H32.3z M32.3,68.6v-0.9h-6.2v0.9H32.3z M32.3,69.5h-6.2v1h6.2V69.5z"/>
<path class="st0" d="M38,65.9h1.5v0.6l0.5-0.4c0.3,0.3,0.6,0.6,0.9,0.8c0.3-0.3,0.6-0.7,0.8-1.1h-1.9V65h3.1
	c0.1,0.3,0.3,0.6,0.5,0.9c0.1-0.1,0.2-0.1,0.3-0.2c0.2-0.2,0.3-0.4,0.5-0.6l0.8,0.4c-0.2,0.3-0.4,0.6-0.6,0.8
	c-0.1,0.1-0.2,0.2-0.4,0.3c0.1,0.1,0.2,0.3,0.4,0.4c0.1-0.1,0.3-0.2,0.4-0.3c0.2-0.2,0.4-0.4,0.6-0.7l0.8,0.5
	c-0.2,0.4-0.5,0.7-0.7,0.9c-0.1,0.1-0.2,0.2-0.3,0.3c0.3,0.3,0.7,0.5,1.1,0.7l-0.6,0.8c-0.4-0.3-0.8-0.5-1.2-0.8v0.5H41v-0.6
	c-0.4,0.3-0.8,0.6-1.3,0.9l-0.6-0.7v0.2h-3.3v-0.9h3.3v0.6c0.5-0.2,0.9-0.5,1.2-0.7c-0.2-0.2-0.4-0.5-0.7-0.7v0.1h-4.1v-0.9H37
	c-0.1-0.4-0.2-0.8-0.4-1.1l1.1-0.1C37.7,65,37.9,65.4,38,65.9z M39.1,69.3v0.9h-3.3v-0.9H39.1z M39.1,74.4h-2.3v0.8h-1v-4h3.3V74.4z
	 M38.1,73.5v-1.4h-1.3v1.4H38.1z M42.2,74.1H43c0.2-0.5,0.4-1,0.5-1.5l1.1,0.1c-0.1,0.5-0.3,1-0.5,1.4h1.8V75h-6.3v-0.9h1.6
	c-0.1-0.4-0.3-0.8-0.6-1.2l0.9-0.4C41.8,72.9,42,73.5,42.2,74.1z M45.3,69.5v2.8h-5.4v-2.8H45.3z M44.3,70.4h-3.5v1.1h3.5V70.4z
	 M43.8,67.8c-0.1-0.1-0.1-0.1-0.2-0.2c-0.5-0.4-0.8-0.9-1.1-1.4c-0.3,0.5-0.5,0.9-0.8,1.2c-0.1,0.2-0.3,0.3-0.4,0.4H43.8z"/>
<path class="st0" d="M50.7,74.1h-1v-0.9h-1.4v1.1h-1v-8.9h3.4V74.1z M49.7,68.9v-2.4h-1.4v2.4H49.7z M49.7,72.2v-2.4h-1.4v2.4H49.7z
	 M53.6,65.8v-1.1h1v1.1h2.5v1h-2.5V68h2.9v1h-1.1v1.2h1.2v1h-1.2v2.7c0,0.4-0.1,0.7-0.3,0.9c-0.2,0.2-0.5,0.3-0.9,0.3h-1.4L53.6,74
	c0.6,0.1,1,0.1,1.4,0.1c0.3,0,0.4-0.1,0.4-0.3v-2.6h-4.5v-1h4.5V69H51v-1h2.7v-1.2h-2.4v-1H53.6z M54.1,73.1l-1,0.7
	c-0.4-0.5-0.9-1.2-1.6-1.8l0.9-0.5C53.1,72.1,53.6,72.7,54.1,73.1z"/>
<path class="st0" d="M61.7,65.1c-0.3,0.9-0.5,1.6-0.8,2.2v7.8h-1v-5.9c-0.3,0.5-0.6,0.9-1,1.4l-0.4-1.3c0.5-0.6,0.9-1.3,1.2-2
	c0.4-0.6,0.7-1.5,1-2.6L61.7,65.1z M68.7,68.5L65,68.9c0.1,0.7,0.1,1.3,0.2,1.7c0.3,1.1,0.6,1.9,1.1,2.4c0.5,0.6,0.9,0.9,1.3,0.9
	c0.1,0,0.2,0,0.2-0.1c0.1-0.1,0.2-0.7,0.3-1.8l1.1,0.6c-0.2,1.1-0.4,1.8-0.6,2.1c-0.2,0.3-0.5,0.4-0.9,0.4c-0.6,0-1.3-0.4-2-1.2
	c-0.6-0.7-1.1-1.7-1.5-3.1c-0.1-0.5-0.2-1.1-0.3-1.8l-2.5,0.3l-0.1-1l2.5-0.3c-0.1-0.9-0.1-2-0.1-3.3h1.1c0,1.2,0.1,2.3,0.2,3.2
	l3.7-0.4V68.5z M68,66.6l-1,0.7c-0.3-0.5-0.8-1.1-1.3-1.7l0.8-0.5C67.1,65.7,67.6,66.2,68,66.6z"/>
<path class="st0" d="M73.4,64.8c-0.1,0.6-0.3,1.2-0.6,1.7h1.7v2.4c0.3-0.6,0.6-1.1,0.8-1.7c0.2-0.6,0.4-1.5,0.6-2.6l1.1,0.2
	c-0.1,0.6-0.2,1.2-0.3,1.6h3.5c0,4-0.1,6.4-0.2,7.2c-0.1,0.6-0.3,1-0.6,1.2c-0.3,0.2-0.9,0.3-1.8,0.3c-0.3,0-0.5,0-0.9,0L76.5,74
	c0.3,0.1,0.7,0.1,1,0.1c0.7,0,1.1-0.2,1.2-0.7c0.1-0.6,0.2-2.5,0.3-5.8h-2.7c0,0.1-0.1,0.1-0.1,0.2c-0.3,0.8-0.7,1.7-1.3,2.6
	l-0.5-0.7v4.7h-1v-0.5h-2.1v0.9h-1v-8.2h1.4c0.2-0.6,0.4-1.2,0.6-1.8C72.3,64.8,73.4,64.8,73.4,64.8z M73.5,69.7v-2.2h-2.1v2.2H73.5
	z M73.5,72.9v-2.3h-2.1v2.3H73.5z M78.2,71.7l-1.1,0.7c-0.3-0.8-0.8-1.8-1.3-2.9l0.9-0.6C77.4,70.1,77.9,71,78.2,71.7z"/>
<path class="st0" d="M83.8,68.1c-0.3,2.3-0.7,4.2-1.2,5.8l-1.1-0.7c0.5-1.7,0.9-3.4,1.1-5.3L83.8,68.1z M85.7,67.5v6.1
	c0,0.3,0.1,0.4,0.4,0.4h2.1c0.1,0,0.3-0.1,0.3-0.3c0.1-0.2,0.1-1,0.2-2.4l1.1,0.3c-0.1,1.7-0.2,2.7-0.4,3c-0.2,0.3-0.5,0.5-1,0.5
	h-2.6c-0.3,0-0.6-0.1-0.8-0.3c-0.2-0.2-0.3-0.5-0.3-0.8v-6.5C84.7,67.5,85.7,67.5,85.7,67.5z M88.7,67.7l-1.1,0.8
	c-0.5-0.8-1.2-1.8-2.1-2.8l0.9-0.6C87.4,66,88.1,66.9,88.7,67.7z M91.9,73l-1.1,0.5c-0.4-1.9-0.9-3.7-1.5-5.2l1.1-0.4
	C91,69.6,91.5,71.2,91.9,73z"/>
<path class="st0" d="M97.8,68.9h-3.5v6.3h-1V65h4.5V68.9z M96.8,66.5v-0.7h-2.5v0.7H96.8z M96.8,68v-0.8h-2.5V68H96.8z M101.1,69.4
	v0.9h-1.3v1.2h1.6v0.9h-1.6v2.4h-1v-2.4h-1.3c0,0.5-0.2,0.9-0.4,1.2c-0.3,0.4-0.7,0.9-1.4,1.3l-0.9-0.7c0.6-0.3,1.1-0.6,1.4-1
	c0.2-0.2,0.3-0.5,0.3-0.8h-1.7v-0.9h1.7v-1.2h-1.3v-0.9H101.1z M98.9,70.3h-1.3v1.2h1.3V70.3z M103.2,65v8.9c0,0.4-0.1,0.7-0.3,0.9
	c-0.2,0.2-0.5,0.3-0.9,0.3h-1.1l-0.2-1h1.1c0.3,0,0.4-0.1,0.4-0.4v-4.8h-3.5V65h0.5H103.2z M102.1,66.5v-0.7h-2.6v0.7H102.1z
	 M102.1,67.2h-2.6V68h2.6V67.2z"/>
<path class="st0" d="M105.9,66.8c0.1-0.7,0.2-1.4,0.3-2.1l1,0.1c-0.1,0.7-0.2,1.4-0.3,2h1.8v0.9c-0.1,1.2-0.3,2.3-0.5,3.2
	c-0.1,0.4-0.3,0.9-0.4,1.2c0.5,0.4,0.9,0.8,1.3,1.2l-0.7,0.8c-0.3-0.3-0.7-0.7-1.1-1c-0.4,0.7-1.1,1.3-1.9,2.1l-0.8-0.9
	c0.8-0.6,1.4-1.2,1.9-1.9c-0.5-0.4-1.1-0.9-1.8-1.3c0.4-1,0.8-2.1,1.1-3.3h-1.3v-0.9L105.9,66.8L105.9,66.8z M105.9,70.7
	c0.4,0.3,0.7,0.5,1,0.8c0.4-0.8,0.6-2.1,0.8-3.8h-1C106.4,68.9,106.2,70,105.9,70.7z M111.9,64.8c-0.3,1.3-0.8,2.4-1.4,3.5
	c1,0,1.9-0.1,2.7-0.2c-0.3-0.6-0.7-1.1-1-1.6l1-0.3c0.7,1,1.3,2.1,1.9,3.2l-1,0.4c-0.1-0.3-0.3-0.6-0.4-0.8c-1,0.2-2.6,0.3-4.7,0.4
	l-0.2-1.1c0.2,0,0.4,0,0.7,0c0.6-1.1,1.1-2.3,1.3-3.6L111.9,64.8z M114.3,75.2h-1v-0.6h-3.1v0.6h-1v-4.9h5.2L114.3,75.2L114.3,75.2z
	 M113.3,73.6v-2.3h-3.1v2.3H113.3z"/>
<path class="st0" d="M4.2,89.3c-0.3,0.7-0.7,1.3-1.1,1.8v5.3h-1v-4.2c-0.3,0.3-0.6,0.5-0.9,0.8l-0.3-1.2c0.5-0.4,0.9-0.8,1.3-1.2
	S3,89.7,3.3,89L4.2,89.3z M4.3,86.4c-0.4,0.6-0.8,1-1.2,1.4s-1,0.8-1.6,1.2L1,88c0.5-0.2,1-0.5,1.4-0.9c0.3-0.3,0.7-0.7,1-1.2
	L4.3,86.4z M10.4,86.1c-0.2,0.7-0.3,1.2-0.5,1.6c0.5,0.3,1,0.7,1.5,1.1l-0.7,1c-0.5-0.5-0.9-0.9-1.2-1.2c-0.3,0.5-0.6,0.9-1,1.4h0.1
	v1.6H11v1H8.6v2.6c0.3,0,0.7,0.1,1.1,0.1c0.6,0,1.2,0,1.9-0.1l-0.2,1.1c-2.2,0-3.5-0.1-4.1-0.3c-0.5-0.1-0.9-0.4-1.4-0.9
	c-0.2-0.2-0.4-0.5-0.6-0.8c-0.3,0.7-0.7,1.3-1.1,2l-0.8-0.7c0.6-0.9,1-1.8,1.2-2.5C4.8,92.5,5,91.7,5,90.7l1,0.1
	c-0.1,1-0.2,1.7-0.4,2.3c0.3,0.6,0.6,1.1,1,1.4c0.2,0.2,0.5,0.4,0.8,0.5v-5h0.8l-0.6-0.8c0.5-0.5,0.9-1,1.1-1.5s0.4-1.1,0.6-1.9
	L10.4,86.1z M6.9,86.1c-0.1,0.6-0.3,1.1-0.5,1.4c0.4,0.3,0.9,0.7,1.3,1l-0.7,1c-0.5-0.5-0.8-0.9-1.1-1.2c-0.3,0.5-0.7,1-1.2,1.5
	L4,89c0.5-0.5,0.9-0.9,1.2-1.4c0.3-0.4,0.5-1,0.6-1.7L6.9,86.1z"/>
<path class="st0" d="M15.4,88.6v0.8c-0.4,0.6-0.9,1.3-1.4,2h1.4v0.7c-0.2,0.7-0.3,1.3-0.5,1.7c0.4,0.5,0.8,0.8,1.1,0.9
	c0.2,0.1,0.6,0.3,1.1,0.3c0.6,0.1,1.6,0.1,3.3,0.1c1.2,0,2.1,0,2.7-0.1L23,96.1c-3.2,0-5.1,0-5.8-0.1c-0.6-0.1-1.1-0.2-1.5-0.4
	c-0.3-0.1-0.7-0.5-1.1-1c-0.3,0.6-0.8,1.1-1.3,1.7l-0.8-0.8c0.6-0.6,1-1.1,1.3-1.6c0.2-0.3,0.4-0.8,0.7-1.7h-1.6v-0.9
	c0.5-0.5,1-1.1,1.5-1.9h-1.7v-0.9L15.4,88.6L15.4,88.6z M15.2,87.5l-0.8,0.8c-0.3-0.5-0.7-1-1.3-1.6l0.7-0.7
	C14.4,86.5,14.8,87,15.2,87.5z M19.7,86.9h3.2v1h-7.2v-1h2.9c-0.1-0.3-0.3-0.6-0.4-0.9l1.1-0.1C19.4,86.2,19.5,86.5,19.7,86.9z
	 M22.3,88.5v0.9h-6v-0.9H22.3z M22.3,90v0.9h-6V90H22.3z M22.3,91.6v2.8h-5.8v-2.8H22.3z M21.2,92.5h-3.8v1h3.8V92.5z"/>
<path class="st0" d="M34.2,90.2v1.1h-10v-1.1H34.2z"/>
<path class="st0" d="M38.9,86.9h2.8v1H39c-0.3,0.6-0.6,1.3-1.1,1.8c0.6,0,1.1,0,1.6-0.1c0.3-0.4,0.5-0.8,0.8-1.2l0.9,0.4
	c-0.6,1.2-1.4,2.2-2.2,3c-0.7,0.7-1.7,1.2-2.9,1.7l-0.5-0.9c1.2-0.4,2.1-1,2.8-1.6c0.2-0.1,0.4-0.3,0.6-0.6c-0.8,0.1-1.8,0.1-3,0.2
	l-0.1-0.9c0.3,0,0.7,0,1,0c0.5-0.6,0.9-1.2,1.2-1.9h-2.3v-1h2.3c-0.1-0.3-0.3-0.6-0.5-0.9l1.1-0.1C38.6,86.2,38.8,86.5,38.9,86.9z
	 M41.8,91.2c-0.6,0.9-1.3,1.7-1.9,2.3c0.6,0.5,1.2,1,1.8,1.5l-0.6,1c-0.6-0.7-1.3-1.3-1.9-1.8c-0.9,0.7-1.9,1.4-3.2,2.1l-0.6-1
	c1.1-0.5,2.2-1.2,3.2-2.1c0.8-0.7,1.6-1.6,2.3-2.7L41.8,91.2z M43.3,86.7v7.5h-1.1v-7.5H43.3z M45.5,85.8V95c0,0.4-0.1,0.7-0.3,0.9
	c-0.2,0.2-0.5,0.3-1,0.3h-1.4L42.5,95c0.6,0.1,1,0.1,1.4,0.1c0.3,0,0.4-0.1,0.4-0.3v-9C44.3,85.8,45.5,85.8,45.5,85.8z"/>
<path class="st0" d="M51.8,90.1h-3.5v6.3h-1V86.2h4.5V90.1z M50.8,87.7V87h-2.5v0.7H50.8z M50.8,89.2v-0.8h-2.5v0.8H50.8z
	 M55.1,90.6v0.9h-1.3v1.2h1.6v0.9h-1.6V96h-1v-2.4h-1.3c0,0.5-0.2,0.9-0.4,1.2c-0.3,0.4-0.7,0.9-1.4,1.3l-0.9-0.7
	c0.6-0.3,1.1-0.6,1.4-1c0.2-0.2,0.3-0.5,0.3-0.8h-1.7v-0.9h1.7v-1.2h-1.3v-0.9H55.1z M52.9,91.5h-1.3v1.2h1.3V91.5z M57.2,86.2v8.9
	c0,0.4-0.1,0.7-0.3,0.9c-0.2,0.2-0.5,0.3-0.9,0.3h-1.1l-0.2-1h1.1c0.3,0,0.4-0.1,0.4-0.4v-4.8h-3.5v-3.9h0.5H57.2z M56.1,87.7V87
	h-2.6v0.7H56.1z M56.1,88.5h-2.6v0.8h2.6V88.5z"/>
<path class="st0" d="M59.9,88c0.1-0.7,0.2-1.4,0.3-2.1l1,0.1c-0.1,0.7-0.2,1.4-0.3,2h1.8v0.9c-0.1,1.2-0.3,2.3-0.5,3.2
	c-0.1,0.4-0.3,0.9-0.4,1.2c0.5,0.4,0.9,0.8,1.3,1.2l-0.7,0.8c-0.3-0.3-0.7-0.7-1.1-1c-0.4,0.7-1.1,1.3-1.9,2.1l-0.8-0.9
	c0.8-0.6,1.4-1.2,1.9-1.9c-0.5-0.4-1.1-0.9-1.8-1.3c0.4-1,0.8-2.1,1.1-3.3h-1.3v-1L59.9,88L59.9,88z M59.9,91.9
	c0.4,0.3,0.7,0.5,1,0.8c0.4-0.8,0.6-2.1,0.8-3.8h-1C60.4,90.1,60.2,91.2,59.9,91.9z M65.9,86c-0.3,1.3-0.8,2.4-1.4,3.5
	c1,0,1.9-0.1,2.7-0.2c-0.3-0.6-0.7-1.1-1-1.6l1-0.3c0.7,1,1.3,2.1,1.9,3.2l-1,0.4c-0.1-0.3-0.3-0.6-0.4-0.8c-1,0.2-2.6,0.3-4.7,0.4
	l-0.2-1.1c0.2,0,0.4,0,0.7,0c0.6-1.1,1.1-2.3,1.3-3.6L65.9,86z M68.3,96.4h-1v-0.6h-3.1v0.6h-1v-4.9h5.2L68.3,96.4L68.3,96.4z
	 M67.3,94.8v-2.3h-3.1v2.3H67.3z"/>
<path class="st0" d="M2.5,107.9v2.1h1.3v-2.8h1v10.3h-1V113H3c0,1.1-0.1,1.8-0.2,2.2c-0.1,0.8-0.4,1.5-0.8,2.2l-0.9-0.7
	c0.3-0.5,0.6-1,0.7-1.6c0.1-0.5,0.1-1.2,0.2-2.2H1.1V112h2.7v-1H1.5v-3.1H2.5z M8.1,107.4c-0.1,0.2-0.3,0.4-0.4,0.5h3.5v0.8
	c-0.5,0.9-1.2,1.6-2,2.2c-1.1,0.9-2.4,1.4-3.8,1.8L5,111.8c0.5-0.1,0.9-0.2,1.4-0.3c-0.3-0.3-0.7-0.6-1-0.9l0.7-0.4
	c0.5,0.4,0.9,0.7,1.3,1c0.2-0.1,0.5-0.2,0.7-0.4c-0.4-0.3-0.9-0.6-1.4-1l0.6-0.6c0.6,0.3,1.1,0.7,1.6,1c0.4-0.4,0.9-0.8,1.2-1.3H7
	c-0.4,0.5-0.9,0.9-1.4,1.2l-0.7-0.9c1-0.6,1.7-1.2,2.2-2L8.1,107.4z M9.2,112.8v-1.2h1.1v1.2h1.1v1h-1.1v2.6c0,0.4-0.1,0.7-0.3,0.8
	c-0.2,0.2-0.5,0.3-0.9,0.3H7.8l-0.2-1.1c0.5,0.1,0.9,0.1,1.2,0.1s0.4-0.1,0.4-0.3v-2.4H5v-1H9.2z M7.8,115.9l-1,0.7
	c-0.3-0.6-0.7-1.2-1.2-1.9l0.9-0.5C7.1,114.8,7.5,115.4,7.8,115.9z"/>
<path class="st0" d="M22.6,109.1H20c0,0.6,0.1,1,0.2,1.4c0.1,0.3,0.2,0.6,0.3,0.9c0.4-0.5,0.7-1.1,1.1-1.9l0.9,0.5
	c-0.5,1-1,1.8-1.4,2.4c0,0.1,0.1,0.1,0.1,0.2c0.2,0.3,0.4,0.5,0.7,0.5c0.1,0,0.2-0.5,0.3-1.5l0.9,0.7c-0.3,1-0.5,1.5-0.6,1.7
	s-0.3,0.3-0.6,0.3c-0.4,0-0.8-0.2-1.2-0.6c-0.2-0.2-0.3-0.3-0.4-0.5c-0.4,0.4-0.9,0.9-1.4,1.3l-0.5-0.8h-3.5v-2.6h3.6v2.3
	c0.4-0.3,0.9-0.7,1.2-1.1c-0.2-0.3-0.3-0.7-0.4-1.1c-0.2-0.5-0.3-1.2-0.4-2h-4.7v1c0,0.7-0.1,1.4-0.2,2.1c-0.2,0.8-0.4,1.5-0.8,2.3
	l-0.9-0.8c0.3-0.6,0.6-1.2,0.7-1.8s0.1-1.2,0.1-1.8v-1.9h5.7c0-0.3,0-0.7,0-1.1h1c0,0.4,0,0.8,0,1.1h1.4c-0.2-0.2-0.4-0.5-0.6-0.8
	l0.7-0.4c0.4,0.3,0.6,0.6,0.9,0.9l-0.5,0.4h0.7v0.7C22.4,109.1,22.6,109.1,22.6,109.1z M14.7,114.7c-0.3,1-0.8,1.8-1.2,2.5l-0.9-0.6
	c0.5-0.7,0.9-1.4,1.3-2.3L14.7,114.7z M18.6,109.6v0.9h-3.8v-0.9H18.6z M16.4,114.3v1.9c0,0.2,0.1,0.3,0.4,0.3h2.5
	c0.1,0,0.2,0,0.2-0.1c0.1-0.1,0.1-0.5,0.1-1.2l1,0.3c-0.1,1-0.2,1.5-0.4,1.7c-0.1,0.2-0.4,0.3-0.8,0.3h-3.1c-0.3,0-0.6-0.1-0.7-0.2
	c-0.2-0.2-0.3-0.4-0.3-0.7v-2.1h1.1C16.4,114.5,16.4,114.3,16.4,114.3z M17.6,111.9h-1.7v0.9h1.7V111.9z M18.9,115.4L18,116
	c-0.2-0.4-0.6-1-1-1.5l0.8-0.4C18.3,114.5,18.7,115,18.9,115.4z M23,116.3l-0.9,0.6c-0.4-0.6-0.9-1.3-1.6-2.1l0.8-0.5
	C21.9,115.1,22.6,115.7,23,116.3z"/>
<path class="st0" d="M29.8,108.1h4.5v2.8h-1.1v-1.8h-7.9v1.8h-1.1v-2.8h4.4c-0.1-0.3-0.3-0.6-0.4-0.9l1.2-0.2
	C29.5,107.4,29.7,107.7,29.8,108.1z M32.9,113.1h-6.3v0.9h6.8v3.7h-1v-0.4h-5.8v0.4h-1.1V110h7.4V113.1z M31.8,112.1V111h-5.2v1.1
	H31.8z M32.3,116.2v-1.3h-5.8v1.3H32.3z"/>
<path class="st0" d="M37.3,109.2V107h1.1v2.2H40v1h-1.6v2.2c0.5-0.2,1.1-0.4,1.6-0.6v1.1c-0.5,0.2-1.1,0.4-1.6,0.6v2.9
	c0,0.4-0.1,0.7-0.3,0.9c-0.2,0.2-0.5,0.3-0.9,0.3h-1.3l-0.2-1.2c0.5,0.1,0.9,0.1,1.2,0.1s0.4-0.1,0.4-0.3v-2.4
	c-0.6,0.2-1.1,0.3-1.7,0.4l-0.1-1.1c0.6-0.1,1.2-0.2,1.8-0.3v-2.5h-1.8v-1L37.3,109.2C37.3,109.3,37.3,109.2,37.3,109.2z M46,107.9
	v1.1h-1.8v7.3c0,0.4-0.1,0.7-0.3,0.9c-0.2,0.2-0.5,0.3-1,0.3h-1.7l-0.2-1.2c0.7,0.1,1.2,0.1,1.7,0.1c0.3,0,0.5-0.1,0.5-0.3V109h-3
	v-1.1H46z"/>
<path class="st0" d="M51.8,111.3h-3.5v6.3h-1v-10.2h4.5V111.3z M50.8,108.9v-0.7h-2.5v0.7H50.8z M50.8,110.4v-0.8h-2.5v0.8H50.8z
	 M55.1,111.8v0.9h-1.3v1.2h1.6v0.9h-1.6v2.4h-1v-2.4h-1.3c0,0.5-0.2,0.9-0.4,1.2c-0.3,0.4-0.7,0.9-1.4,1.3l-0.9-0.7
	c0.6-0.3,1.1-0.6,1.4-1c0.2-0.2,0.3-0.5,0.3-0.8h-1.7v-0.9h1.7v-1.2h-1.3v-0.9H55.1z M52.9,112.7h-1.3v1.2h1.3V112.7z M57.2,107.4
	v8.9c0,0.4-0.1,0.7-0.3,0.9c-0.2,0.2-0.5,0.3-0.9,0.3h-1.1l-0.2-1h1.1c0.3,0,0.4-0.1,0.4-0.4v-4.8h-3.5v-3.9h0.5H57.2z M56.1,108.9
	v-0.7h-2.6v0.7H56.1z M56.1,109.6h-2.6v0.8h2.6V109.6z"/>
<path class="st0" d="M64.1,113.5c-0.2,0.2-0.5,0.5-0.9,0.7l-0.4-0.6c0.5-0.3,0.9-0.6,0.9-1H63v-1.4h1.4v1.1
	C64.4,112.9,64.3,113.3,64.1,113.5z"/>
<path class="st0" d="M80,107.9c-1.2,0.2-2.6,0.3-4.3,0.4v0.7h4.6v0.9h-4.6v0.7h3.8v3.7h-3.8v0.6H80v0.9h-4.3v0.6h4.7v0.9H70.1v-0.9
	h4.6v-0.6h-4.2v-0.9h4.2v-0.6h-3.8v-3.7h3.8v-0.7h-4.5V109h4.5v-0.7c-1.2,0-2.5,0.1-3.9,0.1l-0.3-0.9c3.5,0,6.6-0.2,9-0.5L80,107.9z
	 M74.6,112v-0.7h-2.8v0.7H74.6z M74.6,112.8h-2.8v0.7h2.8V112.8z M75.7,112h2.7v-0.7h-2.7V112z M78.4,112.8h-2.7v0.7h2.7V112.8z"/>
<path class="st0" d="M84.9,107.9h2v0.9h-1.1l0.5,0.2c-0.2,0.6-0.4,1.2-0.6,1.6h1.2v0.9h-2.1v0.9h2.1v0.9h-2c0.8,0.6,1.4,1.1,2,1.7
	l-0.7,0.7c-0.4-0.4-0.8-0.9-1.4-1.3v3.3h-1v-3c-0.5,0.8-1.1,1.5-1.8,2.1l-0.6-0.9c0.9-0.7,1.7-1.5,2.2-2.5h-1.9v-0.9h2.1v-0.9h-2.2
	v-0.9h1.3c-0.1-0.5-0.3-1-0.5-1.6l0.6-0.2h-1.3V108h2c-0.1-0.3-0.3-0.5-0.5-0.7l1-0.1C84.4,107.3,84.7,107.6,84.9,107.9z
	 M84.7,110.6c0.2-0.5,0.4-1.1,0.6-1.8h-2.1c0.2,0.5,0.4,1.1,0.6,1.8H84.7z M92,108.4c-1.1,0.3-2.2,0.5-3.5,0.5v1.9H92v0.9h-1.2v5.8
	h-1v-5.8h-1.3v1c0,0.8-0.2,1.7-0.4,2.6c-0.2,0.8-0.6,1.5-1.1,2.2l-0.8-0.8c0.4-0.6,0.7-1.2,0.9-1.7c0.2-0.6,0.3-1.4,0.3-2.2V108
	c1.6,0,2.9-0.2,4-0.7L92,108.4z"/>
<path class="st0" d="M101.9,110.4v1h-3.1v1.7h3.3v1h-3.3v2.1c0.6,0.1,1.3,0.1,2.1,0.1c0.8,0,1.6,0,2.4-0.1l-0.2,1.2
	c-2.8,0-4.5-0.1-5.2-0.3c-0.6-0.1-1.2-0.4-1.8-0.8c-0.3-0.2-0.6-0.5-0.9-0.9c-0.4,0.7-0.9,1.4-1.6,2.2l-0.8-0.9
	c0.7-0.7,1.2-1.3,1.6-1.9c0.3-0.6,0.6-1.4,0.8-2.4l1.1,0.2c-0.2,0.7-0.4,1.4-0.6,1.9c0.3,0.6,0.8,1,1.3,1.3c0.2,0.1,0.5,0.3,0.7,0.4
	v-4.6h-3.2v-1h7.4C101.9,110.6,101.9,110.4,101.9,110.4z M98.9,108.1h4.4v2.8h-1.1v-1.8h-7.9v1.8h-1.1v-2.8h4.5
	c-0.1-0.3-0.3-0.6-0.5-0.9l1.2-0.2C98.6,107.4,98.7,107.7,98.9,108.1z"/>
<path class="st0" d="M108.7,108h2.1c0.2-0.3,0.4-0.7,0.6-1.1l1.1,0.4c-0.2,0.3-0.3,0.5-0.5,0.7h2.5v0.8h-4.2v0.5h3.8v0.8h-3.8v0.5
	h4.7v0.8h-10.4v-0.8h4.6v-0.5h-3.6v-0.8h3.6v-0.5H105V108h2.6c-0.1-0.2-0.3-0.4-0.5-0.6l1-0.4C108.3,107.3,108.5,107.6,108.7,108z
	 M109.8,112.4c-0.5,0.1-1.1,0.2-1.7,0.3v0.7h2.4c-0.1-0.4-0.2-1-0.3-1.5l1-0.1c0.1,0.6,0.2,1.2,0.3,1.7h3.4v0.9h-3.2
	c0.1,0.3,0.1,0.5,0.2,0.7c0,0.1,0.1,0.2,0.1,0.3c0.4-0.3,0.7-0.6,1.1-0.9l0.7,0.5c-0.4,0.5-0.9,0.9-1.3,1.2c0.1,0.1,0.2,0.2,0.3,0.3
	c0.3,0.3,0.5,0.4,0.7,0.4s0.4-0.4,0.7-1.1l0.9,0.6c-0.3,0.7-0.6,1.1-0.9,1.3c-0.2,0.1-0.4,0.2-0.7,0.2s-0.7-0.2-1.1-0.5
	c-0.3-0.2-0.5-0.5-0.7-0.7c-0.6,0.3-1.4,0.6-2.3,0.9l-0.4-0.9c0.9-0.2,1.7-0.5,2.3-0.7c-0.1-0.1-0.1-0.3-0.2-0.4
	c-0.1-0.3-0.3-0.6-0.4-1.1h-2.6v0.7c0.6,0,1.2-0.1,1.8-0.2v0.8c-0.4,0.1-1,0.2-1.8,0.2v0.9c0,0.4-0.1,0.6-0.3,0.7
	c-0.2,0.2-0.5,0.2-0.9,0.2h-1.3l-0.2-1c0.5,0.1,0.9,0.1,1.3,0.1c0.3,0,0.4-0.1,0.4-0.2V116c-0.7,0.1-1.4,0.1-2.2,0.2l-0.1-0.9
	c0.8,0,1.6,0,2.3-0.1v-0.7h-2.4v-0.9h2.4V113c-0.5,0-1.1,0-1.7,0l-0.3-0.8c1.6,0,3-0.1,4.2-0.3L109.8,112.4z M114.2,112.5l-0.7,0.7
	c-0.3-0.3-0.8-0.7-1.4-1.1l0.6-0.6C113.4,111.9,113.8,112.2,114.2,112.5z"/>
<path class="st0" d="M119.3,107.5c-0.3,0.7-0.7,1.3-1,1.8v4.4h-1v-3.2c-0.3,0.3-0.6,0.6-1,0.9l-0.4-1.2c0.5-0.4,0.9-0.9,1.3-1.3
	s0.8-1,1.1-1.8L119.3,107.5z M118.1,114.5c-0.3,1-0.7,1.9-1.1,2.7l-1-0.7c0.4-0.7,0.9-1.5,1.2-2.4L118.1,114.5z M119.8,114v2
	c0,0.2,0.1,0.4,0.4,0.4h2.6c0.2,0,0.3,0,0.4-0.1s0.2-0.5,0.2-1.3l1,0.3c-0.1,1-0.3,1.6-0.5,1.8c-0.2,0.2-0.5,0.3-1,0.3h-3.1
	c-0.3,0-0.6-0.1-0.8-0.3c-0.2-0.2-0.3-0.4-0.3-0.7V114H119.8z M121.7,107.2c-0.1,0.2-0.2,0.4-0.3,0.6h4.7c-0.1,0.7-0.3,1.4-0.5,2.2
	l-1.1-0.3c0.1-0.3,0.2-0.6,0.3-0.9h-1.6v3.8c0,0.4-0.1,0.6-0.3,0.8c-0.2,0.2-0.5,0.2-0.9,0.2h-1l-0.2-1c0.4,0.1,0.7,0.1,1,0.1
	s0.4-0.1,0.4-0.2v-3.6h-1.4c-0.4,0.6-0.9,1.2-1.3,1.6l-0.7-0.9c0.9-0.7,1.5-1.5,2-2.4C120.8,107.2,121.7,107.2,121.7,107.2z
	 M121.4,110.2c-0.4,1-0.9,1.9-1.5,2.6l-0.9-0.6c0.7-0.7,1.2-1.5,1.4-2.3L121.4,110.2z M122.7,115.3l-1,0.4c-0.3-0.6-0.7-1.2-1-1.7
	l1-0.3C122,114.2,122.4,114.7,122.7,115.3z M126.3,112.3l-1,0.7c-0.3-0.7-0.8-1.6-1.4-2.5l0.8-0.5
	C125.3,110.8,125.9,111.6,126.3,112.3z M126.6,116.3l-1,0.4c-0.5-1.1-1.1-2-1.7-2.9l1-0.3C125.6,114.5,126.1,115.4,126.6,116.3z"/>
<path class="st0" d="M132.7,108c-1,0.4-2.2,0.7-3.5,0.8v2.3h3v1h-3v3.3c1.2-0.2,2.3-0.5,3.4-0.9v1c-1.4,0.4-3,0.9-4.9,1.3l-0.3-1.2
	c0.2,0,0.4-0.1,0.7-0.1v-7.8c1.5,0,2.8-0.3,4-0.8L132.7,108z M137.6,115.1c0,0.4-0.1,0.7-0.3,0.9s-0.4,0.3-0.7,0.3H135l-0.2-1.1
	l1.4,0.1c0.2,0,0.4-0.2,0.4-0.5v-6.3h-2.5v9.2H133v-10.2h4.6V115.1z"/>
<path class="st0" d="M143.9,107.2c-0.2,0.2-0.4,0.4-0.6,0.6h3.8v0.7c-0.4,0.4-0.8,0.7-1.2,0.9h2.8v2.7h-3.8
	c-0.1,0.1-0.3,0.2-0.4,0.3c0.3,0.4,0.6,0.7,0.8,1.1c1-0.2,2-0.6,2.9-1.1l0.8,0.8c-0.6,0.3-1.3,0.6-1.9,0.8c0.3,0.4,0.6,0.8,1,1.1
	c0.4,0.4,1,0.8,1.7,1.2L149,117c-0.9-0.5-1.6-1.1-2.1-1.6c-0.4-0.3-0.7-0.8-0.9-1.2c-0.2,0-0.3,0.1-0.5,0.1c0.1,0.4,0.2,0.9,0.2,1.3
	c0,0.7-0.1,1.2-0.4,1.5c-0.3,0.3-1.1,0.5-2.5,0.5l-0.4-1.1c0,0.1,0.2,0.1,0.6,0.1c0.7,0,1.1-0.1,1.3-0.1c0.2-0.2,0.3-0.4,0.3-0.8
	c0-0.1,0-0.3,0-0.4c-0.7,0.4-1.3,0.8-1.9,1c-0.9,0.4-2,0.7-3.3,1.1l-0.5-0.9c1.3-0.3,2.5-0.6,3.4-1c0.8-0.3,1.5-0.7,2.1-1.1
	c0-0.1,0-0.1-0.1-0.2c0-0.1-0.1-0.1-0.1-0.2c-0.7,0.4-1.2,0.7-1.7,0.8c-0.8,0.3-1.7,0.6-2.8,0.8l-0.5-0.9c1.1-0.2,2.1-0.5,2.9-0.8
	c0.6-0.2,1.2-0.5,1.7-0.8c-0.1-0.1-0.2-0.2-0.3-0.3c0,0,0,0-0.1,0c-1,0.4-2.2,0.8-3.6,1.1l-0.5-0.9c1.3-0.2,2.3-0.4,3.1-0.7
	c0.3-0.1,0.5-0.2,0.7-0.3h-3v-2.2c-0.2,0.1-0.4,0.2-0.5,0.3l-0.7-0.9c1.7-0.7,3-1.5,3.8-2.3L143.9,107.2z M144.2,109.4
	c0.4-0.2,0.8-0.4,1.2-0.7h-3.2c-0.3,0.3-0.7,0.5-1,0.7H144.2z M144,110.3h-2.7v0.9h2.7V110.3z M147.6,110.3h-2.7v0.9h2.7V110.3z"/>
<path class="st0" d="M155.1,109.2V107h1.2v2.2h4v5.4h-4v2.9h-1.2v-2.9h-4v-5.4H155.1z M155.1,110.3h-2.8v3.4h2.8V110.3z
	 M159.1,110.3h-2.9v3.4h2.9V110.3z"/>
<path class="st0" d="M165.4,107.2c-0.1,0.6-0.3,1.2-0.6,1.7h1.7v2.4c0.3-0.6,0.6-1.1,0.8-1.7s0.4-1.5,0.6-2.6l1.1,0.2
	c-0.1,0.6-0.2,1.2-0.3,1.6h3.5c0,4-0.1,6.4-0.2,7.2c-0.1,0.6-0.3,1-0.6,1.2s-0.9,0.3-1.8,0.3c-0.3,0-0.5,0-0.9,0l-0.2-1.1
	c0.3,0.1,0.7,0.1,1,0.1c0.7,0,1.1-0.2,1.2-0.7c0.1-0.6,0.2-2.5,0.3-5.8h-2.7c0,0.1-0.1,0.1-0.1,0.2c-0.3,0.8-0.7,1.7-1.3,2.6
	l-0.5-0.7v4.7h-1v-0.5h-2.1v0.9h-1V109h1.4c0.2-0.6,0.4-1.2,0.6-1.8H165.4z M165.5,112.1v-2.2h-2.1v2.2H165.5z M165.5,115.3V113
	h-2.1v2.3H165.5z M170.2,114.1l-1.1,0.7c-0.3-0.8-0.8-1.8-1.3-2.9l0.9-0.6C169.4,112.5,169.9,113.4,170.2,114.1z"/>
<path class="st0" d="M175,109.2V107h1v2.2h1.1v0.9H176v0.2c0.4,0.5,0.9,1,1.3,1.6l-0.6,0.9c-0.3-0.5-0.5-0.9-0.7-1.3v6h-1v-5.2
	c-0.3,0.9-0.7,1.7-1.1,2.4l-0.4-1.2c0.6-1,1.1-2.1,1.5-3.4h-1.3v-0.9H175z M179.9,107v5.3c0,1.2-0.2,2.2-0.5,2.9
	c-0.3,0.8-0.9,1.6-1.8,2.4l-0.9-0.8c0.8-0.6,1.3-1.2,1.7-2c0.2-0.4,0.3-0.9,0.4-1.6c-0.5,0.4-1.1,0.8-1.7,1.1l-0.5-0.9
	c0.8-0.3,1.5-0.8,2.3-1.5v-5L179.9,107L179.9,107z M178.8,111l-0.9,0.4c-0.3-1-0.6-1.8-0.9-2.6l0.9-0.3
	C178.3,109.3,178.6,110.1,178.8,111z M181.6,107v4.4c0.9,0.5,1.7,1.2,2.4,1.9l-0.6,0.9c-0.6-0.6-1.2-1.2-1.8-1.6v3.5
	c0,0.2,0.1,0.3,0.4,0.3h0.4c0.1,0,0.2-0.1,0.3-0.2s0.1-0.7,0.1-1.6l1,0.3c-0.1,1.2-0.2,1.9-0.4,2.1s-0.5,0.3-0.9,0.3h-1
	c-0.3,0-0.6-0.1-0.8-0.2c-0.2-0.2-0.3-0.4-0.3-0.7V107H181.6z M183.8,108.9c-0.3,0.9-0.7,1.7-1.2,2.4l-0.9-0.6
	c0.4-0.6,0.9-1.3,1.2-2.1L183.8,108.9z"/>
<path class="st0" d="M195.2,117.5h-1v-0.4h-7.9v0.4h-1v-10.2h9.9V117.5z M194.2,116.2v-8h-7.9v8H194.2z M193.3,111.5v2.1h-3.2
	c-0.1,0.1-0.1,0.1-0.1,0.2v2.2h-1v-1.4c-0.6,0.4-1.3,0.8-2.1,1l-0.5-0.8c0.8-0.2,1.4-0.5,1.9-0.8c0.2-0.1,0.5-0.3,0.6-0.5h-1.6v-2.1
	L193.3,111.5L193.3,111.5z M189.6,109v-0.5h0.9v0.5h2.7v0.7h-2.7v0.6h3.2v0.8h-7.2v-0.8h3.1v-0.6H187V109H189.6z M192.4,112.2h-4.2
	v0.6h4.2V112.2z M191.8,114.4c0.2-0.2,0.4-0.5,0.5-0.7l0.9,0.5c-0.1,0.2-0.3,0.4-0.5,0.6c0.4,0.2,0.8,0.4,1.1,0.6l-0.5,0.8
	c-1-0.6-2-1.2-3.1-1.5l0.4-0.7C191,114.1,191.4,114.2,191.8,114.4z"/>
<path class="st0" d="M2.5,130.4v-2.2h1v2.2h1.1v0.9H3.5v0.2c0.4,0.5,0.9,1,1.3,1.6L4.2,134c-0.3-0.5-0.5-0.9-0.7-1.3v6h-1v-5.2
	c-0.3,0.9-0.7,1.7-1.1,2.4L1,134.7c0.6-1,1.1-2.1,1.5-3.4H1.2v-0.9L2.5,130.4L2.5,130.4z M7.4,128.2v5.3c0,1.2-0.2,2.2-0.5,2.9
	c-0.3,0.8-0.9,1.6-1.8,2.4L4.2,138c0.8-0.6,1.3-1.2,1.7-2c0.2-0.4,0.3-0.9,0.4-1.6c-0.5,0.4-1.1,0.8-1.7,1.1l-0.5-0.9
	c0.8-0.3,1.5-0.8,2.3-1.4v-5L7.4,128.2L7.4,128.2z M6.3,132.1l-0.9,0.4c-0.3-1-0.6-1.8-0.9-2.6l0.9-0.3
	C5.8,130.5,6.1,131.3,6.3,132.1z M9.1,128.2v4.4c0.9,0.5,1.7,1.2,2.4,1.9l-0.6,0.9c-0.6-0.6-1.2-1.2-1.8-1.6v3.5
	c0,0.2,0.1,0.3,0.4,0.3h0.4c0.1,0,0.2-0.1,0.3-0.2c0.1-0.1,0.1-0.7,0.1-1.6l1,0.3c-0.1,1.2-0.2,1.9-0.4,2.1
	c-0.2,0.2-0.5,0.3-0.9,0.3H9c-0.3,0-0.6-0.1-0.8-0.2c-0.2-0.2-0.3-0.4-0.3-0.7v-9.3L9.1,128.2C9.1,128.3,9.1,128.2,9.1,128.2z
	 M11.3,130.1c-0.3,0.9-0.7,1.7-1.2,2.4l-0.9-0.6c0.4-0.6,0.9-1.3,1.2-2.1L11.3,130.1z"/>
<path class="st0" d="M22.7,138.7h-1v-0.4h-7.9v0.4h-1v-10.2h9.9V138.7z M21.7,137.4v-8h-7.9v8H21.7z M20.8,132.7v2.1h-3.2
	c-0.1,0.1-0.1,0.1-0.1,0.2v2.2h-0.9v-1.4c-0.6,0.4-1.3,0.8-2.1,1L14,136c0.8-0.2,1.4-0.5,1.9-0.8c0.2-0.1,0.5-0.3,0.6-0.5h-1.6v-2.1
	L20.8,132.7L20.8,132.7z M17.1,130.2v-0.5H18v0.5h2.7v0.7H18v0.6h3.2v0.8H14v-0.8h3.1v-0.6h-2.6v-0.7H17.1z M19.9,133.4h-4.2v0.6
	h4.2V133.4z M19.3,135.6c0.2-0.2,0.4-0.5,0.5-0.7l0.9,0.5c-0.1,0.2-0.3,0.4-0.5,0.6c0.4,0.2,0.8,0.4,1.1,0.6l-0.5,0.8
	c-1-0.6-2-1.2-3.1-1.5l0.4-0.7C18.5,135.3,18.9,135.4,19.3,135.6z"/>
<path class="st0" d="M28.6,128.2v5.3c0,1.2-0.2,2.1-0.7,2.9c-0.4,0.8-1.3,1.5-2.6,2.3l-0.9-0.8c1.2-0.6,2-1.2,2.5-1.9
	c0.2-0.2,0.3-0.5,0.4-0.7c-0.9,0.3-2,0.5-3.1,0.8l-0.3-1c1.3-0.2,2.5-0.5,3.6-0.9c0-0.2,0-0.4,0-0.7v-0.3h-3.2v-1h3.2v-1.4h-3.4v-1
	h3.4v-1.5h1.1V128.2z M31.2,128.2v1.5h3.2v1h-3.2v1.6h3v1h-3v1.7h3.4v1h-3.4v2.7H30v-10.6L31.2,128.2L31.2,128.2z"/>
<path class="st0" d="M37,130.4v-2.2h1v2.2h1.1v0.9H38v0.2c0.4,0.5,0.9,1,1.3,1.6l-0.6,0.9c-0.3-0.5-0.5-0.9-0.7-1.3v6h-1v-5.2
	c-0.3,0.9-0.7,1.7-1.1,2.4l-0.4-1.2c0.6-1,1.1-2.1,1.5-3.4h-1.3v-0.9H37z M41.9,128.2v5.3c0,1.2-0.2,2.2-0.5,2.9
	c-0.3,0.8-0.9,1.6-1.8,2.4l-0.9-0.8c0.8-0.6,1.3-1.2,1.7-2c0.2-0.4,0.3-0.9,0.4-1.6c-0.5,0.4-1.1,0.8-1.7,1.1l-0.5-0.9
	c0.8-0.3,1.5-0.8,2.3-1.4v-5H41.9z M40.8,132.1l-0.9,0.4c-0.3-1-0.6-1.8-0.9-2.6l0.9-0.3C40.3,130.5,40.6,131.3,40.8,132.1z
	 M43.6,128.2v4.4c0.9,0.5,1.7,1.2,2.4,1.9l-0.6,0.9c-0.6-0.6-1.2-1.2-1.8-1.6v3.5c0,0.2,0.1,0.3,0.4,0.3h0.4c0.1,0,0.2-0.1,0.3-0.2
	c0.1-0.1,0.1-0.7,0.1-1.6l1,0.3c-0.1,1.2-0.2,1.9-0.4,2.1c-0.2,0.2-0.5,0.3-0.9,0.3h-1c-0.3,0-0.6-0.1-0.8-0.2
	c-0.2-0.2-0.3-0.4-0.3-0.7v-9.3L43.6,128.2C43.6,128.3,43.6,128.2,43.6,128.2z M45.8,130.1c-0.3,0.9-0.7,1.7-1.2,2.4l-0.9-0.6
	c0.4-0.6,0.9-1.3,1.2-2.1L45.8,130.1z"/>
<path class="st0" d="M57.2,138.7h-1v-0.4h-7.9v0.4h-1v-10.2h9.9C57.2,128.5,57.2,138.7,57.2,138.7z M56.2,137.4v-8h-7.9v8H56.2z
	 M55.3,132.7v2.1h-3.2c-0.1,0.1-0.1,0.1-0.1,0.2v2.2h-1v-1.4c-0.6,0.4-1.3,0.8-2.1,1l-0.5-0.8c0.8-0.2,1.4-0.5,1.9-0.8
	c0.2-0.1,0.5-0.3,0.6-0.5h-1.6v-2.1L55.3,132.7L55.3,132.7z M51.6,130.2v-0.5h0.9v0.5h2.7v0.7h-2.7v0.6h3.2v0.8h-7.2v-0.8h3.1v-0.6
	H49v-0.7H51.6z M54.4,133.4h-4.2v0.6h4.2V133.4z M53.8,135.6c0.2-0.2,0.4-0.5,0.5-0.7l0.9,0.5c-0.1,0.2-0.3,0.4-0.5,0.6
	c0.4,0.2,0.8,0.4,1.1,0.6l-0.5,0.8c-1-0.6-2-1.2-3.1-1.5l0.4-0.7C53,135.3,53.4,135.4,53.8,135.6z"/>
<path class="st0" d="M64.1,134.8c-0.2,0.2-0.5,0.5-0.9,0.7l-0.4-0.6c0.5-0.3,0.9-0.6,0.9-1H63v-1.4h1.4v1.1
	C64.4,134.1,64.3,134.5,64.1,134.8z"/>
<path class="st0" d="M71.5,130.4v-2.2h1v2.2h1.1v0.9h-1.1v0.2c0.4,0.5,0.9,1,1.3,1.6l-0.6,0.9c-0.3-0.5-0.5-0.9-0.7-1.3v6h-1v-5.2
	c-0.3,0.9-0.7,1.7-1.1,2.4l-0.4-1.2c0.6-1,1.1-2.1,1.5-3.4h-1.3v-0.9H71.5z M76.4,128.2v5.3c0,1.2-0.2,2.2-0.5,2.9
	c-0.3,0.8-0.9,1.6-1.8,2.4l-0.9-0.8c0.8-0.6,1.3-1.2,1.7-2c0.2-0.4,0.3-0.9,0.4-1.6c-0.5,0.4-1.1,0.8-1.7,1.1l-0.5-0.9
	c0.8-0.3,1.5-0.8,2.3-1.4v-5H76.4z M75.3,132.1l-0.9,0.4c-0.3-1-0.6-1.8-0.9-2.6l0.9-0.3C74.8,130.5,75.1,131.3,75.3,132.1z
	 M78.1,128.2v4.4c0.9,0.5,1.7,1.2,2.4,1.9l-0.6,0.9c-0.6-0.6-1.2-1.2-1.8-1.6v3.5c0,0.2,0.1,0.3,0.4,0.3h0.4c0.1,0,0.2-0.1,0.3-0.2
	c0.1-0.1,0.1-0.7,0.1-1.6l1,0.3c-0.1,1.2-0.2,1.9-0.4,2.1c-0.2,0.2-0.5,0.3-0.9,0.3h-1c-0.3,0-0.6-0.1-0.8-0.2
	c-0.2-0.2-0.3-0.4-0.3-0.7v-9.3L78.1,128.2C78.1,128.3,78.1,128.2,78.1,128.2z M80.3,130.1c-0.3,0.9-0.7,1.7-1.2,2.4l-0.9-0.6
	c0.4-0.6,0.9-1.3,1.2-2.1L80.3,130.1z"/>
<path class="st0" d="M91.7,138.7h-1v-0.4h-7.9v0.4h-1v-10.2h9.9V138.7z M90.7,137.4v-8h-7.9v8H90.7z M89.8,132.7v2.1h-3.2
	c-0.1,0.1-0.1,0.1-0.1,0.2v2.2h-0.9v-1.4c-0.6,0.4-1.3,0.8-2.1,1L83,136c0.8-0.2,1.4-0.5,1.9-0.8c0.2-0.1,0.5-0.3,0.6-0.5h-1.6v-2.1
	L89.8,132.7L89.8,132.7z M86.1,130.2v-0.5H87v0.5h2.7v0.7H87v0.6h3.2v0.8H83v-0.8h3.1v-0.6h-2.6v-0.7H86.1z M88.9,133.4h-4.2v0.6
	h4.2V133.4z M88.3,135.6c0.2-0.2,0.4-0.5,0.5-0.7l0.9,0.5c-0.1,0.2-0.3,0.4-0.5,0.6c0.4,0.2,0.8,0.4,1.1,0.6l-0.5,0.8
	c-1-0.6-2-1.2-3.1-1.5l0.4-0.7C87.5,135.3,87.9,135.4,88.3,135.6z"/>
<path class="st0" d="M94.1,130.9v-2.1h1.2v2.1H97v-2.6h1.1v2.6h2.2v-2.6h1.1v2.6h1.9v1h-1.9v4H97v-4h-1.7v5.3h7.9v1h-7.9v0.5h-1.2
	V132H93v-1h1.1V130.9z M98.1,134.9h2.2v-3h-2.2V134.9z"/>
<path class="st0" d="M113.9,128.6v5h-2c0.4,0.4,0.7,0.6,1,0.8c0.5,0.3,1.2,0.6,2.1,0.9l-0.4,1c-1.2-0.4-2.1-0.9-2.6-1.3v3.8h-1.1
	v-4.2h0.6c-0.3-0.3-0.6-0.6-1-1h-1.7c-0.3,0.4-0.7,0.8-1,1h0.8c0,1.1-0.3,2-0.7,2.6c-0.4,0.6-1.2,1.1-2.5,1.6l-0.7-0.9
	c1.1-0.3,1.8-0.7,2.2-1c0.4-0.4,0.7-1.1,0.8-2c-0.7,0.5-1.6,1-2.6,1.3l-0.6-0.9c1-0.3,1.7-0.7,2.3-1c0.3-0.2,0.5-0.4,0.8-0.6h-1.8
	v-5L113.9,128.6L113.9,128.6z M109.2,130.7v-1.1h-2.5v1.1H109.2z M109.2,131.6h-2.5v1.1h2.5V131.6z M112.9,130.7v-1.1h-2.7v1.1
	H112.9z M112.9,131.6h-2.7v1.1h2.7V131.6z"/>
<path class="st0" d="M117.3,135.8c-0.1,1.2-0.3,2.1-0.5,2.9l-1-0.3c0.3-0.8,0.5-1.7,0.6-2.7L117.3,135.8z M118.8,128.5
	c-0.4,1.1-0.8,2-1.2,2.8c0.4,0,0.7-0.1,1.1-0.2c0.2-0.5,0.5-1,0.7-1.6l0.9,0.4c-0.9,1.8-1.7,3.3-2.6,4.4c0.6,0,1.2-0.1,1.6-0.3
	c-0.1-0.4-0.3-0.8-0.4-1.1l0.8-0.3c0.3,0.7,0.6,1.6,0.9,2.6l-0.9,0.2c0-0.2-0.1-0.4-0.1-0.6c-0.8,0.2-1.9,0.4-3.3,0.5l-0.3-1
	c0.2,0,0.4,0,0.7,0c0.5-0.6,1-1.4,1.5-2.4c-0.6,0.1-1.3,0.3-2,0.4l-0.2-0.9c0.2,0,0.4,0,0.5-0.1c0.5-1,1-2.1,1.4-3.3L118.8,128.5z
	 M118.9,138.3l-0.9,0.1c0-1-0.1-1.8-0.2-2.4l0.8-0.1C118.7,136.4,118.8,137.3,118.9,138.3z M120.3,137.1c0.3-0.8,0.5-1.6,0.7-2.4
	c0.2-1,0.3-2.6,0.3-4.7v-0.4h-1.1v-0.9h5.4c-0.2,1.2-0.5,2.2-0.7,3h1.4c-0.3,2-0.8,3.6-1.4,4.6c0.5,0.5,1,1,1.7,1.5l-0.6,1
	c-0.7-0.5-1.3-1.1-1.7-1.6c-0.6,0.7-1.4,1.2-2.3,1.6l-0.7-0.9c1.1-0.4,1.8-0.9,2.4-1.5c-0.1-0.1-0.1-0.2-0.2-0.3
	c-0.4-0.7-0.8-1.7-1.2-2.8c-0.1,0.6-0.1,1.2-0.2,1.8c-0.2,1.3-0.7,2.6-1.3,4l-0.9-0.7c0.1-0.2,0.2-0.5,0.3-0.7l-0.7,0.2
	c-0.1-0.7-0.2-1.3-0.4-1.9l0.8-0.2C120,136.1,120.2,136.6,120.3,137.1z M124.1,135.3c0.4-0.7,0.7-1.6,0.9-2.7h-1.4
	c0.2-0.7,0.5-1.7,0.8-3h-2.1v0.4c0,0.3,0,0.6,0,0.9C122.9,133.1,123.6,134.6,124.1,135.3z"/>
</svg>
