<?xml version="1.0" encoding="utf-8"?>
<!-- Generator: Adobe Illustrator 25.2.3, SVG Export Plug-In . SVG Version: 6.00 Build 0)  -->
<svg version="1.1" id="圖層_1" xmlns="http://www.w3.org/2000/svg" xmlns:xlink="http://www.w3.org/1999/xlink" x="0px" y="0px"
	 viewBox="0 0 200 76" style="enable-background:new 0 0 200 76;" xml:space="preserve">
<style type="text/css">
	.st0{fill:#3E3A39;}
</style>
<path class="st0" d="M3.5,2.1h1.4l3.4,9.3H6.9l-1-2.8H2.3l-1,2.8H0L3.5,2.1z M5.6,7.6L4.2,3.5L2.7,7.6H5.6z"/>
<path class="st0" d="M15.3,2.1v1.1h-3.1v8.2h-1.3V3.2H7.7V2.1H15.3z"/>
<path class="st0" d="M24.3,2.1v1.1h-3.1v8.2h-1.3V3.2h-3.1V2.1H24.3z"/>
<path class="st0" d="M28.7,1.2c-0.1,0.3-0.2,0.5-0.3,0.8h2.4v0.9c0.5-0.6,0.9-1.2,1.1-1.8l0.9,0.2c-0.1,0.3-0.2,0.5-0.3,0.8h3.1V3
	h-1.7c0.1,0.3,0.2,0.7,0.3,1l-0.9,0.3c-0.1-0.4-0.2-0.9-0.4-1.3H32c-0.2,0.4-0.5,0.7-0.8,1l-0.8-0.6c0.2-0.1,0.3-0.3,0.4-0.4h-1.3
	c0.1,0.3,0.2,0.7,0.3,1.2l-1,0.1c0-0.5-0.1-1-0.2-1.3h-0.7c-0.3,0.5-0.6,0.9-1,1.3l-0.8-0.6c0.8-0.8,1.4-1.6,1.7-2.6L28.7,1.2z
	 M27.2,5.5c0,0.9-0.1,1.7-0.3,2.4l-0.8-0.2c0.2-0.8,0.3-1.5,0.3-2.3L27.2,5.5z M28.3,3.7v7.8h-0.9V3.7H28.3z M29.6,6.8L28.8,7
	c-0.1-0.6-0.3-1.2-0.5-1.8L29,5C29.3,5.6,29.5,6.2,29.6,6.8z M31.4,4.8V3.7h0.9v1.1h2.4v2.6h0.9v0.9h-2.5c0.2,0.5,0.4,0.9,0.7,1.2
	c0.4,0.5,1,0.9,1.7,1.2L35,11.6c-0.9-0.5-1.5-1-2-1.6c-0.4-0.5-0.7-1.1-0.8-1.7h-0.1c-0.1,0.6-0.3,1-0.5,1.4c-0.4,0.8-1.1,1.4-2,1.9
	l-0.5-0.9c0.9-0.4,1.5-1,1.8-1.7c0.1-0.2,0.2-0.5,0.3-0.8H29V7.3h2.4c0-0.4,0.1-0.8,0.1-1.2V5.6h-2V4.7L31.4,4.8L31.4,4.8z
	 M32.3,6.2c0,0.4,0,0.8-0.1,1.2h1.6V5.7h-1.5V6.2z"/>
<path class="st0" d="M41.5,1c0.6,0.6,1.3,1.2,1.9,1.5c0.5,0.3,1.3,0.7,2.4,1.1l-0.6,0.9c-0.3-0.1-0.6-0.2-0.9-0.3v4h-3
	c0.2,0.4,0.5,0.7,0.8,1C43,9,43.9,8.6,44.7,8.1l0.6,0.7c-0.7,0.4-1.5,0.7-2.4,1c0,0,0,0,0.1,0c0.5,0.3,1.4,0.5,2.8,0.6l-0.3,1.1
	c-1.6-0.3-2.7-0.6-3.4-1.1c-0.7-0.5-1.2-1.2-1.8-2.2h-1.7v2c0.7-0.1,1.4-0.3,2.2-0.5v1.1c-1.2,0.3-2.5,0.6-3.9,0.8l-0.1-1.1
	c0.3,0,0.6,0,0.9-0.1v-6c-0.3,0.2-0.7,0.3-1,0.5l-0.4-1C37.5,3.5,38.4,3,39,2.6c0.5-0.3,1-0.8,1.6-1.5H41L41.5,1L41.5,1z M40.8,3.8
	c-0.1-0.3-0.2-0.6-0.4-0.9l0.9-0.1c0.1,0.3,0.2,0.7,0.4,1h1.9c-0.8-0.4-1.7-1.1-2.5-1.9c-0.6,0.6-1.2,1.1-1.8,1.5
	c-0.2,0.1-0.4,0.3-0.6,0.4H40.8z M43.4,5.5V4.7h-4.6v0.8H43.4z M43.4,7.2V6.3h-4.6v0.9H43.4z"/>
<path class="st0" d="M51.9,1v3.3h3.7v6c0,0.4-0.1,0.6-0.3,0.8c-0.2,0.2-0.4,0.3-0.6,0.3h-1.4l-0.2-1h1.2c0.2,0,0.3-0.1,0.3-0.4V5.3
	H48v6.2h-1V4.3h3.8V1H51.9z M49.7,3.7l-0.9,0.5c-0.4-0.8-0.9-1.6-1.4-2.2l0.9-0.4C48.8,2.2,49.2,2.9,49.7,3.7z M53.4,6.2v3.6h-4.2
	V6.2H53.4z M52.4,7.2h-2.2v1.7h2.2V7.2z M55.2,2c-0.4,0.8-0.8,1.5-1.4,2.2l-0.9-0.5c0.6-0.7,1-1.5,1.4-2.2L55.2,2z"/>
<path class="st0" d="M62.2,7.9c-0.2-0.4-0.5-0.8-0.9-1.3c-0.3-0.3-0.7-0.7-1.2-1.2l0.7-0.6C61.1,5.1,61.5,5.5,62,6
	c0.3,0.3,0.6,0.8,1,1.3L62.2,7.9z"/>
<path class="st0" d="M70.1,1.8h1.8v0.9h-1l0.5,0.2c-0.2,0.6-0.4,1.2-0.5,1.6H72v0.9h-2v0.9h1.8v0.9H70c0.7,0.6,1.3,1.1,1.8,1.7
	l-0.6,0.7c-0.3-0.4-0.7-0.9-1.2-1.3v3.3h-0.9v-3c-0.5,0.8-1,1.5-1.6,2.1l-0.6-0.9c0.8-0.7,1.5-1.5,2-2.5h-1.7V6.4H69V5.5h-2V4.6h1.1
	c-0.1-0.5-0.3-1-0.5-1.6l0.5-0.2h-1.2V1.9H69c-0.1-0.3-0.3-0.5-0.4-0.7l0.9-0.1C69.7,1.2,69.9,1.5,70.1,1.8z M70,4.5
	c0.2-0.5,0.3-1.1,0.5-1.8h-1.9c0.2,0.5,0.4,1.1,0.5,1.8H70z M76.5,2.4c-0.9,0.3-2,0.5-3.1,0.5v1.9h3.1v0.9h-1v5.8h-0.9V5.7h-1.2v1
	c0,0.8-0.1,1.7-0.3,2.6c-0.2,0.8-0.5,1.5-0.9,2.2l-0.7-0.8c0.3-0.6,0.6-1.2,0.8-1.7c0.1-0.6,0.2-1.4,0.3-2.2V2
	c1.4,0,2.6-0.2,3.5-0.7L76.5,2.4z"/>
<path class="st0" d="M82.6,1v4.2h4v0.9h-2.9V10c0,0.2,0.1,0.4,0.4,0.4h1.3c0.1,0,0.2-0.1,0.3-0.2c0.1-0.1,0.1-0.8,0.2-1.9l1,0.3
	c-0.1,1.3-0.2,2.1-0.4,2.4c-0.2,0.2-0.5,0.4-0.9,0.4h-1.8c-0.3,0-0.6-0.1-0.7-0.3c-0.2-0.2-0.3-0.4-0.3-0.8V6.1h-1.4
	c-0.1,1.5-0.4,2.5-0.8,3.3c-0.5,0.8-1.3,1.6-2.4,2.2l-0.7-1c1.1-0.5,1.8-1.1,2.2-1.7c0.4-0.5,0.6-1.5,0.7-2.8h-2.7V5.2h4V1H82.6z
	 M80.5,4.1l-1,0.5c-0.3-1-0.7-1.8-1.1-2.6l1-0.4C79.7,2.5,80.1,3.3,80.5,4.1z M85.7,2.1C85.4,3,85,3.9,84.5,4.7l-1-0.5
	c0.5-0.9,0.9-1.7,1.2-2.6L85.7,2.1z"/>
<path class="st0" d="M96.8,9.7v1.1h-9.2V9.7H96.8z M96.3,1.9V3h-8.2V1.9H96.3z M95.8,5.7v1.1h-7.2V5.7H95.8z"/>
<path class="st0" d="M99.7,2.3V1h0.9v1.3h1.3v1h-1.3v1.3h1.5v1h-1.4v1h1.2v1h-1.2v2.2c0.2,0.1,0.4,0.2,0.7,0.3
	c0.6,0.1,1.6,0.2,3.3,0.2c1.2,0,2,0,2.6-0.1l-0.1,1c-3.1,0-5-0.1-5.7-0.2c-0.6-0.1-1.1-0.3-1.5-0.6c-0.3-0.2-0.6-0.6-1-1.2
	c-0.1,0.9-0.3,1.6-0.5,2.2l-0.8-0.6c0.4-1.2,0.6-2.7,0.7-4.6l0.9,0.1c0,0.6-0.1,1.1-0.1,1.6c0.2,0.4,0.4,0.7,0.6,0.9V5.4H98v-1h1.7
	V3.1h-1.5v-1h1.5V2.3z M107,3.4h-1.8c0,1,0.1,1.9,0.2,2.6c0.3-0.6,0.5-1.3,0.7-2.1l0.8,0.4c-0.4,1.3-0.8,2.3-1.2,3
	c0.3,0.9,0.5,1.4,0.6,1.4c0.1,0,0.2-0.5,0.4-1.4l0.7,0.5c-0.2,1-0.4,1.5-0.6,1.7c-0.1,0.2-0.3,0.2-0.4,0.2c-0.3,0-0.6-0.2-0.8-0.7
	c-0.2-0.3-0.3-0.6-0.4-1c-0.5,0.6-1.1,1-1.8,1.5l-0.5-0.9c0.8-0.5,1.5-1,2-1.7c-0.1-0.2-0.1-0.5-0.2-0.7c-0.1-0.8-0.2-1.8-0.3-2.9
	h-1v3.6c0.3-0.2,0.7-0.4,1-0.7v0.9c-0.8,0.6-1.6,1.2-2.6,1.7l-0.2-1c0.3-0.1,0.7-0.3,1-0.5v-5h1.9c0-0.5,0-1,0-1.5h0.8
	c0,0.5,0,1,0,1.5h0.8c-0.1-0.3-0.3-0.6-0.5-1l0.6-0.4c0.3,0.4,0.5,0.7,0.7,1l-0.5,0.4h0.8v1.1H107z"/>
<path class="st0" d="M113.4,7.9c-0.2-0.4-0.5-0.8-0.9-1.3c-0.3-0.3-0.7-0.7-1.2-1.2l0.7-0.6c0.3,0.3,0.7,0.7,1.2,1.2
	c0.3,0.3,0.6,0.8,1,1.3L113.4,7.9z"/>
<path class="st0" d="M120.9,3.8v0.8c-0.3,0.6-0.7,1.3-1.3,2h1.2v0.7c-0.2,0.8-0.3,1.3-0.5,1.8c0.4,0.5,0.7,0.8,0.9,0.9
	c0.2,0.1,0.6,0.3,1,0.3c0.5,0.1,1.5,0.1,2.9,0.1c1.1,0,1.9,0,2.4-0.1l-0.1,1.1c-2.8,0-4.6,0-5.2-0.1c-0.6-0.1-1-0.2-1.3-0.4
	c-0.3-0.2-0.6-0.5-1-1c-0.3,0.5-0.7,1.1-1.1,1.7l-0.7-0.8c0.5-0.6,0.9-1.1,1.1-1.6c0.2-0.3,0.4-0.8,0.6-1.7h-1.4V6.6
	c0.4-0.5,0.8-1.1,1.3-1.9h-1.5V3.8H120.9z M120.6,2.7L120,3.4c-0.3-0.5-0.7-1.1-1.2-1.7l0.6-0.6C119.8,1.7,120.2,2.2,120.6,2.7z
	 M127.2,4.6V7h-2.7c-0.1,0.2-0.3,0.3-0.4,0.5V10h-0.9V8.3c-0.4,0.3-1,0.6-1.6,0.9l-0.5-0.9c0.6-0.2,1.1-0.5,1.6-0.9
	c0.2-0.1,0.4-0.3,0.5-0.4h-1.6V4.6H127.2z M123.9,1.7V1h0.9v0.7h2.4v0.9h-2.4v0.7h2.7v0.9h-6.3V3.3h2.7V2.6h-2.4V1.7H123.9z
	 M126.3,5.5h-3.8v0.7h3.8V5.5z M125.5,8.1c0.3-0.3,0.6-0.7,0.8-1l0.7,0.5c-0.2,0.3-0.5,0.5-0.8,0.9c0.4,0.2,0.8,0.4,1.1,0.7
	l-0.5,0.9c-0.9-0.7-1.8-1.2-2.7-1.6l0.4-0.7C125,7.9,125.2,8,125.5,8.1z"/>
<path class="st0" d="M132.7,1.9V1h1v0.9h4v1h-4v0.7h3.3V8h-2.3c0.4,0.5,0.8,0.9,1.2,1.1c0.5,0.4,1.2,0.7,2.1,1.1l-0.4,1
	c-1.1-0.5-1.9-1-2.4-1.5c-0.4-0.4-0.9-0.9-1.3-1.7h-0.1v3.5h-1V8c-0.3,0.6-0.7,1.1-1.1,1.5c-0.6,0.6-1.5,1.2-2.6,1.8l-0.5-0.9
	c1.1-0.5,2-1,2.4-1.5c0.3-0.2,0.5-0.5,0.8-0.9h-2.2V3.6h3.2V2.9h-4v-1H132.7z M132.7,5.4V4.6h-2.2v0.8H132.7z M132.7,6.2h-2.2V7h2.2
	V6.2z M133.7,5.4h2.4V4.6h-2.4V5.4z M136,6.2h-2.4V7h2.4V6.2z"/>
<path class="st0" d="M148,1.4v1h-4c-0.1,0.5-0.2,1-0.4,1.5h3.6v7.6h-1v-0.8h-5.8v0.8h-1V4h3c0.2-0.5,0.3-1,0.4-1.5h-4.1v-1L148,1.4
	L148,1.4z M146.4,6.8V5h-5.8v1.8H146.4z M146.4,9.8V7.7h-5.8v2.1H146.4z"/>
<path class="st0" d="M152.4,1.4c-0.4,0.5-0.7,0.9-1.1,1.2v2h-1V3.3c-0.3,0.2-0.6,0.4-0.9,0.5l-0.5-0.9c0.5-0.2,1-0.5,1.5-0.9
	c0.4-0.3,0.7-0.7,1.1-1.1L152.4,1.4z M152.8,10.6c-0.6,0.2-1,0.4-1.5,0.5c-0.5,0.1-1.1,0.3-1.9,0.4l-0.5-0.9
	c0.7-0.1,1.4-0.2,1.9-0.3s1-0.3,1.4-0.4L152.8,10.6z M157,4.9v4.9h-6.7V4.9H157z M156.1,6.3V5.7h-5v0.6H156.1z M156.1,7.6V7h-5v0.6
	H156.1z M156.1,8.3h-5v0.6h5V8.3z M157.8,1.9c-1.1,0.4-2.4,0.7-3.9,1v0.3c0,0.2,0.1,0.3,0.4,0.3h2.6c0.2,0,0.3,0,0.4-0.1
	c0.1-0.1,0.2-0.4,0.2-0.9l0.9,0.3c-0.1,0.8-0.2,1.2-0.4,1.4c-0.2,0.1-0.5,0.2-1,0.2h-3c-0.3,0-0.5-0.1-0.7-0.2
	C153.1,4,153,3.8,153,3.5V1.1h1v1c1.4-0.3,2.5-0.5,3.4-0.9L157.8,1.9z M158.3,10.6l-0.4,1c-1.1-0.4-2.3-0.7-3.6-0.9l0.4-0.9
	C155.9,10,157.1,10.3,158.3,10.6z"/>
<path class="st0" d="M9.8,30.9V32H0.3v-1.1H9.8z M9.3,23.1v1.1H0.8v-1.1H9.3z M8.7,26.9V28H1.3v-1.1H8.7z"/>
<path class="st0" d="M16.8,23.3h3.8v1h-8v3.1c0,0.8-0.1,1.6-0.2,2.5c-0.1,0.9-0.4,1.8-0.7,2.7l-0.8-0.8c0.3-0.7,0.5-1.4,0.6-2.2
	c0.1-0.8,0.1-1.5,0.1-2.2v-4.1h4.1c-0.2-0.3-0.4-0.6-0.6-0.9l1.2-0.2C16.3,22.5,16.5,22.9,16.8,23.3z M16,29.3v-4.9h1v4.9h3.2v0.9
	H17v1.3h3.6v1h-8.1v-1H16v-1.3h-3v-0.9H16z M14.9,25c-0.1,0.4-0.2,0.8-0.2,1.1c0.4,0.5,0.8,1,1.2,1.6l-0.6,0.9
	c-0.3-0.6-0.6-1.1-0.9-1.5c-0.2,0.6-0.5,1.1-1,1.8L12.7,28c0.4-0.5,0.6-0.9,0.8-1.4c0.2-0.4,0.3-1,0.4-1.7L14.9,25z M19.3,24.9
	c-0.1,0.5-0.2,1-0.3,1.3c0.5,0.5,1,1,1.5,1.6L20,28.7c-0.5-0.7-0.9-1.3-1.3-1.7c-0.2,0.6-0.5,1.2-1,1.9L17.1,28
	c0.4-0.5,0.6-1,0.8-1.5c0.2-0.5,0.3-1.1,0.4-1.9L19.3,24.9z"/>
<path class="st0" d="M31,22.6v1h-4.1c-0.1,0.5-0.2,1-0.4,1.5h3.7v7.6h-1V32h-6v0.8h-1v-7.6h3.1c0.2-0.5,0.3-1,0.4-1.5h-4.2v-1H31
	V22.6z M29.3,28v-1.8h-6V28H29.3z M29.3,31v-2h-6v2.1h6V31z"/>
<path class="st0" d="M35.5,22.6c-0.4,0.5-0.8,0.9-1.1,1.2v2h-1v-1.3c-0.3,0.2-0.6,0.4-1,0.5l-0.5-0.9c0.5-0.2,1.1-0.5,1.6-0.9
	c0.4-0.3,0.8-0.7,1.2-1.1L35.5,22.6z M35.9,31.8c-0.6,0.2-1.1,0.4-1.5,0.5c-0.5,0.1-1.2,0.3-1.9,0.4L32,31.8c0.8-0.1,1.4-0.2,2-0.3
	c0.5-0.1,1-0.3,1.4-0.4L35.9,31.8z M40.3,26.1V31h-6.9v-4.9H40.3z M39.3,27.5v-0.6h-5.1v0.6H39.3z M39.3,28.8v-0.6h-5.1v0.6H39.3z
	 M39.3,29.5h-5.1v0.6h5.1V29.5z M41.1,23.1c-1.2,0.4-2.5,0.7-4.1,1v0.3c0,0.2,0.1,0.3,0.4,0.3H40c0.2,0,0.3,0,0.4-0.1
	c0.1-0.1,0.2-0.4,0.2-0.9l1,0.3c-0.1,0.8-0.3,1.2-0.5,1.4c-0.2,0.1-0.5,0.2-1,0.2H37c-0.3,0-0.5-0.1-0.7-0.2
	C36.1,25.2,36,25,36,24.7v-2.4h1v1c1.4-0.3,2.6-0.5,3.6-0.9L41.1,23.1z M41.6,31.8l-0.4,1c-1.2-0.4-2.4-0.7-3.7-0.9L38,31
	C39.1,31.2,40.3,31.5,41.6,31.8z"/>
<path class="st0" d="M46,31.6h-1v-0.9h-1.3v1.1h-0.9V23H46V31.6z M45,26.4V24h-1.3v2.4H45z M45,29.8v-2.4h-1.3v2.4H45z M48.7,23.3
	v-1.1h0.9v1.1h2.3v1h-2.3v1.2h2.6v1h-1v1.2h1.1v1h-1.1v2.7c0,0.4-0.1,0.7-0.3,0.9c-0.1,0.2-0.4,0.3-0.8,0.3h-1.3l-0.2-1.1
	c0.5,0.1,0.9,0.1,1.3,0.1c0.2,0,0.4-0.1,0.4-0.3v-2.6h-4.1v-1h4.1v-1.2h-4v-1h2.4v-1.2h-2.2v-1H48.7z M49.1,30.7l-1,0.7
	c-0.4-0.5-0.8-1.2-1.4-1.8l0.8-0.5C48.2,29.7,48.7,30.2,49.1,30.7z"/>
<path class="st0" d="M58.6,22.2v3.3h3.8v6c0,0.4-0.1,0.6-0.3,0.8c-0.2,0.2-0.4,0.3-0.7,0.3H60l-0.2-1H61c0.2,0,0.3-0.1,0.3-0.4v-4.7
	h-6.8v6.2h-1v-7.2h3.9v-3.3H58.6z M56.3,24.9l-1,0.5c-0.4-0.8-0.9-1.6-1.4-2.2l0.9-0.4C55.4,23.4,55.8,24.1,56.3,24.9z M60.1,27.4
	V31h-4.3v-3.6H60.1z M59.1,28.4h-2.2v1.7h2.2V28.4z M62,23.2c-0.4,0.8-0.8,1.5-1.4,2.2l-1-0.5c0.6-0.7,1.1-1.5,1.4-2.2L62,23.2z"/>
<path class="st0" d="M72.2,22.5v6.3c0,1.3,0.1,2.1,0.2,2.2c0.1,0.2,0.1,0.3,0.2,0.3s0.2-0.4,0.4-1.3l0.7,0.4
	c-0.1,0.9-0.3,1.5-0.5,1.8c-0.1,0.2-0.3,0.3-0.5,0.3c-0.3,0-0.6-0.1-0.8-0.4c-0.4-0.5-0.5-1.6-0.5-3.4v-5.3h-5.8v3.8
	c0,0.8-0.1,1.7-0.2,2.6c-0.1,1-0.4,1.9-0.7,2.8l-0.8-0.8c0.3-0.7,0.5-1.5,0.6-2.3c0.1-0.8,0.1-1.6,0.1-2.3v-4.8h0.5h7.1V22.5z
	 M70.9,24.2v0.9h-2.1V26h1.9v3.5h-1.9v1.4c0.4,0,0.8-0.1,1.1-0.2c-0.1-0.3-0.2-0.5-0.4-0.7l0.8-0.3c0.4,0.7,0.7,1.4,1,2.2l-0.8,0.4
	c-0.1-0.2-0.2-0.5-0.3-0.7c-1,0.2-2.6,0.4-4.6,0.5L65.3,31c0.9,0,1.7,0,2.4-0.1v-1.5H66v-3.5h1.8V25h-2v-0.9h5.1V24.2z M67.8,27h-1
	v1.7h1V27z M69.8,27h-1v1.7h1V27z"/>
<path class="st0" d="M76.4,23.5l-0.8,0.8c-0.3-0.4-0.8-0.8-1.3-1.2l0.7-0.7C75.5,22.7,76,23.1,76.4,23.5z M76.3,28.3
	C76,30,75.5,31.5,75,32.7l-0.8-0.8c0.4-1,0.8-2.4,1.2-4L76.3,28.3z M76.3,26.1l-0.6,1c-0.4-0.6-0.9-1-1.4-1.3l0.5-0.9
	C75.4,25.3,75.9,25.7,76.3,26.1z M77.9,23.1v-0.9h0.9v0.9h1.4V24h-1.4v0.8H80V29h-1.3v1H80v0.9h-1.3v1.8h-0.9V31h-1.6v-0.9h1.6v-1
	h-1.3v-4.2h1.3V24h-1.4v-0.9H77.9z M79.2,26.6v-0.9h-1.8v0.9H79.2z M79.2,27.4h-1.8v0.9h1.8V27.4z M83.6,22.5v9
	c0,0.3-0.1,0.6-0.2,0.8c-0.1,0.2-0.4,0.3-0.7,0.3h-0.9l-0.2-0.9h0.9c0.2,0,0.2-0.1,0.2-0.3v-2.3h-1.2c0,0.5-0.1,1-0.1,1.6
	c-0.1,0.7-0.4,1.5-0.7,2.2L80,32.2c0.3-0.6,0.5-1.1,0.6-1.7s0.1-1.2,0.1-1.8v-6.1H81h2.6V22.5z M82.7,25.3v-1.7h-1.2v1.7H82.7z
	 M82.7,28.2v-1.9h-1.2v1.9H82.7z"/>
<path class="st0" d="M90.8,28.6c-0.3,0.3-0.6,0.4-1,0.4c-0.4,0-0.8-0.1-1-0.4c-0.3-0.3-0.4-0.7-0.4-1.1s0.1-0.8,0.4-1.1
	c0.3-0.3,0.6-0.4,1-0.4c0.4,0,0.8,0.1,1,0.4c0.3,0.3,0.4,0.7,0.4,1.1S91,28.3,90.8,28.6z M90.2,27c-0.1-0.1-0.3-0.2-0.5-0.2
	c-0.2,0-0.4,0.1-0.5,0.2c-0.1,0.1-0.2,0.3-0.2,0.5s0.1,0.4,0.2,0.5c0.1,0.2,0.3,0.2,0.5,0.2c0.2,0,0.4-0.1,0.5-0.2
	c0.1-0.1,0.2-0.3,0.2-0.5S90.4,27.1,90.2,27z"/>
<path class="st0" d="M2.1,44.4v-0.9h4.1c0.7,1.2,2.3,2.3,4.7,3.4l-0.7,1c-0.3-0.1-0.7-0.3-0.9-0.5v0.7H6.1v1.7h3.1v0.9H6.1v2h4.4
	v0.9H0.6v-0.9H5v-2H2v-0.9h3v-1.7H1.8v-0.7c-0.3,0.1-0.6,0.3-0.9,0.4l-0.6-1.1c1.2-0.5,2.1-0.9,2.8-1.4C3.6,45,4,44.7,4.4,44.2H2.1
	V44.4z M8.8,47.2c-0.5-0.3-1-0.6-1.3-0.9c-0.8-0.6-1.4-1.2-2-1.9c-0.4,0.6-0.8,1-1.2,1.4c-0.5,0.5-1.2,1-2,1.4H8.8z"/>
<path class="st0" d="M16.2,43.7v0.9h-0.5v9.3h-0.9v-2c-0.7,0.3-1.5,0.5-2.4,0.8l-0.3-1.1c0.2,0,0.3,0,0.5-0.1v-6.8h-0.4v-0.9
	L16.2,43.7L16.2,43.7z M14.8,46.1v-1.4h-1.2v1.4H14.8z M14.8,48.6V47h-1.2v1.5h1.2V48.6z M14.8,50.9v-1.5h-1.2v1.9
	C14,51.2,14.4,51.1,14.8,50.9z M18.4,43.7c-0.3,0.8-0.7,1.4-1,1.9c0.2,0,0.5,0,0.7-0.1c0.3-0.4,0.5-0.8,0.7-1.2l0.7,0.4
	c-0.4,0.7-1.1,1.7-2,2.7c0.3,0,0.6-0.1,0.9-0.1c0-0.2-0.1-0.4-0.1-0.7l0.7-0.1c0.2,0.6,0.3,1.2,0.4,1.9h-0.8c0-0.2,0-0.3-0.1-0.4
	c-0.8,0.1-1.7,0.2-2.6,0.3l-0.1-0.9c0.2,0,0.3,0,0.5,0c0.4-0.4,0.8-0.9,1.1-1.3c-0.5,0-1,0.1-1.5,0.1l-0.1-0.8c0.2,0,0.3,0,0.5,0
	c0.4-0.6,0.7-1.3,1.1-2.3L18.4,43.7z M17.1,49.2v1.6H18V49h1v2.2c0,0.7-0.2,1.3-0.7,1.8c-0.4,0.4-1,0.7-1.9,1l-0.5-0.8
	c0.8-0.2,1.4-0.4,1.7-0.7c0.2-0.2,0.3-0.5,0.4-0.8h-1.8v-2.5H17.1z M21.5,43.7c-0.3,0.8-0.6,1.4-1,1.9c0.3,0,0.6,0,0.9-0.1
	c0.2-0.3,0.4-0.7,0.5-1l0.7,0.4c-0.4,0.7-0.9,1.6-1.7,2.6c0.3,0,0.6,0,0.9-0.1c0-0.3-0.1-0.5-0.1-0.7l0.7-0.1
	c0.2,0.6,0.3,1.2,0.4,1.9h-0.9c0-0.1,0-0.3-0.1-0.4c-0.8,0.1-1.6,0.2-2.5,0.2l-0.1-0.8c0.2,0,0.3,0,0.5,0c0.4-0.5,0.7-0.9,1-1.4
	c-0.5,0-1.1,0.1-1.7,0.1l-0.1-0.8c0.1,0,0.3,0,0.4,0c0.3-0.6,0.7-1.3,1.1-2.3L21.5,43.7z M22.5,49.2V52h-1.9v2h-0.9v-5h0.9v2h0.9
	v-1.9L22.5,49.2L22.5,49.2z"/>
<path class="st0" d="M30.2,50.3c-0.2-0.4-0.6-0.8-1-1.3c-0.3-0.3-0.7-0.7-1.3-1.2l0.7-0.6c0.4,0.3,0.8,0.7,1.4,1.2
	c0.3,0.3,0.7,0.8,1.1,1.3L30.2,50.3z"/>
<path class="st0" d="M42.5,44.9v1c-0.3,0.3-0.7,0.8-1.2,1.5c-0.5,0.7-0.9,1.5-1.3,2.3c-0.4,0.8-0.6,1.5-0.8,2.2
	c-0.1,0.4-0.3,1.1-0.5,2h-1.3c0.3-1.7,0.9-3.5,1.9-5.2c0.6-1,1.2-1.9,1.8-2.6h-5V45h6.4V44.9z"/>
<path class="st0" d="M44,49.6h3.2v1.2H44V49.6z"/>
<path class="st0" d="M49.5,47.4v-0.9c0.8-0.1,1.4-0.2,1.7-0.4s0.6-0.6,0.7-1.3h0.9v9.1h-1.2v-6.4h-2.1V47.4z"/>
<path class="st0" d="M56.3,47.4v-0.9c0.8-0.1,1.4-0.2,1.7-0.4s0.6-0.6,0.7-1.3h0.9v9.1h-1.2v-6.4h-2.1V47.4z"/>
<path class="st0" d="M69.3,50.3c-0.2-0.4-0.6-0.8-1-1.3c-0.3-0.3-0.7-0.7-1.3-1.2l0.7-0.6c0.4,0.3,0.8,0.7,1.4,1.2
	c0.3,0.3,0.7,0.8,1.1,1.3L69.3,50.3z"/>
<path class="st0" d="M77.1,44.4v-0.9h4.1c0.7,1.2,2.3,2.3,4.7,3.4l-0.7,1c-0.3-0.1-0.7-0.3-0.9-0.5v0.7h-3.2v1.7h3.1v0.9h-3.1v2h4.4
	v0.9h-9.9v-0.9H80v-2h-3v-0.9h3v-1.7h-3.1v-0.7c-0.3,0.1-0.6,0.3-0.9,0.4l-0.6-1.1c1.2-0.5,2.1-0.9,2.8-1.4c0.5-0.3,0.9-0.6,1.3-1.1
	h-2.4V44.4z M83.8,47.2c-0.5-0.3-1-0.6-1.3-0.9c-0.8-0.6-1.4-1.2-2-1.9c-0.4,0.6-0.8,1-1.2,1.4c-0.5,0.5-1.2,1-2,1.4H83.8z"/>
<path class="st0" d="M96.1,46v0.9h-2.4c-0.3,0.3-0.6,0.5-0.9,0.6c0.4,0.5,0.7,1,0.9,1.5c0.8-0.4,1.6-0.9,2.4-1.7l0.8,0.8
	c-0.5,0.4-1,0.8-1.6,1.1c0.3,0.6,0.6,1.2,0.9,1.7c0.4,0.5,0.9,1,1.5,1.6L97,53.4c-0.7-0.7-1.3-1.4-1.8-2c-0.3-0.5-0.6-1-0.9-1.6
	C94.1,49.9,94,50,93.8,50c0.1,0.5,0.2,1,0.2,1.5c0,0.9-0.1,1.5-0.4,1.9c-0.3,0.4-1.1,0.6-2.5,0.6l-0.4-1.1c0,0.1,0.2,0.1,0.6,0.1
	c0.6,0,1-0.1,1.2-0.2c0.2-0.2,0.3-0.6,0.3-1.2c0-0.2,0-0.3,0-0.5c-0.6,0.5-1.2,0.9-1.8,1.2c-0.8,0.4-1.9,0.9-3.2,1.3l-0.6-1
	c1.3-0.3,2.3-0.7,3.3-1.2c0.7-0.4,1.4-0.8,2-1.3c0-0.1-0.1-0.2-0.1-0.3c0-0.1-0.1-0.2-0.1-0.3c-0.6,0.4-1.2,0.8-1.7,1
	c-0.7,0.3-1.7,0.7-2.8,1l-0.5-0.9c1.1-0.3,2.1-0.6,2.9-0.9c0.6-0.3,1.2-0.6,1.7-0.9c-0.1-0.1-0.2-0.3-0.3-0.4
	c-1,0.4-2.2,0.8-3.5,1.1l-0.6-0.9c1.4-0.3,2.6-0.6,3.4-0.9c0.3-0.1,0.7-0.3,1-0.4h-3.2V46H96.1z M93,44.2h4.5v2.3h-1v-1.3h-7.9v1.3
	h-1v-2.3h4.2c-0.1-0.2-0.3-0.5-0.4-0.7l1.2-0.2C92.7,43.6,92.8,43.9,93,44.2z"/>
<path class="st0" d="M105.2,50.3c-0.2-0.4-0.6-0.8-1-1.3c-0.3-0.3-0.7-0.7-1.3-1.2l0.7-0.6c0.4,0.3,0.8,0.7,1.4,1.2
	c0.3,0.3,0.7,0.8,1.1,1.3L105.2,50.3z"/>
<path class="st0" d="M114.2,45.9c-0.5,2.2-1.1,4.1-1.9,5.7l-1.1-0.7c0.9-1.6,1.5-3.3,1.9-5.2L114.2,45.9z M117.2,43.5v9
	c0,0.5-0.1,0.8-0.3,1c-0.2,0.2-0.6,0.3-1.1,0.3H114l-0.3-1.3c0.7,0.1,1.2,0.1,1.7,0.1c0.3,0,0.5-0.1,0.5-0.3v-8.7L117.2,43.5
	L117.2,43.5z M121.7,51.5l-1.2,0.3c-0.4-2-1-3.9-1.7-5.8l1.1-0.4C120.6,47.3,121.2,49.3,121.7,51.5z"/>
<path class="st0" d="M126.9,52.8h-1v-0.7h-1.3v1h-1v-8.7h3.4L126.9,52.8L126.9,52.8z M125.9,51.1v-5.7h-1.3v5.7H125.9z M129.7,43.6
	c-0.1,0.5-0.3,0.9-0.4,1.3h4v1h-4.6c-0.3,0.5-0.7,1-1.2,1.4l-0.6-0.8c0.4-0.4,0.8-0.9,1.1-1.4c0.2-0.4,0.4-0.9,0.7-1.7L129.7,43.6z
	 M132.8,47.3v0.9c-2.9,2.6-4.3,4-4.3,4.3c0,0.1,0.1,0.2,0.3,0.2h3.1c0.2,0,0.4-0.1,0.5-0.2c0.1-0.1,0.2-0.7,0.3-1.5l0.9,0.3
	c-0.1,1.2-0.3,1.9-0.6,2.1c-0.2,0.2-0.6,0.3-1.2,0.3h-3.1c-0.4,0-0.8-0.1-1.1-0.4c-0.2-0.2-0.3-0.5-0.3-0.8c0-0.2,0.1-0.4,0.2-0.6
	c0.2-0.4,1.5-1.6,3.7-3.6h-3.4v-1H132.8z"/>
<path class="st0" d="M139.3,44.7h2c0.3-0.4,0.7-0.9,0.9-1.3l1.1,0.4c-0.3,0.4-0.5,0.7-0.8,1h2.5v0.9h-4.2v0.7h3.8v0.9h-3.8v0.2
	c0,0.2,0,0.4,0,0.6h4.7v1h-4.8c0,0.3-0.1,0.6-0.1,0.9h5v0.9h-3.9c0.1,0.3,0.4,0.6,0.6,0.8c0.3,0.2,0.7,0.4,1.2,0.6s1.2,0.4,2.2,0.6
	l-0.7,1c-1-0.2-1.7-0.5-2.3-0.7c-0.6-0.3-1.1-0.6-1.4-1c-0.3-0.4-0.6-0.8-0.7-1.3h-0.3c-0.2,0.4-0.3,0.7-0.6,1
	c-0.7,1-2.2,1.7-4.2,1.9l-0.5-1c2-0.1,3.3-0.6,3.9-1.5c0.1-0.1,0.2-0.3,0.2-0.4h-4V50h4.3c0.1-0.3,0.1-0.6,0.2-0.9h-4.5v-1h4.6
	c0-0.2,0-0.4,0-0.6v-0.2h-3.6v-0.9h3.6v-0.7h-4.1v-0.9h2.5c-0.2-0.3-0.5-0.6-0.7-0.9l1.1-0.4C138.7,43.8,139,44.2,139.3,44.7z"/>
<path class="st0" d="M152.8,43.4c0.7,0.6,1.4,1.2,2.2,1.5c0.5,0.3,1.4,0.7,2.7,1.1l-0.6,0.9c-0.4-0.1-0.7-0.2-1-0.3v4h-3.3
	c0.3,0.4,0.6,0.7,0.9,1c1-0.2,2-0.6,2.9-1.1l0.7,0.7c-0.8,0.4-1.7,0.7-2.7,1c0,0,0,0,0.1,0c0.5,0.3,1.6,0.5,3.2,0.6l-0.4,1.1
	c-1.8-0.3-3-0.6-3.8-1.1c-0.7-0.5-1.4-1.2-2-2.2h-1.9v2c0.8-0.1,1.6-0.3,2.4-0.5v1.1c-1.3,0.3-2.8,0.6-4.4,0.8l-0.1-1.1
	c0.3,0,0.6,0,1-0.1v-6c-0.4,0.2-0.8,0.3-1.2,0.5l-0.5-1c1.3-0.4,2.3-0.9,3-1.3c0.6-0.3,1.2-0.8,1.8-1.5h0.5h0.5V43.4z M151.9,46.2
	c-0.1-0.3-0.3-0.6-0.4-0.9l1-0.1c0.1,0.3,0.3,0.7,0.4,1h2.2c-0.9-0.4-1.9-1.1-2.8-1.9c-0.7,0.6-1.4,1.1-2,1.5
	c-0.2,0.1-0.4,0.3-0.7,0.4H151.9z M154.9,47.9v-0.8h-5.2v0.8H154.9z M154.9,49.6v-0.9h-5.2v0.9H154.9z"/>
<path class="st0" d="M10.8,68.8v0.9H5.6v5.5h-1V74c-1.2,0.1-2.6,0.3-4.1,0.4l-0.2-1c0.3,0,0.7,0,1,0v-3.8h-1v-0.9L10.8,68.8
	L10.8,68.8z M9.7,64.9v3.5H1.5v-3.5H9.7z M4.6,70.4v-0.7H2.3v0.7H4.6z M4.6,71.9v-0.7H2.3v0.7H4.6z M4.6,73.2v-0.6H2.3v0.8
	C3,73.4,3.8,73.3,4.6,73.2z M8.6,66.2v-0.6h-6v0.6H8.6z M8.6,66.9h-6v0.6h6V66.9z M10.4,70.3V71c-0.3,1-0.7,1.9-1.3,2.6
	c0.5,0.3,1.1,0.5,1.8,0.7l-0.5,0.8c-0.8-0.3-1.5-0.6-2-0.9c-0.6,0.3-1.2,0.7-2.1,0.9l-0.5-0.9c0.7-0.2,1.3-0.5,1.8-0.7
	c-0.5-0.5-1-1.1-1.3-1.7l0.8-0.4c0.3,0.7,0.7,1.2,1.3,1.7C8.5,73,8.5,73,8.6,72.9c0.4-0.5,0.7-1,0.9-1.7H6v-0.9H10.4z"/>
<path class="st0" d="M14.8,67.3v0.8c-0.4,0.6-0.9,1.3-1.4,2h1.4v0.7c-0.2,0.7-0.3,1.3-0.5,1.7c0.4,0.5,0.8,0.8,1.1,0.9
	c0.2,0.1,0.6,0.3,1.1,0.3c0.6,0.1,1.6,0.1,3.3,0.1c1.2,0,2.1,0,2.7-0.1l-0.1,1.1c-3.2,0-5.1,0-5.8-0.1c-0.6-0.1-1.1-0.2-1.5-0.4
	c-0.3-0.2-0.7-0.5-1.1-1c-0.3,0.6-0.8,1.1-1.3,1.8l-0.8-0.8c0.6-0.6,1-1.1,1.3-1.6c0.2-0.3,0.4-0.8,0.7-1.7h-1.6v-0.9
	c0.5-0.5,1-1.1,1.5-1.9h-1.7v-0.9H14.8z M14.3,66.4l-0.7,0.7c-0.3-0.6-0.7-1.2-1.2-1.8l0.7-0.6C13.6,65.2,14,65.8,14.3,66.4z
	 M19.1,65.4H22v0.9h-2l0.7,0.2c-0.1,0.3-0.3,0.5-0.4,0.8h1.6v5.1c0,0.3-0.1,0.6-0.3,0.8c-0.2,0.2-0.4,0.2-0.6,0.2h-0.8l-0.1-0.6h-3
	v-2.4h1.1v-0.9h-1.4v-0.8h1.4v-0.6h-1.8v5.3h-0.9v-6.1h1.4c-0.1-0.2-0.3-0.5-0.4-0.8l0.6-0.2h-1.9v-0.9h2.9
	c-0.2-0.3-0.3-0.5-0.5-0.7l1.1-0.1C18.8,64.8,19,65.1,19.1,65.4z M19.3,67.3c0.2-0.3,0.3-0.6,0.4-1h-2.4c0.2,0.3,0.3,0.6,0.5,1H19.3
	z M19.2,71.1h-1.3v1h1.3V71.1z M20.1,70.3v2.1h0.5c0.2,0,0.3-0.1,0.3-0.4v-4H19v0.6h1.4v0.8H19v0.9H20.1z"/>
<path class="st0" d="M29,64.6c0.7,0.8,1.4,1.4,2.2,1.9c0.5,0.4,1.4,0.8,2.7,1.3l-0.7,1.1c-0.5-0.2-1-0.4-1.5-0.7v0.7h-6.2v-0.7
	c-0.5,0.3-1,0.6-1.7,0.9L23.2,68c1.3-0.5,2.3-1.1,3-1.6c0.6-0.4,1.2-1,1.8-1.8h0.5H29z M32.4,75.1h-1.1v-0.6h-5.4v0.6h-1.1v-4.9h7.6
	V75.1z M31.3,73.5v-2.3h-5.4v2.3H31.3z M31.2,68c-0.9-0.6-1.8-1.3-2.7-2.3c-0.7,0.8-1.3,1.4-2,1.9c-0.2,0.2-0.4,0.3-0.6,0.4H31.2z"
	/>
<path class="st0" d="M38.1,65c-0.3,0.9-0.6,1.7-0.9,2.3V75h-1v-6c-0.3,0.4-0.6,0.8-1,1.3L34.8,69c0.5-0.6,0.9-1.2,1.3-1.9
	c0.4-0.6,0.7-1.4,1.1-2.5L38.1,65z M40.8,64.9c-0.1,0.4-0.3,0.7-0.4,1.1h4.9c-0.2,1-0.5,2-0.9,3l-1.1-0.3c0.3-0.4,0.6-1,0.8-1.7H40
	c-0.5,1-1,1.8-1.5,2.4l-0.8-0.9c0.9-1.1,1.7-2.4,2.2-3.7L40.8,64.9z M40.4,69.3c-0.4,1.6-1,2.9-1.7,4l-1-0.6
	c0.8-1.1,1.3-2.3,1.7-3.6L40.4,69.3z M42.2,67.6v6.3c0,0.4-0.1,0.7-0.3,0.9c-0.2,0.2-0.5,0.3-1,0.3h-1.6L39.1,74
	c0.6,0.1,1.1,0.1,1.5,0.1c0.3,0,0.4-0.1,0.4-0.3v-6.2H42.2z M45.3,73.1l-1,0.4c-0.5-1.6-1-3-1.6-4.3l1-0.3
	C44.3,70.3,44.9,71.7,45.3,73.1z"/>
<path class="st0" d="M49.7,64.8c-0.1,0.6-0.3,1.2-0.6,1.7h1.7v2.4c0.3-0.6,0.6-1.1,0.8-1.7c0.2-0.6,0.4-1.5,0.6-2.6l1.1,0.2
	c-0.1,0.6-0.2,1.2-0.3,1.6h3.5c0,4-0.1,6.4-0.2,7.2c-0.1,0.6-0.3,1-0.6,1.2c-0.3,0.2-0.9,0.3-1.8,0.3c-0.3,0-0.5,0-0.9,0L52.8,74
	c0.3,0.1,0.7,0.1,1,0.1c0.7,0,1.1-0.2,1.2-0.7c0.1-0.6,0.2-2.5,0.3-5.8h-2.7c0,0.1-0.1,0.2-0.1,0.2c-0.3,0.8-0.7,1.7-1.3,2.6
	l-0.5-0.7v4.7h-1v-0.5h-2.1v0.9h-1v-8.2H48c0.2-0.6,0.4-1.2,0.6-1.8H49.7z M49.8,69.6v-2.2h-2.1v2.2H49.8z M49.8,72.8v-2.3h-2.1v2.3
	H49.8z M54.6,71.7l-1.1,0.7c-0.3-0.8-0.8-1.8-1.3-2.9l0.9-0.6C53.7,70,54.2,70.9,54.6,71.7z"/>
<path class="st0" d="M59.7,71.1c-0.2,1-0.5,2-0.9,2.8l-1-0.4c0.3-0.7,0.6-1.6,0.9-2.7L59.7,71.1z M61.2,65.8h2v0.9h-5.3v-0.9h2.2
	c-0.2-0.3-0.3-0.6-0.5-0.9l1.1-0.1C60.9,65,61.1,65.4,61.2,65.8z M62.8,67.4v3h-1.6v3.5c0,0.4-0.1,0.7-0.3,0.8
	C60.7,74.9,60.4,75,60,75h-0.7l-0.2-1.1c0.2,0.1,0.4,0.1,0.6,0.1c0.3,0,0.4-0.1,0.4-0.3v-3.3h-1.8v-3H62.8z M61.7,68.3h-2.4v1.3h2.4
	V68.3z M63.1,72.8l-1,0.4c-0.1-0.7-0.2-1.4-0.4-2.1l0.8-0.2C62.8,71.6,62.9,72.3,63.1,72.8z M64.4,67.2v-2.6h1v2.6h2.7v1h-2.8
	c-0.1,1.3-0.2,2.4-0.5,3.3c-0.3,1.2-1,2.4-1.9,3.6L62,74.3c0.9-1,1.5-2,1.8-3.2c0.2-0.7,0.4-1.7,0.4-3h-1.4v-1L64.4,67.2L64.4,67.2z
	 M66.6,69.4v4.3c0,0.2,0.1,0.3,0.3,0.3c0.3,0,0.4-0.1,0.4-0.4v-1.8l0.9,0.4c0,1.3-0.1,2.1-0.3,2.4c-0.2,0.2-0.5,0.4-1.1,0.4
	c-0.5,0-0.8-0.1-1-0.3c-0.2-0.2-0.3-0.4-0.3-0.8v-4.6h1.1V69.4z M68.1,66.3l-0.9,0.6c-0.3-0.4-0.7-0.9-1.1-1.5l0.8-0.4
	C67.4,65.5,67.8,66,68.1,66.3z"/>
<path class="st0" d="M79.8,69.7v1h-4.5v1.1h3.9v0.9h-3.9v1.2c0.6,0,1.2,0.1,2,0.1c1.1,0,2,0,2.7-0.1L79.7,75c-3.5,0-5.6-0.1-6.3-0.4
	c-0.7-0.2-1.3-0.7-1.7-1.4c-0.3,0.6-0.9,1.3-1.6,2l-0.8-1c0.6-0.5,1.1-1,1.4-1.5c0.3-0.5,0.6-1.1,0.7-1.9l1.1,0.2
	c-0.1,0.5-0.3,0.9-0.4,1.3c0.5,0.7,1,1.1,1.7,1.3c0.1,0,0.3,0.1,0.4,0.1v-3.1h-4.9v-1L79.8,69.7L79.8,69.7z M78.7,64.9v4.2h-8.2
	v-4.2H78.7z M77.6,66.5v-0.7h-6v0.7H77.6z M77.6,67.3h-6v0.8h6V67.3z"/>
<path class="st0" d="M91.3,68.8v0.9h-5.2v5.5h-1V74c-1.2,0.1-2.6,0.3-4.1,0.4l-0.2-1c0.3,0,0.7,0,1,0v-3.8h-1v-0.9L91.3,68.8
	L91.3,68.8z M90.2,64.9v3.5H82v-3.5H90.2z M85.1,70.4v-0.7h-2.3v0.7H85.1z M85.1,71.9v-0.7h-2.3v0.7H85.1z M85.1,73.2v-0.6h-2.3v0.8
	C83.5,73.4,84.3,73.3,85.1,73.2z M89.1,66.2v-0.6h-6v0.6H89.1z M89.1,66.9h-6v0.6h6V66.9z M90.9,70.3V71c-0.3,1-0.7,1.9-1.3,2.6
	c0.5,0.3,1.1,0.5,1.8,0.7l-0.5,0.8c-0.8-0.3-1.5-0.6-2-0.9c-0.6,0.3-1.2,0.7-2.1,0.9l-0.5-0.9c0.7-0.2,1.3-0.5,1.8-0.7
	c-0.5-0.5-1-1.1-1.3-1.7l0.8-0.4c0.3,0.7,0.7,1.2,1.3,1.7C89,73,89,73,89.1,72.9c0.4-0.5,0.7-1,0.9-1.7h-3.4v-0.9H90.9z"/>
<path class="st0" d="M93.6,66.6c0.1-0.6,0.2-1.2,0.3-1.9l1,0.1c-0.1,0.6-0.2,1.2-0.3,1.8h2.2v1c-0.1,1.3-0.3,2.4-0.6,3.3
	c-0.1,0.5-0.3,0.9-0.5,1.3c0.5,0.4,0.9,0.7,1.4,1.1l-0.6,0.9c-0.4-0.4-0.8-0.7-1.3-1.1c-0.5,0.7-1.2,1.4-2.2,2.2l-0.8-0.9
	c0.9-0.6,1.6-1.3,2.1-2c-0.6-0.4-1.2-0.7-1.8-1.1c0.4-1.2,0.7-2.4,1-3.7h-1.2v-1H93.6z M93.8,70.8c0.4,0.2,0.7,0.4,1,0.7
	c0,0,0,0,0-0.1c0.4-0.9,0.7-2.2,0.9-3.9h-1.3C94.3,68.7,94,69.8,93.8,70.8z M102.5,65.1v1.1c-0.6,0.8-1.2,1.5-1.9,2.2v1h2.3v1.1
	h-2.3v3.7c0,0.3-0.1,0.5-0.2,0.7c-0.2,0.2-0.4,0.3-0.7,0.3h-1.9l-0.2-1.1c0.5,0,1,0,1.5,0c0.2,0,0.4-0.1,0.4-0.3v-3.4h-2.6v-1.1h2.6
	V68c0.6-0.4,1.1-1,1.8-1.8h-4.1v-1.1H102.5z"/>
<path class="st0" d="M107.2,64.8c-0.1,0.6-0.3,1.2-0.6,1.7h1.7v2.4c0.3-0.6,0.6-1.1,0.8-1.7c0.2-0.6,0.4-1.5,0.6-2.6l1.1,0.2
	c-0.1,0.6-0.2,1.2-0.3,1.6h3.5c0,4-0.1,6.4-0.2,7.2c-0.1,0.6-0.3,1-0.6,1.2c-0.3,0.2-0.9,0.3-1.8,0.3c-0.3,0-0.5,0-0.9,0l-0.2-1.1
	c0.3,0.1,0.7,0.1,1,0.1c0.7,0,1.1-0.2,1.2-0.7c0.1-0.6,0.2-2.5,0.3-5.8h-2.7c0,0.1-0.1,0.2-0.1,0.2c-0.3,0.8-0.7,1.7-1.3,2.6
	l-0.5-0.7v4.7h-1v-0.5h-2.1v0.9h-1v-8.2h1.4c0.2-0.6,0.4-1.2,0.6-1.8H107.2z M107.3,69.6v-2.2h-2.1v2.2H107.3z M107.3,72.8v-2.3
	h-2.1v2.3H107.3z M112.1,71.7l-1.1,0.7c-0.3-0.8-0.8-1.8-1.3-2.9l0.9-0.6C111.2,70,111.7,70.9,112.1,71.7z"/>
</svg>
