<?xml version="1.0" encoding="utf-8"?>
<!-- Generator: Adobe Illustrator 25.2.3, SVG Export Plug-In . SVG Version: 6.00 Build 0)  -->
<svg version="1.1" id="圖層_1" xmlns="http://www.w3.org/2000/svg" xmlns:xlink="http://www.w3.org/1999/xlink" x="0px" y="0px"
	 viewBox="0 0 280 118" style="enable-background:new 0 0 280 118;" xml:space="preserve">
<style type="text/css">
	.st0{fill:#FFFFFF;}
</style>
<path class="st0" d="M76.7,5.2v1.1h-10V5.2H76.7z"/>
<path class="st0" d="M82.7,5.5h-3.4v5.9h-1V1.2h4.4V5.5z M81.6,2.9V2.1h-2.3v0.8H81.6z M81.6,4.6V3.7h-2.3v0.9H81.6z M85.5,6.1v4.4
	h-4.7V6.1H85.5z M84.5,7.8V7h-2.7v0.8H84.5z M84.5,8.6h-2.7v0.9h2.7V8.6z M88.1,1.2v9.1c0,0.4-0.1,0.7-0.3,0.9
	c-0.2,0.2-0.5,0.3-1,0.3h-0.9l-0.2-1.1h0.9c0.3,0,0.4-0.2,0.4-0.5V5.4h-3.5V1.1H84L88.1,1.2L88.1,1.2z M87,2.9V2.1h-2.4v0.8H87z
	 M87,3.8h-2.4v0.9H87V3.8z"/>
<path class="st0" d="M99.8,2.2h-8.4v3.5c0,0.9-0.1,1.8-0.2,2.7c-0.2,1-0.5,1.9-0.9,2.9l-1-0.9c0.4-0.8,0.6-1.5,0.8-2.4
	c0.1-0.9,0.2-1.6,0.2-2.4V1.1h9.5V2.2z M93.6,3.3V2.4h1v0.9h2.2V2.4h1v0.9h1.5v0.9h-1.5v0.9h1.9V6h-8V5.1h1.8V4.2H92V3.3H93.6z
	 M98.9,11.4h-1v-0.5h-4.2v0.4h-1V6.6H99L98.9,11.4L98.9,11.4z M97.9,8.4V7.6h-4.2v0.8H97.9z M97.9,10V9.2h-4.2V10H97.9z M96.8,5.1
	V4.2h-2.2v0.9H96.8z"/>
<path class="st0" d="M106.6,7.4c-0.2,0.2-0.5,0.5-0.9,0.7l-0.4-0.6c0.5-0.3,0.9-0.6,0.9-1h-0.7V5.1h1.4v1.1
	C106.9,6.7,106.8,7.1,106.6,7.4z"/>
<path class="st0" d="M122.7,1.6v1h-3.5c-0.2,0.5-0.5,1-0.8,1.4v7.5h-1.2v-6c-0.1,0.1-0.2,0.2-0.3,0.3c-1,1-2.2,2-3.7,2.8l-0.7-0.9
	c1.4-0.8,2.6-1.6,3.6-2.6c0.6-0.6,1.3-1.4,1.8-2.5h-5.2v-1H122.7z M122.7,7.6l-0.9,0.9c-0.7-0.9-1.6-1.9-2.8-3l0.8-0.8
	C121,5.7,121.9,6.7,122.7,7.6z"/>
<path class="st0" d="M128.1,7.7c-0.9,1.4-2,2.6-3.4,3.6l-0.8-1c1.2-0.9,2.3-2,3.3-3.4L128.1,7.7z M133.5,1.5v4.9h-8.3V1.5H133.5z
	 M132.3,2.5h-5.9v2.9h5.9V2.5z M134.4,10.7l-1.1,0.7c-0.7-1.1-1.7-2.4-3-3.8l0.9-0.6C132.6,8.5,133.6,9.7,134.4,10.7z"/>
<path class="st0" d="M145.9,6v1h-4.5v1.1h3.9V9h-3.9v1.2c0.6,0,1.2,0.1,2,0.1c1.1,0,2,0,2.7-0.1l-0.3,1.1c-3.5,0-5.6-0.1-6.3-0.4
	c-0.7-0.2-1.3-0.7-1.7-1.4c-0.3,0.6-0.9,1.3-1.6,2l-0.8-1c0.6-0.5,1.1-1,1.4-1.5s0.6-1.1,0.7-1.9l1.1,0.2c-0.1,0.5-0.3,0.9-0.4,1.3
	c0.5,0.7,1,1.1,1.7,1.3c0.1,0,0.3,0.1,0.4,0.1V7h-4.9V6H145.9z M144.8,1.2v4.2h-8.2V1.2H144.8z M143.7,2.8V2.1h-6v0.7H143.7z
	 M143.7,3.6h-6v0.8h6V3.6z"/>
<path class="st0" d="M157.2,5.2v1.1h-10V5.2H157.2z"/>
<path class="st0" d="M163.2,1v1.7c0,0.6-0.1,1.2-0.3,1.6c-0.2,0.4-0.5,0.7-0.9,1.1h1.2V4.7h1v0.7h4.3v0.8h-4.3v0.5h3.9v2.8h-3.9V10
	h4.8v0.8h-4.8v0.7h-1v-0.7h-4.5V10h4.5V9.5h-3.7V6.7h3.6V6.2H159V5.4h2.4l-0.6-0.5c0.3-0.2,0.5-0.3,0.7-0.5
	c-0.8,0.1-1.7,0.2-2.8,0.3l-0.2-0.8c1.5,0,2.7-0.1,3.6-0.3c0-0.1,0.1-0.2,0.1-0.3h-3.1V2.6h3.2V2.2h-3.4V1.5h3.4V1H163.2z
	 M163.1,7.8V7.3h-2.6v0.5H163.1z M163.1,8.3h-2.6v0.4h2.6V8.3z M164.2,7.8h2.8V7.3h-2.8V7.8z M167,8.3h-2.8v0.4h2.8V8.3z M165.5,1
	v0.5h3.2v0.7h-3.2v0.4h3.1v0.7h-3.1v0.5h3.5v0.7h-3.5v0.4h-1v-4h1V1z"/>
<path class="st0" d="M179.2,1.4v0.9c-0.6,0.7-1.7,1.5-3.3,2.6v0.8h4.4v1.1h-4.4v3.6c0,0.3-0.1,0.6-0.2,0.8c-0.2,0.2-0.5,0.3-0.8,0.3
	h-2.2l-0.1-1.2c0.7,0.1,1.3,0.1,1.7,0.1c0.2,0,0.3-0.1,0.3-0.4V6.8h-4.7V5.7h4.7V4.3c1.1-0.6,2.1-1.2,3-1.8h-6.5v-1h8.1V1.4z"/>
<path class="st0" d="M184.9,1.1c-0.1,0.6-0.3,1.2-0.6,1.7h1.7v2.4c0.3-0.6,0.6-1.1,0.8-1.7c0.2-0.6,0.4-1.5,0.6-2.6l1.1,0.2
	c-0.1,0.6-0.2,1.2-0.3,1.6h3.5c0,4-0.1,6.4-0.2,7.2c-0.1,0.6-0.3,1-0.6,1.2c-0.3,0.2-0.9,0.3-1.8,0.3c-0.3,0-0.5,0-0.9,0l-0.2-1.1
	c0.3,0.1,0.7,0.1,1,0.1c0.7,0,1.1-0.2,1.2-0.7c0.1-0.6,0.2-2.5,0.3-5.8h-2.7c0,0.1-0.1,0.1-0.1,0.2c-0.3,0.8-0.7,1.7-1.3,2.6
	L185.9,6v4.7h-1V10h-2.1v0.9h-1V2.7h1.4c0.2-0.6,0.4-1.2,0.6-1.8L184.9,1.1z M184.9,5.9V3.7h-2.1v2.2H184.9z M184.9,9.1V6.8h-2.1
	v2.3H184.9z M189.7,8l-1.1,0.7c-0.3-0.8-0.8-1.8-1.3-2.9l0.9-0.6C188.8,6.3,189.3,7.2,189.7,8z"/>
<path class="st0" d="M196.1,1.4c-0.3,0.9-0.5,1.6-0.8,2.2v7.8h-1V5.5c-0.3,0.5-0.6,0.9-1,1.4l-0.4-1.3c0.5-0.6,0.9-1.3,1.2-2
	c0.4-0.6,0.7-1.5,1-2.6L196.1,1.4z M203.1,4.8l-3.7,0.4c0.1,0.7,0.1,1.3,0.2,1.7c0.3,1.1,0.6,1.9,1.1,2.4c0.5,0.6,0.9,0.9,1.3,0.9
	c0.1,0,0.2,0,0.2-0.1c0.1-0.1,0.2-0.7,0.3-1.8l1.1,0.6c-0.2,1.1-0.4,1.8-0.6,2.1s-0.5,0.4-0.9,0.4c-0.6,0-1.3-0.4-2-1.2
	c-0.6-0.7-1.1-1.7-1.5-3.1c-0.1-0.5-0.2-1.1-0.3-1.8l-2.5,0.3l-0.1-1l2.5-0.3c-0.1-0.9-0.1-2-0.1-3.3h1.1c0,1.2,0.1,2.3,0.2,3.2
	l3.7-0.4V4.8z M202.4,2.9l-1,0.7c-0.3-0.5-0.8-1.1-1.3-1.7l0.8-0.5C201.5,1.9,202.1,2.4,202.4,2.9z"/>
<path class="st0" d="M207,2.2h1.6v0.9h-4.3V2.2h1.6c-0.1-0.4-0.3-0.8-0.4-1.2l1.1-0.1C206.7,1.3,206.9,1.7,207,2.2z M208.2,10.6
	h-2.4v0.8h-1V7.3h3.5v3.3H208.2z M208.1,3.9v0.9h-3.4V3.9H208.1z M208.1,5.6v0.9h-3.4V5.6H208.1z M207.1,9.6V8.2h-1.4v1.4H207.1z
	 M210,7.5c-0.1,1.2-0.3,2.2-0.5,3.1l-1-0.4c0.2-0.8,0.4-1.8,0.5-3.1L210,7.5z M211.2,2.2V0.9h1.1v1.3h2.6v1h-2.6v1.5h2.3v0.9H209
	V4.7h2.2V3.2h-2.3v-1H211.2z M211.2,7.2V10c0,0.2,0.1,0.3,0.4,0.3h0.4c0.2,0,0.3,0,0.4-0.1c0.1-0.1,0.1-0.6,0.2-1.4l0.9,0.3
	c-0.1,1.1-0.2,1.7-0.4,1.9c-0.2,0.2-0.5,0.3-1,0.3h-0.9c-0.3,0-0.5-0.1-0.7-0.2c-0.2-0.2-0.3-0.4-0.3-0.7V7.3L211.2,7.2L211.2,7.2z
	 M212.6,7.3l-0.9,0.4c-0.3-0.6-0.5-1.2-0.9-1.7l0.9-0.3C212,6.2,212.3,6.7,212.6,7.3z M214.9,10l-0.9,0.4c-0.3-1.2-0.5-2.2-0.8-3.1
	l0.9-0.3C214.4,8,214.7,9,214.9,10z"/>
<path class="st0" d="M76.7,22.8v1h-3.5c-0.2,0.5-0.5,1-0.8,1.4v7.5h-1.2v-6c-0.1,0.1-0.2,0.2-0.3,0.3c-1,1-2.2,2-3.7,2.8l-0.7-0.9
	c1.4-0.8,2.6-1.6,3.6-2.6c0.6-0.6,1.3-1.4,1.8-2.5h-5.2v-1H76.7z M76.7,28.8l-0.9,0.9c-0.7-0.9-1.6-1.9-2.8-3l0.8-0.8
	C75,26.9,75.9,27.9,76.7,28.8z"/>
<path class="st0" d="M82.1,28.9c-0.9,1.4-2,2.6-3.4,3.6l-0.8-1c1.2-0.9,2.3-2,3.3-3.4L82.1,28.9z M87.5,22.7v4.9h-8.3v-4.9H87.5z
	 M86.3,23.7h-5.9v2.9h5.9V23.7z M88.4,31.9l-1.1,0.7c-0.7-1.1-1.7-2.4-3-3.8l0.9-0.6C86.6,29.7,87.6,30.9,88.4,31.9z"/>
<path class="st0" d="M99.7,26.4v1.1h-10v-1.1H99.7z"/>
<path class="st0" d="M105.7,22.2v1.7c0,0.6-0.1,1.2-0.3,1.6c-0.2,0.4-0.5,0.7-0.9,1.1h1.2v-0.7h1v0.7h4.3v0.8h-4.3v0.5h3.8v2.8h-3.9
	v0.5h4.8V32h-4.8v0.7h-1V32h-4.5v-0.8h4.5v-0.5H102v-2.8h3.6v-0.5h-4.1v-0.8h2.4l-0.6-0.5c0.3-0.2,0.5-0.3,0.7-0.5
	c-0.8,0.1-1.7,0.2-2.8,0.3l-0.2-0.8c1.5,0,2.7-0.1,3.6-0.3c0-0.1,0.1-0.2,0.1-0.3h-3.2v-0.7h3.2v-0.4h-3.4v-0.7h3.4v-0.5H105.7z
	 M105.6,29v-0.5H103V29H105.6z M105.6,29.5H103v0.4h2.6V29.5z M106.7,29h2.8v-0.5h-2.8V29z M109.5,29.5h-2.8v0.4h2.8V29.5z
	 M108,22.2v0.5h3.2v0.7H108v0.4h3.1v0.7H108V25h3.5v0.7H108v0.4h-1v-4h1V22.2z"/>
<path class="st0" d="M121.7,22.6v0.9c-0.6,0.7-1.7,1.5-3.3,2.6v0.8h4.4V28h-4.3v3.6c0,0.3-0.1,0.6-0.2,0.8c-0.2,0.2-0.5,0.3-0.8,0.3
	h-2.2l-0.1-1.2c0.7,0.1,1.3,0.1,1.7,0.1c0.2,0,0.3-0.1,0.3-0.4V28h-4.7v-1.1h4.7v-1.4c1.1-0.6,2.1-1.2,3-1.8h-6.5v-1h8V22.6z"/>
<path class="st0" d="M134.4,27.2v1h-4.5v1.1h3.9v0.9h-3.9v1.2c0.6,0,1.2,0.1,2,0.1c1.1,0,2,0,2.7-0.1l-0.3,1.1
	c-3.5,0-5.6-0.1-6.3-0.4c-0.7-0.2-1.3-0.7-1.7-1.4c-0.3,0.6-0.9,1.3-1.6,2l-0.8-1c0.6-0.5,1.1-1,1.4-1.5c0.3-0.5,0.6-1.1,0.7-1.9
	l1.1,0.2c-0.1,0.5-0.3,0.9-0.4,1.3c0.5,0.7,1,1.1,1.7,1.3c0.1,0,0.3,0.1,0.4,0.1v-3.1h-4.9v-1h10.5V27.2z M133.3,22.4v4.2h-8.2v-4.2
	H133.3z M132.2,24v-0.7h-6V24H132.2z M132.2,24.8h-6v0.8h6V24.8z"/>
<path class="st0" d="M141.6,22.8h4.3v0.9h-8.7v2.5c0.8-0.7,1.4-1.5,1.7-2.4l1,0.3c-0.2,0.5-0.5,1-0.7,1.4v0.9
	c0.8-0.8,1.4-1.6,1.9-2.5l0.9,0.2c-0.1,0.3-0.3,0.6-0.4,0.8h1.5c-0.1-0.3-0.3-0.6-0.5-0.9l1-0.1c0.1,0.3,0.3,0.6,0.4,1h1.6v0.8h-1.8
	v0.5h1.7v0.6h-1.7v0.5h1.7v0.6h-1.7v0.6h2v0.8h-4c0.5,0.4,0.9,0.7,1.2,1l-0.9,0.6c-0.3-0.4-0.7-0.8-1.2-1.3l0.6-0.4h-1.3v-2.5
	c-0.2,0.2-0.4,0.4-0.5,0.6l-0.5-0.7v2.7h-1v-2.6c-0.3,0.3-0.5,0.5-0.9,0.8l-0.1-0.6c0,0.8-0.1,1.7-0.2,2.6c-0.1,1-0.4,2-0.7,3
	l-0.9-0.8c0.3-0.8,0.5-1.7,0.6-2.5c0.1-0.9,0.1-1.8,0.1-2.5V23h4.3c-0.1-0.2-0.3-0.4-0.4-0.6l1.2-0.2
	C141.4,22.3,141.5,22.5,141.6,22.8z M139.2,30c-0.4,0.9-0.8,1.6-1.3,2.2l-0.9-0.6c0.5-0.6,0.9-1.3,1.3-2L139.2,30z M140.6,29.6v1.6
	c0,0.2,0.1,0.4,0.4,0.4h1.3c0.2,0,0.4,0,0.5-0.1c0.1-0.1,0.2-0.3,0.3-0.8L144,31c-0.1,0.8-0.3,1.2-0.5,1.4c-0.2,0.1-0.6,0.2-1.1,0.2
	h-1.8c-0.3,0-0.6-0.1-0.7-0.3c-0.2-0.2-0.3-0.4-0.3-0.7v-1.9L140.6,29.6L140.6,29.6z M142.8,25.5h-1.7V26h1.7V25.5z M142.8,26.7
	h-1.7v0.5h1.7V26.7z M142.8,27.8h-1.7v0.6h1.7V27.8z M146,31.6l-0.9,0.6c-0.4-0.6-0.9-1.4-1.5-2.2l0.8-0.5
	C145.1,30.3,145.6,31,146,31.6z"/>
<path class="st0" d="M149.5,23.4h1.6v0.9h-4.3v-0.9h1.6c-0.1-0.4-0.3-0.8-0.4-1.2l1.1-0.1C149.2,22.5,149.4,22.9,149.5,23.4z
	 M150.7,31.8h-2.4v0.8h-1v-4.1h3.5v3.3H150.7z M150.6,25.1V26h-3.4v-0.9H150.6z M150.6,26.8v0.9h-3.4v-0.9H150.6z M149.6,30.8v-1.4
	h-1.4v1.4H149.6z M157.3,27.1c-0.7,1.2-1.4,2.1-2,2.8c0.7,0.6,1.4,1.2,2.1,1.9l-0.6,1c-0.7-0.9-1.4-1.6-2.2-2.1
	c-0.8,0.7-1.7,1.2-2.9,1.8l-0.6-0.9c1.4-0.6,2.6-1.4,3.3-2.2c0.6-0.6,1.3-1.5,2-2.8L157.3,27.1z M154.9,23.2h2.5v1h-3
	c-0.3,0.6-0.6,1.3-1.1,2c0.5,0,1,0,1.4,0c0.3-0.4,0.5-0.8,0.7-1.3l1,0.4c-0.7,1.2-1.3,2-1.8,2.6c-0.5,0.6-1.3,1.3-2.6,2.1l-0.9-0.8
	c1.1-0.6,2-1.3,2.6-1.9l0.1-0.1c-0.7,0.1-1.6,0.1-2.7,0.1l-0.1-1h0.9c0.5-0.6,0.9-1.3,1.2-2h-2v-1h2.5c-0.2-0.3-0.3-0.7-0.5-1
	l1.1-0.1C154.6,22.4,154.7,22.8,154.9,23.2z"/>
<path class="st0" d="M160.5,29.4c-0.3,1.2-0.6,2.2-1,3l-1-0.6c0.4-0.8,0.8-1.7,0.9-2.6L160.5,29.4z M162.1,22.3
	c-0.2,0.4-0.4,0.7-0.5,1h7.1v1H162v0.8h6.1V26H162v0.9h6.1v0.9H162v0.9h-1.1v-4.3c-0.5,0.8-1,1.4-1.5,1.9l-0.7-0.9
	c1-1,1.8-2.1,2.4-3.4L162.1,22.3z M162,29v2.2c0,0.3,0.1,0.4,0.4,0.4h3.2c0.2,0,0.3,0,0.4-0.1s0.2-0.4,0.2-1.1l1,0.3
	c-0.1,0.9-0.3,1.4-0.5,1.6s-0.5,0.3-1,0.3h-3.8c-0.3,0-0.6-0.1-0.8-0.3c-0.2-0.2-0.3-0.4-0.3-0.7V29H162z M165.3,30.2l-1,0.4
	c-0.4-0.7-0.8-1.3-1.3-1.8l1-0.3C164.5,29,165,29.6,165.3,30.2z M169,31.3l-1,0.4c-0.5-1-1-1.9-1.5-2.6l1-0.3
	C168.1,29.6,168.6,30.5,169,31.3z"/>
<path class="st0" d="M176.1,22.9h4.3v0.9h-1.9v0.7h1.7v0.8h-1.7v3h-0.9v-3h-1.4v-0.8h1.4v-0.7h-3.1v0.7h1.3v0.8h-1.3v3h-1v-3h-1.4
	v-0.8h1.4v-0.7h-1.8v2.4c0,1-0.1,2-0.2,3.1c-0.2,1.1-0.4,2.2-0.8,3.3l-0.9-0.8c0.4-0.9,0.6-1.8,0.7-2.8s0.2-1.9,0.2-2.8v-3.3h4.3
	c-0.1-0.3-0.2-0.5-0.4-0.8l1.1-0.1C175.8,22.3,175.9,22.6,176.1,22.9z M173.1,25.7c0,0.7-0.1,1.1-0.1,1.3c-0.1,0.4-0.2,0.7-0.4,1.1
	l-0.7-0.5c0.2-0.2,0.3-0.5,0.3-0.7c0-0.3,0.1-0.7,0.1-1.2H173.1z M176.1,28.2c-0.5,0.4-1,0.8-1.5,1.2c0.8,0,1.5,0,2.3-0.1
	c0.3-0.3,0.7-0.6,1.1-0.9l0.9,0.6c-1.1,0.9-2.1,1.5-2.9,1.9c-0.3,0.2-0.6,0.3-1,0.4c1.2-0.1,2.4-0.2,3.4-0.3
	c-0.1-0.2-0.3-0.4-0.4-0.6l0.8-0.4c0.6,0.8,1.2,1.5,1.5,2l-0.9,0.6c-0.1-0.3-0.3-0.5-0.5-0.8c-1.4,0.3-3.7,0.5-6.8,0.7l-0.1-1
	c0.3,0,0.6,0,0.8,0c1-0.3,1.8-0.7,2.4-1.1c0.2-0.1,0.4-0.2,0.6-0.4c-1,0.1-2.2,0.1-3.4,0.2l-0.2-0.9c0.4,0,0.8,0,1.2,0
	c0.6-0.5,1.2-1,1.7-1.6L176.1,28.2z M175.7,25.7v2h-0.8v-2H175.7z M177.2,25.5c0,0.7,0,1.2-0.1,1.4c-0.1,0.4-0.2,0.8-0.4,1.2
	l-0.7-0.5c0.1-0.3,0.2-0.5,0.3-0.8c0-0.3,0.1-0.7,0.1-1.3H177.2z M179.7,25.6V27c0,0.2,0.1,0.3,0.3,0.3h0.4V28h-0.5
	c-0.3,0-0.5,0-0.7-0.2c-0.2-0.1-0.3-0.3-0.3-0.6v-1.7h0.8V25.6z"/>
<path class="st0" d="M186.1,24.7v-0.6h1.1v0.6h4.2v0.9h-4.2v0.7h4.8v0.9h-1.9c0.8,0.6,1.4,1.2,1.9,1.6l-0.9,0.6
	c-0.2-0.2-0.4-0.5-0.7-0.8c-2.5,0.1-5.4,0.1-8.7,0.2l-0.2-0.9c0.7,0,1.4,0,2.1,0l0.6-0.7h-2.8v-0.9h4.7v-0.7H182v-0.9H186.1z
	 M184,22.9v-0.8h1.1v0.8h1.3v0.9h-1.3v0.5H184v-0.5h-2.6v-0.9H184z M190.8,31.5h1.1v0.9h-10.6v-0.9h1v-2.2h8.4v2.2H190.8z
	 M184.9,31.5v-1.3h-1.4v1.3H184.9z M189.1,27.4l0.4-0.3h-4.1l-0.6,0.7c1.6,0,3.2,0,4.8,0C189.4,27.7,189.2,27.6,189.1,27.4z
	 M187.3,31.5v-1.3H186v1.3H187.3z M188.2,22.9v-0.8h1.1v0.8h2.6v0.9h-2.6v0.7h-1.1v-0.7h-1.3v-0.9H188.2z M189.8,31.5v-1.3h-1.4v1.3
	H189.8z"/>
<path class="st0" d="M198.9,24.1v-2h1.2v2h3.4v1.1h-3.4v6.3c0,0.4-0.1,0.7-0.3,0.9s-0.5,0.3-1,0.3H197l-0.2-1.1
	c0.7,0.1,1.3,0.1,1.7,0.1c0.3,0,0.5-0.1,0.5-0.3v-6.1h-0.2c-0.5,1.2-1,2.1-1.6,2.9c-0.8,1-2,2.1-3.6,3.1l-0.7-1.1
	c1.6-1,2.7-1.9,3.4-2.8c0.5-0.5,0.9-1.2,1.3-2.1H193v-1.1h5.9V24.1z"/>
<path class="st0" d="M205.8,24.1c0.1-0.6,0.2-1.2,0.3-1.9l1,0.1c-0.1,0.6-0.2,1.2-0.3,1.8h2.2v1c-0.1,1.3-0.3,2.4-0.6,3.3
	c-0.1,0.5-0.3,0.9-0.5,1.3c0.5,0.4,0.9,0.7,1.4,1.1l-0.6,0.9c-0.4-0.4-0.8-0.7-1.3-1.1c-0.5,0.7-1.2,1.4-2.2,2.2l-0.8-0.9
	c0.9-0.6,1.6-1.3,2.1-2c-0.6-0.4-1.2-0.7-1.8-1.1c0.4-1.2,0.7-2.4,1-3.7h-1.2v-1H205.8z M205.9,28.3c0.4,0.2,0.7,0.4,1,0.7
	c0,0,0,0,0-0.1c0.4-0.9,0.7-2.2,0.9-3.9h-1.3C206.4,26.2,206.2,27.3,205.9,28.3z M214.6,22.6v1.1c-0.6,0.8-1.2,1.5-1.9,2.2v1h2.3V28
	h-2.3v3.7c0,0.3-0.1,0.5-0.2,0.7c-0.2,0.2-0.4,0.3-0.7,0.3h-1.9l-0.2-1.1c0.5,0,1,0,1.5,0c0.2,0,0.4-0.1,0.4-0.3v-3.4H209v-1.1h2.6
	v-1.3c0.6-0.4,1.1-1,1.8-1.8h-4.1v-1.1H214.6z"/>
<path class="st0" d="M74.1,44.4v-1h1.1v1h4.5v-1h1.1v1h1.6v0.9h-1.6v5h1.9v1H72.2v-1h1.9v-5h-1.6v-0.9H74.1z M76.5,52.1
	c-0.9,0.6-2,1.2-3.3,1.7l-0.8-1c1.2-0.4,2.3-0.9,3.2-1.4L76.5,52.1z M79.7,46.3v-1h-4.5v1H79.7z M79.7,48.2v-1h-4.5v1H79.7z
	 M79.7,50.3v-1.2h-4.5v1.2H79.7z M82.5,52.9l-0.6,1c-1.1-0.7-2.2-1.2-3.4-1.6l0.5-0.9C80.3,51.8,81.4,52.3,82.5,52.9z"/>
<path class="st0" d="M92.7,45.1l-0.1,1.2h1.6V47h-1.7l-0.1,1.1h-7.3l0.1-1.1h-1.6v-0.7h1.7l0.1-1.2H92.7z M89.6,43.9H94v2h-1v-1.2
	h-8v1.2h-1v-2h4.5c-0.1-0.2-0.3-0.4-0.4-0.5l1.1-0.1C89.3,43.4,89.5,43.6,89.6,43.9z M93,48.5v3.9h-2.2c1,0.2,2,0.4,3,0.7L93.5,54
	c-1.2-0.4-2.3-0.7-3.6-0.9l0.3-0.7h-2.4l0.3,0.4c-0.6,0.3-1.1,0.5-1.5,0.6c-0.5,0.2-1.2,0.3-2,0.5L84.1,53c0.8-0.1,1.4-0.3,2-0.4
	c0.2-0.1,0.5-0.1,0.7-0.2h-1.9v-3.9H93z M92,49.6v-0.4h-6.2v0.4H92z M92,50.7v-0.4h-6.2v0.4H92z M92,51.3h-6.2v0.4H92V51.3z
	 M88.3,47.4V47h-2.1v0.4H88.3z M88.4,46.3v-0.5h-2.1v0.5H88.4z M89.3,47.4h2.3V47h-2.3V47.4z M89.3,46.3h2.3v-0.5h-2.3V46.3z"/>
<path class="st0" d="M97.5,46.8c-0.3,2.3-0.7,4.2-1.2,5.8l-1.1-0.7c0.5-1.7,0.9-3.4,1.1-5.3L97.5,46.8z M99.4,46.1v6.1
	c0,0.3,0.1,0.4,0.4,0.4h2.1c0.1,0,0.3-0.1,0.3-0.3c0.1-0.2,0.1-1,0.2-2.4l1.1,0.3c-0.1,1.7-0.2,2.7-0.4,3c-0.2,0.3-0.5,0.5-1,0.5
	h-2.6c-0.3,0-0.6-0.1-0.8-0.3c-0.2-0.2-0.3-0.5-0.3-0.8v-6.5H99.4z M102.4,46.3l-1.1,0.8c-0.5-0.8-1.2-1.8-2.1-2.8l0.9-0.6
	C101.1,44.7,101.8,45.6,102.4,46.3z M105.6,51.6l-1.1,0.5c-0.4-1.9-0.9-3.7-1.5-5.2l1.1-0.4C104.7,48.2,105.2,49.9,105.6,51.6z"/>
<path class="st0" d="M109.2,45.2h1.1v0.9c-0.4,0.8-0.7,1.5-1.1,2.1c0.1,0.1,0.1,0.1,0.2,0.2c0.3-0.3,0.5-0.7,0.7-1.2l0.7,0.7
	c-0.3,0.4-0.5,0.8-0.8,1.1c0.3,0.3,0.5,0.6,0.8,0.9l-0.6,0.9c-0.3-0.5-0.7-1-1-1.3v4.4h-1v-4.4c-0.4,0.4-0.8,0.8-1.3,1.3l-0.4-1.2
	c0.6-0.5,1.1-1,1.4-1.4c0.4-0.4,0.7-1,1.2-1.9h-2.4v-0.9h1.4c-0.2-0.6-0.3-1.2-0.6-1.8l1.1-0.1C108.9,43.8,109,44.5,109.2,45.2z
	 M116.8,43.9v5.3h-2.4v1.3h2.3v0.9h-2.3v1.2h2.9v0.9h-7v-0.9h3.1v-1.2h-2.3v-0.9h2.3v-1.3h-2.3v-5.3H116.8z M113.3,46v-1.3H112V46
	H113.3z M113.3,46.9H112v1.3h1.3V46.9z M114.3,46h1.4v-1.3h-1.4V46z M115.7,46.9h-1.4v1.3h1.4V46.9z"/>
<path class="st0" d="M128.6,43.9v1h-4.5c-0.1,0.4-0.3,0.7-0.5,1.1h4.6v7.9h-1.1v-0.6H120v0.6h-1.1V46h3.6c0.2-0.3,0.4-0.7,0.5-1.1
	h-4.6v-1H128.6z M121.2,52.3v-5.4h-1.3v5.4H121.2z M124.7,48v-1.1h-2.5V48H124.7z M124.7,50.1v-1.2h-2.5v1.2H124.7z M124.7,52.3V51
	h-2.5v1.3H124.7z M127,52.3v-5.4h-1.3v5.4H127z"/>
<path class="st0" d="M132,44.4v-1.2h1v1.2h1.5v0.9H133v1.3h0.7c0.6-0.6,1.1-1.4,1.7-2.4l0.8,0.4c-0.4,0.8-0.8,1.4-1.3,2h0.8v0.9
	h-1.6c-0.2,0.2-0.4,0.4-0.6,0.6s-0.4,0.4-0.7,0.5h2.4v5.2h-1v-0.7h-2.5v0.7h-1v-4c-0.2,0.1-0.4,0.2-0.7,0.3l-0.5-0.8
	c1.3-0.5,2.3-1.1,3.2-1.8h-2.9v-0.9h2.2v-1.3h-1.8v-0.9H132z M134.3,50.4v-0.9h-2.5v0.9H134.3z M134.3,52.3v-1.1h-2.5v1.1H134.3z
	 M140.1,43.8v0.8c-0.4,1.2-0.7,2.3-1.1,3.4c0.5,0.7,0.9,1.2,1,1.6c0.2,0.4,0.3,0.8,0.3,1.2c0,0.7-0.1,1.2-0.4,1.6
	c-0.3,0.4-1,0.5-2.1,0.5l-0.3-1.1c0.3,0.1,0.7,0.1,1,0.1s0.5-0.1,0.6-0.3c0.1-0.1,0.1-0.4,0.1-0.8c0-0.2-0.1-0.5-0.2-0.9
	c-0.2-0.4-0.5-1-1.1-1.8c0.4-1.2,0.8-2.2,1-3.2h-1.6v9h-1v-10L140.1,43.8L140.1,43.8z"/>
<path class="st0" d="M145.2,44.5c0.2-0.4,0.4-0.8,0.5-1.2l1.2,0.1c-0.1,0.4-0.3,0.8-0.4,1.1h5.2v1H146c-0.2,0.4-0.4,0.7-0.7,1h5.5
	v6.1c0,0.3-0.1,0.6-0.3,0.8s-0.5,0.3-0.9,0.3h-1.8l-0.2-1h1.8c0.2,0,0.3-0.1,0.3-0.3v-1.1h-5v2.4h-1.1v-5.2
	c-0.5,0.5-1.1,0.9-1.7,1.3l-0.7-0.9c1.2-0.8,2.1-1.6,2.9-2.6c0.2-0.2,0.4-0.5,0.6-0.8h-3.2v-1H145.2z M149.6,48.5v-0.9h-5v0.9H149.6
	z M149.6,50.5v-1.1h-5v1.1H149.6z"/>
<path class="st0" d="M155.7,43.7c-0.3,0.8-0.5,1.5-0.8,2.1v8h-1v-6.2c-0.3,0.4-0.6,0.9-0.9,1.3l-0.4-1.3c0.4-0.6,0.8-1.2,1.1-1.9
	c0.3-0.6,0.7-1.4,1-2.5L155.7,43.7z M162.6,53.8h-1v-0.5h-4.7v0.5h-1v-9.9h6.8L162.6,53.8L162.6,53.8z M161.6,52.2v-7.4h-4.7v7.4
	H161.6z M158.7,46.1v-1h1v1h1.6V47h-1.6v1.2h1.1v3.2h-3.2v-3.2h1.1V47h-1.5v-0.9H158.7z M159.8,49h-1.3v1.5h1.3V49z"/>
<path class="st0" d="M168.9,50.4v-0.9h1.1v0.9h4v0.9h-4v1.3h4.7v0.9h-10.3v-0.9h4.6v-1.3h-3.8v-0.9H168.9z M169.5,44.5h-1.7v0.8h1.5
	v2.4h-1.5v0.7h2v0.9h-5.3v-5.7h5.1v0.9H169.5z M166.8,44.5h-1.3v0.8h1.4L166.8,44.5L166.8,44.5z M168.4,46.8v-0.7h-2.9v0.7H168.4z
	 M166.8,47.7h-1.3v0.7h1.4L166.8,47.7L166.8,47.7z M174.4,43.6v0.8c-0.2,1-0.6,1.9-1.1,2.7c-0.1,0.2-0.3,0.4-0.5,0.6
	c0.5,0.4,1.2,0.8,2,1.1l-0.6,0.9c-0.9-0.4-1.7-0.8-2.2-1.3c-0.5,0.4-1.1,0.7-1.7,1l-0.5-1c0.6-0.2,1.1-0.5,1.5-0.7
	c-0.6-0.7-1-1.4-1.4-2.3l0.9-0.5c0.3,0.9,0.8,1.6,1.3,2.2c0.1-0.1,0.2-0.2,0.3-0.3c0.4-0.5,0.7-1.2,1-2.1h-3.5v-0.9h4.5V43.6z"/>
<path class="st0" d="M184.6,46.6v1h-3.1v1.7h3.3v1h-3.3v2.1c0.6,0.1,1.3,0.1,2.1,0.1c0.8,0,1.6,0,2.4-0.1l-0.2,1.2
	c-2.7,0-4.5-0.1-5.2-0.3c-0.6-0.1-1.2-0.4-1.8-0.8c-0.3-0.2-0.6-0.5-0.9-0.9c-0.4,0.7-0.9,1.4-1.6,2.2l-0.8-0.9
	c0.7-0.7,1.2-1.3,1.6-1.9c0.3-0.6,0.6-1.4,0.8-2.4l1.1,0.2c-0.2,0.7-0.4,1.4-0.6,1.9c0.3,0.6,0.8,1,1.3,1.3c0.2,0.1,0.5,0.3,0.7,0.4
	v-4.6h-3.2v-1h7.4V46.6z M181.6,44.3h4.4v2.8h-1.1v-1.8H177v1.8h-1.1v-2.8h4.5c-0.1-0.3-0.3-0.6-0.5-0.9l1.2-0.2
	C181.3,43.6,181.5,43.9,181.6,44.3z"/>
<path class="st0" d="M193.5,44.6l-0.4,0.4h4.5v1.1h-6.4V47c0,0.3,0,0.5,0,0.7h5.1c0,3.2-0.3,5-0.8,5.5c-0.3,0.4-1.2,0.6-2.8,0.6
	l-0.2-1.2c0.4,0.1,0.7,0.1,0.9,0.1c0.5,0,1-0.1,1.3-0.4s0.4-1.4,0.5-3.6h-4c-0.1,0.8-0.3,1.5-0.5,2.1c-0.4,1-1.1,2-2.2,3.1l-0.9-0.8
	c1-0.8,1.7-1.7,2.1-2.6c0.3-0.8,0.5-1.9,0.5-3.5v-0.9h-2.8V45h5c-0.4-0.3-0.8-0.7-1.3-1l0.8-0.7C192.4,43.7,193,44.1,193.5,44.6z"/>
<path class="st0" d="M204.6,43.5c-0.2,0.5-0.4,0.9-0.7,1.3h4.7v7.7c0,0.4-0.1,0.7-0.3,0.9c-0.2,0.2-0.4,0.3-0.8,0.3H206l-0.2-1.1
	l1.3,0.1c0.3,0,0.4-0.2,0.4-0.5v-6.3h-7v8h-1.2v-9h3.4c0.3-0.5,0.5-1,0.7-1.5L204.6,43.5z M206.3,47.2v4.2h-4.7v-4.2H206.3z
	 M205.2,48.2h-2.5v2.3h2.5V48.2z"/>
<path class="st0" d="M94.9,65.6c-0.5,0.2-1.1,0.4-1.8,0.5v1.6h2.4v-3.2h1.1v3.2h3.2v1h-3.2c0,1.2,0.1,2.1,0.3,2.9
	c0.5-0.6,0.9-1.5,1.3-2.7l1,0.4c-0.6,1.4-1.1,2.4-1.7,3.1c-0.1,0.1-0.2,0.2-0.2,0.3c0.1,0.2,0.2,0.3,0.3,0.4
	c0.3,0.4,0.6,0.6,0.7,0.6c0.1,0,0.3-0.7,0.5-2l0.9,0.7c-0.3,1.2-0.6,1.9-0.8,2.2c-0.2,0.2-0.4,0.3-0.7,0.3c-0.5,0-1-0.3-1.4-0.9
	c-0.2-0.2-0.3-0.4-0.4-0.6c-0.7,0.5-1.4,1-2.3,1.4L93.5,74c1-0.4,1.9-0.9,2.6-1.4c-0.1-0.2-0.2-0.5-0.2-0.8c-0.2-0.9-0.3-1.9-0.4-3
	h-2.4v1.6c0.7-0.2,1.3-0.4,2-0.7v1.1c-0.7,0.2-1.3,0.4-2,0.6v2.4c0,0.4-0.1,0.7-0.3,0.8c-0.2,0.2-0.5,0.3-0.9,0.3h-1.3l-0.2-1.1
	c0.5,0.1,0.9,0.1,1.2,0.1c0.3,0,0.4-0.1,0.4-0.3v-2c-0.8,0.2-1.6,0.3-2.4,0.5l-0.1-1.2c0.8-0.1,1.7-0.2,2.6-0.4v-1.9h-2.4v-1h2.4
	v-1.4c-0.7,0.1-1.4,0.2-2.1,0.3l-0.2-1c1.8-0.2,3.4-0.5,4.8-1.1L94.9,65.6z M99.5,66.8l-1,0.7c-0.4-0.6-0.9-1.2-1.6-2l0.8-0.5
	C98.5,65.7,99.1,66.3,99.5,66.8z"/>
<path class="st0" d="M103.9,64.9c-0.2,0.7-0.4,1.4-0.7,2V75h-1v-6.1c-0.3,0.5-0.6,1-1,1.4l-0.4-1.3c0.4-0.6,0.8-1.3,1.1-1.9
	c0.3-0.6,0.7-1.5,1-2.6L103.9,64.9z M107.2,70.1H105V75h-1v-9.9h3.2V70.1z M106.2,67.1v-1.2h-1.1v1.2H106.2z M106.2,69.3V68h-1.1
	v1.3H106.2z M110.9,65.1V74c0,0.4-0.1,0.7-0.3,0.9c-0.2,0.2-0.5,0.3-0.9,0.3h-1l-0.2-1h1.1c0.3,0,0.4-0.1,0.4-0.4v-3.5h-2.2v-5.1
	h0.5L110.9,65.1L110.9,65.1z M109.9,67.2v-1.3h-1.2v1.3H109.9z M109.9,68h-1.2v1.3h1.2V68z"/>
<path class="st0" d="M116.2,66c0.2-0.5,0.4-1,0.6-1.5l1.2,0.1c-0.2,0.5-0.3,1-0.5,1.4h5.4v1H117c-0.3,0.4-0.5,0.8-0.8,1.2
	c-0.3,0.4-0.6,0.8-1,1.2V75h-1.1v-4.5c-0.3,0.2-0.5,0.4-0.8,0.6l-0.7-0.9c1.1-0.8,2-1.7,2.7-2.6c0.1-0.2,0.3-0.4,0.4-0.6h-3.2v-1
	H116.2z M118.7,69.8v-2.3h1.1v2.3h2.6v1h-2.6v2.8h3v1h-7.3v-1h3.2v-2.8H116v-1H118.7z"/>
<path class="st0" d="M126.9,67.2V68c-0.4,0.6-0.9,1.3-1.4,2h1.4v0.7c-0.2,0.7-0.3,1.3-0.5,1.7c0.4,0.5,0.8,0.8,1.1,0.9
	c0.2,0.1,0.6,0.3,1.1,0.3c0.6,0.1,1.6,0.1,3.3,0.1c1.2,0,2.1,0,2.7-0.1l-0.1,1.1c-3.2,0-5.1,0-5.8-0.1c-0.6-0.1-1.1-0.2-1.5-0.4
	c-0.3-0.1-0.7-0.5-1.1-1c-0.3,0.6-0.8,1.1-1.3,1.7l-0.8-0.8c0.6-0.6,1-1.1,1.3-1.6c0.2-0.3,0.4-0.8,0.7-1.7h-1.6v-0.9
	c0.5-0.5,1-1.1,1.5-1.9h-1.7v-0.9L126.9,67.2L126.9,67.2z M126.6,66.1l-0.8,0.8c-0.3-0.5-0.7-1-1.3-1.6l0.7-0.7
	C125.8,65.1,126.3,65.6,126.6,66.1z M131.2,65.5h3.2v1h-7.2v-1h2.9c-0.1-0.3-0.3-0.6-0.4-0.9l1.1-0.1
	C130.9,64.8,131,65.1,131.2,65.5z M133.8,67.1V68h-6v-0.9H133.8z M133.8,68.6v0.9h-6v-0.9H133.8z M133.7,70.2V73h-5.8v-2.8H133.7z
	 M132.7,71.1h-3.8v1h3.8V71.1z"/>
<path class="st0" d="M137.9,64.7V67h3.1v-2.5h1.2V67h3.3v1.1h-7.6c0,0.7,0,1.3-0.1,1.8h5.6V75h-1.2v-4h-4.6c0,0.3-0.1,0.5-0.1,0.7
	c-0.2,1.1-0.6,2.2-1.2,3.3l-1-0.9c0.5-0.9,0.9-1.8,1.1-2.8c0.2-0.8,0.3-2,0.3-3.7v-3L137.9,64.7L137.9,64.7z"/>
<path class="st0" d="M151.4,67.9v-3.3h1.3v3.3h3.9V69h-3.9v4.1h4.7v1.2h-10.3v-1.2h4.4V69h-3.7v-1.1H151.4z"/>
<path class="st0" d="M159.7,67.5v-2.9h1.1v2.9h1.2v1.1h-1.2v3.5c0.4-0.1,0.8-0.3,1.2-0.5v1.2c-1,0.5-2.1,0.9-3.4,1.2l-0.1-1.2
	c0.4,0,0.8-0.1,1.2-0.3v-3.8h-1.2v-1.1L159.7,67.5L159.7,67.5z M168.7,70.2c0,0.5-0.1,0.9-0.3,1.1c-0.2,0.3-0.7,0.4-1.5,0.4
	l-0.4-1.1h0.7c0.2,0,0.4,0,0.4-0.1s0.1-0.3,0.1-0.6v-2.1l-1.4,0.6v4.3h-1v-3.9l-1.3,0.5v4c0,0.3,0.1,0.4,0.4,0.4h3
	c0.2,0,0.4,0,0.5-0.1c0.1-0.1,0.2-0.5,0.3-1.3l1,0.3c-0.1,1.1-0.3,1.7-0.5,1.9c-0.2,0.2-0.6,0.3-1.1,0.3H164c-0.3,0-0.6-0.1-0.8-0.3
	c-0.2-0.2-0.3-0.5-0.3-0.8v-4L162,70v-1.1l0.9-0.3v-2.8h1.1v2.4l1.3-0.5v-3.1h1v2.7l2.6-1C168.7,68.9,168.7,70.2,168.7,70.2z"/>
<path class="st0" d="M180.1,67.1h-3.2c0.1,1.6,0.3,2.9,0.6,3.9c0.5-0.8,1-1.8,1.5-3.1l1,0.4c-0.6,1.7-1.3,3-2,3.8
	c0.5,1,0.9,1.5,1.1,1.5c0.1,0,0.3-0.5,0.4-1.6l0.9,0.6c-0.3,1.1-0.5,1.7-0.7,2c-0.1,0.2-0.3,0.3-0.5,0.3c-0.5,0-1-0.3-1.5-0.8
	c-0.3-0.3-0.5-0.6-0.7-1c-0.7,0.7-1.6,1.3-2.7,1.8l-0.6-1c1.2-0.5,2.2-1.2,2.9-1.9c-0.2-0.4-0.3-0.8-0.4-1.2c-0.2-1-0.4-2.2-0.5-3.7
	h-3.8v1.4h3.2c0,2.1-0.1,3.4-0.3,3.9c-0.2,0.6-0.6,1-1.1,1h-1.5l-0.2-1.1c0.8,0.1,1.3,0.1,1.7,0.1c0.1,0,0.2-0.2,0.2-0.5
	c0-0.4,0.1-1.2,0.1-2.4h-2.1c0,0.8-0.1,1.7-0.2,2.5c-0.2,1.1-0.6,2.1-1,3.1l-0.9-0.8c0.4-0.8,0.7-1.7,0.9-2.6
	c0.1-0.9,0.2-1.8,0.2-2.6V66h4.9c0-0.5,0-1,0-1.6h1.1c0,0.6,0,1.1,0,1.6h1.6c-0.3-0.3-0.7-0.6-1.1-0.9l0.7-0.7c0.5,0.3,1,0.7,1.4,1
	l-0.6,0.6h1.3L180.1,67.1L180.1,67.1z"/>
<path class="st0" d="M191.1,65.8h-6.8v0.7h6.4v0.9h-6.4v0.7h6.4V69h-6.4v0.8h7.6v1h-5.2c0.3,0.6,0.7,1,1.2,1.4
	c0.8-0.3,1.5-0.7,2.2-1.3l0.8,0.8c-0.6,0.5-1.3,0.9-2,1.2c0.9,0.5,1.9,0.9,3.2,1.2l-0.6,1.1c-1.8-0.6-3.2-1.3-4.1-2
	c-0.8-0.6-1.4-1.4-1.8-2.3h-1.5v2.8c0.8-0.1,1.6-0.3,2.4-0.6v1.1c-1.4,0.4-2.9,0.7-4.6,0.9l-0.1-1.1c0.4,0,0.8-0.1,1.2-0.1v-3h-1.4
	v-1h1.7V65h7.9L191.1,65.8L191.1,65.8z"/>
<path class="st0" d="M81.9,86.7c-1.2,0.2-2.6,0.4-4.2,0.5c-0.1,0.3-0.2,0.5-0.3,0.7h4.8v0.8h-5.1c-0.1,0.2-0.2,0.4-0.3,0.6h5.9v0.9
	h-6.4c0,0.1-0.1,0.1-0.1,0.2c-0.1,0.2-0.2,0.3-0.3,0.4h5.6v5.4h-1v-0.4h-5.2v0.4h-1v-3.9c-0.5,0.5-1,0.9-1.6,1.3l-0.6-1
	c1.2-0.9,2.1-1.8,2.8-2.6h-2.6v-0.9h3.2c0.1-0.2,0.3-0.4,0.4-0.6h-3.1v-0.8h3.5c0.1-0.2,0.2-0.4,0.3-0.7c-1,0-2.2,0.1-3.4,0.1
	l-0.3-0.9c3.3,0,6.1-0.2,8.4-0.6L81.9,86.7z M80.6,92.2v-0.6h-5.2v0.6H80.6z M80.6,93.6V93h-5.2v0.6H80.6z M80.6,95v-0.6h-5.2V95
	H80.6z"/>
<path class="st0" d="M89.8,86v1h-2.9l-1,2.3c0.9,0,1.7-0.1,2.5-0.1c-0.2-0.4-0.3-0.7-0.5-1.2l0.8-0.5c0.6,1,1,1.9,1.3,2.6l-1,0.7
	c-0.1-0.2-0.2-0.5-0.3-0.8c-0.4,0.1-0.9,0.1-1.4,0.2v1.5h2.1v1h-2.1v1.7c0.9-0.1,1.7-0.2,2.6-0.4v1c-1.7,0.3-3.6,0.6-5.8,0.9
	l-0.3-1.1c0.9-0.1,1.7-0.1,2.5-0.2v-1.9h-2.1v-1h2.1v-1.4c-0.6,0-1.3,0.1-2.1,0.1L84,89.3c0.2,0,0.5,0,0.7,0l1-2.3h-1.9v-1H89.8z
	 M91.5,86.4v7.3h-1.1v-7.3H91.5z M93.7,85.7v9.2c0,0.4-0.1,0.7-0.3,0.9c-0.2,0.2-0.5,0.3-0.9,0.3H91l-0.3-1.2
	c0.6,0.1,1.1,0.1,1.5,0.1c0.3,0,0.4-0.1,0.4-0.3v-9H93.7z"/>
<path class="st0" d="M105,86.3v1.1c-1.2,1-2.5,1.9-4.1,2.7v5.1c0,0.3-0.1,0.5-0.2,0.7c-0.2,0.2-0.5,0.4-0.7,0.4h-1.8l-0.3-1.1
	c0.4,0,0.9,0,1.4,0c0.3,0,0.4-0.1,0.4-0.3v-5.4c1.1-0.4,2.3-1.1,3.6-2h-7.4v-1.1h9.1V86.3z"/>
<path class="st0" d="M110.4,86.4c-0.8,1-1.8,1.9-2.9,2.7l-0.7-0.9c1.1-0.6,2-1.4,2.9-2.4L110.4,86.4z M110.4,89
	c-0.3,0.7-0.7,1.4-1.1,1.9v5.3h-1.1V92c-0.4,0.4-0.7,0.7-1.2,1l-0.4-1.3c0.6-0.4,1.1-0.9,1.5-1.4c0.4-0.4,0.9-1,1.3-1.9L110.4,89z
	 M116.4,91.2h-2.2c0.1,0.6,0.3,1.2,0.5,1.6c0.6-0.3,1.2-0.7,1.7-1.3l0.8,0.8c-0.6,0.6-1.3,1-2,1.4c0.5,0.7,1.2,1.3,2,1.7l-0.6,1
	c-1.1-0.7-1.9-1.5-2.4-2.4c-0.5-0.8-0.9-1.7-1.1-2.7h-1.2v3.5c0.7-0.1,1.3-0.3,1.9-0.5v1c-1.1,0.4-2.4,0.7-3.9,1.1l-0.3-1.2
	c0.4,0,0.8-0.1,1.1-0.2v-8.8h5.4v5H116.4z M115.3,88.1v-1H112v1H115.3z M115.3,90.1V89H112v1.1H115.3z"/>
<path class="st0" d="M123.5,85.8c-0.1,0.3-0.3,0.5-0.5,0.7h4.3v0.9c-0.7,0.9-1.7,1.7-2.9,2.3c-1.6,0.9-3.4,1.5-5.6,1.8l-0.4-0.9
	c1.6-0.2,2.9-0.5,4-1c-0.4-0.4-0.8-0.8-1.3-1.2l0.8-0.5c0.6,0.5,1.1,0.9,1.5,1.2c0.9-0.5,1.6-1,2.3-1.6h-3.9c-0.1,0-0.1,0.1-0.1,0.1
	c-0.7,0.5-1.6,1-2.6,1.4l-0.7-0.9c1-0.3,1.8-0.7,2.4-1.1c0.5-0.3,1-0.7,1.4-1.3L123.5,85.8z M126.1,89.9c-0.3,0.3-0.5,0.6-0.7,0.9
	h3.1v0.9c-0.8,1.4-1.7,2.4-2.8,3c-1.2,0.7-3.2,1.2-5.9,1.6l-0.8-1c2.2-0.2,3.9-0.5,5.1-0.9c-0.4-0.4-0.8-0.8-1.3-1.2l0.8-0.5
	c0.6,0.5,1.2,0.9,1.6,1.2c0.8-0.5,1.5-1.1,2-2h-3c0,0-0.1,0-0.1,0.1c-0.8,0.6-2.1,1.2-3.9,1.8l-0.8-1c1.6-0.4,2.8-0.9,3.6-1.3
	c0.8-0.4,1.4-0.9,1.9-1.6H126.1z"/>
<path class="st0" d="M135.8,86.2V91h-0.9v-5.7h3.6v0.9H135.8z"/>
<path class="st0" d="M143.7,87.1v-1.4h1v1.4h1.7v1h-1.7v1.2h1.7v1h-1.7v1.3h1.7v1h-1.7v1.9c0.2,0.1,0.4,0.1,0.6,0.1
	c0.6,0.1,1.8,0.2,3.7,0.2c1.3,0,2.3,0,2.9-0.1l-0.1,1c-3.5,0-5.6-0.1-6.4-0.2c-0.7-0.1-1.2-0.3-1.7-0.6c-0.3-0.2-0.7-0.6-1.1-1.2
	c-0.2,0.7-0.4,1.4-0.7,2.1l-0.8-0.7c0.3-0.8,0.4-1.6,0.6-2.2c0.1-0.6,0.2-1.3,0.2-2.2l1,0.1c0,0.7-0.1,1.3-0.1,1.7
	c0.3,0.5,0.6,0.9,0.9,1.1V90h-2.3v-1h2.3v-1.2h-2v-1h2V87.1z M151.1,90.4h-3.3v2.2c0,0.2,0.1,0.4,0.4,0.4h1.8c0.1,0,0.2,0,0.3-0.2
	c0.1-0.1,0.1-0.6,0.1-1.6l1,0.3c-0.1,1.2-0.2,1.9-0.4,2.1c-0.2,0.2-0.5,0.3-0.9,0.3h-2.4c-0.3,0-0.6-0.1-0.8-0.3
	c-0.2-0.2-0.3-0.4-0.3-0.7v-6.6h4.4v4.1H151.1z M147.8,89.4h2.3v-2.1h-2.3V89.4z"/>
<path class="st0" d="M161.5,88.3v0.9h-2.4c-0.3,0.3-0.6,0.5-0.9,0.6c0.4,0.5,0.7,1,0.9,1.5c0.8-0.4,1.6-0.9,2.4-1.7l0.8,0.8
	c-0.5,0.4-1,0.8-1.6,1.1c0.3,0.6,0.6,1.2,0.9,1.7c0.4,0.5,0.9,1,1.5,1.6l-0.7,0.9c-0.7-0.7-1.3-1.4-1.8-2c-0.3-0.5-0.6-1-0.9-1.6
	c-0.2,0.1-0.3,0.2-0.5,0.2c0.1,0.5,0.2,1,0.2,1.5c0,0.9-0.1,1.5-0.4,1.9c-0.3,0.4-1.1,0.6-2.5,0.6l-0.4-1.1c0,0.1,0.2,0.1,0.6,0.1
	c0.6,0,1-0.1,1.2-0.2c0.2-0.2,0.3-0.6,0.3-1.2c0-0.2,0-0.3,0-0.5c-0.6,0.5-1.2,0.9-1.8,1.2c-0.8,0.4-1.9,0.9-3.2,1.3l-0.6-1
	c1.3-0.3,2.3-0.7,3.3-1.2c0.7-0.4,1.4-0.8,2-1.3c0-0.1-0.1-0.2-0.1-0.3c0-0.1-0.1-0.2-0.1-0.3c-0.6,0.4-1.2,0.8-1.7,1
	c-0.7,0.3-1.7,0.7-2.8,1l-0.5-0.9c1.1-0.3,2.1-0.6,2.9-0.9c0.6-0.3,1.2-0.6,1.7-0.9c-0.1-0.1-0.2-0.3-0.3-0.4
	c-1,0.4-2.2,0.8-3.5,1.1l-0.6-0.9c1.4-0.3,2.6-0.6,3.4-0.9c0.3-0.1,0.7-0.3,1-0.4h-3.2v-0.9h7.4V88.3z M158.4,86.5h4.5v2.3h-1v-1.3
	H154v1.3h-1v-2.3h4.2c-0.1-0.2-0.3-0.5-0.4-0.7l1.2-0.2C158.2,85.9,158.3,86.2,158.4,86.5z"/>
<path class="st0" d="M165.8,96.7v-0.9h2.7V91h0.9v5.7H165.8z"/>
<path class="st0" d="M179.1,85.9c-0.1,0.6-0.3,1.2-0.6,1.7h1.7V90c0.3-0.6,0.6-1.1,0.8-1.7s0.4-1.5,0.6-2.6l1.1,0.2
	c-0.1,0.6-0.2,1.2-0.3,1.6h3.5c0,4-0.1,6.4-0.2,7.2c-0.1,0.6-0.3,1-0.6,1.2c-0.3,0.2-0.9,0.3-1.8,0.3c-0.3,0-0.5,0-0.9,0l-0.2-1.1
	c0.3,0.1,0.7,0.1,1,0.1c0.7,0,1.1-0.2,1.2-0.7c0.1-0.6,0.2-2.5,0.3-5.8H182c0,0.1-0.1,0.1-0.1,0.2c-0.3,0.8-0.7,1.7-1.3,2.6
	l-0.5-0.7v4.7h-1V95H177v0.9h-1v-8.2h1.4c0.2-0.6,0.4-1.2,0.6-1.8H179.1z M179.2,90.7v-2.2h-2.1v2.2H179.2z M179.2,93.9v-2.3h-2.1
	v2.3H179.2z M184,92.8l-1.1,0.7c-0.3-0.8-0.8-1.8-1.3-2.9l0.9-0.6C183.1,91.1,183.6,92,184,92.8z"/>
<path class="st0" d="M189.2,87.6v-1.8h1.1v1.8h2v1h-2v1.9h1.4v4.8c1-0.5,1.8-1.2,2.5-1.8c-0.5-0.8-1-1.9-1.3-3.4
	c-0.2,0.3-0.4,0.6-0.7,0.9l-0.7-1c0.4-0.6,0.8-1.3,1.1-2c0.2-0.5,0.5-1.3,0.7-2.4l1.1,0.1c-0.1,0.6-0.2,1.1-0.4,1.6h3.7v1h-0.9
	c-0.1,1.9-0.5,3.5-1.2,4.6c-0.1,0.1-0.1,0.2-0.2,0.3c0.6,0.6,1.3,1.2,2.3,1.9l-0.6,1c-1-0.6-1.8-1.3-2.4-2c-0.7,0.7-1.5,1.4-2.6,2
	l-0.6-0.9h-3v0.7h-1.1v-5.7h1.6v-1.9h-2v-1h2.2V87.6z M190.6,94.4v-3h-2v3H190.6z M194.8,92.5c0.6-1,0.9-2.3,1-4h-2.1
	c0,0.1-0.1,0.2-0.1,0.3C193.9,90.4,194.3,91.7,194.8,92.5z"/>
<path class="st0" d="M203.4,86.4v-0.7h1.1v0.7h4.5v0.9h-4.5v0.5h4v2.3h-4v0.5h3.9V92h0.9v0.9h-0.9v1.5h-3.9v0.7
	c0,0.4-0.1,0.6-0.3,0.7c-0.2,0.2-0.5,0.2-0.9,0.2H202l-0.2-1c0.5,0.1,0.9,0.1,1.2,0.1s0.4-0.1,0.4-0.2v-0.5h-4.1v-0.9h4.1V93h-4.9
	v-0.9h4.9v-0.6h-4.1v-0.9h4.1v-0.5h-3.8v-2.3h3.8v-0.5h-4.5v-0.9H203.4z M203.4,88.6h-2.7v0.7h2.7V88.6z M207.4,88.6h-2.9v0.7h2.9
	V88.6z M204.5,92.1h2.9v-0.6h-2.9V92.1z M204.5,93.6h2.9V93h-2.9V93.6z"/>
<path class="st0" d="M59.4,107.6v1h-3.5c-0.2,0.5-0.5,1-0.8,1.4v7.5h-1.2v-6c-0.1,0.1-0.2,0.2-0.3,0.3c-1,1-2.2,2-3.7,2.8l-0.7-0.9
	c1.4-0.8,2.6-1.6,3.6-2.6c0.6-0.6,1.3-1.4,1.8-2.5h-5.1v-1H59.4z M59.4,113.6l-0.9,0.9c-0.7-0.9-1.6-1.9-2.8-3l0.8-0.8
	C57.7,111.7,58.7,112.7,59.4,113.6z"/>
<path class="st0" d="M63.3,107.1c-0.1,0.2-0.3,0.4-0.4,0.6h2.9v0.8c0.6-0.4,1-0.9,1.3-1.5l0.9,0.2c-0.1,0.2-0.2,0.4-0.3,0.5h3.5v0.9
	h-2.1c0.1,0.3,0.2,0.6,0.3,0.9l-1.1,0.1c-0.1-0.4-0.1-0.7-0.2-1h-1c-0.2,0.3-0.5,0.6-0.7,0.8l-0.6-0.8h-1.6c0.1,0.3,0.2,0.6,0.3,0.9
	l-1.1,0.1c-0.1-0.4-0.1-0.7-0.2-1h-1c-0.3,0.4-0.7,0.7-1,0.9l-0.7-0.8c0.8-0.5,1.4-1.1,1.8-1.7L63.3,107.1z M66.4,109.9h4.7v2.5h-1
	v-1.6h-8.2v1.6h-1v-2.5h4.5c-0.1-0.3-0.3-0.6-0.4-0.9l1.1-0.1C66.1,109.2,66.2,109.6,66.4,109.9z M69.6,113.8h-6.4v0.6H70v3h-1V117
	h-5.8v0.5h-1v-6h7.4V113.8z M68.6,113v-0.7h-5.4v0.7H68.6z M69.1,116.1v-0.9h-5.8v0.9H69.1z"/>
<path class="st0" d="M82.7,112v1h-4.5v1.1h3.9v0.9h-3.9v1.2c0.6,0,1.2,0.1,2,0.1c1.1,0,2,0,2.7-0.1l-0.3,1.1c-3.5,0-5.6-0.1-6.3-0.4
	c-0.7-0.2-1.3-0.7-1.7-1.4c-0.3,0.6-0.9,1.3-1.6,2l-0.8-1c0.6-0.5,1.1-1,1.4-1.5c0.3-0.5,0.6-1.1,0.7-1.9l1.1,0.2
	c-0.1,0.5-0.3,0.9-0.4,1.3c0.5,0.7,1,1.1,1.7,1.3c0.1,0,0.3,0.1,0.4,0.1v-3h-4.9v-1H82.7z M81.6,107.2v4.2h-8.2v-4.2H81.6z
	 M80.5,108.8v-0.7h-6v0.7H80.5z M80.5,109.6h-6v0.8h6V109.6z"/>
<path class="st0" d="M87.5,108.4c0.2-0.5,0.4-1,0.6-1.5l1.2,0.1c-0.2,0.5-0.3,1-0.5,1.4h5.4v1h-5.9c-0.3,0.4-0.5,0.8-0.8,1.2
	s-0.6,0.8-1,1.2v5.6h-1.1v-4.5c-0.3,0.2-0.5,0.4-0.8,0.6l-0.7-0.9c1.1-0.8,2-1.7,2.7-2.6c0.1-0.2,0.3-0.4,0.4-0.6h-3.1v-1H87.5z
	 M90,112.2v-2.3h1.1v2.3h2.6v1h-2.6v2.8h3v1h-7.4v-1h3.2v-2.8h-2.7v-1H90z"/>
<path class="st0" d="M98.1,109.7v0.8c-0.3,0.6-0.8,1.3-1.3,2h1.3v0.7c-0.2,0.7-0.3,1.3-0.5,1.7c0.4,0.6,0.8,0.9,1.1,1
	c0.3,0.2,0.6,0.3,1.1,0.4c0.6,0.1,1.6,0.1,3.3,0.2c1.2,0,2.1,0,2.7-0.1l-0.1,1c-3.2,0-5.1,0-5.8-0.1c-0.6-0.1-1.1-0.2-1.5-0.4
	c-0.3-0.2-0.7-0.5-1.2-1.1c-0.3,0.6-0.7,1.2-1.3,1.8l-0.8-0.8c0.6-0.6,1-1.1,1.2-1.6c0.2-0.3,0.4-0.8,0.7-1.7h-1.5v-0.9
	c0.4-0.5,0.9-1.1,1.4-1.9h-1.7v-0.9h2.9V109.7z M97.8,108.6l-0.8,0.8c-0.3-0.5-0.7-1.1-1.2-1.7l0.7-0.7
	C97,107.5,97.5,108.1,97.8,108.6z M102.1,107.2c-0.1,0.1-0.2,0.2-0.3,0.3h3.2v0.7c-0.6,0.9-1.2,1.5-2,1.9c-0.5,0.2-1.1,0.4-1.8,0.6
	c0,0,0,0-0.1,0.1h4.1v0.9h-2.5v0.8h3v0.9h-3v1.4h1.6v-1h1v1.8H99v-1.8h1v1h1.6v-1.4h-3.2v-0.9h3.2v-0.8h-1.3
	c-0.3,0.3-0.8,0.5-1.3,0.7l-0.5-0.7c0.6-0.2,1-0.5,1.3-0.7c-0.3,0.1-0.7,0.1-1.1,0.1l-0.6-0.9c0.7,0,1.2-0.1,1.8-0.2
	c-0.2-0.4-0.4-0.7-0.6-1c-0.2,0.1-0.4,0.1-0.7,0.2l-0.5-0.8c0.7-0.2,1.3-0.4,1.8-0.6c0.4-0.2,0.8-0.5,1.3-0.9L102.1,107.2z
	 M100.8,109.9c0.3,0,0.6-0.1,0.8-0.2c-0.3-0.5-0.6-0.9-0.9-1.3h-0.1c-0.1,0.1-0.3,0.2-0.5,0.2C100.3,109.1,100.6,109.5,100.8,109.9z
	 M102.4,109.4c0.6-0.3,1-0.6,1.4-1.1h-2.2C101.9,108.6,102.2,109,102.4,109.4z"/>
<path class="st0" d="M109.7,109.7v0.8c-0.4,0.6-0.8,1.3-1.4,2h1.4v0.7c-0.2,0.8-0.4,1.3-0.5,1.8c0.4,0.5,0.8,0.8,1,0.9
	c0.3,0.1,0.6,0.3,1.1,0.3c0.6,0.1,1.7,0.1,3.3,0.1c1.2,0,2.1,0,2.7-0.1l-0.1,1.1c-3.2,0-5.1,0-5.8-0.1c-0.6-0.1-1.1-0.2-1.5-0.4
	c-0.3-0.2-0.7-0.5-1.1-1c-0.3,0.5-0.7,1.1-1.2,1.7l-0.8-0.8c0.6-0.6,1-1.1,1.3-1.6c0.2-0.3,0.4-0.8,0.7-1.7h-1.6v-0.9
	c0.5-0.5,1-1.1,1.5-1.9H107v-0.9H109.7z M109.3,108.6l-0.7,0.7c-0.3-0.5-0.8-1.1-1.4-1.7l0.7-0.6
	C108.4,107.6,108.9,108.1,109.3,108.6z M116.7,110.5v2.4h-3c-0.2,0.2-0.3,0.3-0.5,0.5v2.5h-1v-1.7c-0.5,0.3-1.1,0.6-1.8,0.9
	l-0.5-0.9c0.6-0.2,1.2-0.5,1.8-0.9c0.2-0.1,0.4-0.3,0.6-0.4h-1.8v-2.4H116.7z M113,107.6v-0.7h1v0.7h2.7v0.9H114v0.7h3v0.9h-7.1
	v-0.9h3v-0.7h-2.6v-0.9H113z M115.7,111.4h-4.2v0.7h4.2V111.4z M114.8,114c0.4-0.3,0.7-0.7,0.9-1l0.8,0.5c-0.2,0.3-0.5,0.5-0.9,0.9
	c0.4,0.2,0.9,0.4,1.2,0.7l-0.5,0.9c-1-0.7-2-1.2-3-1.6l0.5-0.7C114.2,113.8,114.5,113.9,114.8,114z"/>
<path class="st0" d="M128.3,117.4h-1V117h-7.7v0.4h-1v-10.2h9.7V117.4z M127.4,116.1v-8h-7.7v8H127.4z M123.8,114.5
	c-1,0.3-2.2,0.5-3.6,0.8l-0.2-1c1.3-0.1,2.6-0.3,3.8-0.7V114.5z M123.7,109.3c0-0.3,0-0.7,0-1.1h0.9c0,0.4,0,0.7,0,1.1h1.1
	c-0.1-0.3-0.3-0.6-0.4-0.9l0.8-0.3c0.2,0.3,0.4,0.6,0.5,1l-0.5,0.1h0.9v0.9h-2.3c0,0.7,0.1,1.3,0.2,1.8c0.1,0.4,0.1,0.7,0.2,1.1
	c0.3-0.6,0.7-1.4,1.1-2.5l0.8,0.5c-0.5,1.4-1,2.4-1.4,3c0,0.1,0.1,0.1,0.1,0.2c0.2,0.4,0.3,0.5,0.5,0.5c0.1,0,0.2-0.4,0.3-1.3
	l0.9,0.7c-0.3,0.9-0.4,1.4-0.6,1.5c-0.1,0.2-0.3,0.3-0.5,0.3c-0.3,0-0.6-0.2-1-0.6c-0.1-0.1-0.2-0.3-0.3-0.4
	c-0.4,0.4-0.8,0.8-1.3,1.2l-0.5-0.7c0.6-0.4,1-0.9,1.4-1.3c-0.2-0.4-0.3-0.8-0.4-1.3c-0.2-0.6-0.3-1.4-0.3-2.4h-3.7v-0.9h3.5V109.3z
	 M123.1,110.8v2.7h-2.7v-2.7H123.1z M122.3,111.6h-1.1v1.1h1.1V111.6z"/>
<path class="st0" d="M138.5,109.5v0.9h-2.4c-0.3,0.3-0.6,0.5-0.9,0.6c0.4,0.5,0.7,1,0.9,1.5c0.8-0.4,1.6-0.9,2.4-1.7l0.8,0.8
	c-0.5,0.4-1,0.8-1.6,1.1c0.3,0.6,0.6,1.2,0.9,1.7c0.4,0.5,0.9,1,1.5,1.6l-0.6,1c-0.7-0.7-1.3-1.4-1.8-2c-0.3-0.5-0.6-1-0.9-1.6
	c-0.2,0.1-0.3,0.2-0.5,0.2c0.1,0.5,0.2,1,0.2,1.5c0,0.9-0.1,1.5-0.4,1.9c-0.3,0.4-1.1,0.6-2.5,0.6l-0.4-1.1c0,0.1,0.2,0.1,0.6,0.1
	c0.6,0,1-0.1,1.2-0.2c0.2-0.2,0.3-0.6,0.3-1.2c0-0.2,0-0.3,0-0.5c-0.6,0.5-1.2,0.9-1.8,1.2c-0.8,0.4-1.9,0.9-3.2,1.3l-0.6-1
	c1.3-0.3,2.3-0.7,3.3-1.2c0.7-0.4,1.4-0.8,2-1.3c0-0.1-0.1-0.2-0.1-0.3s-0.1-0.2-0.1-0.3c-0.6,0.4-1.2,0.8-1.7,1
	c-0.7,0.3-1.7,0.7-2.8,1l-0.5-0.9c1.1-0.3,2.1-0.6,2.9-0.9c0.6-0.3,1.2-0.6,1.7-0.9c-0.1-0.1-0.2-0.3-0.3-0.4
	c-1,0.4-2.2,0.8-3.5,1.1l-0.6-0.9c1.4-0.3,2.6-0.6,3.4-0.9c0.3-0.1,0.7-0.3,1-0.4h-3.2V110h7.3V109.5z M135.4,107.7h4.5v2.3h-1v-1.3
	H131v1.3h-1v-2.3h4.2c-0.1-0.2-0.3-0.5-0.4-0.7l1.2-0.2C135.2,107.1,135.3,107.4,135.4,107.7z"/>
<path class="st0" d="M144.2,109.7v0.8c-0.4,0.6-0.8,1.3-1.4,2h1.4v0.7c-0.2,0.7-0.3,1.3-0.5,1.7c0.4,0.5,0.8,0.9,1.1,1
	c0.2,0.2,0.6,0.3,1.1,0.4c0.6,0.1,1.6,0.1,3.3,0.2c1.2,0,2.1,0,2.7-0.1l-0.1,1c-3.1,0-5.1,0-5.7-0.1c-0.6-0.1-1.1-0.2-1.5-0.4
	c-0.3-0.2-0.7-0.5-1.1-1c-0.3,0.6-0.8,1.2-1.3,1.8l-0.8-0.8c0.6-0.6,1-1.1,1.3-1.6c0.2-0.3,0.4-0.8,0.7-1.7h-1.9v-0.9
	c0.5-0.5,1-1.1,1.5-1.9h-1.7v-0.9h2.9V109.7z M143.8,108.6l-0.8,0.8c-0.3-0.5-0.8-1.1-1.4-1.7l0.7-0.7
	C143,107.5,143.5,108.1,143.8,108.6z M150.9,111.3v2.1h-3c-0.1,0.2-0.3,0.3-0.4,0.4v2.3h-1v-1.5c-0.6,0.3-1.2,0.6-1.8,0.8l-0.5-0.9
	c0.8-0.2,1.4-0.5,1.9-0.7c0.2-0.1,0.4-0.3,0.6-0.4h-1.8v-2.1H150.9z M151.4,110v0.8h-7.1V110H151.4z M151,107.2v2.3h-6.4v-2.3H151z
	 M146.5,107.9h-0.9v0.9h0.9V107.9z M150,112h-4.1v0.6h4.1V112z M148.3,107.9h-0.9v0.9h0.9V107.9z M149.4,114.3
	c0.3-0.3,0.5-0.5,0.7-0.8l0.9,0.5c-0.2,0.2-0.4,0.5-0.7,0.8c0.3,0.2,0.7,0.4,1,0.6l-0.5,0.9c-1-0.8-2-1.4-3-1.8l0.5-0.7
	C148.6,113.8,149,114,149.4,114.3z M150,107.9h-0.9v0.9h0.9V107.9z"/>
<path class="st0" d="M163.2,112v1h-4.5v1.1h3.9v0.9h-3.9v1.2c0.6,0,1.2,0.1,2,0.1c1.1,0,2,0,2.7-0.1l-0.3,1.1
	c-3.5,0-5.6-0.1-6.3-0.4c-0.7-0.2-1.3-0.7-1.7-1.4c-0.3,0.6-0.9,1.3-1.6,2l-0.8-1c0.6-0.5,1.1-1,1.4-1.5c0.3-0.5,0.6-1.1,0.7-1.9
	l1.1,0.2c-0.1,0.5-0.3,0.9-0.4,1.3c0.5,0.7,1,1.1,1.7,1.3c0.1,0,0.3,0.1,0.4,0.1v-3h-4.9v-1H163.2z M162.1,107.2v4.2h-8.2v-4.2
	H162.1z M161,108.8v-0.7h-6v0.7H161z M161,109.6h-6v0.8h6V109.6z"/>
<path class="st0" d="M167.3,107.6h2.1v0.8h-5.3v-0.8h2c-0.2-0.2-0.4-0.4-0.6-0.5l1.2-0.2C166.9,107.1,167.1,107.3,167.3,107.6z
	 M168.8,111.2v0.7c-0.3,0.3-0.7,0.6-1.2,0.9c0.6,0,1.2-0.1,1.8-0.2v0.7c-0.5,0.1-1.2,0.2-2,0.2v0.8c0,0.2-0.1,0.4-0.2,0.5
	c-0.2,0.2-0.4,0.2-0.6,0.2h-1l-0.2-0.9c0.3,0.1,0.6,0.1,0.9,0.1c0.2,0,0.3-0.1,0.3-0.2v-0.5c-0.6,0-1.3,0.1-2,0.1l-0.1-0.9
	c0.8,0,1.5,0,2.2-0.1v-0.2c0.3-0.1,0.6-0.3,1-0.5h-2.9V111h4V111.2z M166.3,115.5c-0.3,0.8-0.6,1.5-1,2.1l-1-0.7
	c0.4-0.5,0.8-1.1,1.1-1.8L166.3,115.5z M168.9,108.8v1.9h-4.3v-1.9H168.9z M167.9,109.5h-2.4v0.5h2.3L167.9,109.5L167.9,109.5z
	 M168.7,117.3l-1.2,0.1c0-0.8-0.1-1.4-0.1-2l1-0.1C168.5,115.8,168.6,116.5,168.7,117.3z M171.7,106.9v1.3h1.7c0,1.4,0,2.7,0,3.9
	c0,0.4,0,0.8,0.1,1.1c0,0.2,0.1,0.3,0.1,0.3c0.2,0,0.3-0.5,0.4-1.6l0.9,0.5c-0.1,1-0.3,1.6-0.5,1.8c-0.2,0.2-0.4,0.3-0.6,0.3
	s-0.4-0.1-0.6-0.2c-0.2-0.2-0.4-0.4-0.5-0.7c-0.1-0.4-0.2-0.9-0.2-1.6c0-0.8,0-1.8,0-3h-0.8v0.3c0,0.8-0.1,1.6-0.2,2.2
	c0.3,0.4,0.7,0.8,0.9,1.2l-0.7,0.7c-0.2-0.3-0.4-0.6-0.6-0.9c-0.4,0.8-1,1.6-1.9,2.4l-0.8-0.7c0.9-0.7,1.5-1.4,1.9-2.1
	c0.1-0.1,0.1-0.3,0.2-0.4c-0.4-0.5-0.9-1-1.3-1.5l0.7-0.6c0.3,0.3,0.6,0.6,0.9,1c0-0.4,0.1-0.8,0.1-1.3V109h-1.4v-0.9h1.3v-1.3
	L171.7,106.9L171.7,106.9z M171.7,117.2l-1.2,0.1c-0.1-0.8-0.3-1.5-0.4-2.1l1-0.1C171.3,115.8,171.5,116.5,171.7,117.2z
	 M174.6,116.8l-1,0.7c-0.3-0.7-0.7-1.4-1.1-2.2l0.8-0.5C173.9,115.6,174.3,116.2,174.6,116.8z"/>
<path class="st0" d="M185.3,107.9c-1.1,0.2-2.3,0.4-3.8,0.5v1.6h1c0.2-0.5,0.4-1.1,0.5-1.7l1,0.1c-0.1,0.6-0.3,1.1-0.6,1.5h2.5v0.9
	H182c0.5,0.4,1,0.7,1.4,0.9c0.6,0.3,1.6,0.6,2.7,0.9l-0.4,1c-1.4-0.5-2.5-0.9-3.2-1.3c-0.4-0.2-0.8-0.5-1.2-0.9v1.6h-1v-1.6
	c-0.3,0.3-0.6,0.5-0.9,0.7c-0.9,0.6-2.1,1.1-3.3,1.5l-0.5-0.9c1.2-0.3,2.2-0.7,2.9-1c0.4-0.2,0.7-0.4,1.1-0.7h-3.7v-1h2.5
	c-0.2-0.4-0.4-0.8-0.7-1.2l1-0.1c0.2,0.4,0.4,0.8,0.7,1.3h1v-1.6c-1.2,0.1-2.4,0.1-3.8,0.1l-0.3-0.9c3.3,0,6.1-0.2,8.4-0.6
	L185.3,107.9z M177.9,114.1c-0.3,1.1-0.7,2.1-1.2,2.9l-0.9-0.6c0.5-0.8,0.9-1.6,1.1-2.5L177.9,114.1z M179.2,113.5v2.4
	c0,0.2,0.1,0.4,0.4,0.4h3.3c0.1,0,0.1,0,0.1-0.1c0-0.1,0.1-0.5,0.1-1.1l1,0.3c-0.1,0.9-0.2,1.5-0.4,1.6c-0.1,0.2-0.4,0.3-0.8,0.3
	h-3.8c-0.3,0-0.6-0.1-0.8-0.3s-0.3-0.4-0.3-0.7v-2.7L179.2,113.5L179.2,113.5z M182.3,114.9l-1,0.4c-0.4-0.7-0.8-1.3-1.3-1.8l1-0.3
	C181.5,113.8,182,114.3,182.3,114.9z M186.2,116l-1,0.5c-0.5-1-1.1-1.8-1.8-2.6l1-0.3C185.1,114.4,185.7,115.2,186.2,116z"/>
<path class="st0" d="M190.6,107.1c-0.1,0.6-0.3,1.2-0.6,1.7h1.7v2.4c0.3-0.6,0.6-1.1,0.8-1.7s0.4-1.5,0.6-2.6l1.1,0.2
	c-0.1,0.6-0.2,1.2-0.3,1.6h3.5c0,4-0.1,6.4-0.2,7.2c-0.1,0.6-0.3,1-0.6,1.2c-0.3,0.2-0.9,0.3-1.8,0.3c-0.3,0-0.5,0-0.9,0l-0.2-1.1
	c0.3,0.1,0.7,0.1,1,0.1c0.7,0,1.1-0.2,1.2-0.7c0.1-0.6,0.2-2.5,0.3-5.8h-2.7c0,0.1-0.1,0.1-0.1,0.2c-0.3,0.8-0.7,1.7-1.3,2.6
	l-0.5-0.7v4.7h-1V116h-2.1v0.9h-1v-8.2h1.4c0.2-0.6,0.4-1.2,0.6-1.8L190.6,107.1z M190.7,111.9v-2.2h-2.1v2.2H190.7z M190.7,115.1
	v-2.3h-2.1v2.3H190.7z M195.5,114l-1.1,0.7c-0.3-0.8-0.8-1.8-1.3-2.9l0.9-0.6C194.6,112.3,195.1,113.2,195.5,114z"/>
<path class="st0" d="M203.5,107.2c-0.7,1.4-1.5,2.6-2.3,3.4c0.2,0,0.4,0,0.6,0c1.7,0,3.4-0.1,5.2-0.4c-0.4-0.6-0.9-1.2-1.4-1.7
	l0.8-0.8c1.1,1.2,2,2.4,2.7,3.6l-0.9,0.9c-0.2-0.3-0.4-0.7-0.6-1c-2.3,0.3-5.1,0.5-8.4,0.5l-0.2-1.3c0.4,0,0.7,0.1,1.1,0.1
	c0.7-0.9,1.5-2.2,2.3-3.8L203.5,107.2z M208.2,117.5h-1.1v-0.7H201v0.7h-1.1v-4.9h8.4v4.9H208.2z M207.1,115.8v-2.2H201v2.2H207.1z"
	/>
<path class="st0" d="M212.3,110.9l-0.6,0.9c-0.5-0.5-1-0.9-1.6-1.2l0.5-0.8C211.2,110.1,211.8,110.5,212.3,110.9z M212.4,112.8
	c-0.4,1.8-0.8,3.3-1.3,4.5l-0.8-0.8c0.4-1.1,0.8-2.5,1.2-4.2L212.4,112.8z M212.5,108.1l-0.6,0.9c-0.5-0.5-0.9-0.9-1.4-1.1l0.5-0.8
	C211.5,107.4,212,107.7,212.5,108.1z M213.2,111.2c-0.1,0.5-0.3,0.9-0.4,1.3l-0.6-0.2c0.2-0.3,0.3-0.7,0.4-1.3L213.2,111.2z
	 M214.1,107.1c-0.2,0.6-0.5,1.1-0.7,1.5c0.2,0,0.3,0,0.5,0c0.2-0.3,0.3-0.6,0.5-0.9l0.5,0.3v-0.3h1.1c-0.1-0.2-0.2-0.4-0.4-0.6
	l0.8-0.1c0.1,0.2,0.3,0.5,0.4,0.7h1v0.7h-3V108c-0.4,0.8-0.8,1.5-1.2,2.1c0.2,0,0.4,0,0.6-0.1c0-0.1-0.1-0.3-0.1-0.4l0.5-0.2
	c0.1,0.4,0.2,0.8,0.3,1.3l-0.6,0.1c0-0.1,0-0.2-0.1-0.3c-0.5,0.1-1.2,0.2-2.1,0.3l-0.1-0.7c0.2,0,0.3,0,0.5,0c0.2-0.3,0.5-0.6,0.7-1
	c-0.3,0-0.7,0.1-1.1,0.1l-0.1-0.7h0.4c0.2-0.4,0.5-1,0.7-1.7L214.1,107.1z M220.1,112.8v1.9H214l-0.2,0.5h6.6c0,0.9-0.2,1.5-0.4,1.8
	s-0.7,0.4-1.6,0.4h-2.1l-0.1-0.9c1,0,1.7,0,2.2,0c0.3,0,0.5,0,0.6-0.1s0.2-0.3,0.2-0.6h-6.6l0.4-1.9h6v-0.4h-6.4v-0.7H220.1z
	 M214.1,112.4h-0.6c0-0.5-0.1-1-0.1-1.3h0.5C214,111.5,214.1,111.9,214.1,112.4z M215.1,112.2l-0.5,0.1c-0.1-0.4-0.2-0.9-0.3-1.3
	l0.5-0.1C214.9,111.3,215,111.8,215.1,112.2z M217.6,108.6v0.5h-2.4v-0.5H217.6z M217.6,109.6v0.5h-2.4v-0.5H217.6z M217.6,110.5
	v1.8h-2.3v-1.8H217.6z M216.9,111.2h-1v0.6h1V111.2z M218.6,111.3c-0.1,0.5-0.2,0.9-0.3,1.4l-0.6-0.2c0.1-0.3,0.2-0.7,0.3-1.3
	L218.6,111.3z M219.6,107.2c-0.2,0.6-0.5,1.1-0.7,1.5c0.2,0,0.4,0,0.6,0c0.1-0.2,0.3-0.4,0.4-0.7l0.7,0.3c-0.5,0.8-1,1.5-1.5,2
	c0.3,0,0.6,0,0.8-0.1c0-0.2-0.1-0.4-0.1-0.5l0.6-0.2c0.1,0.4,0.3,0.9,0.4,1.5l-0.6,0.1c0-0.1-0.1-0.2-0.1-0.3
	c-0.5,0.1-1.2,0.2-2.2,0.3l-0.1-0.7c0.2,0,0.3,0,0.5,0c0.3-0.3,0.5-0.6,0.8-1c-0.3,0-0.7,0.1-1.2,0.1l-0.1-0.7h0.4
	c0.2-0.4,0.5-1,0.7-1.7L219.6,107.2z M219.7,112.4H219c0-0.5,0-1-0.1-1.3h0.6C219.6,111.5,219.6,111.9,219.7,112.4z M220.7,112.3
	l-0.7,0.2c-0.1-0.4-0.2-0.9-0.3-1.3l0.6-0.2C220.6,111.4,220.7,111.8,220.7,112.3z"/>
<path class="st0" d="M222.4,112.9v-1.4h1.4v1.4H222.4z M226.3,112.9v-1.4h1.4v1.4H226.3z M230.1,112.9v-1.4h1.4v1.4H230.1z"/>
</svg>
