<?xml version="1.0" encoding="utf-8"?>
<!-- Generator: Adobe Illustrator 25.2.3, SVG Export Plug-In . SVG Version: 6.00 Build 0)  -->
<svg version="1.1" id="圖層_1" xmlns="http://www.w3.org/2000/svg" xmlns:xlink="http://www.w3.org/1999/xlink" x="0px" y="0px"
	 viewBox="0 0 280 77" style="enable-background:new 0 0 280 77;" xml:space="preserve">
<style type="text/css">
	.st0{fill:#C9A063;}
	.st1{fill:#D8B165;}
</style>
<path class="st0" d="M53.2,44.8l9.2-20.5l9.4,20.5h-3.4l-1.8-3.9H56.3l-1.7,3.9H53.2z M56.8,39.9h9.3l-4.7-10.3L56.8,39.9z"/>
<path class="st0" d="M87.9,43.7v1.1H75.1V27.2c0-1.2-0.8-2.2-2.5-2.7v-0.1H88v1.1h-9.8v8.1h8.2v1.3h-8.2v9h9.7V43.7z"/>
<path class="st0" d="M103.5,39.6c0,2.1-1.6,5.6-6.4,5.6c-3.8,0-6.3-1.6-6.9-5.8h0.9c0.6,3.8,3.8,4.7,5.6,4.7c3.3,0,4.1-2.3,4.1-3.3
	c0-2.2-1.8-3.3-5.1-5.1c-2.1-1.1-5.7-2.9-5.7-6.4c0-4.4,4.4-5.3,6-5.3c3.9,0,5.5,2.1,6.1,5h-1c-0.4-1.5-1.5-3.9-5.1-3.9
	c-1.7,0-3.6,1.4-3.6,3.2c0,2.1,2.5,3.4,5.1,4.7C102.3,35.4,103.5,37.1,103.5,39.6z"/>
<path class="st0" d="M121.3,25.6h-6.8v19.2h-3.1V25.6h-6.8v-1.3h16.6v1.3H121.3z"/>
<path class="st0" d="M145.4,44.6v0.1h-3.9c-0.9-0.1-1.6-0.8-1.6-1.7v-8.2h-10.3v9.9h-3.1V27.1c0-1.2-0.8-2.2-1.9-2.5h-0.1l-0.5-0.1
	v-0.1h3.9c0.5,0,0.9,0.2,1.2,0.5c0.3,0.3,0.5,0.7,0.5,1.2V34h10.3v-9.5h3.1v17.6c0,1.2,0.8,2.2,1.9,2.6h0.1L145.4,44.6z"/>
<path class="st0" d="M162.1,43.7v1.1h-12.9V27.2c0-1.2-0.8-2.2-2.5-2.7v-0.1h15.4v1.1h-9.8v8.1h8.2v1.3h-8.2v9h9.8V43.7z"/>
<path class="st0" d="M181.4,25.6h-6.8v19.2h-3.1V25.6h-6.8v-1.3h16.6L181.4,25.6L181.4,25.6z"/>
<path class="st0" d="M189.4,24.3v20.5h-2.8V27.2c0-1.2-0.8-2.2-2.5-2.7v-0.1L189.4,24.3L189.4,24.3z"/>
<path class="st0" d="M210.5,41c-0.3,0.5-2.5,4.2-8.3,4.2c-6.2,0-9.9-4.8-9.9-10.7s3.6-10.7,9.9-10.7c5.9,0,8.1,3.9,8.4,4.3l-0.7,0.7
	c-6.4-7.7-14-2.6-14,5.7c0,7.6,7.6,13.4,14,5.7L210.5,41z"/>
<path class="st0" d="M226.7,39.6c0,2.1-1.6,5.6-6.4,5.6c-3.8,0-6.3-1.6-6.9-5.8h0.9c0.6,3.8,3.8,4.7,5.6,4.7c3.3,0,4.1-2.3,4.1-3.3
	c0-2.2-1.8-3.3-5.1-5.1c-2.1-1.1-5.7-2.9-5.7-6.4c0-4.4,4.4-5.3,6-5.3c3.9,0,5.5,2.1,6.1,5h-1c-0.4-1.5-1.5-3.9-5.1-3.9
	c-1.7,0-3.6,1.4-3.6,3.2c0,2.1,2.5,3.4,5.1,4.7C225.5,35.4,226.7,37.1,226.7,39.6z"/>
<path class="st0" d="M108.7,65.5c0,7.4-4.4,10.7-9.9,10.7s-9.9-3.2-9.9-10.7c0-7.2,4.4-10.6,9.9-10.6
	C104.2,54.9,108.7,58.3,108.7,65.5z M105.3,65.5c0-6.6-2.9-9.7-6.5-9.7c-3.6,0-6.5,3.2-6.5,9.7c0,6.8,2.9,9.7,6.5,9.7
	C102.4,75.2,105.3,72.3,105.3,65.5z"/>
<path class="st0" d="M115.4,56.4v8.1h8.2v1.3h-8.2v10h-3.1V58.2c0-1.2-0.8-2.2-2.5-2.7v-0.1h15.4v1.1h-9.8V56.4z"/>
<path class="st0" d="M150,74.6v1.3h-13.1V58.2c0-1.2-0.8-2.2-2.5-2.7v-0.1h5.3v19.2H150z"/>
<path class="st0" d="M156.1,55.3v20.5h-2.8V58.2c0-1.2-0.8-2.2-2.5-2.7v-0.1L156.1,55.3L156.1,55.3z"/>
<path class="st0" d="M163.7,56.4v8.1h8.2v1.3h-8.2v10h-3.1V58.2c0-1.2-0.8-2.2-2.5-2.7v-0.1h15.4v1.1h-9.8V56.4z"/>
<path class="st0" d="M191,74.7v1.1h-12.9V58.2c0-1.2-0.8-2.2-2.5-2.7v-0.1H191v1.1h-9.8v8.1h8.2v1.3h-8.2v9h9.8V74.7z"/>
<path class="st0" d="M133.6,3.3c0,0.1,0,0.2,0,0.3c0,0.1,0,0.2,0,0.3c0,0.4-0.1,0.9-0.3,1.2c-0.2,0.4-0.5,0.7-0.9,1.1
	c-0.4,0.3-0.9,0.6-1.4,0.7c-0.6,0.2-1.2,0.3-1.8,0.3c-1,0-1.7-0.2-2.2-0.6s-0.7-1-0.7-1.6c0-0.5,0.2-1.1,0.6-1.7s1-1.1,1.9-1.6
	c0.9-0.5,2.1-0.9,3.6-1.2s3.3-0.5,5.5-0.5c0.7,0,1.3,0,1.8,0.1c0.6,0,1,0.1,1.4,0.1s0.6,0,0.9-0.1c0.2,0,0.4-0.1,0.6-0.1
	c0.1,0,0.3,0,0.4,0.1s0.2,0.2,0.2,0.4c0,0.1,0,0.2-0.1,0.2C142.9,1,142.8,1,142.6,1c-0.2,0-0.4,0-0.7,0c-0.3,0-0.6,0-1.1,0
	c-0.8,0-1.5,0.1-2.1,0.4c-0.6,0.3-1.1,0.7-1.6,1.2c-0.5,0.6-1,1.2-1.5,2.1c-0.5,0.8-1.2,1.8-1.9,2.9c-0.3,0.4-0.6,0.8-1,1.3
	c-0.4,0.5-0.9,0.9-1.4,1.4c-0.6,0.4-1.2,0.8-1.9,1.1c-0.7,0.3-1.5,0.4-2.4,0.4c-0.3,0-0.7,0-1.1-0.1c-0.4-0.1-0.7-0.2-1-0.4
	c-0.3-0.2-0.6-0.4-0.8-0.6c-0.2-0.3-0.3-0.6-0.3-1c0-0.2,0.1-0.5,0.2-0.6c0.2-0.2,0.4-0.3,0.6-0.3c0.2,0,0.4,0.1,0.5,0.2
	s0.2,0.3,0.2,0.4c0,0.2-0.1,0.3-0.2,0.4c-0.1,0.1-0.3,0.2-0.4,0.2c-0.1,0-0.2,0-0.2,0c0.1,0.5,0.3,0.9,0.8,1.2s1.1,0.4,1.8,0.4
	c0.7,0,1.3-0.1,1.9-0.4s1.1-0.6,1.6-1.1s1-1,1.4-1.6s0.9-1.2,1.3-1.8c0.4-0.6,0.9-1.3,1.3-1.9c0.4-0.6,0.9-1.2,1.4-1.7s1-1,1.5-1.3
	c0.5-0.4,1.2-0.6,1.8-0.7c-0.5,0-1.1,0-1.8-0.1c-0.6,0-1.2-0.1-1.8-0.1c-1.5,0-2.9,0.1-4.1,0.3c-1.2,0.2-2.2,0.5-3,0.9
	c-0.8,0.4-1.4,0.8-1.8,1.3c-0.4,0.5-0.6,1-0.6,1.6c0,0.7,0.2,1.2,0.7,1.5S128.1,7,129,7c0.6,0,1.2-0.1,1.7-0.3
	c0.5-0.2,1-0.4,1.3-0.7c0.4-0.3,0.7-0.6,0.9-1c0.2-0.4,0.3-0.7,0.3-1.1c0-0.1,0-0.2,0-0.3c0-0.1,0-0.2,0-0.3H133.6z"/>
<path class="st0" d="M146.1,0l-6.4,8.8c0.2-0.3,0.5-0.6,0.9-1c0.3-0.4,0.7-0.7,1.1-1c0.4-0.3,0.8-0.6,1.2-0.8s0.8-0.3,1.3-0.3
	c0.7,0,1.1,0.3,1.1,1c0,0.2-0.1,0.4-0.2,0.6c-0.1,0.2-0.3,0.5-0.5,0.8c-0.2,0.3-0.4,0.6-0.7,0.8c-0.2,0.3-0.5,0.6-0.7,0.8
	c-0.2,0.3-0.4,0.5-0.5,0.7c-0.1,0.2-0.2,0.4-0.2,0.6c0,0.1,0,0.2,0.1,0.3c0.1,0.1,0.2,0.1,0.3,0.1c0.3,0,0.6-0.1,0.9-0.2
	c0.3-0.2,0.7-0.4,1-0.6c0.4-0.3,0.7-0.6,1.1-0.9s0.7-0.6,1-1c0.3-0.3,0.6-0.6,0.8-0.9c0.2-0.3,0.4-0.5,0.5-0.7h0.1
	c-0.1,0.2-0.3,0.5-0.6,0.8c-0.2,0.3-0.5,0.6-0.8,1c-0.3,0.3-0.6,0.7-1,1c-0.4,0.3-0.7,0.6-1.1,0.9c-0.4,0.3-0.7,0.5-1.1,0.6
	c-0.4,0.2-0.7,0.2-1,0.2c-0.3,0-0.6-0.1-0.8-0.3s-0.3-0.4-0.3-0.7c0-0.2,0.1-0.5,0.2-0.7c0.1-0.3,0.3-0.5,0.5-0.8
	c0.2-0.3,0.4-0.5,0.7-0.8c0.2-0.3,0.5-0.5,0.7-0.8c0.2-0.2,0.4-0.5,0.5-0.7c0.1-0.2,0.2-0.4,0.2-0.5c0-0.2-0.1-0.3-0.2-0.4
	s-0.2-0.1-0.4-0.1c-0.3,0-0.6,0.1-1,0.3c-0.4,0.2-0.7,0.5-1.1,0.8c-0.4,0.3-0.8,0.7-1.2,1.1c-0.4,0.4-0.8,0.8-1.1,1.3
	c-0.3,0.4-0.6,0.8-0.9,1.2c-0.3,0.4-0.5,0.7-0.6,1h-1.2c0.7-1,1.3-1.9,2-2.9c0.7-1,1.4-2,2.1-3c0.7-1,1.4-2,2-2.9
	c0.7-1,1.3-1.9,1.9-2.7H146.1z"/>
<path class="st0" d="M155.9,7.3c-0.2,0.3-0.4,0.6-0.7,0.9s-0.6,0.7-0.9,1s-0.7,0.6-1.1,1c-0.4,0.3-0.8,0.6-1.2,0.8s-0.8,0.4-1.3,0.6
	c-0.4,0.1-0.8,0.2-1.3,0.2s-0.9-0.1-1.2-0.4c-0.3-0.2-0.4-0.6-0.4-1c0-0.5,0.2-1,0.5-1.6c0.3-0.5,0.7-1,1.2-1.5s1-0.8,1.6-1.1
	c0.6-0.3,1.2-0.5,1.7-0.5c0.3,0,0.5,0.1,0.7,0.2s0.3,0.3,0.3,0.5c0,0.3-0.2,0.5-0.5,0.8c-0.3,0.3-0.7,0.5-1.2,0.7s-0.9,0.4-1.5,0.6
	c-0.5,0.2-1,0.3-1.4,0.4c-0.1,0.2-0.2,0.5-0.3,0.8c-0.1,0.3-0.1,0.6-0.1,0.8c0,0.1,0,0.3,0,0.4c0,0.1,0.1,0.2,0.1,0.4
	c0.1,0.1,0.2,0.2,0.3,0.3c0.1,0.1,0.3,0.1,0.4,0.1c0.4,0,0.9-0.1,1.4-0.4c0.5-0.2,1.1-0.6,1.6-1c0.6-0.4,1.1-0.9,1.6-1.4
	s0.9-1,1.3-1.6H155.9z M153,6.4c0-0.2,0-0.3-0.1-0.4c-0.1-0.1-0.2-0.1-0.3-0.1c-0.3,0-0.5,0.1-0.8,0.3c-0.3,0.2-0.6,0.4-0.9,0.7
	c-0.3,0.3-0.6,0.6-0.8,0.9c-0.2,0.3-0.4,0.6-0.5,0.8c0.3,0,0.6-0.1,1-0.3c0.4-0.1,0.8-0.3,1.2-0.5c0.4-0.2,0.7-0.4,1-0.7
	C152.8,6.9,153,6.7,153,6.4z"/>
<path class="st1" d="M133.6,3.3c0,0.1,0,0.2,0,0.3c0,0.1,0,0.2,0,0.3c0,0.4-0.1,0.9-0.3,1.2c-0.2,0.4-0.5,0.7-0.9,1.1
	c-0.4,0.3-0.9,0.6-1.4,0.7c-0.6,0.2-1.2,0.3-1.8,0.3c-1,0-1.7-0.2-2.2-0.6s-0.7-1-0.7-1.6c0-0.5,0.2-1.1,0.6-1.7s1-1.1,1.9-1.6
	c0.9-0.5,2.1-0.9,3.6-1.2s3.3-0.5,5.5-0.5c0.7,0,1.3,0,1.8,0.1c0.6,0,1,0.1,1.4,0.1s0.6,0,0.9-0.1c0.2,0,0.4-0.1,0.6-0.1
	c0.1,0,0.3,0,0.4,0.1s0.2,0.2,0.2,0.4c0,0.1,0,0.2-0.1,0.2C142.9,1,142.8,1,142.6,1c-0.2,0-0.4,0-0.7,0c-0.3,0-0.6,0-1.1,0
	c-0.8,0-1.5,0.1-2.1,0.4c-0.6,0.3-1.1,0.7-1.6,1.2c-0.5,0.6-1,1.2-1.5,2.1c-0.5,0.8-1.2,1.8-1.9,2.9c-0.3,0.4-0.6,0.8-1,1.3
	c-0.4,0.5-0.9,0.9-1.4,1.4c-0.6,0.4-1.2,0.8-1.9,1.1c-0.7,0.3-1.5,0.4-2.4,0.4c-0.3,0-0.7,0-1.1-0.1c-0.4-0.1-0.7-0.2-1-0.4
	c-0.3-0.2-0.6-0.4-0.8-0.6c-0.2-0.3-0.3-0.6-0.3-1c0-0.2,0.1-0.5,0.2-0.6c0.2-0.2,0.4-0.3,0.6-0.3c0.2,0,0.4,0.1,0.5,0.2
	s0.2,0.3,0.2,0.4c0,0.2-0.1,0.3-0.2,0.4c-0.1,0.1-0.3,0.2-0.4,0.2c-0.1,0-0.2,0-0.2,0c0.1,0.5,0.3,0.9,0.8,1.2s1.1,0.4,1.8,0.4
	c0.7,0,1.3-0.1,1.9-0.4s1.1-0.6,1.6-1.1s1-1,1.4-1.6s0.9-1.2,1.3-1.8c0.4-0.6,0.9-1.3,1.3-1.9c0.4-0.6,0.9-1.2,1.4-1.7s1-1,1.5-1.3
	c0.5-0.4,1.2-0.6,1.8-0.7c-0.5,0-1.1,0-1.8-0.1c-0.6,0-1.2-0.1-1.8-0.1c-1.5,0-2.9,0.1-4.1,0.3c-1.2,0.2-2.2,0.5-3,0.9
	c-0.8,0.4-1.4,0.8-1.8,1.3c-0.4,0.5-0.6,1-0.6,1.6c0,0.7,0.2,1.2,0.7,1.5S128.1,7,129,7c0.6,0,1.2-0.1,1.7-0.3
	c0.5-0.2,1-0.4,1.3-0.7c0.4-0.3,0.7-0.6,0.9-1c0.2-0.4,0.3-0.7,0.3-1.1c0-0.1,0-0.2,0-0.3c0-0.1,0-0.2,0-0.3H133.6z"/>
<path class="st1" d="M146.1,0l-6.4,8.8c0.2-0.3,0.5-0.6,0.9-1c0.3-0.4,0.7-0.7,1.1-1c0.4-0.3,0.8-0.6,1.2-0.8s0.8-0.3,1.3-0.3
	c0.7,0,1.1,0.3,1.1,1c0,0.2-0.1,0.4-0.2,0.6c-0.1,0.2-0.3,0.5-0.5,0.8c-0.2,0.3-0.4,0.6-0.7,0.8c-0.2,0.3-0.5,0.6-0.7,0.8
	c-0.2,0.3-0.4,0.5-0.5,0.7c-0.1,0.2-0.2,0.4-0.2,0.6c0,0.1,0,0.2,0.1,0.3c0.1,0.1,0.2,0.1,0.3,0.1c0.3,0,0.6-0.1,0.9-0.2
	c0.3-0.2,0.7-0.4,1-0.6c0.4-0.3,0.7-0.6,1.1-0.9s0.7-0.6,1-1c0.3-0.3,0.6-0.6,0.8-0.9c0.2-0.3,0.4-0.5,0.5-0.7h0.1
	c-0.1,0.2-0.3,0.5-0.6,0.8c-0.2,0.3-0.5,0.6-0.8,1c-0.3,0.3-0.6,0.7-1,1c-0.4,0.3-0.7,0.6-1.1,0.9c-0.4,0.3-0.7,0.5-1.1,0.6
	c-0.4,0.2-0.7,0.2-1,0.2c-0.3,0-0.6-0.1-0.8-0.3s-0.3-0.4-0.3-0.7c0-0.2,0.1-0.5,0.2-0.7c0.1-0.3,0.3-0.5,0.5-0.8
	c0.2-0.3,0.4-0.5,0.7-0.8c0.2-0.3,0.5-0.5,0.7-0.8c0.2-0.2,0.4-0.5,0.5-0.7c0.1-0.2,0.2-0.4,0.2-0.5c0-0.2-0.1-0.3-0.2-0.4
	s-0.2-0.1-0.4-0.1c-0.3,0-0.6,0.1-1,0.3c-0.4,0.2-0.7,0.5-1.1,0.8c-0.4,0.3-0.8,0.7-1.2,1.1c-0.4,0.4-0.8,0.8-1.1,1.3
	c-0.3,0.4-0.6,0.8-0.9,1.2c-0.3,0.4-0.5,0.7-0.6,1h-1.2c0.7-1,1.3-1.9,2-2.9c0.7-1,1.4-2,2.1-3c0.7-1,1.4-2,2-2.9
	c0.7-1,1.3-1.9,1.9-2.7H146.1z"/>
<path class="st1" d="M155.9,7.3c-0.2,0.3-0.4,0.6-0.7,0.9s-0.6,0.7-0.9,1s-0.7,0.6-1.1,1c-0.4,0.3-0.8,0.6-1.2,0.8s-0.8,0.4-1.3,0.6
	c-0.4,0.1-0.8,0.2-1.3,0.2s-0.9-0.1-1.2-0.4c-0.3-0.2-0.4-0.6-0.4-1c0-0.5,0.2-1,0.5-1.6c0.3-0.5,0.7-1,1.2-1.5s1-0.8,1.6-1.1
	c0.6-0.3,1.2-0.5,1.7-0.5c0.3,0,0.5,0.1,0.7,0.2s0.3,0.3,0.3,0.5c0,0.3-0.2,0.5-0.5,0.8c-0.3,0.3-0.7,0.5-1.2,0.7s-0.9,0.4-1.5,0.6
	c-0.5,0.2-1,0.3-1.4,0.4c-0.1,0.2-0.2,0.5-0.3,0.8c-0.1,0.3-0.1,0.6-0.1,0.8c0,0.1,0,0.3,0,0.4c0,0.1,0.1,0.2,0.1,0.4
	c0.1,0.1,0.2,0.2,0.3,0.3c0.1,0.1,0.3,0.1,0.4,0.1c0.4,0,0.9-0.1,1.4-0.4c0.5-0.2,1.1-0.6,1.6-1c0.6-0.4,1.1-0.9,1.6-1.4
	s0.9-1,1.3-1.6H155.9z M153,6.4c0-0.2,0-0.3-0.1-0.4c-0.1-0.1-0.2-0.1-0.3-0.1c-0.3,0-0.5,0.1-0.8,0.3c-0.3,0.2-0.6,0.4-0.9,0.7
	c-0.3,0.3-0.6,0.6-0.8,0.9c-0.2,0.3-0.4,0.6-0.5,0.8c0.3,0,0.6-0.1,1-0.3c0.4-0.1,0.8-0.3,1.2-0.5c0.4-0.2,0.7-0.4,1-0.7
	C152.8,6.9,153,6.7,153,6.4z"/>
</svg>
