<?xml version="1.0" encoding="utf-8"?>
<!-- Generator: Adobe Illustrator 25.2.3, SVG Export Plug-In . SVG Version: 6.00 Build 0)  -->
<svg version="1.1" id="圖層_1" xmlns="http://www.w3.org/2000/svg" xmlns:xlink="http://www.w3.org/1999/xlink" x="0px" y="0px"
	 viewBox="0 0 380 81" style="enable-background:new 0 0 380 81;" xml:space="preserve">
<style type="text/css">
	.st0{fill:#D3B380;}
	.st1{opacity:0.6;}
	.st2{fill:#FFFFFF;}
</style>
<path class="st0" d="M29.2,27c-0.1,0.3-0.7,1.3-1.8,2.4c-2,2-5.5,4.3-11.4,4.3c-9.9,0-15.7-7.5-15.7-16.9C0.3,7.6,6.1,0,16,0
	c9.4,0,12.9,6.2,13.3,6.8l-1.1,1.1C18-4.3,5.9,3.9,5.9,16.9c0,10.9,9.9,19.4,19.3,11.9V17.6h4V27z"/>
<path class="st0" d="M59.4,33.1h-5.5L43.5,18.5c-1.3,0-2.6,0-3.6,0v14.6H35V5.2c0-2-1.5-4-3.9-4.3V0.7h8.8c5.1,0,15.4-0.1,15.4,9.1
	c0,5.2-3.2,7.4-6.7,8.3L59.4,33.1z M48.5,15c0.3-0.4,0.6-0.8,0.8-1.2c0.3-0.5,0.4-1.1,0.6-1.7c0.1-0.7,0.2-1.5,0.2-2.3
	c-0.2-7.1-5.7-7.5-6.7-7.5h-3.5v14.6h3.5c0.6,0,1.2,0,1.7-0.1c0.8-0.1,1.7-0.4,2.4-0.8C47.9,15.6,48.2,15.3,48.5,15z"/>
<path class="st0" d="M84.8,31.5v1.7H64.3v-28c0-1.9-1.2-3.5-3.9-4.3V0.7h24.4v1.7H69.2v12.9h13v2h-13v14.2H84.8z"/>
<path class="st0" d="M112.3,31.5v1.7H91.8v-28c0-1.9-1.2-3.5-3.9-4.3V0.7h24.4v1.7H96.7v12.9h13v2h-13v14.2H112.3z"/>
<path class="st0" d="M144.9,0.7v32.5L121.3,9.9v23.2h-2v-25c0-2.5-0.4-6.2-3.9-7.2V0.7c3.2,0,5.4,1.9,6.5,2.8l21,20.4V0.7H144.9z"/>
<path class="st0" d="M25.1,78.4v2H4.2v-28c0-1.9-1.2-3.5-3.9-4.3v-0.2h8.3v30.5H25.1z"/>
<path class="st0" d="M34.5,47.9v32.5H30v-28c0-1.9-1.2-3.5-3.9-4.3v-0.2H34.5z"/>
<path class="st0" d="M46.3,49.6v12.9h13v2h-13v15.9h-4.9v-28c0-1.9-1.2-3.5-3.9-4.3v-0.2h24.4v1.7H46.3z"/>
<path class="st0" d="M89.4,78.7v1.7H68.9v-28c0-1.9-1.2-3.5-3.9-4.3v-0.2h24.4v1.7H73.8v12.9h13v2h-13v14.2H89.4z"/>
<g class="st1">
	<path class="st2" d="M105.2,56.6c0,0.5-0.2,0.9-0.7,1.2c-0.4,0.2-0.8,0.3-1.4,0.3c-0.1,0-0.4,0-0.9,0v-5.2h0.9
		c0.5,0,0.9,0.1,1.2,0.2c0.4,0.2,0.6,0.5,0.6,0.9c0,0.3-0.1,0.5-0.3,0.8c-0.2,0.2-0.4,0.4-0.7,0.5c0.4,0.1,0.7,0.2,0.9,0.4
		C105.1,55.9,105.2,56.2,105.2,56.6z M104.7,56.6c0-0.4-0.1-0.7-0.4-0.9c-0.2-0.2-0.5-0.3-0.9-0.3h-0.3v-0.2h0.2
		c0.4,0,0.6-0.1,0.8-0.4c0.1-0.2,0.2-0.5,0.2-0.7c0-0.7-0.5-1.1-1.4-1.1h-0.3v4.9h0.3C104.1,57.8,104.7,57.4,104.7,56.6z"/>
	<path class="st2" d="M109,56h-2v-0.2h1.5c0-0.6-0.3-0.9-0.8-0.9c-0.3,0-0.6,0.1-0.8,0.4c-0.2,0.3-0.3,0.6-0.3,1.1s0.1,0.8,0.3,1.1
		c0.2,0.3,0.5,0.4,0.8,0.4c0.4,0,0.7-0.2,1-0.5l0.2,0.2c-0.3,0.3-0.7,0.5-1.1,0.5c-0.5,0-0.8-0.2-1.2-0.5c-0.3-0.3-0.5-0.7-0.5-1.2
		s0.2-0.9,0.5-1.2c0.3-0.3,0.7-0.5,1.1-0.5c0.3,0,0.6,0.1,0.9,0.4C108.9,55.3,109,55.6,109,56z"/>
	<path class="st2" d="M112.2,55.9V58h-0.5v-0.3c-0.2,0.2-0.5,0.3-0.8,0.3c-0.3,0-0.6-0.1-0.8-0.3c-0.2-0.2-0.4-0.4-0.4-0.8
		c0-0.3,0.1-0.6,0.4-0.8c0.2-0.2,0.5-0.3,0.7-0.3c0.1,0,0.2,0,0.2,0c0.2,0,0.3,0.1,0.4,0.1l-0.1,0.2c-0.2-0.1-0.3-0.2-0.5-0.2
		c-0.2,0-0.4,0.1-0.5,0.2c-0.1,0.2-0.2,0.4-0.2,0.7s0.1,0.5,0.2,0.6c0.1,0.2,0.3,0.2,0.5,0.2c0.3,0,0.6-0.2,0.8-0.5v-1.5
		c0-0.7-0.2-1-0.7-1c-0.3,0-0.5,0.1-0.8,0.3l-0.1-0.2c0.2-0.2,0.5-0.2,0.9-0.2C111.8,54.7,112.2,55.1,112.2,55.9z"/>
	<path class="st2" d="M115.9,58h-0.5v-0.6c-0.2,0.4-0.6,0.6-1,0.6c-0.8,0-1.2-0.4-1.2-1.2v-2.2h0.5v2.2c0,0.7,0.2,1,0.7,1
		c0.3,0,0.5-0.2,0.7-0.5c0.1-0.2,0.2-0.4,0.2-0.6v-2.1h0.5L115.9,58L115.9,58z"/>
	<path class="st2" d="M118.3,54.9h-0.6v2c0,0.3,0,0.6,0.1,0.7c0.1,0.1,0.2,0.2,0.5,0.2V58c-0.7,0-1.1-0.4-1.1-1.1v-2h-0.3v-0.2h0.3
		v-0.4h0.5v0.4h0.6V54.9z"/>
	<path class="st2" d="M122.1,54.7l-1.8,4.5h-0.2l0.5-1.3l-1.4-3.2h0.5l1.1,2.6l1-2.6H122.1z"/>
	<path class="st2" d="M124.9,58h-0.5v-5h0.5V58z"/>
	<path class="st2" d="M126.6,53.3c0,0.1,0,0.2-0.1,0.2s-0.1,0.1-0.2,0.1c-0.1,0-0.2,0-0.2-0.1s-0.1-0.1-0.1-0.2c0-0.1,0-0.2,0.1-0.2
		c0.1-0.1,0.1-0.1,0.2-0.1c0.1,0,0.2,0,0.2,0.1C126.6,53.2,126.6,53.2,126.6,53.3z M126.6,58h-0.5v-3.2h0.5V58z"/>
	<path class="st2" d="M130.5,56h-2v-0.2h1.5c0-0.6-0.3-0.9-0.8-0.9c-0.3,0-0.6,0.1-0.8,0.4c-0.2,0.3-0.3,0.6-0.3,1.1
		s0.1,0.8,0.3,1.1c0.2,0.3,0.5,0.4,0.8,0.4c0.4,0,0.7-0.2,1-0.5l0.2,0.2c-0.3,0.3-0.7,0.5-1.1,0.5c-0.5,0-0.8-0.2-1.2-0.5
		c-0.3-0.3-0.5-0.7-0.5-1.2s0.2-0.9,0.5-1.2c0.3-0.3,0.7-0.5,1.1-0.5c0.3,0,0.6,0.1,0.9,0.4C130.3,55.3,130.5,55.6,130.5,56z"/>
	<path class="st2" d="M133.2,57.2c0,0.3-0.1,0.5-0.3,0.6c-0.2,0.2-0.4,0.2-0.7,0.2c-0.4,0-0.7-0.1-0.9-0.4l0.1-0.2
		c0.2,0.3,0.5,0.4,0.8,0.4c0.2,0,0.3-0.1,0.4-0.2c0.1-0.1,0.2-0.3,0.2-0.4c0-0.2-0.1-0.4-0.3-0.5c-0.1-0.1-0.3-0.2-0.6-0.4
		c-0.4-0.2-0.5-0.5-0.5-0.9c0-0.2,0.1-0.4,0.3-0.6c0.2-0.1,0.4-0.2,0.6-0.2s0.3,0,0.5,0.1s0.3,0.2,0.3,0.3l-0.2,0.2
		c-0.2-0.3-0.4-0.4-0.7-0.4s-0.5,0.1-0.6,0.4c0,0.2,0.1,0.4,0.3,0.6c0.4,0.2,0.6,0.4,0.7,0.5C133.1,56.6,133.2,56.9,133.2,57.2z"/>
	<path class="st2" d="M136.2,53.3c0,0.1,0,0.2-0.1,0.2c-0.1,0-0.1,0.1-0.2,0.1c-0.1,0-0.2,0-0.2-0.1s-0.1-0.1-0.1-0.2
		c0-0.1,0-0.2,0.1-0.2c0.1-0.1,0.1-0.1,0.2-0.1c0.1,0,0.2,0,0.2,0.1C136.2,53.2,136.2,53.2,136.2,53.3z M136.1,58h-0.5v-3.2h0.5V58z
		"/>
	<path class="st2" d="M139.9,58h-0.5v-2.2c0-0.7-0.2-1-0.7-1s-0.8,0.3-1,0.9V58h-0.5v-3.2h0.5v0.4c0.3-0.4,0.6-0.5,1-0.5
		c0.4,0,0.7,0.1,0.8,0.2c0.2,0.2,0.3,0.5,0.3,0.9L139.9,58L139.9,58z"/>
	<path class="st2" d="M143.8,54.9h-0.6v2c0,0.3,0,0.6,0.1,0.7c0.1,0.1,0.2,0.2,0.5,0.2V58c-0.7,0-1.1-0.4-1.1-1.1v-2h-0.3v-0.2h0.3
		v-0.4h0.5v0.4h0.6V54.9z"/>
	<path class="st2" d="M147.3,58h-0.5v-2.2c0-0.7-0.2-1-0.7-1s-0.8,0.3-1,0.9V58h-0.5v-5h0.5v2.2c0.3-0.4,0.6-0.5,1-0.5
		c0.4,0,0.7,0.1,0.8,0.2c0.2,0.2,0.3,0.5,0.3,0.9V58H147.3z"/>
	<path class="st2" d="M151.2,56h-2v-0.2h1.5c0-0.6-0.3-0.9-0.8-0.9c-0.3,0-0.6,0.1-0.8,0.4c-0.2,0.3-0.3,0.6-0.3,1.1
		s0.1,0.8,0.3,1.1c0.2,0.3,0.5,0.4,0.8,0.4c0.4,0,0.7-0.2,1-0.5l0.2,0.2c-0.3,0.3-0.7,0.5-1.1,0.5c-0.5,0-0.8-0.2-1.2-0.5
		c-0.3-0.3-0.5-0.7-0.5-1.2s0.2-0.9,0.5-1.2s0.7-0.5,1.1-0.5c0.3,0,0.6,0.1,0.9,0.4C151.1,55.3,151.2,55.6,151.2,56z"/>
	<path class="st2" d="M156.2,57.6c-0.3,0.3-0.7,0.4-1.1,0.4c-0.5,0-0.8-0.2-1.2-0.5c-0.3-0.3-0.5-0.7-0.5-1.2s0.2-0.9,0.5-1.2
		c0.3-0.3,0.7-0.5,1.2-0.5c0.4,0,0.7,0.1,1,0.3l-0.1,0.2c-0.2-0.2-0.5-0.4-0.9-0.4c-0.3,0-0.6,0.2-0.8,0.5s-0.3,0.6-0.3,1
		s0.1,0.8,0.3,1c0.2,0.3,0.5,0.5,0.8,0.5c0.4,0,0.7-0.2,1-0.5L156.2,57.6z"/>
	<path class="st2" d="M160,56.4c0,0.5-0.2,0.9-0.5,1.2s-0.7,0.5-1.2,0.5s-0.8-0.2-1.2-0.5c-0.3-0.3-0.5-0.7-0.5-1.2s0.2-0.8,0.5-1.2
		c0.3-0.3,0.7-0.5,1.2-0.5s0.8,0.2,1.2,0.5S160,55.9,160,56.4z M159.5,56.4c0-0.4-0.1-0.8-0.3-1.1c-0.2-0.3-0.5-0.4-0.8-0.4
		c-0.3,0-0.6,0.1-0.8,0.4c-0.2,0.3-0.3,0.6-0.3,1.1c0,0.4,0.1,0.8,0.3,1.1c0.2,0.3,0.5,0.4,0.8,0.4c0.3,0,0.6-0.1,0.8-0.4
		C159.4,57.1,159.5,56.8,159.5,56.4z"/>
	<path class="st2" d="M165.4,58H165v-2.2c0-0.3,0-0.5-0.1-0.7c-0.1-0.1-0.2-0.2-0.5-0.2c-0.4,0-0.6,0.3-0.9,0.8v0.1V58H163v-2.2
		c0-0.3,0-0.5-0.1-0.7c-0.1-0.1-0.3-0.2-0.5-0.2c-0.2,0-0.3,0.1-0.5,0.2c-0.2,0.1-0.3,0.4-0.4,0.6V58H161v-3.2h0.5v0.4
		c0.3-0.3,0.6-0.5,0.9-0.5c0.5,0,0.8,0.2,1,0.5c0.3-0.4,0.6-0.5,1-0.5c0.7,0,1.1,0.4,1.1,1.1V58H165.4z"/>
	<path class="st2" d="M169.3,56.4c0,0.5-0.1,0.9-0.4,1.2c-0.3,0.3-0.6,0.5-1.1,0.5c-0.3,0-0.6-0.1-0.8-0.4V58h-0.5v-5h0.5v4.2
		c0.1,0.2,0.2,0.4,0.3,0.5c0.1,0.1,0.3,0.2,0.5,0.2c0.3,0,0.5-0.1,0.7-0.4s0.3-0.6,0.3-1.1c0-0.4-0.1-0.8-0.3-1.1s-0.4-0.4-0.7-0.4
		c-0.2,0-0.3,0.1-0.4,0.2l-0.1-0.2c0.2-0.1,0.4-0.1,0.6-0.1c0.4,0,0.8,0.2,1.1,0.5C169.2,55.5,169.3,55.9,169.3,56.4z"/>
	<path class="st2" d="M171,53.3c0,0.1,0,0.2-0.1,0.2c-0.1,0-0.1,0.1-0.2,0.1c-0.1,0-0.2,0-0.2-0.1s-0.1-0.1-0.1-0.2
		c0-0.1,0-0.2,0.1-0.2c0.1-0.1,0.1-0.1,0.2-0.1c0.1,0,0.2,0,0.2,0.1C170.9,53.2,171,53.2,171,53.3z M170.9,58h-0.5v-3.2h0.5V58z"/>
	<path class="st2" d="M174.6,58h-0.5v-2.2c0-0.7-0.2-1-0.7-1s-0.8,0.3-1,0.9V58H172v-3.2h0.5v0.4c0.3-0.4,0.6-0.5,1-0.5
		s0.7,0.1,0.8,0.2c0.2,0.2,0.3,0.5,0.3,0.9V58z"/>
	<path class="st2" d="M178.1,55.9V58h-0.5v-0.3c-0.2,0.2-0.5,0.3-0.8,0.3s-0.6-0.1-0.8-0.3s-0.4-0.4-0.4-0.8c0-0.3,0.1-0.6,0.4-0.8
		c0.2-0.2,0.5-0.3,0.7-0.3c0.1,0,0.2,0,0.2,0c0.2,0,0.3,0.1,0.4,0.1l-0.1,0.2c-0.2-0.1-0.3-0.2-0.5-0.2s-0.4,0.1-0.5,0.2
		c-0.1,0.2-0.2,0.4-0.2,0.7c0,0.3,0.1,0.5,0.2,0.6c0.1,0.2,0.3,0.2,0.5,0.2c0.3,0,0.6-0.2,0.8-0.5v-1.5c0-0.7-0.2-1-0.7-1
		c-0.3,0-0.5,0.1-0.8,0.3V55c0.2-0.2,0.5-0.2,0.9-0.2C177.7,54.7,178.1,55.1,178.1,55.9z"/>
	<path class="st2" d="M180.4,54.9h-0.6v2c0,0.3,0,0.6,0.1,0.7c0.1,0.1,0.2,0.2,0.5,0.2V58c-0.7,0-1.1-0.4-1.1-1.1v-2H179v-0.2h0.3
		v-0.4h0.5v0.4h0.6V54.9z"/>
	<path class="st2" d="M182,53.3c0,0.1,0,0.2-0.1,0.2c-0.1,0-0.1,0.1-0.2,0.1c-0.1,0-0.2,0-0.2-0.1s-0.1-0.1-0.1-0.2
		c0-0.1,0-0.2,0.1-0.2c0.1-0.1,0.1-0.1,0.2-0.1c0.1,0,0.2,0,0.2,0.1C181.9,53.2,182,53.2,182,53.3z M181.9,58h-0.5v-3.2h0.5V58z"/>
	<path class="st2" d="M186.2,56.4c0,0.5-0.2,0.9-0.5,1.2s-0.7,0.5-1.2,0.5s-0.8-0.2-1.2-0.5c-0.3-0.3-0.5-0.7-0.5-1.2
		s0.2-0.8,0.5-1.2c0.3-0.3,0.7-0.5,1.2-0.5s0.8,0.2,1.2,0.5C186.1,55.5,186.2,55.9,186.2,56.4z M185.7,56.4c0-0.4-0.1-0.8-0.3-1.1
		c-0.2-0.3-0.5-0.4-0.8-0.4c-0.3,0-0.6,0.1-0.8,0.4c-0.2,0.3-0.3,0.6-0.3,1.1c0,0.4,0.1,0.8,0.3,1.1c0.2,0.3,0.5,0.4,0.8,0.4
		c0.3,0,0.6-0.1,0.8-0.4C185.6,57.1,185.7,56.8,185.7,56.4z"/>
	<path class="st2" d="M189.9,58h-0.5v-2.2c0-0.7-0.2-1-0.7-1s-0.8,0.3-1,0.9V58h-0.5v-3.2h0.5v0.4c0.3-0.4,0.6-0.5,1-0.5
		c0.4,0,0.7,0.1,0.8,0.2c0.2,0.2,0.3,0.5,0.3,0.9L189.9,58L189.9,58z"/>
	<path class="st2" d="M195.6,56.4c0,0.5-0.2,0.9-0.5,1.2c-0.3,0.3-0.7,0.5-1.2,0.5s-0.8-0.2-1.2-0.5c-0.3-0.3-0.5-0.7-0.5-1.2
		s0.2-0.8,0.5-1.2c0.3-0.3,0.7-0.5,1.2-0.5s0.8,0.2,1.2,0.5C195.5,55.5,195.6,55.9,195.6,56.4z M195.1,56.4c0-0.4-0.1-0.8-0.3-1.1
		c-0.2-0.3-0.5-0.4-0.8-0.4s-0.6,0.1-0.8,0.4c-0.2,0.3-0.3,0.6-0.3,1.1c0,0.4,0.1,0.8,0.3,1.1c0.2,0.3,0.5,0.4,0.8,0.4
		s0.6-0.1,0.8-0.4C195,57.1,195.1,56.8,195.1,56.4z"/>
	<path class="st2" d="M197.9,54.9h-0.6V58h-0.5v-3.1h-0.3v-0.2h0.3V54c0-0.7,0.4-1,1.1-1v0.2c-0.2,0-0.4,0.1-0.5,0.2
		c-0.1,0.1-0.1,0.4-0.1,0.7v0.7h0.6V54.9z"/>
	<path class="st2" d="M104.7,67h-0.5v-2.2c0-0.7-0.2-1-0.7-1s-0.8,0.3-1,0.9V67H102v-3.2h0.5v0.4c0.3-0.4,0.6-0.5,1-0.5
		s0.7,0.1,0.8,0.2c0.2,0.2,0.3,0.5,0.3,0.9L104.7,67L104.7,67z"/>
	<path class="st2" d="M108.2,64.9V67h-0.5v-0.3c-0.2,0.2-0.5,0.3-0.8,0.3c-0.3,0-0.6-0.1-0.8-0.3c-0.2-0.2-0.4-0.4-0.4-0.8
		c0-0.3,0.1-0.6,0.4-0.8c0.2-0.2,0.5-0.3,0.7-0.3c0.1,0,0.2,0,0.2,0c0.2,0,0.3,0.1,0.4,0.1l-0.1,0.2c-0.2-0.1-0.3-0.2-0.5-0.2
		c-0.2,0-0.4,0.1-0.5,0.2c-0.1,0.2-0.2,0.4-0.2,0.7c0,0.3,0.1,0.5,0.2,0.6c0.1,0.2,0.3,0.2,0.5,0.2c0.3,0,0.6-0.2,0.8-0.5v-1.5
		c0-0.7-0.2-1-0.7-1c-0.3,0-0.5,0.1-0.8,0.3l-0.1-0.2c0.2-0.2,0.5-0.2,0.9-0.2C107.8,63.7,108.2,64.1,108.2,64.9z"/>
	<path class="st2" d="M110.5,63.9h-0.6v2c0,0.3,0,0.6,0.1,0.7s0.2,0.2,0.5,0.2V67c-0.7,0-1.1-0.4-1.1-1.1v-2h-0.3v-0.2h0.3v-0.4h0.5
		v0.4h0.6V63.9z"/>
	<path class="st2" d="M114.1,67h-0.5v-0.6c-0.2,0.4-0.6,0.6-1,0.6c-0.8,0-1.2-0.4-1.2-1.2v-2.2h0.5v2.2c0,0.7,0.2,1,0.7,1
		c0.3,0,0.5-0.2,0.7-0.5c0.1-0.2,0.2-0.4,0.2-0.6v-2.1h0.5L114.1,67L114.1,67z"/>
	<path class="st2" d="M116.7,63.8l-0.1,0.2c-0.1-0.1-0.3-0.1-0.4-0.1c-0.1,0-0.1,0-0.2,0.1c-0.2,0.1-0.3,0.4-0.3,0.9V67h-0.5v-3.2
		h0.5v0.4c0.1-0.1,0.1-0.2,0.2-0.3c0.1-0.1,0.2-0.1,0.4-0.1C116.4,63.7,116.6,63.8,116.7,63.8z"/>
	<path class="st2" d="M119.8,64.9V67h-0.5v-0.3c-0.2,0.2-0.5,0.3-0.8,0.3s-0.6-0.1-0.8-0.3c-0.2-0.2-0.4-0.4-0.4-0.8
		c0-0.3,0.1-0.6,0.4-0.8c0.2-0.2,0.5-0.3,0.7-0.3c0.1,0,0.2,0,0.2,0c0.2,0,0.3,0.1,0.4,0.1l-0.1,0.2c-0.2-0.1-0.3-0.2-0.5-0.2
		c-0.2,0-0.4,0.1-0.5,0.2c-0.1,0.2-0.2,0.4-0.2,0.7c0,0.3,0.1,0.5,0.2,0.6c0.1,0.2,0.3,0.2,0.5,0.2c0.3,0,0.6-0.2,0.8-0.5v-1.5
		c0-0.7-0.2-1-0.7-1c-0.3,0-0.5,0.1-0.8,0.3l-0.1-0.2c0.2-0.2,0.5-0.2,0.9-0.2C119.4,63.7,119.8,64.1,119.8,64.9z"/>
	<path class="st2" d="M121.4,67H121v-5h0.5L121.4,67L121.4,67z"/>
	<path class="st2" d="M124.4,67h-0.5v-5h0.5V67z"/>
	<path class="st2" d="M127.8,64.9V67h-0.5v-0.3c-0.2,0.2-0.5,0.3-0.8,0.3s-0.6-0.1-0.8-0.3c-0.2-0.2-0.4-0.4-0.4-0.8
		c0-0.3,0.1-0.6,0.4-0.8c0.2-0.2,0.5-0.3,0.7-0.3c0.1,0,0.2,0,0.2,0c0.2,0,0.3,0.1,0.4,0.1l-0.1,0.2c-0.2-0.1-0.3-0.2-0.5-0.2
		c-0.2,0-0.4,0.1-0.5,0.2c-0.1,0.2-0.2,0.4-0.2,0.7c0,0.3,0.1,0.5,0.2,0.6c0.1,0.2,0.3,0.2,0.5,0.2c0.3,0,0.6-0.2,0.8-0.5v-1.5
		c0-0.7-0.2-1-0.7-1c-0.3,0-0.5,0.1-0.8,0.3l-0.1-0.2c0.2-0.2,0.5-0.2,0.9-0.2C127.4,63.7,127.8,64.1,127.8,64.9z"/>
	<path class="st2" d="M131.6,67h-0.5v-2.2c0-0.7-0.2-1-0.7-1s-0.8,0.3-1,0.9V67H129v-3.2h0.5v0.4c0.3-0.4,0.6-0.5,1-0.5
		s0.7,0.1,0.8,0.2c0.2,0.2,0.3,0.5,0.3,0.9V67z"/>
	<path class="st2" d="M135.4,67h-0.5v-0.3c-0.2,0.2-0.5,0.4-0.8,0.4c-0.4,0-0.8-0.2-1.1-0.5c-0.3-0.3-0.4-0.7-0.4-1.2
		s0.1-0.9,0.4-1.2c0.3-0.3,0.6-0.5,1.1-0.5c0.2,0,0.4,0,0.6,0.1l-0.1,0.2c-0.2-0.1-0.3-0.2-0.5-0.2c-0.2,0-0.5,0.1-0.6,0.4
		c-0.2,0.3-0.3,0.7-0.3,1.1c0,0.4,0.1,0.8,0.3,1.1c0.2,0.3,0.4,0.4,0.7,0.4c0.2,0,0.3-0.1,0.5-0.2c0.1-0.1,0.2-0.3,0.3-0.5V62h0.5v5
		H135.4z"/>
	<path class="st2" d="M138.3,66.2c0,0.3-0.1,0.5-0.3,0.6c-0.2,0.2-0.4,0.2-0.7,0.2c-0.4,0-0.7-0.1-0.9-0.4l0.2-0.2
		c0.2,0.3,0.5,0.4,0.8,0.4c0.2,0,0.3-0.1,0.4-0.2c0.1-0.1,0.2-0.3,0.2-0.4c0-0.2-0.1-0.4-0.3-0.5c-0.1-0.1-0.3-0.2-0.6-0.4
		c-0.4-0.2-0.5-0.5-0.5-0.9c0-0.2,0.1-0.4,0.3-0.6c0.2-0.1,0.4-0.2,0.6-0.2c0.1,0,0.3,0,0.5,0.1s0.3,0.2,0.3,0.3l-0.2,0.2
		c-0.2-0.3-0.4-0.4-0.7-0.4c-0.3,0-0.5,0.1-0.5,0.4c0,0.2,0.1,0.4,0.3,0.6c0.4,0.2,0.6,0.4,0.7,0.5
		C138.2,65.6,138.3,65.9,138.3,66.2z"/>
	<path class="st2" d="M141.9,66.6c-0.3,0.3-0.7,0.4-1.1,0.4c-0.5,0-0.8-0.2-1.2-0.5c-0.3-0.3-0.5-0.7-0.5-1.2s0.2-0.9,0.5-1.2
		c0.3-0.3,0.7-0.5,1.2-0.5c0.4,0,0.7,0.1,1,0.3l-0.1,0.2c-0.2-0.2-0.5-0.4-0.9-0.4c-0.3,0-0.6,0.2-0.8,0.5c-0.2,0.3-0.3,0.6-0.3,1
		c0,0.4,0.1,0.8,0.3,1c0.2,0.3,0.5,0.5,0.8,0.5c0.4,0,0.7-0.2,1-0.5L141.9,66.6z"/>
	<path class="st2" d="M145,64.9V67h-0.5v-0.3c-0.2,0.2-0.5,0.3-0.8,0.3s-0.6-0.1-0.8-0.3c-0.2-0.2-0.4-0.4-0.4-0.8
		c0-0.3,0.1-0.6,0.4-0.8c0.2-0.2,0.5-0.3,0.7-0.3c0.1,0,0.2,0,0.2,0c0.2,0,0.3,0.1,0.4,0.1l-0.1,0.2c-0.2-0.1-0.3-0.2-0.5-0.2
		c-0.2,0-0.4,0.1-0.5,0.2c-0.1,0.2-0.2,0.4-0.2,0.7c0,0.3,0.1,0.5,0.2,0.6c0.1,0.2,0.3,0.2,0.5,0.2c0.3,0,0.6-0.2,0.8-0.5v-1.5
		c0-0.7-0.2-1-0.7-1c-0.3,0-0.5,0.1-0.8,0.3l-0.1-0.2c0.2-0.2,0.5-0.2,0.9-0.2C144.6,63.7,145,64.1,145,64.9z"/>
	<path class="st2" d="M148.8,65.4c0,0.5-0.1,0.8-0.4,1.2c-0.3,0.3-0.6,0.5-1,0.5c-0.2,0-0.4,0-0.6-0.1l0.1-0.2
		c0.1,0.1,0.3,0.2,0.5,0.2c0.2,0,0.5-0.1,0.6-0.4s0.3-0.6,0.3-1.1c0-0.4-0.1-0.8-0.3-1.1c-0.2-0.3-0.4-0.4-0.7-0.4
		c-0.2,0-0.3,0.1-0.5,0.2c-0.1,0.1-0.2,0.3-0.3,0.5v3.6H146v-4.4h0.5v0.3c0.2-0.2,0.5-0.4,0.8-0.4c0.4,0,0.8,0.2,1,0.5
		C148.7,64.6,148.8,64.9,148.8,65.4z"/>
	<path class="st2" d="M152.7,65h-2v-0.2h1.5c0-0.6-0.3-0.9-0.8-0.9c-0.3,0-0.6,0.1-0.8,0.4c-0.2,0.3-0.3,0.6-0.3,1.1
		s0.1,0.8,0.3,1.1c0.2,0.3,0.5,0.4,0.8,0.4c0.4,0,0.7-0.2,1-0.5l0.2,0.2c-0.3,0.3-0.7,0.5-1.1,0.5c-0.5,0-0.8-0.2-1.2-0.5
		c-0.3-0.3-0.5-0.7-0.5-1.2s0.2-0.9,0.5-1.2c0.3-0.3,0.7-0.5,1.1-0.5c0.3,0,0.6,0.1,0.9,0.4C152.5,64.3,152.7,64.6,152.7,65z"/>
	<path class="st2" d="M104.5,73.9V76H104v-0.3c-0.2,0.2-0.5,0.3-0.8,0.3c-0.3,0-0.6-0.1-0.8-0.3c-0.2-0.2-0.4-0.4-0.4-0.8
		c0-0.3,0.1-0.6,0.4-0.8c0.2-0.2,0.5-0.3,0.7-0.3c0.1,0,0.2,0,0.2,0c0.2,0,0.3,0.1,0.4,0.1l-0.1,0.2c-0.2-0.1-0.3-0.2-0.5-0.2
		c-0.2,0-0.4,0.1-0.5,0.2c-0.1,0.2-0.2,0.4-0.2,0.7c0,0.3,0.1,0.5,0.2,0.6c0.1,0.2,0.3,0.2,0.5,0.2c0.3,0,0.6-0.2,0.8-0.5v-1.5
		c0-0.7-0.2-1-0.7-1c-0.3,0-0.5,0.1-0.8,0.3l-0.1-0.2c0.2-0.2,0.5-0.2,0.9-0.2C104.1,72.7,104.5,73.1,104.5,73.9z"/>
	<path class="st2" d="M108.3,76h-0.5v-2.2c0-0.7-0.2-1-0.7-1s-0.8,0.3-1,0.9V76h-0.5v-3.2h0.5v0.4c0.3-0.4,0.6-0.5,1-0.5
		s0.7,0.1,0.8,0.2c0.2,0.2,0.3,0.5,0.3,0.9V76H108.3z"/>
	<path class="st2" d="M112.1,76h-0.5v-0.3c-0.2,0.2-0.5,0.4-0.8,0.4c-0.4,0-0.8-0.2-1.1-0.5c-0.3-0.3-0.4-0.7-0.4-1.2
		s0.1-0.9,0.4-1.2c0.3-0.3,0.6-0.5,1.1-0.5c0.2,0,0.4,0,0.6,0.1l-0.1,0.2c-0.2-0.1-0.3-0.2-0.5-0.2c-0.2,0-0.5,0.1-0.6,0.4
		c-0.2,0.3-0.3,0.7-0.3,1.1c0,0.4,0.1,0.8,0.3,1.1c0.2,0.3,0.4,0.4,0.7,0.4c0.2,0,0.3-0.1,0.5-0.2c0.1-0.1,0.2-0.3,0.3-0.5V71h0.5
		L112.1,76L112.1,76z"/>
	<path class="st2" d="M117,73.9V76h-0.5v-0.3c-0.2,0.2-0.5,0.3-0.8,0.3c-0.3,0-0.6-0.1-0.8-0.3c-0.2-0.2-0.4-0.4-0.4-0.8
		c0-0.3,0.1-0.6,0.4-0.8c0.2-0.2,0.5-0.3,0.7-0.3c0.1,0,0.2,0,0.2,0c0.2,0,0.3,0.1,0.4,0.1l-0.1,0.2c-0.2-0.1-0.3-0.2-0.5-0.2
		c-0.2,0-0.4,0.1-0.5,0.2c-0.1,0.2-0.2,0.4-0.2,0.7c0,0.3,0.1,0.5,0.2,0.6c0.1,0.2,0.3,0.2,0.5,0.2c0.3,0,0.6-0.2,0.8-0.5v-1.5
		c0-0.7-0.2-1-0.7-1c-0.3,0-0.5,0.1-0.8,0.3l-0.1-0.2c0.2-0.2,0.5-0.2,0.9-0.2C116.6,72.7,117,73.1,117,73.9z"/>
	<path class="st2" d="M119.6,72.8l-0.1,0.2c-0.1-0.1-0.3-0.1-0.4-0.1s-0.1,0-0.2,0.1c-0.2,0.1-0.3,0.4-0.3,0.9V76h-0.5v-3.2h0.5v0.4
		c0.1-0.1,0.1-0.2,0.2-0.3c0.1-0.1,0.2-0.1,0.4-0.1C119.4,72.7,119.5,72.8,119.6,72.8z"/>
	<path class="st2" d="M121.9,72.9h-0.6v2c0,0.3,0,0.6,0.1,0.7s0.2,0.2,0.5,0.2V76c-0.7,0-1.1-0.4-1.1-1.1v-2h-0.3v-0.2h0.3v-0.4h0.5
		v0.4h0.6V72.9z"/>
	<path class="st2" d="M123.4,71.3c0,0.1,0,0.2-0.1,0.2c-0.1,0-0.1,0.1-0.2,0.1s-0.2,0-0.2-0.1s-0.1-0.1-0.1-0.2c0-0.1,0-0.2,0.1-0.2
		C123,71,123,71,123.1,71s0.2,0,0.2,0.1S123.4,71.2,123.4,71.3z M123.3,76h-0.5v-3.2h0.5V76z"/>
	<path class="st2" d="M126.2,75.2c0,0.3-0.1,0.5-0.3,0.6c-0.2,0.2-0.4,0.2-0.7,0.2c-0.4,0-0.7-0.1-0.9-0.4l0.2-0.2
		c0.2,0.3,0.5,0.4,0.8,0.4c0.2,0,0.3-0.1,0.4-0.2c0.1-0.1,0.2-0.3,0.2-0.4c0-0.2-0.1-0.4-0.3-0.5c-0.1-0.1-0.3-0.2-0.6-0.4
		c-0.4-0.2-0.5-0.5-0.5-0.9c0-0.2,0.1-0.4,0.3-0.6c0.2-0.1,0.4-0.2,0.6-0.2c0.1,0,0.3,0,0.5,0.1c0.2,0.1,0.3,0.2,0.3,0.3l-0.2,0.2
		c-0.2-0.3-0.4-0.4-0.7-0.4c-0.3,0-0.5,0.1-0.5,0.4c0,0.2,0.1,0.4,0.3,0.6c0.4,0.2,0.6,0.4,0.7,0.5
		C126.1,74.6,126.2,74.9,126.2,75.2z"/>
	<path class="st2" d="M128.4,72.9h-0.6v2c0,0.3,0,0.6,0.1,0.7s0.2,0.2,0.5,0.2V76c-0.7,0-1.1-0.4-1.1-1.1v-2H127v-0.2h0.3v-0.4h0.5
		v0.4h0.6V72.9z"/>
	<path class="st2" d="M130,71.3c0,0.1,0,0.2-0.1,0.2c-0.1,0-0.1,0.1-0.2,0.1c-0.1,0-0.2,0-0.2-0.1s-0.1-0.1-0.1-0.2
		c0-0.1,0-0.2,0.1-0.2c0.1-0.1,0.1-0.1,0.2-0.1c0.1,0,0.2,0,0.2,0.1S130,71.2,130,71.3z M129.9,76h-0.5v-3.2h0.5V76z"/>
	<path class="st2" d="M133.7,75.6c-0.3,0.3-0.7,0.4-1.1,0.4c-0.5,0-0.8-0.2-1.2-0.5c-0.3-0.3-0.5-0.7-0.5-1.2s0.2-0.9,0.5-1.2
		c0.3-0.3,0.7-0.5,1.2-0.5c0.4,0,0.7,0.1,1,0.3l-0.1,0.2c-0.2-0.2-0.5-0.4-0.9-0.4c-0.3,0-0.6,0.2-0.8,0.5c-0.2,0.3-0.3,0.6-0.3,1
		c0,0.4,0.1,0.8,0.3,1c0.2,0.3,0.5,0.5,0.8,0.5c0.4,0,0.7-0.2,1-0.5L133.7,75.6z"/>
	<path class="st2" d="M138.5,74h-2v-0.2h1.5c0-0.6-0.3-0.9-0.8-0.9c-0.3,0-0.6,0.1-0.8,0.4c-0.2,0.3-0.3,0.6-0.3,1.1
		s0.1,0.8,0.3,1.1c0.2,0.3,0.5,0.4,0.8,0.4c0.4,0,0.7-0.2,1-0.5l0.2,0.2c-0.3,0.3-0.7,0.5-1.1,0.5c-0.5,0-0.8-0.2-1.2-0.5
		c-0.3-0.3-0.5-0.7-0.5-1.2s0.2-0.9,0.5-1.2c0.3-0.3,0.7-0.5,1.1-0.5c0.3,0,0.6,0.1,0.9,0.4C138.4,73.3,138.5,73.6,138.5,74z"/>
	<path class="st2" d="M142.2,76h-0.6l-1-1.5l-1.2,1.5h-0.2l1.3-1.6l-1.1-1.6h0.6l0.9,1.2l1-1.2h0.2l-1.1,1.4L142.2,76z"/>
	<path class="st2" d="M145.7,74.4c0,0.5-0.1,0.8-0.4,1.2c-0.3,0.3-0.6,0.5-1,0.5c-0.2,0-0.4,0-0.6-0.1l0.1-0.2
		c0.1,0.1,0.3,0.2,0.5,0.2s0.5-0.1,0.6-0.4c0.2-0.3,0.3-0.6,0.3-1.1c0-0.4-0.1-0.8-0.3-1.1c-0.2-0.3-0.4-0.4-0.7-0.4
		c-0.2,0-0.3,0.1-0.5,0.2c-0.1,0.1-0.2,0.3-0.3,0.5v3.6H143v-4.4h0.5v0.3c0.2-0.2,0.5-0.4,0.8-0.4c0.4,0,0.8,0.2,1,0.5
		C145.6,73.6,145.7,73.9,145.7,74.4z"/>
	<path class="st2" d="M148.2,72.8l-0.1,0.2c-0.1-0.1-0.3-0.1-0.4-0.1c-0.1,0-0.1,0-0.2,0.1c-0.2,0.1-0.3,0.4-0.3,0.9V76h-0.5v-3.2
		h0.5v0.4c0.1-0.1,0.1-0.2,0.2-0.3c0.1-0.1,0.2-0.1,0.4-0.1C148,72.7,148.1,72.8,148.2,72.8z"/>
	<path class="st2" d="M151.7,74h-2v-0.2h1.5c0-0.6-0.3-0.9-0.8-0.9c-0.3,0-0.6,0.1-0.8,0.4c-0.2,0.3-0.3,0.6-0.3,1.1
		s0.1,0.8,0.3,1.1c0.2,0.3,0.5,0.4,0.8,0.4c0.4,0,0.7-0.2,1-0.5l0.2,0.2c-0.3,0.3-0.7,0.5-1.1,0.5c-0.5,0-0.8-0.2-1.2-0.5
		c-0.3-0.3-0.5-0.7-0.5-1.2s0.2-0.9,0.5-1.2s0.7-0.5,1.1-0.5c0.3,0,0.6,0.1,0.9,0.4C151.6,73.3,151.7,73.6,151.7,74z"/>
	<path class="st2" d="M154.4,75.2c0,0.3-0.1,0.5-0.3,0.6c-0.2,0.2-0.4,0.2-0.7,0.2c-0.4,0-0.7-0.1-0.9-0.4l0.2-0.2
		c0.2,0.3,0.5,0.4,0.8,0.4c0.2,0,0.3-0.1,0.4-0.2c0.1-0.1,0.2-0.3,0.2-0.4c0-0.2-0.1-0.4-0.3-0.5c-0.1-0.1-0.3-0.2-0.6-0.4
		c-0.4-0.2-0.5-0.5-0.5-0.9c0-0.2,0.1-0.4,0.3-0.6c0.2-0.1,0.4-0.2,0.6-0.2c0.1,0,0.3,0,0.5,0.1c0.2,0.1,0.3,0.2,0.3,0.3l-0.2,0.2
		c-0.2-0.3-0.4-0.4-0.7-0.4s-0.5,0.1-0.5,0.4c0,0.2,0.1,0.4,0.3,0.6c0.4,0.2,0.6,0.4,0.7,0.5C154.3,74.6,154.4,74.9,154.4,75.2z"/>
	<path class="st2" d="M157.1,75.2c0,0.3-0.1,0.5-0.3,0.6c-0.2,0.2-0.4,0.2-0.7,0.2c-0.4,0-0.7-0.1-0.9-0.4l0.2-0.2
		c0.2,0.3,0.5,0.4,0.8,0.4c0.2,0,0.3-0.1,0.4-0.2c0.1-0.1,0.2-0.3,0.2-0.4c0-0.2-0.1-0.4-0.3-0.5c-0.1-0.1-0.3-0.2-0.6-0.4
		c-0.4-0.2-0.5-0.5-0.5-0.9c0-0.2,0.1-0.4,0.3-0.6c0.2-0.1,0.4-0.2,0.6-0.2c0.1,0,0.3,0,0.5,0.1c0.2,0.1,0.3,0.2,0.3,0.3l-0.2,0.2
		c-0.2-0.3-0.4-0.4-0.7-0.4s-0.5,0.1-0.5,0.4c0,0.2,0.1,0.4,0.3,0.6c0.4,0.2,0.6,0.4,0.7,0.5C157,74.6,157.2,74.9,157.1,75.2z"/>
	<path class="st2" d="M158.7,71.3c0,0.1,0,0.2-0.1,0.2c-0.1,0-0.1,0.1-0.2,0.1c-0.1,0-0.2,0-0.2-0.1s-0.1-0.1-0.1-0.2
		c0-0.1,0-0.2,0.1-0.2c0.1-0.1,0.1-0.1,0.2-0.1c0.1,0,0.2,0,0.2,0.1C158.7,71.2,158.7,71.2,158.7,71.3z M158.7,76h-0.5v-3.2h0.5V76z
		"/>
	<path class="st2" d="M163,74.4c0,0.5-0.2,0.9-0.5,1.2c-0.3,0.3-0.7,0.5-1.2,0.5s-0.8-0.2-1.2-0.5c-0.3-0.3-0.5-0.7-0.5-1.2
		s0.2-0.8,0.5-1.2c0.3-0.3,0.7-0.5,1.2-0.5s0.8,0.2,1.2,0.5C162.8,73.5,163,73.9,163,74.4z M162.5,74.4c0-0.4-0.1-0.8-0.3-1.1
		c-0.2-0.3-0.5-0.4-0.8-0.4c-0.3,0-0.6,0.1-0.8,0.4c-0.2,0.3-0.3,0.6-0.3,1.1c0,0.4,0.1,0.8,0.3,1.1c0.2,0.3,0.5,0.4,0.8,0.4
		c0.3,0,0.6-0.1,0.8-0.4C162.4,75.1,162.5,74.8,162.5,74.4z"/>
	<path class="st2" d="M166.7,76h-0.5v-2.2c0-0.7-0.2-1-0.7-1s-0.8,0.3-1,0.9V76H164v-3.2h0.5v0.4c0.3-0.4,0.6-0.5,1-0.5
		s0.7,0.1,0.8,0.2c0.2,0.2,0.3,0.5,0.3,0.9L166.7,76L166.7,76z"/>
	<path class="st2" d="M168.4,75.8c0,0.1,0,0.2-0.1,0.2c-0.1,0-0.1,0.1-0.2,0.1c-0.1,0-0.2,0-0.2-0.1s-0.1-0.1-0.1-0.2
		c0-0.1,0-0.2,0.1-0.2c0.1,0,0.1-0.1,0.2-0.1c0.1,0,0.2,0,0.2,0.1S168.4,75.7,168.4,75.8z"/>
</g>
</svg>
