<svg width="277" height="97" viewBox="0 0 277 97" fill="none" xmlns="http://www.w3.org/2000/svg">
<path d="M59.5299 72.6199L61.8899 74.4799C61.7699 74.6499 61.4599 74.8499 61.0499 74.9299V90.5499C61.0499 90.5499 60.4299 91.2899 58.7899 91.2899V89.2799H49.8299V90.6399C49.8299 90.7099 49.5799 91.5899 47.6299 91.5899V72.8699L49.9899 73.9099H58.5799L59.5299 72.6099V72.6199ZM58.7899 74.3699H49.8299V81.2499H58.7899V74.3699ZM49.8299 88.8499H58.7899V81.6899H49.8299V88.8499Z" fill="white"/>
<path d="M73.0898 86.6401C72.9898 86.8101 72.8598 86.9001 72.5998 86.9001C72.5198 86.9001 72.4098 86.9001 72.3098 86.8801C70.9498 88.3501 68.6698 90.0401 66.2498 91.0301L66.0698 90.73C67.9598 89.24 69.7698 86.8601 70.6098 85.1301L73.0998 86.6401H73.0898ZM76.1498 75.0401C76.0898 75.2101 75.9398 75.2801 75.7198 75.2801C75.6198 75.2801 75.4898 75.2801 75.3298 75.2401C74.4498 76.1101 73.0498 77.1901 71.7298 78.0701C72.4898 78.6101 72.7998 79.2801 72.7998 79.8201C72.7998 80.5101 72.3698 81.0301 71.7898 81.0301C71.5598 81.0301 71.3398 80.9701 71.0898 80.7901C70.4898 79.5101 69.1198 78.0201 67.8598 77.2201L67.9598 77.0301C69.3798 77.1201 70.4298 77.3801 71.1698 77.7401C71.7498 76.7901 72.3398 75.6201 72.8098 74.6001C70.5698 74.7701 68.2898 74.88 66.1498 74.92L66.1298 74.55C71.2298 73.88 77.7798 72.4701 81.1998 71.3301L83.3998 73.5801C83.2798 73.6901 83.1098 73.7501 82.8898 73.7501C82.6698 73.7501 82.3798 73.6801 82.0498 73.5301C80.0798 73.8501 77.5698 74.16 74.8998 74.42L76.1498 75.0301V75.0401ZM80.5298 77.36C80.4498 77.47 80.3199 77.5301 80.1599 77.5301C80.0199 77.5301 79.8298 77.4901 79.6298 77.4001C78.0698 78.9601 75.6798 80.8801 73.2798 82.4601C75.5598 82.4201 78.1499 82.3701 80.9099 82.3101C80.1699 81.5501 79.3298 80.9001 78.5498 80.4501L78.6298 80.23C83.0698 80.64 84.4898 82.5001 84.4898 83.7801C84.4898 84.4901 84.0598 85.0301 83.4598 85.0301C83.2298 85.0301 82.9898 84.9401 82.7398 84.7901C82.4498 84.1601 81.9998 83.5101 81.4698 82.9101C80.0698 83.1301 78.4698 83.3601 76.5998 83.6001V91.0601C76.5798 91.1901 75.8998 91.7101 74.7698 91.7101H74.3798V83.8801C72.5298 84.1001 70.4698 84.3601 68.1298 84.6201C67.9898 84.8801 67.7598 85.0501 67.5298 85.1001L66.2798 82.5001C67.4498 82.5201 68.8698 82.5 72.1798 82.48C74.3198 80.29 76.5798 77.5301 77.9998 75.4701L80.5498 77.3501L80.5298 77.36ZM78.3498 85.3701C82.7498 86.2401 84.1498 88.2301 84.1498 89.5701C84.1498 90.3501 83.6798 90.8901 83.0598 90.8901C82.8098 90.8901 82.5298 90.8001 82.2398 90.5901C81.5998 88.8401 79.8798 86.7201 78.2298 85.5701L78.3498 85.3801V85.3701Z" fill="white"/>
<path d="M96.2599 89.5801C101.48 88.4801 103.41 84.9901 103.41 81.6401C103.41 77.5901 101.91 74.5901 97.6799 74.5901C97.1499 74.5901 96.36 74.7002 95.83 74.8502C96.55 75.2202 97.21 76.0601 97.21 77.4201C97.21 81.5701 94.5399 87.8901 91.4299 87.8901C89.6799 87.8901 88.4299 86.0501 88.4299 83.0201C88.4299 78.3201 92.1299 73.8901 97.7399 73.8901C102.86 73.8901 105.8 77.0901 105.8 81.7401C105.8 86.0501 103.33 89.3801 96.3699 89.9801L96.27 89.5701L96.2599 89.5801ZM95.2299 74.9702C92.2099 76.0102 90.3599 79.2101 90.3599 82.9301C90.3599 84.4701 90.7499 85.4401 91.4899 85.4401C93.3399 85.4401 95.64 80.1402 95.64 76.3502C95.64 75.7002 95.4499 75.1802 95.2299 74.9702Z" fill="white"/>
<path d="M128.15 85.1199C128.01 85.3799 127.76 85.4899 127.16 85.4899H119.72C121.32 88.1499 124.63 89.0799 128.5 89.3799V89.6199C127.62 89.8999 127.06 90.6599 126.86 91.7799C123.04 90.8099 120.59 89.2099 119.32 85.4799H119.09C118.35 88.4199 116.36 90.4799 109.33 91.7999L109.19 91.4299C114.21 89.8099 115.95 87.9499 116.61 85.4799H109.33L109.21 85.0499H116.71C116.92 84.1199 116.98 83.0799 117.02 81.9599L120.29 82.1999C120.27 82.4799 120.08 82.6299 119.49 82.7199C119.41 83.5399 119.33 84.3199 119.18 85.0599H124.57L125.82 83.3699L128.16 85.1199H128.15ZM109.32 81.2499H117.38V78.5499H111.09L110.97 78.1199H117.38V75.4199H110.1L109.98 75.0099H120.38C120.85 73.9299 121.37 72.4599 121.63 71.3999L124.61 72.4599C124.53 72.6499 124.38 72.7399 124.1 72.7399C124.02 72.7399 123.92 72.7399 123.81 72.7199C123.11 73.4299 122 74.3199 120.95 75.0099H124.07L125.28 73.3699L127.56 75.0599C127.4 75.3399 127.13 75.4299 126.57 75.4299H119.62V78.1299H123.18L124.33 76.5899L126.51 78.1699C126.37 78.4699 126.1 78.5599 125.54 78.5599H119.62V81.2599H124.57L125.8 79.5499L128.1 81.2999C127.94 81.5599 127.69 81.6699 127.09 81.6699H109.41L109.29 81.2599L109.32 81.2499ZM113.2 71.4499C115.63 71.8599 116.43 72.8599 116.43 73.6799C116.43 74.3899 115.81 74.9999 115.16 74.9999C114.83 74.9999 114.48 74.8499 114.19 74.4799C114.17 73.4799 113.7 72.2699 113.06 71.5799L113.2 71.4499Z" fill="white"/>
<path d="M147.88 86.72C148.97 86.46 150.2 86.18 151.46 85.88C151.01 84.91 150.45 84 149.86 83.31L150.07 83.14C153.26 84.59 154.26 86.45 154.26 87.71C154.26 88.6 153.77 89.18 153.19 89.18C152.9 89.18 152.61 89.05 152.33 88.75C152.25 88.04 152.02 87.21 151.69 86.41C150.44 87.23 148.73 88.29 146.37 89.59C146.27 89.87 146.08 90.07 145.86 90.15L144.38 87.45C144.75 87.39 145.26 87.3 145.86 87.17V72.31L148.18 73.24H151.04L151.9 72.07L154.18 73.8C154.04 73.97 153.75 74.17 153.34 74.25V81.91C153.34 81.91 152.76 82.49 151.24 82.49V81.43H147.89V86.73L147.88 86.72ZM151.23 73.65H147.88V77.05H151.23V73.65ZM147.88 81.01H151.23V77.48H147.88V81.01ZM161.22 72.01L163.56 73.78C163.42 73.95 163.13 74.15 162.7 74.23V85.2C162.7 86.71 162.35 87.82 159.99 88.03C159.99 86.26 159.5 85.91 158.12 85.74V85.44H160.28C160.49 85.44 160.57 85.35 160.57 85.14V73.65H157.38V91C157.38 91.17 156.7 91.71 155.63 91.71H155.26V72.24L157.64 73.21H160.35L161.21 72L161.22 72.01Z" fill="white"/>
<path d="M170.71 71.5099L173.61 71.79C173.57 72.11 173.38 72.29 172.77 72.35V90.91C172.77 90.91 172.46 91.71 170.71 91.71V83.14H169.29C169.21 86.49 168.84 89.5399 166.52 91.6899L166.23 91.39C167.32 89.03 167.28 86.18 167.3 83.15H166.23L166.11 82.72H170.71V79.0599H169.02V79.9C169.02 79.96 168.63 80.53 167.09 80.53V72.85L169.8 73.09C169.78 73.37 169.59 73.5199 169.02 73.6099V78.6299H170.71V71.5099ZM173.2 81.9999C177.25 80.3599 180.06 77.7799 182.06 74.2299H178.46C178.19 74.5099 177.91 74.7699 177.62 75.0499C179.45 75.1599 180.09 75.9599 180.09 76.6299C180.09 77.1499 179.72 77.6 179.23 77.6C179.04 77.6 178.84 77.5399 178.63 77.3799C178.34 76.7499 177.75 75.9999 177.09 75.4999C176.56 75.9499 175.98 76.39 175.38 76.78C177.13 77.13 177.72 77.95 177.72 78.64C177.72 79.22 177.29 79.7 176.77 79.7C176.54 79.7 176.3 79.6099 176.05 79.3799C175.97 78.5999 175.49 77.6899 174.88 77.1099C174.41 77.3899 173.93 77.6499 173.46 77.8699L173.3 77.65C175.05 76.2 176.86 73.5999 177.76 71.4199L180.7 72.2599C180.6 72.4799 180.43 72.58 179.92 72.52C179.61 72.93 179.24 73.3599 178.85 73.7999H182.12L183.21 72.65L185.31 74.47C185.15 74.69 184.84 74.75 184.34 74.79C181.83 78.51 178.83 81.11 173.36 82.34L173.2 81.9899V81.9999ZM183.91 81.39L185.76 83.1899C185.6 83.4699 185.35 83.58 184.79 83.58H182.61V88.9C182.61 90.41 182.26 91.4999 179.59 91.7599C179.59 90.2199 178.85 89.8099 176.94 89.6199V89.3199H180.06C180.41 89.3199 180.51 89.19 180.51 88.91V83.59H173.38L173.28 83.16H180.51V79.7599L183.43 79.9799C183.39 80.2599 183.29 80.4099 182.61 80.4999V83.16H182.9L183.91 81.41V81.39ZM174.83 84.29C177.32 84.94 178.14 86.11 178.14 87.02C178.14 87.8 177.54 88.4299 176.91 88.4299C176.58 88.4299 176.25 88.28 175.96 87.91C175.96 86.74 175.41 85.2699 174.67 84.4299L174.83 84.2999V84.29Z" fill="white"/>
<path d="M195.79 71.7299L197.87 73.5899C197.71 73.8099 197.5 73.8899 197.03 73.9099C195.51 77.4799 192.53 80.2899 187.9 81.8499L187.8 81.5499C191.23 79.7499 193.56 76.7699 194.66 73.3899H189.07L188.95 72.9599H194.56L195.79 71.7299ZM205.86 86.6999L205.88 89.2099C206.68 89.5599 206.78 89.6599 206.78 90.0099C206.78 90.9199 206.12 91.3299 204.23 91.3299H201.39C199.19 91.3299 198.8 90.9599 198.8 88.6299V84.8399H195.7C195.41 87.4099 194.06 90.1799 188.42 91.7599L188.28 91.4999C192.12 89.5999 193.25 87.2399 193.5 84.8399H189.18L189.08 84.4099H193.54C193.56 84.1299 193.56 83.8299 193.56 83.5399V80.6399H191.87L191.75 80.1899H199.7L200.83 78.5699L202.93 80.2599C202.77 80.5399 202.48 80.6499 201.94 80.6499H200.97V84.4099H202.68L203.87 82.7399L206.11 84.4699C205.97 84.7499 205.7 84.8399 205.12 84.8399H200.97V88.6699C200.97 89.2999 200.97 89.3599 201.55 89.3599H204.2C204.43 89.3599 204.63 89.3399 204.84 89.0799C205.07 88.7999 205.46 87.7199 205.72 86.6999H205.84H205.86ZM189.25 74.7099C191.88 74.8599 192.74 75.8799 192.74 76.7199C192.74 77.4099 192.21 77.9999 191.57 77.9999C191.28 77.9999 190.99 77.8699 190.71 77.5899C190.59 76.6199 189.93 75.4899 189.15 74.8899L189.25 74.7199V74.7099ZM195.79 83.5199C195.79 83.7999 195.77 84.0999 195.75 84.4099H198.81V80.6499H195.79V83.5299V83.5199ZM204.87 73.5499C204.79 73.6999 204.66 73.7899 204.44 73.7899C204.34 73.7899 204.23 73.7699 204.09 73.7499C203.27 74.2899 202.06 74.9599 200.86 75.4799C201.41 76.1099 202.05 76.6499 202.71 77.1499C203.57 76.2799 204.5 75.1399 204.99 74.3799L207.23 75.9999C207.15 76.1499 207.02 76.2399 206.82 76.2399C206.74 76.2399 206.61 76.2199 206.47 76.1799C205.65 76.6599 204.48 77.1799 203.33 77.6099C204.63 78.4799 206.02 79.1499 207.44 79.6399L207.4 79.8999C206.48 80.0299 205.8 80.7199 205.45 81.8299C201.87 79.7499 199.28 76.6399 198.11 71.5499L198.42 71.3799C198.89 72.7599 199.59 73.9799 200.45 75.0399C201.29 74.0899 202.16 72.8099 202.59 71.9899L204.87 73.5699V73.5499Z" fill="white"/>
<path d="M228.09 86.3999L228.07 89.2299C228.85 89.5499 228.95 89.6599 228.95 89.9899C228.95 90.8099 228.35 91.3099 226.15 91.3099H222.84C220.62 91.3099 220.13 90.8799 220.13 88.8599V83.8199H218.47C218.39 84.0099 218.18 84.1199 217.73 84.1699C217.36 87.6299 215.76 90.5999 209.86 91.7899L209.7 91.4699C214.08 90.0899 215.37 87.1899 215.56 83.8299H215.13V84.2799C215.13 84.3399 214.84 85.1699 212.95 85.1699V71.8599L215.27 72.8599H223.35L224.25 71.6299L226.61 73.4299C226.47 73.5999 226.18 73.7999 225.75 73.8799V84.3099C225.75 84.3099 225.13 84.9599 223.55 84.9599V83.8399H222.93C222.87 83.9699 222.68 84.0299 222.31 84.0999V88.8999C222.31 89.4399 222.33 89.4599 222.97 89.4599H226.18C226.65 89.4599 226.82 89.4399 227 89.1099C227.21 88.7899 227.51 87.7899 227.92 86.4099H228.08L228.09 86.3999ZM223.55 73.2899H215.12V76.3199H223.55V73.2899ZM223.55 79.8499V76.7599H215.12V79.8499H223.55ZM215.12 83.4199H223.55V80.2799H215.12V83.4199Z" fill="white"/>
<path d="M79.8099 24.41C82.3099 23.34 84.71 21.89 86.08 20.73L90.3199 24.89C90.0799 25.08 89.75 25.23 89.33 25.23C88.91 25.23 88.39 25.08 87.77 24.84C86.64 25.13 85.27 25.42 83.72 25.61C85.37 29.24 88.5299 31.57 92.0599 32.82L92.0099 33.35C90.3099 33.79 89.1799 35.29 88.6199 37.56C87.0199 36.2 85.7399 34.61 84.7999 32.67C82.6799 33.54 79.7999 34.61 75.9899 35.96C75.7499 36.59 75.33 36.88 74.91 36.98L72.46 32.53C73.07 32.53 73.9199 32.48 74.8599 32.43V23.86C73.6799 24.88 72.2699 25.89 70.8499 26.76L72.7399 26.91C72.6499 27.44 72.3599 27.78 71.2299 27.93V36.31C71.2299 36.41 70.4299 37.47 66.6099 37.47V26.48C65.8999 26.58 65.0999 26.33 64.4899 25.56V25.37C64.2099 25.52 63.8299 25.61 63.3599 25.71C63.0799 34.33 62.6499 36.8 57.0399 36.8C57.0399 34.38 56.3799 33.8 53.9799 33.27V32.54L57.4199 32.59C57.9899 32.59 58.2699 32.54 58.4999 32.35C59.0199 31.87 59.25 29.59 59.4 24.7H56.5699C55.8199 29.59 53.93 34.72 47.33 37.68L46.72 37.05C50.73 34.1 52 28.82 52.47 24.7H48.4199L48.09 23.78H58.9799L60.72 21.6L64.3499 24.36C64.0699 22.71 63.3599 20.92 62.4199 19.76L62.84 19.47C67.13 20.58 68.5399 22.52 68.5399 24.07C68.5399 25.28 67.7399 26.2 66.7499 26.44L69.4399 26.68C70.6199 24.5 71.8 21.6 72.46 19.42H47.2899L47.0499 18.45H66.52V12.25L73.5399 12.93C73.4499 13.61 73.0199 13.95 71.5599 14.14V18.45H83.58L86.27 14.63L91.3599 18.55C90.9799 19.18 90.4199 19.42 89.0999 19.42H72.89L78.4999 21.65C78.3099 22.04 78.0299 22.28 77.4199 22.28C77.2299 22.28 77 22.23 76.71 22.18C76.33 22.57 75.9599 22.95 75.4799 23.34L79.8199 24.41H79.8099ZM79.34 41.16V37.48L85.89 38.06C85.84 38.54 85.5599 38.88 84.4799 39.03V56.31C84.4799 56.31 83.54 57.67 79.34 57.67V47.99H58.9299C58.0299 51.91 55.16 55.59 47.52 57.72L47.1899 57.19C53.1299 53.99 54.2599 49.3 54.2599 44.8V37.49L60.95 38.07C60.9 38.7 60.5299 38.99 59.2999 39.14V41.17H79.33L79.34 41.16ZM59.3099 44.84C59.3099 45.57 59.2599 46.29 59.1199 47.02H79.34V42.13H59.3099V44.84ZM79.1099 32.15C80.7599 32 82.4999 31.86 84.2899 31.67C83.5799 29.98 83.0599 27.99 82.6899 25.76C81.5099 25.86 80.2899 25.95 79.1099 26V32.15Z" fill="white"/>
<path d="M109.79 22.0402H105.59C105.31 25.2802 103.89 29.5402 97.4399 32.0102L97.0599 31.3802C100.78 28.1402 101.16 24.0702 101.16 20.6802V14.9702L105.21 16.1302C108.51 14.9702 112.14 13.3702 114.12 12.2102L118.22 16.4202C117.98 16.6102 117.65 16.7102 117.28 16.7102C116.81 16.7102 116.24 16.5602 115.63 16.3202C113.04 16.7602 109.22 17.2402 105.64 17.4302V21.1102H113.04L115.3 18.1602L119.59 21.2102C119.21 21.8402 118.6 22.0302 117.42 22.0302H114.31V29.1502C114.31 29.3402 112.9 30.2602 110.54 30.2602H109.79V22.0302V22.0402ZM136.47 18.0202L140.95 21.2202C140.57 21.8502 140.01 22.0402 138.73 22.0402H134.25V29.1602C134.2 29.3102 133.35 29.8902 131.85 30.1302L135.95 33.0802C135.67 33.4202 135.05 33.8102 134.25 34.0002V49.1502C134.25 49.2502 132.74 50.4602 129.21 50.4602V48.7702H112.05L117.42 52.7402C117.18 53.0802 116.76 53.2202 116.19 53.2202C115.77 53.2202 115.29 53.1202 114.78 52.9802C110.68 55.0602 104.03 56.9502 97.6199 57.6802L97.4299 57.0002C102.9 55.1102 108.88 51.6302 111.81 48.7702H109.08V49.2502C109.08 49.3502 108.37 51.1402 104.13 51.1402V29.6402L109.41 31.8702H128.74L129.97 30.2702H129.55V22.0402H124.93C124.51 24.9902 122.81 28.6702 116.4 30.8002L116.02 30.1202C120.12 27.1702 120.54 23.3902 120.54 20.2402V14.9102L124.97 16.1702C128.6 14.9602 132.61 13.3602 134.87 12.2002L139.02 16.4602C138.74 16.6502 138.41 16.7502 138.03 16.7502C137.56 16.7502 136.95 16.6002 136.33 16.3602C133.45 16.8002 129.07 17.3302 125.02 17.5202V21.1002H134.12L136.48 18.0002L136.47 18.0202ZM129.21 32.8402H109.08V37.1002H129.21V32.8402ZM129.21 38.0702H109.08V42.4302H129.21V38.0702ZM109.08 47.8002H129.21V43.3502H109.08V47.8002ZM122.42 50.1702C136.28 50.6102 140.28 53.4602 140.28 55.5402C140.28 56.8002 138.91 57.7202 137.36 57.7202C136.56 57.7202 135.76 57.4802 135 56.9502C132.6 54.9602 128.31 52.5002 122.23 50.8002L122.42 50.1702Z" fill="white"/>
<path d="M155.29 15.1902C156.67 14.3902 158.43 13.9902 160.56 13.9902C162.07 13.9902 163.51 14.1703 164.87 14.5303C166.23 14.8903 167.41 15.4303 168.42 16.1503C169.43 16.8703 170.23 17.7903 170.81 18.9003C171.39 20.0203 171.68 21.3503 171.68 22.9103C171.68 24.3503 171.43 25.6303 170.92 26.7703C170.41 27.9103 169.78 28.8903 169.03 29.7003C168.27 30.5203 167.43 31.1903 166.5 31.7103C165.57 32.2303 164.67 32.6103 163.82 32.8503V33.2103C164.83 33.2903 165.9 33.4803 167.02 33.7803C168.15 34.0803 169.2 34.5803 170.17 35.2803C171.14 35.9803 171.95 36.9102 172.59 38.0602C173.23 39.2202 173.55 40.6902 173.55 42.4902C173.55 44.2902 173.19 46.0102 172.47 47.5502C171.75 49.0902 170.74 50.4103 169.44 51.5303C168.14 52.6503 166.57 53.5103 164.75 54.1003C162.92 54.7003 160.9 55.0002 158.69 55.0002C156.67 55.0002 154.96 54.8102 153.56 54.4302C152.16 54.0502 150.94 53.6003 149.89 53.0803C150.04 52.7603 150.19 52.2302 150.33 51.4902C150.47 50.7502 150.55 50.0802 150.59 49.4802L150.94 49.2402C151.29 49.6402 151.72 50.0802 152.22 50.5602C152.72 51.0402 153.32 51.4802 154 51.8802C154.68 52.2802 155.42 52.6102 156.21 52.8702C157.01 53.1302 157.87 53.2603 158.8 53.2603C160.28 53.2603 161.59 53.0203 162.73 52.5403C163.88 52.0603 164.86 51.3802 165.67 50.5002C166.49 49.6202 167.11 48.5703 167.53 47.3303C167.96 46.0903 168.17 44.7403 168.17 43.2603C168.17 41.6203 167.97 40.2403 167.56 39.1003C167.15 37.9603 166.59 37.0503 165.87 36.3503C165.15 35.6503 164.29 35.1403 163.28 34.8203C162.27 34.5003 161.16 34.3403 159.96 34.3403C159.53 34.3403 159.08 34.3803 158.59 34.4603C158.1 34.5403 157.69 34.6203 157.34 34.7003C157.38 34.5003 157.41 34.2903 157.43 34.0703C157.45 33.8503 157.46 33.6402 157.46 33.4402C157.46 33.2402 157.45 33.0302 157.43 32.8102C157.41 32.5902 157.38 32.3802 157.34 32.1802C158.12 32.3402 158.99 32.4202 159.96 32.4202C161.32 32.4202 162.43 32.1302 163.28 31.5502C164.13 30.9702 164.8 30.2303 165.29 29.3403C165.78 28.4403 166.11 27.4502 166.28 26.3802C166.45 25.3102 166.54 24.2703 166.54 23.2703C166.54 21.9903 166.36 20.8903 165.99 19.9503C165.62 19.0103 165.14 18.2403 164.56 17.6503C163.98 17.0503 163.32 16.6103 162.58 16.3303C161.84 16.0503 161.08 15.9103 160.31 15.9103C158.68 15.9103 157.29 16.4002 156.14 17.3802C154.99 18.3602 154.21 19.4703 153.78 20.7003L153.37 20.8203L152.03 17.5903C152.81 16.7903 153.88 15.9903 155.26 15.2003L155.29 15.1902Z" fill="white"/>
<path d="M220.68 37.34L223.23 33.95L227.99 37.4399C227.66 38.1199 227.05 38.3099 225.77 38.3099H209.04C208.8 40.1499 208.47 41.99 207.86 43.78H217.29L219.32 41.2599L224.41 45.09C224.13 45.48 223.56 45.77 222.71 45.91C221.96 55.93 220.35 57.6299 214.08 57.6299C214.08 54.6299 213.51 53.85 209.08 53.03V52.35C210.73 52.4 213.79 52.4999 214.74 52.4999C215.49 52.4999 215.87 52.5 216.15 52.21C216.86 51.63 217.33 48.9699 217.66 44.7499H207.53C205.6 49.5899 201.45 54.24 191.98 57.77L191.46 57.09C201.83 51.09 203.01 44.2599 203.34 38.2999H194.9C194.1 44.7399 191.74 51.81 185.1 56.84L184.58 56.4C189.76 48.6 190.38 38.9199 190.38 30.6899V19.89L196.08 22.0699H218.09L220.07 19.41L225.44 23.28C225.16 23.62 224.5 24.0999 223.6 24.2499V31.7499C223.6 31.8499 222.14 32.91 218.56 32.91V30.97H195.32C195.32 32.91 195.27 35.0399 195.04 37.3099H206.31V31.3099L212.77 31.9399C212.68 32.4699 212.35 32.71 211.21 32.91V37.3199H220.68V37.34ZM228.13 15.89C227.75 16.52 227.19 16.7599 225.87 16.7599H186.09L185.81 15.79H220.45L223.14 12.21L228.14 15.89H228.13ZM218.56 23.0099H195.32V30.08H218.56V23.0099Z" fill="white"/>
<path d="M275.9 0.350098V96.5601" stroke="white" stroke-width="0.5" stroke-miterlimit="10"/>
<path d="M0.969971 0.350098V96.5601" stroke="white" stroke-width="0.5" stroke-miterlimit="10"/>
</svg>
