<?xml version="1.0" encoding="utf-8"?>
<!-- Generator: Adobe Illustrator 25.2.3, SVG Export Plug-In . SVG Version: 6.00 Build 0)  -->
<svg version="1.1" id="圖層_1" xmlns="http://www.w3.org/2000/svg" xmlns:xlink="http://www.w3.org/1999/xlink" x="0px" y="0px"
	 viewBox="0 0 380 123.6" style="enable-background:new 0 0 380 123.6;" xml:space="preserve">
<style type="text/css">
	.st0{fill:#3E3A39;}
	.st1{fill:none;stroke:#D0AB64;stroke-width:0.25;stroke-miterlimit:10;stroke-dasharray:2,2;}
</style>
<path class="st0" d="M4.3,10.8V2.6C3.8,3,3.2,3.3,2.3,3.7V2c1-0.4,1.8-1,2.4-1.6h1.2v10.4C5.9,10.8,4.3,10.8,4.3,10.8z"/>
<path class="st0" d="M9.4,11V9.4H11V11H9.4z"/>
<path class="st0" d="M19.1,2.3h1.1v1.1c-0.4,1.1-0.9,2-1.2,2.6c0.1,0.1,0.2,0.2,0.3,0.3c0.4-0.3,0.7-0.7,1-1.2L21,5.8
	c-0.3,0.4-0.7,0.8-1.1,1.1c0.3,0.3,0.6,0.6,0.8,0.9l-0.6,1c-0.4-0.5-0.8-1-1.3-1.4v5h-1.1V7.6C17.4,8,17,8.4,16.6,8.8l-0.4-1.3
	c0.6-0.6,1.1-1.2,1.4-1.7c0.4-0.5,0.8-1.2,1.2-2.4h-2.4V2.3H18c-0.2-0.6-0.5-1.2-0.7-1.8l1.2-0.1C18.7,0.9,18.9,1.6,19.1,2.3z
	 M23.3,0.6c-0.1,0.2-0.2,0.5-0.3,0.7h5.1v1h-5.7c-0.2,0.3-0.3,0.5-0.5,0.7h5.6v4.2H24c-0.2,0.3-0.3,0.5-0.5,0.7h3.9v0.9
	c-0.5,0.8-0.9,1.5-1.5,1.9c0.6,0.2,1.4,0.4,2.4,0.6l-0.6,1c-1.2-0.3-2.1-0.7-2.9-1c-0.9,0.4-2.3,0.8-4,1l-0.7-1
	c1.5-0.1,2.7-0.3,3.5-0.6c-0.6-0.4-1.1-1-1.5-1.7c-0.5,0.4-1.1,0.7-1.7,1l-0.6-0.9c0.8-0.4,1.5-0.8,2-1.2c0.3-0.2,0.5-0.5,0.7-0.8
	h-1.1V3.3c-0.2,0.2-0.3,0.4-0.5,0.5l-0.8-0.9c0.8-0.8,1.5-1.6,1.9-2.5L23.3,0.6z M26.5,4.7V3.9h-3.9v0.8C22.6,4.7,26.5,4.7,26.5,4.7
	z M26.5,5.5h-3.9v0.7h3.9V5.5z M24.7,10.1c0.1,0,0.1,0.1,0.2,0.1c0.6-0.3,1-0.8,1.4-1.4h-3C23.6,9.3,24.1,9.8,24.7,10.1z"/>
<path class="st0" d="M31.5,4.9c0,1.1-0.1,2.3-0.2,3.6c-0.2,1.3-0.5,2.6-0.9,3.8l-1.1-0.9c0.4-1,0.6-2.1,0.8-3.2
	C30.2,7,30.3,6,30.3,5V0.9h10.6v2.7h-1.6l-0.6,0.9H41v3.1h-8.9V4.5h2.1l-0.5-0.9h-2.1L31.5,4.9L31.5,4.9z M31.5,1.7v0.9h8.2V1.7
	H31.5z M40.5,12.3h-1.2v-0.5h-5.6v0.5h-1.2V8h7.9L40.5,12.3L40.5,12.3z M36,5.2h-2.7v1.6H36V5.2z M39.3,9.5V8.8h-5.6v0.7H39.3z
	 M39.3,11v-0.7h-5.6V11H39.3z M35.3,6.3l-0.8,0.4c-0.2-0.4-0.4-0.8-0.6-1.1l0.8-0.3C34.9,5.6,35.1,5.9,35.3,6.3z M37.6,4.4l0.6-0.9
	h-3.3l0.5,0.9H37.6z M39.9,5.2h-2.8v1.6h2.8V5.2z M39.3,5.6c-0.2,0.4-0.4,0.7-0.7,1.1l-0.8-0.4c0.3-0.4,0.5-0.7,0.7-1L39.3,5.6z"/>
<path class="st0" d="M43.4,7.9c0,1.3-0.1,2.5-0.3,3.7l-0.7-0.2c0.2-1.2,0.3-2.4,0.3-3.5C42.7,7.9,43.4,7.9,43.4,7.9z M47.3,1.8h-1.2
	v1h1.1v0.8h-1.1v1h1.1v0.8h-1.1v1.1h1.3c0,2.7-0.1,4.3-0.1,4.8c-0.1,0.4-0.2,0.6-0.4,0.8s-0.7,0.2-1.3,0.2c-0.3,0-0.5,0-0.9-0.1
	l-0.1-1.1c0.3,0.1,0.7,0.1,1,0.1c0.4,0,0.7-0.1,0.8-0.4c0-0.1,0-0.2,0.1-0.4L46,10.6c-0.1-0.9-0.2-1.8-0.4-2.7l0.5-0.1
	c0.2,0.7,0.3,1.4,0.4,2c0-0.6,0-1.3,0.1-2.3H43V0.9h4.5v0.9H47.3z M44.3,11.1l-0.7,0.1V8l0.6-0.1C44.3,8.7,44.3,9.7,44.3,11.1z
	 M45.1,1.8h-1.2v1h1.2V1.8z M45.1,3.6h-1.2v1h1.2V3.6z M45.1,5.4h-1.2v1.1h1.2V5.4z M45.4,10.7l-0.6,0.1c0-1.3-0.1-2.2-0.1-2.9
	l0.5-0.1C45.3,8.5,45.3,9.5,45.4,10.7z M54,0.7v2.8h-2.6v0.7h2.5v0.9h-2.5v0.8h2.8v1H53c-0.1,0.4-0.3,0.7-0.5,1H54v1h-2.5v0.8h2.8
	v0.9h-2.8v1.7h-1.1v-1.7h-2.7V9.7h2.7V8.9h-2.5v-1h1.4l-0.5-1h-1.1v-1h2.7V5.1h-2.5V4.2h2.5V3.5h-2.7V0.7H54z M49.5,1.7h-0.9v1h0.9
	V1.7z M51.6,7.9c0.2-0.3,0.4-0.6,0.5-1h-2.2l0.5,1H51.6z M51.3,1.7h-0.9v1h0.9V1.7z M53,1.7h-0.9v1H53V1.7z"/>
<path class="st0" d="M58.8,2.4h2v1.1h-5.3V2.4h2.1c-0.2-0.6-0.4-1.2-0.6-1.7l1.3-0.2C58.4,1,58.6,1.7,58.8,2.4z M60.3,10.3
	c-1.3,0.4-2.8,0.8-4.6,1.2l-0.4-1.2c1.8-0.3,3.5-0.7,4.9-1.2L60.3,10.3L60.3,10.3z M57.7,9.4l-1.1,0.2c-0.2-1.8-0.5-3.5-0.9-5.2
	l1-0.3C57.1,5.6,57.5,7.4,57.7,9.4z M60.1,4.1C60,6,59.8,7.7,59.3,9.4l-1.1-0.3c0.5-1.7,0.8-3.4,0.8-5C59,4.1,60.1,4.1,60.1,4.1z
	 M63.9,0.3v2.3h3.4v1.1h-3.4v2.2h2.8v6.3h-1.2v-0.9H62v0.9h-1.2V6h1.9V0.4L63.9,0.3L63.9,0.3z M65.6,10.3V7.1H62v3.2H65.6z"/>
<path class="st0" d="M70.4,2.2V0.4h1.2v1.8h1.5v1.1h-1.5v1.2c0,0.3,0,0.5,0,0.8h1.7v1.1h-1.8c0,0.3-0.1,0.5-0.1,0.8
	c0.7,0.6,1.5,1.3,2.2,2l-0.8,1.2c-0.7-0.9-1.2-1.5-1.7-2c0,0.1,0,0.1-0.1,0.2c-0.3,1.1-1,2.2-1.9,3.3l-1-0.9
	c0.8-0.9,1.4-1.8,1.8-2.8c0.2-0.5,0.3-1.1,0.4-1.8h-1.9V5.3h2c0-0.2,0-0.5,0-0.8V3.3h-1.8V2.2H70.4z M79.6,0.8V8H78v2.6
	c0,0.2,0.1,0.4,0.4,0.4h0.5c0.1,0,0.2-0.1,0.3-0.2c0.1-0.1,0.1-0.7,0.1-1.8l1.1,0.3c-0.1,1.3-0.2,2.1-0.4,2.3S79.5,12,79.1,12h-1
	c-0.4,0-0.6-0.1-0.8-0.3c-0.2-0.2-0.3-0.5-0.3-0.8V8h-1c-0.1,1.1-0.4,1.9-0.7,2.4c-0.5,0.7-1.3,1.2-2.5,1.7l-0.8-1
	c1-0.4,1.8-0.8,2.2-1.3c0.3-0.4,0.6-1,0.7-1.9h-1.2V0.7L79.6,0.8L79.6,0.8z M78.5,2.9v-1h-3.7v1H78.5z M78.5,4.9v-1h-3.7v1H78.5z
	 M78.5,5.9h-3.7v1h3.7V5.9z"/>
<path class="st0" d="M84.6,1V0.4h1.1V1h2.8v1.3h0.8v0.8h-0.8v1.3h-2.8V5h3v0.8h-3v0.5H89v0.8h-7.5V6.3h3.1V5.8h-2.7V5h2.7V4.4H82
	V3.6h2.5V3h-3.2V2.2h3.2V1.6H82V1H84.6z M89,11.7c-1.4,0.2-3.9,0.3-7.5,0.5l-0.1-1c3,0,5.6-0.1,7.7-0.3L89,11.7L89,11.7z M88.5,7.5
	v2.9H82V7.5H88.5z M84.7,8.7V8.2H83v0.5H84.7z M84.7,9.3H83v0.5h1.7V9.3z M85.7,2.3h1.7V1.7h-1.7V2.3z M85.7,3.7h1.7V3.1h-1.7V3.7z
	 M85.8,8.7h1.7V8.2h-1.7V8.7z M87.4,9.3h-1.7v0.5h1.7V9.3z M92.9,0.4v10.5c0,0.5-0.1,0.8-0.3,1s-0.5,0.3-1,0.3h-1.7l-0.3-1.3
	c0.7,0.1,1.2,0.1,1.7,0.1c0.3,0,0.5-0.1,0.5-0.3V0.4H92.9z M90.9,1.3v8.2h-1.2V1.3H90.9z"/>
<path class="st0" d="M100.8,7.7c-0.2,0.3-0.5,0.5-1,0.8l-0.4-0.6c0.6-0.3,1-0.7,1.1-1.2h-0.8V5.1h1.6v1.3C101.2,7,101,7.4,100.8,7.7
	z"/>
<path class="st0" d="M112.8,0.7c-0.8,1.6-1.7,2.9-2.6,3.9c0.3,0,0.5,0,0.6,0c1.9,0,3.9-0.2,5.8-0.5c-0.5-0.6-1-1.3-1.6-2l0.9-0.9
	c1.2,1.4,2.2,2.7,3.1,4.1l-1,1c-0.2-0.4-0.4-0.7-0.7-1.1c-2.6,0.4-5.7,0.6-9.4,0.6l-0.2-1.4c0.4,0.1,0.8,0.1,1.2,0.1
	c0.8-1,1.7-2.4,2.6-4.3L112.8,0.7z M118.1,12.3h-1.3v-0.8H110v0.8h-1.3V6.8h9.5L118.1,12.3L118.1,12.3z M116.9,10.4V7.9H110v2.5
	H116.9z"/>
<path class="st0" d="M125.4,0.5v9c0.4-0.1,0.8-0.3,1.2-0.4v1.2c-1.7,0.6-3.6,1.2-5.9,1.8l-0.3-1.4c1.3-0.2,2.6-0.5,3.8-0.8V5.7h-3.6
	V4.5h3.6v-4H125.4z M128.4,0.5v4.4c1.2-0.5,2.3-1.1,3.1-1.8l0.8,1.1c-1.1,0.8-2.4,1.5-3.9,2v3.9c0,0.2,0.1,0.4,0.2,0.5
	c0.1,0.1,0.2,0.2,0.4,0.2h1.4c0.2,0,0.3-0.1,0.4-0.2c0.1-0.1,0.2-0.9,0.4-2.4l1.2,0.4c-0.2,1.7-0.3,2.6-0.5,2.9
	c-0.3,0.3-0.7,0.5-1.1,0.5h-2c-0.5,0-0.8-0.1-1-0.3c-0.3-0.3-0.5-0.7-0.5-1.2V0.6L128.4,0.5L128.4,0.5z"/>
<path class="st0" d="M138.7,1.4V0.3h1.3v1.1h5.1v1.1H140v0.9h4.2v5.2H140v0.9h5.2v1.1H140v1.7h-1.3v-1.7h-5.2V9.5h5.2V8.6h-4.2V3.4
	h4.2V2.5h-5.1V1.4H138.7z M138.7,5.4V4.5h-3v0.9H138.7z M138.7,6.4h-3v1.1h3V6.4z M140,5.4h3.1V4.5H140V5.4z M143,6.4h-3v1.1h3.1
	V6.4H143z"/>
<path class="st0" d="M149.8,2.4h2v1.1h-5.3V2.4h2.1c-0.2-0.6-0.4-1.2-0.6-1.7l1.3-0.2C149.4,1,149.6,1.7,149.8,2.4z M151.3,10.3
	c-1.3,0.4-2.8,0.8-4.6,1.2l-0.4-1.2c1.8-0.3,3.5-0.7,4.9-1.2v1.2H151.3z M148.7,9.4l-1.1,0.2c-0.2-1.8-0.5-3.5-0.9-5.2l1-0.3
	C148.1,5.6,148.5,7.4,148.7,9.4z M151.1,4.1c-0.1,1.9-0.3,3.6-0.8,5.3l-1.1-0.3c0.5-1.7,0.8-3.4,0.8-5C150,4.1,151.1,4.1,151.1,4.1z
	 M154.9,0.3v2.3h3.4v1.1h-3.4v2.2h2.8v6.3h-1.2v-0.9H153v0.9h-1.2V6h1.9V0.4L154.9,0.3L154.9,0.3z M156.6,10.3V7.1H153v3.2H156.6z"
	/>
<path class="st0" d="M166.2,8.1c-0.3-0.4-0.7-0.9-1.2-1.5c-0.3-0.4-0.8-0.8-1.5-1.3l0.8-0.7c0.4,0.3,0.9,0.7,1.5,1.3
	c0.4,0.4,0.8,0.9,1.2,1.5L166.2,8.1z"/>
<path class="st0" d="M176.2,1.3h2.3v1.1h-1.3l0.6,0.2c-0.2,0.7-0.5,1.3-0.7,1.8h1.4v1h-2.4v1h2.3v1h-2.2c0.9,0.6,1.6,1.3,2.2,1.9
	l-0.8,0.8c-0.4-0.5-0.9-1-1.6-1.5v3.7h-1V8.9c-0.6,0.9-1.2,1.7-2,2.4l-0.7-1c1.1-0.8,1.9-1.7,2.5-2.8h-2.2v-1h2.3v-1h-2.5v-1h1.4
	c-0.1-0.5-0.3-1.1-0.6-1.8l0.7-0.2h-1.5V1.4h2.3c-0.2-0.3-0.4-0.5-0.5-0.8l1.2-0.1C175.7,0.6,176,0.9,176.2,1.3z M176.1,4.3
	c0.2-0.5,0.4-1.2,0.7-2h-2.4c0.2,0.6,0.5,1.3,0.6,2H176.1z M184.3,1.9c-1.2,0.3-2.5,0.5-4,0.6v2.1h4v1.1H183v6.6h-1.2V5.7h-1.5v1.1
	c0,0.9-0.2,1.9-0.4,2.9c-0.2,0.9-0.7,1.7-1.2,2.5l-0.9-0.9c0.4-0.6,0.8-1.3,1-2s0.3-1.6,0.4-2.5V1.5c1.8,0,3.3-0.2,4.5-0.8
	L184.3,1.9z"/>
<path class="st0" d="M187.1,2.8V0.4h1.2v2.4h1.7v1.1h-1.7v0.4c0.6,0.6,1.3,1.3,1.9,2.1l-0.7,1.1c-0.5-0.7-0.9-1.3-1.2-1.7v6.6h-1.2
	V6.8c-0.4,0.9-0.8,1.7-1.3,2.4l-0.6-1.5c0.8-1,1.4-2.2,1.9-3.5V4h-1.6V2.9h1.6L187.1,2.8L187.1,2.8z M197.3,1.6
	c-1.6,0.3-3.4,0.5-5.4,0.5v1.7h5v1c-0.3,1.8-0.8,3.3-1.5,4.5c0.6,0.6,1.3,1.2,2,1.6l-0.7,1.2c-0.8-0.6-1.5-1.1-2.1-1.8
	c-0.7,0.8-1.6,1.4-2.8,2l-0.7-1.1c1.1-0.5,2-1.1,2.7-1.9c-0.1-0.2-0.2-0.3-0.3-0.5c-0.7-1.1-1.2-2.3-1.4-3.8h-0.2v0.5
	c0,1.1-0.2,2.3-0.4,3.6c-0.2,1.1-0.6,2.1-1.2,3.1l-0.9-0.9c0.4-0.8,0.8-1.7,1-2.5c0.2-0.9,0.3-2,0.4-3.3V1c2.4,0,4.3-0.2,5.9-0.7
	L197.3,1.6z M194.6,8.2c0.5-0.8,0.9-1.9,1.2-3.2h-2.4C193.6,6.3,194,7.4,194.6,8.2z"/>
<path class="st0" d="M200.1,1.5c0,0.6-0.1,1.1-0.2,1.7h0.8V0.4h1.2v2.8h1.2v1.1h2.8V2.9h-2.4V1.8h2.4V0.4h1.2v1.4h2.6v1.1h-2.6v1.4
	h3.1v1.1H209v1.3h1.3v1.1H209v3.1c0,0.5-0.1,0.8-0.3,1s-0.5,0.3-1.1,0.3h-1.8l-0.3-1.3c0.7,0.1,1.3,0.1,1.7,0.1
	c0.3,0,0.5-0.1,0.5-0.3V7.8h-4.3V6.7h4.3V5.4H203V4.3h-1v2.5c0.4-0.1,0.9-0.3,1.3-0.5v1.2c-0.4,0.2-0.8,0.3-1.3,0.5v4.3h-1.2V8.4
	c-0.7,0.2-1.4,0.4-2.1,0.7l-0.3-1.3c0.8-0.1,1.6-0.3,2.4-0.5V4.4h-1c-0.1,0.7-0.2,1.3-0.4,1.9l-1.2-0.4c0.4-1.4,0.7-2.9,0.9-4.5
	L200.1,1.5z M206.3,9.9l-1.2,0.8c-0.3-0.6-0.8-1.3-1.4-2.1l1-0.6C205.4,8.8,205.9,9.4,206.3,9.9z"/>
<path class="st0" d="M223,1.9h-9.6v8.8h9.6v1.1h-9.6v0.5h-1.2V0.7H223V1.9z M217.7,6.5v3.4h-3.8V6.5H217.7z M216.6,7.5h-1.8v1.4h1.8
	V7.5z M221.2,2.6v3.1H215V2.6H221.2z M220.1,3.6h-4v1.1h4V3.6z M222.7,6.5v3.4h-4V6.5H222.7z M221.7,7.5h-2v1.4h2V7.5z"/>
<path class="st0" d="M230.8,7.7c-0.2,0.3-0.5,0.5-1,0.8l-0.4-0.6c0.6-0.3,1-0.7,1.1-1.2h-0.8V5.1h1.6v1.3C231.2,7,231,7.4,230.8,7.7
	z"/>
<path class="st0" d="M249.2,1v1.2h-5.9v2.1c1.5,0.9,3,1.8,4.6,2.9l-0.8,1.2c-1.5-1.2-2.8-2.1-3.8-2.7v6.5H242v-10h-4.5V1H249.2z"/>
<path class="st0" d="M262,5.3v1.2h-11.3V5.3H262z"/>
<path class="st0" d="M266.8,2.4h2v1.1h-5.3V2.4h2.1c-0.2-0.6-0.4-1.2-0.6-1.7l1.3-0.2C266.4,1,266.6,1.7,266.8,2.4z M268.3,10.3
	c-1.3,0.4-2.8,0.8-4.6,1.2l-0.4-1.2c1.8-0.3,3.5-0.7,4.9-1.2L268.3,10.3L268.3,10.3z M265.7,9.4l-1.1,0.2c-0.2-1.8-0.5-3.5-0.9-5.2
	l1-0.3C265.1,5.6,265.5,7.4,265.7,9.4z M268.1,4.1c-0.1,1.9-0.3,3.6-0.8,5.3l-1.1-0.3c0.5-1.7,0.8-3.4,0.8-5
	C267,4.1,268.1,4.1,268.1,4.1z M271.9,0.3v2.3h3.4v1.1h-3.4v2.2h2.8v6.3h-1.2v-0.9H270v0.9h-1.2V6h1.9V0.4L271.9,0.3L271.9,0.3z
	 M273.6,10.3V7.1H270v3.2H273.6z"/>
<path class="st0" d="M278.1,2.8V0.3h1.1v2.5h1.3v1.1h-1.3v0.2c0.5,0.5,1,1.2,1.5,1.8l-0.7,1c-0.3-0.6-0.6-1-0.8-1.4v6.8h-1.1V6.4
	c-0.4,1-0.8,2-1.3,2.7l-0.5-1.4c0.7-1.1,1.3-2.4,1.7-3.9h-1.5V2.7L278.1,2.8L278.1,2.8z M283.7,0.3v5.9c0,1.3-0.2,2.4-0.6,3.3
	s-1,1.8-2,2.7l-1-0.9c0.9-0.7,1.5-1.4,1.9-2.2c0.2-0.4,0.4-1,0.4-1.8c-0.6,0.5-1.2,0.9-1.9,1.2l-0.6-1c0.9-0.4,1.7-0.9,2.6-1.6V0.3
	H283.7z M282.4,4.8l-1,0.5c-0.3-1.1-0.6-2.1-1-2.9l1-0.3C281.9,2.9,282.2,3.8,282.4,4.8z M285.6,0.3v5c1,0.6,1.9,1.3,2.7,2.1
	l-0.7,1.1c-0.7-0.7-1.4-1.4-2-1.8v4c0,0.2,0.1,0.4,0.5,0.4h0.5c0.1,0,0.3-0.1,0.3-0.2c0.1-0.1,0.1-0.7,0.2-1.8l1.1,0.4
	c-0.1,1.3-0.3,2.1-0.5,2.3c-0.2,0.2-0.5,0.4-1,0.4h-1.1c-0.4,0-0.7-0.1-0.9-0.3c-0.2-0.2-0.3-0.5-0.3-0.8V0.5h1.2L285.6,0.3
	L285.6,0.3z M288.1,2.4c-0.4,1-0.8,1.9-1.3,2.7l-1-0.7c0.5-0.7,1-1.5,1.4-2.4L288.1,2.4z"/>
<path class="st0" d="M300.9,12.2h-1.1v-0.5h-8.9v0.5h-1.1V0.7H301v11.5H300.9z M299.8,10.7v-9h-8.9v9H299.8z M298.8,5.4v2.3h-3.6
	c-0.1,0.1-0.1,0.2-0.2,0.2v2.5h-1V8.8c-0.7,0.5-1.5,0.9-2.3,1.2l-0.6-0.9c0.9-0.3,1.6-0.6,2.1-0.9c0.3-0.2,0.5-0.4,0.7-0.5h-1.8V5.4
	H298.8z M294.6,2.5V2h1.1v0.5h3.1v0.8h-3.1V4h3.7v0.9h-8.2V4h3.5V3.3h-2.9V2.5H294.6z M297.8,6.2h-4.7v0.7h4.7V6.2z M297.1,8.6
	c0.2-0.3,0.4-0.5,0.6-0.8l1,0.6c-0.1,0.2-0.3,0.4-0.5,0.7c0.4,0.2,0.9,0.4,1.3,0.6l-0.6,0.9c-1.1-0.7-2.3-1.3-3.5-1.7l0.5-0.8
	C296.3,8.3,296.7,8.4,297.1,8.6z"/>
<path class="st0" d="M306.2,1.3h2.3v1.1h-1.3l0.6,0.2c-0.2,0.7-0.5,1.3-0.7,1.8h1.4v1h-2.4v1h2.3v1h-2.2c0.9,0.6,1.6,1.3,2.2,1.9
	l-0.8,0.8c-0.4-0.5-0.9-1-1.6-1.5v3.7h-1V8.9c-0.6,0.9-1.2,1.7-2,2.4l-0.7-1c1.1-0.8,1.9-1.7,2.5-2.8h-2.2v-1h2.3v-1h-2.5v-1h1.4
	c-0.1-0.5-0.3-1.1-0.6-1.8l0.7-0.2h-1.5V1.4h2.3c-0.2-0.3-0.4-0.5-0.5-0.8l1.2-0.1C305.7,0.6,306,0.9,306.2,1.3z M306.1,4.3
	c0.2-0.5,0.4-1.2,0.7-2h-2.4c0.2,0.6,0.5,1.3,0.6,2H306.1z M314.3,1.9c-1.2,0.3-2.5,0.5-4,0.6v2.1h4v1.1H313v6.6h-1.2V5.7h-1.5v1.1
	c0,0.9-0.2,1.9-0.4,2.9c-0.2,0.9-0.7,1.7-1.2,2.5l-0.9-0.9c0.4-0.6,0.8-1.3,1-2s0.3-1.6,0.4-2.5V1.5c1.8,0,3.3-0.2,4.5-0.8
	L314.3,1.9z"/>
<path class="st0" d="M318.8,2.4h2v1.1h-5.3V2.4h2.1c-0.2-0.6-0.4-1.2-0.6-1.7l1.3-0.2C318.4,1,318.6,1.7,318.8,2.4z M320.3,10.3
	c-1.3,0.4-2.8,0.8-4.6,1.2l-0.4-1.2c1.8-0.3,3.5-0.7,4.9-1.2L320.3,10.3L320.3,10.3z M317.7,9.4l-1.1,0.2c-0.2-1.8-0.5-3.5-0.9-5.2
	l1-0.3C317.1,5.6,317.5,7.4,317.7,9.4z M320.1,4.1c-0.1,1.9-0.3,3.6-0.8,5.3l-1.1-0.3c0.5-1.7,0.8-3.4,0.8-5
	C319,4.1,320.1,4.1,320.1,4.1z M323.9,0.3v2.3h3.4v1.1h-3.4v2.2h2.8v6.3h-1.2v-0.9H322v0.9h-1.2V6h1.9V0.4L323.9,0.3L323.9,0.3z
	 M325.6,10.3V7.1H322v3.2H325.6z"/>
<path class="st0" d="M1,38v-1.4c1.4-1.3,2.5-2.4,3.2-3.3C5.4,32,6,31,6,30.3c0-1-0.6-1.5-1.7-1.5s-1.6,0.6-1.6,1.9H1.1
	c0-2.2,1.1-3.3,3.2-3.3c0.9,0,1.7,0.2,2.3,0.7s1,1.2,1,2.1c0,1.4-1.5,3.5-4.4,6.3h4.5V38H1z"/>
<path class="st0" d="M9.4,38.2v-1.6H11v1.6H9.4z"/>
<path class="st0" d="M19.1,28.2v-0.6h1v0.6h2.6v0.9h-2.6v0.6h2.3v1c0.5-0.4,0.9-0.9,1.2-1.3c0.3-0.4,0.6-1,0.8-1.7l1.1,0.1
	c-0.1,0.5-0.3,0.9-0.5,1.2h3.3v1h-0.7c-0.3,0.8-0.6,1.4-0.9,2c-0.2,0.2-0.3,0.4-0.5,0.6c0.6,0.4,1.3,0.7,2.1,1l-0.6,0.9
	c-0.9-0.4-1.7-0.8-2.2-1.2c0,0,0,0-0.1,0.1c-0.6,0.4-1.4,0.8-2.3,1.1l-0.6-1c0.9-0.3,1.6-0.6,2.1-0.9c-0.4-0.4-0.8-0.9-1.1-1.5
	c-0.2,0.2-0.5,0.5-0.8,0.7l-0.5-0.6v1.1h-2.3c0.8,0.4,1.5,0.8,2.3,1.2l-0.5,0.8c-0.7-0.5-1.4-0.8-1.8-1.1v1.4h-1V33
	c-0.6,0.5-1.3,0.9-2,1.2l-0.6-0.9c1-0.4,1.9-0.8,2.5-1.3h-2.2v-2.4h2.3V29h-2.7v-0.9L19.1,28.2L19.1,28.2z M27.9,34.7v1h-4.8v0.7
	h4.4v1h-4.4v0.8h5.3v1h-12v-1h2.3v-1.9h1.2v1.9h2v-2.4h-4.8v-1L27.9,34.7L27.9,34.7z M19.1,30.5h-1.3v0.8h1.3V30.5z M21.4,30.5h-1.3
	v0.8h1.3V30.5z M25.5,31.8c0.2-0.2,0.3-0.4,0.5-0.6c0.2-0.4,0.4-0.8,0.6-1.3h-2.1c-0.1,0.1-0.1,0.2-0.2,0.3
	C24.7,30.8,25,31.4,25.5,31.8z"/>
<path class="st0" d="M35.9,27.6c0.8,0.9,1.6,1.6,2.4,2.1c0.6,0.4,1.6,0.9,3,1.5l-0.8,1.3c-0.6-0.2-1.1-0.5-1.7-0.8v0.8h-7v-0.8
	c-0.6,0.3-1.2,0.7-1.9,1l-0.6-1.3c1.5-0.6,2.6-1.2,3.4-1.8c0.6-0.5,1.3-1.2,2-2h0.6H35.9z M39.7,39.5h-1.3v-0.7h-6.1v0.7H31V34h8.6
	v5.5H39.7z M38.5,37.6V35h-6.1v2.6H38.5z M38.3,31.4c-1-0.6-2-1.5-3-2.7c-0.8,0.9-1.5,1.6-2.2,2.2c-0.2,0.2-0.5,0.3-0.7,0.5H38.3z"
	/>
<path class="st0" d="M44.1,30v-2.5h1.1V30h1.3v1.1h-1.3v0.2c0.5,0.5,1,1.2,1.5,1.8l-0.7,1c-0.3-0.6-0.6-1-0.8-1.4v6.8h-1.1v-5.9
	c-0.4,1-0.8,2-1.3,2.7l-0.5-1.4c0.7-1.1,1.3-2.4,1.7-3.9h-1.5v-1C42.5,30,44.1,30,44.1,30z M49.7,27.5v5.9c0,1.3-0.2,2.4-0.6,3.3
	c-0.4,0.9-1,1.8-2,2.7l-1-0.9c0.9-0.7,1.5-1.4,1.9-2.2c0.2-0.4,0.4-1,0.4-1.8c-0.6,0.5-1.2,0.9-1.9,1.2l-0.6-1
	c0.9-0.4,1.7-0.9,2.6-1.6v-5.6C48.5,27.5,49.7,27.5,49.7,27.5z M48.4,32l-1,0.5c-0.3-1.1-0.6-2.1-1-2.9l1-0.3
	C47.9,30.1,48.2,31,48.4,32z M51.6,27.5v5c1,0.6,1.9,1.3,2.7,2.1l-0.7,1.1c-0.7-0.7-1.4-1.4-2-1.8v4c0,0.2,0.1,0.4,0.5,0.4h0.5
	c0.1,0,0.3-0.1,0.3-0.2c0.1-0.1,0.1-0.7,0.2-1.8l1.1,0.4c-0.1,1.3-0.3,2.1-0.5,2.3s-0.5,0.4-1,0.4h-1.1c-0.4,0-0.7-0.1-0.9-0.3
	s-0.3-0.5-0.3-0.8V27.7h1.2V27.5z M54.1,29.6c-0.4,1-0.8,1.9-1.3,2.7l-1-0.7c0.5-0.7,1-1.5,1.4-2.4L54.1,29.6z"/>
<path class="st0" d="M66.9,39.4h-1.1v-0.5h-8.9v0.5h-1.1V27.9H67L66.9,39.4L66.9,39.4z M65.8,37.9v-9h-8.9v9H65.8z M64.8,32.6v2.3
	h-3.6c-0.1,0.1-0.1,0.2-0.2,0.2v2.5h-1V36c-0.7,0.5-1.5,0.9-2.3,1.2l-0.6-0.9c0.9-0.3,1.6-0.6,2.1-0.9c0.3-0.2,0.5-0.4,0.7-0.5h-1.8
	v-2.3H64.8z M60.6,29.7v-0.5h1.1v0.5h3.1v0.8h-3.1v0.7h3.7v0.9h-8.2v-0.9h3.5v-0.7h-2.9v-0.8H60.6z M63.8,33.4h-4.7v0.7h4.7V33.4z
	 M63.1,35.8c0.2-0.3,0.4-0.5,0.6-0.8l1,0.6c-0.1,0.2-0.3,0.4-0.5,0.7c0.4,0.2,0.9,0.4,1.3,0.6l-0.6,0.9c-1.1-0.7-2.3-1.3-3.5-1.7
	l0.5-0.8C62.3,35.5,62.7,35.6,63.1,35.8z"/>
<path class="st0" d="M75,27.5V30c0,0.8,0.2,1.8,0.6,3c0.5,1.2,1.1,2.2,1.7,3c0.8,1,1.8,1.7,2.9,2.1l-0.6,1.4
	c-1.4-0.7-2.4-1.5-3.1-2.3c-0.9-1.1-1.7-2.5-2.2-4.2c-0.4,1.8-1.1,3.3-2,4.3c-0.8,0.9-1.9,1.7-3.3,2.2l-0.6-1.3
	c1.3-0.5,2.4-1.3,3.1-2.2c0.7-0.8,1.2-1.9,1.6-3.2c0.3-1.1,0.5-2,0.5-2.9v-2.5H75V27.5z M71.7,30c-0.4,1.7-0.9,3.2-1.5,4.4L69,33.5
	c0.6-1.2,1.1-2.5,1.6-4.1L71.7,30z M79.6,30c-0.5,1.7-1,3.1-1.6,4.4l-1.2-0.9c0.6-1.1,1.2-2.5,1.7-4L79.6,30z"/>
<path class="st0" d="M86.7,28.6v-1.1H88v1.1h5.1v1.1H88v0.9h4.2v5.2H88v0.9h5.2v1.1H88v1.7h-1.3v-1.7h-5.2v-1.1h5.2v-0.9h-4.2v-5.2
	h4.2v-0.9h-5.1v-1.1H86.7z M86.7,32.6v-0.9h-3v0.9H86.7z M86.7,33.6h-3v1.1h3V33.6z M88,32.6h3v-0.9h-3V32.6z M91,33.6h-3v1.1h3
	V33.6z"/>
<path class="st0" d="M97.8,29.6h2v1.1h-5.3v-1.1h2.1c-0.2-0.6-0.4-1.2-0.6-1.7l1.3-0.2C97.4,28.2,97.6,28.9,97.8,29.6z M99.3,37.5
	c-1.3,0.4-2.8,0.8-4.6,1.2l-0.4-1.2c1.8-0.3,3.5-0.7,4.9-1.2L99.3,37.5L99.3,37.5z M96.7,36.6l-1.1,0.2c-0.2-1.8-0.5-3.5-0.9-5.2
	l1-0.3C96.1,32.8,96.5,34.6,96.7,36.6z M99.1,31.3c-0.1,1.9-0.3,3.6-0.8,5.3l-1.1-0.3c0.5-1.7,0.8-3.4,0.8-5H99.1z M102.9,27.5v2.3
	h3.4v1.1h-3.4v2.2h2.8v6.3h-1.2v-0.9H101v0.9h-1.2v-6.3h1.9v-5.6H102.9z M104.6,37.5v-3.2H101v3.2H104.6z"/>
<path class="st0" d="M113.8,34.9c-0.2,0.3-0.5,0.5-1,0.8l-0.4-0.6c0.6-0.3,1-0.7,1.1-1.2h-0.8v-1.6h1.6v1.3
	C114.2,34.1,114,34.6,113.8,34.9z"/>
<path class="st0" d="M124.2,28.5h2.3v1.1h-1.3l0.6,0.2c-0.2,0.7-0.5,1.3-0.7,1.8h1.4v1h-2.4v1h2.3v1h-2.2c0.9,0.6,1.6,1.3,2.2,1.9
	l-0.8,0.8c-0.4-0.5-0.9-1-1.6-1.5v3.7h-1v-3.4c-0.6,0.9-1.2,1.7-2,2.4l-0.7-1c1.1-0.8,1.9-1.7,2.5-2.8h-2.2v-1h2.3v-1h-2.5v-1h1.4
	c-0.1-0.5-0.3-1.1-0.6-1.8l0.7-0.2h-1.5v-1.1h2.3c-0.2-0.3-0.4-0.5-0.5-0.8l1.2-0.1C123.7,27.8,124,28.1,124.2,28.5z M124.1,31.5
	c0.2-0.5,0.4-1.2,0.7-2h-2.4c0.2,0.6,0.5,1.3,0.6,2H124.1z M132.3,29.1c-1.2,0.3-2.5,0.5-4,0.6v2.1h4v1.1H131v6.6h-1.2v-6.6h-1.5V34
	c0,0.9-0.2,1.9-0.4,2.9c-0.2,0.9-0.7,1.7-1.2,2.5l-0.9-0.9c0.4-0.6,0.8-1.3,1-2s0.3-1.6,0.4-2.5v-5.3c1.8,0,3.3-0.2,4.5-0.8
	L132.3,29.1z"/>
<path class="st0" d="M136.8,29.6h2v1.1h-5.3v-1.1h2.1c-0.2-0.6-0.4-1.2-0.6-1.7l1.3-0.2C136.4,28.2,136.6,28.9,136.8,29.6z
	 M138.3,37.5c-1.3,0.4-2.8,0.8-4.6,1.2l-0.4-1.2c1.8-0.3,3.5-0.7,4.9-1.2v1.2H138.3z M135.7,36.6l-1.1,0.2c-0.2-1.8-0.5-3.5-0.9-5.2
	l1-0.3C135.1,32.8,135.5,34.6,135.7,36.6z M138.1,31.3c-0.1,1.9-0.3,3.6-0.8,5.3l-1.1-0.3c0.5-1.7,0.8-3.4,0.8-5H138.1z M141.9,27.5
	v2.3h3.4v1.1h-3.4v2.2h2.8v6.3h-1.2v-0.9H140v0.9h-1.2v-6.3h1.9v-5.6H141.9z M143.6,37.5v-3.2H140v3.2H143.6z"/>
<path class="st0" d="M148.1,28.7c0,0.6-0.1,1.1-0.2,1.7h0.8v-2.8h1.2v2.8h1.2v1.1h2.8v-1.4h-2.4V29h2.4v-1.4h1.2V29h2.6v1.1h-2.6
	v1.4h3.1v1.1H157v1.3h1.3V35H157v3.1c0,0.5-0.1,0.8-0.3,1s-0.5,0.3-1.1,0.3h-1.8l-0.3-1.3c0.7,0.1,1.3,0.1,1.7,0.1
	c0.3,0,0.5-0.1,0.5-0.3V35h-4.3v-1.1h4.3v-1.3H151v-1.1h-1V34c0.4-0.1,0.9-0.3,1.3-0.5v1.2c-0.4,0.2-0.8,0.3-1.3,0.5v4.3h-1.2v-3.9
	c-0.7,0.2-1.4,0.4-2.1,0.6l-0.3-1.3c0.8-0.1,1.6-0.3,2.4-0.5v-2.9h-1c-0.1,0.7-0.2,1.3-0.4,1.9l-1.2-0.4c0.4-1.4,0.7-2.9,0.9-4.5
	L148.1,28.7z M154.3,37.1l-1.2,0.8c-0.3-0.6-0.8-1.3-1.4-2.1l1-0.6C153.4,36,153.9,36.6,154.3,37.1z"/>
<path class="st0" d="M171,29.1h-9.6v8.8h9.6V39h-9.6v0.5h-1.2V27.9H171V29.1z M165.7,33.7v3.4h-3.8v-3.4H165.7z M164.6,34.7h-1.8
	v1.4h1.8V34.7z M169.2,29.8v3.1H163v-3.1H169.2z M168.1,30.8h-4v1.1h4V30.8z M170.7,33.7v3.4h-4v-3.4H170.7z M169.7,34.7h-2v1.4h2
	V34.7z"/>
<path class="st0" d="M178.8,34.9c-0.2,0.3-0.5,0.5-1,0.8l-0.4-0.6c0.6-0.3,1-0.7,1.1-1.2h-0.8v-1.6h1.6v1.3
	C179.2,34.1,179,34.6,178.8,34.9z"/>
<path class="st0" d="M189.5,38c0,0.4-0.1,0.8-0.3,1s-0.4,0.3-0.8,0.3h-0.9l-0.3-1.2l0.7,0.1c0.2,0,0.4-0.2,0.4-0.5v-2.3h-1.2
	c0,0.5-0.1,0.9-0.1,1.3c-0.1,0.9-0.4,1.8-0.7,2.8l-1-0.8c0.3-0.7,0.4-1.5,0.6-2.3c0.1-0.7,0.1-1.7,0.1-3.1V28h3.4v10H189.5z
	 M188.4,34.2v-2.1h-1.2v1.1c0,0.4,0,0.8,0,1.1L188.4,34.2L188.4,34.2z M188.4,31v-2h-1.2v2H188.4z M192.1,29.7h0.5
	c0.1-0.6,0.2-1.4,0.3-2.2l1.1,0.2c-0.1,0.7-0.2,1.4-0.3,2h0.6c0.3-0.5,0.5-1.1,0.8-1.8l1.1,0.4c-0.2,0.6-0.5,1-0.7,1.4h1.1v1h-3.1
	c-0.1,0.3-0.2,0.6-0.2,0.9h3.9v1.1h-1.7c0.2,0.4,0.4,0.7,0.6,0.9c0.3,0.3,0.7,0.7,1.3,1l-0.5,1.1c-0.3-0.2-0.6-0.4-0.8-0.6
	c-0.1,2.2-0.2,3.5-0.6,3.8c-0.2,0.3-0.9,0.4-2,0.4l-0.2-1.2c0.3,0.1,0.6,0.1,0.9,0.1c0.2,0,0.4-0.1,0.6-0.2c0.1-0.2,0.2-0.9,0.2-2.2
	h-1.2c-0.2,0.6-0.4,1.1-0.6,1.5c-0.5,0.8-1.3,1.6-2.5,2.3l-0.7-1.1c1-0.5,1.7-1.1,2.2-1.8c0.2-0.3,0.3-0.6,0.5-1h-1.6v-0.6
	c-0.2,0.2-0.4,0.3-0.7,0.5l-0.6-1c0.9-0.6,1.5-1.2,2-1.9h-1.7v-1.1h2.3c0.1-0.2,0.2-0.5,0.3-0.9H190v-1h0.9
	c-0.2-0.4-0.4-0.9-0.7-1.4l1.1-0.4C191.6,28.4,191.8,29,192.1,29.7z M192.7,34.7c0.1-0.4,0.1-0.8,0.1-1.3h1.1c0,0.5-0.1,0.9-0.1,1.3
	h1.9c-0.3-0.2-0.5-0.4-0.6-0.6c-0.3-0.3-0.6-0.8-0.9-1.5h-1.3c0,0.1,0,0.1-0.1,0.1c-0.3,0.7-0.8,1.4-1.6,2H192.7z"/>
<path class="st0" d="M201.8,30.7v0.9c-0.4,0.7-0.9,1.5-1.6,2.2h1.6v0.7c-0.2,0.8-0.4,1.5-0.6,2c0.5,0.6,0.9,1,1.2,1.1
	c0.3,0.2,0.7,0.3,1.2,0.4c0.6,0.1,1.9,0.2,3.7,0.2c1.4,0,2.4,0,3-0.1l-0.2,1.2c-3.6,0-5.8-0.1-6.6-0.2c-0.7-0.1-1.3-0.3-1.7-0.5
	s-0.8-0.5-1.2-1.1c-0.4,0.6-0.9,1.3-1.5,2l-0.9-1c0.7-0.7,1.2-1.3,1.4-1.8c0.2-0.3,0.5-0.9,0.8-1.9h-1.8v-1c0.5-0.5,1.1-1.2,1.7-2.1
	h-2v-1C198.3,30.7,201.8,30.7,201.8,30.7z M201.4,29.5l-0.9,0.9c-0.4-0.6-0.9-1.3-1.6-2l0.8-0.8C200.4,28.2,201,28.8,201.4,29.5z
	 M209.2,31.8h0.6v4.8c0,0.4-0.1,0.7-0.3,0.9s-0.4,0.3-0.7,0.3h-1.3l-0.3-1.1l1.1,0.1c0.2,0,0.4-0.2,0.4-0.5v-3.4h-5.2v4.6h-1.2v-5.6
	h0.7V28h6.3v3.8H209.2z M205.1,31.8v-1.9h3v-1H204v2.9H205.1z M207.7,33.5v2.9h-3.4v-2.9H207.7z M206.6,34.3h-1.3v1.2h1.3V34.3z
	 M208.1,31.8v-1h-2v1H208.1z"/>
<path class="st0" d="M213.1,30v-2.5h1.1V30h1.3v1.1h-1.3v0.2c0.5,0.5,1,1.2,1.5,1.8l-0.7,1c-0.3-0.6-0.6-1-0.8-1.4v6.8h-1.1v-5.9
	c-0.4,1-0.8,2-1.3,2.7l-0.5-1.4c0.7-1.1,1.3-2.4,1.7-3.9h-1.5v-1C211.5,30,213.1,30,213.1,30z M218.7,27.5v5.9
	c0,1.3-0.2,2.4-0.6,3.3c-0.4,0.9-1,1.8-2,2.7l-1-0.9c0.9-0.7,1.5-1.4,1.9-2.2c0.2-0.4,0.4-1,0.4-1.8c-0.6,0.5-1.2,0.9-1.9,1.2
	l-0.6-1c0.9-0.4,1.7-0.9,2.6-1.6v-5.6C217.5,27.5,218.7,27.5,218.7,27.5z M217.4,32l-1,0.5c-0.3-1.1-0.6-2.1-1-2.9l1-0.3
	C216.9,30.1,217.2,31,217.4,32z M220.6,27.5v5c1,0.6,1.9,1.3,2.7,2.1l-0.7,1.1c-0.7-0.7-1.4-1.4-2-1.8v4c0,0.2,0.1,0.4,0.5,0.4h0.5
	c0.1,0,0.3-0.1,0.3-0.2c0.1-0.1,0.1-0.7,0.2-1.8l1.1,0.4c-0.1,1.3-0.3,2.1-0.5,2.3s-0.5,0.4-1,0.4h-1.1c-0.4,0-0.7-0.1-0.9-0.3
	s-0.3-0.5-0.3-0.8V27.7h1.2V27.5z M223.1,29.6c-0.4,1-0.8,1.9-1.3,2.7l-1-0.7c0.5-0.7,1-1.5,1.4-2.4L223.1,29.6z"/>
<path class="st0" d="M235.9,39.4h-1.1v-0.5h-8.9v0.5h-1.1V27.9H236v11.5H235.9z M234.8,37.9v-9h-8.9v9H234.8z M233.8,32.6v2.3h-3.6
	c-0.1,0.1-0.1,0.2-0.2,0.2v2.5h-1V36c-0.7,0.5-1.5,0.9-2.3,1.2l-0.6-0.9c0.9-0.3,1.6-0.6,2.1-0.9c0.3-0.2,0.5-0.4,0.7-0.5h-1.8v-2.3
	H233.8z M229.6,29.7v-0.5h1.1v0.5h3.1v0.8h-3.1v0.7h3.7v0.9h-8.2v-0.9h3.5v-0.7h-2.9v-0.8H229.6z M232.8,33.4h-4.7v0.7h4.7V33.4z
	 M232.1,35.8c0.2-0.3,0.4-0.5,0.6-0.8l1,0.6c-0.1,0.2-0.3,0.4-0.5,0.7c0.4,0.2,0.9,0.4,1.3,0.6l-0.6,0.9c-1.1-0.7-2.3-1.3-3.5-1.7
	l0.5-0.8C231.3,35.5,231.7,35.6,232.1,35.8z"/>
<path class="st0" d="M243.4,28.8c-1.2,0.4-2.5,0.6-3.9,0.7v1.3h3.2V35h-3.2c-0.1,0.7-0.1,1.3-0.3,2c-0.2,0.9-0.5,1.7-0.9,2.5l-0.9-1
	c0.3-0.7,0.5-1.3,0.6-2s0.2-1.6,0.2-2.6v-5.5c1.8,0,3.3-0.3,4.5-0.8L243.4,28.8z M241.6,33.9v-2h-2.1v2H241.6z M249.3,28.8
	c-1.4,0.4-2.9,0.6-4.6,0.7v2.2h4.6v1.2H248v6.6h-1.2v-6.6h-2.1v1.5c0,0.9-0.2,1.8-0.4,2.8c-0.3,0.8-0.7,1.6-1.2,2.4l-0.9-1
	c0.4-0.6,0.8-1.2,1-1.8c0.2-0.7,0.3-1.5,0.4-2.3v-5.9c2.1,0,3.8-0.3,5.1-0.9L249.3,28.8z"/>
<path class="st0" d="M254.9,29c0.2-0.4,0.4-0.9,0.6-1.4l1.3,0.2c-0.2,0.4-0.3,0.9-0.5,1.2h5.9v1.2h-6.5c-0.2,0.4-0.5,0.8-0.7,1.1
	h6.2v6.9c0,0.4-0.1,0.7-0.3,0.9c-0.2,0.2-0.5,0.3-1,0.3h-2.1l-0.3-1.1l2,0.1c0.2,0,0.4-0.1,0.4-0.4v-1.2h-5.7v2.7H253v-5.9
	c-0.6,0.5-1.2,1-1.9,1.4l-0.8-1c1.3-0.9,2.4-1.9,3.3-2.9c0.2-0.3,0.5-0.6,0.7-0.9h-3.7V29H254.9z M259.9,33.4v-1.1h-5.7v1.1H259.9z
	 M259.9,35.7v-1.2h-5.7v1.2H259.9z"/>
<path class="st0" d="M274.7,28.5c-1.4,0.2-3,0.4-4.8,0.5v0.8h5.2v1h-5.2v0.8h4.3v4.2h-4.3v0.7h4.8v1h-4.8v0.7h5.3v1h-11.7v-1h5.2
	v-0.7H264v-1h4.7v-0.7h-4.3v-4.2h4.3v-0.8h-5.1v-1h5.1V29c-1.4,0.1-2.8,0.1-4.4,0.1l-0.3-1c4,0,7.4-0.2,10.2-0.6L274.7,28.5z
	 M268.7,33.1v-0.8h-3.1v0.8H268.7z M268.7,34h-3.1v0.8h3.1V34z M269.9,33.1h3.1v-0.8h-3.1V33.1z M273,34h-3.1v0.8h3.1V34z"/>
<path class="st0" d="M279.6,28.2v-0.6h1.1v0.6h2.8v1.3h0.8v0.8h-0.8v1.3h-2.8v0.6h3V33h-3v0.5h3.3v0.8h-7.5v-0.8h3.1V33h-2.7v-0.8
	h2.7v-0.6H277v-0.8h2.5v-0.6h-3.2v-0.8h3.2V29H277v-0.8H279.6z M284,38.9c-1.4,0.2-3.9,0.3-7.5,0.5l-0.1-1c3,0,5.6-0.1,7.7-0.3v0.8
	H284z M283.5,34.7v2.9H277v-2.9H283.5z M279.7,35.9v-0.5H278v0.5H279.7z M279.7,36.5H278V37h1.7V36.5z M280.7,29.5h1.7V29h-1.7V29.5
	z M280.7,30.9h1.7v-0.6h-1.7V30.9z M280.8,35.9h1.7v-0.5h-1.7V35.9z M282.4,36.5h-1.7V37h1.7V36.5z M287.9,27.6V38
	c0,0.5-0.1,0.8-0.3,1c-0.2,0.2-0.5,0.3-1,0.3h-1.7l-0.3-1.3c0.7,0.1,1.2,0.1,1.7,0.1c0.3,0,0.5-0.1,0.5-0.3V27.5L287.9,27.6
	L287.9,27.6z M285.9,28.5v8.2h-1.2v-8.2H285.9z"/>
<path class="st0" d="M301,29.1h-9.6v8.8h9.6V39h-9.6v0.5h-1.2V27.9H301V29.1z M295.7,33.7v3.4h-3.8v-3.4H295.7z M294.6,34.7h-1.8
	v1.4h1.8V34.7z M299.2,29.8v3.1H293v-3.1H299.2z M298.1,30.8h-4v1.1h4V30.8z M300.7,33.7v3.4h-4v-3.4H300.7z M299.7,34.7h-2v1.4h2
	V34.7z"/>
<path class="st0" d="M6.8,63.6c-0.7,0.5-1.5,0.8-2.5,0.8c-2.3,0-3.5-1.1-3.5-3.3h1.6c0,1.3,0.7,1.9,1.9,1.9c0.6,0,1.1-0.2,1.5-0.5
	s0.6-0.8,0.6-1.3c0-0.6-0.2-1-0.6-1.3s-0.9-0.4-1.5-0.4c-0.1,0-0.4,0-0.7,0.1V58c0.3,0,0.6,0,0.8,0c0.5,0,1-0.1,1.3-0.4
	c0.4-0.3,0.6-0.7,0.6-1.2s-0.2-0.8-0.5-1.1C5.4,55,5,54.9,4.4,54.9S3.3,55,3.1,55.3c-0.3,0.3-0.5,0.7-0.5,1.3H0.9
	c0-1,0.3-1.8,0.9-2.4c0.6-0.5,1.3-0.8,2.4-0.8s1.8,0.2,2.5,0.7s1.1,1.3,1.1,2.2c0,1-0.4,1.7-1.3,2.3C7.5,59.2,8,60,8,61.1
	C7.9,62.2,7.5,63,6.8,63.6z"/>
<path class="st0" d="M9.4,64.4v-1.6H11v1.6H9.4z"/>
<path class="st0" d="M21.3,55.3h2.3c0.3-0.5,0.6-1,0.9-1.6l1.3,0.4c-0.3,0.5-0.5,0.9-0.8,1.2h3.4v1.1h-12v-1.1h3.5
	c-0.2-0.5-0.5-0.9-0.8-1.3l1.4-0.2C20.8,54.2,21,54.7,21.3,55.3z M22.1,64.2c0,0.4-0.1,0.7-0.3,1c-0.2,0.2-0.4,0.3-0.7,0.3h-1.3
	l-0.2-1.2l1.2,0.1c0.2,0,0.4-0.2,0.4-0.5v-1h-3v2.8H17v-8.5h5.2v7C22.2,64.2,22.1,64.2,22.1,64.2z M21,59.6v-1.3h-3v1.3H21z
	 M21,61.9v-1.3h-3v1.3H21z M24.6,57.6v5.9h-1.3v-5.9H24.6z M27.5,57v7.4c0,0.5-0.1,0.8-0.3,1c-0.2,0.2-0.6,0.3-1.1,0.3h-1.7
	l-0.3-1.3c0.6,0.1,1.2,0.1,1.6,0.1c0.3,0,0.5-0.1,0.5-0.3V57H27.5z"/>
<path class="st0" d="M33,57.6c-0.4,0.8-0.7,1.4-1.1,1.9v6.1h-1.2v-4.8c-0.3,0.3-0.7,0.6-1.1,0.9l-0.4-1.3c0.6-0.4,1.1-0.9,1.5-1.4
	c0.4-0.4,0.8-1,1.3-1.8L33,57.6z M33.2,54.3c-0.5,0.7-0.9,1.2-1.3,1.5c-0.5,0.4-1.1,0.9-1.9,1.3L29.4,56c0.6-0.2,1.1-0.6,1.6-1
	c0.4-0.3,0.8-0.8,1.2-1.3L33.2,54.3z M37.5,54.1c-0.6,0.8-1.2,1.5-1.8,2.1c1,0,1.8-0.1,2.5-0.2c0.4-0.4,0.7-0.7,1-1.1l1.1,0.6
	c-0.8,0.9-2.1,1.9-3.9,3.1c1.2-0.1,2.3-0.2,3.2-0.3c-0.2-0.3-0.3-0.6-0.5-0.9l0.8-0.5c0.7,1,1.2,1.9,1.6,2.6l-1,0.7
	c-0.1-0.3-0.3-0.6-0.5-1c-0.9,0.2-2,0.3-3.4,0.4c-0.2,0.4-0.4,0.7-0.6,1h4.3v1c-0.6,0.9-1.2,1.6-1.9,2.1c0.8,0.4,1.8,0.7,2.9,1
	l-0.7,1c-1.4-0.4-2.5-0.9-3.3-1.4c-1,0.5-2.4,1-4.1,1.4l-0.4-1.1c1.4-0.2,2.6-0.5,3.5-1c-0.6-0.5-1.1-1-1.6-1.6
	c-0.3,0.3-0.8,0.6-1.2,1l-0.9-0.8c0.8-0.5,1.4-1,1.9-1.5c0.3-0.3,0.5-0.7,0.7-1c-0.6,0-1.2,0.1-1.9,0.1L33,58.7c0.5,0,1,0,1.5,0
	c0.8-0.5,1.6-1.1,2.2-1.6c-0.9,0.1-1.9,0.2-3.1,0.2l-0.3-1.1c0.3,0,0.6,0,0.9,0c0.7-0.6,1.3-1.5,2-2.5L37.5,54.1z M37.4,63.1
	c0.5-0.3,1-0.8,1.5-1.5h-3C36.3,62.2,36.8,62.7,37.4,63.1z"/>
<path class="st0" d="M45.8,55.8h2v1.1h-5.3v-1.1h2.1c-0.2-0.6-0.4-1.2-0.6-1.7l1.3-0.2C45.4,54.4,45.6,55.1,45.8,55.8z M47.3,63.7
	c-1.3,0.4-2.8,0.8-4.6,1.2l-0.4-1.2c1.8-0.3,3.5-0.7,4.9-1.2L47.3,63.7L47.3,63.7z M44.7,62.8L43.6,63c-0.2-1.8-0.5-3.5-0.9-5.2
	l1-0.3C44.1,59,44.5,60.8,44.7,62.8z M47.1,57.5c-0.1,1.9-0.3,3.6-0.8,5.3l-1.1-0.3c0.5-1.7,0.8-3.4,0.8-5H47.1z M50.9,53.7V56h3.4
	v1.1h-3.4v2.2h2.8v6.3h-1.2v-0.9H49v0.9h-1.2v-6.3h1.9v-5.6H50.9z M52.6,63.7v-3.2H49v3.2H52.6z"/>
<path class="st0" d="M61.8,54.9v-1h4.6c0.8,1.4,2.6,2.6,5.3,3.8l-0.8,1.2c-0.4-0.2-0.7-0.3-1.1-0.5v0.8h-3.6v2h3.5v1.1h-3.5v2.2h5
	v1.1H60v-1.1h5v-2.2h-3.4v-1.1H65v-2h-3.5v-0.8c-0.3,0.2-0.7,0.3-1,0.5l-0.7-1.2c1.4-0.5,2.4-1,3.1-1.5c0.5-0.3,1-0.7,1.4-1.2
	L61.8,54.9L61.8,54.9z M69.4,58.1c-0.6-0.3-1.1-0.6-1.5-1c-0.9-0.7-1.6-1.4-2.2-2.2c-0.4,0.7-0.9,1.2-1.3,1.5
	c-0.5,0.5-1.3,1.1-2.3,1.6L69.4,58.1L69.4,58.1z"/>
<path class="st0" d="M84.5,54.4v1.1h-5.1c-0.1,0.4-0.3,0.8-0.6,1.2h5.1v8.9h-1.2V65h-8.1v0.7h-1.2v-8.9h4.1c0.2-0.4,0.4-0.8,0.6-1.2
	H73v-1.1L84.5,54.4L84.5,54.4z M76.1,63.9v-6.1h-1.5v6.1H76.1z M80.1,59.1v-1.3h-2.8v1.3H80.1z M80.1,61.5v-1.4h-2.8v1.4H80.1z
	 M80.1,63.9v-1.4h-2.8v1.4H80.1z M82.7,63.9v-6.1h-1.5v6.1H82.7z"/>
<path class="st0" d="M92.1,56.2v-2.4h1.2v2.4h1.8v1.2h-1.8v2.4c0.6-0.2,1.2-0.4,1.8-0.7v1.2c-0.6,0.3-1.2,0.5-1.8,0.7v3.3
	c0,0.5-0.1,0.8-0.3,1s-0.5,0.3-1.1,0.3h-1.5l-0.3-1.3c0.5,0.1,1,0.1,1.4,0.1c0.3,0,0.5-0.1,0.5-0.3v-2.7c-0.6,0.2-1.3,0.3-1.9,0.5
	L90,60.6c0.7-0.1,1.4-0.2,2.1-0.4v-2.8h-2v-1.2H92.1z M102,54.7v1.2h-2.1v8.2c0,0.5-0.1,0.8-0.4,1c-0.2,0.2-0.6,0.3-1.2,0.3h-2
	L96,64.1c0.8,0.1,1.4,0.1,1.9,0.1c0.4,0,0.6-0.1,0.6-0.3v-8h-3.4v-1.2H102z"/>
<path class="st0" d="M106.4,56.9v0.9c-0.4,0.7-1,1.5-1.6,2.2h1.6v0.8c-0.2,0.8-0.4,1.5-0.6,1.9c0.5,0.5,0.9,0.9,1.2,1
	c0.3,0.2,0.7,0.3,1.2,0.3c0.6,0.1,1.9,0.1,3.7,0.1c1.4,0,2.4,0,3-0.1l-0.2,1.3c-3.6,0-5.8-0.1-6.6-0.1c-0.7-0.1-1.3-0.2-1.7-0.5
	c-0.4-0.2-0.8-0.5-1.2-1c-0.4,0.6-0.8,1.2-1.4,1.9l-0.9-0.9c0.7-0.7,1.1-1.3,1.4-1.8c0.2-0.3,0.5-0.9,0.8-1.9h-1.9v-1
	c0.5-0.5,1.1-1.2,1.7-2.1H103v-1.1L106.4,56.9L106.4,56.9z M106,55.8l-0.8,0.8c-0.3-0.6-0.8-1.2-1.4-1.9l0.8-0.7
	C105.2,54.6,105.6,55.2,106,55.8z M114,54.2v0.9c-0.6,0.5-1.4,0.9-2.2,1.2c0.2,0.1,0.3,0.1,0.5,0.2l-0.2,0.2h2.1v5.7
	c0,0.4-0.1,0.7-0.3,0.9c-0.2,0.2-0.4,0.3-0.7,0.3h-0.9l-0.3-1.1l0.7,0.1c0.2,0,0.4-0.2,0.4-0.5v-0.7h-1.8v2h-1.1v-2h-1.7v2.2h-1.2
	v-6.9h3c-0.6-0.2-1.3-0.5-2.1-0.7l0.7-0.6c0.6,0.2,1.1,0.3,1.6,0.5c0.5-0.2,1-0.4,1.6-0.6H107v-1L114,54.2L114,54.2z M110.2,58.7v-1
	h-1.7v1H110.2z M110.2,60.5v-0.9h-1.7v0.9H110.2z M111.3,58.7h1.8v-1h-1.8V58.7z M111.3,60.5h1.8v-0.9h-1.8V60.5z"/>
<path class="st0" d="M119.4,56.9v0.9c-0.4,0.7-1,1.4-1.6,2.2h1.6v0.8c-0.2,0.8-0.4,1.4-0.6,1.9c0.5,0.6,1.2,1,2,1.2s2.1,0.3,4.1,0.3
	c1.2,0,2.3,0,3.1-0.1l-0.4,1.3c-4.1,0-6.5-0.1-7.3-0.4c-0.8-0.2-1.5-0.7-2.1-1.3c-0.4,0.6-0.9,1.3-1.5,2l-0.9-0.9
	c0.7-0.7,1.1-1.3,1.4-1.8c0.2-0.3,0.5-0.9,0.8-1.9h-1.9v-1c0.5-0.5,1.1-1.2,1.7-2.1h-1.9v-1.1H119.4z M119,55.7l-0.8,0.8
	c-0.4-0.6-0.8-1.2-1.5-1.9l0.8-0.7C118,54.5,118.5,55.1,119,55.7z M122.8,55.1h1.7c0.3-0.4,0.6-0.9,0.8-1.4l1.1,0.4
	c-0.2,0.4-0.5,0.7-0.7,1h2v1.1h-3.5c-0.1,0.3-0.2,0.6-0.4,0.9h3.3v6.3h-6.9v-6.3h2.3c0.2-0.3,0.3-0.6,0.4-0.9h-3.2v-1.1h1.9
	c-0.2-0.3-0.5-0.6-0.8-1l1-0.4C122.2,54.2,122.5,54.6,122.8,55.1z M126,58.8V58h-4.6v0.8H126z M126,60.6v-0.9h-4.6v0.9H126z
	 M126,61.5h-4.6v0.9h4.6V61.5z"/>
<path class="st0" d="M133.7,54.3v2.2c0.5-0.3,1-0.7,1.4-1.1c0.3-0.3,0.7-0.8,1-1.5l1.2,0.2c-0.1,0.3-0.3,0.6-0.4,0.9h3.4v0.9
	c-0.7,1-1.4,1.9-2.1,2.5c0.7,0.4,1.7,0.9,2.8,1.3l-0.5,1.1c-1.4-0.6-2.5-1.1-3.2-1.6c-0.9,0.6-2.1,1.2-3.5,1.6l-0.1-0.2v1h-1.4v2.2
	c0.5-0.1,1-0.3,1.5-0.5v1.1c-1.4,0.5-3,1-4.7,1.4l-0.3-1.1c0.2,0,0.4-0.1,0.7-0.1v-5h1v4.8c0.3-0.1,0.5-0.1,0.8-0.2v-5.4h-1.7v-4.2
	h4.1V54.3z M132.7,55.3h-2v2.1h2V55.3z M133.3,59.5c1.3-0.3,2.3-0.8,3.1-1.3c-0.4-0.4-0.8-0.8-1.2-1.4c-0.3,0.2-0.6,0.5-1,0.7
	l-0.5-0.6v1.5h-1.4v1.8h1.3L133.3,59.5z M140.1,65.7H139v-0.5h-3.2v0.5h-1.2v-5h5.6L140.1,65.7L140.1,65.7z M139,64v-2.2h-3.2V64
	H139z M137.3,57.6c0.5-0.4,1-1,1.5-1.7H136c-0.1,0.1-0.1,0.1-0.2,0.2C136.4,56.8,136.9,57.3,137.3,57.6z"/>
<path class="st0" d="M152.9,59.4h-3c0.2,0.5,0.5,1,0.8,1.4c0.6-0.3,1.1-0.7,1.7-1.2l0.8,0.8c-0.5,0.5-1.1,0.9-1.7,1.2
	c0.6,0.5,1.4,0.9,2.4,1.2l-0.7,1.1c-1.4-0.6-2.4-1.3-3.1-2.1c-0.6-0.6-1.1-1.4-1.3-2.3h-1.2v2.8c0.6-0.1,1.3-0.3,1.9-0.6v1.1
	c-1,0.4-2.2,0.7-3.4,0.9c0.3,0.2,0.7,0.3,1.2,0.4c0.6,0.1,1.9,0.2,3.7,0.2c1.4,0,2.4,0,3-0.1l-0.2,1.2c-3.6,0-5.8-0.1-6.6-0.2
	c-0.7-0.1-1.3-0.3-1.7-0.5s-0.8-0.6-1.2-1.2c-0.4,0.6-0.9,1.3-1.5,2l-0.9-0.9c0.7-0.7,1.1-1.3,1.4-1.8c0.2-0.3,0.5-0.9,0.8-1.9h-1.8
	v-1c0.5-0.5,1.1-1.2,1.6-2.1H142v-1.1h3.4v0.9c-0.4,0.7-0.9,1.5-1.6,2.2h1.5v0.8c-0.2,0.8-0.4,1.4-0.5,1.8c0.3,0.4,0.6,0.8,0.9,1
	l-0.1-1c0.3,0,0.5,0,0.8-0.1v-8.2h6.6L152.9,59.4L152.9,59.4L152.9,59.4z M145.1,55.6l-0.9,0.9c-0.3-0.5-0.8-1.1-1.4-1.8l0.8-0.8
	C144.2,54.5,144.7,55,145.1,55.6z M151.8,56.3v-0.9h-4.3v0.9H151.8z M151.8,58.4v-1.1h-4.3v1.1H151.8z"/>
<path class="st0" d="M156.5,62.3c-0.1,1.4-0.2,2.5-0.5,3.4l-1.1-0.3c0.3-1,0.5-2.1,0.6-3.2L156.5,62.3z M158.1,54.2
	c-0.4,1.2-0.9,2.3-1.4,3.2c0.4-0.1,0.7-0.1,1-0.2c0.2-0.5,0.5-1.1,0.7-1.7l1,0.4c-0.8,1.9-1.7,3.5-2.5,4.7c0.6-0.1,1.1-0.1,1.5-0.3
	c-0.1-0.4-0.2-0.7-0.3-1.1L159,59c0.2,0.4,0.3,0.9,0.4,1.4c0.8-1.2,1.3-2.6,1.7-4.1l1,0.2c-0.2,0.7-0.4,1.3-0.6,1.9v7.2h-1v-4.9
	c-0.2,0.3-0.3,0.5-0.5,0.8l-0.5-0.6c0.1,0.2,0.1,0.5,0.2,0.7l-1,0.3c0-0.2-0.1-0.4-0.1-0.6c-0.8,0.2-1.8,0.4-3.2,0.5l-0.3-1.1
	c0.2,0,0.4,0,0.7,0c0.5-0.6,0.9-1.4,1.4-2.4c-0.6,0.1-1.2,0.2-1.9,0.4l-0.2-1.1c0.2,0,0.3,0,0.5,0c0.6-1.1,1.1-2.3,1.5-3.7
	L158.1,54.2z M158.2,65.2l-1,0.1c0-1.3-0.1-2.3-0.3-3l0.9-0.1C158,63,158.1,64,158.2,65.2z M159.9,64.6l-1,0.2
	c-0.2-0.9-0.4-1.8-0.7-2.6l0.9-0.3C159.4,62.7,159.7,63.6,159.9,64.6z M163.8,54.9h3.1v2.3h-0.4v0.6H165l-0.2,1.2h1.7v6.7h-1V65
	h-2.1v0.7h-1V59h1.4l0.2-1.2h-1.8v-1h3.7v-0.9h-5.1v1.5h-1.1v-2.5h3.1c-0.2-0.4-0.4-0.7-0.6-1l1.2-0.1
	C163.4,54.1,163.6,54.5,163.8,54.9z M165.4,61.4v-1.5h-2.1v1.5H165.4z M165.4,64v-1.7h-2.1V64H165.4z"/>
<path class="st0" d="M174.4,61.1c-0.2,0.3-0.5,0.5-1,0.8l-0.4-0.6c0.6-0.3,1-0.7,1.1-1.2h-0.8v-1.6h1.6v1.3
	C174.8,60.3,174.7,60.8,174.4,61.1z"/>
<path class="st0" d="M183.8,57.5v-0.7h1.1v0.7h2.5v0.9h-2.5V59h2.1v3.7h-2.1v0.7h2.1v0.9c0.2-0.4,0.4-0.9,0.5-1.4
	c0.1-0.7,0.2-1.3,0.2-1.7v-3.7c2-0.1,3.4-0.3,4.3-0.6l0.9,1c-1.1,0.3-2.4,0.6-4,0.7v1.2h4.2v1.1h-1.5V66h-1.2v-5.1H189v0.5
	c0,0.7-0.1,1.5-0.3,2.4c-0.2,0.8-0.5,1.6-0.9,2.4l-1-1c0.1-0.2,0.2-0.3,0.3-0.5H185v1.4h-1.1v-1.4h-2.3v-1h2.3V63h-2.1v-4h2.1v-0.6
	h-2.4v-0.9H183.8z M182.8,54v1.5h3.5v-1.8h1.2v1.8h3.6V54h1.2v2.4h-10.6V54H182.8z M183.8,60.4v-0.6h-1.1v0.6H183.8z M183.8,61.1
	h-1.1v0.7h1.1V61.1z M184.8,60.4h1.1v-0.6h-1.1V60.4z M185.9,61.1h-1.1v0.7h1.1V61.1z"/>
<path class="st0" d="M197.9,54.7h2.3v1.1h-1.3l0.6,0.2c-0.2,0.7-0.5,1.3-0.7,1.8h1.4v1h-2.4v1h2.3v1h-2.2c0.9,0.6,1.6,1.3,2.2,1.9
	l-0.8,0.8c-0.4-0.5-0.9-1-1.6-1.5v3.7h-1.1v-3.4c-0.6,0.9-1.2,1.7-2,2.4l-0.7-1c1.1-0.8,1.9-1.7,2.5-2.8h-2.2v-1h2.3v-1H194v-1h1.4
	c-0.1-0.5-0.3-1.1-0.6-1.8l0.7-0.2H194v-1.1h2.3c-0.2-0.3-0.4-0.5-0.5-0.8l1.2-0.1C197.4,54,197.7,54.3,197.9,54.7z M197.7,57.7
	c0.2-0.5,0.4-1.2,0.7-2H196c0.2,0.6,0.5,1.3,0.6,2H197.7z M206,55.3c-1.2,0.3-2.5,0.5-4,0.6V58h4v1.1h-1.3v6.6h-1.2v-6.6H202v1.1
	c0,0.9-0.2,1.9-0.4,2.9c-0.2,0.9-0.7,1.7-1.2,2.5l-0.9-0.9c0.4-0.6,0.8-1.3,1-2s0.3-1.6,0.4-2.5v-5.3c1.8,0,3.3-0.2,4.5-0.8
	L206,55.3z"/>
<path class="st0" d="M212.3,56.2v-2.5h1.3v2.5h4.6v6.1h-4.6v3.3h-1.3v-3.3h-4.5v-6.1H212.3z M212.3,57.4h-3.2v3.8h3.2V57.4z
	 M216.9,57.4h-3.2v3.8h3.2V57.4z"/>
<path class="st0" d="M230.6,59.5h1.2v1.2h-4.2c0.3,0.8,0.7,1.4,1.3,1.9c0.8,0.7,1.8,1.3,3.1,1.8l-0.8,1.3c-1.5-0.7-2.7-1.5-3.4-2.3
	c-0.7-0.7-1.2-1.6-1.5-2.6h-0.2c-0.2,0.8-0.6,1.4-1,2c-0.9,1.3-2.3,2.2-4.4,2.9l-0.7-1.1c2-0.7,3.4-1.6,4.2-2.7
	c0.2-0.3,0.4-0.7,0.6-1.1h-4.6v-1.2h1.2v-4.1h4v-1.7h1.3v1.7h4L230.6,59.5L230.6,59.5z M225.1,59.5c0.2-0.7,0.2-1.5,0.2-2.3v-0.7
	h-2.7v3H225.1z M226.6,57.2c0,0.8-0.1,1.6-0.2,2.3h3v-3h-2.7L226.6,57.2L226.6,57.2z"/>
<path class="st0" d="M238.4,54.8v-1.1h1.3v1.1h5.1v1.1h-5.1v0.9h4.2V62h-4.2v0.9h5.2V64h-5.2v1.7h-1.3V64h-5.2v-1.1h5.2V62h-4.2
	v-5.2h4.2v-0.9h-5.1v-1.1H238.4z M238.4,58.8v-0.9h-3v0.9H238.4z M238.4,59.8h-3v1.1h3V59.8z M239.6,58.8h3.1v-0.9h-3.1V58.8z
	 M242.7,59.8h-3.1v1.1h3.1V59.8z"/>
<path class="st0" d="M249.4,55.8h2v1.1h-5.3v-1.1h2.1c-0.2-0.6-0.4-1.2-0.6-1.7l1.3-0.2C249.1,54.4,249.2,55.1,249.4,55.8z
	 M251,63.7c-1.3,0.4-2.8,0.8-4.6,1.2l-0.4-1.2c1.8-0.3,3.5-0.7,4.9-1.2v1.2H251z M248.4,62.8l-1.1,0.2c-0.2-1.8-0.5-3.5-0.9-5.2
	l1-0.3C247.8,59,248.1,60.8,248.4,62.8z M250.7,57.5c-0.1,1.9-0.3,3.6-0.8,5.3l-1.1-0.3c0.5-1.7,0.8-3.4,0.8-5H250.7z M254.6,53.7
	V56h3.4v1.1h-3.4v2.2h2.8v6.3h-1.2v-0.9h-3.7v0.9h-1.2v-6.3h1.9v-5.6H254.6z M256.3,63.7v-3.2h-3.7v3.2H256.3z"/>
<path class="st0" d="M260.8,54.9c0,0.6-0.1,1.1-0.2,1.7h0.8v-2.8h1.2v2.8h1.2v1.1h2.8v-1.4h-2.4v-1.1h2.4v-1.4h1.2v1.4h2.6v1.1h-2.6
	v1.4h3.1v1.1h-1.3v1.3h1.3v1.1h-1.3v3.1c0,0.5-0.1,0.8-0.3,1c-0.2,0.2-0.5,0.3-1.1,0.3h-1.8l-0.3-1.3c0.7,0.1,1.3,0.1,1.7,0.1
	c0.3,0,0.5-0.1,0.5-0.3v-2.9H264V60h4.3v-1.3h-4.7v-1.1h-1.1v2.5c0.4-0.1,0.9-0.3,1.3-0.5v1.2c-0.4,0.2-0.8,0.3-1.3,0.5v4.3h-1.2
	v-3.9c-0.7,0.2-1.4,0.4-2.1,0.6l-0.3-1.3c0.8-0.1,1.6-0.3,2.4-0.5v-2.9h-1c-0.1,0.7-0.2,1.3-0.4,1.9l-1.2-0.4
	c0.4-1.4,0.7-2.9,0.9-4.5L260.8,54.9z M266.9,63.3l-1.2,0.8c-0.3-0.6-0.8-1.3-1.4-2.1l1-0.6C266,62.2,266.5,62.8,266.9,63.3z"/>
<path class="st0" d="M283.6,55.3H274v8.8h9.6v1.1H274v0.5h-1.2V54.1h10.8L283.6,55.3L283.6,55.3z M278.3,59.9v3.4h-3.8v-3.4H278.3z
	 M277.3,60.9h-1.8v1.4h1.8V60.9z M281.9,56v3.1h-6.2V56H281.9z M280.7,57h-4v1.1h4V57z M283.4,59.9v3.4h-4v-3.4H283.4z M282.4,60.9
	h-2v1.4h2V60.9z"/>
<path class="st0" d="M6.6,88.1v2.3H5v-2.3H0.6V87l4.6-7.1h1.4v6.8h1.5v1.4C8.1,88.1,6.6,88.1,6.6,88.1z M5,82.8l-2.6,3.9H5V82.8z"/>
<path class="st0" d="M9.4,90.6V89H11v1.6H9.4z"/>
<path class="st0" d="M18.8,80.1c-0.1,0.4-0.2,0.7-0.3,1h1.4c-0.2-0.3-0.3-0.7-0.5-1l1.1-0.2c0.2,0.3,0.4,0.7,0.5,1.1h1.4v0.8h-1.6
	v0.8h1.3v0.8h-1.3v0.7h1.4v0.8h-1.4v0.8h1.6v0.9h-5.1v-3.5c-0.2,0.2-0.3,0.5-0.5,0.7l-0.4-1.2c0.3-0.4,0.6-0.8,0.8-1.3
	c0.2-0.4,0.5-1,0.7-1.7L18.8,80.1z M27.3,87.4v0.8c-0.8,0.7-1.9,1.3-3.2,1.9c1.1,0.3,2.5,0.5,4.2,0.7L27.7,92
	c-2-0.3-3.7-0.7-5.2-1.2c-1.6,0.5-3.5,0.9-5.6,1.2l-0.5-1.1c1.8-0.2,3.3-0.4,4.7-0.7c-0.9-0.5-1.7-1-2.4-1.7h-1.4v-1L27.3,87.4
	L27.3,87.4z M19.7,81.9h-1.4v0.8h1.4V81.9z M19.7,83.5h-1.4v0.7h1.4V83.5z M19.7,85h-1.4v0.8h1.4V85z M22.7,89.6
	c1-0.4,1.9-0.8,2.7-1.3h-5.1C21,88.9,21.8,89.3,22.7,89.6z M24.4,80.2c-0.1,0.3-0.2,0.7-0.3,0.9h1.5c-0.2-0.3-0.4-0.6-0.6-0.9l1-0.4
	c0.3,0.4,0.5,0.8,0.7,1.3h1.5v0.8h-1.6v0.7H28v0.8h-1.4v0.8H28V85h-1.4v0.8h1.6v0.9H23v-3.5c-0.1,0.2-0.3,0.4-0.4,0.6l-0.4-1.2
	c0.3-0.4,0.5-0.8,0.7-1.2c0.2-0.4,0.4-0.9,0.6-1.6L24.4,80.2z M25.5,81.9H24v0.7h1.5V81.9z M25.5,83.4H24v0.8h1.5V83.4z M25.5,85H24
	v0.8h1.5V85z"/>
<path class="st0" d="M39.9,80.5v1.1c-0.7,0.8-2,1.7-3.7,2.9v0.9h4.9v1.2h-4.9v4c0,0.4-0.1,0.6-0.3,0.9c-0.2,0.2-0.5,0.4-0.9,0.4
	h-2.4l-0.1-1.3c0.8,0.1,1.5,0.1,2,0.1c0.2,0,0.4-0.1,0.4-0.4v-3.6h-5.3v-1.2h5.3v-1.6c1.3-0.7,2.4-1.4,3.4-2.1h-7.4v-1.2L39.9,80.5
	L39.9,80.5z"/>
<path class="st0" d="M53.3,80.2V85h-4v1.2h4.4v1.1h-4.4v1h4v1.1h-4v1.2h5v1.1H42.7v-1.1H48v-1.2h-3.8v-1.1H48v-1h-3.2
	c-0.3,0.4-0.8,0.9-1.5,1.4l-1-0.9c0.6-0.5,1.2-0.9,1.5-1.4c0.3-0.4,0.6-0.9,0.9-1.5h-1.1v-4.8L53.3,80.2L53.3,80.2z M52,82.2v-0.9
	h-7.2v0.9H52z M52,83.1h-7.2V84H52V83.1z M48,85.1h-2.9l0.8,0.3c-0.2,0.4-0.3,0.7-0.5,0.9H48V85.1z"/>
<path class="st0" d="M60.2,83.3c0.1-0.7,0.1-1.5,0.1-2.3v-0.9h1.3V81c0,0.8-0.1,1.6-0.1,2.3h5.4v1.3H63c0.3,1.3,0.7,2.4,1.2,3.2
	c0.7,1.1,1.7,2,2.9,2.7l-0.8,1.3c-1.4-1-2.5-2.1-3.2-3.3c-0.7-1.1-1.2-2.4-1.4-3.9h-0.3c-0.2,0.9-0.4,1.7-0.8,2.4
	c-0.7,1.6-2,3.2-4,4.8l-1.1-1c1.9-1.3,3.2-2.7,3.9-4.2c0.3-0.5,0.5-1.2,0.7-2h-4.4v-1.3H60.2z"/>
<path class="st0" d="M70.1,82.4v-2.5h1v2.5h1v1.1h-1v0.4c0.4,0.5,0.9,1.1,1.4,1.8l-0.6,0.9c-0.3-0.6-0.5-1-0.8-1.4v6.7h-1v-6.2
	c-0.3,1-0.7,1.8-1.2,2.5l-0.5-1.3c0.6-1,1.2-2.2,1.6-3.5h-1.4v-1.1L70.1,82.4L70.1,82.4z M75.6,80.5v-0.6h1.1v0.6h2.7V82h0.9v0.9
	h-0.9v1.5h-2.7v0.5h3v2.3h-3.1c-0.1,0.2-0.3,0.4-0.4,0.6h4.2v1h-1.7c-0.3,0.5-0.7,0.9-1,1.3c0.8,0.3,1.7,0.6,2.5,0.9l-0.7,0.9
	c-0.9-0.4-1.8-0.8-2.9-1.1c-1.1,0.6-2.6,0.9-4.4,1l-0.6-0.9c1.7,0,2.9-0.2,3.7-0.4c-0.8-0.2-1.5-0.4-2.3-0.6c0.3-0.3,0.6-0.7,1-1.1
	h-2.2v-1h3c0.1-0.2,0.3-0.4,0.4-0.6h-2.4V85h2.8v-0.5h-2.7V83h-0.7v-1h0.7v-1.5H75.6z M75.6,85.8h-1.8v0.7h1.8V85.8z M75.6,82v-0.6
	H74V82H75.6z M75.6,82.9H74v0.7h1.6V82.9z M77.5,88.8h-2.1c-0.2,0.2-0.3,0.4-0.5,0.6c0.5,0.1,1.1,0.2,1.6,0.4
	C76.9,89.4,77.2,89.1,77.5,88.8z M76.7,82h1.7v-0.6h-1.7V82z M78.4,82.9h-1.7v0.7h1.7V82.9z M78.6,85.8h-1.9v0.7h1.9V85.8z"/>
<path class="st0" d="M87.8,87.3c-0.2,0.3-0.5,0.5-1,0.8l-0.4-0.6c0.6-0.3,1-0.7,1.1-1.2h-0.8v-1.6h1.6V86C88.2,86.5,88,87,87.8,87.3
	z"/>
<path class="st0" d="M97.3,83.1V84c-0.3,0.7-0.8,1.5-1.3,2.2h1.4v0.7c-0.2,1-0.4,1.7-0.6,2.2c0.5,0.5,0.9,0.8,1.3,1
	c0.3,0.1,0.7,0.2,1.3,0.3c0.7,0.1,1.9,0.1,3.9,0.2c1.4,0,2.4,0,3.1-0.1l-0.1,1.2c-3.7,0-5.9-0.1-6.7-0.1c-0.7-0.1-1.3-0.2-1.8-0.4
	c-0.4-0.2-0.8-0.5-1.3-1c-0.3,0.6-0.7,1.2-1.2,1.9l-0.8-0.9c0.6-0.7,1-1.3,1.2-1.8c0.2-0.3,0.4-1,0.7-2h-1.6v-1
	c0.4-0.5,0.9-1.2,1.4-2.1h-1.6v-1h2.7V83.1z M97.3,81.9l-0.8,0.8c-0.4-0.6-0.9-1.2-1.5-1.9l0.8-0.7C96.3,80.7,96.8,81.3,97.3,81.9z
	 M101.1,80.9v-1h1.1v1h3.5v1h-3.5v0.7h3v4.6h-3V88h3.5v1h-3.5v1.3h-1.1V89h-3.5v-1h3.5v-0.8h-2.8v-4.6h2.8v-0.7h-3.2v-1H101.1z
	 M101.1,84.4v-0.9h-1.7v0.9H101.1z M101.1,85.3h-1.7v1h1.7V85.3z M102.2,84.4h1.8v-0.9h-1.8V84.4z M104.1,85.3h-1.8v1h1.8V85.3z"/>
<path class="st0" d="M108.8,88.7c-0.1,1.2-0.2,2.3-0.5,3.2l-1.1-0.4c0.3-0.9,0.5-1.9,0.6-2.9L108.8,88.7z M110.7,80.3
	c-0.4,1.2-0.9,2.2-1.4,3.1c0.4,0,0.8-0.1,1.2-0.1c0.3-0.5,0.6-1.1,0.8-1.8l1.1,0.4c-1,2.1-2,3.8-3,5.1c0.7-0.1,1.3-0.2,1.8-0.3
	c-0.1-0.5-0.2-0.9-0.4-1.3l0.9-0.3c0.3,0.8,0.6,1.8,0.8,2.8l-1,0.3c0-0.2-0.1-0.3-0.1-0.5c-0.9,0.2-2.1,0.4-3.7,0.5l-0.3-1.1
	c0.3,0,0.5,0,0.8,0c0.6-0.7,1.1-1.6,1.7-2.7c-0.7,0.1-1.5,0.2-2.4,0.4l-0.2-1.1c0.2,0,0.5,0,0.8-0.1c0.6-1.1,1.1-2.2,1.6-3.5
	L110.7,80.3z M110.6,91.3l-1.1,0.1c0-1.1-0.1-2-0.2-2.7l0.9-0.1C110.4,89.2,110.5,90.1,110.6,91.3z M112.4,90.7l-1,0.4
	c-0.2-0.9-0.4-1.7-0.6-2.6l0.9-0.2C112,89.1,112.3,89.9,112.4,90.7z M115.3,81.5v-1.6h1.2v1.6h2.7v1.1h-2.7v1.7h2.3v1.1h-5.9v-1.1
	h2.4v-1.7h-2.8v-1.1H115.3z M118.8,91.9h-1.1v-0.6h-3.5v0.6h-1.1v-5.3h5.7V91.9z M117.7,90.2v-2.5h-3.5v2.5H117.7z"/>
<path class="st0" d="M132.1,80.5v1.2h-5c-0.1,0.6-0.3,1.2-0.5,1.7h4.6V92H130v-0.9h-7.4V92h-1.2v-8.6h3.8c0.2-0.6,0.4-1.1,0.5-1.7
	h-5.2v-1.2H132.1z M130.1,86.5v-2.1h-7.4v2.1H130.1z M130.1,89.9v-2.3h-7.4v2.3H130.1z"/>
<path class="st0" d="M137.7,80.4c-0.5,0.6-0.9,1-1.4,1.3V84h-1.2v-1.5c-0.4,0.2-0.8,0.4-1.2,0.6l-0.6-1.1c0.7-0.2,1.3-0.6,1.9-1
	c0.5-0.3,0.9-0.8,1.4-1.3L137.7,80.4z M138.2,90.8c-0.7,0.3-1.3,0.5-1.9,0.6c-0.6,0.2-1.4,0.3-2.4,0.5l-0.6-1.1
	c0.9-0.1,1.8-0.2,2.5-0.4c0.7-0.1,1.2-0.3,1.8-0.5L138.2,90.8z M143.6,84.3v5.5H135v-5.5H143.6z M142.5,85.9v-0.7h-6.3v0.7H142.5z
	 M142.5,87.4v-0.7h-6.3v0.7H142.5z M142.5,88.2h-6.3v0.7h6.3V88.2z M144.6,81c-1.4,0.5-3.1,0.8-5,1.2v0.3c0,0.2,0.1,0.4,0.5,0.4h3.3
	c0.2,0,0.4,0,0.5-0.1s0.2-0.4,0.3-1l1.2,0.4c-0.1,0.9-0.3,1.4-0.6,1.5c-0.2,0.2-0.6,0.2-1.2,0.2h-3.9c-0.4,0-0.7-0.1-0.9-0.3
	c-0.2-0.2-0.3-0.5-0.3-0.8V80h1.2v1.1c1.7-0.3,3.2-0.6,4.4-1L144.6,81z M145.2,90.8l-0.5,1.1c-1.4-0.5-3-0.8-4.5-1l0.5-1
	C142.2,90.1,143.7,90.4,145.2,90.8z"/>
<path class="st0" d="M153,80.9h5.1V82h-11.5v-1.1h5.1c-0.2-0.2-0.4-0.5-0.6-0.7l1.3-0.2C152.6,80.2,152.8,80.5,153,80.9z
	 M150.7,83.6h3.1c0.3-0.5,0.6-1,0.8-1.6l1.2,0.4c-0.2,0.4-0.5,0.8-0.8,1.2h2.6v6.9c0,0.4-0.1,0.7-0.3,0.9c-0.2,0.2-0.4,0.3-0.7,0.3
	h-1.1l-0.3-1.1l0.9,0.1c0.2,0,0.4-0.2,0.4-0.5v-3.4h-2.1c-0.4,0-0.7-0.1-0.9-0.2s-0.3-0.4-0.3-0.7v-1.3h-1.4
	c-0.1,0.6-0.2,1.1-0.5,1.5s-0.9,0.8-1.9,1.2l-0.8-0.9c0.8-0.2,1.3-0.5,1.6-0.8c0.3-0.2,0.4-0.6,0.5-1.1h-2.2v7.3h-1.2v-8.3h2.4
	c-0.2-0.4-0.4-0.8-0.7-1.2l1.1-0.4C150.2,82.5,150.5,83,150.7,83.6z M155.1,87.3v3.1h-5.5v-3.1H155.1z M154,88.3h-3.3v1.1h3.3V88.3z
	 M154.1,85.6c0,0.2,0.1,0.3,0.5,0.3h1.8v-1.3h-2.3V85.6z"/>
<path class="st0" d="M170.9,91.8h-1.1v-0.4h-8.9v0.4h-1.1V80.3H171v11.5H170.9z M168.5,86c0.3,0.3,0.7,0.5,1.3,0.8v-5.5h-8.9v5.4
	c0.8-0.4,1.4-0.9,1.9-1.4h-1.5v-0.9h2.4c0.1-0.2,0.2-0.4,0.4-0.6h-2.3V83h1.1c-0.2-0.4-0.5-0.8-0.8-1.2l1-0.2
	c0.3,0.4,0.5,0.8,0.8,1.3h0.7c0.2-0.5,0.4-1,0.5-1.6l1,0.1c-0.2,0.5-0.3,1-0.5,1.5h1.2c0.3-0.4,0.6-0.8,0.8-1.3l1,0.3
	c-0.2,0.4-0.5,0.7-0.7,1h1.2v0.9h-3.8c-0.1,0.2-0.2,0.4-0.3,0.6h4.6v0.9H168C168,85.6,168.3,85.8,168.5,86z M169.8,90.3v-3.2
	l-0.5,0.6c-0.7-0.4-1.3-0.9-1.8-1.3c-0.1-0.1-0.1-0.1-0.1-0.1v1.2c0,0.3-0.1,0.5-0.3,0.7s-0.4,0.2-0.7,0.2H165l-0.2-0.9l1.1,0.1
	c0.2,0,0.4-0.1,0.4-0.4v-0.4h-2.5v1.6c0,0.2,0.1,0.3,0.2,0.4c0.1,0.1,0.2,0.1,0.4,0.1h2.7c0.2,0,0.4,0,0.5-0.1s0.3-0.4,0.4-1.1
	l1,0.4c-0.2,0.9-0.3,1.4-0.5,1.5c-0.3,0.2-0.7,0.2-1.1,0.2H164c-0.4,0-0.7-0.1-0.9-0.3c-0.3-0.3-0.4-0.6-0.4-1v-2
	c-0.5,0.4-0.9,0.7-1.5,1l-0.4-0.8v3.4h9L169.8,90.3L169.8,90.3z M167.1,86c-0.2-0.2-0.3-0.4-0.5-0.6h-2.5c-0.2,0.2-0.4,0.4-0.6,0.6
	H167.1z"/>
<path class="st0" d="M178.8,87.3c-0.2,0.3-0.5,0.5-1,0.8l-0.4-0.6c0.6-0.3,1-0.7,1.1-1.2h-0.8v-1.6h1.6V86
	C179.2,86.5,179,87,178.8,87.3z"/>
<path class="st0" d="M189.6,80.3v1.2h-1.2v9c0,0.4-0.1,0.8-0.3,0.9c-0.2,0.2-0.5,0.3-1.1,0.3h-1.3l-0.3-1.2c0.5,0.1,0.9,0.1,1.2,0.1
	s0.5-0.1,0.5-0.3v-8.8h-1.8v-1.2H189.6z M197.3,80.3v1.1H194c-0.1,0.3-0.2,0.7-0.3,1h3.1v7.3H195c0.8,0.4,1.6,0.8,2.3,1.2l-0.7,1.1
	c-0.9-0.7-1.7-1.2-2.6-1.6l0.5-0.7h-2l0.6,0.5c-0.8,0.6-1.7,1.2-2.8,1.8l-0.8-1c0.9-0.3,1.7-0.8,2.5-1.3h-1.7v-7.3h2.4
	c0.1-0.3,0.2-0.6,0.3-1h-3v-1.1H197.3z M195.6,84.6v-1.2h-4.3v1.2H195.6z M195.6,86.6v-1.1h-4.3v1.1H195.6z M195.6,87.6h-4.3v1.1
	h4.3V87.6z"/>
<path class="st0" d="M199.9,88.5c-0.1,1.3-0.3,2.4-0.6,3.3l-1.1-0.4c0.4-0.9,0.6-2,0.7-3L199.9,88.5z M201.7,80.2
	c-0.4,1.2-0.9,2.3-1.4,3.2c0.4-0.1,0.8-0.1,1.2-0.2c0.3-0.5,0.5-1.1,0.8-1.8l1.1,0.4c-1,2-1.9,3.7-2.9,5c0.7-0.1,1.3-0.2,1.8-0.3
	c-0.1-0.4-0.3-0.9-0.4-1.3l0.9-0.3c0.4,0.8,0.7,1.8,1,2.9l-1,0.2c-0.1-0.2-0.1-0.4-0.2-0.6c-0.9,0.2-2.1,0.4-3.7,0.6l-0.3-1.1
	c0.3,0,0.5,0,0.7,0c0.6-0.7,1.1-1.6,1.7-2.7c-0.7,0.2-1.4,0.3-2.3,0.4l-0.3-1.1c0.2,0,0.4,0,0.6-0.1c0.6-1.1,1.1-2.3,1.6-3.7
	L201.7,80.2z M201.7,91.3l-1.1,0.1c0-1.2-0.1-2.1-0.2-2.7l0.9-0.1C201.5,89.2,201.6,90.1,201.7,91.3z M203.3,89.9
	c0.3-0.9,0.6-1.8,0.8-2.7c0.2-1.1,0.3-2.9,0.3-5.3v-0.5h-1.2v-1.1h6.1c-0.3,1.4-0.6,2.5-0.8,3.4h1.6c-0.4,2.3-0.9,4-1.5,5.2
	c0.5,0.6,1.2,1.2,1.9,1.7l-0.7,1.1c-0.8-0.6-1.4-1.2-2-1.8c-0.7,0.8-1.6,1.4-2.6,1.8l-0.8-1.1c1.2-0.5,2.1-1,2.7-1.7
	c-0.1-0.1-0.2-0.2-0.2-0.4c-0.5-0.8-0.9-1.9-1.4-3.2c-0.1,0.7-0.1,1.4-0.2,2c-0.3,1.5-0.7,3-1.4,4.5l-1-0.8c0.1-0.3,0.3-0.5,0.4-0.8
	l-0.7,0.3c-0.1-0.7-0.3-1.5-0.5-2.2l0.9-0.2C203,88.8,203.2,89.4,203.3,89.9z M207.6,87.9C207.6,88,207.6,88,207.6,87.9
	c0.4-0.7,0.7-1.8,1-3.1H207c0.3-0.8,0.6-1.9,0.9-3.4h-2.4v0.5c0,0.4,0,0.7,0,1C206.3,85.4,207,87.1,207.6,87.9z"/>
<path class="st0" d="M218.5,90.7c-0.7,0.6-1.5,0.9-2.5,0.9c-1.6,0-2.7-0.5-3.5-1.7c-0.7-0.9-1-2.2-1-3.7s0.3-2.7,1-3.7
	c0.8-1.1,2-1.7,3.5-1.7c1,0,1.9,0.3,2.5,0.8c0.7,0.6,1,1.4,1.1,2.5H218c-0.2-1.2-0.8-1.8-2-1.8c-1,0-1.7,0.4-2.2,1.3
	c-0.4,0.7-0.6,1.6-0.6,2.7s0.2,2,0.6,2.7c0.5,0.8,1.2,1.3,2.2,1.3c0.5,0,1-0.2,1.4-0.5s0.6-0.8,0.7-1.4h1.6
	C219.6,89.3,219.2,90.1,218.5,90.7z"/>
<path class="st0" d="M227.4,90.6c-0.6,0.5-1.4,0.8-2.4,0.8h-3.8V81h3.6c0.9,0,1.6,0.3,2.3,0.8c0.6,0.5,1,1.2,1,2.1
	c0,0.8-0.4,1.5-1.1,2.1c1,0.5,1.5,1.4,1.5,2.5C228.4,89.4,228,90.1,227.4,90.6z M224.5,82.5h-1.8v2.8h1.8c0.5,0,0.9-0.1,1.3-0.3
	c0.4-0.2,0.5-0.6,0.5-1.1C226.3,82.9,225.7,82.5,224.5,82.5z M225.9,87c-0.4-0.2-1-0.2-1.8-0.2h-1.3V90h1.9c1.4,0,2.2-0.5,2.2-1.6
	C226.7,87.7,226.5,87.2,225.9,87z"/>
<path class="st0" d="M232.8,91.4H230V81h2.8c1.7,0,3.1,0.4,4,1.3c1,0.9,1.5,2.2,1.5,3.9C238.3,89.7,236.4,91.4,232.8,91.4z
	 M232.6,82.4h-1.1v7.5h1.7c1.2,0,2-0.3,2.6-1c0.5-0.6,0.8-1.5,0.8-2.7C236.7,83.7,235.3,82.4,232.6,82.4z"/>
<path class="st0" d="M246.1,80.9h5.1V82h-11.5v-1.1h5.1c-0.2-0.2-0.4-0.5-0.6-0.7l1.3-0.2C245.7,80.2,245.9,80.5,246.1,80.9z
	 M243.8,83.6h3.1c0.3-0.5,0.6-1,0.8-1.6l1.2,0.4c-0.2,0.4-0.5,0.8-0.8,1.2h2.6v6.9c0,0.4-0.1,0.7-0.3,0.9c-0.2,0.2-0.4,0.3-0.7,0.3
	h-1.1l-0.3-1.1l0.9,0.1c0.2,0,0.4-0.2,0.4-0.5v-3.4h-2.1c-0.4,0-0.7-0.1-0.9-0.2s-0.3-0.4-0.3-0.7v-1.3h-1.4
	c-0.1,0.6-0.2,1.1-0.5,1.5s-0.9,0.8-1.9,1.2l-0.8-0.9c0.8-0.2,1.3-0.5,1.6-0.8c0.3-0.2,0.4-0.6,0.5-1.1h-2.2v7.3h-1.2v-8.3h2.4
	c-0.2-0.4-0.4-0.8-0.7-1.2l1.1-0.4C243.3,82.5,243.5,83,243.8,83.6z M248.2,87.3v3.1h-5.5v-3.1H248.2z M247.1,88.3h-3.3v1.1h3.3
	V88.3z M247.2,85.6c0,0.2,0.1,0.3,0.5,0.3h1.8v-1.3h-2.3V85.6z"/>
<path class="st0" d="M263.9,91.8h-1.1v-0.4h-8.9v0.4h-1.1V80.3H264v11.5H263.9z M261.6,86c0.3,0.3,0.7,0.5,1.3,0.8v-5.5H254v5.4
	c0.8-0.4,1.4-0.9,1.9-1.4h-1.5v-0.9h2.4c0.1-0.2,0.2-0.4,0.4-0.6h-2.3V83h1.1c-0.2-0.4-0.5-0.8-0.8-1.2l1-0.2
	c0.3,0.4,0.5,0.8,0.8,1.3h0.7c0.2-0.5,0.4-1,0.5-1.6l1,0.1c-0.2,0.5-0.3,1-0.5,1.5h1.2c0.3-0.4,0.6-0.8,0.8-1.3l1,0.3
	c-0.2,0.4-0.5,0.7-0.7,1h1.2v0.9h-3.8c-0.1,0.2-0.2,0.4-0.3,0.6h4.6v0.9h-1.6C261.1,85.6,261.3,85.8,261.6,86z M262.8,90.3v-3.2
	l-0.5,0.6c-0.7-0.4-1.3-0.9-1.8-1.3c-0.1-0.1-0.1-0.1-0.1-0.1v1.2c0,0.3-0.1,0.5-0.3,0.7c-0.2,0.2-0.4,0.2-0.7,0.2h-1.3l-0.2-0.9
	l1.1,0.1c0.2,0,0.4-0.1,0.4-0.4v-0.4h-2.5v1.6c0,0.2,0.1,0.3,0.2,0.4s0.2,0.1,0.4,0.1h2.7c0.2,0,0.4,0,0.5-0.1s0.3-0.4,0.4-1.1
	l1,0.4c-0.2,0.9-0.3,1.4-0.5,1.5c-0.3,0.2-0.7,0.2-1.1,0.2H257c-0.4,0-0.7-0.1-0.9-0.3c-0.3-0.3-0.4-0.6-0.4-1v-2
	c-0.5,0.4-0.9,0.7-1.5,1l-0.4-0.8v3.4h9L262.8,90.3L262.8,90.3z M260.2,86c-0.2-0.2-0.3-0.4-0.5-0.6h-2.5c-0.2,0.2-0.4,0.4-0.6,0.6
	H260.2z"/>
<path class="st0" d="M6.9,115.7c-0.6,0.7-1.5,1.1-2.5,1.1c-2.2,0-3.4-1-3.5-3.1h1.6c0.1,1.1,0.7,1.7,1.8,1.7c0.6,0,1.1-0.2,1.5-0.7
	c0.3-0.4,0.5-0.9,0.5-1.6c0-0.6-0.2-1.1-0.5-1.5C5.4,111.2,5,111,4.4,111c-0.9,0-1.5,0.5-1.8,1.5H1.1l0.3-6.3h6v1.4H2.8L2.7,110
	c0.5-0.4,1.1-0.5,1.8-0.5c1,0,1.8,0.4,2.4,1.1c0.6,0.7,0.8,1.5,0.8,2.5C7.8,114.2,7.5,115,6.9,115.7z"/>
<path class="st0" d="M9.4,116.8v-1.6H11v1.6H9.4z"/>
<path class="st0" d="M21.8,106.5c-0.8,1.6-1.7,2.9-2.6,3.9c0.3,0,0.5,0,0.6,0c1.9,0,3.9-0.2,5.8-0.5c-0.5-0.7-1-1.3-1.6-2l0.9-0.9
	c1.2,1.4,2.2,2.7,3.1,4.1l-1,1c-0.2-0.4-0.4-0.7-0.7-1.1c-2.6,0.4-5.7,0.6-9.4,0.6l-0.2-1.4c0.4,0.1,0.8,0.1,1.2,0.1
	c0.8-1,1.7-2.4,2.6-4.3L21.8,106.5z M27.1,118.1h-1.3v-0.8H19v0.8h-1.3v-5.5h9.5v5.5H27.1z M25.9,116.2v-2.5H19v2.5H25.9z"/>
<path class="st0" d="M32.4,106.2c0.5,0.7,1,1.4,1.4,2.1l-0.8,0.8c-0.4-0.8-0.7-1.4-1-1.8c-0.4,0.7-0.9,1.3-1.4,1.9h2.6v1h-0.9v1.1
	h1.3v1h-1.3v3.7c0.4-0.1,0.8-0.2,1.2-0.4v1.1c-1.2,0.4-2.5,0.7-3.9,1l-0.2-1.1c0.6,0,1.2-0.1,1.8-0.3v-3.9h-1.6v-1h1.6v-1.1h-1v-0.6
	c-0.1,0.2-0.3,0.3-0.4,0.5l-0.4-1.2c0.7-0.8,1.3-1.7,1.9-2.8H32H32.4z M30.9,115.7l-0.9,0.2c-0.1-0.9-0.2-1.7-0.3-2.5l0.8-0.2
	C30.7,113.9,30.8,114.7,30.9,115.7z M33.5,113.2c0,0.8-0.1,1.6-0.2,2.3l-0.8-0.2c0.1-0.7,0.2-1.4,0.2-2.1H33.5z M35.3,107.2v-0.9h1
	v0.9h1.5v0.9h-1.5v0.8H38c0-0.8,0-1.7,0-2.7h1c0,1,0,1.9,0,2.7h2.2v1H39c0,1.6,0.1,2.8,0.1,3.8c0.4-0.9,0.7-2.1,0.9-3.4l1,0.2
	c-0.4,1.7-0.8,3.1-1.2,4c-0.1,0.4-0.3,0.7-0.5,1v0.1c0.2,0.8,0.4,1.2,0.6,1.2c0.2,0,0.4-0.6,0.6-1.7l0.8,0.7c-0.2,1.1-0.5,1.8-0.7,2
	s-0.4,0.4-0.7,0.4s-0.6-0.2-0.8-0.5s-0.4-0.6-0.5-1c-0.4,0.5-0.8,1-1.2,1.6l-0.7-0.8c0.1-0.2,0.3-0.3,0.4-0.5c-1,0.2-2,0.5-3.3,0.7
	l-0.2-1c0.5-0.1,0.9-0.1,1.4-0.2v-1h-1v-0.8h1.2V114h-1.3v-0.8h3.7v0.8h-1.4v0.7h1.3v0.8h-1.3v0.8c0.5-0.1,0.9-0.2,1.4-0.3v0.6
	c0.3-0.4,0.6-0.8,0.8-1.2c-0.2-1.1-0.3-2.9-0.3-5.4h-4.4v-1h1.7v-0.8H34v-0.9h1.3V107.2z M37.6,110.3v2.1h-3.7v-2.1H37.6z M36.7,111
	h-1.8v0.7h1.8V111z M41.1,108l-0.9,0.6c-0.2-0.5-0.6-1-1-1.6l0.8-0.5C40.5,107.1,40.9,107.6,41.1,108z"/>
<path class="st0" d="M46.7,107.8c0.2-0.5,0.5-1.1,0.7-1.7l1.3,0.1c-0.2,0.6-0.4,1.1-0.6,1.6h6.1v1.2h-6.7c-0.3,0.5-0.6,0.9-0.9,1.4
	c-0.3,0.5-0.7,0.9-1.1,1.4v6.3h-1.3V113c-0.3,0.3-0.6,0.5-0.9,0.7l-0.8-1c1.2-0.9,2.2-1.9,3.1-3c0.2-0.2,0.3-0.4,0.5-0.6h-3.5v-1.2
	L46.7,107.8L46.7,107.8z M49.5,112.2v-2.6h1.3v2.6h2.9v1.1h-2.9v3.2h3.4v1.2h-8.3v-1.2h3.7v-3.2h-3.1v-1.1H49.5z"/>
<path class="st0" d="M61.4,106.3v3.8h5.1v1.2h-5.1v5.3h5.8v1.2H55.5v-1.2h4.6v-10.3H61.4z"/>
<path class="st0" d="M75.2,113.9c-0.3-0.4-0.7-0.9-1.2-1.5c-0.3-0.4-0.8-0.8-1.5-1.3l0.8-0.7c0.4,0.3,0.9,0.7,1.5,1.3
	c0.4,0.4,0.8,0.9,1.2,1.5L75.2,113.9z"/>
<path class="st0" d="M82.9,108.5v-2.4h1.2v2.4h1.3v1.1h-1.3v2.4c0.4-0.2,0.7-0.5,1.1-0.7v1.2c-0.4,0.3-0.7,0.5-1.1,0.7v3.5
	c0,0.5-0.1,0.8-0.3,1c-0.2,0.2-0.5,0.3-1,0.3h-0.9l-0.3-1.3c0.3,0.1,0.6,0.1,0.9,0.1s0.5-0.1,0.5-0.3v-2.7c-0.5,0.2-0.9,0.4-1.4,0.5
	l-0.2-1.3c0.5-0.1,1-0.2,1.5-0.5v-3h-1.5v-1.1h1.5C82.9,108.4,82.9,108.5,82.9,108.5z M88.2,107v-0.9h1.2v0.9H93v1h-3.7v0.8h3v1.8
	h0.8v1h-0.8v1.8h-3v1.1h3.1v1h-3.1v1.1c0.5,0.1,1,0.1,1.7,0.1c0.9,0,1.6,0,2.2-0.1l-0.4,1.2c-2.9,0-4.6-0.1-5.1-0.3s-1-0.5-1.4-1.1
	v0.1c-0.2,0.5-0.6,1-1.1,1.7l-0.9-0.8c0.4-0.5,0.8-1,1-1.5s0.5-1.1,0.6-1.9l1,0.4c-0.1,0.4-0.2,0.7-0.3,1c0.4,0.5,0.8,0.8,1.4,1v-3
	h-2.4v-1H88v-0.9h-2.8v-1H88v-0.9h-2.4v-1H88V108h-3v-1H88.2z M89.4,110.6h1.9v-0.9h-1.9V110.6z M89.4,112.5h1.9v-0.9h-1.9V112.5z"
	/>
<path class="st0" d="M97.7,109.3v0.9c-0.4,0.7-0.9,1.5-1.6,2.2h1.5v0.7c-0.2,0.9-0.4,1.5-0.6,2c0.5,0.6,0.9,0.9,1.2,1.1
	c0.3,0.2,0.7,0.3,1.2,0.4c0.6,0.1,1.9,0.2,3.7,0.2c1.4,0,2.4,0,3-0.1l-0.2,1.2c-3.6,0-5.8-0.1-6.6-0.1c-0.7-0.1-1.3-0.3-1.7-0.5
	s-0.8-0.5-1.3-1.1c-0.4,0.6-0.8,1.2-1.4,1.9l-0.9-0.9c0.7-0.7,1.1-1.3,1.4-1.8c0.2-0.3,0.5-0.9,0.8-1.9h-1.7v-1
	c0.5-0.5,1.1-1.2,1.6-2.1h-2v-1L97.7,109.3L97.7,109.3z M97.3,108.1l-0.8,0.8c-0.3-0.6-0.8-1.2-1.4-1.9l0.8-0.7
	C96.4,106.9,96.9,107.5,97.3,108.1z M105.9,108.8h-0.6v0.5h-2.8v0.6h3.1v4h-3.1v0.7h3.5v1h-3.5v1h-1.1v-1h-3.2v-1h3.2v-0.7h-2.9v-4
	h2.9v-0.6h-2.6v-0.5H98v-2.2h7.9V108.8z M101.4,108.4v-0.8h-2.3v0.8H101.4z M101.4,111.4v-0.7h-1.8v0.7H101.4z M101.4,112.2h-1.8
	v0.8h1.8V112.2z M102.5,108.4h2.3v-0.8h-2.3V108.4z M102.5,111.4h2v-0.7h-2V111.4z M104.6,112.2h-2v0.8h2V112.2z"/>
<path class="st0" d="M111.7,107.8c0.2-0.5,0.5-1.1,0.7-1.7l1.3,0.1c-0.2,0.6-0.4,1.1-0.6,1.6h6.1v1.2h-6.7c-0.3,0.5-0.6,0.9-0.9,1.4
	s-0.7,0.9-1.1,1.4v6.3h-1.3V113c-0.3,0.3-0.6,0.5-0.9,0.7l-0.8-1c1.2-0.9,2.2-1.9,3.1-3c0.2-0.2,0.3-0.4,0.5-0.6h-3.5v-1.2
	L111.7,107.8L111.7,107.8z M114.5,112.2v-2.6h1.3v2.6h2.9v1.1h-2.9v3.2h3.4v1.2h-8.3v-1.2h3.7v-3.2h-3.1v-1.1H114.5z"/>
<path class="st0" d="M132.2,106.8v1.2h-5.9v2.1c1.5,0.9,3,1.8,4.6,2.9l-0.8,1.2c-1.5-1.2-2.8-2.1-3.8-2.7v6.5H125v-10h-4.5v-1.2
	H132.2z"/>
<path class="st0" d="M140.2,113.9c-0.3-0.4-0.7-0.9-1.2-1.5c-0.3-0.4-0.8-0.8-1.5-1.3l0.8-0.7c0.4,0.3,0.9,0.7,1.5,1.3
	c0.4,0.4,0.8,0.9,1.2,1.5L140.2,113.9z"/>
<path class="st0" d="M150.7,107.2c-0.5,1.3-0.9,2.3-1.2,2.8c-0.3,0.6-0.9,1.4-1.7,2.3l-1.1-0.9c0.7-0.7,1.3-1.4,1.7-2.1
	c0.4-0.7,0.7-1.6,1-2.5L150.7,107.2z M152.6,110.7c-0.8,2.2-1.7,4-2.5,5.4c1.9-0.1,3.6-0.2,5.1-0.3c-0.4-0.9-0.8-1.7-1.3-2.6
	l1.3-0.4c0.9,1.5,1.7,3.1,2.4,5l-1.4,0.4c-0.2-0.5-0.3-0.9-0.5-1.3c-1.7,0.2-4.5,0.4-8.4,0.6l-0.2-1.3c0.5,0,1,0,1.5,0
	c0.9-1.4,1.7-3.4,2.7-5.9L152.6,110.7z M155.4,106.4c0.5,1.6,1.5,3.1,3,4.5l-0.9,1.2c-0.8-0.7-1.4-1.4-1.8-2.1
	c-0.5-0.8-1-1.6-1.3-2.5h-2.6v-1.1L155.4,106.4L155.4,106.4z"/>
<path class="st0" d="M164.7,107.2v-1.1h1.3v1.1h5.1v1.1H166v0.9h4.2v5.2H166v0.9h5.2v1.1H166v1.7h-1.3v-1.7h-5.2v-1.1h5.2v-0.9h-4.2
	v-5.2h4.2v-0.9h-5.1v-1.1H164.7z M164.7,111.2v-0.9h-3v0.9H164.7z M164.7,112.2h-3v1.1h3V112.2z M166,111.2h3.1v-0.9H166V111.2z
	 M169,112.2h-3v1.1h3.1v-1.1H169z"/>
<path class="st0" d="M176.7,107.8c0.2-0.5,0.5-1.1,0.7-1.7l1.3,0.1c-0.2,0.6-0.4,1.1-0.6,1.6h6.1v1.2h-6.7c-0.3,0.5-0.6,0.9-0.9,1.4
	c-0.3,0.5-0.7,0.9-1.1,1.4v6.3h-1.3V113c-0.3,0.3-0.6,0.5-0.9,0.7l-0.8-1c1.2-0.9,2.2-1.9,3.1-3c0.2-0.2,0.3-0.4,0.5-0.6h-3.5v-1.2
	L176.7,107.8L176.7,107.8z M179.5,112.2v-2.6h1.3v2.6h2.9v1.1h-2.9v3.2h3.4v1.2h-8.3v-1.2h3.7v-3.2h-3.1v-1.1H179.5z"/>
<path class="st0" d="M188.9,106.4c-0.1,0.4-0.2,0.8-0.3,1.2h3.1v1.1c-0.2,1.5-0.4,2.9-0.8,4c-0.3,1-0.8,1.9-1.4,2.7
	c-0.6,0.8-1.6,1.7-2.9,2.7l-1-1.1c1.5-1,2.6-2,3.3-3.1c-0.5-0.7-1.1-1.5-1.9-2.3l0.9-0.8c0.6,0.6,1.1,1.2,1.6,1.8
	c0.4-1,0.6-2.3,0.8-3.9h-2.2c-0.1,0.4-0.3,0.7-0.4,1c-0.5,1-1,1.9-1.7,2.7l-0.8-1c0.6-0.7,1.1-1.5,1.5-2.4c0.3-0.6,0.6-1.5,0.9-2.8
	L188.9,106.4z M193.7,106.1v4.2c1.2,0.6,2.4,1.3,3.6,2.1l-0.8,1.1c-1.2-0.8-2.1-1.5-2.8-1.9v6.4h-1.3v-11.9L193.7,106.1L193.7,106.1
	z"/>
<path class="st0" d="M204.8,113.5c-0.2,0.3-0.5,0.5-1,0.8l-0.4-0.6c0.6-0.3,1-0.7,1.1-1.2h-0.8V111h1.6v1.3
	C205.2,112.7,205,113.2,204.8,113.5z"/>
<path class="st0" d="M214.8,109.3v0.9c-0.4,0.7-1,1.5-1.6,2.2h1.6v0.8c-0.2,0.8-0.4,1.5-0.6,1.9c0.5,0.5,0.9,0.9,1.2,1
	c0.3,0.2,0.7,0.3,1.2,0.3c0.6,0.1,1.9,0.1,3.7,0.1c1.4,0,2.4,0,3-0.1l-0.2,1.3c-3.6,0-5.8-0.1-6.6-0.1c-0.7-0.1-1.3-0.2-1.7-0.5
	c-0.4-0.2-0.8-0.5-1.2-1c-0.4,0.6-0.8,1.2-1.4,1.9l-0.9-0.9c0.7-0.7,1.1-1.3,1.4-1.8c0.2-0.3,0.5-0.9,0.8-1.9h-1.9v-1
	c0.5-0.5,1.1-1.2,1.7-2.1h-1.9v-1.1h3.4V109.3z M214.4,108.2l-0.8,0.8c-0.3-0.6-0.8-1.2-1.4-1.9l0.8-0.7
	C213.5,107,214,107.6,214.4,108.2z M222.3,106.6v0.9c-0.6,0.5-1.4,0.9-2.2,1.2c0.2,0.1,0.3,0.1,0.5,0.2l-0.2,0.2h2.1v5.7
	c0,0.4-0.1,0.7-0.3,0.9s-0.4,0.3-0.7,0.3h-0.9l-0.3-1.1l0.7,0.1c0.2,0,0.4-0.2,0.4-0.5v-0.7h-1.8v2h-1.1v-2h-1.7v2.2h-1.2v-6.9h3
	c-0.6-0.2-1.3-0.5-2.1-0.7l0.7-0.7c0.6,0.2,1.1,0.3,1.6,0.5c0.5-0.2,1-0.4,1.6-0.7h-5.1v-1h7V106.6z M218.5,111.1v-1h-1.7v1H218.5z
	 M218.5,112.9V112h-1.7v0.9H218.5z M219.6,111.1h1.8v-1h-1.8V111.1z M219.6,112.9h1.8V112h-1.8V112.9z"/>
<path class="st0" d="M225.6,107v-0.8h1.1v0.8h2.4v-0.8h1.1v0.8h1.1v1h-1.1v1.5h-1.8v0.7h2.6v2.5h-2.6v0.6h2.6v1h-2.6v0.7h2.3v0.9
	h-2.3v0.7c0.9-0.1,1.7-0.2,2.4-0.4v0.5c0.5-0.9,0.9-1.8,1.2-2.7s0.4-2.3,0.4-4H231v-1.1h1.4v-2.5h1.1v2.5h2.3c0,4.3-0.1,6.9-0.2,7.6
	c-0.1,0.6-0.2,1-0.4,1.2c-0.3,0.2-0.7,0.4-1.4,0.4c-0.3,0-0.6,0-0.9-0.1l-0.2-1.2c0.4,0.1,0.7,0.1,1.1,0.1c0.4,0,0.7-0.2,0.7-0.8
	c0.1-0.6,0.1-2.7,0.2-6.2h-1.2c0,1.7-0.2,3.2-0.5,4.4c-0.3,1.3-0.9,2.7-1.8,4l-1-0.8c0.1-0.1,0.2-0.2,0.2-0.3
	c-1.3,0.3-3.3,0.5-6.1,0.8l-0.1-1.1c1.1,0,2.1-0.1,3-0.2v-0.8h-2.6V115h2.6v-0.7h-2.8v-1h2.8v-0.6h-2.6v-2.5h2.6v-0.7h-1.8V108h-1.1
	v-1H225.6z M227.4,111h-1.6v0.8h1.6V111z M226.7,108.7h2.4v-0.8h-2.4V108.7z M230,111h-1.5v0.8h1.5V111z"/>
<path class="st0" d="M239.8,106.3c-0.1,0.4-0.2,0.7-0.3,1h1.4c-0.2-0.3-0.3-0.7-0.5-1l1.1-0.2c0.2,0.3,0.4,0.7,0.5,1.1h1.4v0.8h-1.6
	v0.8h1.3v0.8h-1.3v0.7h1.4v0.8h-1.4v0.8h1.6v0.9h-5.1v-3.5c-0.2,0.2-0.3,0.5-0.5,0.7l-0.4-1.2c0.3-0.4,0.6-0.8,0.8-1.3
	c0.2-0.4,0.5-1,0.7-1.7L239.8,106.3z M248.3,113.6v0.8c-0.8,0.7-1.9,1.3-3.2,1.9c1.1,0.3,2.5,0.5,4.2,0.7l-0.6,1.2
	c-2-0.3-3.7-0.7-5.2-1.2c-1.6,0.5-3.5,0.9-5.6,1.2l-0.5-1.1c1.8-0.2,3.3-0.4,4.7-0.7c-0.9-0.5-1.7-1-2.4-1.7h-1.4v-1L248.3,113.6
	L248.3,113.6z M240.7,108.1h-1.4v0.8h1.4V108.1z M240.7,109.7h-1.4v0.7h1.4V109.7z M240.7,111.2h-1.4v0.8h1.4V111.2z M243.7,115.8
	c1-0.4,1.9-0.8,2.7-1.3h-5.1C242,115.1,242.8,115.5,243.7,115.8z M245.4,106.4c-0.1,0.3-0.2,0.7-0.3,0.9h1.5
	c-0.2-0.3-0.4-0.6-0.6-0.9l1-0.4c0.3,0.4,0.5,0.8,0.7,1.3h1.5v0.8h-1.6v0.7h1.4v0.8h-1.4v0.8h1.4v0.8h-1.4v0.8h1.6v0.9H244v-3.5
	c-0.1,0.2-0.3,0.4-0.4,0.6l-0.4-1.2c0.3-0.4,0.5-0.8,0.7-1.2s0.4-0.9,0.6-1.6L245.4,106.4z M246.5,108.1H245v0.7h1.5V108.1z
	 M246.5,109.6H245v0.8h1.5V109.6z M246.5,111.2H245v0.8h1.5V111.2z"/>
<path class="st0" d="M255.4,106.3v9c0.4-0.1,0.8-0.3,1.2-0.4v1.2c-1.7,0.6-3.6,1.2-5.9,1.8l-0.3-1.4c1.3-0.2,2.6-0.5,3.8-0.8v-4.2
	h-3.6v-1.2h3.6v-4L255.4,106.3L255.4,106.3z M258.4,106.3v4.4c1.2-0.5,2.3-1.1,3.1-1.8l0.8,1.1c-1.1,0.8-2.4,1.5-3.9,2v3.9
	c0,0.2,0.1,0.4,0.2,0.5s0.2,0.2,0.4,0.2h1.4c0.2,0,0.3-0.1,0.4-0.2c0.1-0.1,0.2-0.9,0.4-2.4l1.2,0.4c-0.2,1.7-0.3,2.6-0.5,2.9
	c-0.3,0.3-0.7,0.5-1.1,0.5h-2c-0.5,0-0.8-0.1-1-0.3c-0.3-0.3-0.5-0.7-0.5-1.2v-9.9L258.4,106.3L258.4,106.3z"/>
<path class="st0" d="M264.8,108.6v-2.3h1.1v2.3h1.1v1.1h-1.1v0.5c0.4,0.6,0.9,1.2,1.4,1.9l-0.7,1c-0.3-0.6-0.5-1.1-0.7-1.5v6.4h-1.1
	v-6c-0.3,0.9-0.7,1.7-1.1,2.4l-0.5-1.3c0.6-1,1.1-2.2,1.5-3.5h-1.3v-1.1h1.4L264.8,108.6L264.8,108.6z M275.3,116.7v1.1h-8.4v-1.1
	H275.3z M275.2,106.7v1.1H272c-0.2,0.4-0.5,0.9-0.8,1.4h0.5c-0.1,3.8-0.1,5.6-0.1,5.6c0,0.5-0.1,0.9-0.3,1.2
	c-0.2,0.3-0.5,0.4-0.9,0.4c-0.3,0-0.6,0-0.9-0.1l-0.4-1.1c0.2,0.1,0.6,0.1,1.1,0.1c0.1,0,0.2-0.1,0.3-0.2c0.1-0.1,0.1-0.2,0.1-0.4
	c0,0,0-1.6,0.1-4.7H270v-1c0.3-0.5,0.6-0.9,0.8-1.4h-3.6v-1.1h8L275.2,106.7L275.2,106.7z M269.9,109.1v5.5h-2.6v-5.5H269.9z
	 M269,110h-0.8v3.7h0.8V110z M275,108.9c0,1.7-0.2,3-0.6,4c-0.1,0.2-0.2,0.4-0.3,0.6c0.3,0.5,0.8,0.9,1.3,1.3l-0.6,0.9
	c-0.5-0.4-0.9-0.8-1.2-1.2c-0.3,0.5-0.7,0.9-1.1,1.3l-0.6-1c0.4-0.4,0.8-0.9,1.1-1.3c-0.4-0.8-0.7-1.7-0.9-2.7l0.9-0.5
	c0.2,0.8,0.4,1.5,0.6,2.1v-0.1c0.3-0.6,0.4-1.5,0.5-2.5h-2v-1L275,108.9L275,108.9z"/>
<path class="st0" d="M279.8,109.2v0.9c-0.4,0.7-0.9,1.5-1.6,2.3h1.5v0.8c-0.2,0.8-0.4,1.5-0.6,1.9c0.5,0.5,0.9,0.9,1.2,1
	c0.3,0.2,0.7,0.3,1.2,0.4c0.6,0.1,1.9,0.2,3.7,0.2c1.4,0,2.4,0,3-0.1l-0.2,1.2c-3.6,0-5.8-0.1-6.6-0.1c-0.7-0.1-1.3-0.3-1.7-0.5
	c-0.4-0.2-0.8-0.5-1.2-1.1c-0.4,0.6-0.8,1.2-1.4,1.9l-0.9-0.9c0.7-0.7,1.1-1.3,1.4-1.8c0.2-0.3,0.5-0.9,0.8-1.9h-1.8v-1
	c0.5-0.5,1.1-1.3,1.6-2.2h-1.9v-1.1L279.8,109.2L279.8,109.2z M279.3,108.1l-0.8,0.8c-0.3-0.6-0.8-1.2-1.3-1.9l0.8-0.7
	C278.5,106.9,278.9,107.5,279.3,108.1z M283.4,107.2v-1h1.2v1h3.3v1.1h-3.3v0.8h2.9v3.4h-2.9v0.2c1.3,0.5,2.4,1.1,3.5,1.8l-0.7,1
	c-0.9-0.7-1.9-1.3-2.8-1.7v2.4h-1.2v-2.5c-0.3,0.3-0.5,0.5-0.8,0.6c-0.6,0.4-1.4,0.9-2.3,1.3l-0.6-1c0.9-0.3,1.7-0.7,2.4-1.2
	c0.4-0.3,0.8-0.6,1.1-0.9h-2.8V109h2.9v-0.8H280v-1.1L283.4,107.2L283.4,107.2z M283.4,110h-1.8v1.4h1.8V110z M286.3,110h-1.8v1.4
	h1.8V110z"/>
<line class="st1" x1="16.5" y1="20.3" x2="327.5" y2="20.3"/>
<line class="st1" x1="16.5" y1="47.4" x2="301.2" y2="47.4"/>
<line class="st1" x1="16.5" y1="72.9" x2="283.8" y2="72.9"/>
<line class="st1" x1="16.5" y1="99.5" x2="264.3" y2="99.5"/>
</svg>
