<?xml version="1.0" encoding="utf-8"?>
<!-- Generator: Adobe Illustrator 25.2.3, SVG Export Plug-In . SVG Version: 6.00 Build 0)  -->
<svg version="1.1" id="圖層_1" xmlns="http://www.w3.org/2000/svg" xmlns:xlink="http://www.w3.org/1999/xlink" x="0px" y="0px"
	 viewBox="0 0 200 50" style="enable-background:new 0 0 200 50;" xml:space="preserve">
<style type="text/css">
	.st0{fill:#00404B;}
</style>
<path class="st0" d="M4.8,1.1c0,0.1-0.1,0.2-0.1,0.2c-0.1,0-0.3,0.1-0.5,0.2C4,1.6,3.9,1.7,3.9,1.7v3.8h0.2c0.5-0.9,0.8-1.4,1-1.4
	c0.1,0,0.3,0.3,0.7,0.7c0.3,0.5,0.5,0.8,0.5,0.9C6.3,5.9,6.2,6,6,6H3.9v4c0.5-0.1,0.9-0.1,1.4-0.3C5.2,9.3,5.1,8.8,4.9,8.3
	c0.3,0.1,0.6,0.2,1,0.2C6.5,7.3,7,5.8,7.2,4c1.7,0.5,2.5,0.9,2.5,1c0,0.3-0.3,0.4-1,0.5C8.1,6.9,7.3,7.9,6.5,8.6
	C7,8.7,7.6,8.7,8.2,8.7c0.2-0.6,0.3-1.2,0.5-1.9c1.2,0.4,2,0.7,2.3,0.8c0.4-1.2,0.7-2.4,0.9-3.7c1.6,0.6,2.4,1,2.4,1.2
	c0,0.2-0.3,0.3-0.9,0.4c-0.2,0.5-0.4,1-0.7,1.4h3.9c0.5-0.6,0.8-1,1-1.1h0.1c0.1,0,0.4,0.2,0.7,0.5c0.4,0.4,0.7,0.7,0.7,0.8
	c0,0.2,0,0.3-0.1,0.4h-2.8v2.6h0.3c0.5-0.7,0.8-1,1-1.1c0.1,0,0.3,0.3,0.8,0.7c0.4,0.4,0.5,0.6,0.5,0.7c0,0.2-0.1,0.3-0.2,0.3h-2.4
	v2.7h0.3c0.5-0.7,0.8-1,1-1.1c0.1,0,0.3,0.3,0.8,0.7c0.4,0.4,0.5,0.6,0.5,0.7c0,0.2-0.1,0.3-0.2,0.3h-2.4v3.3h0.3
	c0.6-0.9,1-1.4,1.2-1.5c0.1,0,0.4,0.3,1,0.9c0.4,0.5,0.7,0.7,0.7,0.9s-0.1,0.3-0.1,0.3h-6v0.4c0,0.3,0,0.5,0,0.8s-0.3,0.5-1,0.5
	c-0.5,0-0.7-0.1-0.8-0.3v-7.9c-0.2,0.1-0.3,0.1-0.4,0.2C10.5,15.5,8.6,18,5.3,19c0,0,0-0.1-0.1-0.2c1.9-1.5,3.2-3.4,3.8-5.5
	c-0.7,0.4-1.7,0.8-3,1.2c-0.1,0.5-0.2,0.8-0.3,0.8c-0.1,0-0.3-0.2-0.4-0.7c-0.2-0.5-0.4-1-0.5-1.8c0.4,0.1,0.9,0.1,1.7,0.1
	c0.8-1,1.4-2.2,1.8-3.6C7.8,9.6,7.1,9.8,6.2,10c-0.1,0.3-0.1,0.4-0.2,0.5c0,0.1-0.1,0.1-0.1,0.1s-0.1-0.1-0.2-0.5
	c-0.4,0.4-0.9,0.8-1.5,1.1v5.4c0,1.8-0.7,2.6-2,2.6c-0.2,0-0.3-0.1-0.3-0.4c0-0.4-0.3-0.7-0.6-1c-0.2-0.2-0.5-0.4-1-0.5
	c0-0.1,0.1-0.2,0.1-0.3c0.3,0,1,0,2,0c0.2,0,0.3-0.2,0.3-0.6v-4.6c-0.2,0.1-0.4,0.1-0.6,0.2c0,0.7-0.2,1.1-0.4,1.1
	c-0.1,0-0.4-0.5-0.8-1.5c-0.3-0.6-0.4-1-0.5-1.4c0.8,0,1.5,0,2.3-0.1V5.9c-1.3,0-2,0.1-2,0.2C0.6,5.8,0.4,5.5,0.3,5
	c0.3,0.1,1.1,0.2,2.4,0.3V3c0-1.2-0.1-2.1-0.1-2.7C3.8,0.6,4.7,0.9,4.8,1.1z M17.9,2.4C18.6,3,19,3.4,19,3.6c0,0.2-0.1,0.3-0.2,0.3
	H9C7.2,3.9,6.1,4,5.7,4.2C5.6,3.8,5.4,3.5,5.2,3.1c0.7,0.1,2,0.2,3.8,0.2h2.9c-0.2-0.2-0.4-0.5-0.7-0.9c-0.4-0.7-0.8-1.2-1.3-1.6
	C10,0.8,10,0.7,10,0.5c1.9,0.2,2.9,0.7,3,1.6c0,0.3,0,0.5-0.1,0.7c-0.1,0.3-0.2,0.4-0.4,0.5h3.7c0.5-0.6,0.9-1,1.2-1.2h0.1
	C17.6,2.2,17.8,2.3,17.9,2.4z M9.1,11c1.1,0.2,1.8,0.4,2.1,0.5v-2c-0.3,0.3-0.5,0.7-0.8,1c-0.1,0-0.3-0.1-0.5-0.1
	c0.3-0.6,0.5-1.2,0.8-1.9c-0.2,0.1-0.4,0.1-0.6,0.1c-0.9,2-2,3.5-3.3,4.6c0.9,0,1.5-0.1,2-0.1C9,12.4,9.1,11.7,9.1,11z M13,10.4h1.4
	V7.8H13V10.4z M13,13.7h1.4V11H13V13.7z M13,17.6h1.4v-3.3H13V17.6z M15.5,4.5c0.7,0.4,1,0.8,1,1.2c0,0.5-0.1,0.9-0.4,1
	c-0.2,0.1-0.4,0.2-0.7,0.2c-0.3,0-0.4-0.3-0.5-0.8c-0.1-0.4-0.2-0.8-0.3-1c-0.2-0.3-0.4-0.6-0.7-0.9c0-0.1,0.1-0.1,0.2-0.3
	C14.7,4.2,15.2,4.4,15.5,4.5z"/>
<path class="st0" d="M38.6,15.9c1,0.9,1.6,1.4,1.6,1.7c0,0.2-0.1,0.3-0.2,0.3H26.2c-2.5,0-4.1,0.1-4.7,0.2c-0.1-0.4-0.3-0.7-0.5-1.1
	c1,0.1,2.8,0.2,5.2,0.2h9.9c0.7-0.9,1.2-1.5,1.6-1.7c0.1,0,0.1,0,0.2,0C38.2,15.6,38.4,15.8,38.6,15.9z M37.2,1.7
	c1,0.9,1.6,1.4,1.6,1.7c0,0.2-0.1,0.3-0.2,0.3H26.9c-2.1,0-3.4,0.1-3.9,0.2c-0.1-0.4-0.3-0.7-0.5-1.1C23.3,2.9,24.7,3,26.7,3h8.1
	c0.7-0.9,1.2-1.5,1.6-1.7c0.1,0,0.1,0,0.2,0C36.7,1.5,36.9,1.6,37.2,1.7z M35.6,8.3c1,0.8,1.4,1.3,1.4,1.6c0,0.2-0.1,0.3-0.2,0.3
	h-9.3c-1.7,0-2.8,0.1-3.2,0.3c-0.1-0.4-0.3-0.7-0.5-1.1c0.6,0.1,1.7,0.2,3.3,0.2h6.3c0.7-0.9,1.2-1.4,1.5-1.6C35,8,35,8,35.1,8
	C35.2,8,35.4,8.2,35.6,8.3z"/>
<path class="st0" d="M43.9,6.1c-0.4,0-0.8,0-1.2,0.1c-0.2-0.3-0.3-0.7-0.4-1c0.4,0.2,0.8,0.3,1.2,0.3h2V2.4c0-0.6-0.1-1.2-0.2-1.9
	c0.7,0.1,1.3,0.2,2.1,0.3c0.5,0.1,0.8,0.2,0.8,0.4c0,0.1-0.1,0.2-0.4,0.3c-0.4,0.1-0.6,0.2-0.6,0.3v3.7h0.3c0.5-0.7,0.9-1,1-1.1h0.1
	c0.1,0,0.5,0.3,1,0.9C49.9,5.6,50,5.8,50,5.9c0,0.2-0.1,0.3-0.3,0.3h-2.5v1.6c1.4,0.7,2.2,1.3,2.6,2c1-1.2,1.7-2.6,2.1-4.3
	c1.7,0.5,2.5,0.9,2.5,1c0,0.3-0.3,0.4-1,0.5c-0.9,1.5-2.1,2.6-3.5,3.3c0,0.1,0,0.1,0,0.1c0,0.4-0.1,0.7-0.3,0.8
	c-0.2,0.1-0.4,0.2-0.6,0.2c-0.4,0-0.7-0.4-0.9-1.3c-0.2-0.8-0.5-1.5-1-2v6.5c0,2.2,0.1,3.7,0.1,4.7c0,0.3-0.4,0.5-1.3,0.5
	c-0.4,0-0.7-0.1-0.7-0.4c0-0.8,0-2.4,0.1-4.9V10c-0.9,2.1-2,3.7-3.2,4.8c-0.1,0-0.2-0.1-0.3-0.3c1.6-2.5,2.7-5.4,3.2-8.6h-1.1V6.1z
	 M59.6,10.6c0,0.2-0.1,0.3-0.3,0.3c-0.3,0-0.6,0-1.1,0c-0.6,1.5-1.4,2.8-2.2,3.9c0.1,0.1,0.2,0.1,0.3,0.2c1.6,1.3,3.2,2.2,4.8,2.6
	c0,0.1-0.1,0.3-0.1,0.4c-0.3,0-0.6,0.1-0.7,0.4c-0.1,0.1-0.3,0.4-0.4,0.7c-0.1,0.2-0.2,0.3-0.4,0.3c-0.6-0.1-1.7-0.8-3.3-2.1
	c-0.5-0.4-0.9-0.9-1.2-1.3c-1.7,1.7-3.7,2.9-6.1,3.4c0-0.1,0-0.2-0.1-0.3c2.1-1.2,3.9-2.6,5.2-4.4c-1.1-1.7-1.8-3.4-2-5.2l0.5-0.1
	c0.4,1.6,1.2,3,2.3,4.1c0.9-1.5,1.6-3.1,2-4.9C58.7,9.7,59.6,10.4,59.6,10.6z M59.7,3c0.8,0.7,1.2,1.1,1.2,1.3
	c0,0.2-0.1,0.3-0.2,0.3h-8c-1.5,0-2.4,0.1-2.7,0.2c-0.1-0.4-0.3-0.7-0.5-1.1C50,3.8,51,3.9,52.3,3.9h5.5c0.6-0.7,1-1.1,1.3-1.3
	c0,0,0.1,0,0.2,0C59.4,2.8,59.6,2.9,59.7,3z M55.8,2.4c0,0.3,0,0.5-0.1,0.7c-0.2,0.4-0.4,0.6-0.8,0.6c-0.3,0-0.6-0.4-1-1.1
	c-0.4-0.8-0.9-1.4-1.5-1.8c0.1,0,0.1-0.1,0.1-0.3C54.6,0.7,55.7,1.3,55.8,2.4z M60.7,8.4c0,0.5-0.1,0.8-0.3,1
	c-0.1,0.2-0.3,0.2-0.6,0.2c-0.4,0-0.8-0.4-1.2-1.3c-0.6-1-1.4-1.9-2.6-2.8c0-0.1,0.1-0.1,0.1-0.2C59.1,6.2,60.7,7.2,60.7,8.4z"/>
<path class="st0" d="M80.7,1.1c0.6,0.4,0.9,0.7,0.9,0.9c0,0.1-0.1,0.3-0.3,0.4c-0.3,0.3-0.5,0.4-0.5,0.5v9.7c0,3.3,0.1,5.5,0.1,6.7
	c0,0.4-0.5,0.7-1.4,0.7c-0.4,0-0.5-0.2-0.5-0.5v-1.2H66v0.9c-0.1,0.4-0.5,0.6-1.2,0.6c-0.4,0-0.7-0.1-0.8-0.2c0-2.9,0-5.8,0.1-8.6
	V5.4C64.1,3,64,1.6,64,1.1l2,0.8h12.6c0.6-0.8,1-1.2,1.2-1.2C80,0.6,80.3,0.8,80.7,1.1z M78.9,17.6V2.3H66v15.3H78.9z M77.1,4
	c0.4,0.4,0.7,0.7,0.7,0.8c0,0.2-0.1,0.3-0.2,0.3h-4.4v1.6H76c0.6-0.8,1-1.2,1.2-1.3c0.1,0,0.4,0.2,0.8,0.7c0.4,0.4,0.7,0.7,0.7,0.9
	s-0.1,0.3-0.2,0.3h-8.7c-2,0-3.1,0.1-3.1,0.2c-0.1-0.3-0.3-0.6-0.4-1.1c0.3,0.1,1.4,0.2,3.2,0.3h2V5.1h-0.6c-2,0-3,0.1-3,0.2
	c-0.1-0.3-0.3-0.6-0.4-1.1c0.3,0.1,1.4,0.2,3.3,0.3h0.8c0-0.7-0.1-1.3-0.1-1.8c1.8,0.3,2.8,0.5,2.8,0.7S74.2,3.7,74,3.7
	c-0.4,0.2-0.6,0.3-0.6,0.4v0.4h2c0.6-0.8,1-1.1,1.2-1.1C76.4,3.3,76.7,3.5,77.1,4z M66.6,16.3c-0.1-0.1-0.2-0.2-0.2-0.3
	c2.2-1.3,3.7-2.6,4.6-3.9c0-0.1,0.1-0.1,0.1-0.2h-1.4c-0.1,0.4-0.5,0.6-1.1,0.6c-0.4,0-0.6-0.1-0.7-0.2c0-0.7,0-1.4,0.1-2V9
	c0-0.6-0.1-0.9-0.1-1l1.6,0.6h5.1c0.5-0.6,0.9-1,1-1c0.2,0,0.5,0.2,1,0.6c0.5,0.4,0.7,0.6,0.7,0.8c0,0.1-0.1,0.3-0.3,0.4
	c-0.3,0.2-0.4,0.4-0.4,0.4v1.1c0.1,0.4,0.1,0.7,0.1,0.8c0.3,0.2,0.7,0.4,1.2,0.7c0.3,0.2,0.5,0.4,0.5,0.5S78.3,13,78.1,13
	c-0.3,0-0.5,0.1-0.7,0.1c-0.3,0.2-0.6,0.4-1,0.6c-0.2,0.1-0.3,0.2-0.5,0.2c1.1,0.5,1.7,1.1,1.7,1.8c0,0.3-0.1,0.5-0.2,0.6
	c-0.1,0.3-0.3,0.4-0.7,0.4c-0.3,0-0.7-0.5-1.3-1.4C74.8,14.6,74,14,73,13.4v2.4c0,0.3,0,0.6,0,0.8c0,0.4-0.4,0.5-1.1,0.5
	c-0.5,0-0.8-0.1-0.8-0.3v-3.1C70.2,14.7,68.6,15.6,66.6,16.3z M75,11.3V9h-5.2v2.3H75z M76.4,12.1c-0.2,0.1-0.4,0.1-0.6,0.1
	c-0.5,0-0.8-0.1-0.8-0.3h-1.6v1c0.8,0.2,1.6,0.4,2.1,0.6C75.9,13.1,76.2,12.6,76.4,12.1z"/>
<path class="st0" d="M92.9,13.7l-0.4-0.4c0.8-0.7,1.2-1.3,1.2-2c0-0.1-0.1-0.2-0.3-0.2c-1-0.2-1.5-0.7-1.5-1.5c0-0.4,0.1-0.7,0.4-1
	c0.3-0.3,0.7-0.5,1.2-0.5s0.9,0.2,1.2,0.6c0.2,0.3,0.4,0.7,0.4,1.1C95.1,11.5,94.4,12.7,92.9,13.7z"/>
<path class="st0" d="M2.1,30.7h3.6c0.5-0.5,0.8-0.8,0.9-0.9c0.2,0,0.5,0.2,0.9,0.6s0.6,0.6,0.6,0.8c0,0.1-0.1,0.2-0.3,0.4
	C7.5,31.8,7.3,32,7.3,32v2.1c0.1,0.8,0.1,1.4,0.1,1.6c0,0.4-0.3,0.7-0.9,0.7c-0.5,0-0.7-0.1-0.7-0.4v-0.5H2.4v12.4
	c-0.1,0.4-0.4,0.6-1,0.6c-0.4,0-0.6-0.1-0.7-0.2c0-2.9,0-5.7,0.1-8.5v-5.6c0-2.4-0.1-3.8-0.1-4.2L2.1,30.7z M6,32.8v-1.5H2.4v1.5H6z
	 M6,34.9v-1.6H2.4v1.6H6z M11.4,37.5c0,0.2-0.3,0.3-1,0.3c-0.3,0.5-0.7,1-1.2,1.4h1.1c0.4-0.4,0.7-0.6,0.9-0.6s0.4,0.2,0.9,0.5
	c0.4,0.3,0.6,0.6,0.6,0.7c0,0.1-0.1,0.2-0.2,0.3c-0.2,0.2-0.4,0.3-0.4,0.4v1.1c0.1,0.4,0.1,0.7,0.1,0.8c0,0.4-0.3,0.6-0.9,0.6
	c-0.4,0-0.6-0.1-0.7-0.3v-0.2H10v2.2c0.1,0.5,0.3,0.7,0.6,0.7h0.8c0.5,0,0.8-0.3,0.8-0.8c0.2-0.6,0.3-1.1,0.4-1.6c0.1,0,0.2,0,0.3,0
	v1.6c0,0.3,0.1,0.4,0.2,0.5c0.2,0.1,0.3,0.3,0.3,0.4c0,0.2-0.1,0.3-0.1,0.4c0.2,0,0.4,0,0.6,0c0.3,0,0.4-0.1,0.4-0.4V35.1h-3.5v0.1
	c-0.1,0.4-0.4,0.6-1,0.6c-0.4,0-0.6-0.1-0.7-0.2c0-0.9,0-1.8,0.1-2.7v-1.8c0-0.8-0.1-1.2-0.2-1.3l1.5,0.6h3.6c0.4-0.5,0.7-0.8,1-0.9
	c0.2,0,0.5,0.2,1,0.5c0.5,0.4,0.8,0.7,0.8,0.9c0,0.1-0.1,0.3-0.4,0.4c-0.2,0.2-0.4,0.3-0.4,0.4v14.1c0,1.3-0.7,2-2.1,2.3
	c-0.1,0-0.2-0.1-0.2-0.4c-0.1-0.5-0.3-0.9-0.6-1.1c-0.2-0.1-0.3-0.2-0.4-0.3h-0.1c-0.3,0.1-0.7,0.2-1.4,0.3c-0.5,0-0.8,0-1,0
	c-1.1-0.1-1.6-0.7-1.6-1.8v-2.6H8C7.9,43,7.8,43.6,7.6,44c-0.7,1.8-2.3,2.9-4.8,3.4c0-0.1-0.1-0.2-0.2-0.3c1.7-0.7,2.9-1.8,3.4-3.4
	c0.2-0.5,0.2-1,0.3-1.5H5.8c-0.1,0.3-0.4,0.5-0.9,0.5c-0.3,0-0.5-0.1-0.6-0.2c0-0.7,0-1.3,0.1-2v-1.3c0-0.5-0.1-0.9-0.1-1l1.3,0.6
	h2.9c0.4-1,0.7-1.9,0.8-2.8C10.7,37,11.4,37.4,11.4,37.5z M7.6,38.2c0,0.7-0.2,1-0.7,1s-0.7-0.3-0.7-0.8c0-0.1,0-0.3-0.1-0.5
	c-0.1-0.2-0.2-0.5-0.3-0.8c-0.1-0.3-0.2-0.4-0.3-0.5c0.1-0.1,0.2-0.2,0.2-0.2C7,37,7.6,37.6,7.6,38.2z M10.5,39.8H5.8v2.3h4.7V39.8z
	 M14.3,32.7v-1.4h-3.5v1.4H14.3z M14.3,34.9v-1.6h-3.5v1.6H14.3z"/>
<path class="st0" d="M19.1,48.6c0-0.1-0.1-0.2-0.2-0.2c2.1-1.5,3.9-3.7,5.4-6.7c1.2-2.1,1.9-5.5,2.1-10.2l-0.1-0.9
	c0-0.2-0.1-0.4-0.2-0.5c2.3,0.3,3.4,0.7,3.4,1c0,0.2-0.2,0.4-0.6,0.4c-0.3,0.1-0.4,0.3-0.5,0.5v0.4c0,0.5-0.1,0.9-0.1,1.3
	c0.3,3.2,1.4,6,3.1,8.5c1.4,2,2.8,3.3,4.5,4c0,0.2,0,0.4-0.1,0.5c-0.3,0-0.5,0.1-0.5,0.2c-0.2,0.1-0.5,0.3-0.7,0.7
	c-0.2,0.5-0.5,0.8-0.7,0.8c-0.5,0-1.5-1.2-2.9-3.4c-1.5-2.4-2.5-5.5-2.9-9.2C26.9,42.1,23.9,46.4,19.1,48.6z"/>
<path class="st0" d="M42.1,34.5c-2,0-3.2,0.1-3.7,0.2c-0.1-0.4-0.3-0.7-0.4-1.1c0.9,0.1,2.4,0.2,4.6,0.2h8.8c0.6-0.9,1-1.4,1.3-1.6
	c0.1,0,0.1,0,0.2,0c0.2,0.1,0.3,0.2,0.5,0.4c0.9,0.8,1.3,1.3,1.3,1.6c0,0.2-0.1,0.3-0.2,0.3h-3.4c-0.3,1.3-0.6,2.4-0.9,3.3
	c-0.6,2-1.5,3.7-2.7,5.2c2,1.6,4.4,2.7,7.2,3.2c0,0-0.1,0.2-0.1,0.5c-0.2,0-0.4,0.1-0.6,0.2s-0.4,0.4-0.6,0.9
	c-0.2,0.4-0.3,0.6-0.5,0.6c-0.8,0-2.5-0.9-5.1-2.8c-0.5-0.4-1-0.9-1.4-1.4c-2.1,2.1-5,3.6-8.6,4.5c-0.1-0.1-0.2-0.2-0.2-0.4
	c3.3-1.3,5.8-3.1,7.7-5.4C43.6,40.5,42.6,37.7,42.1,34.5z M42.5,34.5c1,3.1,2.2,5.6,3.8,7.3c0.9-1.3,1.5-2.7,2-4.2
	c0.3-1,0.6-2,0.8-3h-6.6V34.5z M47.6,32.1c0,0.3,0,0.5-0.1,0.7c-0.2,0.4-0.4,0.6-0.7,0.6s-0.7-0.4-1.2-1.3c-0.5-0.9-1.1-1.6-1.7-2.1
	c0,0,0.1-0.1,0.1-0.3C46.3,30,47.5,30.8,47.6,32.1z"/>
<path class="st0" d="M71.2,37.6c0.4,0.3,0.6,0.5,0.6,0.7s-0.1,0.3-0.2,0.3h-5.8v1.7h5c0.5-0.7,0.9-1.1,1.1-1.3c0,0,0.1,0,0.2,0
	c0.1,0.1,0.3,0.2,0.4,0.3c0.7,0.7,1.1,1.2,1.1,1.3c0,0.2-0.1,0.3-0.2,0.3H61.2c-2.2,0-3.6,0.1-4.1,0.2c-0.1-0.4-0.3-0.7-0.5-1.1
	c0.9,0.1,2.6,0.2,4.8,0.2H64v-1.7h-2.7c-1.8,0-2.7,0.1-2.7,0.2c-0.1-0.3-0.2-0.6-0.4-1.1c0.3,0.1,1.2,0.2,2.9,0.3H64v-1.6
	c-2.2,0-4,0.1-5.4,0.2c-0.2-0.3-0.2-0.6-0.3-0.9c0.7,0.1,2.6,0.1,5.7,0.1v-1.6h-4.5c-0.9,0-1.9,0-2.7,0.1c-0.2-0.3-0.3-0.7-0.4-1
	c1,0.2,2.2,0.3,3.3,0.3H64V32h-0.8c-1.9,0-3.3,0.1-4.3,0.2c-0.1-0.3-0.2-0.5-0.2-0.9c0.7,0.1,2.3,0.1,4.7,0.1h0.5
	c0-0.8-0.1-1.4-0.1-1.9c1.8,0.3,2.7,0.5,2.7,0.8c0,0.2-0.1,0.3-0.3,0.3c-0.4,0.2-0.6,0.3-0.6,0.4v0.4h3c0.6-0.7,0.9-1,1.2-1
	c0.2,0,0.5,0.2,0.9,0.6c0.5,0.5,0.7,0.8,0.7,1c0,0.1-0.1,0.2-0.3,0.4c-0.1,0.1-0.3,0.2-0.5,0.4v0.8H71c0.5-0.8,0.9-1.2,1-1.3h0.1
	c0.1,0,0.4,0.4,1,1c0.3,0.3,0.4,0.5,0.4,0.6c0,0.2-0.1,0.3-0.3,0.3h-2.6V35c0.1,0.5,0.1,1,0.1,1.4c0,0.4-0.4,0.6-1.2,0.7
	c-0.4,0-0.6-0.1-0.6-0.4v-0.2h-3.3v1.6h3.6c0.5-0.6,0.9-0.9,1.1-0.9C70.6,37.1,70.8,37.3,71.2,37.6z M60.9,42.4h7.8
	c0.5-0.6,0.8-0.9,1-0.9c0.2,0,0.5,0.2,1,0.6c0.5,0.4,0.7,0.7,0.7,0.8c0,0.1-0.1,0.3-0.3,0.4c-0.3,0.2-0.5,0.4-0.5,0.5v2.5
	c0.1,1,0.1,1.6,0.1,1.9c0,0.4-0.3,0.7-1,0.7c-0.5,0-0.8-0.1-0.8-0.4v-0.7H61v0.4c-0.1,0.4-0.4,0.6-1,0.6c-0.4,0-0.6-0.1-0.7-0.2
	c0-1.1,0-2.2,0.1-3.3v-2.1c0-0.9-0.1-1.4-0.1-1.6L60.9,42.4z M69,44.7v-1.8h-7.9v1.8H69z M69,47.3v-2h-7.9v2H69z M65.7,33.6H69V32
	h-3.3V33.6z M65.7,35.9H69v-1.6h-3.3V35.9z"/>
<path class="st0" d="M90.4,31.4c0,0.1-0.1,0.2-0.3,0.3c-0.4,0-0.8-0.1-1.1-0.1c-1,0.3-2.4,0.4-4.1,0.5v2.4H89
	c0.6-0.9,1.1-1.4,1.3-1.6c0.1,0,0.1,0,0.2,0c0.2,0.1,0.3,0.2,0.5,0.4c0.9,0.8,1.3,1.3,1.3,1.5c0,0.2-0.1,0.3-0.2,0.3h-6.4
	c0.6,0.8,1.5,1.5,2.8,2.1c1.5,0.8,2.8,1.2,4,1.4c0,0.2,0,0.3-0.1,0.4c-0.4,0.2-0.6,0.4-0.7,0.7c-0.1,0.3-0.1,0.5-0.2,0.7
	s-0.1,0.3-0.2,0.3c-0.8,0-2.1-0.8-3.9-2.6c-0.9-0.9-1.7-2-2.2-3.1h-0.3v1.2c0,0.9,0.1,2,0.1,3.2c0,0.3-0.4,0.5-1.1,0.5
	c-0.6,0-0.9-0.1-0.9-0.3c0-0.7,0.1-1.8,0.1-3.5v-0.3c-1.7,1.9-4.1,3.4-7.3,4.6c-0.1-0.1-0.2-0.2-0.2-0.3c2.8-1.6,4.8-3.1,5.9-4.8
	c0.1-0.1,0.2-0.2,0.2-0.3h-1.4c-2.2,0-3.5,0.1-4,0.3c-0.1-0.4-0.3-0.7-0.4-1.1c0.9,0.1,2.4,0.2,4.5,0.2h2.7v-2.3
	c-1.8,0.1-3.8,0.1-6.2,0.1c0-0.1,0-0.2,0-0.3c5.1-0.6,8.9-1.4,11.5-2.3C89.7,30.6,90.4,31.2,90.4,31.4z M80.4,40.7h6.7
	c0.5-0.7,0.9-1,1.1-1c0.2,0,0.5,0.3,1.1,0.7c0.5,0.4,0.7,0.7,0.7,0.9c0,0.1-0.1,0.3-0.3,0.4c-0.3,0.3-0.5,0.4-0.5,0.5v3.4
	c0.1,1.3,0.1,2.1,0.1,2.5c0,0.5-0.4,0.8-1.1,0.8c-0.5,0-0.8-0.1-0.8-0.4v-1h-6.8v0.9c-0.1,0.4-0.5,0.7-1.1,0.7
	c-0.4,0-0.7-0.1-0.7-0.2c0-1.4,0-2.8,0.1-4.1V42c0-1.1-0.1-1.8-0.2-2L80.4,40.7z M87.4,43.7v-2.5h-6.8v2.5H87.4z M87.4,46.9v-2.6
	h-6.8v2.6H87.4z"/>
<path class="st0" d="M109.1,31.2c0.5,0.5,0.8,0.9,0.8,1.1s-0.1,0.3-0.3,0.3c-0.2,0.1-0.5,0.1-1,0.1c-1.1,0.8-2.5,1.7-4.2,2.5v0.1
	c0,0.1-0.1,0.3-0.3,0.3c-0.2,0.1-0.3,0.2-0.3,0.2v2.9h4.3c0.6-0.9,1.1-1.5,1.4-1.7c0.1,0,0.1,0,0.2,0c0.2,0.1,0.3,0.2,0.5,0.4
	c0.9,0.9,1.4,1.4,1.4,1.7c0,0.2-0.1,0.3-0.2,0.3h-7.6v6.8c-0.1,1.5-0.9,2.4-2.2,2.6c-0.2,0-0.4-0.2-0.4-0.6
	c-0.1-0.4-0.5-0.9-1.3-1.3c-0.4-0.2-0.9-0.4-1.5-0.5c0-0.1,0-0.3,0.1-0.5c0.8,0.1,1.7,0.3,2.6,0.3c0.6,0,0.9-0.3,0.9-0.8v-5.9h-2.9
	c-2.2,0-3.6,0.1-4.2,0.3c-0.1-0.4-0.3-0.7-0.5-1.1c0.9,0.1,2.5,0.2,4.7,0.2h2.9v-0.7c0-1.7,0-2.8-0.1-3.5c0.7,0.1,1.4,0.2,2.1,0.4
	c1.2-1.2,2.2-2.2,2.8-3.1h-7.9c-0.8,0-1.6,0.1-2.3,0.2c-0.1-0.3-0.2-0.7-0.3-1c0.8,0.1,1.6,0.2,2.4,0.2h7.9c0.6-0.7,1.1-1,1.3-1
	C108.2,30.4,108.5,30.7,109.1,31.2z"/>
<path class="st0" d="M129.3,34.1c0.9,0.8,1.3,1.3,1.3,1.6c0,0.2-0.1,0.3-0.2,0.3h-3.9c-0.1,0.6-0.1,1-0.2,1.3
	c-0.4,2.3-1.1,4.2-2.1,5.8c2.9,1.2,4.5,2.5,4.7,4.1c0,0.3-0.1,0.5-0.2,0.6c-0.1,0.3-0.3,0.4-0.7,0.5c-0.7,0-1.8-1-3.4-2.8
	c-0.4-0.4-0.9-0.8-1.4-1.1c-0.3,0.3-0.5,0.6-0.8,0.8c-2.2,2.1-5.3,3.3-9,3.7c0-0.1-0.1-0.3-0.1-0.4c2.8-0.9,5-1.9,6.6-3.1
	c0.8-0.6,1.4-1.2,2-1.9c-1.1-0.6-2.3-1.2-3.6-1.7c-0.2,0.4-0.4,0.7-0.5,0.9c-0.1,0.4-0.5,0.6-1.2,0.6c-0.5,0-0.8-0.2-0.8-0.7
	c0.7-1.3,1.4-2.8,2.1-4.5c0.3-0.7,0.6-1.4,0.8-2.1H118c-2.3,0-3.7,0.1-4.2,0.3c-0.1-0.4-0.3-0.7-0.5-1.1c0.9,0.1,2.5,0.2,4.8,0.2
	h0.7c0.7-2.1,1.2-3.9,1.3-5.5c2,0.4,2.9,0.7,2.9,1c-0.1,0.3-0.5,0.5-1.2,0.5c-0.4,1.4-0.8,2.8-1.2,3.9h6.6c0.6-0.9,1-1.4,1.3-1.6
	c0,0,0.1,0,0.2,0C128.9,33.8,129.1,33.9,129.3,34.1z M122.5,42.4c1-1.5,1.6-3.3,1.9-5.2c0.1-0.4,0.1-0.8,0.1-1.2h-4.1
	c-0.8,2.4-1.5,4.2-2.1,5.4C119.9,41.7,121.3,42,122.5,42.4z"/>
<path class="st0" d="M144,30.3c0,0.1-0.1,0.2-0.2,0.3c-0.3,0.2-0.5,0.3-0.7,0.4c0,1,0,2,0,2.9h3.3c0.5-0.8,0.8-1.2,1-1.3h0.1
	c0.2,0,0.4,0.3,0.8,0.6c0.5,0.5,0.7,0.8,0.8,1c0,0.2-0.1,0.3-0.1,0.4h-5.9c0.1,1.8,0.2,3.3,0.4,4.5c0.2,0.9,0.4,1.6,0.7,2.3
	c1-1.6,1.7-3.4,2.1-5.4c1.6,1,2.4,1.7,2.4,1.9s-0.1,0.3-0.2,0.3c-0.2,0-0.5,0-0.9-0.1c-0.8,2-1.7,3.7-2.7,5.1
	c0.7,1.6,1.6,2.6,2.6,2.9c0.3,0,0.7-1.2,1.3-3.7c0.2,0,0.3,0,0.3,0.1c-0.3,1.4-0.4,2.7-0.4,3.8c0,0.3,0.2,0.6,0.4,0.9
	c0.3,0.4,0.5,0.7,0.5,1c0,0.4-0.3,0.6-0.8,0.6c-0.9,0-1.9-0.4-2.9-1.3c-0.8-0.8-1.5-1.7-2.1-2.9c-1.7,1.8-3.8,2.9-6.2,3.5
	c0-0.1,0-0.2-0.1-0.3c2.3-1.2,4.2-2.8,5.7-4.6c-0.8-2-1.3-4.5-1.4-7.4c0-0.4-0.1-0.8-0.1-1.2h-5.8v3.3h2.8c0.5-0.7,0.8-1.1,0.9-1.1
	c0.2,0,0.4,0.2,0.9,0.6c0.4,0.4,0.7,0.7,0.7,0.8s-0.1,0.3-0.3,0.3c-0.2,0.1-0.3,0.2-0.4,0.3c-0.2,2.5-0.4,4.1-0.7,4.8
	c-0.2,1-0.8,1.6-1.9,1.8c-0.2,0-0.3-0.1-0.3-0.4c-0.1-0.5-0.3-0.8-0.5-1c-0.3-0.3-0.6-0.5-0.9-0.6c0,0,0-0.1,0.1-0.4
	c0.5,0.2,1,0.3,1.5,0.4c0.4,0,0.6-0.2,0.7-0.5c0.2-0.5,0.4-2.1,0.5-4.6h-3v0.4c0,2.1-0.1,3.7-0.3,4.7c-0.2,0.8-0.5,1.7-1,2.7
	c-0.7,1.2-1.3,2.1-2,2.5c-0.1,0-0.2-0.1-0.3-0.2c0.6-1,1-2.2,1.4-3.7c0.3-1.2,0.5-3.1,0.5-5.9c0-2.3,0-3.7,0-4.3c0-0.5,0-1-0.1-1.6
	l1.9,0.9h5.7c-0.1-2-0.2-3.4-0.3-4.2C143,29.9,144,30.1,144,30.3z M146.9,31.7c0,0.3,0,0.5-0.1,0.7c-0.1,0.4-0.4,0.5-0.7,0.5
	c-0.2,0-0.4-0.3-0.7-0.9c-0.3-0.6-0.6-1.2-1-1.6c0,0,0.1-0.1,0.1-0.3C146.1,30.3,146.9,30.8,146.9,31.7z"/>
<path class="st0" d="M159.4,35.6c0.4,0.4,0.6,0.7,0.6,0.9s-0.1,0.3-0.2,0.3h-5.7c-1.8,0-2.8,0.1-2.8,0.2c-0.1-0.3-0.2-0.6-0.4-1.1
	c0.3,0.1,1.2,0.2,2.9,0.3h2c0.4-1.2,0.6-2.2,0.7-3.1c1.3,0.4,2,0.8,2,1c0,0.1-0.3,0.3-0.9,0.3c-0.3,0.7-0.8,1.3-1.4,1.8h1.3
	c0.5-0.8,0.9-1.3,1.1-1.3C158.8,35,159,35.2,159.4,35.6z M158.8,31.8c0.4,0.4,0.6,0.7,0.7,0.9c0,0.2-0.1,0.3-0.2,0.3h-4.9
	c-1.8,0-2.7,0.1-2.7,0.2c-0.1-0.3-0.2-0.6-0.4-1.1c0.3,0.1,1.2,0.2,2.9,0.3h2.6c0.6-0.8,1-1.2,1.2-1.3
	C158.1,31.1,158.4,31.4,158.8,31.8z M153.8,38.3h3.2c0.5-0.6,0.9-0.9,1-0.9c0.2,0.1,0.4,0.2,0.8,0.5c0.5,0.4,0.7,0.7,0.7,0.8
	c0,0.2-0.1,0.3-0.2,0.4c-0.2,0.1-0.3,0.2-0.4,0.4v7c0,1.2-0.6,1.9-1.8,2.2c-0.2,0-0.3-0.2-0.3-0.4c-0.1-0.4-0.2-0.8-0.5-0.9
	c-0.2-0.2-0.6-0.4-1.1-0.6c0-0.1,0-0.2,0-0.3c0.6,0.1,1.2,0.1,1.6,0.1c0.4,0,0.6-0.1,0.6-0.4v-2.3h-3.3v4.2
	c-0.1,0.4-0.4,0.6-0.9,0.6c-0.4,0-0.6-0.1-0.6-0.2c0-1.7,0-3.4,0.1-5.1v-3.3c0-1.4-0.1-2.3-0.1-2.5L153.8,38.3z M153.9,33.7
	c0.6,0.4,0.9,0.8,0.9,1.3s-0.1,0.8-0.3,0.9c-0.1,0.1-0.3,0.2-0.6,0.2c-0.2,0-0.3-0.3-0.4-0.8s-0.2-0.8-0.2-1
	c-0.2-0.3-0.3-0.5-0.6-0.8c0-0.1,0.1-0.1,0.2-0.2C153.3,33.3,153.7,33.5,153.9,33.7z M156.3,30.9c0,0.3,0,0.5-0.1,0.7
	c-0.2,0.4-0.4,0.6-0.7,0.6c-0.2,0-0.5-0.3-0.8-0.9c-0.3-0.6-0.7-1.1-1.2-1.5c0.1,0,0.1-0.1,0.1-0.3
	C155.3,29.7,156.2,30.1,156.3,30.9z M157.2,40.7v-1.9h-3.3v1.9H157.2z M157.2,43.4v-2.1h-3.3v2.1H157.2z M162.9,30.4
	c0,0.2-0.1,0.3-0.4,0.4c-0.3,0.2-0.5,0.3-0.5,0.4v0.9h3.3c0.5-0.8,0.8-1.2,1-1.3h0.1c0.2,0,0.4,0.3,0.8,0.6c0.5,0.5,0.7,0.8,0.8,1
	c0,0.2-0.1,0.3-0.1,0.4H162v1.8h3.2c0.5-0.6,0.8-0.9,0.9-1c0.2,0,0.5,0.2,0.9,0.6c0.4,0.4,0.6,0.6,0.6,0.8c0,0.1-0.1,0.2-0.2,0.4
	c-0.3,0.2-0.4,0.4-0.5,0.4v1c0.1,0.4,0.1,0.6,0.1,0.8c0,0.4-0.3,0.7-0.9,0.7c-0.5,0-0.7-0.1-0.7-0.4v-0.1h-3.6v1.8h2.9
	c0.5-0.8,0.8-1.2,0.9-1.2c0.1,0,0.3,0.3,0.8,0.8c0.4,0.4,0.5,0.7,0.5,0.7c0,0.2-0.1,0.3-0.2,0.3h-5V42h2.7c0.5-0.8,0.8-1.2,0.9-1.2
	c0.1,0,0.3,0.3,0.8,0.8c0.4,0.4,0.5,0.7,0.5,0.7c0,0.2-0.1,0.3-0.2,0.3h-4.8v2h2.3c0.5-0.8,0.9-1.2,1-1.2c0.1,0,0.4,0.3,0.9,0.8
	c0.4,0.4,0.6,0.7,0.6,0.7c0,0.2-0.1,0.3-0.1,0.3h-4.7v1c0,0.6,0.3,0.9,0.8,0.9s1.1,0.1,1.8,0.1c0.5,0,1,0,1.5-0.1
	c0.4,0,0.7-0.3,0.8-0.8c0.2-0.5,0.3-1.2,0.4-2h0.3c0,0.9,0,1.7,0.1,2.2c0,0.1,0.1,0.3,0.2,0.3c0.3,0.2,0.5,0.4,0.5,0.6
	c0,0.6-0.5,0.9-1.4,1.1c-0.7,0.1-1.5,0.1-2.3,0.1c-0.9,0-1.7,0-2.3-0.1c-1.2,0-1.8-0.7-1.9-2V39c0-0.8-0.1-1.7-0.1-2.5l1.4,0.6h3.8
	v-2H162v0.3c0,0.4-0.4,0.6-1.1,0.6c-0.4,0-0.6-0.1-0.6-0.4c0-1.3,0.1-2.9,0.1-4.7c-0.1-0.5-0.1-0.9-0.1-1.2
	C161.9,29.9,162.7,30.1,162.9,30.4z"/>
<path class="st0" d="M173.1,30.7h10.5c0.5-0.6,0.9-1,1-1c0.2,0,0.5,0.3,0.9,0.6c0.4,0.4,0.7,0.7,0.7,0.8c0,0.1-0.1,0.2-0.2,0.3
	c-0.2,0.1-0.3,0.3-0.5,0.5c0,3.4,0,6.2-0.1,8.7c0.1,2.8,0.3,4.2,0.7,4.2c0.2,0,0.5-0.8,0.9-2.5c0.1,0,0.2,0.1,0.3,0.1
	c-0.3,1.7-0.4,2.9-0.4,3.8c0,0.3,0,0.6,0.1,0.8c0.2,0.5,0.2,0.8,0.2,1c0,0.3-0.1,0.5-0.4,0.5c-1,0-1.9-1.5-2.5-4.4
	c-0.3-1.3-0.4-5.6-0.4-12.9h-10.7l0.1,2.1c0,4.1-0.1,6.8-0.3,8.3c-0.1,1-0.3,2.1-0.6,3.2c-0.5,1.8-1.2,3.1-2,3.8
	c-0.2,0-0.2-0.1-0.2-0.2c1-2.4,1.5-6.9,1.5-13.4v-3.4c0-0.7-0.1-1.3-0.1-1.8L173.1,30.7z M174.3,44.1c0,0.3,0.1,0.8,0.1,1.4
	c0,1.6-0.5,2.4-1.4,2.4c-0.5,0-0.8-0.2-0.8-0.6c0-0.3,0.2-0.6,0.5-0.8c0.8-0.6,1.3-1.4,1.4-2.4H174.3z M181.8,31.6
	c0.7,0.7,1,1.1,1.1,1.3c0,0.2-0.1,0.3-0.2,0.3H179c-0.4,0.7-0.9,1.3-1.5,1.8h2.5c0.5-0.5,0.8-0.8,0.9-0.8c0.2,0,0.5,0.2,0.9,0.6
	c0.4,0.4,0.6,0.6,0.6,0.8c0,0.1-0.1,0.3-0.2,0.4c-0.3,0.2-0.4,0.4-0.5,0.4v1.4c0.1,0.5,0.1,0.9,0.1,1c0,0.4-0.3,0.7-0.9,0.7
	c-0.5,0-0.7-0.1-0.7-0.4V39h-4.3v1.3h5.4c0.4-0.5,0.6-0.8,0.8-0.9h0.1c0.1,0,0.3,0.2,0.6,0.5c0.3,0.4,0.5,0.6,0.6,0.8
	c0,0.2,0,0.3-0.1,0.4H176v1.3h5.4c0.3-0.3,0.5-0.5,0.7-0.5c0.2,0,0.5,0.1,0.9,0.4c0.4,0.2,0.6,0.4,0.6,0.6c0,0.1-0.1,0.2-0.1,0.3
	c-0.2,0.1-0.3,0.3-0.4,0.5c-0.2,3.5-1,5.3-2.5,5.3c-0.2,0-0.2-0.2-0.3-0.6c-0.1-0.3-0.3-0.5-0.6-0.8c-0.4-0.3-0.7-0.4-0.9-0.5
	c0-0.2,0.1-0.3,0.1-0.3c0.5,0.1,1,0.2,1.5,0.2c0.4,0,0.7-0.2,0.8-0.7c0.3-0.6,0.4-1.7,0.4-3.3h-5.5v0.3c-0.1,0.4-0.4,0.6-0.9,0.6
	c-0.4,0-0.6-0.1-0.6-0.2c0-1.4,0-2.8,0.1-4.2v-2.8c0-1.2-0.1-1.9-0.1-2.1l1.5,0.6h1.2c0.2-0.5,0.2-1.2,0.3-1.8H176
	c-0.8,0-1.4,0.1-1.8,0.2c-0.1-0.2-0.1-0.5-0.2-0.8c0.4,0.1,1.1,0.1,2.1,0.1h4.8c0.3-0.4,0.5-0.8,0.8-1.1
	C181.8,31.7,181.9,31.7,181.8,31.6C181.6,31.3,181.7,31.4,181.8,31.6z M176.9,46.2c0,0.7-0.3,1-0.9,1c-0.3,0-0.5-0.2-0.5-0.6
	c0-0.1,0-0.3,0.1-0.5c0-0.1,0.1-0.3,0.1-0.6c0-0.7-0.1-1.2-0.1-1.6c0,0,0-0.1,0.1-0.1C176.5,44.5,176.9,45.3,176.9,46.2z
	 M180.3,36.6v-1.2H176v1.2H180.3z M180.3,38.4v-1.2H176v1.2H180.3z M179,45.4c0,0.5-0.2,0.8-0.6,0.8c-0.4,0-0.6-0.2-0.6-0.7
	c0-0.1,0-0.4-0.1-0.7c-0.1-0.3-0.1-0.5-0.2-0.9c-0.1-0.3-0.2-0.5-0.2-0.6l0.2-0.1C178.5,44,179,44.7,179,45.4z M181,44.7
	c0,0.6-0.2,0.9-0.6,0.9c-0.4,0-0.6-0.2-0.6-0.7c0-0.1,0-0.3-0.1-0.5c-0.1-0.2-0.2-0.5-0.2-0.7c-0.1-0.2-0.2-0.4-0.2-0.5
	c0.1-0.1,0.2-0.1,0.2-0.1C180.5,43.6,181,44.1,181,44.7z"/>
</svg>
