<svg width="110" height="78" viewBox="0 0 110 78" fill="none" xmlns="http://www.w3.org/2000/svg">
<g clip-path="url(#clip0_138_6296)">
<path d="M1.986 45.238V45.67H5.676V45.238H1.986ZM2.268 46.894V47.308H5.406V46.894H2.268ZM2.022 47.71V48.148H5.616V47.71H2.022ZM3.42 43.942V48.664H3.96V43.942H3.42ZM2.346 44.422V44.86H4.794V46.066H2.31V46.51H5.298V44.422H2.346ZM0.36 44.29V44.794H1.728V44.29H0.36ZM0.828 46.006L0.786 46.504H1.716V46.006H0.828ZM1.518 46.006V46.108C1.38 47.626 0.936 48.61 0.186 49.132C0.306 49.204 0.516 49.402 0.6 49.504C1.368 48.928 1.866 47.812 2.04 46.072L1.722 45.994L1.62 46.006H1.518ZM0.828 46.93L0.408 47.08C0.978 49.006 2.136 49.372 3.858 49.372H5.58C5.61 49.222 5.706 48.97 5.79 48.856C5.436 48.862 4.158 48.862 3.876 48.862C2.394 48.862 1.302 48.574 0.828 46.93ZM0.564 46.732C0.564 46.624 0.954 46.45 0.954 46.45V46.444C1.32 45.94 1.728 45.208 2.064 44.446L1.716 44.212L1.512 44.302V44.332C1.272 45.004 0.864 45.718 0.732 45.904C0.612 46.102 0.456 46.252 0.336 46.282C0.408 46.396 0.522 46.618 0.564 46.732ZM6.702 45.532V45.94H8.784V45.532H6.702ZM7.5 45.658V46.924H8.022V45.658H7.5ZM6.63 46.894L6.702 47.356C7.278 47.272 8.058 47.164 8.802 47.05L8.784 46.612C7.992 46.726 7.176 46.834 6.63 46.894ZM9.636 45.622V46.084C9.636 46.438 9.486 46.804 8.73 47.08C8.832 47.146 9.024 47.32 9.096 47.416C9.918 47.092 10.116 46.576 10.116 46.096V45.622H9.636ZM10.656 45.502V46.702C10.656 47.056 10.692 47.164 10.782 47.254C10.872 47.338 11.016 47.374 11.148 47.374C11.22 47.374 11.364 47.374 11.442 47.374C11.538 47.374 11.658 47.356 11.73 47.32C11.82 47.278 11.874 47.206 11.916 47.11C11.946 47.008 11.976 46.762 11.982 46.534C11.856 46.492 11.7 46.414 11.604 46.336C11.598 46.546 11.592 46.708 11.58 46.78C11.568 46.852 11.544 46.888 11.526 46.9C11.502 46.918 11.46 46.924 11.424 46.924C11.382 46.924 11.322 46.924 11.292 46.924C11.262 46.924 11.232 46.918 11.214 46.9C11.19 46.876 11.19 46.81 11.19 46.708V45.502H10.656ZM6.6 47.65V48.106H12.006V47.65H6.6ZM9.018 47.284V49.498H9.57V47.284H9.018ZM8.898 46.384C9.384 46.6 10.056 46.924 10.398 47.128L10.602 46.744C10.254 46.558 9.582 46.252 9.102 46.054L8.898 46.384ZM9 45.502V45.886H10.836V45.502H9ZM7.35 44.278V44.716H9.246V44.278H7.35ZM9.798 44.278V44.716H12.048V44.278H9.798ZM7.428 43.888C7.23 44.302 6.882 44.71 6.516 44.98C6.63 45.076 6.822 45.268 6.906 45.37C7.284 45.046 7.686 44.542 7.932 44.038L7.428 43.888ZM9.858 43.888C9.696 44.326 9.39 44.746 9.036 45.022C9.156 45.1 9.366 45.274 9.462 45.364C9.822 45.046 10.176 44.536 10.38 44.026L9.858 43.888ZM7.752 44.902C7.932 45.082 8.16 45.34 8.268 45.502L8.652 45.202C8.538 45.04 8.304 44.8 8.118 44.632L7.752 44.902ZM10.374 44.884C10.554 45.058 10.764 45.292 10.866 45.448L11.274 45.154C11.166 45.004 10.944 44.782 10.764 44.626L10.374 44.884ZM8.196 48.19C7.854 48.526 7.2 48.82 6.594 48.952C6.72 49.066 6.888 49.282 6.966 49.42C7.608 49.228 8.28 48.832 8.664 48.37L8.196 48.19ZM9.942 48.502C10.476 48.742 11.172 49.12 11.52 49.372L11.922 48.976C11.556 48.724 10.848 48.37 10.314 48.154L9.942 48.502ZM15.756 43.936C15.564 44.836 15.216 45.7 14.724 46.234C14.844 46.306 15.066 46.468 15.156 46.558C15.654 45.958 16.05 45.028 16.272 44.038L15.756 43.936ZM17.802 44.914V45.04C17.688 47.638 17.562 48.586 17.376 48.802C17.304 48.886 17.25 48.91 17.154 48.91C17.04 48.91 16.812 48.904 16.566 48.88C16.656 49.036 16.71 49.276 16.722 49.438C16.986 49.456 17.244 49.456 17.406 49.432C17.598 49.402 17.718 49.342 17.85 49.162C18.084 48.862 18.204 47.902 18.33 45.184C18.336 45.112 18.342 44.914 18.342 44.914H17.802ZM15.81 44.914L15.558 45.442H18.036V44.914H15.81ZM16.338 45.082C16.098 46.114 15.546 47.26 14.844 47.812C14.994 47.896 15.174 48.028 15.288 48.136C15.954 47.536 16.506 46.342 16.758 45.292L16.338 45.082ZM17.184 45.13C16.902 46.702 16.254 48.304 15.21 49.054C15.366 49.132 15.57 49.276 15.678 49.39C16.68 48.574 17.334 46.93 17.634 45.34L17.184 45.13ZM12.786 47.242L12.93 47.788C13.548 47.602 14.364 47.35 15.12 47.11L15.048 46.612C14.226 46.852 13.362 47.104 12.786 47.242ZM13.89 43.942V49.504H14.412V43.942H13.89ZM13.122 44.284C13.062 45.01 12.948 45.766 12.738 46.264C12.852 46.318 13.068 46.45 13.152 46.516C13.374 45.982 13.524 45.16 13.608 44.362L13.122 44.284ZM13.218 45.136L13.116 45.682H14.982V45.136H13.218ZM22.512 47.374C22.986 48.028 23.562 48.928 23.832 49.486L24.408 49.174C24.12 48.628 23.55 47.776 23.064 47.122L22.512 47.374ZM20.742 44.098C20.37 44.992 19.74 45.874 19.08 46.426C19.224 46.534 19.476 46.774 19.584 46.9C20.244 46.276 20.928 45.286 21.366 44.296L20.742 44.098ZM19.848 49.252C19.848 49.126 20.292 48.922 20.292 48.922V48.91C21.018 48.178 21.768 47.128 22.362 46.072L21.708 45.796C21.216 46.81 20.448 47.866 20.196 48.136C19.962 48.412 19.8 48.592 19.62 48.64C19.704 48.808 19.812 49.126 19.848 49.252ZM19.848 49.252C20.118 49.144 20.502 49.126 23.85 48.88C23.814 48.748 23.754 48.508 23.724 48.334L20.226 48.55L19.83 48.766L19.848 49.252ZM22.518 44.086V44.41H22.65C22.968 45.352 23.574 46.318 24.33 46.888C24.426 46.714 24.636 46.456 24.768 46.336C24.042 45.874 23.46 44.992 23.184 44.086H22.518ZM21.696 44.086V44.668H22.986V44.086H21.696ZM26.826 43.984V47.38H27.414V43.984H26.826ZM28.98 43.984V47.38H29.574V43.984H28.98ZM25.476 47.014V47.566H30.942V47.014H25.476ZM25.704 45.16V45.706H30.738V45.16H25.704ZM28.674 48.136C29.226 48.556 29.952 49.144 30.3 49.504L30.852 49.168C30.468 48.802 29.718 48.238 29.184 47.848L28.674 48.136ZM27.102 47.866C26.778 48.292 26.118 48.802 25.536 49.114C25.668 49.21 25.878 49.39 25.992 49.51C26.592 49.168 27.264 48.616 27.702 48.094L27.102 47.866ZM32.112 44.59V45.178H36.906V44.59H32.112ZM31.788 48.496V49.066H37.224V48.496H31.788ZM34.158 44.902V48.73H34.8V44.902H34.158ZM41.58 46.78V49.204H42.144V46.78H41.58ZM40.134 48.868V49.366H43.542V48.868H40.134ZM40.452 47.686V48.166H43.296V47.686H40.452ZM41.034 44.704H42.702V45.718H41.034V44.704ZM40.506 44.224V46.204H43.248V44.224H40.506ZM43.014 46.36C42.372 46.54 41.256 46.654 40.314 46.708C40.368 46.828 40.428 47.02 40.446 47.14C41.412 47.104 42.588 46.99 43.368 46.786L43.014 46.36ZM39 44.464V49.498H39.552V44.464H39ZM38.07 45.628V46.156H40.254V45.628H38.07ZM39.03 45.838C38.826 46.546 38.37 47.452 37.944 47.932C38.04 48.07 38.166 48.304 38.22 48.466C38.682 47.896 39.138 46.834 39.372 45.982L39.03 45.838ZM39.936 44.014C39.48 44.218 38.7 44.392 38.016 44.506C38.082 44.626 38.154 44.818 38.184 44.938C38.892 44.848 39.732 44.686 40.326 44.452L39.936 44.014ZM39.534 46.426L39.276 46.654C39.462 46.876 39.876 47.44 40.02 47.704L40.35 47.254C40.23 47.116 39.684 46.552 39.534 46.426ZM44.616 44.608V45.886H45.186V45.142H48.99V45.886H49.59V44.608H44.616ZM48.108 45.772C47.868 47.938 46.884 48.682 44.508 48.952C44.628 49.096 44.808 49.372 44.862 49.522C47.322 49.132 48.42 48.262 48.792 45.82L48.108 45.772ZM44.484 46.342V46.882H49.728V46.342H44.484ZM46.56 44.038C46.692 44.314 46.848 44.68 46.92 44.902L47.574 44.722C47.496 44.506 47.322 44.152 47.184 43.888L46.56 44.038ZM45.204 47.698C46.596 48.13 48.384 48.922 49.248 49.51L49.674 49.012C48.738 48.412 46.926 47.674 45.576 47.272L45.204 47.698ZM45.204 47.698L45.912 47.74C46.296 47.182 46.83 46.258 47.13 45.466L46.482 45.346C46.194 46.12 45.642 47.092 45.204 47.698ZM51.45 47.458V47.956H55.332V47.458H51.45ZM51.726 46.132V46.636H55.068V46.132H51.726ZM50.856 48.844V49.354H55.974V48.844H50.856ZM53.082 46.348V49.126H53.676V46.348H53.082ZM51.756 44.11V44.638H53.646V44.11H51.756ZM53.07 44.11V44.428H53.232C53.838 45.268 54.84 46.126 55.848 46.6C55.932 46.444 56.118 46.21 56.232 46.09C55.248 45.7 54.24 44.914 53.7 44.11H53.07ZM53.166 44.11C52.62 44.878 51.51 45.754 50.58 46.168C50.712 46.288 50.856 46.486 50.934 46.624C51.87 46.138 52.986 45.22 53.58 44.398L53.166 44.11ZM57.042 45.082V45.604H58.68V45.082H57.042ZM57.714 43.936V49.504H58.17V43.936H57.714ZM57.672 45.418C57.54 46.204 57.234 47.164 56.91 47.674C56.988 47.818 57.102 48.07 57.15 48.232C57.498 47.632 57.804 46.48 57.948 45.544L57.672 45.418ZM58.134 45.898L57.93 46.114C58.074 46.36 58.41 47.02 58.524 47.32L58.788 46.918C58.692 46.75 58.254 46.054 58.134 45.898ZM59.61 45.286V45.73H61.404V45.286H59.61ZM59.376 46.504H59.91V47.194H59.376V46.504ZM58.95 46.108V47.59H60.348V46.108H58.95ZM61.098 46.504H61.662V47.194H61.098V46.504ZM60.678 46.108V47.59H62.106V46.108H60.678ZM59.448 47.692C59.262 48.328 58.86 48.844 58.32 49.162C58.434 49.246 58.62 49.432 58.698 49.528C59.256 49.144 59.718 48.544 59.946 47.8L59.448 47.692ZM59.418 48.478C59.67 48.646 59.982 48.898 60.132 49.066L60.426 48.688C60.27 48.526 59.952 48.298 59.694 48.142L59.418 48.478ZM61.122 47.686C60.996 48.322 60.69 48.838 60.21 49.15C60.318 49.228 60.51 49.42 60.582 49.51C61.11 49.132 61.47 48.532 61.632 47.764L61.122 47.686ZM61.002 48.508C61.398 48.772 61.902 49.168 62.142 49.426L62.484 49.036C62.238 48.784 61.716 48.412 61.326 48.166L61.002 48.508ZM60.324 43.876C59.982 44.44 59.328 45.022 58.614 45.388C58.728 45.478 58.908 45.67 58.992 45.778C59.742 45.364 60.444 44.758 60.87 44.068L60.324 43.876ZM60.552 44.074L60.156 44.338C60.648 44.872 61.524 45.442 62.28 45.772C62.316 45.622 62.424 45.382 62.514 45.244C61.818 45.004 60.972 44.53 60.552 44.074ZM64.884 47.638H67.062V48.07H64.884V47.638ZM64.884 46.834H67.062V47.26H64.884V46.834ZM64.326 46.444V48.46H67.65V46.444H64.326ZM63.33 44.662V45.154H68.676V44.662H63.33ZM65.694 43.936V46.594H66.258V43.936H65.694ZM65.43 44.812C64.974 45.472 64.074 46.096 63.21 46.384C63.33 46.498 63.492 46.702 63.576 46.84C64.47 46.48 65.382 45.79 65.91 44.998L65.43 44.812ZM63.408 48.82V49.324H68.604V48.82H63.408ZM66.042 45.154C66.804 45.634 67.8 46.342 68.274 46.792L68.646 46.378C68.136 45.928 67.128 45.256 66.384 44.806L66.042 45.154ZM69.564 47.74V48.196H75.036V47.74H69.564ZM69.738 44.368V44.806H74.802V44.368H69.738ZM73.086 47.368V48.916C73.086 48.994 73.056 49.018 72.96 49.024C72.864 49.024 72.522 49.024 72.192 49.012C72.264 49.156 72.336 49.36 72.36 49.504C72.834 49.504 73.152 49.504 73.368 49.432C73.578 49.354 73.632 49.21 73.632 48.934V47.368H73.086ZM72.006 43.942V47.17H72.564V43.942H72.006ZM70.524 48.43C70.872 48.652 71.28 48.988 71.478 49.222L71.892 48.856C71.688 48.622 71.256 48.304 70.914 48.1L70.524 48.43ZM70.74 46.102H73.878V46.414H70.74V46.102ZM70.74 45.454H73.878V45.76H70.74V45.454ZM70.206 45.094V46.774H74.436V45.094H70.206ZM73.17 46.888C73.626 47.062 74.184 47.38 74.472 47.62L74.808 47.314C74.514 47.092 73.962 46.786 73.5 46.618L73.17 46.888ZM69.81 47.068L69.834 47.494C70.974 47.476 72.684 47.446 74.292 47.398L74.316 47.032C72.666 47.062 70.908 47.074 69.81 47.068ZM75.96 47.626V48.1H81.258V47.626H75.96ZM75.978 44.968V45.424H81.234V44.968H75.978ZM76.224 46.03V46.474H81.012V46.03H76.224ZM76.524 46.84V47.26H80.724V46.84H76.524ZM78.306 46.24V49.51H78.87V46.24H78.306ZM77.778 43.93V45.196H78.306V43.93H77.778ZM78.9 43.93V45.166H79.44V43.93H78.9ZM80.292 43.996C80.196 44.266 80.016 44.65 79.86 44.896L80.322 45.046C80.484 44.812 80.694 44.476 80.88 44.146L80.292 43.996ZM79.53 45.394C79.452 45.556 79.296 45.802 79.182 45.97L79.656 46.114C79.794 45.97 79.962 45.766 80.124 45.55L79.53 45.394ZM76.446 44.152C76.632 44.428 76.83 44.806 76.908 45.046L77.418 44.854C77.34 44.614 77.13 44.248 76.932 43.984L76.446 44.152ZM77.172 45.508C77.292 45.694 77.418 45.946 77.466 46.102L78.018 45.964C77.958 45.802 77.826 45.562 77.706 45.388L77.172 45.508ZM77.664 48.358C77.286 48.604 76.548 48.826 75.93 48.922C76.044 49.024 76.2 49.21 76.272 49.336C76.896 49.198 77.658 48.886 78.078 48.55L77.664 48.358ZM79.2 48.61C79.746 48.82 80.49 49.138 80.862 49.33L81.246 49C80.844 48.808 80.1 48.514 79.566 48.322L79.2 48.61ZM82.242 45.082V45.604H83.88V45.082H82.242ZM82.914 43.936V49.504H83.37V43.936H82.914ZM82.872 45.418C82.74 46.204 82.434 47.164 82.11 47.674C82.188 47.818 82.302 48.07 82.35 48.232C82.698 47.632 83.004 46.48 83.148 45.544L82.872 45.418ZM83.334 45.898L83.13 46.114C83.274 46.36 83.61 47.02 83.724 47.32L83.988 46.918C83.892 46.75 83.454 46.054 83.334 45.898ZM84.81 45.286V45.73H86.604V45.286H84.81ZM84.576 46.504H85.11V47.194H84.576V46.504ZM84.15 46.108V47.59H85.548V46.108H84.15ZM86.298 46.504H86.862V47.194H86.298V46.504ZM85.878 46.108V47.59H87.306V46.108H85.878ZM84.648 47.692C84.462 48.328 84.06 48.844 83.52 49.162C83.634 49.246 83.82 49.432 83.898 49.528C84.456 49.144 84.918 48.544 85.146 47.8L84.648 47.692ZM84.618 48.478C84.87 48.646 85.182 48.898 85.332 49.066L85.626 48.688C85.47 48.526 85.152 48.298 84.894 48.142L84.618 48.478ZM86.322 47.686C86.196 48.322 85.89 48.838 85.41 49.15C85.518 49.228 85.71 49.42 85.782 49.51C86.31 49.132 86.67 48.532 86.832 47.764L86.322 47.686ZM86.202 48.508C86.598 48.772 87.102 49.168 87.342 49.426L87.684 49.036C87.438 48.784 86.916 48.412 86.526 48.166L86.202 48.508ZM85.524 43.876C85.182 44.44 84.528 45.022 83.814 45.388C83.928 45.478 84.108 45.67 84.192 45.778C84.942 45.364 85.644 44.758 86.07 44.068L85.524 43.876ZM85.752 44.074L85.356 44.338C85.848 44.872 86.724 45.442 87.48 45.772C87.516 45.622 87.624 45.382 87.714 45.244C87.018 45.004 86.172 44.53 85.752 44.074ZM90.084 47.638H92.262V48.07H90.084V47.638ZM90.084 46.834H92.262V47.26H90.084V46.834ZM89.526 46.444V48.46H92.85V46.444H89.526ZM88.53 44.662V45.154H93.876V44.662H88.53ZM90.894 43.936V46.594H91.458V43.936H90.894ZM90.63 44.812C90.174 45.472 89.274 46.096 88.41 46.384C88.53 46.498 88.692 46.702 88.776 46.84C89.67 46.48 90.582 45.79 91.11 44.998L90.63 44.812ZM88.608 48.82V49.324H93.804V48.82H88.608ZM91.242 45.154C92.004 45.634 93 46.342 93.474 46.792L93.846 46.378C93.336 45.928 92.328 45.256 91.584 44.806L91.242 45.154ZM97.146 43.954C97.122 44.92 97.194 47.752 94.716 49.036C94.896 49.162 95.082 49.342 95.184 49.492C97.716 48.076 97.758 45.094 97.788 43.954H97.146ZM97.728 44.686L97.182 44.746C97.266 45.304 97.494 48.322 99.906 49.462C99.99 49.3 100.152 49.108 100.32 48.976C97.998 47.938 97.776 45.142 97.728 44.686ZM1.308 57.634V58.186H4.656V57.634H1.308ZM1.026 55.924V58.504H1.602V56.464H4.362V58.492H4.968V55.924H1.026ZM3.546 53.86C4.128 54.4 4.812 55.168 5.106 55.672L5.586 55.324C5.274 54.82 4.56 54.076 3.99 53.56L3.546 53.86ZM0.756 55.462C0.756 55.354 1.11 55.186 1.11 55.186V55.168C1.74 54.652 2.418 53.914 2.982 53.128L2.412 52.882C1.968 53.614 1.284 54.364 1.068 54.562C0.87 54.754 0.72 54.88 0.57 54.91C0.636 55.06 0.732 55.348 0.756 55.462ZM0.756 55.462C1.038 55.366 1.434 55.354 4.98 55.168C4.956 55.048 4.932 54.814 4.926 54.658L1.152 54.814L0.75 55.018L0.756 55.462ZM9.3 54.04V54.328H10.428V54.04H9.3ZM9.3 54.496V54.784H10.428V54.496H9.3ZM8.418 57.262V57.622H11.46V57.262H8.418ZM9.12 53.536V53.854H10.566V53.536H9.12ZM9.636 55.258H10.068V55.594H9.636V55.258ZM9.288 54.976V55.876H10.428V54.976H9.288ZM8.52 56.668V57.004H11.544V56.062H8.154V56.404H11.016V56.668H8.52ZM8.358 56.668C8.286 56.98 8.19 57.352 8.094 57.622H8.622C8.706 57.364 8.802 56.998 8.88 56.668H8.358ZM11.286 57.262L11.28 57.322C11.196 57.754 11.106 57.976 10.998 58.054C10.932 58.096 10.866 58.102 10.74 58.102C10.584 58.102 10.188 58.096 9.816 58.06C9.9 58.18 9.96 58.36 9.972 58.486C10.35 58.504 10.716 58.504 10.902 58.504C11.124 58.498 11.268 58.474 11.4 58.372C11.568 58.24 11.682 57.976 11.784 57.472C11.808 57.406 11.82 57.262 11.82 57.262H11.286ZM6.612 53.392C6.912 53.578 7.284 53.86 7.452 54.064L7.8 53.638C7.614 53.44 7.242 53.182 6.936 53.014L6.612 53.392ZM6.48 54.994C6.786 55.162 7.176 55.432 7.35 55.618L7.68 55.186C7.494 55 7.104 54.754 6.798 54.604L6.48 54.994ZM6.606 58.144L7.11 58.438C7.35 57.868 7.608 57.142 7.806 56.512L7.362 56.218C7.134 56.908 6.828 57.676 6.606 58.144ZM8.676 54.334C8.79 54.532 8.904 54.802 8.952 54.97L9.21 54.85C9.174 54.694 9.048 54.436 8.934 54.244L8.676 54.334ZM8.724 55.114C8.814 55.324 8.892 55.6 8.916 55.774L9.174 55.666C9.156 55.492 9.066 55.228 8.97 55.03L8.724 55.114ZM7.866 55.138C7.824 55.39 7.764 55.654 7.65 55.852C7.722 55.894 7.854 55.978 7.908 56.032C8.022 55.822 8.112 55.504 8.166 55.21L7.866 55.138ZM7.836 54.148C7.836 54.094 8.04 54.01 8.04 54.01V54.004C8.25 53.77 8.466 53.428 8.61 53.098L8.274 52.984C8.184 53.302 7.968 53.656 7.902 53.734C7.842 53.824 7.794 53.884 7.716 53.896C7.758 53.962 7.818 54.094 7.836 54.148ZM7.836 54.148C7.914 54.118 8.058 54.094 8.664 54.046C8.664 53.974 8.688 53.848 8.712 53.758L8.028 53.794L7.824 53.896L7.836 54.148ZM7.848 54.964C7.848 54.904 8.082 54.82 8.082 54.82V54.808C8.43 54.502 8.772 54.058 9.03 53.638L8.712 53.494C8.502 53.926 8.136 54.382 8.016 54.496C7.908 54.61 7.83 54.688 7.734 54.706C7.776 54.772 7.836 54.91 7.848 54.964ZM7.848 54.964C7.944 54.922 8.106 54.886 9.012 54.766C8.982 54.7 8.958 54.574 8.946 54.496L8.016 54.598L7.83 54.7L7.848 54.964ZM8.268 55.198C8.334 55.432 8.382 55.732 8.388 55.924L8.67 55.828C8.664 55.648 8.61 55.36 8.538 55.132L8.268 55.198ZM9.516 53.08C9.6 53.23 9.702 53.434 9.738 53.572L10.134 53.464C10.086 53.344 9.984 53.134 9.894 52.996L9.516 53.08ZM11.496 54.328C11.616 54.538 11.736 54.808 11.784 54.982L12.048 54.874C12 54.706 11.874 54.436 11.748 54.238L11.496 54.328ZM11.538 55.108C11.646 55.354 11.742 55.678 11.766 55.882L12.03 55.768C12 55.57 11.898 55.258 11.784 55.018L11.538 55.108ZM10.686 55.114C10.644 55.366 10.584 55.63 10.47 55.828C10.548 55.87 10.674 55.954 10.728 56.014C10.842 55.798 10.932 55.48 10.986 55.186L10.686 55.114ZM10.656 54.142C10.656 54.088 10.86 53.998 10.86 53.998V53.992C11.07 53.758 11.292 53.416 11.424 53.098L11.094 52.972C10.998 53.296 10.788 53.644 10.722 53.728C10.662 53.818 10.608 53.878 10.542 53.884C10.578 53.956 10.638 54.088 10.656 54.142ZM10.656 54.142C10.734 54.112 10.878 54.088 11.484 54.04C11.484 53.968 11.502 53.842 11.526 53.752L10.848 53.788L10.644 53.89L10.656 54.142ZM10.674 54.958C10.674 54.898 10.902 54.808 10.902 54.808V54.802C11.25 54.49 11.592 54.052 11.85 53.626L11.526 53.488C11.316 53.92 10.956 54.376 10.836 54.484C10.734 54.604 10.65 54.682 10.554 54.694C10.596 54.766 10.656 54.898 10.674 54.958ZM10.674 54.958C10.764 54.916 10.926 54.88 11.832 54.754C11.808 54.688 11.778 54.568 11.766 54.484L10.836 54.592L10.65 54.694L10.674 54.958ZM11.076 55.198C11.148 55.45 11.202 55.78 11.202 55.984L11.49 55.888C11.484 55.696 11.424 55.378 11.34 55.126L11.076 55.198ZM13.824 56.518V56.878H17.334V56.518H13.824ZM13.83 55.774V56.17H17.106V57.226H13.83V57.622H17.664V55.774H13.83ZM15.276 55.978V57.736C15.276 58.288 15.486 58.426 16.224 58.426C16.386 58.426 17.394 58.426 17.562 58.426C18.168 58.426 18.336 58.234 18.408 57.508C18.258 57.478 18.042 57.406 17.922 57.322C17.892 57.886 17.832 57.982 17.52 57.982C17.292 57.982 16.44 57.982 16.266 57.982C15.894 57.982 15.822 57.946 15.822 57.73V55.978H15.276ZM13.542 55.774V57.916H14.088V55.774H13.542ZM13.272 53.164V53.554H17.904V53.164H13.272ZM15.3 53.266V55.576H15.852V53.266H15.3ZM13.008 53.878V55.198H13.548V54.262H17.628V55.198H18.198V53.878H13.008ZM13.59 55.216L13.746 55.63C14.13 55.546 14.586 55.45 15.042 55.348L15.024 55.012C14.49 55.09 13.968 55.168 13.59 55.216ZM13.764 54.61C14.136 54.688 14.616 54.832 14.874 54.94L15.03 54.616C14.772 54.508 14.286 54.382 13.92 54.322L13.764 54.61ZM17.22 54.28C16.938 54.388 16.452 54.556 16.128 54.628L16.314 54.91C16.644 54.844 17.118 54.73 17.454 54.592L17.22 54.28ZM16.044 55.3C16.506 55.366 17.124 55.516 17.448 55.63L17.562 55.264C17.232 55.15 16.62 55.018 16.164 54.97L16.044 55.3ZM19.374 54.22V54.802H24.006V54.22H19.374ZM23.778 54.22V54.34C23.664 56.65 23.538 57.592 23.316 57.802C23.238 57.88 23.166 57.898 23.04 57.898C22.884 57.898 22.512 57.892 22.116 57.862C22.224 58.024 22.302 58.276 22.308 58.444C22.68 58.462 23.058 58.474 23.274 58.444C23.52 58.42 23.676 58.366 23.832 58.162C24.102 57.856 24.222 56.956 24.354 54.508C24.36 54.424 24.366 54.22 24.366 54.22H23.778ZM21.282 52.948V54.076C21.282 55.282 21.132 56.968 19.194 58.078C19.332 58.18 19.542 58.396 19.632 58.534C21.702 57.316 21.882 55.438 21.882 54.076V52.948H21.282ZM28.812 56.374C29.286 57.028 29.862 57.928 30.132 58.486L30.708 58.174C30.42 57.628 29.85 56.776 29.364 56.122L28.812 56.374ZM27.042 53.098C26.67 53.992 26.04 54.874 25.38 55.426C25.524 55.534 25.776 55.774 25.884 55.9C26.544 55.276 27.228 54.286 27.666 53.296L27.042 53.098ZM26.148 58.252C26.148 58.126 26.592 57.922 26.592 57.922V57.91C27.318 57.178 28.068 56.128 28.662 55.072L28.008 54.796C27.516 55.81 26.748 56.866 26.496 57.136C26.262 57.412 26.1 57.592 25.92 57.64C26.004 57.808 26.112 58.126 26.148 58.252ZM26.148 58.252C26.418 58.144 26.802 58.126 30.15 57.88C30.114 57.748 30.054 57.508 30.024 57.334L26.526 57.55L26.13 57.766L26.148 58.252ZM28.818 53.086V53.41H28.95C29.268 54.352 29.874 55.318 30.63 55.888C30.726 55.714 30.936 55.456 31.068 55.336C30.342 54.874 29.76 53.992 29.484 53.086H28.818ZM27.996 53.086V53.668H29.286V53.086H27.996ZM32.004 53.314V53.854H36.504V53.314H32.004ZM32.052 54.4V54.898H35.64V54.4H32.052ZM36.288 53.314V57.724C36.288 57.838 36.252 57.868 36.144 57.868C36.018 57.874 35.616 57.88 35.232 57.862C35.316 58.03 35.4 58.312 35.424 58.48C35.964 58.48 36.342 58.468 36.57 58.372C36.804 58.27 36.87 58.084 36.87 57.73V53.314H36.288ZM32.4 55.456V57.874H32.952V55.456H32.4ZM32.874 55.456V55.954H34.71V56.938H32.874V57.43H35.268V55.456H32.874ZM39.9577 54.76V55.198H41.7637V54.76H39.9577ZM39.9577 55.558V55.996H41.7757V55.558H39.9577ZM39.7057 53.944V54.406H42.0217V53.944H39.7057ZM40.2097 56.374V56.836H41.2717V57.694H40.2097V58.156H41.7697V56.374H40.2097ZM39.9577 56.374V58.426H40.4497V56.374H39.9577ZM40.3357 53.128C40.4977 53.38 40.6897 53.734 40.7737 53.956L41.2357 53.698C41.1397 53.482 40.9477 53.158 40.7797 52.912L40.3357 53.128ZM42.5917 53.146V53.674H44.1697V53.146H42.5917ZM41.9377 55.57V56.098H44.5837V55.57H41.9377ZM44.3797 55.57V55.66C44.0137 56.926 42.9577 57.706 41.7157 57.994C41.8177 58.12 41.9437 58.354 42.0037 58.504C43.3657 58.114 44.4877 57.274 44.9377 55.696L44.5837 55.546L44.4877 55.57H44.3797ZM42.6397 56.044L42.1537 56.212C42.6877 57.37 43.6057 58.156 44.9137 58.492C44.9857 58.336 45.1417 58.096 45.2677 57.976C44.0137 57.712 43.0837 57.01 42.6397 56.044ZM42.4897 53.146V53.8C42.4897 54.214 42.3997 54.682 41.7457 55.036C41.8477 55.12 42.0457 55.336 42.1117 55.45C42.8497 55.036 43.0117 54.376 43.0117 53.818V53.146H42.4897ZM43.8877 53.146V54.496C43.8877 55.018 43.9837 55.222 44.4517 55.222C44.5297 55.222 44.7337 55.222 44.8117 55.222C44.9317 55.222 45.0517 55.216 45.1297 55.18C45.1057 55.054 45.0937 54.844 45.0877 54.706C45.0097 54.724 44.8897 54.736 44.8117 54.736C44.7517 54.736 44.5597 54.736 44.4997 54.736C44.4217 54.736 44.4157 54.676 44.4157 54.502V53.146H43.8877ZM46.3717 54.76V55.198H48.3637V54.76H46.3717ZM46.3717 55.558V55.996H48.3517V55.558H46.3717ZM46.1077 53.944V54.406H48.6157V53.944H46.1077ZM46.6537 56.374V56.836H47.8717V57.694H46.6537V58.156H48.3637V56.374H46.6537ZM46.4077 56.374V58.426H46.8937V56.374H46.4077ZM46.7977 53.128C46.9597 53.38 47.1517 53.734 47.2417 53.956L47.6917 53.698C47.5957 53.482 47.4097 53.158 47.2417 52.912L46.7977 53.128ZM48.6037 54.982V55.54H51.4957V54.982H48.6037ZM49.7257 53.044V58.504H50.3137V53.044H49.7257ZM52.6597 53.59V54.178H57.4537V53.59H52.6597ZM52.3357 57.496V58.066H57.7717V57.496H52.3357ZM54.7057 53.902V57.73H55.3477V53.902H54.7057ZM62.1277 55.78V58.204H62.6917V55.78H62.1277ZM60.6817 57.868V58.366H64.0897V57.868H60.6817ZM60.9997 56.686V57.166H63.8437V56.686H60.9997ZM61.5817 53.704H63.2497V54.718H61.5817V53.704ZM61.0537 53.224V55.204H63.7957V53.224H61.0537ZM63.5617 55.36C62.9197 55.54 61.8037 55.654 60.8617 55.708C60.9157 55.828 60.9757 56.02 60.9937 56.14C61.9597 56.104 63.1357 55.99 63.9157 55.786L63.5617 55.36ZM59.5477 53.464V58.498H60.0997V53.464H59.5477ZM58.6177 54.628V55.156H60.8017V54.628H58.6177ZM59.5777 54.838C59.3737 55.546 58.9177 56.452 58.4917 56.932C58.5877 57.07 58.7137 57.304 58.7677 57.466C59.2297 56.896 59.6857 55.834 59.9197 54.982L59.5777 54.838ZM60.4837 53.014C60.0277 53.218 59.2477 53.392 58.5637 53.506C58.6297 53.626 58.7017 53.818 58.7317 53.938C59.4397 53.848 60.2797 53.686 60.8737 53.452L60.4837 53.014ZM60.0817 55.426L59.8237 55.654C60.0097 55.876 60.4237 56.44 60.5677 56.704L60.8977 56.254C60.7777 56.116 60.2317 55.552 60.0817 55.426ZM65.3197 53.836V54.316H66.4537V55.084H65.3197V55.57H66.9577V53.836H65.3197ZM65.3377 56.05V56.536H66.5077V57.436H65.3377V57.916H67.0177V56.05H65.3377ZM65.1037 53.836V58.312H65.6137V53.836H65.1037ZM67.1617 53.236V53.752H70.3957V53.236H67.1617ZM65.8297 52.93C65.7817 53.242 65.6677 53.674 65.5657 53.968L66.0157 54.058C66.1537 53.788 66.3217 53.374 66.4537 53.008L65.8297 52.93ZM68.5057 53.47V58.498H69.0397V53.47H68.5057ZM67.3777 54.406V57.592H67.8997V54.916H69.9697V54.406H67.3777ZM69.6997 54.406V57.04C69.6997 57.1 69.6817 57.118 69.6217 57.118C69.5677 57.124 69.3937 57.124 69.2017 57.118C69.2737 57.256 69.3397 57.466 69.3577 57.61C69.6697 57.61 69.8797 57.604 70.0357 57.514C70.1917 57.43 70.2277 57.286 70.2277 57.046V54.406H69.6997ZM1.308 66.634V67.186H4.656V66.634H1.308ZM1.026 64.924V67.504H1.602V65.464H4.362V67.492H4.968V64.924H1.026ZM3.546 62.86C4.128 63.4 4.812 64.168 5.106 64.672L5.586 64.324C5.274 63.82 4.56 63.076 3.99 62.56L3.546 62.86ZM0.756 64.462C0.756 64.354 1.11 64.186 1.11 64.186V64.168C1.74 63.652 2.418 62.914 2.982 62.128L2.412 61.882C1.968 62.614 1.284 63.364 1.068 63.562C0.87 63.754 0.72 63.88 0.57 63.91C0.636 64.06 0.732 64.348 0.756 64.462ZM0.756 64.462C1.038 64.366 1.434 64.354 4.98 64.168C4.956 64.048 4.932 63.814 4.926 63.658L1.152 63.814L0.75 64.018L0.756 64.462ZM9.3 63.04V63.328H10.428V63.04H9.3ZM9.3 63.496V63.784H10.428V63.496H9.3ZM8.418 66.262V66.622H11.46V66.262H8.418ZM9.12 62.536V62.854H10.566V62.536H9.12ZM9.636 64.258H10.068V64.594H9.636V64.258ZM9.288 63.976V64.876H10.428V63.976H9.288ZM8.52 65.668V66.004H11.544V65.062H8.154V65.404H11.016V65.668H8.52ZM8.358 65.668C8.286 65.98 8.19 66.352 8.094 66.622H8.622C8.706 66.364 8.802 65.998 8.88 65.668H8.358ZM11.286 66.262L11.28 66.322C11.196 66.754 11.106 66.976 10.998 67.054C10.932 67.096 10.866 67.102 10.74 67.102C10.584 67.102 10.188 67.096 9.816 67.06C9.9 67.18 9.96 67.36 9.972 67.486C10.35 67.504 10.716 67.504 10.902 67.504C11.124 67.498 11.268 67.474 11.4 67.372C11.568 67.24 11.682 66.976 11.784 66.472C11.808 66.406 11.82 66.262 11.82 66.262H11.286ZM6.612 62.392C6.912 62.578 7.284 62.86 7.452 63.064L7.8 62.638C7.614 62.44 7.242 62.182 6.936 62.014L6.612 62.392ZM6.48 63.994C6.786 64.162 7.176 64.432 7.35 64.618L7.68 64.186C7.494 64 7.104 63.754 6.798 63.604L6.48 63.994ZM6.606 67.144L7.11 67.438C7.35 66.868 7.608 66.142 7.806 65.512L7.362 65.218C7.134 65.908 6.828 66.676 6.606 67.144ZM8.676 63.334C8.79 63.532 8.904 63.802 8.952 63.97L9.21 63.85C9.174 63.694 9.048 63.436 8.934 63.244L8.676 63.334ZM8.724 64.114C8.814 64.324 8.892 64.6 8.916 64.774L9.174 64.666C9.156 64.492 9.066 64.228 8.97 64.03L8.724 64.114ZM7.866 64.138C7.824 64.39 7.764 64.654 7.65 64.852C7.722 64.894 7.854 64.978 7.908 65.032C8.022 64.822 8.112 64.504 8.166 64.21L7.866 64.138ZM7.836 63.148C7.836 63.094 8.04 63.01 8.04 63.01V63.004C8.25 62.77 8.466 62.428 8.61 62.098L8.274 61.984C8.184 62.302 7.968 62.656 7.902 62.734C7.842 62.824 7.794 62.884 7.716 62.896C7.758 62.962 7.818 63.094 7.836 63.148ZM7.836 63.148C7.914 63.118 8.058 63.094 8.664 63.046C8.664 62.974 8.688 62.848 8.712 62.758L8.028 62.794L7.824 62.896L7.836 63.148ZM7.848 63.964C7.848 63.904 8.082 63.82 8.082 63.82V63.808C8.43 63.502 8.772 63.058 9.03 62.638L8.712 62.494C8.502 62.926 8.136 63.382 8.016 63.496C7.908 63.61 7.83 63.688 7.734 63.706C7.776 63.772 7.836 63.91 7.848 63.964ZM7.848 63.964C7.944 63.922 8.106 63.886 9.012 63.766C8.982 63.7 8.958 63.574 8.946 63.496L8.016 63.598L7.83 63.7L7.848 63.964ZM8.268 64.198C8.334 64.432 8.382 64.732 8.388 64.924L8.67 64.828C8.664 64.648 8.61 64.36 8.538 64.132L8.268 64.198ZM9.516 62.08C9.6 62.23 9.702 62.434 9.738 62.572L10.134 62.464C10.086 62.344 9.984 62.134 9.894 61.996L9.516 62.08ZM11.496 63.328C11.616 63.538 11.736 63.808 11.784 63.982L12.048 63.874C12 63.706 11.874 63.436 11.748 63.238L11.496 63.328ZM11.538 64.108C11.646 64.354 11.742 64.678 11.766 64.882L12.03 64.768C12 64.57 11.898 64.258 11.784 64.018L11.538 64.108ZM10.686 64.114C10.644 64.366 10.584 64.63 10.47 64.828C10.548 64.87 10.674 64.954 10.728 65.014C10.842 64.798 10.932 64.48 10.986 64.186L10.686 64.114ZM10.656 63.142C10.656 63.088 10.86 62.998 10.86 62.998V62.992C11.07 62.758 11.292 62.416 11.424 62.098L11.094 61.972C10.998 62.296 10.788 62.644 10.722 62.728C10.662 62.818 10.608 62.878 10.542 62.884C10.578 62.956 10.638 63.088 10.656 63.142ZM10.656 63.142C10.734 63.112 10.878 63.088 11.484 63.04C11.484 62.968 11.502 62.842 11.526 62.752L10.848 62.788L10.644 62.89L10.656 63.142ZM10.674 63.958C10.674 63.898 10.902 63.808 10.902 63.808V63.802C11.25 63.49 11.592 63.052 11.85 62.626L11.526 62.488C11.316 62.92 10.956 63.376 10.836 63.484C10.734 63.604 10.65 63.682 10.554 63.694C10.596 63.766 10.656 63.898 10.674 63.958ZM10.674 63.958C10.764 63.916 10.926 63.88 11.832 63.754C11.808 63.688 11.778 63.568 11.766 63.484L10.836 63.592L10.65 63.694L10.674 63.958ZM11.076 64.198C11.148 64.45 11.202 64.78 11.202 64.984L11.49 64.888C11.484 64.696 11.424 64.378 11.34 64.126L11.076 64.198ZM13.176 67H13.878V62.584H13.176V67ZM17.0496 67.084C17.6256 67.084 18.0756 66.856 18.4296 66.442L18.0516 66.004C17.7936 66.292 17.4816 66.472 17.0796 66.472C16.2996 66.472 15.8076 65.83 15.8076 64.78C15.8076 63.748 16.3356 63.112 17.0976 63.112C17.4576 63.112 17.7336 63.274 17.9616 63.508L18.3336 63.058C18.0636 62.77 17.6376 62.506 17.0856 62.506C15.9696 62.506 15.0876 63.364 15.0876 64.804C15.0876 66.256 15.9456 67.084 17.0496 67.084ZM23.0825 63.946V64.42H24.6725V63.946H23.0825ZM20.2445 64.366V67.45H20.6405V64.792H22.2785V64.366H20.2445ZM21.1265 63.106V64.636H21.6065V63.106H21.1265ZM22.1165 64.366V66.922C22.1165 66.988 22.0925 67.006 22.0205 67.006C21.9545 67.012 21.7205 67.012 21.4745 67.006C21.5285 67.12 21.5825 67.3 21.6005 67.42C21.9545 67.426 22.1885 67.414 22.3445 67.348C22.4945 67.276 22.5365 67.15 22.5365 66.928V64.366H22.1165ZM21.0425 65.152V65.518H21.5765V66.184H21.0425V66.55H21.8465V65.152H21.0425ZM20.8985 65.152V66.754H21.1625V65.152H20.8985ZM23.0705 63.094C22.9385 63.856 22.7045 64.6 22.3505 65.086C22.4645 65.158 22.6565 65.332 22.7405 65.416C23.1185 64.876 23.4005 64.042 23.5625 63.184L23.0705 63.094ZM20.1545 63.43C20.3405 63.67 20.5205 64.006 20.5865 64.228L20.9645 64.042C20.8985 63.82 20.7065 63.496 20.5145 63.262L20.1545 63.43ZM23.2205 64.318L22.8425 64.39C23.0765 65.8 23.5325 66.952 24.4325 67.516C24.5105 67.384 24.6605 67.204 24.7685 67.114C23.9105 66.646 23.4425 65.572 23.2205 64.318ZM22.1165 63.25C22.0145 63.502 21.8225 63.874 21.6725 64.102L22.0325 64.234C22.1945 64.018 22.3805 63.694 22.5545 63.394L22.1165 63.25ZM19.8605 62.476V62.956H24.6545V62.476H19.8605ZM19.5245 62.476V64.312C19.5245 65.17 19.4945 66.352 19.0985 67.18C19.2185 67.234 19.4405 67.402 19.5305 67.504C19.9685 66.604 20.0405 65.236 20.0405 64.312V62.476H19.5245ZM23.9705 64.174C23.8385 65.362 23.4605 66.562 22.3865 67.174C22.4765 67.258 22.6085 67.438 22.6745 67.54C23.8445 66.868 24.2765 65.56 24.4625 64.228L23.9705 64.174ZM21.6965 62.026C21.8225 62.206 21.9605 62.47 22.0085 62.638L22.5425 62.41C22.4825 62.248 22.3385 62.008 22.2005 61.828L21.6965 62.026ZM28.2005 64.582C28.3385 64.792 28.4705 65.086 28.5185 65.278L29.1005 65.134C29.0405 64.942 28.9025 64.666 28.7585 64.462L28.2005 64.582ZM26.3645 64.96V65.416H30.9365V64.96H26.3645ZM27.9965 65.818V66.262H29.9285V65.818H27.9965ZM29.7725 65.818V65.884C29.7125 66.61 29.6405 66.91 29.5445 67C29.4905 67.048 29.4305 67.054 29.3285 67.054C29.2205 67.054 28.9325 67.048 28.6445 67.024C28.7285 67.15 28.7885 67.354 28.7945 67.498C29.1125 67.51 29.4125 67.516 29.5685 67.498C29.7545 67.486 29.8865 67.45 30.0065 67.336C30.1625 67.186 30.2465 66.826 30.3185 66.028C30.3305 65.956 30.3365 65.818 30.3365 65.818H29.7725ZM27.8345 65.152C27.7385 66.082 27.5225 66.736 26.2625 67.072C26.3825 67.18 26.5265 67.384 26.5805 67.516C27.9785 67.09 28.2845 66.292 28.3985 65.152H27.8345ZM26.4425 63.076V63.52H29.9765V64.018H26.4425V64.456H30.5405V63.076H26.4425ZM29.9825 61.948C29.0765 62.152 27.4865 62.314 26.1185 62.386C26.1725 62.5 26.2445 62.704 26.2625 62.836C27.6545 62.77 29.2925 62.614 30.4205 62.368L29.9825 61.948ZM26.1185 62.386V64.306C26.1185 65.182 26.0585 66.346 25.4285 67.15C25.5365 67.222 25.7585 67.444 25.8425 67.552C26.5625 66.682 26.6765 65.272 26.6765 64.312V62.386H26.1185ZM34.2305 65.374C33.7085 65.818 32.6765 66.166 31.7405 66.316C31.8485 66.424 31.9865 66.61 32.0525 66.736C33.0125 66.544 34.0685 66.118 34.6745 65.572L34.2305 65.374ZM34.8785 65.32L34.4165 65.428C34.8545 66.52 35.6765 67.174 36.9965 67.432C37.0625 67.294 37.2005 67.09 37.3085 66.976C36.0665 66.784 35.2445 66.226 34.8785 65.32ZM36.5525 65.656C36.2525 65.878 35.7365 66.178 35.3585 66.352L35.7065 66.634C36.0905 66.466 36.5825 66.214 36.9605 65.95L36.5525 65.656ZM31.8425 65.2V65.656H37.2185V65.2H31.8425ZM35.2565 62.242V64.222H35.7665V62.242H35.2565ZM36.4145 61.99V64.432C36.4145 64.51 36.3845 64.534 36.3005 64.534C36.2105 64.54 35.9225 64.54 35.6165 64.528C35.6885 64.66 35.7665 64.852 35.7905 64.99C36.2105 64.99 36.4925 64.984 36.6845 64.906C36.8705 64.834 36.9245 64.708 36.9245 64.444V61.99H36.4145ZM33.1325 61.936V65.008H33.6245V61.936H33.1325ZM34.2545 63.706V64.42C34.2545 64.468 34.2365 64.486 34.1885 64.486C34.1405 64.492 33.9905 64.492 33.8225 64.486C33.8705 64.582 33.9425 64.714 33.9605 64.828C34.2245 64.828 34.4105 64.828 34.5485 64.768C34.6865 64.708 34.7165 64.612 34.7165 64.42V63.706H34.2545ZM32.1005 63.706V64.858H32.5445V64.066H34.4465V63.706H32.1005ZM31.8245 63.04V63.436H34.8425V63.04H31.8245ZM32.4605 62.35L32.3105 62.728H34.6565V62.35H32.4605ZM32.3465 61.954C32.2445 62.272 32.0765 62.608 31.8725 62.842C31.9745 62.896 32.1665 62.998 32.2565 63.064C32.4545 62.812 32.6525 62.422 32.7785 62.056L32.3465 61.954ZM32.9645 67.528C33.0845 67.45 33.2765 67.396 34.8005 67.042C34.7945 66.94 34.8125 66.748 34.8245 66.616L33.1505 66.97L32.9405 67.138L32.9645 67.528ZM32.9705 67.522C32.9705 67.318 33.5585 66.952 33.5585 66.952V66.1H33.0365V66.622C33.0365 66.916 32.8805 67.048 32.7785 67.12C32.8445 67.204 32.9405 67.402 32.9705 67.522ZM34.1765 64.852C34.2845 65.056 34.4045 65.338 34.4405 65.506L34.9985 65.332C34.9505 65.164 34.8245 64.9 34.7045 64.708L34.1765 64.852ZM40.4705 62.662V63.148H43.2425V62.662H40.4705ZM39.7745 63.802V64.282H43.4885V63.802H39.7745ZM40.5305 62.008C40.3625 62.554 40.0625 63.1 39.7025 63.454C39.8345 63.514 40.0625 63.634 40.1705 63.718C40.5125 63.328 40.8425 62.734 41.0405 62.122L40.5305 62.008ZM41.3825 61.936V64.12H41.9405V61.936H41.3825ZM38.2865 62.2C38.5565 62.494 38.8985 62.914 39.0605 63.166L39.4925 62.854C39.3245 62.608 38.9885 62.23 38.7125 61.942L38.2865 62.2ZM38.1005 63.328V63.79H39.3485V63.328H38.1005ZM39.2345 66.016L38.8565 66.184C39.3005 67.24 40.0685 67.414 41.4665 67.414C42.1445 67.414 42.9065 67.402 43.4945 67.366C43.5245 67.21 43.6025 66.946 43.6805 66.832C43.0385 66.886 42.1085 66.922 41.4785 66.922C40.3325 66.916 39.5825 66.814 39.2345 66.016ZM39.1805 64.81V64.9C39.0245 65.98 38.5925 66.73 37.9625 67.132C38.0705 67.21 38.2625 67.408 38.3345 67.516C39.0005 67.06 39.4865 66.196 39.6845 64.9L39.4085 64.798L39.3185 64.81H39.1805ZM38.1965 65.344C38.2445 65.296 38.4065 65.26 38.5505 65.26H39.3425V64.81H38.4305L38.1965 64.93V65.344ZM38.1965 65.344C38.1965 65.212 38.5925 65.02 38.5925 65.02C38.9225 64.63 39.4325 63.862 39.7025 63.454L39.3425 63.304L39.1865 63.364L39.1925 63.382C39.0005 63.706 38.4665 64.504 38.2925 64.678C38.1905 64.798 38.0945 64.84 37.9985 64.87C38.0585 64.972 38.1605 65.224 38.1965 65.344ZM40.7645 65.158H42.5465V65.986H40.7645V65.158ZM40.2185 64.696V66.448H43.1165V64.696H40.2185ZM47.0645 62.932L46.8005 63.472H49.9265V62.932H47.0645ZM47.8325 64.24V64.756H49.7825V64.24H47.8325ZM47.8265 65.566V66.1H49.8605V65.566H47.8265ZM47.5445 63.112V67.504H48.1265V63.112H47.5445ZM47.2565 62.002C46.9685 62.878 46.4885 63.748 45.9485 64.3C46.0745 64.39 46.2965 64.594 46.3865 64.696C46.9385 64.072 47.4665 63.106 47.8025 62.146L47.2565 62.002ZM45.7505 61.96C45.4265 62.848 44.8805 63.73 44.3045 64.294C44.4065 64.432 44.5745 64.75 44.6285 64.882C45.2825 64.21 45.9065 63.154 46.2965 62.134L45.7505 61.96ZM45.1265 63.556V67.498H45.6965V62.992L45.6905 62.986L45.1265 63.556ZM50.7905 65.626V66.1H56.0885V65.626H50.7905ZM50.8085 62.968V63.424H56.0645V62.968H50.8085ZM51.0545 64.03V64.474H55.8425V64.03H51.0545ZM51.3545 64.84V65.26H55.5545V64.84H51.3545ZM53.1365 64.24V67.51H53.7005V64.24H53.1365ZM52.6085 61.93V63.196H53.1365V61.93H52.6085ZM53.7305 61.93V63.166H54.2705V61.93H53.7305ZM55.1225 61.996C55.0265 62.266 54.8465 62.65 54.6905 62.896L55.1525 63.046C55.3145 62.812 55.5245 62.476 55.7105 62.146L55.1225 61.996ZM54.3605 63.394C54.2825 63.556 54.1265 63.802 54.0125 63.97L54.4865 64.114C54.6245 63.97 54.7925 63.766 54.9545 63.55L54.3605 63.394ZM51.2765 62.152C51.4625 62.428 51.6605 62.806 51.7385 63.046L52.2485 62.854C52.1705 62.614 51.9605 62.248 51.7625 61.984L51.2765 62.152ZM52.0025 63.508C52.1225 63.694 52.2485 63.946 52.2965 64.102L52.8485 63.964C52.7885 63.802 52.6565 63.562 52.5365 63.388L52.0025 63.508ZM52.4945 66.358C52.1165 66.604 51.3785 66.826 50.7605 66.922C50.8745 67.024 51.0305 67.21 51.1025 67.336C51.7265 67.198 52.4885 66.886 52.9085 66.55L52.4945 66.358ZM54.0305 66.61C54.5765 66.82 55.3205 67.138 55.6925 67.33L56.0765 67C55.6745 66.808 54.9305 66.514 54.3965 66.322L54.0305 66.61ZM57.3545 63.76V64.198H59.3465V63.76H57.3545ZM57.3545 64.558V64.996H59.3345V64.558H57.3545ZM57.0905 62.944V63.406H59.5985V62.944H57.0905ZM57.6365 65.374V65.836H58.8545V66.694H57.6365V67.156H59.3465V65.374H57.6365ZM57.3905 65.374V67.426H57.8765V65.374H57.3905ZM57.7805 62.128C57.9425 62.38 58.1345 62.734 58.2245 62.956L58.6745 62.698C58.5785 62.482 58.3925 62.158 58.2245 61.912L57.7805 62.128ZM59.5865 63.982V64.54H62.4785V63.982H59.5865ZM60.7085 62.044V67.504H61.2965V62.044H60.7085ZM65.7425 65.374V66.58H66.2705V65.374H65.7425ZM63.3185 66.952V67.342H68.7485V66.952H63.3185ZM63.3365 62.884V63.214H68.7245V62.884H63.3365ZM63.3185 64.678V65.05H68.7545V64.678H63.3185ZM63.7685 64.084V64.408H68.3285V64.084H63.7685ZM63.9725 62.302V62.626H67.5185V63.496H63.9365V63.82H68.0945V62.302H63.9725ZM65.7125 61.93V64.84H66.2885V61.93H65.7125ZM64.5605 66.136H67.5245V66.412H64.5605V66.136ZM64.5605 65.584H67.5245V65.848H64.5605V65.584ZM64.0025 65.278V66.712H68.1005V65.278H64.0025ZM69.8045 62.518V62.998H72.0545V62.518H69.8045ZM69.5945 65.854V66.34H72.2645V65.854H69.5945ZM72.3005 63.106V63.634H74.3765V63.106H72.3005ZM69.5945 63.484V63.97H72.2225V63.484H69.5945ZM69.7805 64.84V65.32H72.1025V64.84H69.7805ZM70.6865 61.93V63.676H71.2145V61.93H70.6865ZM70.6985 64.99V67.492H71.2265V64.99H70.6985ZM72.1205 64.786C72.6965 65.194 73.3805 65.806 73.6805 66.238L74.0285 65.794C73.7165 65.374 73.0145 64.792 72.4325 64.396L72.1205 64.786ZM71.4425 63.988C71.3825 64.252 71.2565 64.636 71.1545 64.882L71.5685 64.996C71.6765 64.768 71.8025 64.426 71.9225 64.114L71.4425 63.988ZM69.9545 64.096C70.0865 64.336 70.2125 64.666 70.2545 64.87L70.6805 64.708C70.6385 64.504 70.5005 64.186 70.3625 63.952L69.9545 64.096ZM74.0105 63.106C74.0105 65.242 73.9505 67.228 74.5865 67.444C74.9165 67.57 75.1565 67.354 75.2045 66.418C75.1205 66.352 74.9645 66.166 74.8745 66.04C74.8625 66.49 74.8265 66.904 74.7905 66.898C74.5025 66.826 74.5205 64.924 74.5505 63.106H74.0105ZM72.9365 61.942V63.784C72.9365 64.846 72.8345 66.238 71.8205 67.18C71.9525 67.252 72.1625 67.42 72.2585 67.522C73.3325 66.502 73.4705 64.99 73.4705 63.79V61.942H72.9365ZM78.2705 62.29V62.83H81.2105V62.29H78.2705ZM79.9205 64.114V66.808C79.9205 66.904 79.8845 66.928 79.7705 66.934C79.6625 66.94 79.2605 66.94 78.8705 66.922C78.9485 67.09 79.0265 67.33 79.0505 67.492C79.6145 67.492 79.9745 67.486 80.2025 67.402C80.4305 67.312 80.5025 67.144 80.5025 66.82V64.114H79.9205ZM78.0065 63.952V64.492H81.3725V63.952H78.0065ZM76.7465 64.522V67.522H77.3105V64.054L77.2445 64.024L76.7465 64.522ZM77.4305 63.232C77.0285 63.916 76.3685 64.612 75.7505 65.05C75.8645 65.164 76.0625 65.416 76.1465 65.53C76.7825 65.014 77.5025 64.21 77.9705 63.436L77.4305 63.232ZM77.1965 61.936C76.8965 62.362 76.3145 62.902 75.8165 63.232C75.9125 63.346 76.0625 63.568 76.1405 63.694C76.6925 63.304 77.3225 62.704 77.7425 62.158L77.1965 61.936ZM82.5245 63.106V63.664H87.3245V63.106H82.5245ZM82.8185 64.864V65.416H87.0605V64.864H82.8185ZM82.2545 66.754V67.312H87.6245V66.754H82.2545ZM84.6185 63.574V67.048H85.2365V63.574H84.6185ZM84.0965 62.266C84.4925 62.554 84.9725 62.974 85.1945 63.25L85.6925 62.89C85.4465 62.608 84.9485 62.206 84.5645 61.948L84.0965 62.266ZM90.6965 63.82V64.336H93.7385V63.82H90.6965ZM90.4565 64.954V65.47H93.9725V64.954H90.4565ZM90.3905 62.68V63.196H94.0145V62.68H90.3905ZM91.9385 61.966V64.12H92.4785V61.966H91.9385ZM92.7245 64.474V66.874C92.7245 66.958 92.7005 66.982 92.6105 66.982C92.5205 66.988 92.2025 66.994 91.8965 66.976C91.9625 67.132 92.0405 67.354 92.0585 67.516C92.5025 67.516 92.8085 67.51 93.0005 67.426C93.2045 67.336 93.2645 67.192 93.2645 66.886V64.474H92.7245ZM90.8525 65.83C91.0805 66.166 91.3685 66.622 91.5005 66.898L91.9745 66.616C91.8245 66.34 91.5245 65.908 91.2905 65.59L90.8525 65.83ZM88.3745 65.062L88.5125 65.614C89.0345 65.452 89.7065 65.248 90.3365 65.044L90.2645 64.528C89.5745 64.738 88.8545 64.942 88.3745 65.062ZM88.4645 63.118V63.64H90.3065V63.118H88.4645ZM89.2145 61.942V66.82C89.2145 66.904 89.1845 66.928 89.1125 66.928C89.0405 66.934 88.8185 66.934 88.5785 66.928C88.6505 67.078 88.7165 67.312 88.7285 67.45C89.1125 67.45 89.3585 67.432 89.5205 67.342C89.6825 67.258 89.7365 67.108 89.7365 66.826V61.942H89.2145ZM97.1765 61.954C97.1525 62.92 97.2245 65.752 94.7465 67.036C94.9265 67.162 95.1125 67.342 95.2145 67.492C97.7465 66.076 97.7885 63.094 97.8185 61.954H97.1765ZM97.7585 62.686L97.2125 62.746C97.2965 63.304 97.5245 66.322 99.9365 67.462C100.02 67.3 100.182 67.108 100.35 66.976C98.0285 65.938 97.8065 63.142 97.7585 62.686ZM0.27 72.172V72.7H2.37V72.172H0.27ZM1.116 70.936V76.504H1.632V70.936H1.116ZM1.11 72.538C0.942 73.354 0.564 74.356 0.156 74.872C0.258 75.022 0.384 75.274 0.444 75.436C0.864 74.824 1.254 73.642 1.428 72.664L1.11 72.538ZM1.608 72.922L1.344 73.132C1.518 73.396 1.908 74.104 2.046 74.428L2.382 74.032C2.268 73.852 1.752 73.09 1.608 72.922ZM2.568 76.27C2.568 76.162 2.97 75.958 2.97 75.958V75.946C3.42 75.184 3.888 74.104 4.206 73.042L3.636 72.892C3.384 73.882 2.928 74.944 2.772 75.22C2.628 75.508 2.52 75.694 2.388 75.73C2.454 75.88 2.544 76.156 2.568 76.27ZM2.568 76.27C2.766 76.174 3.042 76.138 5.256 75.838C5.226 75.724 5.184 75.502 5.178 75.346L2.85 75.616L2.55 75.814L2.568 76.27ZM4.38 74.5C4.668 75.112 5.022 75.922 5.184 76.408L5.706 76.156C5.532 75.694 5.16 74.896 4.866 74.308L4.38 74.5ZM3.126 71.146C2.988 72.028 2.748 72.874 2.352 73.42C2.466 73.522 2.664 73.75 2.736 73.864C3.18 73.228 3.486 72.244 3.666 71.248L3.126 71.146ZM4.212 71.104V71.38H4.326C4.512 72.286 4.854 73.246 5.292 73.852C5.394 73.714 5.592 73.498 5.718 73.402C5.298 72.898 4.956 71.986 4.794 71.104H4.212ZM3.834 71.104V71.584H4.692V71.104H3.834ZM8.994 70.996V75.742H9.588V70.996H8.994ZM11.112 72.196V76.492H11.7V72.196H11.112ZM6.906 72.208V76.054H11.4V75.472H7.488V72.208H6.906ZM12.87 72.082V72.604H14.406V72.082H12.87ZM13.464 70.936V76.504H13.95V70.936H13.464ZM13.458 72.418C13.332 73.198 13.038 74.164 12.726 74.674C12.804 74.818 12.918 75.07 12.966 75.232C13.308 74.632 13.608 73.474 13.734 72.544L13.458 72.418ZM13.92 72.898L13.71 73.108C13.836 73.342 14.142 73.96 14.244 74.248L14.508 73.846C14.418 73.69 14.028 73.042 13.92 72.898ZM14.532 74.038V74.482H18.246V74.038H14.532ZM15.048 74.944C15.33 75.172 15.696 75.502 15.876 75.7L16.224 75.364C16.038 75.166 15.66 74.86 15.384 74.644L15.048 74.944ZM17.034 73.708C17.232 73.846 17.484 74.038 17.616 74.17L17.91 73.882C17.778 73.756 17.52 73.576 17.328 73.45L17.034 73.708ZM17.52 74.5C17.178 75.22 16.482 75.796 15.588 76.12C15.69 76.21 15.828 76.384 15.888 76.48C16.818 76.114 17.586 75.496 17.994 74.68L17.52 74.5ZM16.008 70.984C16.11 74.152 16.476 76.402 17.82 76.504C18.072 76.516 18.282 76.306 18.42 75.598C18.324 75.55 18.138 75.418 18.048 75.31C18 75.742 17.928 75.964 17.808 75.952C16.926 75.862 16.548 73.798 16.488 70.984H16.008ZM15.486 72.826C15.594 73.114 15.696 73.498 15.738 73.732L16.104 73.612C16.056 73.39 15.942 73.018 15.828 72.73L15.486 72.826ZM14.604 72.64C14.604 72.55 14.85 72.418 14.85 72.418V72.406C15.096 72.1 15.378 71.608 15.57 71.134L15.15 71.008C15.024 71.452 14.766 71.908 14.694 72.022C14.616 72.142 14.544 72.22 14.472 72.238C14.52 72.346 14.58 72.55 14.604 72.64ZM14.604 72.64C14.682 72.598 14.826 72.562 15.474 72.484C15.498 72.4 15.558 72.238 15.618 72.13L14.796 72.202L14.598 72.328L14.604 72.64ZM14.664 73.696C14.664 73.612 14.892 73.474 14.892 73.474V73.468C15.264 73.084 15.672 72.496 15.99 71.908L15.582 71.758C15.348 72.31 14.952 72.874 14.832 73.018C14.724 73.168 14.622 73.27 14.532 73.294C14.574 73.396 14.64 73.612 14.664 73.696ZM14.664 73.696C14.748 73.648 14.91 73.612 15.852 73.48C15.822 73.396 15.78 73.24 15.768 73.132L14.832 73.246L14.646 73.372L14.664 73.696ZM17.67 72.736C17.784 73.024 17.916 73.414 17.964 73.648L18.312 73.522C18.258 73.3 18.132 72.922 18.006 72.64L17.67 72.736ZM16.788 72.532C16.788 72.442 17.022 72.31 17.022 72.31V72.298C17.244 72.01 17.502 71.56 17.676 71.116L17.262 70.996C17.148 71.398 16.92 71.824 16.854 71.932C16.788 72.04 16.722 72.118 16.65 72.13C16.698 72.238 16.764 72.442 16.788 72.532ZM16.788 72.532C16.86 72.49 16.998 72.454 17.628 72.382C17.652 72.298 17.712 72.136 17.766 72.028L16.974 72.094L16.782 72.22L16.788 72.532ZM16.848 73.594C16.848 73.51 17.088 73.366 17.088 73.366V73.36C17.454 72.97 17.85 72.382 18.15 71.794L17.73 71.644C17.508 72.19 17.13 72.76 17.01 72.904C16.902 73.054 16.806 73.156 16.716 73.18C16.764 73.294 16.83 73.504 16.848 73.594ZM16.848 73.594C16.944 73.546 17.094 73.51 18.036 73.366C18.006 73.282 17.964 73.138 17.946 73.03L17.022 73.144L16.836 73.27L16.848 73.594ZM14.946 74.2V74.47C14.946 74.974 14.808 75.664 14.1 76.174C14.208 76.24 14.406 76.414 14.478 76.51C15.234 75.934 15.432 75.1 15.432 74.482V74.2H14.946ZM20.898 73.384V73.87H24.69V73.384H20.898ZM21.564 74.23V74.686H24.114V74.23H21.564ZM21.828 73.564C21.57 74.152 21.078 74.662 20.526 74.986C20.64 75.064 20.826 75.238 20.91 75.334C21.468 74.962 22.014 74.368 22.32 73.69L21.828 73.564ZM24.018 74.23V74.314C23.94 75.436 23.85 75.874 23.742 75.988C23.694 76.042 23.646 76.054 23.562 76.054C23.478 76.054 23.298 76.048 23.088 76.03C23.16 76.15 23.208 76.348 23.214 76.486C23.454 76.498 23.682 76.492 23.814 76.48C23.964 76.462 24.084 76.426 24.186 76.306C24.348 76.132 24.444 75.652 24.534 74.44C24.546 74.368 24.552 74.23 24.552 74.23H24.018ZM21.972 72.292H23.736V72.688H21.972V72.292ZM21.972 71.512H23.736V71.902H21.972V71.512ZM21.462 71.104V73.096H24.264V71.104H21.462ZM19.194 72.22V72.76H20.994V72.22H19.194ZM19.854 70.996V74.704H20.388V70.996H19.854ZM19.068 74.89L19.284 75.46C19.8 75.214 20.454 74.89 21.06 74.578L20.94 74.086C20.25 74.398 19.53 74.71 19.068 74.89ZM23.286 74.32C23.07 75.04 22.572 75.838 21.996 76.21C22.14 76.288 22.314 76.42 22.41 76.528C22.95 76.114 23.454 75.274 23.676 74.53L23.286 74.32ZM22.362 74.332C22.068 74.944 21.444 75.616 20.856 75.928C20.988 76.012 21.138 76.15 21.228 76.27C21.81 75.898 22.44 75.196 22.74 74.554L22.362 74.332ZM27.708 72.64V73.156H30.264V72.64H27.708ZM27.444 72.64V74.386C27.444 74.974 27.42 75.7 27.126 76.222C27.252 76.282 27.48 76.45 27.57 76.54C27.918 75.958 27.972 75.064 27.972 74.386V72.64H27.444ZM28.014 74.848L28.194 75.322C28.776 75.184 29.544 74.992 30.258 74.806L30.204 74.362C29.406 74.548 28.566 74.74 28.014 74.848ZM28.11 73.822C28.608 73.942 29.244 74.176 29.568 74.362L29.808 73.966C29.472 73.786 28.83 73.576 28.338 73.468L28.11 73.822ZM30.318 71.092C30.18 71.452 29.928 71.932 29.73 72.238L30.216 72.43C30.42 72.136 30.66 71.704 30.864 71.296L30.318 71.092ZM27.282 71.344C27.528 71.692 27.774 72.16 27.864 72.466L28.374 72.22C28.278 71.914 28.014 71.464 27.762 71.128L27.282 71.344ZM30.096 72.64V75.844C30.096 75.928 30.066 75.952 29.97 75.958C29.88 75.964 29.562 75.964 29.25 75.946C29.322 76.096 29.4 76.336 29.424 76.486C29.88 76.486 30.186 76.48 30.39 76.39C30.588 76.3 30.648 76.144 30.648 75.856V72.64H30.096ZM28.776 70.93V72.976H29.346V70.93H28.776ZM25.722 71.422C26.076 71.632 26.568 71.938 26.808 72.13L27.156 71.674C26.898 71.5 26.4 71.212 26.052 71.02L25.722 71.422ZM25.386 73.078C25.746 73.27 26.256 73.558 26.502 73.726L26.814 73.258C26.556 73.09 26.04 72.826 25.692 72.658L25.386 73.078ZM25.59 76.048L26.07 76.432C26.424 75.862 26.826 75.142 27.144 74.506L26.73 74.134C26.376 74.818 25.908 75.592 25.59 76.048ZM35.076 71.056C35.178 71.344 35.298 71.722 35.34 71.95L35.886 71.794C35.832 71.572 35.706 71.206 35.598 70.93L35.076 71.056ZM33.768 71.926V72.46H37.23V71.926H33.768ZM34.926 73.282V73.804H36.516V73.282H34.926ZM36.318 73.282V73.39C36.27 75.106 36.204 75.736 36.078 75.88C36.018 75.946 35.964 75.964 35.856 75.964C35.736 75.964 35.454 75.958 35.154 75.928C35.25 76.09 35.316 76.324 35.328 76.492C35.64 76.504 35.952 76.51 36.132 76.48C36.324 76.462 36.45 76.408 36.57 76.252C36.756 76.03 36.816 75.352 36.882 73.534C36.882 73.456 36.882 73.282 36.882 73.282H36.318ZM34.65 72.214C34.608 73.918 34.566 75.322 33.18 76.06C33.312 76.162 33.48 76.36 33.552 76.492C35.052 75.658 35.166 74.08 35.214 72.214H34.65ZM31.968 71.194V76.51H32.496V71.704H33.48V71.194H31.968ZM33.324 71.194V71.362C33.21 71.764 32.988 72.562 32.778 73.114C33.192 73.564 33.294 73.966 33.294 74.278C33.294 74.458 33.258 74.608 33.174 74.668C33.12 74.704 33.054 74.722 32.982 74.722C32.892 74.722 32.784 74.722 32.652 74.716C32.736 74.86 32.778 75.082 32.784 75.226C32.928 75.232 33.09 75.232 33.21 75.22C33.336 75.202 33.456 75.16 33.546 75.094C33.732 74.962 33.81 74.704 33.81 74.344C33.81 73.978 33.72 73.546 33.288 73.048C33.486 72.562 33.714 71.914 33.888 71.398L33.504 71.17L33.42 71.194H33.324ZM42.702 72.142C42.534 72.676 42.216 73.396 41.952 73.852L42.444 74.062C42.714 73.636 43.056 72.952 43.32 72.376L42.702 72.142ZM40.512 70.996C40.494 73.108 40.596 75.112 38.058 76.042C38.208 76.162 38.382 76.372 38.454 76.516C41.112 75.49 41.124 73.252 41.142 70.996H40.512ZM40.986 73.234L40.47 73.33C40.878 74.962 41.634 76.024 43.182 76.468C43.26 76.312 43.434 76.066 43.56 75.94C42.096 75.592 41.328 74.632 40.986 73.234ZM38.388 72.238C38.604 72.832 38.856 73.618 38.964 74.08L39.558 73.834C39.438 73.384 39.162 72.622 38.94 72.046L38.388 72.238ZM45.48 76.06V76.384H48.684V76.06H45.48ZM45.294 74.872V75.184H48.918V74.872H45.294ZM45.294 74.35V74.668H48.918V74.35H45.294ZM44.364 73.744V74.134H49.836V73.744H44.364ZM45.24 75.412V76.51H45.774V75.724H48.408V76.504H48.966V75.412H45.24ZM47.844 71.428V71.824H49.8V71.428H47.844ZM45 71.902V72.208H46.698V71.902H45ZM47.862 70.924C47.706 71.434 47.394 71.908 47.01 72.22C47.124 72.286 47.31 72.43 47.394 72.514C47.784 72.16 48.132 71.614 48.33 71.032L47.862 70.924ZM48.948 71.602C48.738 72.424 48.036 72.862 47.082 73.084C47.172 73.174 47.31 73.366 47.352 73.468C48.372 73.162 49.14 72.646 49.428 71.65L48.948 71.602ZM44.946 72.394V72.67H45.774V72.982H44.946V73.264H46.176V72.394H44.946ZM46.548 71.902V71.968C46.512 72.736 46.464 73.024 46.404 73.102C46.374 73.144 46.332 73.156 46.278 73.156C46.218 73.156 46.11 73.156 45.966 73.138C46.02 73.24 46.062 73.402 46.068 73.51C46.242 73.522 46.416 73.516 46.512 73.51C46.638 73.498 46.734 73.456 46.812 73.366C46.92 73.234 46.974 72.91 47.022 72.076C47.028 72.016 47.028 71.902 47.028 71.902H46.548ZM44.952 71.698C44.832 71.98 44.61 72.292 44.268 72.532C44.364 72.592 44.514 72.724 44.58 72.826C44.976 72.52 45.222 72.154 45.384 71.764L44.952 71.698ZM44.778 72.394V73.42H45.174V72.394H44.778ZM46.638 73.468C46.728 73.63 46.824 73.858 46.86 74.002L47.43 73.87C47.388 73.726 47.286 73.51 47.184 73.348L46.638 73.468ZM44.442 71.188V71.548H45.474V71.188H44.442ZM45.228 70.942V71.722H45.678V70.942H45.228ZM46.068 70.942V71.788H46.524V70.942H46.068ZM46.218 71.188V71.548H47.304V71.188H46.218ZM47.676 72.364C48.294 72.676 49.074 73.156 49.452 73.492L49.758 73.114C49.362 72.79 48.57 72.334 47.958 72.04L47.676 72.364ZM52.002 74.794C51.702 75.202 51.204 75.628 50.742 75.898C50.886 75.982 51.12 76.168 51.234 76.27C51.684 75.964 52.218 75.472 52.572 75.004L52.002 74.794ZM54.174 75.028C54.648 75.382 55.23 75.892 55.506 76.216L56.004 75.88C55.698 75.55 55.104 75.064 54.63 74.728L54.174 75.028ZM53.154 74.254V75.85C53.154 75.922 53.13 75.94 53.028 75.946C52.926 75.952 52.584 75.952 52.242 75.94C52.332 76.09 52.428 76.33 52.458 76.498C52.896 76.498 53.22 76.492 53.442 76.402C53.67 76.312 53.73 76.162 53.73 75.862V74.254H53.154ZM54.666 70.924C53.778 71.32 52.248 71.668 50.874 71.89C50.934 72.016 51.018 72.226 51.036 72.37C52.434 72.148 54.018 71.818 55.086 71.368L54.666 70.924ZM51.192 74.788C51.192 74.686 51.576 74.56 51.576 74.56V74.542C52.686 74.11 53.856 73.516 54.924 72.742L54.498 72.364C53.532 73.12 52.26 73.78 51.852 73.96C51.486 74.134 51.234 74.23 51.024 74.254C51.084 74.404 51.168 74.674 51.192 74.788ZM51.192 74.788C51.444 74.692 51.816 74.656 55.308 74.392C55.302 74.278 55.302 74.056 55.32 73.906L51.54 74.164L51.174 74.362L51.192 74.788ZM51.486 73.504C51.486 73.402 51.846 73.258 51.846 73.258V73.246C52.47 72.982 53.124 72.592 53.712 72.142L53.214 71.824C52.716 72.274 52.038 72.676 51.822 72.784C51.618 72.892 51.468 72.952 51.324 72.976C51.384 73.12 51.462 73.396 51.486 73.504ZM51.486 73.504C51.66 73.444 51.924 73.414 53.964 73.288C53.97 73.18 54 72.97 54.03 72.832L51.786 72.94L51.48 73.108L51.486 73.504ZM54.324 73.42C54.75 73.852 55.266 74.452 55.512 74.818L55.998 74.524C55.74 74.164 55.23 73.606 54.792 73.186L54.324 73.42ZM61.14 72.586C61.446 73.06 61.794 73.702 61.938 74.092L62.442 73.852C62.286 73.456 61.914 72.844 61.602 72.382L61.14 72.586ZM59.172 71.668V72.202H62.394V71.668H59.172ZM60.84 73.534V75.706C60.84 76.234 60.948 76.402 61.422 76.402C61.512 76.402 61.812 76.402 61.908 76.402C62.316 76.402 62.448 76.168 62.496 75.31C62.346 75.268 62.124 75.184 62.004 75.088C61.992 75.79 61.974 75.898 61.854 75.898C61.788 75.898 61.56 75.898 61.506 75.898C61.392 75.898 61.374 75.874 61.374 75.7V73.534H60.84ZM59.838 73.66C59.802 74.92 59.706 75.658 58.776 76.09C58.902 76.192 59.058 76.39 59.124 76.534C60.18 76.006 60.33 75.106 60.372 73.66H59.838ZM59.316 73.966C59.496 73.882 59.778 73.846 61.962 73.6C61.938 73.486 61.914 73.27 61.902 73.126L59.604 73.348L59.298 73.534L59.316 73.966ZM59.316 73.966C59.316 73.852 59.706 73.654 59.706 73.654V73.642C60.21 72.988 60.756 72.04 61.158 71.092L60.54 70.924C60.234 71.806 59.712 72.73 59.538 72.97C59.376 73.216 59.256 73.372 59.124 73.408C59.19 73.564 59.286 73.846 59.316 73.966ZM58.332 73.342C58.512 73.732 58.674 74.248 58.734 74.566L59.154 74.398C59.094 74.08 58.914 73.582 58.728 73.198L58.332 73.342ZM57.786 74.902C57.852 75.304 57.912 75.826 57.924 76.168L58.356 76.06C58.338 75.718 58.272 75.202 58.2 74.806L57.786 74.902ZM57.126 74.842C57.078 75.328 57 75.868 56.856 76.228C56.97 76.258 57.192 76.33 57.288 76.384C57.408 76.018 57.516 75.448 57.576 74.92L57.126 74.842ZM57.036 73.246C57.036 73.138 57.372 72.964 57.372 72.964V72.952C57.762 72.472 58.176 71.782 58.476 71.122L57.96 70.9C57.726 71.548 57.324 72.232 57.198 72.4C57.072 72.586 56.97 72.7 56.862 72.73C56.922 72.874 57.006 73.132 57.036 73.246ZM57.036 73.246C57.138 73.192 57.312 73.156 58.254 73.06C58.254 72.952 58.278 72.766 58.302 72.634L57.258 72.718L57.03 72.868L57.036 73.246ZM57.078 74.614C57.078 74.506 57.414 74.338 57.414 74.338V74.326C58.002 73.726 58.59 72.886 59.046 72.058L58.566 71.77C58.188 72.604 57.564 73.474 57.36 73.69C57.174 73.918 57.048 74.062 56.904 74.098C56.97 74.242 57.054 74.506 57.078 74.614ZM57.078 74.614C57.21 74.548 57.408 74.488 58.824 74.248C58.812 74.14 58.818 73.948 58.836 73.816L57.288 74.056L57.054 74.218L57.078 74.614ZM58.446 74.77C58.566 75.106 58.698 75.544 58.746 75.826L59.16 75.682C59.1 75.4 58.962 74.974 58.836 74.638L58.446 74.77ZM63.282 74.566H64.866V74.05H63.282V74.566ZM69.0265 72.946V73.474H71.2165V72.946H69.0265ZM65.7865 71.554V72.022H68.4625V71.554H65.7865ZM65.7265 73.936V74.422H68.4745V73.936H65.7265ZM65.6965 72.91V73.384H68.5585V72.91H65.6965ZM70.0465 73.174V76.48H70.5985V73.174H70.0465ZM66.1465 72.142C66.2425 72.382 66.3265 72.706 66.3565 72.91L66.8305 72.778C66.8005 72.58 66.7105 72.268 66.6025 72.034L66.1465 72.142ZM67.6405 72.028C67.5625 72.304 67.4245 72.718 67.3105 72.976L67.7725 73.078C67.8925 72.838 68.0305 72.472 68.1565 72.13L67.6405 72.028ZM70.6645 71.02C70.2325 71.212 69.4765 71.398 68.8105 71.512C68.8765 71.632 68.9545 71.824 68.9845 71.944C69.6925 71.842 70.5145 71.668 71.1145 71.44L70.6645 71.02ZM66.6805 71.032C66.8005 71.29 66.9445 71.638 66.9985 71.854L67.5925 71.692C67.5325 71.476 67.3765 71.14 67.2445 70.894L66.6805 71.032ZM68.8105 71.512V73.624C68.8105 74.416 68.7685 75.436 68.2885 76.144C68.4085 76.204 68.6305 76.384 68.7265 76.486C69.2605 75.706 69.3385 74.494 69.3385 73.624V71.512H68.8105ZM67.6585 74.836C67.8325 75.124 68.0425 75.526 68.1385 75.778L68.5345 75.538C68.4385 75.298 68.2285 74.92 68.0365 74.632L67.6585 74.836ZM66.2125 74.68C66.0865 75.07 65.8825 75.484 65.6605 75.766C65.7685 75.826 65.9605 75.958 66.0445 76.03C66.2665 75.724 66.5125 75.238 66.6565 74.812L66.2125 74.68ZM66.8965 73.168V76.474H67.4485V73.168H66.8965ZM72.2545 72.76V73.198H74.0605V72.76H72.2545ZM72.2545 73.558V73.996H74.0725V73.558H72.2545ZM72.0025 71.944V72.406H74.3185V71.944H72.0025ZM72.5065 74.374V74.836H73.5685V75.694H72.5065V76.156H74.0665V74.374H72.5065ZM72.2545 74.374V76.426H72.7465V74.374H72.2545ZM72.6325 71.128C72.7945 71.38 72.9865 71.734 73.0705 71.956L73.5325 71.698C73.4365 71.482 73.2445 71.158 73.0765 70.912L72.6325 71.128ZM74.8885 71.146V71.674H76.4665V71.146H74.8885ZM74.2345 73.57V74.098H76.8805V73.57H74.2345ZM76.6765 73.57V73.66C76.3105 74.926 75.2545 75.706 74.0125 75.994C74.1145 76.12 74.2405 76.354 74.3005 76.504C75.6625 76.114 76.7845 75.274 77.2345 73.696L76.8805 73.546L76.7845 73.57H76.6765ZM74.9365 74.044L74.4505 74.212C74.9845 75.37 75.9025 76.156 77.2105 76.492C77.2825 76.336 77.4385 76.096 77.5645 75.976C76.3105 75.712 75.3805 75.01 74.9365 74.044ZM74.7865 71.146V71.8C74.7865 72.214 74.6965 72.682 74.0425 73.036C74.1445 73.12 74.3425 73.336 74.4085 73.45C75.1465 73.036 75.3085 72.376 75.3085 71.818V71.146H74.7865ZM76.1845 71.146V72.496C76.1845 73.018 76.2805 73.222 76.7485 73.222C76.8265 73.222 77.0305 73.222 77.1085 73.222C77.2285 73.222 77.3485 73.216 77.4265 73.18C77.4025 73.054 77.3905 72.844 77.3845 72.706C77.3065 72.724 77.1865 72.736 77.1085 72.736C77.0485 72.736 76.8565 72.736 76.7965 72.736C76.7185 72.736 76.7125 72.676 76.7125 72.502V71.146H76.1845ZM78.5665 71.206V71.758H81.8665V71.206H78.5665ZM82.9225 72.916V73.024C82.5025 74.71 81.1945 75.676 79.6225 76.042C79.7425 76.168 79.8865 76.408 79.9525 76.57C81.6685 76.09 83.0365 75.082 83.5525 73.066L83.1445 72.892L83.0365 72.916H82.9225ZM79.5805 71.41V72.268C79.5805 73.294 79.4725 74.806 78.2245 75.922C78.3505 76.03 78.5605 76.264 78.6385 76.414C80.0365 75.142 80.1685 73.456 80.1685 72.268V71.41H79.5805ZM81.7225 71.206C81.6025 71.836 81.4045 72.652 81.2425 73.174H81.8785C82.0165 72.67 82.1965 71.86 82.3285 71.206H81.7225ZM79.9285 72.916L79.8325 73.456H83.0545V72.916H79.9285ZM80.7385 73.252L80.2465 73.39C80.8045 74.974 81.8065 76.06 83.4565 76.516C83.5465 76.354 83.7205 76.108 83.8525 75.982C82.2565 75.61 81.2305 74.614 80.7385 73.252ZM86.2285 72.556V73.12H90.1105V72.556H86.2285ZM87.2245 75.55C87.5905 75.796 88.0105 76.168 88.2145 76.42L88.6105 76.006C88.3945 75.766 87.9745 75.436 87.5905 75.202L87.2245 75.55ZM87.8065 70.942C87.7945 72.46 87.8365 74.926 85.8865 76.102C86.0425 76.204 86.2165 76.372 86.3065 76.504C88.3225 75.202 88.3525 72.61 88.3765 70.942H87.8065ZM88.5265 72.778L88.0225 72.874C88.3165 74.458 88.8505 75.79 89.7925 76.516C89.8825 76.372 90.0625 76.168 90.1945 76.066C89.3125 75.454 88.7785 74.182 88.5265 72.778ZM84.8845 71.416C85.2805 71.608 85.8025 71.908 86.0545 72.112L86.3845 71.638C86.1205 71.44 85.5865 71.164 85.1965 71.002L84.8845 71.416ZM84.5605 73.072C84.9445 73.246 85.4365 73.522 85.6765 73.72L85.9945 73.252C85.7425 73.06 85.2385 72.796 84.8605 72.646L84.5605 73.072ZM84.7285 76.066L85.2085 76.45C85.5685 75.874 85.9705 75.154 86.2885 74.524L85.8745 74.146C85.5205 74.836 85.0525 75.61 84.7285 76.066ZM90.8065 74.056L90.9445 74.602C91.4605 74.434 92.1085 74.218 92.7205 74.002L92.6365 73.492C91.9645 73.714 91.2685 73.93 90.8065 74.056ZM90.8845 72.118V72.64H92.6665V72.118H90.8845ZM91.5505 70.936V75.82C91.5505 75.898 91.5265 75.922 91.4545 75.922C91.3825 75.922 91.1785 75.922 90.9565 75.916C91.0225 76.078 91.0885 76.324 91.1125 76.474C91.4785 76.474 91.7185 76.456 91.8805 76.36C92.0425 76.264 92.0965 76.108 92.0965 75.82V70.936H91.5505ZM93.8185 70.936C93.6205 71.47 93.2425 72.118 92.6485 72.598C92.7565 72.67 92.9185 72.856 92.9905 72.97C93.6565 72.4 94.0765 71.692 94.3465 71.02L93.8185 70.936ZM93.8845 71.404L93.6205 71.854H95.0605V71.404H93.8845ZM93.0985 72.382V74.8H93.5665V72.844H95.5645V74.8H96.0445V72.382H93.0985ZM92.6305 74.638V75.106H96.4225V74.638H92.6305ZM94.2865 74.092C94.2025 75.178 93.9685 75.784 92.4445 76.072C92.5465 76.18 92.6785 76.378 92.7205 76.51C94.4125 76.15 94.7305 75.388 94.8385 74.092H94.2865ZM94.9165 71.404V71.5C94.8145 71.77 94.5985 72.19 94.3945 72.442C94.5025 72.502 94.6705 72.604 94.7605 72.676C94.9885 72.4 95.2765 71.962 95.4445 71.602L95.1085 71.38L95.0245 71.404H94.9165ZM94.4725 72.766C94.2865 73.192 93.9565 73.594 93.5665 73.852C93.6745 73.912 93.8545 74.044 93.9385 74.116C94.3105 73.828 94.6885 73.366 94.8985 72.88L94.4725 72.766ZM94.3465 73.378C94.6945 73.582 95.1265 73.882 95.3365 74.092L95.6005 73.78C95.3845 73.576 94.9465 73.288 94.6045 73.102L94.3465 73.378ZM94.7425 75.412C95.1925 75.754 95.8045 76.24 96.1045 76.528L96.4705 76.174C96.1525 75.892 95.5285 75.43 95.0845 75.106L94.7425 75.412ZM97.5565 71.59V72.178H102.351V71.59H97.5565ZM97.2325 75.496V76.066H102.669V75.496H97.2325ZM99.6025 71.902V75.73H100.245V71.902H99.6025ZM107.025 73.78V76.204H107.589V73.78H107.025ZM105.579 75.868V76.366H108.987V75.868H105.579ZM105.897 74.686V75.166H108.741V74.686H105.897ZM106.479 71.704H108.147V72.718H106.479V71.704ZM105.951 71.224V73.204H108.693V71.224H105.951ZM108.459 73.36C107.817 73.54 106.701 73.654 105.759 73.708C105.813 73.828 105.873 74.02 105.891 74.14C106.857 74.104 108.033 73.99 108.813 73.786L108.459 73.36ZM104.445 71.464V76.498H104.997V71.464H104.445ZM103.515 72.628V73.156H105.699V72.628H103.515ZM104.475 72.838C104.271 73.546 103.815 74.452 103.389 74.932C103.485 75.07 103.611 75.304 103.665 75.466C104.127 74.896 104.583 73.834 104.817 72.982L104.475 72.838ZM105.381 71.014C104.925 71.218 104.145 71.392 103.461 71.506C103.527 71.626 103.599 71.818 103.629 71.938C104.337 71.848 105.177 71.686 105.771 71.452L105.381 71.014ZM104.979 73.426L104.721 73.654C104.907 73.876 105.321 74.44 105.465 74.704L105.795 74.254C105.675 74.116 105.129 73.552 104.979 73.426Z" fill="black"/>
<path d="M1.134 0.935V1.709H2.925V5.588H1.134V6.371H3.717V0.935H1.134ZM1.143 3.23V3.995H3.249V3.23H1.143ZM4.959 0.782V1.574H7.875V0.782H4.959ZM4.959 2.951V3.725H7.875V2.951H4.959ZM4.923 5.129V5.894H7.857V5.129H4.923ZM0.675 0.935V7.19H1.467V0.935H0.675ZM7.56 0.782V7.712C7.56 7.874 7.497 7.928 7.335 7.928C7.182 7.937 6.624 7.946 6.084 7.919C6.21 8.144 6.345 8.513 6.381 8.747C7.155 8.747 7.659 8.729 7.974 8.594C8.289 8.45 8.406 8.207 8.406 7.721V0.782H7.56ZM4.455 0.782V4.013C4.455 5.399 4.311 7.109 2.79 8.252C2.97 8.36 3.294 8.657 3.42 8.828C5.058 7.595 5.292 5.552 5.292 4.022V0.782H4.455ZM11.394 0.989V8.657H12.267V1.844H16.551V8.63H17.46V0.989H11.394ZM11.988 4.067V4.904H16.929V4.067H11.988ZM11.979 7.217V8.072H16.938V7.217H11.979ZM22.203 6.191C21.753 6.803 21.006 7.442 20.313 7.847C20.529 7.973 20.88 8.252 21.051 8.405C21.726 7.946 22.527 7.208 23.058 6.506L22.203 6.191ZM25.461 6.542C26.172 7.073 27.045 7.838 27.459 8.324L28.206 7.82C27.747 7.325 26.856 6.596 26.145 6.092L25.461 6.542ZM23.931 5.381V7.775C23.931 7.883 23.895 7.91 23.742 7.919C23.589 7.928 23.076 7.928 22.563 7.91C22.698 8.135 22.842 8.495 22.887 8.747C23.544 8.747 24.03 8.738 24.363 8.603C24.705 8.468 24.795 8.243 24.795 7.793V5.381H23.931ZM26.199 0.386C24.867 0.98 22.572 1.502 20.511 1.835C20.601 2.024 20.727 2.339 20.754 2.555C22.851 2.222 25.227 1.727 26.829 1.052L26.199 0.386ZM20.988 6.182C20.988 6.029 21.564 5.84 21.564 5.84V5.813C23.229 5.165 24.984 4.274 26.586 3.113L25.947 2.546C24.498 3.68 22.59 4.67 21.978 4.94C21.429 5.201 21.051 5.345 20.736 5.381C20.826 5.606 20.952 6.011 20.988 6.182ZM20.988 6.182C21.366 6.038 21.924 5.984 27.162 5.588C27.153 5.417 27.153 5.084 27.18 4.859L21.51 5.246L20.961 5.543L20.988 6.182ZM21.429 4.256C21.429 4.103 21.969 3.887 21.969 3.887V3.869C22.905 3.473 23.886 2.888 24.768 2.213L24.021 1.736C23.274 2.411 22.257 3.014 21.933 3.176C21.627 3.338 21.402 3.428 21.186 3.464C21.276 3.68 21.393 4.094 21.429 4.256ZM21.429 4.256C21.69 4.166 22.086 4.121 25.146 3.932C25.155 3.77 25.2 3.455 25.245 3.248L21.879 3.41L21.42 3.662L21.429 4.256ZM25.686 4.13C26.325 4.778 27.099 5.678 27.468 6.227L28.197 5.786C27.81 5.246 27.045 4.409 26.388 3.779L25.686 4.13ZM36.36 2.879C36.819 3.59 37.341 4.553 37.557 5.138L38.313 4.778C38.079 4.184 37.521 3.266 37.053 2.573L36.36 2.879ZM33.408 1.502V2.303H38.241V1.502H33.408ZM35.91 4.301V7.559C35.91 8.351 36.072 8.603 36.783 8.603C36.918 8.603 37.368 8.603 37.512 8.603C38.124 8.603 38.322 8.252 38.394 6.965C38.169 6.902 37.836 6.776 37.656 6.632C37.638 7.685 37.611 7.847 37.431 7.847C37.332 7.847 36.99 7.847 36.909 7.847C36.738 7.847 36.711 7.811 36.711 7.55V4.301H35.91ZM34.407 4.49C34.353 6.38 34.209 7.487 32.814 8.135C33.003 8.288 33.237 8.585 33.336 8.801C34.92 8.009 35.145 6.659 35.208 4.49H34.407ZM33.624 4.949C33.894 4.823 34.317 4.769 37.593 4.4C37.557 4.229 37.521 3.905 37.503 3.689L34.056 4.022L33.597 4.301L33.624 4.949ZM33.624 4.949C33.624 4.778 34.209 4.481 34.209 4.481V4.463C34.965 3.482 35.784 2.06 36.387 0.638L35.46 0.386C35.001 1.709 34.218 3.095 33.957 3.455C33.714 3.824 33.534 4.058 33.336 4.112C33.435 4.346 33.579 4.769 33.624 4.949ZM32.148 4.013C32.418 4.598 32.661 5.372 32.751 5.849L33.381 5.597C33.291 5.12 33.021 4.373 32.742 3.797L32.148 4.013ZM31.329 6.353C31.428 6.956 31.518 7.739 31.536 8.252L32.184 8.09C32.157 7.577 32.058 6.803 31.95 6.209L31.329 6.353ZM30.339 6.263C30.267 6.992 30.15 7.802 29.934 8.342C30.105 8.387 30.438 8.495 30.582 8.576C30.762 8.027 30.924 7.172 31.014 6.38L30.339 6.263ZM30.204 3.869C30.204 3.707 30.708 3.446 30.708 3.446V3.428C31.293 2.708 31.914 1.673 32.364 0.683L31.59 0.35C31.239 1.322 30.636 2.348 30.447 2.6C30.258 2.879 30.105 3.05 29.943 3.095C30.033 3.311 30.159 3.698 30.204 3.869ZM30.204 3.869C30.357 3.788 30.618 3.734 32.031 3.59C32.031 3.428 32.067 3.149 32.103 2.951L30.537 3.077L30.195 3.302L30.204 3.869ZM30.267 5.921C30.267 5.759 30.771 5.507 30.771 5.507V5.489C31.653 4.589 32.535 3.329 33.219 2.087L32.499 1.655C31.932 2.906 30.996 4.211 30.69 4.535C30.411 4.877 30.222 5.093 30.006 5.147C30.105 5.363 30.231 5.759 30.267 5.921ZM30.267 5.921C30.465 5.822 30.762 5.732 32.886 5.372C32.868 5.21 32.877 4.922 32.904 4.724L30.582 5.084L30.231 5.327L30.267 5.921ZM32.319 6.155C32.499 6.659 32.697 7.316 32.769 7.739L33.39 7.523C33.3 7.1 33.093 6.461 32.904 5.957L32.319 6.155ZM1.683 18.003V21.756H2.511V18.687H6.507V21.747H7.38V18.003H1.683ZM2.169 19.38V20.019H6.813V19.38H2.169ZM1.422 14.124V14.799H4.293V14.124H1.422ZM0.414 15.537V16.221H4.518V15.537H0.414ZM2.169 20.748V21.441H6.813V20.748H2.169ZM2.223 14.34V15.267C2.223 15.951 2.079 16.977 0.315 17.661C0.504 17.805 0.747 18.066 0.864 18.237C2.736 17.391 3.033 16.167 3.033 15.276V14.34H2.223ZM1.386 13.368C1.188 14.043 0.837 14.709 0.378 15.159C0.567 15.24 0.9 15.447 1.053 15.564C1.503 15.069 1.917 14.304 2.142 13.521L1.386 13.368ZM2.844 16.275L2.277 16.635C2.673 16.887 3.546 17.517 3.888 17.805L4.491 17.247C4.23 17.067 3.168 16.437 2.844 16.275ZM5.652 14.862H7.308V16.608H5.652V14.862ZM4.86 14.106V17.373H8.145V14.106H4.86ZM10.593 13.836V14.367H14.103V13.836H10.593ZM10.773 14.727V15.258H13.977V14.727H10.773ZM11.97 13.413V16.59H12.753V13.413H11.97ZM14.445 13.836V14.367H18.162V13.836H14.445ZM14.409 15.636V16.167H18.306V15.636H14.409ZM10.512 15.636V16.167H14.202V15.636H10.512ZM14.643 14.727V15.249H18V14.727H14.643ZM15.84 13.413V16.59H16.641V13.413H15.84ZM12.546 19.587V20.676C12.546 21.45 12.798 21.666 13.842 21.666C14.058 21.666 15.255 21.666 15.48 21.666C16.263 21.666 16.506 21.432 16.605 20.46C16.38 20.406 16.029 20.298 15.858 20.172C15.822 20.838 15.75 20.928 15.399 20.928C15.12 20.928 14.13 20.928 13.932 20.928C13.464 20.928 13.392 20.901 13.392 20.667V19.587H12.546ZM13.482 19.47C13.977 19.722 14.535 20.118 14.805 20.433L15.381 19.92C15.093 19.605 14.517 19.227 14.031 19.002L13.482 19.47ZM16.362 19.929C16.974 20.388 17.604 21.063 17.856 21.549L18.594 21.108C18.306 20.613 17.649 19.965 17.046 19.524L16.362 19.929ZM11.385 19.605C11.169 20.181 10.764 20.757 10.206 21.099L10.89 21.585C11.502 21.171 11.871 20.514 12.123 19.875L11.385 19.605ZM11.169 16.716V17.256H16.704V18.705H11.115V19.245H17.532V16.716H11.169ZM10.431 17.715V18.237H18.396V17.715H10.431ZM20.493 14.169V16.113H21.33V14.952H27.279V16.113H28.152V14.169H20.493ZM21.708 15.654V16.383H26.865V15.654H21.708ZM23.274 17.022C24.768 18.318 24.687 20.361 24.183 20.775C24.039 20.946 23.877 20.973 23.652 20.973C23.454 20.973 23.157 20.964 22.824 20.928C22.977 21.162 23.049 21.504 23.058 21.738C23.337 21.747 23.616 21.756 23.814 21.747C24.246 21.747 24.507 21.666 24.804 21.387C25.614 20.748 25.677 18.147 23.922 16.662L23.274 17.022ZM24.219 15.888C23.409 16.653 21.87 17.238 20.466 17.553C20.61 17.715 20.835 18.066 20.916 18.228C22.365 17.814 23.976 17.121 24.921 16.185L24.219 15.888ZM23.904 17.589C23.139 18.165 21.582 18.804 20.421 19.074C20.574 19.254 20.754 19.542 20.853 19.731C22.023 19.362 23.589 18.642 24.453 17.994L23.904 17.589ZM24.426 18.651C23.544 19.461 21.744 20.298 20.286 20.64C20.448 20.829 20.628 21.135 20.727 21.351C22.203 20.901 24.021 19.992 25.011 19.092L24.426 18.651ZM26.235 18.093L25.488 18.273C25.938 19.686 26.766 20.811 27.981 21.378C28.098 21.162 28.35 20.838 28.539 20.685C27.432 20.244 26.622 19.254 26.235 18.093ZM26.847 16.644C26.226 17.238 25.182 18.003 24.408 18.453L24.957 18.939C25.74 18.516 26.766 17.823 27.549 17.202L26.847 16.644ZM23.544 13.584C23.733 13.926 23.931 14.385 24.003 14.682L24.93 14.385C24.858 14.097 24.633 13.656 24.435 13.332L23.544 13.584Z" fill="#C9A063"/>
</g>
<defs>
<clipPath id="clip0_138_6296">
<rect width="110" height="78" fill="white"/>
</clipPath>
</defs>
</svg>
