<svg width="89" height="113" viewBox="0 0 89 113" fill="none" xmlns="http://www.w3.org/2000/svg">
<path d="M9.94012 52.5903C9.81012 52.8803 8.65011 55.0004 5.68011 55.0004C2.50011 55.0004 0.640137 52.3003 0.640137 48.9503C0.640137 45.6003 2.50011 42.9004 5.68011 42.9004C8.69011 42.9004 9.84013 45.1103 9.95013 45.3303L9.61011 45.7303C6.34011 41.3703 2.44012 44.2503 2.44012 48.9503C2.44012 53.2703 6.32014 56.5503 9.58014 52.2003L9.94012 52.5803V52.5903Z" fill="#D8B167"/>
<path d="M18.1 50.8505C18.1 53.6905 16.5701 54.9404 14.7001 54.9404C12.8301 54.9404 11.29 53.6905 11.29 50.8505C11.29 48.0105 12.8201 46.7705 14.7001 46.7705C16.5801 46.7705 18.1 48.0705 18.1 50.8505ZM16.54 50.8505C16.54 48.3305 15.9401 47.1205 14.7001 47.1205C13.4601 47.1205 12.8401 48.3405 12.8401 50.8505C12.8401 53.3605 13.4501 54.5804 14.7001 54.5804C15.9501 54.5804 16.54 53.4505 16.54 50.8505Z" fill="#D8B167"/>
<path d="M31.04 49.3705V54.7205H29.6V49.4705C29.6 47.9605 28.8001 47.3005 28.1901 47.3005C27.3201 47.3005 26.7901 47.7404 26.4001 48.3304V54.7305H24.9601V49.4805C24.9601 47.9705 24.16 47.3105 23.55 47.3105C22.69 47.3105 22.1101 47.8204 21.7401 48.3304V54.7405H20.3101V48.4105C20.3101 47.6805 19.85 46.9805 19.04 46.8705V46.7905H21.7401V47.6305C22.1801 47.1705 22.7801 46.7905 23.5701 46.7905C24.8601 46.7905 25.6601 47.2504 26.0701 47.9504C26.5801 47.2804 27.3101 46.7905 28.2101 46.7905C30.2401 46.7905 31.05 48.1205 31.05 49.3905L31.04 49.3705Z" fill="#D8B167"/>
<path d="M34.8902 46.7202V54.7202H33.4602V48.3402C33.4602 47.6102 32.9902 46.9103 32.1902 46.8003V46.7202H34.8902ZM34.1902 43.4702C33.6902 43.4702 33.2902 43.9102 33.2902 44.4702C33.2902 45.0302 33.6902 45.4502 34.1902 45.4502C34.6902 45.4502 35.0802 45.0102 35.0802 44.4702C35.0802 43.9302 34.6802 43.4702 34.1902 43.4702Z" fill="#D8B167"/>
<path d="M43.7501 49.3702V54.7202H42.3101V49.4702C42.3101 47.9602 41.5101 47.3003 40.9001 47.3003C40.0401 47.3003 39.4601 47.8102 39.0901 48.3202V54.7302H37.6601V48.3502C37.6601 47.6402 37.1701 46.9502 36.3901 46.8602V46.7803H39.0901V47.6202C39.5301 47.1602 40.1301 46.7803 40.9201 46.7803C42.9501 46.7803 43.7601 48.1102 43.7601 49.3802L43.7501 49.3702Z" fill="#D8B167"/>
<path d="M51.9402 55.5405C51.9402 56.6805 51.5303 58.2205 48.5803 58.2205C45.9103 58.2205 45.2202 57.1705 45.2202 56.1705C45.2202 55.1705 45.9103 54.6904 46.5203 54.4604C45.9803 54.4604 45.2202 53.9005 45.2202 52.8405C45.2202 51.4605 46.2103 51.0505 46.5103 50.9705C46.1703 50.5605 45.9702 50.0005 45.9702 49.2605C45.9702 47.5805 47.1302 46.7705 48.4702 46.7705C48.9302 46.7705 49.3703 46.8705 49.7603 47.0605H51.7302V47.6605H50.4902C50.7902 48.0605 50.9802 48.6005 50.9802 49.2605C50.9802 51.0105 49.8202 51.7705 48.4802 51.7705C47.8402 51.7705 47.1902 51.5605 46.8502 51.2805C46.6202 51.3605 45.8502 51.4905 45.9202 52.3005C46.0102 53.0505 47.7602 52.9305 48.5602 52.9305C49.9302 52.9305 51.9402 52.7405 51.9402 55.5505V55.5405ZM51.4503 55.8304C51.4503 54.8004 50.6202 54.4604 49.3102 54.4604H47.8002C46.8902 54.4604 46.4702 55.2205 46.4702 56.1605C46.4702 56.9705 47.0803 57.8304 48.5803 57.8304C51.0503 57.8304 51.4503 56.8604 51.4503 55.8304ZM47.3102 49.2605C47.3102 50.8605 47.5802 51.3505 48.4702 51.3505C49.3602 51.3505 49.5602 50.8605 49.5602 49.2605C49.5602 47.6605 49.3602 47.1305 48.4702 47.1305C47.5802 47.1305 47.3102 47.7305 47.3102 49.2605Z" fill="#D8B167"/>
<path d="M64.13 51.7504C64.13 52.9604 63.33 54.9603 60.86 54.9603C58.9 54.9603 57.65 54.0204 57.35 51.6404H57.82C58.13 53.8104 59.76 54.2904 60.7 54.2904C62.37 54.2904 62.77 52.9904 62.77 52.4204C62.77 51.2004 61.87 50.5304 60.16 49.5504C59.07 48.9304 57.23 47.9204 57.23 45.9304C57.23 43.4104 59.47 42.9004 60.27 42.9004C62.27 42.9004 63.1 44.0704 63.38 45.7404H62.87C62.66 44.8704 62.08 43.5504 60.28 43.5504C59.39 43.5504 58.45 44.3403 58.45 45.3403C58.45 46.5103 59.72 47.2604 61.04 48.0104C63.53 49.3904 64.12 50.3704 64.12 51.7604L64.13 51.7504Z" fill="#D8B167"/>
<path d="M72.3403 50.8505C72.3403 53.6905 70.8102 54.9404 68.9402 54.9404C67.0702 54.9404 65.5303 53.6905 65.5303 50.8505C65.5303 48.0105 67.0602 46.7705 68.9402 46.7705C70.8202 46.7705 72.3403 48.0705 72.3403 50.8505ZM70.7803 50.8505C70.7803 48.3305 70.1802 47.1205 68.9402 47.1205C67.7002 47.1205 67.0803 48.3405 67.0803 50.8505C67.0803 53.3605 67.6902 54.5804 68.9402 54.5804C70.1902 54.5804 70.7803 53.4505 70.7803 50.8505Z" fill="#D8B167"/>
<path d="M80.5703 50.8505C80.5703 53.6905 79.0402 54.9404 77.1702 54.9404C75.3002 54.9404 73.7603 53.6905 73.7603 50.8505C73.7603 48.0105 75.2902 46.7705 77.1702 46.7705C79.0502 46.7705 80.5703 48.0705 80.5703 50.8505ZM79.0103 50.8505C79.0103 48.3305 78.4102 47.1205 77.1702 47.1205C75.9302 47.1205 75.3102 48.3405 75.3102 50.8505C75.3102 53.3605 75.9202 54.5804 77.1702 54.5804C78.4202 54.5804 79.0103 53.4505 79.0103 50.8505Z" fill="#D8B167"/>
<path d="M88.88 49.3702V54.7202H87.44V49.4702C87.44 47.9602 86.64 47.3003 86.03 47.3003C85.17 47.3003 84.59 47.8102 84.22 48.3202V54.7302H82.79V48.3502C82.79 47.6402 82.3 46.9502 81.52 46.8602V46.7803H84.22V47.6202C84.66 47.1602 85.26 46.7803 86.05 46.7803C88.08 46.7803 88.89 48.1102 88.89 49.3802L88.88 49.3702Z" fill="#D8B167"/>
<path d="M44.7102 0.200195V37.3402" stroke="#D8B167" stroke-width="0.54" stroke-miterlimit="10"/>
<path d="M44.7102 65.3403V112.12" stroke="#D8B167" stroke-width="0.54" stroke-miterlimit="10"/>
</svg>
