<?xml version="1.0" encoding="utf-8"?>
<!-- Generator: Adobe Illustrator 25.2.3, SVG Export Plug-In . SVG Version: 6.00 Build 0)  -->
<svg version="1.1" id="圖層_1" xmlns="http://www.w3.org/2000/svg" xmlns:xlink="http://www.w3.org/1999/xlink" x="0px" y="0px"
	 viewBox="0 0 280 124" style="enable-background:new 0 0 280 124;" xml:space="preserve">
<style type="text/css">
	.st0{fill:url(#SVGID_1_);}
	.st1{fill:url(#SVGID_2_);}
	.st2{fill:#FFFFFF;stroke:#FFFFFF;stroke-width:0.2;stroke-miterlimit:10;}
</style>
<linearGradient id="SVGID_1_" gradientUnits="userSpaceOnUse" x1="109.7806" y1="61.2839" x2="147.6057" y2="108.4634" gradientTransform="matrix(1 0 0 -1 0 124.3465)">
	<stop  offset="0" style="stop-color:#C9C69C"/>
	<stop  offset="3.038800e-02" style="stop-color:#CAC598"/>
	<stop  offset="7.320140e-02" style="stop-color:#CABF8C"/>
	<stop  offset="0.1234" style="stop-color:#C9B377"/>
	<stop  offset="0.1787" style="stop-color:#C39D57"/>
	<stop  offset="0.2143" style="stop-color:#BC8A42"/>
	<stop  offset="0.2501" style="stop-color:#BE8E47"/>
	<stop  offset="0.3005" style="stop-color:#C49755"/>
	<stop  offset="0.3596" style="stop-color:#CDA86F"/>
	<stop  offset="0.4247" style="stop-color:#DBC096"/>
	<stop  offset="0.4565" style="stop-color:#E3CDAC"/>
	<stop  offset="0.5126" style="stop-color:#E6D2B1"/>
	<stop  offset="0.5916" style="stop-color:#EEE1BE"/>
	<stop  offset="0.6795" style="stop-color:#FAF6D2"/>
	<stop  offset="0.7126" style="stop-color:#F5ECC4"/>
	<stop  offset="0.845" style="stop-color:#DDC38D"/>
	<stop  offset="0.9449" style="stop-color:#CEAA6E"/>
	<stop  offset="1" style="stop-color:#C9A063"/>
</linearGradient>
<path class="st0" d="M107.5,66c-0.1,0-0.2,0.1-0.2,0.1C107.3,66,107.4,66,107.5,66z"/>
<linearGradient id="SVGID_2_" gradientUnits="userSpaceOnUse" x1="117.0895" y1="55.4227" x2="154.9041" y2="102.5892" gradientTransform="matrix(1 0 0 -1 0 124.3465)">
	<stop  offset="0" style="stop-color:#C9C69C"/>
	<stop  offset="3.038800e-02" style="stop-color:#CAC598"/>
	<stop  offset="7.320140e-02" style="stop-color:#CABF8C"/>
	<stop  offset="0.1234" style="stop-color:#C9B377"/>
	<stop  offset="0.1787" style="stop-color:#C39D57"/>
	<stop  offset="0.2143" style="stop-color:#BC8A42"/>
	<stop  offset="0.2501" style="stop-color:#BE8E47"/>
	<stop  offset="0.3005" style="stop-color:#C49755"/>
	<stop  offset="0.3596" style="stop-color:#CDA86F"/>
	<stop  offset="0.4247" style="stop-color:#DBC096"/>
	<stop  offset="0.4565" style="stop-color:#E3CDAC"/>
	<stop  offset="0.5126" style="stop-color:#E6D2B1"/>
	<stop  offset="0.5916" style="stop-color:#EEE1BE"/>
	<stop  offset="0.6795" style="stop-color:#FAF6D2"/>
	<stop  offset="0.7126" style="stop-color:#F5ECC4"/>
	<stop  offset="0.845" style="stop-color:#DDC38D"/>
	<stop  offset="0.9449" style="stop-color:#CEAA6E"/>
	<stop  offset="1" style="stop-color:#C9A063"/>
</linearGradient>
<path class="st1" d="M154.1,60.5V39.8c10.8,8.5,10.2,23.3,10.2,23.3c3.2-14.1-8.4-24.5-8.4-24.5c-0.6-0.5-1.2-1-1.8-1.4V2.9
	l-3.9,3.2v28.6c-0.5-0.3-1-0.5-1.5-0.7V7.3l-3.9,2.9v22.3c-0.4-0.1-0.8-0.2-1.2-0.3V11.4l-3.9,2.9v17.3c-1-0.1-2-0.1-2.9,0V11.4
	L133,8.5v23.6c-0.6,0.1-1.1,0.3-1.6,0.4l0.1-25.3l-3.6-2.9V34c-0.5,0.2-1,0.5-1.5,0.7V3.2L122.5,0v37.1
	c-13.4,9.8-10.2,26.4-10.2,26.6c-1.6,0.7-3.2,1.4-4.9,2.3c2.1-1,25.6-11.7,61.8,0.1C169.3,66.1,163.4,62.8,154.1,60.5z M150.2,37.3
	v22.4c-0.5-0.1-1-0.2-1.5-0.2V36.6C149.3,36.9,149.7,37.1,150.2,37.3z M144.9,35.3V59c-0.4,0-0.8-0.1-1.2-0.1V35
	C144.1,35.1,144.5,35.2,144.9,35.3z M133,35v23.8c-0.6,0-1.1,0.1-1.7,0.1l0.1-23.5C131.9,35.3,132.4,35.1,133,35z M127.9,36.7v22.6
	c-0.5,0.1-1,0.2-1.5,0.3V37.4C126.9,37.2,127.4,36.9,127.9,36.7z M119.7,42.5c0.9-0.9,1.9-1.8,2.8-2.5v20.4
	c-3.3,0.8-6.7,1.9-10.2,3.4C112.5,48.6,119.7,42.5,119.7,42.5z M136.8,58.6V34.5c1.1-0.1,2.1-0.1,2.9,0v24.2
	C138.8,58.6,137.8,58.6,136.8,58.6z"/>
<path class="st2" d="M67.7,108.7h-5.9v3c0,0.2,0,0.4-0.1,0.5c0,0.1-0.3,0.4-0.8,0.7c-0.5,0.3-1,0.6-1.7,0.8c-0.7,0.2-1,0.3-1.2,0.3
	c-0.1,0-0.2-0.1-0.1-0.4c0.1-1.6,0.2-3.3,0.2-4.9v-25c0-1.4,0-2.8-0.1-4.2c2.5,1.2,4.3,2.2,5.2,2.9h4.3l1.2-1.9
	c0.2-0.3,0.3-0.4,0.5-0.4c0.3,0,1,0.5,2.2,1.5c1.2,1,1.8,1.7,1.8,2c0,0.3-0.6,0.7-1.7,1.2v20.3l0.1,4.5v0.6c-1,0.8-1.9,1.4-2.5,1.6
	c-0.7,0.3-1,0.4-1.2,0.4c-0.1,0-0.2-0.2-0.2-0.6V108.7z M61.8,95.2h5.9V84h-5.9V95.2z M61.8,107.1h5.9V96.6h-5.9V107.1z M80,81.9
	h6.2l1.2-2.1c0.3-0.4,0.5-0.6,0.7-0.6c0.2,0,0.7,0.3,1.5,1l2,1.6c0.5,0.4,0.8,0.8,0.8,1.1s-0.7,0.8-2.1,1.5v31.1
	c0,2.1-0.1,3.5-0.4,4.3c-0.3,0.8-1,1.5-2.3,2.3c-1.2,0.8-2,1.2-2.3,1.2c-0.3,0-0.4-0.4-0.6-1.1c-0.1-0.7-0.3-1.3-0.6-1.8
	c-0.3-0.5-0.8-0.9-1.5-1.4c-0.7-0.5-1.9-1-3.4-1.7l0.1-0.8c2.7,0.6,4.4,0.8,5.1,0.8c0.8,0,1.3-0.1,1.6-0.3s0.5-0.7,0.5-1.6v-10.3
	h-8.4c-0.3,5-1.5,8.8-3.6,11.2c-2.1,2.4-5.4,4.7-10,7l-0.4-0.8c2.2-1.7,3.9-3.3,5.2-4.7c1.3-1.4,2.4-2.9,3.1-4.3
	c0.8-1.5,1.3-3,1.7-4.7c0.4-1.7,0.6-4.3,0.8-7.8c0.2-3.5,0.3-7.1,0.3-10.7s-0.1-7.2-0.2-10.7C76.8,80,78.5,80.9,80,81.9z M86.5,94.3
	h-7.7c-0.1,2.8-0.3,5.9-0.6,9.2h8.2L86.5,94.3L86.5,94.3z M78.9,92.7h7.6v-9.4H79c0,1.1,0,2.3,0,3.7C79.1,88.5,79,90.4,78.9,92.7z"
	/>
<path class="st2" d="M135.3,102.7c-0.4,0.4-0.7,0.8-1,1c-0.3,0.3-0.6,0.5-1,0.6c-0.3,0.1-0.8,0.2-1.2,0.3c-0.5,0-1.1,0.1-1.9,0.1
	c-1.2,0-2.1,0-2.7-0.1c-0.7-0.1-1.2-0.3-1.5-0.5c-0.4-0.3-0.6-0.7-0.7-1.2c-0.1-0.5-0.1-1.2-0.1-2v-7.3h-2.9
	c-0.1,0.9-0.1,1.7-0.3,2.3c-0.1,0.6-0.3,1.3-0.5,2c0.7,0.3,1.3,0.6,1.6,0.9c0.3,0.3,0.6,0.5,0.8,0.8c0.4,0.6,0.5,1.2,0.5,1.7
	c-0.1,0.5-0.4,0.9-0.9,1.1c-0.8,0.3-1.5,0-2.1-1c-0.1-0.2-0.2-0.3-0.4-0.5c-0.1-0.2-0.3-0.4-0.4-0.5c-0.4,0.6-0.9,1.2-1.6,1.8
	c-0.7,0.6-1.7,1.3-2.8,1.9c0.6,0.2,1.1,0.3,1.5,0.4c0.4,0.1,0.9,0.3,1.3,0.4c0.5,0.2,0.8,0.4,0.8,0.6s-0.3,0.5-0.9,0.9v1.7h10.7
	l1.4-2.5c0.3-0.4,0.5-0.6,0.7-0.6s0.5,0.2,0.9,0.5c0.5,0.4,1,0.9,1.3,1.3c0.4,0.4,0.8,0.9,1.2,1.3c0.5,0.5,0.7,0.8,0.7,1.1
	c0,0.2-0.4,0.3-1,0.3H121c1.2,1.4,2.2,2.5,3.2,3.3c1,0.9,2,1.6,3.1,2.1c1.1,0.6,2.4,1,3.9,1.4c1.5,0.3,3.3,0.7,5.4,1v1
	c-0.7,0-1.3,0.1-1.8,0.2c-0.4,0.1-0.8,0.2-1.1,0.4c-0.3,0.2-0.5,0.4-0.7,0.7c-0.2,0.3-0.3,0.6-0.5,1c-0.1,0.2-0.2,0.3-0.4,0.3
	c-0.2,0-0.4,0-0.7-0.1c-1.4-0.4-2.6-0.9-3.6-1.5c-1.1-0.6-2.1-1.3-3-2.1c-0.9-0.9-1.8-1.9-2.6-3.1c-0.8-1.2-1.7-2.7-2.6-4.5h-0.8
	v6.5c0,1.2,0,2.1,0,2.9s0,1.7,0,2.6c0,0.4-0.1,0.7-0.4,0.8c-0.5,0.3-1,0.5-1.4,0.7c-0.5,0.2-1,0.3-1.5,0.5c-0.2,0-0.3-0.1-0.3-0.4
	c0-0.7,0.1-1.4,0.1-1.9s0-1.1,0.1-1.5c0-0.5,0-1,0-1.5s0-1,0-1.6v-5.6c-1.3,1.6-2.4,2.9-3.5,4c-1,1.1-2.2,2-3.4,2.8
	c-1.2,0.8-2.6,1.5-4.2,2.2c-1.6,0.7-3.6,1.4-6,2.2l-0.3-0.8c2-1.1,3.6-2,5-2.8c1.3-0.8,2.5-1.6,3.5-2.5c1-0.9,2-1.8,2.8-2.8
	c0.9-1,1.8-2.3,2.9-3.8h-10.7c-0.3,0-0.7,0.1-1,0.2c-0.3,0.1-0.6,0.2-0.8,0.3l-0.7-2.2c0.4,0.1,0.7,0.2,1,0.2
	c0.3,0.1,0.7,0.1,1.1,0.1h14.2c0-0.5,0-1.1,0-1.7c0-0.7,0-1.3,0-1.8c-1.2,0.6-2.8,1.3-4.5,1.9l-0.3-0.6c1.1-0.5,2.1-1.1,3-1.7
	c0.9-0.6,1.7-1.3,2.4-1.9c0.7-0.6,1.3-1.3,1.7-1.9c0.5-0.6,0.8-1.2,1-1.7c-0.5-0.4-1-0.7-1.4-1c-0.4-0.3-1.1-0.6-1.8-1l0.1-0.6
	c0.8,0.1,1.5,0.2,2,0.3c0.5,0.1,1.1,0.3,1.6,0.5c0.1-0.6,0.2-1.1,0.3-1.6c0-0.5,0.1-1.1,0.1-1.8h-0.3c-0.7,0-1.1,0-1.5,0.1
	c-0.3,0-0.7,0.2-1,0.3l-1.6-2c0.7,0.1,1.2,0.1,1.6,0.1c0.4,0,0.9,0,1.6,0h6.6l0.9-1.3c-0.1-0.1-0.2-0.2-0.2-0.4
	c-0.1-0.4-0.2-0.8-0.3-1.2c-0.1-0.3-0.2-0.7-0.4-1c-0.2-0.3-0.4-0.7-0.6-1.1c-0.2-0.4-0.5-0.9-0.9-1.4h-2c-0.9,1.1-1.7,2.1-2.5,2.9
	c-0.8,0.8-1.7,1.7-2.7,2.6l-0.7-0.7c0.8-1.3,1.4-2.4,2-3.4s1.1-2,1.6-2.9c0.5-1,0.9-1.9,1.3-3c0.4-1,0.9-2.2,1.3-3.6
	c0.4,0.2,0.8,0.4,1.1,0.6c0.3,0.2,0.6,0.3,0.9,0.5c0.3,0.1,0.5,0.3,0.7,0.4c0.2,0.1,0.4,0.3,0.7,0.5c0.9,0.6,0.9,0.9-0.1,1.1
	c-0.1,0-0.3,0.1-0.4,0.2c-0.2,0.1-0.3,0.3-0.5,0.5c-0.2,0.2-0.4,0.6-0.7,1c-0.3,0.4-0.6,1-1.1,1.6h7.2l1.5-2.7
	c0.2-0.4,0.4-0.6,0.6-0.6c0.2,0,0.4,0.2,0.8,0.5c0.6,0.6,1.1,1.1,1.6,1.6s0.9,1,1.3,1.5c0.3,0.4,0.4,0.6,0.3,0.8
	c-0.1,0.2-0.4,0.3-0.8,0.3h-9.6c1.3,0.4,2.2,0.8,2.6,1.1c0.4,0.3,0.6,0.7,0.6,1.3c0,0.5-0.1,1-0.3,1.5c-0.2,0.5-0.5,0.8-0.9,1.1
	l2.3,1.5c0.5,0.4,0.5,0.8,0,1.2l-1.2,0.9v5.7c0,0.8,0.1,1.4,0.3,1.6c0.2,0.2,0.7,0.3,1.4,0.3c0.5,0,1-0.1,1.3-0.2s0.6-0.4,0.8-0.9
	c0.2-0.4,0.3-1.1,0.4-1.9c0.1-0.8,0.2-2,0.3-3.3h0.9c0,1.1,0,2,0.1,2.7c0,0.7,0.1,1.2,0.2,1.7c0.1,0.4,0.3,0.7,0.5,0.9
	c0.2,0.2,0.5,0.4,0.8,0.6C135.7,101.8,135.7,102.1,135.3,102.7z M117.4,84.5c0.3,0.4,0.3,0.7,0.3,0.9c-0.1,0.2-0.3,0.3-0.7,0.3h-8
	c1.4,0.6,2.3,1.2,2.7,1.8c0.4,0.7,0.6,1.3,0.4,1.8c-0.2,0.6-0.5,1-0.9,1.3c-0.4,0.3-0.8,0.4-1.1,0.4c-0.1,0-0.2-0.1-0.3-0.2
	c-0.1-0.1-0.1-0.4-0.3-0.8c-0.2-0.7-0.4-1.4-0.7-2.1c-0.3-0.7-0.7-1.4-1.2-2.3h-1.8c-0.5,0.8-1.1,1.5-1.6,2.2s-1,1.4-1.6,2
	c-0.6,0.7-1.1,1.3-1.7,1.9s-1.3,1.3-2.1,1.9l-0.5-0.7c0.7-1.1,1.4-2.2,2-3.2c0.6-1,1.2-2.2,1.8-3.4s1.2-2.5,1.7-4
	c0.6-1.5,1.2-3.1,1.8-5c0.9,0.5,1.5,0.9,2,1.2c0.5,0.3,1,0.7,1.5,1c0.5,0.3,0.7,0.5,0.7,0.7c0,0.2-0.3,0.4-0.9,0.4
	c-0.2,0-0.5,0.3-0.9,0.7c-0.4,0.5-0.9,1.3-1.5,2.6h5.7l1.4-2.3c0.2-0.4,0.4-0.6,0.6-0.6c0.2,0,0.4,0.1,0.7,0.4c0.6,0.5,1,1,1.4,1.4
	C116.8,83.6,117.1,84,117.4,84.5z M115,92.4c0.2,0.3,0.3,0.5,0.3,0.7c-0.1,0.2-0.3,0.3-0.7,0.3h-4.8v7.1l4.8-0.8l0.2,0.9l-9.7,3.7
	c-0.6,0.2-1.1,0.5-1.7,0.7c-0.5,0.2-1,0.6-1.6,0.9c-0.2,0.2-0.4,0.2-0.5,0.2c-0.1,0-0.2-0.2-0.3-0.5c-0.2-0.6-0.4-1.2-0.6-1.7
	c-0.2-0.5-0.4-1.2-0.7-2.1c0.6-0.1,1.1-0.1,1.7-0.2c0.5,0,1-0.1,1.6-0.2c0.5-0.1,1.1-0.1,1.7-0.2c0.6-0.1,1.2-0.2,2-0.4v-7.5H104
	c-0.3,0-0.6,0-1,0.1c-0.3,0.1-0.6,0.1-0.8,0.2l-0.6-2c0.4,0.1,0.7,0.2,1,0.2c0.3,0,0.7,0,1.1,0h7.7l0.9-1.7c0.1-0.3,0.3-0.4,0.4-0.4
	c0.2,0,0.4,0.2,0.7,0.5c0.4,0.4,0.8,0.8,1,1.1C114.6,91.8,114.8,92.1,115,92.4z"/>
<path class="st2" d="M148.1,85.2h-5.8c-0.3,0-0.7,0-1,0.1s-0.6,0.1-0.8,0.2l-0.8-2.2c0.4,0.1,0.7,0.2,1,0.2s0.7,0,1.1,0h5.6l1.4-2.1
	c0.2-0.3,0.4-0.4,0.5-0.4c0.2,0,0.4,0.1,0.7,0.3c0.6,0.5,1,0.9,1.4,1.3c0.4,0.4,0.8,0.8,1.1,1.3c0.4,0.5,0.5,0.9,0.4,1.3
	c-0.2,0.4-0.8,0.8-1.8,1.2l-5,10h2.8L150,95c0.1-0.3,0.3-0.4,0.4-0.4c0.1,0,0.3,0.1,0.5,0.3c0.5,0.3,0.9,0.7,1.4,1s1,0.7,1.5,1.2
	c0.7,0.6,0.6,1-0.2,1.4c-0.4,0.2-0.6,0.4-0.7,0.6c-0.1,0.2-0.2,0.7-0.4,1.5c-0.4,2.4-0.9,4.6-1.4,6.6c-0.6,2-1.1,3.8-1.8,5.2
	c1,0.9,2,1.6,2.9,2.2c1,0.6,2,1.1,3.2,1.5c1.1,0.4,2.4,0.7,3.9,0.9c1.4,0.2,3.1,0.3,5,0.4c1.9,0,4.2,0,6.7-0.1
	c2.5-0.1,5.4-0.3,8.8-0.6v0.9c-0.9,0.2-1.7,0.4-2.3,0.7c-0.6,0.2-1.1,0.5-1.5,0.8c-0.4,0.3-0.7,0.6-1,1c-0.2,0.4-0.4,0.8-0.6,1.3
	c-0.1,0.3-0.2,0.4-0.3,0.5c-0.1,0.1-0.4,0.1-0.8,0.1c-2.8-0.2-5.3-0.3-7.4-0.5c-2.1-0.2-4-0.4-5.6-0.6c-1.6-0.2-3-0.5-4.2-0.8
	c-1.2-0.3-2.3-0.7-3.2-1.2c-0.9-0.5-1.8-1-2.6-1.6c-0.8-0.6-1.6-1.4-2.4-2.2c-0.5,0.8-0.9,1.6-1.4,2.3c-0.5,0.7-1.1,1.3-1.7,2
	c-0.7,0.6-1.4,1.3-2.3,1.9c-0.9,0.6-2,1.3-3.2,2.1l-0.5-0.7c1-1,1.9-1.8,2.7-2.6c0.8-0.8,1.4-1.6,2-2.3c0.6-0.8,1.1-1.5,1.6-2.3
	s0.9-1.7,1.3-2.6c-0.8-1.3-1.5-2.7-2-4.4c-0.6-1.7-1.1-3.8-1.6-6.4l0.7-0.4c0.4,1.2,0.8,2.2,1.1,3c0.3,0.8,0.7,1.6,1,2.2
	c0.3,0.6,0.6,1.2,0.9,1.7s0.6,0.9,0.9,1.3c0.6-1.8,1-3.6,1.4-5.6c0.4-1.9,0.6-4.1,0.8-6.5h-3.8l-0.5,1c-0.1,0.3-0.2,0.4-0.3,0.5
	s-0.3,0.2-0.5,0.2c-0.5-0.1-0.9-0.1-1.2-0.1s-0.6-0.1-1.1-0.2c-0.5-0.1-0.6-0.4-0.4-0.8c0.5-0.8,1-1.6,1.5-2.5s1-1.8,1.4-2.7
	L148.1,85.2z M179,89.8c0.4,0.6,0.6,0.9,0.6,1.1s-0.3,0.3-0.9,0.3h-5.4c0,1,0,1.8,0,2.4c0,0.6,0,1.1,0,1.5c0,0.4,0,0.7,0,0.9
	c0,0.2,0,0.4,0,0.6c0,0.3,0,0.6,0,0.7s-0.1,0.2-0.2,0.3c-0.3,0.2-0.6,0.4-0.9,0.6c-0.3,0.2-0.7,0.4-1.3,0.5c-0.4,0.1-0.6,0.1-0.8,0
	c-0.1-0.1-0.2-0.6-0.2-1.2h-4.6v4.5h4.1l1.2-2.1c0.3-0.4,0.6-0.5,1-0.1c0.5,0.5,1,0.9,1.4,1.3c0.4,0.3,0.8,0.8,1.1,1.2
	c0.8,0.9,0.7,1.3-0.3,1.3h-8.6v4.3h7.1l1.2-2c0.3-0.5,0.5-0.8,0.7-0.8c0.1,0,0.3,0.1,0.6,0.3c0.5,0.5,1,0.9,1.4,1.3
	c0.4,0.4,0.8,0.8,1.1,1.3c0.5,0.6,0.7,1,0.7,1.2c-0.1,0.2-0.4,0.3-1.1,0.3h-11.7c0,0.9,0,1.9,0,3s0,2.1,0.1,2.8c0,0.3,0,0.6-0.1,0.7
	c0,0.1-0.1,0.2-0.3,0.3c-0.5,0.3-0.9,0.5-1.3,0.6c-0.4,0.2-0.9,0.3-1.5,0.4c-0.3,0.1-0.5-0.1-0.5-0.5c0.1-1.3,0.1-2.5,0.1-3.9
	c0-1.3,0-2.5,0-3.5h-6.8c-0.3,0-0.7,0-1,0.1c-0.3,0.1-0.6,0.1-0.8,0.2l-0.8-2.1c0.4,0.1,0.7,0.2,1,0.2s0.7,0,1.1,0h7.3v-4.3h-5.1
	c-0.3,0-0.7,0-1,0.1c-0.3,0.1-0.6,0.1-0.8,0.2l-0.8-2.1c0.4,0.1,0.7,0.2,1,0.2s0.7,0,1.1,0h5.5v-4.5h-4.3c-0.3,0-0.7,0-1,0.1
	s-0.6,0.1-0.8,0.2l-0.8-2.1c0.4,0.1,0.7,0.2,1,0.2s0.7,0,1.1,0h4.7V91h-7.7c-0.3,0-0.7,0-1,0.1c-0.3,0.1-0.6,0.1-0.8,0.2l-0.8-2
	c0.4,0.1,0.7,0.2,1,0.2s0.7,0,1.1,0h8.1v-4.3H157c-0.3,0-0.7,0-1,0.1s-0.6,0.1-0.8,0.2l-0.8-2.1c0.4,0.1,0.7,0.2,1,0.2
	c0.3,0,0.7,0,1.1,0h4.8c0-1.2,0-2.1,0-2.9c0-0.8,0-1.4,0-2c0-0.5,0-1,0-1.4s0-0.8,0-1.2c0.8,0.2,1.6,0.4,2.2,0.6
	c0.6,0.2,1.4,0.5,2.2,0.8c0.4,0.2,0.6,0.4,0.5,0.6c-0.1,0.2-0.5,0.6-1.4,1.2V84h4.4l0.8-1.6c0.1-0.2,0.2-0.4,0.4-0.4
	c0.1,0,0.4,0.1,0.7,0.3c0.5,0.4,1,0.7,1.4,0.9c0.4,0.3,0.8,0.6,1.2,0.9c0.4,0.3,0.5,0.6,0.4,0.9c-0.1,0.3-0.5,0.7-1.4,1.2v3.4h1.1
	l1-2.7c0.2-0.4,0.4-0.6,0.5-0.5c0.1,0,0.4,0.2,0.6,0.4c0.7,0.6,1.2,1.1,1.5,1.5C178.3,88.9,178.7,89.4,179,89.8z M169.9,85.5h-4.6
	v4.3h4.6V85.5z M169.9,91.2h-4.6V96h4.6V91.2z"/>
<path class="st2" d="M195.1,85.7l1.7-2.8c0.2-0.3,0.4-0.5,0.6-0.5c0.2,0,0.9,0.6,2.2,1.8c1.2,1.2,1.8,2,1.8,2.3
	c0,0.3-0.2,0.5-0.7,0.5h-15.9c-0.8,0-1.4,0.1-1.8,0.3l-0.9-2c0.6,0.2,1.3,0.2,2.1,0.2h10.9V85.7z M193.9,98.5l1-1.9
	c0.2-0.4,0.4-0.6,0.7-0.6c0.2,0,0.9,0.5,2.1,1.5c1.1,1,1.7,1.7,1.7,2c0,0.3-0.3,0.5-0.9,0.5h-11.8c-0.8,0-1.4,0.1-1.8,0.3l-1-2.2
	c0.6,0.2,1.3,0.2,2.1,0.2h7.9V98.5z M194.1,92l1.4-2.1c0.2-0.4,0.4-0.6,0.6-0.6c0.2,0,0.9,0.6,2.1,1.7s1.8,1.8,1.8,2.2
	c0,0.3-0.2,0.5-0.6,0.5h-12.5c-0.8,0-1.4,0.1-1.8,0.3l-0.9-2.2c0.6,0.2,1.3,0.2,2.1,0.2H194.1z M189.9,104.7h4.5l0.7-1.4
	c0.1-0.3,0.3-0.4,0.5-0.4c0.3,0,0.9,0.5,2,1.4c1.1,0.9,1.6,1.5,1.6,1.8c0,0.3-0.4,0.7-1.2,1.2v8.9c0,0.7,0,1.3,0,1.8l0.1,1.2
	c0,0.4-0.5,0.8-1.4,1.3c-0.9,0.4-1.6,0.7-1.9,0.7c-0.2,0-0.3-0.2-0.3-0.5v-4.6h-5.4v4.8c0,0.3,0,0.5-0.1,0.6s-0.3,0.3-0.8,0.6
	c-0.4,0.2-0.9,0.5-1.4,0.6c-0.5,0.2-0.9,0.2-1.1,0.2s-0.3-0.1-0.3-0.3l0.1-1.5c0-0.6,0-1.3,0-2.1v-11.6c0-1.4,0-2.8-0.1-4.2
	C187.4,103.5,188.8,104.1,189.9,104.7z M188,76.9c2,0.8,3.5,1.6,4.5,2.3c1,0.7,1.5,1.5,1.5,2.4s-0.3,1.8-1,2.6
	c-0.7,0.9-1.3,1.3-1.8,1.3c-0.3,0-0.6-0.1-0.6-0.3c-0.1-0.2-0.2-0.6-0.3-1.1c-0.4-2.3-1.2-4.6-2.5-6.7L188,76.9z M194.5,114.6V106
	h-5.4v8.6H194.5z M208.4,115.1c-3.1,3.3-7.3,6.1-12.4,8.3l-0.3-0.7c4.8-3.2,8.5-6.6,11.1-10.2c-1.8-3.2-3.1-7.4-3.8-12.5h-1
	c-0.7,0-1.2,0.1-1.6,0.3l-0.7-2c0.6,0.2,1.4,0.2,2.3,0.2h10.9l0.6-1.3c0.1-0.3,0.3-0.4,0.4-0.4c0.2,0,0.9,0.5,2.1,1.5s1.8,1.7,1.8,2
	c0,0.3-0.2,0.5-0.6,0.6c-0.4,0.1-0.7,0.3-0.9,0.5c-0.2,0.2-0.4,0.8-0.7,1.6c-1.3,3.8-3,7-5.1,9.7c2.1,2.2,6.1,4.2,12.1,6.1l-0.1,0.7
	c-1.6,0.1-2.6,0.4-3.2,0.7c-0.6,0.3-1.1,1-1.6,2c-0.1,0.3-0.3,0.4-0.5,0.4c-0.4,0-1.6-0.8-3.6-2.3
	C211.5,118.7,209.8,117,208.4,115.1z M206.7,81.3h4.4l1.1-2c0.2-0.3,0.4-0.5,0.6-0.5s0.9,0.5,2,1.4c1.1,1,1.6,1.6,1.6,1.8
	c0,0.4-0.5,0.8-1.6,1.3V91c0,0.4,0.1,0.7,0.3,0.8c0.2,0.1,0.8,0.2,1.9,0.2s1.8-0.2,2.1-0.7c0.1-0.2,0.2-0.2,0.3-0.2
	c0.3,0,0.8,0.4,1.3,1.2c0.6,0.8,0.9,1.5,0.9,2.1c0,0.9-1.8,1.3-5.3,1.3c-1.2,0-2.3-0.1-3.1-0.3c-0.8-0.2-1.3-0.5-1.6-0.9
	c-0.2-0.4-0.3-1-0.3-1.8v-10h-5.2c0,4.9-0.4,8.2-1.4,9.9c-0.9,1.7-2.9,3.5-6,5.3l-0.5-0.6c2-2.1,3.3-4,3.7-5.6
	c0.5-1.6,0.7-4.4,0.7-8.5c0-1.4,0-2.8-0.1-4.1C204.2,79.8,205.5,80.6,206.7,81.3z M208.4,110c1.7-2.8,3.2-6.2,4.3-10.1h-8.9
	C205.6,104.8,207.1,108.2,208.4,110z"/>
</svg>
