<svg width="288" height="177" viewBox="0 0 288 177" fill="none" xmlns="http://www.w3.org/2000/svg">
<path d="M59.8901 7.1601L68.6901 13.7401C68.1101 14.6601 67.2401 15.0401 65.1301 15.0401H38.5901L41.0601 15.2701C40.9101 16.2701 40.4801 16.8001 38.5101 17.0301V27.8201H51.8901L55.0201 23.4601L63.4601 29.8901C63.0201 30.4301 61.9301 31.1101 60.4801 31.4201V52.9301C60.4801 57.9101 59.5301 61.4301 50.3001 62.5001C50.3001 56.3801 47.6802 55.3001 43.0302 54.7701V53.7701H51.3901C52.2601 53.7701 52.6301 53.5401 52.6301 52.7001V29.3501H38.5201V69.0801C38.5201 70.0001 34.8802 71.9901 31.9702 71.9901H30.3701V29.3501H16.2601V59.5101C16.2601 59.7401 15.1701 62.5701 8.4801 62.5701V24.2901L16.7701 27.8101H30.3701V15.0301H0.770142L0.410156 13.5001H30.3701V0.100098L41.5701 1.1701C41.5001 2.3201 40.7001 2.8501 38.5201 3.1601V13.4901H55.2501L59.9001 7.1401L59.8901 7.1601Z" fill="white"/>
<path d="M141.64 18.1801C141.06 19.1801 140.04 19.4801 138.08 19.4801H136.55C134.73 32.5701 131.53 43.6701 125.35 52.5501C129.71 57.4501 135.24 61.2801 142.08 64.1101L141.93 64.9501C138 65.8701 135.75 68.3201 134.73 72.3801C128.77 68.7801 124.26 63.8801 120.84 58.0601C115.09 64.0301 107.39 68.7801 96.9901 72.1501L96.6301 71.1501C106.45 66.4801 113.28 60.3601 118.16 52.6201C115.25 45.8801 113.43 38.1501 112.2 29.5001C109.95 33.4001 107.4 36.7701 104.49 39.5301L103.47 38.8401C104.49 37.0001 105.51 34.7801 106.38 32.2601C106.09 32.3401 105.73 32.3401 105.36 32.3401H96.1201V53.7801C100.99 53.0901 106.16 52.3301 111.39 51.4801L111.54 52.5501C104.34 55.6901 93.9401 59.6701 78.6001 64.8001C78.1601 65.8001 77.4401 66.4801 76.6401 66.7101L72.4901 56.9101C73.6501 56.8301 75.1102 56.6801 76.7802 56.4501V21.9201L85.7202 22.7601C85.6502 23.6801 84.9901 24.0601 83.2501 24.3701V55.6001L88.8501 54.8301V9.5101H73.9401L73.5001 7.9801H98.3701L102.59 2.2401L110.3 8.2101C109.79 9.2101 108.77 9.5101 106.88 9.5101H96.1201V30.7901H98.0801L101.86 24.9001L107.31 29.6501C109.93 21.3101 111.82 10.6601 112.55 0.100098L123.75 2.2401C123.53 3.3101 122.95 3.8501 120.99 4.0801C119.97 9.0601 118.74 13.6501 117.28 17.9401H129.06L133.5 11.6601L141.65 18.1701L141.64 18.1801ZM116.77 19.4801C115.75 22.2401 114.59 24.8401 113.35 27.2101C115.02 34.8701 117.57 41.4501 121.2 47.1101C124.91 39.2201 126.95 30.0401 128.11 19.4701H116.77V19.4801Z" fill="white"/>
<path d="M146.01 34.0303H198.3L203.83 26.3003L214.01 34.2603C213.28 35.5603 212.19 35.9403 209.94 35.9403H146.53L146.02 34.0303H146.01Z" fill="white"/>
<path d="M287.03 27.0599C286.45 28.0599 285.58 28.4399 283.54 28.4399H263.54C268.85 35.2499 278.74 40.3099 287.76 42.3699L287.61 43.2899C284.85 43.9799 282.74 46.4299 281.94 50.1799C272.92 45.8899 266.09 38.5399 261.87 28.4399H242.09L247.25 30.0499C246.89 30.8199 246.3 31.1199 244.41 30.9699C242.66 33.4999 240.56 36.0199 238.23 38.4699H257.5L260.26 34.7199L268.04 40.3099C267.68 40.8499 266.8 41.4599 265.57 41.6899V54.2399C265.57 54.3199 263.46 56.1499 258.15 56.1499V52.0199H241.13V61.6699C241.13 63.2799 241.28 63.3499 245.2 63.3499H267.24C269.86 63.3499 271.02 63.2699 271.75 62.3499C272.62 61.3499 273.79 58.8299 275.46 53.8499H275.97L275.9 62.4999C279.25 63.5699 279.75 63.7999 279.75 65.0299C279.75 68.0199 277.35 70.0099 266.95 70.0099H245.28C236.04 70.0099 233.64 68.5599 233.64 61.5899V47.0399L242.15 50.5599H258.15V39.9999H236.7C231.39 45.0499 224.92 49.5699 218.23 52.3299L217.65 51.4899C225.21 46.2799 232.56 37.0999 236.49 28.4499H218.96L218.52 26.9199H237.57V14.0599H223.75L223.31 12.5299H237.56V0.129883L248.1 1.19988C247.95 2.19988 247.3 2.64988 245.34 2.95988V12.5299H259.23V0.129883L269.77 1.19988C269.7 2.19988 268.97 2.64988 267.08 3.03988V12.5299H270.86L275.22 6.78988L283.22 12.7599C282.71 13.7599 281.77 14.0599 279.8 14.0599H267.07V26.9199H274.2L278.71 21.0299L287 27.0799L287.03 27.0599ZM245.36 14.0499V26.9099H259.25V14.0499H245.36Z" fill="white"/>
<path d="M0.480103 175.56C27.7501 155.27 27.1701 130.47 27.2401 106.51L38.6602 107.58C38.5902 108.65 38.0101 109.26 35.6801 109.49C37.5701 133.91 44.7701 155.12 68.6201 168.36L68.4702 169.2C64.5402 169.81 62.0701 172.34 61.0501 176.78C43.2301 163.69 37.4901 143.17 35.3101 121.89H35.2401C34.0801 141.95 29.2002 162.31 1.28015 176.7L0.480103 175.55V175.56Z" fill="white"/>
<path d="M141.06 122.05C140.48 122.97 139.61 123.35 137.42 123.35H128.91C125.56 136.21 120.33 147.16 112.18 155.89C120.47 162.01 130.36 166.15 141.12 168.83L140.9 169.83C137.05 170.29 134.06 172.82 132.61 176.87C122.5 173.2 113.85 168.07 106.94 160.87C98.5801 167.99 87.6001 173.35 73.4901 176.72L73.1301 175.72C85.9301 171.2 95.8201 164.77 103.24 156.58C96.6901 148.16 92.1101 137.37 89.5701 123.36H73.9301L73.4901 121.83H103.23V104.68L114.28 105.75C114.13 106.9 113.48 107.43 111.23 107.74V121.83H127.59L132.39 115.09L141.04 122.06L141.06 122.05ZM90.8801 123.35C93.9301 135.37 99.6801 144.56 107.17 151.67C113.06 143.63 116.99 134.14 119.31 123.35H90.8801Z" fill="white"/>
<path d="M182.59 169.29C182.08 170.36 181.14 170.67 179.24 170.67H157.5V174.57C157.5 175.11 155.39 176.71 152.05 176.71H150.89V153.97C149.36 155.81 147.76 157.41 146.16 158.72L145.14 157.95C148.27 153.13 151.47 144.55 153.36 136.13L161.72 139.04C161.43 139.96 160.77 140.42 159.03 140.42C158.45 141.8 157.79 143.18 157.14 144.48L158.45 145.02H163.83C164.19 142.49 164.48 139.13 164.63 136.83L174.01 138.82C173.79 139.66 173.06 140.04 171.32 140.12C170.08 141.57 168.19 143.41 166.45 145.02H172.7L175.97 140.66L182.15 145.25C181.64 146.25 180.7 146.55 178.8 146.55H169.56V152.83H171.23L174.28 148.77L180.1 153.06C179.52 154.06 178.65 154.36 176.83 154.36H169.56V160.94H171.23L174.28 156.81L180.1 161.1C179.59 162.17 178.65 162.4 176.83 162.4H169.56V169.14H172.76L176.18 164.55L182.58 169.3L182.59 169.29ZM211.9 159.8V168.91C214.08 169.98 214.3 170.29 214.3 171.44C214.3 174.12 212.41 175.5 208.05 175.5H204.7C198.59 175.5 197.94 174.35 197.94 167.16V149.25H190.81V150.55C190.81 150.86 189.86 151.7 188.26 152.31L197.21 153.61C196.99 154.68 196.26 155.06 194.3 155.14C192.85 164.02 188.48 172.44 176.85 176.8L176.2 175.58C184.42 170.6 186.96 161.57 187.4 152.54C186.45 152.77 185.73 152.77 183.98 152.77V113.27C183.54 113.65 182.89 113.96 181.73 113.96H173.95V117.79C173.95 118.25 172.64 119.4 168.64 119.4H167.4V113.96H160.27V118.09C160.27 118.55 158.82 119.62 154.96 119.62H153.72V113.96H146.16L145.87 112.43H153.72V104.93L162.59 105.7C162.44 106.7 162.08 107.15 160.26 107.46V112.44H167.39V104.94L176.26 105.71C176.19 106.63 175.82 107.16 173.93 107.55V112.45H176.11L178.87 108.24L183.96 112.3V107.55L191.6 110.69H202.73L205.86 106.4L213.42 112.45C212.91 113.14 212.18 113.6 210.51 113.83V150.12C210.51 150.58 208.18 152.11 204.76 152.19V167.27C204.76 169.03 204.76 169.26 205.49 169.26H207.67C207.96 169.26 208.47 169.26 208.91 168.34C209.49 167.27 210.58 163.36 211.38 159.84H211.89L211.9 159.8ZM162.74 134.77C162.67 135.31 159.9 136.45 158.23 136.45H157.36V133.31H153.51V135.61C153.51 136.07 151.76 137.37 149.07 137.37H148.2V119.84L154.38 122.6H156.78L158.89 119.84L164.93 124.2C164.64 124.66 163.77 125.12 162.75 125.27V134.76L162.74 134.77ZM153.5 131.78H157.35V124.12H153.5V131.78ZM163.03 146.55H157.5V152.83H163.03V146.55ZM163.03 160.94V154.36H157.5V160.94H163.03ZM163.03 169.13V162.39H157.5V169.13H163.03ZM180.63 134.45C180.56 134.99 177.79 136.13 176.12 136.13H175.17V133.3H171.1V134.83C171.1 135.21 169.35 136.59 166.59 136.59H165.72V119.82L172.05 122.58H174.67L176.78 119.75L182.96 124.19C182.6 124.65 181.72 125.11 180.63 125.34V134.45ZM171.1 131.77H175.17V124.11H171.1V131.77ZM203.39 112.17H190.81V122.89H203.39V112.17ZM203.39 135.21V124.42H190.81V135.21H203.39ZM190.81 147.69H203.39V136.74H190.81V147.69Z" fill="white"/>
<path d="M259.97 149.38L258.88 160.02C260.12 162.39 260.7 164.08 260.7 165.3C260.7 167.44 258.52 168.06 257.35 168.06C250.66 168.06 242.66 155.81 240.55 133.84H231.46V155.05C235.39 154.36 239.82 153.52 244.19 152.68L244.34 153.6C240.12 156.2 233.65 159.8 224.49 164.39C224.13 165.39 223.4 166.07 222.6 166.23L218.45 157.2L224.34 156.28V110.73L232.7 114.94C239.25 112.18 246.66 107.9 250.59 104.84L258.95 112.27C258.51 112.65 257.86 112.96 256.99 112.96C256.34 112.96 255.46 112.81 254.52 112.42C252.12 113.11 249.14 113.87 245.87 114.49L249.65 114.87C249.58 115.87 249 116.25 246.96 116.55C246.89 121.83 246.89 127.19 247.32 132.32H250.08L253.64 127.04L260.26 132.55C259.61 133.55 258.73 133.85 256.77 133.85H247.46C248.26 143.27 250.37 151.69 254.73 157.12C255.02 157.58 255.24 157.81 255.53 157.81C256.4 157.81 258.73 151.3 259.38 149.31L259.96 149.39L259.97 149.38ZM242.01 170.43L246.16 164.54L253.72 170.66C253.14 171.58 252.19 171.96 250.23 171.96H224.41L224.05 170.43H242.01ZM231.46 132.31H240.41C239.97 127.03 239.83 121.44 239.76 115.62C237.58 115.93 235.4 116.23 233.29 116.46C232.78 116.69 232.2 116.84 231.47 116.92V132.31H231.46ZM280.33 106.74L287.68 114.7C287.17 115.39 286.15 115.7 284.48 115.7C282.15 120.45 277.5 129.25 274.44 134.3C282.88 139.97 286.8 146.17 286.88 152.52V152.83C286.88 160.56 283.97 165.31 275.46 166.07C275.46 160.48 273.79 159.72 270.88 159.1V158.03H276.19C278.52 158.03 279.32 155.81 279.32 152.21C279.32 146.24 277.57 140.04 272.99 134.53C274.08 129.32 275.83 119.14 276.84 112.94H270.29V174.18C270.29 174.87 267.96 176.71 264.25 176.71H262.94V107.97L271.23 111.41H276.18L280.33 106.74Z" fill="white"/>
</svg>
