<?xml version="1.0" encoding="utf-8"?>
<!-- Generator: Adobe Illustrator 25.2.3, SVG Export Plug-In . SVG Version: 6.00 Build 0)  -->
<svg version="1.1" id="圖層_1" xmlns="http://www.w3.org/2000/svg" xmlns:xlink="http://www.w3.org/1999/xlink" x="0px" y="0px"
	 viewBox="0 0 280 13" style="enable-background:new 0 0 280 13;" xml:space="preserve">
<style type="text/css">
	.st0{opacity:0.6;}
	.st1{fill:#FFFFFF;}
</style>
<g class="st0">
	<path class="st1" d="M155.5,3.1c0,0.4-0.2,0.7-0.6,0.9c-0.3,0.2-0.7,0.2-1.2,0.2c-0.1,0-0.3,0-0.8,0V0.1h0.7c0.4,0,0.7,0.1,1,0.2
		c0.3,0.2,0.5,0.4,0.5,0.7c0,0.2-0.1,0.4-0.2,0.6c-0.2,0.2-0.3,0.3-0.5,0.4c0.3,0.1,0.5,0.2,0.7,0.3C155.4,2.5,155.5,2.8,155.5,3.1z
		 M155.1,3.1c0-0.3-0.1-0.6-0.3-0.8c-0.2-0.1-0.4-0.2-0.7-0.2h-0.2V2h0.2c0.3,0,0.5-0.1,0.6-0.3c0.1-0.2,0.2-0.4,0.2-0.6
		c0-0.6-0.4-0.9-1.2-0.9h-0.2v3.9h0.2C154.6,4.1,155.1,3.8,155.1,3.1z"/>
	<path class="st1" d="M158.7,2.6h-1.6V2.5h1.2c0-0.5-0.2-0.8-0.6-0.8c-0.3,0-0.5,0.1-0.6,0.3c-0.2,0.2-0.2,0.5-0.2,0.9
		s0.1,0.7,0.2,0.9c0.2,0.2,0.4,0.3,0.7,0.3s0.6-0.1,0.8-0.4l0.1,0.2c-0.2,0.2-0.5,0.4-0.9,0.4c-0.4,0-0.7-0.1-0.9-0.4
		c-0.3-0.3-0.4-0.6-0.4-0.9c0-0.4,0.1-0.7,0.4-0.9c0.2-0.3,0.5-0.4,0.9-0.4c0.3,0,0.5,0.1,0.7,0.3C158.6,2.1,158.7,2.3,158.7,2.6z"
		/>
	<path class="st1" d="M161.4,2.5v1.7H161V4c-0.1,0.2-0.4,0.2-0.6,0.2c-0.3,0-0.5-0.1-0.6-0.2c-0.2-0.1-0.3-0.4-0.3-0.6
		c0-0.3,0.1-0.5,0.3-0.6c0.2-0.1,0.4-0.2,0.6-0.2c0.1,0,0.1,0,0.2,0c0.1,0,0.2,0.1,0.3,0.1l-0.1,0.1c-0.1-0.1-0.3-0.1-0.4-0.1
		c-0.2,0-0.3,0.1-0.4,0.2c-0.1,0.1-0.1,0.3-0.1,0.5s0.1,0.4,0.2,0.5c0.1,0.1,0.2,0.2,0.4,0.2c0.3,0,0.5-0.1,0.6-0.4V2.5
		c0-0.6-0.2-0.8-0.6-0.8c-0.2,0-0.4,0.1-0.6,0.2l-0.1-0.1c0.2-0.1,0.4-0.2,0.7-0.2C161.1,1.6,161.4,1.9,161.4,2.5z"/>
	<path class="st1" d="M164.6,4.2h-0.4V3.8c-0.2,0.3-0.5,0.5-0.8,0.5c-0.6,0-0.9-0.3-0.9-0.9V1.7h0.4v1.7c0,0.5,0.2,0.8,0.6,0.8
		c0.2,0,0.4-0.1,0.6-0.4c0.1-0.1,0.1-0.3,0.2-0.5V1.6h0.4L164.6,4.2L164.6,4.2z"/>
	<path class="st1" d="M166.1,1.7v1.6c0,0.3,0,0.4,0.1,0.6c0.1,0.1,0.2,0.2,0.4,0.2v0.1c-0.6,0-0.9-0.3-0.9-0.8V1.8h-0.2V1.7h0.2V1.4
		h0.4V1.7z"/>
	<path class="st1" d="M169.8,1.6l-1.4,3.6h-0.1l0.4-1.1l-1.1-2.6h0.4l0.9,2.1l0.8-2.1L169.8,1.6L169.8,1.6z"/>
	<path class="st1" d="M172.3,4.2h-0.4v-4h0.4V4.2z"/>
	<path class="st1" d="M173.9,0.5c0,0.1,0,0.1-0.1,0.2c-0.1,0-0.1,0.1-0.2,0.1c-0.1,0-0.1,0-0.2-0.1c-0.1,0-0.1-0.1-0.1-0.2
		s0-0.1,0.1-0.2c0,0,0.1-0.1,0.2-0.1c0.1,0,0.1,0,0.2,0.1C173.8,0.3,173.9,0.4,173.9,0.5z M173.8,4.2h-0.4V1.6h0.4V4.2z"/>
	<path class="st1" d="M177.1,2.6h-1.6V2.5h1.2c0-0.5-0.2-0.8-0.6-0.8c-0.3,0-0.5,0.1-0.6,0.3c-0.2,0.2-0.2,0.5-0.2,0.9
		s0.1,0.7,0.2,0.9c0.2,0.2,0.4,0.3,0.7,0.3s0.6-0.1,0.8-0.4l0.1,0.2c-0.2,0.2-0.5,0.4-0.9,0.4c-0.4,0-0.7-0.1-0.9-0.4
		c-0.3-0.3-0.4-0.6-0.4-0.9c0-0.4,0.1-0.7,0.4-0.9c0.2-0.3,0.5-0.4,0.9-0.4c0.3,0,0.5,0.1,0.7,0.3C177,2.1,177.1,2.3,177.1,2.6z"/>
	<path class="st1" d="M179.4,3.6c0,0.2-0.1,0.4-0.2,0.5c-0.1,0.1-0.3,0.2-0.5,0.2c-0.3,0-0.5-0.1-0.7-0.3l0.1-0.2
		c0.2,0.2,0.4,0.3,0.6,0.3c0.1,0,0.3,0,0.3-0.1c0.1-0.1,0.1-0.2,0.1-0.4s-0.1-0.3-0.2-0.4c-0.1-0.1-0.3-0.2-0.5-0.3
		c-0.3-0.2-0.4-0.4-0.4-0.7c0-0.2,0.1-0.3,0.2-0.5c0.1-0.1,0.3-0.1,0.5-0.1c0.1,0,0.2,0,0.4,0.1c0.1,0.1,0.2,0.1,0.3,0.2L179.3,2
		c-0.2-0.2-0.3-0.3-0.5-0.3c-0.3,0-0.4,0.1-0.4,0.3s0.1,0.3,0.3,0.5c0.3,0.2,0.5,0.3,0.6,0.4C179.3,3.1,179.4,3.3,179.4,3.6z"/>
	<path class="st1" d="M182.1,0.5c0,0.1,0,0.1-0.1,0.2c0,0-0.1,0.1-0.2,0.1c-0.1,0-0.1,0-0.2-0.1c-0.1,0-0.1-0.1-0.1-0.2
		s0-0.1,0.1-0.2c0,0,0.1-0.1,0.2-0.1c0.1,0,0.1,0,0.2,0.1C182.1,0.3,182.1,0.4,182.1,0.5z M182,4.2h-0.4V1.6h0.4V4.2z"/>
	<path class="st1" d="M185.2,4.2h-0.4V2.5c0-0.5-0.2-0.8-0.6-0.8c-0.4,0-0.6,0.2-0.8,0.7v1.8H183V1.6h0.4V2c0.2-0.3,0.5-0.4,0.8-0.4
		s0.5,0.1,0.7,0.2c0.2,0.1,0.2,0.4,0.2,0.7L185.2,4.2L185.2,4.2z"/>
	<path class="st1" d="M188,1.7v1.6c0,0.3,0,0.4,0.1,0.6c0.1,0.1,0.2,0.2,0.4,0.2v0.1c-0.6,0-0.9-0.3-0.9-0.8V1.8h-0.2V1.7h0.2V1.4
		h0.4V1.7z"/>
	<path class="st1" d="M191.5,4.2h-0.4V2.5c0-0.5-0.2-0.8-0.6-0.8s-0.6,0.2-0.8,0.7v1.8h-0.4v-4h0.4V2c0.2-0.3,0.5-0.4,0.8-0.4
		s0.5,0.1,0.7,0.2c0.2,0.1,0.2,0.4,0.2,0.7v1.7H191.5z"/>
	<path class="st1" d="M194.8,2.6h-1.6V2.5h1.2c0-0.5-0.2-0.8-0.6-0.8c-0.3,0-0.5,0.1-0.6,0.3C193,2.2,193,2.5,193,2.9
		s0.1,0.7,0.2,0.9c0.2,0.2,0.4,0.3,0.7,0.3c0.3,0,0.6-0.1,0.8-0.4l0.1,0.2c-0.2,0.2-0.5,0.4-0.9,0.4c-0.4,0-0.7-0.1-0.9-0.4
		c-0.3-0.3-0.4-0.6-0.4-0.9c0-0.4,0.1-0.7,0.4-0.9c0.2-0.3,0.5-0.4,0.9-0.4c0.3,0,0.5,0.1,0.7,0.3C194.8,2.2,194.8,2.3,194.8,2.6z"
		/>
	<path class="st1" d="M199.1,3.9c-0.3,0.2-0.6,0.4-0.9,0.4c-0.4,0-0.7-0.1-0.9-0.4c-0.3-0.3-0.4-0.6-0.4-0.9c0-0.4,0.1-0.7,0.4-0.9
		c0.3-0.3,0.6-0.4,0.9-0.4s0.6,0.1,0.8,0.3l-0.1,0.2c-0.2-0.2-0.4-0.3-0.7-0.3s-0.5,0.1-0.7,0.4c-0.2,0.2-0.3,0.5-0.3,0.8
		s0.1,0.6,0.2,0.8c0.2,0.2,0.4,0.4,0.7,0.4c0.3,0,0.6-0.1,0.8-0.4H199.1z"/>
	<path class="st1" d="M202.3,2.9c0,0.4-0.1,0.7-0.4,0.9c-0.3,0.3-0.6,0.4-0.9,0.4c-0.4,0-0.7-0.1-0.9-0.4c-0.3-0.3-0.4-0.6-0.4-0.9
		c0-0.4,0.1-0.7,0.4-0.9c0.3-0.3,0.6-0.4,0.9-0.4c0.4,0,0.7,0.1,0.9,0.4C202.2,2.2,202.3,2.5,202.3,2.9z M201.9,2.9
		c0-0.3-0.1-0.6-0.3-0.8c-0.2-0.2-0.4-0.4-0.6-0.4c-0.3,0-0.5,0.1-0.6,0.4c-0.1,0.3-0.3,0.5-0.3,0.8s0.1,0.6,0.3,0.8
		c0.2,0.2,0.4,0.4,0.6,0.4s0.5-0.1,0.6-0.4C201.8,3.5,201.9,3.2,201.9,2.9z"/>
	<path class="st1" d="M206.8,4.2h-0.4V2.4c0-0.3,0-0.4-0.1-0.5c-0.1-0.1-0.2-0.2-0.4-0.2c-0.3,0-0.5,0.2-0.7,0.6v0.1v1.8h-0.4V2.4
		c0-0.3,0-0.4-0.1-0.5c-0.1-0.1-0.2-0.2-0.4-0.2c-0.1,0-0.3,0.1-0.4,0.2c-0.1,0.1-0.2,0.3-0.3,0.5v1.8h-0.4V1.6h0.4V2
		c0.2-0.3,0.5-0.4,0.7-0.4c0.4,0,0.7,0.1,0.8,0.4c0.2-0.3,0.5-0.4,0.8-0.4c0.6,0,0.8,0.3,0.8,0.8v1.8H206.8z"/>
	<path class="st1" d="M210,2.9c0,0.4-0.1,0.7-0.3,0.9c-0.2,0.3-0.5,0.4-0.8,0.4c-0.3,0-0.5-0.1-0.6-0.3v0.2h-0.4v-4h0.4v3.4
		c0,0.2,0.1,0.3,0.2,0.4c0.1,0.1,0.2,0.2,0.4,0.2c0.2,0,0.4-0.1,0.6-0.3c0.1-0.2,0.2-0.5,0.2-0.9s-0.1-0.6-0.2-0.9
		c-0.1-0.2-0.3-0.3-0.6-0.3c-0.1,0-0.2,0-0.4,0.1l-0.1-0.1c0.1-0.1,0.3-0.1,0.5-0.1c0.3,0,0.6,0.1,0.8,0.4
		C209.9,2.2,210,2.5,210,2.9z"/>
	<path class="st1" d="M211.5,0.5c0,0.1,0,0.1-0.1,0.2c-0.1,0-0.1,0.1-0.2,0.1c-0.1,0-0.1,0-0.2-0.1c-0.1,0-0.1-0.1-0.1-0.2
		s0-0.1,0.1-0.2c0,0,0.1-0.1,0.2-0.1c0.1,0,0.1,0,0.2,0.1C211.5,0.3,211.5,0.4,211.5,0.5z M211.4,4.2H211V1.6h0.4V4.2z"/>
	<path class="st1" d="M214.6,4.2h-0.4V2.5c0-0.5-0.2-0.8-0.6-0.8c-0.4,0-0.6,0.2-0.8,0.7v1.8h-0.4V1.6h0.4V2
		c0.2-0.3,0.5-0.4,0.8-0.4c0.3,0,0.5,0.1,0.7,0.2s0.2,0.4,0.2,0.7v1.7H214.6z"/>
	<path class="st1" d="M217.5,2.5v1.7h-0.4V4c-0.1,0.2-0.4,0.2-0.6,0.2c-0.3,0-0.5-0.1-0.6-0.2c-0.2-0.1-0.3-0.4-0.3-0.6
		c0-0.3,0.1-0.5,0.3-0.6c0.2-0.1,0.4-0.2,0.6-0.2c0.1,0,0.1,0,0.2,0c0.1,0,0.2,0.1,0.3,0.1l-0.1,0.1c-0.1-0.1-0.3-0.1-0.4-0.1
		c-0.2,0-0.3,0.1-0.4,0.2C216,3,216,3.2,216,3.4s0.1,0.4,0.2,0.5c0.1,0.1,0.2,0.2,0.4,0.2c0.3,0,0.5-0.1,0.6-0.4V2.5
		c0-0.6-0.2-0.8-0.6-0.8c-0.2,0-0.4,0.1-0.6,0.2l-0.1-0.1c0.2-0.1,0.4-0.2,0.7-0.2C217.2,1.6,217.5,1.9,217.5,2.5z"/>
	<path class="st1" d="M219.1,1.7v1.6c0,0.3,0,0.4,0.1,0.6c0.1,0.1,0.2,0.2,0.4,0.2v0.1c-0.6,0-0.9-0.3-0.9-0.8V1.8h-0.2V1.7h0.2V1.4
		h0.4V1.7z"/>
	<path class="st1" d="M221,0.5c0,0.1,0,0.1-0.1,0.2c-0.1,0-0.1,0.1-0.2,0.1c-0.1,0-0.1,0-0.2-0.1c0,0-0.1-0.1-0.1-0.2s0-0.1,0.1-0.2
		c0.1,0,0.1-0.1,0.2-0.1c0.1,0,0.1,0,0.2,0.1C220.9,0.3,221,0.4,221,0.5z M220.9,4.2h-0.4V1.6h0.4V4.2z"/>
	<path class="st1" d="M224.6,2.9c0,0.4-0.1,0.7-0.4,0.9c-0.3,0.3-0.6,0.4-0.9,0.4c-0.4,0-0.7-0.1-0.9-0.4c-0.3-0.3-0.4-0.6-0.4-0.9
		c0-0.4,0.1-0.7,0.4-0.9c0.3-0.3,0.6-0.4,0.9-0.4c0.4,0,0.7,0.1,0.9,0.4C224.4,2.2,224.6,2.5,224.6,2.9z M224.1,2.9
		c0-0.3-0.1-0.6-0.3-0.8s-0.4-0.4-0.6-0.4c-0.3,0-0.5,0.1-0.6,0.4c-0.2,0.2-0.3,0.5-0.3,0.8s0.1,0.6,0.3,0.8
		c0.2,0.2,0.4,0.4,0.6,0.4s0.5-0.1,0.6-0.4C224.1,3.5,224.1,3.2,224.1,2.9z"/>
	<path class="st1" d="M227.6,4.2h-0.4V2.5c0-0.5-0.2-0.8-0.6-0.8c-0.4,0-0.6,0.2-0.8,0.7v1.8h-0.4V1.6h0.4V2
		c0.2-0.3,0.5-0.4,0.8-0.4c0.3,0,0.5,0.1,0.7,0.2s0.2,0.4,0.2,0.7v1.7H227.6z"/>
	<path class="st1" d="M232.5,2.9c0,0.4-0.1,0.7-0.4,0.9c-0.3,0.3-0.6,0.4-0.9,0.4c-0.4,0-0.7-0.1-0.9-0.4c-0.3-0.3-0.4-0.6-0.4-0.9
		c0-0.4,0.1-0.7,0.4-0.9c0.3-0.3,0.6-0.4,0.9-0.4c0.4,0,0.7,0.1,0.9,0.4C232.4,2.2,232.5,2.5,232.5,2.9z M232.1,2.9
		c0-0.3-0.1-0.6-0.3-0.8s-0.4-0.4-0.6-0.4c-0.3,0-0.5,0.1-0.6,0.4c-0.2,0.2-0.3,0.5-0.3,0.8s0.1,0.6,0.3,0.8
		c0.2,0.2,0.4,0.4,0.6,0.4s0.5-0.1,0.6-0.4C232,3.5,232.1,3.2,232.1,2.9z"/>
	<path class="st1" d="M234,1.7v2.5h-0.4V1.7h-0.2V1.6h0.2V1c0-0.6,0.3-0.8,0.9-0.8v0.1c-0.2,0-0.3,0.1-0.4,0.2
		C234,0.6,234,0.8,234,1.1V1.7z"/>
	<path class="st1" d="M238.7,4.2h-0.4V2.5c0-0.5-0.2-0.8-0.6-0.8c-0.4,0-0.6,0.2-0.8,0.7v1.8h-0.4V1.6h0.4V2
		c0.2-0.3,0.5-0.4,0.8-0.4s0.5,0.1,0.7,0.2c0.2,0.1,0.2,0.4,0.2,0.7L238.7,4.2L238.7,4.2z"/>
	<path class="st1" d="M241.6,2.5v1.7h-0.4V4c-0.1,0.2-0.4,0.2-0.6,0.2c-0.3,0-0.5-0.1-0.6-0.2c-0.2-0.1-0.3-0.4-0.3-0.6
		c0-0.3,0.1-0.5,0.3-0.6c0.2-0.1,0.4-0.2,0.6-0.2c0.1,0,0.1,0,0.2,0c0.1,0,0.2,0.1,0.3,0.1L241,2.8c-0.1-0.1-0.3-0.1-0.4-0.1
		c-0.2,0-0.3,0.1-0.4,0.2c-0.1,0.1-0.1,0.3-0.1,0.5s0.1,0.4,0.2,0.5c0.1,0.1,0.2,0.2,0.4,0.2c0.3,0,0.5-0.1,0.6-0.4V2.5
		c0-0.6-0.2-0.8-0.6-0.8c-0.2,0-0.4,0.1-0.6,0.2L240,1.8c0.2-0.1,0.4-0.2,0.7-0.2C241.3,1.6,241.6,1.9,241.6,2.5z"/>
	<path class="st1" d="M243.2,1.7v1.6c0,0.3,0,0.4,0.1,0.6c0.1,0.1,0.2,0.2,0.4,0.2v0.1c-0.6,0-0.9-0.3-0.9-0.8V1.8h-0.2V1.7h0.2V1.4
		h0.4V1.7z"/>
	<path class="st1" d="M246.7,4.2h-0.4V3.8c-0.2,0.3-0.5,0.5-0.8,0.5c-0.6,0-0.9-0.3-0.9-0.9V1.7h0.4v1.7c0,0.5,0.2,0.8,0.6,0.8
		c0.2,0,0.4-0.1,0.6-0.4c0.1-0.1,0.1-0.3,0.2-0.5V1.6h0.4v2.6H246.7z"/>
	<path class="st1" d="M248.9,1.7l-0.1,0.2c-0.1-0.1-0.2-0.1-0.3-0.1s-0.1,0-0.2,0c-0.2,0.1-0.3,0.4-0.3,0.7v1.7h-0.4V1.6h0.4v0.3
		c0.1-0.1,0.1-0.2,0.2-0.2c0.1-0.1,0.2-0.1,0.3-0.1C248.7,1.6,248.8,1.6,248.9,1.7z"/>
	<path class="st1" d="M251.6,2.5v1.7h-0.4V4c-0.1,0.2-0.4,0.2-0.6,0.2c-0.3,0-0.5-0.1-0.6-0.2c-0.2-0.1-0.3-0.4-0.3-0.6
		c0-0.3,0.1-0.5,0.3-0.6c0.2-0.1,0.4-0.2,0.6-0.2c0.1,0,0.1,0,0.2,0c0.1,0,0.2,0.1,0.3,0.1L251,2.8c-0.1-0.1-0.3-0.1-0.4-0.1
		c-0.2,0-0.3,0.1-0.4,0.2c-0.1,0.1-0.1,0.3-0.1,0.5s0.1,0.4,0.2,0.5c0.1,0.1,0.2,0.2,0.4,0.2c0.3,0,0.5-0.1,0.6-0.4V2.5
		c0-0.6-0.2-0.8-0.6-0.8c-0.2,0-0.4,0.1-0.6,0.2L250,1.8c0.2-0.1,0.4-0.2,0.7-0.2C251.3,1.6,251.6,1.9,251.6,2.5z"/>
	<path class="st1" d="M253.1,4.2h-0.4v-4h0.4V4.2z"/>
	<path class="st1" d="M255.7,4.2h-0.4v-4h0.4V4.2z"/>
	<path class="st1" d="M258.6,2.5v1.7h-0.4V4c-0.1,0.2-0.4,0.2-0.6,0.2c-0.3,0-0.5-0.1-0.6-0.2c-0.2-0.1-0.3-0.4-0.3-0.6
		c0-0.3,0.1-0.5,0.3-0.6c0.2-0.1,0.4-0.2,0.6-0.2c0.1,0,0.1,0,0.2,0c0.1,0,0.2,0.1,0.3,0.1L258,2.8c-0.1-0.1-0.3-0.1-0.4-0.1
		c-0.2,0-0.3,0.1-0.4,0.2c-0.1,0.1-0.1,0.3-0.1,0.5s0.1,0.4,0.2,0.5c0.1,0.1,0.2,0.2,0.4,0.2c0.3,0,0.5-0.1,0.6-0.4V2.5
		c0-0.6-0.2-0.8-0.6-0.8c-0.2,0-0.4,0.1-0.6,0.2L257,1.8c0.2-0.1,0.4-0.2,0.7-0.2C258.3,1.6,258.6,1.9,258.6,2.5z"/>
	<path class="st1" d="M261.7,4.2h-0.4V2.5c0-0.5-0.2-0.8-0.6-0.8c-0.4,0-0.6,0.2-0.8,0.7v1.8h-0.4V1.6h0.4V2
		c0.2-0.3,0.5-0.4,0.8-0.4c0.3,0,0.5,0.1,0.7,0.2c0.2,0.1,0.2,0.4,0.2,0.7v1.7H261.7z"/>
	<path class="st1" d="M265,4.2h-0.4V4c-0.2,0.2-0.4,0.3-0.6,0.3c-0.3,0-0.6-0.1-0.8-0.4c-0.2-0.3-0.3-0.6-0.3-0.9
		c0-0.4,0.1-0.7,0.3-0.9c0.2-0.3,0.5-0.4,0.8-0.4c0.1,0,0.3,0,0.5,0.1L264.4,2c-0.1-0.1-0.3-0.1-0.4-0.1c-0.2,0-0.4,0.1-0.5,0.3
		c-0.2,0.2-0.2,0.5-0.2,0.9s0.1,0.6,0.2,0.9c0.1,0.2,0.3,0.3,0.6,0.3c0.1,0,0.3-0.1,0.4-0.2c0.1-0.1,0.2-0.2,0.2-0.4V0.3h0.4v3.9
		H265z"/>
	<path class="st1" d="M267.4,3.6c0,0.2-0.1,0.4-0.2,0.5c-0.1,0.1-0.3,0.2-0.5,0.2c-0.3,0-0.5-0.1-0.7-0.3l0.1-0.2
		c0.2,0.2,0.4,0.3,0.6,0.3c0.1,0,0.3,0,0.3-0.1c0.1-0.1,0.1-0.2,0.1-0.4s-0.1-0.3-0.2-0.4s-0.3-0.2-0.5-0.3
		c-0.3-0.2-0.4-0.4-0.4-0.7c0-0.2,0.1-0.3,0.2-0.5c0.1-0.1,0.3-0.1,0.5-0.1c0.1,0,0.2,0,0.4,0.1c0.1,0.1,0.2,0.1,0.3,0.2L267.3,2
		c-0.2-0.2-0.3-0.3-0.5-0.3c-0.3,0-0.4,0.1-0.4,0.3s0.1,0.3,0.3,0.5c0.3,0.2,0.5,0.3,0.6,0.4C267.3,3.1,267.4,3.3,267.4,3.6z"/>
	<path class="st1" d="M270.5,3.9c-0.3,0.2-0.6,0.4-0.9,0.4c-0.4,0-0.7-0.1-0.9-0.4c-0.3-0.3-0.4-0.6-0.4-0.9c0-0.4,0.1-0.7,0.4-0.9
		c0.3-0.3,0.6-0.4,0.9-0.4c0.3,0,0.6,0.1,0.8,0.3l-0.1,0.2c-0.2-0.2-0.4-0.3-0.7-0.3c-0.3,0-0.5,0.1-0.7,0.4
		c-0.2,0.2-0.3,0.5-0.3,0.8s0.1,0.6,0.2,0.8c0.2,0.2,0.4,0.4,0.7,0.4s0.6-0.1,0.8-0.4H270.5z"/>
	<path class="st1" d="M273.1,2.5v1.7h-0.4V4c-0.1,0.2-0.4,0.2-0.6,0.2c-0.3,0-0.5-0.1-0.6-0.2c-0.2-0.1-0.3-0.4-0.3-0.6
		c0-0.3,0.1-0.5,0.3-0.6c0.2-0.1,0.4-0.2,0.6-0.2c0.1,0,0.1,0,0.2,0c0.1,0,0.2,0.1,0.3,0.1l-0.1,0.1c-0.1-0.1-0.3-0.1-0.4-0.1
		c-0.2,0-0.3,0.1-0.4,0.2c-0.1,0.1-0.1,0.3-0.1,0.5s0.1,0.4,0.2,0.5c0.1,0.1,0.2,0.2,0.4,0.2c0.3,0,0.5-0.1,0.6-0.4V2.5
		c0-0.6-0.2-0.8-0.6-0.8c-0.2,0-0.4,0.1-0.6,0.2l-0.1-0.1c0.2-0.1,0.4-0.2,0.7-0.2C272.8,1.6,273.1,1.9,273.1,2.5z"/>
	<path class="st1" d="M276.4,2.9c0,0.4-0.1,0.7-0.3,0.9c-0.2,0.3-0.5,0.4-0.8,0.4c-0.1,0-0.3,0-0.5-0.1l0.1-0.1
		c0.1,0.1,0.2,0.1,0.4,0.1c0.2,0,0.4-0.1,0.5-0.3c0.1-0.2,0.2-0.5,0.2-0.9s-0.1-0.6-0.2-0.9c-0.1-0.2-0.3-0.3-0.6-0.3
		c-0.1,0-0.3,0.1-0.4,0.2c-0.1,0.1-0.2,0.2-0.2,0.4v2.9h-0.4V1.7h0.4v0.2c0.2-0.2,0.4-0.3,0.6-0.3c0.3,0,0.6,0.1,0.8,0.4
		C276.3,2.3,276.4,2.6,276.4,2.9z"/>
	<path class="st1" d="M279.6,2.6H278V2.5h1.2c0-0.5-0.2-0.8-0.6-0.8c-0.3,0-0.5,0.1-0.6,0.3c-0.2,0.2-0.2,0.5-0.2,0.9
		s0.1,0.7,0.2,0.9c0.2,0.2,0.4,0.3,0.7,0.3c0.3,0,0.6-0.1,0.8-0.4l0.1,0.2c-0.2,0.2-0.5,0.4-0.9,0.4c-0.4,0-0.7-0.1-0.9-0.4
		c-0.3-0.3-0.4-0.6-0.4-0.9c0-0.4,0.1-0.7,0.4-0.9c0.2-0.3,0.5-0.4,0.9-0.4c0.3,0,0.5,0.1,0.7,0.3C279.5,2.1,279.6,2.3,279.6,2.6z"
		/>
	<path class="st1" d="M224.7,9.7v1.7h-0.4v-0.2c-0.1,0.2-0.4,0.2-0.6,0.2c-0.3,0-0.5-0.1-0.6-0.2c-0.2-0.1-0.3-0.4-0.3-0.6
		c0-0.3,0.1-0.5,0.3-0.6c0.2-0.1,0.4-0.2,0.6-0.2c0.1,0,0.1,0,0.2,0c0.1,0,0.2,0.1,0.3,0.1l-0.1,0.1c-0.1-0.1-0.3-0.1-0.4-0.1
		c-0.2,0-0.3,0.1-0.4,0.2c-0.1,0.1-0.1,0.3-0.1,0.5s0.1,0.4,0.2,0.5c0.1,0.1,0.2,0.2,0.4,0.2c0.3,0,0.5-0.1,0.6-0.4V9.7
		c0-0.6-0.2-0.8-0.6-0.8c-0.2,0-0.4,0.1-0.6,0.2L223.1,9c0.2-0.1,0.4-0.2,0.7-0.2C224.4,8.8,224.7,9.1,224.7,9.7z"/>
	<path class="st1" d="M227.9,11.4h-0.4V9.7c0-0.5-0.2-0.8-0.6-0.8c-0.4,0-0.6,0.2-0.8,0.7v1.8h-0.4V8.8h0.4v0.4
		c0.2-0.3,0.5-0.4,0.8-0.4c0.3,0,0.5,0.1,0.7,0.2c0.2,0.1,0.2,0.4,0.2,0.7L227.9,11.4L227.9,11.4z"/>
	<path class="st1" d="M231.1,11.4h-0.4v-0.2c-0.2,0.2-0.4,0.3-0.6,0.3c-0.3,0-0.6-0.1-0.8-0.4s-0.3-0.6-0.3-0.9
		c0-0.4,0.1-0.7,0.3-0.9c0.2-0.3,0.5-0.4,0.8-0.4c0.1,0,0.3,0,0.5,0.1l-0.1,0.1C230.4,9,230.2,9,230.1,9c-0.2,0-0.4,0.1-0.5,0.3
		c-0.2,0.2-0.2,0.5-0.2,0.9c0,0.4,0.1,0.6,0.2,0.9c0.1,0.2,0.3,0.3,0.6,0.3c0.1,0,0.3-0.1,0.4-0.2c0.1-0.1,0.2-0.2,0.2-0.4V7.4h0.4
		L231.1,11.4L231.1,11.4z"/>
	<path class="st1" d="M235.3,9.7v1.7h-0.4v-0.2c-0.1,0.2-0.4,0.2-0.6,0.2c-0.3,0-0.5-0.1-0.6-0.2c-0.2-0.1-0.3-0.4-0.3-0.6
		c0-0.3,0.1-0.5,0.3-0.6c0.2-0.1,0.4-0.2,0.6-0.2c0.1,0,0.1,0,0.2,0s0.2,0.1,0.3,0.1l-0.1,0.1c-0.1-0.1-0.3-0.1-0.4-0.1
		c-0.2,0-0.3,0.1-0.4,0.2c-0.1,0.1-0.1,0.3-0.1,0.5s0.1,0.4,0.2,0.5c0.1,0.1,0.2,0.2,0.4,0.2c0.3,0,0.5-0.1,0.6-0.4V9.7
		c0-0.6-0.2-0.8-0.6-0.8c-0.2,0-0.4,0.1-0.6,0.2L233.7,9c0.2-0.1,0.4-0.2,0.7-0.2C235,8.8,235.3,9.1,235.3,9.7z"/>
	<path class="st1" d="M237.5,8.9l-0.1,0.2C237.3,9,237.2,9,237.1,9c-0.1,0-0.1,0-0.2,0c-0.2,0.1-0.3,0.4-0.3,0.7v1.7h-0.4V8.8h0.4
		v0.3c0.1-0.1,0.1-0.2,0.2-0.2c0.1-0.1,0.2-0.1,0.3-0.1C237.3,8.8,237.4,8.8,237.5,8.9z"/>
	<path class="st1" d="M239,8.9v1.6c0,0.3,0,0.4,0.1,0.6c0.1,0.1,0.2,0.2,0.4,0.2v0.1c-0.6,0-0.9-0.3-0.9-0.8V9h-0.2V8.9h0.2V8.6h0.4
		V8.9z"/>
	<path class="st1" d="M240.9,7.7c0,0.1,0,0.1-0.1,0.2c-0.1,0-0.1,0.1-0.2,0.1c-0.1,0-0.1,0-0.2-0.1c-0.1-0.1-0.1-0.1-0.1-0.2
		c0-0.1,0-0.1,0.1-0.2c0,0,0.1-0.1,0.2-0.1c0.1,0,0.1,0,0.2,0.1C240.9,7.5,240.9,7.6,240.9,7.7z M240.8,11.4h-0.4V8.8h0.4V11.4z"/>
	<path class="st1" d="M243.3,10.8c0,0.2-0.1,0.4-0.2,0.5c-0.1,0.1-0.3,0.2-0.5,0.2c-0.3,0-0.5-0.1-0.7-0.3L242,11
		c0.2,0.2,0.4,0.3,0.6,0.3c0.1,0,0.3,0,0.3-0.1c0.1-0.1,0.1-0.2,0.1-0.4c0-0.2-0.1-0.3-0.2-0.4c-0.1-0.1-0.3-0.2-0.5-0.3
		c-0.3-0.2-0.4-0.4-0.4-0.7c0-0.2,0.1-0.3,0.2-0.5c0.1-0.1,0.3-0.1,0.5-0.1c0.1,0,0.2,0,0.4,0.1c0.1,0.1,0.2,0.1,0.3,0.2l-0.1,0.1
		c-0.2-0.2-0.3-0.3-0.5-0.3c-0.3,0-0.4,0.1-0.4,0.3s0.1,0.3,0.3,0.5c0.3,0.2,0.5,0.3,0.6,0.4C243.2,10.3,243.3,10.5,243.3,10.8z"/>
	<path class="st1" d="M244.8,8.9v1.6c0,0.3,0,0.4,0.1,0.6c0.1,0.1,0.2,0.2,0.4,0.2v0.1c-0.6,0-0.9-0.3-0.9-0.8V9h-0.2V8.9h0.2V8.6
		h0.4V8.9z"/>
	<path class="st1" d="M246.6,7.7c0,0.1,0,0.1-0.1,0.2c-0.1,0-0.1,0.1-0.2,0.1c-0.1,0-0.1,0-0.2-0.1C246,7.8,246,7.8,246,7.7
		c0-0.1,0-0.1,0.1-0.2c0,0,0.1-0.1,0.2-0.1c0.1,0,0.1,0,0.2,0.1C246.6,7.5,246.6,7.6,246.6,7.7z M246.6,11.4h-0.4V8.8h0.4V11.4z"/>
	<path class="st1" d="M249.8,11.1c-0.3,0.2-0.6,0.4-0.9,0.4c-0.4,0-0.7-0.1-0.9-0.4c-0.3-0.3-0.4-0.6-0.4-0.9c0-0.4,0.1-0.7,0.4-0.9
		c0.3-0.3,0.6-0.4,0.9-0.4c0.3,0,0.6,0.1,0.8,0.3l-0.1,0.2c-0.2-0.2-0.4-0.3-0.7-0.3c-0.3,0-0.5,0.1-0.7,0.4
		c-0.2,0.2-0.3,0.5-0.3,0.8s0.1,0.6,0.2,0.8c0.2,0.2,0.4,0.4,0.7,0.4s0.6-0.1,0.8-0.4H249.8z"/>
	<path class="st1" d="M253.9,9.8h-1.6V9.7h1.2c0-0.5-0.2-0.8-0.6-0.8c-0.3,0-0.5,0.1-0.6,0.3c-0.2,0.2-0.2,0.5-0.2,0.9
		c0,0.4,0.1,0.7,0.2,0.9c0.2,0.2,0.4,0.3,0.7,0.3s0.6-0.1,0.8-0.4l0.1,0.2c-0.2,0.2-0.5,0.4-0.9,0.4s-0.7-0.1-0.9-0.4
		c-0.3-0.3-0.4-0.6-0.4-0.9c0-0.4,0.1-0.7,0.4-0.9c0.2-0.3,0.5-0.4,0.9-0.4c0.3,0,0.5,0.1,0.7,0.3C253.8,9.3,253.9,9.5,253.9,9.8z"
		/>
	<path class="st1" d="M257,11.4h-0.5l-0.8-1.2l-1,1.2h-0.1l1.1-1.3l-0.9-1.3h0.4l0.7,1l0.8-1h0.1l-0.9,1.1L257,11.4z"/>
	<path class="st1" d="M260,10.1c0,0.4-0.1,0.7-0.3,0.9c-0.2,0.3-0.5,0.4-0.8,0.4c-0.1,0-0.3,0-0.5-0.1l0.1-0.1
		c0.1,0.1,0.2,0.1,0.4,0.1c0.2,0,0.4-0.1,0.5-0.3c0.1-0.2,0.2-0.5,0.2-0.9c0-0.4-0.1-0.6-0.2-0.9c-0.1-0.2-0.3-0.3-0.6-0.3
		c-0.1,0-0.3,0.1-0.4,0.2c-0.1,0.1-0.2,0.2-0.2,0.4v2.9h-0.4V8.9h0.4v0.2c0.2-0.2,0.4-0.3,0.6-0.3c0.3,0,0.6,0.1,0.8,0.4
		C259.9,9.5,260,9.8,260,10.1z"/>
	<path class="st1" d="M262.2,8.9l-0.1,0.2C262,9,261.9,9,261.8,9c-0.1,0-0.1,0-0.2,0c-0.2,0.1-0.3,0.4-0.3,0.7v1.7H261V8.8h0.4v0.3
		c0.1-0.1,0.1-0.2,0.2-0.2c0.1-0.1,0.2-0.1,0.3-0.1S262.1,8.8,262.2,8.9z"/>
	<path class="st1" d="M265.1,9.8h-1.6V9.7h1.2c0-0.5-0.2-0.8-0.6-0.8c-0.3,0-0.5,0.1-0.6,0.3c-0.2,0.2-0.2,0.5-0.2,0.9
		c0,0.4,0.1,0.7,0.2,0.9c0.2,0.2,0.4,0.3,0.7,0.3c0.3,0,0.6-0.1,0.8-0.4l0.1,0.2c-0.2,0.2-0.5,0.4-0.9,0.4c-0.4,0-0.7-0.1-0.9-0.4
		c-0.3-0.3-0.4-0.6-0.4-0.9c0-0.4,0.1-0.7,0.4-0.9c0.3-0.2,0.5-0.4,0.9-0.4c0.3,0,0.5,0.1,0.7,0.3C265,9.3,265.1,9.5,265.1,9.8z"/>
	<path class="st1" d="M267.4,10.8c0,0.2-0.1,0.4-0.2,0.5c-0.1,0.1-0.3,0.2-0.5,0.2c-0.3,0-0.5-0.1-0.7-0.3l0.1-0.2
		c0.2,0.2,0.4,0.3,0.6,0.3c0.1,0,0.3,0,0.4-0.1c0.1-0.1,0.1-0.2,0.1-0.4c0-0.2-0.1-0.3-0.2-0.4s-0.3-0.2-0.5-0.3
		c-0.3-0.2-0.4-0.4-0.4-0.7c0-0.2,0.1-0.3,0.2-0.5c0.1-0.1,0.3-0.1,0.5-0.1c0.1,0,0.2,0,0.4,0.1c0.1,0.1,0.2,0.1,0.3,0.2l-0.1,0.1
		c-0.2-0.2-0.3-0.3-0.5-0.3c-0.3,0-0.4,0.1-0.4,0.3s0.1,0.3,0.3,0.5c0.3,0.2,0.5,0.3,0.6,0.4C267.3,10.3,267.4,10.5,267.4,10.8z"/>
	<path class="st1" d="M269.8,10.8c0,0.2-0.1,0.4-0.2,0.5c-0.1,0.1-0.3,0.2-0.5,0.2c-0.3,0-0.5-0.1-0.7-0.3l0.1-0.2
		c0.2,0.2,0.4,0.3,0.6,0.3c0.1,0,0.3,0,0.4-0.1c0.1-0.1,0.1-0.2,0.1-0.4c0-0.2-0.1-0.3-0.2-0.4s-0.3-0.2-0.5-0.3
		c-0.3-0.2-0.4-0.4-0.4-0.7c0-0.2,0.1-0.3,0.2-0.5c0.1-0.1,0.3-0.1,0.5-0.1c0.1,0,0.2,0,0.4,0.1c0.1,0.1,0.2,0.1,0.3,0.2l-0.1,0.1
		c-0.2-0.2-0.3-0.3-0.5-0.3c-0.3,0-0.4,0.1-0.4,0.3s0.1,0.3,0.3,0.5c0.3,0.2,0.5,0.3,0.6,0.4C269.7,10.3,269.8,10.5,269.8,10.8z"/>
	<path class="st1" d="M271.2,7.7c0,0.1,0,0.1-0.1,0.2C271,7.9,271,8,270.9,8s-0.1,0-0.2-0.1c-0.1-0.1-0.1-0.1-0.1-0.2
		c0-0.1,0-0.1,0.1-0.2c0,0,0.1-0.1,0.2-0.1s0.1,0,0.2,0.1C271.2,7.5,271.2,7.6,271.2,7.7z M271.2,11.4h-0.4V8.8h0.4V11.4z"/>
	<path class="st1" d="M274.8,10.1c0,0.4-0.1,0.7-0.4,0.9c-0.3,0.3-0.6,0.4-0.9,0.4c-0.4,0-0.7-0.1-0.9-0.4c-0.3-0.3-0.4-0.6-0.4-0.9
		c0-0.4,0.1-0.7,0.4-0.9c0.3-0.3,0.6-0.4,0.9-0.4c0.4,0,0.7,0.1,0.9,0.4C274.7,9.4,274.8,9.7,274.8,10.1z M274.4,10.1
		c0-0.3-0.1-0.6-0.3-0.8c-0.2-0.2-0.4-0.3-0.6-0.3c-0.3,0-0.5,0.1-0.6,0.3c-0.2,0.2-0.3,0.5-0.3,0.8c0,0.3,0.1,0.6,0.3,0.8
		c0.2,0.2,0.4,0.4,0.6,0.4s0.5-0.1,0.6-0.4C274.3,10.7,274.4,10.4,274.4,10.1z"/>
	<path class="st1" d="M277.9,11.4h-0.4V9.7c0-0.5-0.2-0.8-0.6-0.8s-0.6,0.2-0.8,0.7v1.8h-0.4V8.8h0.4v0.4c0.2-0.3,0.5-0.4,0.8-0.4
		c0.3,0,0.5,0.1,0.7,0.2c0.2,0.1,0.2,0.4,0.2,0.7v1.7H277.9z"/>
	<path class="st1" d="M279.4,11.2c0,0.1,0,0.1-0.1,0.2c0,0.1-0.1,0.1-0.2,0.1s-0.1,0-0.2-0.1c0,0-0.1-0.1-0.1-0.2
		c0-0.1,0-0.1,0.1-0.2c0,0,0.1-0.1,0.2-0.1s0.1,0,0.2,0.1C279.4,11.1,279.4,11.2,279.4,11.2z"/>
</g>
</svg>
