<?xml version="1.0" encoding="utf-8"?>
<!-- Generator: Adobe Illustrator 25.2.3, SVG Export Plug-In . SVG Version: 6.00 Build 0)  -->
<svg version="1.1" id="圖層_1" xmlns="http://www.w3.org/2000/svg" xmlns:xlink="http://www.w3.org/1999/xlink" x="0px" y="0px"
	 viewBox="0 0 280 80" style="enable-background:new 0 0 280 80;" xml:space="preserve">
<style type="text/css">
	.st0{fill:#3E3A39;}
</style>
<path class="st0" d="M7,9.7c-0.6,0.5-1.2,0.9-2,1.3c0.2,0.1,0.4,0.1,0.6,0.1c0.6,0.1,1.9,0.1,3.7,0.2c1.3,0,2.3,0,3-0.1l-0.2,1.2
	c-3.5,0-5.7-0.1-6.4-0.1C5,12.2,4.4,12.1,4,11.9s-0.8-0.5-1.3-1.1c-0.3,0.6-0.7,1.3-1.2,2l-0.8-0.9c0.6-0.7,0.9-1.3,1.2-1.9
	c0.2-0.3,0.4-1,0.7-2H1.1V7C1.5,6.5,2,5.8,2.5,4.9H0.9v-1h2.8v0.9C3.3,5.5,2.9,6.3,2.4,7h1.4v0.7c-0.2,1-0.4,1.7-0.6,2.2
	c0.6,0.6,1,0.9,1.3,1.1c0.1,0.1,0.2,0.1,0.3,0.1l-0.6-0.8C5,10,5.7,9.7,6.4,9.2L7,9.7z M3.5,2.5L2.7,3.3C2.4,2.7,1.9,2.1,1.4,1.4
	l0.7-0.7C2.7,1.3,3.1,1.9,3.5,2.5z M5.7,6.2V5.6h1.1v0.6h2V5.6h1.1v0.6h1.9v0.9H9.9V8H12v0.9H4V8h1.7V7.1H4.1V6.2H5.7z M7.5,3.5H5.1
	v0.7c0,0.2,0.1,0.3,0.4,0.3h0.9c0.2,0,0.3,0,0.4-0.1C6.9,4.4,7,4.1,7,3.7L7.9,4C7.8,4.7,7.7,5,7.5,5.1C7.3,5.2,7,5.3,6.6,5.3H5.2
	c-0.3,0-0.5-0.1-0.7-0.2C4.4,4.9,4.3,4.7,4.3,4.4V1h3.4L7.5,3.5L7.5,3.5z M5,2.7h1.4V1.9H5V2.7z M8.8,8V7.1h-2V8C6.8,8,8.8,8,8.8,8z
	 M11.6,3.5H9.1v0.8c0,0.2,0.1,0.3,0.4,0.3h0.9c0.2,0,0.3,0,0.4-0.1C10.9,4.4,11,4.2,11,3.8l1,0.3c-0.1,0.7-0.3,1-0.5,1.1
	s-0.5,0.2-1,0.2H9.1c-0.3,0-0.6-0.1-0.8-0.2C8.1,5,8,4.8,8,4.6V1.1h3.5L11.6,3.5L11.6,3.5z M11.5,10l-0.6,1
	c-0.8-0.5-1.5-0.9-2.3-1.2l0.5-0.9C10,9.3,10.8,9.6,11.5,10z M9.1,2.7h1.4V1.8H9.1V2.7z"/>
<path class="st0" d="M24.6,1v9.9c0,0.4-0.1,0.8-0.3,1s-0.5,0.4-0.9,0.4h-1.6l-0.3-1.2l1.6,0.1c0.2,0,0.4-0.1,0.4-0.4V8.5h-3.2v3.7
	H19V8.5h-3.3c0,0.4-0.1,0.9-0.2,1.3c-0.2,0.9-0.5,1.8-1,2.7l-1-0.9c0.5-0.7,0.8-1.4,0.9-2.1c0.1-0.8,0.2-1.5,0.2-2.1V1.2h0.6h9.3V1
	H24.6z M19,4.1v-2h-3.2v2H19z M19,7.3V5.2h-3.2v2.1H19z M20.2,4.1h3.2v-2h-3.2V4.1z M20.2,7.3h3.2V5.2h-3.2V7.3z"/>
<path class="st0" d="M28.5,3.7V1.4h1.3v2.3h1.8V0.8h1.2v2.9h2.4V0.8h1.1v2.9h2.1v1.2h-2.1v4.5h-4.8V4.9h-1.8v6h8.6v1.2h-8.6v0.6
	h-1.3V4.9h-1.3V3.7H28.5z M32.9,8.2h2.4V4.8h-2.4V8.2z"/>
<path class="st0" d="M50.4,1v5.6h-2.2C48.6,7,49,7.3,49.3,7.5c0.6,0.3,1.3,0.7,2.3,1l-0.5,1.1c-1.3-0.5-2.3-1-2.9-1.4v4.3H47V7.8
	h0.8c-0.4-0.3-0.7-0.7-1-1.2h-1.9c-0.4,0.5-0.7,0.9-1.1,1.2h0.8c0,1.3-0.3,2.2-0.8,3c-0.4,0.6-1.3,1.2-2.8,1.8l-0.8-1
	c1.2-0.4,2-0.8,2.4-1.2c0.5-0.5,0.8-1.2,0.8-2.3c-0.8,0.6-1.8,1.1-2.8,1.5L40,8.5c1.1-0.4,1.9-0.7,2.5-1.2c0.3-0.2,0.6-0.4,0.9-0.7
	h-2V1H50.4z M45.3,3.3V2h-2.8v1.3H45.3z M45.3,4.3h-2.8v1.2h2.8V4.3z M49.3,3.3V2h-2.9v1.3H49.3z M49.3,4.3h-2.9v1.2h2.9V4.3z"/>
<path class="st0" d="M54.6,9.5c-0.1,1.3-0.3,2.4-0.5,3.3L53,12.4c0.3-0.9,0.6-2,0.7-3L54.6,9.5z M56.1,1.2c-0.4,1.2-0.9,2.3-1.3,3.2
	c0.4-0.1,0.8-0.1,1.2-0.2c0.3-0.5,0.5-1.1,0.8-1.8l1,0.4c-0.9,2-1.9,3.7-2.8,5c0.7-0.1,1.3-0.2,1.7-0.3c-0.1-0.4-0.3-0.9-0.4-1.3
	l0.9-0.3c0.3,0.8,0.7,1.8,0.9,2.9l-1,0.2c0-0.2-0.1-0.4-0.2-0.6C56,8.6,54.8,8.8,53.3,9L53,7.9c0.3,0,0.5,0,0.7,0
	c0.5-0.7,1.1-1.6,1.6-2.7c-0.6,0.2-1.3,0.3-2.1,0.4l-0.3-1.1c0.2,0,0.4,0,0.6-0.1c0.6-1.1,1.1-2.3,1.5-3.7L56.1,1.2z M56.2,12.2
	l-1,0.1c0-1.2-0.1-2.1-0.2-2.7l0.9-0.1C56,10.1,56.1,11.1,56.2,12.2z M57.7,10.8C58,9.9,58.3,9,58.4,8.1c0.2-1.1,0.3-2.9,0.3-5.3
	V2.3h-1.1V1.2h5.8c-0.2,1.4-0.4,2.5-0.7,3.4h1.5c-0.4,2.3-0.8,4-1.5,5.2c0.5,0.6,1.1,1.2,1.8,1.7l-0.8,1.1c-0.8-0.6-1.4-1.2-1.9-1.8
	c-0.6,0.8-1.4,1.4-2.4,1.8l-0.7-1.1c1.2-0.5,2-1,2.6-1.7c-0.1-0.1-0.2-0.2-0.2-0.4c-0.5-0.8-0.9-1.9-1.3-3.2c-0.1,0.7-0.1,1.4-0.2,2
	c-0.3,1.5-0.7,3-1.4,4.5l-0.9-0.8c0.1-0.3,0.3-0.5,0.4-0.8L57,11.4c-0.1-0.7-0.3-1.5-0.4-2.2L57.4,9C57.4,9.8,57.6,10.3,57.7,10.8z
	 M61.9,8.9c0.4-0.7,0.7-1.8,1-3.1h-1.6c0.3-0.8,0.5-1.9,0.9-3.4h-2.3v0.5c0,0.4,0,0.7,0,1C60.6,6.3,61.3,8,61.9,8.9z"/>
<path class="st0" d="M72.4,1.7V0.8h1.1v0.9h3v1.9h0.7v1h-0.7v1.9h-3v0.8h3.1v0.9h-3.1v0.9h3.6v1h-3.6v1.1c0.2,0,0.4,0,0.5,0
	c1.5,0,2.6,0,3.3-0.1l-0.2,1.3c-3.8,0-6.2-0.1-7-0.3s-1.4-0.5-1.9-0.9c-0.1,0-0.1-0.1-0.1-0.1c-0.4,0.5-0.9,1.1-1.7,1.7l-0.6-1.2
	c0.7-0.5,1.2-1,1.5-1.5c-0.4-0.6-0.8-1.5-1.2-2.7l1-0.4c0.3,0.7,0.6,1.4,0.8,1.8c0-0.1,0-0.1,0.1-0.2c0.2-0.6,0.3-1.3,0.3-2.4h-2.1
	V5.5c0.8-0.9,1.4-2,2.1-3.1H66v-1h3.6v1.1c-0.7,1.2-1.4,2.1-1.9,2.8h1.9c0,1.5-0.2,2.6-0.4,3.5c-0.1,0.4-0.3,0.8-0.4,1.1
	c0.3,0.4,0.7,0.6,1.3,0.8c0.5,0.2,1.3,0.3,2.4,0.3V9.9h-3v-1h3V8H70V7.1h2.5V6.5h-2.3V5.6h2.3v-1h-3v-1h3v-1h-2.3V1.7H72.4z
	 M73.5,3.6h1.9v-1h-1.9V3.6z M73.5,5.6h1.9v-1h-1.9V5.6z"/>
<path class="st0" d="M80.7,3.2V0.7h1.2v2.5h1.9v1.1h-1.9v0.5c0.7,0.7,1.4,1.6,2.2,2.5l-0.7,1.1c-0.6-0.9-1.1-1.6-1.5-2.2v6.6h-1.2
	V6.7c-0.5,1.2-1.1,2.2-1.8,3.1l-0.5-1.5c0.9-1.2,1.7-2.5,2.3-4h-2V3.2H80.7z M87.4,3V0.7h1.2V3H90v1.1h-1.4v7.2c0,0.5-0.1,0.8-0.3,1
	s-0.5,0.3-1,0.3h-1.7l-0.3-1.3c0.7,0.1,1.2,0.1,1.6,0.1c0.3,0,0.5-0.1,0.5-0.3V5.9c-1.1,2-2.5,3.6-3.9,4.9l-0.7-1.2
	c2-1.5,3.5-3.4,4.5-5.5h-3.1V3H87.4z"/>
<path class="st0" d="M95.5,1.2c-0.3,1.1-0.7,2-1,2.7v8.7h-1.1V5.8c-0.4,0.5-0.7,1-1.1,1.5l-0.4-1.4c0.5-0.7,1-1.4,1.4-2.2
	C93.7,3,94.1,2,94.5,0.8L95.5,1.2z M98.7,1c-0.2,0.6-0.4,1.1-0.6,1.6h5.1v1.2h-4.3v1.8h4v1.2h-4v2h4V10h-4v2.7h-1.2V3.9h-0.1
	C97.1,5,96.5,6,96,6.7l-0.9-1.1c1.1-1.4,1.9-3.1,2.4-4.8L98.7,1z"/>
<path class="st0" d="M106.9,2.6c-0.2-0.5-0.3-0.9-0.5-1.3l1.1-0.2c0.2,0.4,0.3,0.9,0.5,1.5h0.9c0.2-0.6,0.3-1.2,0.4-1.8l1.1,0.2
	c-0.1,0.6-0.2,1.1-0.4,1.6h4.8c-0.1,0.9-0.2,1.7-0.3,2.3h1.2c-0.1,0.9-0.2,1.7-0.3,2.3h1c0,2.9-0.3,4.6-0.7,5
	c-0.3,0.4-1.1,0.5-2.6,0.5l-0.3-1.3c0.4,0.1,0.7,0.1,0.9,0.1c0.5,0,0.8-0.1,1.1-0.3c0.2-0.2,0.4-1.2,0.4-3h-7.5
	c-0.6,0.8-1.1,1.6-1.8,2.1l-1-0.7c1.7-1.6,2.9-3.6,3.7-5.9h-3V2.6H106.9z M108.5,9.3c-0.3,1.3-0.8,2.3-1.4,3.3l-1-0.7
	c0.6-0.9,1-1.8,1.3-2.8L108.5,9.3z M108.2,7.2h5.9c0.1-0.3,0.1-0.8,0.2-1.2h-5.5C108.6,6.4,108.4,6.8,108.2,7.2z M110.4,12.3
	l-1.2,0.2c0-1.4-0.1-2.4-0.2-3.2l1-0.1C110.2,9.9,110.3,11,110.4,12.3z M109.2,4.9h4c0.1-0.3,0.1-0.7,0.2-1.2h-3.9
	C109.4,4.1,109.3,4.5,109.2,4.9z M112.5,11.4l-1.1,0.2c-0.2-0.9-0.4-1.7-0.7-2.5l1-0.3C112,9.6,112.3,10.5,112.5,11.4z M114.3,10.6
	l-1,0.4c-0.2-0.7-0.4-1.4-0.7-2.1l0.8-0.2C113.8,9.4,114.1,10,114.3,10.6z"/>
<path class="st0" d="M126.2,5.8h3.9v1.1h-3.9v1.3h3.5v4.3h-1.2v-0.6h-5.6v0.6h-1.2V8.2h3.4V6.9h-3.9c-0.1,0.6-0.1,1.3-0.2,1.9
	c-0.2,1.3-0.6,2.5-1.1,3.7l-1-0.9c0.5-1,0.8-2.1,1-3.1c0.1-1.1,0.2-2.2,0.2-3.1V1.1h9.7v3.4h-3.6V5.8L126.2,5.8z M121.2,5.3
	c0,0.2,0,0.4,0,0.5h3.8V4.4h-3.8V5.3z M121.2,2.2v1.1h7.4V2.2H121.2z M128.5,10.9V9.3h-5.6v1.6H128.5z"/>
<path class="st0" d="M139.9,3.7v1.1h-2.6c-0.3,0.3-0.7,0.5-1,0.7c0.4,0.6,0.8,1.2,1,1.7c0.9-0.4,1.8-1,2.6-1.9l0.9,0.9
	c-0.5,0.5-1.1,0.9-1.7,1.3c0.3,0.7,0.6,1.3,1,1.9c0.4,0.5,0.9,1.1,1.7,1.8l-0.8,1.1c-0.8-0.8-1.5-1.5-1.9-2.3
	c-0.4-0.5-0.7-1.2-0.9-1.9c-0.2,0.1-0.4,0.2-0.6,0.2c0.1,0.6,0.2,1.1,0.2,1.7c0,1-0.1,1.7-0.4,2.1c-0.3,0.5-1.2,0.7-2.7,0.7
	l-0.4-1.3c0,0.1,0.3,0.1,0.7,0.1c0.7,0,1.1-0.1,1.3-0.2c0.2-0.2,0.3-0.7,0.3-1.4c0-0.2,0-0.4,0-0.6c-0.7,0.6-1.3,1-1.9,1.3
	c-0.9,0.5-2.1,1-3.5,1.5l-0.6-1.1c1.4-0.4,2.6-0.8,3.6-1.4c0.8-0.4,1.5-0.9,2.2-1.5c0-0.1-0.1-0.2-0.1-0.3c0-0.1-0.1-0.2-0.1-0.4
	c-0.7,0.5-1.3,0.9-1.8,1.1c-0.8,0.4-1.8,0.8-3.1,1.1l-0.5-1.1c1.2-0.3,2.3-0.6,3.2-1.1c0.7-0.3,1.3-0.6,1.9-1.1
	c-0.1-0.2-0.2-0.3-0.3-0.5c-1.1,0.5-2.4,0.9-3.8,1.2L131.2,6c1.6-0.3,2.8-0.6,3.7-1c0.4-0.1,0.7-0.3,1.1-0.5h-3.5V3.4h7.4L139.9,3.7
	L139.9,3.7z M136.5,1.7h4.8v2.6h-1.1V2.8h-8.4v1.5h-1.1V1.7h4.6c-0.2-0.3-0.3-0.5-0.5-0.8l1.3-0.2C136.2,1.1,136.3,1.4,136.5,1.7z"
	/>
<path class="st0" d="M145.4,3.3V0.8h1.1v2.5h1.2v1.1h-1.2v0.5c0.5,0.6,0.9,1.3,1.4,2l-0.6,0.9c-0.3-0.6-0.6-1.1-0.8-1.6v6.6h-1.1v-6
	c-0.3,1-0.7,1.9-1.2,2.7l-0.4-1.3c0.7-1.1,1.2-2.4,1.6-3.8h-1.5V3.3H145.4z M149.8,10c-0.6,0.8-1.3,1.5-2.1,2.1l-0.9-0.7
	c0.8-0.5,1.5-1.1,2.1-1.8L149.8,10z M155.2,8.3v1h-3.4v2.2c0,0.4-0.1,0.7-0.3,0.8c-0.2,0.2-0.5,0.3-1,0.3h-0.9l-0.2-1.1
	c0.3,0.1,0.6,0.1,0.8,0.1c0.3,0,0.4-0.1,0.4-0.3v-2h-3.4v-1H155.2z M155.1,1v1h-2.4v1h2v3.2H148V3h2V2h-2.2V1H155.1z M154.6,6.8v1
	h-6.5v-1H154.6z M150,3.9h-0.9v1.4h0.9V3.9z M151.8,2h-0.9v1h0.9V2z M151.8,3.9h-0.9v1.4h0.9V3.9z M155.3,11.5l-1,0.7
	c-0.5-0.6-1.1-1.3-1.9-2.1l0.8-0.5C154.2,10.4,154.9,11,155.3,11.5z M153.7,3.9h-0.9v1.4h0.9V3.9z"/>
<path class="st0" d="M163.7,1.1v1h-1.8v1.3h1.5v9.1h-1v-0.8h-3.3v0.8h-1V3.4h1.7V2.1h-1.9v-1C157.9,1.1,163.7,1.1,163.7,1.1z
	 M162.4,8.6V7.4H162c-0.3,0-0.5-0.1-0.7-0.2C161.1,7,161,6.8,161,6.4V4.5h-0.5c0,0.7-0.1,1.3-0.2,1.8c-0.1,0.5-0.4,1.1-0.7,1.7
	L159,7.5v1.2L162.4,8.6L162.4,8.6z M159.5,6c0.1-0.3,0.1-0.8,0.2-1.5h-0.6v2.7C159.2,6.8,159.4,6.4,159.5,6z M162.4,10.8V9.6h-3.3
	v1.2H162.4z M161,2.1h-0.5v1.3h0.5V2.1z M161.9,6c0,0.3,0.1,0.4,0.3,0.4h0.2V4.5h-0.5V6z M168.6,1.2v5.1h-3.2v4.5
	c0,0.3,0.1,0.4,0.4,0.4h1.6c0.1,0,0.3-0.1,0.3-0.2c0.1-0.2,0.1-1,0.2-2.4L169,9c-0.1,1.7-0.3,2.7-0.5,3s-0.5,0.5-1,0.5h-2.2
	c-0.4,0-0.7-0.1-0.9-0.3s-0.3-0.5-0.3-0.9v-6h3.3V2.6H164V1.4h4.5L168.6,1.2L168.6,1.2z"/>
<path class="st0" d="M175.8,7.7c-0.2,0.3-0.5,0.5-1,0.8l-0.4-0.6c0.6-0.3,0.9-0.7,1-1.2h-0.7V5.1h1.5v1.3
	C176.2,7,176.1,7.4,175.8,7.7z"/>
<path class="st0" d="M193,12.3h-1.2v-0.8h-6.4v0.8h-1.2v-11h8.8L193,12.3L193,12.3z M191.8,4.3V2.5h-6.4v1.8H191.8z M191.8,7.4v-2
	h-6.4v2H191.8z M191.8,10.4V8.5h-6.4v1.9C185.4,10.4,191.8,10.4,191.8,10.4z"/>
<path class="st0" d="M199.8,1.1c-0.2,0.7-0.4,1.3-0.6,1.9h1.8v2.7c0.4-0.6,0.7-1.2,0.9-1.9c0.3-0.7,0.5-1.7,0.6-2.9l1.2,0.2
	c-0.1,0.7-0.2,1.3-0.3,1.8h3.8c0,4.6-0.1,7.3-0.2,8.1c-0.1,0.7-0.3,1.1-0.6,1.3c-0.4,0.3-1,0.4-2,0.4c-0.3,0-0.6,0-0.9-0.1l-0.2-1.3
	c0.4,0.1,0.7,0.1,1.1,0.1c0.8,0,1.2-0.3,1.3-0.8c0.2-0.7,0.3-2.9,0.3-6.6h-3c0,0.1-0.1,0.2-0.1,0.2c-0.3,0.9-0.7,1.9-1.4,3l-0.6-0.8
	v5.3h-1.1v-0.6h-2.3v1h-1.1V2.9h1.6c0.3-0.6,0.5-1.3,0.6-2L199.8,1.1z M199.9,6.6V4.1h-2.3v2.5H199.9z M199.9,10.2V7.6h-2.3v2.6
	H199.9z M205.1,8.9l-1.2,0.8c-0.4-0.9-0.8-2-1.5-3.2l1-0.7C204.1,7,204.7,8,205.1,8.9z"/>
<path class="st0" d="M212.7,2.5c0.2-0.5,0.5-1.1,0.7-1.7l1.3,0.1c-0.2,0.6-0.4,1.1-0.6,1.6h5.8v1.2h-6.4c-0.3,0.5-0.6,0.9-0.9,1.4
	s-0.7,0.9-1.1,1.4v6.3h-1.2V7.6c-0.3,0.3-0.6,0.5-0.9,0.7l-0.8-1c1.2-0.9,2.2-1.9,3-3c0.2-0.2,0.3-0.4,0.4-0.6h-3.4V2.5H212.7z
	 M215.4,6.9V4.3h1.2v2.6h2.8V8h-2.8v3.2h3.3v1.2h-8v-1.2h3.5V8h-3V6.9H215.4z"/>
<path class="st0" d="M225.2,2.4l-0.7,0.5h2.2V4h-2.8v1.7h2.5c-0.1,3.5-0.2,5.3-0.3,5.6c-0.1,0.4-0.2,0.7-0.4,0.9s-0.5,0.3-0.9,0.4
	c-0.4,0-0.7,0-0.9-0.1l-0.2-1.1c0.6,0.1,0.9,0.1,1,0.1c0.2,0,0.4-0.1,0.4-0.4c0.1-0.2,0.2-1.6,0.3-4.3H224c-0.1,1-0.2,1.9-0.3,2.7
	c-0.2,1.1-0.6,2.1-1.2,3.2l-0.9-0.8c0.5-0.8,0.9-1.8,1.1-2.8c0.2-0.8,0.3-2,0.3-3.6V4h-1.2V2.9h2.3c-0.3-0.5-0.6-1-1-1.6l0.8-0.6
	C224.4,1.3,224.9,1.9,225.2,2.4z M230.1,1.1c0.5,0.9,0.9,1.7,1.4,2.3c0.3,0.4,0.9,1,1.7,1.5L232.5,6c-0.4-0.2-0.8-0.5-1.2-0.9
	c-0.6-0.6-1.2-1.4-1.8-2.5c-0.4,0.7-0.8,1.3-1.1,1.8c-0.4,0.5-0.9,1-1.6,1.5l-0.5-1.1c0.7-0.6,1.3-1.2,1.7-1.8c0.3-0.5,0.7-1.1,1-2
	h0.5h0.6L230.1,1.1L230.1,1.1z M232.2,11.8l-0.9,1c-1-0.9-2.3-1.8-4-2.8l0.9-0.9C229.8,10,231.1,10.9,232.2,11.8z M231.7,7.7
	l-0.9,0.9c-0.7-0.7-1.7-1.5-3-2.3l0.8-0.8C230,6.2,231,7,231.7,7.7z"/>
<path class="st0" d="M3.1,23.4h1.4v1.1H0.7v-1.1h1.4C2,23,1.9,22.5,1.9,22.1L3.1,22C2.9,22.4,3,22.9,3.1,23.4z M4.2,25.3v1H0.8v-1
	H4.2z M4.2,27.3v1H0.8v-1H4.2z M4.2,33H1.9v0.9H0.8v-4.6h3.4L4.2,33L4.2,33z M3.1,31.9v-1.6H2v1.6C2,31.9,3.1,31.9,3.1,31.9z
	 M8,24.2v2H7.2v0.6h1.9v-0.6H8.5v-2h3.1v2h-1.4v0.6h1.7v0.9h-1.7v0.6h1.4v0.8h-1.4v0.7H12v0.9H9.2c0.3,0.5,0.5,0.8,0.8,1.1
	c0.1-0.1,0.3-0.2,0.4-0.3c0.2-0.2,0.3-0.4,0.5-0.7l0.8,0.5c-0.2,0.4-0.4,0.6-0.6,0.8c-0.1,0.1-0.2,0.2-0.3,0.3
	c0.4,0.3,0.9,0.5,1.4,0.7L11.7,34c-0.9-0.4-1.7-0.8-2.1-1.3c-0.5-0.5-0.9-1.1-1.4-2c-0.3,0.2-0.5,0.5-0.8,0.6v1.2
	C8,32.4,8.5,32.3,9,32.2v1c-1,0.3-2.2,0.5-3.4,0.8l-0.3-1c0.4-0.1,0.8-0.1,1.1-0.2V32c-0.4,0.2-0.9,0.4-1.5,0.5l-0.4-1
	c0.8-0.2,1.4-0.4,1.9-0.6c0.1-0.1,0.3-0.1,0.4-0.2H4.4v-1h1.7V29H4.8v-0.8h1.3v-0.5H4.6v-0.9h1.5v-0.6H4.9v-2H8z M8.8,22.8h3.1v0.9
	H4.7v-0.9h3.1c-0.1-0.2-0.2-0.5-0.3-0.7L8.7,22C8.6,22.2,8.7,22.5,8.8,22.8z M7.1,24.8H5.9v0.7h1.2V24.8z M9.1,27.7H7.2v0.6h1.9
	V27.7z M9.1,29.1H7.2v0.7h1.9V29.1z M10.6,24.8H9.4v0.7h1.2V24.8z"/>
<path class="st0" d="M23.3,33.8h-1.2v-1h-6.2v0.9h-1.2V22.2h8.6L23.3,33.8L23.3,33.8z M22,26.7v-3.2h-6.2v3.3L22,26.7L22,26.7z
	 M22,31.6v-3.5h-6.2v3.5H22z"/>
<path class="st0" d="M33.2,22.1v1.8h1.3c0.4-0.5,0.8-1,1.1-1.6l1.1,0.4c-0.3,0.4-0.7,0.8-1,1.2h2.4V27H37v-2.1h-8.6V27h-1.1v-3.1
	h2.5c-0.3-0.4-0.6-0.8-1-1.2l1.1-0.4c0.4,0.4,0.8,1,1.1,1.6h1.2v-1.8H33.2z M36.1,25.6v3.2h-3v0.9h4V32c0,0.4-0.1,0.7-0.3,0.9
	c-0.2,0.2-0.4,0.3-0.7,0.3h-1.3l-0.2-1.1l1.1,0.1c0.2,0,0.3-0.2,0.3-0.5v-1h-3V34h-1.1v-3.2H29v2.4h-1.1v-3.5h3.9v-0.9h-3v-3.2H36.1
	z M35,26.6h-4.8v1.2H35V26.6z"/>
<path class="st0" d="M43.6,22.6c-0.3,1-0.6,1.9-1,2.6v8.6h-1.1v-6.7c-0.3,0.5-0.7,0.9-1,1.4L40.1,27c0.5-0.7,1-1.4,1.3-2.1
	c0.4-0.7,0.8-1.6,1.2-2.9L43.6,22.6z M46.6,23.3V22h1.2v1.3h3.5v1.1h-3.5v1.1h3v3.8h-3c-0.1,0.9-0.2,1.7-0.5,2.3
	c0.1,0.1,0.2,0.1,0.3,0.2c0.8,0.4,2.2,0.7,3.9,0.9l-0.3,1.2c-1.8-0.2-3.1-0.5-4-1c-0.2-0.1-0.4-0.2-0.5-0.3
	c-0.7,0.7-1.8,1.2-3.3,1.4L43,32.8c1.3-0.1,2.2-0.4,2.7-0.8c-0.7-0.6-1.4-1.2-2.1-2.1l0.7-0.5h-0.5v-3.8h2.9v-1.1h-3.2v-1.1
	L46.6,23.3L46.6,23.3L46.6,23.3z M46.2,31c0.2-0.4,0.3-1,0.3-1.6h-2C45.1,30,45.7,30.6,46.2,31z M46.6,26.6h-1.7v1.7h1.7
	C46.6,28.3,46.6,26.6,46.6,26.6z M49.6,26.6h-1.8v1.7h1.8V26.6z"/>
<path class="st0" d="M64.1,22.3v9.9c0,0.4-0.1,0.8-0.3,1c-0.2,0.2-0.5,0.4-0.9,0.4h-1.6L61,32.4l1.6,0.1c0.2,0,0.4-0.1,0.4-0.4v-2.3
	h-3.2v3.7h-1.1v-3.7h-3.3c0,0.4-0.1,0.9-0.2,1.3c-0.2,0.9-0.5,1.8-1,2.7l-1-0.9c0.5-0.7,0.8-1.4,0.9-2.1c0.1-0.8,0.2-1.5,0.2-2.1
	v-6.4h0.6H64.1z M58.7,25.4v-2h-3.2v2H58.7z M58.7,28.6v-2.1h-3.2v2.1H58.7z M59.8,25.4h3.1v-2h-3.2v2H59.8z M59.8,28.6h3.1v-2.1
	h-3.2v2.1H59.8z"/>
<path class="st0" d="M71.6,22.3v3.8h4.9v1.2h-4.9v5.3h5.5v1.2H66v-1.2h4.3V22.3H71.6z"/>
<path class="st0" d="M84.7,28.9c-0.2,0.3-0.5,0.5-1,0.8l-0.3-0.6c0.6-0.3,0.9-0.7,1-1.2h-0.8v-1.6h1.5v1.3
	C85,28.2,84.9,28.6,84.7,28.9z"/>
<path class="st0" d="M95,22.5c-0.3,0.8-0.7,1.5-1.1,2.1c0.8,0,1.5-0.1,2.1-0.1c-0.2-0.3-0.5-0.6-0.8-0.9l0.8-0.5
	c0.8,0.9,1.5,1.7,2,2.3L97.1,26c-0.1-0.2-0.2-0.3-0.3-0.5c-1.1,0.2-2.7,0.3-4.8,0.4l-0.3-1.3c0.4,0,0.7,0,1.1,0
	c0.4-0.8,0.8-1.6,1.1-2.6L95,22.5z M97.2,32.7c0,0.4-0.1,0.7-0.3,0.9c-0.2,0.2-0.4,0.3-0.7,0.3H95l-0.2-1.1l1.1,0.1
	c0.2,0,0.3-0.2,0.3-0.5v-0.7h-2.8v2.4h-1.1v-7.6h4.9V32.7L97.2,32.7z M96.1,28.7v-1h-2.8v1.1h2.8V28.7z M96.1,30.8v-1.1h-2.8v1.1
	H96.1z M99.4,22.3v1.9c1.3-0.4,2.4-0.8,3.3-1.2l0.6,0.9c-1.1,0.6-2.4,1.1-3.8,1.4v0.8c0,0.3,0.1,0.4,0.4,0.4h1.7
	c0.2,0,0.3,0,0.4-0.1c0.1-0.1,0.2-0.5,0.2-1.3l1.1,0.4c-0.1,1.1-0.3,1.7-0.5,1.9c-0.2,0.2-0.5,0.3-1,0.3h-2.3
	c-0.4,0-0.7-0.1-0.9-0.3c-0.2-0.2-0.3-0.5-0.3-0.9v-4.1L99.4,22.3L99.4,22.3L99.4,22.3z M99.4,28v2c1.3-0.4,2.4-0.8,3.3-1.3l0.7,1
	c-1.1,0.6-2.4,1.1-3.8,1.5v1.2c0,0.3,0.1,0.4,0.4,0.4h2c0.1,0,0.2,0,0.2-0.1c0-0.1,0.1-0.5,0.1-1.3l1.1,0.4
	c-0.1,1.1-0.2,1.7-0.4,1.9c-0.2,0.2-0.5,0.3-0.9,0.3h-2.6c-0.4,0-0.7-0.1-0.9-0.3c-0.2-0.2-0.3-0.5-0.3-0.8v-4.7h1.2L99.4,28
	L99.4,28z"/>
<path class="st0" d="M108.6,22.2c-0.1,0.3-0.3,0.6-0.4,0.9h2.4v0.7c-0.5,1.2-1.1,2.1-1.7,2.7c-0.2,0.2-0.4,0.4-0.6,0.5l0.8,0.1
	c-0.1,0.3-0.3,0.6-0.4,0.9h2.1v0.8c-0.3,1.3-0.9,2.4-1.7,3.3c-0.7,0.7-1.8,1.4-3.4,1.9l-0.6-1c1.2-0.4,2.2-0.8,2.9-1.3
	c-0.3-0.3-0.6-0.7-0.9-1l0.7-0.7c0.4,0.3,0.7,0.7,1,1c0.4-0.5,0.7-1.2,0.9-1.9h-1.5c-0.1,0.1-0.2,0.3-0.3,0.4
	c-0.5,0.6-1.2,1.2-2.1,1.8l-0.7-0.9c0.7-0.4,1.3-0.9,1.8-1.4c0.3-0.3,0.6-0.7,0.9-1.3c-0.6,0.4-1.3,0.8-2,1.2l-0.6-0.9
	c1-0.5,1.7-0.9,2.3-1.4c-0.3-0.3-0.5-0.7-0.9-1l0.8-0.5c0.4,0.3,0.7,0.6,0.9,0.8c0.5-0.5,0.9-1.1,1.2-1.8h-1.8
	c0,0.1-0.1,0.1-0.1,0.1c-0.4,0.6-1,1.1-1.7,1.5l-0.6-0.9c0.6-0.4,1.1-0.8,1.5-1.3c0.3-0.3,0.6-0.8,0.9-1.5L108.6,22.2z M112.9,22.2
	c-0.1,0.6-0.2,1.1-0.4,1.5h3.8c0,4.8-0.1,7.6-0.2,8.5c-0.1,0.7-0.3,1.1-0.6,1.4c-0.4,0.3-1,0.4-1.9,0.4c-0.3,0-0.6,0-0.9-0.1
	l-0.2-1.2c0.4,0.1,0.7,0.1,1.1,0.1c0.8,0,1.3-0.3,1.4-0.9c0.2-0.7,0.3-3.1,0.3-7.1h-3.1c0,0.1-0.1,0.2-0.1,0.2
	c-0.2,0.4-0.4,0.8-0.6,1.1h2.9v5.3H111v-4.7c-0.2,0.3-0.4,0.5-0.6,0.8l-0.8-1c0.6-0.7,1-1.3,1.3-2c0.3-0.6,0.5-1.4,0.7-2.5
	L112.9,22.2z M113.3,27.2h-1.1v3.3h1.1V27.2z"/>
<path class="st0" d="M130,22.3v1.2h-5v1h3.9v5.2h-4.2c-0.2,0.7-0.4,1.3-0.7,1.8c0.4,0.2,0.7,0.3,1.1,0.4c1,0.3,2.7,0.5,5,0.7
	l-0.3,1.2c-2.2-0.2-3.8-0.4-5-0.8c-0.5-0.2-1-0.4-1.5-0.6c-0.9,0.7-2.3,1.2-4,1.4l-0.5-1.2c1.6-0.1,2.7-0.4,3.5-0.9
	c-0.7-0.4-1.3-0.8-1.9-1.2l0.8-0.6c0.6,0.4,1.3,0.8,1.9,1.1c0.3-0.4,0.5-0.8,0.6-1.4h-3.8v-5.2h4v-1H119v-1.1H130z M123.9,26.5v-1
	H121v1H123.9z M123.9,27.6H121v1.1h2.8C123.9,28.3,123.9,27.9,123.9,27.6z M127.8,27.6h-2.9c0,0.4,0,0.8-0.1,1.1h2.9L127.8,27.6
	L127.8,27.6z M125,26.5h2.9v-1H125V26.5z"/>
<path class="st0" d="M132.7,24.2V22h1.2v2.2h2.6c0,4.5-0.1,7.2-0.2,8c-0.1,0.6-0.2,1.1-0.5,1.3c-0.3,0.3-0.7,0.4-1.4,0.4
	c-0.3,0-0.6,0-1-0.1l-0.1-1.3c0.4,0.1,0.8,0.1,1.2,0.1s0.6-0.3,0.7-0.8c0.1-0.6,0.1-2.8,0.2-6.5H134c0,1.6-0.2,3-0.5,4.1
	c-0.3,1.4-0.9,2.9-1.9,4.4l-1-0.9c0.8-1.2,1.4-2.5,1.7-3.8c0.2-0.9,0.4-2.1,0.4-3.8h-2.1v-1.2h2.1L132.7,24.2L132.7,24.2z
	 M141.8,33.9h-1.2V33h-2.3v1h-1.2V23.7h4.7V33.9z M140.7,31.8v-7h-2.4v7H140.7z"/>
<path class="st0" d="M146.6,31.3c-0.5,1.1-1.1,2-1.8,2.8l-1-0.8c0.7-0.7,1.3-1.5,1.9-2.5L146.6,31.3z M147.6,22.6
	c-0.2,0.3-0.4,0.5-0.5,0.8h7.8v1.1h-1v1.9h1.2v1.1h-1.2v2h1.3v1.1h-11.1v-1.1h1.6v-2h-1.5v-1.1h1.5v-1.6c-0.3,0.3-0.7,0.5-1.1,0.7
	l-0.6-1.1c0.5-0.2,1-0.6,1.5-1.1c0.4-0.4,0.7-0.8,1.1-1.4L147.6,22.6z M148,24.5h-1.3v1.9h1.3V24.5z M148,29.4v-2h-1.3v2H148z
	 M149,33.8l-1.3,0.1c-0.1-1-0.2-1.8-0.3-2.6l1.1-0.2C148.7,31.9,148.9,32.8,149,33.8z M150.3,24.5H149v1.9h1.3V24.5z M150.3,29.4v-2
	H149v2H150.3z M151.9,33.6l-1.3,0.1c-0.2-1-0.3-1.8-0.5-2.6l1.1-0.2C151.5,31.8,151.7,32.7,151.9,33.6z M152.7,24.5h-1.3v1.9h1.3
	V24.5z M152.7,29.4v-2h-1.3v2H152.7z M155.2,33.4l-1.1,0.8c-0.4-0.8-0.9-1.8-1.5-2.9l0.9-0.6C154.2,31.8,154.7,32.6,155.2,33.4z"/>
<path class="st0" d="M168.8,22.2v0.9h-4.6c-0.1,0.2-0.1,0.4-0.2,0.5h3.8v3.7h1.3v1.5H168v-0.7h-3.8c0.3,0.1,0.5,0.2,0.7,0.4
	l-0.7,0.7c-0.3-0.2-0.7-0.5-1.2-0.7l0.4-0.4h-1.1v0.8c0,0.2,0.1,0.3,0.4,0.3h2.3c0.1,0,0.2,0,0.3-0.1c0.1,0,0.1-0.3,0.1-0.7l1,0.3
	c-0.1,0.6-0.2,1-0.4,1.1s-0.5,0.2-0.9,0.2h-2.6c-0.1,0.2-0.3,0.3-0.4,0.5h4.9v0.6c-0.4,0.5-1,1-1.8,1.4c0.9,0.2,2.2,0.3,3.8,0.4
	l-0.3,1c-1.9-0.1-3.4-0.3-4.3-0.6c-0.2-0.1-0.4-0.1-0.6-0.2c-1.2,0.3-2.9,0.6-5.1,0.8l-0.6-1c1.7-0.1,3.1-0.3,4.1-0.5
	c-0.5-0.2-1-0.5-1.5-0.8c-0.4,0.2-0.9,0.5-1.6,0.7l-0.7-1c0.9-0.3,1.7-0.5,2.1-0.8c0.4-0.2,0.7-0.4,0.9-0.7
	c-0.2-0.2-0.3-0.4-0.3-0.6v-1.1H159v0.8h-1.1v-1.6h1.4v-3.7h3.3c0.1-0.2,0.2-0.3,0.2-0.5h-4.6v-0.9H168.8z M160.8,28.9
	c-0.4,0.6-0.9,1.2-1.6,1.7l-0.7-1c0.6-0.4,1.1-0.8,1.5-1.4L160.8,28.9z M166.6,24.9v-0.6h-6.1v0.6H166.6z M166.6,26.1v-0.6h-6.1v0.6
	H166.6z M166.6,27.3v-0.6h-6.1v0.6H166.6z M163.7,32.1C163.8,32.1,163.8,32.1,163.7,32.1c0.8-0.2,1.4-0.5,1.9-0.8h-3.7
	C162.4,31.7,163.1,31.9,163.7,32.1z M168.6,29.9l-1,0.7c-0.3-0.5-0.7-1.2-1.3-1.9l0.8-0.5C167.8,28.8,168.2,29.4,168.6,29.9z"/>
<path class="st0" d="M176.2,29.8c-0.3-0.4-0.6-0.9-1.1-1.5c-0.3-0.4-0.8-0.8-1.5-1.3l0.8-0.7c0.4,0.3,0.9,0.7,1.5,1.3
	c0.4,0.4,0.7,0.9,1.2,1.5L176.2,29.8z"/>
<path class="st0" d="M194.1,22.3v1.2h-5v1h3.9v5.2h-4.2c-0.2,0.7-0.4,1.3-0.7,1.8c0.4,0.2,0.7,0.3,1.1,0.4c1,0.3,2.7,0.5,5,0.7
	l-0.3,1.2c-2.2-0.2-3.8-0.4-5-0.8c-0.5-0.2-1-0.4-1.5-0.6c-0.9,0.7-2.3,1.2-4,1.4l-0.5-1.2c1.6-0.1,2.7-0.4,3.5-0.9
	c-0.7-0.4-1.3-0.8-1.9-1.2l0.8-0.6c0.6,0.4,1.3,0.8,1.9,1.1c0.3-0.4,0.5-0.8,0.6-1.4h-3.8v-5.2h4v-1h-4.9v-1.1H194.1z M188,26.5v-1
	h-2.9v1H188z M188,27.6h-2.9v1.1h2.8C188,28.3,188,27.9,188,27.6z M191.9,27.6h-2.9c0,0.4,0,0.8-0.1,1.1h2.9L191.9,27.6L191.9,27.6z
	 M189,26.5h2.9v-1H189V26.5z"/>
<path class="st0" d="M198.3,24.2V22h1.2v2.2h2.6c0,4.5-0.1,7.2-0.2,8c-0.1,0.6-0.2,1.1-0.5,1.3c-0.3,0.3-0.7,0.4-1.4,0.4
	c-0.3,0-0.6,0-1-0.1l-0.2-1.3c0.4,0.1,0.8,0.1,1.2,0.1s0.6-0.3,0.7-0.8c0.1-0.6,0.1-2.8,0.2-6.5h-1.4c0,1.6-0.2,3-0.5,4.1
	c-0.3,1.4-0.9,2.9-1.9,4.4l-1-0.9c0.8-1.2,1.4-2.5,1.7-3.8c0.2-0.9,0.4-2.1,0.4-3.8h-2.1v-1.2L198.3,24.2L198.3,24.2z M207.4,33.9
	h-1.2V33h-2.5v1h-1.2V23.7h4.7L207.4,33.9L207.4,33.9z M206.2,31.8v-7h-2.5v7H206.2z"/>
<path class="st0" d="M212.1,22c0.8,0.7,1.6,1.5,2.4,2.3l-0.5,1.2c-0.1-0.1-0.2-0.3-0.3-0.4v0.8h-1.6v1.2h2.1v1h-2.1v1.3h1.7v4.5
	h-1.1v-0.7h-2.3V34h-1.1v-4.6h1.7v-1.3h-2.1v-1h2.1v-1.2h-1.3v-0.5c-0.2,0.2-0.4,0.4-0.6,0.6l-0.5-1.1c1-0.8,1.8-1.7,2.5-2.8h0.5
	h0.5L212.1,22L212.1,22z M213.4,24.9c-0.6-0.7-1.2-1.4-1.8-1.9c-0.4,0.7-0.9,1.3-1.5,1.9H213.4z M212.7,32.1v-1.8h-2.3v1.8H212.7z
	 M219.6,22.5v1c-0.3,0.6-0.6,1.2-1,1.7c-0.2,0.3-0.5,0.6-0.8,0.8c0.2,0.2,0.3,0.3,0.4,0.4l-0.3,0.3h2.1c-0.1,1.1-0.3,1.8-0.4,2.2
	c-0.2,0.5-0.5,1-0.9,1.6l-0.8-0.8c0.4-0.4,0.6-1.1,0.8-1.9h-1.2v4.6c0,0.5-0.1,0.8-0.3,1s-0.5,0.3-1,0.3h-1.4l-0.3-1.3
	c0.5,0.1,1,0.1,1.3,0.1s0.4-0.1,0.4-0.3v-4.4h-2.1v-1.1h2.7c-0.6-0.6-1.3-1.2-2.1-1.8l0.7-0.7c0.5,0.4,1,0.7,1.4,1.1
	c0.3-0.3,0.5-0.6,0.8-0.9c0.2-0.2,0.3-0.5,0.5-0.8h-3.9v-1.1H219.6z"/>
<path class="st0" d="M225,25.2v0.9c-0.4,0.7-0.9,1.5-1.6,2.3h1.5v0.8c-0.2,0.8-0.4,1.4-0.6,1.9c0.5,0.6,0.9,0.9,1.2,1.1
	c0.3,0.2,0.7,0.3,1.2,0.4c0.6,0.1,1.8,0.2,3.6,0.2c1.3,0,2.3,0,2.9-0.1l-0.2,1.2c-3.5,0-5.5-0.1-6.3-0.1c-0.7-0.1-1.2-0.3-1.7-0.5
	c-0.4-0.2-0.8-0.5-1.2-1.1c-0.4,0.6-0.8,1.3-1.4,2l-0.8-0.9c0.7-0.7,1.1-1.3,1.4-1.8c0.2-0.3,0.5-0.9,0.8-1.9h-1.9v-1
	c0.5-0.5,1.1-1.3,1.6-2.2h-1.7v-1.1L225,25.2L225,25.2z M224.5,24.1l-0.8,0.8c-0.3-0.6-0.8-1.3-1.3-2.1l0.7-0.7
	C223.7,22.8,224.2,23.5,224.5,24.1z M229.7,23h3.2v1h-2.3l0.7,0.3c-0.2,0.3-0.3,0.6-0.5,0.9h1.7v5.7c0,0.4-0.1,0.7-0.3,0.9
	c-0.2,0.2-0.4,0.3-0.7,0.3h-0.9l-0.1-0.6h-3.3v-2.9h1.2v-1h-1.5v-0.9h1.5V26h-2v5.9h-1V25h1.6c-0.1-0.3-0.3-0.5-0.5-0.9l0.7-0.3
	h-2.1v-1h3.2c-0.2-0.3-0.4-0.6-0.6-0.8l1.2-0.1C229.3,22.4,229.5,22.7,229.7,23z M229.8,25.1c0.2-0.3,0.3-0.7,0.5-1.1h-2.6
	c0.2,0.3,0.4,0.7,0.5,1.1H229.8z M229.8,29.4h-1.5v1.1h1.5V29.4z M230.7,28.6V31h0.5c0.2,0,0.3-0.2,0.3-0.5V26h-2.1v0.7h1.5v0.9
	h-1.5v1H230.7z"/>
<path class="st0" d="M7,49.5c-0.2,0.3-0.5,0.5-1,0.8l-0.4-0.6c0.6-0.3,0.9-0.7,1-1.2H5.8v-1.6h1.5v1.3C7.3,48.8,7.2,49.2,7,49.5z"/>
<path class="st0" d="M16.2,42.8V51c0.9-0.3,1.8-0.7,2.7-1.2l0.3,1.2c-1.5,0.8-3.3,1.6-5.3,2.2l-0.5-1.3c0.6-0.1,1.1-0.3,1.7-0.5
	v-8.6H16.2z M22.8,42.8c0,2.7-0.3,4.8-0.8,6.5c1,1.2,1.9,2.5,2.6,3.7l-1,1.1c-0.5-1-1.2-2.2-2.1-3.4c-0.7,1.4-1.9,2.6-3.8,3.8
	l-0.9-1.1c1.7-1.1,2.9-2.2,3.5-3.4c0.8-1.5,1.2-3.9,1.2-7.3L22.8,42.8L22.8,42.8z M20.1,47.6l-1.2,0.9c-0.4-1.1-1-2.4-1.8-3.8l1-0.7
	C19,45.4,19.7,46.6,20.1,47.6z"/>
<path class="st0" d="M31.8,42.8c-0.2,0.3-0.3,0.6-0.5,0.9h5.4v1c-1,1.1-2,2.1-2.9,2.7c1.2,0.5,2.7,1,4.6,1.4l-0.7,1.1
	c-2.3-0.5-3.9-1.1-5-1.8c-1.3,0.7-3,1.4-5.1,1.9L27,48.9c1.9-0.4,3.5-0.9,4.6-1.4c-0.7-0.5-1.2-1-1.8-1.5c-0.5,0.6-0.9,1.1-1.4,1.4
	l-0.8-1.1c1.3-1.1,2.4-2.4,3-3.7L31.8,42.8z M36.6,54.6h-1.2v-0.7h-5.3v0.7h-1.2v-4.9h7.8L36.6,54.6L36.6,54.6z M35.3,52.8v-2H30v2
	H35.3z M32.7,46.8c0.8-0.5,1.5-1.1,2.4-1.9h-4.4c0,0,0,0.1-0.1,0.1C31.1,45.7,31.9,46.3,32.7,46.8z"/>
<path class="st0" d="M45.1,54.3H44v-0.8h-2.4v0.8h-1.1v-6H45v6H45.1z M44,52.5v-3.1h-2.4v3.1H44z M50,42.9v4.3h-8v-4.3H50z M48.8,44
	h-5.7v2.1h5.7V44z M51.1,54.3H50v-0.8h-2.7v0.8h-1.1v-6h4.7L51.1,54.3L51.1,54.3z M50,52.5v-3.1h-2.7v3.1H50z"/>
<path class="st0" d="M54.7,43v3h0.9v-3.4h1.1V46h0.7v1.1h-2.8v0.4c0,0.4,0,0.8,0,1.2H57v5.9h-1.1v-4.8h-1.3c0,0.6-0.1,1.2-0.1,1.6
	c-0.1,1-0.4,2-0.7,3.1l-0.9-0.9c0.3-0.8,0.4-1.7,0.6-2.6c0.1-0.8,0.1-1.9,0.1-3.5V43H54.7z M61.4,42.8c-0.1,0.3-0.3,0.5-0.4,0.8h3
	v5.6h-3.3c-0.4,0.6-1,1.2-1.8,1.7h2.5v-1.5h1.1v1.5h1.9V52h-1.9v2.5h-1.1V52h-4v-1.1h0.9l-0.6-0.6c0.7-0.4,1.3-0.8,1.7-1.2h-1.6
	v-5.6h2.1c0.2-0.3,0.3-0.6,0.4-0.9L61.4,42.8z M60.3,45.9v-1.3h-1.5v1.3H60.3z M60.3,46.8h-1.5v1.3H60
	C60.2,47.8,60.2,47.3,60.3,46.8z M62.9,46.8h-1.5c0,0.5-0.1,0.9-0.2,1.3H63L62.9,46.8L62.9,46.8z M61.4,45.9h1.5v-1.3h-1.5V45.9z"/>
<path class="st0" d="M69.6,42.9c-0.2,0.7-0.4,1.3-0.6,1.9h1.8v2.7c0.4-0.6,0.7-1.2,0.9-1.9c0.3-0.7,0.5-1.7,0.6-2.9l1.2,0.2
	c-0.1,0.7-0.2,1.3-0.3,1.8H77c0,4.6-0.1,7.3-0.2,8.1c-0.1,0.7-0.3,1.1-0.6,1.3c-0.4,0.3-1,0.4-2,0.4c-0.3,0-0.6,0-0.9-0.1l-0.2-1.3
	c0.4,0.1,0.7,0.1,1.1,0.1c0.8,0,1.2-0.3,1.3-0.8c0.2-0.7,0.3-2.9,0.3-6.6h-3c0,0.1-0.1,0.2-0.1,0.2c-0.3,0.9-0.7,1.9-1.4,3l-0.6-0.8
	v5.3h-1.1v-0.6h-2.3v1h-1.1v-9.2h1.6c0.3-0.6,0.5-1.3,0.6-2L69.6,42.9z M69.7,48.4v-2.5h-2.3v2.5H69.7z M69.7,52v-2.6h-2.3V52H69.7z
	 M74.9,50.7l-1.2,0.8c-0.4-0.9-0.8-2-1.5-3.2l1-0.7C74,48.8,74.5,49.8,74.9,50.7z"/>
<path class="st0" d="M82.6,42.8v0.7h1.5c-0.2-0.3-0.3-0.6-0.5-0.9l1-0.1c0.2,0.3,0.3,0.7,0.5,1.1h1.5v1h-0.5l-0.4,1.6h1.2v-3.7h1
	v3.7H90v1h-2.1c0,1,0,1.8,0.1,2.6c0.3-0.6,0.6-1.3,0.8-2l0.9,0.4c-0.6,1.5-1.1,2.6-1.6,3.3c0.1,0.5,0.2,0.9,0.3,1.2
	c0.2,0.5,0.3,0.7,0.4,0.7s0.2-0.6,0.4-1.9l0.9,0.7c-0.3,1.2-0.5,1.9-0.7,2.1s-0.4,0.3-0.6,0.3c-0.3,0-0.7-0.3-1-1
	c-0.2-0.3-0.3-0.7-0.4-1.1c-0.4,0.5-1,1.1-1.6,1.7L85,53.5c0.2-0.2,0.4-0.4,0.6-0.5h-2.1v0.6h-1V48H86v4.5c0.4-0.4,0.8-0.8,1.1-1.2
	c0-0.1,0-0.2,0-0.2c-0.2-1.1-0.3-2.3-0.3-3.7h-4.7v7.3h-1v-2.2c-0.7,0.3-1.6,0.6-2.5,0.9l-0.2-1.2c0.2,0,0.4-0.1,0.5-0.1v-8h-0.5v-1
	h4.2L82.6,42.8L82.6,42.8z M81.1,45.4v-1.6h-1.2v1.6H81.1z M81.1,48.1v-1.7h-1.2v1.7H81.1z M81.1,51.1v-2h-1.2v2.4
	C80.3,51.4,80.7,51.3,81.1,51.1z M83.3,46L83,44.4h-0.5v-0.6h-0.4V46H83.3z M85,49.8v-1.1h-1.6v1.1H85z M85,51.8v-1.1h-1.6v1.1H85z
	 M84.7,46l0.4-1.6h-1.4L84,46H84.7z M89.9,45.2L89,45.6c-0.2-0.8-0.5-1.5-0.8-2.1l0.9-0.3C89.4,43.8,89.6,44.5,89.9,45.2z"/>
<path class="st0" d="M98.1,42.5v3.1c0.4,1.9,1,3.5,1.9,4.7c0.7,1,1.8,2.1,3.3,3.1l-0.8,1.2c-1.3-0.9-2.2-1.7-2.9-2.5
	c-0.8-1-1.5-2.2-2-3.6c-0.4,1.5-1,2.7-1.7,3.5c-0.8,0.9-1.9,1.8-3.4,2.7l-0.8-1.2c1.9-1.2,3.2-2.5,3.8-3.9c0.7-1.3,1.1-2.6,1.1-3.9
	v-3.1H98v-0.1H98.1z"/>
<path class="st0" d="M107,47v-4.3h1.1V47h1.7v1.1h-1.7v0.3c0.6,0.6,1.2,1.4,1.8,2.2l-0.6,1c-0.5-0.8-0.9-1.4-1.2-1.9v4.7H107v-4.5
	c0,0.1,0,0.1-0.1,0.1c-0.4,1-0.9,1.8-1.5,2.5l-0.4-1.3c0.8-0.9,1.4-2,1.9-3.2H105v-1.1L107,47L107,47z M106.9,46.2l-1,0.2
	c-0.2-0.9-0.4-1.7-0.6-2.5l0.9-0.3C106.5,44.4,106.7,45.3,106.9,46.2z M109.9,43.8c-0.2,1-0.5,1.8-0.8,2.6l-1-0.4
	c0.3-0.7,0.6-1.5,0.8-2.5L109.9,43.8z M112.5,43.5v-0.9h1.1v0.9h2.5v1h-2.5v0.6h2.3V46h-2.3v0.7h2.8v1h-6.6v-1h2.6V46h-2.2v-0.9h2.2
	v-0.6h-2.5v-1H112.5z M116,53.4c0,0.4-0.1,0.6-0.3,0.9c-0.2,0.2-0.4,0.3-0.7,0.3h-1.3l-0.2-1l1.1,0.1c0.2,0,0.4-0.2,0.4-0.5v-0.6
	h-3.5v2h-1.1v-6.3h5.6V53.4z M114.9,49.9v-0.7h-3.5v0.7H114.9z M114.9,51.6v-0.7h-3.5v0.7H114.9z"/>
<path class="st0" d="M129.6,43.6v1.2h-4.5v7.7h5v1.2h-11.2v-1.2h4.9v-7.7h-4.4v-1.2H129.6z"/>
<path class="st0" d="M136.8,49.5c-0.2,0.3-0.5,0.5-1,0.8l-0.4-0.6c0.6-0.3,0.9-0.7,1-1.2h-0.8v-1.6h1.5v1.3
	C137.1,48.8,137,49.2,136.8,49.5z"/>
<path class="st0" d="M145.8,44.5c-0.2-0.5-0.3-0.9-0.5-1.3l1.1-0.2c0.2,0.4,0.3,0.9,0.5,1.5h0.9c0.2-0.6,0.3-1.2,0.4-1.8l1.1,0.2
	c-0.1,0.6-0.2,1.1-0.4,1.6h4.8c-0.1,0.9-0.2,1.7-0.3,2.3h1.2c-0.1,0.9-0.2,1.7-0.3,2.3h1c0,2.9-0.3,4.6-0.7,5
	c-0.3,0.4-1.1,0.5-2.6,0.5l-0.3-1.3c0.4,0.1,0.7,0.1,0.9,0.1c0.5,0,0.8-0.1,1.1-0.3c0.2-0.2,0.4-1.2,0.4-3h-7.5
	c-0.6,0.8-1.1,1.6-1.8,2.1l-1-0.7c1.7-1.6,2.9-3.6,3.7-5.9h-3v-1.1C144.5,44.5,145.8,44.5,145.8,44.5z M147.5,51.2
	c-0.3,1.3-0.8,2.3-1.4,3.3l-1-0.7c0.6-0.9,1-1.8,1.3-2.8L147.5,51.2z M147.2,49.1h5.9c0.1-0.3,0.1-0.8,0.2-1.2h-5.5
	C147.6,48.3,147.4,48.7,147.2,49.1z M149.4,54.2l-1.2,0.2c0-1.4-0.1-2.4-0.2-3.2l1-0.1C149.2,51.8,149.3,52.9,149.4,54.2z
	 M148.2,46.8h4c0.1-0.3,0.1-0.7,0.2-1.2h-3.9C148.5,46,148.4,46.4,148.2,46.8z M151.5,53.3l-1.1,0.2c-0.2-0.9-0.4-1.7-0.7-2.5l1-0.3
	C151,51.5,151.3,52.4,151.5,53.3z M153.2,52.5l-1,0.4c-0.2-0.7-0.4-1.4-0.7-2.1l0.8-0.2C152.8,51.3,153,51.9,153.2,52.5z"/>
<path class="st0" d="M161.2,43.3c-0.4,0.8-0.7,1.5-1.1,2v5h-1v-3.6c-0.3,0.4-0.7,0.7-1.1,1l-0.4-1.4c0.5-0.5,1-1,1.5-1.5
	c0.4-0.5,0.8-1.1,1.2-2L161.2,43.3z M160.1,51.3c-0.4,1.2-0.8,2.2-1.2,3l-1.1-0.8c0.5-0.8,0.9-1.7,1.3-2.7L160.1,51.3z M161.9,50.7
	V53c0,0.3,0.1,0.4,0.4,0.4h2.8c0.2,0,0.4-0.1,0.5-0.2c0.1-0.1,0.2-0.6,0.2-1.5l1.1,0.4c-0.1,1.2-0.3,1.8-0.5,2
	c-0.2,0.2-0.6,0.3-1.1,0.3h-3.4c-0.4,0-0.7-0.1-0.9-0.3c-0.2-0.2-0.3-0.5-0.3-0.8v-2.6C160.7,50.7,161.9,50.7,161.9,50.7z M164,43.1
	c-0.1,0.2-0.2,0.5-0.3,0.7h5c-0.1,0.8-0.3,1.6-0.5,2.4l-1.2-0.4c0.1-0.3,0.3-0.6,0.4-1h-1.8v4.3c0,0.4-0.1,0.7-0.3,0.9
	c-0.2,0.2-0.5,0.3-1,0.3h-1.1l-0.2-1.1c0.4,0.1,0.8,0.1,1.1,0.1s0.4-0.1,0.4-0.3v-4.1H163c-0.5,0.7-1,1.3-1.5,1.8l-0.8-1
	c0.9-0.8,1.7-1.7,2.2-2.7L164,43.1z M163.6,46.4c-0.4,1.2-1,2.2-1.7,3l-1-0.6c0.8-0.8,1.3-1.6,1.6-2.5L163.6,46.4z M165,52.2
	l-1.1,0.5c-0.4-0.7-0.7-1.4-1.1-1.9l1.1-0.4C164.2,51,164.7,51.5,165,52.2z M168.9,48.8l-1.1,0.8c-0.4-0.8-0.9-1.8-1.6-2.8l1-0.6
	C167.8,47.2,168.4,48,168.9,48.8z M169.2,53.4l-1.1,0.5c-0.6-1.2-1.2-2.3-1.8-3.2l1.1-0.4C168.1,51.3,168.7,52.3,169.2,53.4z"/>
<path class="st0" d="M173.4,42.9c-0.2,0.7-0.4,1.3-0.6,1.9h1.7v2.7c0.4-0.6,0.7-1.2,0.9-1.9c0.3-0.7,0.5-1.7,0.6-2.9l1.2,0.2
	c-0.1,0.7-0.2,1.3-0.3,1.8h3.8c0,4.6-0.1,7.3-0.2,8.1c-0.1,0.7-0.3,1.1-0.6,1.3c-0.4,0.3-1,0.4-2,0.4c-0.3,0-0.6,0-0.9-0.1l-0.2-1.3
	c0.4,0.1,0.7,0.1,1.1,0.1c0.8,0,1.2-0.3,1.3-0.8c0.2-0.7,0.3-2.9,0.3-6.6h-3c0,0.1-0.1,0.2-0.1,0.2c-0.3,0.9-0.7,1.9-1.4,3l-0.5-0.8
	v5.3h-1.1V53h-2.3v1H170v-9.2h1.6c0.3-0.6,0.5-1.3,0.6-2L173.4,42.9z M173.4,48.4v-2.5h-2.3v2.5H173.4z M173.4,52v-2.6h-2.3V52
	H173.4z M178.6,50.7l-1.2,0.8c-0.4-0.9-0.8-2-1.5-3.2l1-0.7C177.7,48.8,178.2,49.8,178.6,50.7z"/>
<path class="st0" d="M186.4,43.5c-0.2,0.6-0.4,1.1-0.5,1.6h2.6v-2.3h1.2v2.3h4.5v1.2h-4.5V49h3.9v1.1h-3.9v3.1h4.8v1.2h-11.3v-1.2
	h5.2v-3.1h-3.9V49h3.9v-2.7h-3.1v0.1c-0.3,0.6-0.8,1.4-1.5,2.3l-1-0.9c0.6-0.7,1.1-1.4,1.5-2.1c0.3-0.7,0.6-1.5,0.9-2.5L186.4,43.5z
	"/>
<path class="st0" d="M198.9,47.4l-0.7,1.2c-0.7-0.6-1.4-1.1-2.1-1.5l0.6-1C197.5,46.5,198.2,46.9,198.9,47.4z M199.4,50
	c-0.7,1.7-1.4,3.2-2.3,4.5l-0.9-1.1c0.7-1,1.4-2.3,2.2-4.1L199.4,50z M199.1,43.9l-0.7,1.2c-0.7-0.6-1.3-1-2-1.3l0.6-1
	C197.8,43.1,198.5,43.5,199.1,43.9z M207.2,43.7c-0.9,0.3-2,0.5-3.3,0.7v1.9h3.6v1.1h-3.6v1.9h3v5.2h-1.2v-0.8h-4.6v0.8h-1.2v-5.2
	h2.9v-1.9h-3.6v-1.1h3.6v-1.8c-0.9,0.1-1.8,0.1-2.8,0.1l-0.3-1c2.7,0,5-0.3,6.9-0.8L207.2,43.7z M205.7,52.6v-2.3h-4.6v2.3H205.7z"
	/>
<path class="st0" d="M214.8,49.5c-0.2,0.3-0.5,0.5-1,0.8l-0.4-0.6c0.6-0.3,0.9-0.7,1-1.2h-0.8v-1.6h1.5v1.3
	C215.2,48.8,215.1,49.2,214.8,49.5z"/>
<path class="st0" d="M226.2,42.7c1.2,0.8,2.3,1.6,3.4,2.5l-0.5,1.3c-1.1-1.1-2.2-2-3.3-2.7c-0.7,0.8-1.7,1.5-2.7,2.2h2.5
	c-0.2-0.4-0.4-0.8-0.6-1.2l1.2-0.2c0.2,0.4,0.4,0.8,0.6,1.3h1.9v4.3H224c-0.1,0.5-0.1,1-0.2,1.5c-0.2,0.9-0.5,1.8-1,2.8l-0.9-0.8
	c0.4-0.7,0.7-1.5,0.9-2.3c0.1-0.8,0.2-1.5,0.2-2.2v-3c-0.2,0.1-0.4,0.2-0.5,0.4l-0.5-1.2c1.3-0.7,2.5-1.6,3.4-2.6h0.6L226.2,42.7
	L226.2,42.7L226.2,42.7z M228.8,54.6h-1.1V54h-2.8v0.6h-1.1V51h4.9v3.6H228.8z M223.9,46.9v0.7h3.7v-0.7H223.9z M223.9,49.3h3.7
	v-0.8h-3.7V49.3z M227.7,53.1v-1.2h-2.8v1.2H227.7z M232.9,42.7v10.4c0,0.5-0.1,0.8-0.3,1s-0.5,0.3-1,0.3H230l-0.3-1.3
	c0.6,0.1,1.1,0.1,1.5,0.1c0.3,0,0.5-0.1,0.5-0.3V42.7H232.9z M230.9,43.5v8.2h-1.1v-8.2H230.9z"/>
<path class="st0" d="M4,66.8v0.9c-0.4,0.7-0.9,1.5-1.6,2.2H4v0.8c-0.2,0.7-0.3,1.3-0.5,1.8c0.5,0.7,1.2,1.1,1.9,1.3
	c0.7,0.2,2,0.4,3.8,0.4c1.2,0,2.2,0,3-0.1l-0.3,1.3c-3.8,0-6.1-0.1-6.9-0.4c-0.8-0.2-1.4-0.7-2-1.5c-0.4,0.7-0.9,1.4-1.5,2.1
	l-0.8-0.9c0.7-0.7,1.2-1.3,1.4-1.8C2.3,72.6,2.6,72,2.9,71H1.1v-1c0.5-0.5,1-1.2,1.6-2.1H0.8v-1.1H4z M3.7,65.5l-0.8,0.8
	c-0.4-0.5-0.8-1.1-1.5-1.7l0.7-0.7C2.8,64.4,3.3,64.9,3.7,65.5z M6.9,64c-0.1,0.4-0.3,0.7-0.4,1.1h1.1v-1.4h1.1v1.4h2.8v1.1H8.7v1.3
	H12v1.1H8.7v0.8H7.6v-0.8H4.3v-1.1h3.3v-1.3H5.9c-0.3,0.4-0.5,0.8-0.8,1.2l-1-0.7c0.8-0.9,1.3-1.8,1.7-2.8L6.9,64z M11.4,69.6V73
	H5.2v-3.4H11.4z M10.2,70.6H6.3V72h3.9V70.6z"/>
<path class="st0" d="M24.5,64v1.2h-4.9v1h3.9v5.2h-4.2c-0.2,0.7-0.4,1.3-0.7,1.8c0.4,0.2,0.7,0.3,1.1,0.4c1,0.3,2.7,0.5,5,0.7
	l-0.3,1.2c-2.2-0.2-3.8-0.4-5-0.8c-0.5-0.2-1-0.4-1.5-0.6c-0.9,0.7-2.3,1.2-4,1.4l-0.5-1.2c1.6-0.1,2.7-0.4,3.5-0.9
	c-0.7-0.4-1.3-0.8-1.9-1.2l0.8-0.6c0.6,0.4,1.3,0.8,1.9,1.1c0.3-0.4,0.5-0.8,0.6-1.4h-3.9v-5.2h4v-1h-4.9v-1.2L24.5,64L24.5,64z
	 M18.4,68.2v-1h-2.9v1H18.4z M18.4,69.3h-2.9v1.1h2.8C18.4,70,18.4,69.6,18.4,69.3z M22.3,69.3h-2.8c0,0.4,0,0.8-0.1,1.1h2.9
	L22.3,69.3L22.3,69.3z M19.5,68.2h2.9v-1h-2.9V68.2z"/>
<path class="st0" d="M32.8,63.8c-0.2,0.3-0.3,0.5-0.5,0.8H37v1c-0.8,1-1.8,1.9-3.2,2.6c-1.7,1-3.8,1.7-6,2.1l-0.5-1.1
	c1.7-0.2,3.2-0.6,4.3-1.1c-0.4-0.4-0.8-0.9-1.4-1.4l0.9-0.6c0.7,0.5,1.2,1,1.7,1.4c0.9-0.5,1.8-1.1,2.5-1.9h-4.1
	c-0.1,0.1-0.1,0.1-0.1,0.1c-0.8,0.6-1.7,1.1-2.9,1.6l-0.7-1c1.1-0.4,1.9-0.8,2.7-1.2c0.6-0.3,1.1-0.8,1.6-1.5L32.8,63.8z M35.5,68.5
	c-0.3,0.4-0.5,0.7-0.8,1h3.4v1c-0.9,1.6-1.9,2.7-3,3.4c-1.3,0.8-3.5,1.4-6.4,1.8l-0.8-1.2c2.4-0.2,4.2-0.6,5.5-1.1
	C33,73,32.5,72.5,32,72l0.9-0.6c0.7,0.5,1.3,1,1.7,1.4c0.9-0.5,1.6-1.3,2.2-2.3h-3.3c-0.1,0-0.1,0.1-0.1,0.1
	c-0.8,0.6-2.3,1.3-4.2,2.1l-0.9-1.2c1.8-0.5,3.1-1,3.8-1.5c0.9-0.5,1.6-1.1,2.1-1.8L35.5,68.5z"/>
<path class="st0" d="M43.7,63.7c0.8,0.7,1.6,1.5,2.4,2.3l-0.5,1.2c-0.1-0.1-0.2-0.3-0.3-0.4v0.8h-1.5v1.2h2.1v1h-2.1v1.3h1.7v4.5
	h-1.1v-0.7H42v0.8h-1.1v-4.8h1.7v-1.3h-2.1v-1h2.1v-1.2h-1.3v-0.5c-0.2,0.2-0.4,0.4-0.6,0.6l-0.5-1.1c1-0.8,1.8-1.7,2.5-2.8h0.5
	L43.7,63.7L43.7,63.7L43.7,63.7z M45,66.6c-0.6-0.7-1.2-1.4-1.8-1.9c-0.4,0.7-0.9,1.3-1.5,1.9H45z M44.3,73.8V72H42v1.8H44.3z
	 M51.1,64.2v1c-0.3,0.6-0.6,1.2-1,1.7c-0.2,0.3-0.5,0.6-0.8,0.8c0.2,0.2,0.3,0.3,0.4,0.4l-0.3,0.3h2.1c-0.1,1.1-0.3,1.8-0.4,2.2
	c-0.2,0.5-0.5,1-0.9,1.6l-0.8-0.8c0.4-0.4,0.6-1.1,0.8-1.9H49v4.6c0,0.5-0.1,0.8-0.3,1c-0.2,0.2-0.5,0.3-1,0.3h-1.4L46,74.1
	c0.5,0.1,1,0.1,1.3,0.1s0.4-0.1,0.4-0.3v-4.4h-2.1v-1.1h2.7c-0.6-0.6-1.3-1.2-2.1-1.8l0.7-0.7c0.5,0.4,1,0.7,1.4,1.1
	c0.3-0.3,0.5-0.6,0.8-0.9c0.2-0.2,0.3-0.5,0.5-0.8h-3.9v-1.1C45.7,64.2,51.1,64.2,51.1,64.2z"/>
<path class="st0" d="M56.3,66.8v0.9c-0.4,0.7-0.9,1.5-1.6,2.3h1.5v0.8c-0.2,0.8-0.4,1.4-0.6,1.9c0.5,0.6,0.9,0.9,1.2,1.1
	c0.3,0.2,0.7,0.3,1.2,0.4c0.6,0.1,1.8,0.2,3.6,0.2c1.3,0,2.3,0,2.9-0.1l-0.2,1.2c-3.5,0-5.5-0.1-6.3-0.1c-0.7-0.1-1.2-0.3-1.7-0.5
	c-0.4-0.2-0.8-0.5-1.2-1.1c-0.4,0.6-0.8,1.3-1.4,2l-0.8-0.9c0.7-0.7,1.1-1.3,1.4-1.8c0.2-0.3,0.5-0.9,0.8-1.9h-1.8v-1
	c0.5-0.5,1.1-1.3,1.6-2.2H53v-1.1h3.4L56.3,66.8L56.3,66.8z M55.9,65.7l-0.8,0.8c-0.3-0.6-0.8-1.3-1.3-2.1l0.7-0.7
	C55.1,64.4,55.5,65.1,55.9,65.7z M61.1,64.6h3.2v1H62l0.7,0.3c-0.2,0.3-0.3,0.6-0.5,0.9h1.7v5.7c0,0.4-0.1,0.7-0.3,0.9
	c-0.2,0.2-0.4,0.3-0.7,0.3H62L61.9,73h-3.3v-2.7h1.2v-1h-1.5v-0.9h1.5v-0.7h-2v5.9h-1v-6.9h1.6c-0.1-0.3-0.3-0.5-0.5-0.9l0.7-0.3
	h-2.1v-1h3.2c-0.2-0.3-0.4-0.6-0.6-0.8l1.2-0.1C60.7,64,60.9,64.3,61.1,64.6z M61.2,66.7c0.2-0.3,0.3-0.7,0.5-1.1h-2.6
	c0.2,0.3,0.4,0.7,0.5,1.1H61.2z M61.2,71h-1.5v1.1h1.5V71z M62.2,70.2v2.4h0.5c0.2,0,0.3-0.2,0.3-0.5v-4.5h-2v0.7h1.5v0.9H61v1
	C61,70.2,62.2,70.2,62.2,70.2z"/>
<path class="st0" d="M77.1,66.3h-2.9c0,0.6,0.1,1.1,0.2,1.5c0.1,0.4,0.2,0.7,0.3,1c0.4-0.6,0.8-1.3,1.2-2.1l0.9,0.5
	c-0.6,1.2-1.1,2.1-1.6,2.7c0,0.1,0.1,0.2,0.2,0.2c0.3,0.4,0.5,0.6,0.7,0.6c0.1,0,0.2-0.6,0.3-1.7l1,0.8c-0.3,1.1-0.5,1.7-0.6,1.9
	c-0.2,0.2-0.4,0.3-0.6,0.3c-0.4,0-0.9-0.2-1.3-0.7c-0.2-0.2-0.3-0.4-0.4-0.6c-0.5,0.5-1,1-1.5,1.4l-0.5-0.9h-3.8v-2.9h3.8v2.6
	c0.5-0.3,0.9-0.8,1.4-1.3c-0.2-0.4-0.3-0.8-0.5-1.3c-0.2-0.6-0.3-1.4-0.4-2.3h-5.1v1.1c0,0.8-0.1,1.6-0.2,2.4
	c-0.2,0.9-0.5,1.7-0.9,2.6l-1-0.9c0.4-0.6,0.6-1.3,0.8-2c0.1-0.7,0.2-1.4,0.2-2V65H73c0-0.4,0-0.8,0-1.3h1.1c0,0.5,0,0.9,0,1.3h1.6
	c-0.2-0.3-0.4-0.5-0.6-0.9l0.8-0.5c0.4,0.4,0.7,0.7,0.9,1L76.2,65H77v1.3H77.1z M68.5,72.6c-0.4,1.1-0.8,2-1.3,2.8l-1-0.7
	c0.5-0.7,1-1.6,1.4-2.6L68.5,72.6z M72.7,66.9v1h-4v-1H72.7z M70.2,72.2v2.1c0,0.2,0.1,0.4,0.4,0.4h2.8c0.1,0,0.2,0,0.3-0.1
	s0.1-0.6,0.1-1.4l1.1,0.4c-0.1,1.1-0.2,1.7-0.4,1.9c-0.2,0.2-0.5,0.3-0.9,0.3h-3.4c-0.4,0-0.6-0.1-0.8-0.3c-0.2-0.2-0.3-0.5-0.3-0.8
	v-2.4L70.2,72.2L70.2,72.2L70.2,72.2z M71.6,69.5h-1.9v1.1h1.9V69.5z M73,73.4l-1,0.7c-0.3-0.5-0.6-1.1-1.1-1.7l0.8-0.5
	C72.3,72.4,72.7,73,73,73.4z M77.4,74.4l-1,0.7c-0.4-0.7-1-1.5-1.8-2.4l0.8-0.6C76.3,73.1,77,73.8,77.4,74.4z"/>
<path class="st0" d="M85.1,71.4c-0.3-0.4-0.6-0.9-1.1-1.5c-0.3-0.4-0.8-0.8-1.5-1.3l0.8-0.7c0.4,0.3,0.9,0.7,1.5,1.3
	c0.4,0.4,0.7,0.9,1.2,1.5L85.1,71.4z"/>
<path class="st0" d="M101.3,74.4h1.8v1.1H92v-1.1h1.8v-7.2h7.5V74.4z M98.3,64.9h4.6v2.9h-1.2V66h-8.3v1.8h-1.2v-2.9H97
	c-0.2-0.3-0.3-0.6-0.5-0.9l1.3-0.2C98,64.2,98.2,64.6,98.3,64.9z M100.1,69.7v-1.3H95v1.3H100.1z M100.1,72v-1.3H95V72H100.1z
	 M100.1,74.4v-1.3H95v1.3H100.1z"/>
<path class="st0" d="M112.4,68.7h3.9v1.1h-3.9v1.3h3.5v4.3h-1.2v-0.6H109v0.6h-1.1v-4.3h3.4v-1.3h-3.9c-0.1,0.6-0.1,1.3-0.2,1.9
	c-0.2,1.3-0.6,2.5-1.1,3.7l-1-0.9c0.5-1,0.8-2.1,1-3.1c0.1-1.1,0.2-2.2,0.2-3.1V64h9.7v3.4h-3.6L112.4,68.7L112.4,68.7z M107.4,68.2
	c0,0.2,0,0.4,0,0.5h3.8v-1.4h-3.8V68.2z M107.4,65.1v1.1h7.4v-1.1H107.4z M114.6,73.8v-1.6H109v1.6H114.6z"/>
<path class="st0" d="M129.9,66.3h-2.8c0,0.6,0.1,1.1,0.2,1.5s0.2,0.7,0.3,1c0.4-0.6,0.8-1.3,1.2-2.1l0.9,0.5
	c-0.6,1.2-1.1,2.1-1.6,2.7c0,0.1,0.1,0.2,0.2,0.2c0.3,0.4,0.5,0.6,0.7,0.6c0.1,0,0.2-0.6,0.3-1.7l1,0.8c-0.3,1.1-0.5,1.7-0.6,1.9
	c-0.2,0.2-0.4,0.3-0.6,0.3c-0.4,0-0.9-0.2-1.3-0.7c-0.2-0.2-0.3-0.4-0.4-0.6c-0.5,0.5-1,1-1.5,1.4l-0.5-0.9h-3.8v-2.9h3.8v2.6
	c0.5-0.3,0.9-0.8,1.4-1.3c-0.2-0.4-0.3-0.8-0.5-1.3c-0.2-0.6-0.3-1.4-0.4-2.3h-5.1v1.1c0,0.8-0.1,1.6-0.2,2.4
	c-0.2,0.9-0.5,1.7-0.9,2.6l-1-0.9c0.4-0.6,0.6-1.3,0.8-2c0.1-0.7,0.2-1.4,0.2-2V65h6.2c0-0.4,0-0.8,0-1.3h1.1c0,0.5,0,0.9,0,1.3h1.6
	c-0.2-0.3-0.4-0.5-0.6-0.9l0.8-0.5c0.4,0.4,0.7,0.7,0.9,1l-0.6,0.4h0.8V66.3z M121.3,72.6c-0.4,1.1-0.8,2-1.3,2.8l-1-0.7
	c0.5-0.7,1-1.6,1.4-2.6L121.3,72.6z M125.6,66.9v1h-4v-1H125.6z M123.1,72.2v2.1c0,0.2,0.1,0.4,0.4,0.4h2.8c0.1,0,0.2,0,0.3-0.1
	c0.1-0.1,0.1-0.6,0.1-1.4l1.1,0.4c-0.1,1.1-0.2,1.7-0.4,1.9c-0.2,0.2-0.5,0.3-0.9,0.3h-3.4c-0.4,0-0.6-0.1-0.8-0.3
	c-0.2-0.2-0.3-0.5-0.3-0.8v-2.4L123.1,72.2L123.1,72.2L123.1,72.2z M124.4,69.5h-1.9v1.1h1.9V69.5z M125.9,73.4l-1,0.7
	c-0.3-0.5-0.6-1.1-1.1-1.7l0.8-0.5C125.2,72.4,125.6,73,125.9,73.4z M130.3,74.4l-1,0.7c-0.4-0.7-1-1.5-1.8-2.4l0.8-0.6
	C129.1,73.1,129.8,73.8,130.3,74.4z"/>
<path class="st0" d="M137.4,70.9c-0.3,0.3-0.8,0.5-1.2,0.5c-0.5,0-0.9-0.2-1.2-0.5c-0.4-0.3-0.5-0.7-0.5-1.2s0.2-0.9,0.5-1.2
	c0.3-0.3,0.7-0.5,1.2-0.5s0.9,0.2,1.2,0.5c0.3,0.3,0.5,0.8,0.5,1.2C137.9,70.2,137.8,70.6,137.4,70.9z M136.8,69.1
	c-0.2-0.2-0.4-0.3-0.6-0.3s-0.4,0.1-0.6,0.3c-0.2,0.2-0.3,0.4-0.3,0.6s0.1,0.4,0.3,0.6c0.2,0.2,0.4,0.3,0.6,0.3s0.4-0.1,0.6-0.3
	c0.2-0.2,0.3-0.4,0.3-0.6C137,69.4,137,69.2,136.8,69.1z"/>
</svg>
