<?xml version="1.0" encoding="utf-8"?>
<!-- Generator: Adobe Illustrator 25.2.3, SVG Export Plug-In . SVG Version: 6.00 Build 0)  -->
<svg version="1.1" id="圖層_1" xmlns="http://www.w3.org/2000/svg" xmlns:xlink="http://www.w3.org/1999/xlink" x="0px" y="0px"
	 viewBox="0 0 380 35" style="enable-background:new 0 0 380 35;" xml:space="preserve">
<style type="text/css">
	.st0{fill:#3E3A39;}
</style>
<path class="st0" d="M3.2,3.7v0.8c-0.4,0.6-0.9,1.3-1.5,2h1.4v0.7C2.9,8,2.7,8.6,2.5,9.1C2.9,9.6,3.3,9.9,3.6,10
	c0.2,0.1,0.6,0.2,1.1,0.3c0.6,0.1,1.6,0.1,3.3,0.1c1.2,0,2.1,0,2.7-0.1l-0.1,1c-3.1,0-5.1,0-5.7-0.1S3.8,11,3.4,10.8
	c-0.3-0.1-0.7-0.5-1.1-1C2,10.3,1.5,10.9,1,11.5l-0.8-0.8c0.6-0.6,1.1-1.1,1.4-1.6C1.8,8.8,2,8.3,2.3,7.4H0.6V6.5
	c0.5-0.5,1-1.1,1.5-1.9H0.3V3.7H3.2z M3,2.6L2.1,3.5C1.7,3,1.2,2.4,0.6,1.8L1.4,1C2.1,1.5,2.6,2,3,2.6z M10,2
	C8.6,2.3,7.1,2.5,5.4,2.5V4h5v1h-2v4.8H7.3V5h-2c0,0.7-0.1,1.5-0.3,2.4c-0.2,0.7-0.5,1.4-0.9,2L3.3,8.5c0.3-0.5,0.5-1,0.6-1.6
	c0.1-0.6,0.2-1.2,0.3-2V1.4c2,0,3.8-0.2,5.1-0.7L10,2z"/>
<path class="st0" d="M15.1,10.6c-0.6-0.7-0.8-1.5-0.8-2.5h1.4c0.1,0.7,0.2,1.2,0.4,1.5c0.3,0.6,1,0.8,1.9,0.8c0.7,0,1.2-0.2,1.7-0.6
	c0.4-0.4,0.6-0.8,0.6-1.4c0-0.7-0.2-1.2-0.7-1.5c-0.4-0.3-1.1-0.4-1.8-0.4c-0.1,0-0.2,0-0.3,0s-0.2,0-0.3,0V5.3c0.1,0,0.3,0,0.3,0
	c0.1,0,0.2,0,0.3,0c0.5,0,0.9-0.1,1.2-0.2c0.6-0.3,0.8-0.8,0.8-1.5c0-0.5-0.2-0.9-0.6-1.2C18.8,2.1,18.4,2,17.9,2
	c-0.9,0-1.5,0.3-1.8,0.9c-0.2,0.3-0.3,0.8-0.3,1.4h-1.3c0-0.8,0.2-1.4,0.5-2c0.5-1,1.5-1.5,2.8-1.5c1.1,0,1.9,0.2,2.5,0.7
	c0.6,0.5,0.9,1.2,0.9,2.1c0,0.6-0.2,1.2-0.5,1.6c-0.2,0.2-0.5,0.4-0.8,0.6c0.6,0.2,1,0.4,1.3,0.9c0.3,0.4,0.5,1,0.5,1.6
	c0,1-0.3,1.8-1,2.4c-0.7,0.6-1.6,0.9-2.8,0.9C16.5,11.7,15.6,11.3,15.1,10.6z"/>
<path class="st0" d="M25.6,1.7V0.9h1v0.8h1.3v0.9h-1.3v0.6h3.1V2.6h-1.3V1.7h1.3V0.9h1.1v0.8h2.6v0.9h-2.6v0.6h1.4v3.7h-3.6v0.6H33
	v2.9c0,0.3-0.1,0.6-0.2,0.8c-0.2,0.2-0.4,0.3-0.8,0.3h-0.9l-0.2-0.9h0.8c0.2,0,0.3-0.1,0.3-0.3V8.5h-3.3v1c0.4,0,0.8-0.1,1.1-0.2
	c-0.1-0.2-0.2-0.3-0.3-0.5l0.9-0.3c0.4,0.5,0.7,1.1,1,1.7l-0.9,0.4c-0.1-0.2-0.2-0.4-0.3-0.5c-1,0.2-2.7,0.4-4.9,0.6l-0.1-0.9
	c0.9,0,1.7-0.1,2.5-0.1V8.5h-3v3h-1v-3H23V7.6h0.7V7.1h1v0.5h3V7h-3.5V3.3h1.4V2.7h-2.5V1.8L25.6,1.7L25.6,1.7z M27.6,4.8V4.1h-2.5
	v0.7H27.6z M27.6,5.5h-2.5v0.6h2.5V5.5z M28.7,4.8h2.6V4.1h-2.6V4.8z M31.2,5.5h-2.6v0.6h2.6V5.5z"/>
<path class="st0" d="M35.7,4V1.1h1.1V4H38v1h-1.2v3c0.4-0.1,0.8-0.3,1.2-0.5v1.2c-1,0.5-2.1,0.9-3.3,1.2l-0.1-1.2
	c0.4,0,0.8-0.1,1.2-0.2V5h-1.2V4H35.7z M40.3,5.9l-1.1,0.3c-0.3-1-0.6-1.9-1-2.8l1-0.3C39.6,3.9,39.9,4.9,40.3,5.9z M44.5,1.4v1
	h-2.6V7h2.9v1h-2.9v3.4h-1.1V8h-2.6V7h2.6V2.4h-2.5v-1H44.5z M44.6,3.4c-0.3,1-0.6,2-1.1,2.8l-1.1-0.4c0.4-0.7,0.8-1.6,1.1-2.7
	L44.6,3.4z"/>
<path class="st0" d="M49.8,1.4v0.8C49.5,3.1,49.2,4,48.9,5c0.3,0.5,0.5,1,0.6,1.4c0.1,0.4,0.2,0.8,0.2,1.1c0.3-0.2,0.6-0.4,0.8-0.6
	c0.2-0.2,0.4-0.4,0.6-0.7h-1.5V5.3h6.9v0.9h-4.3c-0.1,0.2-0.2,0.4-0.4,0.6h4.3c0,2.4-0.2,3.8-0.7,4.2c-0.2,0.3-1,0.5-2.3,0.5
	l-0.2-1.1c0.3,0.1,0.6,0.1,0.8,0.1c0.4,0,0.7-0.1,0.9-0.3c0.2-0.2,0.3-1,0.4-2.5h-0.4c-0.5,1-1,1.7-1.4,2.1
	c-0.6,0.6-1.5,1.2-2.7,1.6L50,10.5c1.1-0.4,1.9-0.8,2.5-1.4c0.4-0.4,0.7-0.9,1.1-1.5h-0.8c-0.3,0.5-0.7,0.9-1.2,1.3
	c-0.6,0.5-1.3,0.9-2.2,1.3l-0.6-0.8c0.8-0.3,1.5-0.7,2-1c0.3-0.2,0.6-0.5,0.9-0.8H51c-0.4,0.3-0.8,0.6-1.3,0.9l-0.2-0.3
	c-0.1,0.2-0.1,0.3-0.2,0.4c-0.2,0.3-0.8,0.5-1.6,0.5L47.4,8c0.2,0,0.4,0,0.5,0c0.2,0,0.4,0,0.5-0.2c0.1-0.1,0.2-0.3,0.2-0.6
	c0-0.3-0.1-0.7-0.2-1c-0.1-0.4-0.4-0.9-0.7-1.4c0.4-1.1,0.7-2,0.9-2.7h-1.3v9.1h-1.1V1.1h3.6V1.4z M55.8,1.3v3.5H50V1.3H55.8z
	 M54.7,2.6V2H51v0.6H54.7z M54.7,3.4H51v0.7h3.7V3.4z"/>
<path class="st0" d="M61.8,9.1h-3V10h-1V1.6h4V9.1z M60.8,4.8V2.6h-1.9v2.2H60.8z M60.8,8.1V5.8h-1.9v2.3H60.8z M62.8,1.3h4.9v8.9
	c0,0.4-0.1,0.7-0.3,0.9c-0.2,0.2-0.4,0.3-0.7,0.3h-1.8l-0.2-1.1l1.6,0.1c0.2,0,0.4-0.2,0.4-0.4V8h-2.8c-0.1,0.4-0.2,0.8-0.3,1.1
	c-0.3,0.8-1,1.7-1.9,2.5l-0.9-0.8c0.9-0.6,1.5-1.3,1.8-2.1c0.3-0.6,0.5-1.5,0.5-2.8V5.1V1.3H62.8z M66.5,6.9V5.1h-2.6v0.8
	c0,0.4,0,0.7,0,1H66.5z M66.5,4V2.3h-2.6V4H66.5z"/>
<path class="st0" d="M72.7,1.8c-0.4,1.2-0.8,2-1.1,2.5c-0.3,0.6-0.8,1.2-1.5,2l-0.9-0.8c0.6-0.6,1.1-1.3,1.5-1.9
	C71,3,71.4,2.2,71.6,1.3L72.7,1.8z M74.4,4.9c-0.7,1.9-1.5,3.5-2.2,4.7c1.7,0,3.2-0.1,4.6-0.3c-0.3-0.8-0.7-1.5-1.2-2.3l1.1-0.4
	c0.8,1.3,1.5,2.8,2.1,4.5l-1.3,0.3c-0.1-0.4-0.3-0.8-0.4-1.2c-1.5,0.2-4,0.4-7.4,0.6l-0.2-1.2c0.4,0,0.9,0,1.3,0
	c0.8-1.2,1.5-3,2.4-5.2L74.4,4.9z M76.9,1.2c0.4,1.4,1.3,2.8,2.6,4l-0.8,1.1c-0.7-0.6-1.2-1.2-1.6-1.8c-0.5-0.7-0.9-1.4-1.2-2.3
	h-2.3v-1H76.9z"/>
<path class="st0" d="M90.6,11.4h-1V11h-7.9v0.4h-1V1.2h9.9V11.4z M89.6,10.1V2.2h-7.9v7.9H89.6z M88.7,5.4v2.1h-3.2
	c-0.1,0.1-0.1,0.1-0.1,0.2v2.2h-0.9V8.5c-0.6,0.4-1.3,0.8-2.1,1l-0.5-0.8c0.8-0.2,1.4-0.5,1.9-0.8c0.2-0.1,0.5-0.3,0.6-0.5h-1.6V5.3
	h5.9V5.4z M85.1,2.9V2.4H86v0.5h2.7v0.7H86v0.6h3.2V5H82V4.2h3.1V3.6h-2.6V2.9H85.1z M87.8,6.1h-4.2v0.6h4.2V6.1z M87.3,8.2
	c0.2-0.2,0.4-0.5,0.5-0.7L88.7,8c-0.1,0.2-0.3,0.4-0.5,0.6C88.6,8.8,89,9,89.3,9.2L88.8,10c-1-0.6-2-1.2-3.1-1.5l0.4-0.7
	C86.5,7.9,86.9,8.1,87.3,8.2z"/>
<path class="st0" d="M97.6,7.4c-0.2,0.2-0.5,0.5-0.9,0.7l-0.4-0.6c0.5-0.3,0.9-0.6,0.9-1h-0.7V5.1h1.4v1.1
	C97.9,6.8,97.8,7.2,97.6,7.4z"/>
<path class="st0" d="M109.2,1.1c-0.1,0.4-0.2,0.7-0.4,1h4.1v9.2h-1.1v-0.6h-6.5v0.6h-1.1V2.1h3.4c0.2-0.4,0.3-0.7,0.4-1.2L109.2,1.1
	z M111.8,4.4V3.1h-6.5v1.3H111.8z M111.8,7V5.5h-6.5V7H111.8z M111.8,9.7V8h-6.5v1.7H111.8z"/>
<path class="st0" d="M118.2,1.2c-0.1,0.3-0.1,0.5-0.2,0.7h2.8v0.8c-0.1,0.3-0.2,0.6-0.4,0.9h1.3c0-0.4,0.1-0.8,0.1-1.2V1.1h1v1.3
	c0,0.4,0,0.8-0.1,1.2h2.6v1h-2.4c0.2,0.6,0.4,1.1,0.8,1.4c0.5,0.6,1.1,1,1.9,1.3l-0.6,1c-1-0.5-1.7-1.1-2.1-1.8
	c-0.2-0.3-0.4-0.6-0.6-1c-0.1,0.3-0.2,0.5-0.4,0.7c-0.5,0.9-1.4,1.6-2.7,2.1l-0.5-0.9c1.2-0.5,2-1.1,2.4-1.9c0.2-0.3,0.3-0.6,0.4-1
	h-1.6c-0.3,0.4-0.5,0.8-0.8,1.2c-0.8,1-2,1.8-3.7,2.5L115,7.1c0.8-0.2,1.5-0.5,2-0.9c-0.3-0.3-0.7-0.5-1-0.6l0.5-0.7
	c0.4,0.2,0.9,0.5,1.3,0.7c0.1-0.1,0.3-0.3,0.4-0.4c0.1-0.1,0.1-0.1,0.2-0.2c-0.5-0.3-1-0.5-1.4-0.6l0.5-0.7c0.5,0.2,1,0.3,1.4,0.6
	c0.2-0.4,0.4-0.9,0.6-1.4h-1.9c-0.2,0.4-0.3,0.7-0.5,1c-0.4,0.8-1,1.4-1.7,2.1l-0.6-0.9c0.6-0.6,1-1.2,1.4-1.8
	c0.3-0.5,0.6-1.2,0.9-2.2L118.2,1.2z M117.3,8.7c-0.4,1.1-0.9,2-1.4,2.7l-1-0.7c0.6-0.7,1.1-1.5,1.5-2.5L117.3,8.7z M119.6,11.2
	l-1.2,0.1c0-0.9-0.1-1.8-0.2-2.5l1-0.1C119.3,9.5,119.4,10.3,119.6,11.2z M122.4,11.2l-1.3,0.1c-0.1-0.9-0.3-1.8-0.4-2.5l1-0.1
	C122,9.5,122.2,10.3,122.4,11.2z M125.4,10.9l-1.1,0.5c-0.4-1-0.9-1.9-1.4-2.7l1.1-0.4C124.6,9.2,125,10,125.4,10.9z M125,2.9
	l-0.9,0.6c-0.2-0.4-0.5-0.8-0.9-1.3l0.7-0.4C124.4,2.1,124.7,2.5,125,2.9z"/>
<path class="st0" d="M129.5,1.6c-0.2,0.5-0.3,1-0.5,1.4h2.4V0.9h1.1V3h4.2v1h-4.2v2.4h3.7v1h-3.7v2.7h4.4v1h-10.4v-1h4.8V7.4h-3.6
	v-1h3.6V4h-2.8c0,0,0,0,0,0.1c-0.3,0.6-0.7,1.2-1.3,2l-0.9-0.8c0.6-0.6,1-1.3,1.3-1.9c0.3-0.6,0.6-1.4,0.8-2.3L129.5,1.6z"/>
<path class="st0" d="M140.5,5.2l-0.7,1.1c-0.6-0.6-1.3-1-1.9-1.3l0.6-0.9C139.2,4.4,139.9,4.8,140.5,5.2z M140.9,7.5
	c-0.6,1.5-1.3,2.8-2.1,4l-0.9-1c0.6-0.9,1.3-2.1,2-3.6L140.9,7.5z M140.7,2.1L140,3.2c-0.6-0.5-1.2-0.9-1.8-1.2l0.6-0.9
	C139.5,1.4,140.1,1.8,140.7,2.1z M148.1,2c-0.9,0.3-1.8,0.5-3,0.6v1.7h3.3v1h-3.3V7h2.7v4.6h-1.1v-0.7h-4.3v0.7h-1.1V7h2.7V5.3h-3.3
	v-1h3.3V2.7c-0.8,0.1-1.6,0.1-2.5,0.1l-0.3-0.9c2.5,0,4.6-0.2,6.4-0.7L148.1,2z M146.8,9.8v-2h-4.3v2H146.8z"/>
<path class="st0" d="M152.5,1.3c-0.3,0.7-0.6,1.3-0.9,1.8v4.3h-1V4.5c-0.3,0.3-0.6,0.6-0.9,0.9l-0.4-1.3c0.4-0.4,0.8-0.9,1.2-1.4
	c0.3-0.4,0.7-1,1-1.9L152.5,1.3z M151.5,8.2c-0.2,1.1-0.6,2.1-1,2.9l-1-0.6c0.4-0.8,0.7-1.6,0.9-2.5L151.5,8.2z M153,7.6v2.5
	c0,0.2,0.1,0.4,0.4,0.4h2.8c0.2,0,0.4,0,0.5-0.1c0.1-0.1,0.2-0.5,0.3-1.3l1,0.3c-0.1,1-0.3,1.6-0.5,1.8s-0.6,0.3-1.1,0.3H153
	c-0.3,0-0.6-0.1-0.8-0.3s-0.3-0.4-0.3-0.7V7.7h1.1V7.6z M153.5,2.2v4.6h-1V2.2H153.5z M156.6,1c-0.1,0.4-0.3,0.8-0.4,1.1h3.7v1h-0.7
	c-0.3,0.7-0.6,1.3-1,1.8c-0.1,0.1-0.2,0.3-0.3,0.4c0.6,0.4,1.4,0.7,2.2,0.9l-0.6,1c-1-0.4-1.8-0.8-2.4-1.2c-0.1,0.1-0.1,0.1-0.2,0.1
	c-0.7,0.4-1.4,0.8-2.4,1l-0.6-1c1-0.2,1.7-0.5,2.2-0.8c0,0,0.1,0,0.1-0.1c-0.5-0.4-0.9-1-1.2-1.5c-0.2,0.2-0.4,0.4-0.7,0.6l-0.7-0.9
	c0.4-0.4,0.8-0.7,1.1-1.2c0.2-0.3,0.5-0.8,0.7-1.4L156.6,1z M156.3,8.8l-1,0.4c-0.4-0.6-0.9-1.1-1.3-1.6l1-0.3
	C155.4,7.8,155.9,8.3,156.3,8.8z M156.9,4.7c0.1-0.1,0.3-0.3,0.4-0.5c0.3-0.3,0.5-0.7,0.6-1.1h-2.2C156,3.7,156.4,4.3,156.9,4.7z
	 M160.2,9.8l-1,0.4c-0.5-0.9-1.1-1.7-1.7-2.4l1-0.3C159.1,8.2,159.7,9,160.2,9.8z"/>
<path class="st0" d="M162.2,3.4c0,1.1-0.2,2.2-0.4,3.2l-0.9-0.2c0.3-1,0.4-2,0.4-3.1L162.2,3.4z M163.6,1.1v2.2l0.8-0.2
	c0.3,0.8,0.5,1.7,0.8,2.7L164.3,6c-0.2-0.8-0.4-1.6-0.6-2.4v7.8h-1V1.1H163.6z M167.8,2.8l-0.7,0.4h2.4l-0.7-0.4
	c0.4-0.6,0.8-1.2,1-1.8l1,0.4c-0.3,0.6-0.6,1.2-0.9,1.7h1.2V7h-1.4v2.8c0,0.3,0.1,0.4,0.4,0.4h0.3c0.1,0,0.2,0,0.2-0.2
	c0-0.1,0.1-0.6,0.1-1.5l1,0.3c-0.1,1.2-0.2,1.9-0.4,2.1c-0.1,0.2-0.4,0.3-0.8,0.3h-0.8c-0.3,0-0.6-0.1-0.8-0.3
	c-0.2-0.2-0.3-0.5-0.3-0.8V7h-0.8c-0.1,1.2-0.3,2.1-0.6,2.6c-0.4,0.7-1.1,1.3-2.1,1.8l-0.7-0.9c0.9-0.4,1.5-0.9,1.8-1.4
	c0.3-0.4,0.5-1.2,0.6-2.2h-1.3V3h1.3c-0.3-0.6-0.6-1.1-1-1.6l1-0.4C167,1.6,167.4,2.2,167.8,2.8z M169.9,4.2h-3.5v1.9h3.5V4.2z"/>
<path class="st0" d="M175.8,1.1c-0.1,0.6-0.3,1.2-0.6,1.7h1.7v2.4c0.3-0.6,0.6-1.1,0.8-1.7s0.4-1.5,0.6-2.6l1.1,0.2
	c-0.1,0.6-0.2,1.2-0.3,1.6h3.5c0,4-0.1,6.4-0.2,7.2c-0.1,0.6-0.3,1-0.6,1.2s-0.9,0.3-1.8,0.3c-0.3,0-0.5,0-0.9,0l-0.2-1.1
	c0.3,0.1,0.7,0.1,1,0.1c0.7,0,1.1-0.2,1.2-0.7c0.1-0.6,0.2-2.5,0.3-5.8h-2.7c0,0.1-0.1,0.1-0.1,0.2c-0.3,0.8-0.7,1.7-1.3,2.6
	L176.8,6v4.7h-1v-0.5h-2.1v0.9h-1V2.9h1.4c0.2-0.6,0.4-1.2,0.6-1.8H175.8z M175.9,6V3.8h-2.1V6H175.9z M175.9,9.2V6.9h-2.1v2.3
	H175.9z M180.7,8l-1.1,0.7c-0.3-0.8-0.8-1.8-1.3-2.9l0.9-0.6C179.8,6.4,180.3,7.3,180.7,8z"/>
<path class="st0" d="M185.1,2.9c0.1-0.6,0.2-1.2,0.3-1.9l0.9,0.1c-0.1,0.6-0.1,1.2-0.2,1.8h2v1c-0.1,1.3-0.3,2.4-0.5,3.3
	c-0.1,0.5-0.3,0.9-0.5,1.3c0.4,0.4,0.9,0.7,1.3,1.1l-0.5,0.9c-0.3-0.4-0.7-0.7-1.2-1.1c-0.4,0.7-1.1,1.4-2.1,2.2l-0.7-0.9
	c0.8-0.6,1.5-1.3,1.9-2c-0.5-0.4-1.1-0.7-1.7-1.1c0.3-1.2,0.6-2.4,0.9-3.7h-1.1v-1H185.1z M185.2,7.2c0.3,0.2,0.7,0.4,1,0.7
	c0,0,0,0,0-0.1c0.4-0.9,0.7-2.2,0.8-3.9h-1.2C185.7,5.1,185.5,6.2,185.2,7.2z M193.3,1.5v1.1c-0.5,0.8-1.1,1.5-1.8,2.2v1h2.1v1.1
	h-2.1v3.7c0,0.3-0.1,0.5-0.2,0.7c-0.2,0.2-0.4,0.3-0.6,0.3h-1.8l-0.2-1.1c0.4,0,0.9,0,1.4,0c0.2,0,0.3-0.1,0.3-0.3V6.8H188V5.7h2.4
	V4.4c0.5-0.4,1-1,1.6-1.8h-3.8V1.5H193.3z"/>
<path class="st0" d="M202.9,11.5h-1v-0.9h-5.2v0.8h-1V1.2h7.3v10.3H202.9z M201.9,5.3V2.4h-5.2v2.9H201.9z M201.9,9.6V6.5h-5.2v3.1
	H201.9z"/>
<path class="st0" d="M213.6,1.5v0.9c-0.6,0.7-1.6,1.5-3,2.6v0.8h4v1.1h-4v3.6c0,0.3-0.1,0.6-0.2,0.8c-0.2,0.2-0.4,0.3-0.7,0.3h-2
	l-0.1-1.2c0.7,0.1,1.2,0.1,1.6,0.1c0.2,0,0.3-0.1,0.3-0.4V6.9h-4.3V5.8h4.3V4.4c1-0.6,1.9-1.2,2.7-1.8h-6v-1h7.4V1.5z"/>
<path class="st0" d="M221.5,7.3c-0.3,0.3-0.6,0.4-1,0.4s-0.8-0.1-1-0.4c-0.3-0.3-0.4-0.7-0.4-1.1s0.1-0.8,0.4-1.1
	c0.3-0.3,0.6-0.4,1-0.4s0.8,0.1,1,0.4c0.3,0.3,0.4,0.7,0.4,1.1C221.9,6.7,221.8,7,221.5,7.3z M221,5.7c-0.1-0.1-0.3-0.2-0.5-0.2
	s-0.4,0.1-0.5,0.2s-0.2,0.3-0.2,0.5c0,0.2,0.1,0.4,0.2,0.5c0.1,0.2,0.3,0.2,0.5,0.2s0.4-0.1,0.5-0.2s0.2-0.3,0.2-0.5
	C221.2,6,221.1,5.9,221,5.7z"/>
<path class="st0" d="M228.2,5.7c0,0.3-0.1,0.5-0.1,0.7h1.4v0.8c-0.1,0.7-0.2,1.3-0.4,1.9c-0.2,0.5-0.4,0.9-0.7,1.2
	c-0.3,0.4-0.9,0.8-1.6,1.3l-0.6-0.7c0.8-0.4,1.4-0.9,1.8-1.4c-0.2-0.3-0.5-0.6-0.7-0.9c-0.2,0.3-0.3,0.5-0.5,0.7l-0.5-0.8
	c0.4-0.5,0.7-1,0.8-1.4c0.1-0.3,0.3-0.8,0.4-1.3L228.2,5.7L228.2,5.7z M229.1,2.9v-2h0.9v2h2.5v0.9H230c0.8,0.2,1.5,0.5,2.4,0.9
	l-0.3,0.9c-0.7-0.4-1.4-0.7-2.1-0.9V6h-0.9V3.8c-0.2,0.3-0.3,0.6-0.5,0.7c-0.4,0.5-1,0.9-1.8,1.4L226.3,5c0.6-0.3,1.1-0.6,1.4-0.9
	c0.2-0.1,0.4-0.3,0.5-0.5h-1.8V2.7h2.7V2.9z M228.7,2.3L228,2.8c-0.2-0.4-0.5-0.9-0.8-1.4l0.6-0.4C228.1,1.5,228.4,1.9,228.7,2.3z
	 M228.3,8.7c0.2-0.4,0.3-0.9,0.4-1.5h-0.8c0,0.1-0.1,0.3-0.1,0.4s-0.1,0.2-0.1,0.3C227.9,8.1,228.1,8.4,228.3,8.7z M232.5,7.3h-0.7
	v1.6h0.8v0.9h-0.8v1.8H231V9.8h-1.5l0.3-3.3h1.3V5.8h0.8v0.7h0.7v0.8H232.5z M231,7.3h-0.6l-0.1,1.6h0.7V7.3z M232,1.4
	c-0.3,0.5-0.6,1-0.9,1.3l-0.7-0.5c0.3-0.3,0.7-0.7,1-1.2L232,1.4z M235.9,1.3v0.8c-0.2,1.1-0.5,2.3-0.8,3.5c0.3,0.6,0.6,1.1,0.7,1.5
	c0.2,0.5,0.3,0.9,0.3,1.2c0,0.7-0.1,1.2-0.3,1.5c-0.2,0.3-0.7,0.5-1.4,0.5l-0.3-1c0.2,0,0.4,0,0.5,0c0.2,0,0.3-0.1,0.4-0.2
	s0.2-0.4,0.2-0.8c0-0.4-0.1-0.7-0.2-1.1c-0.2-0.4-0.4-0.9-0.8-1.5c0.4-1.4,0.6-2.6,0.8-3.5h-1.2v9.3h-0.9V1.3H235.9z"/>
<path class="st0" d="M241.3,1.4v3.7h-1.2v1.5h1.4v1h-1.4v2c0.5-0.1,1-0.3,1.5-0.4v0.9c-1.2,0.4-2.7,0.8-4.3,1.2l-0.3-1
	c0.2,0,0.3-0.1,0.5-0.1V5.7h0.8V10c0.3,0,0.5-0.1,0.8-0.2V5h-1.4V1.3h3.6V1.4z M240.4,2.3h-1.7v1.9h1.7V2.3z M246.9,1.3v1h-3.6V4
	h3.2v4.1h-3.2v2h3.6v1h-5.4v-1h0.8V2.2h-0.6v-1L246.9,1.3L246.9,1.3z M245.6,7.3V5.1h-2.3v2.2H245.6z"/>
<path class="st0" d="M253.4,1.7V0.9h1v0.8h2.6v1.7h0.6v0.9H257V6h-2.6v0.7h2.7v0.8h-2.7v0.8h3.1v0.9h-3.1v1c0.2,0,0.3,0,0.5,0
	c1.3,0,2.2,0,2.8-0.1l-0.2,1.2c-3.3,0-5.4-0.1-6.1-0.2c-0.7-0.2-1.2-0.5-1.6-0.8l-0.1-0.1c-0.3,0.5-0.8,0.9-1.4,1.5l-0.5-1.1
	c0.6-0.4,1-0.9,1.3-1.3c-0.3-0.6-0.7-1.4-1-2.4l0.8-0.3c0.2,0.7,0.5,1.2,0.7,1.6c0,0,0-0.1,0.1-0.2c0.1-0.5,0.2-1.2,0.3-2.1h-1.8
	V5.2c0.6-0.8,1.2-1.7,1.8-2.7h-2V1.6h3.1v1c-0.6,1.1-1.2,1.9-1.7,2.5h1.6c0,1.3-0.2,2.3-0.4,3.1c-0.1,0.4-0.2,0.7-0.3,1
	c0.3,0.3,0.6,0.6,1.1,0.7c0.4,0.1,1.1,0.2,2.1,0.3V9.3h-2.6V8.4h2.6V7.6h-2.1V6.8h2.1V6h-2V5.2h2V4.3h-2.6V3.4h2.6V2.5h-2V1.7H253.4
	z M254.4,3.4h1.6V2.5h-1.6V3.4z M254.4,5.2h1.6V4.3h-1.6V5.2z"/>
<path class="st0" d="M268.2,11.4h-0.9V11H260v0.4h-0.9V1.2h9.1V11.4z M267.3,10.1v-8H260v8H267.3z M263.9,8.5
	c-1,0.3-2.1,0.5-3.4,0.8l-0.2-1c1.2-0.1,2.4-0.3,3.6-0.7V8.5z M263.8,3.4c0-0.3,0-0.7,0-1.1h0.9c0,0.4,0,0.7,0,1.1h1
	c-0.1-0.3-0.2-0.6-0.4-0.9l0.8-0.3c0.2,0.3,0.4,0.6,0.5,1l-0.5,0.1h0.8v0.9h-2.2c0,0.7,0.1,1.3,0.2,1.8c0.1,0.4,0.1,0.7,0.2,1.1
	c0.3-0.6,0.6-1.4,1-2.5l0.7,0.5c-0.5,1.4-1,2.4-1.3,3c0,0.1,0.1,0.1,0.1,0.2c0.2,0.4,0.3,0.5,0.5,0.5c0.1,0,0.2-0.4,0.3-1.3l0.8,0.7
	c-0.2,0.9-0.4,1.4-0.5,1.5c-0.1,0.2-0.3,0.3-0.5,0.3c-0.3,0-0.6-0.2-0.9-0.6c-0.1-0.1-0.2-0.3-0.3-0.4c-0.3,0.4-0.8,0.8-1.2,1.2
	l-0.5-0.7c0.5-0.4,1-0.9,1.3-1.3c-0.2-0.4-0.3-0.8-0.4-1.3c-0.2-0.6-0.2-1.4-0.3-2.4h-3.5V3.6h3.4V3.4z M263.3,4.8v2.7h-2.6V4.8
	H263.3z M262.5,5.6h-1.1v1.1h1.1V5.6z"/>
<path class="st0" d="M273,1.8c-0.4,1.2-0.7,2-1,2.5c-0.3,0.6-0.8,1.2-1.4,2l-0.9-0.8c0.6-0.6,1.1-1.3,1.4-1.9
	c0.3-0.6,0.6-1.4,0.9-2.3L273,1.8z M274.6,4.9c-0.7,1.9-1.4,3.5-2.1,4.7c1.6,0,3-0.1,4.3-0.3c-0.3-0.8-0.7-1.5-1.1-2.3l1-0.4
	c0.7,1.3,1.4,2.8,2,4.5l-1.2,0.3c-0.1-0.4-0.3-0.8-0.4-1.2c-1.4,0.2-3.8,0.4-6.9,0.6L270,9.6c0.4,0,0.8,0,1.2,0
	c0.7-1.2,1.4-3,2.2-5.2L274.6,4.9z M276.9,1.2c0.4,1.4,1.2,2.8,2.5,4l-0.7,1.1c-0.6-0.6-1.1-1.2-1.5-1.8c-0.5-0.7-0.8-1.4-1.1-2.3
	h-2.2v-1H276.9z"/>
<path class="st0" d="M289.8,11.4h-0.9V11h-7.4v0.4h-0.9V1.2h9.3v10.2H289.8z M288.9,10.1V2.2h-7.4v7.9H288.9z M288.1,5.4v2.1h-3
	C285,7.6,285,7.6,285,7.7v2.2h-0.9V8.5c-0.6,0.4-1.2,0.8-1.9,1l-0.5-0.8c0.7-0.2,1.3-0.5,1.7-0.8c0.2-0.1,0.4-0.3,0.6-0.5h-1.5V5.3
	h5.6V5.4z M284.6,2.9V2.4h0.9v0.5h2.6v0.7h-2.6v0.6h3V5h-6.8V4.2h2.9V3.6h-2.4V2.9H284.6z M287.2,6.1h-3.9v0.6h3.9V6.1z M286.7,8.2
	c0.2-0.2,0.4-0.5,0.5-0.7L288,8c-0.1,0.2-0.3,0.4-0.5,0.6c0.4,0.2,0.7,0.4,1,0.6L288,10c-1-0.6-1.9-1.2-2.9-1.5l0.4-0.7
	C286,7.9,286.3,8.1,286.7,8.2z"/>
<path class="st0" d="M296.7,7.8c-0.2-0.4-0.5-0.8-1-1.3c-0.3-0.3-0.7-0.7-1.3-1.2l0.7-0.6c0.4,0.3,0.8,0.7,1.3,1.2
	c0.3,0.3,0.6,0.8,1,1.3L296.7,7.8z"/>
<path class="st0" d="M305.1,1.4v1c-0.6,1-1.1,1.7-1.5,2.3h1.5c0,1.3-0.2,2.4-0.3,3.2c-0.1,0.4-0.2,0.8-0.4,1.2
	c0.3,0.3,0.6,0.5,1,0.6c0.6,0.2,1.8,0.3,3.5,0.3c1.3,0,2.2,0,2.9-0.1l-0.2,1.2c-3.4,0-5.4-0.1-6.2-0.2c-0.7-0.2-1.2-0.4-1.6-0.8
	c-0.3,0.4-0.7,0.9-1.2,1.4l-0.6-1.2c0.4-0.4,0.8-0.8,1.1-1.2c-0.3-0.6-0.7-1.4-1.1-2.4l0.9-0.4c0.3,0.7,0.5,1.2,0.7,1.6
	c0-0.1,0.1-0.2,0.1-0.3c0.1-0.5,0.2-1.2,0.2-2h-1.7V4.8c0.6-0.8,1.2-1.6,1.7-2.6h-1.8V1.3h3V1.4z M311.3,2c-0.6,0.2-1.4,0.4-2.1,0.6
	v2h2.1v0.9h-2.1v2.6h2V9H307c-0.4,0-0.7-0.1-0.9-0.2c-0.2-0.1-0.3-0.4-0.3-0.7V3.8h1v3.9c0,0.3,0.1,0.4,0.4,0.4h0.9V2.7
	c-0.8,0.1-1.6,0.1-2.5,0.1l-0.3-1c2.1,0,4-0.2,5.4-0.7L311.3,2z"/>
<path class="st0" d="M322.1,1.5v0.9h-4v4.1h4.4v1h-4.4v4h-1v-4h-4.3v-1h4.3V2.4h-3.9V1.5H322.1z M315.7,5.6l-1,0.5
	c-0.3-1-0.7-1.8-1-2.6l0.9-0.4C315,3.8,315.4,4.6,315.7,5.6z M321.5,3.4c-0.3,0.9-0.7,1.8-1.2,2.6l-0.9-0.5c0.5-0.9,0.9-1.7,1.2-2.6
	L321.5,3.4z"/>
<path class="st0" d="M3.6,23c-0.4,1.2-0.7,2-1,2.5c-0.3,0.6-0.8,1.2-1.4,2l-0.9-0.8c0.6-0.6,1.1-1.3,1.4-1.9s0.6-1.4,0.9-2.3L3.6,23
	z M5.2,26.1c-0.7,1.9-1.4,3.5-2.1,4.7c1.6,0,3-0.1,4.3-0.3c-0.3-0.8-0.7-1.5-1.1-2.3l1-0.4c0.7,1.3,1.4,2.8,2,4.5l-1.2,0.3
	c-0.1-0.4-0.3-0.8-0.4-1.2c-1.4,0.2-3.8,0.4-6.9,0.6l-0.2-1.2c0.4,0,0.8,0,1.2,0c0.7-1.2,1.4-3,2.2-5.2L5.2,26.1z M7.5,22.4
	c0.4,1.4,1.2,2.8,2.5,4l-0.7,1.1c-0.6-0.6-1.1-1.2-1.5-1.8C7.3,25,7,24.3,6.7,23.4H4.5v-1H7.5z"/>
<path class="st0" d="M20.5,32.6h-0.9v-0.4h-7.4v0.4h-0.9V22.4h9.3v10.2H20.5z M19.5,31.3v-8h-7.4v8H19.5z M18.7,26.6v2.1h-3
	c-0.1,0.1-0.1,0.1-0.1,0.2v2.2h-0.9v-1.4c-0.6,0.4-1.2,0.8-1.9,1l-0.5-0.8c0.7-0.2,1.3-0.5,1.7-0.8c0.2-0.1,0.4-0.3,0.6-0.5h-1.5
	v-2.1h5.6V26.6z M15.2,24.1v-0.5h0.9v0.5h2.6v0.7h-2.6v0.6h3v0.8h-6.8v-0.8h2.9v-0.6h-2.4v-0.7H15.2z M17.8,27.3h-3.9v0.6h3.9V27.3z
	 M17.3,29.4c0.2-0.2,0.4-0.5,0.5-0.7l0.8,0.5c-0.1,0.2-0.3,0.4-0.5,0.6c0.4,0.2,0.7,0.4,1,0.6l-0.5,0.8c-1-0.6-1.9-1.2-2.9-1.5
	l0.4-0.7C16.6,29.1,16.9,29.3,17.3,29.4z"/>
<path class="st0" d="M27.4,29c-0.2-0.4-0.5-0.8-1-1.3c-0.3-0.3-0.7-0.7-1.3-1.2l0.7-0.6c0.4,0.3,0.8,0.7,1.3,1.2
	c0.3,0.3,0.6,0.8,1,1.3L27.4,29z"/>
<path class="st0" d="M34.9,24h1v0.9c-0.3,0.8-0.7,1.5-1,2.1c0.4,0.3,0.8,0.7,1.1,1.1L35.5,29c-0.3-0.3-0.5-0.7-0.8-0.9v4.7h-1v-4.2
	c-0.3,0.4-0.6,0.7-1,1.1l-0.3-1.2c0.6-0.5,1-1,1.3-1.4s0.7-1,1.1-2h-2.2v-1H34c-0.2-0.6-0.4-1.2-0.6-1.7l1-0.1
	C34.6,22.7,34.7,23.3,34.9,24z M42.2,22.4v0.9h-6v-0.9H42.2z M42.1,32.7h-0.9v-0.5h-4.1v0.5h-0.9v-5.3h5.9V32.7z M41.8,24v2.7h-5.2
	V24H41.8z M38.7,29.3v-1.1h-1.5v1.1H38.7z M38.7,31.4v-1.3h-1.5v1.3H38.7z M40.8,24.8h-3.3v1h3.3V24.8z M39.6,29.3h1.6v-1.1h-1.6
	V29.3z M41.2,31.4v-1.3h-1.6v1.3H41.2z"/>
<path class="st0" d="M48.7,24.9c-0.3,0.6-0.6,1.1-0.9,1.5h5.3v1h-1.7c-0.5,1.2-1,2.2-1.6,2.9c1,0.4,1.9,0.9,3,1.5l-0.7,0.9
	c-1-0.6-2-1.2-3.1-1.7c-1.1,0.7-2.8,1.3-5.1,1.6l-0.4-1.1c1.9-0.2,3.4-0.5,4.3-1c-1-0.4-2.1-0.8-3.3-1.1c0.4-0.6,0.9-1.3,1.4-2h-2.7
	v-1h3.4c0.4-0.6,0.7-1.2,1.1-1.8L48.7,24.9z M48.9,23.2H53v2.6h-1v-1.6h-7.3v1.6h-1v-2.6h4.1c-0.1-0.3-0.3-0.6-0.4-0.9l1.1-0.2
	C48.6,22.5,48.7,22.8,48.9,23.2z M47.3,27.4c-0.3,0.6-0.7,1.1-1,1.5c0.8,0.2,1.7,0.6,2.6,0.9c0.6-0.6,1-1.4,1.5-2.4H47.3z"/>
<path class="st0" d="M57.9,23c-0.4,1.2-0.8,2-1.1,2.5c-0.3,0.6-0.8,1.2-1.5,2l-0.9-0.8c0.6-0.6,1.1-1.3,1.5-1.9
	c0.3-0.6,0.7-1.4,0.9-2.3L57.9,23z M59.6,26.1c-0.7,1.9-1.5,3.5-2.2,4.7c1.7,0,3.2-0.1,4.6-0.3c-0.3-0.8-0.7-1.5-1.2-2.3l1.1-0.4
	c0.8,1.3,1.5,2.8,2.1,4.5l-1.3,0.3c-0.1-0.4-0.3-0.8-0.4-1.2c-1.5,0.2-4,0.4-7.4,0.6l-0.2-1.2c0.4,0,0.9,0,1.3,0
	c0.8-1.2,1.5-3,2.4-5.2L59.6,26.1z M62.1,22.4c0.4,1.4,1.3,2.8,2.6,4l-0.8,1.1c-0.7-0.6-1.2-1.2-1.6-1.8c-0.5-0.7-0.9-1.4-1.2-2.3
	h-2.3v-1H62.1z"/>
<path class="st0" d="M75.8,32.6h-1v-0.4h-7.9v0.4h-1V22.4h9.9V32.6z M74.9,31.3v-8H67v8H74.9z M74,26.6v2.1h-3.2
	c-0.1,0.1-0.1,0.1-0.1,0.2v2.2h-0.9v-1.4c-0.6,0.4-1.3,0.8-2.1,1l-0.5-0.8c0.8-0.2,1.4-0.5,1.9-0.8c0.2-0.1,0.5-0.3,0.6-0.5H68v-2.1
	h6V26.6z M70.3,24.1v-0.5h0.9v0.5h2.7v0.7h-2.7v0.6h3.2v0.8h-7.2v-0.8h3.1v-0.6h-2.6v-0.7H70.3z M73.1,27.3h-4.2v0.6h4.2V27.3z
	 M72.5,29.4c0.2-0.2,0.4-0.5,0.5-0.7l0.9,0.5c-0.1,0.2-0.3,0.4-0.5,0.6c0.4,0.2,0.8,0.4,1.1,0.6L74,31.2c-1-0.6-2-1.2-3.1-1.5
	l0.4-0.7C71.7,29.1,72.1,29.3,72.5,29.4z"/>
<path class="st0" d="M81.4,28.6c-0.2,0.2-0.5,0.5-0.9,0.7l-0.4-0.6c0.5-0.3,0.9-0.6,0.9-1h-0.7v-1.4h1.4v1.1
	C81.7,28,81.6,28.4,81.4,28.6z"/>
<path class="st0" d="M88.5,24.6v-2.3h1.2v2.3h2.9v-2.3h1.2v2.3H96v0.9h-2.2V28h2.7v1H85.9v-1h2.6v-2.5h-2v-0.9H88.5z M90.2,30
	c-0.9,1-2,1.9-3.4,2.7L86,31.6c1.3-0.6,2.4-1.4,3.4-2.4L90.2,30z M92.6,28v-2.5h-2.9V28H92.6z M96.4,31.8l-0.9,0.9
	c-0.8-0.8-1.8-1.7-3.2-2.6l0.9-0.8C94.3,30.1,95.4,30.9,96.4,31.8z"/>
<path class="st0" d="M100.4,23.4h1.9v0.9h-4.9v-0.9h2c-0.2-0.4-0.4-0.8-0.7-1.2l1.1-0.1C100,22.5,100.2,23,100.4,23.4z M101.9,25.2
	v0.9h-4.1v-0.9H101.9z M101.9,26.8v0.9h-4.1v-0.9H101.9z M98.9,32.7h-1v-4.1h4v4h-1V32H99L98.9,32.7L98.9,32.7z M100.8,29.5h-1.9
	v1.4h1.9V29.5z M104.7,25.4v-3.3h1.1v3.3h2.2v1h-2.2v6.2h-1.1v-6.2h-2.2v-1H104.7z"/>
<path class="st0" d="M109.8,25.2v-1c1-0.1,1.6-0.2,2-0.5c0.4-0.2,0.7-0.7,0.8-1.5h1v10.4h-1.4v-7.4H109.8z"/>
<path class="st0" d="M123.6,23c0.5,0.6,0.7,1.2,0.7,1.9H123c-0.1-0.4-0.2-0.7-0.4-1c-0.3-0.4-0.8-0.7-1.4-0.7c-0.7,0-1.3,0.3-1.8,1
	c-0.4,0.7-0.7,1.7-0.7,2.9c0.3-0.4,0.7-0.8,1.1-1c0.4-0.2,0.9-0.3,1.4-0.3c0.9,0,1.6,0.3,2.3,0.8c0.7,0.6,1,1.4,1,2.5
	c0,1-0.3,1.8-0.9,2.5c-0.6,0.7-1.5,1.1-2.7,1.1c-1,0-1.8-0.4-2.5-1.1c-0.7-0.7-1.1-2-1.1-3.8c0-1.3,0.2-2.4,0.5-3.3
	c0.6-1.7,1.7-2.6,3.3-2.6C122.3,22.1,123.1,22.4,123.6,23z M122.6,31c0.3-0.5,0.5-1,0.5-1.7c0-0.5-0.2-1-0.5-1.5
	c-0.3-0.5-0.9-0.7-1.7-0.7c-0.6,0-1.1,0.2-1.5,0.6c-0.4,0.4-0.6,0.9-0.6,1.7c0,0.7,0.2,1.2,0.6,1.7s0.9,0.7,1.6,0.7
	C121.7,31.7,122.2,31.5,122.6,31z"/>
<path class="st0" d="M126.3,34.1c0.3-0.1,0.6-0.3,0.7-0.7c0.1-0.2,0.1-0.4,0.1-0.6v-0.1v-0.1h-0.8V31h1.6v1.5c0,0.6-0.1,1.1-0.4,1.5
	c-0.2,0.4-0.6,0.7-1.2,0.8V34.1z"/>
<path class="st0" d="M136.2,23.8c0.5,0.9,0.7,2,0.7,3.6c0,1.4-0.2,2.6-0.6,3.5c-0.6,1.3-1.6,2-3,2c-1.3,0-2.2-0.5-2.8-1.6
	c-0.5-0.9-0.8-2.1-0.8-3.7c0-1.2,0.2-2.2,0.5-3.1c0.6-1.6,1.6-2.4,3.1-2.4C134.7,22.1,135.6,22.7,136.2,23.8z M134.9,30.8
	c0.4-0.6,0.6-1.7,0.6-3.4c0-1.2-0.1-2.2-0.4-2.9c-0.3-0.8-0.9-1.2-1.7-1.2c-0.8,0-1.3,0.4-1.7,1.1c-0.4,0.7-0.5,1.8-0.5,3.2
	c0,1.1,0.1,1.9,0.3,2.6c0.4,1,1,1.5,1.8,1.5C134,31.7,134.5,31.4,134.9,30.8z"/>
<path class="st0" d="M144.6,23.8c0.5,0.9,0.7,2,0.7,3.6c0,1.4-0.2,2.6-0.6,3.5c-0.6,1.3-1.6,2-3,2c-1.3,0-2.2-0.5-2.8-1.6
	c-0.5-0.9-0.8-2.1-0.8-3.7c0-1.2,0.2-2.2,0.5-3.1c0.6-1.6,1.6-2.4,3.1-2.4C143,22.1,144,22.7,144.6,23.8z M143.3,30.8
	c0.4-0.6,0.6-1.7,0.6-3.4c0-1.2-0.1-2.2-0.4-2.9c-0.3-0.8-0.9-1.2-1.7-1.2s-1.3,0.4-1.7,1.1c-0.4,0.7-0.5,1.8-0.5,3.2
	c0,1.1,0.1,1.9,0.3,2.6c0.4,1,1,1.5,1.8,1.5C142.3,31.7,142.9,31.4,143.3,30.8z"/>
<path class="st0" d="M152.9,23.8c0.5,0.9,0.7,2,0.7,3.6c0,1.4-0.2,2.6-0.6,3.5c-0.6,1.3-1.6,2-3,2c-1.3,0-2.2-0.5-2.8-1.6
	c-0.5-0.9-0.8-2.1-0.8-3.7c0-1.2,0.2-2.2,0.5-3.1c0.6-1.6,1.6-2.4,3.1-2.4C151.3,22.1,152.3,22.7,152.9,23.8z M151.6,30.8
	c0.4-0.6,0.6-1.7,0.6-3.4c0-1.2-0.1-2.2-0.4-2.9c-0.3-0.8-0.9-1.2-1.7-1.2c-0.8,0-1.3,0.4-1.7,1.1c-0.4,0.7-0.5,1.8-0.5,3.2
	c0,1.1,0.1,1.9,0.3,2.6c0.4,1,1,1.5,1.8,1.5C150.7,31.7,151.2,31.4,151.6,30.8z"/>
<path class="st0" d="M157.5,25.2v-2.9h1.1v2.9h1.2v1h-1.2v3c0.4-0.1,0.8-0.3,1.2-0.5v1.2c-1,0.5-2.1,0.9-3.3,1.2l-0.1-1.2
	c0.4,0,0.8-0.1,1.2-0.2v-3.4h-1.2v-1h1.1V25.2z M162.1,27.1l-1.1,0.3c-0.3-1-0.6-1.9-1-2.8l1-0.3C161.4,25.1,161.8,26.1,162.1,27.1z
	 M166.3,22.6v1h-2.6v4.6h2.9v1h-2.9v3.4h-1.1v-3.4H160v-1h2.6v-4.6h-2.5v-1H166.3z M166.4,24.6c-0.3,1-0.6,2-1.1,2.8l-1.1-0.4
	c0.4-0.7,0.8-1.6,1.1-2.7L166.4,24.6z"/>
<path class="st0" d="M170.6,22.4c-0.4,1.1-0.9,2.1-1.5,2.9c0.4,0,0.7-0.1,1.1-0.2c0.3-0.5,0.5-1.1,0.8-1.7l0.9,0.4
	c-0.8,1.8-1.7,3.2-2.5,4.3c0.5,0,1-0.1,1.4-0.2c-0.1-0.4-0.2-0.7-0.3-1.1l0.8-0.3c0.2,0.7,0.4,1.6,0.6,2.5l-0.9,0.2
	c0-0.2-0.1-0.4-0.1-0.5c-0.7,0.2-1.7,0.3-2.9,0.4l-0.3-0.9c0.2,0,0.4,0,0.6,0c0.5-0.6,0.9-1.3,1.4-2.2c-0.6,0.1-1.2,0.3-1.9,0.4
	l-0.2-0.9c0.2,0,0.3,0,0.5-0.1c0.6-1,1.1-2.1,1.6-3.4L170.6,22.4z M168.9,29.7c-0.1,1.1-0.2,2.1-0.4,2.9l-0.9-0.3
	c0.2-0.8,0.4-1.7,0.4-2.7L168.9,29.7z M170.4,32.2l-0.9,0.1c0-1.1-0.1-1.9-0.2-2.5l0.8-0.1C170.3,30.3,170.4,31.1,170.4,32.2z
	 M172,31.6l-0.9,0.2c-0.1-0.8-0.3-1.5-0.5-2.2l0.8-0.2C171.6,30,171.9,30.7,172,31.6z M174.3,22.2l-0.2,0.6h3.3l-0.9,3.5h1.7v0.9
	h-2.8v4.4c0,0.4-0.1,0.7-0.3,0.8c-0.2,0.2-0.4,0.3-0.9,0.3h-1l-0.2-1.1c0.4,0.1,0.7,0.1,0.9,0.1c0.3,0,0.4-0.1,0.4-0.3v-4.2h-2.7
	v-0.9h3.9l0.2-0.7h-3.5l1.1-3.5L174.3,22.2z M174.4,30.1c-0.5,0.6-1.2,1-1.9,1.3l-0.5-0.9c0.7-0.3,1.4-0.7,2.1-1.3L174.4,30.1z
	 M174.2,28.5l-0.5,0.9c-0.5-0.5-1-0.9-1.6-1.2l0.5-0.7C173.2,27.7,173.7,28.1,174.2,28.5z M176.2,23.7h-2.3l-0.3,1h2.4L176.2,23.7z
	 M178.4,31.2l-0.8,0.5c-0.5-0.5-1.2-1.1-2-1.8l0.7-0.4C177.2,30.2,177.9,30.8,178.4,31.2z M178.2,28.1c-0.7,0.6-1.4,1-2.1,1.3
	l-0.4-0.9c0.8-0.2,1.4-0.6,2-1.1L178.2,28.1z"/>
<path class="st0" d="M189.7,29h-1v-1.7H185v1.1h3.5v2.4c0,0.4-0.1,0.6-0.3,0.8c-0.2,0.2-0.4,0.2-0.7,0.2h-1.3l-0.2-0.9h1.2
	c0.2,0,0.3-0.1,0.3-0.4v-1.3H185v3.4h-1.1v-3.4h-2.2v2.5h-1v-3.4h3.2v-1.1h-3.5v1.6h-1v-2.6h10.3V29z M181,23.3v-1.1h1v1.1h0.9v-1.1
	h1v1.1h1.1v-1.1h1v1.1h0.9v-1.1h1v1.1h1.6v0.9H188v0.4c0,0.2,0.1,0.3,0.4,0.3h1.1v0.9h-1.3c-0.4,0-0.6-0.1-0.9-0.2
	c-0.2-0.1-0.3-0.4-0.3-0.7v-0.7h-0.9v1.6h-3.2v-1.6H182c-0.1,0.4-0.2,0.7-0.4,1c-0.3,0.4-0.7,0.7-1.3,0.9l-0.5-0.9
	c0.5-0.2,0.8-0.4,1-0.7c0.1-0.1,0.1-0.2,0.2-0.4h-1.3v-0.9h1.3V23.3z M183.9,25h1.1v-0.7h-1.1V25z"/>
<path class="st0" d="M196.4,28.6c-0.2,0.2-0.5,0.5-0.9,0.7l-0.4-0.6c0.5-0.3,0.9-0.6,0.9-1h-0.7v-1.4h1.4v1.1
	C196.7,28,196.6,28.4,196.4,28.6z"/>
<path class="st0" d="M210.9,24.7v0.9h-2.4c-0.3,0.3-0.6,0.5-0.9,0.6c0.4,0.5,0.7,1,0.9,1.5c0.8-0.4,1.6-0.9,2.4-1.7l0.8,0.8
	c-0.5,0.4-1,0.8-1.5,1.1c0.2,0.6,0.6,1.2,0.9,1.7c0.3,0.5,0.8,1,1.5,1.6l-0.7,0.9c-0.7-0.7-1.3-1.4-1.7-2c-0.3-0.5-0.6-1-0.8-1.6
	c-0.2,0.1-0.3,0.2-0.5,0.2c0.1,0.5,0.2,1,0.2,1.5c0,0.9-0.1,1.5-0.4,1.9c-0.3,0.4-1.1,0.6-2.4,0.6l-0.3-1.1c0,0.1,0.2,0.1,0.6,0.1
	c0.6,0,1-0.1,1.1-0.2c0.2-0.2,0.3-0.6,0.3-1.2c0-0.2,0-0.3,0-0.5c-0.6,0.5-1.2,0.9-1.7,1.2c-0.8,0.4-1.8,0.9-3.1,1.3l-0.6-1
	c1.2-0.3,2.3-0.7,3.2-1.2c0.7-0.4,1.4-0.8,2-1.3c0-0.1-0.1-0.2-0.1-0.3c0-0.1-0.1-0.2-0.1-0.3c-0.6,0.4-1.2,0.8-1.6,1
	c-0.7,0.3-1.6,0.7-2.7,1l-0.5-0.9c1.1-0.3,2-0.6,2.9-0.9c0.6-0.3,1.2-0.6,1.7-0.9c-0.1-0.1-0.2-0.3-0.3-0.4c-1,0.4-2.1,0.8-3.4,1.1
	l-0.6-0.9c1.4-0.3,2.5-0.6,3.3-0.9c0.3-0.1,0.7-0.3,0.9-0.4h-3.1v-0.9h6.7V24.7z M207.9,23h4.4v2.3h-1V24h-7.7v1.3h-1V23h4.2
	c-0.1-0.2-0.3-0.5-0.4-0.7l1.2-0.2C207.6,22.4,207.7,22.7,207.9,23z"/>
<path class="st0" d="M217.4,23.4c0.2-0.4,0.3-0.8,0.5-1.2l1.2,0.1c-0.1,0.4-0.3,0.8-0.4,1.1h5.1v1h-5.6c-0.2,0.4-0.4,0.7-0.6,1h5.3
	v6.1c0,0.3-0.1,0.6-0.3,0.8c-0.2,0.2-0.5,0.3-0.8,0.3H220l-0.2-1h1.7c0.2,0,0.3-0.1,0.3-0.3v-1.1h-4.9v2.4h-1.1v-5.2
	c-0.5,0.5-1,0.9-1.6,1.3l-0.7-0.9c1.1-0.8,2.1-1.6,2.9-2.6c0.2-0.2,0.4-0.5,0.6-0.8h-3.2v-1H217.4z M221.8,27.4v-0.9h-4.9v0.9H221.8
	z M221.8,29.3v-1.1h-4.9v1.1H221.8z"/>
<path class="st0" d="M228.5,23c-0.4,1.2-0.8,2-1.1,2.5c-0.3,0.6-0.8,1.2-1.5,2l-0.9-0.8c0.6-0.6,1.1-1.3,1.5-1.9
	c0.3-0.6,0.6-1.4,0.9-2.3L228.5,23z M230.1,26.1c-0.7,1.9-1.4,3.5-2.2,4.7c1.6,0,3.1-0.1,4.5-0.3c-0.3-0.8-0.7-1.5-1.1-2.3l1.1-0.4
	c0.8,1.3,1.5,2.8,2.1,4.5l-1.2,0.3c-0.1-0.4-0.3-0.8-0.4-1.2c-1.5,0.2-3.9,0.4-7.3,0.6l-0.2-1.2c0.4,0,0.9,0,1.3,0
	c0.7-1.2,1.5-3,2.3-5.2L230.1,26.1z M232.6,22.4c0.4,1.4,1.3,2.8,2.6,4l-0.7,1.1c-0.7-0.6-1.2-1.2-1.6-1.8c-0.5-0.7-0.8-1.4-1.1-2.3
	h-2.3v-1H232.6z"/>
<path class="st0" d="M246.1,32.6h-1v-0.4h-7.7v0.4h-1V22.4h9.7V32.6z M245.1,31.3v-8h-7.7v8H245.1z M244.2,26.6v2.1h-3.1
	c-0.1,0.1-0.1,0.1-0.1,0.2v2.2h-1v-1.4c-0.6,0.4-1.3,0.8-2,1l-0.5-0.8c0.8-0.2,1.4-0.5,1.8-0.8c0.2-0.1,0.5-0.3,0.6-0.5h-1.6v-2.1
	h5.9V26.6z M240.6,24.1v-0.5h0.9v0.5h2.7v0.7h-2.7v0.6h3.2v0.8h-7.1v-0.8h3v-0.6h-2.5v-0.7H240.6z M243.3,27.3h-4.1v0.6h4.1V27.3z
	 M242.8,29.4c0.2-0.2,0.4-0.5,0.5-0.7l0.8,0.5c-0.1,0.2-0.3,0.4-0.5,0.6c0.4,0.2,0.7,0.4,1.1,0.6l-0.5,0.8c-1-0.6-2-1.2-3-1.5
	l0.4-0.7C242,29.1,242.4,29.3,242.8,29.4z"/>
<path class="st0" d="M252.9,28.6c-0.2,0.2-0.5,0.5-0.9,0.7l-0.4-0.6c0.5-0.3,0.8-0.6,0.9-1h-0.7v-1.4h1.4v1.1
	C253.2,28,253.1,28.4,252.9,28.6z"/>
<path class="st0" d="M260.9,25.6c-0.3,2.3-0.7,4.2-1.2,5.8l-1.1-0.7c0.5-1.7,0.9-3.4,1.1-5.3L260.9,25.6z M262.7,25v6.1
	c0,0.3,0.1,0.4,0.4,0.4h2c0.1,0,0.2-0.1,0.3-0.3c0.1-0.2,0.1-1,0.2-2.4l1.1,0.3c-0.1,1.7-0.2,2.7-0.4,3c-0.2,0.3-0.5,0.5-1,0.5h-2.5
	c-0.3,0-0.6-0.1-0.8-0.3s-0.3-0.5-0.3-0.8V25H262.7z M265.6,25.1l-1.1,0.8c-0.5-0.8-1.2-1.8-2-2.8l0.9-0.6
	C264.4,23.5,265.1,24.4,265.6,25.1z M268.8,30.5l-1.1,0.5c-0.4-1.9-0.9-3.7-1.5-5.2l1.1-0.4C267.9,27,268.4,28.7,268.8,30.5z"/>
<path class="st0" d="M275.6,22.3c-0.1,0.4-0.2,0.7-0.4,1h4v9.2h-1.1v-0.6h-6.3v0.6h-1v-9.2h3.3c0.2-0.4,0.3-0.7,0.4-1.2L275.6,22.3z
	 M278.1,25.6v-1.3h-6.3v1.3H278.1z M278.1,28.2v-1.5h-6.3v1.5H278.1z M278.1,30.9v-1.7h-6.3v1.7H278.1z"/>
<path class="st0" d="M284.3,22.4c-0.1,0.3-0.1,0.5-0.2,0.7h2.8v0.8c-0.1,0.3-0.2,0.6-0.3,0.9h1.3c0-0.4,0.1-0.8,0.1-1.2v-1.3h1v1.3
	c0,0.4,0,0.8-0.1,1.2h2.5v1H289c0.2,0.6,0.4,1.1,0.7,1.4c0.5,0.6,1.1,1,1.8,1.3l-0.6,1c-0.9-0.5-1.6-1.1-2.1-1.8
	c-0.2-0.3-0.4-0.6-0.6-1c-0.1,0.3-0.2,0.5-0.4,0.7c-0.5,0.9-1.4,1.6-2.6,2.1l-0.5-0.9c1.2-0.5,2-1.1,2.4-1.9c0.2-0.3,0.3-0.6,0.4-1
	H286c-0.2,0.4-0.5,0.8-0.8,1.2c-0.7,1-2,1.8-3.6,2.5l-0.4-1.1c0.8-0.2,1.4-0.5,2-0.9c-0.3-0.3-0.7-0.5-1-0.6l0.5-0.7
	c0.4,0.2,0.9,0.5,1.2,0.7c0.1-0.1,0.3-0.3,0.4-0.4c0.1-0.1,0.1-0.1,0.2-0.2c-0.5-0.3-0.9-0.5-1.4-0.6l0.5-0.7c0.5,0.2,1,0.3,1.4,0.6
	c0.2-0.4,0.4-0.9,0.6-1.4h-1.9c-0.2,0.4-0.3,0.7-0.5,1c-0.4,0.8-1,1.4-1.6,2.1l-0.6-0.9c0.6-0.6,1-1.2,1.4-1.8
	c0.3-0.5,0.6-1.2,0.8-2.2L284.3,22.4z M283.5,29.9c-0.4,1.1-0.9,2-1.4,2.7l-1-0.7c0.5-0.7,1-1.5,1.5-2.5L283.5,29.9z M285.7,32.4
	l-1.2,0.1c0-0.9-0.1-1.8-0.2-2.5l1-0.1C285.4,30.7,285.6,31.5,285.7,32.4z M288.5,32.4l-1.2,0.1c-0.1-0.9-0.3-1.8-0.4-2.5l1-0.1
	C288.1,30.7,288.3,31.5,288.5,32.4z M291.5,32.1l-1.1,0.5c-0.4-1-0.9-1.9-1.4-2.7l1.1-0.4C290.6,30.4,291,31.2,291.5,32.1z
	 M291,24.1l-0.8,0.6c-0.2-0.4-0.5-0.8-0.9-1.3L290,23C290.4,23.3,290.7,23.7,291,24.1z"/>
<path class="st0" d="M296.6,23.4h2c0.3-0.4,0.6-0.9,0.9-1.3l1.1,0.4c-0.2,0.4-0.5,0.7-0.8,1h2.4v0.9H298v0.7h3.7V26H298v0.2
	c0,0.2,0,0.4,0,0.6h4.6v1h-4.7c0,0.3-0.1,0.6-0.1,0.9h4.9v0.9h-3.8c0.1,0.3,0.3,0.6,0.6,0.8c0.3,0.2,0.7,0.4,1.2,0.6
	c0.5,0.2,1.2,0.4,2.2,0.6l-0.7,1c-0.9-0.2-1.7-0.5-2.3-0.7c-0.6-0.3-1.1-0.6-1.4-1c-0.3-0.4-0.6-0.8-0.7-1.3h-0.3
	c-0.2,0.4-0.3,0.7-0.5,1c-0.7,1-2.1,1.7-4.1,1.9l-0.5-1c2-0.1,3.2-0.6,3.8-1.5c0.1-0.1,0.2-0.3,0.2-0.4h-3.9v-0.9h4.2
	c0.1-0.3,0.1-0.6,0.2-0.9h-4.4v-1h4.5c0-0.2,0-0.4,0-0.6V26h-3.6v-0.9h3.6v-0.7h-4.1v-0.9h2.5c-0.2-0.3-0.5-0.6-0.7-0.9l1-0.4
	C296,22.5,296.3,22.9,296.6,23.4z"/>
<path class="st0" d="M305,24.1c0.1-0.6,0.2-1.2,0.3-1.9l1,0.1c-0.1,0.6-0.2,1.2-0.2,1.8h2.1v1c-0.1,1.3-0.3,2.4-0.6,3.3
	c-0.1,0.5-0.3,0.9-0.5,1.3c0.5,0.4,0.9,0.7,1.4,1.1l-0.6,0.9c-0.4-0.4-0.8-0.7-1.3-1.1c-0.5,0.7-1.2,1.4-2.2,2.2l-0.8-0.9
	c0.9-0.6,1.6-1.3,2.1-2c-0.5-0.4-1.1-0.7-1.8-1.1c0.4-1.2,0.7-2.4,0.9-3.7h-1.1v-1H305z M305.1,28.4c0.4,0.2,0.7,0.4,1,0.7
	c0,0,0,0,0-0.1c0.4-0.9,0.7-2.2,0.9-3.9h-1.3C305.6,26.3,305.4,27.4,305.1,28.4z M313.7,22.7v1.1c-0.6,0.8-1.2,1.5-1.9,2.2v1h2.2
	v1.1h-2.2v3.7c0,0.3-0.1,0.5-0.2,0.7c-0.2,0.2-0.4,0.3-0.7,0.3H309l-0.2-1.1c0.5,0,1,0,1.5,0c0.2,0,0.4-0.1,0.4-0.3V28h-2.5v-1.1
	h2.5v-1.3c0.5-0.4,1.1-1,1.7-1.8h-4v-1.1H313.7z"/>
<path class="st0" d="M320.8,28.5c-0.3,0.3-0.6,0.4-1,0.4c-0.4,0-0.8-0.1-1-0.4c-0.3-0.3-0.4-0.7-0.4-1.1s0.1-0.8,0.4-1.1
	c0.3-0.3,0.6-0.4,1-0.4c0.4,0,0.8,0.1,1,0.4c0.3,0.3,0.4,0.7,0.4,1.1C321.2,27.9,321.1,28.2,320.8,28.5z M320.3,26.9
	c-0.1-0.1-0.3-0.2-0.5-0.2c-0.2,0-0.4,0.1-0.5,0.2c-0.1,0.1-0.2,0.3-0.2,0.5s0.1,0.4,0.2,0.5c0.1,0.2,0.3,0.2,0.5,0.2
	c0.2,0,0.4-0.1,0.5-0.2c0.1-0.1,0.2-0.3,0.2-0.5S320.4,27.1,320.3,26.9z"/>
</svg>
