<?xml version="1.0" encoding="utf-8"?>
<!-- Generator: Adobe Illustrator 25.2.3, SVG Export Plug-In . SVG Version: 6.00 Build 0)  -->
<svg version="1.1" id="圖層_1" xmlns="http://www.w3.org/2000/svg" xmlns:xlink="http://www.w3.org/1999/xlink" x="0px" y="0px"
	 viewBox="0 0 380 68.8" style="enable-background:new 0 0 380 68.8;" xml:space="preserve">
<style type="text/css">
	.st0{fill:#00404B;}
	.st1{fill:#C79F62;}
</style>
<path class="st0" d="M1,5.8C0.9,5.5,0.7,5.2,0.6,4.7C0.9,4.8,2,4.9,3.8,5V2c0-0.6-0.1-1.2-0.2-1.9c0.7,0.1,1.3,0.2,2.1,0.3
	c0.5,0.1,0.8,0.2,0.8,0.4c0,0.1-0.1,0.2-0.4,0.3C5.7,1.2,5.6,1.3,5.6,1.4V5h0.3c0.5-0.8,0.8-1.3,1-1.3c0.1,0,0.3,0.2,0.7,0.7
	c0.3,0.4,0.5,0.7,0.6,0.9c0,0.2-0.1,0.3-0.3,0.3H5.6v1.2c1.7,0.8,2.6,1.6,2.6,2.4c0,0.4-0.1,0.7-0.4,0.8c-0.2,0.1-0.4,0.2-0.6,0.2
	c-0.4,0-0.7-0.4-0.8-1.2C6.2,8.3,5.9,7.7,5.5,7.3v6.9c0,2.2,0,3.7,0.1,4.7c0,0.3-0.4,0.5-1.3,0.5c-0.5,0-0.7-0.1-0.7-0.4
	c0-0.8,0.1-2.4,0.1-4.9V9.6c-0.9,2-1.8,3.5-2.9,4.6c-0.1,0-0.2-0.1-0.3-0.2C2,11.5,3,8.8,3.4,5.6C1.9,5.7,1,5.8,1,5.8z M13.5,1.2
	c0,0.1-0.1,0.2-0.3,0.3c-0.4,0.2-0.7,0.3-0.7,0.4v6.9c0,5.6-1.8,9.1-5.5,10.5c-0.1-0.1-0.1-0.2-0.2-0.3c1.4-1.2,2.4-2.6,2.9-4.1
	c0.4-0.9,0.7-2.3,0.9-4.3c-0.5,0.6-1.1,1.2-1.7,1.8c0,0.1-0.1,0.4-0.1,0.9c0,0.1-0.1,0.2-0.2,0.2c-0.2,0-0.8-0.8-1.6-2.3
	c0.5,0,1.7-0.5,3.7-1.5c0-0.7,0.1-1.5,0.1-2.4V2.5c0-0.9-0.1-1.6-0.2-2.2C12.5,0.6,13.5,0.9,13.5,1.2z M10.3,6.8c0,0.7-0.3,1-0.8,1
	S8.8,7.5,8.8,7c0-0.3-0.1-0.7-0.1-1.2c-0.1-0.5-0.2-1-0.4-1.6C8.1,3.7,8,3.4,7.9,3.2C8,3.1,8.1,3,8.2,3C9.6,4.3,10.3,5.6,10.3,6.8z
	 M16.7,1.2c0,0.1-0.1,0.2-0.3,0.3c-0.4,0.1-0.6,0.3-0.7,0.4v4.9c0.8-1.1,1.4-2.4,1.7-3.7c0.3,0.2,0.9,0.5,1.7,1
	c0.4,0.3,0.6,0.5,0.6,0.6s-0.1,0.2-0.3,0.2C19,4.9,18.7,5,18.6,5c-0.4,0.5-0.8,1-1.3,1.4s-1,0.8-1.5,1v1.9c0.9,0.2,1.7,0.5,2.3,0.8
	c0.9,0.5,1.4,1,1.4,1.5s-0.1,0.8-0.2,0.9c-0.1,0.3-0.4,0.4-0.7,0.4c-0.2,0-0.5-0.4-0.9-1.1c-0.6-0.9-1.2-1.6-1.8-2v6.6
	c0,0.5,0.2,0.7,0.6,0.7h0.6c0.6,0,1-0.4,1.2-1.3c0.3-1,0.5-1.6,0.5-1.9c0.1,0,0.2,0,0.3,0c0,0,0,0.8,0,2.3c0,0.3,0.1,0.5,0.3,0.6
	c0.3,0.2,0.5,0.4,0.5,0.6c0,0.5-0.4,0.8-1.1,1c-0.4,0.1-0.9,0.2-1.6,0.2c-0.8,0-1.2,0-1.4-0.1c-1.2-0.1-1.8-0.8-1.8-2V2
	c0-0.6,0-1.2-0.1-1.8C15.7,0.8,16.7,1,16.7,1.2z"/>
<path class="st0" d="M39.4,0.8c0.6,0.4,0.9,0.7,0.9,0.9c0,0.1-0.1,0.3-0.3,0.4c-0.3,0.3-0.5,0.4-0.5,0.5v9.7c0,3.3,0.1,5.5,0.1,6.7
	c0,0.4-0.5,0.7-1.4,0.7c-0.4,0-0.5-0.2-0.5-0.5V18h-13v0.9c-0.1,0.4-0.5,0.6-1.2,0.6c-0.4,0-0.7-0.1-0.8-0.2c0-2.9,0-5.8,0.1-8.6
	V5.1c0-2.4-0.1-3.8-0.1-4.3l2,0.8h12.6c0.6-0.8,1-1.2,1.2-1.2C38.6,0.3,38.9,0.4,39.4,0.8z M37.6,17.3V2H24.7v15.3H37.6z M35.7,3.6
	c0.4,0.4,0.7,0.7,0.7,0.8c0,0.2-0.1,0.3-0.2,0.3h-4.4v1.6h2.8c0.6-0.8,1-1.2,1.2-1.3c0.1,0,0.4,0.2,0.8,0.7c0.4,0.4,0.7,0.7,0.7,0.9
	s-0.1,0.3-0.2,0.3h-8.7c-2,0-3.1,0.1-3.1,0.2C25.2,6.8,25,6.5,24.9,6c0.3,0.1,1.4,0.2,3.2,0.3h2V4.8h-0.6c-2,0-3,0.1-3,0.2
	c-0.1-0.3-0.3-0.6-0.4-1.1c0.3,0.1,1.4,0.2,3.3,0.3h0.8c0-0.7-0.1-1.3-0.1-1.8c1.8,0.3,2.8,0.5,2.8,0.7s-0.1,0.3-0.3,0.3
	C32.2,3.6,32,3.7,32,3.8v0.4h2c0.6-0.8,1-1.1,1.2-1.1C35.1,3,35.3,3.2,35.7,3.6z M25.3,16c-0.1-0.1-0.2-0.2-0.2-0.3
	c2.2-1.3,3.7-2.6,4.6-3.9c0-0.1,0.1-0.1,0.1-0.2h-1.4c-0.1,0.4-0.5,0.6-1.1,0.6c-0.4,0-0.6-0.1-0.7-0.2c0-0.7,0-1.4,0.1-2V8.7
	c0-0.6-0.1-0.9-0.1-1l1.6,0.6h5.1c0.5-0.6,0.9-1,1-1c0.2,0,0.5,0.2,1,0.6C35.8,8.3,36,8.5,36,8.7c0,0.1-0.1,0.3-0.3,0.4
	c-0.3,0.2-0.4,0.4-0.4,0.4v1.1c0.1,0.4,0.1,0.7,0.1,0.8c0.3,0.2,0.7,0.4,1.2,0.7c0.3,0.2,0.5,0.4,0.5,0.5s-0.1,0.1-0.3,0.1
	c-0.3,0-0.5,0.1-0.7,0.1c-0.3,0.2-0.6,0.4-1,0.6c-0.2,0.1-0.3,0.2-0.5,0.2c1.1,0.5,1.7,1.1,1.7,1.8c0,0.3-0.1,0.5-0.2,0.6
	c-0.1,0.3-0.3,0.4-0.7,0.4c-0.3,0-0.7-0.5-1.3-1.4c-0.6-0.7-1.4-1.3-2.4-1.9v2.4c0,0.3,0,0.6,0,0.8c0,0.4-0.4,0.5-1.1,0.5
	c-0.5,0-0.8-0.1-0.8-0.3v-3.1C28.8,14.4,27.2,15.3,25.3,16z M33.6,11V8.7h-5.2V11H33.6z M35,11.8c-0.2,0.1-0.4,0.1-0.6,0.1
	c-0.5,0-0.8-0.1-0.8-0.3H32v1c0.8,0.2,1.6,0.4,2.1,0.6C34.5,12.8,34.8,12.3,35,11.8z"/>
<path class="st0" d="M60.4,6c0,0.2-0.5,0.3-1.4,0.3c-1.3,1.6-2.9,2.8-4.6,3.9c0.6,1.3,1.4,2.5,2.4,3.4c1.3,1.4,2.9,2.5,4.9,3.3
	c0,0.1,0,0.3-0.1,0.4c-0.3,0-0.6,0.1-0.9,0.3c-0.2,0.1-0.4,0.3-0.5,0.6c-0.2,0.4-0.4,0.6-0.6,0.6c-0.4-0.1-1.1-0.7-2.1-1.6
	c-2.5-2.3-4-5.4-4.5-9.4c-0.9,6.1-4.2,9.9-9.9,11.4c-0.1,0-0.1-0.1-0.2-0.2c5.4-2.9,8.2-8,8.3-15.4C51.1,2,51,0.8,50.9,0.1
	c2,0.3,3,0.5,3,0.8c0,0.2-0.2,0.3-0.6,0.4c0,1,0,2-0.1,2.9c0,0.5,0,1,0,1.4c0.1,1.5,0.5,2.8,0.9,4c1.4-1.5,2.6-3.3,3.3-5.4
	C59.5,5.2,60.4,5.7,60.4,6z M47.9,4.6c0,0.5,0.1,1.2,0.1,2.2c0,3.1-0.9,4.7-2.7,4.8c-0.8,0-1.3-0.3-1.3-0.8s0.3-0.9,0.8-1.4
	c0.5-0.3,1-0.9,1.7-1.9c0.4-0.7,0.8-1.6,1-2.8C47.8,4.5,47.9,4.6,47.9,4.6z"/>
<path class="st0" d="M80.7,1.7C81.6,2.5,82,2.9,82,3.1s-0.1,0.3-0.2,0.3h-7.9v2.1h3.5c0.5-0.6,0.9-0.9,1.1-0.9s0.6,0.2,1.1,0.6
	s0.8,0.7,0.8,0.8s-0.1,0.3-0.3,0.4c-0.3,0.3-0.5,0.4-0.5,0.5v3.2c0.1,1.3,0.1,2.1,0.1,2.4c0,0.5-0.4,0.7-1.1,0.7
	c-0.5,0-0.8-0.1-0.9-0.4v-0.5h-3.8v1.6c0,0.3,0,0.7,0,0.9h5.2c0.7-0.9,1.2-1.4,1.5-1.6c0,0,0.1,0,0.2,0c0.2,0.1,0.4,0.2,0.6,0.4
	c0.9,0.8,1.4,1.3,1.4,1.6c0,0.2-0.1,0.3-0.2,0.3h-8.7c0,1.6,0,2.7,0.1,3.5c0,0.4-0.5,0.5-1.4,0.5c-0.5,0-0.7-0.1-0.7-0.4
	c0-0.7,0-1.8,0.1-3.6h-3.3c-2.5,0-4.1,0.1-4.7,0.2c-0.1-0.4-0.3-0.7-0.5-1.1c1,0.1,2.8,0.2,5.4,0.2H72v-2.5h-3.6v0.5
	c-0.1,0.4-0.5,0.6-1.2,0.6c-0.4,0-0.7-0.1-0.8-0.2c0-1.3,0-2.6,0.1-3.9V6.7c0-1.1-0.1-1.7-0.1-2l1.8,0.7H72V3.3h-3
	c-2.4,0-3.8,0.1-4.4,0.2c-0.1-0.4-0.3-0.7-0.5-1.1c1,0.1,2.6,0.2,5,0.2H72V2c0-0.7-0.1-1.3-0.2-2c0.7,0.1,1.5,0.2,2.3,0.3
	C74.7,0.4,75,0.6,75,0.7S74.9,0.9,74.6,1C74.2,1.1,74,1.3,74,1.3v1.2h4.7c0.6-0.8,1.1-1.3,1.4-1.4c0,0,0.1,0,0.2,0
	C80.3,1.4,80.5,1.6,80.7,1.7z M72,8.5V6.1h-3.6v2.4H72z M72,11.8V9h-3.6v2.8H72z M77.7,8.5V6.1h-3.8v2.4H77.7z M77.7,11.8V9h-3.8
	v2.8H77.7z"/>
<path class="st0" d="M92.6,3.5c0.8,0.7,1.3,1.2,1.4,1.4c0,0.2-0.1,0.3-0.2,0.3h-7c-0.9,0-1.6,0.1-2,0.2c-0.1-0.3-0.2-0.5-0.3-0.9
	c0.5,0.1,1.2,0.1,2.3,0.1H91c0.3-0.4,0.7-0.8,1-1.2c0.1-0.1,0.2-0.2,0.3-0.2C92.3,3.3,92.4,3.4,92.6,3.5z M93.3,7.2
	c0,0.2-0.4,0.4-1.1,0.6c-0.5,2.6-1.3,4.8-2.3,6.7c1.2-0.2,2.3-0.4,3.2-0.7c0,0,0.1,0.1,0.1,0.2c-1.7,1.2-4,2.2-7.1,3.1
	c0,0.4-0.1,0.7-0.2,0.7s-0.3-0.2-0.5-0.6c-0.2-0.4-0.5-1.1-0.9-2c1.8-0.1,3.3-0.3,4.7-0.5c0.7-2.9,1.1-5.8,1.3-8.7
	C92.4,6.6,93.3,7,93.3,7.2z M88.7,12.1c0,1-0.4,1.5-1.1,1.6c-0.5,0-0.9-0.3-0.9-0.9c0-0.3,0-0.8,0-1.5c0-0.5,0-1.3,0-2.3
	c-0.1-1.3-0.3-2.2-0.6-2.7c0.1,0,0.2-0.1,0.3-0.1C87.8,8.2,88.6,10.2,88.7,12.1z M90.1,2.9c0,0.5-0.1,0.8-0.4,1
	c-0.2,0.2-0.4,0.2-0.7,0.2c-0.4,0-0.6-0.4-0.7-1.3c-0.2-1-0.5-1.7-1-2.3c0.1,0,0.1-0.1,0.3-0.2C89.2,1.2,90.1,2.1,90.1,2.9z M99.6,1
	c0,0.2-0.1,0.3-0.4,0.3c-0.4,0.2-0.6,0.3-0.6,0.4V5h2c0.6-0.8,1-1.3,1.2-1.5h0.1c0.2,0.1,0.5,0.3,0.9,0.7c0.6,0.5,0.9,0.9,0.9,1.1
	s0,0.3-0.1,0.4h-5.1v4.9h1.5c0.5-0.7,0.9-1,1.1-1.1c0.2,0,0.6,0.2,1.1,0.6s0.8,0.7,0.8,0.8s-0.1,0.3-0.3,0.4
	c-0.3,0.2-0.5,0.4-0.5,0.5v3.9c0.1,1.5,0.1,2.5,0.1,2.9c0,0.5-0.4,0.7-1.1,0.7c-0.5,0-0.8-0.1-0.9-0.4v-1.5h-5v1.4
	c-0.1,0.4-0.5,0.6-1.2,0.6c-0.4,0-0.7-0.1-0.8-0.2c0-1.5,0-2.9,0.1-4.3V12c0-1.2-0.1-2-0.1-2.2l1.8,0.7h1.5V2.4c0-0.9,0-1.7-0.1-2.2
	C98.6,0.5,99.6,0.8,99.6,1z M100.4,11.1h-5v5.8h5V11.1z"/>
<path class="st0" d="M114.6,13.4l-0.4-0.4c0.8-0.7,1.2-1.3,1.2-2c0-0.1-0.1-0.2-0.3-0.2c-1-0.2-1.5-0.7-1.5-1.5c0-0.4,0.1-0.7,0.4-1
	s0.7-0.5,1.2-0.5s0.9,0.2,1.2,0.6c0.2,0.3,0.4,0.7,0.4,1.1C116.7,11.2,116,12.4,114.6,13.4z"/>
<path class="st0" d="M131.7,1.8c0.6,0.1,0.9,0.3,0.9,0.4c0,0.1-0.1,0.3-0.4,0.3c-0.4,0.1-0.6,0.3-0.6,0.3v3.6h3.1V1.8
	c-0.1-0.5-0.1-0.9-0.1-1.2c1.7,0.2,2.6,0.4,2.9,0.7c0,0.2-0.1,0.3-0.4,0.4c-0.4,0.2-0.6,0.3-0.6,0.4v4.3h3.3V2
	c-0.1-0.5-0.1-0.9-0.1-1.3c1.8,0.2,2.8,0.5,3,0.8c0,0.2-0.1,0.3-0.4,0.4c-0.4,0.2-0.6,0.3-0.6,0.4v4.1h0.8c0.7-0.9,1.2-1.4,1.3-1.5
	c0.1,0,0.1,0,0.1,0c0.2,0,0.6,0.4,1.2,1.1c0.3,0.3,0.5,0.6,0.5,0.8s-0.1,0.3-0.3,0.3h-3.7v6.5c0,0.4-0.4,0.6-1.2,0.6
	c-0.5,0-0.7-0.1-0.7-0.4c0-0.4,0-0.8,0-1.2h-3.2v1.1c0,0.4-0.4,0.6-1.2,0.6c-0.5,0-0.7-0.1-0.7-0.4c0-2.1,0.1-4.4,0.1-6.9h-3.1v6.6
	c0,1.4,0,2.5,0.1,3.4h10.2c0.6-0.9,1-1.4,1.3-1.6h0.1c0.2,0.1,0.5,0.3,1,0.7c0.6,0.6,1,1,1,1.2s-0.1,0.3-0.1,0.3h-13.5
	c0,0.4,0,0.8,0,1.1c0,0.4-0.5,0.5-1.4,0.5c-0.5,0-0.7-0.1-0.7-0.4c0-0.8,0.1-2.6,0.1-5.2V7c-0.9,0-1.8,0.1-2.7,0.1
	c-0.2-0.3-0.4-0.7-0.5-1c1,0.2,2.1,0.3,3.2,0.3v-3c0-0.7-0.1-1.4-0.2-2C130.1,1.6,130.9,1.7,131.7,1.8z M139.7,12.1
	c0-1.6,0-3.3,0.1-5h-3.3v5H139.7z"/>
<path class="st0" d="M163.8,1c0.6,0.4,0.9,0.7,0.9,0.9c0,0.1-0.1,0.3-0.3,0.4c-0.3,0.3-0.5,0.4-0.5,0.5v3.6c0,1.2,0.1,2.1,0.1,2.5
	c0,0.5-0.5,0.7-1.4,0.7c-0.4,0-0.6-0.1-0.6-0.5V8.6h-2.6c1,1.2,2.1,2.1,3.3,2.5c1.2,0.6,2.6,0.9,4.2,1c0,0.1,0,0.3,0,0.4
	c-0.1,0-0.3,0.1-0.5,0.4c-0.1,0.1-0.2,0.4-0.4,0.8c-0.1,0.3-0.2,0.4-0.4,0.4c-0.7,0-1.8-0.5-3.4-1.6c-0.1-0.1-0.2-0.1-0.3-0.2
	c0,0.2-0.1,0.3-0.4,0.4c-0.4,0.2-0.5,0.3-0.5,0.4v6c0,0.3-0.4,0.5-1.2,0.6c-0.5,0-0.7-0.1-0.7-0.4c0-1.9,0.1-4.1,0.1-6.6
	c-0.1-0.5-0.1-0.9-0.1-1.2c1.3,0.2,2.1,0.3,2.6,0.5c-1.1-0.9-2-2-2.6-3.4h-2.4c-0.2,0.3-0.4,0.6-0.7,0.9c-0.5,0.7-1.1,1.3-1.9,1.9
	c1.6,0.3,2.4,0.5,2.4,0.7s-0.3,0.3-1,0.4c0,1.1-0.1,2-0.4,2.5c-0.7,1.9-2.8,3.4-6.2,4.4c0-0.1-0.1-0.1-0.2-0.2
	c3.2-1.5,4.8-3.5,4.9-5.8c0-0.7,0-1.2,0-1.6c-1.4,0.9-3.2,1.7-5.4,2.3c-0.1,0-0.2-0.1-0.2-0.3c3.1-1.4,5.2-2.9,6.2-4.5
	c0.2-0.3,0.3-0.5,0.4-0.6h-2.2v0.4c-0.1,0.4-0.5,0.6-1.2,0.6c-0.4,0-0.7-0.1-0.8-0.2c0-1.3,0-2.6,0.1-3.9V2.8c0-1.1-0.1-1.7-0.2-2
	l1.6,0.6h9.9c0.6-0.7,1-1,1.2-1C163,0.5,163.4,0.7,163.8,1z M156.1,4.6V2h-3.9v2.6H156.1z M156.1,7.9V5.2h-3.9v2.7H156.1z
	 M162.1,4.6V2H158v2.6H162.1z M162.1,7.9V5.2H158v2.7H162.1z"/>
<path class="st0" d="M176.6,3.5c0.8,0.7,1.3,1.2,1.4,1.4c0,0.2-0.1,0.3-0.2,0.3h-7c-0.9,0-1.6,0.1-2,0.2c-0.1-0.3-0.2-0.5-0.3-0.9
	c0.5,0.1,1.2,0.1,2.3,0.1h4.2c0.3-0.4,0.7-0.8,1-1.2c0.1-0.1,0.2-0.2,0.3-0.2C176.3,3.3,176.4,3.4,176.6,3.5z M177.3,7.2
	c0,0.2-0.4,0.4-1.1,0.6c-0.5,2.6-1.3,4.8-2.3,6.7c1.2-0.2,2.3-0.4,3.2-0.7c0,0,0.1,0.1,0.1,0.2c-1.7,1.2-4,2.2-7.1,3.1
	c0,0.4-0.1,0.7-0.2,0.7c-0.1,0-0.3-0.2-0.5-0.6c-0.2-0.4-0.5-1.1-0.9-2c1.8-0.1,3.3-0.3,4.7-0.5c0.7-2.9,1.1-5.8,1.3-8.7
	C176.4,6.6,177.3,7,177.3,7.2z M172.7,12.1c0,1-0.4,1.5-1.1,1.6c-0.5,0-0.9-0.3-0.9-0.9c0-0.3,0-0.8,0-1.5c0-0.5,0-1.3,0-2.3
	c-0.1-1.3-0.3-2.2-0.6-2.7c0.1,0,0.2-0.1,0.3-0.1C171.8,8.2,172.6,10.2,172.7,12.1z M174.1,2.9c0,0.5-0.1,0.8-0.4,1
	c-0.2,0.2-0.4,0.2-0.7,0.2c-0.4,0-0.6-0.4-0.7-1.3c-0.2-1-0.5-1.7-1-2.3c0.1,0,0.1-0.1,0.3-0.2C173.2,1.2,174.1,2.1,174.1,2.9z
	 M183.6,1c0,0.2-0.1,0.3-0.4,0.3c-0.4,0.2-0.6,0.3-0.6,0.4V5h2c0.6-0.8,1-1.3,1.2-1.5h0.1c0.2,0.1,0.5,0.3,0.9,0.7
	c0.6,0.5,0.9,0.9,0.9,1.1s0,0.3-0.1,0.4h-5.1v4.9h1.5c0.5-0.7,0.9-1,1.1-1.1c0.2,0,0.6,0.2,1.1,0.6s0.8,0.7,0.8,0.8
	s-0.1,0.3-0.3,0.4c-0.3,0.2-0.5,0.4-0.5,0.5v3.9c0.1,1.5,0.1,2.5,0.1,2.9c0,0.5-0.4,0.7-1.1,0.7c-0.5,0-0.8-0.1-0.9-0.4v-1.5h-5v1.4
	c-0.1,0.4-0.5,0.6-1.2,0.6c-0.4,0-0.7-0.1-0.8-0.2c0-1.5,0-2.9,0.1-4.3V12c0-1.2-0.1-2-0.1-2.2l1.8,0.7h1.5V2.4c0-0.9,0-1.7-0.1-2.2
	C182.6,0.5,183.6,0.8,183.6,1z M184.4,11.1h-5v5.8h5V11.1z"/>
<path class="st0" d="M197.3,2.6c0,0.3,0,0.5-0.1,0.7s-0.1,0.3-0.2,0.3h3.6c1-1.3,1.5-2.6,1.6-3.6c1.9,0.6,2.8,1,2.8,1.3
	c0,0.2-0.4,0.3-1.3,0.4c-0.5,0.7-1.4,1.4-2.5,2h4.1c0.6-0.8,1.1-1.3,1.4-1.4c0,0,0.1,0,0.2,0c0.2,0.1,0.3,0.2,0.5,0.3
	c0.9,0.8,1.3,1.2,1.3,1.4s-0.1,0.3-0.2,0.3h-13.8c-2.5,0-4.1,0.1-4.7,0.2c-0.1-0.4-0.3-0.7-0.5-1.1c1,0.1,2.9,0.2,5.4,0.2h1
	c-0.2-0.2-0.4-0.6-0.7-1c-0.4-0.8-0.9-1.6-1.5-2.1c0,0,0.1-0.1,0.1-0.3C196.1,0.5,197.2,1.3,197.3,2.6z M193.3,6.4h3.5
	c0.6-0.7,1-1,1.2-1c0.2,0.1,0.5,0.2,0.9,0.5c0.5,0.4,0.8,0.7,0.9,0.9c0,0.2-0.1,0.3-0.3,0.4s-0.4,0.2-0.5,0.4v9.3
	c0,1.3-0.7,2.1-2,2.4c-0.3-0.1-0.4-0.2-0.4-0.4c-0.1-0.5-0.3-0.8-0.5-1c-0.3-0.3-0.7-0.5-1.2-0.7c0-0.1,0-0.2,0-0.3
	c0.7,0.1,1.2,0.2,1.6,0.2c0.5,0,0.7-0.1,0.7-0.4v-3h-3.7v5.2c-0.1,0.4-0.5,0.6-1.2,0.6c-0.4,0-0.7-0.1-0.8-0.2c0-2.1,0-4.2,0.1-6.3
	V8.9c0-1.8-0.1-2.8-0.1-3.1L193.3,6.4z M197.1,9.7V7h-3.7v2.7H197.1z M197.1,13.1v-2.8h-3.7v2.8H197.1z M203.7,6.7
	c0,0.2-0.1,0.3-0.4,0.4c-0.4,0.2-0.5,0.3-0.5,0.4v7.4c0,0.4-0.4,0.6-1.2,0.6c-0.5,0-0.7-0.1-0.7-0.3c0-2.3,0.1-5,0.1-8
	c-0.1-0.5-0.1-0.9-0.1-1.2C202.6,6.1,203.5,6.4,203.7,6.7z M207.8,5.9c0,0.1-0.1,0.2-0.2,0.2c-0.2,0.1-0.4,0.1-0.6,0.2
	c-0.2,0.1-0.3,0.2-0.3,0.3v9.9c0,1.8-0.8,2.6-2.4,2.6c-0.3,0-0.4-0.1-0.4-0.4c-0.1-0.4-0.3-0.7-0.8-1c-0.3-0.3-0.8-0.4-1.4-0.5
	c0-0.1,0-0.2,0-0.3c0.5,0,1.4,0,2.8,0c0.2,0,0.4-0.2,0.4-0.6V6.9c0-0.8-0.1-1.5-0.2-1.9C206.6,5.3,207.7,5.6,207.8,5.9z"/>
<path class="st0" d="M213.5,16.9c-1.8-1.7-2.7-4.6-2.7-7c0-2.3,0.8-4.7,2.5-6.6c1.3-1.3,3.5-2.5,6.2-2.5c2.3,0,4.1,0.8,5,1.4
	c0.3,0.2,0.4,0.2,0.5,0l0.2-0.7c0.1-0.1,0.1-0.1,0.3-0.1s0.3,0.1,0.3,0.4c0,0.5,0.5,4.1,0.6,4.8c0,0.1,0,0.2-0.1,0.2l-0.4,0.1
	c-0.1,0-0.2,0-0.2-0.2c-0.4-0.8-0.9-2-1.9-3.1s-2.4-1.9-4.3-1.9c-4.5,0-6.3,4-6.2,7.6c0,1.4,0.4,4.3,2.4,6.4
	c1.7,1.9,3.1,2.1,4.8,2.1c2.8,0,5-1.5,6.2-3.2c0.1-0.1,0.1-0.2,0.2-0.1l0.3,0.2c0.1,0,0.1,0.1,0.1,0.2c-1.5,2.2-3.9,4.2-7.4,4.2
	C216.9,19.2,215,18.3,213.5,16.9z"/>
<path class="st0" d="M231.7,7.9c0-0.9-0.1-4-0.1-4.4C231.5,2,231.1,2,230,2h-0.8c-0.1,0-0.2,0-0.2-0.2V1.2c0-0.1,0-0.2,0.2-0.2
	c0.4,0,1.5,0.1,3.3,0.1c0.8,0,2.3-0.1,3.2-0.1c1.9,0,3.5,0.2,4.4,0.7c1.4,0.8,1.9,1.9,1.9,3.4c0,2.5-1.1,3.1-3,4.1l0.1,0.1
	c2.4,0.8,4,2.3,4,4.9c0,1.3-0.8,3-1.9,3.7c-1,0.6-2.5,0.9-4.8,0.9c-1.7,0-2.7-0.1-3.7-0.1c-1.2,0-2.7,0.1-3.2,0.1
	c-0.3,0-0.4-0.1-0.4-0.2V18c0-0.1,0.1-0.2,0.2-0.2h1.2c0.8,0,0.9-0.3,1-1.1c0.1-0.6,0.1-3.9,0.1-5.9L231.7,7.9L231.7,7.9z
	 M233.9,8.9c0.5,0,0.9,0,1.3,0c1.4,0,2.5-0.2,3.1-0.6c1-0.8,1.4-1.9,1.4-3c0-0.9-0.3-1.9-1.2-2.6c-0.9-0.6-2.1-0.8-3.4-0.8
	c-0.3,0-0.6,0-0.8,0c-0.2,0.1-0.4,0.2-0.4,0.4c0,0.5,0,2.7,0,4.7L233.9,8.9L233.9,8.9z M233.9,11.3v3.4c0,2.3,0.5,3.3,2.6,3.3
	s4-1,4-4c0-2-1-3.3-2.5-3.9c-1-0.4-2.2-0.4-3.3-0.4h-0.8V11.3z"/>
<path class="st0" d="M248.4,7.3c0-0.6-0.1-4.2-0.1-4.6c-0.1-0.6-0.4-0.7-1.1-0.7h-1.4c-0.1,0-0.2,0-0.2-0.2V1.1
	c0-0.1,0.1-0.1,0.2-0.1c0.3,0,1.4,0.1,3.7,0.1c0.6,0,3.1-0.1,3.7-0.1c3.2,0,5.9,0.4,8.1,2.2c1.6,1.4,2.8,3.5,2.8,6.4
	s-0.8,4.8-2.5,6.6c-2.4,2.6-5.8,2.6-7.8,2.6c-1.6,0-3.5-0.1-4.6-0.1c-2.2,0-3.2,0.1-3.5,0.1c-0.1,0-0.2-0.1-0.2-0.2v-0.7
	c0-0.1,0.1-0.1,0.2-0.1h1.7c0.5,0,0.7-0.2,0.8-0.6c0.1-0.5,0.2-6.1,0.2-8.1L248.4,7.3L248.4,7.3z M250.7,9.8c0,0.3,0,4.6,0.1,6.1
	c0,0.5,0.1,0.9,0.4,1.4c0.4,0.5,1.4,0.8,2.6,0.8c2.5,0,4.6-1.1,5.9-2.7c1-1.3,1.8-3.3,1.8-5.6c0-1.9-0.8-4.2-2-5.5
	c-1.3-1.4-3.5-2.4-6.3-2.4c-0.5,0-1.6,0-2,0.2s-0.4,0.6-0.5,1.2c0,1,0,4.3,0,4.7V9.8z"/>
<path class="st0" d="M7.5,38.4c0,0.2-0.1,0.3-0.4,0.4c-0.4,0.2-0.5,0.3-0.5,0.4v1.2h1c0.3-0.4,0.6-0.8,0.9-1.2
	C8.6,39.1,8.7,39,8.8,39s0.2,0.1,0.4,0.2c0.8,0.7,1.2,1.2,1.3,1.4c0,0.2-0.1,0.3-0.2,0.3H6.6v1.2c1.9,0.3,2.9,0.9,3,1.8
	c0,0.3,0,0.4-0.1,0.6C9.4,44.8,9.1,45,8.8,45s-0.6-0.3-1.1-1c-0.3-0.5-0.7-0.9-1.2-1.3v5.2c0,0.3-0.4,0.5-1.2,0.6
	c-0.5,0-0.7-0.1-0.7-0.4c0-1.5,0-3.1,0-4.9c-0.9,1.5-2.3,2.7-4.1,3.7c-0.1,0-0.1-0.1-0.2-0.3C2,45,3.1,43.3,3.7,41.5
	c0.1-0.3,0.2-0.5,0.2-0.7H3.3c-0.9,0-1.5,0.1-2,0.2c-0.1-0.3-0.2-0.5-0.3-0.8c0.4,0.1,1.2,0.1,2.3,0.1h1.5v-1.5
	c-0.1-0.5-0.1-0.9-0.1-1.2C6.4,37.9,7.3,38.2,7.5,38.4z M9.7,35.7c0.7,0.7,1.2,1.1,1.2,1.3s-0.1,0.3-0.1,0.3H2.9
	c-0.9,0-1.6,0.1-2,0.2c-0.1-0.2-0.2-0.5-0.3-0.8c0.4,0.1,1.2,0.1,2.3,0.1h3.3c0.5-1.3,0.7-2.6,0.8-3.9c1.7,0.6,2.5,1,2.5,1.2
	s-0.4,0.3-1.1,0.3C8,35.2,7.5,36,6.7,36.8h1.4C8.4,36.4,8.7,36,9,35.7c0.1-0.1,0.2-0.1,0.2-0.1C9.4,35.5,9.5,35.6,9.7,35.7z
	 M9.1,31.1c0.8,0.7,1.2,1.1,1.3,1.3c0,0.2-0.1,0.3-0.2,0.3H3.1c-0.9,0-1.5,0.1-2,0.2C1,32.6,0.9,32.4,0.8,32
	c0.4,0.1,1.2,0.1,2.3,0.1h2.4c-0.2-0.1-0.4-0.4-0.7-0.9C4.4,30.5,4,30,3.5,29.6c0.1,0,0.1-0.1,0.1-0.2c1.9,0.2,2.8,0.7,2.9,1.6
	c0,0.3,0,0.5-0.1,0.7C6.3,32,6.1,32.1,6,32.2h1.6c0.3-0.4,0.6-0.8,0.9-1.1C8.6,31,8.7,31,8.7,31C8.8,30.9,9,31,9.1,31.1z M5.1,35.4
	c0,0.6-0.3,0.9-1,0.9c-0.4,0-0.6-0.2-0.7-0.7c0-0.1-0.1-0.4-0.1-0.8c0-0.3-0.1-0.5-0.2-0.8c-0.2-0.5-0.4-0.8-0.7-1
	c0.1,0,0.1-0.1,0.1-0.1C4.3,33.4,5.1,34.2,5.1,35.4z M13.2,36.9v0.4c0,2.4-0.1,4.1-0.4,5.3c-0.1,0.9-0.5,1.9-1.1,3
	c-0.8,1.4-1.6,2.3-2.4,2.8c-0.1,0-0.2-0.1-0.3-0.2c0.7-1.1,1.3-2.5,1.7-4.1c0.4-1.3,0.6-3.5,0.6-6.7c0-2.6,0-4.2,0-4.9
	c0-0.5,0-1.1-0.1-1.8l1.9,0.8c1.8-0.5,3.1-1.2,4.1-2.1c1.6,1.1,2.3,1.7,2.3,1.9s-0.1,0.3-0.4,0.3c-0.6-0.1-1.1-0.1-1.4-0.2
	c-1,0.4-2.5,0.6-4.5,0.7v4.2h3.3c0.5-0.8,0.9-1.2,1.1-1.3h0.1c0.2,0,0.4,0.3,0.8,0.6c0.5,0.5,0.8,0.8,0.9,1c0,0.2-0.1,0.3-0.1,0.4
	H17v7.9c0,0.9,0.1,2,0.1,3.2c0,0.3-0.4,0.4-1.2,0.5c-0.6,0-1-0.1-1-0.3c0-0.7,0.1-1.8,0.1-3.5V37L13.2,36.9L13.2,36.9z"/>
<path class="st0" d="M29.6,32.7c0.8,0.7,1.3,1.2,1.4,1.4c0,0.2-0.1,0.3-0.2,0.3h-7c-0.9,0-1.6,0.1-2,0.2c-0.1-0.3-0.2-0.5-0.3-0.9
	c0.5,0.1,1.2,0.1,2.3,0.1H28c0.3-0.4,0.7-0.8,1-1.2c0.1-0.1,0.2-0.2,0.3-0.2C29.3,32.5,29.4,32.6,29.6,32.7z M30.3,36.4
	c0,0.2-0.4,0.4-1.1,0.6c-0.5,2.6-1.3,4.8-2.3,6.7c1.2-0.2,2.3-0.4,3.2-0.7c0,0,0.1,0.1,0.1,0.2c-1.7,1.2-4,2.2-7.1,3.1
	c0,0.4-0.1,0.7-0.2,0.7s-0.3-0.2-0.5-0.6s-0.5-1.1-0.9-2c1.8-0.1,3.3-0.3,4.7-0.5c0.7-2.9,1.1-5.8,1.3-8.7
	C29.4,35.8,30.3,36.2,30.3,36.4z M25.7,41.3c0,1-0.4,1.5-1.1,1.6c-0.5,0-0.9-0.3-0.9-0.9c0-0.3,0-0.8,0-1.5c0-0.5,0-1.3,0-2.3
	c-0.1-1.3-0.3-2.2-0.6-2.7c0.1,0,0.2-0.1,0.3-0.1C24.8,37.4,25.6,39.4,25.7,41.3z M27.1,32.1c0,0.5-0.1,0.8-0.4,1
	c-0.2,0.2-0.4,0.2-0.7,0.2c-0.4,0-0.6-0.4-0.7-1.3c-0.2-1-0.5-1.7-1-2.3c0.1,0,0.1-0.1,0.3-0.2C26.2,30.4,27.1,31.3,27.1,32.1z
	 M36.6,30.2c0,0.2-0.1,0.3-0.4,0.3c-0.4,0.2-0.6,0.3-0.6,0.4v3.3h2c0.6-0.8,1-1.3,1.2-1.5h0.1c0.2,0.1,0.5,0.3,0.9,0.7
	c0.6,0.5,0.9,0.9,0.9,1.1s0,0.3-0.1,0.4h-5.1v4.8H37c0.5-0.7,0.9-1,1.1-1.1c0.2,0,0.6,0.2,1.1,0.6S40,39.9,40,40
	c0,0.1-0.1,0.3-0.3,0.4c-0.3,0.2-0.5,0.4-0.5,0.5v3.9c0.1,1.5,0.1,2.5,0.1,2.9c0,0.5-0.4,0.7-1.1,0.7c-0.5,0-0.8-0.1-0.9-0.4v-1.5
	h-5v1.4c-0.1,0.4-0.5,0.6-1.2,0.6c-0.4,0-0.7-0.1-0.8-0.2c0-1.5,0-2.9,0.1-4.3v-2.9c0-1.2-0.1-2-0.1-2.2l1.8,0.7h1.5v-8.1
	c0-0.9,0-1.7-0.1-2.2C35.6,29.7,36.6,30,36.6,30.2z M37.4,40.3h-5v5.8h5V40.3z"/>
<path class="st0" d="M48,29.6c0.5,0.1,0.8,0.2,0.8,0.4c0,0.1-0.1,0.2-0.4,0.3c-0.4,0.1-0.6,0.2-0.6,0.3v4h0.6c0.5-0.9,0.9-1.4,1-1.5
	c0.1,0,0.4,0.3,0.9,0.9c0.4,0.5,0.6,0.8,0.6,0.9c0,0.2-0.1,0.3-0.2,0.3h-3v4c1-0.3,2-0.7,3-1.1c0,0.1,0.1,0.2,0.1,0.3
	c-0.9,0.8-2,1.4-3.1,2v3.1c0,2.2,0.1,3.7,0.1,4.7c0,0.3-0.4,0.5-1.3,0.5c-0.4,0-0.7-0.1-0.7-0.4c0-0.8,0-2.4,0.1-4.9v-2.2
	c-0.6,0.3-1.2,0.5-1.7,0.8c-0.1,0.1-0.2,0.4-0.2,0.8c0,0.2-0.1,0.3-0.2,0.3c-0.2,0-0.5-0.5-0.9-1.4c-0.2-0.5-0.3-0.9-0.5-1.2
	c1.2-0.2,2.4-0.4,3.6-0.8v-4.6h-1.7c-0.4,1.2-0.9,2.4-1.5,3.4c-0.1,0-0.2-0.1-0.3-0.2c0.5-2,0.8-4.4,0.9-7.1
	c1.7,0.4,2.5,0.7,2.5,0.9c0,0.2-0.2,0.3-0.6,0.3c-0.3,0.1-0.4,0.1-0.4,0.1c-0.1,0.7-0.3,1.3-0.5,1.9h1.5V31c0-0.6-0.1-1.2-0.2-1.9
	C46.6,29.4,47.3,29.5,48,29.6z M61.3,39.9c0.3,0.3,0.5,0.5,0.5,0.7s-0.1,0.3-0.3,0.3h-2.9v5.4c0,1.1-0.8,1.9-2.3,2.3
	c-0.2,0-0.3-0.2-0.3-0.4c-0.1-0.4-0.4-0.8-1-1.2c-0.5-0.3-0.9-0.4-1.3-0.5c0-0.1,0.1-0.3,0.1-0.3c0.8,0.1,1.6,0.1,2.5,0.1
	c0.3,0,0.4-0.2,0.4-0.5v-5H52c-0.7,0-1.3,0-1.9,0.1c-0.2-0.3-0.4-0.7-0.5-1c0.6,0.2,1.3,0.3,2.1,0.3h4.9c0-1.2-0.1-2.2-0.1-2.9
	c0.5,0.1,1,0.3,1.6,0.4c0.7,0.1,1.1,0.2,1.3,0.3c0.1,0,0.2,0.1,0.2,0.3c0,0.1-0.2,0.3-0.7,0.4c-0.2,0.1-0.3,0.1-0.3,0.2v1.4h0.2
	c0.7-0.8,1.1-1.3,1.2-1.4c0.1,0,0.1,0,0.1,0C60.3,38.9,60.7,39.2,61.3,39.9z M59,31.2c0.8,0.8,1.3,1.2,1.4,1.5
	c0,0.2-0.1,0.3-0.2,0.3h-4.4v3.4H58c0.4-0.5,0.7-1,1.1-1.4c0.1-0.1,0.2-0.2,0.3-0.2s0.3,0.1,0.5,0.3c0.9,0.8,1.4,1.3,1.6,1.6
	c0,0.2-0.1,0.3-0.2,0.3h-9.2c-0.9,0-1.5,0.1-2,0.2c-0.1-0.3-0.2-0.5-0.3-0.8c0.4,0.1,1.2,0.1,2.3,0.1h2v-3.4h-1.3
	c-0.9,0-1.6,0.1-2,0.2c-0.1-0.2-0.2-0.5-0.3-0.8c0.4,0.1,1.2,0.1,2.3,0.1h1.3v-0.7c0-0.9,0-1.7-0.1-2.2c2,0.3,3,0.5,3,0.8
	c0,0.2-0.1,0.3-0.4,0.3C56.2,31,56,31.1,56,31.2v1.4h1.4c0.3-0.5,0.7-0.9,1-1.3c0.1-0.1,0.2-0.2,0.3-0.2C58.7,31,58.8,31,59,31.2z
	 M53.2,42.1c0.8,0.5,1.3,1.2,1.3,2c0,0.5-0.1,0.8-0.4,0.9c-0.1,0.1-0.4,0.2-0.7,0.2c-0.4,0-0.7-0.4-0.8-1.2
	c-0.2-0.7-0.4-1.2-0.5-1.5c-0.2-0.3-0.4-0.5-0.6-0.8c0-0.1,0.1-0.1,0.2-0.2C52.3,41.7,52.8,41.9,53.2,42.1z"/>
<path class="st0" d="M80.9,29.7c0.9,0.8,1.3,1.2,1.3,1.4s-0.1,0.3-0.2,0.3H68.7c-0.5,0-1,0-1.4,0v13.3c0,0.5,0,1.2,0.1,1.9h12.1
	c0.6-0.8,1-1.3,1.2-1.5h0.1c0.2,0,0.5,0.3,0.9,0.7c0.6,0.5,0.9,0.9,1,1.1c0,0.2-0.1,0.3-0.1,0.4H67.3v0.8c0,0.3-0.4,0.4-1.2,0.5
	c-0.6,0-1-0.1-1-0.3c0-0.7,0.1-1.8,0.1-3.5V31.7c-0.5,0-0.9,0.1-1.1,0.1c-0.1-0.4-0.3-0.7-0.5-1.1c1,0.1,2.8,0.2,5.2,0.2h10
	c0.6-0.8,1.1-1.3,1.4-1.4c0,0,0.1,0,0.2,0S80.7,29.6,80.9,29.7z M70.4,44.7c-0.1,0.4-0.4,0.6-1.1,0.6c-0.4,0-0.6-0.1-0.7-0.2
	c0-1,0-2,0.1-3v-2c0-0.8-0.1-1.3-0.1-1.5l1.3,0.5H72c0.5-0.7,0.8-1,1-1s0.5,0.2,1,0.6s0.7,0.6,0.7,0.8c0,0.1-0.1,0.3-0.3,0.4
	c-0.3,0.2-0.5,0.4-0.5,0.4v2.4c0.1,0.9,0.1,1.5,0.1,1.8c0,0.4-0.3,0.7-1,0.7c-0.5,0-0.8-0.1-0.8-0.3v-0.4h-2v0.2H70.4z M72.4,39.7
	h-2v4.1h2V39.7z M72.4,37.2c-0.1,0.4-0.5,0.6-1.2,0.6c-0.4,0-0.7-0.1-0.8-0.2c0-0.9,0-1.7,0.1-2.5v-1.7c0-0.7-0.1-1.1-0.2-1.3
	l1.8,0.7h4c0.5-0.7,0.9-1,1.1-1.1c0.2,0,0.6,0.2,1.1,0.6c0.5,0.4,0.8,0.7,0.8,0.8s-0.1,0.3-0.3,0.4c-0.3,0.2-0.5,0.4-0.5,0.5v1.7
	c0.1,0.7,0.1,1.1,0.1,1.3c0,0.5-0.4,0.7-1.1,0.7c-0.5,0-0.8-0.1-0.9-0.4V37h-4.2v0.2H72.4z M76.6,33.4h-4.2v3.1h4.2V33.4z
	 M77.1,44.6c-0.1,0.4-0.4,0.6-1,0.6c-0.4,0-0.6-0.1-0.7-0.2c0-1,0-2,0.1-3v-1.9c0-0.8-0.1-1.3-0.1-1.5l1.2,0.5H79
	c0.5-0.7,0.8-1.1,1-1.1s0.5,0.2,1,0.6s0.7,0.6,0.7,0.8c0,0.1-0.1,0.3-0.3,0.4c-0.3,0.2-0.5,0.4-0.5,0.4v2.4c0.1,0.9,0.1,1.5,0.1,1.8
	c0,0.4-0.4,0.7-1,0.7c-0.5,0-0.8-0.1-0.8-0.4v-0.2L77.1,44.6L77.1,44.6z M79.3,39.6h-2.1v4.2h2.1V39.6z"/>
<path class="st0" d="M93.6,42.6l-0.4-0.4c0.8-0.7,1.2-1.3,1.2-2c0-0.1-0.1-0.2-0.3-0.2c-1-0.2-1.5-0.7-1.5-1.5c0-0.4,0.1-0.7,0.4-1
	s0.7-0.5,1.2-0.5s0.9,0.2,1.2,0.6c0.2,0.3,0.4,0.7,0.4,1.1C95.7,40.4,95,41.6,93.6,42.6z"/>
<path class="st0" d="M106,35c-0.1-0.3-0.3-0.6-0.4-1.1c0.3,0.1,1.4,0.2,3.2,0.3v-3c0-0.6-0.1-1.2-0.2-1.9c0.7,0.1,1.3,0.2,2.1,0.3
	c0.5,0.1,0.8,0.2,0.8,0.4c0,0.1-0.1,0.2-0.4,0.3c-0.4,0.1-0.5,0.2-0.5,0.3v3.6h0.3c0.5-0.8,0.8-1.3,1-1.3c0.1,0,0.3,0.2,0.7,0.7
	c0.3,0.4,0.5,0.7,0.6,0.9c0,0.2-0.1,0.3-0.3,0.3h-2.3V36c1.7,0.8,2.6,1.6,2.6,2.4c0,0.4-0.1,0.7-0.4,0.8c-0.2,0.1-0.4,0.2-0.6,0.2
	c-0.4,0-0.7-0.4-0.8-1.2c-0.2-0.7-0.5-1.3-0.9-1.7v6.9c0,2.2,0,3.7,0.1,4.7c0,0.3-0.4,0.5-1.3,0.5c-0.5,0-0.7-0.1-0.7-0.4
	c0-0.8,0.1-2.4,0.1-4.8v-4.5c-0.9,2-1.8,3.5-2.9,4.6c-0.1,0-0.2-0.1-0.3-0.2c1.5-2.5,2.5-5.2,2.9-8.4C106.9,34.9,106,35,106,35z
	 M118.5,30.4c0,0.1-0.1,0.2-0.3,0.3c-0.4,0.2-0.7,0.3-0.7,0.4V38c0,5.6-1.8,9.1-5.5,10.5c-0.1-0.1-0.1-0.2-0.2-0.3
	c1.4-1.2,2.4-2.6,2.9-4.1c0.4-0.9,0.7-2.3,0.9-4.3c-0.5,0.6-1.1,1.2-1.7,1.8c0,0.1-0.1,0.4-0.1,0.9c0,0.1-0.1,0.2-0.2,0.2
	c-0.2,0-0.8-0.8-1.6-2.3c0.5,0,1.7-0.5,3.7-1.5c0-0.7,0.1-1.5,0.1-2.4v-4.8c0-0.9-0.1-1.6-0.2-2.2C117.5,29.8,118.5,30.1,118.5,30.4
	z M115.3,36c0,0.7-0.3,1-0.8,1s-0.7-0.3-0.7-0.8c0-0.3-0.1-0.7-0.1-1.2c-0.1-0.5-0.2-1-0.4-1.6c-0.2-0.5-0.3-0.8-0.4-1
	c0.1-0.1,0.2-0.2,0.3-0.2C114.6,33.5,115.3,34.8,115.3,36z M121.7,30.4c0,0.1-0.1,0.2-0.3,0.3c-0.4,0.1-0.6,0.3-0.7,0.4V36
	c0.8-1.1,1.4-2.4,1.7-3.7c0.3,0.2,0.9,0.5,1.7,1c0.4,0.3,0.6,0.5,0.6,0.6s-0.1,0.2-0.3,0.2c-0.4,0-0.7,0.1-0.8,0.1
	c-0.4,0.5-0.8,1-1.3,1.4s-1,0.8-1.5,1v1.9c0.9,0.2,1.7,0.5,2.3,0.8c0.9,0.5,1.4,1,1.4,1.5s-0.1,0.8-0.2,0.9
	c-0.1,0.3-0.4,0.4-0.7,0.4c-0.2,0-0.5-0.4-0.9-1.1c-0.6-0.9-1.2-1.6-1.8-2v6.6c0,0.5,0.2,0.7,0.6,0.7h0.6c0.6,0,1-0.4,1.2-1.3
	c0.3-1,0.5-1.6,0.5-1.9c0.1,0,0.2,0,0.3,0c0,0,0,0.8,0,2.3c0,0.3,0.1,0.5,0.3,0.6c0.3,0.2,0.5,0.4,0.5,0.6c0,0.5-0.4,0.8-1.1,1
	c-0.4,0.1-0.9,0.2-1.6,0.2c-0.8,0-1.2,0-1.4-0.1c-1.2-0.1-1.8-0.8-1.8-2V31.2c0-0.6,0-1.2-0.1-1.8C120.7,30,121.7,30.2,121.7,30.4z"
	/>
<path class="st0" d="M144.4,30c0.6,0.4,0.9,0.7,0.9,0.9c0,0.1-0.1,0.3-0.3,0.4c-0.3,0.3-0.5,0.4-0.5,0.5v9.7c0,3.3,0.1,5.5,0.1,6.7
	c0,0.4-0.5,0.7-1.4,0.7c-0.4,0-0.5-0.2-0.5-0.5v-1.2h-12.9v0.9c-0.1,0.4-0.5,0.6-1.2,0.6c-0.4,0-0.7-0.1-0.8-0.2
	c0-2.9,0-5.8,0.1-8.6v-5.6c0-2.4-0.1-3.8-0.1-4.3l2,0.8h12.6c0.6-0.8,1-1.2,1.2-1.2C143.6,29.5,143.9,29.6,144.4,30z M142.6,46.5
	V31.2h-12.9v15.3C129.7,46.5,142.6,46.5,142.6,46.5z M140.7,32.8c0.4,0.4,0.7,0.7,0.7,0.8c0,0.2-0.1,0.3-0.2,0.3h-4.4v1.6h2.8
	c0.6-0.8,1-1.2,1.2-1.3c0.1,0,0.4,0.2,0.8,0.7c0.4,0.4,0.7,0.7,0.7,0.9c0,0.2-0.1,0.3-0.2,0.3h-8.7c-2,0-3.1,0.1-3.1,0.2
	c-0.1-0.3-0.3-0.6-0.4-1.1c0.3,0.1,1.4,0.2,3.2,0.3h2v-1.6h-0.6c-2,0-3,0.1-3,0.2c-0.1-0.3-0.3-0.6-0.4-1.1c0.3,0.1,1.4,0.2,3.3,0.3
	h0.8c0-0.7-0.1-1.3-0.1-1.8c1.8,0.3,2.8,0.5,2.8,0.7c0,0.2-0.1,0.3-0.3,0.3c-0.4,0.2-0.6,0.3-0.6,0.4v0.4h2c0.6-0.8,1-1.1,1.2-1.1
	C140.1,32.2,140.3,32.4,140.7,32.8z M130.3,45.2c-0.1-0.1-0.2-0.2-0.2-0.3c2.2-1.3,3.7-2.6,4.6-3.9c0-0.1,0.1-0.1,0.1-0.2h-1.4
	c-0.1,0.4-0.5,0.6-1.1,0.6c-0.4,0-0.6-0.1-0.7-0.2c0-0.7,0-1.4,0.1-2v-1.4c0-0.6-0.1-0.9-0.1-1l1.6,0.6h5.1c0.5-0.6,0.9-1,1-1
	c0.2,0,0.5,0.2,1,0.6s0.7,0.6,0.7,0.8c0,0.1-0.1,0.3-0.3,0.4c-0.3,0.2-0.4,0.4-0.4,0.4v1.1c0.1,0.4,0.1,0.7,0.1,0.8
	c0.3,0.2,0.7,0.4,1.2,0.7c0.3,0.2,0.5,0.4,0.5,0.5s-0.1,0.1-0.3,0.1c-0.3,0-0.5,0.1-0.7,0.1c-0.3,0.2-0.6,0.4-1,0.6
	c-0.2,0.1-0.3,0.2-0.5,0.2c1.1,0.5,1.7,1.1,1.7,1.8c0,0.3-0.1,0.5-0.2,0.6c-0.1,0.3-0.3,0.4-0.7,0.4c-0.3,0-0.7-0.5-1.3-1.4
	c-0.6-0.7-1.4-1.3-2.4-1.9v2.4c0,0.3,0,0.6,0,0.8c0,0.4-0.4,0.5-1.1,0.5c-0.5,0-0.8-0.1-0.8-0.3v-3.1
	C133.8,43.6,132.2,44.5,130.3,45.2z M138.6,40.2v-2.3h-5.2v2.3H138.6z M140,41c-0.2,0.1-0.4,0.1-0.6,0.1c-0.5,0-0.8-0.1-0.8-0.3H137
	v1c0.8,0.2,1.6,0.4,2.1,0.6C139.5,42,139.8,41.5,140,41z"/>
<path class="st0" d="M149.7,46.8c-0.1,0.6-0.3,0.9-0.4,0.9c-0.1,0-0.3-0.3-0.5-0.8s-0.4-1.2-0.6-2c0.4,0.1,1,0.1,1.8,0.1v-7
	c-0.8,0-1.4,0.1-1.7,0.2c-0.1-0.4-0.3-0.7-0.5-1.1c1,0.1,2.9,0.2,5.4,0.2h10.4c0.5-0.6,0.9-1,1.2-1.2h0.1c0.1,0.1,0.3,0.2,0.4,0.3
	c0.7,0.6,1.1,1,1.1,1.2s-0.1,0.3-0.2,0.3h-9.6v7.2c0,0.8,0.1,1.8,0.1,3c0,0.3-0.4,0.4-1.1,0.5c-0.6,0-0.9-0.1-0.9-0.3
	c0-0.6,0.1-1.6,0.1-3.1C153.6,45.7,151.9,46.2,149.7,46.8z M152.5,30.3h8.6c0.5-0.6,0.9-0.9,1.1-0.9s0.6,0.2,1.1,0.6
	s0.8,0.7,0.8,0.8s-0.1,0.3-0.3,0.4c-0.4,0.2-0.6,0.4-0.6,0.5V34c0.1,0.9,0.1,1.4,0.1,1.7c0,0.5-0.4,0.7-1.1,0.7
	c-0.5,0-0.8-0.1-0.9-0.4v-0.4h-8.5v0.3c-0.1,0.4-0.5,0.6-1.2,0.6c-0.4,0-0.7-0.1-0.8-0.2c0-1,0-2.1,0.1-3.1v-2
	c0-0.8-0.1-1.4-0.2-1.5L152.5,30.3z M151.9,37.9v1.7h2.9v-1.7H151.9z M151.9,40.1V42h2.9v-1.9H151.9z M151.9,42.6v2.2
	c1.2-0.1,2.1-0.2,2.9-0.3v-1.9C154.8,42.6,151.9,42.6,151.9,42.6z M161.4,32.6v-1.7h-8.5v1.7H161.4z M161.4,35.1v-2h-8.5v2H161.4z
	 M165,39c0.6,0.5,0.9,0.8,0.9,1c0,0.1-0.1,0.2-0.3,0.3c-0.5,0.1-0.7,0.2-0.7,0.4c-0.7,1.4-1.5,2.7-2.5,3.8c0.6,0.5,1.3,0.8,2,1.2
	c0.8,0.4,1.6,0.7,2.1,0.7c0,0.1,0,0.3-0.1,0.4c-0.3,0-0.5,0.1-0.6,0.2c-0.2,0.2-0.4,0.5-0.6,0.9c-0.2,0.3-0.4,0.5-0.5,0.5
	c-0.2,0-0.5-0.1-0.9-0.4c-1-0.6-2-1.3-2.7-2.2c-1.1,0.9-2.3,1.7-3.7,2.4c-0.1-0.1-0.1-0.2-0.2-0.3c1.1-0.8,2.2-1.8,3.1-3.1
	c-0.9-1.3-1.4-3-1.8-4.9c-0.6,0-1,0.1-1.3,0.1c-0.2-0.5-0.3-0.8-0.4-1c0.8,0.2,1.7,0.3,2.9,0.3h3c0.7-0.7,1-1,1.2-1
	C164.1,38.3,164.5,38.6,165,39z M161.2,43.5c0.8-1.2,1.4-2.5,1.7-3.7h-3.3c-0.2,0-0.4,0-0.6,0C159.5,41.3,160.2,42.5,161.2,43.5z"/>
<path class="st0" d="M186.9,37.3c0.5,0.5,0.8,0.8,0.8,1s-0.2,0.3-0.5,0.3s-0.4,0.1-0.5,0.1c-0.7,0.4-1.6,0.9-2.6,1.3
	c-0.1,0-0.2-0.1-0.2-0.2c0.5-0.5,0.9-1.1,1.2-1.6H171v0.1c0,1.7-0.5,2.6-1.4,2.7c-0.7,0-1.1-0.2-1.1-0.7c0-0.3,0-0.5,0.1-0.7
	c0-0.1,0.3-0.4,0.8-0.8c0.5-0.5,0.9-1.3,1-2.4c0.2,0,0.3,0,0.3,0c0.1,0.4,0.1,0.9,0.2,1.3h13.8c0.5-0.6,0.9-1,1.2-1
	C186.1,36.6,186.4,36.9,186.9,37.3z M186.1,40.1c0.8,0.7,1.2,1.1,1.2,1.3c0,0.2-0.1,0.3-0.2,0.3H180c1,1.2,2.2,2.1,3.4,2.6
	c1.3,0.6,2.7,1,4.4,1c0,0.2,0,0.3,0,0.4c-0.1,0-0.3,0.2-0.5,0.4c-0.1,0.1-0.3,0.4-0.4,0.8c-0.1,0.3-0.2,0.4-0.4,0.4
	c-0.7,0-1.9-0.6-3.5-1.7c-1.4-0.9-2.5-2.2-3.3-3.9h-0.3v6.4c0,0.4-0.4,0.5-1.1,0.5c-0.5,0-0.8-0.1-0.8-0.4c0-2.1,0-4.1,0-6
	c-0.1,0.1-0.2,0.3-0.3,0.4c-1.3,2.1-4,3.8-8,5c-0.1,0-0.2-0.1-0.3-0.3c3.1-1.5,5.1-3.2,6.1-4.9c0.2-0.3,0.3-0.5,0.4-0.7h-0.7
	c-2.3,0-3.7,0.1-4.3,0.3c-0.1-0.4-0.3-0.7-0.5-1.1c1,0.1,2.6,0.2,4.9,0.2h2.6V40c0-0.7-0.1-1.2-0.1-1.5c1.9,0.3,2.9,0.6,2.9,0.8
	c0,0.1-0.1,0.2-0.4,0.3c-0.4,0.2-0.6,0.3-0.6,0.4v1.2h5c0.6-0.7,1-1.1,1.3-1.3h0.2C185.7,39.9,185.9,40,186.1,40.1z M172.1,30.6
	c0.1,0.5,0.2,1.1,0.2,1.7c0,1.6-0.5,2.3-1.4,2.4c-0.6,0-0.9-0.2-0.9-0.6c0-0.2,0-0.4,0.1-0.6c0-0.1,0.3-0.3,0.7-0.7
	c0.5-0.5,0.8-1.2,1-2.1C171.9,30.6,172,30.6,172.1,30.6z M171.5,37.3l-0.2-0.3c1.2-1,2-2.3,2.1-4c0.1-0.6,0.1-1.8,0.1-3.7
	c0.5,0.1,1.2,0.3,2,0.4c0.5,0.1,0.7,0.3,0.7,0.4c0,0.1-0.1,0.2-0.3,0.3s-0.5,0.2-0.8,0.3c0,0.8,0,1.4-0.1,1.9
	c0.8-0.6,1.5-1.3,1.9-2.1c1.1,0.8,1.6,1.2,1.6,1.2c0,0.1-0.1,0.2-0.2,0.2c-0.2,0-0.4,0-0.7,0c-0.7,0.5-1.6,0.9-2.7,1.3
	c0,0.2-0.1,0.3-0.1,0.4s-0.1,0.2-0.1,0.3c1.7,0.3,2.6,1,2.7,2.1c0,0.2,0,0.4-0.1,0.5c-0.1,0.3-0.3,0.4-0.6,0.4s-0.6-0.4-1-1.1
	c-0.3-0.6-0.7-1.1-1.2-1.5C174.2,35.9,173.1,36.9,171.5,37.3z M179.8,30.9c0.1,0.5,0.2,1.1,0.2,1.7c0,1.3-0.4,1.9-1.2,2
	c-0.6,0-0.9-0.2-0.9-0.6c0-0.3,0-0.4,0.1-0.6c0-0.1,0.3-0.3,0.7-0.6c0.5-0.4,0.8-1,0.9-1.8h0.2V30.9z M178.3,37.5l-0.1-0.3
	c1.8-1,2.8-2.4,3.1-4.1c0.1-0.6,0.2-1.8,0.2-3.8c0.5,0.1,1.2,0.3,2,0.4c0.5,0.1,0.7,0.3,0.7,0.4c0,0.1-0.1,0.2-0.3,0.3
	s-0.5,0.2-0.8,0.3c0,0.7,0,1.3-0.1,1.8c1.1-0.6,1.9-1.3,2.4-2c1.2,0.8,1.8,1.3,1.8,1.4c0,0.1-0.1,0.2-0.2,0.2c-0.3,0-0.5,0-0.8,0
	c-0.9,0.4-2,0.8-3.3,1.1c0,0.3-0.1,0.5-0.1,0.7V34c1.9,0.3,2.9,0.9,2.9,1.9c0,0.2,0,0.4-0.1,0.6c-0.1,0.3-0.3,0.5-0.7,0.5
	c-0.3,0-0.7-0.4-1.2-1.1c-0.4-0.5-0.8-1-1.2-1.4C181.8,36.1,180.4,37.1,178.3,37.5z"/>
<path class="st0" d="M197.1,37.4c0.3,0.3,0.4,0.5,0.4,0.6c0,0.2-0.1,0.3-0.3,0.3h-1.7V45c0.6-0.4,1.2-0.8,1.8-1.2
	c0,0.1,0.1,0.2,0.1,0.3c-0.9,1.4-2,2.6-3.3,3.5c0,0.1-0.1,0.4-0.1,0.8c0,0.1-0.1,0.2-0.2,0.2c-0.2,0-0.7-0.7-1.6-2.1
	c0.6-0.2,1.1-0.4,1.7-0.7v-7.5h-1.1c-0.1,1.8-0.1,3-0.3,3.7c-0.4,3.4-1.3,5.5-2.6,6.4c0-0.1-0.1-0.1-0.2-0.2
	c0.7-1.3,1.2-3.5,1.4-6.6c0.1-1.1,0.1-2.2,0.1-3.2H191c-0.4,0-0.8,0-1.2,0.1c-0.2-0.3-0.4-0.7-0.4-1c0.4,0.2,0.8,0.3,1.3,0.3h1.8
	v-6.3c0-0.8,0-1.4-0.1-1.9c1.7,0.3,2.5,0.5,2.5,0.7s-0.1,0.3-0.3,0.3c-0.4,0.1-0.5,0.3-0.5,0.4v6.9h0.9c0.5-0.7,0.9-1,1-1.1
	c0.1,0,0.1,0,0.1,0C196.3,36.5,196.6,36.8,197.1,37.4z M191.7,35.5c0,0.6-0.3,0.9-0.9,0.9c-0.3,0-0.5-0.2-0.5-0.5
	c0-0.1,0-0.4,0.1-0.7c0-0.2,0.1-0.5,0.1-0.9c0-1-0.2-1.7-0.5-2.3c0,0,0-0.1,0.1-0.1C191.2,32.9,191.7,34.1,191.7,35.5z M197.8,32.8
	c0,0.1-0.3,0.3-0.9,0.3c-0.4,1-1.1,2.1-2,3.3c-0.1,0-0.3-0.1-0.4-0.1c0.6-1.4,1-3,1.2-4.6C197,32.2,197.8,32.6,197.8,32.8z
	 M201.5,37.7c0,0.2-0.3,0.3-1,0.4c-0.2,0.4-0.4,0.8-0.6,1.1h3.1c-0.2-0.2-0.3-0.4-0.3-0.7c-0.2-0.7-0.5-1.1-1-1.4c0,0,0-0.1,0.1-0.2
	c0.3,0,0.5,0,0.6,0c0.7,0,1.2,0.1,1.7,0.4c0.3,0.3,0.5,0.7,0.5,1.2c0,0.3-0.1,0.6-0.3,0.7h1.6c0.5-0.7,0.8-1.1,1-1.2h0.1
	c0.1,0,0.4,0.2,0.8,0.5c0.5,0.5,0.8,0.8,0.8,0.9c0,0.2-0.1,0.3-0.1,0.3H204v1.8h1.2c0.5-0.6,0.8-1,1-1.1h0.1c0.1,0,0.4,0.2,0.7,0.5
	c0.4,0.4,0.7,0.7,0.7,0.8c0,0.2-0.1,0.3-0.1,0.4H204V44h1.2c0.4-0.6,0.8-1,0.9-1.1h0.1c0.1,0,0.4,0.2,0.7,0.5
	c0.4,0.4,0.7,0.7,0.7,0.8c0,0.2-0.1,0.3-0.1,0.4H204v2.1h1.9c0.5-0.7,0.8-1.1,1-1.2h0.1c0.1,0,0.4,0.2,0.8,0.6
	c0.5,0.5,0.8,0.8,0.8,0.9c0,0.2-0.1,0.3-0.1,0.4h-8.7v0.7c0,0.3-0.4,0.5-1,0.5c-0.5,0-0.8-0.1-0.8-0.2c0-0.3,0-1.1,0-2.3v-4.5
	c-0.5,0.5-1.1,0.9-1.7,1.2c-0.1-0.1-0.1-0.2-0.1-0.2c1.3-1.4,2.2-3.4,2.8-5.8C200.6,37.1,201.5,37.4,201.5,37.7z M207.9,30
	c0.5,0.4,0.7,0.6,0.7,0.8c0,0.1-0.1,0.2-0.3,0.4c-0.3,0.2-0.5,0.4-0.6,0.4v2.9c0.1,1.1,0.1,1.8,0.1,2.1c0,0.4-0.4,0.7-1,0.7
	c-0.5,0-0.8-0.1-0.8-0.3v-2.3c-0.6,0.6-1.4,1.1-2.3,1.6c0,0.3-0.1,0.5-0.1,0.5c-0.1,0-0.2-0.1-0.3-0.5c-0.2-0.3-0.4-0.8-0.7-1.5
	c1.4-0.1,2.6-0.4,3.4-0.7v-3.3h-3.4c0,0.1-0.1,0.2-0.2,0.2c-0.1,0.1-0.3,0.2-0.5,0.4v2.9C202,35,202,35.6,202,36
	c0,0.3-0.4,0.5-1.2,0.6c-0.4,0-0.6-0.1-0.6-0.4V35c-0.7,0.7-1.5,1.3-2.5,1.8c0,0.4-0.1,0.5-0.2,0.5s-0.2-0.2-0.4-0.5
	s-0.4-0.9-0.7-1.6c1.6-0.2,2.9-0.5,3.8-0.9v-3.5h-2c-0.7,0-1.2,0.1-1.5,0.2c-0.1-0.3-0.2-0.5-0.3-0.9c0.2,0.1,0.8,0.1,1.6,0.1h1.8
	c0.5-0.5,0.9-0.8,1.1-0.8c0.1,0,0.4,0.2,0.9,0.5c0.2,0.2,0.3,0.3,0.4,0.4h3.5c0.5-0.5,0.8-0.8,1-0.9C207,29.5,207.4,29.6,207.9,30z
	 M199.2,31.7c0.3,0.3,0.5,0.7,0.5,1.3c0,0.6-0.3,0.8-0.9,0.8c-0.4,0-0.6-0.3-0.7-0.9c-0.2-0.7-0.5-1.2-1-1.4c0,0,0-0.1,0.1-0.1
	c0.3,0,0.5,0,0.5,0C198.3,31.3,198.8,31.5,199.2,31.7z M202.2,41.5v-1.8h-2.5v1.8H202.2z M202.2,44v-1.9h-2.5V44H202.2z M202.2,46.7
	v-2.1h-2.5v1.6c0,0.2,0,0.4,0,0.6L202.2,46.7L202.2,46.7z M205,31.8c0.3,0.3,0.5,0.7,0.5,1.2s-0.3,0.8-0.9,0.8
	c-0.3,0-0.6-0.3-0.7-0.8c-0.2-0.7-0.5-1.1-0.9-1.3c0,0,0-0.1,0.1-0.1h0.5C204.1,31.5,204.6,31.6,205,31.8z"/>
<path class="st0" d="M227.2,33.6c0.6,0.6,0.9,1,0.9,1.3c0,0.2-0.5,0.4-1.5,0.4c-2.6,3.7-6.2,6.6-10.8,8.5c0.1,0.1,0.1,0.2,0.2,0.3
	c0.7,1,2.8,1.6,6.2,1.6c4.1-0.1,6.6-0.3,7.4-0.6l0.1,0.5c-0.6,0.2-0.9,0.6-1,1.1c0,0.5-0.1,0.8-0.3,0.8c-1.3,0-3.1,0-5.5,0
	c-3.1-0.1-5.2-0.6-6.2-1.4c-1.2-0.8-1.9-2.2-2.1-4.1c-0.1,1.7-0.6,3.2-1.5,4.7c0.2,0.5,0.3,0.8,0.3,1c-0.1,0.2-0.1,0.3-0.3,0.3
	c-0.3,0-1.1-0.5-2.6-1.6c1.3-1.1,2.5-2.8,3.6-5.1c0.2-0.1,0.3-0.2,0.4-0.2c0.3,0,0.6,0.4,0.7,1.1c0.1,0.4,0.2,0.7,0.3,1
	c1.7-0.9,3.4-2.3,5.3-4.1c1.2-1.2,2.4-2.8,3.7-4.8h-9.7c-1.1,0-1.9,0.1-2.4,0.1c-0.1-0.3-0.3-0.7-0.5-1c0.8,0.2,2,0.3,3.4,0.3h9.1
	c0.8-0.8,1.3-1.2,1.5-1.2C226.1,32.7,226.6,33,227.2,33.6z M221.1,31.8c0,0.3,0,0.5-0.1,0.7c-0.1,0.4-0.4,0.6-0.8,0.6
	c-0.4,0-0.9-0.4-1.5-1.3c-0.6-0.9-1.4-1.6-2.2-2.1c0,0,0.1-0.1,0.1-0.3C219.5,29.7,221,30.5,221.1,31.8z"/>
<path class="st0" d="M236.6,37.4h8.6c0.5-0.6,0.9-1,1.1-1s0.6,0.2,1.1,0.6s0.8,0.7,0.8,0.8c0,0.1-0.1,0.3-0.3,0.4
	c-0.3,0.2-0.5,0.4-0.6,0.5v2.2c0.1,0.8,0.1,1.4,0.1,1.6c0,0.5-0.4,0.7-1.1,0.7c-0.5,0-0.8-0.1-0.9-0.4v-0.3H242v1.9h5.4
	c0.6-0.8,1.1-1.3,1.4-1.4c0,0,0.1,0,0.2,0c0.2,0.1,0.3,0.2,0.5,0.3c0.9,0.8,1.3,1.2,1.3,1.4c0,0.2-0.1,0.3-0.2,0.3h-8.5
	c0,0.8,0,1.8,0,2.9c0,0.3-0.4,0.5-1.2,0.5c-0.6,0-1-0.1-1-0.3c0-0.6,0.1-1.6,0.1-3.1h-3.2c-2.5,0-4.1,0.1-4.7,0.3
	c-0.1-0.4-0.3-0.7-0.5-1.1c1,0.1,2.9,0.2,5.4,0.2h3v-1.9h-3.3v0.1c-0.1,0.4-0.5,0.6-1.1,0.6c-0.4,0-0.7-0.1-0.8-0.2c0-1,0-2,0.1-3
	v-2c0-0.8-0.1-1.3-0.2-1.5L236.6,37.4z M245.8,33.5c0,0.2-0.4,0.3-1.1,0.3c-0.3,0.5-0.8,1-1.4,1.4h3.9c0.6-0.7,1-1.2,1.3-1.3
	c0,0,0.1,0,0.2,0c0.1,0.1,0.3,0.2,0.5,0.3c0.8,0.7,1.2,1.1,1.2,1.3s-0.1,0.3-0.2,0.3h-13.3c-2.4,0-3.9,0.1-4.5,0.3
	c-0.1-0.4-0.3-0.7-0.5-1.1c1,0.1,2.8,0.2,5.3,0.2h1.2c-0.2-0.1-0.4-0.4-0.5-0.7c-0.2-0.5-0.3-0.8-0.5-1c-0.1-0.3-0.4-0.5-0.6-0.8
	c0,0,0.1-0.1,0.2-0.2c0.6,0.1,1.1,0.3,1.5,0.4c0.8,0.4,1.2,0.8,1.2,1.3s-0.1,0.8-0.4,1c-0.1,0.1-0.1,0.1-0.2,0.1h3.8
	c0.3-1,0.5-2,0.6-2.8C245,32.9,245.8,33.3,245.8,33.5z M248,30.8c0.8,0.7,1.2,1.1,1.2,1.3c0,0.2-0.1,0.3-0.2,0.3h-11.6
	c-2.1,0-3.4,0.1-4,0.3c-0.1-0.4-0.3-0.7-0.5-1.1c0.9,0.1,2.4,0.2,4.5,0.2h8.7c0.6-0.7,1-1.2,1.3-1.3c0,0,0.1,0,0.2,0
	C247.6,30.5,247.8,30.6,248,30.8z M245.5,39.7V38h-8.7v1.7H245.5z M245.5,42v-1.8h-8.7V42H245.5z M242.2,30.8c0,0.5-0.2,0.8-0.5,0.9
	c-0.1,0-0.3,0.1-0.4,0.1c-0.2,0-0.4-0.2-0.8-0.6c-0.5-0.7-1.2-1.2-1.9-1.5c0-0.1,0-0.2,0.1-0.3c0.2,0,0.7,0,1.5,0
	C241.5,29.4,242.2,29.9,242.2,30.8z"/>
<g>
	<rect y="68" class="st1" width="13" height="0.8"/>
</g>
</svg>
