<svg width="143" height="15" viewBox="0 0 143 15" fill="none" xmlns="http://www.w3.org/2000/svg">
<path d="M7.21021 2.89001H2.35022C2.37022 2.99001 2.37024 3.1 2.37024 3.19C2.37024 4.02 1.94028 4.69 1.16028 4.69C0.710278 4.69 0.470215 4.44999 0.470215 4.10999C0.470215 3.80999 0.710254 3.57001 1.01025 3.45001C1.51025 3.23001 1.92023 2.62001 1.86023 1.95001L2.13025 1.92999C2.21025 2.13999 2.2603 2.33002 2.3103 2.52002H7.21021V1.34003H2.05029L1.9502 0.98999H11.6803L12.4802 0.0200195L14.0002 1.03003C13.8702 1.27003 13.6802 1.34998 13.2302 1.34998H8.48022V2.53003H13.5603L14.2502 1.81L15.5303 3.02002C15.4003 3.15002 15.2303 3.18001 14.9203 3.20001C14.5803 3.60001 14.0103 4.14001 13.5503 4.45001L13.3402 4.34003C13.4502 4.00003 13.6003 3.37001 13.6803 2.89001H8.49023V6.17999C8.47023 6.25999 8.07019 6.52002 7.44019 6.52002H7.22021V2.89001H7.21021ZM7.4502 12.86C7.3402 13.08 7.13022 13.16 6.73022 13.16H2.86023V14.33C2.86023 14.33 2.72025 14.79 1.63025 14.79V6.42999L2.94019 7.01001H5.4502L5.9502 6.37L7.39026 7.35999C7.31026 7.46999 7.0902 7.58 6.8302 7.63V9.41998C6.8302 9.41998 6.45022 9.77002 5.60022 9.77002V9.31H2.87024V10.83H5.28027L5.92029 10.03L7.15027 10.88C7.04027 11.1 6.8303 11.2 6.4303 11.2H2.87024V12.81H5.44019L6.14026 11.95L7.4502 12.86ZM2.47021 5.66998L2.37024 5.29999H4.85022L5.39026 4.65997L6.49023 5.35999C6.38023 5.57999 6.19028 5.65997 5.79028 5.65997H2.47021V5.66998ZM5.30029 3.32001L6.39026 4.02002C6.26026 4.24002 6.09019 4.32001 5.69019 4.32001H2.73022L2.63025 3.96997H4.75024L5.29028 3.31L5.30029 3.32001ZM5.60022 7.35999H2.87024V8.94H5.60022V7.35999ZM13.2803 9.82001L14.4802 10.89C14.3502 11.03 14.1803 11.07 13.8103 11.08C13.3503 11.75 12.7603 12.33 12.0503 12.82C13.0403 13.17 14.1602 13.41 15.3602 13.55L15.3402 13.73C14.8602 13.84 14.5603 14.23 14.4303 14.8C13.1003 14.48 11.9703 14.05 11.0403 13.43C9.78028 14.07 8.26028 14.52 6.54028 14.8L6.46021 14.51C7.96021 14.14 9.29024 13.62 10.3702 12.91C9.73024 12.35 9.20019 11.66 8.82019 10.83H7.80029L7.69019 10.48H12.5303L13.2803 9.81V9.82001ZM13.9003 9.41998C13.8803 9.51998 13.2602 9.77002 12.8602 9.77002H12.6703V9.27002H8.16028L8.05029 8.91998H12.6703V7.34998H8.28027L8.17029 7H12.5203L13.0503 6.33002L14.5203 7.34998C14.4203 7.45998 14.2003 7.59002 13.9103 7.65002V9.40997L13.9003 9.41998ZM9.3103 5.66998L9.2002 5.29999H11.8003L12.3802 4.60999L13.5503 5.35999C13.4203 5.57999 13.2502 5.65997 12.8302 5.65997H9.32019L9.3103 5.66998ZM9.2002 10.85C9.6602 11.49 10.3202 12 11.0802 12.4C11.6402 11.95 12.1202 11.43 12.4702 10.85H9.2002ZM12.0603 3.33002L13.1603 4.03003C13.0303 4.25003 12.8702 4.33002 12.4602 4.33002H9.36023L9.25024 3.97998H11.5002L12.0603 3.32001V3.33002Z" fill="white"/>
<path d="M19.9802 1.31006C20.1602 0.910059 20.5903 0.660034 21.0203 0.660034C21.9503 0.660034 22.8302 1.22004 22.8302 1.73004C22.8302 2.02004 22.4902 2.13007 22.3202 2.82007C22.1802 3.40007 22.0202 4.03007 21.8402 4.63007C22.2202 4.57007 22.8602 4.45007 23.4402 4.45007C25.6802 4.45007 26.1403 5.74006 26.1403 8.00006C26.1403 10.2601 25.3403 13.9601 23.3103 13.9601C22.9303 13.9601 22.7503 13.6901 22.6503 13.2101C22.5903 12.8301 21.6603 12.06 20.7603 11.29L20.9502 11.0301C22.0702 11.7201 22.9603 12.23 23.4103 12.23C24.3403 12.23 24.9802 9.55005 24.9802 7.68005C24.9802 6.03005 24.8202 5.11009 23.3702 5.09009C22.9502 5.09009 22.0402 5.23004 21.6102 5.35004C20.8802 7.81004 19.7103 10.8801 18.7703 12.6801C18.4703 13.2901 18.1503 13.72 17.8003 13.72C17.3803 13.72 17.1603 13.4 17.1603 12.73C17.1603 12.35 17.6103 11.8701 17.8903 11.5201C18.6103 10.6401 19.8702 7.75003 20.4802 5.66003C20.1302 5.76003 19.4702 5.96008 19.0702 6.14008C18.8802 6.24008 18.6403 6.56006 18.4003 6.56006C17.6003 6.56006 17.0902 5.70004 17.0902 5.04004C17.0902 4.67004 17.3502 4.34005 17.5902 4.24005L17.6703 4.27008C17.6103 4.67008 17.8802 5.18005 18.4502 5.18005C19.0602 5.18005 19.8902 5.00008 20.6902 4.83008C20.8202 4.35008 20.9802 3.60008 21.0702 3.14008C21.1302 2.72008 21.2002 2.37004 21.2002 2.10004C21.2002 1.60004 21.0103 1.35004 20.4203 1.35004C20.3103 1.35004 20.1803 1.37007 20.0403 1.38007L19.9902 1.33008L19.9802 1.31006ZM26.7102 1.05005C28.4702 1.61005 29.1703 2.44003 29.1703 2.97003C29.1703 3.27003 28.9502 3.51007 28.7202 3.51007C28.4302 3.51007 28.2903 3.35006 28.1803 3.06006C27.9903 2.56006 27.3803 1.75004 26.5503 1.29004L26.7102 1.05005ZM26.9003 3.46008C29.7103 4.20008 30.8602 6.34008 30.8502 8.08008C30.8502 8.89008 30.5102 9.42004 30.0702 9.42004C29.7502 9.42004 29.4003 9.28004 29.4003 8.67004C29.4003 6.69004 28.8902 4.72008 26.7302 3.77008L26.9103 3.47003L26.9003 3.46008ZM28.5303 0.0400391C30.2903 0.600039 30.9902 1.43003 30.9902 1.97003C30.9902 2.24003 30.7803 2.48004 30.5603 2.48004C30.2603 2.48004 30.1303 2.34005 30.0203 2.05005C29.8103 1.52005 29.1902 0.72009 28.3702 0.28009L28.5303 0.0400391Z" fill="white"/>
<path d="M37.6302 5.26025H34.5802V14.2703C34.5802 14.2703 34.4702 14.8102 33.3202 14.8102V0.380249L34.6603 1.00024H37.4902L38.0002 0.330261L39.4502 1.35022C39.3502 1.46022 39.1302 1.59026 38.8402 1.64026V5.67023C38.8402 5.67023 38.5002 6.07025 37.6302 6.07025V5.26025ZM37.6302 1.36023H34.5802V2.93024H37.6302V1.36023ZM34.5802 4.91022H37.6302V3.28027H34.5802V4.91022ZM45.5103 0.240234L47.0603 1.37024C46.9503 1.50024 46.6902 1.64027 46.3702 1.71027V13.0402C46.3702 14.0002 46.1503 14.6502 44.6603 14.8102C44.6603 13.7402 44.2803 13.6002 43.2903 13.4702V13.4503C43.0503 13.5803 42.9102 13.7902 42.8602 14.1702C41.0702 13.4202 40.3703 11.8703 40.0603 10.6403H40.0002C39.6002 12.1703 38.5602 13.3402 35.7002 14.1902L35.5103 13.9302C37.7303 13.0402 38.5302 11.9703 38.8302 10.6403H35.7102L35.6102 10.2703H38.8903C38.9903 9.74026 39.0003 9.18027 39.0203 8.59027H36.0203L35.9203 8.24023H40.3103C40.6103 7.60023 40.9703 6.74026 41.1703 6.08026L42.7703 6.64026C42.6903 6.80026 42.5103 6.85025 42.1603 6.82025C41.8103 7.25025 41.2803 7.79023 40.7703 8.24023H41.9502L42.5902 7.46027L43.7903 8.29022C43.6803 8.51022 43.4902 8.59027 43.0702 8.59027H40.2302C40.2102 9.20027 40.1702 9.74026 40.0702 10.2703H42.1503L42.8103 9.44025L44.0902 10.3203C43.9602 10.5603 43.7702 10.6403 43.3602 10.6403H40.4203C40.8503 11.6003 41.8303 12.5402 43.7703 13.1202L43.7502 13.2502H44.8502C45.0302 13.2502 45.0902 13.2003 45.0902 13.0303V5.27026H41.9003V5.61023C41.9003 5.61023 41.7203 6.04022 40.6703 6.04022V0.460266L41.9802 1.02026H44.9402L45.5203 0.250244L45.5103 0.240234ZM37.1102 6.14026C38.4502 6.51026 38.9003 7.11026 38.9003 7.58026C38.9003 7.95026 38.6103 8.24023 38.3103 8.24023C38.1503 8.24023 37.9702 8.16024 37.8302 8.00024C37.7802 7.42024 37.4002 6.67025 36.9802 6.26025L37.1102 6.15027V6.14026ZM45.1002 1.36023H41.9103V2.93024H45.1002V1.36023ZM41.9103 4.91022H45.1002V3.28027H41.9103V4.91022Z" fill="white"/>
<path d="M65.9702 12.0498L67.6503 13.2298C67.5203 13.4498 67.3302 13.5498 66.8802 13.5498H55.1403V14.3598C55.1403 14.4698 54.7203 14.8098 54.0403 14.8098H53.8302V0.769836L55.3502 1.38983H64.5802L65.4303 0.299805L67.0403 1.42981C66.9003 1.64981 66.7003 1.7298 66.2603 1.7298H55.1403V13.1698H65.0603L65.9702 12.0398V12.0498ZM64.8702 3.13983C64.8102 3.27983 64.6902 3.37982 64.4402 3.37982C64.3802 3.37982 64.3002 3.3798 64.2002 3.3598C63.5302 4.7198 62.7803 5.92985 61.9303 7.02985C64.2603 8.54985 65.0303 9.93979 65.0303 10.7198C65.0303 11.1498 64.8102 11.4098 64.4902 11.4098C64.3302 11.4098 64.1402 11.3498 63.9502 11.2198C63.4502 10.3298 62.5103 9.17981 61.1703 7.98981C59.5403 9.88981 57.6703 11.3598 55.6703 12.3998L55.4902 12.1898C57.1202 11.0698 58.8103 9.34982 60.2703 7.24982C59.0703 6.30982 57.6202 5.35985 55.9402 4.52985L56.0503 4.28979C58.0303 4.97979 59.6102 5.67981 60.8602 6.36981C61.6602 5.11981 62.3802 3.74981 62.9702 2.30981L64.8702 3.11981V3.13983Z" fill="white"/>
<path d="M82.1102 6.53998L83.7402 7.66998C83.6002 7.88998 83.4002 7.98999 82.9602 7.98999H77.5303C78.1103 10.31 79.4002 12.26 81.8402 13.21C81.9802 13.27 82.0803 13.31 82.1603 13.31C82.2903 13.31 82.3503 13.25 82.4303 13.1C82.6103 12.76 82.9302 12.08 83.1202 11.49L83.2803 11.51L83.0603 13.51C83.4903 13.88 83.6403 14.1 83.6403 14.28C83.6403 14.3 83.6102 14.84 82.8702 14.84C82.4402 14.84 81.8802 14.66 81.3702 14.44C78.4002 13.18 76.9103 10.88 76.2703 8H71.9902V12.82C73.5902 12.66 75.5202 12.47 77.5002 12.24L77.5303 12.5C75.9003 12.98 73.5703 13.59 70.1803 14.37C70.0803 14.58 69.9403 14.69 69.7803 14.72L68.9003 13.07C69.3503 13.04 69.9502 12.99 70.6902 12.93V0.369995L72.1902 0.97998H80.3202L80.8802 0.25L82.4602 1.37C82.3602 1.5 82.1203 1.63 81.7903 1.69V5.08002C81.7903 5.08002 81.4502 5.46002 80.4802 5.46002V4.72998H77.6803C77.6003 4.80998 77.4403 4.84 77.1703 4.87C77.1903 5.81 77.2702 6.76 77.4402 7.63H81.2603L82.1102 6.53998ZM80.4802 1.34998H71.9802V4.37H80.4802V1.34998ZM71.9802 7.63H76.1803C75.9903 6.7 75.8902 5.74997 75.8602 4.71997H71.9802V7.63Z" fill="white"/>
<path d="M88.5002 1.47009C88.5602 1.18009 88.9202 0.890137 89.3802 0.890137C90.3102 0.890137 91.4402 1.30014 91.4402 1.96014C91.4402 2.18014 91.3102 2.2501 91.2002 2.4201C90.9802 2.7101 90.8203 5.06011 90.7803 5.68011C92.2503 5.31011 94.8403 4.63012 95.6803 4.37012C95.9703 4.29012 96.1102 4.21015 96.2402 4.03015C96.4302 3.81015 96.5803 3.58014 96.7703 3.58014C97.1903 3.58014 98.5303 4.60014 98.5303 4.89014C98.5303 5.08014 98.3103 5.15013 98.0303 5.26013C97.8703 5.32013 97.7302 5.37011 97.6002 5.55011C96.9902 6.46011 95.6503 8.12011 94.3103 9.11011L94.0403 8.9201C95.3503 7.3101 96.1503 5.2001 96.1503 5.0401C96.1503 4.9801 96.1302 4.96014 96.0702 4.96014C95.9602 4.96014 93.2702 5.6901 90.7302 6.5401C90.6802 7.4201 90.6503 8.2801 90.6503 9.1001C90.6503 11.9801 90.9902 12.2802 93.1902 12.2802C94.3702 12.2802 95.7303 12.2301 96.4303 11.8001C97.2603 11.9801 98.0303 12.2201 98.0303 12.6501C98.0303 13.1101 97.3403 13.2401 96.4203 13.3201C95.6503 13.3801 93.7503 13.3801 92.9003 13.3801C90.3403 13.3801 89.5303 12.4201 89.5503 9.4801C89.5503 8.7801 89.5702 7.7501 89.6002 6.9101C88.1602 7.4101 87.7902 7.53015 87.4602 7.84015C87.3502 7.95015 87.1703 8.1001 86.9003 8.1001C86.2603 8.1001 85.2502 7.2101 85.2502 6.4101C85.2502 5.9801 85.4602 5.64014 85.6002 5.64014C85.7402 6.49014 86.5303 6.52014 86.8103 6.52014C87.3803 6.52014 88.0202 6.36014 89.6102 5.96014C89.6402 5.32014 89.7402 3.08009 89.7402 2.72009C89.7402 2.00009 89.6803 1.49011 88.5103 1.49011L88.4902 1.47009H88.5002Z" fill="white"/>
<path d="M101.18 2.03027C103.13 2.24027 105.78 3.16025 105.78 4.63025C105.78 5.06025 105.46 5.36023 105.03 5.36023C104.69 5.36023 104.33 4.98022 104.14 4.66022C103.66 3.94022 102.51 2.85026 101.07 2.33026L101.18 2.03027ZM113.64 3.21027C111.64 7.79027 108.14 10.7703 104.21 12.7003C103.46 13.0803 103.49 13.4802 103.12 13.4802C102.43 13.4802 101.2 12.3803 101.2 11.5203C101.2 11.2503 101.38 10.9403 101.62 10.7703C101.76 11.3503 102.23 11.7302 102.75 11.7302C103.98 11.7302 110.27 8.46025 113.28 3.01025L113.63 3.22021L113.64 3.21027Z" fill="white"/>
<path d="M115.16 7.97015C118.18 5.51015 119.63 2.15015 119.63 1.47015C119.63 1.05015 119.01 0.910156 118.67 0.910156C118.78 0.570156 119.02 0.430176 119.48 0.430176C120.2 0.430176 121.56 1.05021 121.56 1.53021C121.56 1.72021 121.38 1.80021 121.24 1.90021C121.1 2.01021 120.98 2.14021 120.82 2.46021C120.69 2.72021 120.58 2.96016 120.41 3.23016C120.55 3.26016 120.71 3.26019 120.86 3.26019C121.39 3.26019 123.18 3.1502 124.1 3.0202C124.45 2.9702 124.51 2.92019 124.68 2.76019C124.81 2.65019 125.03 2.46021 125.13 2.46021C125.48 2.46021 126.6 3.47015 126.6 3.72015C126.6 3.93015 126.44 3.99021 126.22 4.09021C126.03 4.19021 125.8 4.28019 125.71 4.51019C125.26 5.56019 124.38 7.24021 123.76 8.15021C124.4 8.57021 125.49 9.2702 125.49 10.0802C125.49 10.4802 125.19 10.7502 124.79 10.7502C124.39 10.7502 124.13 10.3202 123.86 10.0302C123.62 9.77021 123.27 9.50021 123 9.28021C121.55 11.1202 119.02 13.1002 115.83 14.1702L115.61 13.8502C118.26 12.6202 120.67 10.4802 122.05 8.55017C121.3 8.04017 120.16 7.42015 118.66 6.97015L118.79 6.65021C120.26 6.83021 121.76 7.29016 122.62 7.66016C123.93 5.68016 124.49 3.84016 124.49 3.73016C124.49 3.67016 124.46 3.63019 124.38 3.63019C123.79 3.63019 121.07 4.1402 120.67 4.1402C120.45 4.1402 120.17 4.04017 120 3.92017C118.95 5.53017 117.56 7.0002 115.4 8.2702L115.18 7.98016L115.16 7.97015Z" fill="white"/>
<path d="M138.84 6.69995C139.96 6.69995 140.55 6.55994 140.79 6.55994C141.54 6.57994 142.66 6.82992 142.66 7.28992C142.66 7.60992 142.31 7.76996 141.64 7.76996C141.06 7.76996 138.22 7.71991 137.58 7.71991C135.81 7.71991 131.91 7.71994 131.09 8.05994C130.87 8.13994 130.66 8.27997 130.4 8.27997C129.75 8.27997 128.64 7.20993 128.64 6.54993C128.64 6.12993 128.72 5.89994 128.94 5.68994L129.05 5.66992C129.23 6.52992 129.96 6.68994 131.51 6.68994H138.83L138.84 6.69995Z" fill="white"/>
</svg>
