<?xml version="1.0" encoding="utf-8"?>
<!-- Generator: Adobe Illustrator 25.2.3, SVG Export Plug-In . SVG Version: 6.00 Build 0)  -->
<svg version="1.1" id="圖層_1" xmlns="http://www.w3.org/2000/svg" xmlns:xlink="http://www.w3.org/1999/xlink" x="0px" y="0px"
	 viewBox="0 0 200 70" style="enable-background:new 0 0 200 70;" xml:space="preserve">
<style type="text/css">
	.st0{fill:#00404B;}
	.st1{fill:#C79F62;}
</style>
<path class="st0" d="M2.8,3h2.7C6,2.3,6.4,1.9,6.6,1.9s0.5,0.2,1.1,0.6c0.5,0.4,0.8,0.7,0.8,0.8S8.4,3.6,8.2,3.7
	C7.9,4,7.7,4.1,7.7,4.2v5.9c0.1,2.3,0.1,3.8,0.1,4.4c0,0.5-0.4,0.7-1.1,0.7c-0.5,0-0.8-0.1-0.9-0.4v-1.3H3.1v1.7
	c-0.1,0.4-0.5,0.6-1.2,0.6c-0.4,0-0.7-0.1-0.8-0.2c0-2.1,0-4.2,0.1-6.2V5.3c0-1.7-0.1-2.8-0.1-3.1L2.8,3z M5.8,7.9V3.5H3.1v4.4H5.8z
	 M5.8,13.1V8.5H3.1v4.6H5.8z M11.1,14.6c-0.3,0.9-0.8,1.8-1.8,2.7c-1.2,1.3-2.5,2.1-3.7,2.5c-0.1,0-0.2-0.1-0.3-0.2
	c1.4-1,2.6-2.2,3.4-3.8c0.8-1.2,1.2-3.2,1.2-6.1c0-3.3,0-5.3,0-6.1c0-0.7,0-1.4-0.1-2.3l2.2,1h3.7c0.4-0.6,0.8-1,1-1.2
	c0.2,0,0.5,0.2,1.1,0.5c0.6,0.4,0.9,0.7,0.9,0.9c0,0.1-0.1,0.3-0.4,0.4c-0.3,0.2-0.4,0.3-0.5,0.4v13.4c0,1.4-0.8,2.2-2.3,2.5
	c-0.2,0-0.4-0.1-0.4-0.4c-0.2-0.5-0.7-1-1.2-1.2c-0.8-0.3-1.4-0.5-1.7-0.6c0,0,0-0.1,0-0.4c0.8,0.1,1.9,0.1,3.3,0.1
	c0.3,0,0.5-0.2,0.5-0.5v-4h-4.3C11.4,13.3,11.3,14,11.1,14.6z M11.7,9.7c0,0.8,0,1.6-0.1,2.2h4.3V7.5h-4.2V9.7z M11.7,7h4.2V2.9
	h-4.2V7z"/>
<path class="st0" d="M38.5,12.5c0.9,0.8,1.3,1.2,1.3,1.4s-0.1,0.3-0.2,0.3h-7.1c1,0.9,2,1.6,3.2,2c1.2,0.5,2.6,0.7,4.2,0.8
	c0,0.2,0,0.3-0.1,0.4c-0.1,0-0.3,0.2-0.5,0.4c-0.1,0.1-0.3,0.4-0.4,0.8c-0.1,0.3-0.2,0.4-0.4,0.4c-0.7,0-1.8-0.5-3.4-1.4
	c-1.4-0.8-2.4-1.9-3.1-3.3h-0.3l0.1,5.1c0,0.4-0.4,0.6-1.2,0.7c-0.6,0-0.9-0.2-0.9-0.5c0-1.6,0-3.1,0-4.5c-1.5,1.7-4.3,3-8.5,4
	c-0.1,0-0.2-0.1-0.3-0.3c3.4-1.2,5.6-2.6,6.7-4c0.2-0.2,0.3-0.4,0.4-0.5h-1.6c-2.4,0-4,0.1-4.6,0.3c-0.1-0.4-0.3-0.7-0.5-1.1
	c1,0.1,2.8,0.2,5.2,0.2h3.1v-0.2c0-0.7-0.1-1.2-0.1-1.6c-0.6,0.2-1.3,0.4-2,0.5c0,0-0.1-0.1-0.2-0.3c1.7-0.6,2.9-1.5,3.7-2.7
	c-0.6-0.4-1.1-0.7-1.7-0.9c0,0,0.1-0.1,0.1-0.3c0.7,0.1,1.4,0.2,1.9,0.4c0.2-0.5,0.3-1,0.3-1.4c-0.8,0-1.4,0.1-1.7,0.2
	c-0.1-0.3-0.3-0.7-0.4-1c0.3,0.1,1,0.2,2,0.2h3.6c0.2-0.3,0.4-0.5,0.6-0.7c-0.4,0-0.6-0.2-0.7-0.7c0-0.1-0.1-0.3-0.1-0.5
	s-0.1-0.3-0.1-0.5c-0.1-0.2-0.2-0.4-0.3-0.5h-1.6c-0.2,0.2-0.4,0.4-0.5,0.5c-0.7,0.6-1.4,1.2-2.2,1.6c0,0-0.1-0.1-0.2-0.2
	C31.3,4,32.2,2.5,32.5,1c1.8,0.5,2.7,0.9,2.7,1.1S34.8,2.4,34,2.5c-0.1,0.2-0.3,0.4-0.4,0.6H37c0.5-0.8,0.9-1.2,1.1-1.3h0.1
	c0.1,0.1,0.4,0.3,0.8,0.6c0.5,0.5,0.8,0.8,0.9,1c0,0.2-0.1,0.3-0.1,0.3h-4.4C36.2,4,36.6,4.4,36.6,5c0,0.3-0.1,0.6-0.3,0.7
	c0.3,0.1,0.6,0.4,1,0.6C37.8,6.7,38,7,38,7.1c0,0.2-0.3,0.5-0.9,0.8v1.9c0,0.5,0.2,0.7,0.6,0.8c0,0,0,0,0.1,0c0.5,0,0.7-0.1,0.8-0.3
	c0.2-0.3,0.4-0.9,0.5-1.7c0,0,0.1,0.1,0.4,0.1c0,0.3,0,0.7,0,1.2c0,0.2,0.1,0.4,0.3,0.5c0.3,0.1,0.5,0.4,0.5,0.6
	c0,0.3-0.1,0.4-0.1,0.5c-0.2,0.4-0.6,0.6-1.2,0.7c-0.3,0.1-0.5,0.1-0.8,0.1s-0.5,0-0.7,0c-1.2,0-1.8-0.6-1.9-1.9V7.3h-1.9
	c-0.1,0.9-0.3,1.5-0.5,1.8v0.1c1.1,0.5,1.7,1,1.7,1.7c0,0.2,0,0.3-0.1,0.5c-0.1,0.3-0.3,0.4-0.6,0.4s-0.7-0.3-1.2-0.9
	c-0.2-0.2-0.4-0.4-0.6-0.5c-0.6,0.7-1.4,1.2-2.4,1.5c2,0.3,3,0.6,3,0.8c0,0.1-0.1,0.3-0.4,0.4c-0.4,0.2-0.7,0.3-0.7,0.4v0.3h4.8
	c0.6-0.8,1.1-1.3,1.4-1.4c0,0,0.1,0,0.2,0C38.1,12.3,38.3,12.4,38.5,12.5z M24.8,3.5c-1,1.3-2.2,2.2-3.5,2.9
	c-0.1-0.1-0.2-0.2-0.4-0.2C22.3,4.8,23.4,3,24,0.7c1.8,0.6,2.7,0.9,2.7,1.1c0,0.3-0.4,0.4-1,0.5c-0.1,0.2-0.3,0.4-0.4,0.6H28
	c0.5-0.8,0.9-1.2,1.1-1.3h0.1c0.2,0.1,0.4,0.3,0.8,0.6c0.5,0.5,0.8,0.8,0.9,1c0,0.2-0.1,0.3-0.1,0.3h-4.6c1,0.3,1.6,0.9,1.6,1.6
	c0,0.6-0.3,0.9-0.9,0.9c-0.4,0-0.6-0.2-0.7-0.7c0-0.1-0.1-0.3-0.1-0.6c0-0.2-0.1-0.4-0.1-0.6c-0.1-0.3-0.3-0.5-0.4-0.7L24.8,3.5
	L24.8,3.5z M24.1,7.4c-0.9,0-1.6,0.1-2,0.2c-0.1-0.3-0.2-0.5-0.3-0.8c0.4,0.1,1.2,0.1,2.3,0.1H27c0.3-0.4,0.5-0.7,0.8-1
	C27.9,5.8,28,5.8,28,5.8c0.1,0,0.2,0.1,0.4,0.2c0.7,0.6,1.1,1,1.2,1.2c0,0.2-0.1,0.3-0.1,0.3h-3v2.7c1.1-0.1,2.1-0.2,2.9-0.4
	l0.1,0.1c-1.6,0.8-3.8,1.6-6.7,2.1c0,0.4-0.1,0.5-0.2,0.5s-0.2-0.2-0.4-0.5c-0.2-0.3-0.4-0.9-0.7-1.6c1.2,0,2.3-0.1,3.3-0.2V7.4
	H24.1z"/>
<path class="st0" d="M49.4,7.6c0.7,0.6,1.1,1,1.1,1.2s-0.1,0.3-0.2,0.3h-2.1v5.5c0.7-0.4,1.4-0.9,2.2-1.4c0,0,0,0.2,0.1,0.4
	c-0.9,1.2-2,2.4-3.3,3.7c0,0.1-0.1,0.4-0.1,0.8c0,0.1-0.1,0.2-0.2,0.2c-0.2,0-0.7-0.7-1.5-2.2c0.3,0,0.7-0.2,1.2-0.5V9.1h-1
	c-0.1,1.9-0.1,3.2-0.3,3.9c-0.5,3.5-1.5,5.8-3.1,6.7c0-0.1-0.1-0.1-0.2-0.2c0.9-1.4,1.5-3.8,1.8-7c0.1-1.2,0.1-2.3,0.1-3.4
	c-0.9,0-1.5,0.1-1.7,0.3c-0.1-0.4-0.3-0.7-0.5-1.1c0.4,0.1,1.1,0.2,2,0.2h1.5V2.7c0-0.8,0-1.4-0.1-1.9c1.7,0.3,2.5,0.5,2.5,0.7
	s-0.1,0.3-0.3,0.3c-0.4,0.1-0.5,0.3-0.5,0.4v6.3h0.9c0.5-0.6,0.9-1,1.2-1.2H49C49,7.4,49.2,7.5,49.4,7.6z M44.6,5.9
	c0,0.5-0.1,0.8-0.3,1c-0.2,0.3-0.4,0.4-0.8,0.4c-0.2,0-0.4-0.4-0.4-1.1c-0.2-1.4-0.5-2.5-0.9-3.2l0.3-0.2C43.9,4,44.6,5,44.6,5.9z
	 M50.4,3.4c0.8-0.6,1.2-1.4,1.3-2.3h0.4c0,0.3,0.1,0.6,0.1,1h6c0.5-0.6,0.9-0.9,1.2-1c0.2,0.1,0.5,0.3,0.9,0.7
	c0.5,0.5,0.8,0.8,0.8,1s-0.2,0.3-0.5,0.3s-0.4,0.1-0.5,0.1C59.6,3.6,58.8,4,58,4.4c-0.1,0-0.2-0.1-0.2-0.2c0.3-0.5,0.5-1.1,0.6-1.6
	h-6.2v0.1C52.2,4.3,51.8,5,51,5c-0.7,0-1.1-0.2-1.1-0.7c0-0.2,0.1-0.4,0.2-0.6c-0.2,0-0.3,0.1-0.5,0.1c-0.4,1.1-1,2.3-1.9,3.5
	c-0.1,0-0.3-0.1-0.5-0.1C47.6,5.6,48,4,48.1,2.3C49.5,2.8,50.3,3.2,50.4,3.4z M59.4,4.7c0.7,0.7,1.1,1.1,1.1,1.2
	c0,0.2-0.1,0.3-0.2,0.3h-4.5v1.6h1.4C57.7,7.3,58,7,58.2,7s0.5,0.2,1,0.6s0.7,0.6,0.7,0.8c0,0.1-0.1,0.3-0.3,0.4
	c-0.3,0.2-0.4,0.4-0.5,0.4v2.6c0.1,1,0.1,1.7,0.1,2c0,0.4-0.4,0.7-1,0.7c-0.5,0-0.8-0.1-0.8-0.4v-0.3h-1.7v1.5c0,0.2,0,0.4,0,0.5
	h2.4c0.5-0.6,0.9-1,1.2-1.2h0.1c0.1,0.1,0.3,0.2,0.4,0.3c0.7,0.6,1.1,1,1.1,1.2s-0.1,0.3-0.2,0.3h-5c0,1.4,0,2.5,0.1,3.1
	c0,0.3-0.4,0.5-1.2,0.5c-0.4,0-0.6-0.1-0.6-0.4c0-0.6,0-1.7,0.1-3.2h-1.5c-1.5,0-2.4,0.1-2.8,0.2c-0.1-0.4-0.3-0.7-0.5-1.1
	c0.6,0.1,1.6,0.2,3,0.2h1.8v-2h-1.7v0.4c-0.1,0.4-0.4,0.6-1.1,0.6c-0.4,0-0.6-0.1-0.7-0.2c0-1.1,0-2.2,0.1-3.3V9
	c0-0.9-0.1-1.5-0.1-1.7l1.6,0.6h2V6.3h-0.9c-1.3,0-2.1,0.1-2.4,0.3c-0.1-0.4-0.3-0.7-0.5-1.1c0.5,0.1,1.3,0.2,2.5,0.2h1.3V5
	c0-0.6-0.1-1.2-0.2-1.7c0.6,0.1,1.2,0.2,1.9,0.3c0.5,0.1,0.7,0.2,0.7,0.4c0,0.1-0.1,0.2-0.3,0.3c-0.3,0.1-0.5,0.2-0.5,0.3v1.2h1.8
	c0.5-0.6,0.9-1,1.2-1.2h0.1C59.1,4.5,59.2,4.6,59.4,4.7z M54.2,10.4v-2h-1.7v2H54.2z M54.2,13.1v-2.2h-1.7v2.2H54.2z M55.8,10.4h1.7
	v-2h-1.7V10.4z M55.8,13.1h1.7v-2.2h-1.7V13.1z"/>
<path class="st0" d="M80.1,10.9c0.8,0.7,1.2,1.1,1.2,1.3s-0.1,0.3-0.2,0.3h-7.6V15h3.1c0.3-0.4,0.6-0.8,1-1.2
	c0.1-0.1,0.2-0.2,0.2-0.2c0.1,0,0.2,0.1,0.4,0.2c0.8,0.7,1.2,1.2,1.3,1.4c0,0.2-0.1,0.3-0.2,0.3h-5.9v2.9h4.9
	c0.7-0.9,1.2-1.4,1.5-1.6c0,0,0.1,0,0.2,0c0.2,0.1,0.4,0.2,0.6,0.4c0.9,0.8,1.4,1.3,1.4,1.6c0,0.2-0.1,0.3-0.2,0.3H68.1
	c-2.5,0-4.1,0.1-4.7,0.2c-0.1-0.4-0.3-0.7-0.5-1.1c1,0.1,2.9,0.2,5.4,0.2h3.3v-2.9H68c-0.9,0-1.6,0.1-2,0.1
	c-0.1-0.2-0.2-0.5-0.3-0.8c0.4,0.1,1.2,0.1,2.3,0.1h3.5v-2.5h-2.8c-2.3,0-3.7,0.1-4.2,0.3c-0.1-0.4-0.3-0.7-0.5-1.1
	c1,0.1,2.6,0.2,4.9,0.2h9.4c0.6-0.7,1-1.2,1.3-1.3c0,0,0.1,0,0.2,0C79.8,10.7,80,10.8,80.1,10.9z M73.6,1.6c0,0.1-0.2,0.2-0.5,0.2
	s-0.5,0.1-0.6,0.1c-0.4,0.5-0.9,1-1.6,1.4h6.3c0.5-0.7,0.9-1.1,1.1-1.1s0.5,0.2,1.1,0.6c0.5,0.4,0.8,0.7,0.8,0.8S80.1,3.9,79.8,4
	c-0.4,0.2-0.6,0.4-0.6,0.5v3c0.1,1.2,0.1,1.9,0.1,2.2c0,0.5-0.4,0.7-1.1,0.7c-0.5,0-0.8-0.1-0.9-0.4V9.6h-9.7v0.5
	c-0.1,0.4-0.5,0.6-1.2,0.6c-0.4,0-0.7-0.1-0.8-0.2c0-1.3,0-2.5,0.1-3.7V4.4c0-1-0.1-1.6-0.1-1.8l1.8,0.7h2.9
	c0.3-0.8,0.4-1.7,0.5-2.6C72.6,1.1,73.6,1.4,73.6,1.6z M77.4,4h-9.7v2.3h9.7V4z M67.6,9.3h9.7V6.9h-9.7V9.3z"/>
<path class="st0" d="M44.7,48.2c-0.5,0-1,0-1.4,0.1c-0.4,0-0.8,0.1-0.9,0.1s-0.2,0-0.3-0.2s-0.1-0.3,0.1-0.4c1.3-1.2,3.8-3.4,6-5.8
	c2.2-2.4,3.5-4.6,3.4-7c-0.1-2.5-1.6-4-3.6-3.9c-2.4,0-3.3,1.9-3.8,2.7C44.1,34,44,34,43.9,33.9l-0.4-0.2c-0.1-0.1-0.1-0.1,0-0.4
	c0.4-1.1,1.8-4.2,5.6-4.2c2.4,0,4.9,1.9,4.9,5.1c0,2.4-1,4.4-3.5,7.2c-1.9,2.2-4.1,3.8-5.3,4.9h5.7c1.9,0,2.6-1.3,3.2-2.4
	c0.1-0.3,0.2-0.3,0.5-0.1c0.2,0.1,0.3,0.2,0.2,0.4L53,48.6c-0.1,0.3,0.1,0.3-0.4,0.3c-0.3,0-0.3,0-0.4-0.3c-0.2-0.4-0.7-0.4-1.5-0.4
	H44.7z"/>
<path class="st0" d="M65.5,32.3c0,0.2-0.5,0.3-1.4,0.5c-0.8,1.4-1.7,2.8-2.7,4c-1.2,1.5-2.5,2.7-4.1,3.7c0,0-0.1-0.1-0.2-0.3
	c2.9-3.1,4.7-6.2,5.4-9.2C64.5,31.6,65.5,32.1,65.5,32.3z M60.3,39.5c-0.1-0.3-0.2-0.7-0.4-1c0.8,0.2,2.1,0.3,3.8,0.3H70
	c0.5-0.6,0.9-0.9,1.2-0.9c1.1,0.7,1.7,1.2,1.7,1.6c0,0.1-0.1,0.3-0.4,0.4c-0.3,0.2-0.5,0.3-0.5,0.5c-0.2,3.6-0.6,5.9-1.1,6.9
	c-0.6,1.1-1.5,1.7-2.8,1.7c-0.2,0-0.3-0.2-0.4-0.7c-0.1-0.4-0.4-0.8-0.9-1c-0.4-0.3-0.9-0.5-1.6-0.8c0.1-0.1,0.1-0.3,0.1-0.4
	c0.8,0.2,1.7,0.3,2.6,0.3c0.8,0,1.2-0.3,1.4-0.8c0.4-0.9,0.7-3,0.8-6.2h-4.7c0,0.8-0.1,1.2-0.1,1.2c-0.6,4.5-3.3,7.4-8,8.7
	c-0.1,0-0.1-0.1-0.2-0.1c3.5-1.8,5.6-4.7,6.2-9c0-0.2,0-0.4,0-0.8C61.9,39.3,60.9,39.4,60.3,39.5z M70.8,31.5c0,0.2-0.2,0.3-0.7,0.4
	c-0.3,0.1-0.5,0.1-0.5,0.3c0,0.7,0.5,1.6,1.6,2.7c1.5,1.5,3.1,2.4,4.9,2.9c0,0.2,0,0.3-0.1,0.4c-0.4,0-0.8,0.1-0.9,0.4
	c-0.2,0.7-0.5,1-0.7,1c-0.7-0.1-1.6-0.7-2.6-2c-1.5-1.6-2.5-3.5-3-5.8h-1.3c-0.8,0-1.3,0-1.6,0.1c-0.1-0.3-0.3-0.6-0.4-0.9
	c0.4,0.1,1,0.2,1.8,0.2h1.1c0.5-0.7,0.8-1,1-1C70.3,30.8,70.8,31.3,70.8,31.5z"/>
<path class="st0" d="M83.5,30.9c0,0.2-0.3,0.4-0.9,0.4c0,0.1-0.1,0.1-0.1,0.1c2.2,0.7,3.3,1.5,3.4,2.5c0,0.4-0.1,0.7-0.2,0.8
	c-0.1,0.1-0.3,0.2-0.5,0.2c-0.3,0-0.7-0.4-1.1-1.1c-0.5-0.7-1.1-1.4-1.8-2c-0.8,1.6-1.7,2.9-2.8,3.9c0.5,0.1,1.1,0.1,2,0.1h0.7
	c0.3-0.4,0.6-0.8,0.9-1.1c0.1-0.1,0.2-0.1,0.2-0.1c0.1,0,0.2,0.1,0.4,0.2c0.7,0.7,1.2,1.1,1.2,1.3s-0.1,0.3-0.2,0.3h-2.3V39h0.5
	c0.3-0.4,0.5-0.7,0.8-1c0.1-0.1,0.2-0.1,0.2-0.1c0.1,0,0.2,0.1,0.4,0.2c0.7,0.6,1.1,1,1.2,1.2c0,0.2-0.1,0.3-0.1,0.3h-2.9v6.3
	c1.2-0.2,2.1-0.4,2.8-0.7c0.1,0.1,0.1,0.3,0.2,0.3c-1.2,0.8-3.2,1.6-6.1,2.5c-0.1,0.6-0.2,0.9-0.4,0.9c-0.1,0-0.3-0.3-0.5-0.8
	c-0.2-0.6-0.4-1.2-0.6-2.1c0.4,0.1,1,0.1,1.9,0.1c0.3,0,0.7,0,1-0.1v-6.6h-0.4c-0.9,0-1.5,0.1-2,0.1c-0.1-0.2-0.2-0.5-0.3-0.8
	c0.4,0.1,1.2,0.1,2.3,0.1h0.4v-2.6c-0.5,0-1,0.1-1.3,0.1c-0.1-0.2-0.1-0.4-0.2-0.6c-0.4,0.4-0.8,0.7-1.3,1c-0.1-0.1-0.2-0.1-0.3-0.2
	c1.6-1.8,2.8-4,3.4-6.7C82.7,30.5,83.5,30.8,83.5,30.9z M80.3,43.9c0,0.7-0.3,1-1,1c-0.4,0-0.5-0.2-0.6-0.6c0-0.1,0-0.3,0.1-0.6
	c0-0.2,0.1-0.4,0.1-0.8c0-0.9-0.2-1.6-0.5-2.1l0.1-0.1C79.6,41.6,80.3,42.7,80.3,43.9z M85.4,41.1c0.4,0.1,0.5,0.3,0.6,0.3
	c0,0.1-0.1,0.2-0.3,0.2c-0.3,0.1-0.5,0.1-0.6,0.2c-0.3,1.2-1,2.1-2,2.8l-0.2-0.1c0.5-1.1,0.8-2.4,0.9-4C84.5,40.8,85.1,41,85.4,41.1
	z M87.9,38h5.6c0.5-0.5,0.8-0.8,1-0.8s0.5,0.2,1,0.6c0.5,0.4,0.7,0.6,0.7,0.8c0,0.1-0.1,0.2-0.3,0.4c-0.3,0.2-0.5,0.4-0.5,0.4v2.2
	c0.1,0.9,0.1,1.4,0.1,1.7c0,0.4-0.3,0.7-1,0.7c-0.5,0-0.8-0.1-0.8-0.4v-0.1h-2v1.8h1.7c0.5-0.5,0.8-0.9,1-1h0.1
	c0.1,0.1,0.3,0.2,0.4,0.3c0.7,0.6,1,0.9,1,1.1c0,0.2-0.1,0.3-0.2,0.3h-4.1v2h2.1c0.6-0.7,1-1.1,1.3-1.3h0.1c0.1,0.1,0.3,0.2,0.5,0.3
	c0.8,0.7,1.2,1.1,1.2,1.3s-0.1,0.3-0.2,0.3h-9c-1.6,0-2.7,0.1-3.1,0.3c-0.1-0.4-0.3-0.7-0.5-1.1c0.6,0.1,1.7,0.2,3.3,0.2h2.3v-2
	h-1.2c-1.3,0-2.1,0.1-2.5,0.3c-0.1-0.4-0.3-0.7-0.5-1.1c0.5,0.1,1.4,0.2,2.7,0.2h1.5v-1.8h-1.8V44c-0.1,0.4-0.4,0.6-1.1,0.6
	c-0.4,0-0.6-0.1-0.7-0.2c0-1.1,0-2.1,0.1-3.1V39c0-0.9-0.1-1.4-0.1-1.6L87.9,38z M95.1,34.3c0,0.1-0.3,0.3-0.9,0.5
	c-0.4,0.5-0.9,1-1.7,1.3h1.8c0.5-0.6,0.9-1,1.2-1.2h0.2c0.1,0.1,0.3,0.2,0.4,0.3c0.7,0.6,1.1,1,1.1,1.2s-0.1,0.3-0.2,0.3h-8.3
	c-1.5,0-2.5,0.1-2.8,0.2c-0.1-0.4-0.3-0.7-0.5-1.1C86,35.9,87,36,88.5,36h0.4c-0.1-0.2-0.3-0.4-0.4-0.8c-0.3-0.7-0.5-1.2-0.9-1.7
	c0.1,0,0.1-0.1,0.1-0.3c1.5,0.2,2.2,0.7,2.3,1.6c0,0.3,0,0.5-0.1,0.7s-0.2,0.3-0.3,0.4h2.1c0.6-1,0.9-1.9,1-2.9
	C94.3,33.8,95.1,34.1,95.1,34.3z M95.5,31.6c0.7,0.6,1.1,1,1.1,1.2s-0.1,0.3-0.2,0.3H89c-1.3,0-2.2,0.1-2.5,0.3
	c-0.1-0.4-0.3-0.7-0.5-1.1c0.5,0.1,1.4,0.2,2.7,0.2h2.1c-0.2-0.1-0.4-0.4-0.6-0.7c-0.4-0.6-0.8-1.1-1.4-1.5c0.1,0,0.1-0.1,0.1-0.2
	c2,0.2,3,0.6,3.1,1.4c0,0.3,0,0.5-0.1,0.7c-0.1,0.2-0.2,0.3-0.3,0.4h2.2c0.5-0.6,0.9-1,1.2-1.2h0.1C95.2,31.4,95.3,31.5,95.5,31.6z
	 M90,40.5v-1.9h-1.8v1.9H90z M90,42.9V41h-1.8v1.9H90z M93.8,40.5v-1.9h-2v1.9H93.8z M93.8,42.9V41h-2v1.9H93.8z"/>
<g>
	<rect y="69.2" class="st1" width="13" height="0.8"/>
</g>
<g>
	<path class="st0" d="M3.2,33c0.6,0.1,1.5,0.2,2.7,0.2h3v-0.9c0-0.6-0.1-1.2-0.2-1.8c0.9,0.1,1.8,0.2,2.7,0.4c0.5,0,0.8,0.2,0.8,0.4
		c0,0.1-0.2,0.2-0.5,0.3c-0.4,0.1-0.5,0.3-0.5,0.5v1h2.5c0.1,0,0.3-0.3,0.7-0.9c0.5-0.7,0.8-1,0.9-1c0.3,0,0.7,0.3,1.3,0.9
		c0.6,0.6,0.9,1,0.9,1.2c0,0.2-0.1,0.3-0.4,0.3h-5.9v2.7h4c0.1,0,0.3-0.3,0.8-0.9c0.5-0.7,0.9-1,1-1c0.3,0,0.7,0.3,1.3,0.9
		c0.6,0.6,0.9,1,0.9,1.2c0,0.2-0.1,0.3-0.4,0.3H13c0.4,0.1,0.8,0.3,1.2,0.4c0.6,0.2,0.9,0.5,0.9,0.7c0,0.1-0.1,0.2-0.4,0.2
		c-0.3,0-0.4,0.1-0.5,0.1c-0.6,0.8-1.3,1.5-2.2,2.1h2.2c0.1,0,0.3-0.3,0.6-0.8c0.5-0.6,0.7-0.9,0.8-0.9c0.3,0,0.7,0.3,1.2,0.9
		c0.6,0.6,0.8,0.9,0.8,1.1c0,0.2-0.1,0.3-0.4,0.3h-5.9V44h3.8c0.1,0,0.3-0.3,0.8-0.9c0.6-0.7,0.9-1,1-1c0.3,0,0.7,0.3,1.3,1
		c0.6,0.7,0.9,1.1,0.9,1.2c0,0.2-0.1,0.3-0.4,0.3h-7.4c0,1.5,0,2.6,0.1,3.5c0,0.3-0.4,0.5-1.2,0.6c-0.3,0.1-0.6,0.1-0.8,0.1
		c-0.4,0-0.6-0.2-0.6-0.7C9,47.2,9,46.1,9,44.6H4.1c-1.1,0-2,0-2.4,0.1l-0.3-0.8C2,43.9,2.9,44,4.1,44H9v-2.9H5.3
		c-1.1,0-1.9,0-2.4,0.1l-0.3-0.8c0.6,0.1,1.5,0.1,2.7,0.1h5.8c0.5-1.1,0.8-2.3,1.1-3.6H3.9c-1.1,0-1.9,0-2.4,0.1l-0.3-0.8
		c0.6,0.1,1.5,0.1,2.7,0.1H9v-2.7H6c-1.1,0-2,0-2.4,0.1L3.2,33z M6,37.1c1,0.2,1.7,0.5,2.1,0.8c0.4,0.3,0.5,0.6,0.5,0.9
		c0,0.4-0.2,0.8-0.5,1.1c-0.2,0.3-0.5,0.4-0.9,0.4c-0.2,0-0.4-0.3-0.5-0.8c-0.2-0.7-0.5-1.4-1-2.1L6,37.1z"/>
	<path class="st0" d="M21.1,35.7c0.6,0.1,1.5,0.2,2.7,0.2h1.6c0.1,0,0.3-0.2,0.6-0.7c0.5-0.5,0.7-0.8,0.8-0.8c0.2,0,0.6,0.3,1.1,0.8
		c0.5,0.5,0.7,0.8,0.7,1c0,0.2-0.1,0.3-0.3,0.3h-2.8v9.1c0,1.1,0,2,0.1,2.7c0,0.2-0.3,0.4-0.9,0.5c-0.3,0-0.4,0.1-0.6,0.1
		c-0.3,0-0.5-0.2-0.5-0.6c0.1-0.6,0.1-1.5,0.1-2.7v-6.4c-0.1,0-0.1,0.1-0.2,0.1c-0.2,0.1-0.4,0.2-0.4,0.3c-0.1,1.9-0.2,3.2-0.4,4
		c-0.2,0.8-0.4,1.4-0.7,2c-0.3,0.5-0.6,0.9-1.1,1.4L21,46.6c0.1-0.5,0.2-1,0.3-1.7c0.1-0.6,0.1-1.3,0.2-2.2c0-0.9,0.1-1.8,0.1-2.6
		v-1.9c0.5,0.1,0.9,0.1,1.4,0.3c0.4,0.1,0.7,0.2,0.8,0.2v-2.3c-1.1,0-1.9,0-2.3,0.1L21.1,35.7z M21.8,32.1c0.6,0.1,1.5,0.1,2.7,0.1
		h0.2c0.1,0,0.2-0.2,0.6-0.6c0.4-0.5,0.7-0.8,0.8-0.8c0.2,0,0.5,0.2,1,0.7c0.5,0.5,0.7,0.8,0.7,0.9c0,0.2-0.1,0.3-0.3,0.3h-2.8
		c-1.1,0-1.9,0-2.4,0.1L21.8,32.1z M26.1,38.4c0.5,0.1,1.1,0.1,1.8,0.3c0.5,0.1,0.8,0.2,0.8,0.3c0,0.2-0.1,0.3-0.4,0.4
		c-0.2,0.1-0.3,0.2-0.3,0.4V42c0,0.9,0,1.8,0.1,2.7c0,0.2-0.3,0.3-0.8,0.4c-0.2,0-0.4,0.1-0.5,0.1c-0.3,0-0.5-0.2-0.5-0.5
		c0.1-1,0.1-1.9,0.1-2.7v-0.9C26.3,40.1,26.2,39.2,26.1,38.4z M28.5,32.1c0.6,0.1,1.5,0.1,2.7,0.1h4.4c0.1,0,0.3-0.3,0.7-0.8
		c0.5-0.6,0.8-0.9,0.9-0.9c0.3,0,0.7,0.3,1.3,0.9c0.6,0.6,0.9,1,0.9,1.1c0,0.2-0.1,0.3-0.4,0.3h-7.7c-1.1,0-1.9,0-2.4,0.1L28.5,32.1
		z M28.5,39.6c0.8,0.2,1.7,0.5,2.5,0.9h4.8c0.3-0.3,0.6-0.5,0.8-0.7c0.2-0.2,0.4-0.3,0.6-0.3c0.2,0,0.5,0.2,1.1,0.5
		c0.7,0.5,1,0.8,1,1c0,0.2-0.1,0.4-0.4,0.6c-0.2,0.2-0.3,0.4-0.3,0.6v3.3c0,0.6,0,1.5,0.1,2.6c0,0.3-0.3,0.5-1,0.6
		c-0.3,0-0.5,0.1-0.7,0.1c-0.4,0-0.5-0.2-0.5-0.6v-0.6h-5.8v0.7c0,0.3-0.3,0.5-1,0.6c-0.3,0-0.5,0.1-0.6,0.1c-0.4,0-0.6-0.2-0.6-0.6
		c0.1-0.7,0.1-1.3,0.1-2v-3.8C28.7,41.4,28.6,40.5,28.5,39.6z M29.6,33.7c0.8,0.2,1.6,0.5,2.5,0.9h3.2c0.2-0.3,0.4-0.5,0.6-0.7
		c0.2-0.2,0.3-0.3,0.5-0.3c0.2,0,0.6,0.2,1.2,0.6c0.7,0.4,1,0.7,1,0.9c0,0.1-0.1,0.3-0.4,0.4c-0.2,0.1-0.3,0.3-0.4,0.4v2.8
		c0,0.2-0.3,0.4-1,0.5c-0.3,0-0.5,0.1-0.7,0.1c-0.4,0-0.5-0.2-0.5-0.6v-0.5h-3.8V39c0,0.3-0.3,0.5-0.9,0.6c-0.3,0-0.5,0.1-0.6,0.1
		c-0.4,0-0.6-0.2-0.6-0.6c0.1-0.6,0.1-1.2,0.1-1.9v-0.8C29.7,35.4,29.7,34.5,29.6,33.7z M30.8,43.6h1.8V41h-1.8V43.6z M30.8,46.9
		h1.8v-2.8h-1.8V46.9z M31.8,37.8h3.8v-2.7h-3.8V37.8z M34.7,41v2.6h1.9V41H34.7z M34.7,46.9h1.9v-2.8h-1.9V46.9z"/>
</g>
</svg>
