<?xml version="1.0" encoding="utf-8"?>
<!-- Generator: Adobe Illustrator 25.2.3, SVG Export Plug-In . SVG Version: 6.00 Build 0)  -->
<svg version="1.1" id="圖層_1" xmlns="http://www.w3.org/2000/svg" xmlns:xlink="http://www.w3.org/1999/xlink" x="0px" y="0px"
	 viewBox="0 0 380 13" style="enable-background:new 0 0 380 13;" xml:space="preserve">
<style type="text/css">
	.st0{fill:#00404B;}
</style>
<path class="st0" d="M3.1,3.1c0,0.4-0.2,0.7-0.6,0.9C2.2,4.2,1.8,4.2,1.3,4.2c-0.1,0-0.3,0-0.8,0V0.1h0.7c0.4,0,0.7,0.1,1,0.2
	C2.5,0.5,2.7,0.7,2.7,1c0,0.2-0.1,0.4-0.2,0.6C2.3,1.8,2.2,1.9,2,2c0.3,0.1,0.5,0.2,0.7,0.3C3,2.6,3.1,2.8,3.1,3.1z M2.7,3.1
	c0-0.3-0.1-0.6-0.3-0.8C2.2,2.2,2,2.1,1.7,2.1H1.4V2h0.2c0.3,0,0.5-0.1,0.6-0.3c0.1-0.2,0.2-0.4,0.2-0.6c0-0.6-0.4-0.9-1.1-0.9H1
	v3.9h0.2C2.2,4.2,2.7,3.8,2.7,3.1z"/>
<path class="st0" d="M6.3,2.7H4.7V2.6h1.2c0-0.5-0.2-0.8-0.6-0.8C5,1.8,4.8,1.9,4.7,2.1C4.5,2.3,4.5,2.6,4.5,3s0.1,0.7,0.2,0.9
	c0.2,0.2,0.4,0.3,0.7,0.3c0.3,0,0.6-0.1,0.8-0.4L6.3,4C6.1,4.2,5.8,4.4,5.4,4.4S4.7,4.3,4.5,4C4.3,3.7,4,3.4,4,3s0.1-0.7,0.4-0.9
	c0.2-0.3,0.5-0.4,0.9-0.4C5.6,1.7,5.8,1.8,6,2C6.2,2.1,6.3,2.4,6.3,2.7z"/>
<path class="st0" d="M9,2.6v1.7H8.6V4.1C8.5,4.3,8.2,4.3,8,4.3c-0.3,0-0.5-0.1-0.6-0.2C7.2,4,7.1,3.7,7.1,3.5c0-0.3,0.1-0.5,0.3-0.6
	C7.6,2.8,7.8,2.7,8,2.7c0.1,0,0.1,0,0.2,0c0.1,0,0.2,0.1,0.3,0.1L8.4,2.9C8.3,2.8,8.1,2.8,8,2.8C7.8,2.8,7.7,2.9,7.6,3
	C7.5,3.1,7.5,3.3,7.5,3.5S7.6,3.9,7.7,4c0.1,0.1,0.2,0.2,0.4,0.2c0.3,0,0.5-0.1,0.6-0.4V2.6c0-0.6-0.2-0.8-0.6-0.8
	C7.9,1.8,7.7,1.9,7.5,2L7.4,1.9c0.2-0.1,0.4-0.2,0.7-0.2C8.7,1.6,9,2,9,2.6z"/>
<path class="st0" d="M12.2,4.3h-0.4V3.9c-0.2,0.3-0.5,0.5-0.8,0.5c-0.6,0-0.9-0.3-0.9-0.9V1.8h0.4v1.7c0,0.5,0.2,0.8,0.6,0.8
	c0.2,0,0.4-0.1,0.6-0.4c0.1-0.1,0.1-0.3,0.2-0.5V1.7h0.4v2.6H12.2z"/>
<path class="st0" d="M13.8,1.8v1.6c0,0.3,0,0.4,0.1,0.6c0.1,0.1,0.2,0.2,0.4,0.2v0.1c-0.6,0-0.9-0.3-0.9-0.8V1.9h-0.2V1.8h0.2V1.5
	h0.4V1.8z"/>
<path class="st0" d="M17.4,1.7L16,5.3h-0.1l0.4-1.1l-1.1-2.6h0.4l0.9,2.1l0.8-2.1h0.1V1.7z"/>
<path class="st0" d="M19.9,4.3h-0.4v-4h0.4V4.3z"/>
<path class="st0" d="M21.5,0.5c0,0.1,0,0.1-0.1,0.2c0,0-0.1,0.1-0.2,0.1c-0.1,0-0.1,0-0.2-0.1s-0.1-0.1-0.1-0.2s0-0.1,0.1-0.2
	c0,0,0.1-0.1,0.2-0.1c0.1,0,0.1,0,0.2,0.1S21.5,0.5,21.5,0.5z M21.4,4.3H21V1.7h0.4V4.3z"/>
<path class="st0" d="M24.7,2.7h-1.6V2.6h1.2c0-0.5-0.2-0.8-0.6-0.8c-0.3,0-0.5,0.1-0.6,0.3c-0.2,0.2-0.2,0.5-0.2,0.9
	s0.1,0.7,0.2,0.9c0.2,0.2,0.4,0.3,0.7,0.3c0.3,0,0.6-0.1,0.8-0.4L24.7,4c-0.2,0.2-0.5,0.4-0.9,0.4c-0.4,0-0.7-0.1-0.9-0.4
	c-0.3-0.3-0.4-0.6-0.4-0.9c0-0.4,0.1-0.7,0.4-0.9c0.2-0.3,0.5-0.4,0.9-0.4c0.3,0,0.5,0.1,0.7,0.3C24.6,2.1,24.7,2.4,24.7,2.7z"/>
<path class="st0" d="M27,3.6c0,0.2-0.1,0.4-0.2,0.5c-0.1,0.1-0.3,0.2-0.5,0.2c-0.3,0-0.5-0.1-0.7-0.3l0.1-0.2
	c0.2,0.2,0.4,0.3,0.6,0.3c0.1,0,0.3,0,0.4-0.1c0.1-0.1,0.1-0.2,0.1-0.4s-0.1-0.3-0.2-0.4S26.3,3,26.1,2.9c-0.3-0.2-0.4-0.4-0.4-0.7
	c0-0.2,0.1-0.3,0.2-0.5c0.1-0.1,0.3-0.1,0.5-0.1c0.1,0,0.2,0,0.4,0.1c0.1,0.1,0.2,0.1,0.3,0.2L27,2c-0.2-0.2-0.3-0.3-0.5-0.3
	c-0.3,0-0.4,0.1-0.4,0.3s0.1,0.3,0.3,0.5c0.3,0.2,0.5,0.3,0.6,0.4C26.9,3.1,27.1,3.4,27,3.6z"/>
<path class="st0" d="M29.7,0.5c0,0.1,0,0.1-0.1,0.2c-0.1,0-0.1,0.1-0.2,0.1s-0.1,0-0.2-0.1c0-0.1-0.1-0.1-0.1-0.2s0-0.1,0.1-0.2
	c0.1,0,0.1-0.1,0.2-0.1s0.1,0,0.2,0.1S29.7,0.5,29.7,0.5z M29.6,4.3h-0.4V1.7h0.4V4.3z"/>
<path class="st0" d="M32.8,4.3h-0.4V2.6c0-0.5-0.2-0.8-0.6-0.8c-0.4,0-0.6,0.2-0.8,0.7v1.8h-0.4V1.7H31v0.4c0.2-0.3,0.5-0.4,0.8-0.4
	s0.5,0.1,0.7,0.2c0.2,0.1,0.2,0.4,0.2,0.7L32.8,4.3L32.8,4.3z"/>
<path class="st0" d="M36.2,1.8h-0.5v1.6c0,0.3,0,0.4,0.1,0.6c0.1,0.1,0.2,0.2,0.4,0.2v0.1c-0.6,0-0.9-0.3-0.9-0.8V1.9H35V1.8h0.2
	V1.5h0.4v0.3h0.5H36.2z"/>
<path class="st0" d="M39.1,4.3h-0.4V2.6c0-0.5-0.2-0.8-0.6-0.8c-0.4,0-0.6,0.2-0.8,0.7v1.8H37v-4h0.4v1.8c0.2-0.3,0.5-0.4,0.8-0.4
	s0.5,0.1,0.7,0.2c0.2,0.1,0.2,0.4,0.2,0.7V4.3z"/>
<path class="st0" d="M42.4,2.7h-1.6V2.6H42c0-0.5-0.2-0.8-0.6-0.8c-0.3,0-0.5,0.1-0.6,0.3c-0.2,0.2-0.2,0.5-0.2,0.9s0.1,0.7,0.2,0.9
	c0.2,0.2,0.4,0.3,0.7,0.3s0.6-0.1,0.8-0.4L42.4,4c-0.2,0.2-0.5,0.4-0.9,0.4S40.8,4.3,40.6,4c-0.3-0.3-0.4-0.6-0.4-0.9
	c0-0.4,0.1-0.7,0.4-0.9c0.2-0.3,0.5-0.4,0.9-0.4c0.3,0,0.5,0.1,0.7,0.3C42.3,2.1,42.4,2.4,42.4,2.7z"/>
<path class="st0" d="M46.7,4c-0.3,0.2-0.6,0.4-0.9,0.4c-0.4,0-0.7-0.1-0.9-0.4c-0.3-0.3-0.4-0.6-0.4-0.9c0-0.4,0.1-0.7,0.4-0.9
	c0.3-0.3,0.6-0.4,0.9-0.4s0.6,0.1,0.8,0.3l-0.1,0.2C46.3,2.1,46.1,2,45.8,2s-0.5,0.1-0.7,0.4c-0.2,0.2-0.3,0.5-0.3,0.8
	S44.9,3.8,45,4c0.2,0.2,0.4,0.4,0.7,0.4s0.6-0.1,0.8-0.4H46.7z"/>
<path class="st0" d="M49.9,3c0,0.4-0.1,0.7-0.4,0.9c-0.3,0.3-0.6,0.4-0.9,0.4c-0.4,0-0.7-0.1-0.9-0.4c-0.3-0.3-0.4-0.6-0.4-0.9
	c0-0.4,0.1-0.7,0.4-0.9c0.3-0.3,0.6-0.4,0.9-0.4c0.4,0,0.7,0.1,0.9,0.4C49.8,2.3,49.9,2.6,49.9,3z M49.5,3c0-0.3-0.1-0.6-0.3-0.8
	C49,2,48.8,1.9,48.6,1.9c-0.3,0-0.5,0.1-0.6,0.3c-0.2,0.2-0.3,0.5-0.3,0.8s0.1,0.6,0.3,0.8s0.4,0.4,0.6,0.4c0.2,0,0.5-0.1,0.6-0.4
	C49.4,3.6,49.5,3.3,49.5,3z"/>
<path class="st0" d="M54.4,4.3H54V2.5c0-0.3,0-0.4-0.1-0.5c-0.1-0.1-0.2-0.2-0.4-0.2c-0.3,0-0.5,0.2-0.7,0.6v0.1v1.8h-0.4V2.5
	c0-0.3,0-0.4-0.1-0.5c-0.1-0.1-0.2-0.2-0.4-0.2c-0.1,0-0.3,0.1-0.4,0.2c-0.1,0.1-0.2,0.3-0.3,0.5v1.8h-0.4V1.7h0.4V2
	c0.2-0.3,0.5-0.4,0.7-0.4c0.4,0,0.7,0.1,0.8,0.4c0.2-0.3,0.5-0.4,0.8-0.4c0.6,0,0.8,0.3,0.8,0.8v1.9H54.4z"/>
<path class="st0" d="M57.7,3c0,0.4-0.1,0.7-0.3,0.9c-0.2,0.3-0.5,0.4-0.8,0.4c-0.3,0-0.5-0.1-0.6-0.3v0.2h-0.4v-4H56v3.4
	c0,0.2,0.1,0.3,0.2,0.4c0.1,0.1,0.2,0.2,0.4,0.2c0.2,0,0.4-0.1,0.6-0.3c0.1-0.2,0.2-0.5,0.2-0.9s-0.1-0.6-0.2-0.9
	c-0.1-0.2-0.3-0.3-0.6-0.3c-0.1,0-0.2,0-0.4,0.1l-0.1-0.1c0.1-0.1,0.3-0.1,0.5-0.1c0.3,0,0.6,0.1,0.8,0.4C57.6,2.3,57.7,2.6,57.7,3z
	"/>
<path class="st0" d="M59.1,0.5c0,0.1,0,0.1-0.1,0.2c-0.1,0-0.1,0.1-0.2,0.1c-0.1,0-0.1,0-0.2-0.1c-0.1-0.1-0.1-0.1-0.1-0.2
	s0-0.1,0.1-0.2c0,0,0.1-0.1,0.2-0.1c0.1,0,0.1,0,0.2,0.1S59.1,0.5,59.1,0.5z M59.1,4.3h-0.4V1.7h0.4V4.3z"/>
<path class="st0" d="M62.3,4.3h-0.4V2.6c0-0.5-0.2-0.8-0.6-0.8c-0.4,0-0.6,0.2-0.8,0.7v1.8h-0.4V1.7h0.4v0.4
	c0.2-0.3,0.5-0.4,0.8-0.4s0.5,0.1,0.7,0.2c0.2,0.1,0.2,0.4,0.2,0.7L62.3,4.3L62.3,4.3z"/>
<path class="st0" d="M65.2,2.6v1.7h-0.4V4.1c-0.1,0.2-0.4,0.2-0.6,0.2c-0.3,0-0.5-0.1-0.6-0.2c-0.2-0.1-0.3-0.4-0.3-0.6
	c0-0.3,0.1-0.5,0.3-0.6c0.2-0.1,0.4-0.2,0.6-0.2c0.1,0,0.1,0,0.2,0s0.2,0.1,0.3,0.1l-0.1,0.1c-0.1-0.1-0.3-0.1-0.4-0.1
	c-0.2,0-0.3,0.1-0.4,0.2c-0.1,0.1-0.1,0.3-0.1,0.5s0.1,0.4,0.2,0.5c0.1,0.1,0.2,0.2,0.4,0.2c0.3,0,0.5-0.1,0.6-0.4V2.6
	c0-0.6-0.2-0.8-0.6-0.8c-0.2,0-0.4,0.1-0.6,0.2l-0.1-0.1c0.2-0.1,0.4-0.2,0.7-0.2C64.8,1.6,65.2,2,65.2,2.6z"/>
<path class="st0" d="M66.7,1.8v1.6c0,0.3,0,0.4,0.1,0.6c0.1,0.1,0.2,0.2,0.4,0.2v0.1c-0.6,0-0.9-0.3-0.9-0.8V1.9h-0.2V1.8h0.2V1.5
	h0.4V1.8z"/>
<path class="st0" d="M68.6,0.5c0,0.1,0,0.1-0.1,0.2c-0.1,0-0.1,0.1-0.2,0.1c-0.1,0-0.1,0-0.2-0.1S68,0.6,68,0.5s0-0.1,0.1-0.2
	c0,0,0.1-0.1,0.2-0.1c0.1,0,0.1,0,0.2,0.1S68.6,0.5,68.6,0.5z M68.5,4.3h-0.4V1.7h0.4V4.3z"/>
<path class="st0" d="M72.2,3c0,0.4-0.1,0.7-0.4,0.9c-0.3,0.3-0.6,0.4-0.9,0.4c-0.4,0-0.7-0.1-0.9-0.4c-0.3-0.3-0.4-0.6-0.4-0.9
	c0-0.4,0.1-0.7,0.4-0.9c0.3-0.3,0.6-0.4,0.9-0.4c0.4,0,0.7,0.1,0.9,0.4C72.1,2.3,72.2,2.6,72.2,3z M71.8,3c0-0.3-0.1-0.6-0.3-0.8
	c-0.2-0.2-0.4-0.3-0.6-0.3c-0.3,0-0.5,0.1-0.6,0.3C70.1,2.4,70,2.7,70,3s0.1,0.6,0.3,0.8c0.2,0.2,0.4,0.4,0.6,0.4
	c0.2,0,0.5-0.1,0.6-0.4C71.7,3.6,71.8,3.3,71.8,3z"/>
<path class="st0" d="M75.3,4.3h-0.4V2.6c0-0.5-0.2-0.8-0.6-0.8c-0.4,0-0.6,0.2-0.8,0.7v1.8h-0.4V1.7h0.4v0.4
	c0.2-0.3,0.5-0.4,0.8-0.4c0.3,0,0.5,0.1,0.7,0.2c0.2,0.1,0.2,0.4,0.2,0.7v1.7H75.3z"/>
<path class="st0" d="M80.1,3c0,0.4-0.1,0.7-0.4,0.9c-0.3,0.3-0.6,0.4-0.9,0.4c-0.4,0-0.7-0.1-0.9-0.4c-0.3-0.3-0.4-0.6-0.4-0.9
	c0-0.4,0.1-0.7,0.4-0.9c0.3-0.3,0.6-0.4,0.9-0.4c0.4,0,0.7,0.1,0.9,0.4C80,2.3,80.1,2.6,80.1,3z M79.7,3c0-0.3-0.1-0.6-0.3-0.8
	C79.2,2,79,1.9,78.8,1.9c-0.3,0-0.5,0.1-0.6,0.3C78,2.4,77.9,2.7,77.9,3s0.1,0.6,0.3,0.8c0.2,0.2,0.4,0.4,0.6,0.4
	c0.2,0,0.5-0.1,0.6-0.4C79.6,3.6,79.7,3.3,79.7,3z"/>
<path class="st0" d="M81.6,1.8v2.5h-0.4V1.8H81V1.7h0.2V1.1c0-0.6,0.3-0.8,0.9-0.8v0.1c-0.2,0-0.3,0.1-0.4,0.2
	c-0.1,0.1-0.1,0.3-0.1,0.6V1.8z"/>
<path class="st0" d="M86.3,4.3H86V2.6c0-0.5-0.2-0.8-0.6-0.8S84.8,2,84.6,2.5v1.8h-0.4V1.7h0.4v0.4c0.2-0.3,0.5-0.4,0.8-0.4
	c0.3,0,0.5,0.1,0.7,0.2c0.2,0.1,0.2,0.4,0.2,0.7V4.3z"/>
<path class="st0" d="M89.2,2.6v1.7h-0.4V4.1c-0.1,0.2-0.4,0.2-0.6,0.2c-0.3,0-0.5-0.1-0.6-0.2c-0.2-0.1-0.3-0.4-0.3-0.6
	c0-0.3,0.1-0.5,0.3-0.6c0.2-0.1,0.4-0.2,0.6-0.2c0.1,0,0.1,0,0.2,0s0.2,0.1,0.3,0.1l-0.1,0.1c-0.1-0.1-0.3-0.1-0.4-0.1
	c-0.2,0-0.3,0.1-0.4,0.2c-0.1,0.1-0.1,0.3-0.1,0.5s0.1,0.4,0.2,0.5c0.1,0.1,0.2,0.2,0.4,0.2c0.3,0,0.5-0.1,0.6-0.4V2.6
	c0-0.6-0.2-0.8-0.6-0.8c-0.2,0-0.4,0.1-0.6,0.2l-0.1-0.1c0.2-0.1,0.4-0.2,0.7-0.2C88.9,1.6,89.2,2,89.2,2.6z"/>
<path class="st0" d="M90.8,1.8v1.6c0,0.3,0,0.4,0.1,0.6c0.1,0.1,0.2,0.2,0.4,0.2v0.1c-0.6,0-0.9-0.3-0.9-0.8V1.9h-0.2V1.8h0.2V1.5
	h0.4V1.8z"/>
<path class="st0" d="M94.3,4.3h-0.4V3.9c-0.2,0.3-0.5,0.5-0.8,0.5c-0.6,0-0.9-0.3-0.9-0.9V1.8h0.4v1.7c0,0.5,0.2,0.8,0.6,0.8
	c0.2,0,0.4-0.1,0.6-0.4c0.1-0.1,0.1-0.3,0.2-0.5V1.7h0.4L94.3,4.3L94.3,4.3z"/>
<path class="st0" d="M96.6,1.7l-0.1,0.2c-0.1-0.1-0.2-0.1-0.3-0.1c-0.1,0-0.1,0-0.2,0c-0.2,0.1-0.3,0.4-0.3,0.7v1.7h-0.4V1.6h0.4
	v0.3c0.1-0.1,0.1-0.2,0.2-0.2c0.1-0.1,0.2-0.1,0.3-0.1C96.4,1.7,96.5,1.7,96.6,1.7z"/>
<path class="st0" d="M99.2,2.6v1.7h-0.4V4.1c-0.1,0.2-0.4,0.2-0.6,0.2c-0.3,0-0.5-0.1-0.6-0.2c-0.2-0.1-0.3-0.4-0.3-0.6
	c0-0.3,0.1-0.5,0.3-0.6c0.2-0.1,0.4-0.2,0.6-0.2c0.1,0,0.1,0,0.2,0s0.2,0.1,0.3,0.1l-0.1,0.1c-0.1-0.1-0.3-0.1-0.4-0.1
	c-0.2,0-0.3,0.1-0.4,0.2c-0.1,0.1-0.1,0.3-0.1,0.5s0.1,0.4,0.2,0.5c0.1,0.1,0.2,0.2,0.4,0.2c0.3,0,0.5-0.1,0.6-0.4V2.6
	c0-0.6-0.2-0.8-0.6-0.8c-0.2,0-0.4,0.1-0.6,0.2l-0.1-0.1c0.2-0.1,0.4-0.2,0.7-0.2C98.9,1.6,99.2,2,99.2,2.6z"/>
<path class="st0" d="M100.7,4.3h-0.4v-4h0.4V4.3z"/>
<path class="st0" d="M103.3,4.3h-0.4v-4h0.4V4.3z"/>
<path class="st0" d="M106.2,2.6v1.7h-0.4V4.1c-0.1,0.2-0.4,0.2-0.6,0.2c-0.3,0-0.5-0.1-0.6-0.2c-0.2-0.1-0.3-0.4-0.3-0.6
	c0-0.3,0.1-0.5,0.3-0.6c0.2-0.1,0.4-0.2,0.6-0.2c0.1,0,0.1,0,0.2,0s0.2,0.1,0.3,0.1l-0.1,0.1c-0.1-0.1-0.3-0.1-0.4-0.1
	c-0.2,0-0.3,0.1-0.4,0.2c-0.1,0.1-0.1,0.3-0.1,0.5s0.1,0.4,0.2,0.5c0.1,0.1,0.2,0.2,0.4,0.2c0.3,0,0.5-0.1,0.6-0.4V2.6
	c0-0.6-0.2-0.8-0.6-0.8c-0.2,0-0.4,0.1-0.6,0.2l-0.1-0.1c0.2-0.1,0.4-0.2,0.7-0.2C105.9,1.6,106.2,2,106.2,2.6z"/>
<path class="st0" d="M109.4,4.3H109V2.6c0-0.5-0.2-0.8-0.6-0.8s-0.6,0.2-0.8,0.7v1.8h-0.4V1.7h0.4v0.4c0.2-0.3,0.5-0.4,0.8-0.4
	c0.3,0,0.5,0.1,0.7,0.2c0.2,0.1,0.2,0.4,0.2,0.7L109.4,4.3L109.4,4.3z"/>
<path class="st0" d="M112.6,4.3h-0.4V4c-0.2,0.2-0.4,0.3-0.6,0.3c-0.3,0-0.6-0.1-0.8-0.4c-0.2-0.3-0.3-0.6-0.3-0.9
	c0-0.4,0.1-0.7,0.3-0.9c0.2-0.3,0.5-0.4,0.8-0.4c0.1,0,0.3,0,0.5,0.1L112,1.9c-0.1-0.1-0.3-0.1-0.4-0.1c-0.2,0-0.4,0.1-0.5,0.3
	c-0.2,0.2-0.2,0.5-0.2,0.9s0.1,0.6,0.2,0.9c0.1,0.2,0.3,0.3,0.6,0.3c0.1,0,0.3-0.1,0.4-0.2c0.1-0.1,0.2-0.2,0.2-0.4V0.2h0.4
	L112.6,4.3L112.6,4.3z"/>
<path class="st0" d="M115.1,3.6c0,0.2-0.1,0.4-0.2,0.5s-0.3,0.2-0.5,0.2c-0.3,0-0.5-0.1-0.7-0.3l0.1-0.2c0.2,0.2,0.4,0.3,0.6,0.3
	c0.1,0,0.3,0,0.4-0.1c0.1-0.1,0.1-0.2,0.1-0.4s-0.1-0.3-0.2-0.4c-0.1-0.1-0.3-0.2-0.5-0.3c-0.3-0.2-0.4-0.4-0.4-0.7
	c0-0.2,0.1-0.3,0.2-0.5c0.1-0.1,0.3-0.1,0.5-0.1c0.1,0,0.2,0,0.4,0.1c0.1,0.1,0.2,0.1,0.3,0.2L115.1,2c-0.2-0.2-0.3-0.3-0.5-0.3
	c-0.3,0-0.4,0.1-0.4,0.3s0.1,0.3,0.3,0.5c0.3,0.2,0.5,0.3,0.6,0.4C115,3.1,115.1,3.4,115.1,3.6z"/>
<path class="st0" d="M118.2,4c-0.3,0.2-0.6,0.4-0.9,0.4c-0.4,0-0.7-0.1-0.9-0.4c-0.2-0.3-0.4-0.6-0.4-0.9c0-0.4,0.1-0.7,0.4-0.9
	c0.3-0.3,0.6-0.4,0.9-0.4c0.3,0,0.6,0.1,0.8,0.3L118,2.3c-0.2-0.2-0.4-0.3-0.7-0.3c-0.3,0-0.5,0.1-0.7,0.4c-0.2,0.2-0.3,0.5-0.3,0.8
	s0.1,0.6,0.2,0.8c0.2,0.2,0.4,0.4,0.7,0.4c0.3,0,0.6-0.1,0.8-0.4H118.2z"/>
<path class="st0" d="M120.8,2.6v1.7h-0.4V4.1c-0.1,0.2-0.4,0.2-0.6,0.2c-0.3,0-0.5-0.1-0.6-0.2c-0.2-0.1-0.3-0.4-0.3-0.6
	c0-0.3,0.1-0.5,0.3-0.6c0.2-0.1,0.4-0.2,0.6-0.2c0.1,0,0.1,0,0.2,0s0.2,0.1,0.3,0.1l-0.1,0.1c-0.1-0.1-0.3-0.1-0.4-0.1
	c-0.2,0-0.3,0.1-0.4,0.2c-0.1,0.1-0.1,0.3-0.1,0.5s0.1,0.4,0.2,0.5c0.1,0.1,0.2,0.2,0.4,0.2c0.3,0,0.5-0.1,0.6-0.4V2.6
	c0-0.6-0.2-0.8-0.6-0.8c-0.2,0-0.4,0.1-0.6,0.2l-0.1-0.1c0.2-0.1,0.4-0.2,0.7-0.2C120.4,1.6,120.8,2,120.8,2.6z"/>
<path class="st0" d="M124,3c0,0.4-0.1,0.7-0.3,0.9c-0.2,0.3-0.5,0.4-0.8,0.4c-0.1,0-0.3,0-0.5-0.1l0.1-0.1c0.1,0.1,0.2,0.1,0.4,0.1
	c0.2,0,0.4-0.1,0.5-0.3c0.1-0.2,0.2-0.5,0.2-0.9s-0.1-0.6-0.2-0.9c-0.1-0.2-0.3-0.3-0.6-0.3c-0.1,0-0.3,0.1-0.4,0.2
	c-0.1,0.1-0.2,0.2-0.2,0.4v2.9h-0.4V1.8h0.4V2c0.2-0.2,0.4-0.3,0.6-0.3c0.3,0,0.6,0.1,0.8,0.4C123.9,2.3,124,2.6,124,3z"/>
<path class="st0" d="M127.2,2.7h-1.6V2.6h1.2c0-0.5-0.2-0.8-0.6-0.8c-0.3,0-0.5,0.1-0.6,0.3c-0.2,0.2-0.2,0.5-0.2,0.9
	s0.1,0.7,0.2,0.9c0.2,0.2,0.4,0.3,0.7,0.3c0.3,0,0.6-0.1,0.8-0.4l0.1,0.2c-0.2,0.2-0.5,0.4-0.9,0.4c-0.4,0-0.7-0.1-0.9-0.4
	c-0.3-0.3-0.4-0.6-0.4-0.9c0-0.4,0.1-0.7,0.4-0.9c0.2-0.3,0.5-0.4,0.9-0.4c0.3,0,0.5,0.1,0.7,0.3C127.1,2.1,127.2,2.4,127.2,2.7z"/>
<path class="st0" d="M2.6,9.8v1.7H2.2v-0.2c-0.1,0.2-0.4,0.2-0.6,0.2c-0.3,0-0.5-0.1-0.6-0.2c-0.2-0.1-0.3-0.4-0.3-0.6
	c0-0.3,0.1-0.5,0.3-0.6C1.2,10,1.4,9.9,1.6,9.9c0.1,0,0.1,0,0.2,0S2,10,2.1,10L2,10.1C1.8,10,1.7,10,1.5,10s-0.3,0.1-0.4,0.2
	C1,10.3,1,10.5,1,10.7s0.1,0.4,0.2,0.5c0.1,0.1,0.2,0.2,0.4,0.2c0.3,0,0.5-0.1,0.6-0.4V9.8C2.2,9.2,2,9,1.6,9C1.4,9,1.2,9.1,1,9.2
	L0.9,9c0.2-0.1,0.4-0.2,0.7-0.2C2.2,8.8,2.6,9.2,2.6,9.8z"/>
<path class="st0" d="M5.7,11.5H5.4V9.8C5.4,9.3,5.2,9,4.8,9C4.4,9,4.2,9.2,4,9.7v1.8H3.6V8.9H4v0.4C4.2,9,4.5,8.9,4.8,8.9
	c0.3,0,0.5,0.1,0.7,0.2c0.2,0.1,0.2,0.4,0.2,0.7V11.5z"/>
<path class="st0" d="M8.9,11.5H8.6v-0.2c-0.2,0.2-0.4,0.3-0.6,0.3c-0.3,0-0.6-0.1-0.8-0.4c-0.2-0.3-0.3-0.6-0.3-0.9
	c0-0.4,0.1-0.7,0.3-0.9C7.4,9.1,7.7,9,8,9c0.1,0,0.3,0,0.5,0.1L8.4,9.2C8.2,9,8.1,9,7.9,9S7.5,9.1,7.4,9.3c-0.2,0.2-0.2,0.5-0.2,0.9
	c0,0.4,0.1,0.6,0.2,0.9c0.1,0.2,0.3,0.3,0.6,0.3c0.1,0,0.3-0.1,0.4-0.2c0.1-0.1,0.2-0.2,0.2-0.4V7.4H9v4.1H8.9z"/>
<path class="st0" d="M13.1,9.8v1.7h-0.4v-0.2c-0.1,0.2-0.4,0.2-0.6,0.2c-0.3,0-0.5-0.1-0.6-0.2c-0.2-0.1-0.3-0.4-0.3-0.6
	c0-0.3,0.1-0.5,0.3-0.6c0.2-0.1,0.4-0.2,0.6-0.2c0.1,0,0.1,0,0.2,0c0.1,0,0.2,0.1,0.3,0.1l-0.1,0.1C12.4,10,12.2,10,12.1,10
	c-0.2,0-0.3,0.1-0.4,0.2c-0.1,0.1-0.1,0.3-0.1,0.5s0.1,0.4,0.2,0.5c0.1,0.1,0.2,0.2,0.4,0.2c0.3,0,0.5-0.1,0.6-0.4V9.8
	c0-0.6-0.2-0.8-0.6-0.8c-0.2,0-0.4,0.1-0.6,0.2l-0.1-0.1c0.2-0.1,0.4-0.2,0.7-0.2C12.8,8.8,13.1,9.2,13.1,9.8z"/>
<path class="st0" d="M15.4,8.9l-0.1,0.2C15.2,9,15.1,9,15,9s-0.1,0-0.2,0c-0.2,0.1-0.3,0.4-0.3,0.7v1.7h-0.4V8.8h0.4v0.3
	c0.1-0.1,0.1-0.2,0.2-0.2c0.1-0.1,0.2-0.1,0.3-0.1C15.2,8.9,15.3,8.9,15.4,8.9z"/>
<path class="st0" d="M17.3,9h-0.5v1.6c0,0.3,0,0.4,0.1,0.6c0.1,0.1,0.2,0.2,0.4,0.2v0.1c-0.6,0-0.9-0.3-0.9-0.8V9h-0.2V8.9h0.2V8.6
	h0.4v0.3L17.3,9L17.3,9z"/>
<path class="st0" d="M18.7,7.7c0,0.1,0,0.1-0.1,0.2C18.6,8,18.5,8,18.4,8s-0.1,0-0.2-0.1c-0.1-0.1-0.1-0.1-0.1-0.2
	c0-0.1,0-0.1,0.1-0.2c0,0,0.1-0.1,0.2-0.1s0.1,0,0.2,0.1S18.7,7.7,18.7,7.7z M18.6,11.5h-0.4V8.9h0.4V11.5z"/>
<path class="st0" d="M21.1,10.8c0,0.2-0.1,0.4-0.2,0.5c-0.1,0.1-0.3,0.2-0.5,0.2c-0.3,0-0.5-0.1-0.7-0.3l0.1-0.2
	c0.2,0.2,0.4,0.3,0.6,0.3c0.1,0,0.3,0,0.4-0.1c0.1-0.1,0.1-0.2,0.1-0.4c0-0.2-0.1-0.3-0.2-0.4c-0.1-0.1-0.3-0.2-0.5-0.3
	c-0.3-0.2-0.4-0.4-0.4-0.7c0-0.2,0.1-0.3,0.2-0.5c0.1-0.1,0.3-0.1,0.5-0.1c0.1,0,0.2,0,0.4,0.1C21,9,21.1,9,21.2,9.1l-0.1,0.1
	c-0.2-0.2-0.3-0.3-0.5-0.3c-0.3,0-0.4,0.1-0.4,0.3s0.1,0.3,0.3,0.5c0.3,0.2,0.5,0.3,0.6,0.4C21,10.3,21.1,10.6,21.1,10.8z"/>
<path class="st0" d="M23.1,9h-0.5v1.6c0,0.3,0,0.4,0.1,0.6c0.1,0.1,0.2,0.2,0.4,0.2v0.1c-0.6,0-0.9-0.3-0.9-0.8V9H22V8.9h0.2V8.6
	h0.4v0.3L23.1,9L23.1,9z"/>
<path class="st0" d="M24.5,7.7c0,0.1,0,0.1-0.1,0.2C24.3,8,24.3,8,24.2,8c-0.1,0-0.1,0-0.2-0.1c0-0.1-0.1-0.1-0.1-0.2
	c0-0.1,0-0.1,0.1-0.2c0.1,0,0.1-0.1,0.2-0.1c0.1,0,0.1,0,0.2,0.1C24.4,7.6,24.5,7.7,24.5,7.7z M24.4,11.5H24V8.9h0.4V11.5z"/>
<path class="st0" d="M27.6,11.2c-0.3,0.2-0.6,0.4-0.9,0.4c-0.4,0-0.7-0.1-0.9-0.4c-0.3-0.3-0.4-0.6-0.4-0.9c0-0.4,0.1-0.7,0.4-0.9
	C26.1,9.1,26.4,9,26.7,9c0.3,0,0.6,0.1,0.8,0.3l-0.1,0.2c-0.2-0.2-0.4-0.3-0.7-0.3c-0.3,0-0.5,0.1-0.7,0.4c-0.2,0.2-0.3,0.5-0.3,0.8
	c0,0.3,0.1,0.6,0.2,0.8c0.2,0.2,0.4,0.4,0.7,0.4c0.3,0,0.6-0.1,0.8-0.4H27.6z"/>
<path class="st0" d="M31.7,9.9h-1.6V9.8h1.2c0-0.5-0.2-0.8-0.6-0.8c-0.3,0-0.5,0.1-0.6,0.3c-0.2,0.2-0.2,0.5-0.2,0.9
	c0,0.4,0.1,0.7,0.2,0.9c0.2,0.2,0.4,0.3,0.7,0.3c0.3,0,0.6-0.1,0.8-0.4l0.1,0.2c-0.2,0.2-0.5,0.4-0.9,0.4c-0.4,0-0.7-0.1-0.9-0.4
	c-0.3-0.3-0.4-0.6-0.4-0.9c0-0.4,0.1-0.7,0.4-0.9C30.1,9.1,30.4,9,30.8,9c0.3,0,0.5,0.1,0.7,0.3C31.6,9.3,31.7,9.6,31.7,9.9z"/>
<path class="st0" d="M34.8,11.5h-0.5l-0.8-1.2l-1,1.2h-0.1l1.1-1.3l-0.9-1.3H33l0.7,1l0.8-1h0.1L33.7,10L34.8,11.5z"/>
<path class="st0" d="M37.8,10.2c0,0.4-0.1,0.7-0.3,0.9c-0.2,0.3-0.5,0.4-0.8,0.4c-0.1,0-0.3,0-0.5-0.1l0.1-0.1
	c0.1,0.1,0.2,0.1,0.4,0.1s0.4-0.1,0.5-0.3c0.1-0.2,0.2-0.5,0.2-0.9c0-0.4-0.1-0.6-0.2-0.9C37.1,9.1,36.9,9,36.6,9
	c-0.1,0-0.3,0.1-0.4,0.2C36.1,9.3,36,9.4,36,9.6v2.9h-0.4V9H36v0.2c0.2-0.2,0.4-0.3,0.6-0.3c0.3,0,0.6,0.1,0.8,0.4
	C37.7,9.5,37.8,9.8,37.8,10.2z"/>
<path class="st0" d="M40,8.9l-0.1,0.2C39.8,9,39.7,9,39.6,9c-0.1,0-0.1,0-0.2,0c-0.2,0.1-0.3,0.4-0.3,0.7v1.7h-0.4V8.8h0.4v0.3
	c0.1-0.1,0.1-0.2,0.2-0.2c0.1-0.1,0.2-0.1,0.3-0.1C39.8,8.9,39.9,8.9,40,8.9z"/>
<path class="st0" d="M42.9,9.9h-1.6V9.8h1.2c0-0.5-0.2-0.8-0.6-0.8c-0.3,0-0.5,0.1-0.6,0.3c-0.2,0.2-0.2,0.5-0.2,0.9
	c0,0.4,0.1,0.7,0.2,0.9c0.2,0.2,0.4,0.3,0.7,0.3s0.6-0.1,0.8-0.4l0.1,0.2c-0.2,0.2-0.5,0.4-0.9,0.4s-0.7-0.1-0.9-0.4
	c-0.3-0.3-0.4-0.6-0.4-0.9c0-0.4,0.1-0.7,0.4-0.9C41.3,9.1,41.6,9,42,9c0.3,0,0.5,0.1,0.7,0.3C42.8,9.3,42.9,9.6,42.9,9.9z"/>
<path class="st0" d="M45.2,10.8c0,0.2-0.1,0.4-0.2,0.5c-0.1,0.1-0.3,0.2-0.5,0.2c-0.3,0-0.5-0.1-0.7-0.3l0.1-0.2
	c0.2,0.2,0.4,0.3,0.6,0.3c0.1,0,0.3,0,0.3-0.1c0.1-0.1,0.1-0.2,0.1-0.4c0-0.2-0.1-0.3-0.2-0.4s-0.3-0.2-0.5-0.3
	c-0.3-0.2-0.4-0.4-0.4-0.7c0-0.2,0.1-0.3,0.2-0.5c0.1-0.1,0.3-0.1,0.5-0.1c0.1,0,0.2,0,0.4,0.1C45,9,45.1,9,45.2,9.1l-0.1,0.1
	c-0.2-0.2-0.3-0.3-0.5-0.3c-0.3,0-0.4,0.1-0.4,0.3s0.1,0.3,0.3,0.5c0.3,0.2,0.5,0.3,0.6,0.4C45.1,10.3,45.3,10.6,45.2,10.8z"/>
<path class="st0" d="M47.6,10.8c0,0.2-0.1,0.4-0.2,0.5c-0.1,0.1-0.3,0.2-0.5,0.2c-0.3,0-0.5-0.1-0.7-0.3l0.1-0.2
	c0.2,0.2,0.4,0.3,0.6,0.3c0.1,0,0.3,0,0.3-0.1c0.1-0.1,0.1-0.2,0.1-0.4c0-0.2-0.1-0.3-0.2-0.4c-0.1-0.1-0.3-0.2-0.5-0.3
	c-0.3-0.2-0.4-0.4-0.4-0.7c0-0.2,0.1-0.3,0.2-0.5c0.1-0.1,0.3-0.1,0.5-0.1c0.1,0,0.2,0,0.4,0.1C47.4,9,47.5,9,47.6,9.1l-0.1,0.1
	C47.3,9,47.2,8.9,47,8.9c-0.3,0-0.4,0.1-0.4,0.3s0.1,0.3,0.3,0.5c0.3,0.2,0.5,0.3,0.6,0.4C47.5,10.3,47.6,10.6,47.6,10.8z"/>
<path class="st0" d="M49.1,7.7c0,0.1,0,0.1-0.1,0.2C49,8,48.9,8,48.8,8c-0.1,0-0.1,0-0.2-0.1c0-0.1-0.1-0.1-0.1-0.2
	c0-0.1,0-0.1,0.1-0.2c0,0,0.1-0.1,0.2-0.1c0.1,0,0.1,0,0.2,0.1C49,7.6,49.1,7.7,49.1,7.7z M49,11.5h-0.4V8.9H49V11.5z"/>
<path class="st0" d="M52.6,10.2c0,0.4-0.1,0.7-0.4,0.9c-0.3,0.3-0.6,0.4-0.9,0.4c-0.4,0-0.7-0.1-0.9-0.4c-0.3-0.3-0.4-0.6-0.4-0.9
	c0-0.4,0.1-0.7,0.4-0.9C50.7,9,51,8.9,51.3,8.9c0.4,0,0.7,0.1,0.9,0.4C52.5,9.5,52.6,9.8,52.6,10.2z M52.2,10.2
	c0-0.3-0.1-0.6-0.3-0.8c-0.2-0.2-0.4-0.3-0.6-0.3c-0.3,0-0.5,0.1-0.6,0.3c-0.2,0.2-0.3,0.5-0.3,0.8c0,0.3,0.1,0.6,0.3,0.8
	c0.2,0.2,0.4,0.4,0.6,0.4s0.5-0.1,0.6-0.4C52.1,10.8,52.2,10.5,52.2,10.2z"/>
<path class="st0" d="M55.7,11.5h-0.4V9.8c0-0.5-0.2-0.8-0.6-0.8c-0.4,0-0.6,0.2-0.8,0.7v1.8h-0.4V8.9H54v0.4
	c0.2-0.3,0.5-0.4,0.8-0.4s0.5,0.1,0.7,0.2c0.2,0.1,0.2,0.4,0.2,0.7V11.5z"/>
<path class="st0" d="M57.3,11.3c0,0.1,0,0.1-0.1,0.2c-0.1,0-0.1,0.1-0.2,0.1s-0.1,0-0.2-0.1c0,0-0.1-0.1-0.1-0.2
	c0-0.1,0-0.1,0.1-0.2c0.1,0,0.1-0.1,0.2-0.1s0.1,0,0.2,0.1C57.2,11.2,57.3,11.2,57.3,11.3z"/>
</svg>
