<?xml version="1.0" encoding="utf-8"?>
<!-- Generator: Adobe Illustrator 25.2.3, SVG Export Plug-In . SVG Version: 6.00 Build 0)  -->
<svg version="1.1" id="圖層_1" xmlns="http://www.w3.org/2000/svg" xmlns:xlink="http://www.w3.org/1999/xlink" x="0px" y="0px"
	 viewBox="0 0 280 119" style="enable-background:new 0 0 280 119;" xml:space="preserve">
<style type="text/css">
	.st0{fill:#FFFFFF;}
</style>
<path class="st0" d="M10.3,1.7V3h1.1v0.8h-1.1v1.3H2.2V4.3h7.1V3.8H1.1V3h8.2V2.6H2.2V1.8L10.3,1.7L10.3,1.7z M10.9,5.5V8H9.5v0.7
	h1.9v0.9H9.5v1.2c0,0.4-0.1,0.6-0.3,0.8s-0.5,0.3-0.9,0.3H7l-0.2-1C7.3,11,7.8,11,8.1,11c0.3,0,0.4-0.1,0.4-0.3v-1H3.9
	c0.7,0.4,1.3,0.8,1.9,1.1L5,11.6c-0.5-0.4-1.2-0.9-2.1-1.3l0.6-0.5H1.1V8.9h7.4V8H6.4V5.5H10.9z M5.9,5.5v0.8H4.2v0.9
	C4.8,7.2,5.4,7.1,6,7v0.8C4.6,8,3.1,8.1,1.4,8.2L1.3,7.3c0.6,0,1.3-0.1,1.9-0.1v-1H1.5V5.4L5.9,5.5L5.9,5.5z M10,6.3H7.4v0.9H10V6.3
	z"/>
<path class="st0" d="M15.3,2.6h1.6v0.9h-4.5V2.6h1.8c-0.2-0.4-0.4-0.8-0.6-1.2l1.1-0.1C14.9,1.7,15.1,2.2,15.3,2.6z M16.5,11h-2.6
	v0.8h-1V7.7h3.6V11z M16.5,4.3v0.9h-3.6V4.3H16.5z M16.5,6v0.9h-3.6V6H16.5z M15.4,10.1V8.7h-1.6v1.4H15.4z M20.8,2.6l-0.5,0.5H23v1
	h-3.7v1.3c0,0.1,0,0.2,0,0.3h3.2c-0.1,2.5-0.2,4.1-0.3,4.6c-0.1,0.4-0.3,0.8-0.6,1c-0.2,0.2-1,0.3-2.3,0.3L19,10.5
	c0.4,0,0.6,0,0.8,0c0.6,0,1-0.1,1.2-0.2c0.3-0.3,0.4-1.6,0.4-3.7h-2.2c-0.1,0.9-0.2,1.7-0.4,2.3c-0.3,0.9-0.8,1.9-1.5,2.9L16.4,11
	c0.7-0.8,1.1-1.6,1.4-2.5c0.2-0.7,0.4-1.8,0.4-3.3V3.9H17v-1h2.8c-0.4-0.4-1-0.8-1.7-1.3l0.7-0.7C19.7,1.7,20.3,2.2,20.8,2.6z"/>
<path class="st0" d="M25.1,4V2h1.2v2.1H28V1.5h1.1v2.6h2.2V1.5h1.1v2.6h1.9v1h-1.9v4H28v-4h-1.7v5.3h7.9v1h-7.9v0.5h-1.2V5H24V4
	H25.1z M29.1,8h2.2V5h-2.2V8z"/>
<path class="st0" d="M44.9,1.7v5h-2c0.4,0.4,0.7,0.6,1,0.8c0.5,0.3,1.2,0.6,2.1,0.9l-0.4,1C44.4,9,43.5,8.5,43,8.1v3.8h-1.1V7.7h0.6
	c-0.3-0.3-0.6-0.6-1-1h-1.7c-0.3,0.4-0.7,0.8-1,1h0.8c0,1.1-0.3,2-0.7,2.6c-0.4,0.6-1.2,1.1-2.5,1.6L35.7,11c1.1-0.3,1.8-0.7,2.2-1
	c0.4-0.4,0.7-1.1,0.8-2c-0.7,0.5-1.6,1-2.6,1.3l-0.6-0.9c1-0.3,1.7-0.7,2.3-1c0.3-0.2,0.5-0.4,0.8-0.6h-1.8v-5L44.9,1.7L44.9,1.7z
	 M40.2,3.8V2.7h-2.5v1.1H40.2z M40.2,4.7h-2.5v1.1h2.5V4.7z M43.9,3.8V2.7h-2.7v1.1H43.9z M43.9,4.7h-2.7v1.1h2.7V4.7z"/>
<path class="st0" d="M52.6,7.8c-0.2,0.2-0.5,0.5-0.9,0.7l-0.4-0.6c0.5-0.3,0.9-0.6,0.9-1h-0.7V5.5h1.4v1.1
	C52.9,7.2,52.8,7.6,52.6,7.8z"/>
<path class="st0" d="M59.7,9.1c-0.1,1.1-0.2,2-0.4,2.8l-1-0.3c0.3-0.8,0.4-1.6,0.5-2.6L59.7,9.1z M61.4,1.7c-0.4,1-0.8,2-1.3,2.8
	c0.3,0,0.7-0.1,1-0.1c0.3-0.5,0.5-1,0.7-1.6l0.9,0.4C61.9,5,61,6.5,60.2,7.7c0.6,0,1.1-0.1,1.5-0.2c-0.1-0.4-0.2-0.8-0.3-1.2L62.2,6
	c0.3,0.7,0.5,1.6,0.7,2.5L62,8.7c0-0.1-0.1-0.3-0.1-0.4c-0.8,0.2-1.9,0.3-3.2,0.4l-0.3-1c0.3,0,0.5,0,0.7,0c0.5-0.6,1-1.4,1.5-2.4
	c-0.6,0.1-1.3,0.2-2.1,0.3l-0.2-0.9c0.2,0,0.4,0,0.6,0c0.5-0.9,1-2,1.4-3.2L61.4,1.7z M61.3,11.4l-0.9,0.1c0-1-0.1-1.8-0.2-2.4L61,9
	C61.1,9.6,61.2,10.4,61.3,11.4z M62.8,10.8l-0.9,0.3c-0.1-0.8-0.3-1.5-0.5-2.3l0.8-0.2C62.4,9.5,62.7,10.2,62.8,10.8z M68.5,11.9
	h-0.9v-0.7h-3.5v0.7h-0.9V1.8h5.3V11.9z M65.4,5.9V2.8h-1.3v3.1H65.4z M65.4,10.2V7h-1.3v3.2H65.4z M66.3,5.9h1.3V2.8h-1.3V5.9z
	 M67.6,10.2V7h-1.3v3.2H67.6z"/>
<path class="st0" d="M74.7,5.6h-3.4v6.3h-1V1.7h4.5v3.9H74.7z M73.7,3.2V2.6h-2.4v0.6H73.7z M73.7,4.7V4h-2.4v0.8L73.7,4.7L73.7,4.7
	z M80,1.7v9.1c0,0.4-0.1,0.7-0.3,0.9c-0.2,0.2-0.5,0.3-0.9,0.3h-0.6l-0.1-0.6c-0.1,0.1-0.3,0.1-0.5,0.1h-1.1c-0.3,0-0.6-0.1-0.8-0.3
	c-0.2-0.3-0.4-0.6-0.4-0.9V9.1h-0.6c-0.2,0.6-0.4,1.1-0.7,1.4c-0.4,0.4-0.9,0.8-1.6,1.2l-0.6-0.8c0.6-0.2,1.1-0.5,1.4-0.8
	c0.2-0.2,0.4-0.5,0.6-0.9h-1.3V6.7h1c-0.2-0.3-0.4-0.5-0.6-0.7l1-0.1c0.2,0.3,0.4,0.6,0.6,0.9h1.3c0.2-0.3,0.3-0.6,0.5-0.9l0.9,0.3
	c-0.1,0.2-0.3,0.4-0.4,0.6h0.9v2.5h-1.4v1c0,0.2,0,0.3,0.1,0.4c0.1,0.1,0.2,0.1,0.3,0.1h0.6c0.1,0,0.1,0,0.2-0.1c0,0,0.1-0.4,0.2-1
	l0.9,0.3c-0.1,0.5-0.1,0.9-0.2,1.1h0.3c0.3,0,0.4-0.2,0.4-0.5V5.7h-3.5V1.8h0.5L80,1.7L80,1.7z M76.7,7.4h-3.2v0.9h3.2V7.4z M79,3.2
	V2.5h-2.5v0.7H79z M79,4h-2.5v0.8H79V4z"/>
<path class="st0" d="M90.6,1.7V8c0,1.3,0.1,2.1,0.2,2.2c0.1,0.2,0.1,0.3,0.2,0.3s0.2-0.4,0.4-1.3l0.8,0.4c-0.1,0.9-0.3,1.5-0.5,1.8
	c-0.2,0.2-0.3,0.3-0.6,0.3c-0.4,0-0.7-0.1-0.9-0.4c-0.4-0.5-0.6-1.6-0.6-3.4V2.6h-6.3v3.8c0,0.8-0.1,1.7-0.2,2.6
	c-0.2,1-0.4,1.9-0.8,2.8L81.4,11c0.3-0.7,0.6-1.5,0.7-2.3s0.1-1.6,0.1-2.3V1.6h0.5h7.9V1.7z M89.2,3.4v0.9H87v0.9h2v3.5h-2v1.4
	c0.4,0,0.9-0.1,1.2-0.2c-0.1-0.3-0.3-0.5-0.4-0.7l0.9-0.3c0.4,0.7,0.8,1.4,1.1,2.2l-0.9,0.4c-0.1-0.2-0.2-0.5-0.3-0.7
	c-1.1,0.2-2.8,0.4-5,0.5l-0.3-1.1c1,0,1.8,0,2.6-0.1V8.6h-2V5.1h2V4.2h-2.2V3.3h5.5V3.4z M85.9,6.2h-1v1.7h1V6.2z M88,6.2h-1v1.7
	h1.1L88,6.2L88,6.2z"/>
<path class="st0" d="M102.6,1.6v3.3h-4c0.1,0.2,0.1,0.3,0.2,0.5h4.6v0.9H93V5.4h4.7c-0.1-0.2-0.2-0.3-0.3-0.5h-3.5V1.6H102.6z
	 M96.4,9.9c-0.5,0.5-0.9,0.8-1.2,1c-0.4,0.2-0.9,0.5-1.6,0.7l-0.5-0.9c0.6-0.2,1.2-0.4,1.6-0.6c0.4-0.2,0.8-0.5,1.2-0.8L96.4,9.9z
	 M102.5,6.8V9h-3.6v1.7c0,0.4-0.1,0.6-0.3,0.8c-0.2,0.2-0.5,0.3-0.9,0.3h-1.3l-0.2-1c0.5,0.1,0.9,0.1,1.2,0.1c0.3,0,0.4-0.1,0.4-0.3
	V9H94V6.8H102.5z M101.5,3V2.4H95V3H101.5z M101.5,3.6H95v0.5h6.5V3.6z M101.5,7.6H95v0.6h6.4L101.5,7.6L101.5,7.6z M103.4,10.7
	l-0.4,1c-0.9-0.7-1.9-1.3-2.9-1.6l0.4-0.9C101.5,9.5,102.4,10,103.4,10.7z"/>
<path class="st0" d="M110.1,7.8c-0.2,0.2-0.5,0.5-0.9,0.7l-0.4-0.6c0.5-0.3,0.9-0.6,0.9-1H109V5.5h1.4v1.1
	C110.4,7.2,110.3,7.6,110.1,7.8z"/>
<path class="st0" d="M118.8,1.6c-0.4,1.1-0.8,2-1.3,2.9c0.3,0,0.7-0.1,1-0.1c0.2-0.5,0.5-1,0.7-1.6l0.9,0.4
	c-0.8,1.8-1.6,3.2-2.5,4.4c0.6-0.1,1.1-0.1,1.5-0.3c-0.1-0.3-0.2-0.7-0.3-1l0.8-0.3c0.3,0.7,0.5,1.6,0.7,2.5l-0.9,0.2
	c0-0.2-0.1-0.4-0.1-0.6c-0.8,0.2-1.9,0.4-3.2,0.5l-0.3-1c0.3,0,0.5,0,0.7,0c0.5-0.6,0.9-1.4,1.4-2.3c-0.6,0.1-1.3,0.2-2,0.3
	l-0.2-0.9c0.2,0,0.4,0,0.6,0c0.5-1,1-2.1,1.4-3.3L118.8,1.6z M117.3,8.9c-0.1,1.2-0.2,2.1-0.4,2.9l-1-0.3c0.3-0.8,0.4-1.7,0.5-2.7
	L117.3,8.9z M118.8,11.4l-0.9,0.1c0-1.1-0.1-1.9-0.2-2.5l0.8-0.1C118.7,9.5,118.8,10.3,118.8,11.4z M120.4,10.7l-0.9,0.3
	c-0.1-0.7-0.3-1.4-0.4-2.1l0.8-0.2C120,9.4,120.2,10.1,120.4,10.7z M122.2,3.3c-0.3,0.6-0.7,1.2-1.1,1.8c0.6,0.6,1,1.2,1.3,1.7
	l-0.9,0.4c-0.4-0.6-0.8-1.3-1.3-2.1c0.5-0.6,0.9-1.3,1.3-2L122.2,3.3z M126.4,1.9v0.9h-6.1V1.9H126.4z M126.2,7.4v0.9h-2.3v2.4h2.5
	v0.9h-6v-0.9h2.5V8.3h-2.2V7.4H126.2z M124.2,3.4c-0.3,0.6-0.6,1.1-1,1.6c0.5,0.6,0.9,1.2,1.1,1.7l-0.9,0.4
	c-0.3-0.7-0.7-1.4-1.2-2.1c0.4-0.6,0.8-1.2,1.2-1.9L124.2,3.4z M126.3,3.4c-0.3,0.6-0.6,1.1-1,1.6c0.5,0.6,0.9,1.2,1.2,1.6L125.6,7
	c-0.4-0.6-0.8-1.3-1.3-2c0.4-0.6,0.8-1.2,1.2-1.9L126.3,3.4z"/>
<path class="st0" d="M137.9,2.6h-8.7v3.9c0,0.8-0.1,1.6-0.2,2.5s-0.4,1.8-0.7,2.7l-0.9-0.8c0.3-0.7,0.5-1.4,0.6-2.2
	c0.1-0.8,0.1-1.5,0.1-2.2V1.6h9.7L137.9,2.6L137.9,2.6z M134.2,8.2v0.7h3.1v0.9h-3.1v0.9h3.8v0.9h-8.7v-0.9h1.4v-2h1v2h1.5V8.2
	H134.2z M133.5,3.7c-0.4,0.1-0.9,0.2-1.3,0.2v0.7h1.2v0.8h-1.2c0.5,0.3,0.9,0.6,1.4,0.9l-0.5,0.8c-0.4-0.3-0.7-0.6-0.9-0.7v1.8h-0.9
	V6.5c-0.4,0.5-0.9,1-1.4,1.3L129.4,7c0.8-0.5,1.4-1,1.8-1.7h-1.6V4.5h1.7V4c-0.4,0-0.9,0-1.4,0l-0.3-0.8c1.4,0,2.5-0.1,3.5-0.3
	L133.5,3.7z M137.6,3.7c-0.5,0.1-1,0.2-1.7,0.3v0.7h1.9v0.8h-1.9v0.1c0.6,0.5,1.3,1,2,1.5l-0.5,0.8c-0.6-0.6-1.1-1-1.4-1.4v1.7h-1
	V6.4c-0.4,0.6-0.8,1.1-1.3,1.4L133.2,7c0.7-0.5,1.2-1,1.7-1.7h-1.2V4.5h1.3V4c-0.4,0-0.8,0-1.2,0l-0.3-0.8c1.4,0,2.6-0.1,3.5-0.4
	L137.6,3.7z"/>
<path class="st0" d="M142.7,10.1c-0.5,0.4-1,0.6-1.4,0.8c-0.5,0.2-1.1,0.4-1.8,0.6l-0.5-0.9c0.7-0.1,1.3-0.3,1.9-0.5
	c0.5-0.2,0.9-0.4,1.3-0.7L142.7,10.1z M148.5,1.5v4h-3.7l-2.1,1.1c1,0,2-0.1,3.1-0.3c0.4-0.2,0.8-0.5,1.2-0.7l0.9,0.6
	c-1.3,0.8-2.5,1.4-3.4,1.7c-0.3,0.1-0.7,0.3-1.1,0.4c1.3,0,2.6-0.1,3.9-0.3c-0.2-0.2-0.4-0.4-0.6-0.7l0.8-0.5c0.8,0.8,1.5,1.5,2,2.1
	l-0.9,0.6c-0.2-0.3-0.4-0.5-0.6-0.8c-0.9,0.1-1.9,0.2-3,0.3v1.7c0,0.4-0.1,0.7-0.3,0.8c-0.2,0.2-0.5,0.3-0.9,0.3h-1l-0.2-1.1
	c0.4,0.1,0.7,0.1,0.9,0.1c0.3,0,0.4-0.1,0.4-0.3V9.1c-1.3,0.1-2.8,0.1-4.4,0.1l-0.2-1c0.7,0.1,1.2,0.1,1.6,0.1
	c1.1-0.3,2-0.6,2.7-0.9c0.1-0.1,0.3-0.1,0.5-0.2c-1.1,0.1-2.4,0.1-3.8,0.1l-0.1-0.9c0.4,0,0.7,0.1,0.9,0.1l2-1.1H140v-4L148.5,1.5
	L148.5,1.5z M143.6,3.1V2.3H141v0.8H143.6z M143.6,3.9H141v0.7h2.6V3.9z M144.7,3.1h2.7V2.3h-2.7V3.1z M147.5,3.9h-2.7v0.7h2.7V3.9z
	 M149.4,10.7l-0.6,0.9c-1-0.6-2-1-3-1.3l0.5-0.8C147.4,9.9,148.5,10.3,149.4,10.7z"/>
<path class="st0" d="M154.5,2.5c-0.4,0.1-0.9,0.3-1.4,0.4v1.7h1.3v0.9h-1.3V6c0.5,0.5,1,1.1,1.6,1.7l-0.6,0.9
	c-0.4-0.6-0.7-1.1-1-1.5v4.8h-1V7.2v0.1c-0.3,0.9-0.8,1.7-1.3,2.4l-0.4-1.1c0.7-0.9,1.2-1.9,1.6-3.1h-1.4V4.6h1.5V3
	c-0.4,0.1-0.7,0.1-1.1,0.1l-0.2-0.9c1.2-0.1,2.3-0.3,3.3-0.7L154.5,2.5z M157.1,11c-1,0.4-2,0.7-2.9,0.9l-0.4-0.9
	c1-0.1,2-0.4,2.7-0.7L157.1,11z M157.1,2V1.3h1V2h2.6v0.8h-2.6v0.5h2.2v0.8h-2.2v0.5h3v0.8h-6.5V4.6h2.5V4.1H155V3.3h2.1V2.8h-2.4V2
	H157.1z M160.5,5.9v4.4H155V5.9H160.5z M159.5,7.1V6.6H156v0.5H159.5z M159.5,8.3V7.8H156v0.5H159.5z M159.5,9H156v0.5h3.5V9z
	 M161,11l-0.4,0.9c-0.9-0.4-1.8-0.6-2.7-0.8l0.4-0.8C159.2,10.5,160.1,10.7,161,11z"/>
<path class="st0" d="M172.2,4H169c0.1,1.6,0.3,2.9,0.6,3.9c0.5-0.8,1-1.8,1.5-3.1l1,0.4c-0.6,1.7-1.3,3-2,3.8c0.5,1,0.9,1.5,1.1,1.5
	c0.1,0,0.3-0.5,0.4-1.6l0.9,0.6c-0.3,1.1-0.5,1.7-0.7,2c-0.1,0.2-0.3,0.3-0.5,0.3c-0.5,0-1-0.3-1.5-0.8c-0.3-0.3-0.5-0.6-0.7-1
	c-0.7,0.7-1.6,1.3-2.7,1.8l-0.6-1c1.2-0.5,2.2-1.2,2.9-1.9c-0.2-0.4-0.3-0.8-0.4-1.2c-0.2-1-0.4-2.2-0.5-3.7H164v1.4h3.2
	c0,2.1-0.1,3.4-0.3,3.9c-0.2,0.6-0.6,1-1.1,1h-1.5l-0.2-1.1c0.8,0.1,1.3,0.1,1.7,0.1c0.1,0,0.2-0.2,0.2-0.5c0-0.4,0.1-1.2,0.1-2.4
	H164c0,0.8-0.1,1.7-0.2,2.5c-0.2,1.1-0.6,2.1-1,3.1l-0.9-0.8c0.4-0.8,0.7-1.7,0.9-2.6c0.1-0.9,0.2-1.8,0.2-2.6V3h4.9
	c0-0.5,0-1,0-1.6h1.1c0,0.6,0,1.1,0,1.6h1.6c-0.3-0.3-0.7-0.6-1.1-0.9l0.7-0.7c0.5,0.3,1,0.7,1.4,1L171,3h1.3v1H172.2z"/>
<path class="st0" d="M176.3,1.6c-0.4,1.1-0.8,2-1.3,2.9c0.3,0,0.7-0.1,1-0.1c0.2-0.5,0.5-1,0.7-1.6l0.9,0.4
	c-0.8,1.8-1.6,3.2-2.5,4.4c0.6-0.1,1.1-0.1,1.5-0.3c-0.1-0.3-0.2-0.7-0.3-1l0.8-0.3c0.3,0.7,0.5,1.6,0.7,2.5l-0.9,0.2
	c0-0.2-0.1-0.4-0.1-0.6c-0.8,0.2-1.9,0.4-3.2,0.5l-0.3-1c0.3,0,0.5,0,0.7,0c0.5-0.6,0.9-1.4,1.4-2.3c-0.6,0.1-1.3,0.2-2,0.3
	l-0.2-0.9c0.2,0,0.4,0,0.6,0c0.5-1,1-2.1,1.4-3.3L176.3,1.6z M174.8,8.9c-0.1,1.2-0.2,2.1-0.4,2.9l-1-0.3c0.3-0.8,0.4-1.7,0.5-2.7
	L174.8,8.9z M176.3,11.4l-0.9,0.1c0-1.1-0.1-1.9-0.2-2.5l0.8-0.1C176.2,9.5,176.3,10.3,176.3,11.4z M177.9,10.7L177,11
	c-0.1-0.7-0.3-1.4-0.4-2.1l0.8-0.2C177.5,9.4,177.7,10.1,177.9,10.7z M179.7,3.3c-0.3,0.6-0.7,1.2-1.1,1.8c0.6,0.6,1,1.2,1.3,1.7
	L179,7.2c-0.4-0.6-0.8-1.3-1.3-2.1c0.5-0.6,0.9-1.3,1.3-2L179.7,3.3z M183.9,1.9v0.9h-6.1V1.9H183.9z M183.7,7.4v0.9h-2.3v2.4h2.5
	v0.9h-6v-0.9h2.5V8.3h-2.2V7.4H183.7z M181.7,3.4c-0.3,0.6-0.6,1.1-1,1.6c0.5,0.6,0.9,1.2,1.1,1.7l-0.9,0.4
	c-0.3-0.7-0.7-1.4-1.2-2.1c0.4-0.6,0.8-1.2,1.2-1.9L181.7,3.4z M183.8,3.4c-0.3,0.6-0.6,1.1-1,1.6c0.5,0.6,0.9,1.2,1.2,1.6L183,7
	c-0.4-0.6-0.8-1.3-1.3-2c0.4-0.6,0.8-1.2,1.2-1.9L183.8,3.4z"/>
<path class="st0" d="M185.8,8.2c0,1.3-0.1,2.3-0.1,3.2l-0.7-0.2c0.1-0.9,0.2-2,0.2-3.1L185.8,8.2z M189.5,2.7h-1.3v0.9h1v0.2
	c0.7-0.4,1.2-0.7,1.6-1.1c0.3-0.3,0.7-0.7,1-1.3h1c0.4,0.6,0.8,1,1.2,1.4c0.3,0.3,0.8,0.6,1.6,1L195,4.7c-0.4-0.2-0.7-0.4-1-0.6v0.7
	h-3.3V4c-0.3,0.2-0.7,0.5-1.1,0.7l-0.4-0.8v0.3h-1V5h1v0.8h-1v0.9h1.1c0,2.3,0,3.7-0.1,4.2c-0.1,0.3-0.2,0.6-0.3,0.7
	c-0.2,0.1-0.5,0.2-1,0.2c-0.2,0-0.5,0-0.8,0l-0.1-0.9c0.3,0.1,0.6,0.1,0.9,0.1c0.3,0,0.5-0.1,0.5-0.4c0.1-0.3,0.1-1.3,0.1-2.9h-3.1
	V1.8h4.2v0.9H189.5z M186.7,11h-0.6c0-1.2,0-2.2,0-2.9h0.5C186.6,8.8,186.7,9.8,186.7,11z M187.4,2.7h-1.1v0.9h1.1V2.7z M187.4,4.3
	h-1.1v0.8h1.1V4.3z M187.4,5.8h-1.1v0.9h1.1V5.8z M187.6,10.2H187c0-0.9-0.1-1.7-0.2-2.2h0.5C187.4,8.6,187.5,9.3,187.6,10.2z
	 M188.3,9.7l-0.5,0.2c-0.1-0.6-0.2-1.2-0.3-1.8l0.4-0.1C188.1,8.6,188.2,9.2,188.3,9.7z M191.7,8.7c-0.1,0.3-0.2,0.5-0.3,0.8
	c0.3,0.2,0.7,0.4,1,0.7l-0.5,0.9c-0.3-0.3-0.6-0.5-0.8-0.7c-0.3,0.6-0.7,1.2-1,1.6l-0.7-0.8c0.6-0.8,1.1-1.6,1.4-2.6L191.7,8.7z
	 M192.2,5.2v3.2h-2.4V5.2H192.2z M191.4,6h-0.8v1.5h0.8V6z M193.7,3.8c-0.4-0.4-0.9-0.8-1.4-1.4c-0.4,0.5-0.8,1-1.2,1.3
	c-0.1,0.1-0.1,0.1-0.2,0.1H193.7z M194.4,8.8c-0.1,0.3-0.2,0.5-0.3,0.8c0.5,0.4,0.9,0.9,1.3,1.4l-0.5,0.9c-0.4-0.6-0.8-1-1.2-1.4
	c0,0,0,0.1-0.1,0.1c-0.2,0.4-0.5,0.8-1,1.4l-0.8-0.7c0.4-0.4,0.7-0.8,1-1.2c0.2-0.4,0.4-0.9,0.6-1.5L194.4,8.8z M195.1,5.2v3.2h-2.5
	V5.2H195.1z M194.3,6h-0.9v1.5h0.9V6z"/>
<path class="st0" d="M5.4,24.5H7c0.4-0.6,0.8-1.2,1.1-1.9L9.4,23c-0.3,0.6-0.6,1.1-1,1.5h2.8v1H7.9v6.2h3.6v1H0.9v-1h3.5v-6.2H1.2
	v-1h2.9c-0.2-0.4-0.5-0.9-0.9-1.4l1.2-0.4C4.7,23.1,5.1,23.8,5.4,24.5z M4,30.2l-1.2,0.3c-0.3-1.3-0.7-2.5-1.1-3.6l1-0.3
	C3.2,27.6,3.7,28.8,4,30.2z M6.8,31.7v-6.2H5.5v6.2H6.8z M10.8,27c-0.3,1.2-0.7,2.4-1.3,3.6l-1.1-0.5c0.5-1.2,0.9-2.4,1.3-3.5
	L10.8,27z"/>
<path class="st0" d="M22.7,23.2v1h-3.5c-0.2,0.5-0.5,1-0.8,1.4v7.5h-1.2v-6c-0.1,0.1-0.2,0.2-0.3,0.3c-1,1-2.2,2-3.7,2.8l-0.7-0.9
	c1.4-0.8,2.6-1.6,3.6-2.6c0.6-0.6,1.3-1.4,1.8-2.5h-5.2v-1H22.7z M22.7,29.3l-0.9,0.9c-0.7-0.9-1.6-1.9-2.8-3l0.8-0.8
	C21,27.4,21.9,28.3,22.7,29.3z"/>
<path class="st0" d="M33.6,22.9v0.9h-3.9v0.5h4.6V27h-1.1v-1.8h-3.6v2.5h-1.1v-2.5H25v1.9h-1.1v-2.8h4.6v-0.5h-4v-0.9H33.6z
	 M34.4,28.1V29h-4.7l-0.3,0.7H34v2.4c0,0.3-0.1,0.5-0.3,0.7C33.5,32.9,33.3,33,33,33h-1l-0.2-0.9h0.8c0.2,0,0.3-0.1,0.3-0.4v-1.3H31
	v2.4h-1v-2.4h-1.6v2.4h-1v-2.4h-1.7V33h-1v-3.4h3.5l0.3-0.7H24V28L34.4,28.1L34.4,28.1z M28.2,25.6v0.7h-2.7v-0.7H28.2z M28.2,26.9
	v0.7h-2.7v-0.7H28.2z M32.9,25.6v0.7h-2.8v-0.7H32.9z M32.9,26.9v0.7h-2.8v-0.7H32.9z"/>
<path class="st0" d="M45.9,22.9v0.9h-3.5v0.9h2.9v3h-4.6c-0.2,0.3-0.4,0.5-0.6,0.8h5.8v0.9h-2.2c-0.4,0.6-0.8,1.2-1.2,1.6
	c1.2,0.4,2.3,0.7,3.3,1.2l-0.9,0.9c-1-0.5-2.1-0.9-3.4-1.3c-1,0.6-2.9,1-5.7,1.4l-0.4-1c2.1-0.1,3.7-0.4,4.7-0.7
	c-1-0.3-2.1-0.5-3.3-0.7c0.4-0.4,0.8-0.9,1.2-1.3h-2.8v-0.9h3.5c0.2-0.3,0.4-0.5,0.6-0.8h-3.4v-3h2.8v-0.9h-3.3V23h10.5V22.9z
	 M38.8,25.7h-1.7v1.2h1.7V25.7z M42.7,29.5h-3.2c-0.2,0.3-0.4,0.5-0.6,0.7c1.1,0.2,2,0.4,2.7,0.6C42,30.4,42.4,30,42.7,29.5z
	 M41.4,23.9h-1.6v0.9h1.6V23.9z M41.4,25.7h-1.6v1.2h1.6V25.7z M44.3,25.7h-1.8v1.2h1.8V25.7z"/>
<path class="st0" d="M49.9,25.3v0.8c-0.4,0.6-0.8,1.3-1.4,2h1.4v0.6c-0.2,0.7-0.3,1.3-0.5,1.7c0.4,0.5,0.8,0.9,1,1
	c0.2,0.2,0.6,0.3,1.1,0.3c0.6,0.1,1.6,0.1,3.3,0.2c1.2,0,2.1,0,2.7-0.1l-0.1,1.1c-3.2,0-5.1,0-5.8-0.1c-0.6-0.1-1.1-0.2-1.5-0.4
	c-0.3-0.2-0.7-0.5-1.1-1c-0.3,0.6-0.8,1.1-1.3,1.8l-0.8-0.9c0.6-0.6,1-1.1,1.3-1.6c0.2-0.3,0.4-0.8,0.7-1.7h-1.6v-0.9
	c0.5-0.5,1-1.1,1.5-1.9H47v-0.9H49.9z M49.6,24.2L48.8,25c-0.3-0.5-0.8-1.1-1.4-1.7l0.7-0.7C48.8,23.1,49.2,23.7,49.6,24.2z
	 M56.5,26.3H57v4.2c0,0.3-0.1,0.6-0.3,0.8c-0.2,0.2-0.4,0.2-0.7,0.2h-1.1l-0.2-0.9h0.9c0.2,0,0.3-0.1,0.3-0.4v-3h-4.6v4.1h-1v-5h0.6
	v-3.4h5.6V26.3z M52.9,26.3v-1.7h2.7v-0.9H52v2.6H52.9z M55.2,27.8v2.6h-3v-2.6H55.2z M54.2,28.6H53v1.1h1.2V28.6z M55.5,26.3v-0.9
	h-1.8v0.9H55.5z"/>
<path class="st0" d="M63.8,22.7c-0.1,0.3-0.3,0.5-0.5,0.7h4.3v0.9c-0.7,0.9-1.7,1.7-2.9,2.3c-1.6,0.9-3.4,1.5-5.6,1.8l-0.4-0.9
	c1.6-0.2,2.9-0.5,4-1c-0.4-0.4-0.8-0.8-1.3-1.2l0.8-0.5c0.6,0.5,1.1,0.9,1.5,1.2c0.9-0.5,1.6-1,2.3-1.6h-3.9c-0.1,0-0.1,0.1-0.1,0.1
	c-0.7,0.5-1.6,1-2.6,1.4L58.7,25c1-0.3,1.8-0.7,2.4-1.1c0.5-0.3,1-0.7,1.4-1.3L63.8,22.7z M66.4,26.8c-0.3,0.3-0.5,0.6-0.7,0.9h3.1
	v0.9C68,30,67.1,31,66,31.6c-1.2,0.7-3.2,1.2-5.9,1.6l-0.8-1c2.2-0.2,3.9-0.5,5.1-0.9c-0.4-0.4-0.8-0.8-1.3-1.2l0.8-0.5
	c0.6,0.5,1.2,0.9,1.6,1.2c0.8-0.5,1.5-1.1,2-2h-3c0,0-0.1,0-0.1,0.1c-0.8,0.6-2.1,1.2-3.9,1.8l-0.8-1c1.6-0.4,2.8-0.9,3.6-1.3
	s1.4-0.9,1.9-1.6H66.4z"/>
<path class="st0" d="M72.6,23.5v-1h1.1v1H75v0.9h-1.3v0.9h3v-0.9h-1.2v-0.9h1.2v-1h1.1v1h2.6v0.9h-2.6v0.9h2v0.9h-1.2v0.9h1.5V28
	h-1.5v1.2h1.8v0.9h-4.6V31H80v0.9h-4.2v1.3h-1.1v-1.3h-4.2V31h4.2v-1h-4.6v-0.9h1.8V28h-1.6v-0.9h1.6v-0.9h-1.4v-0.9h2.1v-0.9H70
	v-0.9H72.6z M74.7,26.1h-1.8V27h1.8V26.1z M74.7,29.1V28h-1.8v1.2h1.8V29.1z M77.6,26.1h-1.9V27h1.9V26.1z M75.8,29.1h1.9V28h-1.9
	V29.1z"/>
<path class="st0" d="M86.5,25.5l0.6-0.1c0.1,0.2,0.2,0.4,0.3,0.7h4.3v0.8h-3v0.7h2.7v2.2h-2.7v0.9c1-0.2,1.9-0.4,2.7-0.6l0.5,0.7
	c-0.9,0.3-2,0.6-3.2,0.8v0.5c0,0.2,0.1,0.3,0.4,0.3h1.6c0.1,0,0.2,0,0.3-0.1c0.1-0.1,0.1-0.4,0.1-0.9l0.9,0.3
	c-0.1,0.7-0.2,1.2-0.4,1.3c-0.2,0.1-0.4,0.2-0.9,0.2h-2.1c-0.3,0-0.5-0.1-0.7-0.2c-0.2-0.2-0.3-0.4-0.3-0.6V30h-2.7v0.7h2.3v0.7
	h-2.3v0.8c0.9-0.1,1.7-0.1,2.4-0.3v0.8c-0.8,0.2-2.1,0.3-4,0.5l-0.1-0.9c0.3,0,0.6,0,0.9,0V30h-0.8c0,0.4-0.1,0.9-0.1,1.3
	c-0.2,0.7-0.4,1.5-0.8,2.2l-0.9-0.8c0.3-0.6,0.5-1.1,0.7-1.7c0.1-0.6,0.1-1.2,0.1-1.7v-2.8h4.3c-0.1-0.1-0.1-0.2-0.2-0.4h-0.6V25
	h-2.5v1.1h-0.9V24h4.4v1.5H86.5z M86.7,22.8v0.8H82v-0.8H86.7z M85.1,26.9h-1.9v0.7h1.9V26.9z M85.1,29v-0.7h-1.9V29H85.1z
	 M84.8,25.7L84,25.9c-0.1-0.3-0.2-0.6-0.3-0.8l0.7-0.2C84.6,25.1,84.7,25.4,84.8,25.7z M87.8,26.9H86v0.7h1.8V26.9z M86,29h1.8v-0.7
	H86V29z M91.9,22.8v0.8h-4.7v-0.8H91.9z M91.6,25.8h-0.9v-1.1h-2.4v1.1h-0.9V24h4.3L91.6,25.8L91.6,25.8z M88.7,29h1.8v-0.7h-1.8V29
	z M90,25.7l-0.8,0.2c-0.1-0.3-0.2-0.6-0.4-0.9l0.7-0.2C89.7,25.1,89.9,25.4,90,25.7z"/>
<path class="st0" d="M95.7,23.8h1.6v0.9H93v-0.9h1.7c-0.2-0.4-0.4-0.8-0.6-1.2l1.1-0.1C95.4,22.9,95.6,23.4,95.7,23.8z M94.4,33.1
	h-1V29h3.5v4h-1v-0.7h-1.5V33.1z M96.8,27.2v0.9h-3.5v-0.9H96.8z M96.8,25.5v0.9h-3.4v-0.9H96.8z M95.8,29.9h-1.5v1.4h1.5V29.9z
	 M103.1,23.3v8.6c0,0.4-0.1,0.7-0.2,0.9c-0.2,0.2-0.4,0.3-0.8,0.3h-1.8L100,32h1.8c0.2,0,0.3-0.1,0.3-0.4v-7.4h-4.6v-1L103.1,23.3
	L103.1,23.3z M101.6,25.4v1h-4.1v-1H101.6z M101.2,27.4v3.7h-3.5v-3.7H101.2z M100.2,28.3h-1.4v1.8h1.4V28.3z"/>
<path class="st0" d="M107.1,23.2v-0.7h1.1v0.7h1.3v0.9h-1.3v0.6h3.1v-0.6H110v-0.9h1.3v-0.7h1.1v0.7h2.6v0.9h-2.6v0.6h1.4v2.2H108
	v-2.1h-0.9v-0.7h-2.6v-0.9H107.1z M106.9,29.8c-0.4,1.3-1,2.3-1.6,3.2l-0.8-0.8c0.5-0.7,1-1.7,1.5-2.9L106.9,29.8z M107,28.1
	l-0.6,0.9c-0.6-0.6-1.2-1-1.8-1.4l0.5-0.8C105.8,27.2,106.4,27.6,107,28.1z M107.3,25.9l-0.8,0.8c-0.4-0.4-1-0.8-1.8-1.3l0.7-0.7
	C106.2,25.1,106.8,25.5,107.3,25.9z M110.5,27.3v2h0.6v-2h3.4v2.2h-3.2v0.4h3.6v0.9h-2.5c0.3,0.3,0.6,0.5,0.8,0.6
	c0.4,0.3,1,0.5,1.8,0.7l-0.4,0.9c-1-0.4-1.7-0.7-2.1-1.1c-0.3-0.2-0.7-0.6-1.1-1.1h-0.1v2.4h-1v-2.4c-0.2,0.3-0.5,0.6-0.7,0.7
	c-0.5,0.5-1.3,0.9-2.5,1.4l-0.5-0.9c0.9-0.3,1.5-0.6,2-0.9c0.3-0.1,0.5-0.3,0.7-0.5H107v-0.9h3.3v-0.4h-3v-2.2h3.2V27.3z
	 M109.6,28.1h-1.3v0.7h1.3V28.1z M112.8,25.4H109v0.7h3.8V25.4z M113.6,28.1H112v0.7h1.5L113.6,28.1L113.6,28.1z"/>
<path class="st0" d="M119.4,23.7c-0.4,0.2-1,0.4-1.9,0.6v0.9h1.7v0.9h-1.7v1.3h1.6v0.9h-1.5v1.3h2.1v-3.1h1v3.1h1V26h-2v-3.5h1v0.8
	h2.1v0.9h-2.1v1h2.1v4.5h2.2v-1.2h-1.7v-0.9h1.7v-1.3h-1.7v-0.9h1.7v-1.2h-1.8v-0.9h2.8l-0.1,6.6h0.6v1h-10.6v-1h0.7l-0.1-6.2
	c0.8-0.1,1.6-0.4,2.5-0.8L119.4,23.7z M120.2,31.5c-0.9,0.6-2.1,1.1-3.5,1.6l-0.7-0.9c1.3-0.4,2.4-0.8,3.4-1.4L120.2,31.5z
	 M126.4,32.2l-0.7,1c-1.1-0.7-2.2-1.2-3.3-1.6l0.6-0.9C124.2,31.1,125.3,31.6,126.4,32.2z"/>
<path class="st0" d="M131.1,22.9v3.4H129l-0.1,1.7h2.3c0,2.3-0.1,3.7-0.2,4.1c-0.1,0.3-0.3,0.6-0.5,0.7c-0.3,0.1-0.8,0.2-1.6,0.2
	c-0.3,0-0.5,0-0.9,0l-0.2-1.1c0.3,0.1,0.7,0.1,1,0.1c0.6,0,0.9-0.1,1-0.3c0.1-0.3,0.2-1.2,0.2-2.7h-2.4l0.3-3.5h2v-1.6h-2.2V23h3.4
	V22.9z M137.5,23.7h-4v0.7h3.6v0.9h-3.6v0.8h3.6V27h-3.6v0.8h4.5v0.9h-3c0.2,0.5,0.3,0.9,0.6,1.3c0.5-0.2,0.9-0.5,1.3-1l0.8,0.8
	c-0.4,0.4-0.9,0.7-1.4,1c0.4,0.4,1,0.7,1.8,1.1l-0.6,1.1c-0.9-0.5-1.6-1-2.1-1.6s-1-1.5-1.3-2.7h-0.5v2.8c0.4-0.1,0.8-0.3,1.2-0.5
	l0.2,0.9c-0.8,0.4-1.9,0.8-3.1,1.1l-0.4-1c0.3-0.1,0.7-0.1,1-0.2v-3.1h-0.8v-0.9h0.8v-4.9h5.1v0.8H137.5z"/>
<path class="st0" d="M140.3,24.6v-2.1h1.1v2.1h1.2v1h-1.2v2.2c0.3-0.2,0.7-0.4,1-0.7v1.1c-0.3,0.2-0.7,0.4-1,0.6v3
	c0,0.4-0.1,0.7-0.3,0.9c-0.2,0.2-0.5,0.3-0.9,0.3h-0.8l-0.2-1.1c0.3,0.1,0.5,0.1,0.7,0.1c0.3,0,0.4-0.1,0.4-0.3v-2.3
	c-0.4,0.2-0.8,0.3-1.2,0.4l-0.1-1.1c0.4-0.1,0.9-0.2,1.3-0.4v-2.7H139v-1H140.3z M149.4,26.9v1H145c-0.1,0.2-0.3,0.4-0.4,0.6h4.5
	c-0.1,1.9-0.1,3.1-0.3,3.6c-0.1,0.3-0.2,0.6-0.5,0.8c-0.2,0.1-0.8,0.2-1.9,0.2l-0.2-1c0.4,0,0.6,0,0.8,0c0.4,0,0.6-0.1,0.7-0.2
	c0.2-0.2,0.3-1.1,0.3-2.5h-0.5c-0.5,1-0.9,1.7-1.4,2.2c-0.6,0.6-1.4,1.2-2.6,1.6l-0.5-0.9c1-0.4,1.9-0.9,2.4-1.4
	c0.4-0.4,0.7-0.9,1-1.5h-0.8c-0.3,0.5-0.7,0.9-1.1,1.3c-0.5,0.5-1.2,0.9-2,1.3l-0.6-0.8c0.7-0.3,1.3-0.7,1.8-1
	c0.3-0.2,0.5-0.4,0.8-0.8h-0.9c-0.4,0.4-1,0.8-1.6,1.1l-0.6-0.8c0.6-0.3,1.2-0.7,1.6-1.1c0.2-0.2,0.4-0.4,0.7-0.8h-1.4v-1h7.1V26.9z
	 M148.8,22.9v3.6h-5.7v-3.6H148.8z M147.7,24.2v-0.6h-3.6v0.6H147.7z M147.7,25h-3.6v0.6h3.6V25z"/>
<path class="st0" d="M153.1,23.8h1.6v0.9h-4.2v-0.9h1.6c-0.1-0.4-0.3-0.8-0.4-1.2l1.1-0.1C152.8,22.9,152.9,23.4,153.1,23.8z
	 M151.8,33.1h-1V29h3.4v3.9h-1v-0.6h-1.3L151.8,33.1L151.8,33.1z M154.1,25.5v0.9h-3.3v-0.9H154.1z M154.1,27.2v0.9h-3.3v-0.9H154.1
	z M153.2,29.9h-1.3v1.4h1.3V29.9z M156.7,23.7c0.1-0.3,0.3-0.7,0.4-1.2l1,0.1c-0.1,0.4-0.2,0.8-0.3,1.1h3.2v0.9h-2
	c0.2,0.4,0.4,0.6,0.6,0.8c0.3,0.3,0.7,0.6,1.3,0.9l-0.4,0.9c-0.4-0.3-0.8-0.5-1.1-0.7V27H156v-0.5c-0.3,0.3-0.8,0.6-1.2,0.9
	l-0.5-0.9c0.8-0.5,1.4-1,1.8-1.6c0.1-0.1,0.1-0.2,0.2-0.3h-1.5v-0.9H156.7z M160.9,27.7v1h-3.7l-0.3,0.9h3.3
	c-0.1,0.9-0.2,1.7-0.3,2.3c-0.1,0.4-0.3,0.6-0.5,0.8c-0.3,0.2-0.7,0.3-1.2,0.3h-1.5l-0.3-1.1c0.6,0.1,1.2,0.1,1.8,0.1
	c0.3,0,0.5-0.1,0.6-0.2c0.1-0.2,0.2-0.6,0.3-1.3h-3.5l0.6-1.7h-1.5v-1L160.9,27.7L160.9,27.7z M159,26l-0.1-0.1
	c-0.3-0.3-0.6-0.7-0.9-1.4h-0.5c-0.1,0.3-0.3,0.5-0.4,0.7c-0.2,0.3-0.4,0.5-0.6,0.8H159z"/>
<path class="st0" d="M164.4,22.5v4.1h1.5v0.9H165v3.4c0.3-0.2,0.6-0.5,0.9-0.7v1c-0.6,0.6-1.2,1.1-2,1.6l-0.3-1
	c0.2-0.1,0.4-0.2,0.5-0.3v-3.9h-0.4c-0.1,1.3-0.2,2.3-0.4,3.1c-0.2,0.9-0.5,1.6-0.9,2.3l-0.6-0.8c0.3-0.6,0.5-1.2,0.7-2
	c0.1-0.7,0.2-1.5,0.3-2.6H162v-0.9h1.5v-4.1h0.9V22.5z M163.3,25.8l-0.8,0.3c-0.2-1-0.3-1.9-0.5-2.7l0.8-0.2
	C162.9,24,163.1,24.9,163.3,25.8z M165.9,23.5c-0.1,1.1-0.3,2-0.5,2.7l-0.7-0.5c0.2-0.7,0.4-1.6,0.5-2.6L165.9,23.5z M167.9,27
	c-0.1,0.2-0.2,0.4-0.3,0.6h1.6c-0.1-0.2-0.2-0.3-0.3-0.5l0.9-0.1c0.1,0.2,0.2,0.4,0.3,0.6h2.2v0.8H170V29h2v0.8h-2v0.6h2v0.8h-2v0.7
	h2.5v0.8h-5.3v0.4h-0.9v-3.7c-0.2,0.2-0.5,0.5-0.7,0.7l-0.3-1c0.4-0.3,0.7-0.7,1-1c0.3-0.3,0.6-0.8,0.8-1.4L167.9,27z M167.9,25.9
	c-0.4,0.5-1,0.9-1.6,1.3l-0.4-0.9c0.6-0.3,1.2-0.7,1.8-1.2L167.9,25.9z M168.9,22.9V27H168v-3.2h-2v-0.9H168.9z M167.6,24.6
	l-0.4,0.7c-0.3-0.3-0.7-0.6-1-0.8l0.4-0.6C166.9,24,167.3,24.3,167.6,24.6z M169.1,28.4h-1.8V29h1.8V28.4z M169.1,29.8h-1.8v0.6h1.8
	V29.8z M169.1,31.9v-0.7h-1.8v0.7H169.1z M171.1,25.9c-0.4,0.4-0.9,0.7-1.5,1l-0.3-0.8c0.5-0.2,1.1-0.5,1.7-1L171.1,25.9z
	 M172.1,22.9V27h-0.9v-3.2h-1.9v-0.9H172.1z M170.7,24.6l-0.4,0.7c-0.3-0.3-0.7-0.6-1-0.8l0.4-0.6C170.1,24.1,170.4,24.3,170.7,24.6
	z"/>
<path class="st0" d="M5.3,51.9h-3v0.9h-1v-8.4h4V51.9z M4.3,47.6v-2.2H2.4v2.2H4.3z M4.3,50.9v-2.3H2.4v2.3H4.3z M6.4,44.1h4.9V53
	c0,0.4-0.1,0.7-0.3,0.9s-0.4,0.3-0.7,0.3H8.5l-0.2-1.1l1.6,0.1c0.2,0,0.4-0.2,0.4-0.4v-2H7.5c-0.1,0.4-0.2,0.8-0.3,1.1
	c-0.3,0.8-1,1.7-1.9,2.5l-0.9-0.8c0.9-0.6,1.5-1.3,1.8-2.1c0.3-0.6,0.5-1.5,0.5-2.8v-0.8v-3.8H6.4z M10.1,49.7v-1.8H7.5v0.8
	c0,0.4,0,0.7,0,1H10.1z M10.1,46.8v-1.7H7.5v1.7H10.1z"/>
<path class="st0" d="M15.2,43.9c-0.1,0.2-0.2,0.4-0.3,0.6h2.9v0.9c0.5-0.6,0.9-1.1,1.1-1.7l1,0.2c-0.1,0.2-0.2,0.5-0.3,0.7h3.5v0.9
	h-1.9c0.1,0.3,0.2,0.6,0.3,0.9l-1.1,0.1c-0.1-0.3-0.2-0.7-0.2-0.9H19c-0.3,0.4-0.5,0.7-0.8,1L17.3,46c0.2-0.1,0.3-0.3,0.4-0.4h-1.5
	c0.1,0.3,0.2,0.5,0.3,0.8l-1.1,0.1c-0.1-0.3-0.2-0.6-0.3-0.9h-0.9c-0.3,0.4-0.6,0.7-1,1L12.3,46c0.9-0.7,1.4-1.4,1.8-2.2L15.2,43.9z
	 M17.3,50.4v-0.6l-0.4-0.4c0.6-0.2,1-0.4,1.3-0.6c-0.3-0.1-0.6-0.3-0.9-0.4l0.5-0.7c0.3,0.1,0.6,0.2,0.9,0.3c0-0.1,0-0.2,0-0.3v-0.4
	h-1.3v-0.8h4.1v2.2c0,0.2,0.1,0.3,0.3,0.3c0.1,0,0.2,0,0.2-0.1c0.1-0.1,0.1-0.4,0.1-0.9l0.9,0.3c-0.1,0.8-0.2,1.3-0.3,1.4
	c-0.1,0.1-0.4,0.2-0.8,0.2h-0.4c-0.3,0-0.5-0.1-0.7-0.2c-0.2-0.2-0.2-0.4-0.2-0.7v-1.7h-1.1v0.4c0,0.3,0,0.5-0.1,0.7
	c0.4,0.2,0.7,0.3,1,0.5l-0.5,0.9c-0.3-0.2-0.7-0.4-1-0.6c-0.2,0.2-0.5,0.4-0.8,0.5h0.2v0.6H23v0.9h-3.6c0.4,0.3,0.8,0.6,1.2,0.7
	c0.6,0.3,1.3,0.6,2.4,0.8l-0.4,0.9c-1.3-0.4-2.2-0.8-2.8-1.2c-0.5-0.3-0.9-0.7-1.4-1.3V54h-1v-2.9c-0.3,0.4-0.7,0.8-1.2,1.1
	c-0.7,0.5-1.7,1-3.1,1.5l-0.6-0.9c1.4-0.4,2.3-0.8,2.9-1.1c0.3-0.1,0.5-0.3,0.8-0.5h-3.7v-0.9L17.3,50.4L17.3,50.4z M17,46.8v0.9
	h-1.5v1c0.5-0.1,1-0.2,1.5-0.3v0.9c-1.2,0.3-2.6,0.6-4.2,0.9l-0.2-1c0.6-0.1,1.3-0.1,1.9-0.2v-1.2h-1.6v-0.9L17,46.8L17,46.8z"/>
<path class="st0" d="M29.9,44.5v-0.8h1v0.8h2.7v1.7h0.6v0.9h-0.6v1.7H31v0.7h2.8v0.8H31v0.8h3.3V52H31v1c0.2,0,0.3,0,0.5,0
	c1.3,0,2.4,0,3-0.1l-0.2,1.2c-3.6,0-5.7-0.1-6.5-0.2c-0.7-0.2-1.3-0.5-1.7-0.8L26,53c-0.4,0.5-0.9,0.9-1.5,1.5l-0.6-1.1
	c0.6-0.4,1.1-0.9,1.4-1.3c-0.3-0.6-0.7-1.4-1.1-2.4l0.9-0.3c0.3,0.7,0.5,1.2,0.7,1.6c0,0,0-0.1,0.1-0.2c0.1-0.5,0.3-1.2,0.3-2.1h-2
	V48c0.7-0.8,1.3-1.7,1.9-2.7H24v-0.9h3.3v1c-0.7,1.1-1.2,1.9-1.8,2.5h1.7c0,1.3-0.2,2.3-0.4,3.1c-0.1,0.4-0.2,0.7-0.4,1
	c0.3,0.3,0.7,0.6,1.2,0.7c0.4,0.1,1.2,0.2,2.2,0.3v-1h-2.7v-0.9h2.7v-0.8h-2.2v-0.8h2.2v-0.7h-2.1V48h2.1v-0.9h-2.7v-0.9h2.7v-0.9
	h-2.1v-0.8H29.9z M31,46.2h1.7v-0.9H31V46.2z M31,48h1.7v-0.9H31V48z"/>
<path class="st0" d="M38.2,43.9c-0.1,0.2-0.2,0.4-0.3,0.6h2.9v0.9c0.5-0.6,0.9-1.1,1.1-1.7l1,0.2c-0.1,0.2-0.2,0.5-0.3,0.7h3.5v0.9
	h-1.9c0.1,0.3,0.2,0.6,0.3,0.9l-1.1,0.1c-0.1-0.3-0.2-0.7-0.2-0.9H42c-0.3,0.4-0.5,0.7-0.8,1L40.3,46c0.2-0.1,0.3-0.3,0.4-0.4h-1.5
	c0.1,0.3,0.2,0.5,0.3,0.8l-1.1,0.1c-0.1-0.3-0.2-0.6-0.3-0.9h-0.9c-0.3,0.4-0.6,0.7-1,1L35.3,46c0.9-0.7,1.4-1.4,1.8-2.2L38.2,43.9z
	 M40.3,50.4v-0.6l-0.4-0.4c0.6-0.2,1-0.4,1.3-0.6c-0.3-0.1-0.6-0.3-0.9-0.4l0.5-0.7c0.3,0.1,0.6,0.2,0.9,0.3c0-0.1,0-0.2,0-0.3v-0.4
	h-1.3v-0.8h4.1v2.2c0,0.2,0.1,0.3,0.3,0.3c0.1,0,0.2,0,0.2-0.1c0.1-0.1,0.1-0.4,0.1-0.9l0.9,0.3c-0.1,0.8-0.2,1.3-0.3,1.4
	c-0.1,0.1-0.4,0.2-0.8,0.2h-0.4c-0.3,0-0.5-0.1-0.7-0.2c-0.2-0.2-0.2-0.4-0.2-0.7v-1.7h-1.1v0.4c0,0.3,0,0.5-0.1,0.7
	c0.4,0.2,0.7,0.3,1,0.5l-0.5,0.9c-0.3-0.2-0.7-0.4-1-0.6c-0.2,0.2-0.5,0.4-0.8,0.5h0.2v0.6H46v0.9h-3.6c0.4,0.3,0.8,0.6,1.2,0.7
	c0.6,0.3,1.3,0.6,2.4,0.8l-0.4,0.9c-1.3-0.4-2.2-0.8-2.8-1.2c-0.5-0.3-0.9-0.7-1.4-1.3V54h-1v-2.9c-0.3,0.4-0.7,0.8-1.2,1.1
	c-0.7,0.5-1.7,1-3.1,1.5l-0.6-0.9c1.4-0.4,2.3-0.8,2.9-1.1c0.3-0.1,0.5-0.3,0.8-0.5h-3.7v-0.9L40.3,50.4L40.3,50.4z M40,46.8v0.9
	h-1.5v1c0.5-0.1,1-0.2,1.5-0.3v0.9c-1.2,0.3-2.6,0.6-4.2,0.9l-0.2-1c0.6-0.1,1.3-0.1,1.9-0.2v-1.2h-1.6v-0.9L40,46.8L40,46.8z"/>
<path class="st0" d="M57.2,54.2h-0.9v-0.3h-8v0.3h-0.9V44h9.9L57.2,54.2L57.2,54.2z M56.2,53v-8.2h-8V53H56.2z M51.6,45.4V45h0.9
	v0.4h3.3v0.7h-3.3v0.4h2.8v2.7h-0.5c0.3,0.4,0.6,0.7,0.9,0.9L55,50.6c-0.1-0.1-0.2-0.3-0.3-0.5c-0.1,0-0.1,0-0.2,0v0.6h1.4v0.7h-1.4
	v0.5c0,0.3-0.1,0.5-0.2,0.6c-0.1,0.1-0.4,0.2-0.8,0.2h-1.3L52,52c0.5,0.1,0.9,0.1,1.2,0.1c0.2,0,0.4-0.1,0.4-0.2v-0.4h-2.8
	c0.3,0.3,0.5,0.6,0.7,0.9l-0.9,0.4c-0.2-0.4-0.5-0.8-0.8-1.2l0.4-0.1h-1.6v-0.7h4.9v-0.5c-1.4,0.1-2.9,0.2-4.7,0.3l-0.2-0.8
	c1,0,2,0,3-0.1v-0.4h-2.7v-2.7h2.7v-0.4h-3.1v-0.7L51.6,45.4L51.6,45.4z M51.6,47.6v-0.4h-1.8v0.4H51.6z M51.6,48.2h-1.8v0.4h1.8
	V48.2z M52.5,47.6h2v-0.4h-2V47.6z M54.5,48.2h-2v0.4h2V48.2z M53.9,49.3h-1.3v0.4c0.5,0,1.1,0,1.6-0.1C54,49.5,54,49.4,53.9,49.3z"
	/>
<path class="st0" d="M62.3,44.2V45c-0.3,0.9-0.6,1.8-0.9,2.8c0.3,0.5,0.5,1,0.6,1.4c0.1,0.4,0.2,0.8,0.2,1.1c0,0.6-0.1,1-0.4,1.3
	c-0.2,0.3-0.8,0.5-1.6,0.5L60,51c0.2,0,0.4,0,0.5,0c0.2,0,0.4,0,0.5-0.2c0.1-0.1,0.2-0.3,0.2-0.6s-0.1-0.7-0.2-1
	c-0.1-0.4-0.4-0.9-0.7-1.4c0.4-1.1,0.7-2,0.9-2.7h-1.3v9.1h-1.1V44.1L62.3,44.2L62.3,44.2z M65,45.1h1.4c0.2-0.4,0.5-0.9,0.7-1.4
	l1,0.4c-0.2,0.4-0.4,0.7-0.6,1H69V46h-2.6c-0.3,0.4-0.6,0.7-0.9,0.9c0.3,0.3,0.5,0.6,0.6,0.8c0,0.1,0.1,0.2,0.1,0.3
	c0.3-0.1,0.5-0.3,0.8-0.5c0.3-0.2,0.7-0.6,1-0.9l0.9,0.5c-0.4,0.5-0.8,0.9-1.1,1.1c0,0,0,0-0.1,0c0.1,0.7,0.3,1.3,0.6,1.9
	c0.2,0.5,0.5,1.1,0.9,1.7l-0.7,0.9c-0.4-0.7-0.8-1.5-1.1-2.3c-0.2-0.5-0.4-1.1-0.5-1.8c-0.1,0.1-0.2,0.1-0.3,0.2
	c0.1,0.6,0.2,1.2,0.2,1.9c0,1.6-0.2,2.5-0.5,2.8c-0.4,0.3-1.1,0.5-2.2,0.5l-0.2-1c0.3,0,0.5,0,0.8,0c0.3,0,0.6-0.1,0.8-0.2
	c0.2-0.1,0.3-0.8,0.4-2.1v-0.1c-0.9,0.9-2,1.7-3.2,2.3l-0.7-1c1.7-0.7,2.9-1.5,3.8-2.5c0-0.3-0.1-0.5-0.2-0.7
	c-0.3,0.4-0.6,0.6-0.9,0.8c-0.4,0.3-1,0.6-1.7,0.9l-0.6-1c0.7-0.2,1.3-0.5,1.8-0.8c0.3-0.2,0.7-0.5,0.9-0.8
	c-0.1-0.1-0.2-0.3-0.3-0.4c-0.6,0.4-1.4,0.7-2.2,1L62,47.5c1-0.3,1.7-0.6,2.3-1c0.3-0.2,0.5-0.3,0.8-0.5h-2.7v-0.9H64
	c-0.2-0.3-0.4-0.7-0.6-1l1-0.4C64.6,44.1,64.8,44.6,65,45.1z"/>
<path class="st0" d="M75.6,50.2c-0.2,0.2-0.5,0.5-0.9,0.7l-0.4-0.6c0.5-0.3,0.9-0.6,0.9-1h-0.7V48h1.4v1.1
	C75.9,49.6,75.8,50,75.6,50.2z"/>
<path class="st0" d="M83.6,46.7c-0.2,1.9-0.6,3.4-1.1,4.7L81.3,51c0.6-1.4,1-2.9,1.2-4.4L83.6,46.7z M85.5,46.2v4.4
	c0.4-0.3,0.7-0.6,1-1c1-1.2,2-2.9,2.8-5.1l1,0.4c-1,2.5-2,4.3-3.1,5.4c-0.5,0.6-1.1,1.2-1.8,1.7v0.6c0,0.2,0.1,0.4,0.4,0.4h2.3
	c0.1,0,0.3-0.1,0.3-0.2c0.1-0.1,0.1-0.8,0.2-2.1l1.1,0.3c-0.1,1.5-0.2,2.3-0.4,2.6c-0.2,0.3-0.5,0.4-1,0.4h-2.8
	c-0.3,0-0.6-0.1-0.8-0.3c-0.2-0.2-0.3-0.4-0.3-0.8v-0.2c-0.7,0.4-1.5,0.8-2.3,1.2l-0.6-1c1.1-0.5,2.1-1,3-1.5v-5.2H85.5z M87.9,46.1
	L87,47c-0.5-0.7-1.2-1.5-2.1-2.3l0.8-0.8C86.6,44.6,87.4,45.3,87.9,46.1z M92,52l-1,0.4c-0.4-1.8-0.9-3.3-1.4-4.7l1-0.3
	C91.1,48.9,91.6,50.4,92,52z"/>
<path class="st0" d="M96.3,44.5c-0.7,0.9-1.7,1.8-2.8,2.5l-0.7-0.9c1-0.6,1.9-1.4,2.7-2.3L96.3,44.5z M96.8,51.2
	c-0.9,1.2-1.9,2.2-3.2,3.2l-0.7-0.9c1.2-0.8,2.2-1.7,3.1-2.9L96.8,51.2z M96.5,47.7c-0.8,1-1.7,2-2.9,2.8l-0.7-0.9
	c1.1-0.7,2-1.5,2.9-2.5L96.5,47.7z M99.4,52.9c-0.7,0.5-1.6,1-2.7,1.4L96,53.4c1-0.3,1.9-0.7,2.7-1.2L99.4,52.9z M103.5,44.1V45h-3
	c-0.1,0.3-0.1,0.6-0.2,0.9h2.7V52h-6v-6.1h2.2c0.1-0.3,0.2-0.6,0.2-0.9h-3v-0.9H103.5z M101.9,47.6v-0.8H98v0.8H101.9z M101.9,49.3
	v-0.9H98v0.9H101.9z M101.9,50.1H98v1h3.9V50.1z M103.5,53.4l-0.6,0.9c-0.8-0.6-1.7-1-2.6-1.3l0.5-0.8
	C101.8,52.5,102.7,52.9,103.5,53.4z"/>
<path class="st0" d="M105.7,51.5c-0.1,1.1-0.2,2-0.4,2.8l-1-0.3c0.3-0.8,0.4-1.6,0.5-2.6L105.7,51.5z M107.4,44.1
	c-0.4,1-0.8,2-1.3,2.8c0.3,0,0.7-0.1,1-0.1c0.3-0.5,0.5-1,0.7-1.6l0.9,0.4c-0.8,1.8-1.7,3.3-2.5,4.5c0.6,0,1.1-0.1,1.5-0.2
	c-0.1-0.4-0.2-0.8-0.3-1.2l0.8-0.3c0.3,0.7,0.5,1.6,0.7,2.5L108,51c0-0.1-0.1-0.3-0.1-0.4c-0.8,0.2-1.9,0.3-3.2,0.4l-0.3-1
	c0.3,0,0.5,0,0.7,0c0.5-0.6,1-1.4,1.5-2.4c-0.6,0.1-1.3,0.2-2.1,0.3l-0.2-0.9c0.2,0,0.4,0,0.6,0c0.5-0.9,1-2,1.4-3.2L107.4,44.1z
	 M107.3,53.8l-0.9,0.1c0-1-0.1-1.8-0.2-2.4l0.8-0.1C107.1,52,107.2,52.8,107.3,53.8z M108.8,53.2l-0.9,0.3c-0.1-0.8-0.3-1.5-0.5-2.3
	l0.8-0.2C108.4,51.9,108.7,52.6,108.8,53.2z M114.5,54.3h-0.9v-0.7h-3.5v0.7h-0.9V44.2h5.3V54.3z M111.4,48.3v-3.1h-1.3v3.1H111.4z
	 M111.4,52.6v-3.2h-1.3v3.2H111.4z M112.3,48.3h1.3v-3.1h-1.3V48.3z M113.6,52.6v-3.2h-1.3v3.2H113.6z"/>
<path class="st0" d="M120.6,46.5c-0.4,0.7-0.9,1.2-1.5,1.6c-0.6,0.4-1.5,0.7-2.6,0.9l-0.6-1c1.2-0.2,2.1-0.4,2.5-0.7
	c0.4-0.2,0.9-0.6,1.3-1.3L120.6,46.5z M120.2,49.7c0-0.1,0-0.1,0-0.2v-1.4h1.1v1.4c0,0.1,0,0.1,0,0.2h2.8l-0.2,2.7
	c0,0.3,0,0.5,0.1,0.6c0.1,0.1,0.2,0.1,0.3,0.1h0.8c0.1,0,0.1,0,0.2-0.1c0,0,0.1-0.7,0.2-1.9l1.1,0.3c-0.1,1.3-0.3,2.1-0.5,2.3
	c-0.2,0.2-0.5,0.3-0.9,0.3h-1.4c-0.3,0-0.5-0.1-0.7-0.3c-0.2-0.2-0.4-0.5-0.4-1l0.1-2.2h-1.7c-0.2,0.8-0.6,1.5-1.1,2
	c-0.7,0.7-1.9,1.3-3.5,1.7l-0.6-0.9c1.6-0.4,2.7-0.9,3.3-1.4c0.4-0.4,0.6-0.8,0.8-1.3h-3.2v-0.9H120.2z M121.6,44.7h4.4V47h-1.1
	v-1.4h-1.8v1.7c0,0.3,0.1,0.4,0.4,0.4h2.9v0.9h-3.1c-0.4,0-0.7-0.1-0.9-0.2c-0.2-0.1-0.3-0.4-0.3-0.8v-2.1h-4.5v1.4h-1.1v-2.3h4
	c-0.2-0.3-0.3-0.6-0.5-0.8l1.2-0.2C121.3,44,121.5,44.4,121.6,44.7z"/>
<path class="st0" d="M133.5,50.6c-0.2-0.4-0.6-0.8-1-1.3c-0.3-0.3-0.7-0.7-1.3-1.2l0.7-0.6c0.4,0.3,0.8,0.7,1.4,1.2
	c0.3,0.3,0.7,0.8,1.1,1.3L133.5,50.6z"/>
<path class="st0" d="M143.2,44.6v0.9h-1.4v5.6c0.7-0.2,1.3-0.4,2-0.6v1c-1.3,0.5-2.7,0.9-4.4,1.4l-0.3-1.1c0.6-0.1,1.1-0.2,1.7-0.3
	v-5.8h-1.5v-0.9h3.9V44.6z M149.4,44.3v0.9h-3.3c-0.3,0.9-0.6,1.8-1,2.8h3.8c-0.1,2.3-0.2,3.8-0.3,4.5c-0.1,0.5-0.3,0.9-0.6,1.2
	c-0.2,0.2-0.7,0.3-1.3,0.3c-1,0-1.6,0-1.9,0l-0.4-1.1c1,0.1,1.7,0.1,2.2,0.1c0.4,0,0.7-0.1,0.8-0.4c0.1-0.3,0.3-1.5,0.4-3.7h-4v-1
	c0.4-0.9,0.8-1.9,1.1-2.8h-1.6v-0.9h6.1V44.3z"/>
<path class="st0" d="M152.8,50.6c-0.3,1.1-0.7,2.1-1.2,2.9l-1-0.6c0.5-0.8,0.9-1.6,1.1-2.5L152.8,50.6z M160.2,44.3v5.2h-8.3v-5.2
	H160.2z M155.5,46.4v-1.2H153v1.2H155.5z M155.5,47.3H153v1.2h2.5V47.3z M154.3,50v2.7c0,0.2,0.1,0.4,0.4,0.4h3.3
	c0.1,0,0.3,0,0.3-0.1c0.1-0.1,0.1-0.5,0.2-1.2l1,0.3c-0.1,1-0.2,1.5-0.4,1.7c-0.2,0.2-0.5,0.3-1,0.3h-3.9c-0.3,0-0.6-0.1-0.8-0.3
	c-0.2-0.2-0.3-0.4-0.3-0.7V50H154.3z M157.6,51.4l-1,0.4c-0.4-0.7-0.8-1.3-1.3-1.8l1-0.3C156.8,50.3,157.2,50.8,157.6,51.4z
	 M156.5,46.4h2.6v-1.2h-2.6V46.4z M159.1,47.3h-2.6v1.2h2.6V47.3z M161.3,52.7l-1,0.4c-0.4-1-0.9-1.9-1.4-2.7l1-0.3
	C160.4,51,160.9,51.8,161.3,52.7z"/>
<path class="st0" d="M168,50.6c-0.2-0.4-0.6-0.8-1-1.3c-0.3-0.3-0.7-0.7-1.3-1.2l0.7-0.6c0.4,0.3,0.8,0.7,1.4,1.2
	c0.3,0.3,0.7,0.8,1.1,1.3L168,50.6z"/>
<path class="st0" d="M183.9,52.9V54h-10.2v-1.1H183.9z M183.6,46v1h-9.7v-1H183.6z M177.8,52.1l-1.2,0.3c-0.3-1.6-0.6-3.2-1.1-4.7
	l1.1-0.4C177,48.8,177.4,50.4,177.8,52.1z M179.6,45.1l-0.8,0.8c-0.4-0.5-1.1-1-1.9-1.5l0.7-0.7C178.5,44.2,179.1,44.7,179.6,45.1z
	 M182.1,47.7c-0.3,1.7-0.8,3.3-1.3,4.8l-1.1-0.4c0.5-1.2,0.9-2.7,1.3-4.6L182.1,47.7z"/>
<path class="st0" d="M187.7,43.9c-0.1,0.2-0.2,0.4-0.3,0.6h2.9v0.9c0.5-0.6,0.9-1.1,1.1-1.7l1,0.2c-0.1,0.2-0.2,0.5-0.3,0.7h3.5v0.9
	h-1.9c0.1,0.3,0.2,0.6,0.3,0.9l-1.1,0.1c-0.1-0.3-0.2-0.7-0.2-0.9h-1.1c-0.3,0.4-0.5,0.7-0.8,1l-0.9-0.6c0.2-0.1,0.3-0.3,0.4-0.4
	h-1.5c0.1,0.3,0.2,0.5,0.3,0.8l-1.1,0.1c-0.1-0.3-0.2-0.6-0.3-0.9h-0.9c-0.3,0.4-0.6,0.7-1,1l-0.9-0.6c0.9-0.7,1.4-1.4,1.8-2.2
	L187.7,43.9z M189.8,50.4v-0.6l-0.4-0.4c0.6-0.2,1-0.4,1.3-0.6c-0.3-0.1-0.6-0.3-0.9-0.4l0.5-0.7c0.3,0.1,0.6,0.2,0.9,0.3
	c0-0.1,0-0.2,0-0.3v-0.4h-1.3v-0.8h4.1v2.2c0,0.2,0.1,0.3,0.3,0.3c0.1,0,0.2,0,0.2-0.1c0.1-0.1,0.1-0.4,0.1-0.9l0.9,0.3
	c-0.1,0.8-0.2,1.3-0.3,1.4c-0.1,0.1-0.4,0.2-0.8,0.2H194c-0.3,0-0.5-0.1-0.7-0.2c-0.2-0.2-0.2-0.4-0.2-0.7v-1.7H192v0.4
	c0,0.3,0,0.5-0.1,0.7c0.4,0.2,0.7,0.3,1,0.5l-0.5,0.9c-0.3-0.2-0.7-0.4-1-0.6c-0.2,0.2-0.5,0.4-0.8,0.5h0.2v0.6h4.7v0.9h-3.6
	c0.4,0.3,0.8,0.6,1.2,0.7c0.6,0.3,1.3,0.6,2.4,0.8l-0.4,0.9c-1.3-0.4-2.2-0.8-2.8-1.2c-0.5-0.3-0.9-0.7-1.4-1.3V54h-1v-2.9
	c-0.3,0.4-0.7,0.8-1.2,1.1c-0.7,0.5-1.7,1-3.1,1.5l-0.6-0.9c1.4-0.4,2.3-0.8,2.9-1.1c0.3-0.1,0.5-0.3,0.8-0.5H185v-0.9L189.8,50.4
	L189.8,50.4z M189.5,46.8v0.9H188v1c0.5-0.1,1-0.2,1.5-0.3v0.9c-1.2,0.3-2.6,0.6-4.2,0.9l-0.2-1c0.6-0.1,1.3-0.1,1.9-0.2v-1.2h-1.6
	v-0.9L189.5,46.8L189.5,46.8z"/>
<path class="st0" d="M5.6,67.6V67h1.1v0.6h4.2v0.9H6.7v0.7h4.8v0.9H9.6c0.8,0.6,1.4,1.2,1.9,1.6l-0.9,0.6c-0.2-0.2-0.4-0.5-0.7-0.8
	c-2.5,0.1-5.4,0.1-8.7,0.2L1,70.8c0.7,0,1.4,0,2.1,0l0.6-0.7H0.9v-0.9h4.7v-0.7H1.5v-0.9H5.6z M3.5,65.7v-0.8h1.1v0.8H6v0.9H4.7v0.5
	H3.6v-0.5H1v-0.9H3.5z M10.4,74.4h1.1v0.9H0.9v-0.9h1v-2.2h8.4L10.4,74.4L10.4,74.4z M4.4,74.4V73H3v1.3h1.4V74.4z M8.6,70.3L9,70
	H4.9l-0.6,0.7c1.6,0,3.2,0,4.8,0C8.9,70.6,8.8,70.4,8.6,70.3z M6.8,74.4V73H5.5v1.3h1.3V74.4z M7.8,65.7v-0.8h1.1v0.8h2.6v0.9H8.9
	v0.7H7.8v-0.7H6.5v-0.9H7.8z M9.3,74.4V73H7.9v1.3h1.4V74.4z"/>
<path class="st0" d="M14.6,65.8v3.1H17V65h1.2v3.9h2.6v-3.1h1.1v4.1h-3.7v3.8h3.1v-2.9h1.1v4.7h-1.1v-0.7h-7.2v0.7H13v-4.7h1.1v2.9
	H17v-3.8h-3.6v-4.1H14.6z"/>
<path class="st0" d="M26.3,68.4c-0.3,2.3-0.7,4.2-1.2,5.8L24,73.5c0.5-1.7,0.9-3.4,1.1-5.4L26.3,68.4z M28.2,67.8v6.1
	c0,0.3,0.1,0.4,0.4,0.4h2.1c0.1,0,0.3-0.1,0.3-0.3c0.1-0.2,0.1-1,0.2-2.4l1.1,0.3c-0.1,1.7-0.2,2.7-0.4,3c-0.2,0.3-0.5,0.5-1,0.5
	h-2.6c-0.3,0-0.6-0.1-0.8-0.3s-0.3-0.5-0.3-0.8v-6.5H28.2z M31.2,67.9l-1.1,0.8c-0.5-0.8-1.2-1.8-2.1-2.8l0.9-0.6
	C29.9,66.3,30.6,67.2,31.2,67.9z M34.4,73.3l-1.1,0.5c-0.4-1.9-0.9-3.7-1.5-5.2l1.1-0.4C33.5,69.8,34,71.5,34.4,73.3z"/>
<path class="st0" d="M40.8,65.1v3.4h4.5v1h-4.5v4.7h5.1v1.1H35.6v-1.1h4v-9.1H40.8z"/>
<path class="st0" d="M50.4,65.1c-0.1,0.6-0.3,1.2-0.6,1.7h1.7v2.4c0.3-0.6,0.6-1.1,0.8-1.7s0.4-1.5,0.6-2.6l1.1,0.2
	c-0.1,0.6-0.2,1.2-0.3,1.6h3.5c0,4-0.1,6.4-0.2,7.2c-0.1,0.6-0.3,1-0.6,1.2c-0.3,0.2-0.9,0.3-1.8,0.3c-0.3,0-0.5,0-0.9,0l-0.2-1.1
	c0.3,0.1,0.7,0.1,1,0.1c0.7,0,1.1-0.2,1.2-0.7c0.1-0.6,0.2-2.5,0.3-5.8h-2.7c0,0.1-0.1,0.1-0.1,0.2c-0.3,0.8-0.7,1.7-1.3,2.6
	L51.4,70v4.7h-1v-0.5h-2.1v0.9h-1v-8.2h1.4c0.2-0.6,0.4-1.2,0.6-1.8H50.4z M50.5,70v-2.2h-2.1V70H50.5z M50.5,73.2v-2.3h-2.1v2.3
	H50.5z M55.2,72l-1.1,0.7c-0.3-0.8-0.8-1.8-1.3-2.9l0.9-0.6C54.4,70.4,54.9,71.3,55.2,72z"/>
<path class="st0" d="M68.9,65.9c-2.5,0.2-5.3,0.3-8.4,0.4v0.6h8v2.8h-3.8l0.4,0.9h4v0.9H64c0,0.3-0.1,0.6-0.1,0.9h4.6
	c-0.1,1.3-0.2,2.1-0.3,2.5c-0.1,0.2-0.3,0.4-0.6,0.5c-0.2,0.1-1,0.2-2.5,0.2l-0.3-1.1c0.4,0,0.6,0,0.8,0c0.7,0,1.1,0,1.3-0.1
	c0.3-0.1,0.4-0.5,0.5-1.2h-3.7c-0.1,0.2-0.3,0.5-0.4,0.6c-0.4,0.6-1.2,1.2-2.3,1.7l-0.6-1c0.9-0.3,1.6-0.8,2-1.3
	c0.4-0.4,0.6-1.1,0.7-1.9h-2.4c0,0.6-0.1,1.2-0.3,1.8c-0.2,0.8-0.5,1.5-0.9,2.2l-0.8-0.9c0.3-0.6,0.5-1.1,0.7-1.7
	c0.1-0.6,0.2-1.3,0.3-2.2v-5.3c3.6,0,6.6-0.1,8.9-0.4L68.9,65.9z M67.5,68.8v-0.9h-7v0.9H67.5z M63.9,70.5l-0.4-0.9h-3.1v0.9H63.9z"
	/>
<path class="st0" d="M79.3,65.5v0.9c-0.6,0.7-1.7,1.5-3.3,2.6v0.8h4.4v1.1H76v3.6c0,0.3-0.1,0.6-0.2,0.8c-0.2,0.2-0.5,0.3-0.8,0.3
	h-2.2l-0.1-1.2c0.7,0.1,1.3,0.1,1.7,0.1c0.2,0,0.3-0.1,0.3-0.4v-3.2H70v-1.1h4.7v-1.4c1.1-0.6,2.1-1.2,3-1.8h-6.5v-1L79.3,65.5
	L79.3,65.5z"/>
<path class="st0" d="M6.7,94.2c-0.5,0.4-1.1,0.8-1.8,1.1c0.2,0,0.3,0.1,0.5,0.1c0.6,0.1,1.7,0.1,3.4,0.1c1.2,0,2.1,0,2.7-0.1l-0.1,1
	c-3.2,0-5.2,0-5.9-0.1c-0.6-0.1-1.2-0.2-1.5-0.4c-0.4-0.1-0.8-0.5-1.2-1c-0.3,0.5-0.6,1.1-1.1,1.7L1,95.8c0.5-0.6,0.9-1.2,1.1-1.7
	c0.2-0.3,0.4-0.9,0.6-1.8H1.3v-0.9c0.4-0.5,0.8-1.1,1.2-1.9H1v-0.9h2.5v0.8c-0.3,0.6-0.7,1.3-1.2,2h1.3V92c-0.2,0.9-0.3,1.5-0.5,1.9
	c0.5,0.5,0.9,0.8,1.2,0.9c0.1,0,0.2,0.1,0.3,0.1L4,94.2c0.7-0.3,1.4-0.6,2-0.9L6.7,94.2z M3.4,87.8l-0.7,0.7C2.4,88,2,87.4,1.5,86.8
	l0.7-0.6C2.7,86.8,3.1,87.3,3.4,87.8z M5.6,91.1v-0.5h1v0.5h1.8v-0.5h1v0.5h1.7v0.8H9.4v0.8h1.9v0.8H3.9v-0.8h1.7v-0.8H4v-0.8H5.6z
	 M7.1,88.7H4.9v0.6c0,0.2,0.1,0.3,0.3,0.3h0.9c0.1,0,0.3,0,0.3-0.1c0.1,0,0.1-0.2,0.2-0.6l0.9,0.3c-0.1,0.6-0.2,0.9-0.4,1
	c-0.2,0.1-0.4,0.2-0.9,0.2H4.9c-0.3,0-0.5-0.1-0.7-0.2C4,90.1,4,89.9,4,89.6v-3h3.1V88.7z M4.9,88h1.3v-0.7H4.9V88z M8.3,92.7v-0.8
	H6.5v0.8H8.3z M10.9,88.7H8.6v0.7c0,0.2,0.1,0.3,0.4,0.3h0.8c0.2,0,0.3,0,0.4-0.1c0.1,0,0.1-0.3,0.2-0.6l0.9,0.3
	c-0.1,0.6-0.2,0.9-0.4,1c-0.2,0.1-0.5,0.2-0.9,0.2H8.7c-0.3,0-0.5-0.1-0.7-0.2S7.7,90,7.7,89.7v-3.1h3.2V88.7z M10.9,94.5l-0.6,0.9
	c-0.7-0.4-1.4-0.8-2.1-1l0.5-0.8C9.5,93.9,10.2,94.1,10.9,94.5z M8.7,88H10v-0.8H8.7V88z"/>
<path class="st0" d="M13.7,88.2v-2.1h1v2.1h1.1v0.9h-1.1v2.2c0.3-0.2,0.6-0.4,0.9-0.7v1.1c-0.3,0.2-0.6,0.5-0.9,0.6v3.1
	c0,0.4-0.1,0.7-0.3,0.8c-0.2,0.2-0.5,0.3-0.9,0.3h-0.7l-0.2-1.1c0.3,0.1,0.5,0.1,0.6,0.1c0.3,0,0.4-0.1,0.4-0.3V93
	c-0.4,0.2-0.8,0.4-1.2,0.5l-0.1-1.2c0.4-0.1,0.9-0.2,1.3-0.4v-2.7h-1.2v-0.9L13.7,88.2L13.7,88.2z M22.7,86.5v2.6h-2.9v0.6h2.8v0.8
	h-2.8v0.7h3V92h-1.2c-0.1,0.3-0.3,0.6-0.5,0.9h1.5v0.8h-2.8v0.7h3.3v0.8h-3.3v1.4h-1v-1.4h-3v-0.8h3v-0.7H16v-0.8h1.6
	c-0.2-0.3-0.3-0.6-0.5-0.9h-1.2v-0.8h2.8v-0.7h-2.6v-0.8h2.6v-0.6h-2.8v-2.6H22.7z M17.9,87.3h-1v1h1V87.3z M20.1,92.9
	c0.2-0.3,0.4-0.6,0.5-0.9h-2.4c0.1,0.3,0.3,0.6,0.4,0.9H20.1z M19.8,87.3h-1v1h1V87.3z M21.7,87.3h-1v1h1V87.3z"/>
<path class="st0" d="M26.7,86.3v7.2c0.8-0.3,1.6-0.7,2.4-1.1l0.3,1.1c-1.3,0.7-3,1.4-4.9,2L24,94.4c0.5-0.1,1-0.3,1.6-0.4v-7.6
	L26.7,86.3L26.7,86.3z M32.8,86.3c0,2.4-0.3,4.3-0.8,5.7c0.9,1.1,1.7,2.2,2.3,3.3l-0.9,0.9c-0.5-0.9-1.1-1.9-1.9-3
	c-0.6,1.2-1.8,2.3-3.5,3.4l-0.8-1c1.6-0.9,2.7-1.9,3.2-3c0.7-1.3,1.1-3.5,1.1-6.4L32.8,86.3L32.8,86.3z M30.4,90.5l-1.1,0.8
	c-0.4-1-0.9-2.1-1.6-3.3l0.9-0.6C29.3,88.6,29.9,89.6,30.4,90.5z"/>
<path class="st0" d="M41.4,86.9v-0.8h1v0.8h2.7v1.7h0.6v0.9h-0.6v1.7h-2.7v0.7h2.8v0.8h-2.8v0.8h3.3v0.9h-3.3v1c0.2,0,0.3,0,0.5,0
	c1.3,0,2.4,0,3-0.1l-0.2,1.2c-3.6,0-5.7-0.1-6.5-0.2c-0.7-0.2-1.3-0.5-1.7-0.8l-0.1-0.1c-0.4,0.5-0.9,0.9-1.5,1.5l-0.6-1.1
	c0.6-0.4,1.1-0.9,1.4-1.3c-0.3-0.6-0.7-1.4-1.1-2.4l0.9-0.3c0.3,0.7,0.5,1.2,0.7,1.6c0,0,0-0.1,0.1-0.2c0.1-0.5,0.3-1.2,0.3-2.1h-2
	v-0.7c0.7-0.8,1.3-1.7,1.9-2.7h-2.1v-0.9h3.3v1c-0.7,1.1-1.2,1.9-1.8,2.5h1.7c0,1.3-0.2,2.3-0.4,3.1c-0.1,0.4-0.2,0.7-0.4,1
	c0.3,0.3,0.7,0.6,1.2,0.7c0.4,0.1,1.2,0.2,2.2,0.3v-0.9h-2.7v-0.9h2.7v-0.8H39V92h2.2v-0.7h-2.1v-0.8h2.1v-0.9h-2.7v-0.9h2.7v-0.9
	h-2.1V87L41.4,86.9L41.4,86.9z M42.5,88.6h1.7v-0.9h-1.7V88.6z M42.5,90.4h1.7v-0.9h-1.7V90.4z"/>
<path class="st0" d="M49.7,86.3c-0.1,0.2-0.2,0.4-0.3,0.6h2.9v0.9c0.5-0.6,0.9-1.1,1.1-1.7l1,0.2c-0.1,0.2-0.2,0.5-0.3,0.7h3.5v0.9
	h-1.9c0.1,0.3,0.2,0.6,0.3,0.9l-1.1,0.1c-0.1-0.3-0.2-0.7-0.2-0.9h-1.1c-0.3,0.4-0.5,0.7-0.8,1l-0.9-0.6c0.2-0.1,0.3-0.3,0.4-0.4
	h-1.5c0.1,0.3,0.2,0.5,0.3,0.8L50,88.9c-0.1-0.3-0.2-0.6-0.3-0.9h-0.9c-0.3,0.4-0.6,0.7-1,1l-0.9-0.6c0.9-0.7,1.4-1.4,1.8-2.2
	L49.7,86.3z M51.8,92.8v-0.6l-0.4-0.4c0.6-0.2,1-0.4,1.3-0.6c-0.3-0.1-0.6-0.3-0.9-0.4l0.5-0.7c0.3,0.1,0.6,0.2,0.9,0.3
	c0-0.1,0-0.2,0-0.3v-0.4h-1.3V89H56v2.2c0,0.2,0.1,0.3,0.3,0.3c0.1,0,0.2,0,0.2-0.1c0.1-0.1,0.1-0.4,0.1-0.9l0.9,0.3
	c-0.1,0.8-0.2,1.3-0.3,1.4c-0.1,0.1-0.4,0.2-0.8,0.2H56c-0.3,0-0.5-0.1-0.7-0.2c-0.2-0.2-0.2-0.4-0.2-0.7v-1.7H54v0.4
	c0,0.3,0,0.5-0.1,0.7c0.4,0.2,0.7,0.3,1,0.5l-0.5,0.9c-0.3-0.2-0.7-0.4-1-0.6c-0.2,0.2-0.5,0.4-0.8,0.5h0.2v0.6h4.7v0.9h-3.6
	c0.4,0.3,0.8,0.6,1.2,0.7c0.6,0.3,1.3,0.6,2.4,0.8l-0.4,0.9c-1.3-0.4-2.2-0.8-2.8-1.2c-0.5-0.3-0.9-0.7-1.4-1.3v2.9h-1v-2.9
	c-0.3,0.4-0.7,0.8-1.2,1.1c-0.7,0.5-1.7,1-3.1,1.5L47,95.3c1.4-0.4,2.3-0.8,2.9-1.1c0.3-0.1,0.5-0.3,0.8-0.5H47v-0.9H51.8z
	 M51.5,89.2v0.9H50v1c0.5-0.1,1-0.2,1.5-0.3v0.9c-1.2,0.3-2.6,0.6-4.2,0.9l-0.2-1c0.6-0.1,1.3-0.1,1.9-0.2v-1.2h-1.6v-0.9L51.5,89.2
	L51.5,89.2z"/>
<path class="st0" d="M68.7,88.8h-3.2c0.1,1.6,0.3,2.9,0.6,3.9c0.5-0.8,1-1.8,1.5-3.1l1,0.4c-0.6,1.7-1.3,3-2,3.8
	c0.5,1,0.9,1.5,1.1,1.5c0.1,0,0.3-0.5,0.4-1.6l0.9,0.6c-0.3,1.1-0.5,1.7-0.7,2c-0.1,0.2-0.3,0.3-0.5,0.3c-0.5,0-1-0.3-1.5-0.8
	c-0.3-0.3-0.5-0.6-0.7-1c-0.7,0.7-1.6,1.3-2.7,1.8l-0.6-1c1.2-0.5,2.2-1.2,2.9-1.9c-0.2-0.4-0.3-0.8-0.4-1.2c-0.2-1-0.4-2.2-0.5-3.7
	h-3.8v1.4h3.2c0,2.1-0.1,3.4-0.3,3.9c-0.2,0.6-0.6,1-1.1,1h-1.5L60.6,94c0.8,0.1,1.3,0.1,1.7,0.1c0.1,0,0.2-0.2,0.2-0.5
	c0-0.4,0.1-1.2,0.1-2.4h-2.1c0,0.8-0.1,1.7-0.2,2.5c-0.2,1.1-0.6,2.1-1,3.1L58.4,96c0.4-0.8,0.7-1.7,0.9-2.6
	c0.1-0.9,0.2-1.8,0.2-2.6v-3.1h4.9c0-0.5,0-1,0-1.6h1.1c0,0.6,0,1.1,0,1.6h1.6c-0.3-0.3-0.7-0.6-1.1-0.9l0.7-0.7
	c0.5,0.3,1,0.7,1.4,1l-0.6,0.6h1.3v1.1H68.7z"/>
<path class="st0" d="M73.7,95.6h-1v-0.9h-1.4v1.1h-1v-8.9h3.4V95.6z M72.7,90.4V88h-1.4v2.4H72.7z M72.7,93.7v-2.4h-1.4v2.4H72.7z
	 M76.6,87.3v-1.1h1v1.1h2.5v1h-2.5v1.2h2.9v1h-1.1v1.2h1.2v1h-1.2v2.7c0,0.4-0.1,0.7-0.3,0.9c-0.2,0.2-0.5,0.3-0.9,0.3h-1.4
	l-0.2-1.1c0.6,0.1,1,0.1,1.4,0.1c0.3,0,0.4-0.1,0.4-0.3v-2.6h-4.5v-1h4.5v-1.2H74v-1h2.7v-1.2h-2.4v-1H76.6z M77.1,94.6l-1,0.7
	c-0.4-0.5-0.9-1.2-1.6-1.8l0.9-0.5C76.1,93.6,76.6,94.2,77.1,94.6z"/>
<path class="st0" d="M87.4,86.1v4.2h4.5v0.9h-3.3v3.9c0,0.2,0.1,0.4,0.4,0.4h1.4c0.2,0,0.3-0.1,0.4-0.2c0.1-0.1,0.1-0.8,0.2-1.9
	l1.1,0.3c-0.1,1.3-0.3,2.1-0.5,2.4c-0.2,0.2-0.5,0.4-1,0.4h-2c-0.3,0-0.6-0.1-0.8-0.3c-0.2-0.2-0.3-0.4-0.3-0.8v-4.2h-1.6
	c-0.1,1.5-0.4,2.5-0.9,3.3c-0.5,0.8-1.4,1.6-2.7,2.2l-0.8-1c1.2-0.5,2-1.1,2.5-1.7c0.4-0.5,0.7-1.5,0.8-2.8h-3v-0.9h4.5v-4.2H87.4z
	 M85,89.3l-1.2,0.5c-0.4-1-0.8-1.8-1.3-2.6l1.1-0.4C84.2,87.6,84.6,88.4,85,89.3z M90.9,87.3c-0.3,0.9-0.8,1.8-1.3,2.6l-1.1-0.5
	c0.5-0.9,1-1.7,1.3-2.6L90.9,87.3z"/>
<path class="st0" d="M98.6,92.6c-0.2,0.2-0.5,0.5-0.9,0.7l-0.4-0.6c0.5-0.3,0.9-0.6,0.9-1h-0.7v-1.4h1.4v1.1
	C98.9,92,98.8,92.4,98.6,92.6z"/>
<path class="st0" d="M107.2,86.3v7.2c0.8-0.3,1.6-0.7,2.4-1.1l0.3,1.1c-1.3,0.7-3,1.4-4.9,2l-0.5-1.1c0.5-0.1,1-0.3,1.6-0.4v-7.6
	L107.2,86.3L107.2,86.3z M113.3,86.3c0,2.4-0.3,4.3-0.8,5.7c0.9,1.1,1.7,2.2,2.3,3.3l-0.9,0.9c-0.5-0.9-1.1-1.9-1.9-3
	c-0.6,1.2-1.8,2.3-3.5,3.4l-0.8-1c1.6-0.9,2.7-1.9,3.2-3c0.7-1.3,1.1-3.5,1.1-6.4L113.3,86.3L113.3,86.3z M110.9,90.5l-1.1,0.8
	c-0.4-1-0.9-2.1-1.6-3.3l0.9-0.6C109.8,88.6,110.4,89.6,110.9,90.5z"/>
<path class="st0" d="M126.1,87.2c-1.2,0.3-2.5,0.5-4,0.7v1.6h3.8v1.1H122v1.6h4.5v1.1H122v2.1c0,0.4-0.1,0.7-0.3,0.9
	c-0.2,0.2-0.5,0.3-1,0.3h-1.8l-0.3-1.2c0.7,0.1,1.3,0.1,1.8,0.1c0.3,0,0.4-0.1,0.4-0.3v-1.9h-5v-1.1h5v-1.6h-4.3v-1.1h4.3V88
	c-1.3,0.1-2.7,0.1-4.2,0.1l-0.4-1.1c3.6,0,6.6-0.3,9.2-0.8L126.1,87.2z"/>
<path class="st0" d="M130.3,86.7v-0.6h1v0.6h1.2v0.8h-1.2v0.3h-1v-0.3h-2.9v-0.8H130.3z M129.9,88.2v-0.3h0.9v0.3h1.8v0.6h-1.8v0.4
	h2.2v0.7h-1V90c0,0.1,0.1,0.2,0.3,0.2h0.7v0.5h-0.9c-0.3,0-0.5,0-0.7-0.1c-0.2-0.1-0.3-0.2-0.3-0.4V90h-1.6
	c-0.1,0.3-0.2,0.6-0.4,0.8c-0.1,0.1-0.2,0.2-0.3,0.3h1v-0.6h1v0.6h1.6v0.6h-1.6v0.4c0.7,0,1.3-0.1,1.9-0.1v0.6
	c-0.9,0.1-2.6,0.3-4.9,0.4l-0.1-0.8c0.8,0,1.5,0,2.2-0.1v-0.5h-1.4v-0.4c-0.2,0.1-0.4,0.2-0.5,0.2l-0.4-0.7c0.4-0.1,0.8-0.2,1-0.4
	c0.1-0.1,0.2-0.2,0.3-0.4h-1.1v-0.7h2.3v-0.4H128v-0.6H129.9z M137.9,94.1v0.8h-1.8c0.5,0.4,1,0.9,1.4,1.4l-0.9,0.4
	c-0.1-0.2-0.2-0.3-0.3-0.4c-1.6,0.1-4.3,0.2-8.1,0.3l-0.1-0.9c0.5,0,1,0,1.4,0c0.3-0.3,0.5-0.6,0.7-0.9h-2.5V94L137.9,94.1
	L137.9,94.1z M136.7,93v0.7h-7.9V93H136.7z M135.1,95.1l0.6-0.2h-4.3c-0.2,0.3-0.4,0.6-0.6,0.8c1.8,0,3.4-0.1,4.9-0.1
	C135.4,95.4,135.3,95.2,135.1,95.1z M134.4,88.8v-0.7h0.9v0.7h1.6v2.5c0.1,0.3,0.1,0.5,0.2,0.5c0.1,0,0.2-0.4,0.2-1.1l0.6,0.5
	c-0.1,0.8-0.3,1.2-0.4,1.4c-0.1,0.1-0.3,0.2-0.5,0.2c-0.3,0-0.5-0.1-0.6-0.3c-0.2-0.2-0.3-0.6-0.4-1.2v-1.8h-0.8
	c0,0.5-0.1,1-0.2,1.4c0.3,0.2,0.6,0.4,0.9,0.7l-0.4,0.7c-0.3-0.2-0.5-0.4-0.7-0.6c-0.2,0.4-0.6,0.8-1.1,1.2l-0.7-0.6
	c0.5-0.3,0.8-0.7,1.1-1.1c-0.3-0.2-0.6-0.4-0.9-0.5l0.4-0.6c0.3,0.1,0.5,0.3,0.8,0.4c0-0.3,0.1-0.6,0.1-0.9h-1.3v-0.8H134.4z
	 M134.3,86.7v-0.6h1v0.6h2.6v0.8h-2.6v0.4h-1v-0.4h-1.2v-0.8H134.3z"/>
<path class="st0" d="M149.2,88.8H146c0.1,1.6,0.3,2.9,0.6,3.9c0.5-0.8,1-1.8,1.5-3.1l1,0.4c-0.6,1.7-1.3,3-2,3.8
	c0.5,1,0.9,1.5,1.1,1.5c0.1,0,0.3-0.5,0.4-1.6l0.9,0.6c-0.3,1.1-0.5,1.7-0.7,2c-0.1,0.2-0.3,0.3-0.5,0.3c-0.5,0-1-0.3-1.5-0.8
	c-0.3-0.3-0.5-0.6-0.7-1c-0.7,0.7-1.6,1.3-2.7,1.8l-0.6-1c1.2-0.5,2.2-1.2,2.9-1.9c-0.2-0.4-0.3-0.8-0.4-1.2c-0.2-1-0.4-2.2-0.5-3.7
	H141v1.4h3.2c0,2.1-0.1,3.4-0.3,3.9c-0.2,0.6-0.6,1-1.1,1h-1.5l-0.2-1.1c0.8,0.1,1.3,0.1,1.7,0.1c0.1,0,0.2-0.2,0.2-0.5
	c0-0.4,0.1-1.2,0.1-2.4H141c0,0.8-0.1,1.7-0.2,2.5c-0.2,1.1-0.6,2.1-1,3.1l-0.9-0.8c0.4-0.8,0.7-1.7,0.9-2.6
	c0.1-0.9,0.2-1.8,0.2-2.6v-3.1h4.9c0-0.5,0-1,0-1.6h1.1c0,0.6,0,1.1,0,1.6h1.6c-0.3-0.3-0.7-0.6-1.1-0.9l0.7-0.7
	c0.5,0.3,1,0.7,1.4,1l-0.6,0.6h1.3v1.1H149.2z"/>
<path class="st0" d="M152.8,89.6c-0.3,2.3-0.7,4.2-1.2,5.8l-1.1-0.7c0.5-1.7,0.9-3.4,1.1-5.3L152.8,89.6z M154.7,89v6.1
	c0,0.3,0.1,0.4,0.4,0.4h2.1c0.1,0,0.3-0.1,0.3-0.3c0.1-0.2,0.1-1,0.2-2.4l1.1,0.3c-0.1,1.7-0.2,2.7-0.4,3c-0.2,0.3-0.5,0.5-1,0.5
	h-2.6c-0.3,0-0.6-0.1-0.8-0.3c-0.2-0.2-0.3-0.5-0.3-0.8V89H154.7z M157.7,89.1l-1.1,0.8c-0.5-0.8-1.2-1.8-2.1-2.8l0.9-0.6
	C156.4,87.5,157.1,88.4,157.7,89.1z M160.9,94.5l-1.1,0.5c-0.4-1.9-0.9-3.7-1.5-5.2l1.1-0.4C160,91,160.5,92.7,160.9,94.5z"/>
<path class="st0" d="M164.2,94.3c-0.4,0.8-0.9,1.4-1.4,2l-0.9-0.6c0.5-0.5,1-1.1,1.5-1.8L164.2,94.3z M167.6,86.9h4.2v0.9h-2
	l-0.4,0.8h2.8v0.8H162v-0.8h2.8l-0.4-0.8h-1.9v-0.9h3.8c-0.1-0.2-0.3-0.4-0.4-0.6l1.2-0.2C167.4,86.4,167.5,86.6,167.6,86.9z
	 M171.2,89.9v3.5h-8v-3.5H171.2z M170.1,91.3v-0.6h-5.9v0.6H170.1z M170.1,92h-5.9v0.7h5.9V92z M165.8,93.8v1.4
	c0,0.2,0.1,0.3,0.4,0.3h2.2c0.2,0,0.3,0,0.4-0.1c0.1-0.1,0.2-0.4,0.2-1.1l1,0.3c-0.1,0.9-0.3,1.4-0.5,1.5c-0.2,0.2-0.5,0.2-1,0.2
	h-2.8c-0.3,0-0.6-0.1-0.7-0.2c-0.2-0.2-0.3-0.4-0.3-0.7v-1.7L165.8,93.8L165.8,93.8z M168.4,88.6l0.4-0.8h-3.1l0.4,0.8H168.4z
	 M168.5,94.8l-0.9,0.6c-0.3-0.4-0.6-0.9-1-1.4l0.8-0.4C167.9,94,168.2,94.4,168.5,94.8z M172.5,95.6l-0.9,0.6
	c-0.3-0.6-0.7-1.2-1.3-1.9l0.8-0.5C171.7,94.5,172.1,95.1,172.5,95.6z"/>
<path class="st0" d="M4.7,116.8h-1v-0.9H2.3v1.1h-1v-8.9h3.4V116.8z M3.7,111.6v-2.4H2.3v2.4H3.7z M3.7,114.9v-2.4H2.3v2.4H3.7z
	 M7.6,108.5v-1.1h1v1.1h2.5v1H8.6v1.2h2.9v1h-1.1v1.2h1.2v1h-1.2v2.7c0,0.4-0.1,0.7-0.3,0.9c-0.2,0.2-0.5,0.3-0.9,0.3H7.8l-0.2-1.1
	c0.6,0.1,1,0.1,1.4,0.1c0.3,0,0.4-0.1,0.4-0.3v-2.6H4.9v-1h4.5v-1.2H5v-1h2.7v-1.2H5.3v-1H7.6z M8.1,115.8l-1,0.7
	c-0.4-0.5-0.9-1.2-1.6-1.8l0.9-0.5C7.1,114.8,7.6,115.4,8.1,115.8z"/>
<path class="st0" d="M18.4,107.3v4.2h4.5v0.9h-3.3v3.9c0,0.2,0.1,0.4,0.4,0.4h1.4c0.2,0,0.3-0.1,0.4-0.2c0.1-0.1,0.1-0.8,0.2-1.9
	l1.1,0.3c-0.1,1.3-0.3,2.1-0.5,2.4c-0.2,0.2-0.5,0.4-1,0.4h-2c-0.3,0-0.6-0.1-0.8-0.3c-0.2-0.2-0.3-0.4-0.3-0.8v-4.2h-1.6
	c-0.1,1.5-0.4,2.5-0.9,3.3c-0.5,0.8-1.4,1.6-2.7,2.2l-0.8-1c1.2-0.5,2-1.1,2.5-1.7c0.4-0.5,0.7-1.5,0.8-2.8h-3v-0.9h4.5v-4.2H18.4z
	 M16,110.5l-1.2,0.5c-0.4-1-0.8-1.8-1.3-2.6l1.1-0.4C15.2,108.8,15.6,109.6,16,110.5z M21.9,108.5c-0.3,0.9-0.8,1.8-1.3,2.6
	l-1.1-0.5c0.5-0.9,1-1.7,1.3-2.6L21.9,108.5z"/>
<path class="st0" d="M27.4,108.5c-0.4,0.2-1,0.4-1.9,0.6v0.9h1.7v0.9h-1.7v1.3h1.6v0.9h-1.5v1.3h2.1v-3.1h1v3.1h1v-3.6h-2v-3.5h1
	v0.8h2.1v0.9h-2.1v1h2.1v4.5H33v-1.2h-1.7v-0.9H33v-1.3h-1.7V110H33v-1.2h-1.8v-0.9H34l-0.1,6.6h0.6v1H23.9v-1h0.7l-0.1-6.2
	c0.8-0.1,1.6-0.4,2.5-0.8L27.4,108.5z M28.2,116.3c-0.9,0.6-2.1,1.1-3.5,1.6L24,117c1.3-0.4,2.4-0.8,3.4-1.4L28.2,116.3z M34.4,117
	l-0.7,1c-1.1-0.7-2.2-1.2-3.3-1.6l0.6-0.9C32.2,115.9,33.3,116.4,34.4,117z"/>
<path class="st0" d="M41.4,108.1v-0.8h1v0.8h2.7v1.7h0.6v0.9h-0.6v1.7h-2.7v0.7h2.8v0.8h-2.8v0.8h3.3v0.9h-3.3v1c0.2,0,0.3,0,0.5,0
	c1.3,0,2.4,0,3-0.1l-0.2,1.2c-3.6,0-5.7-0.1-6.5-0.2c-0.7-0.2-1.3-0.5-1.7-0.8l-0.1-0.1c-0.4,0.5-0.9,0.9-1.5,1.5l-0.6-1.1
	c0.6-0.4,1.1-0.9,1.4-1.3c-0.3-0.6-0.7-1.4-1.1-2.4l0.9-0.3c0.3,0.7,0.5,1.2,0.7,1.6c0,0,0-0.1,0.1-0.2c0.1-0.5,0.3-1.2,0.3-2.1h-2
	v-0.7c0.7-0.8,1.3-1.7,1.9-2.7h-2.1V108h3.3v1c-0.7,1.1-1.2,1.9-1.8,2.5h1.7c0,1.3-0.2,2.3-0.4,3.1c-0.1,0.4-0.2,0.7-0.4,1
	c0.3,0.3,0.7,0.6,1.2,0.7c0.4,0.1,1.2,0.2,2.2,0.3v-0.9h-2.7v-0.9h2.7V114H39v-0.8h2.2v-0.7h-2.1v-0.8h2.1v-0.9h-2.7v-0.9h2.7V109
	h-2.1v-0.8L41.4,108.1L41.4,108.1z M42.5,109.8h1.7V109h-1.7V109.8z M42.5,111.6h1.7v-0.9h-1.7V111.6z"/>
<path class="st0" d="M49.7,107.5c-0.1,0.2-0.2,0.4-0.3,0.6h2.9v0.9c0.5-0.6,0.9-1.1,1.1-1.7l1,0.2c-0.1,0.2-0.2,0.5-0.3,0.7h3.5v0.9
	h-1.9c0.1,0.3,0.2,0.6,0.3,0.9l-1.1,0.1c-0.1-0.3-0.2-0.7-0.2-0.9h-1.1c-0.3,0.4-0.5,0.7-0.8,1l-0.9-0.6c0.2-0.1,0.3-0.3,0.4-0.4
	h-1.5c0.1,0.3,0.2,0.5,0.3,0.8l-1.1,0.1c-0.1-0.3-0.2-0.6-0.3-0.9h-0.9c-0.3,0.4-0.6,0.7-1,1l-0.9-0.6c0.9-0.7,1.4-1.4,1.8-2.2
	L49.7,107.5z M51.8,114v-0.6l-0.4-0.4c0.6-0.2,1-0.4,1.3-0.6c-0.3-0.1-0.6-0.3-0.9-0.4l0.5-0.7c0.3,0.1,0.6,0.2,0.9,0.3
	c0-0.1,0-0.2,0-0.3V111h-1.3v-0.8H56v2.2c0,0.2,0.1,0.3,0.3,0.3c0.1,0,0.2,0,0.2-0.1c0.1-0.1,0.1-0.4,0.1-0.9l0.9,0.3
	c-0.1,0.8-0.2,1.3-0.3,1.4c-0.1,0.1-0.4,0.2-0.8,0.2H56c-0.3,0-0.5-0.1-0.7-0.2c-0.2-0.2-0.2-0.4-0.2-0.7V111H54v0.4
	c0,0.3,0,0.5-0.1,0.7c0.4,0.2,0.7,0.3,1,0.5l-0.5,0.9c-0.3-0.2-0.7-0.4-1-0.6c-0.2,0.2-0.5,0.4-0.8,0.5h0.2v0.6h4.7v0.9h-3.6
	c0.4,0.3,0.8,0.6,1.2,0.7c0.6,0.3,1.3,0.6,2.4,0.8l-0.4,0.9c-1.3-0.4-2.2-0.8-2.8-1.2c-0.5-0.3-0.9-0.7-1.4-1.3v2.9h-1V115
	c-0.3,0.4-0.7,0.8-1.2,1.1c-0.7,0.5-1.7,1-3.1,1.5l-0.6-0.9c1.4-0.4,2.3-0.8,2.9-1.1c0.3-0.1,0.5-0.3,0.8-0.5H47V114H51.8z
	 M51.5,110.4v0.9H50v1c0.5-0.1,1-0.2,1.5-0.3v0.9c-1.2,0.3-2.6,0.6-4.2,0.9l-0.2-1c0.6-0.1,1.3-0.1,1.9-0.2v-1.2h-1.6v-0.9
	L51.5,110.4L51.5,110.4z"/>
<path class="st0" d="M64.1,113.8c-0.2,0.2-0.5,0.5-0.9,0.7l-0.4-0.6c0.5-0.3,0.9-0.6,0.9-1H63v-1.4h1.4v1.1
	C64.4,113.2,64.3,113.6,64.1,113.8z"/>
<path class="st0" d="M72.3,108.5v-1.2h1v1.2h1.5v0.9h-1.5v1.3H74c0.6-0.6,1.1-1.4,1.7-2.4l0.8,0.4c-0.4,0.8-0.8,1.4-1.3,2H76v0.9
	h-1.6c-0.2,0.2-0.4,0.4-0.6,0.6c-0.2,0.2-0.4,0.4-0.7,0.5h2.4v5.2h-1v-0.7H72v0.7h-1v-4c-0.2,0.1-0.4,0.2-0.7,0.3l-0.5-0.8
	c1.3-0.5,2.3-1.1,3.2-1.8h-2.9v-0.9h2.2v-1.3h-1.8v-0.9H72.3z M74.6,114.5v-0.9h-2.5v0.9H74.6z M74.6,116.4v-1.1h-2.5v1.1H74.6z
	 M80.4,107.9v0.8c-0.4,1.2-0.7,2.3-1.1,3.4c0.5,0.7,0.9,1.2,1,1.6c0.2,0.4,0.3,0.8,0.3,1.2c0,0.7-0.1,1.2-0.4,1.6
	c-0.3,0.4-1,0.5-2.1,0.5l-0.3-1.1c0.3,0.1,0.7,0.1,1,0.1c0.3,0,0.5-0.1,0.6-0.3c0.1-0.1,0.1-0.4,0.1-0.8c0-0.2-0.1-0.5-0.2-0.9
	c-0.2-0.4-0.5-1-1.1-1.8c0.4-1.2,0.8-2.2,1-3.2h-1.6v9h-1v-10L80.4,107.9L80.4,107.9z"/>
<path class="st0" d="M83,108.1v2.1h1.3v-2.8h1v10.3h-1v-4.5h-0.8c0,1.1-0.1,1.8-0.2,2.2c-0.1,0.8-0.4,1.5-0.8,2.2l-0.9-0.7
	c0.3-0.5,0.6-1,0.7-1.6c0.1-0.5,0.1-1.2,0.2-2.2h-0.9v-0.9h2.7v-1.1H82V108L83,108.1L83,108.1z M88.6,107.7
	c-0.1,0.2-0.3,0.4-0.4,0.5h3.5v0.8c-0.5,0.9-1.2,1.6-2,2.2c-1.1,0.9-2.4,1.4-3.8,1.8l-0.4-0.9c0.5-0.1,0.9-0.2,1.4-0.3
	c-0.3-0.3-0.7-0.6-1-0.9l0.7-0.4c0.5,0.4,0.9,0.7,1.3,1c0.2-0.1,0.5-0.2,0.7-0.4c-0.4-0.3-0.9-0.6-1.4-1l0.6-0.6
	c0.6,0.3,1.1,0.7,1.6,1c0.4-0.4,0.9-0.8,1.2-1.3h-2.9c-0.4,0.5-0.9,0.9-1.4,1.2l-0.7-0.9c1-0.6,1.7-1.2,2.2-2L88.6,107.7z
	 M89.7,113.1v-1.2h1.1v1.2h1.1v1h-1.1v2.6c0,0.4-0.1,0.7-0.3,0.8c-0.2,0.2-0.5,0.3-0.9,0.3h-1.3l-0.2-1.1c0.5,0.1,0.9,0.1,1.2,0.1
	c0.3,0,0.4-0.1,0.4-0.3v-2.4h-4.2v-1H89.7z M88.3,116.1l-1,0.7c-0.3-0.6-0.7-1.2-1.2-1.9l0.9-0.5C87.6,115.1,88,115.7,88.3,116.1z"
	/>
<path class="st0" d="M103.2,110H100c0.1,1.6,0.3,2.9,0.6,3.9c0.5-0.8,1-1.8,1.5-3.1l1,0.4c-0.6,1.7-1.3,3-2,3.8
	c0.5,1,0.9,1.5,1.1,1.5c0.1,0,0.3-0.5,0.4-1.6l0.9,0.6c-0.3,1.1-0.5,1.7-0.7,2c-0.1,0.2-0.3,0.3-0.5,0.3c-0.5,0-1-0.3-1.5-0.8
	c-0.3-0.3-0.5-0.6-0.7-1c-0.7,0.7-1.6,1.3-2.7,1.8l-0.6-1c1.2-0.5,2.2-1.2,2.9-1.9c-0.2-0.4-0.3-0.8-0.4-1.2c-0.2-1-0.4-2.2-0.5-3.7
	H95v1.4h3.2c0,2.1-0.1,3.4-0.3,3.9c-0.2,0.6-0.6,1-1.1,1h-1.5l-0.2-1.1c0.8,0.1,1.3,0.1,1.7,0.1c0.1,0,0.2-0.2,0.2-0.5
	c0-0.4,0.1-1.2,0.1-2.4H95c0,0.8-0.1,1.7-0.2,2.5c-0.2,1.1-0.6,2.1-1,3.1l-0.9-0.8c0.4-0.8,0.7-1.7,0.9-2.6c0.1-0.9,0.2-1.8,0.2-2.6
	v-3h4.9c0-0.5,0-1,0-1.6h1.1c0,0.6,0,1.1,0,1.6h1.6c-0.3-0.3-0.7-0.6-1.1-0.9l0.7-0.7c0.5,0.3,1,0.7,1.4,1L102,109h1.3v1H103.2z"/>
<path class="st0" d="M114.7,108v1h-3.5c-0.2,0.5-0.5,1-0.8,1.4v7.5h-1.2v-6c-0.1,0.1-0.2,0.2-0.3,0.3c-1,1-2.2,2-3.7,2.8l-0.7-0.9
	c1.4-0.8,2.6-1.6,3.6-2.6c0.6-0.6,1.3-1.4,1.8-2.5h-5.2v-1H114.7z M114.7,114.1l-0.9,0.9c-0.7-0.9-1.6-1.9-2.8-3l0.8-0.8
	C113,112.2,113.9,113.1,114.7,114.1z"/>
<path class="st0" d="M117.8,109.5v-2.2h1v2.2h1.5v1h-1.5v0.6c0.6,0.6,1.1,1.3,1.7,2l-0.6,0.9c-0.4-0.7-0.8-1.3-1.1-1.7v5.5h-1v-5.3
	c-0.4,1-0.9,1.8-1.4,2.6l-0.4-1.2c0.8-1,1.4-2.1,1.9-3.4v-0.1h-1.8v-1L117.8,109.5L117.8,109.5z M126.4,108v1.1h-2.9
	c-0.3,0.9-0.8,1.7-1.4,2.7h4c-0.1,2.3-0.2,3.8-0.4,4.5c-0.1,0.5-0.3,0.9-0.7,1.2c-0.3,0.2-0.8,0.3-1.5,0.3c-1,0-1.6,0-1.9,0
	l-0.4-1.1c1,0.1,1.7,0.1,2.2,0.1s0.9-0.1,1-0.4c0.2-0.3,0.4-1.5,0.5-3.6h-4.2v-1.1c0.6-0.9,1.1-1.8,1.5-2.7H120v-1H126.4z"/>
</svg>
