<svg width="277" height="31" viewBox="0 0 277 31" fill="none" xmlns="http://www.w3.org/2000/svg">
<path d="M3.37018 4.93005H4.0802V5.60999C3.8602 6.11999 3.64018 6.53 3.43018 6.87C3.78018 7.21 4.08019 7.54 4.32019 7.87L3.86017 8.33997C3.71017 8.10997 3.53018 7.87 3.31018 7.62V11H2.65021V7.90002C2.42021 8.15002 2.17019 8.41005 1.88019 8.68005L1.66016 7.91003C2.06016 7.55003 2.36019 7.22995 2.57019 6.94995C2.79019 6.69995 3.04017 6.27003 3.30017 5.66003H1.73016V4.94995H2.68018C2.54018 4.54995 2.39016 4.17997 2.23016 3.83997L2.94019 3.75C3.08019 4.11 3.22018 4.50995 3.37018 4.94995V4.93005ZM8.47015 8.04004V9.58997H7.93018C7.87018 9.80997 7.78017 10.02 7.67017 10.21H8.90021V10.83H3.96021V10.21H5.34021L5.13019 9.58997H4.55017V8.04004H8.47015ZM8.84021 7.12V7.65002H4.24017V7.12H8.84021ZM5.57019 4.25V3.72998H6.19019V4.25H6.81018V3.72998H7.43018V4.25H8.66016V6.75H4.34021V4.25H5.5802H5.57019ZM5.57019 5.23999V4.77002H4.9502V5.23999H5.57019ZM5.57019 5.70996H4.9502V6.22998H5.57019V5.70996ZM7.79016 8.60999H5.23016V9.04004H7.79016V8.60999ZM6.97015 10.21C7.08015 10.01 7.18018 9.80997 7.25018 9.58997H5.79016L6.00018 10.21H6.98016H6.97015ZM6.19019 5.23999H6.81018V4.77002H6.19019V5.23999ZM6.81018 5.70996H6.19019V6.22998H6.81018V5.70996ZM7.43018 5.23999H8.05017V4.77002H7.43018V5.23999ZM8.05017 5.70996H7.43018V6.22998H8.05017V5.70996Z" fill="white"/>
<path d="M15.5002 5.08008V5.64014H13.7102V6.40015C14.3702 6.23015 14.9702 6.03016 15.5002 5.79016L15.8702 6.29016C15.1002 6.60016 14.4102 6.84012 13.7902 7.00012H16.1502V9.90015H14.2802C15.0202 10.0101 15.7802 10.1801 16.5702 10.3901L16.3302 11.0101C15.5202 10.7301 14.6802 10.5301 13.8002 10.3901L14.0602 9.90015H12.3402L12.6902 10.3601C12.2702 10.5201 11.9002 10.6401 11.5802 10.7201C11.2002 10.8101 10.7302 10.8901 10.1602 10.9901L9.82019 10.3701C10.3702 10.3101 10.8602 10.2402 11.2802 10.1602C11.6302 10.0902 11.9402 10.0002 12.2202 9.91016H10.6502V7.66016C10.4102 7.71016 10.1602 7.75015 9.91016 7.78015L9.57019 7.16016C10.8702 7.00016 12.0202 6.80008 13.0002 6.58008V5.65015H10.9002V5.09009H15.5002V5.08008ZM13.6302 4.22009H16.6802V5.79016H15.9402V4.77014H10.4802V5.79016H9.74017V4.22009H12.8402C12.7502 4.07009 12.6602 3.93015 12.5502 3.78015L13.3602 3.66016C13.4502 3.83016 13.5502 4.01008 13.6402 4.21008L13.6302 4.22009ZM12.6002 6.16016C12.2202 6.34016 11.8902 6.47017 11.6002 6.55017C11.2502 6.65017 10.8302 6.75009 10.3102 6.84009L10.0002 6.29016C10.5102 6.23016 10.9402 6.15017 11.3202 6.05017C11.6702 5.96017 11.9802 5.8501 12.2502 5.7301L12.5902 6.16016H12.6002ZM11.3702 7.83008H15.4502V7.52014H11.4102C11.4102 7.52014 11.3802 7.52014 11.3702 7.52014V7.82007V7.83008ZM11.3702 8.27014V8.61011H15.4502V8.27014H11.3702ZM11.3702 9.04016V9.38013H15.4502V9.04016H11.3702Z" fill="white"/>
<path d="M21.4302 3.75C22.3902 4.33 23.4902 4.85996 24.7302 5.32996L24.4202 6.04004C24.3302 6.01004 24.2502 5.97005 24.1802 5.93005V7.94995H18.0402V5.93005C17.9502 5.98005 17.8502 6.01004 17.7602 6.04004L17.4502 5.35999C18.5702 4.94999 19.6602 4.41 20.6902 3.75H21.4302ZM23.8402 10.98H23.1002V10.73H19.1202V11.01H18.3802V8.30005H23.8402V10.99V10.98ZM23.7902 5.76001C23.3202 5.55001 22.8902 5.34001 22.5102 5.14001V5.45996H19.7002V5.14001C19.2502 5.39001 18.8302 5.60002 18.4402 5.77002H23.7902V5.76001ZM20.7202 6.31995H18.7102V7.39001H19.7002C19.5702 7.18001 19.4202 6.93003 19.2302 6.66003L19.6602 6.38C19.9002 6.66 20.1002 6.88996 20.2402 7.07996L19.8102 7.39001H20.7102V6.31995H20.7202ZM23.0902 9.28003V8.84998H19.1102V9.28003H23.0902ZM23.0902 10.2V9.72998H19.1102V10.2H23.0902ZM22.1202 4.92004C21.7202 4.71004 21.3702 4.51005 21.0602 4.30005C20.7002 4.53005 20.3602 4.73004 20.0502 4.92004H22.1202ZM23.5002 6.31006H21.4302V7.38H22.4302L21.9602 7.04004C22.1302 6.85004 22.3002 6.62 22.4502 6.37L22.9502 6.57996C22.8202 6.89996 22.6702 7.16 22.5102 7.38H23.5102V6.31006H23.5002Z" fill="white"/>
<path d="M27.5402 3.75C27.9202 4.14 28.2602 4.55999 28.5602 4.98999L28.0903 5.42004C27.7703 4.96004 27.5203 4.61 27.3203 4.38C26.8103 4.94 26.2102 5.49002 25.4902 6.02002L25.2803 5.33997C25.9003 4.90997 26.4803 4.38001 27.0103 3.76001H27.5303L27.5402 3.75ZM27.6802 5.81995H28.4302V8.68994H26.5203V9.96997C26.9203 9.89997 27.3203 9.80997 27.7103 9.71997C27.5803 9.46997 27.4402 9.23001 27.3002 9.01001L27.9202 8.81995C28.2502 9.32995 28.5403 9.86004 28.7803 10.42L28.1602 10.7C28.1002 10.54 28.0303 10.38 27.9603 10.24C27.2403 10.43 26.4202 10.6299 25.5002 10.8199L25.3502 10.14C25.5102 10.12 25.6602 10.11 25.8102 10.08V5.81995H27.0303C26.9503 5.57995 26.8603 5.35001 26.7703 5.14001L27.4503 5.05005C27.5303 5.28005 27.6102 5.52995 27.6902 5.81995H27.6802ZM27.7202 6.96997V6.38H26.5203V6.96997H27.7202ZM27.7202 8.14001V7.48999H26.5203V8.14001H27.7202ZM30.9503 4.43005H32.5103V6.01001H32.0402V7.76001H29.6102V8.34998H32.3502V11H31.6702V10.54H29.6102V11H28.9302V6H28.6503V4.42004H30.2502C30.1602 4.20004 30.0502 3.99005 29.9402 3.80005L30.6403 3.70996C30.7403 3.91996 30.8502 4.16003 30.9402 4.41003L30.9503 4.43005ZM31.8303 5.67004V5.07996H29.3203V5.67004H31.8303ZM31.3602 7.08997V6.34998H29.6102V7.08997H31.3602ZM31.6702 9.90002V8.97998H29.6102V9.90002H31.6702Z" fill="white"/>
<path d="M3.16016 26.48C2.78016 27.57 2.25019 28.5 1.57019 29.28L0.450195 28.6899C1.1502 27.9399 1.63017 27.14 1.92017 26.28L3.16016 26.48ZM2.28021 19.5699V24.9H7.31018V25.83H5.05017V28.9399C5.05017 29.3399 4.9302 29.63 4.7002 29.8C4.4902 29.98 4.0902 30.08 3.5202 30.08H2.50018L2.21021 28.9399C2.59021 28.9999 2.91021 29.04 3.15021 29.04C3.51021 29.04 3.7002 28.94 3.7002 28.74V25.83H1.03021V19.5601H2.2702L2.28021 19.5699ZM7.01019 18.88V24.41H2.99017V18.88H7.01019ZM5.8302 20.51V19.73H4.18018V20.51H5.8302ZM5.8302 22.04V21.26H4.18018V22.04H5.8302ZM5.8302 22.79H4.18018V23.5699H5.8302V22.79ZM7.47015 28.15C7.89015 27.57 8.23019 26.97 8.44019 26.34L9.74017 26.54C9.32017 27.7 8.76021 28.71 8.03021 29.55L6.85016 28.91C6.97016 28.77 7.11016 28.63 7.23016 28.48L6.43018 28.76C6.16018 27.95 5.87017 27.23 5.55017 26.59L6.67017 26.3C6.97017 26.89 7.25015 27.51 7.47015 28.16V28.15ZM14.2402 19.6801C13.3002 19.9101 12.1802 20.07 10.9102 20.16C10.6802 20.84 10.3502 21.5 9.93018 22.12C10.5402 22.07 11.1402 21.99 11.7502 21.91C12.0202 21.56 12.3002 21.18 12.5802 20.77L13.6602 21.35C12.7402 22.51 11.9502 23.35 11.3102 23.88C11.0102 24.13 10.6702 24.37 10.2902 24.61C11.1402 24.56 11.9402 24.47 12.6702 24.37C12.5202 24.07 12.3802 23.79 12.2302 23.52L13.3502 23.23C13.7702 23.99 14.1502 24.78 14.4702 25.64L13.3502 26.04C13.2402 25.76 13.1402 25.48 13.0302 25.22C12.6402 25.3 12.1702 25.36 11.6402 25.42V29C11.6402 29.4 11.5202 29.69 11.2902 29.86C11.0802 30.04 10.6702 30.14 10.0902 30.14H9.03021L8.74017 29C9.13017 29.06 9.47017 29.1 9.74017 29.1C10.0902 29.1 10.2702 29 10.2702 28.8V25.58C9.5102 25.66 8.69016 25.73 7.79016 25.79L7.61017 24.7C7.99017 24.7 8.35015 24.69 8.72015 24.67C9.42015 24.27 9.98017 23.85 10.4202 23.41C10.5902 23.26 10.7702 23.07 10.9502 22.87C10.0102 23.01 9.01017 23.15 7.92017 23.27L7.68018 22.28C7.95018 22.27 8.23018 22.26 8.50018 22.23C8.95018 21.59 9.3202 20.92 9.5802 20.22C9.0302 20.25 8.49018 20.25 7.93018 20.25L7.57019 19.3101C9.96019 19.3101 12.0102 19.13 13.6802 18.77L14.2702 19.67L14.2402 19.6801ZM14.3602 29.0601L13.1802 29.5C12.8302 28.41 12.4502 27.44 12.0402 26.58L13.2202 26.29C13.6402 27.16 14.0202 28.0801 14.3602 29.0601Z" fill="white"/>
<path d="M24.1101 19.7599H29.5801V20.7999H18.5001V24.4099C18.5001 24.6499 18.4801 24.8899 18.4701 25.1199C19.6201 23.9199 20.5001 22.5899 21.1101 21.1499L22.5302 21.3899C22.2002 22.1099 21.8501 22.7699 21.5101 23.3599V30.1799H20.1501V25.3899C19.8501 25.7699 19.5601 26.0999 19.2701 26.3799L18.4401 25.5199C18.3801 26.0599 18.3001 26.6099 18.1801 27.1499C17.9201 28.1499 17.5001 29.1198 16.9101 30.0798L15.6101 29.1499C16.1701 28.3899 16.5602 27.6099 16.7802 26.7699C16.9302 25.9199 17.0201 25.1399 17.0201 24.4099V19.7599H22.5701C22.3701 19.4299 22.1601 19.1198 21.9501 18.8198L23.5401 18.6299C23.7401 18.9699 23.9301 19.3499 24.1201 19.7499L24.1101 19.7599ZM26.7301 22.9698V21.3398H28.1501V22.9698H29.5101V23.9598H28.1501V28.9498C28.1501 29.3798 28.0301 29.6799 27.7901 29.8599C27.5601 30.0399 27.1501 30.1399 26.5501 30.1399H24.4301L24.1301 28.9498C24.9501 29.0098 25.6101 29.0499 26.1501 29.0499C26.5401 29.0499 26.7401 28.9499 26.7401 28.7499V23.9598H22.4201V22.9698H26.7401H26.7301ZM25.6101 26.9698L24.3101 27.6998C23.9501 26.9898 23.4501 26.1999 22.8301 25.2899L23.9101 24.7499C24.6401 25.6099 25.2001 26.3498 25.6201 26.9698H25.6101Z" fill="white"/>
<path d="M36.3201 19.1301V21.2301C36.9601 20.9001 37.5001 20.5502 37.9601 20.1602C38.3501 19.8302 38.7301 19.3402 39.1001 18.6802L40.5201 18.8301C40.3701 19.1601 40.1901 19.4501 40.0001 19.7301H44.0201V20.6101C43.2201 21.6201 42.4101 22.4302 41.6101 23.0402C42.4301 23.4702 43.5301 23.8701 44.9001 24.2701L44.3101 25.3102C42.7001 24.7702 41.4501 24.2501 40.5401 23.7401C39.5101 24.3501 38.1501 24.8802 36.4501 25.3102L36.3301 25.1201V26.0502H34.7201V28.1702C35.3301 28.0302 35.9301 27.8801 36.5101 27.7201V28.7601C34.8901 29.2401 33.0601 29.6901 30.9901 30.1001L30.6401 29.0101C30.9001 28.9701 31.1601 28.9201 31.4101 28.8701V24.0201H32.5302V28.6602C32.8602 28.6102 33.1701 28.5501 33.4701 28.4701V23.1901H31.5201V19.1501H36.3201V19.1301ZM35.0801 20.1201H32.7601V22.1901H35.0801V20.1201ZM35.7901 24.2601C37.2601 23.9301 38.4701 23.5102 39.4401 23.0302C38.9701 22.6802 38.4901 22.2202 37.9901 21.6702C37.6401 21.9102 37.2601 22.1401 36.8501 22.3401L36.3201 21.7301V23.1702H34.7101V24.9001H36.1901L35.7802 24.2601H35.7901ZM43.7802 30.2401H42.4201V29.7301H38.6301V30.2401H37.2701V25.3501H43.7901V30.2401H43.7802ZM42.4201 28.6101V26.4901H38.6301V28.6101H42.4201ZM40.5101 22.4102C41.0701 22.0102 41.6601 21.4802 42.3001 20.8102H39.0901C39.0101 20.8902 38.9401 20.9501 38.8801 21.0001C39.4601 21.6101 40.0001 22.0902 40.5201 22.4102H40.5101Z" fill="white"/>
<path d="M47.7701 18.9603C48.1901 18.7203 48.7201 18.6104 49.3701 18.6104C49.8301 18.6104 50.2601 18.6604 50.6801 18.7704C51.0901 18.8804 51.4501 19.0404 51.7601 19.2504C52.0701 19.4604 52.3101 19.7304 52.4801 20.0604C52.6601 20.3904 52.7401 20.7804 52.7401 21.2404C52.7401 21.6604 52.6601 22.0404 52.5101 22.3804C52.3601 22.7204 52.1701 23.0004 51.9401 23.2504C51.7101 23.4904 51.4501 23.6903 51.1701 23.8403C50.8901 23.9903 50.6201 24.1004 50.3601 24.1804V24.2904C50.6701 24.3104 50.9901 24.3703 51.3301 24.4603C51.6701 24.5503 51.9902 24.7004 52.2802 24.9004C52.5702 25.1104 52.8201 25.3803 53.0101 25.7203C53.2001 26.0603 53.3001 26.5004 53.3001 27.0304C53.3001 27.5604 53.1901 28.0704 52.9701 28.5204C52.7501 28.9704 52.4501 29.3703 52.0501 29.6903C51.6601 30.0203 51.1801 30.2703 50.6301 30.4503C50.0801 30.6303 49.4601 30.7103 48.7901 30.7103C48.1801 30.7103 47.6601 30.6504 47.2401 30.5404C46.8201 30.4304 46.4501 30.3004 46.1301 30.1404C46.1801 30.0504 46.2201 29.8904 46.2601 29.6704C46.3001 29.4504 46.3301 29.2603 46.3401 29.0803L46.4501 29.0104C46.5601 29.1304 46.6901 29.2604 46.8401 29.4004C46.9901 29.5404 47.1701 29.6704 47.3801 29.7904C47.5901 29.9104 47.8101 30.0003 48.0501 30.0803C48.2901 30.1603 48.5501 30.1903 48.8401 30.1903C49.2901 30.1903 49.6802 30.1203 50.0302 29.9803C50.3802 29.8403 50.6701 29.6404 50.9201 29.3804C51.1701 29.1204 51.3601 28.8103 51.4901 28.4403C51.6201 28.0703 51.6801 27.6704 51.6801 27.2404C51.6801 26.7604 51.6201 26.3504 51.4901 26.0104C51.3701 25.6704 51.2001 25.4003 50.9801 25.2003C50.7601 24.9903 50.5001 24.8404 50.1901 24.7504C49.8801 24.6604 49.5501 24.6104 49.1801 24.6104C49.0501 24.6104 48.9101 24.6204 48.7701 24.6504C48.6201 24.6704 48.5001 24.7003 48.3901 24.7203C48.4001 24.6603 48.4101 24.6004 48.4201 24.5304C48.4201 24.4604 48.4201 24.4003 48.4201 24.3403C48.4201 24.2803 48.4201 24.2204 48.4201 24.1504C48.4201 24.0904 48.4101 24.0203 48.3901 23.9603C48.6301 24.0103 48.8901 24.0304 49.1801 24.0304C49.5901 24.0304 49.9301 23.9404 50.1901 23.7704C50.4501 23.6004 50.6501 23.3804 50.8001 23.1204C50.9501 22.8504 51.0501 22.5604 51.1001 22.2504C51.1501 21.9304 51.1801 21.6303 51.1801 21.3303C51.1801 20.9503 51.1201 20.6303 51.0101 20.3503C50.9001 20.0703 50.7501 19.8504 50.5801 19.6704C50.4001 19.4904 50.2001 19.3604 49.9801 19.2804C49.7601 19.2004 49.5301 19.1604 49.2901 19.1604C48.8001 19.1604 48.3702 19.3003 48.0302 19.5903C47.6802 19.8803 47.4401 20.2103 47.3101 20.5703L47.1901 20.6104L46.7802 19.6604C47.0202 19.4204 47.3401 19.1903 47.7601 18.9503L47.7701 18.9603Z" fill="white"/>
<path d="M55.2803 24.6901C55.2803 23.8501 55.3502 23.0701 55.4902 22.3301C55.6302 21.5901 55.8602 20.9501 56.1902 20.4001C56.5102 19.8501 56.9402 19.4201 57.4702 19.0901C58.0002 18.7701 58.6502 18.6001 59.4102 18.6001C60.2602 18.6001 60.9502 18.7601 61.4902 19.0901C62.0302 19.4101 62.4502 19.8501 62.7502 20.4001C63.0602 20.9501 63.2702 21.5901 63.3802 22.3301C63.4902 23.0701 63.5502 23.8501 63.5502 24.6901C63.5502 25.5301 63.4702 26.2701 63.3002 27.0001C63.1302 27.7301 62.8802 28.3702 62.5502 28.9302C62.2102 29.4802 61.7903 29.9201 61.2703 30.2401C60.7503 30.5601 60.1302 30.7201 59.4202 30.7201C58.5702 30.7201 57.8803 30.5701 57.3403 30.2601C56.8003 29.9501 56.3803 29.5301 56.0803 28.9801C55.7703 28.4301 55.5603 27.7902 55.4503 27.0502C55.3403 26.3102 55.2803 25.5301 55.2803 24.6901ZM56.7302 24.6901C56.7302 25.4701 56.7702 26.1901 56.8602 26.8601C56.9502 27.5301 57.1002 28.1101 57.3102 28.6101C57.5202 29.1001 57.8003 29.4902 58.1403 29.7802C58.4803 30.0602 58.9102 30.2001 59.4102 30.2001C59.9102 30.2001 60.3402 30.0602 60.6802 29.7802C61.0202 29.5002 61.3003 29.1101 61.5103 28.6101C61.7203 28.1201 61.8703 27.5301 61.9603 26.8601C62.0503 26.1901 62.0903 25.4601 62.0903 24.6901C62.0903 23.9201 62.0503 23.1901 61.9603 22.5201C61.8703 21.8501 61.7203 21.2701 61.5103 20.7701C61.3003 20.2801 61.0202 19.8901 60.6802 19.6001C60.3402 19.3201 59.9102 19.1802 59.4102 19.1802C58.9102 19.1802 58.4803 19.3101 58.1403 19.5701C57.8003 19.8301 57.5202 20.2002 57.3102 20.6802C57.1002 21.1602 56.9502 21.7402 56.8602 22.4202C56.7702 23.1002 56.7302 23.8501 56.7302 24.6901Z" fill="white"/>
<path d="M65.3002 27.3201C65.3002 26.6001 65.5002 25.9401 65.8902 25.3401C66.2802 24.7401 66.9402 24.2901 67.8602 23.9801V23.8601C67.6402 23.8101 67.4102 23.7201 67.1802 23.5901C66.9502 23.4501 66.7402 23.2801 66.5502 23.0801C66.3602 22.8701 66.2102 22.6301 66.0902 22.3501C65.9702 22.0701 65.9102 21.7602 65.9102 21.4302C65.9102 21.0502 65.9902 20.7001 66.1502 20.3601C66.3102 20.0201 66.5302 19.7301 66.8202 19.4701C67.1102 19.2101 67.4602 19.0101 67.8602 18.8501C68.2702 18.7001 68.7202 18.6201 69.2302 18.6201C69.8202 18.6201 70.3302 18.6901 70.7502 18.8401C71.1702 18.9901 71.5202 19.1802 71.7902 19.4102C72.0602 19.6502 72.2602 19.9201 72.4002 20.2301C72.5402 20.5401 72.6002 20.8701 72.6002 21.2101C72.6002 21.7701 72.4302 22.3001 72.1002 22.7701C71.7602 23.2501 71.2702 23.5902 70.6202 23.8002V23.9202C70.8202 23.9602 71.0702 24.0301 71.3602 24.1401C71.6502 24.2501 71.9302 24.4201 72.2002 24.6501C72.4702 24.8801 72.6902 25.1802 72.8802 25.5402C73.0702 25.9102 73.1602 26.3601 73.1602 26.9001C73.1602 27.4901 73.0602 28.0201 72.8502 28.4901C72.6402 28.9601 72.3602 29.3601 72.0002 29.7001C71.6402 30.0401 71.2202 30.2901 70.7502 30.4501C70.2702 30.6101 69.7602 30.7001 69.2202 30.7001C68.6802 30.7001 68.1502 30.6301 67.6702 30.5001C67.1902 30.3601 66.7702 30.1501 66.4202 29.8601C66.0702 29.5701 65.7902 29.2102 65.5902 28.7802C65.3902 28.3602 65.2902 27.8702 65.2902 27.3102L65.3002 27.3201ZM71.6202 27.2301C71.6202 26.7901 71.5602 26.4002 71.4502 26.0402C71.3402 25.6802 71.1802 25.3701 70.9702 25.1001C70.7602 24.8401 70.5102 24.6301 70.2202 24.4801C69.9302 24.3301 69.6002 24.2601 69.2302 24.2601C68.8602 24.2601 68.5402 24.3301 68.2402 24.4801C67.9502 24.6301 67.7002 24.8301 67.4902 25.1001C67.2802 25.3701 67.1202 25.6802 67.0102 26.0402C66.9002 26.4002 66.8402 26.8001 66.8402 27.2301C66.8402 27.6601 66.9002 28.0602 67.0102 28.4202C67.1202 28.7802 67.2802 29.0901 67.4902 29.3601C67.7002 29.6201 67.9502 29.8301 68.2402 29.9801C68.5302 30.1301 68.8602 30.2001 69.2302 30.2001C69.6002 30.2001 69.9202 30.1301 70.2202 29.9801C70.5102 29.8301 70.7602 29.6301 70.9702 29.3601C71.1802 29.0901 71.3302 28.7802 71.4502 28.4202C71.5602 28.0602 71.6202 27.6601 71.6202 27.2301ZM71.1602 21.4401C71.1602 21.1301 71.1202 20.8501 71.0502 20.5701C70.9802 20.3001 70.8602 20.0601 70.7102 19.8501C70.5502 19.6401 70.3502 19.4801 70.1202 19.3601C69.8802 19.2401 69.6002 19.1702 69.2502 19.1702C68.9002 19.1702 68.6302 19.2301 68.3902 19.3601C68.1502 19.4801 67.9502 19.6501 67.8002 19.8501C67.6502 20.0601 67.5402 20.2901 67.4602 20.5701C67.3902 20.8401 67.3502 21.1301 67.3502 21.4401C67.3502 21.7501 67.3902 22.0202 67.4602 22.3002C67.5302 22.5802 67.6402 22.8201 67.8002 23.0201C67.9502 23.2301 68.1502 23.3901 68.3902 23.5101C68.6302 23.6301 68.9202 23.7001 69.2502 23.7001C69.5802 23.7001 69.8802 23.6401 70.1202 23.5101C70.3602 23.3901 70.5502 23.2201 70.7102 23.0201C70.8702 22.8101 70.9802 22.5702 71.0502 22.3002C71.1202 22.0202 71.1602 21.7401 71.1602 21.4401Z" fill="white"/>
<path d="M80.3602 23.3203V24.3604H77.5103L77.1002 25.6404H79.7703C79.7403 27.9504 79.4702 29.2704 78.9702 29.6104C78.7002 29.8904 77.7703 30.0404 76.2103 30.0404L75.9202 28.8503C76.3402 28.9303 76.6902 28.9503 76.9802 28.9503C77.4002 28.9503 77.7203 28.8703 77.9503 28.7203C78.1503 28.5803 78.2803 27.9004 78.3403 26.6704H75.3903L76.1902 24.3604H74.7402V23.3203H80.3602ZM80.1802 19.0204V22.5703H75.3903V19.0204H80.1802ZM78.9402 19.9503H76.6403V21.6304H78.9402V19.9503ZM84.9102 18.6204V19.3503H87.7603V20.2904H84.9102V21.0404H88.5903C88.4703 21.8504 88.2902 22.6304 88.0402 23.4004L86.7502 23.1104C86.9002 22.8104 87.0402 22.4504 87.1602 22.0204H84.9003V22.9803L86.6302 22.9004L86.8002 23.8503L84.9102 23.9403V24.1903C84.9102 24.4603 85.0603 24.5803 85.3903 24.5803H87.9402V25.5104H85.0903C84.6403 25.5104 84.2902 25.4304 84.0402 25.2804C83.7802 25.1304 83.6602 24.8804 83.6602 24.5204V23.9904L82.1902 24.0504C82.1602 24.9604 82.0703 25.9204 81.8903 26.9104C81.6503 28.0204 81.2503 29.1203 80.7103 30.2103L79.5903 29.3604C80.1103 28.4904 80.4502 27.5703 80.6702 26.5903C80.8202 25.6003 80.9003 24.6803 80.9003 23.8403V21.0204H83.5703V18.6104H84.9202L84.9102 18.6204ZM84.2603 26.0204C84.2103 27.1704 84.1102 27.9403 83.9302 28.3403C83.7202 29.0003 83.2602 29.6304 82.5502 30.2504L81.4902 29.5703C82.0702 29.1203 82.4602 28.6903 82.6702 28.2303C82.8502 27.7603 82.9603 27.0304 83.0203 26.0204H84.2603ZM83.6702 22.0204H82.2003V23.1204L83.6702 23.0404V22.0204ZM86.4003 26.0204V28.7203C86.4003 28.9603 86.5502 29.0703 86.8702 29.0703H86.9902C87.1402 29.0703 87.2602 29.0104 87.3502 28.8904C87.4302 28.7804 87.4903 28.2203 87.5203 27.2303L88.7003 27.5304C88.6103 28.7404 88.4402 29.4504 88.2302 29.6704C88.0302 29.8804 87.6802 30.0004 87.1702 30.0004H86.4003C86.0103 30.0004 85.7002 29.9103 85.4902 29.7303C85.2602 29.5403 85.1602 29.3004 85.1602 29.0104V26.0004H86.4003V26.0204Z" fill="white"/>
<path d="M131.17 3.4502C131.74 2.8802 132.48 2.33019 133.39 1.82019C134.3 1.30019 135.49 1.05029 136.96 1.05029C138.02 1.05029 139.01 1.17028 139.94 1.41028C140.86 1.65028 141.67 2.03029 142.37 2.55029C143.06 3.06029 143.61 3.71024 144.02 4.50024C144.43 5.29024 144.63 6.2203 144.63 7.3103C144.63 8.3403 144.45 9.25029 144.1 10.0503C143.75 10.8503 143.3 11.5402 142.75 12.1302C142.21 12.7202 141.6 13.1902 140.94 13.5702C140.27 13.9402 139.64 14.2102 139.04 14.3802V15.0203C139.72 15.0803 140.47 15.2103 141.28 15.4303C142.1 15.6403 142.85 15.9902 143.54 16.4802C144.23 16.9702 144.81 17.6202 145.27 18.4502C145.73 19.2802 145.96 20.3103 145.96 21.5403C145.96 22.7703 145.71 24.0202 145.21 25.1202C144.71 26.2202 144.01 27.1702 143.11 27.9702C142.21 28.7702 141.13 29.4002 139.85 29.8602C138.57 30.3202 137.16 30.5503 135.61 30.5503C134.36 30.5503 133.23 30.4002 132.23 30.1002C131.22 29.8002 130.37 29.4903 129.66 29.1803C129.77 28.8903 129.86 28.5302 129.92 28.0902C129.99 27.6502 130.04 27.2103 130.06 26.7803C130.33 27.1003 130.65 27.4202 131.02 27.7502C131.39 28.0802 131.81 28.3803 132.28 28.6503C132.76 28.9203 133.28 29.1502 133.85 29.3402C134.42 29.5302 135.03 29.6202 135.69 29.6202C136.75 29.6202 137.71 29.4303 138.57 29.0603C139.43 28.6903 140.15 28.1703 140.73 27.5103C141.31 26.8503 141.77 26.0703 142.1 25.1503C142.43 24.2303 142.59 23.2202 142.59 22.1002C142.59 20.8702 142.44 19.8202 142.14 18.9702C141.84 18.1102 141.43 17.4203 140.9 16.8903C140.37 16.3603 139.74 15.9802 139 15.7502C138.27 15.5202 137.45 15.4103 136.55 15.4103C136.25 15.4103 135.96 15.4202 135.69 15.4502C135.42 15.4802 135.16 15.5202 134.92 15.5802C134.95 15.4402 134.96 15.2402 134.96 14.9802C134.96 14.6902 134.95 14.4802 134.92 14.3402C135.41 14.4302 135.95 14.4702 136.55 14.4702C137.56 14.4702 138.38 14.2503 139.02 13.8003C139.66 13.3603 140.15 12.8002 140.51 12.1302C140.86 11.4602 141.1 10.7203 141.22 9.92029C141.34 9.12029 141.4 8.35022 141.4 7.60022C141.4 6.63022 141.26 5.79021 140.99 5.09021C140.72 4.39021 140.36 3.81022 139.93 3.35022C139.49 2.89022 139.01 2.56021 138.46 2.34021C137.92 2.13021 137.36 2.02026 136.79 2.02026C136.22 2.02026 135.67 2.12019 135.16 2.32019C134.64 2.52019 134.17 2.78021 133.75 3.09021C133.33 3.41021 132.97 3.78021 132.67 4.21021C132.37 4.64021 132.14 5.08028 131.98 5.54028L131.94 5.67029L131.17 3.48022V3.4502ZM130.01 26.6703C130.01 26.6703 129.98 26.6102 129.95 26.5802L130.19 26.6202C130.14 26.6502 130.11 26.6603 130.13 26.6603C130.15 26.6603 130.13 26.6702 130.07 26.7002V26.7402C130.07 26.7402 130.02 26.6803 130.01 26.6503V26.6703Z" fill="white"/>
<path d="M149.48 3.4502C150.05 2.8802 150.79 2.33019 151.7 1.82019C152.61 1.30019 153.8 1.05029 155.27 1.05029C156.33 1.05029 157.32 1.17028 158.25 1.41028C159.17 1.65028 159.98 2.03029 160.68 2.55029C161.37 3.06029 161.92 3.71024 162.33 4.50024C162.74 5.29024 162.94 6.2203 162.94 7.3103C162.94 8.3403 162.76 9.25029 162.41 10.0503C162.06 10.8503 161.61 11.5402 161.06 12.1302C160.52 12.7202 159.91 13.1902 159.25 13.5702C158.58 13.9402 157.95 14.2102 157.35 14.3802V15.0203C158.03 15.0803 158.78 15.2103 159.59 15.4303C160.41 15.6403 161.16 15.9902 161.85 16.4802C162.54 16.9702 163.12 17.6202 163.58 18.4502C164.04 19.2802 164.27 20.3103 164.27 21.5403C164.27 22.7703 164.02 24.0202 163.52 25.1202C163.02 26.2202 162.32 27.1702 161.42 27.9702C160.52 28.7702 159.43 29.4002 158.16 29.8602C156.88 30.3202 155.47 30.5503 153.92 30.5503C152.67 30.5503 151.54 30.4002 150.54 30.1002C149.53 29.8002 148.68 29.4903 147.97 29.1803C148.08 28.8903 148.17 28.5302 148.23 28.0902C148.3 27.6502 148.35 27.2103 148.37 26.7803C148.64 27.1003 148.96 27.4202 149.33 27.7502C149.7 28.0802 150.12 28.3803 150.59 28.6503C151.07 28.9203 151.59 29.1502 152.16 29.3402C152.73 29.5302 153.34 29.6202 154 29.6202C155.06 29.6202 156.02 29.4303 156.88 29.0603C157.74 28.6903 158.46 28.1703 159.04 27.5103C159.62 26.8503 160.08 26.0703 160.41 25.1503C160.74 24.2303 160.9 23.2202 160.9 22.1002C160.9 20.8702 160.75 19.8202 160.45 18.9702C160.15 18.1102 159.74 17.4203 159.21 16.8903C158.68 16.3603 158.05 15.9802 157.31 15.7502C156.58 15.5202 155.76 15.4103 154.86 15.4103C154.56 15.4103 154.27 15.4202 154 15.4502C153.73 15.4802 153.47 15.5202 153.23 15.5802C153.26 15.4402 153.27 15.2402 153.27 14.9802C153.27 14.6902 153.26 14.4802 153.23 14.3402C153.72 14.4302 154.26 14.4702 154.86 14.4702C155.87 14.4702 156.69 14.2503 157.33 13.8003C157.97 13.3603 158.46 12.8002 158.82 12.1302C159.17 11.4602 159.41 10.7203 159.53 9.92029C159.65 9.12029 159.71 8.35022 159.71 7.60022C159.71 6.63022 159.57 5.79021 159.3 5.09021C159.03 4.39021 158.67 3.81022 158.24 3.35022C157.8 2.89022 157.32 2.56021 156.77 2.34021C156.23 2.13021 155.67 2.02026 155.1 2.02026C154.53 2.02026 153.98 2.12019 153.47 2.32019C152.95 2.52019 152.48 2.78021 152.06 3.09021C151.64 3.41021 151.28 3.78021 150.98 4.21021C150.68 4.64021 150.45 5.08028 150.29 5.54028L150.25 5.67029L149.48 3.48022V3.4502ZM148.32 26.6703C148.32 26.6703 148.29 26.6102 148.26 26.5802L148.5 26.6202C148.45 26.6502 148.42 26.6603 148.44 26.6603C148.45 26.6603 148.44 26.6702 148.38 26.7002V26.7402C148.38 26.7402 148.33 26.6803 148.32 26.6503V26.6703Z" fill="white"/>
<path d="M167.95 5.07996C168.79 3.64996 169.81 2.60997 170.99 1.96997C172.17 1.32997 173.59 1 175.25 1C176.31 1 177.3 1.14005 178.23 1.43005C179.15 1.72005 179.96 2.17003 180.66 2.78003C181.35 3.40003 181.9 4.18 182.31 5.12C182.72 6.06 182.92 7.20001 182.92 8.51001C182.92 9.48001 182.81 10.38 182.59 11.21C182.37 12.04 182.05 12.8601 181.61 13.6801C181.17 14.5001 180.63 15.31 179.98 16.13C179.33 16.95 178.58 17.81 177.74 18.73V18.6899C177.55 18.8899 177.35 19.11 177.15 19.36C176.95 19.6 176.74 19.8399 176.52 20.0699C175.49 21.1599 174.36 22.34 173.16 23.63C171.95 24.92 170.88 26.25 169.96 27.62H174.32C176.25 27.62 177.95 27.59 179.42 27.53C180.89 27.47 182.19 27.3999 183.34 27.3199C183.26 27.7499 183.22 28.2099 183.22 28.6899C183.22 29.1699 183.26 29.6301 183.34 30.0601C181.87 30.0001 180.44 29.95 179.06 29.91C177.67 29.87 176.25 29.85 174.78 29.85C173.31 29.85 171.86 29.87 170.44 29.91C169.01 29.95 167.56 30.0001 166.1 30.0601V29.76C167.98 27.81 169.61 26.0799 171.01 24.5699C172.41 23.0499 173.61 21.68 174.6 20.45C175.59 19.22 176.41 18.11 177.05 17.12C177.69 16.13 178.19 15.18 178.56 14.27C178.93 13.35 179.19 12.4499 179.33 11.5699C179.48 10.6799 179.55 9.73999 179.55 8.73999C179.55 7.61999 179.42 6.65997 179.16 5.83997C178.9 5.01997 178.55 4.34005 178.1 3.80005C177.65 3.26005 177.13 2.85998 176.55 2.59998C175.96 2.33998 175.35 2.20996 174.69 2.20996C173.79 2.20996 173.02 2.36995 172.37 2.69995C171.72 3.02995 171.17 3.44004 170.74 3.92004C170.3 4.41004 169.97 4.92999 169.72 5.48999C169.48 6.04999 169.31 6.53997 169.23 6.96997V7.06006L167.97 5.07996H167.95Z" fill="white"/>
<path d="M187.29 13.1104H197.2V15.3904H187.29V13.1104Z" fill="white"/>
<path d="M206.25 3.2301C205.46 3.6901 204.62 4.18008 203.72 4.71008C202.82 5.24008 201.98 5.73006 201.19 6.19006C201.05 5.99006 200.88 5.77014 200.68 5.52014C200.48 5.28014 200.27 5.08006 200.05 4.94006C201.63 4.25006 203.2 3.52012 204.78 2.75012C206.36 1.98012 207.87 1.20018 209.31 0.430176L209.39 0.470093C209.28 2.36009 209.2 4.25014 209.15 6.14014C209.1 8.03014 209.07 9.92018 209.07 11.8102V19.0701C209.07 20.9601 209.1 22.8001 209.15 24.5901C209.2 26.3801 209.29 28.1901 209.39 30.0201C209.09 29.9601 208.8 29.9201 208.51 29.8901C208.22 29.8601 207.93 29.8501 207.63 29.8501C207.33 29.8501 207.04 29.8601 206.75 29.8901C206.46 29.9201 206.17 29.9601 205.87 30.0201C206.01 28.1301 206.1 26.3102 206.16 24.5502C206.21 22.7902 206.24 20.9701 206.24 19.0801V3.24011L206.25 3.2301Z" fill="white"/>
<path d="M217.71 30.0203C217.63 29.7103 217.52 29.3703 217.38 29.0103C217.24 28.6503 217.11 28.3002 216.97 27.9602C218.17 29.0502 219.5 29.5902 220.97 29.5902C222.44 29.5902 223.8 29.1302 224.88 28.1902C225.97 27.2602 226.86 26.0403 227.55 24.5403C228.24 23.0403 228.75 21.3602 229.06 19.5002C229.37 17.6402 229.53 15.7803 229.53 13.9203C228.74 15.2903 227.79 16.4103 226.68 17.2703C225.56 18.1303 224.19 18.5603 222.56 18.5603C220.14 18.5603 218.23 17.8202 216.83 16.3502C215.43 14.8802 214.73 12.8002 214.73 10.1202C214.73 8.84024 214.94 7.64028 215.36 6.54028C215.78 5.44028 216.38 4.48029 217.15 3.67029C217.92 2.86029 218.87 2.21023 219.98 1.74023C221.09 1.27023 222.33 1.03027 223.69 1.03027C224.89 1.03027 226.04 1.25019 227.14 1.69019C228.24 2.13019 229.21 2.8502 230.04 3.8302C230.87 4.8202 231.53 6.10029 232.02 7.67029C232.51 9.24029 232.75 11.1402 232.75 13.3702C232.75 15.7402 232.48 17.9703 231.93 20.0603C231.39 22.1503 230.6 23.9602 229.58 25.5002C228.56 27.0402 227.31 28.2703 225.83 29.1603C224.35 30.0603 222.66 30.5103 220.75 30.5103C220.12 30.5103 219.54 30.4602 219 30.3602C218.46 30.2602 218.02 30.1402 217.7 30.0002L217.71 30.0203ZM216.96 27.9003C216.96 27.9003 216.98 27.9402 216.98 27.9602L216.86 27.8302H216.94C216.94 27.8302 216.94 27.8803 216.96 27.8903V27.9003ZM229.38 8.99023C229.38 7.96023 229.24 7.02028 228.97 6.16028C228.7 5.30028 228.31 4.5702 227.81 3.9502C227.31 3.3302 226.7 2.86025 226 2.51025C225.29 2.17025 224.52 1.99023 223.68 1.99023C221.99 1.99023 220.62 2.7203 219.56 4.1803C218.5 5.6403 217.97 7.61022 217.97 10.1002C217.97 12.5902 218.45 14.5403 219.4 15.6803C220.35 16.8203 221.64 17.4003 223.27 17.4003C224.25 17.4003 225.12 17.1602 225.88 16.6902C226.64 16.2202 227.28 15.5903 227.8 14.8003C228.32 14.0103 228.71 13.1202 228.98 12.1202C229.25 11.1202 229.39 10.0702 229.39 8.99023H229.38Z" fill="white"/>
<path d="M239.65 30.0203C239.57 29.7103 239.46 29.3703 239.32 29.0103C239.18 28.6503 239.05 28.3002 238.91 27.9602C240.11 29.0502 241.44 29.5902 242.91 29.5902C244.38 29.5902 245.74 29.1302 246.82 28.1902C247.91 27.2602 248.8 26.0403 249.49 24.5403C250.18 23.0403 250.69 21.3602 251 19.5002C251.31 17.6402 251.47 15.7803 251.47 13.9203C250.68 15.2903 249.73 16.4103 248.62 17.2703C247.5 18.1303 246.13 18.5603 244.5 18.5603C242.08 18.5603 240.17 17.8202 238.77 16.3502C237.37 14.8802 236.67 12.8002 236.67 10.1202C236.67 8.84024 236.88 7.64028 237.3 6.54028C237.72 5.44028 238.32 4.48029 239.09 3.67029C239.86 2.86029 240.81 2.21023 241.92 1.74023C243.03 1.27023 244.27 1.03027 245.63 1.03027C246.83 1.03027 247.97 1.25019 249.08 1.69019C250.18 2.13019 251.15 2.8502 251.98 3.8302C252.81 4.8202 253.47 6.10029 253.96 7.67029C254.45 9.24029 254.69 11.1402 254.69 13.3702C254.69 15.7402 254.42 17.9703 253.87 20.0603C253.33 22.1503 252.54 23.9602 251.52 25.5002C250.5 27.0402 249.25 28.2703 247.77 29.1603C246.29 30.0603 244.6 30.5103 242.69 30.5103C242.06 30.5103 241.48 30.4602 240.94 30.3602C240.4 30.2602 239.96 30.1402 239.64 30.0002L239.65 30.0203ZM238.9 27.9003C238.9 27.9003 238.92 27.9402 238.92 27.9602L238.8 27.8302H238.88C238.88 27.8302 238.88 27.8803 238.9 27.8903V27.9003ZM251.32 8.99023C251.32 7.96023 251.18 7.02028 250.91 6.16028C250.64 5.30028 250.25 4.5702 249.75 3.9502C249.25 3.3302 248.64 2.86025 247.94 2.51025C247.23 2.17025 246.46 1.99023 245.62 1.99023C243.93 1.99023 242.56 2.7203 241.5 4.1803C240.44 5.6403 239.91 7.61022 239.91 10.1002C239.91 12.5902 240.39 14.5403 241.34 15.6803C242.29 16.8203 243.58 17.4003 245.21 17.4003C246.19 17.4003 247.06 17.1602 247.82 16.6902C248.58 16.2202 249.22 15.5903 249.74 14.8003C250.26 14.0103 250.65 13.1202 250.92 12.1202C251.19 11.1202 251.33 10.0702 251.33 8.99023H251.32Z" fill="white"/>
<path d="M261.59 30.0203C261.51 29.7103 261.4 29.3703 261.26 29.0103C261.12 28.6503 260.99 28.3002 260.85 27.9602C262.05 29.0502 263.38 29.5902 264.85 29.5902C266.32 29.5902 267.68 29.1302 268.76 28.1902C269.85 27.2602 270.74 26.0403 271.43 24.5403C272.12 23.0403 272.63 21.3602 272.94 19.5002C273.25 17.6402 273.41 15.7803 273.41 13.9203C272.62 15.2903 271.67 16.4103 270.56 17.2703C269.44 18.1303 268.07 18.5603 266.44 18.5603C264.02 18.5603 262.11 17.8202 260.71 16.3502C259.31 14.8802 258.61 12.8002 258.61 10.1202C258.61 8.84024 258.82 7.64028 259.24 6.54028C259.66 5.44028 260.26 4.48029 261.03 3.67029C261.8 2.86029 262.75 2.21023 263.86 1.74023C264.97 1.27023 266.21 1.03027 267.57 1.03027C268.77 1.03027 269.91 1.25019 271.02 1.69019C272.12 2.13019 273.09 2.8502 273.92 3.8302C274.75 4.8202 275.41 6.10029 275.9 7.67029C276.39 9.24029 276.63 11.1402 276.63 13.3702C276.63 15.7402 276.36 17.9703 275.81 20.0603C275.27 22.1503 274.48 23.9602 273.47 25.5002C272.45 27.0402 271.2 28.2703 269.72 29.1603C268.24 30.0603 266.55 30.5103 264.64 30.5103C264.01 30.5103 263.43 30.4602 262.89 30.3602C262.35 30.2602 261.91 30.1402 261.59 30.0002V30.0203ZM260.84 27.9003C260.84 27.9003 260.86 27.9402 260.86 27.9602L260.74 27.8302H260.82C260.82 27.8302 260.82 27.8803 260.84 27.8903V27.9003ZM273.26 8.99023C273.26 7.96023 273.12 7.02028 272.85 6.16028C272.58 5.30028 272.19 4.5702 271.69 3.9502C271.19 3.3302 270.58 2.86025 269.88 2.51025C269.17 2.17025 268.4 1.99023 267.56 1.99023C265.87 1.99023 264.5 2.7203 263.44 4.1803C262.38 5.6403 261.85 7.61022 261.85 10.1002C261.85 12.5902 262.33 14.5403 263.28 15.6803C264.23 16.8203 265.52 17.4003 267.15 17.4003C268.13 17.4003 269 17.1602 269.76 16.6902C270.52 16.2202 271.16 15.5903 271.68 14.8003C272.2 14.0103 272.59 13.1202 272.86 12.1202C273.13 11.1202 273.27 10.0702 273.27 8.99023H273.26Z" fill="white"/>
<path d="M98.2402 16.0699C98.2402 14.8399 98.3402 13.68 98.5402 12.58C98.7402 11.48 99.0703 10.52 99.5303 9.69995C99.9903 8.87995 100.59 8.21999 101.32 7.73999C102.05 7.25999 102.96 7.02002 104.05 7.02002C105.25 7.02002 106.23 7.25999 106.98 7.73999C107.73 8.21999 108.32 8.87995 108.75 9.69995C109.18 10.52 109.47 11.49 109.63 12.58C109.79 13.68 109.87 14.8399 109.87 16.0699C109.87 17.2999 109.76 18.41 109.53 19.51C109.3 20.61 108.95 21.57 108.48 22.41C108 23.24 107.4 23.91 106.66 24.4C105.93 24.89 105.06 25.14 104.06 25.14C102.86 25.14 101.88 24.9 101.13 24.42C100.38 23.94 99.7902 23.29 99.3602 22.47C98.9302 21.65 98.6402 20.7 98.4802 19.6C98.3202 18.5 98.2402 17.33 98.2402 16.09V16.0699ZM100.07 16.0601C100.07 17.2701 100.14 18.39 100.27 19.42C100.4 20.45 100.62 21.34 100.93 22.11C101.24 22.87 101.65 23.47 102.16 23.9C102.67 24.33 103.3 24.55 104.05 24.55C104.8 24.55 105.43 24.34 105.94 23.9C106.45 23.47 106.86 22.87 107.17 22.11C107.48 21.35 107.7 20.45 107.83 19.42C107.96 18.39 108.03 17.2701 108.03 16.0601C108.03 14.8501 107.96 13.75 107.83 12.71C107.7 11.67 107.48 10.78 107.17 10.02C106.86 9.26002 106.45 8.66999 105.94 8.23999C105.43 7.80999 104.8 7.58997 104.05 7.58997C103.3 7.58997 102.67 7.78995 102.16 8.19995C101.65 8.59995 101.24 9.18003 100.93 9.91003C100.62 10.65 100.4 11.5399 100.27 12.5699C100.14 13.6099 100.07 14.77 100.07 16.05V16.0601Z" fill="white"/>
<path d="M112.89 8.48999C113.24 8.13999 113.7 7.79999 114.25 7.48999C114.81 7.16999 115.54 7.02002 116.44 7.02002C117.09 7.02002 117.7 7.08999 118.27 7.23999C118.84 7.38999 119.33 7.61994 119.76 7.93994C120.19 8.25994 120.52 8.65001 120.77 9.14001C121.02 9.63001 121.15 10.2 121.15 10.86C121.15 11.49 121.04 12.05 120.82 12.55C120.6 13.04 120.33 13.47 119.99 13.83C119.66 14.19 119.28 14.48 118.88 14.71C118.47 14.94 118.08 15.11 117.72 15.21V15.61C118.14 15.65 118.6 15.73 119.1 15.86C119.6 15.99 120.06 16.21 120.49 16.5C120.92 16.8 121.27 17.2 121.55 17.71C121.83 18.22 121.98 18.85 121.98 19.6C121.98 20.35 121.83 21.12 121.52 21.8C121.21 22.48 120.78 23.06 120.23 23.55C119.68 24.04 119.01 24.43 118.23 24.71C117.45 24.99 116.58 25.13 115.63 25.13C114.86 25.13 114.17 25.04 113.55 24.85C112.93 24.67 112.41 24.48 111.97 24.28C112.04 24.1 112.09 23.88 112.13 23.61C112.17 23.34 112.2 23.0701 112.22 22.8101C112.39 23.0001 112.58 23.2 112.81 23.4C113.04 23.6 113.29 23.79 113.59 23.95C113.88 24.12 114.2 24.26 114.55 24.37C114.9 24.48 115.28 24.54 115.68 24.54C116.33 24.54 116.92 24.43 117.45 24.2C117.98 23.97 118.42 23.66 118.78 23.25C119.14 22.85 119.42 22.36 119.62 21.8C119.82 21.24 119.92 20.6101 119.92 19.9301C119.92 19.1701 119.83 18.53 119.64 18.01C119.46 17.48 119.2 17.06 118.88 16.73C118.55 16.4 118.17 16.17 117.72 16.03C117.27 15.89 116.77 15.8199 116.22 15.8199C116.04 15.8199 115.86 15.82 115.69 15.85C115.52 15.87 115.36 15.8901 115.21 15.9301C115.23 15.8401 115.24 15.7201 115.24 15.5601C115.24 15.3801 115.24 15.25 115.21 15.16C115.51 15.21 115.84 15.24 116.21 15.24C116.83 15.24 117.33 15.1 117.73 14.83C118.12 14.56 118.43 14.21 118.64 13.8C118.86 13.39 119 12.9299 119.08 12.4399C119.16 11.9499 119.19 11.47 119.19 11.02C119.19 10.42 119.11 9.90998 118.94 9.47998C118.77 9.04998 118.56 8.69003 118.29 8.41003C118.02 8.13003 117.72 7.92004 117.39 7.79004C117.06 7.66004 116.71 7.58997 116.36 7.58997C116.01 7.58997 115.68 7.65002 115.36 7.77002C115.04 7.89002 114.75 8.04999 114.5 8.23999C114.24 8.42999 114.02 8.66005 113.84 8.93005C113.66 9.19005 113.51 9.47 113.41 9.75L113.39 9.82996L112.91 8.48999H112.89ZM112.18 22.75C112.18 22.75 112.16 22.71 112.14 22.7L112.29 22.73C112.29 22.73 112.24 22.76 112.25 22.76C112.26 22.76 112.25 22.76 112.21 22.79V22.8199C112.21 22.8199 112.18 22.79 112.17 22.77L112.18 22.75Z" fill="white"/>
<path d="M98.2402 1.4502H121.98" stroke="white" stroke-width="0.38" stroke-miterlimit="10"/>
<path d="M98.2402 30.1104H121.98" stroke="white" stroke-width="0.38" stroke-miterlimit="10"/>
<path d="M35.23 7.49023H87.97" stroke="white" stroke-width="0.25" stroke-miterlimit="10"/>
</svg>
