<svg width="300" height="34" viewBox="0 0 300 34" fill="none" xmlns="http://www.w3.org/2000/svg">
<g style="mix-blend-mode:multiply">
<path d="M13.62 3.2102C13.35 3.7502 12.95 3.9302 12.08 3.9302H10.47V33.0902C10.47 33.3102 9.69999 33.9202 8.48999 33.9202H8.12V25.5002C6.61 26.1802 4.67001 27.0502 2.26001 28.0602C2.06001 28.5302 1.76001 28.7802 1.39001 28.8902L0.25 25.4302L2.28998 25.2502V3.9402H0.450012L0.25 3.1102H8.98999L10.56 0.950195L13.61 3.2202L13.62 3.2102ZM8.13 10.0902V3.9302H4.58002V10.0902H8.13ZM8.13 17.4302V10.8802H4.58002V17.4302H8.13ZM4.58002 18.2202V24.9902C5.68002 24.8502 6.89 24.7002 8.13 24.5202V18.2202H4.58002ZM32.07 13.6502C31.8 14.1502 31.4 14.3302 30.5 14.3302H25.68C25.85 17.0702 26.08 19.6602 26.52 21.9602C27.36 20.0902 27.99 18.1102 28.43 16.1702L31.81 17.2902C31.68 17.7202 31.37 17.9002 30.5 17.9002C29.76 20.2802 28.69 22.7202 27.25 24.9602C28.22 28.0902 29.46 29.6002 29.59 29.6002C29.86 29.6002 30.83 26.9002 31.3 24.9602L31.63 25.0302L31.03 30.6802C31.57 31.8002 31.83 32.5502 31.83 33.0602C31.83 33.7802 31.09 33.9202 30.76 33.9202C27.95 33.9202 25.87 28.2702 25.5 27.2602C23.32 29.8502 20.51 32.0802 16.9 33.5202L16.67 32.9802C20.19 31.0402 22.86 28.2602 24.87 25.0602C24.03 21.9302 23.6 18.3302 23.36 14.3302H10.91L10.71 13.5402H18.04C18.41 11.6002 18.74 8.93019 18.91 7.0202L22.46 7.7802C22.39 8.1802 22.02 8.3602 21.29 8.3902C20.69 9.9002 19.78 11.9202 18.81 13.5402H23.3C23.2 11.2002 23.13 8.7502 23.1 6.2002C22.83 6.3402 22.5 6.4202 21.96 6.4202H11.75L11.55 5.6302H15.84V0.450195L19.72 0.810196C19.65 1.3502 19.32 1.6002 18.28 1.7502V5.6402H19.65L20.96 3.6602L23.1 5.3902C23.07 3.7702 23.07 2.1502 23.07 0.490196L26.85 0.960197C26.82 1.4302 26.51 1.6102 25.58 1.7202C25.55 3.5902 25.51 5.46019 25.51 7.34019C25.51 9.46019 25.54 11.5502 25.64 13.5702H27.51L29.08 11.3402L32.06 13.6802L32.07 13.6502ZM19.21 28.0102H15.02V30.2802C15.02 30.2802 14.72 31.1102 12.78 31.1102V16.5302L15.16 17.6802H18.91L19.85 16.3502L22.56 18.4002C22.39 18.6502 21.96 18.9002 21.46 19.0102V28.7302C21.46 28.8002 20.76 29.4902 19.22 29.4902V28.0102H19.21ZM13.52 7.1302C15.43 8.6402 16.06 10.1202 16.06 11.2302C16.06 12.4502 15.32 13.2502 14.59 13.2502C14.19 13.2502 13.82 13.0302 13.52 12.5302C13.59 12.0602 13.62 11.5602 13.62 11.0202C13.62 9.7202 13.42 8.2802 13.08 7.3102L13.52 7.1302ZM19.21 18.4702H15.02V22.3602H19.21V18.4702ZM15.02 27.1802H19.21V23.1502H15.02V27.1802ZM26.57 3.3102C30.12 4.0302 31.26 5.6902 31.26 6.9802C31.26 7.9202 30.66 8.6402 29.92 8.6402C29.58 8.6402 29.25 8.5002 28.92 8.1402C28.79 6.5202 27.61 4.6502 26.34 3.6802L26.57 3.3202V3.3102Z" fill="#40220F"/>
<path d="M36.96 33.3003C50.08 24.0903 49.92 12.2803 49.95 1.26025L54.3 1.69025C54.27 2.16025 54 2.45025 52.93 2.55025C53.77 13.7103 57.01 24.1502 68.16 30.9902L68.09 31.4202C66.65 31.5602 65.71 32.3203 65.28 33.9403C56.78 27.5303 53.86 17.9202 52.76 8.24025H52.73C52.16 17.4202 49.95 26.9903 37.36 33.8703L36.96 33.2903V33.3003Z" fill="#40220F"/>
<path d="M101.04 1.16016L104.22 3.68015C103.99 4.00015 103.45 4.29016 102.78 4.44016V32.4802C102.78 32.5502 102.11 33.4902 100.14 33.4902V31.4702H77.84V32.7302C77.84 32.8002 77.64 33.9202 75.26 33.9202V1.49015L78.11 2.89015H99.8L101.04 1.16016ZM77.84 30.6802H100.14V3.68015H77.84V30.6802ZM92.1 17.6102C96.72 18.0102 98.09 19.3402 98.09 20.3502C98.09 20.8202 97.72 21.2502 97.25 21.3602L99.53 23.0201C99.26 23.5201 98.86 23.7001 97.99 23.7001H93.77V26.4002C93.77 28.3102 93.37 29.5002 90.39 29.7802C90.39 28.1202 89.85 27.8402 87.44 27.6202V27.0802H90.79C91.29 27.0802 91.43 26.9002 91.43 26.4302V23.6902H78.81L78.61 22.8602H91.43V20.8801L95.05 21.1301C95.02 21.6001 94.82 21.8102 93.78 21.9202V22.8602H95.69L96.79 21.3801C96.52 21.3401 96.22 21.2001 95.99 20.9501C95.76 20.5901 95.42 20.2302 94.99 19.8702C91.78 20.2302 87.32 20.6602 81.26 21.1702C81.06 21.6402 80.79 21.8202 80.46 21.8902L79.12 19.3302L87.72 19.2602V17.0602H83.47V17.4202C83.47 17.4202 83.07 18.2502 81.19 18.2502V9.14015L83.67 10.3302H87.72V8.17015H79.35L79.12 7.38015H87.72V4.68015L91.37 5.04015C91.34 5.51015 91 5.72016 90.1 5.87016V7.38015H94.99L96.33 5.54015L98.97 7.45015C98.7 7.99015 98.3 8.17015 97.43 8.17015H90.1V10.3302H94.08L95.02 9.03015L97.73 11.0502C97.56 11.2702 97.16 11.5201 96.66 11.5901V17.1301C96.66 17.2001 95.99 17.8902 94.35 17.8902V17.0602H90.1V19.1802L93.88 19.1102C93.34 18.7902 92.67 18.4602 91.9 18.2102L92.1 17.6002V17.6102ZM82.56 23.6902C85.51 24.0902 86.48 25.3502 86.48 26.3502C86.48 27.1102 85.94 27.7202 85.27 27.7202C84.97 27.7202 84.63 27.6102 84.33 27.2902C84.13 26.1402 83.26 24.7302 82.35 24.0502L82.55 23.6902H82.56ZM87.72 11.1301H83.47V13.2502H87.72V11.1301ZM83.47 16.2402H87.72V14.0802H83.47V16.2402ZM94.35 11.1301H90.1V13.2502H94.35V11.1301ZM90.1 16.2402H94.35V14.0802H90.1V16.2402Z" fill="#40220F"/>
<path d="M131.74 8.9699C132.14 12.2099 132.81 15.1299 133.78 17.6799C135.45 15.8799 137.53 13.1799 138.4 11.8099L141.08 14.3699C140.98 14.4799 140.81 14.5499 140.61 14.5499C140.44 14.5499 140.28 14.5099 140.07 14.4399C138.9 15.4099 136.32 17.1799 134.04 18.3599C135.75 22.5699 138.26 25.8099 141.47 28.0399L141.37 28.3999C140.23 28.3999 139.26 29.1599 138.69 30.4499C134 25.8799 131.89 19.1099 131.09 9.3199C130.02 10.7199 128.65 11.9799 127.11 13.0599C131.09 16.5499 132.63 21.6599 132.63 25.8699C132.63 28.7899 131.93 31.2699 130.76 32.5299C129.99 33.4699 128.68 33.9299 126.88 33.9299C126.81 31.7299 125.78 31.4499 123.4 31.1199V30.5799C124.81 30.5799 126.75 30.6199 127.58 30.6199C128.05 30.6199 128.45 30.5499 128.69 30.2599C129.49 29.2899 129.96 27.2399 129.96 24.8199C129.96 24.4599 129.96 24.0599 129.93 23.6999C127.05 26.3999 122.87 29.1699 118.65 30.5799L118.42 30.0799C122.5 27.9199 126.76 24.0299 129.47 20.2499C129.27 19.4599 129.07 18.6699 128.77 17.8699C126.76 19.5299 123.95 21.2199 121.37 22.2999C121.17 25.1799 119.86 26.8399 116.68 27.1199C116.68 25.3899 116.28 24.7799 114.5 24.5599V24.0199H117.04C118.61 24.0199 118.65 22.0799 118.65 21.1399C118.65 18.3999 117.78 15.6699 115.47 13.0099C116.14 10.7099 117.24 6.3499 117.91 3.5099H113.76V32.9899C113.76 33.2099 112.92 33.9299 111.68 33.9299H111.21V1.3899L114.19 2.7199H117.71L119.32 0.919899L122.17 4.0899C121.9 4.4099 121.43 4.4899 120.66 4.4899C119.62 6.6899 117.55 10.7199 116.17 12.9099C121.09 16.7299 121.39 19.7499 121.39 21.5799C123.63 19.9999 126.04 17.4799 127.52 15.1699C127.22 14.5899 126.85 14.0199 126.48 13.5099C124.71 14.6599 122.73 15.6699 120.62 16.4599L120.29 15.8799C123.37 14.0799 126.05 11.5599 127.86 8.9299H120.26L120.06 8.1399H131.38C132.25 5.8399 133.39 2.6299 134.13 0.399902L138.31 2.0599C138.18 2.3799 137.94 2.5299 137.47 2.5299C137.34 2.5299 137.17 2.5299 137 2.4899C135.76 4.0699 133.85 6.3399 132.18 8.1399H136.63L138.24 5.7999L141.29 8.2499C141.02 8.7499 140.62 8.9299 139.68 8.9299H131.75L131.74 8.9699ZM123.4 0.799904C126.88 2.2399 128.02 4.2599 128.02 5.7699C128.02 6.9899 127.25 7.8899 126.41 7.8899C125.97 7.8899 125.54 7.6699 125.17 7.2099C125.2 5.1899 124.27 2.5699 123.06 1.0199L123.4 0.799904Z" fill="#40220F"/>
<path d="M186.91 11.3401L189.89 13.6101C189.62 14.1501 189.22 14.3301 188.32 14.3301H171.15V14.2901C170.92 14.3301 170.68 14.3601 170.35 14.3601H166.2V17.8901C169.95 19.5801 171.12 21.6701 171.12 23.1101C171.12 24.1201 170.52 24.8401 169.81 24.8401C169.48 24.8401 169.07 24.6601 168.74 24.2601C168.51 22.4601 167.37 20.1201 166.2 18.5701V33.0001C166.2 33.0701 165.87 33.9401 163.59 33.9401V21.1301C162.38 23.8701 160.84 26.3501 158.97 28.5101L158.47 28.0401C160.61 24.2201 162.02 19.1901 162.86 14.3601H158.81L158.61 13.5701H163.6V0.430138L167.45 0.790138C167.42 1.29014 167.11 1.51014 166.21 1.65014V13.5601H167.52L169.03 11.4001L171.74 13.5201H178.7V9.96014H172.84L172.64 9.17014H178.7V5.75014H171.94L171.74 4.96014H178.7V0.390137L182.82 0.790138C182.75 1.37014 182.42 1.58014 181.28 1.76014V4.96014H184.73L186.27 2.73014L189.22 5.03014C188.95 5.57014 188.55 5.75014 187.68 5.75014H181.29V9.17014H183.7L185.17 7.08014L188.02 9.28014C187.75 9.78014 187.35 9.96014 186.48 9.96014H181.29V13.5201H185.37L186.94 11.3201L186.91 11.3401ZM159.22 2.99014C161.53 5.19014 162.33 7.31014 162.33 8.82014C162.33 10.1901 161.66 11.0501 160.96 11.0501C160.63 11.0501 160.26 10.8701 159.96 10.4001C160.13 8.20014 159.52 5.11014 158.79 3.17014L159.23 2.99014H159.22ZM172.31 3.75014C172.18 4.22014 171.91 4.43014 171.1 4.43014C170.06 6.73014 168.76 9.51013 167.62 11.3401L167.05 11.1201C167.52 8.96014 168.12 5.54014 168.59 2.66014L172.31 3.74014V3.75014ZM184.09 17.2801L185.26 15.6601L188.44 18.1401C188.24 18.4301 187.7 18.7501 187.03 18.8601V30.1601C187.03 32.0701 186.73 33.4401 183.51 33.8301C183.51 31.7401 182.71 31.3101 180.76 31.0601V30.5901H183.87C184.27 30.5901 184.41 30.4801 184.41 30.0901V26.6701H175.4V32.9001C175.4 32.9001 175.13 33.9101 172.92 33.9101V16.0201L175.6 17.2801H184.07H184.09ZM184.43 18.1101H175.42V21.5301H184.43V18.1101ZM175.42 25.8901H184.43V22.3301H175.42V25.8901Z" fill="#40220F"/>
<path d="M222.8 27.1801L226.42 29.9501C226.15 30.4201 225.75 30.6701 224.78 30.6701H195.39L195.16 29.8401H209.22V6.5501H197.67L197.44 5.7601H218.7L220.64 3.1001L224.19 5.8401C223.92 6.3801 223.52 6.5601 222.58 6.5601H212.07V29.8501H220.91L222.82 27.1901L222.8 27.1801Z" fill="#40220F"/>
<path d="M259.03 27.3304L262.65 30.0704C262.42 30.5704 262.01 30.7904 261.04 30.7904H237.44V32.9504C237.44 33.1704 236.54 33.9604 235.13 33.9604H234.66V2.10037L237.87 3.47038H255.88L257.82 0.880371L261.4 3.58038C261.13 4.08038 260.73 4.30038 259.79 4.30038H237.43V10.9604H253.03L254.34 9.12038L257.89 11.8904C257.62 12.2104 257.02 12.5704 256.22 12.7204V24.3804C256.22 24.4504 255.38 25.2104 253.44 25.2104V22.2204H237.44V29.9604H257.13L259.04 27.3304H259.03ZM253.44 11.7804H237.44V21.4304H253.44V11.7804Z" fill="#40220F"/>
<path d="M285.75 21.9599L288.43 23.9799C288.26 24.2299 287.79 24.5199 287.26 24.5899V30.9599C287.26 31.0699 286.59 31.7199 285.12 31.7199V29.8099H282.68V31.2499C282.68 31.2499 282.38 32.0099 280.64 32.0099V28.1599C278.16 29.1299 274.82 30.3899 270.3 31.9399C270.13 32.3699 269.8 32.6599 269.46 32.7299L268.09 29.2399C269.23 29.1299 271.1 28.8799 273.38 28.5599V17.3999H268.43L268.23 16.6099H273.39V11.3499H269.87L269.77 10.9499C269.27 11.4899 268.77 11.9899 268.26 12.4599L267.82 12.1399C270.03 9.1899 271.97 4.0799 272.74 0.439903L276.79 0.839897C276.72 1.2699 276.39 1.4899 275.55 1.5999C279.8 3.3999 281.11 5.4499 281.11 6.8499C281.11 7.8199 280.47 8.4699 279.74 8.4699C279.41 8.4699 279.04 8.2899 278.7 7.9699C278.3 6.3099 277.13 3.9699 275.39 2.0299C274.22 4.7699 272.34 8.0099 270.13 10.5599H276.32L277.73 8.5399L280.48 10.6599L280.35 10.8799H295.72L297.09 9.3699L299.57 11.9599C299.34 12.2499 298.93 12.3199 298.33 12.3599C297.66 13.0099 296.45 13.9399 295.62 14.4499L295.15 14.1999C295.38 13.6199 295.69 12.5399 295.92 11.6799H280.02L279.89 11.2099C279.66 11.3199 279.35 11.3499 278.95 11.3499H275.8V16.6099H277.07L278.58 14.4899L281.33 16.6899C281.1 17.2299 280.69 17.4099 279.82 17.4099H275.8V28.2399C277.34 27.9899 278.98 27.7399 280.65 27.4499V22.1899L282.86 23.2699H284.84L285.78 21.9699L285.75 21.9599ZM269.35 19.2999C271.49 21.3199 272.2 23.2599 272.2 24.6599C272.2 26.0599 271.56 26.8899 270.86 26.8899C270.56 26.8899 270.22 26.7099 269.92 26.2799C269.95 25.9599 269.99 25.5999 269.99 25.2399C269.99 23.2999 269.49 20.9899 268.92 19.4799L269.35 19.2999ZM295.36 20.1299L296.77 18.3999L299.55 20.2699C299.28 20.7399 298.88 20.9499 297.98 20.9499H281.01L280.88 20.3699C280.71 20.4799 280.48 20.5499 280.11 20.5499C279.31 22.6699 278.27 25.1599 277.23 26.7399L276.66 26.5199C277.06 24.6099 277.53 21.5899 277.87 18.9999L281.22 19.8599C281.19 19.9699 281.19 20.0399 281.12 20.1099H295.38L295.36 20.1299ZM280.7 5.0799L280.5 4.2899H287.53V0.399902L291.41 0.759903C291.38 1.2599 291.07 1.4799 290.07 1.6599V4.2899H295.16L296.6 2.0899L299.41 4.3599C299.14 4.8999 298.77 5.0799 297.87 5.0799H290.07V7.9599H293.65L295.09 5.8399L297.8 8.0399C297.53 8.5799 297.13 8.7599 296.29 8.7599H281.69L281.49 7.9699H287.52V5.0899H280.69L280.7 5.0799ZM281.17 17.2099H287.53V14.5499H282.41L282.21 13.7599H291.15L292.46 12.2099L295.04 13.8699C294.77 14.3699 294.4 14.5499 293.53 14.5499H290.08V17.2099H293.53L294.94 15.4099L297.65 17.3199C297.38 17.8199 297.01 17.9999 296.14 17.9999H281.38L281.18 17.2099H281.17ZM282.68 28.9799H285.12V24.0499H282.68V28.9799ZM296.1 24.4799L297.2 22.9299L299.41 24.5899C299.14 25.0899 298.74 25.2699 297.94 25.2699H295.96V30.6699C295.96 32.5399 295.56 33.7299 292.58 33.9799C292.58 32.2899 291.61 32.0399 289.73 31.8599V31.3599H292.91C293.41 31.3599 293.51 31.1799 293.51 30.7499V25.2799H288.32L288.12 24.4899H293.51V21.1399L297.26 21.4299C297.23 21.8599 296.99 22.1099 295.95 22.2599V24.4899H296.08L296.1 24.4799ZM288.57 26.0299C291.25 26.5299 292.12 27.6499 292.12 28.5899C292.12 29.3799 291.48 30.0299 290.78 30.0299C290.45 30.0299 290.08 29.8899 289.74 29.4899C289.74 28.3699 289.14 27.0399 288.33 26.3599L288.56 26.0399L288.57 26.0299Z" fill="#40220F"/>
</g>
</svg>
