<?xml version="1.0" encoding="utf-8"?>
<!-- Generator: Adobe Illustrator 25.2.3, SVG Export Plug-In . SVG Version: 6.00 Build 0)  -->
<svg version="1.1" id="圖層_1" xmlns="http://www.w3.org/2000/svg" xmlns:xlink="http://www.w3.org/1999/xlink" x="0px" y="0px"
	 viewBox="0 0 380 81" style="enable-background:new 0 0 380 81;" xml:space="preserve">
<style type="text/css">
	.st0{fill:#C9A063;}
	.st1{opacity:0.6;}
	.st2{fill:#FFFFFF;}
</style>
<path class="st0" d="M8.9,2.3v12.9h13v2h-13v15.9H4v-28c0-1.9-1.2-3.6-4-4.3V0.6h24.4v1.7H8.9z"/>
<path class="st0" d="M56.8,0.6v22c0,2-0.4,11.1-12.6,11.1c0,0-12.7,0.6-12.7-11.1V5.1c0-1.9-1.2-3.5-3.9-4.3V0.6h8.8v22
	c0,9.8,8.3,9.2,8.3,9.2c2.6,0,10.2-1,10.2-9.2v-22H56.8z"/>
<path class="st0" d="M86.3,2.6H75.6v30.5h-4.9V2.6H59.9v-2h26.4V2.6z"/>
<path class="st0" d="M118.7,0.6v22c0,2-0.4,11.1-12.6,11.1c0,0-12.7,0.6-12.7-11.1V5.1c0-1.9-1.2-3.5-3.9-4.3V0.6h8.8v22
	c0,9.8,8.3,9.2,8.3,9.2c2.6,0,10.2-1,10.2-9.2v-22H118.7z"/>
<path class="st0" d="M150.1,33.1h-5.5l-10.3-14.6c-1.3,0-2.6,0-3.6,0v14.6h-4.9v-28c0-2-1.5-4-3.9-4.3V0.6h8.8
	c5.1,0,15.4-0.1,15.4,9.1c0,5.2-3.2,7.4-6.7,8.3L150.1,33.1z M139.2,14.9c0.3-0.4,0.6-0.8,0.8-1.2c0.3-0.5,0.4-1.1,0.6-1.7
	c0.1-0.7,0.2-1.5,0.2-2.3c-0.2-7.1-5.7-7.5-6.7-7.5h-3.5v14.6h3.5c0.6,0,1.2,0,1.7-0.1c0.8-0.1,1.7-0.4,2.4-0.8
	C138.6,15.5,138.9,15.2,139.2,14.9z"/>
<path class="st0" d="M175.5,31.4v1.7H155v-28c0-1.9-1.2-3.5-3.9-4.3V0.6h24.4v1.7H160v12.9h13v2h-13v14.2H175.5z"/>
<path class="st0" d="M198.6,0.6v32.5h-4.4v-28c0-1.9-1.2-3.5-3.9-4.3V0.6H198.6z"/>
<path class="st0" d="M224.6,24.8c0,3.4-2.5,9-10.2,9c-6.1,0-10-2.6-10.9-9.3h1.5c1,6.1,6,7.4,9,7.4c5.2,0,6.4-3.6,6.4-5.2
	c0-3.4-2.8-5.3-8.1-8c-3.4-1.7-9.1-4.6-9.1-10.1c0-7.1,7-8.5,9.5-8.5c6.2,0,8.8,3.3,9.7,7.9h-1.6c-0.7-2.4-2.4-6.1-8-6.1
	c-2.8,0-5.7,2.2-5.7,5c0,3.3,3.9,5.4,8,7.5C222.7,18.1,224.6,20.9,224.6,24.8z"/>
<path class="st0" d="M34,80.1v0.2h-6.3c-1.4-0.1-2.6-1.2-2.6-2.7v-13H8.9v15.7H4v-28c0-1.9-1.2-3.5-3-4H0.9L0,48.1v-0.2h6.2
	c0.8,0,1.4,0.3,1.9,0.8c0.4,0.5,0.8,1.2,0.8,1.9V63h16.3V47.8h4.9v28c0,1.9,1.2,3.5,3.1,4.1h0.1L34,80.1z"/>
<path class="st0" d="M59.5,78.6v1.7H39v-28c0-1.9-1.2-3.5-3.9-4.3v-0.2h24.4v1.7H43.9v12.9h13v2h-13v14.2H59.5z"/>
<path class="st0" d="M90.9,80.3h-5.5L75,65.7c-1.3,0-2.6,0-3.6,0v14.6h-4.9V52.4c0-2-1.5-4-3.9-4.3v-0.2h8.8
	c5.1,0,15.4-0.1,15.4,9.1c0,5.2-3.2,7.4-6.7,8.3L90.9,80.3z M80,62.1c0.3-0.4,0.6-0.8,0.8-1.2c0.3-0.5,0.4-1.1,0.6-1.7
	c0.1-0.7,0.2-1.5,0.2-2.3c-0.2-7.1-5.7-7.5-6.7-7.5h-3.5V64h3.5c0.6,0,1.2,0,1.7-0.1c0.8-0.1,1.7-0.4,2.4-0.8
	C79.4,62.7,79.7,62.5,80,62.1z"/>
<path class="st0" d="M116.3,78.6v1.7H95.8v-28c0-1.9-1.2-3.5-3.9-4.3v-0.2h24.4v1.7h-15.6v12.9h13v2h-13v14.2H116.3z"/>
<g class="st1">
	<path class="st2" d="M141.9,56.5c0,0.5-0.2,0.9-0.7,1.2c-0.4,0.2-0.8,0.3-1.4,0.3c-0.1,0-0.4,0-0.9,0v-5.2h0.9
		c0.5,0,0.9,0.1,1.2,0.2c0.4,0.2,0.6,0.5,0.6,0.9c0,0.3-0.1,0.5-0.3,0.8c-0.2,0.2-0.4,0.4-0.7,0.5c0.4,0.1,0.7,0.2,0.9,0.4
		C141.8,55.8,141.9,56.1,141.9,56.5z M141.4,56.5c0-0.4-0.1-0.7-0.4-0.9c-0.2-0.2-0.5-0.3-0.9-0.3h-0.3v-0.2h0.2
		c0.4,0,0.6-0.1,0.8-0.4c0.1-0.2,0.2-0.5,0.2-0.7c0-0.7-0.5-1.1-1.4-1.1h-0.3v4.9h0.3C140.8,57.8,141.4,57.3,141.4,56.5z"/>
	<path class="st2" d="M145.8,55.9h-2v-0.2h1.5c0-0.6-0.3-0.9-0.8-0.9c-0.3,0-0.6,0.1-0.8,0.4s-0.3,0.6-0.3,1.1s0.1,0.8,0.3,1.1
		s0.5,0.4,0.8,0.4c0.4,0,0.7-0.2,1-0.5l0.2,0.2c-0.3,0.3-0.7,0.5-1.1,0.5c-0.5,0-0.8-0.2-1.2-0.5c-0.3-0.3-0.5-0.7-0.5-1.2
		s0.2-0.9,0.5-1.2c0.3-0.3,0.7-0.5,1.1-0.5c0.3,0,0.6,0.1,0.9,0.4C145.6,55.2,145.8,55.5,145.8,55.9z"/>
	<path class="st2" d="M148.9,55.8v2.1h-0.5v-0.3c-0.2,0.2-0.5,0.3-0.8,0.3c-0.3,0-0.6-0.1-0.8-0.3s-0.4-0.4-0.4-0.8
		c0-0.3,0.1-0.6,0.4-0.8c0.2-0.2,0.5-0.3,0.7-0.3c0.1,0,0.2,0,0.2,0c0.2,0,0.3,0.1,0.4,0.1L148,56c-0.2-0.1-0.3-0.2-0.5-0.2
		s-0.4,0.1-0.5,0.2c-0.1,0.2-0.2,0.4-0.2,0.7c0,0.3,0.1,0.5,0.2,0.6c0.1,0.2,0.3,0.2,0.5,0.2c0.3,0,0.6-0.2,0.8-0.5v-1.5
		c0-0.7-0.2-1-0.7-1c-0.3,0-0.5,0.1-0.8,0.3l-0.1-0.2c0.2-0.2,0.5-0.2,0.9-0.2C148.5,54.6,148.9,55,148.9,55.8z"/>
	<path class="st2" d="M152.7,57.9h-0.5v-0.6c-0.2,0.4-0.6,0.6-1,0.6c-0.8,0-1.2-0.4-1.2-1.2v-2.2h0.5v2.2c0,0.7,0.2,1,0.7,1
		c0.3,0,0.5-0.2,0.7-0.5c0.1-0.2,0.2-0.4,0.2-0.6v-2.1h0.5L152.7,57.9L152.7,57.9z"/>
	<path class="st2" d="M155.1,54.8h-0.6v2c0,0.3,0,0.6,0.1,0.7c0.1,0.1,0.2,0.2,0.5,0.2v0.2c-0.7,0-1.1-0.4-1.1-1.1v-2h-0.3v-0.2h0.3
		v-0.4h0.5v0.4h0.6V54.8z"/>
	<path class="st2" d="M158.8,54.6l-1.8,4.5h-0.2l0.5-1.3l-1.4-3.2h0.5l1.1,2.6l1-2.6H158.8z"/>
	<path class="st2" d="M161.7,57.9h-0.5v-5h0.5V57.9z"/>
	<path class="st2" d="M163.4,53.2c0,0.1,0,0.2-0.1,0.2c-0.1,0-0.1,0.1-0.2,0.1c-0.1,0-0.2,0-0.2-0.1c0-0.1-0.1-0.1-0.1-0.2
		c0-0.1,0-0.2,0.1-0.2c0.1-0.1,0.1-0.1,0.2-0.1c0.1,0,0.2,0,0.2,0.1C163.4,53.1,163.4,53.1,163.4,53.2z M163.3,57.9h-0.5v-3.2h0.5
		V57.9z"/>
	<path class="st2" d="M167.2,55.9h-2v-0.2h1.5c0-0.6-0.3-0.9-0.8-0.9c-0.3,0-0.6,0.1-0.8,0.4c-0.2,0.3-0.3,0.6-0.3,1.1
		s0.1,0.8,0.3,1.1c0.2,0.3,0.5,0.4,0.8,0.4c0.4,0,0.7-0.2,1-0.5l0.2,0.2c-0.3,0.3-0.7,0.5-1.1,0.5c-0.5,0-0.8-0.2-1.2-0.5
		c-0.3-0.3-0.5-0.7-0.5-1.2s0.2-0.9,0.5-1.2c0.3-0.3,0.7-0.5,1.1-0.5c0.3,0,0.6,0.1,0.9,0.4C167.1,55.2,167.2,55.5,167.2,55.9z"/>
	<path class="st2" d="M169.9,57.1c0,0.3-0.1,0.5-0.3,0.6c-0.2,0.2-0.4,0.2-0.7,0.2c-0.4,0-0.7-0.1-0.9-0.4l0.1-0.2
		c0.2,0.3,0.5,0.4,0.8,0.4c0.2,0,0.3-0.1,0.4-0.2c0.1-0.1,0.2-0.3,0.2-0.4c0-0.2-0.1-0.4-0.3-0.5c-0.1-0.1-0.3-0.2-0.6-0.4
		c-0.4-0.2-0.5-0.5-0.5-0.9c0-0.2,0.1-0.4,0.3-0.6c0.2-0.1,0.4-0.2,0.6-0.2c0.1,0,0.3,0,0.5,0.1c0.2,0.1,0.3,0.2,0.3,0.3l-0.2,0.2
		c-0.2-0.3-0.4-0.4-0.7-0.4c-0.3,0-0.5,0.1-0.5,0.4c0,0.2,0.1,0.4,0.3,0.6c0.4,0.2,0.6,0.4,0.7,0.5C169.8,56.5,170,56.8,169.9,57.1z
		"/>
	<path class="st2" d="M173,53.2c0,0.1,0,0.2-0.1,0.2c-0.1,0-0.1,0.1-0.2,0.1c-0.1,0-0.2,0-0.2-0.1c0-0.1-0.1-0.1-0.1-0.2
		c0-0.1,0-0.2,0.1-0.2c0.1-0.1,0.1-0.1,0.2-0.1c0.1,0,0.2,0,0.2,0.1C172.9,53.1,173,53.1,173,53.2z M172.9,57.9h-0.5v-3.2h0.5V57.9z
		"/>
	<path class="st2" d="M176.6,57.9h-0.5v-2.2c0-0.7-0.2-1-0.7-1s-0.8,0.3-1,0.9v2.3H174v-3.2h0.5v0.4c0.3-0.4,0.6-0.5,1-0.5
		s0.7,0.1,0.8,0.2c0.2,0.2,0.3,0.5,0.3,0.9V57.9z"/>
	<path class="st2" d="M180.5,54.8h-0.6v2c0,0.3,0,0.6,0.1,0.7c0.1,0.1,0.2,0.2,0.5,0.2v0.2c-0.7,0-1.1-0.4-1.1-1.1v-2h-0.3v-0.2h0.3
		v-0.4h0.5v0.4h0.6V54.8z"/>
	<path class="st2" d="M184,57.9h-0.5v-2.2c0-0.7-0.2-1-0.7-1s-0.8,0.3-1,0.9v2.3h-0.5v-5h0.5v2.2c0.3-0.4,0.6-0.5,1-0.5
		c0.4,0,0.7,0.1,0.8,0.2c0.2,0.2,0.3,0.5,0.3,0.9v2.2H184z"/>
	<path class="st2" d="M188,55.9h-2v-0.2h1.5c0-0.6-0.3-0.9-0.8-0.9c-0.3,0-0.6,0.1-0.8,0.4c-0.2,0.3-0.3,0.6-0.3,1.1
		s0.1,0.8,0.3,1.1c0.2,0.3,0.5,0.4,0.8,0.4c0.4,0,0.7-0.2,1-0.5l0.2,0.2c-0.3,0.3-0.7,0.5-1.1,0.5c-0.5,0-0.8-0.2-1.2-0.5
		c-0.3-0.3-0.5-0.7-0.5-1.2s0.2-0.9,0.5-1.2c0.3-0.3,0.7-0.5,1.1-0.5c0.3,0,0.6,0.1,0.9,0.4C187.8,55.2,188,55.5,188,55.9z"/>
	<path class="st2" d="M193,57.5c-0.3,0.3-0.7,0.4-1.1,0.4c-0.5,0-0.8-0.2-1.2-0.5c-0.3-0.3-0.5-0.7-0.5-1.2s0.2-0.9,0.5-1.2
		s0.7-0.5,1.2-0.5c0.4,0,0.7,0.1,1,0.3l-0.1,0.2c-0.2-0.2-0.5-0.4-0.9-0.4c-0.3,0-0.6,0.2-0.8,0.5c-0.2,0.3-0.3,0.6-0.3,1
		c0,0.4,0.1,0.8,0.3,1c0.2,0.3,0.5,0.5,0.8,0.5c0.4,0,0.7-0.2,1-0.5L193,57.5z"/>
	<path class="st2" d="M196.8,56.3c0,0.5-0.2,0.9-0.5,1.2s-0.7,0.5-1.2,0.5s-0.8-0.2-1.2-0.5c-0.3-0.3-0.5-0.7-0.5-1.2
		s0.2-0.9,0.5-1.2c0.3-0.3,0.7-0.5,1.2-0.5s0.8,0.2,1.2,0.5C196.6,55.4,196.8,55.8,196.8,56.3z M196.3,56.3c0-0.4-0.1-0.8-0.3-1.1
		s-0.5-0.4-0.8-0.4s-0.6,0.1-0.8,0.4c-0.2,0.3-0.3,0.6-0.3,1.1c0,0.4,0.1,0.8,0.3,1.1c0.2,0.3,0.5,0.4,0.8,0.4s0.6-0.1,0.8-0.4
		C196.2,57,196.3,56.7,196.3,56.3z"/>
	<path class="st2" d="M202.2,57.9h-0.5v-2.2c0-0.3,0-0.5-0.1-0.7c-0.1-0.1-0.2-0.2-0.5-0.2c-0.4,0-0.6,0.3-0.9,0.8v0.1v2.2h-0.5
		v-2.2c0-0.3,0-0.5-0.1-0.7c-0.1-0.2-0.3-0.2-0.5-0.2c-0.2,0-0.3,0.1-0.5,0.2c-0.2,0.2-0.3,0.4-0.4,0.6v2.3h-0.5v-3.2h0.5v0.4
		c0.3-0.3,0.6-0.5,0.9-0.5c0.5,0,0.8,0.2,1,0.5c0.3-0.4,0.6-0.5,1-0.5c0.7,0,1.1,0.4,1.1,1.1V57.9z"/>
	<path class="st2" d="M206.1,56.3c0,0.5-0.1,0.9-0.4,1.2s-0.6,0.5-1.1,0.5c-0.3,0-0.6-0.1-0.8-0.4v0.3h-0.5v-5h0.5v4.2
		c0.1,0.2,0.2,0.4,0.3,0.5c0.1,0.1,0.3,0.2,0.5,0.2c0.3,0,0.5-0.1,0.7-0.4c0.2-0.3,0.3-0.6,0.3-1.1c0-0.4-0.1-0.8-0.3-1.1
		c-0.2-0.3-0.4-0.4-0.7-0.4c-0.2,0-0.3,0.1-0.4,0.2l-0.1-0.2c0.2-0.1,0.4-0.1,0.6-0.1c0.4,0,0.8,0.2,1.1,0.5
		C206,55.4,206.1,55.8,206.1,56.3z"/>
	<path class="st2" d="M207.7,53.2c0,0.1,0,0.2-0.1,0.2c-0.1,0-0.1,0.1-0.2,0.1c-0.1,0-0.2,0-0.2-0.1c0-0.1-0.1-0.1-0.1-0.2
		c0-0.1,0-0.2,0.1-0.2c0.1-0.1,0.1-0.1,0.2-0.1c0.1,0,0.2,0,0.2,0.1C207.7,53.1,207.7,53.1,207.7,53.2z M207.6,57.9h-0.5v-3.2h0.5
		V57.9z"/>
	<path class="st2" d="M211.4,57.9h-0.5v-2.2c0-0.7-0.2-1-0.7-1s-0.8,0.3-1,0.9v2.3h-0.5v-3.2h0.5v0.4c0.3-0.4,0.6-0.5,1-0.5
		c0.4,0,0.7,0.1,0.8,0.2c0.2,0.2,0.3,0.5,0.3,0.9L211.4,57.9L211.4,57.9z"/>
	<path class="st2" d="M214.8,55.8v2.1h-0.5v-0.3c-0.2,0.2-0.5,0.3-0.8,0.3s-0.6-0.1-0.8-0.3s-0.4-0.4-0.4-0.8c0-0.3,0.1-0.6,0.4-0.8
		c0.2-0.2,0.5-0.3,0.7-0.3c0.1,0,0.2,0,0.2,0c0.2,0,0.3,0.1,0.4,0.1l-0.1,0.2c-0.2-0.1-0.3-0.2-0.5-0.2c-0.2,0-0.4,0.1-0.5,0.2
		c-0.1,0.2-0.2,0.4-0.2,0.7c0,0.3,0.1,0.5,0.2,0.6c0.1,0.2,0.3,0.2,0.5,0.2c0.3,0,0.6-0.2,0.8-0.5v-1.5c0-0.7-0.2-1-0.7-1
		c-0.3,0-0.5,0.1-0.8,0.3l-0.1-0.2c0.2-0.2,0.5-0.2,0.9-0.2C214.4,54.6,214.8,55,214.8,55.8z"/>
	<path class="st2" d="M217.2,54.8h-0.6v2c0,0.3,0,0.6,0.1,0.7c0.1,0.1,0.2,0.2,0.5,0.2v0.2c-0.7,0-1.1-0.4-1.1-1.1v-2h-0.3v-0.2h0.3
		v-0.4h0.5v0.4h0.6V54.8z"/>
	<path class="st2" d="M218.7,53.2c0,0.1,0,0.2-0.1,0.2c-0.1,0-0.1,0.1-0.2,0.1c-0.1,0-0.2,0-0.2-0.1c0-0.1-0.1-0.1-0.1-0.2
		c0-0.1,0-0.2,0.1-0.2c0.1-0.1,0.1-0.1,0.2-0.1c0.1,0,0.2,0,0.2,0.1C218.7,53.1,218.7,53.1,218.7,53.2z M218.6,57.9h-0.5v-3.2h0.5
		V57.9z"/>
	<path class="st2" d="M223,56.3c0,0.5-0.2,0.9-0.5,1.2s-0.7,0.5-1.2,0.5s-0.8-0.2-1.2-0.5c-0.3-0.3-0.5-0.7-0.5-1.2s0.2-0.9,0.5-1.2
		c0.3-0.3,0.7-0.5,1.2-0.5s0.8,0.2,1.2,0.5C222.8,55.4,223,55.8,223,56.3z M222.5,56.3c0-0.4-0.1-0.8-0.3-1.1s-0.5-0.4-0.8-0.4
		c-0.3,0-0.6,0.1-0.8,0.4c-0.2,0.3-0.3,0.6-0.3,1.1c0,0.4,0.1,0.8,0.3,1.1c0.2,0.3,0.5,0.4,0.8,0.4c0.3,0,0.6-0.1,0.8-0.4
		C222.3,57,222.5,56.7,222.5,56.3z"/>
	<path class="st2" d="M226.6,57.9h-0.5v-2.2c0-0.7-0.2-1-0.7-1s-0.8,0.3-1,0.9v2.3H224v-3.2h0.5v0.4c0.3-0.4,0.6-0.5,1-0.5
		s0.7,0.1,0.8,0.2c0.2,0.2,0.3,0.5,0.3,0.9V57.9z"/>
	<path class="st2" d="M232.4,56.3c0,0.5-0.2,0.9-0.5,1.2c-0.3,0.3-0.7,0.5-1.2,0.5s-0.8-0.2-1.2-0.5c-0.3-0.3-0.5-0.7-0.5-1.2
		s0.2-0.9,0.5-1.2c0.3-0.3,0.7-0.5,1.2-0.5s0.8,0.2,1.2,0.5C232.2,55.4,232.4,55.8,232.4,56.3z M231.9,56.3c0-0.4-0.1-0.8-0.3-1.1
		c-0.2-0.3-0.5-0.4-0.8-0.4s-0.6,0.1-0.8,0.4s-0.3,0.6-0.3,1.1c0,0.4,0.1,0.8,0.3,1.1s0.5,0.4,0.8,0.4s0.6-0.1,0.8-0.4
		C231.8,57,231.9,56.7,231.9,56.3z"/>
	<path class="st2" d="M234.7,54.8H234v3.1h-0.5v-3.1h-0.3v-0.2h0.3V54c0-0.7,0.4-1,1.1-1v0.2c-0.2,0-0.4,0.1-0.5,0.2
		c-0.1,0.1-0.1,0.4-0.1,0.7v0.7H234.7L234.7,54.8z"/>
	<path class="st2" d="M141.5,66.9H141v-2.2c0-0.7-0.2-1-0.7-1s-0.8,0.3-1,0.9v2.3h-0.5v-3.2h0.5v0.4c0.3-0.4,0.6-0.5,1-0.5
		c0.4,0,0.7,0.1,0.8,0.2c0.2,0.2,0.3,0.5,0.3,0.9v2.2H141.5z"/>
	<path class="st2" d="M144.9,64.8v2.1h-0.5v-0.3c-0.2,0.2-0.5,0.3-0.8,0.3c-0.3,0-0.6-0.1-0.8-0.3s-0.4-0.4-0.4-0.8
		c0-0.3,0.1-0.6,0.4-0.8c0.2-0.2,0.5-0.3,0.7-0.3c0.1,0,0.2,0,0.2,0c0.2,0,0.3,0.1,0.4,0.1L144,65c-0.2-0.1-0.3-0.2-0.5-0.2
		s-0.4,0.1-0.5,0.2c-0.1,0.2-0.2,0.4-0.2,0.7c0,0.3,0.1,0.5,0.2,0.6c0.1,0.2,0.3,0.2,0.5,0.2c0.3,0,0.6-0.2,0.8-0.5v-1.5
		c0-0.7-0.2-1-0.7-1c-0.3,0-0.5,0.1-0.8,0.3l-0.1-0.2c0.2-0.2,0.5-0.2,0.9-0.2C144.5,63.6,144.9,64,144.9,64.8z"/>
	<path class="st2" d="M147.3,63.8h-0.6v2c0,0.3,0,0.6,0.1,0.7c0.1,0.1,0.2,0.2,0.5,0.2v0.2c-0.7,0-1.1-0.4-1.1-1.1v-2h-0.3v-0.2h0.3
		v-0.4h0.5v0.4h0.6V63.8z"/>
	<path class="st2" d="M150.8,66.9h-0.5v-0.6c-0.2,0.4-0.6,0.6-1,0.6c-0.8,0-1.2-0.4-1.2-1.2v-2.2h0.5v2.2c0,0.7,0.2,1,0.7,1
		c0.3,0,0.5-0.2,0.7-0.5c0.1-0.2,0.2-0.4,0.2-0.6v-2.1h0.5v3.4H150.8z"/>
	<path class="st2" d="M153.5,63.7l-0.1,0.2c-0.1-0.1-0.3-0.1-0.4-0.1s-0.1,0-0.2,0.1c-0.2,0.1-0.3,0.4-0.3,0.9v2.1H152v-3.2h0.5V64
		c0.1-0.1,0.1-0.2,0.2-0.3c0.1-0.1,0.2-0.1,0.4-0.1C153.2,63.6,153.3,63.7,153.5,63.7z"/>
	<path class="st2" d="M156.6,64.8v2.1h-0.5v-0.3c-0.2,0.2-0.5,0.3-0.8,0.3s-0.6-0.1-0.8-0.3s-0.4-0.4-0.4-0.8c0-0.3,0.1-0.6,0.4-0.8
		c0.2-0.2,0.5-0.3,0.7-0.3c0.1,0,0.2,0,0.2,0c0.2,0,0.3,0.1,0.4,0.1l-0.1,0.2c-0.2-0.1-0.3-0.2-0.5-0.2s-0.4,0.1-0.5,0.2
		c-0.1,0.2-0.2,0.4-0.2,0.7c0,0.3,0.1,0.5,0.2,0.6c0.1,0.2,0.3,0.2,0.5,0.2c0.3,0,0.6-0.2,0.8-0.5v-1.5c0-0.7-0.2-1-0.7-1
		c-0.3,0-0.5,0.1-0.8,0.3l-0.1-0.2c0.2-0.2,0.5-0.2,0.9-0.2C156.2,63.6,156.6,64,156.6,64.8z"/>
	<path class="st2" d="M158.2,66.9h-0.5v-5h0.5V66.9z"/>
	<path class="st2" d="M161.1,66.9h-0.5v-5h0.5V66.9z"/>
	<path class="st2" d="M164.6,64.8v2.1h-0.5v-0.3c-0.2,0.2-0.5,0.3-0.8,0.3s-0.6-0.1-0.8-0.3s-0.4-0.4-0.4-0.8c0-0.3,0.1-0.6,0.4-0.8
		c0.2-0.2,0.5-0.3,0.7-0.3c0.1,0,0.2,0,0.2,0c0.2,0,0.3,0.1,0.4,0.1l-0.1,0.2c-0.2-0.1-0.3-0.2-0.5-0.2s-0.4,0.1-0.5,0.2
		c-0.1,0.2-0.2,0.4-0.2,0.7c0,0.3,0.1,0.5,0.2,0.6c0.1,0.2,0.3,0.2,0.5,0.2c0.3,0,0.6-0.2,0.8-0.5v-1.5c0-0.7-0.2-1-0.7-1
		c-0.3,0-0.5,0.1-0.8,0.3l-0.1-0.2c0.2-0.2,0.5-0.2,0.9-0.2C164.2,63.6,164.6,64,164.6,64.8z"/>
	<path class="st2" d="M168.3,66.9h-0.5v-2.2c0-0.7-0.2-1-0.7-1s-0.8,0.3-1,0.9v2.3h-0.5v-3.2h0.5v0.4c0.3-0.4,0.6-0.5,1-0.5
		c0.4,0,0.7,0.1,0.8,0.2c0.2,0.2,0.3,0.5,0.3,0.9v2.2H168.3z"/>
	<path class="st2" d="M172.1,66.9h-0.5v-0.3c-0.2,0.2-0.5,0.4-0.8,0.4c-0.4,0-0.8-0.2-1.1-0.5c-0.3-0.3-0.4-0.7-0.4-1.2
		s0.1-0.9,0.4-1.2c0.3-0.3,0.6-0.5,1.1-0.5c0.2,0,0.4,0,0.6,0.1l-0.1,0.2c-0.1-0.1-0.3-0.2-0.5-0.2s-0.5,0.1-0.6,0.4
		c-0.2,0.3-0.3,0.7-0.3,1.1s0.1,0.8,0.3,1.1c0.2,0.3,0.4,0.4,0.7,0.4c0.2,0,0.3-0.1,0.5-0.2c0.1-0.1,0.2-0.3,0.3-0.5v-4.2h0.5
		L172.1,66.9L172.1,66.9z"/>
	<path class="st2" d="M175,66.1c0,0.3-0.1,0.5-0.3,0.6c-0.2,0.2-0.4,0.2-0.7,0.2c-0.4,0-0.7-0.1-0.9-0.4l0.2-0.2
		c0.2,0.3,0.5,0.4,0.8,0.4c0.2,0,0.3-0.1,0.4-0.2s0.2-0.3,0.2-0.4c0-0.2-0.1-0.4-0.3-0.5c-0.1-0.1-0.3-0.2-0.6-0.4
		c-0.4-0.2-0.5-0.5-0.5-0.9c0-0.2,0.1-0.4,0.3-0.6c0.2-0.1,0.4-0.2,0.6-0.2s0.3,0,0.5,0.1c0.2,0.1,0.3,0.2,0.3,0.3l-0.2,0.2
		c-0.2-0.3-0.4-0.4-0.7-0.4c-0.3,0-0.5,0.1-0.6,0.4c0,0.2,0.1,0.4,0.3,0.6c0.4,0.2,0.6,0.4,0.7,0.5C174.9,65.5,175.1,65.8,175,66.1z
		"/>
	<path class="st2" d="M178.7,66.5c-0.3,0.3-0.7,0.4-1.1,0.4c-0.5,0-0.8-0.2-1.2-0.5c-0.3-0.3-0.5-0.7-0.5-1.2s0.2-0.9,0.5-1.2
		c0.3-0.3,0.7-0.5,1.2-0.5c0.4,0,0.7,0.1,1,0.3l-0.1,0.2c-0.2-0.2-0.5-0.4-0.9-0.4c-0.3,0-0.6,0.2-0.8,0.5c-0.2,0.3-0.3,0.6-0.3,1
		s0.1,0.8,0.3,1c0.2,0.3,0.5,0.5,0.8,0.5c0.4,0,0.7-0.2,1-0.5L178.7,66.5z"/>
	<path class="st2" d="M181.7,64.8v2.1h-0.5v-0.3c-0.2,0.2-0.5,0.3-0.8,0.3c-0.3,0-0.6-0.1-0.8-0.3c-0.2-0.2-0.4-0.4-0.4-0.8
		c0-0.3,0.1-0.6,0.4-0.8c0.2-0.2,0.5-0.3,0.7-0.3c0.1,0,0.2,0,0.2,0c0.2,0,0.3,0.1,0.4,0.1l-0.1,0.2c-0.2-0.1-0.3-0.2-0.5-0.2
		s-0.4,0.1-0.5,0.2c-0.1,0.2-0.2,0.4-0.2,0.7c0,0.3,0.1,0.5,0.2,0.6c0.1,0.2,0.3,0.2,0.5,0.2c0.3,0,0.6-0.2,0.8-0.5v-1.5
		c0-0.7-0.2-1-0.7-1c-0.3,0-0.5,0.1-0.8,0.3l-0.1-0.2c0.2-0.2,0.5-0.2,0.9-0.2C181.3,63.6,181.7,64,181.7,64.8z"/>
	<path class="st2" d="M185.6,65.3c0,0.5-0.1,0.8-0.4,1.2c-0.3,0.3-0.6,0.5-1,0.5c-0.2,0-0.4,0-0.6-0.1l0.1-0.2
		c0.1,0.1,0.3,0.2,0.5,0.2s0.5-0.1,0.6-0.4c0.2-0.3,0.3-0.6,0.3-1.1c0-0.4-0.1-0.8-0.3-1.1c-0.2-0.3-0.4-0.4-0.7-0.4
		c-0.2,0-0.3,0.1-0.5,0.2c-0.1,0.1-0.2,0.3-0.3,0.5v3.6h-0.5v-4.4h0.5V64c0.2-0.2,0.5-0.4,0.8-0.4c0.4,0,0.8,0.2,1,0.5
		C185.5,64.5,185.6,64.9,185.6,65.3z"/>
	<path class="st2" d="M189.4,64.9h-2v-0.2h1.5c0-0.6-0.3-0.9-0.8-0.9c-0.3,0-0.6,0.1-0.8,0.4c-0.2,0.3-0.3,0.6-0.3,1.1
		s0.1,0.8,0.3,1.1c0.2,0.3,0.5,0.4,0.8,0.4c0.4,0,0.7-0.2,1-0.5l0.2,0.2c-0.3,0.3-0.7,0.5-1.1,0.5c-0.5,0-0.8-0.2-1.2-0.5
		c-0.3-0.3-0.5-0.7-0.5-1.2s0.2-0.9,0.5-1.2c0.3-0.3,0.7-0.5,1.1-0.5c0.3,0,0.6,0.1,0.9,0.4C189.3,64.2,189.4,64.5,189.4,64.9z"/>
	<path class="st2" d="M141.3,73.8v2.1h-0.5v-0.3c-0.2,0.2-0.5,0.3-0.8,0.3s-0.6-0.1-0.8-0.3s-0.4-0.4-0.4-0.8c0-0.3,0.1-0.6,0.4-0.8
		c0.2-0.2,0.5-0.3,0.7-0.3c0.1,0,0.2,0,0.2,0c0.2,0,0.3,0.1,0.4,0.1l-0.1,0.2c-0.2-0.1-0.3-0.2-0.5-0.2c-0.2,0-0.4,0.1-0.5,0.2
		c-0.1,0.2-0.2,0.4-0.2,0.7c0,0.3,0.1,0.5,0.2,0.6c0.1,0.2,0.3,0.2,0.5,0.2c0.3,0,0.6-0.2,0.8-0.5v-1.5c0-0.7-0.2-1-0.7-1
		c-0.3,0-0.5,0.1-0.8,0.3l-0.1-0.2c0.2-0.2,0.5-0.2,0.9-0.2C140.9,72.6,141.3,73,141.3,73.8z"/>
	<path class="st2" d="M145,75.9h-0.5v-2.2c0-0.7-0.2-1-0.7-1s-0.8,0.3-1,0.9v2.3h-0.5v-3.2h0.5v0.4c0.3-0.4,0.6-0.5,1-0.5
		c0.4,0,0.7,0.1,0.8,0.2c0.2,0.2,0.3,0.5,0.3,0.9v2.2H145z"/>
	<path class="st2" d="M148.9,75.9h-0.5v-0.3c-0.2,0.2-0.5,0.4-0.8,0.4c-0.4,0-0.8-0.2-1.1-0.5c-0.3-0.3-0.4-0.7-0.4-1.2
		s0.1-0.9,0.4-1.2s0.6-0.5,1.1-0.5c0.2,0,0.4,0,0.6,0.1l-0.1,0.2c-0.1-0.1-0.3-0.2-0.5-0.2c-0.2,0-0.5,0.1-0.6,0.4
		c-0.2,0.3-0.3,0.7-0.3,1.1s0.1,0.8,0.3,1.1c0.2,0.3,0.4,0.4,0.7,0.4c0.2,0,0.3-0.1,0.5-0.2c0.1-0.1,0.2-0.3,0.3-0.5v-4.2h0.5v5.1
		H148.9z"/>
	<path class="st2" d="M153.7,73.8v2.1h-0.5v-0.3c-0.2,0.2-0.5,0.3-0.8,0.3c-0.3,0-0.6-0.1-0.8-0.3c-0.2-0.2-0.4-0.4-0.4-0.8
		c0-0.3,0.1-0.6,0.4-0.8c0.2-0.2,0.5-0.3,0.7-0.3c0.1,0,0.2,0,0.2,0c0.2,0,0.3,0.1,0.4,0.1l-0.1,0.2c-0.2-0.1-0.3-0.2-0.5-0.2
		s-0.4,0.1-0.5,0.2c-0.1,0.2-0.2,0.4-0.2,0.7c0,0.3,0.1,0.5,0.2,0.6c0.1,0.2,0.3,0.2,0.5,0.2c0.3,0,0.6-0.2,0.8-0.5v-1.5
		c0-0.7-0.2-1-0.7-1c-0.3,0-0.5,0.1-0.8,0.3l-0.1-0.2c0.2-0.2,0.5-0.2,0.9-0.2C153.3,72.6,153.7,73,153.7,73.8z"/>
	<path class="st2" d="M156.4,72.7l-0.1,0.2c-0.1-0.1-0.3-0.1-0.4-0.1c-0.1,0-0.1,0-0.2,0.1c-0.2,0.1-0.3,0.4-0.3,0.9v2.1h-0.5v-3.2
		h0.5V73c0.1-0.1,0.1-0.2,0.2-0.3c0.1-0.1,0.2-0.1,0.4-0.1C156.1,72.6,156.3,72.7,156.4,72.7z"/>
	<path class="st2" d="M158.6,72.8H158v2c0,0.3,0,0.6,0.1,0.7c0.1,0.1,0.2,0.2,0.5,0.2v0.2c-0.7,0-1.1-0.4-1.1-1.1v-2h-0.3v-0.2h0.3
		v-0.4h0.5v0.4h0.6V72.8z"/>
	<path class="st2" d="M160.1,71.2c0,0.1,0,0.2-0.1,0.2s-0.1,0.1-0.2,0.1c-0.1,0-0.2,0-0.2-0.1c0-0.1-0.1-0.1-0.1-0.2s0-0.2,0.1-0.2
		c0.1-0.1,0.1-0.1,0.2-0.1c0.1,0,0.2,0,0.2,0.1C160.1,71.1,160.1,71.1,160.1,71.2z M160.1,75.9h-0.5v-3.2h0.5V75.9z"/>
	<path class="st2" d="M162.9,75.1c0,0.3-0.1,0.5-0.3,0.6c-0.2,0.2-0.4,0.2-0.7,0.2c-0.4,0-0.7-0.1-0.9-0.4l0.2-0.2
		c0.2,0.3,0.5,0.4,0.8,0.4c0.2,0,0.3-0.1,0.4-0.2c0.1-0.1,0.2-0.3,0.2-0.4c0-0.2-0.1-0.4-0.3-0.5c-0.1-0.1-0.3-0.2-0.6-0.4
		c-0.4-0.2-0.5-0.5-0.5-0.9c0-0.2,0.1-0.4,0.3-0.6c0.2-0.1,0.4-0.2,0.6-0.2c0.2,0,0.3,0,0.5,0.1c0.2,0.1,0.3,0.2,0.3,0.3l-0.2,0.2
		c-0.2-0.3-0.4-0.4-0.7-0.4s-0.5,0.1-0.6,0.4c0,0.2,0.1,0.4,0.3,0.6c0.4,0.2,0.6,0.4,0.7,0.5C162.8,74.5,162.9,74.8,162.9,75.1z"/>
	<path class="st2" d="M165.2,72.8h-0.6v2c0,0.3,0,0.6,0.1,0.7c0.1,0.1,0.2,0.2,0.5,0.2v0.2c-0.7,0-1.1-0.4-1.1-1.1v-2h-0.3v-0.2h0.3
		v-0.4h0.5v0.4h0.6V72.8z"/>
	<path class="st2" d="M166.7,71.2c0,0.1,0,0.2-0.1,0.2c-0.1,0-0.1,0.1-0.2,0.1c-0.1,0-0.2,0-0.2-0.1c0-0.1-0.1-0.1-0.1-0.2
		s0-0.2,0.1-0.2c0.1-0.1,0.1-0.1,0.2-0.1c0.1,0,0.2,0,0.2,0.1C166.7,71.1,166.7,71.1,166.7,71.2z M166.6,75.9h-0.5v-3.2h0.5V75.9z"
		/>
	<path class="st2" d="M170.4,75.5c-0.3,0.3-0.7,0.4-1.1,0.4c-0.5,0-0.8-0.2-1.2-0.5c-0.3-0.3-0.5-0.7-0.5-1.2s0.2-0.9,0.5-1.2
		c0.3-0.3,0.7-0.5,1.2-0.5c0.4,0,0.7,0.1,1,0.3l-0.1,0.2c-0.2-0.2-0.5-0.4-0.9-0.4c-0.3,0-0.6,0.2-0.8,0.5c-0.2,0.3-0.3,0.6-0.3,1
		s0.1,0.8,0.3,1c0.2,0.3,0.5,0.5,0.8,0.5c0.4,0,0.7-0.2,1-0.5L170.4,75.5z"/>
	<path class="st2" d="M175.2,73.9h-2v-0.2h1.5c0-0.6-0.3-0.9-0.8-0.9c-0.3,0-0.6,0.1-0.8,0.4c-0.2,0.3-0.3,0.6-0.3,1.1
		s0.1,0.8,0.3,1.1c0.2,0.3,0.5,0.4,0.8,0.4c0.4,0,0.7-0.2,1-0.5l0.2,0.2c-0.3,0.3-0.7,0.5-1.1,0.5c-0.5,0-0.8-0.2-1.2-0.5
		c-0.3-0.3-0.5-0.7-0.5-1.2s0.2-0.9,0.5-1.2c0.3-0.3,0.7-0.5,1.1-0.5c0.3,0,0.6,0.1,0.9,0.4C175.1,73.2,175.2,73.5,175.2,73.9z"/>
	<path class="st2" d="M178.9,75.9h-0.6l-1-1.5l-1.2,1.5h-0.2l1.3-1.6l-1.1-1.6h0.6l0.9,1.2l1-1.2h0.2l-1.1,1.4L178.9,75.9z"/>
	<path class="st2" d="M182.5,74.3c0,0.5-0.1,0.8-0.4,1.2c-0.3,0.3-0.6,0.5-1,0.5c-0.2,0-0.4,0-0.6-0.1l0.1-0.2
		c0.1,0.1,0.3,0.2,0.5,0.2c0.2,0,0.5-0.1,0.6-0.4c0.2-0.3,0.3-0.6,0.3-1.1c0-0.4-0.1-0.8-0.3-1.1c-0.2-0.3-0.4-0.4-0.7-0.4
		c-0.2,0-0.3,0.1-0.5,0.2c-0.1,0.1-0.2,0.3-0.3,0.5v3.6h-0.5v-4.4h0.5V73c0.2-0.2,0.5-0.4,0.8-0.4c0.4,0,0.8,0.2,1,0.5
		C182.3,73.5,182.5,73.9,182.5,74.3z"/>
	<path class="st2" d="M185,72.7l-0.1,0.2c-0.1-0.1-0.3-0.1-0.4-0.1s-0.1,0-0.2,0.1c-0.2,0.1-0.3,0.4-0.3,0.9v2.1h-0.5v-3.2h0.5V73
		c0.1-0.1,0.1-0.2,0.2-0.3c0.1-0.1,0.2-0.1,0.4-0.1C184.7,72.6,184.9,72.7,185,72.7z"/>
	<path class="st2" d="M188.4,73.9h-2v-0.2h1.5c0-0.6-0.3-0.9-0.8-0.9c-0.3,0-0.6,0.1-0.8,0.4s-0.3,0.6-0.3,1.1s0.1,0.8,0.3,1.1
		c0.2,0.3,0.5,0.4,0.8,0.4c0.4,0,0.7-0.2,1-0.5l0.2,0.2c-0.3,0.3-0.7,0.5-1.1,0.5c-0.5,0-0.8-0.2-1.2-0.5c-0.3-0.3-0.5-0.7-0.5-1.2
		s0.2-0.9,0.5-1.2c0.3-0.3,0.7-0.5,1.1-0.5c0.3,0,0.6,0.1,0.9,0.4C188.3,73.2,188.4,73.5,188.4,73.9z"/>
	<path class="st2" d="M191.1,75.1c0,0.3-0.1,0.5-0.3,0.6c-0.2,0.2-0.4,0.2-0.7,0.2c-0.4,0-0.7-0.1-0.9-0.4l0.2-0.2
		c0.2,0.3,0.5,0.4,0.8,0.4c0.2,0,0.3-0.1,0.4-0.2c0.1-0.1,0.2-0.3,0.2-0.4c0-0.2-0.1-0.4-0.3-0.5c-0.1-0.1-0.3-0.2-0.6-0.4
		c-0.4-0.2-0.5-0.5-0.5-0.9c0-0.2,0.1-0.4,0.3-0.6c0.2-0.1,0.4-0.2,0.6-0.2c0.1,0,0.3,0,0.5,0.1s0.3,0.2,0.3,0.3l-0.2,0.2
		c-0.2-0.3-0.4-0.4-0.7-0.4s-0.5,0.1-0.5,0.4c0,0.2,0.1,0.4,0.3,0.6c0.4,0.2,0.6,0.4,0.7,0.5C191,74.5,191.2,74.8,191.1,75.1z"/>
	<path class="st2" d="M193.9,75.1c0,0.3-0.1,0.5-0.3,0.6c-0.2,0.2-0.4,0.2-0.7,0.2c-0.4,0-0.7-0.1-0.9-0.4l0.1-0.2
		c0.2,0.3,0.5,0.4,0.8,0.4c0.2,0,0.3-0.1,0.4-0.2c0.1-0.1,0.2-0.3,0.2-0.4c0-0.2-0.1-0.4-0.3-0.5c-0.1-0.1-0.3-0.2-0.6-0.4
		c-0.4-0.2-0.5-0.5-0.5-0.9c0-0.2,0.1-0.4,0.3-0.6c0.2-0.1,0.4-0.2,0.6-0.2c0.1,0,0.3,0,0.5,0.1s0.3,0.2,0.3,0.3l-0.2,0.2
		c-0.2-0.3-0.4-0.4-0.7-0.4c-0.3,0-0.5,0.1-0.5,0.4c0,0.2,0.1,0.4,0.3,0.6c0.4,0.2,0.6,0.4,0.7,0.5
		C193.8,74.5,193.9,74.8,193.9,75.1z"/>
	<path class="st2" d="M195.5,71.2c0,0.1,0,0.2-0.1,0.2c-0.1,0-0.1,0.1-0.2,0.1c-0.1,0-0.2,0-0.2-0.1c0-0.1-0.1-0.1-0.1-0.2
		s0-0.2,0.1-0.2c0.1-0.1,0.1-0.1,0.2-0.1c0.1,0,0.2,0,0.2,0.1C195.5,71.1,195.5,71.1,195.5,71.2z M195.4,75.9h-0.5v-3.2h0.5V75.9z"
		/>
	<path class="st2" d="M199.8,74.3c0,0.5-0.2,0.9-0.5,1.2c-0.3,0.3-0.7,0.5-1.2,0.5s-0.8-0.2-1.2-0.5c-0.3-0.3-0.5-0.7-0.5-1.2
		s0.2-0.9,0.5-1.2c0.3-0.3,0.7-0.5,1.2-0.5s0.8,0.2,1.2,0.5C199.6,73.4,199.8,73.8,199.8,74.3z M199.2,74.3c0-0.4-0.1-0.8-0.3-1.1
		c-0.2-0.3-0.5-0.4-0.8-0.4c-0.3,0-0.6,0.1-0.8,0.4s-0.3,0.6-0.3,1.1c0,0.4,0.1,0.8,0.3,1.1c0.2,0.3,0.5,0.4,0.8,0.4
		c0.3,0,0.6-0.1,0.8-0.4C199.1,75,199.2,74.7,199.2,74.3z"/>
	<path class="st2" d="M203.4,75.9h-0.5v-2.2c0-0.7-0.2-1-0.7-1s-0.8,0.3-1,0.9v2.3h-0.5v-3.2h0.5v0.4c0.3-0.4,0.6-0.5,1-0.5
		c0.4,0,0.7,0.1,0.8,0.2c0.2,0.2,0.3,0.5,0.3,0.9L203.4,75.9L203.4,75.9z"/>
	<path class="st2" d="M205.1,75.7c0,0.1,0,0.2-0.1,0.2s-0.1,0.1-0.2,0.1c-0.1,0-0.2,0-0.2-0.1c0-0.1-0.1-0.1-0.1-0.2s0-0.2,0.1-0.2
		c0.1,0,0.1-0.1,0.2-0.1c0.1,0,0.2,0,0.2,0.1S205.1,75.6,205.1,75.7z"/>
</g>
</svg>
