<?xml version="1.0" encoding="utf-8"?>
<!-- Generator: Adobe Illustrator 27.0.0, SVG Export Plug-In . SVG Version: 6.00 Build 0)  -->
<svg version="1.1" id="圖層_1" xmlns="http://www.w3.org/2000/svg" xmlns:xlink="http://www.w3.org/1999/xlink" x="0px" y="0px"
	 viewBox="0 0 240 217" style="enable-background:new 0 0 240 217;" xml:space="preserve">
<style type="text/css">
	.st0{fill:#FFFFFF;}
	.st1{fill:none;stroke:#C9A063;stroke-width:0.5;stroke-miterlimit:10;}
	.st2{fill:#C9A063;}
</style>
<path class="st0" d="M26.3,55.4v-2.8h1.9v2.8h1c-0.1-0.3-0.2-0.5-0.3-0.8l1.6-0.5c0.5,1.2,0.9,2.2,1.1,3.2v-4.9h1.8v8
	c0,3-1,5.5-3,7.5l-1.7-1.4c1.5-1.2,2.4-2.7,2.7-4.5c-0.7,0.7-1.3,1.3-1.9,1.8l-1.1-2.1c0.2-0.1,0.4-0.2,0.6-0.3
	c-0.3-0.5-0.6-0.9-1-1.3v7.6h-1.9v-6.4c-0.4,1.1-0.9,2.1-1.5,3.1L24,61.7c1-1.4,1.7-2.9,2.1-4.5h-1.8v-1.9L26.3,55.4L26.3,55.4z
	 M30.5,59.7l-1,1.6c0.8-0.5,1.6-1.1,2.3-1.9v-1.1L30,58.7c-0.1-0.5-0.1-1-0.3-1.5h-1.5v0.7C29.2,58.6,30,59.2,30.5,59.7L30.5,59.7z
	 M36.4,57.4c0.5-1.1,1-2.2,1.3-3.5l1.7,0.4c-0.3,1.5-0.7,2.9-1.3,4.3l-1.7-0.8v1c1.5,0.8,2.5,1.6,3.2,2.2l-1.2,2
	c-0.6-0.7-1.2-1.3-2-2v4c0,0.4,0.2,0.6,0.5,0.6H37c0.2,0,0.4-0.1,0.5-0.2c0.1-0.1,0.2-0.8,0.2-2l1.9,0.4c-0.1,1.6-0.3,2.6-0.7,3.1
	c-0.3,0.4-0.7,0.5-1.4,0.5h-1.6c-1,0-1.5-0.6-1.5-1.9V52.5h2L36.4,57.4L36.4,57.4z"/>
<path class="st0" d="M56.2,67.9h-2.1v-0.5H43.5v0.5h-2.1V52.7h14.9L56.2,67.9L56.2,67.9z M54.1,65.8V54.3H43.5v8.8
	c1.1-0.2,2.1-0.5,3.1-1h-2.2v-3h8.8v3h-1.4l1,0.7c-0.2,0.2-0.4,0.5-0.5,0.7c0.5,0.2,1,0.4,1.5,0.6l-0.8,1.6
	c-1.5-0.7-2.9-1.3-4.2-1.7l0.9-1.2c0.3,0.1,0.6,0.2,0.9,0.2c0.2-0.3,0.4-0.5,0.5-0.8h-2.2c-0.1,0.1-0.1,0.1-0.2,0.2v3.1h-1.9v-1.6
	c-0.8,0.5-1.7,0.9-2.6,1.2l-0.7-1.5v2.4L54.1,65.8L54.1,65.8z M47.7,55v-0.7h2.1V55H53v1.5h-3.2v0.6h3.8v1.5h-9.8v-1.5h3.9v-0.6
	h-3.3V55H47.7z M51.2,60.2h-4.9v0.7h4.9V60.2z"/>
<path class="st0" d="M66.5,52.5v4c0.1,2,0.7,3.8,2,5.4c1.2,1.6,2.8,2.9,4.9,3.8l-1.5,2.2c-1.5-0.9-2.9-2-4.1-3.2
	c-1-1.1-1.9-2.6-2.6-4.5c-0.4,1.7-1,3-1.8,4c-1,1.3-2.3,2.5-4,3.7l-1.5-1.8c1.9-1.2,3.4-2.5,4.4-4.2c1.1-1.7,1.7-3.5,1.8-5.4v-4
	H66.5L66.5,52.5z M62.3,55.8c-0.3,2.3-0.8,4.1-1.6,5.6l-2.3-0.9c0.9-1.4,1.5-3.1,1.7-5.2L62.3,55.8z M72.1,55.3
	c-0.3,2.3-0.8,4.3-1.5,5.8l-2.3-0.9c0.9-1.4,1.4-3.2,1.7-5.4L72.1,55.3z"/>
<path class="st0" d="M81.5,53.5v-1.1h2.2v1.1H90v1.8h-6.3v1.1h5.1v6.9h-5.1v1h6.5v1.8h-6.5v1.8h-2.2v-1.8H75v-1.8h6.6v-1h-5.1v-6.9
	h5.1v-1.1h-6.3v-1.8H81.5z M81.5,59v-1h-2.9v1H81.5z M81.5,60.4h-2.9v1.2h2.9V60.4z M83.7,59h2.9v-1h-2.9V59z M86.6,60.4h-2.9v1.2
	h2.9V60.4z"/>
<path class="st0" d="M98.3,57.3c0,2.1-0.2,4.2-0.4,6.4c0.3-0.1,0.6-0.2,0.9-0.3v2.1c-2,0.7-4.3,1.3-6.7,1.8l-0.4-2.2
	c1.4-0.2,2.7-0.4,4.1-0.8c0.3-2.1,0.6-4.5,0.7-7.1L98.3,57.3L98.3,57.3z M96.7,54.9h2.4v1.8H92v-1.8h2.5c-0.2-0.9-0.3-1.6-0.5-2.3
	l2.4-0.2C96.4,53.2,96.6,54.1,96.7,54.9L96.7,54.9z M95.4,63.4l-2.1,0.2c-0.1-1.8-0.3-3.8-0.7-5.9l1.8-0.1
	C94.8,59.3,95.1,61.2,95.4,63.4L95.4,63.4z M103.6,52.3v2.5h3.8v1.9h-3.8v2.7h3.2v8.5h-2.1v-1.2h-3.5v1.2h-2v-8.5h2.3v-7.1H103.6z
	 M104.7,64.9v-3.6h-3.5v3.6H104.7z"/>
<path class="st0" d="M110.4,56.4v-3.7h2v3.7h1.4v1.7l0.9-0.2V54h2.1v3.3l1.4-0.4v-4.5h2v4l3.8-1.1l0,4.5c0,1.5-0.2,2.3-0.5,2.7
	c-0.4,0.4-1,0.5-1.8,0.5h-1l-0.2-2.1c0.6,0,1,0,1.2,0c0.1,0,0.1,0,0.2-0.1c0.1-0.2,0.1-0.6,0.1-1.4l0.1-1.5l-1.8,0.5v6h-2v-5.4
	l-1.4,0.4V65c0,0.4,0.2,0.6,0.5,0.6h4.3c0.2,0,0.4-0.1,0.6-0.2c0.1-0.1,0.2-0.9,0.2-2.2l2,0.4c-0.1,1.7-0.4,2.8-0.7,3.4
	c-0.3,0.4-0.8,0.6-1.6,0.6h-5.8c-1,0-1.5-0.6-1.5-1.9v-5.9l-1.1,0.3l-0.1-1.7h-1v4.2c0.5-0.2,1-0.4,1.5-0.6v2.2
	c-1.4,0.6-3,1.2-4.8,1.6l-0.4-2.4c0.6-0.1,1.1-0.2,1.7-0.4v-4.8h-1.6v-2L110.4,56.4L110.4,56.4z"/>
<path class="st0" d="M140.5,53.5v2.1h-6.8v2.2c2.1,1,4.2,2.2,6.1,3.7l-1.2,2.2c-1.7-1.3-3.3-2.4-4.9-3.4v7.6h-2.4V55.6h-5.1v-2.1
	H140.5z"/>
<path class="st0" d="M148.7,52.9c-0.4,1.2-0.9,2.4-1.5,3.5v11.5h-2.2v-8c-0.5,0.7-1.1,1.4-1.7,2l-0.8-2.5c1.8-1.9,3.1-4.2,4-7
	L148.7,52.9L148.7,52.9z M157.8,56.5c-1.7,2.1-3.6,3.7-5.6,4.6v3.4c0,0.5,0.2,0.7,0.6,0.7h2.1c0.3,0,0.5-0.1,0.6-0.4
	c0.1-0.2,0.2-1.4,0.3-3.5l2.2,0.5c-0.2,2.5-0.4,4.1-0.8,4.8c-0.3,0.6-0.9,0.8-1.8,0.8h-3.8c-1.1,0-1.7-0.8-1.7-2.2V52.5h2.2v6.2
	c1.4-0.8,2.7-2.1,3.9-3.9L157.8,56.5L157.8,56.5z"/>
<path class="st0" d="M168.4,52.8c-0.2,0.6-0.4,1.2-0.7,1.8h2.4c-0.2-0.7-0.4-1.3-0.7-1.8l1.8-0.5c0.4,0.4,0.7,1.1,1.1,1.8l-1.4,0.5
	h3.4v1.7h-2.9v1.2h2.6V59h-2.6v1.3h2.6v1.5h-2.6v1.5h3.2v1.7h-9.4v-6c-0.3,0.3-0.5,0.7-0.8,1l-1-1.6c-0.2,0.7-0.4,1.3-0.7,2h1.7
	c-0.3,1.8-0.7,3.3-1.2,4.5c0.3,0.3,0.6,0.5,1,0.6c0.7,0.3,2.4,0.5,4.9,0.5c0.7,0,2.6-0.1,5.9-0.3l-0.3,2.1c-1.7,0-2.7,0.1-3,0.1
	c-4.3,0-6.9-0.2-8.1-0.7c-0.5-0.2-0.9-0.5-1.3-0.8c-0.4,0.6-0.9,1.3-1.5,1.9l-1.5-1.8c0.9-0.7,1.5-1.4,1.9-2.2
	c0.3-0.5,0.6-1.3,0.9-2.2h-2c0.6-1.3,1.1-2.5,1.4-3.6h-1.9v-1.8h4.4c-0.1,0.4-0.2,0.8-0.3,1.2c1.2-1.3,2.1-3.1,2.7-5.3L168.4,52.8
	L168.4,52.8z M164.1,54.9l-1.7,1.2c-0.5-0.8-1.3-1.6-2.3-2.5l1.6-1.1C162.6,53.3,163.4,54,164.1,54.9z M169.6,56.3h-2.2v1.2h2.2
	V56.3z M169.6,59h-2.2v1.3h2.2V59z M167.4,63.2h2.2v-1.5h-2.2V63.2z"/>
<path class="st0" d="M182.7,58c-0.5,0.7-1,1.5-1.5,2.1v7.8h-2.1v-5.5c-0.6,0.5-1.1,1-1.7,1.5l-0.9-2.3c1.9-1.3,3.4-3,4.6-4.8
	L182.7,58z M182.3,53.6c-1.2,1.9-2.7,3.5-4.4,4.7l-1.3-2c1.6-1.1,2.9-2.4,4-3.9L182.3,53.6z M192,57.3v2.1h-2.7v6.4
	c0,1.2-0.5,1.9-1.6,1.9H185l-0.2-2.2c1.1,0,1.8,0.1,2,0.1c0.3,0,0.5-0.2,0.5-0.5v-5.7h-4.2v-2.1L192,57.3L192,57.3z M191.2,53.1v2
	h-7.5v-2H191.2z"/>
<path class="st0" d="M199.9,54.9v-2.6h2.3v2.6h5.9v7.6h-5.9v5.4h-2.3v-5.4h-5.7v-7.6H199.9z M199.9,56.9h-3.4v3.6h3.4V56.9z
	 M205.9,56.9h-3.6v3.6h3.6V56.9z"/>
<path class="st0" d="M218.9,63.1h-1.7l-0.6-9.2h2.8L218.9,63.1L218.9,63.1z M216.9,66.5v-2.4h2.4v2.4H216.9z"/>
<path class="st0" d="M26.3,80.6v-2.8h1.9v2.8h1c-0.1-0.3-0.2-0.5-0.3-0.8l1.6-0.5c0.5,1.2,0.9,2.2,1.1,3.2v-4.9h1.8v8
	c0,3-1,5.5-3,7.5l-1.7-1.4c1.5-1.2,2.4-2.7,2.7-4.5c-0.7,0.7-1.3,1.3-1.9,1.8l-1.1-2.1c0.2-0.1,0.4-0.2,0.6-0.3
	c-0.3-0.5-0.6-0.9-1-1.3v7.6h-1.9v-6.4c-0.4,1.1-0.9,2.1-1.5,3.1L24,86.9c1-1.4,1.7-2.9,2.1-4.5h-1.8v-1.9L26.3,80.6L26.3,80.6z
	 M30.5,84.9l-1,1.6c0.8-0.5,1.6-1.1,2.3-1.9v-1.1L30,83.9c-0.1-0.5-0.1-1-0.3-1.5h-1.5v0.7C29.2,83.8,30,84.4,30.5,84.9L30.5,84.9z
	 M36.4,82.6c0.5-1.1,1-2.2,1.3-3.4l1.7,0.4c-0.3,1.5-0.7,2.9-1.3,4.3l-1.7-0.8v1.1c1.5,0.8,2.5,1.6,3.2,2.2l-1.2,2
	c-0.6-0.7-1.2-1.3-2-2v4c0,0.4,0.2,0.6,0.5,0.6H37c0.2,0,0.4-0.1,0.5-0.2c0.1-0.1,0.2-0.8,0.2-2l1.9,0.4c-0.1,1.6-0.3,2.6-0.7,3.1
	c-0.3,0.4-0.7,0.5-1.4,0.5h-1.6c-1,0-1.5-0.6-1.5-1.9V77.7h2L36.4,82.6L36.4,82.6z"/>
<path class="st0" d="M44.5,82.7c-0.3,3-0.8,5.5-1.5,7.5l-2.2-0.9c0.9-1.9,1.4-4.2,1.7-7L44.5,82.7L44.5,82.7z M47.5,88.8
	c0,0.6,0.1,1,0.2,1.2c0.2,0.2,0.6,0.3,1.2,0.3h1.2c0.3,0,0.6-0.1,0.7-0.3c0.2-0.3,0.2-1.4,0.3-3.3l2.2,1c-0.2,2-0.5,3.3-0.8,3.9
	c-0.4,0.6-1.2,1-2.1,1h-2c-1.3,0-2.2-0.2-2.5-0.7c-0.4-0.5-0.5-1.3-0.5-2.5v-7.5h2.1L47.5,88.8L47.5,88.8z M51.9,80.8l-1.6,1.9
	c-1.4-1.6-2.7-2.9-3.9-3.8l1.6-1.4C49.7,78.8,51,79.9,51.9,80.8z M56.7,88.8l-2.4,0.8c-0.6-2.6-1.2-4.9-2-6.8l2-0.6
	C55,83.8,55.8,86,56.7,88.8L56.7,88.8z"/>
<path class="st0" d="M66,79.3c-0.9,0.2-1.9,0.4-3,0.5v2.1h0.4c0.3-0.5,0.5-1.1,0.7-1.8l1.5,0.3c-0.2,0.6-0.4,1-0.5,1.4h1v1.7h-3v1.7
	h-1.7v-1.4c-0.3,0.6-0.7,1.1-1.1,1.6h4.4c-0.5-0.3-1-0.5-1.4-0.7l0.8-1c0.7,0.2,1.6,0.6,2.6,1.2L66,86.3c-0.1-0.1-0.2-0.1-0.2-0.2v7
	h-1.7v-0.7h-3.8v0.7h-1.6V87c-0.1,0.1-0.2,0.2-0.3,0.2l-0.6-1.9c0.9-0.6,1.6-1.2,2-1.9H58v-1.7h1.5c-0.2-0.4-0.4-0.9-0.6-1.3
	l1.4-0.2c0.3,0.5,0.5,1,0.7,1.6h0.4v-1.9c-0.8,0-1.7,0.1-2.6,0.1l-0.5-1.8c2.9,0,5.3-0.2,7.1-0.5L66,79.3L66,79.3z M61.5,88.2v-1
	h-1.1v1H61.5z M61.5,90.7v-1.1h-1.1v1.1H61.5z M62.9,88.2h1.2v-1h-1.2V88.2z M64.1,90.7v-1.1h-1.2v1.1H64.1z M69.6,78.1v3l0.9-0.2
	c0.3,0.9,0.6,1.8,0.7,2.6V80h-1.4v-1.9h3.2v13.2c0,1.2-0.6,1.7-1.7,1.7h-1l-0.3-2.1c0.4,0.1,0.7,0.1,0.7,0.1c0.3,0,0.4-0.2,0.4-0.5
	V88c-0.4,0.6-0.7,1-1,1.5l-0.6-1.2v2.9c0,1.2-0.6,1.7-1.7,1.7h-1.1l-0.3-2c0.5,0,0.8,0.1,0.9,0.1c0.3,0,0.4-0.2,0.4-0.5V88
	c-0.3,0.6-0.6,1-0.9,1.4l-1-1.9c0.6-0.4,1.3-1.1,1.9-2v-1l-1.1,0.3c-0.1-1.1-0.3-2.3-0.7-3.6l1.1-0.3c0.3,0.9,0.5,1.7,0.7,2.5V80
	h-1.6v-1.9L69.6,78.1L69.6,78.1z M71.2,85.5v-1l-1.1,0.3c-0.1-0.8-0.2-1.7-0.5-2.6v5.1C70.2,86.8,70.7,86.2,71.2,85.5z"/>
<path class="st0" d="M77.3,78.7v-1.1h1.9v1.1h2.1v1.7h-2.1v0.8h2.1v7.5h-2.1v0.9h2.1V91h-2.1v2.1h-1.9V91h-2.5v-1.6h2.5v-0.9h-2
	v-7.5h2v-0.8h-2.5v-1.7H77.3z M77.6,84.1v-1.4h-0.7v1.4H77.6z M77.6,85.5h-0.7V87h0.7V85.5z M79,84.1h0.7v-1.4H79V84.1z M79.6,85.5
	H79V87h0.7V85.5z M86.6,88.4v-0.7h2v0.7h1.9V90h-1.9v1.6c0,1-0.5,1.5-1.4,1.5h-1.9L85,91.3c0.7,0.1,1.1,0.1,1.2,0.1
	c0.2,0,0.4-0.1,0.4-0.3V90h-3.1c0.5,0.4,0.9,0.9,1.3,1.5l-1.5,1.1C83,92,82.6,91.4,82,90.8l1.3-0.9h-1.7v-1.5L86.6,88.4L86.6,88.4z
	 M85.1,78.2v-0.7h1.9v0.7h3.4v1.6h-3.4v0.7H90v5h-0.8c0.5,0.5,1,1.2,1.3,1.8l-1.4,0.9c-0.1-0.2-0.2-0.5-0.4-0.7
	c-2.4,0.2-4.7,0.2-6.9,0.2l-0.2-1.6c1,0.1,1.7,0.1,1.9,0.1h1.4v-0.7H82v-5h3.1v-0.7h-3.4v-1.6L85.1,78.2L85.1,78.2z M85.1,82.6v-0.7
	h-1.4v0.7H85.1z M85.1,83.5h-1.4v0.7h1.4V83.5z M86.9,82.6h1.4v-0.7h-1.4V82.6z M88.4,83.5h-1.4v0.7h1.4V83.5z M87.5,85.5h-0.6v0.7
	H88C87.8,86,87.6,85.8,87.5,85.5z"/>
<path class="st0" d="M100.3,87.3c-0.3,0.4-0.8,0.7-1.5,1.2l-0.7-1.1c0.8-0.4,1.2-0.8,1.4-1.2h-1v-2.4h2.4v1.8
	C100.8,86.2,100.6,86.8,100.3,87.3L100.3,87.3z"/>
<path class="st0" d="M115.5,79.8v-2.1h2.2v2.1h5.1v2h-5.1v1.8h6v2h-5c1.6,1.9,3.5,3.3,5.9,4.2l-1.5,2.2c-1.1-0.4-2.4-1.4-3.9-2.9
	c-0.6-0.6-1.1-1.2-1.6-1.9V93h-2.2v-5.6c-0.6,0.7-1.2,1.3-1.8,1.8c-1.2,1.1-2.4,2-3.7,2.6l-1.3-2.3c1.6-0.6,3.1-1.5,4.3-2.5
	c0.5-0.4,1-0.9,1.6-1.5h-5.4v-2h6.2v-1.8h-5.3v-2L115.5,79.8L115.5,79.8z"/>
<path class="st0" d="M132.3,79v-1.4h2.2V79h6.4v2.1h-6.4v3.5c0.1,0.2,0.2,0.4,0.4,0.6c0.9-1,1.5-2.2,2-3.7l2.1,0.3
	c-0.2,0.6-0.5,1.2-0.7,1.8c1.1,0.8,2,1.5,2.6,2.1l-1.2,1.9c-0.6-0.9-1.4-1.7-2.2-2.5c-0.4,0.6-0.8,1.1-1.2,1.6
	c1.2,1.2,2.9,2.4,4.9,3.4l-1.1,2.2c-2.3-1.4-4-2.9-5.2-4.7c-0.1-0.2-0.2-0.3-0.3-0.5V93h-2.2v-5.5c-0.5,0.6-1,1.2-1.4,1.6
	c-1.3,1.3-2.6,2.4-3.9,3.2l-1.2-2.1c1.7-0.8,3.2-1.9,4.5-3.2c0.1-0.1,0.3-0.3,0.4-0.4c-0.5-0.6-1-1.1-1.6-1.7
	c-0.6,1-1.3,1.9-2.1,2.7l-1.1-1.7c1.2-1.1,2.1-2.6,2.6-4.5l2.1,0.3c-0.2,0.6-0.4,1.2-0.7,1.7c0.9,0.6,1.6,1.1,2.1,1.6
	c0.1-0.1,0.1-0.2,0.2-0.3v-3.6H126V79L132.3,79L132.3,79z"/>
<path class="st0" d="M157.4,78.5v2h-4.8v3.7h4v2h-4v4.3h5.2v2.1h-14.9v-2.1h2.4v-8h2.2v8h2.7v-10h-6.5v-2L157.4,78.5L157.4,78.5z"/>
<path class="st0" d="M168,80.4c0-0.9-0.1-1.8-0.1-2.7h2.2c0,1,0,1.9,0.1,2.7h2.1c-0.4-0.6-0.9-1.1-1.4-1.7l1.4-0.9
	c0.6,0.6,1.2,1.2,1.8,1.9l-0.9,0.7h1.7v2h-4.6c0.1,1.8,0.2,3.1,0.3,4c0.2,1.3,0.5,2.3,0.9,3c0.3,0.6,0.6,0.9,0.8,0.9
	c0.3,0,0.5-0.5,0.5-1.6c0,0,0-0.3,0.1-1l1.9,1.1c-0.1,1.6-0.4,2.7-0.8,3.2c-0.4,0.5-1,0.8-1.7,0.8c-0.6,0-1.2-0.4-1.9-1.2
	c-0.8-1-1.3-2.3-1.6-3.8c-0.3-1.3-0.5-3.1-0.6-5.4h-8.3v-2.1L168,80.4L168,80.4z M167.8,84.2v2h-2.7v2.9c1-0.2,2.1-0.3,3.1-0.6v2.1
	c-2.4,0.5-5.1,0.9-8,1.3l-0.4-2.2c1.1-0.1,2.1-0.2,3.1-0.3v-3.2h-2.6v-2.1L167.8,84.2L167.8,84.2z"/>
<path class="st0" d="M185.6,78.2v2h-4.4c-0.3,0.9-0.8,1.8-1.4,2.7c1.1,0,2.1-0.1,3.1-0.2c-0.3-0.6-0.6-1.1-1-1.6l1.6-0.5
	c1,1.4,1.8,2.7,2.4,3.9l-1.8,0.9c-0.1-0.3-0.3-0.7-0.4-1c-0.5,0.1-1.1,0.2-1.6,0.2v1.8h3v1.9h-3V90c1.2-0.2,2.3-0.3,3.5-0.5v2.1
	c-2.6,0.5-5.5,0.9-8.7,1.2l-0.4-2.2c1.2-0.1,2.3-0.2,3.5-0.3v-2h-2.8v-1.9h2.8v-1.6c-1,0.1-2,0.1-3,0.1l-0.3-2c0.2,0,0.5,0,0.8,0
	c0.7-0.9,1.2-1.8,1.6-2.8h-2.3v-2L185.6,78.2L185.6,78.2z M188.1,79v9.7h-2.1V79H188.1z M191.4,91.1c0,1.2-0.6,1.8-1.6,1.8h-2.7
	l-0.4-2.4c1.4,0.1,2.1,0.2,2.2,0.2c0.2,0,0.4-0.2,0.4-0.6V77.6h2.1L191.4,91.1L191.4,91.1z"/>
<path class="st0" d="M200,79v-1.4h2.2V79h6.4v2.1h-6.4v3.5c0.1,0.2,0.2,0.4,0.4,0.6c0.9-1,1.5-2.2,2-3.7l2.1,0.3
	c-0.2,0.6-0.5,1.2-0.7,1.8c1.1,0.8,2,1.5,2.6,2.1l-1.2,1.9c-0.6-0.9-1.3-1.7-2.2-2.5c-0.4,0.6-0.8,1.1-1.2,1.6
	c1.2,1.2,2.9,2.4,4.9,3.4l-1.1,2.2c-2.3-1.4-4-2.9-5.2-4.7c-0.1-0.2-0.2-0.3-0.3-0.5V93h-2.2v-5.5c-0.5,0.6-1,1.2-1.4,1.6
	c-1.3,1.3-2.6,2.4-3.9,3.2l-1.2-2.1c1.7-0.8,3.2-1.9,4.5-3.2c0.1-0.1,0.3-0.3,0.4-0.4c-0.5-0.6-1-1.1-1.6-1.7
	c-0.6,1-1.3,1.9-2.1,2.7l-1.1-1.7c1.2-1.1,2.1-2.6,2.6-4.5l2,0.3c-0.2,0.6-0.4,1.2-0.7,1.7c0.9,0.6,1.6,1.1,2.1,1.6
	c0.1-0.1,0.2-0.2,0.2-0.3v-3.6h-6.3V79L200,79L200,79z"/>
<path class="st0" d="M218.9,88.3h-1.7l-0.6-9.2h2.8L218.9,88.3L218.9,88.3z M216.9,91.7v-2.4h2.4v2.4H216.9z"/>
<path class="st0" d="M27.3,112.3v7.3H26v-7.3h-2.6v-1.2h6.5v1.2H27.3z"/>
<path class="st0" d="M34.5,116.2h-1v3.4h-1.3v-8.5h2.2c2.4,0,3.5,0.9,3.5,2.5C38,115.3,36.8,116.2,34.5,116.2z M34.9,112.3h-1.4v2.7
	h1.4c1.2,0,1.7-0.4,1.7-1.3S36.1,112.3,34.9,112.3z"/>
<path class="st0" d="M45.4,119.5l-0.9-2.2h-3.5l-0.9,2.2h-1.4l3.5-8.5h1.1l3.5,8.5H45.4z M42.7,112.9l-1.3,3.2H44L42.7,112.9
	L42.7,112.9z"/>
<path class="st0" d="M49.9,119.7c-0.9,0-1.5-0.2-2-0.8c-0.5-0.5-0.7-1.2-0.7-2.1h1.3c0,0.6,0.2,1,0.4,1.3c0.3,0.3,0.7,0.4,1.3,0.4
	c0.4,0,0.8-0.1,1.1-0.3c0.3-0.2,0.5-0.5,0.5-0.9c0-0.4-0.3-0.7-0.8-1c-0.4-0.2-0.9-0.3-1.3-0.5c-0.8-0.3-1.3-0.6-1.6-0.8
	c-0.5-0.4-0.8-0.9-0.8-1.6c0-0.8,0.3-1.3,0.8-1.8c0.5-0.4,1.2-0.6,1.9-0.6c0.8,0,1.5,0.2,2,0.6c0.5,0.4,0.8,1.1,0.9,2h-1.3
	c0-0.9-0.5-1.4-1.5-1.4c-0.4,0-0.8,0.1-1,0.3c-0.3,0.2-0.5,0.5-0.5,0.9s0.2,0.7,0.6,0.9c0.1,0.1,0.4,0.2,1,0.4
	c1,0.4,1.6,0.7,1.9,0.9c0.6,0.4,1,1,1,1.7C53.1,118.8,52,119.7,49.9,119.7L49.9,119.7z"/>
<path class="st0" d="M56.3,119.7c-0.9,0-1.5-0.2-2-0.8c-0.5-0.5-0.7-1.2-0.7-2.1H55c0,0.6,0.2,1,0.4,1.3c0.3,0.3,0.7,0.4,1.3,0.4
	c0.4,0,0.8-0.1,1.1-0.3c0.3-0.2,0.5-0.5,0.5-0.9c0-0.4-0.3-0.7-0.8-1c-0.4-0.2-0.8-0.3-1.3-0.5c-0.8-0.3-1.3-0.6-1.6-0.8
	c-0.5-0.4-0.8-0.9-0.8-1.6c0-0.8,0.3-1.3,0.8-1.8c0.5-0.4,1.2-0.6,1.9-0.6c0.8,0,1.5,0.2,2,0.6c0.5,0.4,0.8,1.1,0.9,2h-1.3
	c0-0.9-0.5-1.4-1.5-1.4c-0.4,0-0.8,0.1-1.1,0.3c-0.3,0.2-0.5,0.5-0.5,0.9s0.2,0.7,0.6,0.9c0.1,0.1,0.4,0.2,1,0.4
	c1,0.4,1.6,0.7,1.9,0.9c0.6,0.4,1,1,1,1.7C59.6,118.8,58.5,119.7,56.3,119.7L56.3,119.7z"/>
<path class="st0" d="M64.9,110.7c0.2-0.5,0.4-1,0.6-1.5l1.2,0.1c-0.2,0.5-0.4,1-0.5,1.4h5.4v1h-5.9c-0.2,0.4-0.5,0.8-0.8,1.2
	c-0.3,0.4-0.6,0.8-1,1.2v5.6h-1.1v-4.5c-0.3,0.2-0.5,0.4-0.8,0.6l-0.7-0.9c1.1-0.8,2-1.7,2.7-2.6c0.1-0.2,0.3-0.4,0.4-0.6h-3.1v-1
	L64.9,110.7L64.9,110.7z M67.4,114.6v-2.3h1.1v2.3h2.6v1h-2.6v2.8h3v1h-7.4v-1h3.2v-2.8h-2.7v-1H67.4z"/>
<path class="st0" d="M82.7,110.3c-1.2,0.3-2.5,0.5-4,0.7v1.6h3.8v1.1h-3.8v1.6h4.4v1.1h-4.4v2.1c0,0.4-0.1,0.8-0.3,0.9
	c-0.2,0.2-0.5,0.3-1,0.3h-1.8l-0.3-1.2c0.7,0.1,1.3,0.1,1.8,0.1c0.3,0,0.4-0.1,0.4-0.3v-1.9h-5v-1.1h5v-1.6h-4.3v-1.1h4.3v-1.5
	c-1.3,0.1-2.7,0.1-4.2,0.1l-0.4-1.1c3.6,0,6.6-0.3,9.2-0.8L82.7,110.3L82.7,110.3z"/>
<path class="st0" d="M89.8,115.8c-0.2,0.2-0.5,0.5-0.9,0.7l-0.4-0.6c0.5-0.3,0.8-0.6,0.9-1h-0.7v-1.4h1.4v1.1
	C90.1,115.1,90,115.5,89.8,115.8L89.8,115.8z"/>
<path class="st0" d="M100.8,115.2h-3.5v2.8c0.7-0.1,1.4-0.3,2.1-0.6c-0.2-0.5-0.4-1-0.6-1.5l1-0.3c0.5,1,0.9,2.2,1.2,3.5l-1.1,0.3
	c-0.1-0.3-0.2-0.7-0.3-1c-1.1,0.4-2.4,0.7-3.8,1.1l-0.3-1.1c0.2,0,0.4-0.1,0.6-0.1v-8.6h4.5L100.8,115.2L100.8,115.2z M99.7,111.9
	v-1.4h-2.4v1.4H99.7z M99.7,114.2v-1.3h-2.4v1.3H99.7z M105.9,117.5c0,0.4-0.1,0.7-0.3,0.9c-0.2,0.2-0.4,0.3-0.7,0.3h-1.4l-0.2-1.1
	l1.2,0.1c0.2,0,0.4-0.2,0.4-0.5v-6.5h-2v9.2h-1.1v-10.2h4.2L105.9,117.5L105.9,117.5z"/>
<path class="st0" d="M110.6,110.3h2.8v1h-2.8c-0.3,0.6-0.6,1.3-1.1,1.8c0.6,0,1.1,0,1.6-0.1c0.2-0.4,0.5-0.8,0.8-1.2l0.8,0.4
	c-0.6,1.2-1.4,2.2-2.2,3c-0.7,0.7-1.7,1.2-2.9,1.7l-0.5-0.8c1.2-0.5,2.1-1,2.8-1.6c0.2-0.2,0.4-0.3,0.6-0.5c-0.8,0.1-1.8,0.1-3,0.2
	l-0.1-0.9c0.3,0,0.7,0,1,0c0.5-0.6,0.9-1.2,1.2-1.9h-2.3v-1h2.3c-0.2-0.3-0.3-0.6-0.5-0.9l1.1-0.1
	C110.3,109.6,110.4,109.9,110.6,110.3z M113.4,114.6c-0.6,0.9-1.3,1.7-1.9,2.3c0.6,0.5,1.2,1,1.8,1.5l-0.6,1
	c-0.6-0.7-1.3-1.3-1.9-1.8c-0.9,0.7-1.9,1.4-3.2,2.1l-0.6-1c1.1-0.5,2.2-1.1,3.2-2.1c0.8-0.7,1.5-1.6,2.3-2.7L113.4,114.6
	L113.4,114.6z M115,110.1v7.5h-1.1v-7.5H115z M117.2,109.2v9.2c0,0.4-0.1,0.8-0.3,0.9c-0.2,0.2-0.5,0.3-1,0.3h-1.4l-0.3-1.2
	c0.5,0.1,1,0.1,1.4,0.1c0.3,0,0.4-0.1,0.4-0.3v-9H117.2z"/>
<path class="st0" d="M119.6,111.4v-2.1h1v2.1h0.9v0.9h-0.9v2.4c0.2-0.1,0.5-0.3,0.7-0.5l-0.1-0.6c0.2,0,0.3,0,0.5,0
	c0.4-0.6,0.7-1.4,1-2.3l0.8,0.2c-0.2,0.7-0.5,1.4-0.8,2c0.2,0,0.4-0.1,0.6-0.1c0.1-0.3,0.3-0.6,0.4-1l0.8,0.3
	c-0.5,1.3-1.1,2.3-1.7,3.2c0.2,0,0.5-0.1,0.7-0.1c0-0.2,0.1-0.5,0.1-0.7h0.8c0,1.2-0.3,2.2-0.8,2.9c-0.4,0.6-1.2,1.2-2.2,1.8
	l-0.5-0.8c0.9-0.4,1.5-0.8,1.9-1.4c0.2-0.2,0.3-0.6,0.5-0.9c-0.6,0.1-1.2,0.3-1.9,0.4l-0.2-0.9c0.2,0,0.4,0,0.6-0.1
	c0.3-0.5,0.7-1.1,1-1.8c-0.4,0.1-1,0.2-1.6,0.2v0.7c-0.3,0.2-0.5,0.4-0.8,0.5v3c0,0.4-0.1,0.7-0.2,0.8c-0.2,0.2-0.5,0.2-0.9,0.2
	h-0.5l-0.2-1.1c0.2,0.1,0.4,0.1,0.5,0.1c0.3,0,0.4-0.1,0.4-0.3v-2.3c-0.3,0.1-0.6,0.2-0.8,0.3l-0.1-1.1c0.3,0,0.6-0.2,1-0.3v-2.9h-1
	v-0.9L119.6,111.4L119.6,111.4z M126.1,110.2h3v0.9h-7.6v-0.9h3.4c-0.2-0.3-0.3-0.6-0.5-0.9l1.2-0.2
	C125.8,109.5,125.9,109.9,126.1,110.2L126.1,110.2z M126.3,111.7c-0.1,0.4-0.2,0.7-0.4,1h1.2c-0.2-0.4-0.4-0.7-0.6-1.1l0.9-0.1
	c0.2,0.4,0.4,0.8,0.6,1.2h0.9v0.9h-1.1v0.9h0.9v0.8h-0.9v0.9h0.9v0.8h-0.9v1.1h1.3v0.9h-3.3v0.7h-0.9v-5.3c-0.1,0.2-0.3,0.3-0.4,0.5
	l-0.3-1c0.3-0.4,0.5-0.7,0.8-1.1c0.2-0.3,0.4-0.8,0.6-1.5L126.3,111.7L126.3,111.7z M127,113.5h-1.2v0.9h1.2V113.5z M127,115.3h-1.2
	v0.9h1.2V115.3z M127,118.2V117h-1.2v1.1H127z"/>
<path class="st0" d="M134.1,110.5c0.2-0.4,0.4-0.8,0.5-1.2l1.2,0.1c-0.1,0.4-0.3,0.8-0.4,1.1h5.2v1h-5.7c-0.2,0.4-0.4,0.7-0.7,1h5.4
	v6.1c0,0.3-0.1,0.6-0.3,0.8c-0.2,0.2-0.5,0.3-0.9,0.3h-1.8l-0.2-1l1.8,0c0.2,0,0.3-0.1,0.3-0.3v-1.1h-5v2.4h-1.1v-5.2
	c-0.5,0.5-1.1,0.9-1.7,1.3l-0.7-0.9c1.2-0.8,2.1-1.7,2.9-2.6c0.2-0.2,0.4-0.5,0.6-0.8h-3.2v-1L134.1,110.5L134.1,110.5z
	 M138.5,114.5v-0.9h-5v0.9H138.5z M138.5,116.4v-1.1h-5v1.1H138.5z"/>
<path class="st0" d="M146,109.4v8c0.3-0.1,0.7-0.2,1-0.4v1.1c-1.5,0.6-3.2,1.1-5.2,1.6l-0.3-1.3c1.1-0.2,2.3-0.4,3.4-0.7V114h-3.2
	v-1.1h3.2v-3.5L146,109.4L146,109.4z M148.7,109.4v3.9c1.1-0.5,2-1,2.7-1.6l0.7,1c-1,0.7-2.1,1.3-3.4,1.8v3.4c0,0.2,0.1,0.3,0.1,0.4
	c0.1,0.1,0.2,0.1,0.4,0.1h1.2c0.1,0,0.3,0,0.4-0.1c0.1-0.1,0.2-0.8,0.3-2.2l1.1,0.4c-0.1,1.5-0.3,2.3-0.5,2.6
	c-0.2,0.3-0.6,0.4-1,0.4h-1.8c-0.4,0-0.7-0.1-0.9-0.3c-0.3-0.3-0.4-0.7-0.4-1.1v-8.7H148.7L148.7,109.4z"/>
<path class="st0" d="M157.5,109.4v8c0.3-0.1,0.7-0.2,1-0.4v1.1c-1.5,0.6-3.2,1.1-5.2,1.6l-0.3-1.3c1.1-0.2,2.3-0.4,3.4-0.7V114h-3.2
	v-1.1h3.2v-3.5L157.5,109.4L157.5,109.4z M160.2,109.4v3.9c1.1-0.5,2-1,2.7-1.6l0.7,1c-1,0.7-2.1,1.3-3.4,1.8v3.4
	c0,0.2,0.1,0.3,0.1,0.4c0.1,0.1,0.2,0.1,0.4,0.1h1.2c0.1,0,0.3,0,0.4-0.1c0.1-0.1,0.2-0.8,0.3-2.2l1.1,0.4c-0.1,1.5-0.3,2.3-0.5,2.6
	c-0.2,0.3-0.6,0.4-1,0.4h-1.8c-0.4,0-0.7-0.1-0.9-0.3c-0.3-0.3-0.4-0.7-0.4-1.1v-8.7H160.2L160.2,109.4z"/>
<path class="st0" d="M166.6,110.2v-0.9h1v0.9h4.4v-0.9h1v0.9h1.8v0.9h-1.8v3.6h1.9v0.9h-2c0.2,0.2,0.5,0.4,0.7,0.6
	c0.4,0.2,0.9,0.5,1.6,0.7l-0.4,1c-0.6-0.3-1.1-0.5-1.5-0.8v0.7h-3v0.9h4.2v0.9h-9.4v-0.9h4.2v-0.9h-2.9V117c-0.5,0.3-1,0.5-1.5,0.7
	l-0.5-0.9c0.8-0.3,1.4-0.5,1.9-0.8c0.2-0.1,0.4-0.3,0.6-0.5h-2.1v-0.9h1.9v-3.6h-1.8v-0.9H166.6L166.6,110.2z M169.3,116.8v-0.9h1
	v0.9h2.7c-0.1-0.1-0.1-0.1-0.2-0.1c-0.4-0.2-0.7-0.6-1.1-1.2h-3.7c-0.3,0.4-0.6,0.7-0.9,0.9c-0.2,0.1-0.3,0.2-0.5,0.3H169.3
	L169.3,116.8z M172.1,111.7v-0.6h-4.4v0.6H172.1z M172.1,113.2v-0.7h-4.4v0.7H172.1z M172.1,114.6V114h-4.4v0.7H172.1z"/>
<path class="st0" d="M177.6,111.4v-2.2h1v2.2h1.1v0.9h-1.1v0.2c0.4,0.5,0.9,1,1.3,1.6l-0.6,0.9c-0.3-0.5-0.5-0.9-0.7-1.2v6h-1v-5.2
	c-0.3,0.9-0.7,1.7-1.1,2.4l-0.4-1.2c0.6-1,1.1-2.1,1.5-3.4h-1.3v-0.9L177.6,111.4L177.6,111.4z M182.6,109.2v5.3
	c0,1.2-0.2,2.2-0.5,2.9c-0.3,0.8-0.9,1.6-1.8,2.4l-0.9-0.8c0.8-0.6,1.4-1.2,1.7-2c0.2-0.4,0.3-0.9,0.4-1.6c-0.5,0.4-1.1,0.8-1.7,1.1
	l-0.5-0.9c0.8-0.3,1.5-0.8,2.3-1.5v-5L182.6,109.2L182.6,109.2z M181.5,113.2l-0.9,0.4c-0.3-1-0.6-1.8-0.9-2.6l0.9-0.3
	C180.9,111.5,181.2,112.3,181.5,113.2L181.5,113.2z M184.2,109.2v4.4c0.9,0.5,1.7,1.2,2.4,1.9l-0.6,0.9c-0.6-0.6-1.2-1.2-1.8-1.6
	v3.5c0,0.2,0.1,0.3,0.4,0.3h0.4c0.1,0,0.2-0.1,0.3-0.2c0.1-0.1,0.1-0.7,0.1-1.6l1,0.3c-0.1,1.2-0.2,1.8-0.4,2.1
	c-0.2,0.2-0.5,0.3-0.9,0.3h-1c-0.3,0-0.6-0.1-0.8-0.2c-0.2-0.2-0.3-0.4-0.3-0.7v-9.3H184.2L184.2,109.2z M186.5,111.1
	c-0.4,0.9-0.7,1.7-1.2,2.4l-0.8-0.6c0.4-0.6,0.8-1.3,1.2-2.1L186.5,111.1L186.5,111.1z"/>
<path class="st0" d="M198.1,113.5v0.9h-5.2v5.5h-1v-1.2c-1.2,0.1-2.6,0.3-4.1,0.4l-0.2-1c0.3,0,0.7,0,1-0.1v-3.8h-1v-0.9H198.1z
	 M197.1,109.5v3.5h-8.2v-3.5H197.1z M191.9,115.1v-0.7h-2.3v0.7H191.9z M191.9,116.5v-0.7h-2.3v0.7H191.9z M191.9,117.9v-0.6h-2.3
	v0.8C190.4,118,191.1,118,191.9,117.9L191.9,117.9z M195.9,110.9v-0.6h-6v0.6H195.9z M195.9,111.6h-6v0.6h6V111.6z M197.7,115v0.7
	c-0.2,1-0.7,1.9-1.4,2.6c0.5,0.3,1.1,0.5,1.8,0.7l-0.5,0.8c-0.8-0.3-1.5-0.6-2-0.9c-0.6,0.4-1.2,0.7-2.1,0.9L193,119
	c0.7-0.2,1.3-0.5,1.8-0.8c-0.5-0.5-0.9-1.1-1.3-1.7l0.8-0.5c0.3,0.7,0.8,1.2,1.2,1.7c0.1-0.1,0.1-0.1,0.2-0.2c0.4-0.5,0.7-1,0.9-1.7
	h-3.4V115L197.7,115L197.7,115z"/>
<path class="st0" d="M202.5,109.7c-0.1,0.5-0.3,0.9-0.5,1.2h1.8v-1.7h1.1v1.7h3.7v1H205v2h4.5v1h-3.2v3.4c0,0.3,0.1,0.4,0.4,0.4h1.1
	c0.3,0,0.5-0.1,0.6-0.2c0.1-0.1,0.2-0.8,0.3-2l1.1,0.3c-0.1,1.5-0.3,2.3-0.6,2.6c-0.2,0.3-0.6,0.4-1.2,0.4h-1.7
	c-0.4,0-0.6-0.1-0.8-0.3c-0.2-0.2-0.3-0.5-0.3-0.8v-3.7h-1.7c-0.1,1.3-0.4,2.3-0.9,3c-0.6,0.8-1.5,1.4-2.8,2l-0.8-1
	c1.2-0.5,2-1,2.5-1.5c0.4-0.5,0.7-1.3,0.8-2.5h-3v-1h4.6v-2h-2.3c-0.3,0.6-0.7,1.1-1.1,1.6l-1-0.7c0.9-1.1,1.6-2.2,1.9-3.4
	L202.5,109.7L202.5,109.7z"/>
<path class="st0" d="M211.8,111.4v-2.2h1v2.2h0.9v0.9h-0.9v0.6c0.4,0.5,0.8,1.1,1.2,1.7l-0.2,0.3h1c0-0.2,0-0.5,0-0.8
	c-0.2,0-0.5,0.1-0.8,0.1l-0.2-0.8c0.2,0,0.3,0,0.5,0c0.2-0.3,0.5-0.8,0.8-1.2c-0.4,0.1-0.8,0.2-1.2,0.2l-0.2-0.8c0.1,0,0.3,0,0.4,0
	c0.4-0.7,0.6-1.4,0.8-2.2l0.8,0.1c-0.2,0.7-0.4,1.3-0.8,1.9c0.2,0,0.3-0.1,0.5-0.1c0.1-0.3,0.3-0.6,0.4-0.9l0.8,0.3
	c-0.5,1.1-1,1.9-1.5,2.6c0.3,0,0.5-0.1,0.8-0.1c-0.1-0.2-0.1-0.4-0.2-0.7l0.6-0.1c0.2,0.6,0.4,1.2,0.6,1.7l-0.7,0.3
	c0-0.2-0.1-0.4-0.1-0.5c-0.2,0-0.3,0.1-0.5,0.1c0,0.3,0,0.7,0,0.9h1.5c-0.2-1.2-0.3-3.1-0.3-5.7h0.9c0.1,2.7,0.2,4.6,0.3,5.7h1.1
	c-0.1-0.2-0.2-0.5-0.3-0.7c-0.2,0-0.4,0-0.6,0.1l-0.2-0.8c0.2,0,0.4,0,0.5,0c0.2-0.4,0.5-0.8,0.8-1.4c-0.4,0.1-0.8,0.2-1.2,0.2
	l-0.2-0.8c0.1,0,0.3,0,0.4,0c0.3-0.7,0.6-1.4,0.7-2.2l0.8,0.1c-0.2,0.7-0.4,1.4-0.7,2c0.2,0,0.4,0,0.5-0.1c0.1-0.2,0.2-0.5,0.3-0.8
	l0.8,0.3c-0.5,1-0.9,1.9-1.4,2.5c0.3,0,0.5-0.1,0.7-0.1c-0.1-0.2-0.1-0.4-0.2-0.6l0.6-0.1c0.2,0.6,0.4,1.2,0.6,1.7l-0.7,0.3
	c0-0.2-0.1-0.3-0.1-0.5c-0.2,0.1-0.4,0.1-0.6,0.1c0.1,0.2,0.2,0.5,0.3,0.8h1.1v0.8h-2.8c0.1,0.5,0.2,0.9,0.4,1.3
	c0.2-0.3,0.5-0.6,0.8-1l0.8,0.4c-0.4,0.6-0.7,1.1-1.1,1.5c0.4,0.6,0.7,0.9,0.9,0.9c0.1,0,0.1-0.1,0.1-0.1c0.1-0.1,0.1-0.6,0.1-1.5
	l0.9,0.5c-0.1,0.9-0.3,1.4-0.4,1.7c-0.2,0.2-0.4,0.3-0.7,0.3c-0.5,0-1-0.4-1.6-1.2c0,0,0,0,0,0c-0.5,0.4-1.2,0.8-2.1,1.1l-0.5-0.8
	c0.8-0.3,1.5-0.7,2.1-1.1c0,0,0.1-0.1,0.1-0.1c-0.2-0.5-0.5-1.2-0.6-1.9h-1.7c0,0.2,0,0.3,0,0.4c0.5,0.4,1.1,0.8,1.5,1.2l-0.5,0.8
	c-0.4-0.4-0.8-0.8-1.1-1.1c-0.2,0.6-0.3,1.1-0.6,1.4c-0.2,0.4-0.6,0.8-1.1,1.3l-0.7-0.9c0.5-0.4,0.8-0.9,1.1-1.3
	c0.2-0.3,0.3-0.9,0.5-1.6c0-0.1,0-0.2,0-0.2h-1.1v-0.5l-0.2,0.3c-0.3-0.5-0.5-0.9-0.7-1.3v5.6h-1v-5c-0.3,0.8-0.6,1.4-0.9,2
	l-0.4-1.1c0.5-0.9,1-1.9,1.4-3.1v-0.3h-1.2v-0.9L211.8,111.4L211.8,111.4z"/>
<path class="st0" d="M25.2,132.6v-2.2h1v2.2h1.1v0.9h-1.1v0.2c0.4,0.5,0.9,1,1.3,1.6l-0.6,0.9c-0.3-0.5-0.5-0.9-0.7-1.2v6h-1v-5.2
	c-0.3,0.9-0.7,1.7-1.1,2.4l-0.5-1.2c0.6-1,1.1-2.1,1.5-3.4h-1.3v-0.9L25.2,132.6L25.2,132.6z M30.1,130.4v5.3c0,1.2-0.2,2.2-0.5,2.9
	c-0.3,0.8-0.9,1.6-1.8,2.4l-0.8-0.8c0.8-0.6,1.3-1.2,1.7-2c0.2-0.4,0.3-0.9,0.4-1.6c-0.5,0.4-1.1,0.8-1.7,1.1l-0.5-0.9
	c0.8-0.3,1.5-0.8,2.3-1.4v-5L30.1,130.4L30.1,130.4z M29,134.4l-0.9,0.4c-0.3-1-0.5-1.8-0.8-2.6l0.9-0.3
	C28.5,132.7,28.8,133.5,29,134.4L29,134.4z M31.7,130.4v4.4c0.9,0.5,1.7,1.1,2.4,1.9l-0.6,0.9c-0.6-0.6-1.2-1.2-1.8-1.6v3.5
	c0,0.2,0.1,0.3,0.4,0.3h0.5c0.1,0,0.2-0.1,0.3-0.2s0.1-0.7,0.1-1.6l1,0.3c-0.1,1.2-0.2,1.8-0.4,2.1c-0.2,0.2-0.5,0.3-0.9,0.3h-1
	c-0.3,0-0.6-0.1-0.8-0.2c-0.2-0.2-0.3-0.4-0.3-0.7v-9.3H31.7L31.7,130.4z M34,132.3c-0.3,0.9-0.7,1.7-1.2,2.4L32,134
	c0.4-0.6,0.9-1.3,1.2-2.1L34,132.3L34,132.3z"/>
<path class="st0" d="M45.6,140.9h-1v-0.4h-7.9v0.4h-1v-10.2h9.9V140.9z M44.6,139.6v-7.9h-7.9v7.9H44.6z M43.7,134.9v2.1h-3.2
	c-0.1,0.1-0.1,0.1-0.2,0.2v2.2h-0.9V138c-0.6,0.4-1.3,0.8-2.1,1l-0.5-0.8c0.8-0.2,1.4-0.5,1.9-0.8c0.2-0.1,0.5-0.3,0.6-0.5h-1.6
	v-2.1H43.7z M40,132.4v-0.5H41v0.5h2.7v0.7H41v0.6h3.2v0.8H37v-0.8H40v-0.6h-2.6v-0.7H40L40,132.4z M42.8,135.6h-4.2v0.6h4.2V135.6z
	 M42.2,137.8c0.2-0.2,0.4-0.5,0.5-0.7l0.8,0.5c-0.1,0.2-0.3,0.4-0.5,0.6c0.4,0.2,0.8,0.4,1.1,0.6l-0.5,0.8c-1-0.6-2-1.2-3.1-1.5
	l0.5-0.7C41.5,137.4,41.8,137.6,42.2,137.8L42.2,137.8z"/>
<path class="st0" d="M52.9,130.4v2.2c0,0.7,0.2,1.6,0.5,2.6c0.4,1.1,0.9,2,1.5,2.7c0.7,0.9,1.6,1.5,2.6,1.9l-0.5,1.2
	c-1.2-0.6-2.1-1.3-2.7-2.1c-0.8-0.9-1.5-2.2-2-3.7c-0.4,1.6-0.9,2.9-1.8,3.8c-0.7,0.8-1.7,1.5-3,2l-0.5-1.1c1.2-0.5,2.1-1.1,2.8-1.9
	c0.6-0.7,1.1-1.7,1.4-2.8c0.3-1,0.5-1.8,0.5-2.5v-2.2H52.9L52.9,130.4z M50,132.6c-0.4,1.5-0.8,2.8-1.3,3.9l-1.1-0.8
	c0.5-1,1-2.2,1.4-3.6L50,132.6z M57,132.6c-0.4,1.5-0.9,2.8-1.4,3.9l-1.1-0.8c0.5-1,1-2.2,1.5-3.6L57,132.6z"/>
<path class="st0" d="M63.5,131.4v-0.9h1.1v0.9h4.5v1h-4.5v0.8h3.7v4.6h-3.7v0.8h4.6v1h-4.6v1.5h-1.1v-1.5h-4.6v-1h4.6v-0.8h-3.7
	v-4.6h3.7v-0.8H59v-1H63.5z M63.5,134.9v-0.8h-2.7v0.8H63.5z M63.5,135.8h-2.7v0.9h2.7V135.8z M64.6,134.9h2.7v-0.8h-2.7V134.9z
	 M67.3,135.8h-2.7v0.9h2.7V135.8z"/>
<path class="st0" d="M73.5,132.2h1.8v1h-4.7v-1h1.8c-0.2-0.5-0.3-1-0.5-1.5l1.2-0.2C73.2,131.1,73.4,131.6,73.5,132.2L73.5,132.2z
	 M74.9,139.3c-1.2,0.4-2.5,0.7-4,1l-0.3-1c1.6-0.3,3.1-0.6,4.4-1V139.3z M72.6,138.4l-1,0.2c-0.2-1.6-0.5-3.1-0.8-4.6l0.9-0.3
	C72.1,135.1,72.4,136.7,72.6,138.4z M74.7,133.7c-0.1,1.7-0.3,3.2-0.7,4.7l-1-0.3c0.4-1.5,0.7-3,0.7-4.4L74.7,133.7L74.7,133.7z
	 M78.1,130.4v2.1h3v1h-3v1.9h2.5v5.6h-1v-0.8h-3.2v0.8h-1v-5.6h1.7v-5H78.1L78.1,130.4z M79.6,139.2v-2.8h-3.2v2.8H79.6z"/>
<path class="st0" d="M87.6,130.8c0.2,0.3,0.6,0.6,1,0.9c0.2-0.1,0.4-0.3,0.6-0.5c0.2-0.2,0.4-0.5,0.7-0.8l0.9,0.5
	c-0.3,0.4-0.5,0.7-0.8,1c-0.1,0.1-0.3,0.2-0.4,0.4c0.2,0.1,0.4,0.2,0.7,0.4c0.2-0.1,0.4-0.3,0.6-0.5c0.2-0.2,0.5-0.5,0.7-0.9
	l0.8,0.5c-0.3,0.5-0.6,0.8-0.8,1.1c-0.1,0.1-0.2,0.2-0.3,0.3c0.5,0.2,1.1,0.4,1.7,0.6l-0.6,0.9c-0.5-0.2-0.9-0.3-1.3-0.5v1.2
	c0,0.2,0.1,0.4,0.4,0.4h1v0.9h-1.2c-0.4,0-0.7-0.1-0.8-0.2c-0.2-0.2-0.3-0.4-0.3-0.8v-0.5H89c0,0.4-0.1,0.8-0.2,0.9
	c-0.1,0.2-0.5,0.5-1,0.9l-0.8-0.6c0.5-0.3,0.8-0.6,0.9-0.8c0.1-0.2,0.1-0.6,0.1-1.3h2.9c-0.6-0.2-1.2-0.5-1.6-0.8
	c-0.7-0.4-1.4-0.8-1.8-1.3c-0.3,0.5-0.7,0.9-1.1,1.2c-0.4,0.3-0.9,0.6-1.8,0.9h2.2v2.6h-2.2l-0.1,0.9h2.4c0,1.4-0.1,2.3-0.3,2.7
	c-0.2,0.4-0.7,0.7-1.4,0.7h-1.8l-0.2-1.1c0.9,0.1,1.6,0.1,2,0.1c0.2,0,0.4-0.1,0.5-0.3c0.1-0.2,0.1-0.6,0.2-1.3h-2.6l0.3-2.6h2.1
	v-0.9h-2.1v-0.5c-0.3,0.1-0.6,0.2-0.9,0.3l-0.5-1c0.7-0.1,1.2-0.3,1.8-0.4c-0.2-0.2-0.5-0.5-0.9-0.8l0.8-0.5
	c0.5,0.3,0.8,0.7,1.2,0.9c0.1,0,0.1-0.1,0.2-0.1c0.5-0.2,1-0.6,1.3-1h-3.1v-0.9L87.6,130.8L87.6,130.8z M91.6,136.8v0.8
	c-0.4,0.7-0.8,1.3-1.4,1.8c0.6,0.3,1.5,0.5,2.5,0.7l-0.6,0.9c-1.2-0.3-2.1-0.6-2.7-0.9c-0.6,0.4-1.3,0.7-2,0.9l-0.4-0.9
	c0.6-0.1,1.1-0.3,1.6-0.6c-0.5-0.3-0.9-0.7-1.2-1.1l0.8-0.5c0.3,0.4,0.8,0.8,1.2,1c0.4-0.4,0.7-0.8,1-1.2h-2.8v-0.9L91.6,136.8
	L91.6,136.8z"/>
<path class="st0" d="M104.6,136.4v0.9h-3.8c0.2,0.5,0.5,0.8,0.8,1.2c0.5-0.2,1-0.6,1.5-1.1l0.7,0.7c-0.4,0.4-0.9,0.8-1.5,1
	c0.6,0.4,1.3,0.7,2.2,0.9l-0.5,0.9c-1.1-0.4-2.1-0.9-2.9-1.5c-0.6-0.5-1.1-1.3-1.6-2.2h-1.2v2.3c0.7-0.1,1.3-0.3,2-0.4v1
	c-1.3,0.3-2.7,0.6-4.2,0.8l-0.1-1c0.4,0,0.8-0.1,1.2-0.1v-2.5h-1.5c0,0,0,0.1,0,0.1c-0.2,1.1-0.6,2.3-1.1,3.4l-0.9-0.8
	c0.5-0.9,0.8-1.9,1-2.8c0.1-1,0.2-2,0.2-2.9v-3.6h9.1v2.9h-1.8v0.9h1.8v0.9h-1.8v1L104.6,136.4L104.6,136.4z M96.1,134.3
	c0,0.7-0.1,1.4-0.1,2.1h2v-1h-1.7v-0.9H98v-0.9h-1.9L96.1,134.3L96.1,134.3z M96.1,131.7v1h7v-1H96.1z M101.4,133.6H99v0.9h2.4
	V133.6z M101.4,136.4v-1H99v1H101.4z"/>
<path class="st0" d="M116,133.1h-3.2c0.1,1.6,0.3,2.9,0.6,3.9c0.5-0.8,1-1.8,1.5-3.1l1,0.4c-0.6,1.7-1.3,3-2,3.8
	c0.5,1,0.9,1.5,1.1,1.5c0.1,0,0.3-0.5,0.4-1.6l0.9,0.6c-0.3,1.1-0.5,1.8-0.7,2c-0.2,0.2-0.3,0.3-0.5,0.3c-0.5,0-1-0.3-1.5-0.8
	c-0.2-0.3-0.5-0.6-0.7-1c-0.7,0.7-1.6,1.3-2.7,1.8l-0.6-1c1.2-0.5,2.2-1.2,2.9-1.9c-0.2-0.4-0.3-0.8-0.4-1.2c-0.2-1-0.4-2.2-0.5-3.7
	h-3.8v1.4h3.2c0,2.1-0.1,3.4-0.3,3.9c-0.2,0.6-0.5,1-1.1,1h-1.5l-0.2-1.1c0.8,0.1,1.4,0.1,1.7,0.1c0.1,0,0.2-0.2,0.2-0.5
	c0-0.4,0.1-1.2,0.1-2.4h-2.1c0,0.8-0.1,1.7-0.2,2.5c-0.2,1.1-0.5,2.1-1,3.1l-0.9-0.8c0.4-0.8,0.8-1.7,0.9-2.6
	c0.1-0.9,0.2-1.8,0.2-2.6v-3.1h4.9c0-0.5,0-1.1,0-1.6h1.1c0,0.6,0,1.1,0,1.6h1.6c-0.3-0.3-0.7-0.6-1.1-0.9l0.7-0.7
	c0.5,0.3,1,0.7,1.4,1l-0.6,0.6h1.2L116,133.1L116,133.1z"/>
<path class="st0" d="M120.6,131.2h2.1v0.8h-5.3v-0.8h2c-0.2-0.2-0.4-0.4-0.6-0.5l1.2-0.2C120.3,130.7,120.4,130.9,120.6,131.2
	L120.6,131.2z M122.1,134.7v0.7c-0.3,0.3-0.8,0.6-1.2,0.9c0.6-0.1,1.2-0.1,1.8-0.2v0.7c-0.5,0.1-1.2,0.2-2,0.2v0.8
	c0,0.2-0.1,0.4-0.2,0.5c-0.2,0.2-0.4,0.2-0.6,0.2h-1l-0.2-0.9c0.3,0.1,0.6,0.1,0.9,0.1c0.2,0,0.3-0.1,0.3-0.2v-0.5
	c-0.6,0-1.3,0.1-2,0.1l-0.1-0.8c0.8,0,1.5,0,2.2-0.1v-0.2c0.3-0.1,0.6-0.3,1-0.5h-2.9v-0.9H122.1L122.1,134.7z M119.6,139.1
	c-0.3,0.8-0.6,1.5-1,2.1l-1-0.7c0.4-0.5,0.8-1.1,1.1-1.8L119.6,139.1z M122.2,132.4v1.9h-4.3v-1.9H122.2z M121.2,133.1h-2.3v0.5h2.3
	V133.1z M122,140.8l-1.2,0.1c-0.1-0.8-0.1-1.4-0.1-2l1-0.1C121.8,139.4,121.9,140.1,122,140.8z M125,130.4v1.4h1.8
	c0,1.4-0.1,2.7-0.1,3.9c0,0.4,0,0.8,0.1,1.1c0,0.2,0.1,0.3,0.2,0.3c0.2,0,0.3-0.5,0.4-1.6l0.9,0.5c-0.2,1-0.3,1.6-0.5,1.8
	c-0.2,0.2-0.4,0.3-0.6,0.3c-0.2,0-0.4-0.1-0.6-0.2c-0.2-0.2-0.4-0.4-0.5-0.7c-0.1-0.4-0.2-0.9-0.2-1.6c0-0.8,0-1.8,0-3H125v0.3
	c0,0.8-0.1,1.5-0.2,2.2c0.4,0.4,0.7,0.8,0.9,1.2l-0.7,0.7c-0.2-0.3-0.4-0.6-0.6-0.9c-0.4,0.8-1,1.6-1.9,2.4l-0.8-0.7
	c0.9-0.7,1.5-1.4,1.9-2.1c0.1-0.1,0.1-0.2,0.2-0.4c-0.4-0.5-0.9-1-1.4-1.5l0.7-0.6c0.3,0.3,0.6,0.6,0.9,0.9c0-0.4,0.1-0.8,0.1-1.3
	v-0.3h-1.3v-0.9h1.3v-1.3L125,130.4L125,130.4z M124.9,140.8l-1.2,0.1c-0.1-0.8-0.2-1.5-0.4-2.1l1-0.1
	C124.6,139.3,124.8,140,124.9,140.8z M127.9,140.4l-1,0.7c-0.3-0.7-0.7-1.4-1.1-2.2l0.8-0.5C127.2,139.1,127.6,139.8,127.9,140.4
	L127.9,140.4z"/>
<path class="st0" d="M135.3,137.4c-0.2-0.4-0.6-0.8-1-1.4c-0.3-0.3-0.7-0.7-1.3-1.2l0.7-0.6c0.4,0.3,0.8,0.7,1.4,1.1
	c0.3,0.3,0.7,0.8,1.1,1.3L135.3,137.4L135.3,137.4z"/>
<path class="st0" d="M145.7,131.8v-1.4h1.1v1.4h3.8v1.1h-3.8v1.7h4.7v1.1H148c0.4,0.7,0.8,1.3,1.3,1.8c0.6,0.6,1.3,1.3,2.3,2l-0.8,1
	c-1.1-0.8-1.9-1.6-2.6-2.5c-0.5-0.6-1-1.4-1.4-2.3h-0.1v5.3h-1.1v-5.3h-0.2c-0.3,0.8-0.7,1.4-1,1.8c-0.6,0.9-1.6,1.9-3,2.9l-0.6-1
	c1-0.7,1.8-1.4,2.4-2c0.4-0.4,0.8-1,1.1-1.6H141v-1.1h4.7V133h-3.9v-1.1H145.7L145.7,131.8z"/>
<path class="st0" d="M157.3,131.7v-1.1h1.1v1.1h4.3v1h-4.3v2.6c0.4,0.9,1,1.6,1.6,2.3c0.6,0.7,1.7,1.5,3.1,2.2l-0.8,0.9
	c-1.1-0.7-1.9-1.3-2.6-1.9c-0.5-0.5-1-1.1-1.4-1.7v3.8h-1.1V137c-0.4,0.6-0.8,1.1-1.2,1.4c-0.8,0.8-1.7,1.5-2.8,2.2l-0.6-1
	c1.1-0.6,2.1-1.3,2.9-2.1c0.6-0.6,1.2-1.4,1.7-2.2v-2.6h-4.2v-1H157.3L157.3,131.7z M155.9,133.1c-0.1,0.6-0.3,1.1-0.4,1.4
	c0.4,0.4,0.8,0.8,1.2,1.2l-0.6,0.9c-0.3-0.5-0.7-0.9-1-1.2c-0.3,0.6-0.8,1.3-1.4,2l-0.7-0.8c0.5-0.5,0.9-1.1,1.2-1.6
	c0.2-0.5,0.5-1.2,0.6-2L155.9,133.1L155.9,133.1z M161.4,133.1c-0.1,0.6-0.3,1-0.4,1.4c0.6,0.5,1.2,1.1,1.8,1.8l-0.6,0.9
	c-0.5-0.7-1.1-1.3-1.6-1.8c-0.2,0.4-0.6,0.9-1,1.3l-0.7-0.9c0.4-0.4,0.8-0.8,1-1.2c0.2-0.4,0.4-0.9,0.5-1.6L161.4,133.1L161.4,133.1
	z"/>
<path class="st0" d="M174.8,130.9v1h-4.6v0.9h3.7v4.6h-3.9c-0.2,0.6-0.4,1.2-0.7,1.6c0.4,0.1,0.7,0.2,1,0.3c0.9,0.3,2.5,0.5,4.6,0.6
	l-0.3,1c-2-0.1-3.6-0.4-4.6-0.7c-0.5-0.1-0.9-0.3-1.4-0.5c-0.8,0.7-2.1,1.1-3.8,1.3l-0.5-1c1.4-0.1,2.5-0.3,3.2-0.8
	c-0.6-0.3-1.2-0.7-1.7-1.1l0.8-0.5c0.6,0.4,1.1,0.7,1.7,1c0.2-0.3,0.4-0.7,0.6-1.2h-3.5v-4.6h3.7V132h-4.5v-1L174.8,130.9
	L174.8,130.9z M169.1,134.6v-0.9h-2.7v0.9H169.1z M169.1,135.6h-2.7v0.9h2.6C169.1,136.2,169.1,135.9,169.1,135.6z M172.8,135.6
	h-2.6c0,0.3,0,0.7-0.1,0.9h2.7V135.6z M170.2,134.6h2.6v-0.9h-2.6V134.6z"/>
<path class="st0" d="M186.6,135.5v1h-4.5v1.1h3.9v0.9h-3.9v1.2c0.6,0.1,1.2,0.1,2,0.1c1.1,0,2,0,2.7-0.1l-0.3,1.1
	c-3.5,0-5.6-0.1-6.3-0.4c-0.7-0.2-1.2-0.7-1.7-1.4c-0.3,0.6-0.9,1.3-1.6,2l-0.8-1c0.6-0.5,1.1-1,1.4-1.5c0.3-0.5,0.6-1.1,0.7-1.9
	l1.1,0.2c-0.1,0.5-0.3,0.9-0.4,1.3c0.5,0.7,1,1.1,1.7,1.3c0.1,0,0.3,0.1,0.4,0.1v-3.1h-4.9v-1L186.6,135.5L186.6,135.5z
	 M185.5,130.7v4.2h-8.2v-4.2H185.5z M184.4,132.4v-0.7h-6v0.7H184.4z M184.4,133.2h-6v0.8h6V133.2z"/>
<path class="st0" d="M190.6,133.2v0.8c-0.4,0.6-0.8,1.3-1.4,2h1.5v0.7c-0.2,0.7-0.3,1.3-0.5,1.7c0.4,0.5,0.8,0.9,1.1,1
	c0.2,0.2,0.6,0.3,1.1,0.3c0.6,0.1,1.7,0.2,3.3,0.2c1.2,0,2.1,0,2.7-0.1l-0.1,1.1c-3.2,0-5.1-0.1-5.8-0.1c-0.6-0.1-1.1-0.2-1.5-0.4
	c-0.4-0.2-0.7-0.5-1.1-1c-0.3,0.5-0.7,1.1-1.2,1.8l-0.8-0.8c0.6-0.6,1-1.1,1.2-1.6c0.2-0.3,0.4-0.8,0.7-1.7H188v-0.8
	c0.4-0.5,0.9-1.1,1.4-1.9h-1.5v-0.9L190.6,133.2L190.6,133.2z M190.5,132.1l-0.8,0.8c-0.3-0.5-0.8-1.1-1.4-1.7l0.7-0.7
	C189.7,131.1,190.1,131.6,190.5,132.1L190.5,132.1z M193.4,130.8c-0.2,0.5-0.3,0.9-0.5,1.2h2c-0.2-0.4-0.5-0.8-0.8-1.2l0.9-0.3
	c0.4,0.4,0.7,0.8,1,1.3l-0.7,0.2h2.6v0.9h-2.3v1h2.1v0.9h-2.1v1.1h2.1v0.9h-2.1v1.2h2.3v0.9h-6.2v-4.5c-0.1,0.2-0.3,0.5-0.4,0.7
	l-0.9-0.6c0.8-1.2,1.4-2.5,2.1-4L193.4,130.8L193.4,130.8z M194.6,132.9h-1.9v1h1.9V132.9z M194.6,134.8h-1.9v1.1h1.9V134.8z
	 M194.6,136.9h-1.9v1.2h1.9V136.9z"/>
<path class="st0" d="M203,133.8c-0.3,0.4-0.6,0.9-0.9,1.3v6h-1v-4.7c-0.3,0.3-0.6,0.6-0.9,0.9l-0.7-0.9c1-0.8,2-1.9,2.8-3.2
	L203,133.8z M202.9,131c-0.7,0.9-1.6,1.8-2.6,2.5l-0.7-0.9c0.9-0.6,1.8-1.3,2.6-2.2L202.9,131z M210.1,134v1h-1.7v4.8
	c0,0.4-0.1,0.7-0.3,0.8c-0.2,0.2-0.5,0.2-1,0.2h-1.9l-0.2-1.1c0.7,0.1,1.4,0.1,1.8,0.1c0.3,0,0.4-0.1,0.4-0.3V135h-4.1v-1H210.1z
	 M209.5,131v1h-5.7v-1H209.5z"/>
<path class="st0" d="M216,132.6v-2.2h1.2v2.2h4v5.4h-4v2.9H216v-2.9h-4v-5.4H216z M216,133.7h-2.8v3.4h2.8V133.7z M220,133.7h-2.9
	v3.4h2.9V133.7z"/>
<path class="st0" d="M25.8,151.9v3.1h2.8v1h-2.8v4.3c1-0.2,1.9-0.6,2.9-1v1c-1.4,0.6-3,1.1-4.8,1.6l-0.3-1.2
	c0.3-0.1,0.6-0.1,0.9-0.2v-8.8H25.8L25.8,151.9z M30.4,151.9v4c1.1-0.7,2.1-1.5,2.8-2.4l0.7,0.9c-1,1-2.2,1.9-3.5,2.6v3.3
	c0,0.2,0.1,0.3,0.2,0.4c0.1,0.1,0.2,0.1,0.4,0.1h1.2c0.2,0,0.4-0.1,0.5-0.2c0.1-0.1,0.3-0.9,0.4-2.3l1.1,0.4
	c-0.2,1.5-0.3,2.4-0.5,2.7c-0.3,0.3-0.7,0.4-1.2,0.4h-1.8c-0.5,0-0.8-0.1-1-0.3c-0.3-0.3-0.4-0.7-0.4-1.1v-8.7H30.4z"/>
<path class="st0" d="M37.8,153v-1.4h1v1.4h1.7v1h-1.7v1.2h1.7v1h-1.7v1.4h1.7v1h-1.7v1.9c0.2,0.1,0.4,0.1,0.6,0.1
	c0.6,0.1,1.8,0.2,3.7,0.2c1.3,0,2.3,0,2.9-0.1l-0.1,1c-3.5,0-5.6-0.1-6.3-0.2c-0.7-0.1-1.2-0.3-1.7-0.6c-0.4-0.2-0.7-0.6-1.1-1.2
	c-0.2,0.7-0.4,1.4-0.7,2.1l-0.8-0.7c0.2-0.8,0.5-1.6,0.6-2.2c0.1-0.6,0.2-1.3,0.2-2.2l1,0.1c0,0.7-0.1,1.3-0.1,1.7
	c0.3,0.5,0.6,0.9,0.9,1.1v-3.6h-2.3v-1h2.3v-1.2h-2v-1L37.8,153L37.8,153z M45.3,156.3H42v2.2c0,0.2,0.1,0.4,0.4,0.4h1.8
	c0.1,0,0.2-0.1,0.3-0.2s0.1-0.6,0.1-1.6l1,0.3c-0.1,1.2-0.2,1.9-0.4,2.1c-0.2,0.2-0.5,0.3-0.9,0.3H42c-0.3,0-0.6-0.1-0.8-0.3
	s-0.3-0.4-0.3-0.8v-6.6h4.4L45.3,156.3L45.3,156.3z M42,155.3h2.3v-2.1H42V155.3z"/>
<path class="st0" d="M49,152.7v-1h1.1v1h4.5v-1h1.1v1h1.6v0.9h-1.6v5h1.9v1H47.1v-1H49v-5h-1.6v-0.9H49L49,152.7z M51.4,160.4
	c-0.9,0.6-2,1.2-3.3,1.7l-0.8-1c1.2-0.4,2.3-0.9,3.2-1.4L51.4,160.4L51.4,160.4z M54.6,154.6v-1h-4.5v1H54.6z M54.6,156.6v-1h-4.5v1
	H54.6z M54.6,158.6v-1.2h-4.5v1.2H54.6z M57.4,161.2l-0.6,1c-1.1-0.7-2.2-1.2-3.4-1.6l0.5-0.8C55.2,160.1,56.3,160.6,57.4,161.2z"/>
<path class="st0" d="M62.1,152c-0.3,0.9-0.6,1.7-0.8,2.3v7.8h-1v-6c-0.3,0.5-0.7,1-1,1.4l-0.4-1.2c0.5-0.6,0.9-1.3,1.2-2
	c0.4-0.6,0.7-1.5,1.1-2.7L62.1,152L62.1,152z M68.7,157.2c0,0.5-0.1,0.9-0.2,1.1c-0.2,0.2-0.6,0.4-1.4,0.4l-0.4-1.1h0.6
	c0.2,0,0.4-0.1,0.4-0.1c0-0.1,0.1-0.3,0.1-0.6v-2.1l-1.5,0.4v4.6h-1v-4.2l-1.4,0.4v4.6c0,0.3,0.1,0.4,0.4,0.4H68
	c0.2,0,0.3-0.1,0.4-0.2c0.1-0.1,0.2-0.7,0.2-1.7l1,0.3c-0.1,1.3-0.3,2-0.5,2.2c-0.2,0.2-0.5,0.4-1,0.4h-4.4c-0.3,0-0.6-0.1-0.8-0.3
	c-0.2-0.2-0.3-0.5-0.3-0.8v-4.6l-1.1,0.3v-1l1.1-0.3v-2.4h1.1v2.1l1.4-0.4v-2.8h1v2.4l2.6-0.8C68.7,155.9,68.7,157.2,68.7,157.2
	L68.7,157.2z"/>
<path class="st0" d="M73.5,153.4h1.8v1h-4.7v-1h1.8c-0.2-0.5-0.3-1-0.5-1.5l1.2-0.2C73.2,152.3,73.4,152.8,73.5,153.4L73.5,153.4z
	 M74.9,160.5c-1.2,0.4-2.5,0.7-4,1l-0.3-1c1.6-0.3,3.1-0.6,4.4-1V160.5z M72.6,159.6l-1,0.2c-0.2-1.6-0.5-3.1-0.8-4.6l0.9-0.3
	C72.1,156.3,72.4,157.9,72.6,159.6z M74.7,154.9c-0.1,1.7-0.3,3.2-0.7,4.7l-1-0.3c0.4-1.5,0.7-3,0.7-4.4L74.7,154.9L74.7,154.9z
	 M78.1,151.6v2.1h3v1h-3v1.9h2.5v5.6h-1v-0.8h-3.2v0.8h-1v-5.6h1.7v-5H78.1L78.1,151.6z M79.6,160.4v-2.8h-3.2v2.8H79.6z"/>
<path class="st0" d="M83.7,159.9c-0.1,0.9-0.3,1.6-0.5,2.3l-0.9-0.3c0.3-0.6,0.5-1.3,0.6-2.1L83.7,159.9L83.7,159.9z M87.6,151.9
	v4.3h-2.1v0.7h2v0.9h-2v0.7c0.8-0.1,1.5-0.1,2.2-0.2v0.8c-1,0.2-2.7,0.3-5.1,0.4l-0.1-0.9c0.8,0,1.5,0,2.2-0.1v-0.8h-1.8v-0.8h1.8
	v-0.7h-1.9v-4.3L87.6,151.9L87.6,151.9z M84.6,152.8h-1.1v2.6h1.1V152.8z M84.6,154.9L84,155c-0.1-0.6-0.2-1.1-0.3-1.6l0.5-0.2
	C84.3,153.7,84.4,154.3,84.6,154.9z M85,162l-0.9,0.1c0-0.9-0.1-1.6-0.1-2.1l0.8-0.1C84.9,160.4,85,161.1,85,162z M86.4,161.7
	l-0.8,0.2c-0.1-0.7-0.2-1.3-0.4-1.9l0.7-0.2C86.1,160.3,86.3,161,86.4,161.7L86.4,161.7z M86.8,152.8h-1.3v2.6h1.3V152.8z
	 M86.6,153.4c-0.1,0.6-0.2,1.1-0.3,1.7l-0.6-0.2c0.2-0.5,0.3-1.1,0.4-1.6L86.6,153.4L86.6,153.4z M87.7,161.3l-0.8,0.3
	c-0.1-0.6-0.3-1.2-0.5-1.8l0.6-0.2C87.3,160.2,87.5,160.8,87.7,161.3L87.7,161.3z M90.4,151.7v1.9h2.4v0.9h-2.4v2.1h2v5.5h-1v-0.8
	h-2.3v0.8h-1v-5.5h1.3v-5L90.4,151.7L90.4,151.7z M91.4,160.5v-2.9h-2.3v2.9H91.4z"/>
<path class="st0" d="M99.7,158.1c-0.2,0.2-0.5,0.5-0.9,0.7l-0.4-0.6c0.5-0.3,0.8-0.6,0.9-1h-0.7v-1.4h1.4v1.1
	C100,157.5,99.9,157.9,99.7,158.1L99.7,158.1z"/>
<path class="st0" d="M107.3,153.9v-2.2h1v2.2h1.1v0.9h-1.1v0.2c0.4,0.5,0.9,1,1.3,1.6l-0.6,0.9c-0.3-0.5-0.5-0.9-0.7-1.2v6h-1V157
	c-0.3,0.9-0.7,1.7-1.1,2.4l-0.4-1.2c0.6-1,1.1-2.1,1.5-3.4h-1.3v-0.9L107.3,153.9L107.3,153.9z M112.2,151.6v5.3
	c0,1.2-0.2,2.2-0.5,2.9c-0.3,0.8-0.9,1.6-1.8,2.4l-0.8-0.8c0.8-0.6,1.3-1.2,1.7-2c0.2-0.4,0.3-0.9,0.4-1.6c-0.5,0.4-1.1,0.8-1.7,1.1
	l-0.5-0.9c0.8-0.3,1.5-0.8,2.3-1.4v-5L112.2,151.6L112.2,151.6z M111.1,155.6l-0.9,0.4c-0.3-1-0.5-1.8-0.8-2.6l0.9-0.3
	C110.6,153.9,110.9,154.7,111.1,155.6L111.1,155.6z M113.9,151.6v4.4c0.9,0.5,1.7,1.1,2.4,1.9l-0.6,0.9c-0.6-0.6-1.2-1.2-1.8-1.6
	v3.5c0,0.2,0.1,0.3,0.4,0.3h0.5c0.1,0,0.2-0.1,0.3-0.2c0.1-0.1,0.1-0.7,0.2-1.6l1,0.3c-0.1,1.2-0.2,1.8-0.4,2.1
	c-0.2,0.2-0.5,0.3-0.9,0.3h-1c-0.3,0-0.6-0.1-0.8-0.2c-0.2-0.2-0.3-0.4-0.3-0.7v-9.3H113.9L113.9,151.6z M116.1,153.5
	c-0.3,0.9-0.7,1.7-1.2,2.4l-0.8-0.6c0.4-0.6,0.8-1.3,1.2-2.1L116.1,153.5L116.1,153.5z"/>
<path class="st0" d="M127.7,162.1h-1v-0.4h-7.9v0.4h-1V152h9.9V162.1z M126.7,160.8v-7.9h-7.9v7.9H126.7z M125.8,156.1v2.1h-3.2
	c-0.1,0.1-0.1,0.1-0.1,0.2v2.2h-0.9v-1.4c-0.6,0.4-1.3,0.8-2.1,1l-0.5-0.8c0.8-0.2,1.4-0.5,1.8-0.8c0.2-0.2,0.5-0.3,0.6-0.5h-1.6
	v-2.1H125.8z M122.1,153.6v-0.5h0.9v0.5h2.7v0.7h-2.7v0.6h3.2v0.8h-7.2v-0.8h3.1v-0.6h-2.6v-0.7H122.1L122.1,153.6z M124.9,156.8
	h-4.2v0.6h4.2V156.8z M124.3,158.9c0.2-0.2,0.4-0.5,0.5-0.7l0.8,0.5c-0.1,0.2-0.3,0.4-0.5,0.6c0.4,0.2,0.8,0.4,1.1,0.6l-0.5,0.8
	c-1-0.6-2-1.2-3.1-1.5l0.4-0.7C123.6,158.6,124,158.8,124.3,158.9L124.3,158.9z"/>
<path class="st0" d="M135,151.6v2.2c0,0.7,0.2,1.6,0.5,2.6c0.4,1.1,0.9,2,1.5,2.7c0.7,0.9,1.6,1.5,2.6,1.9l-0.5,1.2
	c-1.2-0.6-2.1-1.3-2.7-2.1c-0.8-0.9-1.5-2.2-2-3.7c-0.3,1.6-0.9,2.9-1.8,3.8c-0.7,0.8-1.7,1.5-3,2l-0.5-1.1c1.2-0.5,2.1-1.1,2.8-1.9
	c0.6-0.7,1.1-1.7,1.4-2.8c0.3-1,0.5-1.8,0.5-2.5v-2.2H135L135,151.6z M132.1,153.8c-0.4,1.5-0.8,2.8-1.4,3.9l-1.1-0.8
	c0.5-1,1-2.2,1.4-3.6L132.1,153.8z M139.2,153.8c-0.4,1.5-0.9,2.8-1.4,3.9l-1.1-0.8c0.5-1,1-2.2,1.5-3.6L139.2,153.8L139.2,153.8z"
	/>
<path class="st0" d="M145.6,152.6v-0.9h1.1v0.9h4.5v1h-4.5v0.8h3.7v4.6h-3.7v0.8h4.6v1h-4.6v1.5h-1.1v-1.5H141v-1h4.6v-0.8h-3.7
	v-4.6h3.7v-0.8h-4.5v-1H145.6z M145.6,156.1v-0.8H143v0.8H145.6z M145.6,157H143v0.9h2.7V157z M146.8,156.1h2.7v-0.8h-2.7V156.1z
	 M149.4,157h-2.7v0.9h2.7V157z"/>
<path class="st0" d="M155.7,153.4h1.8v1h-4.7v-1h1.8c-0.2-0.5-0.3-1-0.5-1.5l1.2-0.2C155.3,152.3,155.5,152.8,155.7,153.4
	L155.7,153.4z M157,160.5c-1.2,0.4-2.5,0.7-4,1l-0.3-1c1.6-0.3,3.1-0.6,4.4-1V160.5z M154.8,159.6l-1,0.2c-0.2-1.6-0.5-3.1-0.8-4.6
	l0.9-0.3C154.2,156.3,154.5,157.9,154.8,159.6z M156.8,154.9c-0.1,1.7-0.3,3.2-0.7,4.7l-1-0.3c0.5-1.5,0.7-3,0.7-4.4L156.8,154.9
	L156.8,154.9z M160.2,151.6v2.1h3v1h-3v1.9h2.5v5.6h-1v-0.8h-3.2v0.8h-1v-5.6h1.7v-5H160.2L160.2,151.6z M161.7,160.4v-2.8h-3.2v2.8
	H161.7z"/>
<path class="st0" d="M174.9,155.9v0.9h-5.2v5.5h-1v-1.1c-1.2,0.1-2.6,0.3-4.1,0.4l-0.2-1c0.3,0,0.7,0,1-0.1v-3.8h-1v-0.9H174.9z
	 M173.9,151.9v3.5h-8.2v-3.5H173.9z M168.7,157.5v-0.7h-2.3v0.7H168.7z M168.7,158.9v-0.7h-2.3v0.7H168.7z M168.7,160.3v-0.6h-2.3
	v0.8C167.2,160.4,167.9,160.4,168.7,160.3L168.7,160.3z M172.7,153.3v-0.6h-6v0.6H172.7z M172.7,154h-6v0.6h6V154z M174.5,157.4v0.7
	c-0.2,1-0.7,1.9-1.4,2.6c0.5,0.3,1.1,0.5,1.8,0.7l-0.5,0.8c-0.8-0.3-1.5-0.6-2-0.9c-0.5,0.4-1.2,0.7-2.1,0.9l-0.5-0.9
	c0.7-0.2,1.3-0.5,1.8-0.8c-0.5-0.5-1-1.1-1.3-1.7l0.8-0.5c0.3,0.7,0.8,1.2,1.2,1.7c0.1-0.1,0.1-0.1,0.2-0.2c0.4-0.5,0.7-1,0.9-1.7
	h-3.4v-0.9L174.5,157.4L174.5,157.4z"/>
<path class="st0" d="M180.9,152.6c0.1-0.4,0.1-0.7,0.2-1l1.2,0.1c-0.1,0.3-0.1,0.6-0.2,0.9h4.4v0.9h-4.7c-0.1,0.3-0.2,0.5-0.2,0.8
	h3.9v6.5h1.3v0.9h-10.4v-0.9h1.2v-6.5h3c0.1-0.2,0.2-0.5,0.2-0.8h-4.3v-0.9H180.9L180.9,152.6z M184.2,156v-0.8h-5.7v0.8H184.2z
	 M184.2,157.6v-0.8h-5.7v0.8H184.2z M184.2,159.2v-0.8h-5.7v0.8H184.2z M184.2,160.9V160h-5.7v0.8H184.2z"/>
<path class="st0" d="M189.3,153.8v-2.1h1v2.1h1.2v0.9h-1.2v2.1c0.4-0.2,0.7-0.4,1.1-0.7v1.1c-0.4,0.2-0.7,0.5-1.1,0.6v3.1
	c0,0.4-0.1,0.7-0.3,0.9c-0.2,0.2-0.5,0.3-0.9,0.3h-0.9l-0.2-1.1c0.3,0.1,0.6,0.1,0.8,0.1c0.3,0,0.4-0.1,0.4-0.3v-2.4
	c-0.4,0.2-0.8,0.3-1.3,0.5l-0.1-1.2c0.4-0.1,0.9-0.2,1.4-0.4v-2.6h-1.4v-0.9L189.3,153.8L189.3,153.8z M193.7,157.5
	c0.2-0.4,0.3-0.7,0.4-1.1l1,0.1c-0.1,0.4-0.2,0.7-0.4,1h3.6v1h-1.1c-0.4,0.7-0.8,1.3-1.3,1.8c0.8,0.3,1.5,0.7,2.1,1l-0.6,0.9
	c-0.6-0.4-1.4-0.8-2.4-1.2c-0.9,0.6-2.2,1-3.7,1.3l-0.4-0.9c1.3-0.2,2.3-0.5,3.1-0.8c-0.6-0.2-1.2-0.4-1.9-0.7
	c0.4-0.4,0.7-0.9,1-1.4h-1.6v-1L193.7,157.5L193.7,157.5z M195.4,152.9h2.7v0.9h-0.9c-0.1,0.6-0.4,1.1-0.6,1.6h1.8v0.9h-6.8v-0.9
	h1.7l-0.6-1.6h-0.9v-0.9h2.6c-0.1-0.4-0.3-0.7-0.4-1.1l1.1-0.1C195.1,152,195.2,152.4,195.4,152.9z M196.1,158.5h-1.9
	c-0.2,0.3-0.4,0.6-0.6,0.9c0.5,0.2,0.9,0.4,1.4,0.5C195.5,159.5,195.9,159.1,196.1,158.5L196.1,158.5z M195.5,155.3
	c0.3-0.5,0.5-1,0.6-1.6h-2.4l0.6,1.6H195.5z"/>
<path class="st0" d="M208.2,157v0.8c-0.4,0.9-1.1,1.7-2.1,2.4c0,0-0.1,0.1-0.1,0.1c1,0.4,2.4,0.7,4,1l-0.7,1c-2-0.4-3.5-0.9-4.5-1.4
	c0,0,0,0,0,0c-1.1,0.5-2.6,0.9-4.5,1.4l-0.6-1.1c1.6-0.2,2.9-0.5,3.9-0.9c-0.7-0.4-1.3-0.9-1.8-1.5l0.9-0.5c0.5,0.6,1.2,1.1,2,1.5
	c0,0,0.1,0,0.1,0c0.8-0.4,1.4-0.9,1.9-1.7h-5.3v-1L208.2,157L208.2,157z M208.7,153.4c-0.2,0.6-0.6,1.2-0.9,1.8h2.1v2.8h-1.1v-1.8
	h-7.7v1.8H200v-2.8h6.6c0.4-0.6,0.8-1.2,1.1-2.1L208.7,153.4L208.7,153.4z M209.4,152.7c-2.2,0.4-5.2,0.6-8.9,0.6l-0.3-1
	c3.4,0,6.3-0.2,8.7-0.5L209.4,152.7L209.4,152.7z M203.1,154.8l-1,0.3c-0.2-0.5-0.5-0.9-0.8-1.4l0.9-0.3
	C202.6,153.8,202.9,154.3,203.1,154.8L203.1,154.8z M205.8,154.7l-1,0.3c-0.2-0.5-0.4-0.9-0.7-1.4l0.9-0.3
	C205.2,153.7,205.5,154.2,205.8,154.7z"/>
<path class="st0" d="M213.5,159.6c-0.3,0.8-0.8,1.6-1.2,2.2l-1-0.7c0.5-0.5,0.9-1.1,1.3-1.8L213.5,159.6z M216,152.3v-0.6h1v0.6h4.7
	v0.9h-4.7v0.5h3.8v3.6h-0.3c0.6,0.5,1,0.9,1.4,1.2l-0.9,0.6c-0.2-0.2-0.4-0.4-0.6-0.7c-0.9,0.1-2.2,0.2-3.8,0.2
	c0.5,0.5,0.9,0.9,1.2,1.2l-0.9,0.6c-0.3-0.4-0.7-0.9-1.2-1.5l0.5-0.3c-1.3,0.1-2.8,0.1-4.6,0.2l-0.1-1c1.6,0,3.1-0.1,4.5-0.1v-0.6
	h-3.7v-3.6h3.7v-0.5h-4.6v-0.9L216,152.3L216,152.3z M216,155v-0.5h-2.7v0.5H216z M216,155.7h-2.7v0.7h2.7V155.7z M215,159.2v1.6
	c0,0.2,0.1,0.3,0.4,0.3h2.6c0.2,0,0.4,0,0.5-0.1c0.1-0.1,0.2-0.4,0.2-1.1l1,0.3c-0.1,0.9-0.3,1.4-0.5,1.6c-0.2,0.2-0.6,0.2-1.1,0.2
	H215c-0.3,0-0.6-0.1-0.8-0.2c-0.2-0.2-0.3-0.4-0.3-0.7v-1.9L215,159.2L215,159.2z M217,155h2.8v-0.5H217V155z M219.8,155.7H217v0.7
	h2.8V155.7z M219.5,157.5l0.4-0.3H217v0.6c0.9,0,1.8-0.1,2.6-0.1C219.6,157.6,219.5,157.6,219.5,157.5L219.5,157.5z M221.9,161.1
	l-1,0.7c-0.3-0.6-0.8-1.3-1.3-2.1l0.8-0.5C221,159.9,221.5,160.6,221.9,161.1z"/>
<path class="st1" d="M193.2,12.5h46"/>
<path class="st1" d="M3.1,12.5h46"/>
<path class="st1" d="M3.1,216h236.1"/>
<path class="st0" d="M41.1,182.5v-1.1h1.4v1.1h2.5v1.2h-2.5v1h2.8v1.2h-1.4v0.3c0,0.3,0.2,0.4,0.5,0.4h1v1.1h-1.3
	c-0.5,0-0.8-0.1-1.1-0.3c-0.3-0.2-0.4-0.5-0.4-0.9v-0.7h-1.4c-0.2,0.5-0.4,0.8-0.6,1.1c-0.3,0.4-1,0.9-2.1,1.5l-0.6-1.2
	c0.7-0.2,1.2-0.5,1.5-0.8c0.2-0.2,0.4-0.4,0.5-0.6h-1.7v-1.2h2.9v-1h-2.5v-1.2L41.1,182.5L41.1,182.5z M41,193.3
	c-0.5,1.4-1.1,2.6-1.7,3.6l-1.4-1c0.7-0.9,1.3-2,1.8-3.2L41,193.3L41,193.3z M41.1,188.5V187h1.4v1.4h2.4v1.2h-2.4v1.1
	c0.9-0.1,1.8-0.2,2.7-0.4v1.3c-2,0.3-4.2,0.6-6.7,0.8l-0.2-1.4c0.9,0,1.8-0.1,2.8-0.2v-1.3h-2.3v-1.2H41.1z M44.6,196.2l-1.8,0.1
	c-0.2-1.2-0.3-2.3-0.5-3.2l1.4-0.2C44.1,193.9,44.4,195,44.6,196.2z M48.7,181.4v1.8h2.8c-0.1,2.1-0.1,4-0.1,5.7c0,0.5,0,1,0.1,1.4
	c0,0.3,0.1,0.4,0.2,0.4c0.1,0,0.2-0.6,0.2-1.9l1.3,0.7c-0.2,1.3-0.4,2.1-0.6,2.4c-0.2,0.3-0.5,0.4-0.7,0.4c-0.3,0-0.6-0.1-0.9-0.3
	c-0.3-0.2-0.5-0.6-0.7-1c-0.1-0.3-0.2-0.8-0.2-1.3l-0.7,0.7c-0.4-0.5-0.8-1-1.2-1.5c0,0,0,0.1,0,0.1c-0.3,1.2-0.9,2.5-1.7,3.8
	l-1.2-1c0.8-1,1.3-2.1,1.6-3.2c0.1-0.2,0.1-0.5,0.2-0.9c-0.5-0.5-1.1-1.1-1.7-1.6l0.9-0.9c0.3,0.3,0.7,0.6,1,0.9c0-0.5,0-1,0-1.6
	h-1.8v-1.3h1.8v-1.8L48.7,181.4L48.7,181.4z M48.7,196.3l-1.7,0.1c-0.3-1.3-0.6-2.4-0.9-3.3l1.4-0.2C47.9,193.9,48.3,195,48.7,196.3
	L48.7,196.3z M50.1,189.1V189c0-1.2,0-2.7-0.1-4.4h-1.3c0,1.1-0.1,2-0.2,2.9C49.1,188,49.6,188.6,50.1,189.1z M52.9,195.9l-1.4,0.6
	c-0.6-1.3-1.2-2.5-2-3.5l1.4-0.5C51.7,193.6,52.3,194.8,52.9,195.9L52.9,195.9z"/>
<path class="st0" d="M60,181.4c1,0.9,1.9,1.8,2.7,2.8l-1.1,1.1c-0.8-1.1-1.5-1.9-2-2.5c-0.5,0.9-1.2,1.8-1.8,2.6h4.1v1.4H60v1.4h2.3
	v1.4H60v4.8c0.8-0.2,1.6-0.4,2.4-0.7v1.4c-1.8,0.6-3.8,1.1-6,1.4l-0.2-1.5c0.8-0.1,1.6-0.2,2.4-0.3v-5.1h-2.4v-1.4h2.4v-1.4H57v-0.5
	c-0.2,0.2-0.3,0.4-0.5,0.6l-0.5-1.6c1-1,2-2.3,2.8-3.8L60,181.4L60,181.4z M58.1,193.7l-1.3,0.1c-0.1-1.5-0.2-2.6-0.5-3.4l1.1-0.1
	C57.7,191.2,57.9,192.3,58.1,193.7L58.1,193.7z M62.2,190.5c-0.1,0.9-0.3,1.9-0.5,2.7l-1.2-0.4c0.3-0.8,0.5-1.7,0.6-2.6L62.2,190.5z
	 M65.3,184.8l-1.4,0.6c-0.6-1.1-1.2-2.1-1.8-3l1.4-0.4C64.2,182.9,64.8,183.8,65.3,184.8L65.3,184.8z M67.5,181.4v4.2h3.2v9.3
	c0,0.5-0.1,0.9-0.4,1.2c-0.2,0.2-0.5,0.4-1,0.4H67l-0.3-1.4l2.1,0.1c0.3,0,0.5-0.2,0.5-0.6V193h-4.8v3.7h-1.5v-11.1H66v-4.2
	L67.5,181.4L67.5,181.4z M69.2,188.6v-1.8h-4.8v1.8H69.2z M69.2,191.7v-1.8h-4.8v1.8H69.2z M71.2,182.3c-0.5,1.2-1.1,2.3-1.7,3.1
	l-1.4-1c0.7-0.8,1.3-1.7,1.8-2.7L71.2,182.3L71.2,182.3z"/>
<path class="st0" d="M76.1,184.4v-3.1h1.5v3.1h1.6v1.4h-1.6v3.1c0.5-0.3,0.9-0.6,1.4-1v1.6c-0.4,0.4-0.9,0.7-1.4,0.9v4.5
	c0,0.6-0.1,1-0.4,1.2c-0.2,0.2-0.7,0.4-1.3,0.4h-1l-0.3-1.6c0.4,0.1,0.7,0.1,0.9,0.1c0.4,0,0.6-0.1,0.6-0.4v-3.4
	c-0.6,0.3-1.1,0.5-1.7,0.7l-0.2-1.7c0.6-0.1,1.2-0.3,1.9-0.6v-3.9h-1.8v-1.4L76.1,184.4L76.1,184.4z M85.1,181.4
	c1.3,1.3,2.8,2.4,4.5,3.5l-0.7,1.5c-0.2-0.1-0.4-0.3-0.6-0.4v5.2h-6.6c-0.1,0.6-0.2,1.1-0.3,1.7c-0.4,1.3-1,2.5-1.9,3.8l-1.3-1.2
	c0.9-1,1.5-2,1.8-3.1c0.3-1.1,0.4-2.1,0.4-3.1v-3.3c-0.2,0.1-0.4,0.2-0.6,0.4l-0.7-1.4c1.6-0.9,3.1-2,4.6-3.5H85.1L85.1,181.4z
	 M87.9,185.5c-1.4-1-2.6-2-3.5-2.9c-1.3,1.2-2.4,2.2-3.4,2.9h2.9c-0.2-0.5-0.5-0.9-0.8-1.3l1.6-0.2c0.3,0.4,0.5,0.9,0.8,1.5H87.9
	L87.9,185.5z M88.5,196.6h-1.4v-0.8h-3.8v0.8h-1.4v-4.8h6.6L88.5,196.6L88.5,196.6z M87,189.8v-1H82v0.4c0,0.2,0,0.4,0,0.6H87z
	 M87,187.7v-0.9H82v0.9H87z M87.1,194.7v-1.6h-3.8v1.6H87.1z"/>
<path class="st0" d="M95.3,193.2c-0.4,1.4-1,2.5-1.8,3.5l-1.2-0.8c0.8-0.9,1.3-1.9,1.6-3L95.3,193.2L95.3,193.2z M97.7,182v10.3
	h-4.5V182H97.7z M96.3,184.9v-1.8h-1.8v1.8H96.3z M96.3,187.9v-1.9h-1.8v1.9H96.3z M96.3,189.1h-1.8v2h1.8V189.1z M98.4,195.6
	l-1.2,0.9c-0.4-0.9-1-1.9-1.6-3l1.1-0.6C97.4,193.9,98,194.9,98.4,195.6z M100.3,182.4v-1h1.4v1h2.7v-1h1.4v1h2.1v1.2h-2.1v0.8h1.8
	v1.2h-1.8v0.9h2.2v1.2h-4.2v0.8h3.6v4.3h0.7v1.2h-0.7v1.1c0,0.5-0.1,0.8-0.4,1.1c-0.2,0.2-0.5,0.3-0.9,0.3h-2.1l-0.2-1.3l1.8,0.1
	c0.3,0,0.4-0.2,0.4-0.6V194h-5.6v2.7h-1.4V194h-1v-1.2h1v-4.3h3.4v-0.8h-4.4v-1.2h2.3v-0.9h-1.8v-1.2h1.8v-0.8h-2.1v-1.2H100.3
	L100.3,182.4z M102.3,190.7v-1h-2.1v1H102.3z M102.3,192.8v-1h-2.1v1H102.3z M104.3,183.5h-2.7v0.9h2.7V183.5z M104.3,186.4v-0.9
	h-2.7v0.9H104.3z M103.6,190.7h2.2v-1h-2.2V190.7z M105.8,192.8v-1h-2.2v1H105.8z"/>
<path class="st0" d="M119.8,182.1v7h-1.2v-8.2h5.2v1.2L119.8,182.1L119.8,182.1z"/>
<path class="st0" d="M135.2,193.2h-4.3v1.3h-1.5v-12.2h5.8V193.2z M133.8,187v-3.1h-2.8v3.1H133.8z M133.8,191.7v-3.3h-2.8v3.3
	H133.8z M136.7,181.9h7v12.9c0,0.5-0.1,0.9-0.4,1.2c-0.3,0.2-0.6,0.4-1.1,0.4h-2.7l-0.3-1.6l2.3,0.1c0.3,0,0.5-0.2,0.5-0.7v-2.9h-4
	c-0.1,0.6-0.3,1.2-0.5,1.6c-0.5,1.2-1.4,2.4-2.8,3.7l-1.4-1.2c1.2-0.9,2.1-2,2.7-3.1c0.4-0.9,0.7-2.2,0.7-4.1L136.7,181.9
	L136.7,181.9z M142.1,189.9v-2.6h-3.8v1.2c0,0.5,0,1-0.1,1.4H142.1z M142.1,185.8v-2.4h-3.8v2.4H142.1z"/>
<path class="st0" d="M151.1,181.6c-0.1,0.3-0.3,0.6-0.5,0.9h4.2v1.2c0.7-0.8,1.3-1.6,1.6-2.5l1.5,0.2c-0.2,0.3-0.3,0.7-0.5,1h5v1.4
	h-2.7c0.2,0.4,0.3,0.8,0.5,1.2l-1.6,0.1c-0.1-0.5-0.2-0.9-0.3-1.4h-1.6c-0.4,0.5-0.8,1-1.2,1.4l-1.4-0.9c0.2-0.2,0.4-0.4,0.6-0.6
	h-2.2c0.2,0.4,0.3,0.8,0.5,1.2l-1.6,0.1c-0.1-0.5-0.2-0.9-0.4-1.3h-1.2c-0.4,0.6-0.9,1.1-1.4,1.5l-1.4-0.8c1.2-1,2.1-2.1,2.6-3.2
	L151.1,181.6L151.1,181.6z M154.2,191.1v-0.8l-0.7-0.6c0.8-0.3,1.4-0.5,1.8-0.8c-0.4-0.2-0.9-0.4-1.3-0.5l0.7-1.1
	c0.5,0.2,0.9,0.3,1.3,0.5c0-0.2,0.1-0.3,0.1-0.5v-0.6h-1.8v-1.2h6v3.2c0,0.3,0.1,0.5,0.4,0.5h0.1c0.2,0,0.3-0.1,0.3-0.2
	c0.1-0.1,0.2-0.5,0.2-1.3l1.2,0.4c-0.1,1.1-0.3,1.8-0.5,2c-0.2,0.2-0.6,0.3-1.1,0.3h-0.7c-0.4,0-0.7-0.1-1-0.3
	c-0.2-0.2-0.3-0.6-0.3-1v-2.5h-1.6v0.6c0,0.4-0.1,0.7-0.2,1c0.5,0.2,1,0.5,1.5,0.8l-0.8,1.2c-0.5-0.3-1-0.6-1.5-0.8
	c-0.3,0.3-0.7,0.5-1.2,0.8h0.3v0.9h6.8v1.4h-5.2c0.6,0.5,1.1,0.8,1.7,1.1c0.8,0.4,2,0.8,3.5,1.2l-0.7,1.4c-1.8-0.6-3.1-1.2-4-1.8
	c-0.7-0.4-1.4-1-2.1-1.8v4.2h-1.5v-4.2h-0.1c-0.5,0.6-1.1,1.2-1.7,1.6c-1,0.7-2.5,1.4-4.4,2.1l-0.8-1.4c2-0.6,3.4-1.1,4.2-1.6
	c0.4-0.2,0.8-0.5,1.1-0.8h-5.4v-1.4H154.2L154.2,191.1z M153.7,185.8v1.4h-2.2v1.4c0.7-0.1,1.5-0.3,2.2-0.4v1.3
	c-1.8,0.4-3.8,0.8-6.1,1.2l-0.3-1.5c0.9-0.1,1.8-0.2,2.7-0.3v-1.7h-2.3v-1.4H153.7L153.7,185.8z"/>
<path class="st0" d="M169.2,181.4v6.1h2.1v1.4h-1.2v4.9c0.5-0.3,0.9-0.7,1.4-1v1.5c-0.8,0.8-1.8,1.5-2.8,2.2l-0.4-1.5
	c0.2-0.1,0.4-0.2,0.6-0.3v-5.7h-0.8c-0.1,1.9-0.3,3.3-0.5,4.4c-0.3,1.2-0.7,2.3-1.2,3.3l-0.9-1.1c0.4-0.8,0.7-1.8,0.9-2.8
	c0.2-0.9,0.3-2.2,0.4-3.8h-1.3v-1.4h2.4v-6.1H169.2L169.2,181.4z M167.4,186.3l-1.2,0.2c-0.2-1.3-0.3-2.6-0.6-3.8l1.1-0.3
	C167,183.5,167.2,184.8,167.4,186.3L167.4,186.3z M171.4,182.6c-0.2,1.6-0.4,2.9-0.8,4l-1-0.6c0.3-1.1,0.6-2.3,0.7-3.6L171.4,182.6
	L171.4,182.6z M180.5,185.1h-0.8v0.6h-3v0.9h3.4v5.8h-3.4v1h3.9v1.4h-3.9v2h-1.4v-2h-3.6v-1.4h3.6v-1h-3.4v-5.8h3.4v-0.9h-2.8v-0.6
	h-0.8V182h8.8L180.5,185.1L180.5,185.1z M175.3,184.4v-1.1h-2.1v1.1H175.3z M175.3,188.9v-1.2h-2.1v1.2H175.3z M175.3,190h-2.1v1.1
	h2.1V190z M176.7,184.4h2.4v-1.1h-2.4V184.4z M176.7,188.9h2.2v-1.2h-2.2V188.9z M178.8,190h-2.2v1.1h2.2V190z"/>
<path class="st0" d="M198.4,189.9v1.4h-6.2v1.2h5.8v1.3h-5.8v1.2h6.8v1.4h-15V195h6.6v-1.2h-5.9v-1.3h5.9v-1.2h-6.2v-1.4H198.4z
	 M192.3,181.6c-0.1,0.4-0.2,0.9-0.4,1.2h5.8v6.1h-12.7v-6.1h5.1c0.1-0.4,0.2-0.9,0.3-1.4L192.3,181.6z M196.3,185.2v-1h-9.7v1H196.3
	z M196.3,186.4h-9.7v1.1h9.7V186.4z"/>
<path class="st0" d="M204.6,197.3V196h4v-7h1.2v8.2L204.6,197.3L204.6,197.3z"/>
<g>
	<path class="st2" d="M60.6,9.4c4.2,1.8,2.6,4.7,1.1,3.4c-0.1-0.9-0.6-2-1.1-2.9v11c0,0.2-0.8,0.7-1.4,0.7h-0.4v-8.9
		c-0.7,1.4-1.6,2.8-2.7,4l-0.3-0.3c1.4-2.4,2.2-5.6,2.7-8.7h-2.4l-0.2-0.6h2.9V2.1l2.6,0.3c-0.1,0.3-0.2,0.5-0.8,0.6v4.3h0.1
		l0.9-1.3c0,0,1.1,0.9,1.7,1.6c-0.1,0.2-0.3,0.3-0.5,0.3h-2.2V9.4z M65.9,2.2l2.5,0.3c0,0.3-0.2,0.5-0.7,0.6v9.4
		c0,4.3-1.5,7.3-5.9,9.2l-0.2-0.3c3.2-2,4.3-4.7,4.4-8.7c-0.6,0.8-1.3,1.7-2.2,2.8c0,0.3-0.1,0.5-0.3,0.7l-1.3-1.9
		c0.7-0.4,2.2-1.3,3.8-2.3V2.2z M63.1,5.7c4.2,2.4,2.6,5.6,1.2,4.2c-0.1-1.3-0.8-3-1.4-4L63.1,5.7z M74.8,19.2
		c0.5,0.3,0.7,0.4,0.7,0.8c0,0.7-0.7,1-3,1h-1.3c-1.5,0-1.9-0.5-1.9-1.7v-17l2.5,0.3c0,0.3-0.2,0.5-0.7,0.6v5.5
		c0.7-1.2,1.4-2.6,1.8-3.4L75,6.8C74.9,7,74.6,7.1,74.2,7c-0.7,0.7-1.9,1.8-3.1,2.7v1.5c4.9,2,3.5,5.5,1.7,4.2
		c-0.2-1.1-1-2.4-1.7-3.4v6.8c0,0.4,0.1,0.6,0.6,0.6h0.9c0.4,0,0.8,0,0.9,0c0.1,0,0.3-0.1,0.4-0.2c0.2-0.2,0.5-1.4,0.7-2.3h0.3
		L74.8,19.2z"/>
	<path class="st2" d="M97.3,4c-0.1,0.2-0.5,0.3-0.9,0.4v16.3c0,0.2-1,0.7-1.7,0.7h-0.3V20H81.3v0.9c0,0.3-0.8,0.8-1.6,0.8h-0.3V2.6
		l2.1,0.9h12.7l1-1.2L97.3,4z M94.5,19.4V4.1H81.3v15.3h3.6l-1-1.4c0.6-0.4,0.7-0.6,0.7-0.9v-1.3c-0.9,0.4-1.9,0.8-3,1l-0.2-0.4
		c1.8-0.7,3.4-1.7,4.6-2.9H85v0.2c0,0.1-0.8,0.5-1.4,0.5h-0.3V9.7l1.8,0.7h5.5l0.8-0.8l1.7,1.3c-0.1,0.1-0.3,0.3-0.7,0.3v2.4
		c0,0,0,0,0,0.1l1.3,1.2c-0.1,0.1-0.3,0.2-0.7,0c-0.5,0.2-1.2,0.5-1.8,0.8c3.4,1.7,2.5,3.7,1.2,3c-0.7-1-2.5-2.6-4.8-3.8l0.1-0.3
		c1.1,0.3,2,0.6,2.8,0.9c0.5-0.5,1-1,1.4-1.5c-0.3,0.1-0.6,0.2-0.8,0.2h-0.3v-0.4h-2.6c-0.5,0.5-1.1,1-1.8,1.4v2.3
		c0.9-0.2,1.8-0.5,2.9-0.8l0.1,0.3c-0.8,0.5-2.4,1.4-4,2.3c-0.1,0.1-0.2,0.3-0.3,0.3H94.5z M92.3,7.4c0,0,1.1,0.8,1.8,1.4
		c-0.1,0.2-0.3,0.3-0.6,0.3H81.9l-0.2-0.6H87V7.1h-4l-0.2-0.6H87V4.6l2.4,0.2c0,0.3-0.2,0.4-0.6,0.5v1.1h1.8l0.9-1.2
		c0,0,1,0.8,1.7,1.4c0,0.2-0.3,0.3-0.5,0.3h-3.9v1.5h2.6L92.3,7.4z M90.8,11.1H85v2h5.8V11.1z"/>
	<path class="st2" d="M118.9,7.1c-0.1,0.2-0.3,0.3-0.8,0.3c-1.3,1.6-3.5,3.7-5.7,5.4c1.4,3.2,3.7,5.3,7.8,6.8l0,0.2
		c-1,0.2-1.7,0.8-2,1.9c-5.2-2.5-6.9-6.8-7.6-13.2c-0.4,5.8-1.9,10.3-10,13.2l-0.2-0.3c8.6-4.4,8.1-10.4,8.1-19l3,0.3
		c-0.1,0.3-0.3,0.5-0.8,0.6v0.3c0.2,3.6,0.6,6.4,1.5,8.8c1.6-2,3.2-4.9,4-6.7L118.9,7.1z M101.4,6c6.6,3.7,5.1,8.3,3,6.6
		c-0.4-2.1-2-4.7-3.2-6.5L101.4,6z"/>
	<path class="st2" d="M139.8,15.7c0,0,1.5,1.1,2.4,1.9c0,0.2-0.3,0.3-0.6,0.3h-8.2V21c0,0.2-0.9,0.6-1.6,0.6h-0.4v-3.7h-8.4
		l-0.2-0.6h8.6v-2.5h-4v0.7c0,0.2-0.9,0.7-1.7,0.7h-0.3V6.8l2.1,0.9h3.8V5.5h-7.8l-0.1-0.6h8V2.2l2.8,0.3c0,0.3-0.2,0.5-0.8,0.6v1.9
		h4.5l1.3-1.6c0,0,1.5,1.1,2.4,1.8c-0.1,0.2-0.3,0.3-0.6,0.3h-7.6v2.1h3.8l1-1.1l2.1,1.6c-0.1,0.2-0.4,0.3-0.9,0.4v6.5
		c0,0.2-1,0.6-1.7,0.6h-0.3v-0.9h-4.1v2.5h5.1L139.8,15.7z M127.4,8.3v2.6h4V8.3H127.4z M131.3,14.2v-2.8h-4v2.8H131.3z M133.4,8.3
		v2.6h4.1V8.3H133.4z M137.4,14.2v-2.8h-4.1v2.8H137.4z"/>
	<path class="st2" d="M153.4,9.2c-0.1,0.3-0.3,0.4-0.8,0.4c-0.6,2-1.5,5-2.5,7.5c1.1-0.3,2.2-0.5,3.3-0.8l0.1,0.3
		c-1.6,0.8-3.8,2-7,3.4c-0.1,0.3-0.3,0.5-0.5,0.5l-1.1-2.3c0.9-0.1,2.6-0.5,4.6-1c0.5-2.8,1-6.3,1.3-8.8L153.4,9.2z M145,7.7
		l-0.2-0.6h6.4l1.1-1.6c0,0,1.3,1.1,2,1.9c-0.1,0.2-0.3,0.3-0.6,0.3H145z M146.1,8.7c4.6,5,2,9,0.8,7.1c0-1.7-0.1-4.8-1.1-7
		L146.1,8.7z M147.4,2.2c4.8,2,2.9,5.6,1.1,4.1c-0.1-1.3-0.8-2.9-1.3-3.9L147.4,2.2z M162.4,5.7c0,0,1.3,1,2,1.7
		c0,0.2-0.2,0.3-0.5,0.3h-4.6v4.4h1.6l1-1.1l1.9,1.5c-0.1,0.2-0.4,0.3-0.8,0.4v8c0,0.1-0.7,0.5-1.6,0.5h-0.4V20h-5.2v1.1
		c0,0.2-0.6,0.5-1.6,0.5h-0.3V11.3l2.2,0.9h1.4V2.1l2.7,0.3c0,0.3-0.2,0.5-0.8,0.6v4.2h2.1L162.4,5.7z M155.6,12.8v6.6h5.2v-6.6
		H155.6z"/>
	<path class="st2" d="M169.8,9.6c0,1-0.3,1.8-0.8,2.2c-0.5,0.4-1.4,0.4-1.7-0.3c-0.2-0.6,0.1-1.1,0.7-1.4c0.5-0.3,1.2-1.2,1.2-2
		l0.3,0c0.1,0.3,0.2,0.6,0.2,0.9h9c0.3-1,0.7-2.4,0.9-3.3l2.8,0.9c-0.1,0.3-0.3,0.4-0.8,0.4c-0.6,0.6-1.5,1.4-2.3,2.1h4.1l1.1-1.1
		l1.9,1.9c-0.2,0.1-0.4,0.2-0.8,0.2c-0.8,0.5-2.1,1.3-2.9,1.7l-0.3-0.1c0.2-0.5,0.6-1.3,0.8-1.9H169.8z M183.9,11.4
		c0,0,1.2,0.9,2,1.6c-0.1,0.2-0.3,0.3-0.6,0.3h-9.3c-0.1,0.7-0.2,1.3-0.3,2h4.8l1-1l2,1.6c-0.1,0.2-0.4,0.3-0.8,0.3
		c-0.2,2.8-0.6,4.4-1.5,5c-0.6,0.4-1.3,0.6-2.4,0.6c0-0.6-0.1-1-0.4-1.3c-0.3-0.3-1.1-0.5-1.9-0.7l0-0.3c0.8,0.1,2.2,0.2,2.7,0.2
		c0.3,0,0.5,0,0.7-0.1c0.4-0.3,0.7-1.6,0.8-3.6h-5.2c-0.8,2.2-2.7,4.3-7.7,5.8l-0.2-0.3c5.5-2.4,6-5.2,6.1-8h-5.5l-0.2-0.6h14.8
		L183.9,11.4z M168.2,5.6L168,5h14.6l1.2-1.5c0,0,1.4,1,2.2,1.8c-0.1,0.2-0.3,0.3-0.5,0.3H168.2z M172.4,5.8c4.4,1,2.5,4.2,0.9,2.8
		c-0.1-0.9-0.6-2-1.1-2.7L172.4,5.8z M175.2,2.1c4.7,0.3,3.1,3.8,1.3,2.6c-0.1-0.9-0.8-1.9-1.5-2.5L175.2,2.1z M175.5,9.8
		c4.5,0.6,2.6,3.8,0.9,2.5c-0.1-0.8-0.7-1.8-1.1-2.4L175.5,9.8z"/>
</g>
</svg>
