<svg width="6" height="555" viewBox="0 0 6 555" fill="none" xmlns="http://www.w3.org/2000/svg">
<path d="M5.60001 484.7V483.4H1V482.9H5.60001V481.6H5.70001V484.8H5.60001V484.7Z" fill="#C9A063"/>
<path d="M1 488.6V488.1H3.5V485.7H1V485.2H5.70001V485.7H3.60001V488.1H5.70001V488.6H1Z" fill="#C9A063"/>
<path d="M1 492.5V490.1H5.70001V492.4H5.60001V490.6H3.70001V492.2H3.60001V490.6H1.20001V492.5H1Z" fill="#C9A063"/>
<path d="M5.70004 499.1L0.900024 497.1L5.70004 495.1V495.7L1.80002 497.3L5.70004 498.9V499.1Z" fill="#C9A063"/>
<path d="M3.39999 504.8C2.69999 504.8 2.10001 504.6 1.70001 504.1C1.20001 503.6 1 503 1 502.3C1 501.6 1.20001 500.9 1.70001 500.5C2.20001 500 2.69999 499.8 3.39999 499.8C4.09999 499.8 4.70001 500 5.10001 500.5C5.60001 501 5.79999 501.6 5.79999 502.3C5.79999 503 5.60001 503.7 5.10001 504.1C4.60001 504.6 4.09999 504.8 3.39999 504.8ZM3.39999 504.2C4.09999 504.2 4.6 504 5 503.7C5.5 503.3 5.70001 502.8 5.70001 502.2C5.70001 501.6 5.5 501.1 5 500.7C4.6 500.3 3.99999 500.2 3.39999 500.2C2.79999 500.2 2.19999 500.4 1.79999 500.7C1.29999 501.1 1.10001 501.6 1.10001 502.2C1.10001 502.8 1.29999 503.3 1.79999 503.7C2.19999 504.1 2.69999 504.2 3.39999 504.2Z" fill="#C9A063"/>
<path d="M1 506.5V506H5.70001V506.5H1Z" fill="#C9A063"/>
<path d="M1.70001 511.7C1.20001 511.3 1 510.8 1 510.1C1 509.5 1.20001 508.9 1.70001 508.5C2.20001 508 2.69999 507.8 3.39999 507.8C4.09999 507.8 4.60001 508 5.10001 508.4C5.60001 508.8 5.79999 509.3 5.79999 510C5.79999 510.6 5.59999 511.1 5.29999 511.5L5.10001 511.3C5.50001 510.9 5.60001 510.5 5.60001 510C5.60001 509.5 5.39999 509.1 4.89999 508.8C4.49999 508.5 3.89999 508.4 3.29999 508.4C2.69999 508.4 2.10001 508.6 1.70001 508.9C1.30001 509.2 1 509.7 1 510.2C1 510.8 1.20001 511.2 1.70001 511.5V511.7Z" fill="#C9A063"/>
<path d="M1 515.1V512.7H5.70001V515H5.60001V513.2H3.70001V514.8H3.60001V513.2H1.20001V515.1H1Z" fill="#C9A063"/>
<path d="M5.60001 520.9V519.6H1V519H5.60001V517.7H5.70001V520.9H5.60001Z" fill="#C9A063"/>
<path d="M1 524.7V524.2H3.5V521.8H1V521.3H5.70001V521.8H3.60001V524.2H5.70001V524.7H1Z" fill="#C9A063"/>
<path d="M1 528.6V526.2H5.70001V528.5H5.60001V526.7H3.70001V528.3H3.60001V526.7H1.20001V528.6H1Z" fill="#C9A063"/>
<path d="M5.70004 536.9L0.900024 535.4L4.80002 534L0.900024 532.7L5.70004 531.2V531.7L2.00003 532.9L5.80002 534.2L2.00003 535.6L5.80002 536.8L5.70004 536.9Z" fill="#C9A063"/>
<path d="M3.39999 542.5C2.69999 542.5 2.10001 542.3 1.70001 541.8C1.20001 541.3 1 540.7 1 540C1 539.3 1.20001 538.6 1.70001 538.2C2.20001 537.7 2.69999 537.5 3.39999 537.5C4.09999 537.5 4.70001 537.7 5.10001 538.2C5.60001 538.7 5.79999 539.3 5.79999 540C5.79999 540.7 5.60001 541.4 5.10001 541.8C4.60001 542.3 4.09999 542.5 3.39999 542.5ZM3.39999 541.9C4.09999 541.9 4.6 541.7 5 541.4C5.5 541 5.70001 540.5 5.70001 539.9C5.70001 539.3 5.5 538.8 5 538.4C4.6 538 3.99999 537.9 3.39999 537.9C2.79999 537.9 2.19999 538.1 1.79999 538.4C1.29999 538.8 1.10001 539.3 1.10001 539.9C1.10001 540.5 1.29999 541 1.79999 541.4C2.19999 541.8 2.69999 541.9 3.39999 541.9Z" fill="#C9A063"/>
<path d="M1 546.7V546.2L3.60001 544.6C3.60001 544.7 3.60001 544.8 3.60001 544.8C3.60001 545.5 3.90001 545.9 4.60001 545.9C5.30001 545.9 5.60001 545.4 5.60001 544.5V544.2H1V543.7H5.70001C5.70001 543.8 5.70001 544.1 5.70001 544.6C5.70001 545.8 5.3 546.4 4.5 546.4C4.2 546.4 3.90001 546.3 3.70001 546.1C3.50001 545.9 3.39999 545.6 3.29999 545.2L1 546.7Z" fill="#C9A063"/>
<path d="M1 550.1V547.7H5.70001V548.2H1.10001V550.1H1Z" fill="#C9A063"/>
<path d="M3.40002 554.9C2.50002 554.9 1.90003 554.6 1.50003 553.9C1.20003 553.4 1.10004 552.9 1.10004 552.3V551H5.80002V552.3C5.80002 552.9 5.70002 553.4 5.40002 553.9C4.90002 554.6 4.30002 554.9 3.40002 554.9ZM3.40002 554.4C4.20002 554.4 4.80004 554.1 5.20004 553.5C5.50004 553.1 5.60004 552.6 5.60004 552V551.5H1.10004V552C1.10004 552.7 1.20003 553.2 1.50003 553.6C2.00003 554.2 2.60002 554.4 3.40002 554.4Z" fill="#C9A063"/>
<path d="M1.5 0V479.7" stroke="#C9A063" stroke-width="0.35" stroke-miterlimit="10"/>
</svg>
