<?xml version="1.0" encoding="utf-8"?>
<!-- Generator: Adobe Illustrator 25.2.3, SVG Export Plug-In . SVG Version: 6.00 Build 0)  -->
<svg version="1.1" id="圖層_1" xmlns="http://www.w3.org/2000/svg" xmlns:xlink="http://www.w3.org/1999/xlink" x="0px" y="0px"
	 viewBox="0 0 200 17" style="enable-background:new 0 0 200 17;" xml:space="preserve">
<style type="text/css">
	.st0{opacity:0.6;}
	.st1{fill:#C9A063;}
</style>
<g class="st0">
	<path class="st1" d="M3.1,4.5c0,0.5-0.2,0.9-0.7,1.2C2,5.9,1.6,6,1,6C0.9,6,0.6,6,0.1,6V0.8H1c0.5,0,0.9,0.1,1.2,0.2
		c0.4,0.2,0.6,0.5,0.6,0.9c0,0.3-0.1,0.5-0.3,0.8C2.3,2.9,2.1,3.1,1.8,3.2c0.4,0.1,0.7,0.2,0.9,0.4C2.9,3.8,3.1,4.1,3.1,4.5z
		 M2.6,4.5c0-0.4-0.1-0.7-0.4-0.9C2,3.4,1.7,3.3,1.3,3.3H1V3.1h0.2C1.6,3.1,1.8,3,2,2.7C2.1,2.5,2.2,2.2,2.2,2
		c0-0.7-0.5-1.1-1.4-1.1H0.5v4.9h0.3C2,5.7,2.6,5.3,2.6,4.5z"/>
	<path class="st1" d="M6.9,3.9h-2V3.7h1.5c0-0.6-0.3-0.9-0.8-0.9C5.3,2.8,5,2.9,4.8,3.2C4.6,3.5,4.5,3.8,4.5,4.3s0.1,0.8,0.3,1.1
		C5,5.7,5.3,5.8,5.6,5.8c0.4,0,0.7-0.2,1-0.5l0.2,0.2C6.5,5.8,6.1,6,5.7,6C5.2,6,4.9,5.8,4.5,5.5C4.2,5.2,4,4.8,4,4.3
		s0.2-0.9,0.5-1.2s0.7-0.5,1.1-0.5c0.3,0,0.6,0.1,0.9,0.4C6.8,3.2,6.9,3.5,6.9,3.9z"/>
	<path class="st1" d="M10.1,3.8v2.1H9.6V5.6C9.4,5.8,9.1,5.9,8.8,5.9S8.2,5.8,8,5.6C7.8,5.4,7.6,5.2,7.6,4.8C7.6,4.5,7.7,4.2,8,4
		c0.2-0.2,0.5-0.3,0.7-0.3c0.1,0,0.2,0,0.2,0c0.2,0,0.3,0.1,0.4,0.1L9.2,4C9.1,4.1,9,4,8.8,4S8.4,4.1,8.3,4.2
		C8.2,4.4,8.1,4.6,8.1,4.9c0,0.3,0.1,0.5,0.2,0.6c0.1,0.2,0.3,0.2,0.5,0.2c0.3,0,0.6-0.2,0.8-0.5V3.7c0-0.7-0.2-1-0.7-1
		C8.6,2.7,8.4,2.8,8.1,3L8,2.9c0.2-0.2,0.5-0.2,0.9-0.2C9.7,2.6,10.1,3,10.1,3.8z"/>
	<path class="st1" d="M13.8,5.9h-0.5V5.3c-0.2,0.4-0.6,0.6-1,0.6c-0.8,0-1.2-0.4-1.2-1.2V2.5h0.5v2.2c0,0.7,0.2,1,0.7,1
		c0.3,0,0.5-0.2,0.7-0.5c0.1-0.2,0.2-0.4,0.2-0.6V2.5h0.5v3.4H13.8z"/>
	<path class="st1" d="M16.2,2.8h-0.6v2c0,0.3,0,0.6,0.1,0.7c0.1,0.1,0.2,0.2,0.5,0.2v0.2c-0.7,0-1.1-0.4-1.1-1.1v-2h-0.3V2.6h0.3
		V2.2h0.5v0.4h0.6V2.8z"/>
	<path class="st1" d="M20,2.6l-1.8,4.5H18l0.5-1.3l-1.4-3.2h0.5l1.1,2.6l1-2.6H20z"/>
	<path class="st1" d="M22.8,5.9h-0.5v-5h0.5V5.9z"/>
	<path class="st1" d="M24.5,1.2c0,0.1,0,0.2-0.1,0.2s-0.1,0.1-0.2,0.1c-0.1,0-0.2,0-0.2-0.1c0-0.1-0.1-0.1-0.1-0.2S23.9,1,24,1
		c0.1-0.1,0.1-0.1,0.2-0.1c0.1,0,0.2,0,0.2,0.1C24.5,1.1,24.5,1.1,24.5,1.2z M24.4,5.9H24V2.7h0.5v3.2H24.4z"/>
	<path class="st1" d="M28.4,3.9h-2V3.7h1.5c0-0.6-0.3-0.9-0.8-0.9c-0.3,0-0.6,0.1-0.8,0.4C26.1,3.5,26,3.8,26,4.3s0.1,0.8,0.3,1.1
		c0.2,0.3,0.5,0.4,0.8,0.4c0.4,0,0.7-0.2,1-0.5l0.2,0.2C28,5.8,27.6,6,27.2,6c-0.5,0-0.8-0.2-1.2-0.5c-0.3-0.3-0.5-0.7-0.5-1.2
		s0.2-0.9,0.5-1.2s0.7-0.5,1.1-0.5c0.3,0,0.6,0.1,0.9,0.4C28.2,3.2,28.4,3.5,28.4,3.9z"/>
	<path class="st1" d="M31.1,5.1c0,0.3-0.1,0.5-0.3,0.6c-0.2,0.2-0.4,0.2-0.7,0.2c-0.4,0-0.7-0.1-0.9-0.4l0.2-0.2
		c0.2,0.3,0.5,0.4,0.8,0.4c0.2,0,0.3-0.1,0.4-0.2s0.2-0.3,0.2-0.4c0-0.2-0.1-0.4-0.3-0.5c-0.1-0.1-0.3-0.2-0.6-0.4
		c-0.4-0.2-0.5-0.5-0.5-0.9c0-0.2,0.1-0.4,0.3-0.6c0.2-0.1,0.4-0.2,0.6-0.2c0.2,0,0.3,0,0.5,0.1c0.2,0.1,0.3,0.2,0.3,0.3l-0.2,0.2
		c-0.2-0.3-0.4-0.4-0.7-0.4c-0.3,0-0.5,0.1-0.6,0.4c0,0.2,0.1,0.4,0.3,0.6c0.4,0.2,0.6,0.4,0.7,0.5C30.9,4.5,31.1,4.8,31.1,5.1z"/>
	<path class="st1" d="M34.1,1.2c0,0.1,0,0.2-0.1,0.2s-0.1,0.1-0.2,0.1c-0.1,0-0.2,0-0.2-0.1c0-0.1-0.1-0.1-0.1-0.2s0-0.2,0.1-0.2
		c0.1-0.1,0.1-0.1,0.2-0.1c0.1,0,0.2,0,0.2,0.1C34.1,1.1,34.1,1.1,34.1,1.2z M34,5.9h-0.5V2.7H34V5.9z"/>
	<path class="st1" d="M37.8,5.9h-0.5V3.7c0-0.7-0.2-1-0.7-1s-0.8,0.3-1,0.9v2.3h-0.5V2.7h0.5v0.4c0.3-0.4,0.6-0.5,1-0.5
		c0.4,0,0.7,0.1,0.8,0.2c0.2,0.2,0.3,0.5,0.3,0.9L37.8,5.9L37.8,5.9z"/>
	<path class="st1" d="M41.6,2.8H41v2c0,0.3,0,0.6,0.1,0.7c0.1,0.1,0.2,0.2,0.5,0.2v0.2c-0.7,0-1.1-0.4-1.1-1.1v-2h-0.3V2.6h0.3V2.2
		H41v0.4h0.6V2.8z"/>
	<path class="st1" d="M45.2,5.9h-0.5V3.7c0-0.7-0.2-1-0.7-1S43.2,3,43,3.6v2.3h-0.5v-5H43v2.2c0.3-0.4,0.6-0.5,1-0.5
		s0.7,0.1,0.8,0.2C45,3,45.1,3.3,45.1,3.7v2.2H45.2z"/>
	<path class="st1" d="M49.1,3.9h-2V3.7h1.5c0-0.6-0.3-0.9-0.8-0.9c-0.3,0-0.6,0.1-0.8,0.4s-0.3,0.6-0.3,1.1s0.1,0.8,0.3,1.1
		c0.2,0.3,0.5,0.4,0.8,0.4c0.4,0,0.7-0.2,1-0.5L49,5.5C48.7,5.8,48.3,6,47.9,6c-0.5,0-0.8-0.2-1.2-0.5c-0.3-0.3-0.5-0.7-0.5-1.2
		s0.2-0.9,0.5-1.2s0.7-0.5,1.1-0.5c0.3,0,0.6,0.1,0.9,0.4C49,3.2,49.1,3.5,49.1,3.9z"/>
	<path class="st1" d="M54.1,5.5c-0.3,0.3-0.7,0.4-1.1,0.4c-0.5,0-0.8-0.2-1.2-0.5c-0.3-0.3-0.5-0.7-0.5-1.2s0.2-0.9,0.5-1.2
		s0.7-0.5,1.2-0.5c0.4,0,0.7,0.1,1,0.3L53.9,3c-0.2-0.2-0.5-0.4-0.9-0.4c-0.3,0-0.6,0.2-0.8,0.5s-0.3,0.6-0.3,1c0,0.4,0.1,0.8,0.3,1
		c0.2,0.3,0.5,0.5,0.8,0.5c0.4,0,0.7-0.2,1-0.5L54.1,5.5z"/>
	<path class="st1" d="M57.9,4.3c0,0.5-0.2,0.9-0.5,1.2C57.1,5.8,56.7,6,56.2,6S55.4,5.8,55,5.5c-0.3-0.3-0.5-0.7-0.5-1.2
		s0.2-0.9,0.5-1.2s0.7-0.5,1.2-0.5s0.8,0.2,1.2,0.5C57.8,3.4,57.9,3.8,57.9,4.3z M57.4,4.3c0-0.4-0.1-0.8-0.3-1.1
		c-0.2-0.3-0.5-0.4-0.8-0.4s-0.6,0.1-0.8,0.4s-0.3,0.6-0.3,1.1c0,0.4,0.1,0.8,0.3,1.1c0.2,0.3,0.5,0.4,0.8,0.4s0.6-0.1,0.8-0.4
		C57.3,5,57.4,4.7,57.4,4.3z"/>
	<path class="st1" d="M63.3,5.9h-0.5V3.7c0-0.3,0-0.5-0.1-0.7c-0.1-0.1-0.2-0.2-0.5-0.2c-0.4,0-0.6,0.3-0.9,0.8v0.1v2.2h-0.5V3.7
		c0-0.3,0-0.5-0.1-0.7c-0.1-0.1-0.3-0.2-0.5-0.2S59.9,2.9,59.7,3c-0.2,0.2-0.3,0.4-0.4,0.6v2.3h-0.5V2.7h0.5v0.4
		c0.3-0.3,0.6-0.5,0.9-0.5c0.5,0,0.8,0.2,1,0.5c0.3-0.4,0.6-0.5,1-0.5c0.7,0,1.1,0.4,1.1,1.1V5.9z"/>
	<path class="st1" d="M67.2,4.3c0,0.5-0.1,0.9-0.4,1.2C66.5,5.8,66.2,6,65.7,6c-0.3,0-0.6-0.1-0.8-0.4v0.3h-0.5v-5h0.5v4.2
		c0.1,0.2,0.2,0.4,0.3,0.5c0.1,0.1,0.3,0.2,0.5,0.2c0.3,0,0.5-0.1,0.7-0.4c0.2-0.3,0.3-0.6,0.3-1.1c0-0.4-0.1-0.8-0.3-1.1
		c-0.2-0.3-0.4-0.4-0.7-0.4c-0.2,0-0.3,0.1-0.5,0.2l-0.1-0.2c0.2-0.1,0.4-0.1,0.6-0.1c0.4,0,0.8,0.2,1.1,0.5
		C67.1,3.4,67.2,3.8,67.2,4.3z"/>
	<path class="st1" d="M68.8,1.2c0,0.1,0,0.2-0.1,0.2c-0.1,0-0.1,0.1-0.2,0.1s-0.2,0-0.2-0.1c0-0.1-0.1-0.1-0.1-0.2s0-0.2,0.1-0.2
		c0.1-0.1,0.1-0.1,0.2-0.1s0.2,0,0.2,0.1C68.8,1.1,68.8,1.1,68.8,1.2z M68.8,5.9h-0.5V2.7h0.5V5.9z"/>
	<path class="st1" d="M72.5,5.9H72V3.7c0-0.7-0.2-1-0.7-1s-0.8,0.3-1,0.9v2.3h-0.5V2.7h0.5v0.4c0.3-0.4,0.6-0.5,1-0.5
		c0.4,0,0.7,0.1,0.8,0.2c0.2,0.2,0.3,0.5,0.3,0.9L72.5,5.9L72.5,5.9z"/>
	<path class="st1" d="M76,3.8v2.1h-0.5V5.6c-0.2,0.2-0.5,0.3-0.8,0.3c-0.3,0-0.6-0.1-0.8-0.3c-0.2-0.2-0.4-0.4-0.4-0.8
		c0-0.3,0.1-0.6,0.4-0.8c0.2-0.2,0.5-0.3,0.7-0.3c0.1,0,0.2,0,0.2,0c0.2,0,0.3,0.1,0.4,0.1L75.1,4c-0.2-0.1-0.3-0.2-0.5-0.2
		c-0.2,0-0.4,0.1-0.5,0.2c-0.1,0.2-0.2,0.4-0.2,0.7c0,0.3,0.1,0.5,0.2,0.6c0.1,0.2,0.3,0.2,0.5,0.2c0.3,0,0.6-0.2,0.8-0.5V3.5
		c0-0.7-0.2-1-0.7-1c-0.3,0-0.5,0.1-0.8,0.3l-0.1-0.2c0.2-0.2,0.5-0.2,0.9-0.2C75.6,2.6,76,3,76,3.8z"/>
	<path class="st1" d="M78.3,2.8h-0.6v2c0,0.3,0,0.6,0.1,0.7c0.1,0.1,0.2,0.2,0.5,0.2v0.2c-0.7,0-1.1-0.4-1.1-1.1v-2h-0.3V2.6h0.3
		V2.2h0.5v0.4h0.6V2.8z"/>
	<path class="st1" d="M79.8,1.2c0,0.1,0,0.2-0.1,0.2c-0.1,0-0.1,0.1-0.2,0.1s-0.2,0-0.2-0.1c0-0.1-0.1-0.1-0.1-0.2s0-0.2,0.1-0.2
		c0.1-0.1,0.1-0.1,0.2-0.1s0.2,0,0.2,0.1C79.8,1.1,79.8,1.1,79.8,1.2z M79.8,5.9h-0.5V2.7h0.5V5.9z"/>
	<path class="st1" d="M84.1,4.3c0,0.5-0.2,0.9-0.5,1.2C83.3,5.8,82.9,6,82.4,6s-0.8-0.2-1.2-0.5c-0.3-0.3-0.5-0.7-0.5-1.2
		s0.2-0.9,0.5-1.2c0.3-0.3,0.7-0.5,1.2-0.5s0.8,0.2,1.2,0.5S84.1,3.8,84.1,4.3z M83.6,4.3c0-0.4-0.1-0.8-0.3-1.1
		c-0.2-0.3-0.5-0.4-0.8-0.4s-0.6,0.1-0.8,0.4c-0.2,0.3-0.3,0.6-0.3,1.1c0,0.4,0.1,0.8,0.3,1.1c0.2,0.3,0.5,0.4,0.8,0.4
		s0.6-0.1,0.8-0.4C83.5,5,83.6,4.7,83.6,4.3z"/>
	<path class="st1" d="M87.8,5.9h-0.5V3.7c0-0.7-0.2-1-0.7-1s-0.8,0.3-1,0.9v2.3h-0.5V2.7h0.5v0.4c0.3-0.4,0.6-0.5,1-0.5
		s0.7,0.1,0.8,0.2c0.2,0.2,0.3,0.5,0.3,0.9v2.2H87.8z"/>
	<path class="st1" d="M93.5,4.3c0,0.5-0.2,0.9-0.5,1.2S92.3,6,91.8,6S91,5.8,90.6,5.5c-0.3-0.3-0.5-0.7-0.5-1.2s0.2-0.9,0.5-1.2
		c0.3-0.3,0.7-0.5,1.2-0.5s0.8,0.2,1.2,0.5S93.5,3.8,93.5,4.3z M93,4.3c0-0.4-0.1-0.8-0.3-1.1c-0.2-0.3-0.5-0.4-0.8-0.4
		c-0.3,0-0.6,0.1-0.8,0.4c-0.2,0.3-0.3,0.6-0.3,1.1c0,0.4,0.1,0.8,0.3,1.1c0.2,0.3,0.5,0.4,0.8,0.4c0.3,0,0.6-0.1,0.8-0.4
		C92.9,5,93,4.7,93,4.3z"/>
	<path class="st1" d="M95.2,2.8v3.1h-0.5V2.8h-0.3V2.6h0.3V2c0-0.7,0.4-1,1.1-1v0.2c-0.2,0-0.4,0.1-0.5,0.2
		c-0.1,0.1-0.1,0.4-0.1,0.7V2.8z"/>
	<path class="st1" d="M2.6,14.9H2.1v-2.2c0-0.7-0.2-1-0.7-1s-0.8,0.3-1,0.9v2.3H0v-3.2h0.5v0.4c0.3-0.4,0.6-0.5,1-0.5
		s0.7,0.1,0.8,0.2c0.2,0.2,0.3,0.5,0.3,0.9V14.9z"/>
	<path class="st1" d="M6.1,12.8v2.1H5.6v-0.3c-0.2,0.2-0.5,0.3-0.8,0.3c-0.3,0-0.6-0.1-0.8-0.3c-0.2-0.2-0.4-0.4-0.4-0.8
		c0-0.3,0.1-0.6,0.4-0.8c0.2-0.2,0.5-0.3,0.7-0.3c0.1,0,0.2,0,0.2,0c0.2,0,0.3,0.1,0.4,0.1L5.2,13c-0.2-0.1-0.3-0.2-0.5-0.2
		c-0.2,0-0.4,0.1-0.5,0.2C4.1,13.2,4,13.4,4,13.7s0.1,0.5,0.2,0.6c0.1,0.2,0.3,0.2,0.5,0.2c0.3,0,0.6-0.2,0.8-0.5v-1.5
		c0-0.7-0.2-1-0.7-1c-0.3,0-0.5,0.1-0.8,0.3v0.1c0.2-0.2,0.5-0.2,0.9-0.2C5.7,11.6,6.1,12,6.1,12.8z"/>
	<path class="st1" d="M8.4,11.8H7.8v2c0,0.3,0,0.6,0.1,0.7c0.1,0.1,0.2,0.2,0.5,0.2v0.2c-0.7,0-1.1-0.4-1.1-1.1v-2H7v-0.2h0.3v-0.4
		h0.5v0.4h0.6V11.8z"/>
	<path class="st1" d="M12,14.9h-0.5v-0.6c-0.2,0.4-0.6,0.6-1,0.6c-0.8,0-1.2-0.4-1.2-1.2v-2.2h0.5v2.2c0,0.7,0.2,1,0.7,1
		c0.3,0,0.5-0.2,0.7-0.5c0.1-0.2,0.2-0.4,0.2-0.6v-2.1H12V14.9z"/>
	<path class="st1" d="M14.6,11.7l-0.1,0.2c-0.1-0.1-0.3-0.1-0.4-0.1c-0.1,0-0.1,0-0.2,0.1c-0.2,0.1-0.3,0.4-0.3,0.9v2.1h-0.5v-3.2
		h0.5v0.4c0.1-0.1,0.1-0.2,0.2-0.3c0.1-0.1,0.2-0.1,0.4-0.1C14.3,11.6,14.5,11.7,14.6,11.7z"/>
	<path class="st1" d="M17.7,12.8v2.1h-0.5v-0.3c-0.2,0.2-0.5,0.3-0.8,0.3c-0.3,0-0.6-0.1-0.8-0.3c-0.2-0.2-0.4-0.4-0.4-0.8
		c0-0.3,0.1-0.6,0.4-0.8c0.2-0.2,0.5-0.3,0.7-0.3c0.1,0,0.2,0,0.2,0c0.2,0,0.3,0.1,0.4,0.1L16.8,13c-0.2-0.1-0.3-0.2-0.5-0.2
		c-0.2,0-0.4,0.1-0.5,0.2c-0.1,0.2-0.2,0.4-0.2,0.7c0,0.3,0.1,0.5,0.2,0.6c0.1,0.2,0.3,0.2,0.5,0.2c0.3,0,0.6-0.2,0.8-0.5v-1.5
		c0-0.7-0.2-1-0.7-1c-0.3,0-0.5,0.1-0.8,0.3l-0.1-0.2c0.2-0.2,0.5-0.2,0.9-0.2C17.3,11.6,17.7,12,17.7,12.8z"/>
	<path class="st1" d="M19.3,14.9h-0.5v-5h0.5V14.9z"/>
	<path class="st1" d="M22.3,14.9h-0.5v-5h0.5V14.9z"/>
	<path class="st1" d="M25.7,12.8v2.1h-0.5v-0.3c-0.2,0.2-0.5,0.3-0.8,0.3c-0.3,0-0.6-0.1-0.8-0.3c-0.2-0.2-0.4-0.4-0.4-0.8
		c0-0.3,0.1-0.6,0.4-0.8c0.2-0.2,0.5-0.3,0.7-0.3c0.1,0,0.2,0,0.2,0c0.2,0,0.3,0.1,0.4,0.1L24.8,13c-0.2-0.1-0.3-0.2-0.5-0.2
		c-0.2,0-0.4,0.1-0.5,0.2c-0.1,0.2-0.2,0.4-0.2,0.7c0,0.3,0.1,0.5,0.2,0.6c0.1,0.2,0.3,0.2,0.5,0.2c0.3,0,0.6-0.2,0.8-0.5v-1.5
		c0-0.7-0.2-1-0.7-1c-0.3,0-0.5,0.1-0.8,0.3l-0.1-0.2c0.2-0.2,0.5-0.2,0.9-0.2C25.3,11.6,25.7,12,25.7,12.8z"/>
	<path class="st1" d="M29.5,14.9H29v-2.2c0-0.7-0.2-1-0.7-1s-0.8,0.3-1,0.9v2.3h-0.5v-3.2h0.5v0.4c0.3-0.4,0.6-0.5,1-0.5
		c0.4,0,0.7,0.1,0.8,0.2c0.2,0.2,0.3,0.5,0.3,0.9v2.2H29.5z"/>
	<path class="st1" d="M33.3,14.9h-0.5v-0.3C32.6,14.8,32.3,15,32,15c-0.4,0-0.8-0.2-1.1-0.5c-0.3-0.3-0.4-0.7-0.4-1.2
		s0.1-0.9,0.4-1.2c0.3-0.3,0.6-0.5,1.1-0.5c0.2,0,0.4,0,0.6,0.1l-0.1,0.2c-0.1-0.1-0.3-0.2-0.5-0.2s-0.5,0.1-0.6,0.4
		c-0.2,0.3-0.3,0.7-0.3,1.1c0,0.4,0.1,0.8,0.3,1.1c0.2,0.3,0.4,0.4,0.7,0.4c0.2,0,0.3-0.1,0.5-0.2c0.1-0.1,0.2-0.3,0.3-0.5V9.8h0.5
		v5.1H33.3z"/>
	<path class="st1" d="M36.2,14.1c0,0.3-0.1,0.5-0.3,0.6c-0.2,0.2-0.4,0.2-0.7,0.2c-0.4,0-0.7-0.1-0.9-0.4l0.2-0.2
		c0.2,0.3,0.5,0.4,0.8,0.4c0.2,0,0.3-0.1,0.4-0.2c0.1-0.1,0.2-0.3,0.2-0.4c0-0.2-0.1-0.4-0.3-0.5c-0.1-0.1-0.3-0.2-0.6-0.4
		c-0.4-0.2-0.5-0.5-0.5-0.9c0-0.2,0.1-0.4,0.3-0.6c0.2-0.1,0.4-0.2,0.6-0.2c0.1,0,0.3,0,0.5,0.1c0.2,0.1,0.3,0.2,0.3,0.3L36,12.1
		c-0.2-0.3-0.4-0.4-0.7-0.4s-0.5,0.1-0.5,0.4c0,0.2,0.1,0.4,0.3,0.6c0.4,0.2,0.6,0.4,0.7,0.5C36,13.5,36.2,13.8,36.2,14.1z"/>
	<path class="st1" d="M39.8,14.5c-0.3,0.3-0.7,0.4-1.1,0.4c-0.5,0-0.8-0.2-1.2-0.5c-0.3-0.3-0.5-0.7-0.5-1.2s0.2-0.9,0.5-1.2
		s0.7-0.5,1.2-0.5c0.4,0,0.7,0.1,1,0.3L39.6,12c-0.2-0.2-0.5-0.4-0.9-0.4c-0.3,0-0.6,0.2-0.8,0.5c-0.2,0.3-0.3,0.6-0.3,1
		c0,0.4,0.1,0.8,0.3,1c0.2,0.3,0.5,0.5,0.8,0.5c0.4,0,0.7-0.2,1-0.5L39.8,14.5z"/>
	<path class="st1" d="M42.9,12.8v2.1h-0.5v-0.3c-0.2,0.2-0.5,0.3-0.8,0.3c-0.3,0-0.6-0.1-0.8-0.3s-0.4-0.4-0.4-0.8
		c0-0.3,0.1-0.6,0.4-0.8c0.2-0.2,0.5-0.3,0.7-0.3c0.1,0,0.2,0,0.2,0c0.2,0,0.3,0.1,0.4,0.1L42,13c-0.2-0.1-0.3-0.2-0.5-0.2
		S41.1,12.9,41,13c-0.1,0.2-0.2,0.4-0.2,0.7c0,0.3,0.1,0.5,0.2,0.6c0.1,0.2,0.3,0.2,0.5,0.2c0.3,0,0.6-0.2,0.8-0.5v-1.5
		c0-0.7-0.2-1-0.7-1c-0.3,0-0.5,0.1-0.8,0.3l-0.1-0.2c0.2-0.2,0.5-0.2,0.9-0.2C42.5,11.6,42.9,12,42.9,12.8z"/>
	<path class="st1" d="M46.7,13.3c0,0.5-0.1,0.8-0.4,1.2c-0.3,0.3-0.6,0.5-1,0.5c-0.2,0-0.4,0-0.6-0.1l0.1-0.2
		c0.1,0.1,0.3,0.2,0.5,0.2s0.5-0.1,0.6-0.4c0.2-0.3,0.3-0.6,0.3-1.1c0-0.4-0.1-0.8-0.3-1.1c-0.2-0.3-0.4-0.4-0.7-0.4
		c-0.2,0-0.3,0.1-0.5,0.2c-0.1,0.1-0.2,0.3-0.3,0.5v3.6H44v-4.4h0.5v0.3c0.2-0.2,0.5-0.4,0.8-0.4c0.4,0,0.8,0.2,1,0.5
		C46.6,12.5,46.7,12.8,46.7,13.3z"/>
	<path class="st1" d="M50.5,12.9h-2v-0.2H50c0-0.6-0.3-0.9-0.8-0.9c-0.3,0-0.6,0.1-0.8,0.4c-0.2,0.3-0.3,0.6-0.3,1.1
		s0.1,0.8,0.3,1.1c0.2,0.3,0.5,0.4,0.8,0.4c0.4,0,0.7-0.2,1-0.5l0.2,0.2c-0.3,0.3-0.7,0.5-1.1,0.5c-0.5,0-0.8-0.2-1.2-0.5
		c-0.3-0.3-0.5-0.7-0.5-1.2s0.2-0.9,0.5-1.2c0.3-0.3,0.7-0.5,1.1-0.5c0.3,0,0.6,0.1,0.9,0.4C50.4,12.2,50.5,12.5,50.5,12.9z"/>
	<path class="st1" d="M55.2,12.8v2.1h-0.5v-0.3c-0.2,0.2-0.5,0.3-0.8,0.3c-0.3,0-0.6-0.1-0.8-0.3c-0.2-0.2-0.4-0.4-0.4-0.8
		c0-0.3,0.1-0.6,0.4-0.8c0.2-0.2,0.5-0.3,0.7-0.3c0.1,0,0.2,0,0.2,0c0.2,0,0.3,0.1,0.4,0.1L54.3,13c-0.2-0.1-0.3-0.2-0.5-0.2
		s-0.4,0.1-0.5,0.2c-0.1,0.2-0.2,0.4-0.2,0.7c0,0.3,0.1,0.5,0.2,0.6c0.1,0.2,0.3,0.2,0.5,0.2c0.3,0,0.6-0.2,0.8-0.5v-1.5
		c0-0.7-0.2-1-0.7-1c-0.3,0-0.5,0.1-0.8,0.3L53,11.6c0.2-0.2,0.5-0.2,0.9-0.2C54.8,11.6,55.2,12,55.2,12.8z"/>
	<path class="st1" d="M59,14.9h-0.5v-2.2c0-0.7-0.2-1-0.7-1s-0.8,0.3-1,0.9v2.3h-0.5v-3.2h0.5v0.4c0.3-0.4,0.6-0.5,1-0.5
		c0.4,0,0.7,0.1,0.8,0.2c0.2,0.2,0.3,0.5,0.3,0.9L59,14.9L59,14.9z"/>
	<path class="st1" d="M62.8,14.9h-0.5v-0.3c-0.2,0.2-0.5,0.4-0.8,0.4c-0.4,0-0.8-0.2-1.1-0.5c-0.3-0.3-0.4-0.7-0.4-1.2
		s0.1-0.9,0.4-1.2c0.3-0.3,0.6-0.5,1.1-0.5c0.2,0,0.4,0,0.6,0.1L62,11.9c-0.2-0.1-0.3-0.2-0.5-0.2s-0.5,0.1-0.6,0.4
		c-0.2,0.3-0.3,0.7-0.3,1.1c0,0.4,0.1,0.8,0.3,1.1c0.2,0.3,0.4,0.4,0.7,0.4c0.2,0,0.3-0.1,0.5-0.2c0.1-0.1,0.2-0.3,0.3-0.5V9.8h0.5
		v5.1H62.8z"/>
	<path class="st1" d="M67.7,12.8v2.1h-0.5v-0.3c-0.2,0.2-0.5,0.3-0.8,0.3c-0.3,0-0.6-0.1-0.8-0.3c-0.2-0.2-0.4-0.4-0.4-0.8
		c0-0.3,0.1-0.6,0.4-0.8c0.2-0.2,0.5-0.3,0.7-0.3c0.1,0,0.2,0,0.2,0c0.2,0,0.3,0.1,0.4,0.1L66.8,13c-0.2-0.1-0.3-0.2-0.5-0.2
		c-0.2,0-0.4,0.1-0.5,0.2c-0.1,0.2-0.2,0.4-0.2,0.7c0,0.3,0.1,0.5,0.2,0.6c0.1,0.2,0.3,0.2,0.5,0.2c0.3,0,0.6-0.2,0.8-0.5v-1.5
		c0-0.7-0.2-1-0.7-1c-0.3,0-0.5,0.1-0.8,0.3l-0.1-0.2c0.2-0.2,0.5-0.2,0.9-0.2C67.3,11.6,67.7,12,67.7,12.8z"/>
	<path class="st1" d="M70.3,11.7l-0.1,0.2c-0.1-0.1-0.3-0.1-0.4-0.1c-0.1,0-0.1,0-0.2,0.1c-0.2,0.1-0.3,0.4-0.3,0.9v2.1h-0.5v-3.2
		h0.5v0.4c0.1-0.1,0.1-0.2,0.2-0.3c0.1-0.1,0.2-0.1,0.4-0.1C70.1,11.6,70.2,11.7,70.3,11.7z"/>
	<path class="st1" d="M72.6,11.8H72v2c0,0.3,0,0.6,0.1,0.7c0.1,0.1,0.2,0.2,0.5,0.2v0.2c-0.7,0-1.1-0.4-1.1-1.1v-2h-0.3v-0.2h0.3
		v-0.4H72v0.4h0.6V11.8z"/>
	<path class="st1" d="M74.1,10.2c0,0.1,0,0.2-0.1,0.2s-0.1,0.1-0.2,0.1c-0.1,0-0.2,0-0.2-0.1c0-0.1-0.1-0.1-0.1-0.2
		c0-0.1,0-0.2,0.1-0.2c0.1-0.1,0.1-0.1,0.2-0.1c0.1,0,0.2,0,0.2,0.1C74,10.1,74.1,10.1,74.1,10.2z M74,14.9h-0.5v-3.2H74V14.9z"/>
	<path class="st1" d="M76.9,14.1c0,0.3-0.1,0.5-0.3,0.6c-0.2,0.2-0.4,0.2-0.7,0.2c-0.4,0-0.7-0.1-0.9-0.4l0.1-0.2
		c0.2,0.3,0.5,0.4,0.8,0.4c0.2,0,0.3-0.1,0.4-0.2c0.1-0.1,0.2-0.3,0.2-0.4c0-0.2-0.1-0.4-0.3-0.5c-0.1-0.1-0.3-0.2-0.6-0.4
		c-0.4-0.2-0.5-0.5-0.5-0.9c0-0.2,0.1-0.4,0.3-0.6c0.2-0.1,0.4-0.2,0.6-0.2s0.3,0,0.5,0.1c0.2,0.1,0.3,0.2,0.3,0.3l-0.2,0.2
		c-0.2-0.3-0.4-0.4-0.7-0.4c-0.3,0-0.5,0.1-0.6,0.4c0,0.2,0.1,0.4,0.3,0.6c0.4,0.2,0.6,0.4,0.7,0.5C76.7,13.5,76.9,13.8,76.9,14.1z"
		/>
	<path class="st1" d="M79.1,11.8h-0.6v2c0,0.3,0,0.6,0.1,0.7c0.1,0.1,0.2,0.2,0.5,0.2v0.2c-0.7,0-1.1-0.4-1.1-1.1v-2h-0.3v-0.2H78
		v-0.4h0.5v0.4h0.6V11.8z"/>
	<path class="st1" d="M80.6,10.2c0,0.1,0,0.2-0.1,0.2s-0.1,0.1-0.2,0.1c-0.1,0-0.2,0-0.2-0.1c0-0.1-0.1-0.1-0.1-0.2
		c0-0.1,0-0.2,0.1-0.2c0.1-0.1,0.1-0.1,0.2-0.1c0.1,0,0.2,0,0.2,0.1C80.6,10.1,80.6,10.1,80.6,10.2z M80.6,14.9h-0.5v-3.2h0.5V14.9z
		"/>
	<path class="st1" d="M84.4,14.5c-0.3,0.3-0.7,0.4-1.1,0.4c-0.5,0-0.8-0.2-1.2-0.5c-0.3-0.3-0.5-0.7-0.5-1.2s0.2-0.9,0.5-1.2
		c0.3-0.3,0.7-0.5,1.2-0.5c0.4,0,0.7,0.1,1,0.3L84.2,12c-0.2-0.2-0.5-0.4-0.9-0.4c-0.3,0-0.6,0.2-0.8,0.5c-0.2,0.3-0.3,0.6-0.3,1
		c0,0.4,0.1,0.8,0.3,1c0.2,0.3,0.5,0.5,0.8,0.5c0.4,0,0.7-0.2,1-0.5L84.4,14.5z"/>
	<path class="st1" d="M89.2,12.9h-2v-0.2h1.5c0-0.6-0.3-0.9-0.8-0.9c-0.3,0-0.6,0.1-0.8,0.4c-0.2,0.3-0.3,0.6-0.3,1.1
		s0.1,0.8,0.3,1.1c0.2,0.3,0.5,0.4,0.8,0.4c0.4,0,0.7-0.2,1-0.5l0.2,0.2C88.8,14.8,88.4,15,88,15c-0.5,0-0.8-0.2-1.2-0.5
		c-0.3-0.3-0.5-0.7-0.5-1.2s0.2-0.9,0.5-1.2c0.3-0.3,0.7-0.5,1.1-0.5c0.3,0,0.6,0.1,0.9,0.4C89,12.2,89.2,12.5,89.2,12.9z"/>
	<path class="st1" d="M92.9,14.9h-0.6l-1-1.5l-1.2,1.5h-0.2l1.3-1.6l-1.1-1.6h0.6l0.9,1.2l1-1.2h0.2l-1.1,1.4L92.9,14.9z"/>
	<path class="st1" d="M96.4,13.3c0,0.5-0.1,0.8-0.4,1.2c-0.3,0.3-0.6,0.5-1,0.5c-0.2,0-0.4,0-0.6-0.1l0.1-0.2
		c0.1,0.1,0.3,0.2,0.5,0.2s0.5-0.1,0.6-0.4c0.2-0.3,0.3-0.6,0.3-1.1c0-0.4-0.1-0.8-0.3-1.1c-0.2-0.3-0.4-0.4-0.7-0.4
		c-0.2,0-0.3,0.1-0.5,0.2c-0.1,0.1-0.2,0.3-0.3,0.5v3.6h-0.5v-4.4h0.5v0.3c0.2-0.2,0.5-0.4,0.8-0.4c0.4,0,0.8,0.2,1,0.5
		C96.3,12.5,96.4,12.8,96.4,13.3z"/>
	<path class="st1" d="M98.9,11.7l-0.1,0.2c-0.1-0.1-0.3-0.1-0.4-0.1s-0.1,0-0.2,0.1c-0.2,0.1-0.3,0.4-0.3,0.9v2.1h-0.5v-3.2h0.5v0.4
		c0.1-0.1,0.1-0.2,0.2-0.3c0.1-0.1,0.2-0.1,0.4-0.1S98.8,11.7,98.9,11.7z"/>
	<path class="st1" d="M102.4,12.9h-2v-0.2h1.5c0-0.6-0.3-0.9-0.8-0.9c-0.3,0-0.6,0.1-0.8,0.4c-0.2,0.3-0.3,0.6-0.3,1.1
		s0.1,0.8,0.3,1.1c0.2,0.3,0.5,0.4,0.8,0.4c0.4,0,0.7-0.2,1-0.5l0.2,0.2c-0.3,0.3-0.7,0.5-1.1,0.5c-0.5,0-0.8-0.2-1.2-0.5
		c-0.3-0.3-0.5-0.7-0.5-1.2s0.2-0.9,0.5-1.2s0.7-0.5,1.1-0.5c0.3,0,0.6,0.1,0.9,0.4C102.2,12.2,102.4,12.5,102.4,12.9z"/>
	<path class="st1" d="M105.1,14.1c0,0.3-0.1,0.5-0.3,0.6c-0.2,0.2-0.4,0.2-0.7,0.2c-0.4,0-0.7-0.1-0.9-0.4l0.2-0.2
		c0.2,0.3,0.5,0.4,0.8,0.4c0.2,0,0.3-0.1,0.4-0.2s0.2-0.3,0.2-0.4c0-0.2-0.1-0.4-0.3-0.5c-0.1-0.1-0.3-0.2-0.6-0.4
		c-0.4-0.2-0.5-0.5-0.5-0.9c0-0.2,0.1-0.4,0.3-0.6c0.2-0.1,0.4-0.2,0.6-0.2c0.2,0,0.3,0,0.5,0.1c0.2,0.1,0.3,0.2,0.3,0.3l-0.2,0.2
		c-0.2-0.3-0.4-0.4-0.7-0.4c-0.3,0-0.5,0.1-0.6,0.4c0,0.2,0.1,0.4,0.3,0.6c0.4,0.2,0.6,0.4,0.7,0.5C105,13.5,105.1,13.8,105.1,14.1z
		"/>
	<path class="st1" d="M107.8,14.1c0,0.3-0.1,0.5-0.3,0.6c-0.2,0.2-0.4,0.2-0.7,0.2c-0.4,0-0.7-0.1-0.9-0.4l0.1-0.2
		c0.2,0.3,0.5,0.4,0.8,0.4c0.2,0,0.3-0.1,0.4-0.2c0.1-0.1,0.2-0.3,0.2-0.4c0-0.2-0.1-0.4-0.3-0.5c-0.1-0.1-0.3-0.2-0.6-0.4
		c-0.4-0.2-0.5-0.5-0.5-0.9c0-0.2,0.1-0.4,0.3-0.6c0.2-0.1,0.4-0.2,0.6-0.2c0.1,0,0.3,0,0.5,0.1c0.2,0.1,0.3,0.2,0.3,0.3l-0.2,0.2
		c-0.2-0.3-0.4-0.4-0.7-0.4c-0.3,0-0.5,0.1-0.5,0.4c0,0.2,0.1,0.4,0.3,0.6c0.4,0.2,0.6,0.4,0.7,0.5
		C107.7,13.5,107.9,13.8,107.8,14.1z"/>
	<path class="st1" d="M109.4,10.2c0,0.1,0,0.2-0.1,0.2c-0.1,0-0.1,0.1-0.2,0.1s-0.2,0-0.2-0.1c0-0.1-0.1-0.1-0.1-0.2
		c0-0.1,0-0.2,0.1-0.2c0.1-0.1,0.1-0.1,0.2-0.1s0.2,0,0.2,0.1C109.4,10.1,109.4,10.1,109.4,10.2z M109.3,14.9h-0.5v-3.2h0.5V14.9z"
		/>
	<path class="st1" d="M113.7,13.3c0,0.5-0.2,0.9-0.5,1.2c-0.3,0.3-0.7,0.5-1.2,0.5s-0.8-0.2-1.2-0.5c-0.3-0.3-0.5-0.7-0.5-1.2
		s0.2-0.9,0.5-1.2c0.3-0.3,0.7-0.5,1.2-0.5s0.8,0.2,1.2,0.5C113.5,12.4,113.7,12.8,113.7,13.3z M113.2,13.3c0-0.4-0.1-0.8-0.3-1.1
		c-0.2-0.3-0.5-0.4-0.8-0.4c-0.3,0-0.6,0.1-0.8,0.4c-0.2,0.3-0.3,0.6-0.3,1.1c0,0.4,0.1,0.8,0.3,1.1c0.2,0.3,0.5,0.4,0.8,0.4
		c0.3,0,0.6-0.1,0.8-0.4C113.1,14,113.2,13.7,113.2,13.3z"/>
	<path class="st1" d="M117.3,14.9h-0.5v-2.2c0-0.7-0.2-1-0.7-1s-0.8,0.3-1,0.9v2.3h-0.5v-3.2h0.5v0.4c0.3-0.4,0.6-0.5,1-0.5
		s0.7,0.1,0.8,0.2c0.2,0.2,0.3,0.5,0.3,0.9v2.2H117.3z"/>
	<path class="st1" d="M119.1,14.7c0,0.1,0,0.2-0.1,0.2s-0.1,0.1-0.2,0.1c-0.1,0-0.2,0-0.2-0.1c0-0.1-0.1-0.1-0.1-0.2
		c0-0.1,0-0.2,0.1-0.2s0.1-0.1,0.2-0.1c0.1,0,0.2,0,0.2,0.1C119,14.6,119.1,14.6,119.1,14.7z"/>
</g>
</svg>
