<svg width="327" height="79" viewBox="0 0 327 79" fill="none" xmlns="http://www.w3.org/2000/svg">
<path d="M21.0204 2.37036L23.8104 4.60037C23.6404 4.84037 23.1603 5.12036 22.5903 5.24036V27.4204C22.5903 27.4204 21.9603 28.2804 20.2303 28.2804V25.6504H6.88037V27.7304C6.88037 27.7304 6.71031 28.7704 4.57031 28.7704V2.67038L7.10034 3.89038H19.9304L21.0104 2.36035L21.0204 2.37036ZM20.2203 4.57037H6.87036V14.2404H20.2203V4.57037ZM6.87036 24.9804H20.2203V14.9104H6.87036V24.9804Z" fill="#40220F"/>
<path d="M56.8704 8.06052C56.6404 8.46052 56.3304 8.64053 55.5004 8.64053H45.4503C47.9803 14.1205 52.7903 18.8305 57.3203 21.0005L57.2604 21.3105C56.2604 21.4605 55.4104 22.2605 55.0404 23.4805C50.6904 20.4805 46.9903 15.2805 44.8503 8.64053V21.5505H46.9603L48.4104 19.3805L51.0903 21.6105C50.8603 22.0705 50.4903 22.2205 49.7203 22.2205H44.8503V28.1605C44.8503 28.2205 44.5904 29.0205 42.5204 29.0205V22.2305H36.6003L36.4304 21.5605H42.5204V11.2205C39.9604 16.3605 35.8903 20.7405 30.6003 23.7605L30.2904 23.3005C35.0104 19.6605 38.7704 14.0905 40.7604 8.65051H30.8303L30.6304 7.98053H42.5304V0.520508L46.1404 0.890533C46.0804 1.35053 45.8004 1.59052 44.8604 1.72052V7.99051H52.3203L53.9104 5.73053L56.8704 8.09052V8.06052Z" fill="#40220F"/>
<path d="M81.7203 18.7404H76.6003C79.2203 22.0704 84.0804 24.6405 88.3804 25.7205L88.3503 26.0605C87.4103 26.2405 86.6404 27.0705 86.3604 28.2605C82.0104 26.4905 78.1404 23.1805 75.8904 18.7505H75.8604V28.1705C75.8604 28.2305 75.5804 29.0305 73.5304 29.0305V20.3405C70.6604 23.8305 66.4204 26.5805 61.6104 28.3905L61.3503 27.9005C65.5903 25.6405 69.3204 22.2105 71.6204 18.7505H67.8104V19.6405C67.8104 19.7005 67.4103 20.5605 65.4803 20.5605V7.86044L68.0104 9.02045H73.5304V5.56046H61.7203L61.5504 4.89047H73.5304V0.480469L77.0604 0.820465C77.0004 1.25047 76.7504 1.49045 75.8604 1.59045V4.89047H83.2904L84.9104 2.63046L87.9503 4.99045C87.7203 5.39045 87.4103 5.57047 86.5803 5.57047H75.8503V9.03046H81.4304L82.4503 7.59045L85.3004 9.73047C85.1004 9.98047 84.6703 10.2505 84.1003 10.3705V19.5204C84.1003 19.5204 83.4503 20.3505 81.7103 20.3505V18.7605L81.7203 18.7404ZM73.5204 9.68045H67.8004V13.5005H73.5204V9.68045ZM67.8004 18.0305H73.5204V14.1805H67.8004V18.0305ZM81.7203 9.68045H75.8604V13.5005H81.7203V9.68045ZM75.8604 18.0305H81.7203V14.1805H75.8604V18.0305Z" fill="#40220F"/>
<path d="M92.3604 27.4904C95.0904 25.5304 97.9404 22.3504 99.2704 19.9904L102.12 21.7304C101.98 21.9404 101.84 22.0704 101.52 22.0704C101.38 22.0704 101.24 22.0404 101.04 22.0104C99.2204 24.0604 95.9504 26.5104 92.6204 27.9504L92.3604 27.4904ZM116.04 2.92041L119.06 5.2504C118.83 5.6804 118.49 5.86038 117.69 5.86038H92.7904L92.5903 5.1904H104.54V0.42041L108.18 0.790405C108.12 1.25041 107.84 1.46039 106.9 1.62039V5.20041H114.38L116.03 2.9404L116.04 2.92041ZM111.83 17.5704H106.91V25.7704C106.91 27.5804 106.43 28.8004 103.3 29.0704C103.3 27.0204 102.05 26.8104 99.8604 26.6204V26.1904H103.96C104.44 26.1904 104.59 26.1004 104.59 25.7304V17.5604H99.8104V18.3604C99.8104 18.4504 99.4403 19.2804 97.4803 19.2804V8.45041L99.9803 9.61038H111.56L112.58 8.14041L115.43 10.3404C115.26 10.5804 114.8 10.8304 114.21 10.9804V18.2904C114.21 18.3504 113.53 19.0504 111.85 19.0504V17.5504L111.83 17.5704ZM99.7904 16.9004H111.83V10.2904H99.7904V16.9004ZM109.92 20.2004C116.07 22.0104 117.94 24.8204 117.94 26.4704C117.94 27.2704 117.51 27.7904 116.89 27.7904C116.61 27.7904 116.32 27.7004 116.01 27.4804C114.87 25.2204 112.03 22.2204 109.72 20.5004L109.92 20.1904V20.2004Z" fill="#40220F"/>
<path d="M133.43 3.47055L135.39 5.06055C135.96 3.93055 136.44 2.80056 136.87 1.73056L139.83 3.14056C139.69 3.38056 139.49 3.54056 139.09 3.54056C138.98 3.54056 138.83 3.54056 138.66 3.51056C137.46 6.02056 135.79 8.71055 133.71 11.3105H135.67L137.01 9.44055L139.6 11.4005C139.37 11.8305 139.03 12.0106 138.26 12.0106H133.11C131.89 13.4806 130.49 14.9206 129.01 16.2306L129.07 16.2606H134.05L135.02 14.8806L137.72 16.9605C137.55 17.1705 137.09 17.4506 136.52 17.5706V27.5106C136.52 27.5706 135.89 28.2105 134.33 28.2105V26.3705H128.89V28.2405C128.89 28.4205 128.18 28.9706 127.1 28.9706H126.76V18.0205C125.74 18.7805 124.65 19.4906 123.54 20.1306L123.26 19.7006C124.48 18.8106 125.65 17.8306 126.76 16.7606V15.2306L127.84 15.6906C128.98 14.5306 130.03 13.2705 131.03 11.9905H123.57L123.4 11.2906H128.95V6.03055H124.97L124.8 5.36053H128.95V0.560547L132.45 0.900543C132.42 1.36054 132.11 1.57056 131.14 1.73056V5.37054H132.16L133.41 3.47055H133.43ZM134.34 16.9305H128.9V20.9406H134.34V16.9305ZM128.9 25.7105H134.34V21.6105H128.9V25.7105ZM131.15 11.3005H131.55C132.83 9.56054 133.94 7.78056 134.88 6.01056C134.77 6.04056 134.62 6.04056 134.48 6.04056H131.15V11.3005ZM147.88 1.57056L150.3 4.26056C150.07 4.53056 149.67 4.63055 148.99 4.63055C147.99 6.59055 146.03 10.2606 144.78 12.2206C148.37 14.7006 149.96 17.2105 149.99 19.7505V19.8705C149.99 22.8405 148.82 24.6106 145.49 24.8906C145.49 23.1806 144.84 22.9605 143.3 22.7505V22.2606H146.06C147.51 22.2606 147.68 20.7906 147.68 19.6606C147.68 17.2106 146.66 14.7606 144.15 12.3506C144.83 10.2706 145.94 6.32055 146.65 3.78055H142.1V28.3806C142.1 28.5606 141.39 29.1805 140.25 29.1805H139.88V1.98056L142.47 3.11053H146.54L147.88 1.58054V1.57056Z" fill="#40220F"/>
<path d="M198.82 10.4806L201.84 12.8106C201.61 13.2106 201.3 13.4206 200.47 13.4206H189.74V28.2006C189.74 28.4106 188.94 29.0306 187.75 29.0306H187.35V13.4306H175.57L175.4 12.7306H187.35V4.6806C183.96 5.1106 180.41 5.44062 177.08 5.60062L176.99 5.0506C183.59 4.1606 191.9 2.20062 196.28 0.640625L198.7 3.1506C198.56 3.2706 198.36 3.3306 198.1 3.3306C197.82 3.3306 197.47 3.2406 197.08 3.0506C194.97 3.4806 192.47 3.94061 189.74 4.34061V12.7206H197.2L198.82 10.4906V10.4806Z" fill="#40220F"/>
<path d="M206.22 16.7202C208.67 13.0802 211.26 6.68025 212.79 0.510254L216.29 1.73026C216.18 2.07026 215.92 2.28024 215.18 2.28024C214.41 4.45024 213.5 6.56023 212.53 8.49023L213.81 9.01025C213.7 9.29025 213.44 9.50024 212.9 9.59024V28.2202C212.87 28.4002 211.93 29.0202 211.05 29.0202H210.59V11.9203C209.37 13.8803 208.03 15.5902 206.61 17.0002L206.21 16.7202H206.22ZM232.43 21.2802L231.89 26.0502C232.54 27.0002 232.83 27.5803 232.83 28.0103C232.83 28.4103 232.37 28.9902 231.58 28.9902C230.61 28.9902 229.42 28.2902 228.48 27.4902C224.1 23.8802 221.91 18.1302 220.97 11.2402L214.42 12.0103L214.16 11.3402L220.85 10.5403C220.48 7.45025 220.31 4.15025 220.31 0.720245L223.87 1.12024C223.84 1.52024 223.61 1.70025 222.79 1.82025C222.73 4.67025 222.85 7.51025 223.16 10.2603L228.48 9.65024L229.82 7.45026L232.86 9.25024C232.66 9.71024 232.29 9.92023 231.61 10.0202L223.24 11.0002C224.04 16.9402 225.92 22.1103 229.73 24.9503C229.96 25.1603 230.13 25.2903 230.27 25.2903C230.44 25.2903 230.55 25.1402 230.7 24.8302C231.1 24.0302 231.75 22.5002 232.18 21.2202L232.44 21.2802H232.43ZM225.37 1.64026C229.18 1.92026 230.41 3.54025 230.41 4.76025C230.41 5.56025 229.9 6.20026 229.21 6.20026C228.93 6.20026 228.64 6.08023 228.33 5.83023C227.87 4.42023 226.54 2.77025 225.23 1.94025L225.37 1.63025V1.64026Z" fill="#40220F"/>
<path d="M260.21 2.95044L263 5.15042C262.8 5.42042 262.35 5.67044 261.78 5.79044V27.3004C261.78 27.3904 261.13 28.1604 259.45 28.1604V25.8004H241.75V27.3904C241.75 27.3904 241.55 28.4004 239.5 28.4004V3.25043L241.98 4.44043H259.17L260.22 2.94043L260.21 2.95044ZM249.37 5.12042H241.74V14.7004H249.37V5.12042ZM241.74 15.3704V25.1304H249.37V15.3704H241.74ZM259.44 5.12042H251.64V14.7004H259.44V5.12042ZM251.64 25.1304H259.44V15.3704H251.64V25.1304Z" fill="#40220F"/>
<path d="M280.44 6.19022H271.79C271.82 6.37022 271.82 6.5902 271.82 6.7702C271.82 8.3602 271.05 9.65021 269.66 9.65021C268.86 9.65021 268.44 9.1902 268.44 8.5502C268.44 7.9702 268.87 7.5102 269.41 7.3002C270.29 6.8702 271.03 5.71023 270.92 4.42023L271.4 4.39023C271.54 4.79023 271.63 5.1602 271.71 5.5202H280.45V3.26022H271.26L271.09 2.59021H288.42L289.84 0.720215L292.54 2.65021C292.31 3.11021 291.97 3.26022 291.17 3.26022H282.72V5.5202H291.77L292.99 4.14023L295.27 6.47021C295.04 6.71021 294.73 6.78021 294.19 6.81021C293.59 7.57021 292.57 8.62023 291.74 9.20023L291.37 8.9902C291.57 8.3502 291.83 7.12021 291.97 6.21021H282.72V12.5102C282.69 12.6602 281.98 13.1502 280.84 13.1502H280.44V6.21021V6.19022ZM280.87 25.2802C280.67 25.7102 280.3 25.8602 279.59 25.8602H272.7V28.0902C272.7 28.0902 272.44 28.9802 270.51 28.9802V12.9802L272.84 14.0802H277.31L278.19 12.8602L280.75 14.7602C280.61 14.9702 280.21 15.1902 279.75 15.2802V18.7102C279.75 18.7702 279.07 19.3802 277.56 19.3802V18.4902H272.69V21.4002H276.99L278.13 19.8702L280.32 21.4902C280.12 21.9202 279.75 22.1002 279.04 22.1002H272.69V25.1902H277.27L278.52 23.5402L280.85 25.2802H280.87ZM271.99 11.5102L271.82 10.8102H276.23L277.2 9.59021L279.16 10.9402C278.96 11.3702 278.62 11.5202 277.91 11.5202H271.99V11.5102ZM277.03 7.01022L278.97 8.3602C278.74 8.7902 278.43 8.94022 277.72 8.94022H272.46L272.29 8.2702H276.07L277.04 7.0202L277.03 7.01022ZM277.57 14.7502H272.7V17.7802H277.57V14.7502ZM291.26 19.4602L293.39 21.5102C293.16 21.7902 292.85 21.8502 292.19 21.8802C291.36 23.1602 290.31 24.2702 289.06 25.2102C290.82 25.8802 292.82 26.3402 294.95 26.6202L294.92 26.9602C294.07 27.1702 293.53 27.9102 293.3 29.0102C290.94 28.4002 288.92 27.5702 287.27 26.3802C285.02 27.6002 282.32 28.4602 279.24 29.0102L279.1 28.4602C281.78 27.7602 284.14 26.7502 286.07 25.4002C284.93 24.3302 283.99 23.0102 283.31 21.4202H281.49L281.29 20.7502H289.91L291.25 19.4702L291.26 19.4602ZM292.37 18.6902C292.34 18.8702 291.23 19.3602 290.52 19.3602H290.18V18.4102H282.16L281.96 17.7402H290.18V14.7402H282.35L282.15 14.0702H289.89L290.83 12.7902L293.45 14.7502C293.28 14.9602 292.88 15.2102 292.37 15.3302V18.7002V18.6902ZM284.2 11.5002L284 10.8002H288.64L289.66 9.48022L291.74 10.9202C291.51 11.3502 291.2 11.5002 290.46 11.5002H284.2ZM284 21.4102C284.83 22.6302 285.99 23.6102 287.36 24.3802C288.36 23.5202 289.21 22.5102 289.84 21.4102H284.01H284ZM289.09 7.00021L291.05 8.35022C290.82 8.78022 290.54 8.93021 289.8 8.93021H284.28L284.08 8.26022H288.09L289.09 7.01022V7.00021Z" fill="#40220F"/>
<path d="M308.73 9.99036H303.27V28.0104C303.27 28.0104 303.07 29.0204 301.02 29.0204V1.42038L303.41 2.58035H308.45L309.39 1.30035L311.95 3.26038C311.78 3.47038 311.38 3.72036 310.9 3.81036V10.5404C310.9 10.6004 310.27 11.3004 308.74 11.3004V9.98038L308.73 9.99036ZM308.73 3.26038H303.27V5.86035H308.73V3.26038ZM303.27 9.29037H308.73V6.57037H303.27V9.29037ZM310.84 17.6704C310.67 17.2404 310.5 16.8704 310.27 16.5704L310.55 16.3604C312.2 17.0604 312.77 18.0104 312.77 18.7204C312.77 19.3604 312.34 19.8204 311.86 19.8204C311.6 19.8204 311.35 19.7004 311.12 19.3904C311.15 19.0504 311.09 18.6904 311.01 18.3204C310.13 18.5604 308.9 18.8704 307.31 19.2704C307.14 19.6704 306.91 19.8204 306.63 19.8804L305.66 17.7704C306.12 17.7704 306.74 17.7704 307.48 17.7404C308.68 16.3904 310.07 14.4704 310.7 13.3604L312.55 14.5804C312.46 14.7304 312.35 14.7904 312.18 14.7904C312.07 14.7904 311.95 14.7904 311.81 14.7304C311.07 15.5304 309.7 16.7204 308.42 17.7304L310.84 17.6704ZM306.12 13.4804C306.77 13.5704 307.29 13.7204 307.69 13.9104C308.12 13.0804 308.57 11.9804 308.8 11.3704L310.73 12.3504C310.64 12.5304 310.5 12.6604 310.08 12.5904C309.68 13.0204 308.91 13.6904 308.2 14.2404C308.68 14.6104 308.88 15.0704 308.88 15.4304C308.88 15.9804 308.51 16.4104 308.05 16.4104C307.85 16.4104 307.62 16.3204 307.42 16.1304C307.25 15.2704 306.62 14.2604 305.91 13.7404L306.11 13.4604L306.12 13.4804ZM309.9 23.6104C309.93 23.3004 309.96 22.9704 309.96 22.6604V19.9404L312.69 20.2104C312.66 20.5804 312.46 20.7604 311.72 20.8504V22.6604C311.69 24.7404 310.87 27.1004 306.83 28.5004L306.52 28.0704C308.57 27.0904 309.45 25.6804 309.79 24.2804H308V25.1104C308 25.1104 307.69 25.7504 306.26 25.7504V20.3304L308.85 20.5404C308.79 20.8504 308.62 21.0304 308 21.1204V23.6004H309.91L309.9 23.6104ZM312.52 13.4804C313.2 13.5704 313.74 13.7204 314.17 13.9404C314.65 13.0504 315.17 11.9204 315.39 11.2804L317.33 12.3204C317.24 12.5004 317.07 12.6004 316.68 12.5304C316.25 12.9904 315.46 13.6904 314.72 14.2704C315.18 14.6404 315.35 15.0704 315.35 15.4304C315.35 15.9804 315.01 16.4104 314.52 16.4104C314.32 16.4104 314.12 16.3204 313.89 16.1304C313.72 15.3004 313.06 14.2604 312.35 13.7704L312.52 13.4604V13.4804ZM313.89 17.7604C315.09 16.4704 316.54 14.5504 317.16 13.4504L318.98 14.6704C318.89 14.8204 318.78 14.8804 318.61 14.8804C318.52 14.8804 318.41 14.8804 318.27 14.8204C317.53 15.5804 316.11 16.7804 314.83 17.7304C315.68 17.7304 316.68 17.7004 317.65 17.6704C317.42 17.2104 317.14 16.7804 316.85 16.4804L317.11 16.2404C319.13 16.9404 319.81 18.0104 319.81 18.8104C319.81 19.4204 319.41 19.8804 318.93 19.8804C318.7 19.8804 318.47 19.7604 318.25 19.5104C318.22 19.1404 318.11 18.7104 317.94 18.3204C317.11 18.5304 315.92 18.8704 314.38 19.2704C314.24 19.6704 314.01 19.8204 313.73 19.8804L312.76 17.7704H313.9L313.89 17.7604ZM319.87 20.5404C319.84 20.8804 319.67 21.0604 319.04 21.1504V24.8204C319.04 24.8804 318.78 25.4304 317.3 25.4304V24.2704H315.11V27.6404C315.11 27.7004 314.8 28.3104 313.35 28.3104V19.9304L316 20.1404C315.94 20.5104 315.77 20.6604 315.12 20.7504V23.6004H317.31V20.3304L319.87 20.5404ZM322.8 1.11035L325.56 3.28036C325.36 3.52036 324.91 3.80038 324.34 3.92038V25.6404C324.34 27.4804 323.94 28.7304 321.3 29.0104C321.3 27.1404 320.7 26.7204 318.82 26.5004V26.1004H321.64C321.98 26.1004 322.07 25.9804 322.07 25.6104V9.98038H316.35V10.2904C316.35 10.2904 315.98 11.0904 314.19 11.0904V1.51038L316.49 2.58035H321.78L322.8 1.11035ZM322.06 3.25037H316.34V5.85037H322.06V3.25037ZM316.34 9.28036H322.06V6.56036H316.34V9.28036Z" fill="#40220F"/>
<path d="M6.70032 57.7704V61.5305C9.57032 62.8505 10.4803 64.4705 10.4803 65.5705C10.4803 66.4005 10.0004 66.9505 9.43042 66.9505C9.15042 66.9505 8.83042 66.8004 8.55042 66.4604C8.35042 65.1704 7.55032 63.3705 6.70032 62.1505V77.3505C6.70032 77.4405 6.42035 78.1805 4.48035 78.1805V64.8405C3.48035 67.1305 2.18042 69.2204 0.550415 71.0804L0.150391 70.6505C2.26039 67.0705 3.54034 62.4204 4.22034 57.7704H0.460327L0.320312 57.1005H4.47034V49.7605L7.89038 50.0705C7.86038 50.5305 7.58031 50.7405 6.69031 50.8705V57.1104H7.43042L8.71033 55.1805L11.1003 57.2005C10.8403 56.4705 10.5003 55.7904 10.1003 55.2404L10.3804 55.0305C13.0604 56.5005 13.9403 58.3005 13.9403 59.6205C13.9403 60.7805 13.2903 61.6104 12.5703 61.6104C12.2303 61.6104 11.8903 61.4305 11.5703 61.0005C11.6003 60.7205 11.6304 60.4505 11.6304 60.1705C11.6304 59.1905 11.4303 58.1505 11.0903 57.2005C10.8603 57.6305 10.5204 57.7805 9.75037 57.7805H6.68042L6.70032 57.7704ZM8.63037 68.0504C9.65037 67.6204 11.9304 66.4904 14.2904 65.2404C14.3204 64.7504 14.3203 64.2005 14.3203 63.6805V49.7305L17.6504 50.0405C17.5904 50.5305 17.3104 50.7105 16.4004 50.8105V63.6605C16.3704 70.1505 14.5803 75.1605 8.35034 78.3105L8.01038 77.8805C12.1904 75.0305 13.8404 71.2105 14.2404 66.2505C13.3904 67.2605 12.2803 68.5105 10.9403 69.9805C10.9103 70.3805 10.7103 70.7105 10.4603 70.8705L8.64038 68.0605L8.63037 68.0504ZM26.1003 71.5105L26.1304 75.2704C26.9804 75.7004 27.1003 75.7905 27.1003 76.1605C27.1003 77.1705 26.3603 77.6605 24.2303 77.6605H21.5803C19.2703 77.6605 18.8804 76.8604 18.8804 74.0804V49.8205L22.2704 50.1605C22.2104 50.6505 22.0104 50.8304 21.0504 50.9904V64.7905C24.9504 65.7405 26.2003 67.7005 26.2003 69.0705C26.2003 69.9305 25.7204 70.5705 25.0604 70.5705C24.7804 70.5705 24.4304 70.4505 24.1204 70.1405C23.7804 68.4605 22.4704 66.5905 21.0504 65.4005V74.1805C21.0504 75.4005 21.0804 75.4705 21.6504 75.4705H24.1304C24.3904 75.4705 24.6704 75.4405 24.9004 75.1305C25.1004 74.7905 25.5503 73.0204 25.8403 71.5204H26.1204L26.1003 71.5105ZM26.6704 56.3405C26.5804 56.5205 26.4404 56.6505 26.1604 56.6505C26.0504 56.6505 25.9603 56.6505 25.8203 56.6205C24.9403 57.9105 23.1403 60.1705 21.5803 61.7005L21.3004 61.5204C22.1304 59.4704 23.2104 56.2305 23.6104 54.6705L26.6804 56.3505L26.6704 56.3405Z" fill="#40220F"/>
<path d="M54.8303 50.4004L57.5304 52.5404C57.3304 52.8204 56.8804 53.0604 56.3104 53.1804V77.0104C56.3104 77.0704 55.7404 77.8704 54.0604 77.8704V76.1604H35.1104V77.2304C35.1104 77.2904 34.9404 78.2404 32.9204 78.2404V50.6804L35.3403 51.8704H53.7804L54.8303 50.4004ZM35.1104 75.4904H54.0604V52.5404H35.1104V75.4904ZM50.8203 57.5904L53.1504 59.3004C52.9204 59.7604 52.5803 59.9104 51.8403 59.9104H36.3004L36.1304 59.2104H43.4703V56.7304H37.9204L37.7504 56.0604H43.4703V53.3704L46.5703 53.6804C46.5403 54.0504 46.3103 54.2004 45.5703 54.3204V56.0604H48.2504L49.4204 54.4704L51.6704 56.1504C51.4404 56.5804 51.1004 56.7304 50.3904 56.7304H45.5803V59.2104H49.6204L50.8203 57.5904ZM50.6504 66.3104L50.7103 66.2204L52.5903 67.9904C52.5003 68.1104 52.3903 68.1704 52.2203 68.1704C52.0803 68.1704 51.9104 68.1404 51.6804 68.0504C51.0504 68.4804 50.0304 69.1204 49.1804 69.6104C49.9504 69.9204 52.2203 70.9004 52.2203 72.4904C52.2203 73.0104 51.9404 73.3804 51.5104 73.3804C51.2504 73.3804 50.9403 73.2604 50.6003 72.9504C49.6903 71.6604 47.7003 70.0104 45.5903 69.1304V73.7804C45.5903 73.9604 44.9103 74.5104 43.8303 74.5104H43.4904V68.6704C41.6704 70.6304 39.3104 72.2504 36.6304 73.4404L36.3503 72.9204C39.0003 71.2404 41.2203 68.9404 42.7003 66.4604H40.4803V67.0704C40.4803 67.1304 40.1404 67.8004 38.4904 67.8004V61.0104L40.6204 62.0204H48.4204L49.2203 60.8904L51.5803 62.6304C51.4403 62.8104 51.1004 63.0304 50.6704 63.0904V66.3004L50.6504 66.3104ZM40.4603 65.7904H48.6304V62.7004H40.4603V65.7904ZM45.5803 66.4604V68.6304C46.6303 68.8104 47.6003 69.0604 48.4803 69.3604C48.9603 68.7804 49.5004 68.0104 49.9904 67.2804C49.4504 67.5304 49.0804 67.5304 48.6204 67.5304V66.4604H45.5703H45.5803Z" fill="#40220F"/>
<path d="M85.9304 52.7802L88.9204 55.0402C88.6904 55.4702 88.3804 55.6502 87.5504 55.6502H77.8503C77.7903 56.0502 77.5704 56.2602 76.8004 56.3502V60.6902H83.1204L84.1404 59.2502L86.9603 61.4202C86.7603 61.6602 86.3304 61.9402 85.7404 62.0302V71.4202C85.7404 73.0702 85.4304 74.1702 82.3004 74.5402C82.3004 72.8002 81.3904 72.4002 79.2804 72.1802V71.7802H82.8403C83.2703 71.7802 83.4104 71.6902 83.4104 71.3202V61.3502H76.8104V77.2302C76.8104 77.3202 76.4404 78.2102 74.4204 78.2102V61.3502H67.8203V73.6502C67.8203 73.7102 67.5404 74.5702 65.4904 74.5702V59.5202L68.0204 60.6802H74.4204V55.6302H62.5504L62.3804 54.9302H74.4204V49.7002L78.0903 50.0402C78.0603 50.5302 77.7504 50.7402 76.8104 50.8702V54.9402H84.3503L85.9403 52.7702L85.9304 52.7802Z" fill="#40220F"/>
<path d="M120.05 56.7903C119.82 57.2203 119.48 57.4002 118.68 57.4002H117.94C117.2 62.6902 115.89 67.1002 113.42 70.6502C115.13 72.8202 117.35 74.6003 120.16 75.8503L120.07 76.1602C118.9 76.4002 118.16 77.1402 117.85 78.3602C115.35 76.8302 113.47 74.8102 112.04 72.3602C109.76 74.9302 106.69 76.9202 102.51 78.3602L102.37 77.8702C106.33 76.0602 109.14 73.6802 111.13 70.6502C109.82 67.8402 109 64.5903 108.45 60.9803C107.6 62.6903 106.6 64.1602 105.49 65.3602L105.06 65.0802C105.49 64.3502 105.89 63.4603 106.28 62.4803C106.08 62.5103 105.85 62.5403 105.57 62.5403H101.73V71.5002C103.72 71.1602 105.88 70.8302 108.08 70.4602L108.14 70.9203C105.18 72.0503 101.03 73.4903 95.1903 75.2603C95.0203 75.6303 94.7303 75.9002 94.4503 75.9902L93.1404 72.7502L94.8804 72.5403V58.4702L97.9004 58.7802C97.8704 59.1502 97.6204 59.3003 96.9004 59.4203V72.2402L99.5504 71.8402V53.4803H93.6903L93.5204 52.8102H103.62L105.07 50.8203L107.75 52.8702C107.52 53.3002 107.18 53.4803 106.41 53.4803H101.74V61.8602H103.16L104.47 59.8702L106.58 61.6403C107.75 58.3403 108.57 54.0502 108.97 49.7402L112.56 50.4402C112.47 50.8702 112.28 51.0803 111.54 51.1403C111.17 53.1003 110.71 54.9602 110.15 56.7102H115.78L117.29 54.5703L120.05 56.7702V56.7903ZM109.92 57.4002C109.61 58.3202 109.27 59.1702 108.92 60.0302C109.6 63.3602 110.66 66.3302 112.19 68.8702C113.87 65.6602 114.84 61.8302 115.35 57.4002H109.91H109.92Z" fill="#40220F"/>
<path d="M128.79 62.0205C129.27 63.7305 129.47 65.2605 129.47 66.5805C129.47 70.6505 127.53 73.3405 125.66 73.3405C124.81 73.3405 124.55 72.7005 124.55 72.2705C124.55 71.7505 124.83 71.2305 125.26 70.8305C126.94 69.4805 128.48 66.0605 128.33 62.0505L128.79 62.0205ZM131.81 50.7905C139.35 50.8505 141.74 53.6705 141.74 55.3505C141.74 56.0805 141.28 56.6005 140.6 56.6005C140.4 56.6005 140.2 56.5705 139.97 56.4805C138.86 54.8005 135.96 52.4705 131.75 51.2505L131.81 50.7905ZM132.38 58.6205L135.77 58.9305C135.71 59.3605 135.54 59.5405 134.69 59.7005V74.0505C134.69 75.0905 134.8 75.1805 135.89 75.1805H141.52C142.03 75.1805 142.35 75.1205 142.6 74.6605C142.86 74.2005 143.31 72.3305 143.8 70.1905H144.06L144.03 74.9005C145 75.2705 145.17 75.4205 145.17 75.7905C145.17 76.8305 144.32 77.3505 141.5 77.3505H135.87C133.02 77.3505 132.4 76.7705 132.4 74.0205V58.6305L132.38 58.6205ZM144.56 60.7605C149.45 63.7605 150.99 67.5505 150.99 70.1505C150.99 71.9605 150.25 73.2105 149.4 73.2105C149.06 73.2105 148.69 73.0005 148.35 72.5105C148.41 69.4505 147.5 64.3705 144.28 61.0705L144.56 60.7605Z" fill="#40220F"/>
<path d="M176.23 77.7202C187.39 69.8902 187.24 59.8502 187.27 50.4902L190.97 50.8602C190.94 51.2602 190.71 51.5002 189.8 51.5902C190.51 61.0702 193.27 69.9503 202.75 75.7603L202.69 76.1302C201.47 76.2502 200.67 76.9002 200.3 78.2702C193.07 72.8202 190.6 64.6602 189.66 56.4302H189.63C189.15 64.2302 187.27 72.3702 176.57 78.2102L176.23 77.7202Z" fill="#40220F"/>
<path d="M233.68 56.4502C233.45 56.8802 233.11 57.0602 232.26 57.0602H228.76C227.39 62.2002 225.26 66.5402 222.02 70.0602C225.26 72.7502 229.25 74.6202 233.72 75.7802L233.63 76.1501C232.46 76.2401 231.52 77.0102 231.07 78.2602C226.83 76.7902 223.24 74.6201 220.4 71.6201C217.13 74.5601 212.86 76.7902 207.39 78.2302L207.25 77.7401C212.29 76.0001 216.21 73.4902 219.2 70.2802C216.47 66.8802 214.5 62.5402 213.42 57.0602H207.53L207.36 56.3601H219.28V49.6602L222.92 50.0302C222.89 50.5202 222.61 50.7001 221.64 50.8601V56.3701H229.1L230.69 54.1101L233.68 56.4702V56.4502ZM214.02 57.0602C215.24 61.8902 217.52 65.7502 220.54 68.7202C223.1 65.4502 224.84 61.5602 225.89 57.0602H214.02Z" fill="#40220F"/>
<path d="M244.21 63.8004C244.75 63.9504 245.21 64.1405 245.63 64.3205C246.14 63.4605 246.8 62.3305 247.39 61.2005L249.38 62.4505C249.27 62.6305 249.12 62.7605 248.84 62.7605C248.7 62.7605 248.56 62.7305 248.36 62.6705C247.73 63.3405 246.97 64.0805 246.31 64.6605C248.02 65.6105 248.64 66.7405 248.64 67.6005C248.64 68.3605 248.16 68.8905 247.59 68.8905C247.33 68.8905 247.02 68.7704 246.74 68.4904C246.43 67.1404 245.32 65.4304 244.21 64.3304V77.4205C244.21 77.6305 243.5 78.1805 242.45 78.1805H242.11V66.1905C240.97 67.4405 239.66 68.6105 238.27 69.6205L238.01 69.1305C241.37 65.9505 244.04 61.0205 245.38 56.6205H238.47L238.27 55.9205H242.08V49.7104L245.52 50.0504C245.49 50.5404 245.18 50.7205 244.24 50.8805V55.9305H245.26L246.6 54.5504L248.85 56.6905C248.62 56.9705 248.34 57.0605 247.68 57.0905C246.85 59.2305 245.69 61.5004 244.21 63.5804V63.8304V63.8004ZM262.28 74.4205L264.87 76.5305C264.64 76.9605 264.33 77.1104 263.53 77.1104H247.54L247.37 76.4405H255.42V70.3505H249.59L249.42 69.6505H255.42V64.4205H251.89V65.5204C251.89 65.7004 251.21 66.2505 250.13 66.2505H249.76V50.6505L252.24 51.7205H260.81L261.83 50.3405L264.36 52.4205C264.16 52.6605 263.88 52.8505 263.28 52.9405V65.3304C263.28 65.4804 262.45 66.0005 261.43 66.0005H261.06V64.4105H257.59V69.6405H260.26L261.6 67.7404L264.1 69.7305C263.87 70.1605 263.53 70.3405 262.76 70.3405H257.58V76.4305H260.91L262.28 74.4105V74.4205ZM255.42 52.4205H251.89V57.9005H255.42V52.4205ZM251.89 63.7404H255.42V58.5705H251.89V63.7404ZM261.05 52.4205H257.58V57.9005H261.05V52.4205ZM257.58 63.7404H261.05V58.5705H257.58V63.7404Z" fill="#40220F"/>
<path d="M281.29 55.4104H272.64C272.67 55.5904 272.67 55.8104 272.67 55.9904C272.67 57.5804 271.9 58.8704 270.51 58.8704C269.71 58.8704 269.29 58.4104 269.29 57.7704C269.29 57.1904 269.72 56.7304 270.26 56.5204C271.14 56.0904 271.88 54.9304 271.77 53.6404L272.25 53.6104C272.39 54.0104 272.48 54.3804 272.56 54.7404H281.3V52.4804H272.11L271.94 51.8104H289.27L290.69 49.9404L293.39 51.8704C293.16 52.3304 292.82 52.4804 292.02 52.4804H283.57V54.7404H292.62L293.84 53.3604L296.12 55.6904C295.89 55.9304 295.58 56.0004 295.04 56.0304C294.44 56.7904 293.42 57.8404 292.59 58.4204L292.22 58.2104C292.42 57.5704 292.68 56.3404 292.82 55.4304H283.57V61.7304C283.54 61.8804 282.83 62.3704 281.69 62.3704H281.29V55.4304V55.4104ZM281.72 74.5004C281.52 74.9304 281.15 75.0804 280.44 75.0804H273.55V77.3104C273.55 77.3104 273.29 78.2004 271.36 78.2004V62.2004L273.69 63.3004H278.16L279.04 62.0804L281.6 63.9804C281.46 64.1904 281.06 64.4104 280.6 64.5004V67.9304C280.6 67.9904 279.92 68.6004 278.41 68.6004V67.7104H273.54V70.6204H277.84L278.98 69.0904L281.17 70.7104C280.97 71.1404 280.6 71.3204 279.89 71.3204H273.54V74.4104H278.12L279.37 72.7604L281.7 74.5004H281.72ZM272.84 60.7304L272.67 60.0304H277.08L278.05 58.8104L280.01 60.1604C279.81 60.5904 279.47 60.7404 278.76 60.7404H272.84V60.7304ZM277.88 56.2304L279.82 57.5804C279.59 58.0104 279.28 58.1604 278.57 58.1604H273.31L273.14 57.4904H276.92L277.89 56.2404L277.88 56.2304ZM278.42 63.9704H273.55V67.0004H278.42V63.9704ZM292.11 68.6804L294.24 70.7304C294.01 71.0104 293.7 71.0704 293.04 71.1004C292.21 72.3804 291.16 73.4904 289.91 74.4304C291.67 75.1004 293.67 75.5604 295.8 75.8404L295.77 76.1804C294.92 76.3904 294.38 77.1304 294.15 78.2304C291.79 77.6204 289.77 76.7904 288.12 75.6004C285.87 76.8204 283.17 77.6804 280.09 78.2304L279.95 77.6804C282.62 76.9804 284.99 75.9704 286.92 74.6204C285.78 73.5504 284.84 72.2304 284.16 70.6404H282.34L282.14 69.9704H290.76L292.1 68.6904L292.11 68.6804ZM293.22 67.9104C293.19 68.0904 292.08 68.5804 291.37 68.5804H291.03V67.6304H283.01L282.81 66.9604H291.03V63.9604H283.2L283 63.2904H290.74L291.68 62.0104L294.3 63.9704C294.13 64.1804 293.73 64.4304 293.22 64.5504V67.9204V67.9104ZM285.05 60.7204L284.85 60.0204H289.49L290.51 58.7004L292.59 60.1404C292.36 60.5704 292.05 60.7204 291.31 60.7204H285.05ZM284.85 70.6304C285.68 71.8504 286.84 72.8304 288.21 73.6004C289.21 72.7404 290.06 71.7304 290.69 70.6304H284.86H284.85ZM289.94 56.2204L291.9 57.5704C291.67 58.0004 291.39 58.1504 290.65 58.1504H285.13L284.93 57.4804H288.94L289.94 56.2304V56.2204Z" fill="#40220F"/>
<path d="M314.42 75.2402C314.22 75.7002 313.88 75.8503 313.11 75.8503H304.37V77.5002C304.37 77.6502 303.69 78.2003 302.66 78.2003H302.32V68.8702C301.69 69.6702 301.07 70.4003 300.38 70.9803L299.95 70.6403C301.26 68.7703 302.6 65.4702 303.39 62.1302L306.18 63.1403C306.07 63.4803 305.84 63.6602 305.16 63.6302C304.93 64.2402 304.65 64.8202 304.39 65.4002L304.7 65.5502H307.37C307.51 64.6002 307.71 63.3202 307.8 62.4002L310.9 63.2003C310.81 63.5403 310.53 63.6602 309.88 63.6602C309.45 64.2402 308.86 64.9502 308.29 65.5602H310.82L311.93 64.0302L314.09 65.6502C313.89 66.0802 313.55 66.2303 312.78 66.2303H309.05V68.6802H310.19L311.21 67.2702L313.23 68.8002C313.03 69.2302 312.69 69.3802 311.95 69.3802H309.05V71.8903H310.19L311.21 70.4503L313.26 71.9803C313.03 72.4103 312.72 72.5602 311.98 72.5602H309.05V75.1602H310.93L312.13 73.5103L314.41 75.2202L314.42 75.2402ZM303.66 53.4002H300.42L300.28 52.7003H303.67V49.7603L306.66 50.0103C306.63 50.4403 306.46 50.5902 305.72 50.7402V52.7003H308.82V49.7603L311.81 50.0103C311.78 50.4103 311.64 50.5902 310.84 50.7102V52.7003H312.06L313.08 51.1703L315.16 52.8203C314.96 53.1603 314.65 53.4002 313.99 53.4002H310.83V54.9002C310.83 55.0502 310.37 55.4503 309.18 55.4803H308.81V53.4002H305.71V54.9902C305.71 55.2302 305.23 55.5403 303.66 55.5403V53.4002ZM306.7 61.6302C306.67 61.8102 305.79 62.2402 305.22 62.2402H304.96V61.0502H303.02V61.9702C303.02 62.1202 302.45 62.6102 301.54 62.6102H301.28V55.7303L303.36 56.7102H304.7L305.47 55.7003L307.66 57.3203C307.52 57.5003 307.15 57.7202 306.69 57.8102V61.6302H306.7ZM303.03 60.3802H304.97V57.3802H303.03V60.3802ZM307.01 66.2502H304.36V68.7003H307.01V66.2502ZM307.01 71.9102V69.4002H304.36V71.9102H307.01ZM307.01 75.1802V72.5802H304.36V75.1802H307.01ZM313.67 61.5002C313.64 61.6802 312.73 62.1102 312.16 62.1102H311.88V61.0403H309.86V61.6202C309.86 61.7702 309.26 62.2603 308.38 62.2603H308.1V55.7102L310.21 56.6902H311.66L312.43 55.6502L314.65 57.3002C314.51 57.4802 314.11 57.7303 313.68 57.8203V61.4902L313.67 61.5002ZM309.86 60.3702H311.88V57.3702H309.86V60.3702ZM326.08 71.8102L326.05 75.6003C326.85 75.9403 326.93 76.0302 326.93 76.4002C326.93 77.2602 326.25 77.7202 324.71 77.7202H323.12C321.13 77.7202 320.87 77.3502 320.87 74.8402V67.5902H317.31V68.3203C317.31 68.3803 317.2 68.5302 317.03 68.6602L320.16 69.2102C320.07 69.6102 319.79 69.7603 319.05 69.7603C318.48 73.1903 316.86 76.5203 312.65 78.2603L312.37 77.7102C315.64 75.7802 316.75 72.2602 316.98 68.6902C316.41 69.0902 315.9 69.0902 315.24 69.0902V50.9203L317.66 51.9902H323.04L324.04 50.5802L326.6 52.6902C326.4 52.9402 326.06 53.1202 325.46 53.2102V68.1403C325.46 68.2903 324.66 68.8402 323.64 68.8402H323.3V67.5902H322.99V74.8702C322.99 75.6002 322.99 75.7003 323.33 75.7003H324.5C324.61 75.7003 324.81 75.7002 324.98 75.3602C325.18 74.9602 325.61 73.2802 325.86 71.8102H326.09H326.08ZM323.29 52.6602H317.31V56.8802H323.29V52.6602ZM323.29 61.8702V57.5902H317.31V61.8702H323.29ZM317.31 66.9203H323.29V62.5802H317.31V66.9203Z" fill="#40220F"/>
</svg>
