<svg width="107" height="92" viewBox="0 0 107 92" fill="none" xmlns="http://www.w3.org/2000/svg">
<path d="M3.6402 48.7103V48.3203H4.11017V48.7103H5.35016V49.5203H5.6402V49.9403H5.35016V50.7703H4.11017V51.1203H5.3902V51.5103H4.11017V51.9003H5.61017V52.3103H4.11017V52.7903C4.18017 52.7903 4.2602 52.7903 4.3302 52.7903C4.9402 52.7903 5.4002 52.7803 5.7002 52.7503L5.62018 53.3203C4.01018 53.3203 3.02017 53.2803 2.67017 53.2003C2.35017 53.1103 2.09016 52.9803 1.91016 52.8003C1.89016 52.7803 1.87016 52.7703 1.85016 52.7403C1.68016 52.9603 1.46017 53.2003 1.17017 53.4503L0.910156 52.9203C1.18016 52.7203 1.39016 52.5103 1.54016 52.2703C1.38016 51.9903 1.22017 51.6003 1.05017 51.1203L1.46021 50.9703C1.58021 51.2903 1.69016 51.5503 1.79016 51.7503C1.80016 51.7303 1.81019 51.7003 1.82019 51.6703C1.89019 51.4303 1.93021 51.0903 1.96021 50.6603H1.0802V50.3103C1.3902 49.9103 1.68019 49.4603 1.94019 48.9803H1.00018V48.5603H2.48016V49.0403C2.18016 49.5603 1.92018 49.9603 1.68018 50.2703H2.46021C2.44021 50.9003 2.38021 51.4003 2.28021 51.7803C2.23021 51.9603 2.18017 52.1203 2.11017 52.2703C2.23017 52.4203 2.42021 52.5403 2.65021 52.6203C2.85021 52.6903 3.19021 52.7303 3.65021 52.7603V52.3103H2.41016V51.9003H3.65021V51.5103H2.6402V51.1203H3.65021V50.7703H2.69019V50.3803H3.65021V49.9403H2.41016V49.5203H3.65021V49.1103H2.69019V48.7203H3.65021L3.6402 48.7103ZM4.11017 49.5203H4.88019V49.1103H4.11017V49.5203ZM4.11017 50.3803H4.88019V49.9403H4.11017V50.3803Z" fill="#3E3A39"/>
<path d="M7.37018 48.41C7.32018 48.52 7.28015 48.6201 7.22015 48.7201H8.53021V49.1401C8.76021 48.8701 8.93021 48.6001 9.03021 48.3101L9.50018 48.3901C9.45018 48.5101 9.41017 48.6201 9.36017 48.7201H10.9202V49.1801H10.0702C10.1202 49.3101 10.1702 49.4501 10.2202 49.5901L9.71021 49.6301C9.67021 49.4601 9.64017 49.31 9.61017 49.17H9.12018C9.01018 49.35 8.88018 49.5101 8.75018 49.6501L8.32019 49.36C8.39019 49.29 8.46019 49.23 8.51019 49.16H7.82019C7.87019 49.29 7.92015 49.42 7.97015 49.55L7.46021 49.5901C7.42021 49.4301 7.39016 49.2901 7.35016 49.1501H6.96021C6.82021 49.3401 6.68021 49.5001 6.53021 49.6501L6.10016 49.36C6.49016 49.03 6.76016 48.67 6.91016 48.29L7.38019 48.3701L7.37018 48.41ZM8.32019 51.5901V51.3201L8.12018 51.1401C8.37018 51.0501 8.56019 50.96 8.69019 50.86C8.55019 50.79 8.42016 50.7401 8.29016 50.6801L8.51019 50.3301C8.65019 50.3901 8.79017 50.4401 8.92017 50.4901C8.93017 50.4401 8.94019 50.3801 8.94019 50.3301V50.1301H8.37018V49.7401H10.2402V50.8301C10.2402 50.9301 10.2902 50.98 10.3802 50.98H10.4002C10.4002 50.98 10.4802 50.9601 10.5002 50.9301C10.5302 50.9001 10.5502 50.75 10.5602 50.48L10.9502 50.61C10.9202 51 10.8702 51.22 10.7902 51.29C10.7302 51.36 10.6102 51.4001 10.4402 51.4001H10.2402C10.1102 51.4001 10.0102 51.37 9.94019 51.29C9.87019 51.21 9.84021 51.1001 9.84021 50.9701V50.1401H9.3302V50.3401C9.3302 50.4701 9.31021 50.5801 9.28021 50.6801C9.45021 50.7601 9.60018 50.8501 9.75018 50.9401L9.51019 51.35C9.35019 51.25 9.20017 51.1501 9.05017 51.0601C8.96017 51.1501 8.84019 51.2401 8.69019 51.3201H8.79016V51.61H10.9202V52.0701H9.29016C9.48016 52.2301 9.65018 52.35 9.81018 52.42C10.0602 52.57 10.4202 52.7001 10.8902 52.8301L10.6902 53.29C10.1202 53.08 9.71019 52.8801 9.44019 52.6901C9.23019 52.5601 9.01016 52.3501 8.79016 52.0701V53.4901H8.32019V52.0701H8.30017C8.14017 52.2801 7.9702 52.47 7.7702 52.61C7.4502 52.86 6.9902 53.0901 6.3902 53.3301L6.13019 52.8701C6.74019 52.6701 7.18019 52.4901 7.44019 52.3301C7.56019 52.2601 7.68016 52.1701 7.79016 52.0701H6.10016V51.61H8.31018L8.32019 51.5901ZM8.18018 49.8101V50.2701H7.49017V50.7501C7.72017 50.7001 7.95018 50.65 8.18018 50.6V51.04C7.63018 51.19 7.0002 51.3201 6.2702 51.4501L6.17017 50.9501C6.46017 50.9201 6.7402 50.8801 7.0202 50.8401V50.2701H6.31018V49.8101H8.18018Z" fill="#3E3A39"/>
<path d="M12.0302 48.8003C12.0102 49.0503 12.0002 49.2803 11.9802 49.5003H12.3002V48.3203H12.7902V49.5003H13.2602V49.9003C13.3902 49.7103 13.4902 49.5203 13.5702 49.3303C13.6702 49.0803 13.7602 48.7403 13.8302 48.3203L14.3202 48.4003C14.2702 48.6503 14.2302 48.8703 14.1702 49.0603H16.0402C16.0402 51.0803 16.0102 52.2803 15.9602 52.6503C15.9202 52.9403 15.8402 53.1303 15.7302 53.2303C15.5902 53.3403 15.3602 53.4003 15.0102 53.4003C14.8902 53.4003 14.7502 53.3903 14.6002 53.3803L14.5202 52.8103C14.6802 52.8403 14.8402 52.8603 15.0102 52.8603C15.2902 52.8603 15.4502 52.7403 15.4802 52.5003C15.5302 52.2003 15.5702 51.2103 15.5802 49.5403H15.4502C15.3202 50.4703 15.1402 51.2003 14.9002 51.7303C14.6302 52.3103 14.2302 52.8303 13.6902 53.2803L13.3602 52.8403C13.8302 52.4403 14.2002 51.9803 14.4702 51.4703C14.6902 50.9903 14.8702 50.3503 14.9802 49.5403H14.7702C14.6302 50.0703 14.5002 50.4903 14.3602 50.7903C14.1802 51.2003 13.8902 51.6403 13.4702 52.1003L13.1402 51.6603C13.4902 51.3103 13.7502 50.9503 13.9202 50.6103C14.0702 50.3403 14.1902 49.9803 14.2902 49.5403H14.0302L14.0202 49.5703C13.9102 49.9103 13.7102 50.2603 13.4302 50.6303L13.0902 50.1703C13.1302 50.1203 13.1702 50.0703 13.2002 50.0103H12.8002V51.1103C12.9702 51.0503 13.1302 50.9903 13.2902 50.9103V51.4103C13.1302 51.4803 12.9702 51.5503 12.8002 51.6103V53.4703H12.3102V51.8003C12.0502 51.9003 11.7802 51.9803 11.5002 52.0703L11.3802 51.5003C11.6902 51.4403 12.0002 51.3703 12.3202 51.2703V50.0103H11.9502C11.9102 50.3203 11.8602 50.6003 11.8002 50.8403L11.3302 50.6803C11.4902 50.0803 11.6002 49.4403 11.6502 48.7603L12.0602 48.8003H12.0302Z" fill="#3E3A39"/>
<path d="M18.2802 48.7599C18.0902 49.3299 17.9302 49.7299 17.7902 49.9799C17.6502 50.2599 17.4302 50.58 17.1002 50.97L16.6702 50.58C16.9502 50.27 17.1802 49.9699 17.3602 49.6699C17.5202 49.3699 17.6602 48.9999 17.7702 48.5699L18.2802 48.77V48.7599ZM19.0302 50.27C18.7002 51.22 18.3602 51.98 18.0202 52.58C18.7802 52.56 19.4702 52.5099 20.0802 52.4399C19.9202 52.0599 19.7502 51.69 19.5602 51.33L20.0602 51.15C20.4102 51.78 20.7402 52.4999 21.0202 53.3199L20.4502 53.4799C20.3902 53.2799 20.3202 53.0899 20.2602 52.9099C19.5602 53.0099 18.4402 53.0999 16.9102 53.1899L16.8302 52.6199C17.0302 52.6199 17.2302 52.6199 17.4102 52.6099C17.7502 52.0199 18.1102 51.1699 18.4802 50.0599L19.0302 50.28V50.27ZM20.1702 48.46C20.3602 49.15 20.7602 49.7999 21.3702 50.4099L21.0302 50.9299C20.7302 50.6399 20.4902 50.3399 20.3102 50.0399C20.0902 49.7199 19.9202 49.3499 19.7902 48.9399H18.7402V48.46H20.1802H20.1702Z" fill="#3E3A39"/>
<path d="M22.9602 49.4999V48.3599H23.4902V49.4999H24.8102V48.3799H25.3402V49.4999H26.3202V49.9599H25.3402V51.1799H26.5602V51.6599H21.7702V51.1799H22.9702V49.9599H22.0502V49.4999H22.9702H22.9602ZM23.7302 52.1699C23.3202 52.6599 22.8002 53.0899 22.1902 53.4799L21.8202 52.9599C22.3902 52.6499 22.9002 52.2599 23.3402 51.7999L23.7302 52.1699ZM24.8102 51.1799V49.9599H23.4902V51.1799H24.8102ZM26.5202 52.9999L26.0902 53.4599C25.7502 53.0699 25.2602 52.6499 24.6202 52.1899L25.0102 51.7999C25.6002 52.1999 26.1002 52.6099 26.5102 52.9999H26.5202Z" fill="#3E3A39"/>
<path d="M31.5002 48.7998V49.3198H29.6302V52.6198H31.7102V53.1498H27.0302V52.6198H29.0902V49.3198H27.2402V48.7998H31.5102H31.5002Z" fill="#3E3A39"/>
<path d="M34.0702 48.8699C33.8802 48.9399 33.6702 48.9999 33.4402 49.0499V49.8599H34.0902V50.3199H33.4402V50.5799C33.6702 50.8399 33.9102 51.1099 34.1502 51.4099L33.8902 51.8299C33.7102 51.5499 33.5702 51.3199 33.4402 51.1399V53.4499H32.9902V51.1499C32.9902 51.1499 32.9702 51.1999 32.9602 51.2199C32.7902 51.6699 32.5802 52.0599 32.3402 52.3899L32.1602 51.8399C32.4802 51.3999 32.7502 50.8899 32.9702 50.3099H32.2402V49.8499H32.9902V49.1199C32.8102 49.1499 32.6202 49.1799 32.4202 49.1899L32.3402 48.7299C32.9202 48.6699 33.4502 48.5699 33.9102 48.3999L34.0702 48.8599V48.8699ZM36.7902 50.8399C36.4702 50.9399 36.1102 51.0099 35.6902 51.0499V51.6399H36.7902V52.0799H35.6902V52.8199H36.9502V53.2799H33.8602V52.8199H35.2202V52.0799H34.1602V51.6399H35.2202V51.0899C34.9102 51.1099 34.5902 51.1199 34.2402 51.1199L34.1002 50.6599C35.0602 50.6599 35.8802 50.5799 36.5602 50.3999L36.7802 50.8399H36.7902ZM36.7102 48.5399V50.1799H34.2502V48.5399H36.7102ZM36.2202 48.9799H34.7402V49.7399H36.2202V48.9799Z" fill="#3E3A39"/>
<path d="M40.0302 49.6598C39.8802 49.9298 39.7502 50.1798 39.6202 50.3998H42.1902V50.8998H41.3902C41.1702 51.4998 40.9102 51.9798 40.6302 52.2998C41.0902 52.5098 41.5602 52.7598 42.0602 53.0398L41.7402 53.4798C41.2802 53.1798 40.7802 52.9098 40.2402 52.6598C39.7302 52.9998 38.9102 53.2698 37.7702 53.4598L37.5702 52.9098C38.5102 52.8098 39.2002 52.6498 39.6602 52.4098C39.1602 52.2098 38.6302 52.0198 38.0702 51.8598C38.2802 51.5698 38.5002 51.2498 38.7302 50.8998H37.4102V50.3998H39.0402C39.2102 50.1198 39.3802 49.8198 39.5602 49.4998L40.0402 49.6498L40.0302 49.6598ZM40.0802 48.8298H42.0602V50.0998H41.5702V49.3298H38.0402V50.0998H37.5502V48.8298H39.5502C39.4902 48.6798 39.4102 48.5498 39.3402 48.4198L39.8902 48.3398C39.9502 48.4898 40.0202 48.6598 40.0802 48.8398V48.8298ZM39.3202 50.9098C39.1502 51.1798 39.0002 51.4298 38.8602 51.6298C39.2602 51.7498 39.6802 51.8998 40.1202 52.0898C40.3902 51.8198 40.6202 51.4298 40.8302 50.9098H39.3202Z" fill="#3E3A39"/>
<path d="M43.4502 48.8199V48.3799H45.3002C45.6402 48.9599 46.3502 49.5099 47.4302 50.0199L47.1102 50.5199C46.9502 50.4499 46.8102 50.3699 46.6802 50.2999V50.6399H45.2302V51.4899H46.6102V51.9499H45.2302V52.9099H47.2202V53.3699H42.7302V52.9099H44.7002V51.9499H43.3602V51.4899H44.7002V50.6399H43.3002V50.3199C43.1702 50.3899 43.0302 50.4699 42.8902 50.5299L42.6002 49.9999C43.1402 49.7799 43.5602 49.5599 43.8602 49.3299C44.0702 49.1899 44.2702 49.0199 44.4402 48.8099H43.4402L43.4502 48.8199ZM46.4702 50.1799C46.2402 50.0499 46.0402 49.9099 45.8702 49.7599C45.5102 49.4799 45.2102 49.1699 44.9902 48.8199C44.8202 49.0999 44.6502 49.3199 44.4702 49.4799C44.2502 49.7099 43.9402 49.9399 43.5402 50.1799H46.4702Z" fill="#3E3A39"/>
<path d="M48.4602 49.3903V48.3203H48.9102V49.3903H49.4102V49.5003C49.7302 49.3303 49.9802 49.1603 50.1502 48.9803C50.3102 48.8203 50.4702 48.6103 50.6402 48.3403H51.0902C51.3102 48.6303 51.5302 48.8603 51.7702 49.0303C51.9402 49.1703 52.2202 49.3303 52.6102 49.5103L52.3502 49.9503C52.1502 49.8703 51.9502 49.7703 51.7702 49.6403H51.7602V49.9503H50.0502V49.6803C49.9002 49.7903 49.7302 49.9003 49.5502 50.0203L49.4002 49.7203V49.8703H48.9002V50.2303C49.1002 50.4703 49.2902 50.7303 49.4902 51.0103L49.2202 51.4203C49.1002 51.2003 48.9902 51.0003 48.9002 50.8303V53.4803H48.4502V50.9503C48.3102 51.3703 48.1502 51.7403 47.9602 52.0503L47.7802 51.5003C48.0502 51.0403 48.2702 50.5003 48.4502 49.9003V49.8603H47.8602V49.4003H48.4502L48.4602 49.3903ZM50.8002 50.2603V51.7903H50.0502L50.3502 51.9203C50.3002 52.0603 50.2602 52.1803 50.2302 52.2903C50.4702 52.5003 50.6902 52.7003 50.8602 52.9103L50.5502 53.2303C50.4302 53.0603 50.2602 52.8803 50.0602 52.6903C50.0402 52.7203 50.0302 52.7503 50.0202 52.7703C49.9302 52.9603 49.7802 53.1903 49.5602 53.4603L49.2102 53.1303C49.4002 52.9203 49.5502 52.7103 49.6702 52.5003C49.7702 52.3003 49.8602 52.0703 49.9402 51.7903H49.5402V50.2603H50.8002ZM50.3902 50.7003H49.9402V51.3603H50.3902V50.7003ZM51.6002 49.5003C51.3602 49.3203 51.1202 49.0903 50.8802 48.8003C50.6902 49.0603 50.5102 49.2803 50.3302 49.4403C50.3002 49.4603 50.2802 49.4803 50.2702 49.5003H51.6102H51.6002ZM52.3202 50.2803V51.7903H51.5902L51.8902 51.9203C51.8302 52.1103 51.7702 52.2803 51.7202 52.4103C52.0402 52.6503 52.3102 52.8903 52.5402 53.1203L52.2302 53.4503C52.0602 53.2403 51.8302 53.0203 51.5402 52.7903C51.4502 52.9803 51.3002 53.2003 51.0902 53.4503L50.7502 53.1203C50.9402 52.9103 51.0902 52.7003 51.2102 52.4903C51.3102 52.2903 51.4002 52.0603 51.4802 51.7803H51.0402V50.2703H52.3202V50.2803ZM51.9102 50.7203H51.4402V51.3603H51.9102V50.7203Z" fill="#3E3A39"/>
<path d="M55.1702 48.7401V48.3301H55.6502V48.7401H57.5202V49.2001H56.1202C56.2902 49.3501 56.4702 49.4901 56.6902 49.6201C56.9602 49.7901 57.3502 49.97 57.8502 50.16L57.5302 50.6201C57.3702 50.5501 57.2302 50.4701 57.1002 50.4001V52.42H53.7602V50.4901C53.6302 50.5701 53.4902 50.6501 53.3502 50.7101L53.0802 50.23C53.5602 50.03 53.9302 49.8301 54.2002 49.6301C54.3702 49.5101 54.5302 49.3701 54.6702 49.2101H53.2402V48.7501H55.1502L55.1702 48.7401ZM57.7302 52.8101V53.29H53.1602V52.8101H57.7302ZM56.9902 50.3401C56.7002 50.1801 56.4502 50.02 56.2602 49.85C56.0302 49.67 55.8202 49.47 55.6602 49.23V50.16H55.1802V49.23C55.0402 49.45 54.9002 49.6301 54.7602 49.7501C54.5802 49.9401 54.3302 50.1401 54.0202 50.3301H57.0002L56.9902 50.3401ZM56.6102 51.1501V50.7801H54.2502V51.1501H56.6102ZM56.6102 51.55H54.2502V51.9901H56.6102V51.55Z" fill="#3E3A39"/>
<path d="M60.3802 48.6699V48.3799H60.8402V48.6699H62.9602V49.0599H60.8402V49.3199H62.5702V51.0299H62.3202C62.5302 51.2799 62.7002 51.4999 62.8302 51.6899L62.4702 51.9499C62.4202 51.8499 62.3602 51.7499 62.2902 51.6499C62.1502 51.6599 62.0102 51.6699 61.8802 51.6799V52.0399H62.9602V52.4499H61.8802V52.9099C61.8802 53.0899 61.8402 53.2199 61.7602 53.2899C61.6902 53.3699 61.5502 53.4099 61.3502 53.4099H60.8402L60.7402 52.9099C60.9402 52.9399 61.1002 52.9499 61.2302 52.9499C61.3502 52.9499 61.4102 52.9099 61.4102 52.8199V52.4499H58.2802V52.0399H61.4102V51.7199C60.5502 51.7799 59.5902 51.8299 58.5402 51.8899L58.4602 51.4499C59.1102 51.4399 59.7502 51.4199 60.3702 51.3799V51.0299H58.6602V49.3199H60.3702V49.0599H58.2702V48.6699H60.3702H60.3802ZM60.3802 49.9999V49.6999H59.1402V49.9999H60.3802ZM60.3802 50.3499H59.1402V50.6599H60.3802V50.3499ZM60.4202 52.9799L60.0802 53.3499C59.8702 53.1899 59.5602 53.0099 59.1602 52.8199L59.4902 52.4999C59.8502 52.6599 60.1702 52.8199 60.4202 52.9799ZM60.8502 49.9999H62.1102V49.6999H60.8502V49.9999ZM62.1102 50.3499H60.8502V50.6599H62.1102V50.3499ZM60.8502 51.3499C61.2602 51.3399 61.6602 51.3199 62.0602 51.2899C62.0202 51.2299 61.9802 51.1799 61.9502 51.1299L62.1202 51.0199H60.8602V51.3399L60.8502 51.3499Z" fill="#3E3A39"/>
<path d="M65.5702 48.3203V49.1903H66.0402V48.3203H66.5002V49.1903H66.8602C66.9702 48.9903 67.0902 48.7403 67.2102 48.4203L67.7002 48.6203C67.6002 48.8403 67.5002 49.0303 67.4002 49.1903H68.1602V49.6503H66.7202L67.0802 49.7803C67.0102 49.9103 66.9302 50.0303 66.8502 50.1303H67.9802V50.5703H66.0402V50.8803H67.8702V51.2903H66.0402V51.6003H68.1602V52.0403H66.4802C66.7102 52.2603 66.9202 52.4203 67.1102 52.5103C67.3502 52.6403 67.7002 52.7603 68.1402 52.8703L67.8702 53.3303C67.3502 53.1603 66.9602 52.9903 66.7102 52.8203C66.4802 52.6603 66.2502 52.4303 66.0302 52.1403V53.4203H65.5502V52.1303C65.4102 52.3203 65.2502 52.4803 65.0902 52.6103C64.7802 52.8603 64.3402 53.0903 63.7602 53.3303L63.5202 52.8903C64.1102 52.6903 64.5302 52.5003 64.7802 52.3403C64.9102 52.2603 65.0302 52.1603 65.1402 52.0403H63.4802V51.6003H65.5602V51.2903H63.7702V50.8803H65.5602V50.5703H63.6502V50.1303H64.8202C64.7602 50.0203 64.7002 49.9003 64.6302 49.7803L64.9602 49.6503H63.4902V49.1903H64.2402C64.1802 49.0103 64.0902 48.8103 64.0002 48.6003L64.4702 48.4303C64.5602 48.6403 64.6502 48.9003 64.7402 49.2003H65.1002V48.3303H65.5702V48.3203ZM66.3202 50.1303C66.4202 49.9803 66.5102 49.8203 66.5902 49.6503H65.1102C65.1802 49.7903 65.2602 49.9503 65.3202 50.1303H66.3202Z" fill="#3E3A39"/>
<path d="M69.3002 49.3903V48.3203H69.7502V49.3903H70.2502V49.5003C70.5702 49.3303 70.8202 49.1603 70.9902 48.9803C71.1502 48.8203 71.3102 48.6103 71.4802 48.3403H71.9302C72.1502 48.6303 72.3702 48.8603 72.6102 49.0303C72.7802 49.1703 73.0602 49.3303 73.4502 49.5103L73.1902 49.9503C72.9902 49.8703 72.7902 49.7703 72.6102 49.6403H72.6002V49.9503H70.8902V49.6803C70.7402 49.7903 70.5702 49.9003 70.3902 50.0203L70.2402 49.7203V49.8703H69.7402V50.2303C69.9402 50.4703 70.1302 50.7303 70.3302 51.0103L70.0602 51.4203C69.9402 51.2003 69.8302 51.0003 69.7402 50.8303V53.4803H69.2902V50.9503C69.1502 51.3703 68.9902 51.7403 68.8002 52.0503L68.6202 51.5003C68.8902 51.0403 69.1102 50.5003 69.2902 49.9003V49.8603H68.7002V49.4003H69.2902L69.3002 49.3903ZM71.6402 50.2603V51.7903H70.8902L71.1902 51.9203C71.1402 52.0603 71.1002 52.1803 71.0702 52.2903C71.3102 52.5003 71.5302 52.7003 71.7002 52.9103L71.3902 53.2303C71.2702 53.0603 71.1002 52.8803 70.9002 52.6903C70.8802 52.7203 70.8702 52.7503 70.8602 52.7703C70.7702 52.9603 70.6202 53.1903 70.4002 53.4603L70.0502 53.1303C70.2402 52.9203 70.3902 52.7103 70.5102 52.5003C70.6102 52.3003 70.7002 52.0703 70.7802 51.7903H70.3802V50.2603H71.6402ZM71.2302 50.7003H70.7802V51.3603H71.2302V50.7003ZM72.4402 49.5003C72.2002 49.3203 71.9602 49.0903 71.7202 48.8003C71.5302 49.0603 71.3502 49.2803 71.1702 49.4403C71.1402 49.4603 71.1202 49.4803 71.1102 49.5003H72.4502H72.4402ZM73.1602 50.2803V51.7903H72.4302L72.7302 51.9203C72.6702 52.1103 72.6102 52.2803 72.5602 52.4103C72.8802 52.6503 73.1502 52.8903 73.3802 53.1203L73.0702 53.4503C72.9002 53.2403 72.6702 53.0203 72.3802 52.7903C72.2902 52.9803 72.1402 53.2003 71.9302 53.4503L71.5902 53.1203C71.7802 52.9103 71.9302 52.7003 72.0502 52.4903C72.1502 52.2903 72.2402 52.0603 72.3202 51.7803H71.8802V50.2703H73.1602V50.2803ZM72.7502 50.7203H72.2802V51.3603H72.7502V50.7203Z" fill="#3E3A39"/>
<path d="M75.9102 48.7401V48.3301H76.3902V48.7401H78.2602V49.2001H76.8602C77.0302 49.3501 77.2102 49.4901 77.4302 49.6201C77.7002 49.7901 78.0902 49.97 78.5902 50.16L78.2702 50.6201C78.1102 50.5501 77.9702 50.4701 77.8402 50.4001V52.42H74.5002V50.4901C74.3702 50.5701 74.2302 50.6501 74.0902 50.7101L73.8202 50.23C74.3002 50.03 74.6702 49.8301 74.9402 49.6301C75.1102 49.5101 75.2702 49.3701 75.4102 49.2101H73.9802V48.7501H75.8902L75.9102 48.7401ZM78.4702 52.8101V53.29H73.9002V52.8101H78.4702ZM77.7302 50.3401C77.4402 50.1801 77.1902 50.02 77.0002 49.85C76.7702 49.67 76.5602 49.47 76.4002 49.23V50.16H75.9202V49.23C75.7802 49.45 75.6402 49.6301 75.5002 49.7501C75.3202 49.9401 75.0702 50.1401 74.7602 50.3301H77.7402L77.7302 50.3401ZM77.3502 51.1501V50.7801H74.9902V51.1501H77.3502ZM77.3502 51.55H74.9902V51.9901H77.3502V51.55Z" fill="#3E3A39"/>
<path d="M81.3102 48.2998V49.6298C81.4802 50.4498 81.7402 51.1198 82.0902 51.6398C82.3702 52.0798 82.8202 52.5198 83.4502 52.9798L83.1102 53.4798C82.5902 53.1098 82.1902 52.7598 81.9302 52.3998C81.5802 51.9698 81.3102 51.4498 81.1002 50.8298C80.9302 51.4798 80.6902 51.9798 80.4002 52.3298C80.0902 52.7198 79.6202 53.0998 78.9902 53.4798L78.6702 52.9798C79.4502 52.4798 79.9902 51.9198 80.2902 51.3198C80.5902 50.7498 80.7402 50.1798 80.7602 49.6298V48.2998H81.3302H81.3102Z" fill="#3E3A39"/>
<path d="M3.11017 57.0601C2.78017 57.7401 2.4302 58.3001 2.0802 58.7301C2.1802 58.7401 2.27021 58.7401 2.34021 58.7401C3.12021 58.7401 3.90017 58.6701 4.67017 58.5401C4.48017 58.2601 4.2602 57.9801 4.0202 57.6901L4.3902 57.3201C4.8802 57.9101 5.29019 58.4901 5.63019 59.0701L5.24017 59.4801C5.16017 59.3201 5.06015 59.1601 4.97015 59.0001C3.94015 59.1701 2.68019 59.2601 1.19019 59.2601L1.09021 58.6501C1.27021 58.6701 1.43019 58.6801 1.57019 58.6901C1.90019 58.2501 2.25017 57.6401 2.61017 56.8501L3.09021 57.0501L3.11017 57.0601ZM5.23016 62.0401H4.72015V61.6901H1.96021V62.0201H1.4502V59.6601H5.23016V62.0401ZM4.72015 61.2101V60.1401H1.96021V61.2101H4.72015Z" fill="#3E3A39"/>
<path d="M7.0802 58.8199L6.79016 59.2799C6.56016 59.0499 6.3202 58.8499 6.0802 58.7099L6.32019 58.3099C6.59019 58.4599 6.84019 58.6199 7.07019 58.8099L7.0802 58.8199ZM7.12018 59.7599C6.96018 60.6399 6.76021 61.3799 6.53021 61.9699L6.16016 61.5899C6.35016 61.0599 6.52019 60.3799 6.69019 59.5299L7.12018 59.7499V59.7599ZM7.18018 57.4599L6.8902 57.9199C6.6802 57.6899 6.47019 57.5099 6.26019 57.3699L6.50018 56.9799C6.74018 57.1099 6.96017 57.2799 7.17017 57.4599H7.18018ZM7.5202 58.9699C7.4602 59.1999 7.40019 59.4099 7.32019 59.5999L7.05017 59.5099C7.13017 59.3499 7.20018 59.1499 7.25018 58.8999L7.5202 58.9699ZM7.93018 56.9799C7.83018 57.2699 7.72018 57.5099 7.62018 57.6899C7.70018 57.6899 7.78021 57.6899 7.84021 57.6899C7.91021 57.5599 7.98017 57.4199 8.05017 57.2699L8.29016 57.3899V57.2199H8.81018C8.76018 57.1099 8.7002 57.0099 8.6402 56.9099L9.00018 56.8699C9.06018 56.9799 9.11017 57.0899 9.17017 57.2199H9.63019V57.5499H8.29016V57.4299C8.10016 57.8299 7.93019 58.1699 7.76019 58.4399C7.85019 58.4299 7.94021 58.4199 8.03021 58.3899C8.01021 58.3199 8.00017 58.2599 7.99017 58.2099L8.23016 58.1199C8.28016 58.3099 8.33018 58.5299 8.37018 58.7799L8.10016 58.8499C8.09016 58.7899 8.08019 58.7399 8.07019 58.6899C7.85019 58.7499 7.54018 58.8099 7.12018 58.8499L7.0802 58.4999C7.1602 58.4999 7.24018 58.4999 7.31018 58.4899C7.42018 58.3499 7.53019 58.1899 7.63019 58.0199C7.48019 58.0399 7.31017 58.0499 7.11017 58.0599L7.07019 57.7099H7.24017C7.34017 57.4999 7.4602 57.2199 7.5802 56.8599L7.90021 56.9899L7.93018 56.9799ZM10.6102 59.7599V60.6799H7.85016L7.7702 60.9199H10.7702C10.7502 61.3699 10.7002 61.6599 10.6002 61.7799C10.5002 61.9199 10.2602 61.9899 9.90021 61.9899H8.96021L8.90021 61.5699C9.34021 61.5799 9.6802 61.5899 9.8902 61.5899C10.0102 61.5899 10.1102 61.5699 10.1802 61.5299C10.2302 61.4899 10.2702 61.3999 10.2802 61.2599H7.2702L7.47015 60.3199H10.1802V60.0999H7.2702V59.7499H10.6102V59.7599ZM7.93018 59.5599L7.65021 59.5799C7.64021 59.3199 7.62021 59.1199 7.59021 58.9699L7.8302 58.9499C7.8802 59.0999 7.91018 59.2999 7.93018 59.5599ZM8.36017 59.4699L8.12018 59.5399C8.08018 59.3299 8.04016 59.1299 7.98016 58.9299L8.2002 58.8599C8.2602 59.0399 8.31017 59.2499 8.36017 59.4699ZM9.50018 57.7199V57.9799H8.42017V57.7199H9.50018ZM9.50018 58.1799V58.4399H8.42017V58.1799H9.50018ZM9.50018 58.6399V59.5399H8.44019V58.6399H9.50018ZM9.19019 58.9499H8.74017V59.2299H9.19019V58.9499ZM9.97015 59.0099C9.93015 59.2499 9.8802 59.4699 9.8302 59.6699L9.54016 59.5599C9.59016 59.3999 9.64018 59.1999 9.68018 58.9499L9.97015 59.0099ZM10.4002 56.9999C10.3002 57.2899 10.1902 57.5299 10.0902 57.7099C10.1702 57.7099 10.2602 57.7099 10.3402 57.7099C10.4002 57.5999 10.4602 57.4899 10.5202 57.3699L10.8502 57.4999C10.6202 57.8899 10.4002 58.2099 10.1702 58.4599C10.3002 58.4499 10.4202 58.4399 10.5302 58.4199C10.5102 58.3299 10.4802 58.2499 10.4602 58.1599L10.7202 58.0699C10.7902 58.2799 10.8502 58.5199 10.9102 58.7899L10.6202 58.8599C10.6102 58.7999 10.5902 58.7499 10.5802 58.6899C10.3602 58.7299 10.0302 58.7799 9.60016 58.8099L9.56018 58.4899C9.64018 58.4899 9.72016 58.4899 9.79016 58.4899C9.90016 58.3599 10.0202 58.1899 10.1402 58.0099C9.9902 58.0299 9.81016 58.0499 9.60016 58.0599L9.56018 57.7299H9.73016C9.83016 57.5199 9.95019 57.2399 10.0702 56.8799L10.4002 57.0099V56.9999ZM10.4402 59.5599L10.1302 59.5799C10.1302 59.3199 10.1102 59.1199 10.0902 58.9699L10.3602 58.9499C10.4002 59.0999 10.4302 59.2999 10.4402 59.5599ZM10.9202 59.4899L10.6202 59.5799C10.5902 59.3699 10.5502 59.1699 10.5002 58.9699L10.7902 58.8799C10.8402 59.0599 10.8902 59.2699 10.9302 59.4899H10.9202Z" fill="#3E3A39"/>
<path d="M15.7902 57.0303V57.4402H13.9602V57.6802H16.0602V58.9102H15.5702V58.1002H13.9602V59.2402H13.4802V58.1002H11.8902V58.9603H11.4002V57.6902H13.4802V57.4503H11.6702V57.0402H15.8002L15.7902 57.0303ZM15.7302 59.3702V61.0602L16.1602 61.2103C16.1002 61.6003 16.0102 61.8303 15.8902 61.8903C15.7802 61.9603 15.5802 62.0002 15.2902 62.0002H13.9102C13.7602 62.0002 13.6502 61.9602 13.5702 61.8802C13.4902 61.8002 13.4502 61.6902 13.4502 61.5602V61.1802H11.7402V59.3702H15.7402H15.7302ZM13.3002 58.3203V58.6503H12.0802V58.3203H13.3002ZM13.3002 58.8203V59.1503H12.0802V58.8203H13.3002ZM13.4402 60.0903V59.7603H12.2002V60.0903H13.4402ZM13.4402 60.4402H12.2002V60.7902H13.4402V60.4402ZM13.9102 60.0903H15.2702V59.7603H13.9102V60.0903ZM15.2702 60.4402H13.9102V60.7902H15.2702V60.4402ZM13.9102 61.4302C13.9102 61.5302 13.9702 61.5803 14.0902 61.5803H15.2302C15.3802 61.5803 15.4802 61.5602 15.5502 61.5402C15.6202 61.5102 15.6602 61.3902 15.7002 61.1902H13.9102V61.4302ZM15.4102 58.3002V58.6302H14.1502V58.3002H15.4102ZM15.4102 58.8303V59.1602H14.1502V58.8303H15.4102Z" fill="#3E3A39"/>
<path d="M18.6202 58.0001V56.8901H19.1502V58.0001H21.1602C21.1202 59.9401 21.0502 61.0701 20.9302 61.4001C20.8102 61.7301 20.5502 61.8901 20.1402 61.8901C19.7902 61.8901 19.5402 61.8801 19.3902 61.8701L19.2502 61.2601C19.5402 61.3001 19.8402 61.3301 20.1402 61.3301C20.3402 61.3301 20.4702 61.1801 20.5102 60.8701C20.5602 60.6601 20.5902 59.8901 20.6002 58.5501H19.1202C19.0602 59.4001 18.8802 60.1001 18.5902 60.6401C18.2702 61.2301 17.7402 61.6901 17.0002 62.0101L16.7202 61.5101C17.4502 61.1701 17.9402 60.7402 18.2002 60.2202C18.4202 59.7702 18.5502 59.2101 18.5902 58.5501H16.7902V58.0101H18.6002L18.6202 58.0001Z" fill="#3E3A39"/>
<path d="M23.4902 57.32C23.3002 57.89 23.1402 58.29 23.0002 58.54C22.8602 58.82 22.6402 59.14 22.3102 59.53L21.8802 59.14C22.1602 58.83 22.3902 58.53 22.5702 58.23C22.7302 57.93 22.8702 57.56 22.9802 57.13L23.4902 57.33V57.32ZM24.2402 58.83C23.9102 59.78 23.5702 60.54 23.2302 61.14C23.9902 61.12 24.6802 61.07 25.2902 61C25.1302 60.62 24.9602 60.25 24.7702 59.89L25.2702 59.71C25.6202 60.34 25.9502 61.06 26.2302 61.88L25.6602 62.04C25.6002 61.84 25.5302 61.65 25.4702 61.47C24.7702 61.57 23.6502 61.66 22.1202 61.75L22.0402 61.18C22.2402 61.18 22.4402 61.18 22.6202 61.17C22.9602 60.58 23.3202 59.73 23.6902 58.62L24.2402 58.84V58.83ZM25.3802 57.02C25.5702 57.71 25.9702 58.36 26.5802 58.97L26.2402 59.49C25.9402 59.2 25.7002 58.9 25.5202 58.6C25.3002 58.28 25.1302 57.91 25.0002 57.5H23.9502V57.02H25.3902H25.3802Z" fill="#3E3A39"/>
<path d="M31.4602 57.1401V61.4101C31.4602 61.6101 31.4002 61.7601 31.3002 61.8601C31.2002 61.9501 31.0502 62.0001 30.8302 62.0001H30.1202L30.0202 61.4501L30.7302 61.4702C30.8702 61.4702 30.9302 61.3901 30.9302 61.2301V57.6401H27.1102V57.1401H31.4602ZM30.0602 58.1501V58.6301H27.1802V58.1501H30.0602ZM29.9002 59.1401V61.0701H27.3202V59.1401H29.9002ZM29.3902 59.6201H27.8302V60.5801H29.3902V59.6201Z" fill="#3E3A39"/>
<path d="M35.1702 57.5099H35.9002V57.9699H33.9302V57.5099H34.6902C34.6202 57.3099 34.5402 57.1199 34.4602 56.9399L34.9502 56.8799C35.0302 57.0699 35.1002 57.2799 35.1702 57.5099ZM35.7002 61.5999H34.5702V61.9999H34.1002V59.9799H35.7002V61.5999ZM35.7002 58.3399V58.7799H34.1202V58.3399H35.7002ZM35.7002 59.1499V59.5899H34.1202V59.1499H35.7002ZM35.2302 61.1399V60.4399H34.5602V61.1399H35.2302ZM38.0402 58.3199C38.0402 58.4499 38.1002 58.5199 38.2202 58.5199H38.6302V59.0199H38.1202C37.9202 59.0199 37.7702 58.9799 37.6802 58.8899C37.5802 58.8099 37.5302 58.6499 37.5302 58.4399V57.4999H36.7402C36.7202 57.8799 36.6902 58.1399 36.6402 58.2999C36.5802 58.5199 36.4202 58.7799 36.1502 59.0699L35.7902 58.7199C36.0002 58.4599 36.1402 58.2599 36.2002 58.1099C36.2402 57.9799 36.2602 57.6199 36.2602 57.0299H38.0502V58.3199H38.0402ZM38.2402 59.1499V59.5199C38.1102 60.0899 37.9002 60.5799 37.6002 60.9799C37.8902 61.1799 38.2602 61.3499 38.7002 61.4899L38.4002 61.9699C37.9102 61.7799 37.5202 61.5799 37.2302 61.3699C36.9402 61.6199 36.5502 61.8299 36.0602 62.0099L35.7702 61.5499C36.2102 61.3999 36.5602 61.2299 36.8402 61.0199C36.5402 60.7099 36.2902 60.3499 36.1002 59.9399L36.5302 59.6799C36.7202 60.0699 36.9502 60.3999 37.2302 60.6699C37.4502 60.3699 37.6202 60.0199 37.7302 59.5999H35.9802V59.1399H38.2402V59.1499Z" fill="#3E3A39"/>
<path d="M40.5202 57.5101H41.3702V57.9702H39.1302V57.5101H40.0402C39.9502 57.3101 39.8402 57.1201 39.7302 56.9401L40.2202 56.8801C40.3202 57.0701 40.4202 57.2801 40.5202 57.5101ZM41.1902 58.3601V58.8001H39.3202V58.3601H41.1902ZM41.1902 59.1501V59.5901H39.3202V59.1501H41.1902ZM39.8102 62.0001H39.3502V59.9801H41.1602V61.9101H40.6902V61.6001H39.8202V62.0001H39.8102ZM40.6802 60.4401H39.8102V61.1401H40.6802V60.4401ZM42.4502 58.4702V56.8701H42.9602V58.4702H43.9502V58.9702H42.9602V62.0101H42.4502V58.9702H41.4602V58.4702H42.4502Z" fill="#3E3A39"/>
<path d="M48.8702 57.3599V57.8799H47.0002V61.1799H49.0802V61.7099H44.4002V61.1799H46.4602V57.8799H44.6102V57.3599H48.8802H48.8702Z" fill="#3E3A39"/>
<path d="M51.4302 57.4202C51.2402 57.4902 51.0302 57.5502 50.8002 57.6002V58.4102H51.4502V58.8702H50.8002V59.1302C51.0302 59.3902 51.2702 59.6602 51.5102 59.9602L51.2502 60.3802C51.0702 60.1002 50.9302 59.8702 50.8002 59.6902V62.0002H50.3502V59.7002C50.3502 59.7002 50.3302 59.7502 50.3202 59.7702C50.1502 60.2202 49.9402 60.6102 49.7002 60.9402L49.5202 60.3902C49.8402 59.9502 50.1102 59.4402 50.3302 58.8602H49.6002V58.4002H50.3502V57.6702C50.1702 57.7002 49.9802 57.7302 49.7802 57.7402L49.7002 57.2802C50.2802 57.2202 50.8102 57.1202 51.2702 56.9502L51.4302 57.4102V57.4202ZM54.1502 59.3902C53.8302 59.4902 53.4702 59.5602 53.0502 59.6002V60.1902H54.1502V60.6302H53.0502V61.3702H54.3102V61.8302H51.2202V61.3702H52.5802V60.6302H51.5202V60.1902H52.5802V59.6402C52.2702 59.6602 51.9502 59.6702 51.6002 59.6702L51.4602 59.2102C52.4202 59.2102 53.2402 59.1302 53.9202 58.9502L54.1402 59.3902H54.1502ZM54.0702 57.0902V58.7302H51.6102V57.0902H54.0702ZM53.5802 57.5302H52.1002V58.2902H53.5802V57.5302Z" fill="#3E3A39"/>
<path d="M56.2102 56.9399C56.1602 57.1099 56.1002 57.2799 56.0302 57.4199H56.7002V59.1699H55.3802V59.7399H56.8002V61.8799H56.3302V61.5599H55.3802V61.9099H54.9102V57.4199H55.5202C55.6002 57.2499 55.6602 57.0699 55.7002 56.8799L56.2102 56.9399ZM56.2302 58.7199V57.8899H55.3802V58.7199H56.2302ZM56.3302 61.0999V60.1999H55.3802V61.0999H56.3302ZM59.5202 57.1199V57.6199H58.4602V58.2099H59.3802V61.0799C59.3802 61.2299 59.3402 61.3399 59.2802 61.4399C59.2102 61.5299 59.1102 61.5699 58.9802 61.5699H58.6902L58.5702 61.0499L58.8402 61.0699C58.9002 61.0699 58.9402 61.0199 58.9402 60.9099V58.6799H58.4702V62.0099H57.9902V58.6799H57.5202V61.5899H57.0702V58.1999H57.9902V57.6099H56.8902V57.1099H59.5302L59.5202 57.1199Z" fill="#3E3A39"/>
<path d="M3.11017 65.6099C2.78017 66.2899 2.4302 66.8499 2.0802 67.2799C2.1802 67.2899 2.27021 67.2899 2.34021 67.2899C3.12021 67.2899 3.90017 67.2199 4.67017 67.0899C4.48017 66.8099 4.2602 66.5299 4.0202 66.2399L4.3902 65.8699C4.8802 66.4599 5.29019 67.0399 5.63019 67.6199L5.24017 68.0299C5.16017 67.8699 5.06015 67.7099 4.97015 67.5499C3.94015 67.7199 2.68019 67.8099 1.19019 67.8099L1.09021 67.1999C1.27021 67.2199 1.43019 67.2299 1.57019 67.2399C1.90019 66.7999 2.25017 66.1899 2.61017 65.3999L3.09021 65.5999L3.11017 65.6099ZM5.23016 70.5899H4.72015V70.2399H1.96021V70.5699H1.4502V68.2099H5.23016V70.5899ZM4.72015 69.7599V68.6899H1.96021V69.7599H4.72015Z" fill="#3E3A39"/>
<path d="M7.0802 67.3799L6.79016 67.84C6.56016 67.61 6.3202 67.41 6.0802 67.27L6.32019 66.8699C6.59019 67.0199 6.84019 67.1799 7.07019 67.3699L7.0802 67.3799ZM7.12018 68.3199C6.96018 69.1999 6.76021 69.94 6.53021 70.53L6.16016 70.15C6.35016 69.62 6.52019 68.94 6.69019 68.09L7.12018 68.3099V68.3199ZM7.18018 66.02L6.8902 66.4799C6.6802 66.2499 6.47019 66.0699 6.26019 65.9299L6.50018 65.5399C6.74018 65.6699 6.96017 65.84 7.17017 66.02H7.18018ZM7.5202 67.53C7.4602 67.76 7.40019 67.9699 7.32019 68.1599L7.05017 68.0699C7.13017 67.9099 7.20018 67.71 7.25018 67.46L7.5202 67.53ZM7.93018 65.5399C7.83018 65.8299 7.72018 66.0699 7.62018 66.2499C7.70018 66.2499 7.78021 66.2499 7.84021 66.2499C7.91021 66.1199 7.98017 65.98 8.05017 65.83L8.29016 65.95V65.78H8.81018C8.76018 65.67 8.7002 65.57 8.6402 65.47L9.00018 65.4299C9.06018 65.5399 9.11017 65.65 9.17017 65.78H9.63019V66.1099H8.29016V65.9899C8.10016 66.3899 7.93019 66.7299 7.76019 66.9999C7.85019 66.9899 7.94021 66.98 8.03021 66.95C8.01021 66.88 8.00017 66.82 7.99017 66.77L8.23016 66.6799C8.28016 66.8699 8.33018 67.09 8.37018 67.34L8.10016 67.4099C8.09016 67.3499 8.08019 67.2999 8.07019 67.2499C7.85019 67.3099 7.54018 67.3699 7.12018 67.4099L7.0802 67.0599C7.1602 67.0599 7.24018 67.0599 7.31018 67.0499C7.42018 66.9099 7.53019 66.75 7.63019 66.58C7.48019 66.6 7.31017 66.6099 7.11017 66.6199L7.07019 66.27H7.24017C7.34017 66.06 7.4602 65.7799 7.5802 65.4199L7.90021 65.5499L7.93018 65.5399ZM10.6102 68.3199V69.2399H7.85016L7.7702 69.4799H10.7702C10.7502 69.9299 10.7002 70.22 10.6002 70.34C10.5002 70.48 10.2602 70.5499 9.90021 70.5499H8.96021L8.90021 70.1299C9.34021 70.1399 9.6802 70.15 9.8902 70.15C10.0102 70.15 10.1102 70.13 10.1802 70.09C10.2302 70.05 10.2702 69.9599 10.2802 69.8199H7.2702L7.47015 68.8799H10.1802V68.6599H7.2702V68.3099H10.6102V68.3199ZM7.93018 68.1199L7.65021 68.14C7.64021 67.88 7.62021 67.68 7.59021 67.53L7.8302 67.5099C7.8802 67.6599 7.91018 67.8599 7.93018 68.1199ZM8.36017 68.03L8.12018 68.0999C8.08018 67.8899 8.04016 67.6899 7.98016 67.4899L8.2002 67.4199C8.2602 67.5999 8.31017 67.81 8.36017 68.03ZM9.50018 66.28V66.5399H8.42017V66.28H9.50018ZM9.50018 66.7399V66.9999H8.42017V66.7399H9.50018ZM9.50018 67.2V68.0999H8.44019V67.2H9.50018ZM9.19019 67.5099H8.74017V67.7899H9.19019V67.5099ZM9.97015 67.5699C9.93015 67.8099 9.8802 68.0299 9.8302 68.2299L9.54016 68.1199C9.59016 67.9599 9.64018 67.7599 9.68018 67.5099L9.97015 67.5699ZM10.4002 65.5599C10.3002 65.8499 10.1902 66.09 10.0902 66.27C10.1702 66.27 10.2602 66.27 10.3402 66.27C10.4002 66.16 10.4602 66.0499 10.5202 65.9299L10.8502 66.0599C10.6202 66.4499 10.4002 66.77 10.1702 67.02C10.3002 67.01 10.4202 66.9999 10.5302 66.9799C10.5102 66.8899 10.4802 66.81 10.4602 66.72L10.7202 66.6299C10.7902 66.8399 10.8502 67.0799 10.9102 67.3499L10.6202 67.4199C10.6102 67.3599 10.5902 67.3099 10.5802 67.2499C10.3602 67.2899 10.0302 67.3399 9.60016 67.3699L9.56018 67.0499C9.64018 67.0499 9.72016 67.0499 9.79016 67.0499C9.90016 66.9199 10.0202 66.7499 10.1402 66.5699C9.9902 66.5899 9.81016 66.6099 9.60016 66.6199L9.56018 66.2899H9.73016C9.83016 66.0799 9.95019 65.7999 10.0702 65.4399L10.4002 65.5699V65.5599ZM10.4402 68.1199L10.1302 68.14C10.1302 67.88 10.1102 67.68 10.0902 67.53L10.3602 67.5099C10.4002 67.6599 10.4302 67.8599 10.4402 68.1199ZM10.9202 68.0499L10.6202 68.14C10.5902 67.93 10.5502 67.73 10.5002 67.53L10.7902 67.4399C10.8402 67.6199 10.8902 67.8299 10.9302 68.0499H10.9202Z" fill="#3E3A39"/>
<path d="M11.9302 70.5799V65.8599H12.5902V70.5799H11.9302Z" fill="#3E3A39"/>
<path d="M16.6002 70.26C16.3202 70.53 15.9602 70.67 15.5302 70.67C14.8802 70.67 14.3902 70.42 14.0702 69.92C13.7902 69.49 13.6502 68.93 13.6502 68.23C13.6502 67.53 13.7902 66.99 14.0902 66.54C14.4302 66.03 14.9102 65.77 15.5402 65.77C15.9702 65.77 16.3302 65.89 16.5902 66.14C16.8802 66.41 17.0302 66.78 17.0402 67.26H16.3802C16.3102 66.71 16.0302 66.44 15.5402 66.44C15.1202 66.44 14.8102 66.64 14.6002 67.02C14.4302 67.34 14.3402 67.74 14.3402 68.23C14.3402 68.72 14.4302 69.13 14.6002 69.43C14.8102 69.81 15.1202 70 15.5402 70C15.7702 70 15.9602 69.93 16.1202 69.77C16.2702 69.63 16.3802 69.42 16.4302 69.15H17.1002C17.0502 69.63 16.8802 70 16.6002 70.26Z" fill="#3E3A39"/>
<path d="M20.2102 65.83H22.0702V66.27H18.2702V67.78C18.2702 68.2 18.2402 68.6399 18.1902 69.0999C18.1302 69.5799 18.0202 70.0499 17.8702 70.5099L17.4702 70.1199C17.6002 69.7499 17.6902 69.36 17.7502 68.95C17.7902 68.53 17.8102 68.14 17.8102 67.78V65.83H19.7602C19.7102 65.71 19.6602 65.5999 19.6102 65.4999L20.0602 65.4399C20.1102 65.5599 20.1602 65.69 20.2102 65.83ZM19.6402 66.3799V67.6899H20.4602V68.1199C20.5602 67.8999 20.6402 67.6599 20.7102 67.4099C20.7702 67.1899 20.8402 66.84 20.9002 66.4L21.3002 66.4399C21.2702 66.6599 21.2302 66.8699 21.1902 67.0599H22.1102V67.4999H21.8902C21.8702 68.2299 21.7702 68.8299 21.5902 69.2899C21.5802 69.3199 21.5702 69.3499 21.5602 69.3699C21.7202 69.5999 21.9402 69.83 22.2302 70.08L21.9902 70.5399C21.7102 70.3099 21.5002 70.08 21.3302 69.83C21.1802 70.07 20.9802 70.3 20.7602 70.52L20.5002 70.08C20.7402 69.88 20.9302 69.64 21.0802 69.39C20.9602 69.12 20.8602 68.7799 20.7702 68.3699C20.7302 68.4599 20.6802 68.5399 20.6402 68.6199L20.4602 68.3599V70.09C20.4602 70.25 20.4202 70.37 20.3502 70.46C20.2902 70.53 20.2102 70.5699 20.1002 70.5699H19.6602L19.5802 70.1299L19.9402 70.15C20.0202 70.14 20.0602 70.08 20.0602 69.95V68.1099H18.7902V70.5399H18.3902V67.7H19.2302V66.39H19.6502L19.6402 66.3799ZM19.1002 67.3199L18.7202 67.5999C18.6302 67.3599 18.5202 67.0999 18.3802 66.7899L18.7002 66.5699C18.8702 66.8599 19.0002 67.1099 19.1002 67.3199ZM19.8502 68.39V69.8599H18.9802V68.39H19.8502ZM19.5502 68.7599H19.2702V69.4799H19.5502V68.7599ZM20.5402 66.7299C20.4202 67.0799 20.2902 67.3799 20.1402 67.6299L19.7602 67.33C19.9102 67.11 20.0502 66.8499 20.1802 66.5599L20.5402 66.7299ZM21.2702 68.8499C21.3702 68.4999 21.4302 68.0499 21.4502 67.4899H21.0602C21.0402 67.5499 21.0302 67.6 21.0102 67.65C21.0102 67.66 21.0002 67.6699 21.0002 67.6799C21.0702 68.1699 21.1602 68.56 21.2702 68.84V68.8499Z" fill="#3E3A39"/>
<path d="M27.2102 65.9199C26.1002 66.0199 24.8602 66.08 23.4802 66.09V66.39H27.0302V67.7299H25.3602L25.5202 68.14H27.2802V68.58H25.0202C25.0102 68.74 24.9902 68.88 24.9602 69.02H26.9802C26.9402 69.67 26.8902 70.06 26.8302 70.21C26.8002 70.32 26.7002 70.41 26.5402 70.47C26.4402 70.52 26.0802 70.5499 25.4402 70.5499L25.3202 70.02C25.4802 70.03 25.6102 70.0399 25.6802 70.0399C25.9802 70.0399 26.1702 70.0199 26.2402 69.9999C26.3602 69.9399 26.4302 69.7499 26.4502 69.4199H24.8202C24.7702 69.5399 24.7102 69.6399 24.6502 69.7299C24.4502 70.0299 24.1002 70.31 23.6102 70.58L23.3302 70.08C23.7302 69.91 24.0302 69.7 24.2202 69.47C24.3902 69.26 24.4902 68.9499 24.5302 68.5699H23.4502C23.4302 68.8599 23.3902 69.15 23.3302 69.45C23.2502 69.83 23.1202 70.1799 22.9302 70.5099L22.5702 70.0999C22.7102 69.8299 22.8102 69.56 22.8702 69.28C22.9302 68.98 22.9702 68.62 22.9902 68.22V65.64C24.5802 65.64 25.8902 65.5699 26.9502 65.4199L27.1902 65.9L27.2102 65.9199ZM26.5902 67.2999V66.84H23.4802V67.2999H26.5902ZM25.0102 68.15L24.8402 67.7399H23.4802V68.15H25.0102Z" fill="#3E3A39"/>
<path d="M28.6502 65.52C28.6102 65.62 28.5702 65.71 28.5302 65.78H28.9502V65.4299H29.4102V65.78H30.4702V66.1299H29.4102V66.39H30.5802V66.77H29.4102V67.0599H30.4802V67.6699C30.4802 67.7999 30.4402 67.9 30.3602 67.97C30.2902 68.03 30.1902 68.0599 30.0602 68.0599H29.7002L29.6202 67.6899L29.9002 67.71C29.9902 67.71 30.0402 67.6499 30.0402 67.5499V67.4199H29.4002V68.2899H28.9402V67.4199H28.3802V68.1199H27.9402V67.0499H28.9402V66.7599H27.8002V66.3799H28.0002L27.7002 66.1599C27.9502 65.9299 28.1402 65.6799 28.2402 65.4199L28.6402 65.4999L28.6502 65.52ZM30.3802 68.4799H32.3402V68.9199H30.6302C30.7802 69.1299 30.9302 69.2999 31.0602 69.4299C31.1402 69.3799 31.2202 69.33 31.3002 69.28C31.4002 69.21 31.5002 69.1099 31.6002 68.9799L31.9402 69.2C31.8202 69.37 31.7002 69.49 31.5902 69.58C31.5302 69.63 31.4802 69.68 31.4202 69.71C31.6702 69.87 32.0002 70.01 32.3902 70.14L32.1602 70.58C31.6202 70.37 31.2302 70.1499 30.9702 69.9399C30.6902 69.6999 30.4202 69.3599 30.1702 68.9199H29.9302C29.7802 69.0799 29.6302 69.2099 29.4702 69.3099V70.0099C29.8502 69.9699 30.2002 69.91 30.5002 69.84V70.2499C30.1202 70.3699 29.4702 70.48 28.5302 70.58L28.4702 70.08C28.6502 70.08 28.8302 70.0599 29.0102 70.0499V69.5699C28.7102 69.7199 28.3902 69.84 28.0402 69.95L27.8002 69.5099C28.2902 69.3899 28.6802 69.2499 28.9602 69.1199C29.0902 69.0599 29.2002 68.9899 29.3102 68.9199H27.7802V68.4799H29.9302C29.8702 68.3799 29.8202 68.2799 29.7602 68.1899L30.2202 68.1199C30.2802 68.2299 30.3402 68.34 30.3902 68.47L30.3802 68.4799ZM28.9502 66.14H28.3202C28.2502 66.24 28.1802 66.32 28.1102 66.4H28.9502V66.14ZM31.3002 65.72V67.3599H30.8402V65.72H31.3002ZM32.1402 65.4399V67.7599C32.1402 67.9399 32.1002 68.0599 32.0202 68.1199C31.9502 68.1999 31.8202 68.2399 31.6202 68.2399H31.0802L31.0002 67.7599C31.2002 67.7899 31.3702 67.7999 31.5002 67.7999C31.6202 67.7999 31.6802 67.7699 31.6802 67.6899V65.4399H32.1402Z" fill="#3E3A39"/>
<path d="M34.1202 66.7899V67.1599C33.9602 67.4699 33.7502 67.7899 33.4902 68.1199H34.1402V68.45C34.0702 68.76 34.0002 69.02 33.9302 69.21C34.1402 69.5 34.4002 69.6999 34.6902 69.7899C34.9802 69.8899 35.5102 69.9399 36.2702 69.9399C36.7502 69.9399 37.1502 69.93 37.4802 69.9L37.3402 70.45C35.7602 70.45 34.8202 70.39 34.5202 70.28C34.2102 70.17 33.9502 69.97 33.7302 69.65C33.5802 69.94 33.3702 70.2399 33.1002 70.5599L32.7602 70.1599C33.0402 69.8699 33.2302 69.62 33.3502 69.39C33.4402 69.26 33.5402 68.99 33.6702 68.58H32.9302V68.1699C33.1302 67.9299 33.3402 67.6299 33.5702 67.2499H32.8102V66.7899H34.1202ZM33.9802 66.2L33.6602 66.5499C33.5202 66.3299 33.3202 66.09 33.0602 65.83L33.3602 65.52C33.6002 65.75 33.8102 65.97 33.9802 66.2ZM35.3402 65.59C35.2902 65.76 35.2302 65.9099 35.1702 66.0499H35.6102V65.4399H36.0702V66.0499H37.1902V66.5099H36.0702V67.0599H37.4102V67.52H36.0702V67.8699H35.6102V67.52H34.2602V67.0599H35.6102V66.5099H34.9402C34.8402 66.6899 34.7302 66.8599 34.6102 67.0099L34.1902 66.72C34.5102 66.34 34.7402 65.9299 34.8702 65.4899L35.3302 65.58L35.3402 65.59ZM37.1302 67.9999V69.4799H34.5802V67.9999H37.1302ZM36.6702 68.4399H35.0402V69.0499H36.6702V68.4399Z" fill="#3E3A39"/>
<path d="M39.3802 65.6099C39.2402 66.0599 39.1002 66.4499 38.9602 66.7599V70.5299H38.5002V67.5799C38.3602 67.7999 38.2002 68.0199 38.0402 68.2299L37.8802 67.6099C38.1002 67.3099 38.2902 66.9899 38.4602 66.6699C38.6302 66.3799 38.7902 65.9599 38.9502 65.3999L39.3702 65.5999L39.3802 65.6099ZM40.6702 65.5199C40.5902 65.7699 40.5102 66.0099 40.4302 66.2199H42.5302V66.7199H40.7602V67.4899H42.4102V67.9899H40.7602V68.8399H42.4102V69.3399H40.7602V70.5199H40.2802V66.7099H40.2302C40.0202 67.1999 39.7902 67.6099 39.5702 67.9399L39.2102 67.4799C39.6402 66.8599 39.9602 66.1599 40.1902 65.3999L40.6802 65.5099L40.6702 65.5199Z" fill="#3E3A39"/>
<path d="M45.0802 65.4399V66.3099H45.5402V65.4399H45.9902V66.3099H46.3502C46.4602 66.1099 46.5702 65.8599 46.6902 65.5399L47.1702 65.7399C47.0702 65.9599 46.9802 66.1499 46.8802 66.3099H47.6302V66.77H46.2202L46.5802 66.9C46.5102 67.03 46.4302 67.1499 46.3502 67.2499H47.4602V67.6899H45.5602V67.9999H47.3502V68.4099H45.5602V68.72H47.6302V69.1599H45.9802C46.2002 69.3799 46.4102 69.5399 46.6002 69.6299C46.8402 69.7599 47.1802 69.8799 47.6102 69.9899L47.3502 70.45C46.8402 70.28 46.4602 70.1099 46.2202 69.9399C45.9902 69.7799 45.7702 69.5499 45.5602 69.2599V70.5399H45.0902V69.2499C44.9502 69.4399 44.8002 69.5999 44.6402 69.7299C44.3402 69.9799 43.9102 70.21 43.3402 70.45L43.1002 70.0099C43.6802 69.8099 44.0902 69.62 44.3302 69.46C44.4602 69.38 44.5702 69.2799 44.6802 69.1599H43.0502V68.72H45.0802V68.4099H43.3302V67.9999H45.0802V67.6899H43.2102V67.2499H44.3502C44.2902 67.1399 44.2302 67.02 44.1602 66.9L44.4902 66.77H43.0502V66.3099H43.7802C43.7202 66.1299 43.6402 65.93 43.5502 65.72L44.0102 65.5499C44.1002 65.7599 44.1902 66.0199 44.2702 66.3199H44.6302V65.45H45.0902L45.0802 65.4399ZM45.8102 67.2499C45.9102 67.0999 45.9902 66.94 46.0702 66.77H44.6202C44.6902 66.91 44.7602 67.0699 44.8202 67.2499H45.8002H45.8102Z" fill="#3E3A39"/>
<path d="M49.4602 66.0702H50.3002V66.5302H48.1102V66.0702H49.0002C48.9102 65.8702 48.8102 65.6802 48.6902 65.5002L49.1702 65.4402C49.2702 65.6302 49.3702 65.8402 49.4702 66.0702H49.4602ZM50.1202 66.9202V67.3602H48.2902V66.9202H50.1202ZM50.1202 67.7102V68.1502H48.2902V67.7102H50.1202ZM48.7602 70.5602H48.3102V68.5402H50.0802V70.4702H49.6202V70.1602H48.7602V70.5602ZM49.6202 69.0002H48.7602V69.7002H49.6202V69.0002ZM51.3502 67.0302V65.4302H51.8502V67.0302H52.8202V67.5302H51.8502V70.5702H51.3502V67.5302H50.3802V67.0302H51.3502Z" fill="#3E3A39"/>
<path d="M55.2302 65.72V65.4399H55.6902V65.72H57.3802V66.27H57.8002V66.6199H57.3802V67.1899H55.6902V67.4099H57.5602V67.7399H55.6902V67.9399H57.8402V68.2899H53.2602V67.9399H55.2302V67.7399H53.5002V67.4099H55.2302V67.1899H53.6002V66.8599H55.2302V66.6199H53.2602V66.27H55.2302V66.0499H53.6002V65.72H55.2302ZM57.7802 70.0999V70.47H53.2802V70.0999H57.7802ZM57.3602 68.4799V69.9H53.6802V68.4799H57.3602ZM55.2902 69.02V68.7999H54.1102V69.02H55.2902ZM55.2902 69.33H54.1102V69.5699H55.2902V69.33ZM55.6902 66.27H56.9402V66.0499H55.6902V66.27ZM55.6902 66.8599H56.9402V66.6199H55.6902V66.8599ZM55.7302 69.03H56.9202V68.8099H55.7302V69.03ZM56.9202 69.34H55.7302V69.58H56.9202V69.34Z" fill="#3E3A39"/>
<path d="M59.2102 65.94V65.53H59.6502V65.94H60.4702V66.38H59.6502V66.92H60.5902V67.38H60.2302L60.0502 68.12H60.4502V68.56H59.6502V69.13H60.5702V69.57H59.6502V70.56H59.2102V69.57H58.3302V69.13H59.2102V68.56H58.4402V68.12H58.8302L58.6702 67.38H58.3402V66.92H59.2202V66.38H58.4702V65.94H59.2202H59.2102ZM59.6202 68.13L59.8002 67.39H59.0802L59.2402 68.13H59.6202ZM61.1402 66.38V65.5H61.5802V66.38H62.5902C62.5102 66.81 62.4702 67.42 62.4702 68.19C62.4702 68.96 62.4902 69.48 62.5202 69.76C62.5402 69.91 62.5602 69.98 62.5902 69.98C62.6202 69.98 62.6502 69.73 62.6902 69.21L63.0302 69.45C62.9602 69.95 62.8902 70.27 62.8102 70.42C62.7502 70.5 62.6802 70.55 62.6002 70.55C62.4902 70.55 62.3902 70.49 62.3002 70.37C62.2202 70.27 62.1602 70.08 62.1202 69.79C62.0702 69.35 62.0402 68.82 62.0402 68.19C62.0402 67.7 62.0702 67.25 62.1402 66.83H61.5802C61.5702 67.41 61.5302 67.92 61.4602 68.35C61.6502 68.65 61.8302 68.94 62.0002 69.23L61.6802 69.58C61.5802 69.37 61.4602 69.16 61.3302 68.94C61.1902 69.47 60.9402 70 60.5802 70.54L60.2002 70.19C60.5502 69.73 60.8002 69.22 60.9402 68.68C60.9602 68.6 60.9802 68.52 61.0002 68.43C60.8502 68.21 60.6902 67.99 60.5202 67.76L60.8202 67.45C60.9102 67.57 61.0002 67.69 61.0902 67.81C61.1202 67.52 61.1302 67.19 61.1402 66.82H60.6002V66.36H61.1402V66.38Z" fill="#3E3A39"/>
<path d="M64.9102 67.0599C64.7902 67.2799 64.6702 67.4899 64.5302 67.6799V70.58H64.0702V68.28C63.9402 68.44 63.7902 68.5899 63.6502 68.7299L63.3302 68.27C63.7902 67.86 64.2002 67.34 64.5602 66.72L64.9002 67.0499L64.9102 67.0599ZM64.8502 65.72C64.5402 66.17 64.1502 66.58 63.6902 66.95L63.3902 66.5099C63.8102 66.2199 64.1902 65.8499 64.5302 65.4199L64.8502 65.72ZM68.0602 67.1899V67.6699H67.3202V70.0099C67.3202 70.1999 67.2702 70.3299 67.1902 70.4099C67.1102 70.4899 66.9702 70.53 66.7602 70.53H65.9002L65.8002 69.9999C66.1302 70.0299 66.4002 70.0399 66.6202 70.0399C66.7502 70.0399 66.8202 69.9999 66.8202 69.9099V67.6599H65.0102V67.1799H68.0602V67.1899ZM67.8002 65.72V66.22H65.2702V65.72H67.8002Z" fill="#3E3A39"/>
<path d="M71.1602 66.1199L70.8302 66.3599H72.9302V66.8599H71.1202V67.9399H72.6902V68.4199H71.1202V69.77H73.1102V70.2999H68.5502V69.77H70.5802V68.4199H68.9602V67.9399H70.5802V66.8599H68.7002V66.3599H70.6102C70.4902 66.1599 70.3302 65.94 70.1602 65.7L70.5602 65.4199C70.8102 65.6899 71.0102 65.9199 71.1602 66.1199Z" fill="#3E3A39"/>
<path d="M74.2502 66.4402V65.4402H74.7302V66.4402H75.2902V66.9202H74.7302V68.0002C74.9002 67.9002 75.0802 67.7902 75.2502 67.6602V68.2102C75.0802 68.3302 74.9002 68.4402 74.7302 68.5302V69.9702C74.7302 70.1702 74.6902 70.3102 74.6102 70.3902C74.5302 70.4702 74.4002 70.5202 74.2002 70.5202H73.8002L73.7002 69.9702C73.8402 70.0002 73.9602 70.0102 74.0602 70.0102C74.1902 70.0102 74.2602 69.9702 74.2602 69.8802V68.7602C74.0702 68.8502 73.8802 68.9202 73.6802 68.9802L73.6202 68.4102C73.8202 68.3802 74.0402 68.3102 74.2602 68.2202V66.9002H73.6202V66.4202H74.2602L74.2502 66.4402ZM76.4402 66.0902V65.4302H76.9202V66.0902H77.9702V66.5702H76.9202V67.1602H78.2102V67.6402H77.6302V68.1902H78.2102V68.6702H77.6302V70.0502C77.6302 70.2302 77.5902 70.3602 77.5102 70.4302C77.4302 70.5102 77.3002 70.5502 77.0902 70.5502H76.5102L76.4102 70.0502C76.6202 70.0802 76.8102 70.0902 76.9502 70.0902C77.0802 70.0902 77.1502 70.0502 77.1502 69.9602V68.6702H75.2902V68.1902H77.1502V67.6402H75.2902V67.1602H76.4302V66.5702H75.4802V66.0902H76.4302H76.4402ZM76.6602 69.5902L76.2602 69.8902C76.1202 69.6402 75.9202 69.3502 75.6802 69.0202L76.0202 68.8002C76.2902 69.1102 76.5002 69.3702 76.6602 69.5902Z" fill="#3E3A39"/>
<path d="M81.2702 65.4199V66.7499C81.4402 67.5699 81.6902 68.2399 82.0302 68.7599C82.3002 69.1999 82.7402 69.6399 83.3602 70.0999L83.0202 70.5999C82.5102 70.2299 82.1202 69.88 81.8602 69.52C81.5202 69.09 81.2502 68.57 81.0402 67.95C80.8702 68.6 80.6402 69.1 80.3502 69.45C80.0402 69.84 79.5902 70.2199 78.9702 70.5999L78.6502 70.0999C79.4102 69.5999 79.9402 69.0399 80.2402 68.4399C80.5302 67.8699 80.6802 67.2999 80.7002 66.7499V65.4199H81.2602H81.2702Z" fill="#3E3A39"/>
<path d="M1.81018 75.07V74H2.2702V75.07H2.97015V75.53H2.2702V75.78C2.5602 76.06 2.86017 76.38 3.17017 76.73L2.88019 77.17C2.64019 76.82 2.4402 76.55 2.2702 76.34V79.15H1.81018V76.44C1.81018 76.44 1.79021 76.51 1.78021 76.54C1.60021 77.02 1.3902 77.44 1.1402 77.79L0.920166 77.2C1.26017 76.72 1.54019 76.16 1.76019 75.54H1.00018V75.08H1.81018V75.07ZM4.0802 74.37C3.9302 74.91 3.81019 75.31 3.69019 75.55C3.58019 75.82 3.4002 76.13 3.1402 76.5L2.73016 76.12C2.95016 75.83 3.14021 75.54 3.28021 75.25C3.40021 74.96 3.52016 74.61 3.60016 74.2L4.0802 74.37ZM4.5802 75.99C4.3102 76.87 4.01018 77.65 3.68018 78.31C4.20018 78.26 4.6602 78.19 5.0802 78.09C4.9602 77.78 4.82017 77.47 4.67017 77.17L5.13019 77.04C5.42019 77.59 5.68016 78.22 5.91016 78.92L5.41016 79.05C5.35016 78.86 5.29016 78.67 5.23016 78.5C4.71016 78.64 3.90018 78.77 2.81018 78.9L2.74017 78.37C2.86017 78.37 2.99017 78.37 3.11017 78.35C3.47017 77.6 3.78017 76.75 4.05017 75.81L4.5802 75.98V75.99ZM5.21021 74.26C5.34021 74.9 5.63019 75.5 6.07019 76.06L5.74017 76.52C5.52017 76.25 5.34021 75.98 5.21021 75.71C5.05021 75.42 4.9302 75.09 4.8302 74.72H4.2002V74.26H5.2002H5.21021Z" fill="#3E3A39"/>
<path d="M7.99017 74.9402V78.0602H9.3902V74.0303H9.98016V78.0602H11.4502V74.9402H12.0402V79.1403H11.4502V78.5903H8.00018V79.1403H7.43018V74.9402H8.00018H7.99017Z" fill="#3E3A39"/>
<path d="M14.0102 75.07V74.02H14.4902V75.07H14.9302V75.53H14.4902V75.83C14.6902 76.08 14.9002 76.35 15.1002 76.64L15.0102 76.77H15.4802C15.4802 76.65 15.4902 76.51 15.4902 76.37C15.3702 76.39 15.2402 76.4 15.1202 76.42L15.0402 76.03C15.1202 76.03 15.2102 76.03 15.2902 76.01C15.4102 75.84 15.5402 75.64 15.6602 75.41C15.4702 75.45 15.2702 75.49 15.0602 75.53L14.9802 75.16C15.0502 75.16 15.1202 75.15 15.1902 75.14C15.3702 74.82 15.5002 74.47 15.5902 74.09L15.9902 74.14C15.9002 74.48 15.7802 74.8 15.6202 75.09C15.7002 75.08 15.7802 75.06 15.8602 75.04C15.9302 74.9 15.9902 74.75 16.0602 74.6L16.4402 74.73C16.2002 75.25 15.9602 75.68 15.7302 76.01C15.8602 76 15.9902 75.99 16.1102 75.98C16.0802 75.87 16.0502 75.77 16.0202 75.66L16.3102 75.59C16.4302 75.89 16.5302 76.17 16.6002 76.42L16.2502 76.55C16.2302 76.47 16.2202 76.38 16.2002 76.3C16.1202 76.31 16.0402 76.32 15.9702 76.33C15.9702 76.5 15.9702 76.65 15.9602 76.78H16.6802C16.5902 76.2 16.5302 75.27 16.5102 74H16.9502C16.9802 75.31 17.0402 76.24 17.1102 76.78H17.6302C17.5902 76.67 17.5502 76.55 17.4902 76.44C17.3902 76.45 17.2902 76.46 17.1902 76.47L17.0802 76.08C17.1702 76.08 17.2502 76.08 17.3302 76.08C17.4502 75.9 17.5802 75.68 17.7102 75.42C17.5202 75.46 17.3202 75.5 17.1102 75.53L17.0202 75.16C17.0902 75.16 17.1502 75.15 17.2202 75.14C17.3802 74.82 17.4902 74.47 17.5702 74.09L17.9602 74.14C17.8802 74.49 17.7802 74.81 17.6402 75.1C17.7302 75.09 17.8102 75.08 17.8902 75.06C17.9502 74.94 18.0002 74.82 18.0502 74.69L18.4202 74.82C18.2002 75.32 17.9802 75.73 17.7602 76.05C17.8902 76.03 18.0102 76.01 18.1102 75.98C18.0802 75.88 18.0502 75.78 18.0302 75.69L18.3202 75.63C18.4402 75.92 18.5302 76.19 18.6002 76.44L18.2502 76.57C18.2302 76.49 18.2202 76.41 18.1902 76.32C18.1002 76.34 18.0102 76.36 17.9102 76.39C17.9702 76.51 18.0202 76.65 18.0602 76.79H18.5802V77.2H17.2002C17.2502 77.45 17.3102 77.65 17.3802 77.83C17.5002 77.68 17.6302 77.52 17.7502 77.33L18.1302 77.53C17.9602 77.81 17.7802 78.06 17.5902 78.26C17.7702 78.55 17.9202 78.7 18.0402 78.7C18.0702 78.7 18.0902 78.68 18.1002 78.64C18.1202 78.6 18.1402 78.35 18.1702 77.91L18.6102 78.15C18.5502 78.58 18.4802 78.85 18.4002 78.99C18.3202 79.1 18.2102 79.16 18.0602 79.16C17.8202 79.16 17.5702 78.96 17.3002 78.56V78.55C17.0402 78.76 16.7002 78.94 16.2702 79.1L16.0302 78.72C16.4302 78.57 16.7702 78.4 17.0302 78.19C17.0502 78.18 17.0602 78.16 17.0802 78.15C16.9602 77.89 16.8602 77.57 16.7802 77.21H15.9502C15.9402 77.28 15.9302 77.34 15.9302 77.4C16.2002 77.57 16.4502 77.76 16.6702 77.98L16.4102 78.37C16.2302 78.16 16.0402 77.99 15.8602 77.84C15.7902 78.13 15.7002 78.37 15.5902 78.53C15.4702 78.73 15.3002 78.93 15.0802 79.15L14.7502 78.73C14.9802 78.52 15.1502 78.31 15.2702 78.11C15.3602 77.95 15.4402 77.69 15.5102 77.32C15.5102 77.28 15.5202 77.24 15.5302 77.2H14.9802V76.94L14.8902 77.07C14.7602 76.82 14.6502 76.62 14.5702 76.45V79.15H14.0902V76.74C13.9602 77.11 13.8002 77.44 13.6302 77.73L13.4302 77.18C13.6902 76.74 13.9102 76.24 14.0902 75.67V75.54H13.5202V75.08H14.0902L14.0102 75.07Z" fill="#3E3A39"/>
<path d="M20.2302 75.4001V74.04H20.7302V75.4001H21.2702V75.8801H20.7302V77.3201C20.9102 77.2401 21.0902 77.14 21.2702 77.04V77.3C21.4302 77.2 21.5602 77.1001 21.6802 76.9901C21.7902 76.9001 21.8902 76.7801 21.9802 76.6301H21.2302V76.2201H24.7702V76.6301H22.5202C22.4602 76.7401 22.4102 76.83 22.3502 76.92H24.5702C24.5602 78.08 24.4602 78.75 24.2702 78.91C24.1702 79.06 23.8202 79.1301 23.2202 79.1301L23.1102 78.6C23.2702 78.63 23.4002 78.6401 23.5002 78.6401C23.6702 78.6401 23.8002 78.6001 23.8902 78.5101C23.9702 78.4301 24.0202 78.0401 24.0502 77.3401H23.8902C23.7202 77.7201 23.5302 78.0101 23.3402 78.2201C23.1002 78.5201 22.6902 78.8401 22.1202 79.1801L21.7902 78.7701C22.2802 78.5201 22.6502 78.28 22.8902 78.04C23.0902 77.86 23.2502 77.63 23.3802 77.35H23.0002C22.8402 77.61 22.6402 77.8301 22.4002 78.0201C22.1102 78.2701 21.7402 78.4901 21.2902 78.6901L20.9902 78.29C21.3902 78.13 21.7302 77.9501 22.0002 77.7601C22.1602 77.6601 22.3002 77.53 22.4402 77.35H21.9802C21.7802 77.54 21.5402 77.7201 21.2602 77.8801L21.0802 77.6501C20.6802 77.8701 20.2202 78.09 19.7102 78.29L19.5802 77.7201C19.7902 77.6701 20.0002 77.6101 20.2102 77.5301V75.8801H19.6402V75.4001H20.2102H20.2302ZM24.4502 74.1501V75.9401H21.5202V74.1501H24.4502ZM23.9502 74.8701V74.5601H22.0202V74.8701H23.9502ZM23.9502 75.2401H22.0202V75.5301H23.9502V75.2401Z" fill="#3E3A39"/>
<path d="M27.1002 75.99L26.7802 76.49C26.4902 76.2 26.1902 75.98 25.8802 75.81L26.1702 75.4C26.5102 75.57 26.8302 75.76 27.1102 75.99H27.1002ZM27.2302 77.08C26.9702 77.88 26.6802 78.57 26.3502 79.16L25.9402 78.7C26.2102 78.25 26.4902 77.6 26.8002 76.76L27.2402 77.08H27.2302ZM27.2502 74.68L26.9202 75.2C26.6302 74.94 26.3402 74.72 26.0502 74.57L26.3402 74.13C26.6702 74.29 26.9802 74.47 27.2602 74.68H27.2502ZM28.4302 75.12L27.9302 75.36C27.7502 75 27.5502 74.68 27.3402 74.4L27.8202 74.18C28.0302 74.46 28.2302 74.77 28.4402 75.12H28.4302ZM29.3502 74.01V75.43H30.7902V78.56C30.7902 78.73 30.7402 78.87 30.6402 78.96C30.5602 79.04 30.4402 79.08 30.2902 79.08H29.5002L29.3902 78.6L30.0902 78.62C30.2102 78.61 30.2702 78.55 30.2702 78.42V77.89H27.9902V79.16H27.4702V75.42H28.8302V74H29.3602L29.3502 74.01ZM30.2702 76.46V75.91H27.9902V76.46H30.2702ZM30.2702 77.45V76.92H27.9902V77.45H30.2702ZM30.8102 74.39C30.6502 74.73 30.4502 75.06 30.2002 75.38L29.7202 75.14C29.9802 74.81 30.1802 74.49 30.3302 74.18L30.8102 74.4V74.39Z" fill="#3E3A39"/>
<path d="M34.0702 74.2203V74.6102C33.9502 75.0402 33.8102 75.4903 33.6602 75.9703C33.8002 76.2303 33.9002 76.4602 33.9602 76.6602C34.0302 76.8702 34.0702 77.0503 34.0702 77.2003C34.0602 77.4903 34.0002 77.7003 33.8802 77.8303C33.7502 77.9803 33.4702 78.0502 33.0402 78.0502L32.8902 77.5203C32.9802 77.5403 33.0702 77.5402 33.1502 77.5402C33.2802 77.5402 33.3702 77.5203 33.4402 77.4603C33.5102 77.4203 33.5502 77.3302 33.5502 77.1902C33.5502 77.0202 33.5202 76.8703 33.4702 76.7103C33.4102 76.5203 33.3002 76.3003 33.1302 76.0303C33.3202 75.5003 33.4602 75.0603 33.5402 74.7003H32.8002V79.1403H32.2802V74.2203H34.0702ZM35.8702 74.8102H37.2402V75.3102H35.3602V76.0502H37.0002C36.9702 77.5302 36.9002 78.4003 36.8102 78.6503C36.7102 78.9003 36.4902 79.0203 36.1502 79.0203C35.8102 79.0203 35.5702 79.0102 35.4302 79.0002L35.3002 78.4503C35.5802 78.4903 35.8602 78.5203 36.1502 78.5203C36.2802 78.5203 36.3602 78.4103 36.4002 78.2003C36.4302 78.0503 36.4502 77.5102 36.4602 76.5602H35.3502C35.3102 77.0302 35.2202 77.4303 35.0602 77.7603C34.8602 78.2103 34.4902 78.6602 33.9402 79.1202L33.5002 78.7203C34.0002 78.3703 34.3602 77.9903 34.5602 77.5803C34.7402 77.2503 34.8302 76.7503 34.8302 76.0703V75.3002H34.0902V74.8002H35.3402C35.2202 74.5402 35.0902 74.3003 34.9402 74.0803L35.4902 74.0103C35.6202 74.2403 35.7502 74.5102 35.8702 74.8002V74.8102Z" fill="#3E3A39"/>
<path d="M41.1502 74V75.07C41.1502 75.41 41.2302 75.84 41.4102 76.35C41.6102 76.88 41.8602 77.31 42.1502 77.65C42.5002 78.06 42.9202 78.37 43.4002 78.57L43.1402 79.16C42.5502 78.86 42.1202 78.53 41.8202 78.16C41.4302 77.71 41.1102 77.1 40.8602 76.35C40.6902 77.15 40.4102 77.76 40.0002 78.2C39.6802 78.6 39.1902 78.92 38.5602 79.17L38.3202 78.63C38.8902 78.4 39.3302 78.09 39.6602 77.68C39.9702 77.32 40.2002 76.87 40.3502 76.31C40.5002 75.84 40.5702 75.43 40.5702 75.08V74.01H41.1402L41.1502 74ZM39.7502 75.05C39.5602 75.79 39.3402 76.43 39.0902 76.95L38.5602 76.58C38.8202 76.08 39.0502 75.49 39.2602 74.83L39.7402 75.05H39.7502ZM43.1702 75.05C42.9702 75.78 42.7502 76.41 42.4902 76.93L41.9602 76.56C42.2202 76.07 42.4602 75.49 42.6802 74.83L43.1602 75.05H43.1702Z" fill="#3E3A39"/>
<path d="M45.2602 74.26V74.02H45.6802V74.26H45.9402V74.59H45.6802V74.79H46.3402V74.59H46.0802V74.26H46.3402V74.02H46.7502V74.26H47.4302V74.59H46.7502V74.79H47.1302V75.9C47.1302 76 47.1002 76.07 47.0302 76.14C46.9602 76.2 46.8702 76.23 46.7602 76.23H46.3902L46.3602 76.1H45.0402V75.47C44.9502 75.53 44.8602 75.59 44.7502 75.66L44.5302 75.29C44.7402 75.19 44.9002 75.1 45.0202 75.01C45.1102 74.94 45.1902 74.86 45.2702 74.76V74.59H44.7302V74.26H45.2702H45.2602ZM47.5702 76.4H49.6402V76.78H44.6102V76.4H47.0702C47.0302 76.35 46.9702 76.3 46.9202 76.25L47.3402 76.1C47.4202 76.19 47.5002 76.29 47.5602 76.4H47.5702ZM49.2402 76.97V77.29H45.0202V76.97H49.2402ZM49.2202 77.5V77.82H45.0202V77.5H49.2202ZM49.2402 79.14H48.7402V78.96H45.5202V79.14H45.0202V78.04H49.2402V79.14ZM46.4002 75.31V75.89H46.6202C46.6802 75.9 46.7002 75.87 46.7002 75.79V75.09H45.4302C45.4302 75.09 45.4002 75.12 45.3902 75.13C45.3402 75.19 45.2802 75.25 45.2202 75.3H46.4002V75.31ZM46.0002 75.55H45.4102V75.86H46.0002V75.55ZM48.7402 78.64V78.35H45.5202V78.64H48.7402ZM48.4302 74.06C48.3802 74.22 48.3202 74.36 48.2602 74.5H49.6102V74.85H49.3202C49.1502 75.2 48.9702 75.46 48.8002 75.63C49.0102 75.75 49.2902 75.86 49.6302 75.96L49.4302 76.35C49.0302 76.2 48.7002 76.05 48.4702 75.91C48.2502 76.07 47.9702 76.2 47.6602 76.31L47.4202 75.93C47.6802 75.84 47.9102 75.75 48.1002 75.63C47.9702 75.52 47.8402 75.39 47.7102 75.23C47.6302 75.31 47.5502 75.38 47.4602 75.44L47.2002 75.09C47.4002 74.93 47.5602 74.77 47.7002 74.59C47.8002 74.46 47.9002 74.26 47.9902 74L48.4302 74.04V74.06ZM48.4302 75.41C48.5902 75.27 48.7302 75.09 48.8702 74.85H48.0502C48.0502 74.85 47.9902 74.93 47.9702 74.96C48.1402 75.16 48.2902 75.31 48.4402 75.41H48.4302Z" fill="#3E3A39"/>
<path d="M52.6102 77.7199C52.2302 78.1699 51.7502 78.5799 51.1902 78.9399L50.8402 78.4799C51.3602 78.1899 51.8302 77.8199 52.2402 77.3899L52.6202 77.7199H52.6102ZM55.6702 74.5199C54.9902 74.6599 54.1702 74.7599 53.2202 74.8199C53.0702 75.0699 52.8602 75.3199 52.5802 75.5899C53.0102 75.5699 53.4202 75.5499 53.8302 75.5199C54.0502 75.3199 54.2702 75.1199 54.4802 74.8999L54.9802 75.1399C54.2602 75.8299 53.5602 76.4099 52.8602 76.8599C53.6502 76.8399 54.3202 76.7999 54.8602 76.7399C54.7402 76.5299 54.6102 76.3199 54.4802 76.1099L54.8702 75.8699C55.2802 76.4499 55.6002 76.9399 55.8302 77.3499L55.3502 77.6799C55.2702 77.5099 55.1802 77.3299 55.0802 77.1399C54.6902 77.1899 54.2302 77.2399 53.6902 77.2699V78.5499C53.6902 78.7599 53.6402 78.8999 53.5402 78.9899C53.4502 79.0799 53.2802 79.1199 53.0402 79.1199H52.5402L52.4302 78.5499C52.6102 78.5799 52.7702 78.5899 52.8902 78.5899C53.0502 78.5899 53.1302 78.5499 53.1302 78.4599V77.2999C52.5502 77.3299 51.9002 77.3699 51.1902 77.3899L51.0602 76.8899C51.4102 76.8899 51.7502 76.8899 52.0702 76.8899C52.5102 76.6199 52.9302 76.3099 53.3402 75.9699C52.7502 76.0199 52.0902 76.0699 51.3702 76.1199L51.2602 75.6599C51.4702 75.6599 51.6802 75.6499 51.8902 75.6399C52.1902 75.3999 52.4402 75.1499 52.6402 74.8699C52.1502 74.8899 51.6402 74.8999 51.1102 74.8999L50.9602 74.4399C52.7202 74.4399 54.2102 74.3299 55.4502 74.1099L55.6902 74.5499L55.6702 74.5199ZM55.8402 78.5199L55.4502 78.9099C55.1402 78.5399 54.6902 78.1399 54.1102 77.7099L54.4902 77.3599C55.0202 77.7499 55.4802 78.1399 55.8502 78.5199H55.8402Z" fill="#3E3A39"/>
<path d="M58.3802 74.1502C58.2002 74.6802 58.0002 75.1502 57.7802 75.5502C57.9402 75.5302 58.0902 75.5102 58.2402 75.4702C58.3602 75.2202 58.4802 74.9602 58.6002 74.6802L59.0402 74.8302C58.6502 75.6902 58.2602 76.3902 57.8602 76.9402C58.1502 76.9102 58.3902 76.8602 58.5902 76.7902C58.5502 76.6302 58.4902 76.4802 58.4402 76.3202L58.8402 76.1902C58.9702 76.5402 59.0902 76.9302 59.1902 77.3702L58.7502 77.4802C58.7302 77.3802 58.7102 77.2902 58.6902 77.1902C58.3302 77.3002 57.8202 77.3902 57.1602 77.4502L57.0302 76.9702C57.1502 76.9702 57.2702 76.9702 57.3802 76.9702C57.5902 76.6802 57.8002 76.3302 58.0202 75.9302C57.7302 75.9902 57.4202 76.0502 57.0802 76.1002L56.9702 75.6402C57.0702 75.6402 57.1802 75.6202 57.2802 75.6102C57.5302 75.1302 57.7402 74.5902 57.9302 74.0002L58.3902 74.1502H58.3802ZM57.5902 77.6902C57.5602 78.2402 57.5002 78.7102 57.4202 79.0902L56.9602 78.9602C57.0702 78.5502 57.1402 78.1102 57.1802 77.6502L57.5902 77.6902ZM58.3802 78.8502L57.9202 78.8902C57.9102 78.3602 57.8902 77.9502 57.8502 77.6602L58.2402 77.6202C58.3102 77.9202 58.3502 78.3302 58.3702 78.8502H58.3802ZM59.1202 78.4702L58.7102 78.5802C58.6502 78.2502 58.5902 77.9302 58.5102 77.6202L58.8902 77.5102C58.9702 77.8002 59.0502 78.1102 59.1302 78.4702H59.1202ZM60.9102 74.6002H62.1002V75.0402H60.4902C60.3902 75.4202 60.2402 75.7802 60.0402 76.1302C60.5302 76.1102 60.9502 76.0502 61.2902 75.9702C61.2202 75.8402 61.1402 75.7002 61.0702 75.5502L61.4502 75.3102C61.7502 75.7702 61.9802 76.1602 62.1502 76.4902L61.6902 76.8002C61.6302 76.6602 61.5602 76.5102 61.4902 76.3602C61.3802 76.3902 61.2602 76.4102 61.1402 76.4302V78.4102C61.1402 78.5102 61.2002 78.5602 61.3102 78.5602H61.5302C61.5802 78.5602 61.6202 78.5302 61.6502 78.4602C61.6702 78.3902 61.6902 78.0902 61.7102 77.5502L62.1702 77.6802C62.1402 78.3302 62.0702 78.7002 62.0002 78.8202C61.9302 78.9302 61.8002 78.9902 61.6102 78.9902H61.1502C61.0002 78.9902 60.8802 78.9502 60.8002 78.8702C60.7102 78.7802 60.6702 78.6602 60.6702 78.5302V76.5002C60.5602 76.5202 60.4502 76.5302 60.3302 76.5402C60.3002 77.2402 60.2102 77.7602 60.0702 78.1002C59.9002 78.5002 59.6202 78.8402 59.2302 79.1402L58.9102 78.7302C59.2602 78.4802 59.4902 78.2102 59.6302 77.9102C59.7502 77.6502 59.8302 77.2202 59.8602 76.6002C59.6702 76.6202 59.4702 76.6402 59.2602 76.6502L59.1302 76.1502C59.2602 76.1502 59.4002 76.1502 59.5302 76.1502C59.7402 75.8002 59.9102 75.4302 60.0202 75.0402H59.1402V74.6002H60.4202C60.3402 74.4502 60.2502 74.3002 60.1502 74.1402L60.6302 73.9702C60.7402 74.1502 60.8502 74.3602 60.9502 74.6002H60.9102Z" fill="#3E3A39"/>
<path d="M63.2402 77.4902V77.0103H64.6502V77.4902H63.2402Z" fill="#3E3A39"/>
<path d="M67.3902 74.3903H68.3602V74.8502H67.8102L68.0602 74.9402C67.9602 75.2502 67.8602 75.5103 67.7702 75.7203H68.3602V76.1602H67.3402V76.6002H68.3402V77.0402H67.3802C67.7502 77.3102 68.0702 77.5802 68.3402 77.8502L68.0202 78.1802C67.8402 77.9802 67.6202 77.7702 67.3402 77.5402V79.1403H66.8602V77.6702C66.6102 78.0702 66.3302 78.4102 66.0002 78.6802L65.7002 78.2402C66.1602 77.9002 66.5202 77.5102 66.7902 77.0402H65.8502V76.6002H66.8602V76.1602H65.7802V75.7203H66.4002C66.3402 75.4803 66.2502 75.2303 66.1502 74.9503L66.4402 74.8403H65.8002V74.3802H66.7802C66.7102 74.2602 66.6302 74.1502 66.5402 74.0502L67.0402 73.9902C67.1602 74.1102 67.2802 74.2502 67.3802 74.3802L67.3902 74.3903ZM67.3102 75.7203C67.4102 75.5003 67.5002 75.2002 67.6002 74.8502H66.5902C66.6902 75.1102 66.7902 75.4003 66.8702 75.7203H67.3102ZM70.8602 74.6702C70.3402 74.8202 69.7702 74.9002 69.1502 74.9202V75.8303H70.8602V76.2902H70.2902V79.1302H69.7902V76.2902H69.1602V76.7703C69.1402 77.1703 69.0802 77.5903 68.9802 78.0303C68.8702 78.4103 68.7002 78.7602 68.4602 79.1102L68.0802 78.7103C68.2702 78.4403 68.4002 78.1502 68.4902 77.8602C68.5702 77.5502 68.6202 77.1803 68.6502 76.7703V74.4703C69.4202 74.4703 70.0602 74.3603 70.5802 74.1403L70.8702 74.6702H70.8602Z" fill="#3E3A39"/>
<path d="M73.3002 74.63H74.0902V75.09H71.9702V74.63H72.7902C72.7102 74.43 72.6302 74.24 72.5402 74.06L73.0702 74C73.1502 74.19 73.2302 74.4 73.3102 74.63H73.3002ZM73.8702 78.72H72.6502V79.12H72.1502V77.1H73.8702V78.72ZM73.8702 75.46V75.9H72.1702V75.46H73.8702ZM73.8702 76.27V76.71H72.1702V76.27H73.8702ZM73.3702 78.26V77.56H72.6502V78.26H73.3702ZM76.3902 75.44C76.3902 75.57 76.4502 75.64 76.5902 75.64H77.0302V76.14H76.4802C76.2702 76.14 76.1002 76.1 76.0002 76.01C75.8902 75.93 75.8402 75.77 75.8402 75.56V74.62H74.9902C74.9702 75 74.9302 75.26 74.8802 75.42C74.8102 75.64 74.6402 75.9 74.3502 76.19L73.9602 75.84C74.1902 75.58 74.3402 75.38 74.4002 75.23C74.4402 75.1 74.4702 74.74 74.4702 74.15H76.4002V75.44H76.3902ZM76.6102 76.27V76.64C76.4702 77.21 76.2402 77.7 75.9202 78.1C76.2302 78.3 76.6302 78.47 77.1102 78.61L76.7902 79.09C76.2602 78.9 75.8402 78.7 75.5402 78.49C75.2302 78.74 74.8102 78.95 74.2802 79.13L73.9702 78.67C74.4402 78.52 74.8202 78.35 75.1202 78.14C74.8002 77.83 74.5302 77.47 74.3202 77.06L74.7802 76.8C74.9802 77.19 75.2302 77.52 75.5302 77.79C75.7702 77.49 75.9502 77.14 76.0702 76.72H74.1802V76.26H76.6102V76.27Z" fill="#3E3A39"/>
<path d="M82.4902 74.1902C82.3502 74.8102 82.2002 75.3202 82.0502 75.7402H83.1002C82.8802 76.7402 82.5502 77.4802 82.1202 77.9702C82.4802 78.2202 82.8802 78.4302 83.3202 78.6002L83.0302 79.1402C82.4702 78.8902 82.0102 78.6502 81.6502 78.4002C81.2402 78.7102 80.7102 78.9502 80.0802 79.1402L79.6702 78.6002C80.3202 78.4402 80.8302 78.2502 81.1902 78.0302C80.7002 77.5802 80.3102 77.0402 80.0402 76.4102C79.9102 76.9602 79.7602 77.4102 79.5802 77.7502C79.3702 78.1602 79.0402 78.6002 78.5902 79.0502L78.1302 78.6602C78.7102 78.1102 79.1302 77.5002 79.3802 76.8202C79.5902 76.2602 79.7002 75.6702 79.7002 75.0502V74.6802H78.5902V74.1802H82.4802L82.4902 74.1902ZM80.2802 75.0602C80.2802 75.7302 80.5302 76.3802 81.0502 77.0102C81.2302 77.2402 81.4402 77.4502 81.6702 77.6402C81.9702 77.3102 82.2102 76.8402 82.4002 76.2202H81.3102C81.4402 75.8702 81.6002 75.3602 81.7702 74.6902H80.2902V75.0602H80.2802Z" fill="#3E3A39"/>
<path d="M2.18018 84.61L1.86017 85.11C1.57017 84.83 1.28016 84.6101 0.980164 84.4501L1.2702 84.04C1.6102 84.2 1.91019 84.39 2.19019 84.61H2.18018ZM2.31018 85.6801C2.05018 86.4401 1.76018 87.0901 1.43018 87.6501L1.04016 87.2101C1.31016 86.7801 1.5902 86.1601 1.8902 85.3701L2.31018 85.6801ZM2.42017 83.2601L2.10016 83.7801C1.82016 83.4801 1.53017 83.2401 1.24017 83.0601L1.53021 82.6201C1.85021 82.8001 2.15018 83.0101 2.43018 83.2601H2.42017ZM3.68018 83.67C3.71018 83.32 3.73017 82.9501 3.74017 82.5601H4.28021C4.28021 82.9601 4.26016 83.33 4.23016 83.67H6.01019V84.1501H4.76019C4.89019 84.7201 5.06019 85.25 5.26019 85.73C5.45019 86.19 5.7202 86.69 6.0802 87.23L5.7002 87.7101C5.3102 87.1301 5.0102 86.5401 4.7702 85.9401C4.5602 85.4401 4.38017 84.8401 4.24017 84.1501H4.17017C4.09017 84.7601 3.96021 85.29 3.78021 85.73C3.51021 86.42 3.0502 87.07 2.3902 87.67L2.07019 87.1401C2.62019 86.6901 3.03016 86.1501 3.29016 85.5201C3.44016 85.1601 3.55019 84.7001 3.63019 84.1401H2.40021V83.66H3.68018V83.67ZM4.78021 87.17L4.32019 87.4701C4.15019 87.1601 3.92018 86.8001 3.62018 86.4001L3.99017 86.16C4.33017 86.55 4.59021 86.89 4.78021 87.17Z" fill="#3E3A39"/>
<path d="M7.24017 83.5801V82.5601H7.74017V83.5801H8.24017C8.46017 83.4301 8.64016 83.28 8.79016 83.11C8.91016 82.99 9.02018 82.8001 9.12018 82.5601L9.60016 82.6C9.56016 82.73 9.5002 82.8501 9.4502 82.9501H10.9202V83.2701C10.7902 83.4701 10.6602 83.6301 10.5302 83.7701H11.4402V85.7001H10.9402V84.2101H8.9502V85.7001H8.4502V83.8401L8.30017 83.6401V84.04H7.75018V85.0801C7.92018 84.9901 8.09018 84.8801 8.25018 84.7701V85.3201C8.08018 85.4301 7.91018 85.5301 7.75018 85.6201V87.11C7.75018 87.31 7.71018 87.4501 7.62018 87.5301C7.54018 87.6101 7.40018 87.66 7.18018 87.66H6.7702L6.66016 87.11C6.82016 87.14 6.95017 87.1501 7.05017 87.1501C7.18017 87.1501 7.25018 87.1101 7.25018 87.0201V85.86C7.05018 85.94 6.84019 86.0201 6.63019 86.0801L6.56018 85.5101C6.78018 85.4801 7.01017 85.4101 7.24017 85.3101V84.04H6.56018V83.5801H7.24017ZM9.61017 85.8801C9.61017 85.8201 9.61017 85.7601 9.61017 85.7101V85.4001H10.1402V85.7101C10.1402 85.7801 10.1302 85.8301 10.1302 85.8801H11.7102V86.3401H10.3002C10.4902 86.5701 10.6602 86.7301 10.8202 86.8201C11.0302 86.9501 11.3202 87.0801 11.6902 87.2001L11.4102 87.66C10.9502 87.49 10.6102 87.3101 10.3902 87.1301C10.2302 87.0001 10.0702 86.82 9.92017 86.61C9.85017 86.75 9.76016 86.87 9.66016 86.98C9.38016 87.27 8.92021 87.5 8.28021 87.66L7.99017 87.2001C8.61017 87.0501 9.04019 86.8601 9.26019 86.6401C9.34019 86.5501 9.42015 86.4601 9.47015 86.3401H8.18018V85.8801H9.60016H9.61017ZM9.84021 83.7801C9.99021 83.6601 10.1302 83.5201 10.2802 83.3701H9.18018C9.06018 83.5201 8.9302 83.6601 8.7702 83.7801H9.85016H9.84021ZM10.2302 84.3301C10.2002 84.4301 10.1702 84.5201 10.1402 84.5901C10.4002 84.7701 10.6402 84.9701 10.8602 85.1801L10.5702 85.6201C10.3502 85.3701 10.1302 85.1601 9.91016 84.9901C9.78016 85.1701 9.55016 85.3501 9.23016 85.5301L8.99017 85.0701C9.19017 84.9701 9.35015 84.8701 9.47015 84.7501C9.56015 84.6601 9.65016 84.5001 9.73016 84.2801L10.2102 84.3201L10.2302 84.3301Z" fill="#3E3A39"/>
<path d="M17.0202 83.04V83.5601H15.0002V86.86H17.2302V87.3901H12.2002V86.86H14.4102V83.5601H12.4202V83.04H17.0202Z" fill="#3E3A39"/>
<path d="M19.7702 83.0999C19.5702 83.1699 19.3402 83.2299 19.0902 83.2799V84.0899H19.7902V84.5499H19.0902V84.8099C19.3402 85.0699 19.5902 85.3399 19.8502 85.6399L19.5702 86.0599C19.3802 85.7799 19.2202 85.5499 19.0902 85.3699V87.6799H18.6102V85.3799C18.6102 85.3799 18.5902 85.4299 18.5802 85.4499C18.4002 85.8999 18.1702 86.2899 17.9102 86.6199L17.7102 86.0699C18.0602 85.6299 18.3502 85.1199 18.5802 84.5399H17.7902V84.0799H18.6002V83.3499C18.4002 83.3799 18.2002 83.4099 17.9802 83.4199L17.9002 82.9599C18.5302 82.8999 19.0902 82.7999 19.5902 82.6299L19.7602 83.0899L19.7702 83.0999ZM22.7002 85.0699C22.3602 85.1699 21.9702 85.2399 21.5202 85.2799V85.8699H22.7002V86.3099H21.5202V87.0499H22.8802V87.5099H19.5502V87.0499H21.0202V86.3099H19.8802V85.8699H21.0202V85.3199C20.6902 85.3399 20.3402 85.3499 19.9702 85.3499L19.8202 84.8899C20.8602 84.8899 21.7402 84.8099 22.4602 84.6299L22.7002 85.0699ZM22.6202 82.7699V84.4099H19.9702V82.7699H22.6202ZM22.0902 83.2099H20.4902V83.9699H22.0902V83.2099Z" fill="#3E3A39"/>
<path d="M4.92017 7.62012H2.23016V8.40015H1.29016V1.13013H4.93018V7.63013L4.92017 7.62012ZM3.99017 3.89014V2.02014H2.23016V3.89014H3.99017ZM3.99017 6.7301V4.74011H2.23016V6.7301H3.99017ZM5.87018 0.900146H10.2902V8.59015C10.2902 8.91015 10.2002 9.16015 10.0202 9.34015C9.8502 9.49015 9.63016 9.57013 9.35016 9.57013H7.67017L7.47015 8.63013L8.94019 8.71014C9.15019 8.69014 9.26019 8.56013 9.26019 8.32013V6.57013H6.72015C6.64015 6.94013 6.53016 7.27011 6.41016 7.55011C6.11016 8.28011 5.5202 9.00012 4.6402 9.75012L3.78021 9.05011C4.57021 8.49011 5.1202 7.8901 5.4502 7.2301C5.7202 6.7001 5.87018 5.90012 5.87018 4.81012V0.890137V0.900146ZM9.2702 5.68011V4.13013H6.90021V4.83014C6.90021 5.14014 6.88017 5.43012 6.86017 5.69012H9.2702V5.68011ZM9.2702 3.2301V1.80011H6.90021V3.2301H9.2702Z" fill="#3E3A39"/>
<path d="M20.4502 9.7099H19.4302V8.96991H14.2302V9.67987H13.2002V0.899902H20.4402V9.7099H20.4502ZM19.4302 4.34985V1.85986H14.2302V4.34985H19.4302ZM19.4302 8.03986V5.31989H14.2302V8.03986H19.4302Z" fill="#3E3A39"/>
<path d="M26.5702 7.14996C25.8602 7.95996 24.9702 8.67995 23.9102 9.31995L23.2502 8.49994C24.2202 7.97994 25.1002 7.33994 25.8702 6.55994L26.5702 7.14996ZM32.3002 1.46997C31.0202 1.71997 29.4902 1.89994 27.7202 1.99994C27.4502 2.43994 27.0502 2.88992 26.5302 3.35992C27.3302 3.32992 28.1002 3.28993 28.8802 3.23993C29.2902 2.88993 29.7002 2.51995 30.1002 2.13995L31.0302 2.56995C29.6902 3.79995 28.3702 4.82993 27.0702 5.61993C28.5502 5.57993 29.8002 5.50996 30.8102 5.39996C30.5802 5.02996 30.3502 4.64997 30.1002 4.27997L30.8302 3.84991C31.6002 4.86991 32.1902 5.74993 32.6302 6.48993L31.7302 7.07996C31.5802 6.77996 31.4202 6.45993 31.2302 6.11993C30.5102 6.20993 29.6402 6.28991 28.6202 6.34991V8.62994C28.6202 8.99994 28.5302 9.25991 28.3402 9.40991C28.1702 9.56991 27.8602 9.64996 27.4002 9.64996H26.4602L26.2502 8.63995C26.6002 8.69995 26.8802 8.71997 27.1102 8.71997C27.4002 8.71997 27.5602 8.63992 27.5602 8.47992V6.41992C26.4802 6.47992 25.2602 6.53996 23.9202 6.57996L23.6702 5.67993C24.3302 5.67993 24.9602 5.67993 25.5602 5.67993C26.3802 5.19993 27.1602 4.65992 27.9402 4.03992C26.8302 4.12992 25.5902 4.21993 24.2502 4.29993L24.0502 3.47992C24.4502 3.47992 24.8402 3.45994 25.2202 3.43994C25.7902 3.01994 26.2602 2.55995 26.6202 2.06995C25.7102 2.10995 24.7502 2.11993 23.7502 2.11993L23.4702 1.29993C26.7602 1.29993 29.5602 1.10996 31.8702 0.709961L32.3202 1.48993L32.3002 1.46997ZM32.6202 8.57996L31.8902 9.27997C31.3002 8.61997 30.4602 7.91996 29.3802 7.14996L30.0802 6.51996C31.0802 7.21996 31.9202 7.89996 32.6202 8.57996Z" fill="#3E3A39"/>
<path d="M36.8102 0.809753C36.4702 1.74975 36.1002 2.57974 35.6802 3.29974C35.9702 3.25974 36.2602 3.21973 36.5402 3.15973C36.7602 2.71973 36.9902 2.24976 37.2202 1.74976L38.0402 2.01978C37.3202 3.53978 36.5802 4.78977 35.8302 5.75977C36.3602 5.69977 36.8302 5.61976 37.2002 5.49976C37.1202 5.21976 37.0202 4.93973 36.9302 4.65973L37.6702 4.41974C37.9102 5.03974 38.1302 5.72978 38.3202 6.51978L37.5002 6.71979C37.4602 6.54979 37.4302 6.37978 37.3802 6.20978C36.7002 6.40978 35.7402 6.55975 34.5102 6.67975L34.2602 5.81976C34.4902 5.81976 34.7102 5.81976 34.9102 5.81976C35.3002 5.29976 35.7002 4.68979 36.1102 3.96979C35.5602 4.06979 34.9802 4.17979 34.3502 4.27979L34.1502 3.45978C34.3402 3.45978 34.5402 3.42973 34.7402 3.40973C35.2002 2.54973 35.6102 1.59973 35.9602 0.539734L36.8202 0.809753H36.8102ZM35.3302 7.10974C35.2702 8.08974 35.1602 8.91973 35.0102 9.59973L34.1502 9.35974C34.3502 8.62974 34.4902 7.85979 34.5602 7.02979L35.3402 7.10974H35.3302ZM36.8102 9.16974L35.9502 9.24976C35.9302 8.31976 35.8902 7.58976 35.8202 7.06976L36.5502 6.98975C36.6802 7.52975 36.7602 8.24974 36.8002 9.16974H36.8102ZM38.1902 8.49976L37.4102 8.69977C37.3102 8.10977 37.1902 7.54975 37.0402 6.98975L37.7402 6.78973C37.9002 7.29973 38.0402 7.85976 38.1802 8.49976H38.1902ZM41.5302 1.62976H43.7602V2.40973H40.7502C40.5602 3.08973 40.2802 3.72978 39.9002 4.33978C40.8202 4.29978 41.6102 4.19974 42.2502 4.04974C42.1202 3.80974 41.9802 3.55974 41.8302 3.29974L42.5302 2.86975C43.0902 3.68975 43.5302 4.37979 43.8402 4.96979L42.9802 5.51978C42.8602 5.26978 42.7402 5.00975 42.6102 4.73975C42.4002 4.78975 42.1802 4.82975 41.9502 4.86975V8.38977C41.9502 8.56977 42.0502 8.65973 42.2702 8.65973H42.6802C42.7702 8.65973 42.8502 8.60975 42.9002 8.48975C42.9402 8.36975 42.9802 7.82975 43.0002 6.86975L43.8602 7.10974C43.8002 8.25974 43.6802 8.92976 43.5402 9.12976C43.4002 9.32976 43.1602 9.43976 42.8102 9.43976H41.9502C41.6702 9.43976 41.4502 9.36974 41.2902 9.22974C41.1202 9.06974 41.0502 8.85975 41.0502 8.61975V5.01978C40.8402 5.04978 40.6302 5.07973 40.4102 5.09973C40.3502 6.33973 40.1802 7.26975 39.9202 7.86975C39.6102 8.57975 39.0802 9.17978 38.3502 9.70978L37.7402 8.96979C38.3902 8.52979 38.8302 8.04978 39.0802 7.51978C39.3102 7.05978 39.4502 6.28976 39.5102 5.18976C39.1502 5.22976 38.7802 5.25979 38.3902 5.27979L38.1502 4.37976C38.4002 4.37976 38.6502 4.37975 38.8902 4.36975C39.2902 3.73975 39.5902 3.08978 39.8002 2.39978H38.1402V1.61975H40.5302C40.3802 1.35975 40.2202 1.08974 40.0202 0.799744L40.9202 0.489746C41.1302 0.809746 41.3302 1.18974 41.5202 1.60974L41.5302 1.62976Z" fill="#3E3A39"/>
<path d="M52.0002 0.769958C51.9102 0.929958 51.8202 1.07995 51.7402 1.19995H54.5402V1.97992H52.8802C52.8602 2.27992 52.8302 2.55993 52.7902 2.79993H54.6702V3.61993H52.7202C53.4502 3.99993 54.0902 4.35996 54.6302 4.70996L53.9702 5.32996C53.5502 4.99996 53.0002 4.63996 52.3002 4.26996V4.28992C52.0602 4.69992 51.6202 5.08995 50.9902 5.44995H58.3102V9.71997H57.2902V9.28992H51.8402V9.71997H50.8102V5.54993C50.5802 5.67993 50.3402 5.79992 50.0802 5.91992L49.4702 5.16992C50.3902 4.80992 51.0102 4.42997 51.3402 4.02997C51.4402 3.90997 51.5302 3.76993 51.6002 3.61993H49.5902V2.79993H51.8802C51.9302 2.54993 51.9702 2.27992 52.0002 1.97992H51.1502C50.9402 2.17992 50.6802 2.38992 50.3402 2.60992L49.6402 2.01996C50.0402 1.77996 50.3602 1.54994 50.6102 1.30994C50.8302 1.07994 51.0302 0.799961 51.2002 0.459961L52.0202 0.769958H52.0002ZM57.2802 6.98993V6.24994H51.8302V6.98993H57.2802ZM57.2802 8.45996V7.71997H51.8302V8.45996H57.2802ZM58.7902 1.19995V4.76996H54.9402V1.19995H58.7902ZM57.8502 1.97992H55.8902V3.99994H57.8502V1.97992Z" fill="#3E3A39"/>
<path d="M62.4402 7.61981C62.2402 8.05981 62.0702 8.36981 61.9402 8.55981C61.7902 8.76981 61.5502 9.01982 61.2202 9.31982L60.5302 8.73981C60.8102 8.51981 61.0402 8.29983 61.2202 8.07983C61.3802 7.85983 61.5102 7.59979 61.6302 7.28979L62.4502 7.6098L62.4402 7.61981ZM62.8102 0.999817V0.569824H63.6702V0.999817H65.1502V1.6698H63.6702V2.09979H65.0202V2.67981H63.6702V3.12982L65.1102 3.03979L65.1902 3.69983L63.6702 3.7998V4.31982H67.1202V3.89984H65.5202V3.2298H67.1202V2.71985H65.5202V2.09979H67.1202V1.6698H65.5202V0.999817H67.1202V0.569824H67.9802V0.999817H69.9002V1.6698H67.9802V2.09979H69.7702V2.71985H67.9802V3.2298H69.9402V3.89984H67.9802V4.31982H69.2902V5.36981H70.2602V5.98981H69.2902V7.07983H61.3402V6.44983H68.3402V5.9798H60.7602V5.3598H68.3402V4.92981H61.3402V4.2998H62.8102V3.82983L60.9802 3.94983L60.9002 3.28979L62.8202 3.1698V2.65979H61.1402V2.07983H62.8202V1.64984H60.9402V0.979797H62.8202L62.8102 0.999817ZM63.8002 7.4198V8.45984C63.8002 8.64984 63.9202 8.73981 64.1702 8.73981H66.5502C66.8202 8.73981 67.0202 8.70984 67.1502 8.64984C67.3002 8.58984 67.3902 8.3098 67.4502 7.7998L68.3502 8.06982C68.2502 8.77982 68.0702 9.18981 67.8202 9.30981C67.6102 9.43981 67.2302 9.50983 66.6802 9.50983H63.8102C63.5202 9.50983 63.3002 9.4298 63.1302 9.28979C62.9502 9.1298 62.8702 8.92982 62.8702 8.68982V7.40979H63.8102L63.8002 7.4198ZM66.4602 7.7298L65.9702 8.43982C65.5902 8.11982 65.2202 7.86982 64.8302 7.68982L65.2402 7.1098C65.6802 7.2898 66.0902 7.4898 66.4702 7.7298H66.4602ZM70.1502 8.6698L69.3302 9.21985C69.0402 8.73985 68.6402 8.19984 68.1302 7.58984L68.8302 7.19983C69.3902 7.76983 69.8302 8.2498 70.1402 8.6698H70.1502Z" fill="#3E3A39"/>
<path d="M79.7702 2.79004V3.61005H77.5802C77.3002 3.83005 77.0102 4.01004 76.7302 4.17004C77.1002 4.62004 77.3702 5.06009 77.5402 5.47009C78.3102 5.15009 79.0402 4.67004 79.7302 4.04004L80.4602 4.71008C80.0202 5.10008 79.5502 5.43006 79.0402 5.69006C79.2702 6.21006 79.5602 6.69006 79.9002 7.12006C80.2302 7.54006 80.6902 7.99008 81.2802 8.46008L80.6202 9.28009C79.9502 8.70009 79.4002 8.11007 79.0102 7.51007C78.7102 7.10007 78.4402 6.62009 78.2302 6.09009C78.0602 6.17009 77.9202 6.23009 77.7702 6.28009C77.8602 6.71009 77.9202 7.13004 77.9202 7.54004C77.9202 8.30004 77.8002 8.82009 77.5702 9.15009C77.3202 9.50009 76.5702 9.68005 75.3402 9.68005L75.0202 8.71008C75.0202 8.71008 75.2402 8.79004 75.6002 8.79004C76.1502 8.79004 76.5002 8.72004 76.6502 8.60004C76.8202 8.41004 76.9102 8.06005 76.9102 7.55005C76.9102 7.41005 76.9002 7.26005 76.8802 7.11005C76.2902 7.55005 75.7602 7.89005 75.2802 8.11005C74.5102 8.49005 73.5602 8.86009 72.4102 9.22009L71.8802 8.36005C73.0202 8.07005 74.0202 7.72007 74.8802 7.32007C75.5602 7.00007 76.1702 6.62006 76.7102 6.19006C76.6902 6.11006 76.6602 6.02005 76.6402 5.93005C76.6102 5.84005 76.5802 5.75009 76.5402 5.65009C75.9702 6.04009 75.4602 6.33008 75.0102 6.52008C74.3402 6.82008 73.4902 7.12009 72.4602 7.40009L71.9702 6.58008C72.9802 6.36008 73.8702 6.09008 74.6302 5.77008C75.2002 5.54008 75.7102 5.27007 76.1702 4.95007C76.0902 4.83007 76.0002 4.70007 75.9102 4.57007C75.0002 4.95007 73.9402 5.27009 72.7402 5.53009L72.2102 4.71008C73.5102 4.47008 74.5402 4.22008 75.2802 3.96008C75.5902 3.85008 75.8902 3.73005 76.1602 3.61005H73.2402V2.79004H79.7902H79.7702ZM76.9402 1.28009H81.0402V3.30005H80.1002V2.14008H72.9402V3.30005H72.0002V1.28009H75.8702C75.7402 1.08009 75.6202 0.880063 75.4802 0.690063L76.5802 0.540039C76.7102 0.760039 76.8202 1.01009 76.9502 1.28009H76.9402Z" fill="#3E3A39"/>
<path d="M15.4502 15.6699L17.1702 17.4399C17.0502 17.5899 16.8102 17.6599 16.4202 17.6599C15.8802 18.7099 14.7902 20.6699 14.0702 21.7899C16.0402 23.0499 16.9602 24.4199 16.9802 25.8399V25.9099C16.9802 27.6299 16.3002 28.6799 14.3102 28.8499C14.3102 27.6099 13.9202 27.4399 13.2402 27.2999V27.0599H14.4802C15.0202 27.0599 15.2102 26.5699 15.2102 25.7699C15.2102 24.4399 14.8002 23.0699 13.7302 21.8399C13.9902 20.6799 14.3902 18.4199 14.6302 17.0499H13.1002V30.6499C13.1002 30.7999 12.5602 31.2099 11.6902 31.2099H11.3802V18.8399C10.8702 19.1099 10.4602 19.6199 10.3302 20.1799C9.6202 19.7599 9.04016 19.1899 8.60016 18.5299H7.53021V20.1299H8.4502L9.10016 19.2999L10.7302 20.5099C10.6302 20.6499 10.4602 20.7299 10.1002 20.7999V25.1699C10.1002 25.2599 9.59021 25.5399 8.84021 25.5399H8.59021V24.9099H3.37018V25.2199C3.37018 25.3199 2.91016 25.6799 2.16016 25.6799H1.90021V19.9299C1.65021 20.0799 1.39018 20.2199 1.12018 20.3399L0.920166 20.1699C1.79017 19.2999 2.55019 17.8199 2.94019 16.4299L5.06018 17.2099C4.99018 17.3499 4.86021 17.4299 4.65021 17.4299C4.58021 17.4299 4.5102 17.4299 4.4502 17.4099C4.3002 17.6799 4.1102 17.9399 3.8902 18.1899H7.24017L7.97015 17.2899C7.85015 16.9799 7.7702 16.6599 7.7002 16.3199H4.2702L4.17017 15.9799H7.38019L7.8902 15.1299L9.3902 16.0999C9.2002 16.2999 8.71021 16.4399 8.15021 16.4699C8.68021 17.3499 9.92021 18.0799 11.4002 18.4599V15.9399L13.3402 16.6999H14.5002L15.4702 15.6599L15.4502 15.6699ZM8.51019 26.9699L9.44019 25.7299L11.2102 26.9999C11.0702 27.2199 10.8502 27.3099 10.4102 27.3099H6.42017C6.37017 27.5099 6.32016 27.7199 6.23016 27.9199C8.98016 28.0199 9.90021 29.1099 9.90021 29.8899C9.90021 30.3699 9.5802 30.7399 9.1402 30.7399C8.9902 30.7399 8.80017 30.6899 8.61017 30.5699C8.12017 29.6999 7.08021 28.7899 6.09021 28.2399C5.51021 29.4499 4.2002 30.4699 1.1402 31.2099L1.00018 30.9699C3.62018 29.9699 4.45017 28.7599 4.74017 27.2999H1.07019L0.980164 26.9599H4.80017C4.89017 26.3699 4.89021 25.7399 4.90021 25.0599L7.19019 25.2299C7.16019 25.4199 7.05016 25.5199 6.60016 25.5899C6.57016 26.0699 6.53021 26.5299 6.46021 26.9699H8.48016H8.51019ZM4.16016 18.5199H3.60016C3.23016 18.9299 2.8002 19.2999 2.3302 19.6199L3.55017 20.1099H4.16016V18.5099V18.5199ZM8.5802 22.4499C8.4102 22.4999 8.19021 22.5199 7.90021 22.5199C6.35021 22.5199 6.2702 22.5199 6.2702 20.9699V20.4599H5.40021C5.28021 21.3399 4.84017 22.2799 3.36017 22.8699V23.1599H8.5802V22.4499ZM3.36017 20.4599V22.4999C3.94017 21.9099 4.0902 21.1899 4.1402 20.4599H3.36017ZM3.36017 24.5699H8.5802V23.4999H3.36017V24.5699ZM6.2702 20.1199V18.5199H5.4502V19.7299C5.4502 19.8499 5.45018 19.9799 5.43018 20.1199H6.26019H6.2702ZM8.5802 20.4599H7.53021V20.9899C7.53021 21.3799 7.5302 21.4099 7.5802 21.4099C8.0402 21.4099 8.16016 21.4099 8.41016 20.9299H8.53021L8.5802 21.4099H8.60016L8.5802 20.4599Z" fill="#C9A063"/>
<path d="M25.1202 17.5397L26.6802 18.6998C26.5602 18.9198 26.3402 18.9897 25.9002 18.9897H19.7102L19.6202 18.6697H24.2802L25.1102 17.5497L25.1202 17.5397ZM20.4302 20.8497H23.5602L24.3602 19.7997L25.8602 20.8998C25.7202 21.1198 25.5002 21.1898 25.0802 21.1898H20.5402L20.4402 20.8497H20.4302ZM25.8502 23.1097C25.7102 23.3297 25.4902 23.3998 25.0702 23.3998H20.5302L20.4302 23.0798H23.5602L24.3602 22.0098L25.8602 23.1198L25.8502 23.1097ZM23.7802 25.3497L24.4302 24.5198L26.2302 25.7798C26.1302 25.8998 25.8902 26.0297 25.5702 26.0997V30.0598C25.5702 30.0598 25.1402 30.5497 23.9602 30.5497V29.4097H22.0602V30.5997C22.0602 30.5997 21.8402 31.1898 20.4602 31.1898V24.6498L22.1402 25.3497H23.7902H23.7802ZM25.8002 16.5298C25.6602 16.7498 25.4402 16.8198 25.0202 16.8198H20.5502L20.4602 16.4998H23.3802L24.2302 15.3798L25.7902 16.5397L25.8002 16.5298ZM22.0402 29.0698H23.9402V25.6898H22.0402V29.0698ZM34.3102 22.8698L35.8602 24.1298C35.7202 24.3498 35.5202 24.4197 35.0602 24.4197H33.2102V28.8698C33.2102 30.0898 32.9202 30.9897 30.8102 31.1797C30.8102 29.8697 30.2802 29.5797 28.8902 29.4097V29.1697H31.1302C31.3702 29.1697 31.4402 29.0898 31.4402 28.8798V24.4097H26.0002L25.9102 24.0698H31.4302V21.7798L33.8602 21.9498C33.8402 22.1698 33.7602 22.2898 33.2002 22.3798V24.0798H33.4602L34.3102 22.8698ZM26.8802 18.2498L26.7902 17.9097H29.7802V15.2598L32.3002 15.4998C32.2702 15.7498 32.1002 15.8598 31.5702 15.9398V17.9097H32.4202L33.3702 16.6697L35.1402 17.9598C35.0002 18.1598 34.8002 18.2498 34.3202 18.2498H31.5702V21.1097H33.0502L34.0202 19.8497L35.8002 21.1398C35.6802 21.3598 35.4402 21.4498 35.0002 21.4498H26.0802L26.0002 21.1097H29.7902V18.2498H26.8802ZM27.0302 25.1198C29.2102 25.5598 29.9202 26.4597 29.9202 27.1797C29.9202 27.7697 29.4402 28.2498 28.9002 28.2498C28.6302 28.2498 28.3402 28.1497 28.1002 27.8597C28.0502 26.9597 27.5602 25.8697 26.9302 25.2397L27.0302 25.1198Z" fill="#C9A063"/>
<path d="M52.6902 18.38L54.4202 19.67C54.2802 19.89 54.0502 19.98 53.6002 19.98H52.1202V24.13C52.1202 24.23 51.5802 24.61 50.6802 24.62L52.4102 25.84C52.3102 25.96 52.1002 26.11 51.7602 26.18V30.6C51.7602 30.6 51.2302 31.04 49.8902 31.04V29.99H42.8402V30.55C42.8402 30.55 42.5702 31.2 41.0202 31.2V24.71L40.7502 24.74C40.7502 23.64 40.4102 23.31 39.0802 23.16V22.94H40.9802C41.2002 22.94 41.2502 22.86 41.2502 22.65V21.27C40.7402 21.42 40.2002 21.58 39.6202 21.73C39.5002 21.93 39.3102 22.07 39.1402 22.1L38.3602 20.18C38.9902 20.16 40.0102 20.08 41.2502 19.99V18.07H38.6002L38.5002 17.73H41.2502V15.23L43.6502 15.42C43.6302 15.62 43.5502 15.76 42.9902 15.83V17.73H43.4702L44.3402 16.52L45.9902 17.78C45.8402 18 45.6302 18.07 45.1702 18.07H42.9902V19.84C43.9202 19.77 44.9302 19.67 45.9302 19.59L45.9502 19.83C45.1702 20.1 44.2002 20.41 42.9902 20.77V22.66C42.9902 23.7 42.7502 24.46 41.1502 24.7L42.9502 25.41H49.7202L50.3302 24.63H50.3002V19.99H48.2802C48.1802 21.59 47.5502 23.51 44.5702 24.68L44.4302 24.48C46.3202 22.98 46.5502 21.06 46.5502 19.33V16.42L48.4902 16.98C49.7802 16.47 51.1902 15.77 51.9602 15.25L53.6802 16.83C53.5902 16.9 53.4602 16.95 53.2902 16.95C53.1202 16.95 52.9202 16.9 52.7002 16.83C51.5802 17.08 49.8602 17.36 48.3002 17.48V19.66H51.7502L52.6802 18.4L52.6902 18.38ZM42.8502 29.65H49.9002V25.74H42.8502V29.65Z" fill="#C9A063"/>
</svg>
