<svg width="280" height="128" viewBox="0 0 280 128" fill="none" xmlns="http://www.w3.org/2000/svg">
<path d="M110.3 25.9002L112.7 20.2002L115.2 25.9002H114.3L113.8 24.8002H111.1L110.6 25.9002H110.3ZM111.2 24.6002H113.7L112.4 21.7002L111.2 24.6002Z" fill="#C9A063"/>
<path d="M120.9 25.6002V25.9002H117.5V21.0002C117.5 20.7002 117.3 20.4002 116.8 20.2002H120.9V20.5002H118.3V22.8002H120.5V23.2002H118.3V25.7002L120.9 25.6002Z" fill="#C9A063"/>
<path d="M126.2 24.5002C126.2 25.1002 125.8 26.1002 124.5 26.1002C123.5 26.1002 122.8 25.6002 122.7 24.5002H122.9C123.1 25.6002 123.9 25.8002 124.4 25.8002C125.3 25.8002 125.5 25.2002 125.5 24.9002C125.5 24.3002 125 24.0002 124.1 23.5002C123.5 23.2002 122.6 22.7002 122.6 21.7002C122.6 20.5002 123.8 20.2002 124.2 20.2002C125.2 20.2002 125.7 20.8002 125.8 21.6002H125.5C125.4 21.2002 125.1 20.5002 124.2 20.5002C123.7 20.5002 123.3 20.9002 123.3 21.4002C123.3 22.0002 124 22.3002 124.6 22.7002C125.9 23.3002 126.2 23.8002 126.2 24.5002Z" fill="#C9A063"/>
<path d="M132.2 20.6002H130.4V26.0002H129.6V20.6002H127.8V20.2002H132.2V20.6002Z" fill="#C9A063"/>
<path d="M139.8 25.9002H138.8C138.6 25.9002 138.4 25.7002 138.4 25.4002V23.1002H135.7V25.9002H134.9V21.0002C134.9 20.7002 134.7 20.4002 134.4 20.3002H134.3H135.3C135.4 20.3002 135.5 20.3002 135.6 20.4002C135.7 20.5002 135.7 20.6002 135.7 20.7002V22.9002H138.4V20.2002H139.2V25.1002C139.2 25.4002 139.4 25.7002 139.7 25.8002L139.8 25.9002Z" fill="#C9A063"/>
<path d="M145.5 25.6002V25.9002H142.1V21.0002C142.1 20.7002 141.9 20.4002 141.4 20.2002H145.5V20.5002H142.9V22.8002H145.1V23.2002H142.9V25.7002L145.5 25.6002Z" fill="#C9A063"/>
<path d="M151.9 20.6002H150.1V26.0002H149.3V20.6002H147.5V20.2002H151.9V20.6002Z" fill="#C9A063"/>
<path d="M155.2 20.2002V25.9002H154.5V21.0002C154.5 20.7002 154.3 20.4002 153.8 20.2002H155.2Z" fill="#C9A063"/>
<path d="M162 24.8996C161.9 24.9996 161.3 26.0996 159.8 26.0996C158.1 26.0996 157.2 24.7996 157.2 23.0996C157.2 21.4996 158.2 20.0996 159.8 20.0996C161.4 20.0996 162 21.1996 162 21.2996L161.8 21.4996C160.1 19.3996 158.1 20.7996 158.1 23.0996C158.1 25.1996 160.1 26.7996 161.8 24.6996L162 24.8996Z" fill="#C9A063"/>
<path d="M122.3 35.9998L124.7 30.2998L127.2 35.9998H126.3L125.8 34.8998H123.1L122.6 35.9998H122.3ZM123.3 34.5998H125.8L124.5 31.6998L123.3 34.5998Z" fill="#C9A063"/>
<path d="M133.6 35.9998H132.7L131 33.3998C130.8 33.3998 130.6 33.3998 130.4 33.3998V35.9998H129.6V31.0998C129.6 30.6998 129.4 30.3998 128.9 30.2998H130.4C131.3 30.2998 133 30.2998 133 31.8998C133 32.7998 132.5 33.1998 131.9 33.3998L133.6 35.9998ZM131.8 32.7998C131.9 32.6998 131.9 32.6998 131.9 32.5998C131.9 32.4998 132 32.3998 132 32.2998C132 32.1998 132 31.9998 132 31.8998C132 30.6998 131.1 30.5998 130.9 30.5998H130.3V33.1998H130.9C131 33.1998 131.1 33.1998 131.2 33.1998C131.3 33.1998 131.5 33.0998 131.6 33.0998C131.7 32.8998 131.7 32.8998 131.8 32.7998Z" fill="#C9A063"/>
<path d="M140 35.0002C139.9 35.1002 139.3 36.2002 137.8 36.2002C136.1 36.2002 135.2 34.9002 135.2 33.2002C135.2 31.6002 136.2 30.2002 137.8 30.2002C139.4 30.2002 140 31.3002 140 31.4002L139.8 31.6002C138.1 29.5002 136.1 30.9002 136.1 33.2002C136.1 35.3002 138.1 36.9002 139.8 34.8002L140 35.0002Z" fill="#C9A063"/>
<path d="M147.3 35.9998H146.3C146.1 35.9998 145.9 35.7998 145.9 35.4998V33.1998H143.2V35.9998H142.4V31.0998C142.4 30.7998 142.2 30.4998 141.9 30.3998H141.8H142.8C142.9 30.3998 143 30.3998 143.1 30.4998C143.2 30.5998 143.2 30.6998 143.2 30.7998V32.9998H145.9V30.2998H146.7V35.1998C146.7 35.4998 146.9 35.7998 147.2 35.8998L147.3 35.9998Z" fill="#C9A063"/>
<path d="M149.6 35.2002C149.7 35.2002 149.8 35.2002 149.9 35.3002C150 35.4002 150 35.5002 150 35.6002C150 35.7002 150 35.8002 149.9 35.9002C149.8 36.0002 149.7 36.0002 149.6 36.0002C149.5 36.0002 149.4 36.0002 149.3 35.9002C149.2 35.8002 149.2 35.7002 149.2 35.6002C149.2 35.5002 149.2 35.4002 149.3 35.3002C149.4 35.2002 149.5 35.2002 149.6 35.2002Z" fill="#C9A063"/>
<path d="M19.3001 38.4004H12.2001V42.0004C12.2001 42.3004 12.2001 42.5004 12.1001 42.7004C12.0001 42.9004 11.7001 43.1004 11.2001 43.5004C10.6001 43.9004 10.0001 44.2004 9.2001 44.4004C8.4001 44.6004 8.0001 44.7004 7.8001 44.7004C7.6001 44.7004 7.6001 44.5004 7.6001 44.2004C7.8001 42.3004 7.9001 40.3004 7.9001 38.3004V8.50039C7.9001 6.80039 7.8001 5.20039 7.7001 3.50039C10.7001 5.00039 12.8001 6.10039 13.9001 7.00039H19.0001L20.4001 4.70039C20.6001 4.30039 20.8001 4.20039 21.0001 4.20039C21.3001 4.20039 22.2001 4.80039 23.6001 6.00039C25.0001 7.20039 25.8001 8.00039 25.8001 8.40039C25.8001 8.70039 25.1001 9.20039 23.8001 9.80039V34.1004L23.9001 39.4004V40.1004C22.7001 41.1004 21.7001 41.7004 20.9001 42.1004C20.1001 42.4004 19.7001 42.6004 19.5001 42.6004C19.3001 42.6004 19.3001 42.4004 19.3001 41.9004V38.4004ZM12.2001 22.1004H19.3001V8.70039H12.2001V22.1004ZM12.2001 36.5004H19.3001V23.9004H12.2001V36.5004ZM34.1001 6.20039H41.6001L43.0001 3.70039C43.3001 3.20039 43.6001 2.90039 43.8001 2.90039C44.0001 2.90039 44.6001 3.30039 45.6001 4.10039L47.9001 6.00039C48.5001 6.50039 48.8001 7.00039 48.8001 7.40039C48.8001 7.80039 48.0001 8.40039 46.3001 9.20039V46.5004C46.3001 49.0004 46.1001 50.7004 45.8001 51.6004C45.5001 52.5004 44.6001 53.5004 43.1001 54.4004C41.6001 55.3004 40.7001 55.8004 40.3001 55.8004C40.0001 55.8004 39.8001 55.4004 39.6001 54.5004C39.5001 53.6004 39.2001 52.9004 38.9001 52.4004C38.6001 51.8004 38.0001 51.3004 37.1001 50.7004C36.2001 50.1004 34.9001 49.5004 33.0001 48.6004L33.2001 47.7004C36.4001 48.4004 38.4001 48.7004 39.3001 48.7004C40.2001 48.7004 40.8001 48.6004 41.2001 48.3004C41.6001 48.1004 41.8001 47.4004 41.8001 46.3004V34.0004H31.8001C31.4001 40.1004 29.9001 44.5004 27.5001 47.4004C25.0001 50.3004 21.0001 53.1004 15.5001 55.9004L15.0001 54.9004C17.6001 52.8004 19.7001 51.0004 21.3001 49.3004C22.9001 47.6004 24.1001 45.9004 25.0001 44.1004C25.9001 42.4004 26.6001 40.5004 27.0001 38.4004C27.4001 36.3004 27.7001 33.2004 27.9001 29.0004C28.1001 24.8004 28.2001 20.5004 28.2001 16.1004C28.2001 11.7004 28.1001 7.40039 27.9001 3.30039C30.2001 4.00039 32.2001 5.00039 34.1001 6.20039ZM41.9001 21.1004H32.7001C32.6001 24.4004 32.4001 28.1004 32.0001 32.2004H41.9001V21.1004ZM32.8001 19.2004H41.9001V8.00039H32.9001C32.9001 9.30039 33.0001 10.8004 33.0001 12.5004C32.9001 14.1004 32.9001 16.4004 32.8001 19.2004Z" fill="white" stroke="white" stroke-width="0.2" stroke-miterlimit="10"/>
<path d="M100.4 31.2C100 31.7 99.6002 32.1 99.2002 32.4C98.8002 32.7 98.5002 33 98.1002 33.1C97.7002 33.3 97.2002 33.4 96.6002 33.5C96.0002 33.6 95.3002 33.6 94.4002 33.6C93.0002 33.6 91.9002 33.5 91.1002 33.4C90.3002 33.3 89.7002 33.1 89.3002 32.7C88.9002 32.4 88.6002 31.9 88.5002 31.3C88.4002 30.7 88.3002 29.9 88.3002 28.9V20.1H84.8002C84.7002 21.2 84.6002 22.1 84.5002 22.9C84.3002 23.7 84.1002 24.5 83.9002 25.3C84.8002 25.7 85.4002 26.1 85.8002 26.4C86.2002 26.7 86.5002 27.1 86.7002 27.4C87.1002 28.2 87.3002 28.8 87.3002 29.5C87.2002 30.1 86.9002 30.6 86.2002 30.9C85.2002 31.3 84.4002 30.9 83.7002 29.7C83.6002 29.5 83.4002 29.3 83.3002 29.1C83.1002 28.9 83.0002 28.7 82.8002 28.5C82.4002 29.2 81.7002 29.9 80.8002 30.7C79.9002 31.5 78.8002 32.2 77.4002 33C78.1002 33.2 78.7002 33.4 79.2002 33.5C79.7002 33.7 80.2002 33.8 80.8002 34C81.4002 34.2 81.8002 34.4 81.8002 34.7C81.8002 35 81.5002 35.4 80.8002 35.8V37.8H93.6002L95.3002 34.8C95.6002 34.3 95.9002 34.1 96.1002 34.1C96.3002 34.1 96.7002 34.3 97.2002 34.7C97.8002 35.2 98.3002 35.7 98.8002 36.3C99.3002 36.8 99.7002 37.4 100.2 37.9C100.8 38.5 101 38.9 101 39.2C101 39.5 100.6 39.6 99.8002 39.6H83.2002C84.6002 41.2 85.9002 42.5 87.1002 43.6C88.3002 44.6 89.5002 45.5 90.9002 46.2C92.2002 46.9 93.8002 47.4 95.6002 47.8C97.4002 48.2 99.5002 48.6 102.1 49V50.2C101.2 50.2 100.5 50.3 100 50.4C99.5002 50.5 99.0002 50.6 98.7002 50.8C98.4002 51 98.1002 51.3 97.9002 51.6C97.7002 51.9 97.5002 52.3 97.3002 52.8C97.2002 53 97.1002 53.1 96.9002 53.2C96.7002 53.2 96.4002 53.2 96.0002 53C94.4002 52.5 92.9002 51.9 91.6002 51.2C90.3002 50.5 89.1002 49.7 88.0002 48.6C86.9002 47.6 85.8002 46.3 84.9002 44.9C83.9002 43.4 82.9002 41.6 81.8002 39.5H80.8002V47.3C80.8002 48.7 80.8002 49.9 80.8002 50.8C80.8002 51.8 80.8002 52.8 80.8002 54C80.8002 54.5 80.6002 54.8 80.3002 55C79.7002 55.4 79.1002 55.6 78.6002 55.8C78.1002 56 77.4002 56.2 76.8002 56.4C76.5002 56.4 76.4002 56.3 76.4002 55.9C76.4002 55 76.5002 54.3 76.5002 53.6C76.5002 52.9 76.6002 52.3 76.6002 51.8C76.6002 51.2 76.6002 50.6 76.6002 50C76.6002 49.4 76.6002 48.8 76.6002 48V41.3C75.1002 43.2 73.7002 44.8 72.4002 46C71.1002 47.3 69.8002 48.4 68.3002 49.3C66.8002 50.2 65.1002 51.1 63.2002 51.9C61.3002 52.7 58.9002 53.6 56.0002 54.6L55.7002 53.6C58.1002 52.3 60.1002 51.2 61.7002 50.2C63.3002 49.2 64.7002 48.2 66.0002 47.2C67.2002 46.2 68.4002 45 69.4002 43.8C70.4002 42.6 71.6002 41.1 72.8002 39.3H59.8002C59.4002 39.3 59.0002 39.4 58.6002 39.5C58.2002 39.6 57.9002 39.7 57.6002 39.8L56.8002 37.1C57.2002 37.2 57.6002 37.3 58.0002 37.4C58.4002 37.5 58.8002 37.5 59.3002 37.5H76.4002C76.4002 36.9 76.3002 36.2 76.3002 35.4C76.3002 34.6 76.3002 33.9 76.2002 33.2C74.7002 34 72.9002 34.7 70.7002 35.5L70.3002 34.7C71.6002 34.1 72.8002 33.4 73.9002 32.7C75.0002 31.9 76.0002 31.2 76.8002 30.4C77.6002 29.6 78.3002 28.9 78.9002 28.1C79.5002 27.3 79.8002 26.6 80.0002 26.1C79.4002 25.7 78.8002 25.3 78.3002 24.9C77.8002 24.6 77.0002 24.2 76.1002 23.7L76.3002 23C77.3002 23.1 78.1002 23.2 78.7002 23.3C79.3002 23.4 80.0002 23.6 80.6002 23.9C80.8002 23.2 80.9002 22.5 80.9002 22C81.0002 21.4 81.0002 20.7 81.1002 19.9H81.0002C80.2002 19.9 79.6002 19.9 79.2002 20C78.8002 20.1 78.4002 20.2 78.0002 20.4L76.2002 18.1C77.0002 18.2 77.7002 18.2 78.2002 18.2C78.7002 18.2 79.3002 18.2 80.1002 18.2H88.1002L89.0002 17C88.8002 16.9 88.7002 16.7 88.7002 16.5C88.6002 16 88.5002 15.5 88.4002 15.1C88.3002 14.7 88.1002 14.3 87.9002 13.9C87.7002 13.5 87.4002 13.1 87.2002 12.6C86.9002 12.1 86.5002 11.6 86.1002 10.9H83.7002C82.6002 12.2 81.7002 13.4 80.7002 14.4C79.8002 15.4 78.7002 16.5 77.5002 17.6L76.7002 16.7C77.6002 15.2 78.4002 13.8 79.1002 12.6C79.8002 11.4 80.5002 10.2 81.0002 9.1C81.6002 8 82.1002 6.8 82.6002 5.5C83.1002 4.3 83.6002 2.9 84.1002 1.2C84.6002 1.5 85.1002 1.7 85.5002 1.9C85.9002 2.1 86.2002 2.3 86.5002 2.5C86.8002 2.7 87.1002 2.9 87.3002 3C87.6002 3.2 87.8002 3.4 88.1002 3.6C89.2002 4.3 89.1002 4.7 88.0002 5C87.8002 5 87.7002 5.1 87.5002 5.3C87.3002 5.4 87.1002 5.7 86.9002 6C86.7002 6.3 86.4002 6.7 86.0002 7.2C85.7002 7.7 85.2002 8.4 84.7002 9.2H93.3002L95.1002 5.9C95.4002 5.5 95.6002 5.2 95.8002 5.2C96.0002 5.2 96.3002 5.4 96.8002 5.8C97.5002 6.5 98.2002 7.1 98.7002 7.7C99.3002 8.3 99.8002 8.9 100.3 9.5C100.6 9.9 100.8 10.3 100.6 10.5C100.5 10.7 100.2 10.9 99.7002 10.9H88.4002C90.0002 11.4 91.0002 11.9 91.5002 12.2C92.0002 12.6 92.2002 13.1 92.2002 13.7C92.2002 14.3 92.1002 14.9 91.8002 15.5C91.5002 16.1 91.2002 16.5 90.8002 16.8L93.5002 18.6C94.1002 19 94.1002 19.5 93.5002 20L92.0002 21.1V28C92.0002 29 92.1002 29.6 92.3002 29.9C92.5002 30.2 93.1002 30.3 94.0002 30.3C94.6002 30.3 95.2002 30.2 95.5002 30C95.9002 29.8 96.2002 29.5 96.4002 28.9C96.6002 28.4 96.8002 27.6 96.9002 26.6C97.0002 25.6 97.1002 24.3 97.2002 22.6H98.2002C98.2002 23.9 98.2002 25 98.3002 25.9C98.4002 26.7 98.4002 27.4 98.6002 27.9C98.7002 28.4 98.9002 28.8 99.2002 29C99.5002 29.3 99.8002 29.5 100.2 29.7C100.9 30.1 100.9 30.5 100.4 31.2ZM78.9002 9.3C79.2002 9.7 79.3002 10.1 79.2002 10.3C79.1002 10.6 78.8002 10.7 78.4002 10.7H68.9002C70.5002 11.4 71.6002 12.1 72.1002 12.9C72.6002 13.7 72.8002 14.4 72.6002 15.1C72.4002 15.8 72.0002 16.3 71.5002 16.6C71.0002 16.9 70.5002 17.1 70.2002 17.1C70.0002 17.1 69.9002 17 69.8002 16.9C69.7002 16.8 69.6002 16.5 69.5002 16C69.3002 15.1 69.0002 14.3 68.7002 13.5C68.4002 12.7 67.9002 11.8 67.2002 10.7H65.0002C64.4002 11.6 63.7002 12.5 63.1002 13.4C62.5002 14.2 61.9002 15 61.2002 15.8C60.5002 16.6 59.8002 17.4 59.1002 18.1C58.4002 18.9 57.5002 19.6 56.6002 20.4L56.0002 19.6C56.9002 18.3 57.7002 17 58.4002 15.8C59.1002 14.6 59.9002 13.2 60.6002 11.8C61.3002 10.4 62.0002 8.8 62.7002 7C63.4002 5.3 64.1002 3.3 64.8002 1C65.8002 1.6 66.6002 2 67.1002 2.4C67.6002 2.8 68.3002 3.2 68.9002 3.6C69.5002 3.9 69.8002 4.2 69.8002 4.5C69.8002 4.8 69.4002 5 68.7002 5C68.4002 5 68.1002 5.3 67.6002 5.9C67.2002 6.5 66.5002 7.5 65.8002 9H72.7002L74.3002 6.3C74.6002 5.8 74.8002 5.5 75.0002 5.5C75.2002 5.5 75.5002 5.7 75.9002 6C76.6002 6.6 77.1002 7.2 77.6002 7.7C78.1002 8.3 78.5002 8.8 78.9002 9.3ZM76.1002 18.9C76.4002 19.3 76.5002 19.5 76.4002 19.8C76.3002 20 76.1002 20.1 75.6002 20.1H69.8002V28.6L75.6002 27.6L75.9002 28.7L64.3002 33.2C63.6002 33.5 62.9002 33.8 62.3002 34.1C61.7002 34.4 61.0002 34.8 60.4002 35.2C60.1002 35.4 59.9002 35.5 59.8002 35.4C59.7002 35.3 59.5002 35.2 59.4002 34.8C59.1002 34 58.9002 33.4 58.7002 32.7C58.5002 32.1 58.2002 31.2 57.9002 30.2C58.6002 30.1 59.3002 30.1 59.9002 30C60.5002 29.9 61.1002 29.9 61.8002 29.8C62.4002 29.7 63.1002 29.6 63.8002 29.5C64.5002 29.4 65.3002 29.3 66.2002 29.1V20.1H62.9002C62.5002 20.1 62.1002 20.1 61.7002 20.2C61.3002 20.3 61.0002 20.4 60.8002 20.5L60.1002 18.1C60.5002 18.2 60.9002 18.3 61.3002 18.3C61.7002 18.3 62.1002 18.4 62.6002 18.4H71.8002L72.9002 16.4C73.1002 16.1 73.2002 15.9 73.4002 16C73.6002 16 73.9002 16.2 74.2002 16.6C74.7002 17.1 75.1002 17.5 75.4002 17.9C75.5002 18.1 75.8002 18.5 76.1002 18.9Z" fill="white" stroke="white" stroke-width="0.2" stroke-miterlimit="10"/>
<path d="M196.9 37.8996C195.6 39.9996 194.5 41.6996 193.6 43.1996C192.7 44.6996 192 45.9996 191.4 46.9996C190.8 47.9996 190.3 48.8996 190 49.5996C189.7 50.2996 189.4 50.8996 189.2 51.3996C189 51.7996 188.9 51.9996 188.7 51.9996C188.6 51.9996 188.3 51.7996 188 51.4996C187.5 50.8996 187.1 50.3996 186.6 49.7996C186.2 49.1996 185.6 48.3996 185 47.4996C185.3 47.1996 185.7 46.9996 185.9 46.7996C186.2 46.5996 186.5 46.2996 186.9 45.9996V25.4996H184.1C184.1 28.4996 184 31.0996 183.9 33.2996C183.8 35.4996 183.6 37.3996 183.4 38.9996C183.2 40.5996 182.9 42.0996 182.5 43.3996C182.1 44.6996 181.6 45.8996 181 47.1996C180.4 48.3996 179.6 49.6996 178.8 50.9996C177.9 52.2996 176.9 53.7996 175.6 55.4996L174.7 54.7996C175.5 53.1996 176.2 51.6996 176.7 50.3996C177.3 49.0996 177.8 47.7996 178.2 46.5996C178.6 45.3996 179 44.0996 179.3 42.6996C179.6 41.3996 179.8 39.8996 180 38.2996C180.2 36.6996 180.3 34.7996 180.4 32.7996C180.5 30.6996 180.5 28.2996 180.5 25.4996H178.2C177.8 25.4996 177.5 25.4996 177.1 25.5996C176.7 25.6996 176.5 25.7996 176.3 25.8996L175.1 23.6996C175.5 23.7996 175.9 23.8996 176.2 23.8996C176.5 23.8996 176.9 23.9996 177.4 23.9996H183.8V7.89961C183.8 6.49961 183.8 5.29961 183.8 4.39961C183.8 3.49961 183.8 2.49961 183.7 1.59961C184.5 1.79961 185.2 1.99961 185.8 2.19961C186.3 2.39961 187 2.69961 187.7 2.99961C188.4 3.29961 188.7 3.49961 188.6 3.79961C188.5 4.09961 188 4.49961 187 5.19961V23.9996H191.2L192.3 20.9996C192.5 20.4996 192.6 20.2996 192.8 20.2996C193 20.2996 193.3 20.4996 193.6 20.9996C194.1 21.5996 194.5 22.0996 194.9 22.5996C195.3 23.0996 195.7 23.6996 196.2 24.2996C196.6 24.8996 196.7 25.1996 196.7 25.3996C196.7 25.5996 196.4 25.5996 195.9 25.5996H190.3V42.8996C191 42.1996 191.8 41.4996 192.7 40.5996C193.7 39.6996 194.8 38.6996 196.1 37.4996L196.9 37.8996ZM182.3 17.8996C182 18.9996 181.7 19.8996 181.2 20.5996C180.7 21.1996 180.3 21.4996 179.8 21.4996C179.5 21.4996 179.3 21.2996 179.2 20.9996C179.1 20.6996 178.9 19.8996 178.8 18.6996C178.7 17.5996 178.6 16.6996 178.4 15.7996C178.2 14.8996 178.1 13.9996 177.8 13.1996C177.6 12.2996 177.3 11.3996 177 10.3996C176.7 9.39961 176.2 8.29961 175.7 6.99961L176.6 6.49961C178 7.99961 179.2 9.29961 180 10.4996C180.8 11.6996 181.4 12.6996 181.8 13.5996C182.2 14.4996 182.4 15.2996 182.4 15.9996C182.4 16.5996 182.4 17.2996 182.3 17.8996ZM195.8 8.79961C196.2 9.09961 196.4 9.39961 196.5 9.69961C196.6 9.99961 196.4 10.1996 195.9 10.2996C195.6 10.3996 195.2 10.4996 195 10.4996C194.7 10.5996 194.4 10.9996 194.1 11.7996C193.8 12.5996 193.4 13.3996 193.1 14.0996C192.8 14.7996 192.4 15.5996 192 16.3996C191.6 17.1996 191.2 17.9996 190.7 18.8996C190.2 19.7996 189.7 20.7996 189 21.7996L188 21.2996C188.7 18.9996 189.5 16.6996 190.1 14.1996C190.8 11.7996 191.4 8.99961 191.9 5.99961C192.3 6.29961 192.7 6.49961 193 6.69961C193.3 6.89961 193.6 7.09961 193.9 7.29961C194.2 7.49961 194.5 7.69961 194.8 7.89961C195.1 8.29961 195.4 8.59961 195.8 8.79961ZM223.5 43.3996C223.9 43.9996 224.1 44.3996 224.1 44.6996C224 44.9996 223.7 45.0996 223.1 45.0996H209.8V55.0996C209.8 55.4996 209.6 55.8996 209.3 55.9996C208.8 56.2996 208.3 56.5996 207.9 56.6996C207.5 56.8996 207 57.0996 206.3 57.2996C206 57.3996 205.9 57.2996 205.9 56.8996C205.9 56.0996 206 55.3996 206 54.7996C206 54.1996 206.1 53.5996 206.1 53.0996C206.1 52.5996 206.1 51.9996 206.1 51.4996C206.1 50.9996 206.1 50.3996 206.1 49.6996V45.0996H197.7C197.3 45.0996 197 45.0996 196.6 45.1996C196.2 45.2996 196 45.3996 195.8 45.3996L194.9 42.7996C195.3 42.8996 195.7 42.9996 196 42.9996C196.3 42.9996 196.7 43.0996 197.2 43.0996H206.1V37.7996H201.3V38.6996C201.3 39.0996 201.2 39.3996 201 39.4996C200.4 39.7996 199.9 40.0996 199.4 40.1996C198.9 40.3996 198.4 40.4996 197.8 40.5996C197.6 40.6996 197.5 40.4996 197.5 40.1996C197.6 39.4996 197.6 38.8996 197.6 38.1996C197.6 37.4996 197.6 36.9996 197.6 36.4996V24.5996C197.6 23.6996 197.6 22.8996 197.6 22.1996C197.6 21.4996 197.5 20.7996 197.5 19.9996C198.2 20.2996 199 20.6996 199.7 20.9996C200.4 21.3996 201.2 21.7996 201.9 22.1996H206.1V17.5996H198C197.6 17.5996 197.3 17.5996 196.9 17.6996C196.5 17.7996 196.3 17.8996 196.1 17.9996L194.9 15.7996C195.3 15.8996 195.7 15.9996 196 15.9996C196.3 15.9996 196.7 16.0996 197.2 16.0996H206.1C206.1 12.6996 206 10.2996 205.9 8.69961C206.7 8.89961 207.4 9.19961 208.1 9.39961C208.7 9.59961 209.4 9.89961 210.2 10.2996C210.8 10.5996 211.2 10.8996 211.1 11.0996C211.1 11.2996 210.6 11.5996 209.8 12.0996V16.0996H215.5L217 13.8996C217.2 13.4996 217.4 13.3996 217.6 13.2996C217.8 13.2996 218 13.3996 218.4 13.7996C218.9 14.2996 219.3 14.6996 219.6 14.9996C219.9 15.2996 220.3 15.6996 220.7 16.1996C221.1 16.6996 221.3 17.0996 221.3 17.1996C221.2 17.3996 221 17.4996 220.4 17.4996H209.8V22.0996H214.9L216 20.2996C216.2 19.9996 216.3 19.7996 216.5 19.7996C216.7 19.7996 216.9 19.8996 217.1 20.0996C217.6 20.4996 218.1 20.7996 218.5 21.0996C218.9 21.3996 219.3 21.6996 219.7 21.9996C220.3 22.4996 220.5 22.8996 220.5 23.1996C220.4 23.4996 219.9 23.9996 218.9 24.4996V34.9996C218.9 35.4996 218.9 35.9996 218.9 36.4996C218.9 36.9996 218.9 37.4996 219 38.0996C219 38.4996 218.9 38.7996 218.6 38.8996C218.1 39.0996 217.7 39.2996 217.2 39.3996C216.7 39.4996 216.1 39.5996 215.4 39.7996C215.1 39.7996 215 39.5996 215 39.1996V37.9996H209.7V43.2996H217.4L219.3 40.2996C219.6 39.8996 219.8 39.6996 220 39.6996C220.2 39.6996 220.4 39.8996 220.8 40.1996C221.3 40.7996 221.8 41.2996 222.3 41.8996C222.7 42.3996 223.1 42.8996 223.5 43.3996ZM222.4 6.89961C222.8 7.29961 222.9 7.59961 222.9 7.99961C222.9 8.39961 222.6 8.59961 222 8.69961C221.7 8.69961 221.4 8.79961 221 8.79961C220.7 8.89961 220.3 8.99961 219.9 9.39961C219.5 9.69961 219 10.1996 218.4 10.8996C217.8 11.5996 217.1 12.5996 216.3 13.7996L215.5 13.4996C215.8 12.6996 216.1 11.7996 216.4 10.6996C216.7 9.69961 217 8.69961 217.2 7.79961H200.5C200.6 8.79961 200.6 9.59961 200.6 10.1996C200.6 10.7996 200.5 11.3996 200.4 11.7996C200.3 12.2996 200.2 12.6996 200 12.9996C199.8 13.2996 199.6 13.6996 199.3 13.9996C199.1 14.2996 198.8 14.4996 198.5 14.5996C198.2 14.6996 197.8 14.7996 197.5 14.7996C197.1 14.7996 196.8 14.6996 196.5 14.5996C196.2 14.4996 196 14.2996 195.8 14.0996C195.6 13.8996 195.6 13.4996 195.6 13.0996C195.6 12.5996 195.9 11.8996 196.4 10.9996C196.7 10.4996 196.9 9.99961 197.2 9.49961C197.5 8.99961 197.7 8.59961 197.9 7.99961C198.1 7.49961 198.4 6.89961 198.5 6.19961C198.7 5.49961 198.8 4.69961 199 3.79961L200 3.69961C200.1 3.99961 200.1 4.29961 200.2 4.59961C200.3 4.89961 200.3 5.19961 200.3 5.49961H216.8L217.9 3.79961C218.2 3.39961 218.4 3.19961 218.6 3.19961C218.8 3.19961 219 3.39961 219.4 3.69961C219.9 4.09961 220.4 4.59961 220.8 4.99961C221.3 5.79961 221.8 6.29961 222.4 6.89961ZM206 23.6996H201.2V29.3996H206V23.6996ZM206 30.8996H201.2V36.4996H206V30.8996ZM215 23.6996H209.7V29.3996H215V23.6996ZM215 30.8996H209.7V36.4996H215V30.8996Z" fill="white" stroke="white" stroke-width="0.2" stroke-miterlimit="10"/>
<path d="M246.8 34.3998H232.6C231.7 34.3998 231 34.4998 230.5 34.7998L229.6 32.3998C230.3 32.5998 231.2 32.6998 232.2 32.6998H262.9L264.8 29.3998C265 28.9998 265.3 28.6998 265.5 28.6998C265.8 28.6998 266.6 29.3998 268.1 30.8998C269.5 32.2998 270.3 33.2998 270.3 33.6998C270.3 34.1998 270 34.3998 269.3 34.3998H251.9V42.1998H259.9L261.8 38.2998C262.1 38.1998 262.4 38.0998 262.6 38.0998C263 38.0998 263.9 38.8998 265.4 40.3998C266.9 41.8998 267.6 42.8998 267.6 43.1998C267.6 43.5998 267.3 43.6998 266.6 43.6998H251.9V52.1998H265.6L267.8 48.3998C268.1 47.7998 268.4 47.4998 268.7 47.4998C268.9 47.4998 269.5 47.9998 270.4 48.9998C271.3 49.9998 272.1 50.8998 272.9 51.7998C273.7 52.6998 274 53.2998 274 53.5998C274 53.8998 273.7 53.9998 273.1 53.9998H230C229.1 53.9998 228.4 54.0998 227.9 54.3998L227 51.9998C227.7 52.1998 228.6 52.2998 229.6 52.2998H246.9V43.7998H235.3C234.5 43.7998 233.8 43.8998 233.2 44.1998L232.3 41.8998C233 42.0998 233.9 42.1998 234.9 42.1998H247V34.3998H246.8ZM244.7 8.4998C245.5 5.3998 246.1 2.6998 246.3 0.299805C247.7 0.699805 248.9 1.1998 250 1.7998C251.1 2.3998 251.7 2.6998 251.9 2.9998C252.1 3.1998 252.2 3.3998 252.2 3.5998C252.2 3.9998 251.9 4.1998 251.4 4.1998C250.9 4.1998 250.3 4.5998 249.7 5.2998C249.1 5.9998 248.3 7.0998 247.3 8.5998H259.5L260.7 5.9998C260.9 5.5998 261.1 5.4998 261.4 5.4998C261.7 5.4998 262.4 5.8998 263.5 6.5998C264.6 7.3998 265.4 7.9998 266 8.3998C266.5 8.8998 266.8 9.1998 266.8 9.5998C266.8 9.8998 266.2 10.4998 264.9 11.2998V20.9998C264.9 22.8998 264.9 24.1998 265 24.9998L265.1 27.2998C265.1 27.5998 264.9 27.8998 264.6 28.1998C264.2 28.4998 263.6 28.8998 262.7 29.2998C261.8 29.6998 261.1 29.8998 260.6 29.8998C260.4 29.8998 260.3 29.6998 260.3 29.1998V26.9998H239V28.0998C239 28.6998 238.9 28.9998 238.7 29.1998C238.5 29.3998 237.9 29.6998 236.8 30.0998C235.7 30.4998 235 30.6998 234.7 30.6998C234.4 30.6998 234.2 30.5998 234.2 30.2998C234.2 29.9998 234.2 29.2998 234.3 28.0998C234.4 26.8998 234.4 25.3998 234.4 23.3998V11.5998C234.4 9.6998 234.3 7.8998 234.2 5.9998C236.2 6.6998 238 7.5998 239.7 8.5998H244.7V8.4998ZM260 16.9998V10.1998H239V16.9998H260ZM260 25.2998V18.7998H239V25.2998H260Z" fill="white" stroke="white" stroke-width="0.2" stroke-miterlimit="10"/>
<path d="M26.7002 98.7004C26.5002 98.4004 26.4002 97.9004 26.2002 97.4004C26.6002 97.5004 27.8002 97.7004 30.1002 97.8004V94.1004C30.0002 93.3004 30.0002 92.6004 29.9002 91.9004C30.7002 92.0004 31.5002 92.1004 32.4002 92.3004C33.0002 92.4004 33.4002 92.6004 33.4002 92.8004C33.4002 93.0004 33.2002 93.1004 33.0002 93.1004C32.5002 93.3004 32.3002 93.4004 32.3002 93.5004V97.9004H32.7002C33.3002 96.9004 33.7002 96.4004 33.9002 96.4004C34.0002 96.4004 34.3002 96.7004 34.7002 97.2004C35.1002 97.7004 35.3002 98.1004 35.4002 98.3004C35.4002 98.6004 35.3002 98.7004 35.1002 98.7004H32.4002V100.2C34.5002 101.2 35.5002 102.1 35.5002 103C35.5002 103.5 35.3002 103.8 35.1002 104C34.9002 104.2 34.7002 104.2 34.4002 104.2C33.9002 104.2 33.6002 103.7 33.4002 102.8C33.1002 102 32.8002 101.3 32.4002 100.7V109C32.4002 111.6 32.5002 113.5 32.5002 114.6C32.5002 115 32.0002 115.2 30.9002 115.2C30.3002 115.2 30.1002 115 30.1002 114.7C30.2002 113.8 30.2002 111.9 30.2002 108.9V103.5C29.1002 105.9 28.0002 107.7 26.7002 109C26.5002 108.9 26.4002 108.9 26.4002 108.7C28.2002 105.8 29.3002 102.4 29.9002 98.6004C27.7002 98.6004 26.7002 98.6004 26.7002 98.7004ZM41.7002 93.1004C41.7002 93.3004 41.6002 93.4004 41.4002 93.5004C40.9002 93.7004 40.6002 93.9004 40.6002 94.0004L40.5002 102.3C40.5002 109 38.3002 113.2 33.9002 114.9C33.8002 114.8 33.7002 114.6 33.7002 114.5C35.4002 113 36.5002 111.4 37.2002 109.5C37.7002 108.4 38.1002 106.7 38.3002 104.4C37.7002 105.1 37.0002 105.9 36.2002 106.6C36.1002 106.8 36.1002 107.1 36.1002 107.7C36.1002 107.9 36.0002 108 35.9002 108C35.6002 108 35.0002 107.1 33.9002 105.2C34.5002 105.1 36.0002 104.5 38.3002 103.4C38.4002 102.5 38.4002 101.6 38.4002 100.6V94.9004C38.4002 93.8004 38.3002 92.9004 38.2002 92.2004C40.5002 92.5004 41.7002 92.8004 41.7002 93.1004ZM37.9002 99.8004C37.9002 100.6 37.6002 101 36.9002 101C36.3002 101 36.0002 100.7 36.0002 100.1C36.0002 99.8004 35.9002 99.3004 35.8002 98.7004C35.7002 98.1004 35.5002 97.5004 35.3002 96.8004C35.1002 96.2004 34.9002 95.8004 34.8002 95.5004C35.0002 95.4004 35.1002 95.3004 35.1002 95.3004C37.0002 96.9004 37.9002 98.4004 37.9002 99.8004ZM45.5002 93.2004C45.5002 93.3004 45.4002 93.4004 45.2002 93.5004C44.7002 93.7004 44.4002 93.8004 44.3002 93.9004V99.8004C45.3002 98.4004 45.9002 97.0004 46.3002 95.3004C46.7002 95.6004 47.4002 96.0004 48.3002 96.5004C48.8002 96.8004 49.0002 97.1004 49.0002 97.2004C49.0002 97.4004 48.8002 97.4004 48.6002 97.4004C48.1002 97.5004 47.8002 97.5004 47.6002 97.5004C47.1002 98.1004 46.6002 98.7004 46.0002 99.2004C45.4002 99.7004 44.8002 100.1 44.2002 100.5V102.8C45.3002 103.1 46.2002 103.4 47.0002 103.8C48.1002 104.4 48.7002 105 48.7002 105.6C48.7002 106.2 48.6002 106.5 48.4002 106.7C48.2002 107 47.9002 107.2 47.5002 107.2C47.3002 107.2 46.9002 106.8 46.4002 105.9C45.6002 104.8 44.9002 104 44.2002 103.6V111.5C44.3002 112.1 44.5002 112.4 44.9002 112.4H45.7002C46.4002 112.4 46.9002 111.9 47.1002 110.9C47.5002 109.7 47.7002 109 47.7002 108.6C47.8002 108.6 47.9002 108.6 48.1002 108.6C48.1002 108.6 48.2002 109.5 48.2002 111.4C48.2002 111.7 48.3002 112 48.6002 112.1C49.0002 112.4 49.2002 112.6 49.2002 112.9C49.2002 113.5 48.7002 113.9 47.9002 114.2C47.4002 114.4 46.8002 114.5 46.0002 114.5C45.1002 114.5 44.5002 114.4 44.3002 114.4C42.8002 114.3 42.1002 113.5 42.1002 112V94.6004C42.1002 93.9004 42.0002 93.1004 41.9002 92.4004C44.3002 92.6004 45.5002 92.9004 45.5002 93.2004Z" fill="white"/>
<path d="M55.7002 100.9C55.9002 101.7 56.0002 102.5 56.0002 103.4C56.0002 107.4 54.9002 109.4 52.6002 109.5C51.7002 109.5 51.2002 109.2 51.2002 108.6C51.2002 108.2 51.3002 107.9 51.4002 107.7C51.5002 107.4 52.1002 106.9 53.1002 106C54.3002 104.9 55.0002 103.2 55.3002 100.9C55.5002 100.9 55.7002 100.9 55.7002 100.9ZM62.3002 98.1998C62.3002 98.4998 61.8002 98.7998 60.8002 99.0998V110.3C60.8002 111.1 61.2002 111.5 62.1002 111.6H65.6002C66.6002 111.5 67.3002 111.1 67.6002 110.3C67.9002 109.7 68.2002 108.4 68.6002 106.3C68.9002 106.3 69.1002 106.3 69.1002 106.3V110.2C69.1002 110.6 69.4002 110.8 69.8002 110.9C70.3002 111.2 70.6002 111.5 70.6002 111.8C70.5002 112.6 69.7002 113.2 68.2002 113.5C67.1002 113.6 66.0002 113.7 64.9002 113.7C62.7002 113.7 61.2002 113.6 60.6002 113.5C59.2002 113.4 58.5002 112.2 58.5002 109.8V99.7998C58.5002 98.4998 58.4002 97.4998 58.3002 96.9998C61.0002 97.5998 62.3002 97.9998 62.3002 98.1998ZM66.8002 95.6998C66.8002 96.4998 66.6002 96.9998 66.4002 97.1998C66.2002 97.4998 65.9002 97.5998 65.5002 97.5998C64.9002 97.5998 64.3002 96.9998 63.7002 95.7998C62.8002 94.3998 61.5002 93.1998 59.7002 92.0998C59.8002 91.9998 59.8002 91.8998 59.9002 91.7998C64.4002 92.8998 66.6002 94.1998 66.8002 95.6998ZM74.3002 106.5C74.3002 107.2 74.2002 107.7 73.9002 108C73.6002 108.4 73.3002 108.5 72.8002 108.5C72.1002 108.5 71.7002 107.8 71.5002 106.4C70.9002 103.8 70.0002 101.8 68.9002 100.4L69.3002 100.1C72.6002 102.5 74.3002 104.6 74.3002 106.5Z" fill="white"/>
<path d="M84.0999 98.3001C84.8999 99.1001 85.3999 99.5001 85.4999 99.8001C85.4999 100 85.3999 100.1 85.2999 100.1H81.9999V106.9C83.0999 106.5 84.2999 106.1 85.3999 105.6C85.4999 105.8 85.4999 105.9 85.5999 106C83.7999 107.7 81.4999 109.1 78.8999 110.3C78.7999 110.5 78.6999 110.9 78.5999 111.4C78.4999 111.7 78.3999 111.8 78.2999 111.8C77.9999 111.8 77.6999 111.2 77.0999 109.9C76.8999 109.2 76.5999 108.7 76.3999 108.3C77.4999 108.1 78.5999 107.9 79.6999 107.6V100.1H79.3999C78.2999 100.1 77.4999 100.2 76.9999 100.3C76.8999 100 76.7999 99.7001 76.5999 99.3001C77.0999 99.4001 78.0999 99.5001 79.3999 99.5001H79.6999V95.6001C79.6999 94.5001 79.5999 93.6001 79.4999 92.9001C81.8999 93.3001 83.0999 93.6001 83.0999 93.8001C83.0999 94.0001 82.8999 94.2001 82.6999 94.2001C82.1999 94.4001 81.8999 94.6001 81.8999 94.7001V99.5001H82.2999C82.5999 99.0001 82.9999 98.7001 83.2999 98.3001C83.3999 98.2001 83.4999 98.1001 83.5999 98.1001C83.6999 98.1001 83.8999 98.2001 84.0999 98.3001ZM93.2999 92.4001C93.8999 92.5001 94.2999 92.7001 94.2999 92.9001C94.2999 93.1001 94.0999 93.2001 93.8999 93.2001C93.3999 93.4001 93.1999 93.5001 93.1999 93.6001V98.3001C93.9999 98.1001 94.7999 97.8001 95.6999 97.5001C96.1999 96.4001 96.5999 95.9001 96.8999 95.9001C98.4999 96.5001 99.1999 96.9001 99.1999 97.2001C99.1999 97.4001 98.9999 97.7001 98.5999 98.0001C98.3999 98.2001 98.1999 98.3001 98.0999 98.4001C97.9999 103.1 97.7999 105.9 97.3999 106.7C96.7999 107.9 95.9999 108.4 94.7999 108.4C94.5999 108.3 94.4999 108.1 94.3999 107.7C94.2999 107.2 93.9999 106.9 93.6999 106.7C93.4999 106.6 93.2999 106.5 93.0999 106.4C93.0999 107.8 93.1999 108.8 93.1999 109.5C93.1999 109.9 92.6999 110.1 91.5999 110.1C90.9999 110.1 90.7999 109.9 90.7999 109.6C90.8999 108.7 90.8999 106.8 90.8999 103.8V99.8001C89.7999 100.1 88.9999 100.4 88.1999 100.7V111.3C88.4999 111.9 89.6999 112.2 91.8999 112.2H95.9999C96.5999 112.2 96.9999 111.7 97.1999 110.7C97.4999 109.5 97.6999 108.8 97.6999 108.4C97.7999 108.4 97.8999 108.4 98.0999 108.4C98.1999 108.4 98.1999 109.3 98.1999 111.2C98.1999 111.5 98.3999 111.8 98.6999 111.9C99.1999 112.2 99.4999 112.4 99.4999 112.7C99.4999 113.3 98.9999 113.7 98.1999 113.9C96.9999 114.1 95.2999 114.2 92.9999 114.2C90.4999 114.2 88.8999 114.1 88.2999 114.1C86.7999 114 86.0999 113.2 86.0999 111.7V101.5C85.2999 101.8 84.7999 102 84.6999 102.1C84.5999 101.8 84.2999 101.4 83.8999 100.9C84.3999 100.9 85.0999 100.8 86.0999 100.5V95.8001C86.0999 95.1001 85.9999 94.3001 85.9999 93.6001C88.2999 94.0001 89.4999 94.3001 89.4999 94.6001C89.4999 94.7001 89.3999 94.8001 89.1999 94.9001C88.6999 95.1001 88.3999 95.2001 88.3999 95.3001V99.9001C89.1999 99.7001 90.0999 99.4001 91.0999 99.1001V94.4001C90.9999 93.6001 90.9999 92.9001 90.8999 92.2001C91.5999 92.1001 92.3999 92.3001 93.2999 92.4001ZM94.4999 106C95.1999 106 95.5999 105.8 95.6999 105.3C95.9999 104.5 96.0999 102.1 96.0999 98.2001C95.0999 98.5001 94.0999 98.8001 93.2999 99.1001V103.8C93.2999 104.5 93.2999 105.2 93.2999 105.8C93.5999 105.9 94.0999 106 94.4999 106Z" fill="white"/>
<path d="M121.8 92.9996C123 93.9996 123.5 94.5996 123.5 94.8996C123.5 95.0996 123.4 95.1996 123.2 95.1996H114.4V103H117.9C118.7 102 119.3 101.3 119.7 101.1C119.8 101.1 119.9 101.1 119.9 101.1C120.1 101.2 120.3 101.4 120.6 101.6C121.8 102.6 122.3 103.2 122.3 103.4C122.3 103.7 122.2 103.8 122 103.8H114.3V112.5H120C120.9 111.4 121.5 110.7 121.9 110.4C122 110.4 122.1 110.4 122.2 110.4C122.4 110.5 122.7 110.7 122.9 110.9C124.1 112 124.8 112.6 124.8 112.9C124.8 113.1 124.7 113.3 124.5 113.3H108.2C105.2 113.3 103.3 113.4 102.6 113.6C102.4 113.1 102.2 112.7 102 112.3C103.2 112.5 105.2 112.6 108.2 112.6H111.9V103.9H109.5C107.2 103.9 105.8 104 105.2 104.2C105 103.8 104.8 103.3 104.6 102.9C105.5 103.1 107 103.2 109.1 103.2H111.8V95.3996H108.7C106.1 95.3996 104.4 95.4996 103.8 95.6996C103.6 95.2996 103.4 94.7996 103.2 94.3996C104.3 94.5996 106 94.6996 108.6 94.6996H118.9C119.7 93.6996 120.3 92.9996 120.7 92.7996C120.8 92.7996 120.9 92.7996 120.9 92.7996C121.3 92.5996 121.5 92.7996 121.8 92.9996Z" fill="white"/>
<path d="M137.8 107.8L137.3 107.3C138.3 106.5 138.7 105.7 138.7 105C138.7 104.9 138.6 104.8 138.4 104.7C137.2 104.4 136.6 103.8 136.6 102.9C136.6 102.5 136.8 102.1 137.1 101.7C137.5 101.3 137.9 101.1 138.5 101.1C139.1 101.1 139.6 101.4 140 101.9C140.3 102.3 140.4 102.8 140.4 103.2C140.4 105.1 139.5 106.6 137.8 107.8Z" fill="white"/>
<path d="M155.4 94.6002H158.1C158.8 93.8002 159.2 93.4002 159.5 93.4002C159.7 93.4002 160.2 93.7002 160.9 94.2002C161.5 94.7002 161.8 95.0002 161.8 95.2002C161.8 95.4002 161.6 95.5002 161.4 95.7002C161 96.0002 160.7 96.2002 160.6 96.3002V104.3C160.7 107.4 160.8 109.4 160.8 110.3C160.8 110.9 160.3 111.1 159.5 111.1C158.8 111.1 158.5 110.9 158.5 110.6V109.1H155.7V111.1C155.6 111.6 155.1 111.9 154.3 111.9C153.8 111.9 153.5 111.8 153.4 111.6C153.4 108.8 153.4 106 153.5 103.3V97.9002C153.5 95.6002 153.4 94.2002 153.3 93.8002L155.4 94.6002ZM158.4 101.4V95.3002H155.6V101.4H158.4ZM158.4 108.5V102H155.6V108.5H158.4ZM174.7 104.2C175.1 104.6 175.2 104.8 175.2 105C175.2 105.2 175.1 105.3 174.8 105.3H171.5V111.9C171.5 113.4 170.6 114.3 168.9 114.8C168.6 114.8 168.5 114.6 168.4 114.2C168.3 113.6 167.9 113.1 167.1 112.7C166.5 112.4 165.9 112.2 165.4 112.1C165.5 111.9 165.5 111.8 165.5 111.7C166.5 111.8 167.6 111.9 168.8 111.9C169.1 111.9 169.2 111.6 169.2 111.2V105.3H164C163.2 105.3 162.5 105.4 161.8 105.5C161.6 105.1 161.4 104.7 161.3 104.3C162 104.5 162.8 104.6 163.7 104.6H169.3C169.2 103.3 169.2 102.2 169.1 101.4C169.7 101.6 170.3 101.7 170.9 101.8C171.7 101.9 172.2 102 172.3 102.1C172.5 102.2 172.5 102.3 172.5 102.5C172.5 102.7 172.2 102.8 171.8 102.9C171.5 103 171.4 103 171.4 103.1V104.7H171.8C172.5 103.8 173 103.3 173.2 103.2C173.3 103.2 173.4 103.2 173.4 103.2C173.6 103.1 174 103.5 174.7 104.2ZM172.2 94.6002C173.2 95.5002 173.7 96.0002 173.8 96.3002C173.8 96.5002 173.7 96.6002 173.6 96.6002H168.5V100.6H171C171.4 100 171.8 99.5002 172.2 99.1002C172.4 99.0002 172.5 98.9002 172.5 98.9002C172.6 98.9002 172.8 99.0002 173 99.2002C174 100.1 174.6 100.7 174.7 101C174.7 101.2 174.6 101.3 174.5 101.3H164.1C163 101.3 162.2 101.4 161.7 101.5C161.6 101.2 161.5 100.9 161.3 100.5C161.9 100.6 162.8 100.7 164.1 100.7H166.2V96.7002H164.7C163.7 96.7002 162.9 96.8002 162.3 96.9002C162.2 96.6002 162.1 96.3002 161.9 95.9002C162.4 96.0002 163.3 96.1002 164.6 96.1002H166.1V94.9002C166.1 93.8002 166 92.9002 166 92.2002C168.4 92.6002 169.6 92.9002 169.6 93.1002C169.6 93.3002 169.4 93.5002 169.2 93.5002C168.7 93.7002 168.4 93.9002 168.4 94.0002V96.0002H170.1C170.5 95.4002 170.9 95.0002 171.3 94.6002C171.4 94.5002 171.5 94.4002 171.6 94.4002C171.8 94.3002 172 94.4002 172.2 94.6002ZM165.3 107C166.4 107.7 166.9 108.5 166.9 109.5C166.9 110.1 166.7 110.5 166.4 110.7C166.2 110.9 166 110.9 165.6 110.9C165 110.9 164.7 110.4 164.5 109.4C164.2 108.5 164 107.9 163.7 107.5C163.5 107.2 163.3 106.9 163 106.5C163.1 106.4 163.1 106.3 163.2 106.2C164.2 106.4 164.8 106.6 165.3 107Z" fill="white"/>
<path d="M187.4 93.5C187.4 93.7 186.8 93.9 185.7 94.1C184.9 95.7 184.1 97.2 183.1 98.5C184.1 98.8 184.6 99 184.6 99.2C184.6 99.4 184.4 99.5 184.1 99.6C183.8 99.8 183.6 99.9 183.6 100V108.1C183.7 110.3 183.7 112.4 183.7 114.4C183.6 114.8 183.1 115 182.2 115.1C181.6 115.1 181.3 114.9 181.3 114.6C181.4 112.5 181.4 110.3 181.4 108.2V100.9C180.3 102.2 179.1 103.3 177.8 104.2C177.7 104.1 177.7 104 177.5 103.9C180.9 99.9 183 95.9 183.7 92C186.1 92.7 187.4 93.2 187.4 93.5ZM193.2 93C193.2 93.2 193.1 93.3 192.9 93.4C192.5 93.6 192.2 93.8 191.9 93.9C191.9 96.4 192 98.6 192.2 100.5C193.4 100.3 194.7 100.2 196.1 100H196C196.8 98.7 197.3 97.9 197.7 97.8C198.1 98 198.7 98.4 199.3 98.9C199.9 99.4 200.2 99.7 200.2 99.8C200.2 100.1 200.1 100.3 199.8 100.3C196.8 100.7 194.3 101 192.2 101.2C192.3 102 192.4 102.7 192.5 103.3C193.7 108.1 195.4 110.8 197.5 111.5C197.8 111.5 198.3 110.1 198.9 107.3C199.2 107.3 199.3 107.4 199.3 107.4C199.1 109 199 110.4 199 111.7C199.1 112.1 199.2 112.5 199.5 112.7C199.9 113.2 200.1 113.6 200.1 113.9C200.1 114.4 199.7 114.6 199 114.7C197.8 114.7 196.5 114.2 195.1 113.2C192.2 110.7 190.5 106.8 189.9 101.5C187 101.9 185.4 102.2 185 102.3C184.8 102 184.6 101.6 184.4 101.2C185.7 101.2 187.5 101.1 189.9 100.8C189.8 100.4 189.8 99.9 189.8 99.5C189.6 96 189.4 93.7 189.2 92.4C191.9 92.6 193.2 92.8 193.2 93ZM198 95.9C198 96.3 197.9 96.5 197.9 96.8C197.7 97.3 197.4 97.5 196.9 97.5C196.6 97.5 196.1 97.1 195.6 96.2C195 95.3 194.4 94.6 193.7 94C193.8 93.9 193.8 93.8 193.9 93.7C196.5 93.9 197.9 94.7 198 95.9Z" fill="white"/>
<path d="M206.5 108.3C207.3 106.1 207.8 103.9 208 101.5H206C205.7 102.1 205.5 102.5 205.3 102.8C205.2 103.1 204.9 103.2 204.4 103.2C203.5 103.1 203.1 102.9 203.1 102.6C204.7 99.7004 206.1 97.0004 207.2 94.5004H204C203.7 94.5004 203.4 94.6004 203.1 94.7004C202.9 94.3004 202.8 94.0004 202.7 93.8004C203.2 93.9004 203.6 93.9004 203.9 93.9004H207.1C207.9 93.1004 208.4 92.7004 208.5 92.7004C208.8 92.7004 209.2 93.0004 209.6 93.5004C210.2 94.1004 210.5 94.4004 210.5 94.6004C210.5 94.8004 210.2 95.0004 209.7 95.2004C209.4 95.3004 209.2 95.4004 209.2 95.4004C208 97.7004 207.1 99.6004 206.4 100.9H207.9C208.6 100.1 209 99.8004 209.3 99.8004C209.5 99.8004 209.9 100.1 210.4 100.6C211 101.1 211.3 101.5 211.3 101.7C211.3 101.8 211.2 101.9 210.9 102C210.4 102.2 210.1 102.4 209.9 102.6C209.4 105.6 208.7 108 207.8 109.9C208.1 110.1 208.3 110.3 208.5 110.4C210.3 111.8 214 112.4 219.7 112.4C221.8 112.4 223.8 112.3 225.4 112.1V112.6C225 112.7 224.6 112.9 224.4 113.2C224.3 113.4 224.1 113.7 224 114.1C223.9 114.5 223.7 114.7 223.3 114.7C222.3 114.7 221.1 114.7 219.5 114.7C214.3 114.5 210.5 113.7 208.3 112.2C207.8 111.9 207.5 111.6 207.1 111.2C205.9 113.2 204.5 114.5 202.8 115.1C202.8 115 202.7 114.9 202.6 114.7C204.1 113.2 205.2 111.6 206 109.8C205.1 108.4 204.4 106.7 204 104.5L204.4 104.4C205.1 106 205.8 107.3 206.5 108.3ZM222.7 94.0004C223.3 94.5004 223.6 94.9004 223.6 95.1004C223.6 95.3004 223.5 95.4004 223.2 95.5004C223 95.6004 222.8 95.8004 222.5 96.0004V97.7004H222.7C223.3 96.7004 223.7 96.2004 223.9 96.2004C224 96.2004 224.3 96.5004 224.7 97.0004C225.1 97.5004 225.3 97.9004 225.4 98.1004C225.4 98.4004 225.3 98.5004 225.1 98.5004H222.5V99.7004C222.6 100.5 222.6 101.3 222.6 101.9C222.6 102.3 222.1 102.6 221 102.6C220.5 102.6 220.3 102.4 220.3 102.1V101.8H217.6V104.4H220.3C220.7 103.9 221 103.5 221.4 103.1C221.5 103 221.6 102.9 221.7 102.9C221.8 102.9 222 103 222.2 103.2C223.1 104 223.6 104.5 223.7 104.7C223.7 104.9 223.6 105 223.5 105H217.7V105.4C217.7 106.3 217.7 107 217.8 107.7H221.3C221.7 107.1 222.1 106.7 222.5 106.3C222.6 106.2 222.7 106.1 222.8 106.1C222.9 106.1 223.1 106.2 223.3 106.4C224.3 107.3 224.8 107.8 224.9 108.1C224.9 108.3 224.8 108.4 224.7 108.4H217.8C217.8 109.6 217.8 110.5 217.9 111.1C217.9 111.5 217.4 111.7 216.3 111.7C215.8 111.7 215.5 111.5 215.5 111.2C215.5 110.6 215.5 109.7 215.6 108.4H213C211.9 108.4 211.1 108.5 210.6 108.6C210.5 108.3 210.4 108 210.2 107.6C210.7 107.7 211.7 107.8 213 107.8H215.6C215.6 107.1 215.6 106.3 215.6 105.4V105.1H213.8C212.7 105.1 211.9 105.2 211.4 105.3C211.3 105 211.2 104.7 211 104.3C211.6 104.4 212.5 104.5 213.8 104.5H215.6V102C214.1 102.1 212.9 102.1 211.9 102.2C211.7 101.8 211.6 101.4 211.5 101.1C212 101.2 213.4 101.2 215.6 101.3V98.7004H214.3C211.9 98.8004 210.6 98.8004 210.6 98.9004C210.4 98.6004 210.3 98.1004 210.1 97.6004C210.5 97.7004 211.8 97.9004 214 98.0004H215.6V95.6004H215.3C213.6 95.6004 212.3 95.7004 211.5 95.8004C211.4 95.5004 211.3 95.2004 211.2 94.8004C211.9 94.9004 213.3 95.0004 215.5 95.0004H215.6V94.6004C215.5 93.8004 215.5 93.1004 215.4 92.4004C216.2 92.5004 217 92.6004 217.9 92.8004C218.5 92.9004 218.9 93.1004 218.9 93.3004C218.9 93.5004 218.7 93.6004 218.5 93.6004C218 93.8004 217.8 93.9004 217.8 94.0004V95.1004H220.2C220.9 94.2004 221.4 93.8004 221.6 93.8004C221.7 93.3004 222.1 93.5004 222.7 94.0004ZM217.6 97.6004H220.3V95.2004H217.6V97.6004ZM217.6 101C217.7 101 217.8 101 218 101H220.3V98.4004H217.6V101Z" fill="white"/>
<path d="M248.8 105.9C249.9 106.8 250.4 107.4 250.4 107.6C250.4 107.9 250.3 108 250.1 108H241.6C242.8 109.1 244 109.9 245.4 110.4C246.9 111 248.5 111.3 250.5 111.3C250.5 111.5 250.4 111.7 250.4 111.8C250.2 111.9 250 112 249.7 112.3C249.6 112.5 249.4 112.8 249.2 113.3C249.1 113.6 248.9 113.8 248.7 113.8C247.9 113.8 246.5 113.2 244.7 112.1C243.1 111.1 241.8 109.8 240.9 108.1H240.5L240.6 114.2C240.5 114.7 240.1 115 239.1 115C238.3 115 238 114.8 238 114.4C238 112.5 238.1 110.7 238.1 109.1C236.3 111.1 232.9 112.7 227.9 113.9C227.8 113.9 227.7 113.7 227.6 113.5C231.7 112 234.4 110.4 235.6 108.7C235.8 108.5 236 108.3 236.1 108.1H234.2C231.3 108.1 229.4 108.2 228.7 108.4C228.5 108 228.3 107.5 228.1 107.1C229.3 107.3 231.4 107.4 234.3 107.4H238.1V107C238 106.2 238 105.5 238 105.1C237.2 105.4 236.4 105.6 235.6 105.7C235.6 105.6 235.5 105.5 235.4 105.4C237.4 104.7 238.9 103.6 239.8 102.2C239.1 101.7 238.5 101.4 237.8 101.1C237.8 101 237.9 100.9 238 100.7C238.9 100.8 239.6 101 240.3 101.1C240.5 100.5 240.6 99.8998 240.7 99.3998C239.7 99.4998 239 99.4998 238.7 99.5998C238.5 99.1998 238.3 98.7998 238.2 98.3998C238.6 98.5998 239.4 98.6998 240.6 98.6998H244.9C245.2 98.2998 245.4 97.9998 245.6 97.7998H245.5C245 97.7998 244.8 97.4998 244.7 96.9998C244.6 96.8998 244.6 96.6998 244.6 96.3998C244.5 96.1998 244.5 95.9998 244.4 95.6998C244.2 95.3998 244.1 95.1998 244 95.0998H242.1C241.9 95.2998 241.6 95.4998 241.4 95.6998C240.6 96.4998 239.7 97.0998 238.7 97.5998C238.7 97.4998 238.6 97.3998 238.5 97.2998C240.1 95.3998 241.1 93.5998 241.5 91.7998C243.6 92.4998 244.7 92.8998 244.7 93.1998C244.7 93.3998 244.2 93.5998 243.2 93.6998C243 93.9998 242.8 94.1998 242.7 94.3998H247.1C247.7 93.4998 248.2 92.9998 248.5 92.7998C248.5 92.7998 248.6 92.6998 248.7 92.6998C248.9 92.7998 249.2 92.9998 249.7 93.3998C250.3 93.9998 250.7 94.3998 250.8 94.5998C250.8 94.8998 250.7 94.9998 250.6 94.9998H245.3C246.3 95.3998 246.8 95.8998 246.8 96.4998C246.8 96.8998 246.6 97.1998 246.4 97.2998C246.8 97.4998 247.1 97.6998 247.6 97.9998C248.2 98.4998 248.5 98.7998 248.5 98.8998C248.5 99.1998 248.1 99.4998 247.5 99.8998V102.2C247.5 102.8 247.8 103.1 248.2 103.1C248.2 103.2 248.2 103.2 248.3 103.2C248.9 103.1 249.2 103 249.2 102.8C249.5 102.5 249.7 101.8 249.8 100.7C249.8 100.8 250 100.8 250.3 100.8C250.3 101.2 250.3 101.7 250.3 102.2C250.3 102.5 250.4 102.7 250.6 102.8C251 103 251.2 103.2 251.2 103.6C251.2 103.9 251.1 104.1 251 104.3C250.7 104.8 250.3 105.1 249.5 105.2C249.2 105.3 248.9 105.3 248.5 105.3C248.1 105.3 247.9 105.3 247.6 105.2C246.2 105.2 245.4 104.4 245.3 102.9V99.0998H243C242.8 100.2 242.6 100.9 242.4 101.3C242.4 101.4 242.3 101.4 242.3 101.4C243.7 102 244.4 102.7 244.4 103.5C244.4 103.7 244.3 103.9 244.3 104.1C244.2 104.4 244 104.6 243.5 104.6C243.2 104.6 242.7 104.2 242 103.5C241.7 103.3 241.5 103.1 241.3 102.9C240.5 103.7 239.6 104.3 238.4 104.7C240.8 105.1 242 105.5 242 105.7C242 105.9 241.8 106 241.5 106.2C241 106.5 240.7 106.6 240.7 106.7V107H246.5C247.3 106 247.8 105.5 248.1 105.3C248.2 105.3 248.2 105.3 248.3 105.3C248.4 105.6 248.6 105.7 248.8 105.9ZM232.4 95.0998C231.2 96.5998 229.8 97.7998 228.2 98.5998C228 98.4998 227.9 98.3998 227.8 98.2998C229.5 96.5998 230.8 94.3998 231.5 91.7998C233.6 92.4998 234.7 92.8998 234.7 93.0998C234.7 93.3998 234.3 93.5998 233.4 93.6998C233.2 93.9998 233 94.1998 232.9 94.4998H236.2C236.9 93.5998 237.3 93.0998 237.6 92.8998C237.7 92.8998 237.7 92.7998 237.8 92.7998C238 92.8998 238.3 93.0998 238.8 93.4998C239.4 94.0998 239.8 94.4998 239.9 94.6998C239.9 94.9998 239.8 95.0998 239.7 95.0998H234.2C235.5 95.4998 236.1 96.0998 236.1 96.9998C236.1 97.6998 235.7 98.0998 235 98.0998C234.5 98.0998 234.3 97.7998 234.2 97.2998C234.1 97.1998 234.1 96.8998 234.1 96.5998C234.1 96.3998 234 96.0998 233.9 95.8998C233.7 95.4998 233.6 95.2998 233.4 95.0998H232.4ZM231.6 99.6998C230.5 99.6998 229.7 99.7998 229.2 99.8998C229.1 99.5998 229 99.2998 228.8 98.8998C229.3 98.9998 230.3 99.0998 231.6 99.0998H235.1C235.4 98.5998 235.8 98.1998 236.1 97.8998C236.2 97.7998 236.3 97.6998 236.4 97.6998C236.5 97.6998 236.6 97.7998 236.8 97.8998C237.6 98.5998 238.1 99.0998 238.2 99.2998C238.2 99.4998 238.1 99.5998 238 99.5998H234.4V102.8C235.7 102.7 236.9 102.5 237.8 102.3C237.8 102.3 237.9 102.4 237.9 102.5C236 103.5 233.3 104.4 229.8 105.1C229.8 105.5 229.7 105.7 229.6 105.7C229.5 105.7 229.3 105.5 229.1 105.1C228.9 104.7 228.6 104.1 228.2 103.2C229.6 103.1 230.9 103.1 232.2 103V99.5998L231.6 99.6998Z" fill="white"/>
<path d="M5 75.5996H273.9" stroke="#D8B165" stroke-width="0.35" stroke-miterlimit="10"/>
<path d="M5 127.6H273.9" stroke="#D8B165" stroke-width="0.35" stroke-miterlimit="10"/>
</svg>
