<?xml version="1.0" encoding="utf-8"?>
<!-- Generator: Adobe Illustrator 25.2.3, SVG Export Plug-In . SVG Version: 6.00 Build 0)  -->
<svg version="1.1" id="圖層_1" xmlns="http://www.w3.org/2000/svg" xmlns:xlink="http://www.w3.org/1999/xlink" x="0px" y="0px"
	 viewBox="0 0 380 13" style="enable-background:new 0 0 380 13;" xml:space="preserve">
<style type="text/css">
	.st0{fill:#00404B;}
</style>
<path class="st0" d="M2.6,3.6C2.6,4,2.4,4.3,2,4.5C1.7,4.7,1.3,4.7,0.8,4.7c-0.1,0-0.3,0-0.8,0V0.6h0.7c0.4,0,0.7,0.1,1,0.2
	C2,1,2.2,1.2,2.2,1.5c0,0.2-0.1,0.4-0.2,0.6C1.8,2.3,1.7,2.4,1.5,2.5C1.8,2.6,2,2.7,2.2,2.8C2.5,3,2.6,3.3,2.6,3.6z M2.2,3.6
	c0-0.3-0.1-0.6-0.3-0.8C1.7,2.7,1.5,2.6,1.2,2.6H1V2.5h0.2c0.3,0,0.5-0.1,0.6-0.3C1.9,2,2,1.8,2,1.6C2,1,1.6,0.7,0.8,0.7H0.6v3.9
	h0.2C1.7,4.6,2.2,4.3,2.2,3.6z"/>
<path class="st0" d="M5.8,3.1H4.2V3h1.2c0-0.5-0.2-0.8-0.6-0.8c-0.3,0-0.5,0.1-0.6,0.3C4,2.8,4,3.1,4,3.4c0,0.4,0.1,0.7,0.2,0.9
	c0.2,0.2,0.4,0.3,0.7,0.3c0.3,0,0.6-0.1,0.8-0.4l0.1,0.2C5.6,4.6,5.3,4.8,4.9,4.8S4.2,4.7,4,4.4C3.7,4.1,3.6,3.8,3.6,3.5
	c0-0.4,0.1-0.7,0.4-0.9c0.2-0.3,0.5-0.4,0.9-0.4c0.3,0,0.5,0.1,0.7,0.3C5.7,2.6,5.8,2.8,5.8,3.1z"/>
<path class="st0" d="M8.6,3v1.7H8.2V4.5C8.1,4.7,7.8,4.7,7.6,4.7C7.3,4.7,7.1,4.6,7,4.5C6.8,4.4,6.7,4.1,6.7,3.9
	c0-0.3,0.1-0.5,0.3-0.6c0.2-0.1,0.4-0.2,0.6-0.2c0.1,0,0.1,0,0.2,0c0.1,0,0.2,0.1,0.3,0.1L8,3.3C7.9,3.2,7.7,3.2,7.6,3.2
	c-0.2,0-0.3,0.1-0.4,0.2C7,3.5,7,3.7,7,4c0,0.2,0.1,0.4,0.2,0.5c0.1,0.1,0.2,0.2,0.4,0.2c0.3,0,0.5-0.1,0.6-0.4V3
	c0-0.6-0.2-0.8-0.6-0.8C7.4,2.2,7.2,2.3,7,2.4L6.9,2.3c0.2-0.1,0.4-0.2,0.7-0.2C8.2,2.1,8.6,2.4,8.6,3z"/>
<path class="st0" d="M11.7,4.7h-0.4V4.3c-0.2,0.3-0.5,0.5-0.8,0.5c-0.6,0-0.9-0.3-0.9-0.9V2.2H10v1.7c0,0.5,0.2,0.8,0.6,0.8
	c0.2,0,0.4-0.1,0.6-0.4c0.1-0.1,0.1-0.3,0.2-0.5V2.1h0.4v2.6H11.7z"/>
<path class="st0" d="M13.3,2.2v1.6c0,0.3,0,0.4,0.1,0.6c0.1,0.1,0.2,0.2,0.4,0.2v0.1c-0.6,0-0.9-0.3-0.9-0.8V2.3h-0.2V2.2h0.2V1.9
	h0.4V2.2z"/>
<path class="st0" d="M17,2.1l-1.4,3.6h-0.1l0.4-1.1L14.8,2h0.4l0.9,2.1L16.9,2L17,2.1L17,2.1z"/>
<path class="st0" d="M19.5,4.7h-0.4v-4h0.4V4.7z"/>
<path class="st0" d="M21,1c0,0.1,0,0.1-0.1,0.2c-0.1,0.1-0.1,0.1-0.2,0.1c-0.1,0-0.1,0-0.2-0.1c0,0-0.1-0.1-0.1-0.2
	c0-0.1,0-0.1,0.1-0.2c0,0,0.1-0.1,0.2-0.1c0.1,0,0.1,0,0.2,0.1C21,0.8,21,0.9,21,1z M21,4.7h-0.4V2.1H21V4.7z"/>
<path class="st0" d="M24.2,3.1h-1.6V3h1.2c0-0.5-0.2-0.8-0.6-0.8c-0.3,0-0.5,0.1-0.6,0.3c-0.2,0.2-0.2,0.5-0.2,0.9s0.1,0.7,0.2,0.9
	c0.2,0.2,0.4,0.3,0.7,0.3c0.3,0,0.6-0.1,0.8-0.4l0.1,0.2c-0.2,0.2-0.5,0.4-0.9,0.4c-0.4,0-0.7-0.1-0.9-0.4C22.1,4.1,22,3.8,22,3.5
	c0-0.4,0.1-0.7,0.4-0.9c0.2-0.3,0.5-0.4,0.9-0.4c0.3,0,0.5,0.1,0.7,0.3C24.1,2.6,24.2,2.8,24.2,3.1z"/>
<path class="st0" d="M26.6,4.1c0,0.2-0.1,0.4-0.2,0.5s-0.3,0.2-0.5,0.2c-0.3,0-0.5-0.1-0.7-0.3l0.1-0.2c0.2,0.2,0.4,0.3,0.6,0.3
	c0.1,0,0.3,0,0.4-0.1c0.1-0.1,0.1-0.2,0.1-0.4s-0.1-0.3-0.2-0.4c-0.1-0.1-0.3-0.2-0.5-0.3c-0.3-0.2-0.4-0.4-0.4-0.7
	c0-0.2,0.1-0.3,0.2-0.5c0.1-0.1,0.3-0.1,0.5-0.1c0.1,0,0.2,0,0.4,0.1c0.1,0.1,0.2,0.1,0.3,0.2l-0.1,0.1c-0.2-0.2-0.3-0.3-0.5-0.3
	c-0.3,0-0.4,0.1-0.4,0.3c0,0.2,0.1,0.3,0.3,0.5c0.3,0.2,0.5,0.3,0.6,0.4C26.5,3.6,26.6,3.8,26.6,4.1z"/>
<path class="st0" d="M29.2,1c0,0.1,0,0.1-0.1,0.2C29,1.3,29,1.3,28.9,1.3s-0.1,0-0.2-0.1c-0.1,0-0.1-0.1-0.1-0.2
	c0-0.1,0-0.1,0.1-0.2c0,0,0.1-0.1,0.2-0.1s0.1,0,0.2,0.1C29.2,0.8,29.2,0.9,29.2,1z M29.2,4.7h-0.4V2.1h0.4V4.7z"/>
<path class="st0" d="M32.4,4.7H32V3c0-0.5-0.2-0.8-0.6-0.8s-0.6,0.2-0.8,0.7v1.8h-0.4V2.1h0.4v0.4c0.2-0.3,0.5-0.4,0.8-0.4
	c0.3,0,0.5,0.1,0.7,0.2c0.2,0.1,0.2,0.4,0.2,0.7v1.7H32.4z"/>
<path class="st0" d="M35.2,2.2v1.6c0,0.3,0,0.4,0.1,0.6c0.1,0.1,0.2,0.2,0.4,0.2v0.1c-0.6,0-0.9-0.3-0.9-0.8V2.3h-0.2V2.2h0.2V1.9
	h0.4V2.2z"/>
<path class="st0" d="M38.7,4.7h-0.4V3c0-0.5-0.2-0.8-0.6-0.8c-0.4,0-0.6,0.2-0.8,0.7v1.8h-0.4v-4H37v1.8c0.2-0.3,0.5-0.4,0.8-0.4
	s0.5,0.1,0.7,0.2c0.2,0.1,0.2,0.4,0.2,0.7V4.7z"/>
<path class="st0" d="M42,3.1h-1.6V3h1.2c0-0.5-0.2-0.8-0.6-0.8c-0.3,0-0.5,0.1-0.6,0.3c-0.2,0.2-0.2,0.5-0.2,0.9s0.1,0.7,0.2,0.9
	c0.2,0.2,0.4,0.3,0.7,0.3c0.3,0,0.6-0.1,0.8-0.4L42,4.4c-0.2,0.2-0.5,0.4-0.9,0.4c-0.4,0-0.7-0.1-0.9-0.4c-0.3-0.3-0.4-0.6-0.4-0.9
	c0-0.4,0.1-0.7,0.4-0.9c0.2-0.3,0.5-0.4,0.9-0.4c0.3,0,0.5,0.1,0.7,0.3C41.9,2.6,42,2.8,42,3.1z"/>
<path class="st0" d="M46.2,4.4c-0.3,0.2-0.6,0.4-0.9,0.4c-0.4,0-0.7-0.1-0.9-0.4C44.1,4.1,44,3.8,44,3.5c0-0.4,0.1-0.7,0.4-0.9
	c0.3-0.3,0.6-0.4,0.9-0.4s0.6,0.1,0.8,0.3L46,2.7c-0.2-0.2-0.4-0.3-0.7-0.3s-0.5,0.1-0.7,0.4c-0.2,0.2-0.3,0.5-0.3,0.8
	s0.1,0.6,0.2,0.8c0.2,0.2,0.4,0.4,0.7,0.4s0.6-0.1,0.8-0.4H46.2z"/>
<path class="st0" d="M49.4,3.4c0,0.4-0.1,0.7-0.4,0.9c-0.3,0.3-0.6,0.4-0.9,0.4c-0.4,0-0.7-0.1-0.9-0.4c-0.3-0.3-0.4-0.6-0.4-0.9
	c0-0.4,0.1-0.7,0.4-0.9c0.3-0.3,0.6-0.4,0.9-0.4c0.4,0,0.7,0.1,0.9,0.4C49.3,2.7,49.4,3,49.4,3.4z M49,3.4c0-0.3-0.1-0.6-0.3-0.8
	s-0.4-0.3-0.6-0.3c-0.3,0-0.5,0.1-0.6,0.3s-0.3,0.5-0.3,0.8s0.1,0.6,0.3,0.8s0.4,0.4,0.6,0.4c0.2,0,0.5-0.1,0.6-0.4
	C48.9,4,49,3.7,49,3.4z"/>
<path class="st0" d="M53.9,4.7h-0.4V2.9c0-0.3,0-0.4-0.1-0.5c-0.1-0.1-0.2-0.2-0.4-0.2c-0.3,0-0.5,0.2-0.7,0.6v0.1v1.8H52V2.9
	c0-0.3,0-0.4-0.1-0.5c-0.1-0.1-0.2-0.2-0.4-0.2c-0.1,0-0.3,0.1-0.4,0.2c-0.1,0.1-0.2,0.3-0.3,0.5v1.8h-0.4V2.1h0.4v0.4
	c0.2-0.3,0.5-0.4,0.7-0.4c0.4,0,0.7,0.1,0.8,0.4c0.2-0.3,0.5-0.4,0.8-0.4c0.6,0,0.8,0.3,0.8,0.8V4.7z"/>
<path class="st0" d="M57.2,3.4c0,0.4-0.1,0.7-0.3,0.9c-0.2,0.2-0.5,0.4-0.8,0.4c-0.3,0-0.5-0.1-0.6-0.3v0.2H55v-4h0.4V4
	c0,0.2,0.1,0.3,0.2,0.4c0.1,0.1,0.2,0.2,0.4,0.2s0.4-0.1,0.6-0.3c0.1-0.2,0.2-0.5,0.2-0.9s-0.1-0.6-0.2-0.9
	c-0.1-0.2-0.3-0.3-0.6-0.3c-0.1,0-0.2,0-0.4,0.1l-0.1-0.1c0.1-0.1,0.3-0.1,0.5-0.1c0.3,0,0.6,0.1,0.8,0.4S57.2,3,57.2,3.4z"/>
<path class="st0" d="M58.7,1c0,0.1,0,0.1-0.1,0.2c-0.1,0.1-0.1,0.1-0.2,0.1c-0.1,0-0.1,0-0.2-0.1c0,0-0.1-0.1-0.1-0.2
	c0-0.1,0-0.1,0.1-0.2c0.1,0,0.1-0.1,0.2-0.1c0.1,0,0.1,0,0.2,0.1C58.6,0.8,58.7,0.9,58.7,1z M58.6,4.7h-0.4V2.1h0.4V4.7z"/>
<path class="st0" d="M61.8,4.7h-0.4V3c0-0.5-0.2-0.8-0.6-0.8c-0.4,0-0.6,0.2-0.8,0.7v1.8h-0.4V2.1H60v0.4c0.2-0.3,0.5-0.4,0.8-0.4
	s0.5,0.1,0.7,0.2c0.2,0.1,0.2,0.4,0.2,0.7L61.8,4.7L61.8,4.7z"/>
<path class="st0" d="M64.7,3v1.7h-0.4V4.5c-0.1,0.2-0.4,0.2-0.6,0.2c-0.3,0-0.5-0.1-0.6-0.2c-0.2-0.1-0.3-0.4-0.3-0.6
	c0-0.3,0.1-0.5,0.3-0.6c0.2-0.1,0.4-0.2,0.6-0.2c0.1,0,0.1,0,0.2,0c0.1,0,0.2,0.1,0.3,0.1l-0.1,0.1c-0.1-0.1-0.3-0.1-0.4-0.1
	c-0.2,0-0.3,0.1-0.4,0.2c-0.1,0.1-0.1,0.3-0.1,0.5c0,0.2,0.1,0.4,0.2,0.5c0.1,0.1,0.2,0.2,0.4,0.2c0.3,0,0.5-0.1,0.6-0.4V3
	c0-0.6-0.2-0.8-0.6-0.8c-0.2,0-0.4,0.1-0.6,0.2l-0.1-0.1c0.2-0.1,0.4-0.2,0.7-0.2C64.4,2.1,64.7,2.4,64.7,3z"/>
<path class="st0" d="M66.3,2.2v1.6c0,0.3,0,0.4,0.1,0.6c0.1,0.1,0.2,0.2,0.4,0.2v0.1c-0.6,0-0.9-0.3-0.9-0.8V2.3h-0.2V2.2h0.2V1.9
	h0.4V2.2z"/>
<path class="st0" d="M68.1,1c0,0.1,0,0.1-0.1,0.2c-0.1,0.1-0.1,0.1-0.2,0.1c-0.1,0-0.1,0-0.2-0.1c-0.1,0-0.1-0.1-0.1-0.2
	c0-0.1,0-0.1,0.1-0.2c0,0,0.1-0.1,0.2-0.1c0.1,0,0.1,0,0.2,0.1C68.1,0.8,68.1,0.9,68.1,1z M68.1,4.7h-0.4V2.1h0.4V4.7z"/>
<path class="st0" d="M71.7,3.4c0,0.4-0.1,0.7-0.4,0.9c-0.3,0.3-0.6,0.4-0.9,0.4c-0.4,0-0.7-0.1-0.9-0.4c-0.3-0.3-0.4-0.6-0.4-0.9
	c0-0.4,0.1-0.7,0.4-0.9c0.3-0.3,0.6-0.4,0.9-0.4c0.4,0,0.7,0.1,0.9,0.4C71.6,2.7,71.7,3,71.7,3.4z M71.3,3.4c0-0.3-0.1-0.6-0.3-0.8
	s-0.4-0.3-0.6-0.3c-0.3,0-0.5,0.1-0.6,0.3c-0.2,0.2-0.3,0.5-0.3,0.8s0.1,0.6,0.3,0.8c0.2,0.2,0.4,0.4,0.6,0.4c0.2,0,0.5-0.1,0.6-0.4
	C71.2,4,71.3,3.7,71.3,3.4z"/>
<path class="st0" d="M74.8,4.7h-0.4V3c0-0.5-0.2-0.8-0.6-0.8c-0.4,0-0.6,0.2-0.8,0.7v1.8h-0.4V2.1H73v0.4c0.2-0.3,0.5-0.4,0.8-0.4
	c0.3,0,0.5,0.1,0.7,0.2c0.2,0.1,0.2,0.4,0.2,0.7v1.7H74.8z"/>
<path class="st0" d="M79.7,3.4c0,0.4-0.1,0.7-0.4,0.9c-0.3,0.3-0.6,0.4-0.9,0.4c-0.4,0-0.7-0.1-0.9-0.4c-0.3-0.3-0.4-0.6-0.4-0.9
	c0-0.4,0.1-0.7,0.4-0.9c0.3-0.3,0.6-0.4,0.9-0.4c0.4,0,0.7,0.1,0.9,0.4C79.5,2.7,79.7,3,79.7,3.4z M79.2,3.4c0-0.3-0.1-0.6-0.3-0.8
	c-0.2-0.2-0.4-0.3-0.6-0.3c-0.3,0-0.5,0.1-0.6,0.3c-0.2,0.2-0.3,0.5-0.3,0.8s0.1,0.6,0.3,0.8c0.2,0.2,0.4,0.4,0.6,0.4
	c0.2,0,0.5-0.1,0.6-0.4C79.2,4,79.2,3.7,79.2,3.4z"/>
<path class="st0" d="M81.1,2.2v2.5h-0.4V2.2h-0.2V2.1h0.2V1.5c0-0.6,0.3-0.8,0.9-0.8v0.1c-0.2,0-0.3,0.1-0.4,0.2
	c-0.1,0.1-0.1,0.3-0.1,0.6V2.2z"/>
<path class="st0" d="M85.9,4.7h-0.4V3c0-0.5-0.2-0.8-0.6-0.8s-0.6,0.2-0.8,0.7v1.8h-0.4V2.1h0.4v0.4c0.2-0.3,0.5-0.4,0.8-0.4
	c0.3,0,0.5,0.1,0.7,0.2c0.2,0.1,0.2,0.4,0.2,0.7L85.9,4.7L85.9,4.7z"/>
<path class="st0" d="M88.8,3v1.7h-0.4V4.5c-0.1,0.2-0.4,0.2-0.6,0.2c-0.3,0-0.5-0.1-0.6-0.2c-0.2-0.1-0.3-0.4-0.3-0.6
	c0-0.3,0.1-0.5,0.3-0.6c0.2-0.1,0.4-0.2,0.6-0.2c0.1,0,0.1,0,0.2,0s0.2,0.1,0.3,0.1l-0.1,0.1c-0.1-0.1-0.3-0.1-0.4-0.1
	c-0.2,0-0.3,0.1-0.4,0.2c-0.1,0.1-0.1,0.3-0.1,0.5c0,0.2,0.1,0.4,0.2,0.5c0.1,0.1,0.2,0.2,0.4,0.2c0.3,0,0.5-0.1,0.6-0.4V3
	c0-0.6-0.2-0.8-0.6-0.8c-0.2,0-0.4,0.1-0.6,0.2l-0.1-0.1c0.2-0.1,0.4-0.2,0.7-0.2C88.5,2.1,88.8,2.4,88.8,3z"/>
<path class="st0" d="M90.8,2.2h-0.5v1.6c0,0.3,0,0.4,0.1,0.6c0.1,0.1,0.2,0.2,0.4,0.2v0.1c-0.6,0-0.9-0.3-0.9-0.8V2.3h-0.2V2.2H90
	V1.9h0.4v0.3H90.8L90.8,2.2z"/>
<path class="st0" d="M93.8,4.7h-0.4V4.3c-0.2,0.3-0.5,0.5-0.8,0.5c-0.6,0-0.9-0.3-0.9-0.9V2.2h0.4v1.7c0,0.5,0.2,0.8,0.6,0.8
	c0.2,0,0.4-0.1,0.6-0.4c0.1-0.1,0.1-0.3,0.2-0.5V2.1h0.4L93.8,4.7L93.8,4.7z"/>
<path class="st0" d="M96.1,2.2L96,2.4c-0.1-0.1-0.2-0.1-0.3-0.1c-0.1,0-0.1,0-0.2,0c-0.2,0.1-0.3,0.4-0.3,0.7v1.7h-0.4V2.1h0.4v0.3
	c0.1-0.1,0.1-0.2,0.2-0.2c0.1-0.1,0.2-0.1,0.3-0.1C95.9,2.1,96,2.1,96.1,2.2z"/>
<path class="st0" d="M98.8,3v1.7h-0.4V4.5c-0.1,0.2-0.4,0.2-0.6,0.2c-0.3,0-0.5-0.1-0.6-0.2c-0.2-0.1-0.3-0.4-0.3-0.6
	c0-0.3,0.1-0.5,0.3-0.6c0.2-0.1,0.4-0.2,0.6-0.2c0.1,0,0.1,0,0.2,0s0.2,0.1,0.3,0.1l-0.1,0.1c-0.1-0.1-0.3-0.1-0.4-0.1
	c-0.2,0-0.3,0.1-0.4,0.2c-0.1,0.1-0.1,0.3-0.1,0.5c0,0.2,0.1,0.4,0.2,0.5c0.1,0.1,0.2,0.2,0.4,0.2c0.3,0,0.5-0.1,0.6-0.4V3
	c0-0.6-0.2-0.8-0.6-0.8c-0.2,0-0.4,0.1-0.6,0.2l-0.1-0.1c0.2-0.1,0.4-0.2,0.7-0.2C98.4,2.1,98.8,2.4,98.8,3z"/>
<path class="st0" d="M100.2,4.7h-0.4v-4h0.4V4.7z"/>
<path class="st0" d="M102.8,4.7h-0.4v-4h0.4V4.7z"/>
<path class="st0" d="M105.7,3v1.7h-0.4V4.5c-0.1,0.2-0.4,0.2-0.6,0.2c-0.3,0-0.5-0.1-0.6-0.2c-0.2-0.1-0.3-0.4-0.3-0.6
	c0-0.3,0.1-0.5,0.3-0.6c0.2-0.1,0.4-0.2,0.6-0.2c0.1,0,0.1,0,0.2,0s0.2,0.1,0.3,0.1l-0.1,0.1c-0.1-0.1-0.3-0.1-0.4-0.1
	c-0.2,0-0.3,0.1-0.4,0.2c-0.1,0.1-0.1,0.3-0.1,0.5c0,0.2,0.1,0.4,0.2,0.5c0.1,0.1,0.2,0.2,0.4,0.2c0.3,0,0.5-0.1,0.6-0.4V3
	c0-0.6-0.2-0.8-0.6-0.8c-0.2,0-0.4,0.1-0.6,0.2l-0.1-0.1c0.2-0.1,0.4-0.2,0.7-0.2C105.4,2.1,105.7,2.4,105.7,3z"/>
<path class="st0" d="M108.9,4.7h-0.4V3c0-0.5-0.2-0.8-0.6-0.8s-0.6,0.2-0.8,0.7v1.8h-0.4V2.1h0.4v0.4c0.2-0.3,0.5-0.4,0.8-0.4
	c0.3,0,0.5,0.1,0.7,0.2c0.2,0.1,0.2,0.4,0.2,0.7L108.9,4.7L108.9,4.7z"/>
<path class="st0" d="M112.1,4.7h-0.4V4.5c-0.2,0.2-0.4,0.3-0.6,0.3c-0.3,0-0.6-0.1-0.8-0.4c-0.2-0.3-0.3-0.6-0.3-0.9
	c0-0.4,0.1-0.7,0.3-0.9c0.2-0.3,0.5-0.4,0.8-0.4c0.1,0,0.3,0,0.5,0.1l-0.1,0.2c-0.1-0.1-0.3-0.1-0.4-0.1c-0.2,0-0.4,0.1-0.5,0.3
	c-0.2,0.2-0.2,0.5-0.2,0.9c0,0.4,0.1,0.6,0.2,0.9c0.1,0.2,0.3,0.3,0.6,0.3c0.1,0,0.3-0.1,0.4-0.2c0.1-0.1,0.2-0.2,0.2-0.4V0.8h0.4
	L112.1,4.7L112.1,4.7z"/>
<path class="st0" d="M114.6,4.1c0,0.2-0.1,0.4-0.2,0.5s-0.3,0.2-0.5,0.2c-0.3,0-0.5-0.1-0.7-0.3l0.1-0.2c0.2,0.2,0.4,0.3,0.6,0.3
	c0.1,0,0.3,0,0.3-0.1c0.1-0.1,0.1-0.2,0.1-0.4s-0.1-0.3-0.2-0.4s-0.3-0.2-0.5-0.3c-0.3-0.2-0.4-0.4-0.4-0.7c0-0.2,0.1-0.3,0.2-0.5
	c0.1-0.1,0.3-0.1,0.5-0.1c0.1,0,0.2,0,0.4,0.1c0.1,0.1,0.2,0.1,0.3,0.2l-0.1,0.1c-0.2-0.2-0.3-0.3-0.5-0.3c-0.3,0-0.4,0.1-0.4,0.3
	c0,0.2,0.1,0.3,0.3,0.5c0.3,0.2,0.5,0.3,0.6,0.4C114.5,3.6,114.6,3.8,114.6,4.1z"/>
<path class="st0" d="M117.7,4.4c-0.3,0.2-0.6,0.4-0.9,0.4c-0.4,0-0.7-0.1-0.9-0.4c-0.3-0.3-0.4-0.6-0.4-0.9c0-0.4,0.1-0.7,0.4-0.9
	c0.3-0.3,0.6-0.4,0.9-0.4c0.3,0,0.6,0.1,0.8,0.3l-0.1,0.2c-0.2-0.2-0.4-0.3-0.7-0.3c-0.3,0-0.5,0.1-0.7,0.4
	c-0.2,0.2-0.3,0.5-0.3,0.8s0.1,0.6,0.2,0.8c0.2,0.2,0.4,0.4,0.7,0.4c0.3,0,0.6-0.1,0.8-0.4H117.7z"/>
<path class="st0" d="M120.3,3v1.7h-0.4V4.5c-0.1,0.2-0.4,0.2-0.6,0.2c-0.3,0-0.5-0.1-0.6-0.2c-0.2-0.1-0.3-0.4-0.3-0.6
	c0-0.3,0.1-0.5,0.3-0.6c0.2-0.1,0.4-0.2,0.6-0.2c0.1,0,0.1,0,0.2,0s0.2,0.1,0.3,0.1l-0.1,0.1c-0.1-0.1-0.3-0.1-0.4-0.1
	c-0.2,0-0.3,0.1-0.4,0.2c-0.1,0.1-0.1,0.3-0.1,0.5c0,0.2,0.1,0.4,0.2,0.5c0.1,0.1,0.2,0.2,0.4,0.2c0.3,0,0.5-0.1,0.6-0.4V3
	c0-0.6-0.2-0.8-0.6-0.8c-0.2,0-0.4,0.1-0.6,0.2l-0.1-0.1c0.2-0.1,0.4-0.2,0.7-0.2C120,2.1,120.3,2.4,120.3,3z"/>
<path class="st0" d="M123.5,3.4c0,0.4-0.1,0.7-0.3,0.9c-0.2,0.3-0.5,0.4-0.8,0.4c-0.1,0-0.3,0-0.5-0.1l0.1-0.1
	c0.1,0.1,0.2,0.1,0.4,0.1c0.2,0,0.4-0.1,0.5-0.3c0.1-0.2,0.2-0.5,0.2-0.9s-0.1-0.6-0.2-0.9c-0.1-0.2-0.3-0.3-0.6-0.3
	c-0.1,0-0.3,0.1-0.4,0.2c-0.1,0.1-0.2,0.2-0.2,0.4v2.9h-0.4V2.2h0.4v0.2c0.2-0.2,0.4-0.3,0.6-0.3c0.3,0,0.6,0.1,0.8,0.4
	C123.4,2.8,123.5,3.1,123.5,3.4z"/>
<path class="st0" d="M126.8,3.1h-1.6V3h1.2c0-0.5-0.2-0.8-0.6-0.8c-0.3,0-0.5,0.1-0.6,0.3C125,2.7,125,3,125,3.4s0.1,0.7,0.2,0.9
	c0.2,0.2,0.4,0.3,0.7,0.3c0.3,0,0.6-0.1,0.8-0.4l0.1,0.2c-0.2,0.2-0.5,0.4-0.9,0.4s-0.7-0.1-0.9-0.4c-0.3-0.3-0.4-0.6-0.4-0.9
	c0-0.4,0.1-0.7,0.4-0.9c0.2-0.3,0.5-0.4,0.9-0.4c0.3,0,0.5,0.1,0.7,0.3C126.7,2.6,126.8,2.8,126.8,3.1z"/>
<path class="st0" d="M2.1,10.2v1.7H1.7v-0.2c-0.1,0.2-0.4,0.2-0.6,0.2c-0.3,0-0.5-0.1-0.6-0.2c-0.2-0.1-0.3-0.4-0.3-0.6
	c0-0.3,0.1-0.5,0.3-0.6c0.2-0.1,0.4-0.2,0.6-0.2c0.1,0,0.1,0,0.2,0c0.1,0,0.2,0.1,0.3,0.1l-0.1,0.1c-0.1-0.1-0.3-0.1-0.4-0.1
	c-0.2,0-0.3,0.1-0.4,0.2c-0.1,0.1-0.1,0.3-0.1,0.5s0.1,0.4,0.2,0.5c0.1,0.1,0.2,0.2,0.4,0.2c0.3,0,0.5-0.1,0.6-0.4v-1.2
	c0-0.6-0.2-0.8-0.6-0.8C1,9.4,0.8,9.5,0.6,9.6L0.5,9.5c0.2-0.1,0.4-0.2,0.7-0.2C1.8,9.3,2.1,9.6,2.1,10.2z"/>
<path class="st0" d="M5.3,11.9H4.9v-1.7c0-0.5-0.2-0.8-0.6-0.8c-0.4,0-0.6,0.2-0.8,0.7v1.8H3.2V9.3h0.4v0.4c0.2-0.3,0.5-0.4,0.8-0.4
	c0.3,0,0.5,0.1,0.7,0.2c0.2,0.1,0.2,0.4,0.2,0.7V11.9z"/>
<path class="st0" d="M8.5,11.9H8.1v-0.2C7.9,11.9,7.7,12,7.5,12c-0.3,0-0.6-0.1-0.8-0.4c-0.2-0.3-0.3-0.6-0.3-0.9
	c0-0.4,0.1-0.7,0.3-0.9c0.2-0.3,0.5-0.4,0.8-0.4c0.1,0,0.3,0,0.5,0.1L7.9,9.7C7.8,9.6,7.6,9.6,7.5,9.6C7.3,9.6,7.1,9.7,7,9.9
	c-0.2,0.2-0.2,0.5-0.2,0.9c0,0.4,0.1,0.6,0.2,0.9C7.1,11.9,7.3,12,7.6,12c0.1,0,0.3-0.1,0.4-0.2c0.1-0.1,0.2-0.2,0.2-0.4V8h0.4
	L8.5,11.9L8.5,11.9z"/>
<path class="st0" d="M12.6,10.2v1.7h-0.4v-0.2c-0.1,0.2-0.4,0.2-0.6,0.2c-0.3,0-0.5-0.1-0.6-0.2c-0.2-0.1-0.3-0.4-0.3-0.6
	c0-0.3,0.1-0.5,0.3-0.6c0.2-0.1,0.4-0.2,0.6-0.2c0.1,0,0.1,0,0.2,0c0.1,0,0.2,0.1,0.3,0.1L12,10.5c-0.1-0.1-0.3-0.1-0.4-0.1
	c-0.2,0-0.3,0.1-0.4,0.2c-0.1,0.1-0.1,0.3-0.1,0.5s0.1,0.4,0.2,0.5c0.1,0.1,0.2,0.2,0.4,0.2c0.3,0,0.5-0.1,0.6-0.4v-1.2
	c0-0.6-0.2-0.8-0.6-0.8c-0.2,0-0.4,0.1-0.6,0.2L11,9.5c0.2-0.1,0.4-0.2,0.7-0.2C12.3,9.3,12.6,9.6,12.6,10.2z"/>
<path class="st0" d="M14.9,9.4l-0.1,0.2c-0.1-0.1-0.2-0.1-0.3-0.1s-0.1,0-0.2,0C14.1,9.6,14,9.9,14,10.2v1.7h-0.4V9.3H14v0.3
	c0.1-0.1,0.1-0.2,0.2-0.2c0.1-0.1,0.2-0.1,0.3-0.1C14.7,9.3,14.8,9.3,14.9,9.4z"/>
<path class="st0" d="M16.9,9.4h-0.5V11c0,0.3,0,0.4,0.1,0.6c0.1,0.1,0.2,0.2,0.4,0.2v0.1c-0.6,0-0.9-0.3-0.9-0.8V9.5h-0.2V9.4H16V9
	h0.4v0.3h0.5V9.4z"/>
<path class="st0" d="M18.2,8.2c0,0.1,0,0.1-0.1,0.2c-0.1,0-0.1,0.1-0.2,0.1s-0.1,0-0.2-0.1c-0.1,0-0.1-0.1-0.1-0.2
	c0-0.1,0-0.1,0.1-0.2c0,0,0.1-0.1,0.2-0.1s0.1,0,0.2,0.1C18.2,8,18.2,8.1,18.2,8.2z M18.2,11.9h-0.4V9.3h0.4V11.9z"/>
<path class="st0" d="M20.6,11.3c0,0.2-0.1,0.4-0.2,0.5c-0.1,0.1-0.3,0.2-0.5,0.2c-0.3,0-0.5-0.1-0.7-0.3l0.1-0.2
	c0.2,0.2,0.4,0.3,0.6,0.3c0.1,0,0.3,0,0.4-0.1c0.1-0.1,0.1-0.2,0.1-0.4c0-0.2-0.1-0.3-0.2-0.4c-0.1-0.1-0.3-0.2-0.5-0.3
	c-0.3-0.2-0.4-0.4-0.4-0.7c0-0.2,0.1-0.3,0.2-0.5c0.1-0.1,0.3-0.1,0.5-0.1c0.1,0,0.2,0,0.4,0.1c0.1,0.1,0.2,0.1,0.3,0.2l-0.1,0.1
	c-0.2-0.2-0.3-0.3-0.5-0.3c-0.3,0-0.4,0.1-0.4,0.3s0.1,0.3,0.3,0.5c0.3,0.2,0.5,0.3,0.6,0.4C20.5,10.8,20.7,11,20.6,11.3z"/>
<path class="st0" d="M22.6,9.4h-0.5V11c0,0.3,0,0.4,0.1,0.6c0.1,0.1,0.2,0.2,0.4,0.2v0.1c-0.6,0-0.9-0.3-0.9-0.8V9.5h-0.2V9.4h0.2V9
	h0.4v0.3h0.5V9.4z"/>
<path class="st0" d="M24,8.2c0,0.1,0,0.1-0.1,0.2c-0.1,0-0.1,0.1-0.2,0.1c-0.1,0-0.1,0-0.2-0.1c-0.1,0-0.1-0.1-0.1-0.2
	c0-0.1,0-0.1,0.1-0.2c0,0,0.1-0.1,0.2-0.1c0.1,0,0.1,0,0.2,0.1C24,8,24,8.1,24,8.2z M23.9,11.9h-0.4V9.3h0.4V11.9z"/>
<path class="st0" d="M27.2,11.6c-0.3,0.2-0.6,0.4-0.9,0.4c-0.4,0-0.7-0.1-0.9-0.4C25.1,11.3,25,11,25,10.7c0-0.4,0.1-0.7,0.4-0.9
	c0.3-0.3,0.6-0.4,0.9-0.4c0.3,0,0.6,0.1,0.8,0.3L27,9.9c-0.2-0.2-0.4-0.3-0.7-0.3c-0.3,0-0.5,0.1-0.7,0.4c-0.2,0.2-0.3,0.5-0.3,0.8
	s0.1,0.6,0.2,0.8c0.2,0.2,0.4,0.4,0.7,0.4c0.3,0,0.6-0.1,0.8-0.4H27.2z"/>
<path class="st0" d="M31.2,10.3h-1.6v-0.1h1.2c0-0.5-0.2-0.8-0.6-0.8c-0.3,0-0.5,0.1-0.6,0.3c-0.2,0.2-0.2,0.5-0.2,0.9
	c0,0.4,0.1,0.7,0.2,0.9c0.2,0.2,0.4,0.3,0.7,0.3c0.3,0,0.6-0.1,0.8-0.4l0.1,0.2C31,11.8,30.7,12,30.3,12c-0.4,0-0.7-0.1-0.9-0.4
	C29.1,11.3,29,11,29,10.7c0-0.4,0.1-0.7,0.4-0.9c0.2-0.3,0.5-0.4,0.9-0.4c0.3,0,0.5,0.1,0.7,0.3C31.1,9.8,31.2,10,31.2,10.3z"/>
<path class="st0" d="M34.3,11.9h-0.5L33,10.7l-1,1.2h-0.1l1.1-1.3l-0.9-1.3h0.4l0.7,1l0.8-1h0.1l-0.9,1.1L34.3,11.9z"/>
<path class="st0" d="M37.3,10.6c0,0.4-0.1,0.7-0.3,0.9c-0.2,0.3-0.5,0.4-0.8,0.4c-0.1,0-0.3,0-0.5-0.1l0.1-0.1
	c0.1,0.1,0.2,0.1,0.4,0.1s0.4-0.1,0.5-0.3c0.1-0.2,0.2-0.5,0.2-0.9c0-0.4-0.1-0.6-0.2-0.9c-0.1-0.2-0.3-0.3-0.6-0.3
	c-0.1,0-0.3,0.1-0.4,0.2c-0.1,0.1-0.2,0.2-0.2,0.4v2.9h-0.4V9.4h0.4v0.2c0.2-0.2,0.4-0.3,0.6-0.3c0.3,0,0.6,0.1,0.8,0.4
	C37.2,10,37.3,10.3,37.3,10.6z"/>
<path class="st0" d="M39.5,9.4l-0.1,0.2c-0.1-0.1-0.2-0.1-0.3-0.1c-0.1,0-0.1,0-0.2,0c-0.2,0.1-0.3,0.4-0.3,0.7v1.7h-0.4V9.3h0.4
	v0.3c0.1-0.1,0.1-0.2,0.2-0.2c0.1-0.1,0.2-0.1,0.3-0.1C39.3,9.3,39.4,9.3,39.5,9.4z"/>
<path class="st0" d="M42.4,10.3h-1.6v-0.1H42c0-0.5-0.2-0.8-0.6-0.8c-0.3,0-0.5,0.1-0.6,0.3c-0.2,0.2-0.2,0.5-0.2,0.9
	c0,0.4,0.1,0.7,0.2,0.9c0.2,0.2,0.4,0.3,0.7,0.3s0.6-0.1,0.8-0.4l0.1,0.2c-0.2,0.2-0.5,0.4-0.9,0.4s-0.7-0.1-0.9-0.4
	c-0.3-0.3-0.4-0.6-0.4-0.9c0-0.4,0.1-0.7,0.4-0.9c0.2-0.3,0.5-0.4,0.9-0.4c0.3,0,0.5,0.1,0.7,0.3C42.3,9.8,42.4,10,42.4,10.3z"/>
<path class="st0" d="M44.8,11.3c0,0.2-0.1,0.4-0.2,0.5c-0.1,0.1-0.3,0.2-0.5,0.2c-0.3,0-0.5-0.1-0.7-0.3l0.1-0.2
	c0.2,0.2,0.4,0.3,0.6,0.3c0.1,0,0.3,0,0.3-0.1c0.1-0.1,0.1-0.2,0.1-0.4c0-0.2-0.1-0.3-0.2-0.4c-0.1-0.1-0.3-0.2-0.5-0.3
	c-0.3-0.2-0.4-0.4-0.4-0.7c0-0.2,0.1-0.3,0.2-0.5c0.1-0.1,0.3-0.1,0.5-0.1c0.1,0,0.2,0,0.4,0.1c0.1,0.1,0.2,0.1,0.3,0.2l-0.1,0.1
	c-0.2-0.2-0.3-0.3-0.5-0.3c-0.3,0-0.4,0.1-0.4,0.3s0.1,0.3,0.3,0.5c0.3,0.2,0.5,0.3,0.6,0.4C44.7,10.8,44.8,11,44.8,11.3z"/>
<path class="st0" d="M47.1,11.3c0,0.2-0.1,0.4-0.2,0.5c-0.1,0.1-0.3,0.2-0.5,0.2c-0.3,0-0.5-0.1-0.7-0.3l0.1-0.2
	c0.2,0.2,0.4,0.3,0.6,0.3c0.1,0,0.3,0,0.4-0.1c0.1-0.1,0.1-0.2,0.1-0.4c0-0.2-0.1-0.3-0.2-0.4c-0.1-0.1-0.3-0.2-0.5-0.3
	c-0.3-0.2-0.4-0.4-0.4-0.7c0-0.2,0.1-0.3,0.2-0.5c0.1-0.1,0.3-0.1,0.5-0.1c0.1,0,0.2,0,0.4,0.1c0.1,0.1,0.2,0.1,0.3,0.2l-0.1,0.1
	c-0.2-0.2-0.3-0.3-0.5-0.3c-0.3,0-0.4,0.1-0.4,0.3s0.1,0.3,0.3,0.5c0.3,0.2,0.5,0.3,0.6,0.4C47.1,10.8,47.2,11,47.1,11.3z"/>
<path class="st0" d="M48.6,8.2c0,0.1,0,0.1-0.1,0.2c-0.1,0-0.1,0.1-0.2,0.1c-0.1,0-0.1,0-0.2-0.1c0,0-0.1-0.1-0.1-0.2
	c0-0.1,0-0.1,0.1-0.2c0,0,0.1-0.1,0.2-0.1c0.1,0,0.1,0,0.2,0.1C48.6,8,48.6,8.1,48.6,8.2z M48.5,11.9h-0.4V9.3h0.4V11.9z"/>
<path class="st0" d="M52.2,10.6c0,0.4-0.1,0.7-0.4,0.9c-0.3,0.3-0.6,0.4-0.9,0.4c-0.4,0-0.7-0.1-0.9-0.4c-0.3-0.3-0.4-0.6-0.4-0.9
	c0-0.4,0.1-0.7,0.4-0.9c0.3-0.3,0.6-0.4,0.9-0.4c0.4,0,0.7,0.1,0.9,0.4C52,10,52.2,10.2,52.2,10.6z M51.8,10.6
	c0-0.3-0.1-0.6-0.3-0.8c-0.2-0.2-0.4-0.3-0.6-0.3c-0.3,0-0.5,0.1-0.6,0.3C50.1,10,50,10.3,50,10.6s0.1,0.6,0.3,0.8s0.4,0.4,0.6,0.4
	c0.2,0,0.5-0.1,0.6-0.4C51.7,11.2,51.8,10.9,51.8,10.6z"/>
<path class="st0" d="M55.2,11.9h-0.4v-1.7c0-0.5-0.2-0.8-0.6-0.8c-0.4,0-0.6,0.2-0.8,0.7v1.8H53V9.3h0.4v0.4
	c0.2-0.3,0.5-0.4,0.8-0.4s0.5,0.1,0.7,0.2c0.2,0.1,0.2,0.4,0.2,0.7v1.7H55.2z"/>
<path class="st0" d="M56.8,11.7c0,0.1,0,0.1-0.1,0.2c-0.1,0-0.1,0.1-0.2,0.1s-0.1,0-0.2-0.1c0-0.1-0.1-0.1-0.1-0.2
	c0-0.1,0-0.1,0.1-0.2c0-0.1,0.1-0.1,0.2-0.1s0.1,0,0.2,0.1C56.8,11.6,56.8,11.7,56.8,11.7z"/>
</svg>
