<svg width="312" height="66" viewBox="0 0 312 66" fill="none" xmlns="http://www.w3.org/2000/svg">
<path d="M67.3198 1.17039C67.6898 1.14039 67.9998 1.10039 68.3098 1.10039C77.5498 1.10039 86.7898 1.05039 96.0298 1.15039C100.7 1.20039 105.26 2.07039 109.51 4.13039C117.55 8.03039 121.63 14.5204 121.87 23.4204C121.98 27.4404 121.23 31.2804 119.28 34.8404C116.51 39.9004 112.16 43.0204 106.81 44.8804C103.09 46.1804 99.2298 46.6904 95.3098 46.7504C91.3998 46.8104 87.4898 46.7604 83.5898 46.7604H81.9198C81.7798 52.5504 81.9398 58.2604 81.8298 64.0404H67.3298V1.17039H67.3198ZM81.9398 13.1104V34.7104C82.3098 34.7504 82.6198 34.8004 82.9298 34.8004C86.7898 34.8004 90.6498 34.8604 94.4998 34.7604C96.1798 34.7204 97.8998 34.5204 99.5198 34.0804C103.59 32.9704 106.23 30.3804 106.89 26.1004C107.08 24.8904 107.09 23.6204 106.97 22.4004C106.6 18.8104 104.85 16.1104 101.53 14.5204C99.8498 13.7204 98.0798 13.2104 96.2398 13.1704C91.6998 13.0704 87.1498 13.0604 82.6098 13.0104C82.4298 13.0104 82.2498 13.0604 81.9398 13.1004V13.1104Z" fill="white"/>
<path d="M170.74 50.6701H141.52C139.67 55.1101 137.81 59.5801 135.95 64.0701H121.27C121.24 64.0101 121.21 63.9701 121.19 63.9301C121.17 63.8901 121.14 63.8401 121.16 63.8001C121.27 63.5001 121.36 63.1901 121.49 62.9001C130.67 42.3201 139.85 21.7401 149.04 1.14014H163.5C172.85 22.0401 182.2 42.9301 191.56 63.8401C190.42 64.1801 179.32 64.3001 176.31 64.0301C174.48 59.6301 172.61 55.1501 170.75 50.6701H170.74ZM156.18 15.5101C152.82 23.6101 149.59 31.4201 146.34 39.2401C147.73 39.6001 164.87 39.5701 166 39.2201C162.77 31.4301 159.54 23.6401 156.17 15.5101H156.18Z" fill="white"/>
<path d="M259.33 57.8605C261.01 54.1505 262.61 50.6005 264.26 46.9605C264.72 47.2305 265.07 47.4205 265.41 47.6405C270.29 50.7705 275.63 52.5805 281.38 53.2305C284.55 53.5905 287.71 53.5505 290.84 52.9105C292.43 52.5805 293.89 51.9605 295.19 50.9405C297.62 49.0405 298.21 44.8805 295.12 42.7705C293.88 41.9305 292.52 41.1605 291.1 40.7305C287.73 39.7005 284.27 38.9305 280.87 37.9805C277.82 37.1205 274.79 36.2005 271.79 35.2205C269.63 34.5205 267.73 33.3005 265.99 31.8405C263.12 29.4405 261.32 26.4505 260.82 22.7205C260.21 18.1005 260.91 13.7505 263.51 9.80046C265.11 7.38046 267.25 5.53046 269.74 4.06046C273.45 1.88046 277.51 0.780465 281.74 0.310465C288.12 -0.399535 294.4 0.150465 300.57 1.91046C303.09 2.63046 305.52 3.59046 307.81 4.89046C308.2 5.11046 308.58 5.36046 309.05 5.65046C307.56 9.32046 306.1 12.9205 304.58 16.6505C304.1 16.4205 303.7 16.2505 303.31 16.0505C299.08 13.8105 294.62 12.3205 289.85 11.8905C287.01 11.6305 284.14 11.6105 281.36 12.4005C280.1 12.7605 278.87 13.3405 277.74 14.0105C276.53 14.7305 275.74 15.8905 275.35 17.2705C274.61 19.8705 275.52 22.1905 277.97 23.4205C279.56 24.2205 281.26 24.8505 282.97 25.3305C286.86 26.4205 290.79 27.3205 294.69 28.3805C296.72 28.9305 298.73 29.6005 300.72 30.3205C303.67 31.3805 306.17 33.1505 308.29 35.4505C310.44 37.7805 311.45 40.6105 311.67 43.7005C312.25 51.6705 308.93 57.5605 301.99 61.4405C298.66 63.3005 295.05 64.3005 291.28 64.7705C282.67 65.8505 274.32 64.8405 266.27 61.6605C264.28 60.8705 262.43 59.7205 260.52 58.7205C260.12 58.5105 259.79 58.2005 259.34 57.8705L259.33 57.8605Z" fill="white"/>
<path d="M248.64 5.71022C247.17 9.33022 245.71 12.9202 244.2 16.6302C243.73 16.4202 243.36 16.2802 243.01 16.1002C238.79 13.8502 234.33 12.3402 229.56 11.9002C226.4 11.6102 223.23 11.6502 220.14 12.6002C218.76 13.0302 217.51 13.6802 216.48 14.7202C213.64 17.5902 214.33 21.9002 217.96 23.6602C220.74 25.0102 223.73 25.7502 226.73 26.4502C231.06 27.4602 235.38 28.5502 239.58 30.0302C241.99 30.8802 244.17 32.1002 246.13 33.7402C248.89 36.0502 250.63 38.9102 251.12 42.5002C252.04 49.3002 250.07 55.0202 244.68 59.4102C242.48 61.2002 239.97 62.4402 237.3 63.3402C234.15 64.4002 230.89 64.8802 227.58 65.0802C220.37 65.5102 213.39 64.4702 206.62 61.9802C203.94 60.9902 201.39 59.7502 198.98 57.8902C200.53 54.2302 202.22 50.6402 203.86 46.9702C204.23 47.1702 204.48 47.2802 204.7 47.4302C211.33 51.7502 218.62 53.7202 226.51 53.4002C228.19 53.3302 229.9 53.0402 231.52 52.5702C232.72 52.2202 233.91 51.5702 234.9 50.8002C237.37 48.8602 237.66 44.8602 234.73 42.7202C233.3 41.6802 231.74 40.9202 230.04 40.4602C226.5 39.5102 222.93 38.6602 219.39 37.6802C216.7 36.9302 214.03 36.0902 211.37 35.2002C209.21 34.4802 207.32 33.2702 205.57 31.8202C202.62 29.3502 200.81 26.2602 200.37 22.4202C199.59 15.5602 201.63 9.82022 207.17 5.51022C209.97 3.33022 213.16 1.91022 216.6 1.15022C226.2 -0.959776 235.58 -0.199776 244.69 3.55022C245.83 4.02022 246.91 4.65022 248.01 5.22022C248.21 5.32022 248.37 5.49022 248.63 5.70022L248.64 5.71022Z" fill="white"/>
<path d="M55.1399 13.1303V1.09033L0.399891 1.09033V13.1303L55.1399 13.1303Z" fill="#3DA537"/>
<path d="M20.4598 64.0405H35.0798L35.0798 4.30053H20.4598L20.4598 64.0405Z" fill="#3DA537"/>
</svg>
