<svg width="6" height="581" viewBox="0 0 6 581" fill="none" xmlns="http://www.w3.org/2000/svg">
<path d="M1.5 0V502.6" stroke="#C9A063" stroke-width="0.35" stroke-miterlimit="10"/>
<path d="M5.60001 510.3V509H1V508.5H5.60001V507.2H5.70001V510.4H5.60001V510.3Z" fill="#C9A063"/>
<path d="M1 514.2V513.7H3.5V511.3H1V510.8H5.70001V511.3H3.60001V513.7H5.70001V514.2H1Z" fill="#C9A063"/>
<path d="M1 518V515.6H5.70001V517.9H5.60001V516.1H3.70001V517.7H3.60001V516.1H1.20001V518H1Z" fill="#C9A063"/>
<path d="M5.70004 524.6L0.900024 522.6L5.70004 520.6V521.2L1.80002 522.8L5.70004 524.4V524.6Z" fill="#C9A063"/>
<path d="M3.39999 530.4C2.69999 530.4 2.10001 530.2 1.70001 529.7C1.20001 529.2 1 528.6 1 527.9C1 527.2 1.20001 526.5 1.70001 526.1C2.20001 525.6 2.69999 525.4 3.39999 525.4C4.09999 525.4 4.70001 525.6 5.10001 526.1C5.60001 526.6 5.79999 527.2 5.79999 527.9C5.79999 528.6 5.60001 529.3 5.10001 529.7C4.60001 530.1 4.09999 530.4 3.39999 530.4ZM3.39999 529.8C4.09999 529.8 4.6 529.6 5 529.3C5.5 528.9 5.70001 528.4 5.70001 527.8C5.70001 527.2 5.5 526.7 5 526.3C4.6 525.9 3.99999 525.8 3.39999 525.8C2.69999 525.8 2.19999 526 1.79999 526.3C1.29999 526.7 1.10001 527.2 1.10001 527.8C1.10001 528.4 1.29999 528.9 1.79999 529.3C2.19999 529.6 2.69999 529.8 3.39999 529.8Z" fill="#C9A063"/>
<path d="M1 532V531.5H5.70001V532H1Z" fill="#C9A063"/>
<path d="M1.70001 537.2C1.20001 536.8 1 536.3 1 535.6C1 535 1.20001 534.4 1.70001 534C2.20001 533.5 2.69999 533.3 3.39999 533.3C4.09999 533.3 4.60001 533.5 5.10001 533.9C5.60001 534.3 5.79999 534.8 5.79999 535.5C5.79999 536.1 5.59999 536.6 5.29999 537L5.10001 536.8C5.50001 536.4 5.60001 536 5.60001 535.5C5.60001 535 5.39999 534.6 4.89999 534.3C4.49999 534 3.89999 533.9 3.29999 533.9C2.69999 533.9 2.10001 534.1 1.70001 534.4C1.30001 534.7 1 535.2 1 535.7C1 536.3 1.20001 536.7 1.70001 537V537.2Z" fill="#C9A063"/>
<path d="M1 540.7V538.3H5.70001V540.6H5.60001V538.8H3.70001V540.4H3.60001V538.8H1.20001V540.7H1Z" fill="#C9A063"/>
<path d="M5.60001 546.4V545.1H1V544.6H5.60001V543.3H5.70001V546.5H5.60001V546.4Z" fill="#C9A063"/>
<path d="M1 550.3V549.8H3.5V547.4H1V546.9H5.70001V547.4H3.60001V549.8H5.70001V550.3H1Z" fill="#C9A063"/>
<path d="M1 554.2V551.8H5.70001V554.1H5.60001V552.3H3.70001V553.9H3.60001V552.3H1.20001V554.2H1Z" fill="#C9A063"/>
<path d="M5.70004 562.5L0.900024 561L4.80002 559.6L0.900024 558.3L5.70004 556.8V557.3L2.00003 558.5L5.80002 559.8L2.00003 561.2L5.80002 562.4L5.70004 562.5Z" fill="#C9A063"/>
<path d="M3.39999 568.1C2.69999 568.1 2.10001 567.9 1.70001 567.4C1.20001 566.9 1 566.3 1 565.6C1 564.9 1.20001 564.2 1.70001 563.8C2.20001 563.3 2.69999 563.1 3.39999 563.1C4.09999 563.1 4.70001 563.3 5.10001 563.8C5.60001 564.3 5.79999 564.9 5.79999 565.6C5.79999 566.3 5.60001 567 5.10001 567.4C4.60001 567.8 4.09999 568.1 3.39999 568.1ZM3.39999 567.5C4.09999 567.5 4.6 567.3 5 567C5.5 566.6 5.70001 566.1 5.70001 565.5C5.70001 564.9 5.5 564.4 5 564C4.6 563.6 3.99999 563.5 3.39999 563.5C2.69999 563.5 2.19999 563.7 1.79999 564C1.29999 564.4 1.10001 564.9 1.10001 565.5C1.10001 566.1 1.29999 566.6 1.79999 567C2.19999 567.3 2.69999 567.5 3.39999 567.5Z" fill="#C9A063"/>
<path d="M1 572.3V571.8L3.60001 570.2C3.60001 570.3 3.60001 570.4 3.60001 570.4C3.60001 571.1 3.90001 571.5 4.60001 571.5C5.30001 571.5 5.60001 571 5.60001 570.1V569.8H1V569.3H5.70001C5.70001 569.4 5.70001 569.7 5.70001 570.2C5.70001 571.4 5.3 572 4.5 572C4.2 572 3.90001 571.9 3.70001 571.7C3.50001 571.5 3.39999 571.2 3.29999 570.8L1 572.3Z" fill="#C9A063"/>
<path d="M1 575.6V573.2H5.70001V573.7H1.10001V575.6H1Z" fill="#C9A063"/>
<path d="M3.40009 580.5C2.50009 580.5 1.90009 580.2 1.50009 579.5C1.20009 579 1.1001 578.5 1.1001 577.9V576.6H5.80008V577.9C5.80008 578.5 5.70009 579 5.40009 579.5C4.90009 580.1 4.30009 580.5 3.40009 580.5ZM3.40009 580C4.20009 580 4.8001 579.7 5.2001 579.1C5.5001 578.7 5.6001 578.2 5.6001 577.6V577.1H1.1001V577.6C1.1001 578.3 1.20009 578.8 1.50009 579.2C2.00009 579.7 2.60009 580 3.40009 580Z" fill="#C9A063"/>
</svg>
