<?xml version="1.0" encoding="utf-8"?>
<!-- Generator: Adobe Illustrator 25.2.3, SVG Export Plug-In . SVG Version: 6.00 Build 0)  -->
<svg version="1.1" id="圖層_1" xmlns="http://www.w3.org/2000/svg" xmlns:xlink="http://www.w3.org/1999/xlink" x="0px" y="0px"
	 viewBox="0 0 380 81" style="enable-background:new 0 0 380 81;" xml:space="preserve">
<style type="text/css">
	.st0{fill:#FFFFFF;}
	.st1{fill:#C9A063;}
</style>
<path class="st0" d="M113.3,8.1h2.7c0.5-0.7,0.9-1.1,1.1-1.1c0.2,0,0.5,0.2,1.1,0.6c0.5,0.4,0.8,0.7,0.8,0.8c0,0.1-0.1,0.3-0.3,0.4
	c-0.3,0.3-0.5,0.4-0.5,0.5v5.9c0.1,2.3,0.1,3.8,0.1,4.4c0,0.5-0.4,0.7-1.1,0.7c-0.5,0-0.8-0.1-0.9-0.4v-1.3h-2.7v1.7
	c-0.1,0.4-0.5,0.6-1.2,0.6c-0.4,0-0.7-0.1-0.8-0.2c0-2.1,0-4.2,0.1-6.2v-4.1c0-1.7-0.1-2.8-0.1-3.1L113.3,8.1z M116.3,13V8.6h-2.7
	V13H116.3z M116.3,18.2v-4.6h-2.7v4.6H116.3z M121.5,19.7c-0.3,0.9-0.8,1.8-1.8,2.7c-1.2,1.3-2.5,2.1-3.7,2.5
	c-0.1,0-0.2-0.1-0.3-0.2c1.4-1,2.6-2.2,3.4-3.8c0.8-1.2,1.2-3.2,1.2-6.1c0-3.3,0-5.3,0-6.1c0-0.7,0-1.4-0.1-2.3l2.2,1h3.7
	c0.4-0.6,0.8-1,1-1.2c0.2,0,0.5,0.2,1.1,0.5c0.6,0.4,0.9,0.7,0.9,0.9c0,0.1-0.1,0.3-0.4,0.4c-0.3,0.2-0.4,0.3-0.5,0.4V22
	c0,1.4-0.8,2.2-2.3,2.5c-0.2,0-0.4-0.1-0.4-0.4c-0.2-0.5-0.7-1-1.2-1.2c-0.8-0.3-1.4-0.5-1.7-0.6c0,0,0-0.1,0-0.4
	c0.8,0.1,1.9,0.1,3.3,0.1c0.3,0,0.5-0.2,0.5-0.5v-4H122C121.9,18.4,121.7,19.1,121.5,19.7z M122.2,14.8c0,0.8,0,1.6-0.1,2.2h4.3
	v-4.4h-4.2V14.8z M122.2,12.1h4.2V8h-4.2V12.1z"/>
<path class="st0" d="M149,17.6c0.9,0.8,1.3,1.2,1.3,1.4c0,0.2-0.1,0.3-0.2,0.3H143c1,0.9,2,1.6,3.2,2c1.2,0.5,2.6,0.7,4.2,0.8
	c0,0.2,0,0.3-0.1,0.4c-0.1,0-0.3,0.2-0.5,0.4c-0.1,0.1-0.3,0.4-0.4,0.8c-0.1,0.3-0.2,0.4-0.4,0.4c-0.7,0-1.8-0.5-3.4-1.4
	c-1.4-0.8-2.4-1.9-3.1-3.3h-0.3l0.1,5.1c0,0.4-0.4,0.6-1.2,0.7c-0.6,0-0.9-0.2-0.9-0.5c0-1.6,0-3.1,0-4.5c-1.5,1.7-4.3,3-8.5,4
	c-0.1,0-0.2-0.1-0.3-0.3c3.4-1.2,5.6-2.6,6.7-4c0.2-0.2,0.3-0.4,0.4-0.5h-1.6c-2.4,0-4,0.1-4.6,0.3c-0.1-0.4-0.3-0.7-0.5-1.1
	c1,0.1,2.8,0.2,5.2,0.2h3.1v-0.2c0-0.7-0.1-1.2-0.1-1.6c-0.6,0.2-1.3,0.4-2,0.5c0,0-0.1-0.1-0.2-0.3c1.7-0.6,2.9-1.5,3.7-2.7
	c-0.6-0.4-1.1-0.7-1.7-0.9c0,0,0.1-0.1,0.1-0.3c0.7,0.1,1.4,0.2,1.9,0.4c0.2-0.5,0.3-1,0.3-1.4c-0.8,0-1.4,0.1-1.7,0.2
	c-0.1-0.3-0.3-0.7-0.4-1c0.3,0.1,1,0.2,2,0.2h3.6c0.2-0.3,0.4-0.5,0.6-0.7c-0.4,0-0.6-0.2-0.7-0.7c0-0.1-0.1-0.3-0.1-0.5
	c0-0.2-0.1-0.3-0.1-0.5c-0.1-0.2-0.2-0.4-0.3-0.5h-1.6c-0.2,0.2-0.4,0.4-0.5,0.5c-0.7,0.6-1.4,1.2-2.2,1.6c0,0-0.1-0.1-0.2-0.2
	c1.3-1.6,2.2-3.1,2.5-4.6c1.8,0.5,2.7,0.9,2.7,1.1c0,0.2-0.4,0.3-1.2,0.4c-0.1,0.2-0.3,0.4-0.4,0.6h3.7c0.5-0.8,0.9-1.2,1.1-1.3h0.1
	c0.1,0.1,0.4,0.3,0.8,0.6c0.5,0.5,0.8,0.8,0.9,1c0,0.2-0.1,0.3-0.1,0.3h-4.4c0.8,0.3,1.2,0.7,1.2,1.3c0,0.3-0.1,0.6-0.3,0.7
	c0.3,0.1,0.6,0.4,1,0.6c0.5,0.4,0.7,0.7,0.7,0.8c0,0.2-0.3,0.5-0.9,0.8v1.9c0,0.5,0.2,0.7,0.6,0.8c0,0,0,0,0.1,0
	c0.5,0,0.7-0.1,0.8-0.3c0.2-0.3,0.4-0.9,0.5-1.7c0,0,0.1,0.1,0.4,0.1c0,0.3,0,0.7,0,1.2c0,0.2,0.1,0.4,0.3,0.5
	c0.3,0.1,0.5,0.4,0.5,0.6c0,0.3-0.1,0.4-0.1,0.5c-0.2,0.4-0.6,0.6-1.2,0.7c-0.3,0.1-0.5,0.1-0.8,0.1s-0.5,0-0.7,0
	c-1.2,0-1.8-0.6-1.9-1.9v-3.1h-1.9c-0.1,0.9-0.3,1.5-0.5,1.8v0.1c1.1,0.5,1.7,1,1.7,1.7c0,0.2,0,0.3-0.1,0.5
	c-0.1,0.3-0.3,0.4-0.6,0.4s-0.7-0.3-1.2-0.9c-0.2-0.2-0.4-0.4-0.6-0.5c-0.6,0.7-1.4,1.2-2.4,1.5c2,0.3,3,0.6,3,0.8
	c0,0.1-0.1,0.3-0.4,0.4c-0.4,0.2-0.7,0.3-0.7,0.4v0.3h4.8c0.6-0.8,1.1-1.3,1.4-1.4c0,0,0.1,0,0.2,0C148.6,17.4,148.8,17.5,149,17.6z
	 M135.3,8.6c-1,1.3-2.2,2.2-3.5,2.9c-0.1-0.1-0.2-0.2-0.4-0.2c1.4-1.4,2.5-3.2,3.1-5.5c1.8,0.6,2.7,0.9,2.7,1.1c0,0.3-0.4,0.4-1,0.5
	c-0.1,0.2-0.3,0.4-0.4,0.6h2.7c0.5-0.8,0.9-1.2,1.1-1.3h0.1c0.2,0.1,0.4,0.3,0.8,0.6c0.5,0.5,0.8,0.8,0.9,1c0,0.2-0.1,0.3-0.1,0.3
	h-4.6c1,0.3,1.6,0.9,1.6,1.6c0,0.6-0.3,0.9-0.9,0.9c-0.4,0-0.6-0.2-0.7-0.7c0-0.1-0.1-0.3-0.1-0.6c0-0.2-0.1-0.4-0.1-0.6
	c-0.1-0.3-0.3-0.5-0.4-0.7h-0.8V8.6z M134.6,12.5c-0.9,0-1.6,0.1-2,0.2c-0.1-0.3-0.2-0.5-0.3-0.8c0.4,0.1,1.2,0.1,2.3,0.1h2.9
	c0.3-0.4,0.5-0.7,0.8-1c0.1-0.1,0.2-0.1,0.2-0.1c0.1,0,0.2,0.1,0.4,0.2c0.7,0.6,1.1,1,1.2,1.2c0,0.2-0.1,0.3-0.1,0.3h-3v2.7
	c1.1-0.1,2.1-0.2,2.9-0.4L140,15c-1.6,0.8-3.8,1.6-6.7,2.1c0,0.4-0.1,0.5-0.2,0.5c-0.1,0-0.2-0.2-0.4-0.5s-0.4-0.9-0.7-1.6
	c1.2,0,2.3-0.1,3.3-0.2v-2.8H134.6z"/>
<path class="st0" d="M170.4,6.5c0.6,0.4,0.9,0.7,0.9,0.9c0,0.1-0.1,0.3-0.4,0.4c-0.4,0.3-0.6,0.4-0.6,0.5v9.6c0,3.3,0.1,5.5,0.1,6.7
	c0,0.4-0.5,0.7-1.4,0.7c-0.4,0-0.5-0.2-0.5-0.5V24h-13.1v0.6c-0.1,0.4-0.5,0.6-1.2,0.6c-0.4,0-0.7-0.1-0.8-0.2c0-3,0-5.9,0.1-8.7
	v-5.7c0-2.4-0.1-3.9-0.1-4.3l2,0.8h12.9c0.6-0.7,1-1,1.2-1C169.6,6,170,6.2,170.4,6.5z M168.5,23.4V7.5h-13.1v15.9H168.5z
	 M158.2,10.9h3V9.8h-1.9c-2,0-3.1,0.1-3.1,0.2c-0.1-0.3-0.3-0.6-0.4-1.1c0.3,0.1,1.4,0.2,3.3,0.3h2.1c0-0.6,0-1.1-0.1-1.5
	c1.7,0.3,2.5,0.5,2.5,0.7c0,0.2-0.1,0.3-0.3,0.3c-0.4,0.1-0.5,0.3-0.5,0.4v0.2h2.9c0.5-0.8,0.9-1.1,1.1-1.1c0.1,0,0.4,0.2,0.7,0.6
	c0.4,0.4,0.6,0.7,0.6,0.8c0,0.2-0.1,0.3-0.2,0.3h-5.1V11h2.5c0.5-0.5,0.8-0.7,1-0.7s0.5,0.2,1,0.5c0.4,0.3,0.7,0.6,0.7,0.7
	c0,0.1-0.1,0.2-0.3,0.3c-0.3,0.2-0.5,0.3-0.5,0.4v1.5c0,0.6,0.1,0.9,0.1,1.1c0,0.4-0.3,0.6-0.9,0.6c-0.5,0-0.7-0.1-0.7-0.3H163v1.3
	c0.9,0,1.7,0,2.3,0c-0.4-0.3-0.8-0.5-1.1-0.7c0,0,0.1-0.1,0.1-0.3c2.3,0.3,3.4,0.8,3.4,1.4c0,0.2,0,0.4-0.1,0.5
	c0,0.3-0.3,0.4-0.7,0.5c-0.2,0-0.4-0.2-0.7-0.6c-0.2-0.1-0.3-0.3-0.4-0.4c-0.5,0.1-1.1,0.3-1.6,0.4c0.3,0.1,0.6,0.1,1,0.2
	c0.6,0.1,1,0.2,1.1,0.2c0.1,0,0.2,0.1,0.2,0.3c0,0.1-0.2,0.2-0.6,0.3c-0.2,0.1-0.3,0.1-0.3,0.1v0.5h0.7c0.5-0.7,0.9-1,1.1-1
	c0.1,0,0.4,0.2,0.7,0.6c0.4,0.4,0.6,0.6,0.6,0.7c0,0.2-0.1,0.3-0.3,0.3h-2.9v1.8c0,1-0.7,1.6-1.9,2c-0.2,0-0.3-0.1-0.3-0.4
	c-0.1-0.4-0.4-0.7-0.9-1c-0.4-0.2-0.8-0.3-1.2-0.4c0-0.1,0-0.2,0-0.3c0.7,0.1,1.4,0.1,2.2,0.1c0.2,0,0.3-0.2,0.3-0.5v-1.3h-4.3
	c-2,0-3.1,0.1-3.1,0.2c-0.1-0.3-0.3-0.6-0.4-1.1c0.1,0,0.4,0.1,0.9,0.1c-0.1-0.1-0.2-0.4-0.3-0.9c-0.2-0.6-0.3-1.1-0.4-1.5
	c0.7,0.1,1.7,0.2,3,0.2c0.8,0,1.5,0,2.2,0v-1.3h-2.6v0.3c-0.1,0.4-0.4,0.5-1,0.5c-0.4,0-0.6-0.1-0.7-0.2c0-0.8,0-1.6,0.1-2.4v-1.6
	c0-0.7-0.1-1.1-0.1-1.2L158.2,10.9z M159.1,18.7h4.5v-0.3c0-0.5-0.1-1-0.1-1.3c-1.8,0.3-3.9,0.5-6.3,0.6c-0.1,0.5-0.2,0.8-0.3,0.8
	C157.4,18.6,158.2,18.7,159.1,18.7z M160.6,20.9c0,0.3,0,0.4-0.1,0.6c-0.1,0.4-0.4,0.5-0.7,0.5c-0.2,0-0.5-0.3-0.9-0.8
	c-0.4-0.6-0.8-1-1.3-1.4c0.1,0,0.1-0.1,0.1-0.2C159.5,19.7,160.5,20.2,160.6,20.9z M161.2,12.7v-1.3h-2.6v1.3H161.2z M161.2,14.5
	v-1.3h-2.6v1.3H161.2z M162.8,12.7h2.7v-1.3h-2.7V12.7z M162.8,14.5h2.7v-1.3h-2.7V14.5z"/>
<path class="st0" d="M175.8,7.6h1.8c0.5-0.7,0.9-1.1,1.2-1.1c0.1,0,0.4,0.3,1,0.7c0.5,0.5,0.8,0.8,0.8,1s-0.1,0.3-0.3,0.3
	c-0.4,0.2-0.7,0.3-0.8,0.4c-0.5,1.3-1.3,2.8-2.4,4.5c1.8,1.4,2.8,3.1,2.9,5c0,1.7-0.7,2.7-2.1,3c-0.2,0-0.3-0.1-0.4-0.4
	c-0.1-0.5-0.3-0.8-0.6-1c-0.3-0.2-0.5-0.3-0.7-0.4c0,0,0.1-0.1,0.1-0.3c0.3,0.1,0.7,0.1,1.1,0.1c0.6,0,0.9-0.5,0.9-1.3
	c0-2-0.5-3.6-1.6-4.7c0.5-1.4,0.9-3.2,1.2-5.4h-1.8v16.6c-0.1,0.4-0.4,0.6-1.1,0.6c-0.4,0-0.6-0.1-0.7-0.2c0-2.9,0-5.7,0.1-8.4v-5.5
	c0-2.4-0.1-3.8-0.1-4.2L175.8,7.6z M191.2,9.2c0.9,0.8,1.3,1.2,1.3,1.4s-0.1,0.3-0.2,0.3H187c-0.2,0.3-0.3,0.5-0.5,0.7
	c-0.4,0.5-0.8,1-1.4,1.5c0.7,0.6,1.3,1.3,1.7,2.2c1.2-1,2-2.1,2.5-3.3c1.5,1.1,2.3,1.7,2.3,1.7c0,0.2-0.1,0.3-0.3,0.3
	c-0.3,0-0.6,0-1-0.1c-0.6,0.5-1.2,0.9-2,1.3c0.3,1.2,0.8,2.4,1.7,3.7c0.7,0.9,1.5,1.6,2.5,2l-0.1,0.4c-0.3,0-0.6,0.3-0.8,0.7
	c-0.1,0.2-0.1,0.4-0.2,0.7c-0.1,0.2-0.2,0.2-0.3,0.2c-0.8,0-1.6-1.3-2.5-4c-0.3-1.1-0.5-2.2-0.7-3.3c-0.3,0.1-0.6,0.3-0.9,0.4
	c0.5,1.2,0.7,2.6,0.7,4.3c-0.1,2.6-0.7,4.1-1.8,4.6c-0.3,0.2-0.7,0.3-1.1,0.3c-0.3,0-0.4-0.2-0.6-0.5c-0.1-0.5-0.3-0.9-0.7-1.1
	c-0.4-0.3-0.9-0.5-1.4-0.7c0-0.1,0.1-0.2,0.1-0.4c0.7,0.2,1.5,0.3,2.2,0.3c0.9,0,1.4-0.8,1.4-2.6c0-0.5,0-1,0-1.5
	c-2.2,2-4.7,3.4-7.4,4.3c-0.1,0-0.1-0.1-0.2-0.4c3-1.6,5.4-3.7,7.4-6.2c-0.1-0.3-0.1-0.6-0.2-0.8c-1.5,1.5-3.2,2.5-5.1,3.2
	c0,0-0.1-0.1-0.2-0.3c1.9-1.2,3.4-2.7,4.7-4.6c-0.1-0.1-0.1-0.3-0.2-0.4c-1.1,0.8-2.6,1.4-4.4,2c-0.1,0-0.2-0.1-0.3-0.3
	c2.3-1.2,3.7-2.4,4.5-3.7c0.1-0.2,0.2-0.3,0.3-0.4h-1.5c-1.7,0-2.7,0.1-3.1,0.2c-0.1-0.4-0.3-0.7-0.5-1.1c0.6,0.1,1.7,0.2,3.3,0.2
	h3.3c0.7-1.7,1.1-3.1,1.2-4.5c1.9,0.6,2.8,1,2.8,1.3c0,0.2-0.4,0.3-1.3,0.4c-0.5,1-1.2,2-2.2,2.8h2.5c0.6-0.8,1.1-1.3,1.4-1.4
	c0,0,0.1,0,0.2,0C190.9,9,191,9.1,191.2,9.2z M183.7,6.8c0.8,0.6,1.3,1.2,1.3,2c0,0.5-0.1,0.8-0.4,1c-0.2,0.1-0.4,0.2-0.7,0.2
	c-0.4,0-0.7-0.4-0.8-1.2c-0.2-0.7-0.4-1.2-0.5-1.6c-0.2-0.3-0.4-0.6-0.7-0.9c0-0.1,0.1-0.1,0.2-0.3C182.8,6.2,183.3,6.5,183.7,6.8z"
	/>
<path class="st0" d="M203.4,19.2l-0.4-0.4c0.8-0.7,1.2-1.3,1.2-2c0-0.1-0.1-0.2-0.3-0.2c-1-0.2-1.5-0.7-1.5-1.5c0-0.4,0.1-0.7,0.4-1
	c0.3-0.3,0.7-0.5,1.2-0.5s0.9,0.2,1.2,0.6c0.2,0.3,0.4,0.7,0.4,1.1C205.6,17,204.8,18.2,203.4,19.2z"/>
<path class="st0" d="M220.1,17.9c-0.1,0.7-0.2,1.3-0.3,1.7c-0.2,0.9-0.5,1.8-1.1,2.8c-0.8,1.3-1.6,2.2-2.3,2.7
	c-0.1,0-0.2-0.1-0.3-0.2c0.7-1.1,1.2-2.4,1.6-3.9c0.3-1.3,0.5-3.4,0.6-6.3c0-3.2,0-5.2,0-5.9c0-0.6,0-1.4-0.1-2.2l2.3,1h9.8
	c0.5-0.6,0.8-1,1.1-1.1c0.2,0,0.6,0.2,1.2,0.6c0.7,0.4,1,0.8,1,1c0,0.2-0.2,0.3-0.5,0.5c-0.3,0.2-0.5,0.3-0.5,0.5v13.5
	c0,1.3-0.8,2.2-2.5,2.5c-0.2,0-0.3-0.1-0.4-0.4c-0.2-0.5-0.5-1-1-1.2c-0.7-0.3-1.1-0.5-1.3-0.5c0,0,0-0.1,0-0.4
	c0.6,0.1,1.5,0.1,2.5,0.1c0.3,0,0.5-0.2,0.5-0.5v-4H226V21c0,0.9,0.1,2,0.1,3.2c0,0.3-0.4,0.5-1.2,0.5c-0.6,0-1-0.1-1-0.3
	c0-0.7,0.1-1.8,0.1-3.5v-2.7h-3.9V17.9z M220.2,12.9v1.7c0,1.1,0,2-0.1,2.8h3.8v-4.5H220.2z M220.2,8.1v4.2h3.8V8.1H220.2z
	 M230.4,12.3V8.1H226v4.2H230.4z M230.4,17.3v-4.5H226v4.5H230.4z"/>
<path class="st0" d="M240,13.4c0.1,0.7,0.2,1.3,0.3,2.1c0,3.3-0.9,5-2.8,5.1c-0.8,0-1.2-0.3-1.2-0.8c0-0.3,0-0.6,0.1-0.7
	c0.1-0.2,0.5-0.7,1.4-1.4c1-0.9,1.6-2.3,1.8-4.2C239.9,13.4,240,13.4,240,13.4z M245.5,11.2c0,0.3-0.4,0.5-1.2,0.8v9.4
	c0,0.7,0.4,1,1.1,1.1h2.9c0.8,0,1.4-0.4,1.7-1.1c0.2-0.5,0.5-1.6,0.8-3.3c0.3,0,0.4,0,0.4,0v3.2c0,0.3,0.2,0.5,0.6,0.6
	c0.4,0.3,0.7,0.5,0.7,0.8c0,0.7-0.7,1.2-2,1.4c-0.9,0.1-1.8,0.2-2.7,0.2c-1.9,0-3.1,0-3.6-0.1c-1.2-0.1-1.8-1.1-1.8-3.1v-8.3
	c0-1.1-0.1-1.9-0.2-2.3C244.4,10.7,245.5,11,245.5,11.2z M249.3,9.2c0,0.6-0.1,1-0.3,1.3c-0.2,0.2-0.4,0.3-0.7,0.3
	c-0.5,0-1-0.5-1.5-1.5c-0.8-1.1-1.8-2.2-3.3-3.1c0-0.1,0.1-0.2,0.1-0.3C247.2,6.8,249.1,7.9,249.3,9.2z M255.6,18.2
	c0,0.6-0.1,1-0.3,1.3c-0.2,0.3-0.5,0.4-0.9,0.4c-0.6,0-0.9-0.6-1.1-1.8c-0.5-2.2-1.2-3.8-2.2-5l0.3-0.2
	C254.1,14.8,255.5,16.6,255.6,18.2z"/>
<path class="st0" d="M263.6,6.9c0,0.2-0.3,0.4-0.8,0.4c2.1,0.7,3.2,1.4,3.2,2.3c0,0.5-0.1,0.8-0.2,0.9c-0.1,0.2-0.3,0.2-0.5,0.2
	c-0.3,0-0.7-0.4-1-1.1c-0.4-0.8-1-1.4-1.8-2c-0.9,1.8-2,3.1-3.3,4.2c0.5,0.1,1.2,0.1,2.1,0.1h1.5c0.3-0.4,0.6-0.8,0.9-1.1
	c0.1-0.1,0.2-0.2,0.2-0.2c0.1,0,0.2,0.1,0.4,0.2c0.8,0.7,1.2,1.1,1.3,1.3c0,0.2-0.1,0.3-0.2,0.3h-2.8v2.9h0.9
	c0.3-0.4,0.6-0.8,0.9-1.1c0.1-0.1,0.2-0.2,0.2-0.2c0.1,0,0.2,0.1,0.4,0.2c0.7,0.7,1.2,1.1,1.2,1.3s-0.1,0.3-0.1,0.3h-3.5v5.9
	c1.5-0.2,2.6-0.4,3.5-0.7c0.1,0.1,0.1,0.3,0.2,0.4c-1.4,0.8-3.8,1.7-7.1,2.5c-0.1,0.7-0.3,1-0.4,1c-0.1,0-0.3-0.3-0.5-0.9
	c-0.2-0.6-0.4-1.3-0.7-2.2c0.5,0.1,1.2,0.1,2.1,0.1c0.4,0,0.8,0,1.3-0.1v-6.1h-0.9c-0.9,0-1.5,0.1-2,0.2c-0.1-0.3-0.2-0.5-0.3-0.8
	c0.4,0.1,1.2,0.1,2.3,0.1h0.9v-2.9c-0.7,0-1.2,0.1-1.6,0.2c-0.1-0.2-0.1-0.4-0.2-0.7c-0.4,0.3-0.7,0.5-1,0.7
	c-0.1-0.1-0.2-0.2-0.3-0.2c1.6-1.7,2.8-3.9,3.4-6.6C262.7,6.4,263.6,6.8,263.6,6.9z M260,20c0,0.8-0.4,1.1-1,1.1
	c-0.4,0-0.6-0.2-0.6-0.7c0-0.1,0-0.3,0.1-0.6c0-0.2,0.1-0.4,0.1-0.7c0-0.9-0.2-1.5-0.5-2l0.1-0.1C259.4,17.8,260,18.8,260,20z
	 M265.5,17.4c0.4,0.1,0.6,0.3,0.6,0.4s-0.1,0.2-0.3,0.3c-0.3,0.1-0.5,0.1-0.6,0.2c-0.4,1.1-1,2-2.1,2.7l-0.2-0.1
	c0.5-1.1,0.7-2.4,0.8-4C264.5,17,265.1,17.2,265.5,17.4z M275.1,6.6c0.8,0.7,1.2,1.1,1.2,1.3s-0.1,0.3-0.2,0.3h-6.6v4.2h3.2
	c0.5-0.6,0.9-0.9,1.1-0.9c0.2,0,0.6,0.2,1.1,0.6c0.5,0.4,0.8,0.7,0.8,0.8c0,0.1-0.1,0.3-0.3,0.4c-0.3,0.3-0.5,0.4-0.5,0.5v2.7
	c0.1,1,0.1,1.7,0.1,2c0,0.5-0.4,0.7-1.1,0.7c-0.5,0-0.8-0.1-0.9-0.4v-0.7h-3.5v5.3h3.7c0.6-0.8,1.1-1.3,1.4-1.4c0,0,0.1,0,0.2,0
	c0.2,0.1,0.3,0.2,0.5,0.3c0.9,0.8,1.3,1.2,1.3,1.4c0,0.2-0.1,0.3-0.2,0.3h-8.1c-1.5,0-2.4,0.1-2.8,0.2c-0.1-0.4-0.3-0.7-0.5-1.1
	c0.5,0.1,1.3,0.2,2.5,0.2V8.2c-0.7,0-1.2,0.1-1.4,0.2c-0.1-0.4-0.3-0.7-0.5-1.1c0.5,0.1,1.3,0.2,2.5,0.2h4.9c0.6-0.7,1-1.2,1.3-1.3
	c0,0,0.1,0,0.2,0C274.8,6.4,274.9,6.5,275.1,6.6z M273,17.6v-4.7h-3.5v4.7H273z"/>
<path class="st0" d="M286,6.6c0,0.2-0.1,0.3-0.3,0.3c-0.4,0.1-0.5,0.3-0.5,0.4v0.5h1.7c0.5-0.6,0.8-0.9,1-1.1h0.1
	c0.1,0,0.4,0.2,0.7,0.5c0.4,0.4,0.7,0.7,0.7,0.8c0,0.2-0.1,0.3-0.1,0.4h-4.1v1h3.3c0.5-0.6,0.9-0.9,1-0.9c0.2,0.1,0.5,0.3,0.9,0.7
	c0.5,0.5,0.8,0.8,0.8,0.9c0,0.2-0.2,0.3-0.5,0.3c-0.2,0-0.4,0-0.5,0.1c-0.5,0.2-1.1,0.5-1.8,0.7c0.1,0.1,0.2,0.2,0.2,0.3
	s-0.1,0.1-0.2,0.1l-3.3,0.3V12c0,0.2,0.1,0.3,0.3,0.3c1.6,0,2.7-0.1,3.2-0.3l0.1-0.1c0.2,0.1,0.4,0.3,0.6,0.5
	c0.1,0.2,0.1,0.3,0.1,0.5c0,0.4-1,0.5-3,0.5c-0.9,0-1.6,0-1.9-0.1c-0.6,0-0.9-0.4-0.9-1v-0.4l-2.3,0.2c0,0.7,0,1.4,0,2h7.1
	c0.4-0.5,0.7-0.8,0.9-0.9h0.1c0.1,0,0.3,0.2,0.7,0.5c0.4,0.4,0.6,0.7,0.6,0.8c0,0.2,0,0.3-0.1,0.3h-9.2c0,1.5-0.1,2.6-0.3,3.5
	c-0.1,1.1-0.4,2.2-0.8,3.5c-0.5,1.6-1.1,2.7-1.7,3.2c-0.1,0-0.2-0.1-0.3-0.2c0.4-1.3,0.7-2.9,0.9-4.8c0.2-1.6,0.3-4.1,0.3-7.7
	c0-1.5,0-2.4,0-2.8c0-0.3,0-0.6-0.1-1l2,0.9h2.1V7.9c0-0.8,0-1.4-0.1-1.9C285.1,6.2,286,6.4,286,6.6z M283.6,11.2V9.8h-2.3v1.6
	L283.6,11.2z M282.7,18.7h5.5c0.5-0.5,0.8-0.8,0.9-0.8s0.4,0.2,0.7,0.4c0.4,0.3,0.7,0.5,0.7,0.7c0,0.1-0.1,0.3-0.3,0.3
	c-0.1,0.1-0.3,0.2-0.4,0.3v3.7c0,1-0.6,1.6-1.7,1.8c-0.2,0-0.3-0.1-0.3-0.3c-0.1-0.4-0.2-0.6-0.4-0.8c-0.2-0.2-0.5-0.4-0.9-0.5
	c0-0.1,0-0.2,0-0.3c0.5,0.1,0.8,0.1,1.1,0.1c0.4,0,0.6-0.1,0.6-0.3v-2H287c-0.7,0-1-0.3-1.1-0.8v-1.1h-0.4c-0.4,1.6-1.2,2.5-2.5,2.6
	v2.9c-0.1,0.4-0.4,0.5-1,0.5c-0.4,0-0.6-0.1-0.7-0.2c0-1.1,0-2.2,0.1-3.2v-2.1c0-0.9-0.1-1.4-0.1-1.6L282.7,18.7z M283.8,15.6h3.2
	c0.4-0.4,0.7-0.7,0.9-0.7c0.1,0,0.4,0.2,0.9,0.5c0.4,0.3,0.6,0.5,0.6,0.7c0,0.1-0.1,0.2-0.2,0.3c-0.3,0.2-0.4,0.3-0.4,0.4v0.6
	c0,0.2,0.1,0.4,0.1,0.4c0,0.4-0.3,0.5-0.9,0.5c-0.4,0-0.7-0.1-0.7-0.3v-0.3H284v0.1c-0.1,0.3-0.4,0.5-0.9,0.5c-0.3,0-0.5,0-0.6-0.2
	c0-0.5,0-0.9,0.1-1.4v-0.9c0-0.4-0.1-0.6-0.1-0.7L283.8,15.6z M284.2,19.3H283v2.4C283.7,21.1,284.1,20.3,284.2,19.3z M283.5,22.7
	c-0.1-0.2-0.2-0.5-0.3-0.8c0.4,0.1,1.2,0.1,2.3,0.1h0.9c0.2-0.2,0.4-0.4,0.6-0.6c0.1,0,0.1-0.1,0.1-0.1s0.1,0,0.3,0.1
	c0.4,0.4,0.7,0.7,0.8,0.8c0,0.2-0.1,0.3-0.2,0.3h-1.7v1.1c0,0.2,0,0.4,0,0.7c0,0.3-0.3,0.4-0.8,0.4c-0.4,0-0.6-0.1-0.7-0.2v-1.9
	C284.3,22.6,283.8,22.6,283.5,22.7z M287.3,17.2v-1H284v1H287.3z M286.7,10.9c0.3-0.5,0.5-0.8,0.6-0.8c0.1,0.1,0.4,0.3,0.8,0.6
	c0,0,0,0,0.1,0.1c0.2-0.3,0.4-0.6,0.5-0.9h-3.5v1.2L286.7,10.9z M287.1,20.1c0,0.2,0.2,0.3,0.6,0.3h0.9v-1.1h-1.4v0.8H287.1z
	 M296.4,11.4c0.7,0.7,1.2,1.1,1.2,1.3s-0.1,0.3-0.1,0.3h-3c0.2,2.1,0.6,4.4,1.2,6.8c0.5,1.6,1.1,2.7,1.8,3.4c0,0-0.1,0.1-0.1,0.3
	c-0.3,0-0.6,0.3-0.8,0.7c-0.1,0.1-0.1,0.4-0.2,0.7c-0.1,0.1-0.2,0.2-0.3,0.2c-0.5,0-1-2.1-1.6-6.2c-0.2-2-0.4-4-0.4-5.9h-0.2
	c-0.3,6.3-1.7,10.4-4,12.3c0-0.1-0.1-0.1-0.2-0.2c0.7-1.2,1.3-3,1.8-5.5c0.4-1.5,0.6-3.7,0.7-6.7h-0.1c-0.9,0-1.5,0.1-2,0.2
	c-0.1-0.2-0.2-0.5-0.3-0.8c0.4,0.1,1.2,0.1,2.3,0.1h0.1c0-0.4,0-0.8,0-1.2L292,8c0-0.8-0.1-1.4-0.2-1.9c2,0.3,3,0.5,3,0.8
	c0,0.2-0.2,0.3-0.5,0.3c-0.2,0.1-0.4,0.3-0.4,0.4v4.3c0,0.2,0,0.3,0,0.5h1c0.3-0.4,0.6-0.8,0.9-1.1c0.1-0.1,0.2-0.1,0.2-0.1
	C296.1,11.2,296.2,11.3,296.4,11.4z M297.1,9.5c0,0.5-0.1,0.8-0.2,0.9c-0.2,0.2-0.4,0.3-0.7,0.3c-0.3,0-0.4-0.3-0.5-0.9
	c-0.2-1.1-0.5-2-1-2.6l0.2-0.2C296.3,7.9,297,8.7,297.1,9.5z"/>
<path class="st1" d="M26.4,2.4H15.7v30.5h-4.9V2.4H0v-2h26.4V2.4z"/>
<path class="st1" d="M63.5,32.7v0.2h-6.3c-1.4-0.1-2.6-1.2-2.6-2.7v-13H38.3v15.7h-4.9v-28c0-1.9-1.2-3.5-3-4h-0.1l-0.8-0.2V0.5h6.2
	c0.8,0,1.4,0.3,1.9,0.8c0.4,0.5,0.8,1.2,0.8,1.9v12.5h16.3V0.4h4.9v28c0,1.9,1.2,3.5,3.1,4.1h0.1L63.5,32.7z"/>
<path class="st1" d="M88.9,31.2v1.7H68.5v-28c0-1.9-1.2-3.5-3.9-4.3V0.4H89v1.7H73.4V15h13v2h-13v14.2H88.9z"/>
<path class="st1" d="M37.5,80.1h-0.2h-4.7l-3.9-22.3L16.6,80.1l-11-20.8L3.2,80.1h-2L3.5,60C3.8,57.2,4.9,49.8,0,48.6v-0.2
	c6.3,0.2,8.4,5.9,10.1,9l8.1,15.5l13.7-25.2L37.5,80.1z"/>
<path class="st1" d="M40.7,80.2l14.6-32.5l14.9,32.5h-5.4L62,74H45.6l-2.8,6.1L40.7,80.2L40.7,80.2z M46.4,72.3h14.8L53.7,56
	L46.4,72.3z"/>
<path class="st1" d="M93,71.9c0,3.4-2.5,9-10.2,9c-6.1,0-10-2.6-10.9-9.3h1.5c1,6.1,6,7.4,9,7.4c5.2,0,6.4-3.6,6.4-5.2
	c0-3.4-2.8-5.3-8.1-8c-3.4-1.7-9.1-4.6-9.1-10.1c0-7.1,7-8.5,9.5-8.5c6.2,0,8.8,3.3,9.7,7.9h-1.6c-0.7-2.4-2.4-6.1-8-6.1
	c-2.8,0-5.7,2.2-5.7,5c0,3.3,3.9,5.4,8,7.5C91.1,65.2,93,68,93,71.9z"/>
<path class="st1" d="M120.2,49.7h-10.7v30.5h-4.9V49.7H93.8v-2h26.4V49.7z"/>
<path class="st1" d="M147.7,78.5v1.7h-20.5v-28c0-1.9-1.2-3.5-3.9-4.3v-0.2h24.4v1.7h-15.6v12.9h13v2h-13v14.2H147.7z"/>
<path class="st1" d="M179.1,80.2h-5.5l-10.3-14.6c-1.3,0-2.6,0-3.6,0v14.6h-4.9V52.3c0-2-1.5-4-3.9-4.3v-0.2h8.8
	c5.1,0,15.4-0.1,15.4,9.1c0,5.2-3.2,7.4-6.7,8.3L179.1,80.2z M168.2,62c0.3-0.4,0.6-0.8,0.8-1.2c0.3-0.5,0.4-1.1,0.6-1.7
	c0.1-0.7,0.2-1.5,0.2-2.3c-0.2-7.1-5.7-7.5-6.7-7.5h-3.5v14.6h3.5c0.6,0,1.2,0,1.7-0.1c0.8-0.1,1.7-0.4,2.4-0.8
	C167.6,62.6,167.9,62.3,168.2,62z"/>
<path class="st1" d="M204.3,56.8c0,9.4-10.3,8.7-15.4,8.7v14.6H184V52.2c0-2-1.5-4-3.9-4.3v-0.2h8.8C194,47.7,204.3,47.5,204.3,56.8
	z M199.1,56.8c-0.3-7.1-5.8-7.6-6.7-7.6h-3.5v14.6h3.5C194.2,63.8,199.3,63.7,199.1,56.8z"/>
<path class="st1" d="M213.7,47.7v32.5h-4.4v-28c0-1.9-1.2-3.5-3.9-4.3v-0.2H213.7z"/>
<path class="st1" d="M241.2,78.5v1.7h-20.5v-28c0-1.9-1.2-3.5-3.9-4.3v-0.2h24.4v1.7h-15.6v12.9h13v2h-13v14.2H241.2z"/>
<path class="st1" d="M271.8,74.2c-0.4,0.8-4,6.7-13.2,6.7c-9.9,0-15.7-7.5-15.7-16.9c0-9.3,5.8-16.9,15.7-16.9
	c9.4,0,12.9,6.2,13.3,6.8l-1.1,1.1c-10.2-12.2-22.3-4.1-22.3,9c0,12.1,12.1,21.3,22.2,9.1L271.8,74.2z"/>
<path class="st1" d="M297.2,78.5v1.7h-20.5v-28c0-1.9-1.2-3.5-3.9-4.3v-0.2h24.4v1.7h-15.6v12.9h13v2h-13v14.2H297.2z"/>
</svg>
