<?xml version="1.0" encoding="utf-8"?>
<!-- Generator: Adobe Illustrator 25.2.3, SVG Export Plug-In . SVG Version: 6.00 Build 0)  -->
<svg version="1.1" id="圖層_1" xmlns="http://www.w3.org/2000/svg" xmlns:xlink="http://www.w3.org/1999/xlink" x="0px" y="0px"
	 viewBox="0 0 380 113.7" style="enable-background:new 0 0 380 113.7;" xml:space="preserve">
<style type="text/css">
	.st0{fill:#C79F62;}
	.st1{fill:#00404B;}
</style>
<g>
	<g>
		<path class="st0" d="M26.4,2H15.7v30.5h-4.9V2H0V0h26.4V2z"/>
		<path class="st0" d="M62.6,32.3v0.2h-6.3c-1.4-0.1-2.6-1.2-2.6-2.7v-13H37.5v15.7h-4.9v-28c0-1.9-1.2-3.5-3-4c0,0-0.1,0-0.1,0
			l-0.8-0.2V0h6.2c0.8,0,1.4,0.3,1.9,0.8c0.4,0.5,0.8,1.2,0.8,1.9v12.5h16.3V0h4.9v28c0,1.9,1.2,3.5,3.1,4.1h0.1L62.6,32.3z"/>
		<path class="st0" d="M88.1,30.8v1.7H67.6v-28c0-1.9-1.2-3.5-3.9-4.3V0h24.4v1.7H72.5v12.9h13v2h-13v14.2H88.1z"/>
		<path class="st0" d="M131.1,24.1c0,1.8-1.3,8.4-12.6,8.4h-11.9V4.6c0-2-1.5-4-3.9-4.3V0h15.8c9.9-0.1,11.1,7.1,11.1,8.5
			c0,4.5-3,6.5-5.6,7.5C127.2,16.7,131.1,18.7,131.1,24.1z M111.5,15h7.2c2.6,0,6.1-2,6.1-6.3c0-4.6-3-7.1-7-7.1h-6.3V15z
			 M125.7,23.8c0-6.7-7.1-7.3-8.4-7.3h-5.8v14.2h7C118.5,30.8,125.7,30.6,125.7,23.8z"/>
		<path class="st0" d="M157.5,30.8v1.7H137v-28c0-1.9-1.2-3.5-3.9-4.3V0h24.4v1.7h-15.6v12.9h13v2h-13v14.2H157.5z"/>
		<path class="st0" d="M187.6,2h-10.7v30.5H172V2h-10.8V0h26.4V2z"/>
		<path class="st0" d="M217.7,2H207v30.5h-4.9V2h-10.8V0h26.4V2z"/>
		<path class="st0" d="M245,30.8v1.7h-20.5v-28c0-1.9-1.2-3.5-3.9-4.3V0H245v1.7h-15.6v12.9h13v2h-13v14.2H245z"/>
		<path class="st0" d="M276.7,32.5h-5.5l-10.3-14.6c-1.3,0-2.6,0-3.6,0v14.6h-4.9V4.6c0-2-1.5-4-3.9-4.3V0h8.8
			c5.1,0,15.4-0.1,15.4,9.1c0,5.2-3.2,7.4-6.7,8.3L276.7,32.5z M265.8,14.3c0.3-0.4,0.6-0.8,0.8-1.2c0.3-0.5,0.4-1.1,0.6-1.7
			c0.1-0.7,0.2-1.5,0.2-2.3c-0.2-7.1-5.7-7.5-6.7-7.5h-3.5v14.6h3.5c0.6,0,1.2,0,1.7-0.1c0.8-0.1,1.7-0.4,2.4-0.8
			C265.2,14.9,265.5,14.6,265.8,14.3z"/>
		<path class="st0" d="M26.4,49.3H15.7v30.5h-4.9V49.3H0v-2h26.4V49.3z"/>
		<path class="st0" d="M60.2,63.4c0,11.8-7,16.9-15.7,16.9c-8.7,0-15.7-5.1-15.7-16.9c0-11.4,7-16.9,15.7-16.9
			C53.2,46.5,60.2,52,60.2,63.4z M54.9,63.4C54.9,53,50.3,48,44.6,48c-5.7,0-10.3,5.1-10.3,15.4c0,10.7,4.7,15.4,10.3,15.4
			C50.3,78.8,54.9,74.1,54.9,63.4z"/>
		<path class="st0" d="M101.9,79.7l-0.2,0H97l-3.9-22.3L81,79.7L70,58.9l-2.4,20.8h-2l2.3-20.1c0.3-2.8,1.4-10.3-3.5-11.4V48
			c6.3,0.2,8.4,5.9,10.1,9l8.1,15.5l13.7-25.2L101.9,79.7z"/>
		<path class="st0" d="M137.1,63.4c0,11.8-7,16.9-15.7,16.9c-8.7,0-15.7-5.1-15.7-16.9c0-11.4,7-16.9,15.7-16.9
			C130.1,46.5,137.1,52,137.1,63.4z M131.8,63.4c0-10.4-4.6-15.4-10.3-15.4c-5.7,0-10.3,5.1-10.3,15.4c0,10.7,4.7,15.4,10.3,15.4
			C127.2,78.8,131.8,74.1,131.8,63.4z"/>
		<path class="st0" d="M166.8,79.7h-5.5L151,65.1c-1.3,0-2.6,0-3.6,0v14.6h-4.9V51.8c0-2-1.5-4-3.9-4.3v-0.2h8.8
			c5.1,0,15.4-0.1,15.4,9.1c0,5.2-3.2,7.4-6.7,8.3L166.8,79.7z M156,61.5c0.3-0.4,0.6-0.8,0.8-1.2c0.3-0.5,0.4-1.1,0.6-1.7
			c0.1-0.7,0.2-1.5,0.2-2.3c-0.2-7.1-5.7-7.5-6.7-7.5h-3.5v14.6h3.5c0.6,0,1.2,0,1.7-0.1c0.8-0.1,1.7-0.4,2.4-0.8
			C155.4,62.2,155.7,61.9,156,61.5z"/>
		<path class="st0" d="M197.2,79.7h-5.5l-10.3-14.6c-1.3,0-2.6,0-3.6,0v14.6h-4.9V51.8c0-2-1.5-4-3.9-4.3v-0.2h8.8
			c5.1,0,15.4-0.1,15.4,9.1c0,5.2-3.2,7.4-6.7,8.3L197.2,79.7z M186.3,61.5c0.3-0.4,0.6-0.8,0.8-1.2c0.3-0.5,0.4-1.1,0.6-1.7
			c0.1-0.7,0.2-1.5,0.2-2.3c-0.2-7.1-5.7-7.5-6.7-7.5h-3.5v14.6h3.5c0.6,0,1.2,0,1.7-0.1c0.8-0.1,1.7-0.4,2.4-0.8
			C185.7,62.2,186,61.9,186.3,61.5z"/>
		<path class="st0" d="M231.1,63.4c0,11.8-7,16.9-15.7,16.9c-8.7,0-15.7-5.1-15.7-16.9c0-11.4,7-16.9,15.7-16.9
			C224.1,46.5,231.1,52,231.1,63.4z M225.8,63.4c0-10.4-4.6-15.4-10.3-15.4c-5.7,0-10.3,5.1-10.3,15.4c0,10.7,4.7,15.4,10.3,15.4
			C221.2,78.8,225.8,74.1,225.8,63.4z"/>
		<path class="st0" d="M273.3,47.3l-12.5,33.1L253,57.8l-7.7,22.6L234.2,50v0c-0.2-0.5-0.5-1-0.9-1.4c-0.4-0.4-0.9-0.7-1.5-0.8
			l-1-0.3v-0.2h4.3c1.7,0,3.2,1.1,3.8,2.7v0l7.5,20.8l8-23.5l8,23.1l8.7-23.1H273.3z"/>
	</g>
</g>
<g>
	<g>
		<path class="st1" d="M4.1,102.3c0,0.5-0.2,0.9-0.7,1.2c-0.4,0.2-0.8,0.3-1.4,0.3c-0.1,0-0.4,0-0.9,0v-5.2h0.9
			c0.5,0,0.9,0.1,1.2,0.2c0.4,0.2,0.6,0.5,0.6,0.9c0,0.3-0.1,0.5-0.3,0.8c-0.2,0.2-0.4,0.4-0.7,0.5c0.4,0.1,0.7,0.2,0.9,0.4
			C3.9,101.6,4.1,101.9,4.1,102.3z M3.6,102.3c0-0.4-0.1-0.7-0.4-0.9c-0.2-0.2-0.5-0.3-0.9-0.3H2v-0.2h0.2c0.4,0,0.6-0.1,0.8-0.4
			c0.1-0.2,0.2-0.5,0.2-0.7c0-0.7-0.5-1.1-1.4-1.1H1.5v4.9h0.3C3,103.5,3.6,103.1,3.6,102.3z"/>
		<path class="st1" d="M7.9,101.7h-2v-0.2h1.5c0-0.6-0.3-0.9-0.8-0.9c-0.3,0-0.6,0.1-0.8,0.4c-0.2,0.3-0.3,0.6-0.3,1.1
			c0,0.5,0.1,0.8,0.3,1.1c0.2,0.3,0.5,0.4,0.8,0.4c0.4,0,0.7-0.2,1-0.5l0.2,0.2c-0.3,0.3-0.7,0.5-1.1,0.5c-0.5,0-0.8-0.2-1.2-0.5
			c-0.3-0.3-0.5-0.7-0.5-1.2c0-0.5,0.2-0.9,0.5-1.2c0.3-0.3,0.7-0.5,1.1-0.5c0.3,0,0.6,0.1,0.9,0.4C7.8,101,7.9,101.3,7.9,101.7z"/>
		<path class="st1" d="M11.1,101.6L11.1,101.6v2.1h-0.5v-0.3c-0.2,0.2-0.5,0.3-0.8,0.3c-0.3,0-0.6-0.1-0.8-0.3
			c-0.2-0.2-0.4-0.4-0.4-0.8c0-0.3,0.1-0.6,0.4-0.8c0.2-0.2,0.5-0.3,0.7-0.3c0.1,0,0.2,0,0.2,0c0.2,0,0.3,0.1,0.4,0.1l-0.1,0.2
			c-0.2-0.1-0.3-0.2-0.5-0.2c-0.2,0-0.4,0.1-0.5,0.2c-0.1,0.2-0.2,0.4-0.2,0.7c0,0.3,0.1,0.5,0.2,0.6c0.1,0.2,0.3,0.2,0.5,0.2
			c0.3,0,0.6-0.2,0.8-0.5v-1.5c0-0.7-0.2-1-0.7-1c-0.3,0-0.5,0.1-0.8,0.3L9,100.7c0.2-0.2,0.5-0.2,0.9-0.2
			C10.7,100.4,11.1,100.8,11.1,101.6z"/>
		<path class="st1" d="M14.8,103.7h-0.5v-0.6c-0.2,0.4-0.6,0.6-1,0.6c-0.8,0-1.2-0.4-1.2-1.2v-2.2h0.5v2.2c0,0.7,0.2,1,0.7,1
			c0.3,0,0.5-0.2,0.7-0.5c0.1-0.2,0.2-0.4,0.2-0.6v-2.1h0.5V103.7z"/>
		<path class="st1" d="M17.2,100.6h-0.6v2c0,0.3,0,0.6,0.1,0.7c0.1,0.1,0.2,0.2,0.5,0.2v0.2c-0.7,0-1.1-0.4-1.1-1.1v-2h-0.3v-0.2
			h0.3v-0.4h0.5v0.4h0.6V100.6z"/>
		<path class="st1" d="M21,100.4l-1.8,4.5l-0.2,0l0.5-1.3l-1.4-3.2h0.5l1.1,2.6l1-2.6H21z"/>
		<path class="st1" d="M23.8,103.7h-0.5v-5h0.5V103.7z"/>
		<path class="st1" d="M25.5,99c0,0.1,0,0.2-0.1,0.2s-0.1,0.1-0.2,0.1c-0.1,0-0.2,0-0.2-0.1s-0.1-0.1-0.1-0.2c0-0.1,0-0.2,0.1-0.2
			c0.1-0.1,0.1-0.1,0.2-0.1c0.1,0,0.2,0,0.2,0.1C25.5,98.8,25.5,98.9,25.5,99z M25.4,103.7H25v-3.2h0.5V103.7z"/>
		<path class="st1" d="M29.4,101.7h-2v-0.2h1.5c0-0.6-0.3-0.9-0.8-0.9c-0.3,0-0.6,0.1-0.8,0.4c-0.2,0.3-0.3,0.6-0.3,1.1
			c0,0.5,0.1,0.8,0.3,1.1c0.2,0.3,0.5,0.4,0.8,0.4c0.4,0,0.7-0.2,1-0.5l0.2,0.2c-0.3,0.3-0.7,0.5-1.1,0.5c-0.5,0-0.8-0.2-1.2-0.5
			c-0.3-0.3-0.5-0.7-0.5-1.2c0-0.5,0.2-0.9,0.5-1.2c0.3-0.3,0.7-0.5,1.1-0.5c0.3,0,0.6,0.1,0.9,0.4C29.2,101,29.4,101.3,29.4,101.7z
			"/>
		<path class="st1" d="M32.1,102.9c0,0.3-0.1,0.5-0.3,0.6c-0.2,0.2-0.4,0.2-0.7,0.2c-0.4,0-0.7-0.1-0.9-0.4l0.2-0.2
			c0.2,0.3,0.5,0.4,0.8,0.4c0.2,0,0.3-0.1,0.4-0.2c0.1-0.1,0.2-0.3,0.2-0.4c0-0.2-0.1-0.4-0.3-0.5c-0.1-0.1-0.3-0.2-0.6-0.4
			c-0.4-0.2-0.5-0.5-0.5-0.9c0-0.2,0.1-0.4,0.3-0.6c0.2-0.1,0.4-0.2,0.6-0.2c0.1,0,0.3,0,0.5,0.1c0.2,0.1,0.3,0.2,0.3,0.3l-0.2,0.2
			c-0.2-0.3-0.4-0.4-0.7-0.4c-0.3,0-0.5,0.1-0.5,0.4c0,0.2,0.1,0.4,0.3,0.6c0.4,0.2,0.6,0.4,0.7,0.5
			C31.9,102.3,32.1,102.6,32.1,102.9z"/>
		<path class="st1" d="M35.1,99c0,0.1,0,0.2-0.1,0.2s-0.1,0.1-0.2,0.1c-0.1,0-0.2,0-0.2-0.1s-0.1-0.1-0.1-0.2c0-0.1,0-0.2,0.1-0.2
			c0.1-0.1,0.1-0.1,0.2-0.1c0.1,0,0.2,0,0.2,0.1C35.1,98.8,35.1,98.9,35.1,99z M35,103.7h-0.5v-3.2H35V103.7z"/>
		<path class="st1" d="M38.8,103.7h-0.5v-2.2c0-0.7-0.2-1-0.7-1c-0.5,0-0.8,0.3-1,0.9v2.3h-0.5v-3.2h0.5v0.4c0.3-0.4,0.6-0.5,1-0.5
			c0.4,0,0.7,0.1,0.8,0.2c0.2,0.2,0.3,0.5,0.3,0.9V103.7z"/>
		<path class="st1" d="M42.6,100.6H42v2c0,0.3,0,0.6,0.1,0.7c0.1,0.1,0.2,0.2,0.5,0.2v0.2c-0.7,0-1.1-0.4-1.1-1.1v-2h-0.3v-0.2h0.3
			v-0.4H42v0.4h0.6V100.6z"/>
		<path class="st1" d="M46.2,103.7h-0.5v-2.2c0-0.7-0.2-1-0.7-1c-0.5,0-0.8,0.3-1,0.9v2.3h-0.5v-5H44v2.2c0.3-0.4,0.6-0.5,1-0.5
			c0.4,0,0.7,0.1,0.8,0.2c0.2,0.2,0.3,0.5,0.3,0.9V103.7z"/>
		<path class="st1" d="M50.1,101.7h-2v-0.2h1.5c0-0.6-0.3-0.9-0.8-0.9c-0.3,0-0.6,0.1-0.8,0.4c-0.2,0.3-0.3,0.6-0.3,1.1
			c0,0.5,0.1,0.8,0.3,1.1c0.2,0.3,0.5,0.4,0.8,0.4c0.4,0,0.7-0.2,1-0.5l0.2,0.2c-0.3,0.3-0.7,0.5-1.1,0.5c-0.5,0-0.8-0.2-1.2-0.5
			c-0.3-0.3-0.5-0.7-0.5-1.2c0-0.5,0.2-0.9,0.5-1.2c0.3-0.3,0.7-0.5,1.1-0.5c0.3,0,0.6,0.1,0.9,0.4C50,101,50.1,101.3,50.1,101.7z"
			/>
		<path class="st1" d="M55.1,103.3c-0.3,0.3-0.7,0.4-1.1,0.4c-0.5,0-0.8-0.2-1.2-0.5c-0.3-0.3-0.5-0.7-0.5-1.2
			c0-0.5,0.2-0.9,0.5-1.2c0.3-0.3,0.7-0.5,1.2-0.5c0.4,0,0.7,0.1,1,0.3l-0.1,0.2c-0.2-0.2-0.5-0.4-0.9-0.4c-0.3,0-0.6,0.2-0.8,0.5
			c-0.2,0.3-0.3,0.6-0.3,1c0,0.4,0.1,0.8,0.3,1c0.2,0.3,0.5,0.5,0.8,0.5c0.4,0,0.7-0.2,1-0.5L55.1,103.3z"/>
		<path class="st1" d="M58.9,102.1c0,0.5-0.2,0.9-0.5,1.2c-0.3,0.3-0.7,0.5-1.2,0.5c-0.5,0-0.8-0.2-1.2-0.5
			c-0.3-0.3-0.5-0.7-0.5-1.2c0-0.5,0.2-0.9,0.5-1.2c0.3-0.3,0.7-0.5,1.2-0.5c0.5,0,0.8,0.2,1.2,0.5
			C58.8,101.2,58.9,101.6,58.9,102.1z M58.4,102.1c0-0.4-0.1-0.8-0.3-1.1c-0.2-0.3-0.5-0.4-0.8-0.4c-0.3,0-0.6,0.1-0.8,0.4
			c-0.2,0.3-0.3,0.6-0.3,1.1c0,0.4,0.1,0.8,0.3,1.1c0.2,0.3,0.5,0.4,0.8,0.4c0.3,0,0.6-0.1,0.8-0.4
			C58.3,102.8,58.4,102.5,58.4,102.1z"/>
		<path class="st1" d="M64.3,103.7h-0.5v-2.2c0-0.3,0-0.5-0.1-0.7c-0.1-0.1-0.2-0.2-0.5-0.2c-0.4,0-0.6,0.3-0.9,0.8c0,0,0,0.1,0,0.1
			v2.2h-0.5v-2.2c0-0.3,0-0.5-0.1-0.7c-0.1-0.1-0.3-0.2-0.5-0.2c-0.2,0-0.3,0.1-0.5,0.2c-0.2,0.2-0.3,0.4-0.4,0.6v2.3h-0.5v-3.2h0.5
			v0.4c0.3-0.3,0.6-0.5,0.9-0.5c0.5,0,0.8,0.2,1,0.5c0.3-0.4,0.6-0.5,1-0.5c0.7,0,1.1,0.4,1.1,1.1V103.7z"/>
		<path class="st1" d="M68.2,102.1c0,0.5-0.1,0.9-0.4,1.2c-0.3,0.3-0.6,0.5-1.1,0.5c-0.3,0-0.6-0.1-0.8-0.4v0.3h-0.5v-5h0.5v4.2
			c0.1,0.2,0.2,0.4,0.3,0.5c0.1,0.1,0.3,0.2,0.5,0.2c0.3,0,0.5-0.1,0.7-0.4c0.2-0.3,0.3-0.6,0.3-1.1c0-0.4-0.1-0.8-0.3-1.1
			c-0.2-0.3-0.4-0.4-0.7-0.4c-0.2,0-0.3,0.1-0.4,0.2l-0.1-0.2c0.2-0.1,0.4-0.1,0.6-0.1c0.4,0,0.8,0.2,1.1,0.5
			C68.1,101.2,68.2,101.6,68.2,102.1z"/>
		<path class="st1" d="M69.8,99c0,0.1,0,0.2-0.1,0.2s-0.1,0.1-0.2,0.1c-0.1,0-0.2,0-0.2-0.1s-0.1-0.1-0.1-0.2c0-0.1,0-0.2,0.1-0.2
			c0.1-0.1,0.1-0.1,0.2-0.1c0.1,0,0.2,0,0.2,0.1C69.8,98.8,69.8,98.9,69.8,99z M69.8,103.7h-0.5v-3.2h0.5V103.7z"/>
		<path class="st1" d="M73.5,103.7h-0.5v-2.2c0-0.7-0.2-1-0.7-1c-0.5,0-0.8,0.3-1,0.9v2.3h-0.5v-3.2h0.5v0.4c0.3-0.4,0.6-0.5,1-0.5
			c0.4,0,0.7,0.1,0.8,0.2c0.2,0.2,0.3,0.5,0.3,0.9V103.7z"/>
		<path class="st1" d="M77,101.6L77,101.6v2.1h-0.5v-0.3c-0.2,0.2-0.5,0.3-0.8,0.3c-0.3,0-0.6-0.1-0.8-0.3c-0.2-0.2-0.4-0.4-0.4-0.8
			c0-0.3,0.1-0.6,0.4-0.8c0.2-0.2,0.5-0.3,0.7-0.3c0.1,0,0.2,0,0.2,0c0.2,0,0.3,0.1,0.4,0.1l-0.1,0.2c-0.2-0.1-0.3-0.2-0.5-0.2
			c-0.2,0-0.4,0.1-0.5,0.2c-0.1,0.2-0.2,0.4-0.2,0.7c0,0.3,0.1,0.5,0.2,0.6c0.1,0.2,0.3,0.2,0.5,0.2c0.3,0,0.6-0.2,0.8-0.5v-1.5
			c0-0.7-0.2-1-0.7-1c-0.3,0-0.5,0.1-0.8,0.3l-0.1-0.2c0.2-0.2,0.5-0.2,0.9-0.2C76.6,100.4,77,100.8,77,101.6z"/>
		<path class="st1" d="M79.3,100.6h-0.6v2c0,0.3,0,0.6,0.1,0.7c0.1,0.1,0.2,0.2,0.5,0.2v0.2c-0.7,0-1.1-0.4-1.1-1.1v-2h-0.3v-0.2
			h0.3v-0.4h0.5v0.4h0.6V100.6z"/>
		<path class="st1" d="M80.8,99c0,0.1,0,0.2-0.1,0.2s-0.1,0.1-0.2,0.1c-0.1,0-0.2,0-0.2-0.1s-0.1-0.1-0.1-0.2c0-0.1,0-0.2,0.1-0.2
			c0.1-0.1,0.1-0.1,0.2-0.1c0.1,0,0.2,0,0.2,0.1C80.8,98.8,80.8,98.9,80.8,99z M80.8,103.7h-0.5v-3.2h0.5V103.7z"/>
		<path class="st1" d="M85.1,102.1c0,0.5-0.2,0.9-0.5,1.2c-0.3,0.3-0.7,0.5-1.2,0.5c-0.5,0-0.8-0.2-1.2-0.5
			c-0.3-0.3-0.5-0.7-0.5-1.2c0-0.5,0.2-0.9,0.5-1.2c0.3-0.3,0.7-0.5,1.2-0.5c0.5,0,0.8,0.2,1.2,0.5C85,101.2,85.1,101.6,85.1,102.1z
			 M84.6,102.1c0-0.4-0.1-0.8-0.3-1.1c-0.2-0.3-0.5-0.4-0.8-0.4c-0.3,0-0.6,0.1-0.8,0.4c-0.2,0.3-0.3,0.6-0.3,1.1
			c0,0.4,0.1,0.8,0.3,1.1c0.2,0.3,0.5,0.4,0.8,0.4c0.3,0,0.6-0.1,0.8-0.4C84.5,102.8,84.6,102.5,84.6,102.1z"/>
		<path class="st1" d="M88.8,103.7h-0.5v-2.2c0-0.7-0.2-1-0.7-1c-0.5,0-0.8,0.3-1,0.9v2.3h-0.5v-3.2h0.5v0.4c0.3-0.4,0.6-0.5,1-0.5
			c0.4,0,0.7,0.1,0.8,0.2c0.2,0.2,0.3,0.5,0.3,0.9V103.7z"/>
		<path class="st1" d="M94.5,102.1c0,0.5-0.2,0.9-0.5,1.2c-0.3,0.3-0.7,0.5-1.2,0.5c-0.5,0-0.8-0.2-1.2-0.5
			c-0.3-0.3-0.5-0.7-0.5-1.2c0-0.5,0.2-0.9,0.5-1.2c0.3-0.3,0.7-0.5,1.2-0.5c0.5,0,0.8,0.2,1.2,0.5
			C94.4,101.2,94.5,101.6,94.5,102.1z M94,102.1c0-0.4-0.1-0.8-0.3-1.1c-0.2-0.3-0.5-0.4-0.8-0.4c-0.3,0-0.6,0.1-0.8,0.4
			c-0.2,0.3-0.3,0.6-0.3,1.1c0,0.4,0.1,0.8,0.3,1.1c0.2,0.3,0.5,0.4,0.8,0.4c0.3,0,0.6-0.1,0.8-0.4C93.9,102.8,94,102.5,94,102.1z"
			/>
		<path class="st1" d="M96.8,100.6h-0.6v3.1h-0.5v-3.1h-0.3v-0.2h0.3v-0.7c0-0.7,0.4-1,1.1-1v0.2c-0.2,0-0.4,0.1-0.5,0.2
			c-0.1,0.1-0.1,0.4-0.1,0.7v0.7h0.6V100.6z"/>
		<path class="st1" d="M3.6,112.7H3.2v-2.2c0-0.7-0.2-1-0.7-1c-0.5,0-0.8,0.3-1,0.9v2.3H1v-3.2h0.5v0.4c0.3-0.4,0.6-0.5,1-0.5
			c0.4,0,0.7,0.1,0.8,0.2c0.2,0.2,0.3,0.5,0.3,0.9V112.7z"/>
		<path class="st1" d="M7.1,110.6L7.1,110.6v2.1H6.6v-0.3c-0.2,0.2-0.5,0.3-0.8,0.3c-0.3,0-0.6-0.1-0.8-0.3
			c-0.2-0.2-0.4-0.4-0.4-0.8c0-0.3,0.1-0.6,0.4-0.8c0.2-0.2,0.5-0.3,0.7-0.3c0.1,0,0.2,0,0.2,0c0.2,0,0.3,0.1,0.4,0.1L6.3,111
			c-0.2-0.1-0.3-0.2-0.5-0.2c-0.2,0-0.4,0.1-0.5,0.2c-0.1,0.2-0.2,0.4-0.2,0.7c0,0.3,0.1,0.5,0.2,0.6c0.1,0.2,0.3,0.2,0.5,0.2
			c0.3,0,0.6-0.2,0.8-0.5v-1.5c0-0.7-0.2-1-0.7-1c-0.3,0-0.5,0.1-0.8,0.3L5,109.7c0.2-0.2,0.5-0.2,0.9-0.2
			C6.7,109.4,7.1,109.8,7.1,110.6z"/>
		<path class="st1" d="M9.4,109.6H8.8v2c0,0.3,0,0.6,0.1,0.7c0.1,0.1,0.2,0.2,0.5,0.2v0.2c-0.7,0-1.1-0.4-1.1-1.1v-2H8v-0.2h0.3
			v-0.4h0.5v0.4h0.6V109.6z"/>
		<path class="st1" d="M13,112.7h-0.5v-0.6c-0.2,0.4-0.6,0.6-1,0.6c-0.8,0-1.2-0.4-1.2-1.2v-2.2h0.5v2.2c0,0.7,0.2,1,0.7,1
			c0.3,0,0.5-0.2,0.7-0.5c0.1-0.2,0.2-0.4,0.2-0.6v-2.1H13V112.7z"/>
		<path class="st1" d="M15.6,109.5l-0.1,0.2c-0.1-0.1-0.3-0.1-0.4-0.1c-0.1,0-0.1,0-0.2,0.1c-0.2,0.1-0.3,0.4-0.3,0.9c0,0,0,0,0,0
			v2.1h-0.5v-3.2h0.5v0.4c0.1-0.1,0.1-0.2,0.2-0.3c0.1-0.1,0.2-0.1,0.4-0.1C15.3,109.4,15.5,109.4,15.6,109.5z"/>
		<path class="st1" d="M18.7,110.6L18.7,110.6v2.1h-0.5v-0.3c-0.2,0.2-0.5,0.3-0.8,0.3c-0.3,0-0.6-0.1-0.8-0.3
			c-0.2-0.2-0.4-0.4-0.4-0.8c0-0.3,0.1-0.6,0.4-0.8c0.2-0.2,0.5-0.3,0.7-0.3c0.1,0,0.2,0,0.2,0c0.2,0,0.3,0.1,0.4,0.1l-0.1,0.2
			c-0.2-0.1-0.3-0.2-0.5-0.2c-0.2,0-0.4,0.1-0.5,0.2c-0.1,0.2-0.2,0.4-0.2,0.7c0,0.3,0.1,0.5,0.2,0.6c0.1,0.2,0.3,0.2,0.5,0.2
			c0.3,0,0.6-0.2,0.8-0.5v-1.5c0-0.7-0.2-1-0.7-1c-0.3,0-0.5,0.1-0.8,0.3l-0.1-0.2c0.2-0.2,0.5-0.2,0.9-0.2
			C18.3,109.4,18.7,109.8,18.7,110.6z"/>
		<path class="st1" d="M20.3,112.7h-0.5v-5h0.5V112.7z"/>
		<path class="st1" d="M23.3,112.7h-0.5v-5h0.5V112.7z"/>
		<path class="st1" d="M26.7,110.6L26.7,110.6v2.1h-0.5v-0.3c-0.2,0.2-0.5,0.3-0.8,0.3c-0.3,0-0.6-0.1-0.8-0.3
			c-0.2-0.2-0.4-0.4-0.4-0.8c0-0.3,0.1-0.6,0.4-0.8c0.2-0.2,0.5-0.3,0.7-0.3c0.1,0,0.2,0,0.2,0c0.2,0,0.3,0.1,0.4,0.1l-0.1,0.2
			c-0.2-0.1-0.3-0.2-0.5-0.2c-0.2,0-0.4,0.1-0.5,0.2c-0.1,0.2-0.2,0.4-0.2,0.7c0,0.3,0.1,0.5,0.2,0.6c0.1,0.2,0.3,0.2,0.5,0.2
			c0.3,0,0.6-0.2,0.8-0.5v-1.5c0-0.7-0.2-1-0.7-1c-0.3,0-0.5,0.1-0.8,0.3l-0.1-0.2c0.2-0.2,0.5-0.2,0.9-0.2
			C26.3,109.4,26.7,109.8,26.7,110.6z"/>
		<path class="st1" d="M30.5,112.7H30v-2.2c0-0.7-0.2-1-0.7-1c-0.5,0-0.8,0.3-1,0.9v2.3h-0.5v-3.2h0.5v0.4c0.3-0.4,0.6-0.5,1-0.5
			c0.4,0,0.7,0.1,0.8,0.2c0.2,0.2,0.3,0.5,0.3,0.9V112.7z"/>
		<path class="st1" d="M34.3,112.7h-0.5v-0.3c-0.2,0.2-0.5,0.4-0.8,0.4c-0.4,0-0.8-0.2-1.1-0.5c-0.3-0.3-0.4-0.7-0.4-1.2
			c0-0.5,0.1-0.9,0.4-1.2c0.3-0.3,0.6-0.5,1.1-0.5c0.2,0,0.4,0,0.6,0.1l-0.1,0.2c-0.1-0.1-0.3-0.2-0.5-0.2c-0.2,0-0.5,0.1-0.6,0.4
			c-0.2,0.3-0.3,0.7-0.3,1.1c0,0.4,0.1,0.8,0.3,1.1c0.2,0.3,0.4,0.4,0.7,0.4c0.2,0,0.3-0.1,0.5-0.2c0.1-0.1,0.2-0.3,0.3-0.5v-4.2
			h0.5V112.7z"/>
		<path class="st1" d="M37.2,111.9c0,0.3-0.1,0.5-0.3,0.6c-0.2,0.2-0.4,0.2-0.7,0.2c-0.4,0-0.7-0.1-0.9-0.4l0.2-0.2
			c0.2,0.3,0.5,0.4,0.8,0.4c0.2,0,0.3-0.1,0.4-0.2c0.1-0.1,0.2-0.3,0.2-0.4c0-0.2-0.1-0.4-0.3-0.5c-0.1-0.1-0.3-0.2-0.6-0.4
			c-0.4-0.2-0.5-0.5-0.5-0.9c0-0.2,0.1-0.4,0.3-0.6c0.2-0.1,0.4-0.2,0.6-0.2c0.1,0,0.3,0,0.5,0.1c0.2,0.1,0.3,0.2,0.3,0.3l-0.2,0.2
			c-0.2-0.3-0.4-0.4-0.7-0.4c-0.3,0-0.5,0.1-0.5,0.4c0,0.2,0.1,0.4,0.3,0.6c0.4,0.2,0.6,0.4,0.7,0.5C37,111.3,37.2,111.6,37.2,111.9
			z"/>
		<path class="st1" d="M40.8,112.3c-0.3,0.3-0.7,0.4-1.1,0.4c-0.5,0-0.8-0.2-1.2-0.5c-0.3-0.3-0.5-0.7-0.5-1.2
			c0-0.5,0.2-0.9,0.5-1.2c0.3-0.3,0.7-0.5,1.2-0.5c0.4,0,0.7,0.1,1,0.3l-0.1,0.2c-0.2-0.2-0.5-0.4-0.9-0.4c-0.3,0-0.6,0.2-0.8,0.5
			c-0.2,0.3-0.3,0.6-0.3,1c0,0.4,0.1,0.8,0.3,1c0.2,0.3,0.5,0.5,0.8,0.5c0.4,0,0.7-0.2,1-0.5L40.8,112.3z"/>
		<path class="st1" d="M43.9,110.6L43.9,110.6v2.1h-0.5v-0.3c-0.2,0.2-0.5,0.3-0.8,0.3c-0.3,0-0.6-0.1-0.8-0.3
			c-0.2-0.2-0.4-0.4-0.4-0.8c0-0.3,0.1-0.6,0.4-0.8c0.2-0.2,0.5-0.3,0.7-0.3c0.1,0,0.2,0,0.2,0c0.2,0,0.3,0.1,0.4,0.1l-0.1,0.2
			c-0.2-0.1-0.3-0.2-0.5-0.2c-0.2,0-0.4,0.1-0.5,0.2c-0.1,0.2-0.2,0.4-0.2,0.7c0,0.3,0.1,0.5,0.2,0.6c0.1,0.2,0.3,0.2,0.5,0.2
			c0.3,0,0.6-0.2,0.8-0.5v-1.5c0-0.7-0.2-1-0.7-1c-0.3,0-0.5,0.1-0.8,0.3l-0.1-0.2c0.2-0.2,0.5-0.2,0.9-0.2
			C43.5,109.4,43.9,109.8,43.9,110.6z"/>
		<path class="st1" d="M47.7,111.1c0,0.5-0.1,0.8-0.4,1.2c-0.3,0.3-0.6,0.5-1,0.5c-0.2,0-0.4,0-0.6-0.1l0.1-0.2
			c0.1,0.1,0.3,0.2,0.5,0.2c0.2,0,0.5-0.1,0.6-0.4c0.2-0.3,0.3-0.6,0.3-1.1c0-0.4-0.1-0.8-0.3-1.1c-0.2-0.3-0.4-0.4-0.7-0.4
			c-0.2,0-0.3,0.1-0.5,0.2c-0.1,0.1-0.2,0.3-0.3,0.5v3.6H45v-4.4h0.5v0.3c0.2-0.2,0.5-0.4,0.8-0.4c0.4,0,0.8,0.2,1,0.5
			C47.6,110.2,47.7,110.6,47.7,111.1z"/>
		<path class="st1" d="M51.5,110.7h-2v-0.2h1.5c0-0.6-0.3-0.9-0.8-0.9c-0.3,0-0.6,0.1-0.8,0.4s-0.3,0.6-0.3,1.1
			c0,0.5,0.1,0.8,0.3,1.1c0.2,0.3,0.5,0.4,0.8,0.4c0.4,0,0.7-0.2,1-0.5l0.2,0.2c-0.3,0.3-0.7,0.5-1.1,0.5c-0.5,0-0.8-0.2-1.2-0.5
			c-0.3-0.3-0.5-0.7-0.5-1.2c0-0.5,0.2-0.9,0.5-1.2c0.3-0.3,0.7-0.5,1.1-0.5c0.3,0,0.6,0.1,0.9,0.4C51.4,110,51.5,110.3,51.5,110.7z
			"/>
		<path class="st1" d="M56.2,110.6L56.2,110.6v2.1h-0.5v-0.3c-0.2,0.2-0.5,0.3-0.8,0.3c-0.3,0-0.6-0.1-0.8-0.3
			c-0.2-0.2-0.4-0.4-0.4-0.8c0-0.3,0.1-0.6,0.4-0.8c0.2-0.2,0.5-0.3,0.7-0.3c0.1,0,0.2,0,0.2,0c0.2,0,0.3,0.1,0.4,0.1l-0.1,0.2
			c-0.2-0.1-0.3-0.2-0.5-0.2c-0.2,0-0.4,0.1-0.5,0.2c-0.1,0.2-0.2,0.4-0.2,0.7c0,0.3,0.1,0.5,0.2,0.6c0.1,0.2,0.3,0.2,0.5,0.2
			c0.3,0,0.6-0.2,0.8-0.5v-1.5c0-0.7-0.2-1-0.7-1c-0.3,0-0.5,0.1-0.8,0.3l-0.1-0.2c0.2-0.2,0.5-0.2,0.9-0.2
			C55.8,109.4,56.2,109.8,56.2,110.6z"/>
		<path class="st1" d="M60,112.7h-0.5v-2.2c0-0.7-0.2-1-0.7-1c-0.5,0-0.8,0.3-1,0.9v2.3h-0.5v-3.2h0.5v0.4c0.3-0.4,0.6-0.5,1-0.5
			c0.4,0,0.7,0.1,0.8,0.2c0.2,0.2,0.3,0.5,0.3,0.9V112.7z"/>
		<path class="st1" d="M63.8,112.7h-0.5v-0.3c-0.2,0.2-0.5,0.4-0.8,0.4c-0.4,0-0.8-0.2-1.1-0.5c-0.3-0.3-0.4-0.7-0.4-1.2
			c0-0.5,0.1-0.9,0.4-1.2c0.3-0.3,0.6-0.5,1.1-0.5c0.2,0,0.4,0,0.6,0.1l-0.1,0.2c-0.2-0.1-0.3-0.2-0.5-0.2c-0.2,0-0.5,0.1-0.6,0.4
			c-0.2,0.3-0.3,0.7-0.3,1.1c0,0.4,0.1,0.8,0.3,1.1c0.2,0.3,0.4,0.4,0.7,0.4c0.2,0,0.3-0.1,0.5-0.2c0.1-0.1,0.2-0.3,0.3-0.5v-4.2
			h0.5V112.7z"/>
		<path class="st1" d="M68.7,110.6L68.7,110.6v2.1h-0.5v-0.3c-0.2,0.2-0.5,0.3-0.8,0.3c-0.3,0-0.6-0.1-0.8-0.3
			c-0.2-0.2-0.4-0.4-0.4-0.8c0-0.3,0.1-0.6,0.4-0.8c0.2-0.2,0.5-0.3,0.7-0.3c0.1,0,0.2,0,0.2,0c0.2,0,0.3,0.1,0.4,0.1l-0.1,0.2
			c-0.2-0.1-0.3-0.2-0.5-0.2c-0.2,0-0.4,0.1-0.5,0.2c-0.1,0.2-0.2,0.4-0.2,0.7c0,0.3,0.1,0.5,0.2,0.6c0.1,0.2,0.3,0.2,0.5,0.2
			c0.3,0,0.6-0.2,0.8-0.5v-1.5c0-0.7-0.2-1-0.7-1c-0.3,0-0.5,0.1-0.8,0.3l-0.1-0.2c0.2-0.2,0.5-0.2,0.9-0.2
			C68.3,109.4,68.7,109.8,68.7,110.6z"/>
		<path class="st1" d="M71.3,109.5l-0.1,0.2c-0.1-0.1-0.3-0.1-0.4-0.1c-0.1,0-0.1,0-0.2,0.1c-0.2,0.1-0.3,0.4-0.3,0.9c0,0,0,0,0,0
			v2.1h-0.5v-3.2h0.5v0.4c0.1-0.1,0.1-0.2,0.2-0.3c0.1-0.1,0.2-0.1,0.4-0.1C71.1,109.4,71.2,109.4,71.3,109.5z"/>
		<path class="st1" d="M73.6,109.6H73v2c0,0.3,0,0.6,0.1,0.7c0.1,0.1,0.2,0.2,0.5,0.2v0.2c-0.7,0-1.1-0.4-1.1-1.1v-2h-0.3v-0.2h0.3
			v-0.4H73v0.4h0.6V109.6z"/>
		<path class="st1" d="M75.1,108c0,0.1,0,0.2-0.1,0.2s-0.1,0.1-0.2,0.1c-0.1,0-0.2,0-0.2-0.1s-0.1-0.1-0.1-0.2c0-0.1,0-0.2,0.1-0.2
			c0.1-0.1,0.1-0.1,0.2-0.1c0.1,0,0.2,0,0.2,0.1C75,107.8,75.1,107.9,75.1,108z M75,112.7h-0.5v-3.2H75V112.7z"/>
		<path class="st1" d="M77.9,111.9c0,0.3-0.1,0.5-0.3,0.6c-0.2,0.2-0.4,0.2-0.7,0.2c-0.4,0-0.7-0.1-0.9-0.4l0.2-0.2
			c0.2,0.3,0.5,0.4,0.8,0.4c0.2,0,0.3-0.1,0.4-0.2c0.1-0.1,0.2-0.3,0.2-0.4c0-0.2-0.1-0.4-0.3-0.5c-0.1-0.1-0.3-0.2-0.6-0.4
			c-0.4-0.2-0.5-0.5-0.5-0.9c0-0.2,0.1-0.4,0.3-0.6c0.2-0.1,0.4-0.2,0.6-0.2c0.2,0,0.3,0,0.5,0.1c0.2,0.1,0.3,0.2,0.3,0.3l-0.2,0.2
			c-0.2-0.3-0.4-0.4-0.7-0.4c-0.3,0-0.5,0.1-0.5,0.4c0,0.2,0.1,0.4,0.3,0.6c0.4,0.2,0.6,0.4,0.7,0.5
			C77.7,111.3,77.9,111.6,77.9,111.9z"/>
		<path class="st1" d="M80.1,109.6h-0.6v2c0,0.3,0,0.6,0.1,0.7c0.1,0.1,0.2,0.2,0.5,0.2v0.2c-0.7,0-1.1-0.4-1.1-1.1v-2h-0.3v-0.2H79
			v-0.4h0.5v0.4h0.6V109.6z"/>
		<path class="st1" d="M81.6,108c0,0.1,0,0.2-0.1,0.2s-0.1,0.1-0.2,0.1c-0.1,0-0.2,0-0.2-0.1S81,108.1,81,108c0-0.1,0-0.2,0.1-0.2
			c0.1-0.1,0.1-0.1,0.2-0.1c0.1,0,0.2,0,0.2,0.1C81.6,107.8,81.6,107.9,81.6,108z M81.6,112.7h-0.5v-3.2h0.5V112.7z"/>
		<path class="st1" d="M85.4,112.3c-0.3,0.3-0.7,0.4-1.1,0.4c-0.5,0-0.8-0.2-1.2-0.5c-0.3-0.3-0.5-0.7-0.5-1.2
			c0-0.5,0.2-0.9,0.5-1.2c0.3-0.3,0.7-0.5,1.2-0.5c0.4,0,0.7,0.1,1,0.3l-0.1,0.2c-0.2-0.2-0.5-0.4-0.9-0.4c-0.3,0-0.6,0.2-0.8,0.5
			c-0.2,0.3-0.3,0.6-0.3,1c0,0.4,0.1,0.8,0.3,1c0.2,0.3,0.5,0.5,0.8,0.5c0.4,0,0.7-0.2,1-0.5L85.4,112.3z"/>
		<path class="st1" d="M90.2,110.7h-2v-0.2h1.5c0-0.6-0.3-0.9-0.8-0.9c-0.3,0-0.6,0.1-0.8,0.4s-0.3,0.6-0.3,1.1
			c0,0.5,0.1,0.8,0.3,1.1c0.2,0.3,0.5,0.4,0.8,0.4c0.4,0,0.7-0.2,1-0.5l0.2,0.2c-0.3,0.3-0.7,0.5-1.1,0.5c-0.5,0-0.8-0.2-1.2-0.5
			c-0.3-0.3-0.5-0.7-0.5-1.2c0-0.5,0.2-0.9,0.5-1.2c0.3-0.3,0.7-0.5,1.1-0.5c0.3,0,0.6,0.1,0.9,0.4C90,110,90.2,110.3,90.2,110.7z"
			/>
		<path class="st1" d="M93.9,112.7h-0.6l-1-1.5l-1.2,1.5l-0.2,0l1.3-1.6l-1.1-1.6h0.6l0.9,1.2l1-1.2l0.2,0l-1.1,1.4L93.9,112.7z"/>
		<path class="st1" d="M97.4,111.1c0,0.5-0.1,0.8-0.4,1.2c-0.3,0.3-0.6,0.5-1,0.5c-0.2,0-0.4,0-0.6-0.1l0.1-0.2
			c0.1,0.1,0.3,0.2,0.5,0.2c0.2,0,0.5-0.1,0.6-0.4c0.2-0.3,0.3-0.6,0.3-1.1c0-0.4-0.1-0.8-0.3-1.1s-0.4-0.4-0.7-0.4
			c-0.2,0-0.3,0.1-0.5,0.2c-0.1,0.1-0.2,0.3-0.3,0.5v3.6h-0.5v-4.4h0.5v0.3c0.2-0.2,0.5-0.4,0.8-0.4c0.4,0,0.8,0.2,1,0.5
			C97.3,110.2,97.4,110.6,97.4,111.1z"/>
		<path class="st1" d="M99.9,109.5l-0.1,0.2c-0.1-0.1-0.3-0.1-0.4-0.1c-0.1,0-0.1,0-0.2,0.1c-0.2,0.1-0.3,0.4-0.3,0.9c0,0,0,0,0,0
			v2.1h-0.5v-3.2h0.5v0.4c0.1-0.1,0.1-0.2,0.2-0.3c0.1-0.1,0.2-0.1,0.4-0.1C99.7,109.4,99.8,109.4,99.9,109.5z"/>
		<path class="st1" d="M103.4,110.7h-2v-0.2h1.5c0-0.6-0.3-0.9-0.8-0.9c-0.3,0-0.6,0.1-0.8,0.4s-0.3,0.6-0.3,1.1
			c0,0.5,0.1,0.8,0.3,1.1c0.2,0.3,0.5,0.4,0.8,0.4c0.4,0,0.7-0.2,1-0.5l0.2,0.2c-0.3,0.3-0.7,0.5-1.1,0.5c-0.5,0-0.8-0.2-1.2-0.5
			c-0.3-0.3-0.5-0.7-0.5-1.2c0-0.5,0.2-0.9,0.5-1.2c0.3-0.3,0.7-0.5,1.1-0.5c0.3,0,0.6,0.1,0.9,0.4
			C103.2,110,103.4,110.3,103.4,110.7z"/>
		<path class="st1" d="M106.1,111.9c0,0.3-0.1,0.5-0.3,0.6c-0.2,0.2-0.4,0.2-0.7,0.2c-0.4,0-0.7-0.1-0.9-0.4l0.2-0.2
			c0.2,0.3,0.5,0.4,0.8,0.4c0.2,0,0.3-0.1,0.4-0.2c0.1-0.1,0.2-0.3,0.2-0.4c0-0.2-0.1-0.4-0.3-0.5c-0.1-0.1-0.3-0.2-0.6-0.4
			c-0.4-0.2-0.5-0.5-0.5-0.9c0-0.2,0.1-0.4,0.3-0.6c0.2-0.1,0.4-0.2,0.6-0.2c0.1,0,0.3,0,0.5,0.1c0.2,0.1,0.3,0.2,0.3,0.3l-0.2,0.2
			c-0.2-0.3-0.4-0.4-0.7-0.4c-0.3,0-0.5,0.1-0.5,0.4c0,0.2,0.1,0.4,0.3,0.6c0.4,0.2,0.6,0.4,0.7,0.5
			C106,111.3,106.1,111.6,106.1,111.9z"/>
		<path class="st1" d="M108.8,111.9c0,0.3-0.1,0.5-0.3,0.6c-0.2,0.2-0.4,0.2-0.7,0.2c-0.4,0-0.7-0.1-0.9-0.4l0.2-0.2
			c0.2,0.3,0.5,0.4,0.8,0.4c0.2,0,0.3-0.1,0.4-0.2c0.1-0.1,0.2-0.3,0.2-0.4c0-0.2-0.1-0.4-0.3-0.5c-0.1-0.1-0.3-0.2-0.6-0.4
			c-0.4-0.2-0.5-0.5-0.5-0.9c0-0.2,0.1-0.4,0.3-0.6c0.2-0.1,0.4-0.2,0.6-0.2c0.2,0,0.3,0,0.5,0.1c0.2,0.1,0.3,0.2,0.3,0.3l-0.2,0.2
			c-0.2-0.3-0.4-0.4-0.7-0.4c-0.3,0-0.5,0.1-0.5,0.4c0,0.2,0.1,0.4,0.3,0.6c0.4,0.2,0.6,0.4,0.7,0.5
			C108.7,111.3,108.9,111.6,108.8,111.9z"/>
		<path class="st1" d="M110.4,108c0,0.1,0,0.2-0.1,0.2s-0.1,0.1-0.2,0.1c-0.1,0-0.2,0-0.2-0.1s-0.1-0.1-0.1-0.2c0-0.1,0-0.2,0.1-0.2
			c0.1-0.1,0.1-0.1,0.2-0.1c0.1,0,0.2,0,0.2,0.1C110.4,107.8,110.4,107.9,110.4,108z M110.3,112.7h-0.5v-3.2h0.5V112.7z"/>
		<path class="st1" d="M114.7,111.1c0,0.5-0.2,0.9-0.5,1.2c-0.3,0.3-0.7,0.5-1.2,0.5c-0.5,0-0.8-0.2-1.2-0.5
			c-0.3-0.3-0.5-0.7-0.5-1.2c0-0.5,0.2-0.9,0.5-1.2c0.3-0.3,0.7-0.5,1.2-0.5c0.5,0,0.8,0.2,1.2,0.5
			C114.5,110.2,114.7,110.6,114.7,111.1z M114.2,111.1c0-0.4-0.1-0.8-0.3-1.1c-0.2-0.3-0.5-0.4-0.8-0.4c-0.3,0-0.6,0.1-0.8,0.4
			c-0.2,0.3-0.3,0.6-0.3,1.1c0,0.4,0.1,0.8,0.3,1.1c0.2,0.3,0.5,0.4,0.8,0.4c0.3,0,0.6-0.1,0.8-0.4
			C114.1,111.8,114.2,111.5,114.2,111.1z"/>
		<path class="st1" d="M118.3,112.7h-0.5v-2.2c0-0.7-0.2-1-0.7-1c-0.5,0-0.8,0.3-1,0.9v2.3h-0.5v-3.2h0.5v0.4c0.3-0.4,0.6-0.5,1-0.5
			c0.4,0,0.7,0.1,0.8,0.2c0.2,0.2,0.3,0.5,0.3,0.9V112.7z"/>
		<path class="st1" d="M120.1,112.5c0,0.1,0,0.2-0.1,0.2s-0.1,0.1-0.2,0.1c-0.1,0-0.2,0-0.2-0.1s-0.1-0.1-0.1-0.2
			c0-0.1,0-0.2,0.1-0.2s0.1-0.1,0.2-0.1c0.1,0,0.2,0,0.2,0.1S120.1,112.4,120.1,112.5z"/>
	</g>
</g>
</svg>
