<svg width="110" height="79" viewBox="0 0 110 79" fill="none" xmlns="http://www.w3.org/2000/svg">
<g clip-path="url(#clip0_138_6435)">
<path d="M1.05 47.458V47.956H4.932V47.458H1.05ZM1.326 46.132V46.636H4.668V46.132H1.326ZM0.456 48.844V49.354H5.574V48.844H0.456ZM2.682 46.348V49.126H3.276V46.348H2.682ZM1.356 44.11V44.638H3.246V44.11H1.356ZM2.67 44.11V44.428H2.832C3.438 45.268 4.44 46.126 5.448 46.6C5.532 46.444 5.718 46.21 5.832 46.09C4.848 45.7 3.84 44.914 3.3 44.11H2.67ZM2.766 44.11C2.22 44.878 1.11 45.754 0.18 46.168C0.312 46.288 0.456 46.486 0.534 46.624C1.47 46.138 2.586 45.22 3.18 44.398L2.766 44.11ZM7.608 48.634V49.186H10.956V48.634H7.608ZM7.326 46.924V49.504H7.902V47.464H10.662V49.492H11.268V46.924H7.326ZM9.846 44.86C10.428 45.4 11.112 46.168 11.406 46.672L11.886 46.324C11.574 45.82 10.86 45.076 10.29 44.56L9.846 44.86ZM7.056 46.462C7.056 46.354 7.41 46.186 7.41 46.186V46.168C8.04 45.652 8.718 44.914 9.282 44.128L8.712 43.882C8.268 44.614 7.584 45.364 7.368 45.562C7.17 45.754 7.02 45.88 6.87 45.91C6.936 46.06 7.032 46.348 7.056 46.462ZM7.056 46.462C7.338 46.366 7.734 46.354 11.28 46.168C11.256 46.048 11.232 45.814 11.226 45.658L7.452 45.814L7.05 46.018L7.056 46.462ZM12.912 46.144V46.732H18.33V46.144H12.912ZM15.3 43.942V49.504H15.912V43.942H15.3ZM19.254 45.616V46.198H24.558V45.616H19.254ZM22.248 45.85L21.678 45.982C22.128 47.614 22.914 48.868 24.246 49.492C24.342 49.33 24.528 49.084 24.672 48.958C23.418 48.442 22.626 47.266 22.248 45.85ZM21.588 43.942C21.57 45.46 21.648 47.914 19.14 49.018C19.302 49.138 19.476 49.342 19.566 49.492C22.17 48.274 22.182 45.628 22.206 43.942H21.588ZM27.186 45.238V45.67H30.876V45.238H27.186ZM27.468 46.894V47.308H30.606V46.894H27.468ZM27.222 47.71V48.148H30.816V47.71H27.222ZM28.62 43.942V48.664H29.16V43.942H28.62ZM27.546 44.422V44.86H29.994V46.066H27.51V46.51H30.498V44.422H27.546ZM25.56 44.29V44.794H26.928V44.29H25.56ZM26.028 46.006L25.986 46.504H26.916V46.006H26.028ZM26.718 46.006V46.108C26.58 47.626 26.136 48.61 25.386 49.132C25.506 49.204 25.716 49.402 25.8 49.504C26.568 48.928 27.066 47.812 27.24 46.072L26.922 45.994L26.82 46.006H26.718ZM26.028 46.93L25.608 47.08C26.178 49.006 27.336 49.372 29.058 49.372H30.78C30.81 49.222 30.906 48.97 30.99 48.856C30.636 48.862 29.358 48.862 29.076 48.862C27.594 48.862 26.502 48.574 26.028 46.93ZM25.764 46.732C25.764 46.624 26.154 46.45 26.154 46.45V46.444C26.52 45.94 26.928 45.208 27.264 44.446L26.916 44.212L26.712 44.302V44.332C26.472 45.004 26.064 45.718 25.932 45.904C25.812 46.102 25.656 46.252 25.536 46.282C25.608 46.396 25.722 46.618 25.764 46.732ZM31.902 45.532V45.94H33.984V45.532H31.902ZM32.7 45.658V46.924H33.222V45.658H32.7ZM31.83 46.894L31.902 47.356C32.478 47.272 33.258 47.164 34.002 47.05L33.984 46.612C33.192 46.726 32.376 46.834 31.83 46.894ZM34.836 45.622V46.084C34.836 46.438 34.686 46.804 33.93 47.08C34.032 47.146 34.224 47.32 34.296 47.416C35.118 47.092 35.316 46.576 35.316 46.096V45.622H34.836ZM35.856 45.502V46.702C35.856 47.056 35.892 47.164 35.982 47.254C36.072 47.338 36.216 47.374 36.348 47.374C36.42 47.374 36.564 47.374 36.642 47.374C36.738 47.374 36.858 47.356 36.93 47.32C37.02 47.278 37.074 47.206 37.116 47.11C37.146 47.008 37.176 46.762 37.182 46.534C37.056 46.492 36.9 46.414 36.804 46.336C36.798 46.546 36.792 46.708 36.78 46.78C36.768 46.852 36.744 46.888 36.726 46.9C36.702 46.918 36.66 46.924 36.624 46.924C36.582 46.924 36.522 46.924 36.492 46.924C36.462 46.924 36.432 46.918 36.414 46.9C36.39 46.876 36.39 46.81 36.39 46.708V45.502H35.856ZM31.8 47.65V48.106H37.206V47.65H31.8ZM34.218 47.284V49.498H34.77V47.284H34.218ZM34.098 46.384C34.584 46.6 35.256 46.924 35.598 47.128L35.802 46.744C35.454 46.558 34.782 46.252 34.302 46.054L34.098 46.384ZM34.2 45.502V45.886H36.036V45.502H34.2ZM32.55 44.278V44.716H34.446V44.278H32.55ZM34.998 44.278V44.716H37.248V44.278H34.998ZM32.628 43.888C32.43 44.302 32.082 44.71 31.716 44.98C31.83 45.076 32.022 45.268 32.106 45.37C32.484 45.046 32.886 44.542 33.132 44.038L32.628 43.888ZM35.058 43.888C34.896 44.326 34.59 44.746 34.236 45.022C34.356 45.1 34.566 45.274 34.662 45.364C35.022 45.046 35.376 44.536 35.58 44.026L35.058 43.888ZM32.952 44.902C33.132 45.082 33.36 45.34 33.468 45.502L33.852 45.202C33.738 45.04 33.504 44.8 33.318 44.632L32.952 44.902ZM35.574 44.884C35.754 45.058 35.964 45.292 36.066 45.448L36.474 45.154C36.366 45.004 36.144 44.782 35.964 44.626L35.574 44.884ZM33.396 48.19C33.054 48.526 32.4 48.82 31.794 48.952C31.92 49.066 32.088 49.282 32.166 49.42C32.808 49.228 33.48 48.832 33.864 48.37L33.396 48.19ZM35.142 48.502C35.676 48.742 36.372 49.12 36.72 49.372L37.122 48.976C36.756 48.724 36.048 48.37 35.514 48.154L35.142 48.502ZM38.472 44.836V45.316H39.606V46.084H38.472V46.57H40.11V44.836H38.472ZM38.49 47.05V47.536H39.66V48.436H38.49V48.916H40.17V47.05H38.49ZM38.256 44.836V49.312H38.766V44.836H38.256ZM40.314 44.236V44.752H43.548V44.236H40.314ZM38.982 43.93C38.934 44.242 38.82 44.674 38.718 44.968L39.168 45.058C39.306 44.788 39.474 44.374 39.606 44.008L38.982 43.93ZM41.658 44.47V49.498H42.192V44.47H41.658ZM40.53 45.406V48.592H41.052V45.916H43.122V45.406H40.53ZM42.852 45.406V48.04C42.852 48.1 42.834 48.118 42.774 48.118C42.72 48.124 42.546 48.124 42.354 48.118C42.426 48.256 42.492 48.466 42.51 48.61C42.822 48.61 43.032 48.604 43.188 48.514C43.344 48.43 43.38 48.286 43.38 48.046V45.406H42.852ZM0.294 56.896V57.364H5.7V56.896H0.294ZM1.434 55.858V56.272H4.182V55.858H1.434ZM2.778 56.68V57.928C2.778 58.006 2.754 58.024 2.658 58.03C2.562 58.03 2.214 58.03 1.878 58.018C1.95 58.156 2.034 58.348 2.064 58.498C2.532 58.498 2.844 58.498 3.06 58.426C3.276 58.348 3.336 58.216 3.336 57.946V56.68H2.778ZM4.044 55.858V55.954C3.774 56.188 3.234 56.506 2.778 56.68C2.85 56.746 2.982 56.884 3.042 56.974C3.588 56.764 4.194 56.446 4.626 56.122L4.296 55.828L4.176 55.858H4.044ZM0.414 55.09V56.248H0.954V55.516H5.034V56.248H5.598V55.09H0.414ZM4.734 53.152C4.704 53.842 4.644 54.748 4.566 55.312H5.112C5.178 54.766 5.238 53.86 5.274 53.152H4.734ZM3.822 53.152V53.524H4.956V53.152H3.822ZM1.956 52.978C1.644 53.08 1.122 53.23 0.768 53.29L0.972 53.608C1.332 53.554 1.842 53.458 2.202 53.314L1.956 52.978ZM1.056 53.8V54.166H2.16V53.8H1.056ZM1.08 54.442V54.814H2.184V54.442H1.08ZM3.858 53.8V54.166H4.902V53.8H3.858ZM3.822 54.442V54.814H4.86V54.442H3.822ZM3.258 52.984C3.03 53.29 2.616 53.572 2.208 53.764C2.298 53.824 2.448 53.956 2.514 54.028C2.922 53.812 3.372 53.464 3.642 53.092L3.258 52.984ZM2.322 53.278C2.712 53.464 3.186 53.758 3.414 53.974L3.696 53.716C3.45 53.506 2.976 53.218 2.592 53.044L2.322 53.278ZM3.27 53.998C3.03 54.322 2.586 54.622 2.16 54.814C2.25 54.88 2.394 55.03 2.46 55.102C2.892 54.874 3.366 54.508 3.654 54.112L3.27 53.998ZM2.298 54.292C2.706 54.502 3.198 54.826 3.432 55.06L3.72 54.796C3.474 54.562 2.97 54.256 2.574 54.064L2.298 54.292ZM0.768 53.29L0.894 55.294H1.422L1.308 53.434L0.768 53.29ZM7.332 53.194V53.71H11.982V53.194H7.332ZM7.41 57.874V58.348H11.994V57.874H7.41ZM9.768 56.788V57.238H11.448V56.788H9.768ZM6.972 53.194V55.006C6.972 55.954 6.93 57.292 6.462 58.228C6.6 58.282 6.834 58.414 6.942 58.492C7.44 57.502 7.512 56.014 7.512 55.006V53.194H6.972ZM9.468 56.236V58.138H10.02V56.236H9.468ZM8.13 56.662V58.144H8.67V56.662H8.13ZM7.668 54.712V55.12H9.534V54.712H7.668ZM8.388 54.064V56.26H8.862V54.064H8.388ZM8.328 54.886C8.13 55.276 7.764 55.696 7.416 55.9C7.518 55.984 7.656 56.134 7.728 56.248C8.082 55.978 8.448 55.474 8.646 55.006L8.328 54.886ZM9.702 54.712V55.12H11.874V54.712H9.702ZM10.47 54.064V56.26H10.95V54.064H10.47ZM10.332 54.886C10.14 55.27 9.75 55.69 9.39 55.894C9.492 55.978 9.63 56.134 9.702 56.248C10.074 55.984 10.458 55.474 10.656 55L10.332 54.886ZM8.838 55.102L8.562 55.312C8.73 55.438 9.102 55.774 9.24 55.924L9.522 55.57C9.408 55.48 8.976 55.186 8.838 55.102ZM9.102 53.806C8.784 53.938 8.178 54.034 7.65 54.082C7.704 54.172 7.758 54.322 7.782 54.412C8.346 54.376 9.024 54.274 9.468 54.094L9.102 53.806ZM11.268 53.782C10.92 53.926 10.248 54.016 9.672 54.07C9.72 54.154 9.78 54.31 9.798 54.4C10.416 54.364 11.154 54.256 11.64 54.076L11.268 53.782ZM10.956 55.126L10.698 55.366C10.944 55.54 11.532 56.014 11.754 56.23L12.012 55.852C11.844 55.726 11.16 55.246 10.956 55.126ZM15.6 54.814C15.87 54.814 16.104 54.61 16.104 54.316C16.104 54.016 15.87 53.812 15.6 53.812C15.324 53.812 15.096 54.016 15.096 54.316C15.096 54.61 15.324 54.814 15.6 54.814ZM15.6 57.718C15.87 57.718 16.104 57.514 16.104 57.22C16.104 56.92 15.87 56.716 15.6 56.716C15.324 56.716 15.096 56.92 15.096 57.22C15.096 57.514 15.324 57.718 15.6 57.718ZM0.522 62.734V63.238H5.466V62.734H0.522ZM0.858 63.646V64.132H5.172V63.646H0.858ZM0.45 65.452V65.938H5.592V65.452H0.45ZM0.318 64.558V65.056H5.724V64.558H0.318ZM2.694 63.034V64.942H3.276V63.034H2.694ZM1.326 62.11C1.524 62.338 1.722 62.662 1.794 62.878L2.322 62.644C2.238 62.434 2.034 62.128 1.83 61.906L1.326 62.11ZM4.08 61.906C3.954 62.176 3.732 62.554 3.552 62.794L4.056 62.956C4.242 62.734 4.476 62.398 4.68 62.074L4.08 61.906ZM2.64 64.93C2.52 66.064 2.244 66.7 0.21 66.982C0.318 67.108 0.456 67.348 0.498 67.492C2.7 67.132 3.09 66.316 3.234 64.93H2.64ZM3.024 66.364C3.834 66.676 4.926 67.18 5.454 67.528L5.724 67.036C5.172 66.7 4.068 66.22 3.276 65.938L3.024 66.364ZM7.578 63.43V63.838H11.022V63.43H7.578ZM10.044 63.01C10.26 63.124 10.518 63.298 10.65 63.436L10.914 63.148C10.782 63.016 10.518 62.848 10.296 62.752L10.044 63.01ZM10.374 64.072C10.122 65.056 9.588 65.806 8.802 66.262C8.898 66.34 9.06 66.52 9.12 66.61C9.93 66.088 10.524 65.26 10.824 64.156L10.374 64.072ZM7.518 65.812L7.578 66.232C8.07 66.148 8.688 66.04 9.294 65.932L9.276 65.542C8.622 65.65 7.968 65.746 7.518 65.812ZM8.148 64.492H8.712V65.002H8.148V64.492ZM7.764 64.168V65.326H9.108V64.168H7.764ZM9.282 62.842C9.384 64.642 9.6 66.298 10.392 66.502C10.746 66.646 11.004 66.412 11.088 65.716C10.992 65.668 10.818 65.542 10.728 65.452C10.692 65.824 10.638 66.07 10.56 66.052C10.062 65.956 9.822 64.45 9.762 62.842H9.282ZM6.762 62.206V67.528H7.302V62.722H11.268V67.528H11.832V62.206H6.762ZM7.098 66.748V67.258H11.58V66.748H7.098ZM14.4 63.724V64.252H18.372V63.724H14.4ZM14.79 62.338V62.866H17.412V65.956H17.964V62.338H14.79ZM14.718 65.122V65.656H17.718V65.122H14.718ZM15.804 62.518V64.516C15.804 65.392 15.708 66.496 14.358 67.096C14.49 67.204 14.664 67.408 14.742 67.528C16.182 66.808 16.362 65.572 16.362 64.516V62.518H15.804ZM14.202 61.954C13.86 62.842 13.284 63.718 12.696 64.276C12.792 64.408 12.948 64.714 13.002 64.846C13.674 64.174 14.322 63.136 14.73 62.122L14.202 61.954ZM13.596 63.544V67.498H14.136V63.01L14.13 63.004L13.596 63.544ZM19.182 63.736V64.264H22.044V63.736H19.182ZM22.398 62.656V65.998H22.95V62.656H22.398ZM20.388 62.482V67.498H20.946V62.482H20.388ZM23.85 62.05V66.784C23.85 66.898 23.802 66.934 23.688 66.94C23.568 66.94 23.19 66.94 22.776 66.928C22.86 67.09 22.95 67.348 22.98 67.51C23.532 67.51 23.892 67.492 24.114 67.402C24.33 67.306 24.414 67.144 24.414 66.784V62.05H23.85ZM21.588 61.966C21.018 62.224 20.004 62.44 19.122 62.566C19.194 62.686 19.272 62.878 19.296 63.01C20.208 62.89 21.276 62.692 22.002 62.404L21.588 61.966ZM20.376 63.982C20.124 64.738 19.566 65.662 19.044 66.16C19.14 66.31 19.284 66.544 19.344 66.712C19.908 66.13 20.466 65.056 20.772 64.15L20.376 63.982ZM20.868 64.594L20.568 64.894C20.85 65.146 21.462 65.752 21.714 66.052L22.044 65.566C21.858 65.404 21.096 64.75 20.868 64.594ZM27.552 64.072V64.588H30.984V64.072H27.552ZM28.602 66.76V67.258H30.42V66.76H28.602ZM28.326 65.332V67.51H28.842V65.824H30.198V67.492H30.732V65.332H28.326ZM28.836 63.424C28.632 64.564 28.182 65.488 27.444 66.034C27.558 66.13 27.756 66.34 27.828 66.448C28.608 65.8 29.118 64.792 29.37 63.514L28.836 63.424ZM25.656 63.76V64.198H27.384V63.76H25.656ZM25.656 64.558V64.996H27.384V64.558H25.656ZM25.422 62.944V63.406H27.546V62.944H25.422ZM25.896 65.374V65.836H26.952V66.694H25.896V67.156H27.432V65.374H25.896ZM25.656 65.374V67.426H26.124V65.374H25.656ZM26.046 62.128C26.202 62.38 26.388 62.734 26.472 62.956L26.91 62.698C26.82 62.482 26.634 62.158 26.466 61.912L26.046 62.128ZM27.618 62.53V63.034H29.232V62.53H27.618ZM28.266 61.936V63.586H28.812V61.936H28.266ZM29.826 61.936V63.586H30.378V61.936H29.826ZM29.394 62.524V63.028H30.954V62.524H29.394ZM34.452 63.796H36.498V64.456H34.452V63.796ZM34.452 62.692H36.498V63.34H34.452V62.692ZM33.936 62.206V64.942H37.044V62.206H33.936ZM33.876 65.566V66.082H37.116V65.566H33.876ZM33.432 66.796V67.312H37.32V66.796H33.432ZM31.746 62.314V62.848H33.672V62.314H31.746ZM31.806 64.048V64.576H33.576V64.048H31.806ZM31.68 66.34L31.812 66.916C32.364 66.736 33.066 66.502 33.726 66.28L33.624 65.734C32.922 65.968 32.178 66.202 31.68 66.34ZM32.454 62.524V66.328L33 66.232V62.524H32.454ZM35.238 62.422V64.708H35.19V67.036H35.772V64.708H35.724V62.422H35.238ZM38.412 62.59V63.178H43.206V62.59H38.412ZM38.088 66.496V67.066H43.524V66.496H38.088ZM40.458 62.902V66.73H41.1V62.902H40.458ZM44.394 65.896V66.364H49.8V65.896H44.394ZM45.534 64.858V65.272H48.282V64.858H45.534ZM46.878 65.68V66.928C46.878 67.006 46.854 67.024 46.758 67.03C46.662 67.03 46.314 67.03 45.978 67.018C46.05 67.156 46.134 67.348 46.164 67.498C46.632 67.498 46.944 67.498 47.16 67.426C47.376 67.348 47.436 67.216 47.436 66.946V65.68H46.878ZM48.144 64.858V64.954C47.874 65.188 47.334 65.506 46.878 65.68C46.95 65.746 47.082 65.884 47.142 65.974C47.688 65.764 48.294 65.446 48.726 65.122L48.396 64.828L48.276 64.858H48.144ZM44.514 64.09V65.248H45.054V64.516H49.134V65.248H49.698V64.09H44.514ZM48.834 62.152C48.804 62.842 48.744 63.748 48.666 64.312H49.212C49.278 63.766 49.338 62.86 49.374 62.152H48.834ZM47.922 62.152V62.524H49.056V62.152H47.922ZM46.056 61.978C45.744 62.08 45.222 62.23 44.868 62.29L45.072 62.608C45.432 62.554 45.942 62.458 46.302 62.314L46.056 61.978ZM45.156 62.8V63.166H46.26V62.8H45.156ZM45.18 63.442V63.814H46.284V63.442H45.18ZM47.958 62.8V63.166H49.002V62.8H47.958ZM47.922 63.442V63.814H48.96V63.442H47.922ZM47.358 61.984C47.13 62.29 46.716 62.572 46.308 62.764C46.398 62.824 46.548 62.956 46.614 63.028C47.022 62.812 47.472 62.464 47.742 62.092L47.358 61.984ZM46.422 62.278C46.812 62.464 47.286 62.758 47.514 62.974L47.796 62.716C47.55 62.506 47.076 62.218 46.692 62.044L46.422 62.278ZM47.37 62.998C47.13 63.322 46.686 63.622 46.26 63.814C46.35 63.88 46.494 64.03 46.56 64.102C46.992 63.874 47.466 63.508 47.754 63.112L47.37 62.998ZM46.398 63.292C46.806 63.502 47.298 63.826 47.532 64.06L47.82 63.796C47.574 63.562 47.07 63.256 46.674 63.064L46.398 63.292ZM44.868 62.29L44.994 64.294H45.522L45.408 62.434L44.868 62.29ZM53.19 63.754V64.246H55.632V63.754H53.19ZM52.728 64.828V65.338H56.148V64.828H52.728ZM52.71 62.662V63.784H53.238V63.16H55.572V63.784H56.112V62.662H52.71ZM53.538 65.068C53.472 66.082 53.31 66.706 52.206 67.048C52.326 67.156 52.476 67.366 52.53 67.504C53.778 67.072 54.012 66.28 54.084 65.068H53.538ZM54.594 65.056V66.766C54.594 67.27 54.702 67.432 55.17 67.432C55.26 67.432 55.56 67.432 55.656 67.432C56.046 67.432 56.184 67.216 56.226 66.412C56.082 66.376 55.86 66.292 55.752 66.202C55.74 66.85 55.71 66.946 55.596 66.946C55.536 66.946 55.308 66.946 55.26 66.946C55.146 66.946 55.134 66.922 55.134 66.76V65.056H54.594ZM53.892 62.044C54.036 62.29 54.186 62.632 54.246 62.854L54.798 62.662C54.726 62.452 54.57 62.128 54.42 61.882L53.892 62.044ZM50.844 62.182V67.492H51.348V62.692H52.23V62.182H50.844ZM52.098 62.182V62.338C51.99 62.728 51.786 63.46 51.588 64C51.978 64.45 52.074 64.858 52.074 65.17C52.074 65.35 52.038 65.5 51.96 65.56C51.912 65.596 51.846 65.608 51.78 65.614C51.696 65.62 51.594 65.614 51.468 65.608C51.552 65.746 51.6 65.962 51.6 66.1C51.738 66.106 51.882 66.106 52.002 66.088C52.128 66.07 52.236 66.034 52.326 65.968C52.506 65.836 52.578 65.578 52.578 65.224C52.578 64.858 52.488 64.432 52.08 63.94C52.272 63.466 52.482 62.872 52.644 62.374L52.278 62.158L52.194 62.182H52.098ZM1.986 72.238V72.67H5.676V72.238H1.986ZM2.268 73.894V74.308H5.406V73.894H2.268ZM2.022 74.71V75.148H5.616V74.71H2.022ZM3.42 70.942V75.664H3.96V70.942H3.42ZM2.346 71.422V71.86H4.794V73.066H2.31V73.51H5.298V71.422H2.346ZM0.36 71.29V71.794H1.728V71.29H0.36ZM0.828 73.006L0.786 73.504H1.716V73.006H0.828ZM1.518 73.006V73.108C1.38 74.626 0.936 75.61 0.186 76.132C0.306 76.204 0.516 76.402 0.6 76.504C1.368 75.928 1.866 74.812 2.04 73.072L1.722 72.994L1.62 73.006H1.518ZM0.828 73.93L0.408 74.08C0.978 76.006 2.136 76.372 3.858 76.372H5.58C5.61 76.222 5.706 75.97 5.79 75.856C5.436 75.862 4.158 75.862 3.876 75.862C2.394 75.862 1.302 75.574 0.828 73.93ZM0.564 73.732C0.564 73.624 0.954 73.45 0.954 73.45V73.444C1.32 72.94 1.728 72.208 2.064 71.446L1.716 71.212L1.512 71.302V71.332C1.272 72.004 0.864 72.718 0.732 72.904C0.612 73.102 0.456 73.252 0.336 73.282C0.408 73.396 0.522 73.618 0.564 73.732ZM6.702 72.532V72.94H8.784V72.532H6.702ZM7.5 72.658V73.924H8.022V72.658H7.5ZM6.63 73.894L6.702 74.356C7.278 74.272 8.058 74.164 8.802 74.05L8.784 73.612C7.992 73.726 7.176 73.834 6.63 73.894ZM9.636 72.622V73.084C9.636 73.438 9.486 73.804 8.73 74.08C8.832 74.146 9.024 74.32 9.096 74.416C9.918 74.092 10.116 73.576 10.116 73.096V72.622H9.636ZM10.656 72.502V73.702C10.656 74.056 10.692 74.164 10.782 74.254C10.872 74.338 11.016 74.374 11.148 74.374C11.22 74.374 11.364 74.374 11.442 74.374C11.538 74.374 11.658 74.356 11.73 74.32C11.82 74.278 11.874 74.206 11.916 74.11C11.946 74.008 11.976 73.762 11.982 73.534C11.856 73.492 11.7 73.414 11.604 73.336C11.598 73.546 11.592 73.708 11.58 73.78C11.568 73.852 11.544 73.888 11.526 73.9C11.502 73.918 11.46 73.924 11.424 73.924C11.382 73.924 11.322 73.924 11.292 73.924C11.262 73.924 11.232 73.918 11.214 73.9C11.19 73.876 11.19 73.81 11.19 73.708V72.502H10.656ZM6.6 74.65V75.106H12.006V74.65H6.6ZM9.018 74.284V76.498H9.57V74.284H9.018ZM8.898 73.384C9.384 73.6 10.056 73.924 10.398 74.128L10.602 73.744C10.254 73.558 9.582 73.252 9.102 73.054L8.898 73.384ZM9 72.502V72.886H10.836V72.502H9ZM7.35 71.278V71.716H9.246V71.278H7.35ZM9.798 71.278V71.716H12.048V71.278H9.798ZM7.428 70.888C7.23 71.302 6.882 71.71 6.516 71.98C6.63 72.076 6.822 72.268 6.906 72.37C7.284 72.046 7.686 71.542 7.932 71.038L7.428 70.888ZM9.858 70.888C9.696 71.326 9.39 71.746 9.036 72.022C9.156 72.1 9.366 72.274 9.462 72.364C9.822 72.046 10.176 71.536 10.38 71.026L9.858 70.888ZM7.752 71.902C7.932 72.082 8.16 72.34 8.268 72.502L8.652 72.202C8.538 72.04 8.304 71.8 8.118 71.632L7.752 71.902ZM10.374 71.884C10.554 72.058 10.764 72.292 10.866 72.448L11.274 72.154C11.166 72.004 10.944 71.782 10.764 71.626L10.374 71.884ZM8.196 75.19C7.854 75.526 7.2 75.82 6.594 75.952C6.72 76.066 6.888 76.282 6.966 76.42C7.608 76.228 8.28 75.832 8.664 75.37L8.196 75.19ZM9.942 75.502C10.476 75.742 11.172 76.12 11.52 76.372L11.922 75.976C11.556 75.724 10.848 75.37 10.314 75.154L9.942 75.502ZM15.336 71.254V71.788H18.264V71.254H15.336ZM15.174 73.408V73.948H18.384V73.408H15.174ZM17.184 71.476V76.51H17.724V71.476H17.184ZM15.804 71.494V73.564C15.804 74.416 15.72 75.502 15.054 76.216C15.186 76.288 15.39 76.444 15.486 76.54C16.23 75.76 16.338 74.566 16.338 73.57V71.494H15.804ZM12.882 71.248V71.764H15.03V71.248H12.882ZM13.518 73.09V73.6H14.448V75.262H13.518V75.766H14.94V73.09H13.518ZM13.632 71.494C13.476 72.454 13.206 73.366 12.762 73.954C12.846 74.116 12.96 74.458 12.99 74.602C13.572 73.87 13.932 72.748 14.148 71.608L13.632 71.494ZM13.272 73.09V76.228H13.746V73.09H13.272ZM19.572 74.104V74.632H23.046V74.104H19.572ZM22.716 74.104V75.634C22.716 76.222 22.872 76.396 23.4 76.396C23.508 76.396 23.922 76.396 24.036 76.396C24.516 76.396 24.672 76.15 24.726 75.196C24.57 75.154 24.306 75.058 24.186 74.956C24.168 75.724 24.138 75.832 23.976 75.832C23.886 75.832 23.568 75.832 23.496 75.832C23.334 75.832 23.31 75.808 23.31 75.634V74.104H22.716ZM19.344 71.5V72.646H19.914V72.01H23.91V72.598H24.504V71.5H19.344ZM21.234 73.402V74.14C21.234 74.764 20.988 75.568 19.14 76.054C19.272 76.18 19.446 76.39 19.536 76.534C21.54 75.994 21.828 74.986 21.828 74.152V73.402H21.234ZM20.928 71.902C20.844 72.628 20.616 73.006 19.398 73.21C19.512 73.318 19.65 73.528 19.704 73.672C21.09 73.384 21.414 72.856 21.522 71.902H20.928ZM21.468 71.02C21.564 71.278 21.672 71.62 21.72 71.824L22.332 71.698C22.284 71.494 22.158 71.164 22.056 70.924L21.468 71.02ZM22.284 71.896V72.91C22.284 73.414 22.416 73.612 22.986 73.612C23.106 73.612 23.73 73.612 23.88 73.612C24.078 73.612 24.288 73.606 24.396 73.576C24.378 73.444 24.36 73.24 24.348 73.096C24.24 73.12 24.006 73.132 23.862 73.132C23.724 73.132 23.148 73.132 23.022 73.132C22.872 73.132 22.848 73.072 22.848 72.916V71.896H22.284ZM28.632 72.958V73.51H30.972V72.958H28.632ZM29.772 73.348V76.48H30.336V73.348H29.772ZM25.752 71.506V73.642C25.752 74.428 25.722 75.454 25.338 76.168C25.464 76.234 25.704 76.426 25.8 76.528C26.25 75.742 26.31 74.512 26.31 73.642V71.506H25.752ZM30.498 71.008C29.994 71.23 29.142 71.416 28.398 71.518C28.464 71.65 28.542 71.86 28.566 71.998C29.328 71.902 30.246 71.74 30.876 71.5L30.498 71.008ZM26.064 72.448V72.958H27.354V73.816H26.064V74.326H27.906V72.448H26.064ZM27.804 71.056C27.312 71.266 26.472 71.422 25.752 71.506C25.818 71.638 25.89 71.842 25.914 71.974C26.658 71.908 27.558 71.77 28.17 71.536L27.804 71.056ZM28.398 71.518V73.462C28.398 74.314 28.326 75.394 27.558 76.138C27.684 76.216 27.918 76.414 28.008 76.522C28.842 75.724 28.974 74.41 28.974 73.468V71.518H28.398ZM34.5 73.03C34.116 73.03 33.804 73.342 33.804 73.72C33.804 74.104 34.116 74.416 34.5 74.416C34.878 74.416 35.19 74.104 35.19 73.72C35.19 73.342 34.878 73.03 34.5 73.03ZM40.53 71.188V71.704H43.494V71.188H40.53ZM41.226 73.528H42.75V73.966H41.226V73.528ZM41.226 74.404H42.75V74.848H41.226V74.404ZM41.226 72.658H42.75V73.096H41.226V72.658ZM40.71 72.196V75.31H43.29V72.196H40.71ZM41.292 75.316C41.004 75.64 40.494 75.94 40.008 76.126C40.128 76.222 40.32 76.426 40.41 76.528C40.902 76.294 41.466 75.904 41.814 75.496L41.292 75.316ZM41.718 71.416C41.688 71.71 41.616 72.13 41.556 72.418L42.06 72.508C42.144 72.25 42.252 71.854 42.348 71.488L41.718 71.416ZM38.058 71.212V71.734H40.404V71.212H38.058ZM38.796 73.006V73.51H39.774V75.112H38.796V75.61H40.278V73.006H38.796ZM38.82 71.476C38.682 72.592 38.43 73.648 37.932 74.314C38.04 74.434 38.208 74.704 38.274 74.824C38.85 74.038 39.18 72.838 39.366 71.554L38.82 71.476ZM38.538 73.006V76.102H39.036V73.006H38.538ZM42.216 75.562C42.57 75.844 42.996 76.246 43.188 76.51L43.644 76.222C43.434 75.952 42.996 75.562 42.636 75.298L42.216 75.562ZM44.73 75.634V76.198H49.494V75.634H44.73ZM44.4 72.802V73.36H49.818V72.802H44.4ZM46.782 70.954V76.042H47.388V70.954H46.782Z" fill="black"/>
<path d="M1.134 0.935V1.709H2.925V5.588H1.134V6.371H3.717V0.935H1.134ZM1.143 3.23V3.995H3.249V3.23H1.143ZM4.959 0.782V1.574H7.875V0.782H4.959ZM4.959 2.951V3.725H7.875V2.951H4.959ZM4.923 5.129V5.894H7.857V5.129H4.923ZM0.675 0.935V7.19H1.467V0.935H0.675ZM7.56 0.782V7.712C7.56 7.874 7.497 7.928 7.335 7.928C7.182 7.937 6.624 7.946 6.084 7.919C6.21 8.144 6.345 8.513 6.381 8.747C7.155 8.747 7.659 8.729 7.974 8.594C8.289 8.45 8.406 8.207 8.406 7.721V0.782H7.56ZM4.455 0.782V4.013C4.455 5.399 4.311 7.109 2.79 8.252C2.97 8.36 3.294 8.657 3.42 8.828C5.058 7.595 5.292 5.552 5.292 4.022V0.782H4.455ZM11.394 0.989V8.657H12.267V1.844H16.551V8.63H17.46V0.989H11.394ZM11.988 4.067V4.904H16.929V4.067H11.988ZM11.979 7.217V8.072H16.938V7.217H11.979ZM22.779 2.357V3.005H28.314V2.357H22.779ZM23.202 4.841V5.462H27.909V4.841H23.202ZM22.833 6.065V6.722H28.224V6.065H22.833ZM24.93 0.413V7.496H25.74V0.413H24.93ZM23.319 1.133V1.79H26.991V3.599H23.265V4.265H27.747V1.133H23.319ZM20.34 0.935V1.691H22.392V0.935H20.34ZM21.042 3.509L20.979 4.256H22.374V3.509H21.042ZM22.077 3.509V3.662C21.87 5.939 21.204 7.415 20.079 8.198C20.259 8.306 20.574 8.603 20.7 8.756C21.852 7.892 22.599 6.218 22.86 3.608L22.383 3.491L22.23 3.509H22.077ZM21.042 4.895L20.412 5.12C21.267 8.009 23.004 8.558 25.587 8.558H28.17C28.215 8.333 28.359 7.955 28.485 7.784C27.954 7.793 26.037 7.793 25.614 7.793C23.391 7.793 21.753 7.361 21.042 4.895ZM20.646 4.598C20.646 4.436 21.231 4.175 21.231 4.175V4.166C21.78 3.41 22.392 2.312 22.896 1.169L22.374 0.818L22.068 0.953V0.997999C21.708 2.006 21.096 3.077 20.898 3.356C20.718 3.653 20.484 3.878 20.304 3.923C20.412 4.094 20.583 4.427 20.646 4.598ZM30.303 2.798V3.41H33.426V2.798H30.303ZM31.5 2.987V4.886H32.283V2.987H31.5ZM30.195 4.841L30.303 5.534C31.167 5.408 32.337 5.246 33.453 5.075L33.426 4.418C32.238 4.589 31.014 4.751 30.195 4.841ZM34.704 2.933V3.626C34.704 4.157 34.479 4.706 33.345 5.12C33.498 5.219 33.786 5.48 33.894 5.624C35.127 5.138 35.424 4.364 35.424 3.644V2.933H34.704ZM36.234 2.753V4.553C36.234 5.084 36.288 5.246 36.423 5.381C36.558 5.507 36.774 5.561 36.972 5.561C37.08 5.561 37.296 5.561 37.413 5.561C37.557 5.561 37.737 5.534 37.845 5.48C37.98 5.417 38.061 5.309 38.124 5.165C38.169 5.012 38.214 4.643 38.223 4.301C38.034 4.238 37.8 4.121 37.656 4.004C37.647 4.319 37.638 4.562 37.62 4.67C37.602 4.778 37.566 4.832 37.539 4.85C37.503 4.877 37.44 4.886 37.386 4.886C37.323 4.886 37.233 4.886 37.188 4.886C37.143 4.886 37.098 4.877 37.071 4.85C37.035 4.814 37.035 4.715 37.035 4.562V2.753H36.234ZM30.15 5.975V6.659H38.259V5.975H30.15ZM33.777 5.426V8.747H34.605V5.426H33.777ZM33.597 4.076C34.326 4.4 35.334 4.886 35.847 5.192L36.153 4.616C35.631 4.337 34.623 3.878 33.903 3.581L33.597 4.076ZM33.75 2.753V3.329H36.504V2.753H33.75ZM31.275 0.916999V1.574H34.119V0.916999H31.275ZM34.947 0.916999V1.574H38.322V0.916999H34.947ZM31.392 0.331999C31.095 0.953 30.573 1.565 30.024 1.97C30.195 2.114 30.483 2.402 30.609 2.555C31.176 2.069 31.779 1.313 32.148 0.557L31.392 0.331999ZM35.037 0.331999C34.794 0.989 34.335 1.619 33.804 2.033C33.984 2.15 34.299 2.411 34.443 2.546C34.983 2.069 35.514 1.304 35.82 0.538999L35.037 0.331999ZM31.878 1.853C32.148 2.123 32.49 2.51 32.652 2.753L33.228 2.303C33.057 2.06 32.706 1.7 32.427 1.448L31.878 1.853ZM35.811 1.826C36.081 2.087 36.396 2.438 36.549 2.672L37.161 2.231C36.999 2.006 36.666 1.673 36.396 1.439L35.811 1.826ZM32.544 6.785C32.031 7.289 31.05 7.73 30.141 7.928C30.33 8.099 30.582 8.423 30.699 8.63C31.662 8.342 32.67 7.748 33.246 7.055L32.544 6.785ZM35.163 7.253C35.964 7.613 37.008 8.18 37.53 8.558L38.133 7.964C37.584 7.586 36.522 7.055 35.721 6.731L35.163 7.253ZM0.891 15.159V15.996H8.091V15.159H0.891ZM1.332 17.796V18.624H7.695V17.796H1.332ZM0.486 20.631V21.468H8.541V20.631H0.486ZM4.032 15.861V21.072H4.959V15.861H4.032ZM3.249 13.899C3.843 14.331 4.563 14.961 4.896 15.375L5.643 14.835C5.274 14.412 4.527 13.809 3.951 13.422L3.249 13.899ZM14.328 16.194H17.397V17.184H14.328V16.194ZM14.328 14.538H17.397V15.51H14.328V14.538ZM13.554 13.809V17.913H18.216V13.809H13.554ZM13.464 18.849V19.623H18.324V18.849H13.464ZM12.798 20.694V21.468H18.63V20.694H12.798ZM10.269 13.971V14.772H13.158V13.971H10.269ZM10.359 16.572V17.364H13.014V16.572H10.359ZM10.17 20.01L10.368 20.874C11.196 20.604 12.249 20.253 13.239 19.92L13.086 19.101C12.033 19.452 10.917 19.803 10.17 20.01ZM11.331 14.286V19.992L12.15 19.848V14.286H11.331ZM15.507 14.133V17.562H15.435V21.054H16.308V17.562H16.236V14.133H15.507ZM23.769 13.431C23.733 14.88 23.841 19.128 20.124 21.054C20.394 21.243 20.673 21.513 20.826 21.738C24.624 19.614 24.687 15.141 24.732 13.431H23.769ZM24.642 14.529L23.823 14.619C23.949 15.456 24.291 19.983 27.909 21.693C28.035 21.45 28.278 21.162 28.53 20.964C25.047 19.407 24.714 15.213 24.642 14.529Z" fill="#C9A063"/>
</g>
<defs>
<clipPath id="clip0_138_6435">
<rect width="110" height="79" fill="white"/>
</clipPath>
</defs>
</svg>
