<?xml version="1.0" encoding="utf-8"?>
<!-- Generator: Adobe Illustrator 25.2.3, SVG Export Plug-In . SVG Version: 6.00 Build 0)  -->
<svg version="1.1" id="圖層_1" xmlns="http://www.w3.org/2000/svg" xmlns:xlink="http://www.w3.org/1999/xlink" x="0px" y="0px"
	 viewBox="0 0 380 75" style="enable-background:new 0 0 380 75;" xml:space="preserve">
<style type="text/css">
	.st0{fill:#3E3A39;}
</style>
<path class="st0" d="M4.8,2.4V0.2H6v2.2h4v5.4H6v2.9H4.8V7.8h-4V2.4H4.8z M4.8,3.4H2v3.4h2.8V3.4z M8.8,3.4H6v3.4h2.9L8.8,3.4
	L8.8,3.4z"/>
<path class="st0" d="M22.9,0.6v1.1h-4v3.1h3.5v1.1h-3.5v3.4h4.2v1.1H12.5V9.3h1.9V3.5h1.2v5.8h2.2V1.7h-4.6V0.6H22.9z"/>
<path class="st0" d="M29.2,0.6v1.9c0.5-0.3,0.9-0.6,1.2-1c0.3-0.3,0.6-0.7,0.9-1.3l1.1,0.1c-0.1,0.3-0.3,0.6-0.4,0.8h3v0.8
	c-0.6,0.9-1.2,1.7-1.8,2.2c0.6,0.4,1.5,0.8,2.5,1.1l-0.4,0.9c-1.2-0.5-2.2-1-2.9-1.4c-0.8,0.6-1.8,1-3.1,1.4l-0.1-0.2v0.9H28v1.9
	c0.5-0.1,0.9-0.3,1.4-0.4v0.9c-1.2,0.4-2.6,0.9-4.2,1.2l-0.3-1c0.2,0,0.4-0.1,0.6-0.1V4.9h0.9v4.2c0.3,0,0.5-0.1,0.7-0.2V4.1h-1.5
	V0.4h3.6V0.6z M28.2,1.5h-1.8v1.9h1.8V1.5z M28.8,5.3c1.1-0.3,2-0.7,2.8-1.1c-0.4-0.3-0.7-0.7-1.1-1.2c-0.3,0.2-0.6,0.4-0.9,0.6
	L29.2,3v1.3H28v1.6h1.1L28.8,5.3z M34.8,10.8h-1v-0.5h-2.9v0.5h-1V6.3h4.9V10.8z M33.8,9.3V7.4h-2.9v1.9H33.8z M32.3,3.6
	c0.4-0.4,0.9-0.9,1.4-1.5h-2.4c-0.1,0.1-0.1,0.1-0.2,0.2C31.5,2.9,31.9,3.3,32.3,3.6z"/>
<path class="st0" d="M39.2,2.4V0.2h1.1v2.2h1.6v1h-1.6v2.2c0.5-0.2,1.1-0.4,1.6-0.6v1.1c-0.5,0.2-1.1,0.4-1.6,0.6v2.9
	c0,0.4-0.1,0.7-0.3,0.9s-0.5,0.3-0.9,0.3h-1.3l-0.2-1.2c0.5,0.1,0.9,0.1,1.2,0.1s0.4-0.1,0.4-0.3V7c-0.6,0.2-1.1,0.3-1.7,0.4
	l-0.1-1.1C38,6.2,38.6,6.1,39.2,6V3.5h-1.8v-1L39.2,2.4L39.2,2.4z M48,1v1.1h-1.8v7.3c0,0.4-0.1,0.7-0.3,0.9c-0.2,0.2-0.5,0.3-1,0.3
	h-1.7L43,9.4c0.7,0.1,1.2,0.1,1.7,0.1c0.3,0,0.5-0.1,0.5-0.3V2.1h-3V1H48z"/>
<path class="st0" d="M52.8,3v0.8c-0.4,0.6-0.9,1.3-1.4,2h1.4v0.7c-0.2,0.7-0.3,1.3-0.5,1.7c0.4,0.5,0.8,0.8,1.1,0.9
	c0.2,0.1,0.6,0.2,1.1,0.3c0.6,0.1,1.6,0.1,3.3,0.1c1.2,0,2.1,0,2.7-0.1l-0.2,1.1c-3.2,0-5.1,0-5.8-0.1c-0.6-0.1-1.1-0.2-1.5-0.4
	c-0.3-0.1-0.7-0.4-1.1-0.9c-0.3,0.5-0.7,1.1-1.3,1.7L49.8,10c0.6-0.6,1-1.1,1.3-1.6c0.2-0.3,0.4-0.8,0.7-1.7h-1.6V5.8
	c0.5-0.5,1-1.1,1.5-1.9H50V3H52.8z M52.5,2l-0.7,0.7c-0.3-0.5-0.7-1.1-1.2-1.7l0.7-0.6C51.7,0.9,52.1,1.5,52.5,2z M59.5,0.6v0.8
	c-0.6,0.4-1.2,0.8-1.9,1.1c0.1,0.1,0.3,0.1,0.4,0.2l-0.2,0.2h1.9v5c0,0.3-0.1,0.6-0.3,0.8c-0.2,0.2-0.4,0.2-0.7,0.2H58L57.8,8h0.6
	c0.2,0,0.3-0.1,0.3-0.4V7h-1.6v1.8h-1V7h-1.5v1.9h-1V2.8h2.6c-0.5-0.2-1.2-0.4-1.9-0.6l0.6-0.6c0.5,0.1,1,0.3,1.4,0.4
	c0.4-0.1,0.9-0.3,1.4-0.6h-4.5V0.5h6.3V0.6z M56.1,4.6V3.7h-1.5v0.9H56.1z M56.1,6.2V5.4h-1.5v0.8H56.1z M57.1,4.6h1.6V3.7h-1.6V4.6
	z M57.1,6.2h1.6V5.4h-1.6V6.2z"/>
<path class="st0" d="M67.9,6.7c-0.2,0.2-0.5,0.5-0.9,0.7l-0.4-0.6c0.5-0.3,0.9-0.6,0.9-1h-0.7V4.4h1.4v1.1C68.2,6,68.1,6.4,67.9,6.7
	z"/>
<path class="st0" d="M76.2,2.4V0.2h1v2.2h1.1v0.9h-1.1v0.2c0.4,0.5,0.9,1,1.3,1.6L77.9,6c-0.3-0.5-0.5-0.9-0.7-1.3v6h-1V5.5
	c-0.3,0.9-0.7,1.7-1.1,2.4l-0.4-1.2c0.6-1,1.1-2.1,1.5-3.4h-1.3V2.4H76.2z M81.2,0.2v5.3c0,1.2-0.2,2.2-0.5,2.9
	c-0.3,0.8-0.9,1.6-1.8,2.4L78,10c0.8-0.6,1.3-1.2,1.7-2c0.2-0.4,0.3-0.9,0.4-1.6c-0.5,0.4-1.1,0.8-1.7,1.1l-0.5-0.9
	c0.8-0.3,1.5-0.8,2.3-1.4v-5H81.2z M80,4.1l-0.9,0.4c-0.3-1-0.6-1.8-0.9-2.6l0.9-0.3C79.5,2.4,79.8,3.2,80,4.1z M82.8,0.2v4.4
	c0.9,0.5,1.7,1.2,2.4,1.9l-0.6,0.9c-0.6-0.6-1.2-1.2-1.8-1.6v3.5c0,0.2,0.1,0.3,0.4,0.3h0.4c0.1,0,0.2-0.1,0.3-0.2
	C84,9.3,84,8.7,84,7.8l1,0.3c-0.1,1.2-0.2,1.9-0.4,2.1c-0.2,0.2-0.5,0.3-0.9,0.3h-1c-0.3,0-0.6-0.1-0.8-0.2
	c-0.2-0.2-0.3-0.4-0.3-0.7V0.3L82.8,0.2L82.8,0.2z M85,2c-0.3,0.9-0.7,1.7-1.2,2.4l-0.9-0.6c0.4-0.6,0.9-1.3,1.2-2.1L85,2z"/>
<path class="st0" d="M97.3,10.7h-1v-0.4h-7.9v0.4h-1V0.5h9.9V10.7z M96.3,9.4V1.5h-7.9v7.9H96.3z M95.4,4.6v2.1h-3.2
	c-0.1,0.1-0.1,0.1-0.1,0.2v2.2h-0.9V7.7c-0.6,0.4-1.3,0.8-2.1,1l-0.5-0.8c0.8-0.2,1.4-0.5,1.9-0.8c0.2-0.2,0.5-0.3,0.6-0.5h-1.6V4.5
	h5.9V4.6z M91.7,2.1V1.6h0.9v0.5h2.7v0.7h-2.7v0.6h3.2v0.8h-7.2V3.4h3.1V2.8h-2.6V2.1H91.7z M94.5,5.4h-4.2V6h4.2V5.4z M94,7.5
	c0.2-0.2,0.4-0.5,0.5-0.7l0.9,0.5c-0.1,0.2-0.3,0.4-0.5,0.6c0.4,0.2,0.8,0.4,1.1,0.6l-0.5,0.8c-1-0.6-2-1.2-3.1-1.5l0.4-0.7
	C93.2,7.2,93.6,7.4,94,7.5z"/>
<path class="st0" d="M102.9,1h2v0.9h-1.1l0.5,0.2c-0.2,0.6-0.4,1.2-0.6,1.6h1.2v0.9h-2.1v0.9h2.1v0.9h-2c0.8,0.6,1.4,1.1,2,1.7
	l-0.7,0.7c-0.4-0.4-0.8-0.9-1.4-1.3v3.3h-1v-3c-0.5,0.8-1.1,1.5-1.8,2.1L99.4,9c0.9-0.7,1.7-1.5,2.2-2.5h-1.9V5.6h2.1V4.7h-2.2V3.8
	h1.3c-0.1-0.5-0.3-1-0.5-1.6L101,2h-1.3V1h2c-0.1-0.3-0.3-0.5-0.5-0.7l1-0.1C102.5,0.5,102.7,0.7,102.9,1z M102.8,3.7
	c0.2-0.5,0.4-1.1,0.6-1.8h-2.1c0.2,0.5,0.4,1.1,0.6,1.8H102.8z M110.1,1.6c-1.1,0.3-2.2,0.5-3.5,0.5V4h3.5v0.9h-1.2v5.8h-1V4.9h-1.3
	v1c0,0.8-0.2,1.7-0.4,2.6c-0.2,0.8-0.6,1.5-1.1,2.2l-0.8-0.8c0.4-0.6,0.7-1.2,0.9-1.7c0.2-0.6,0.3-1.4,0.3-2.2V1.3
	c1.6,0,2.9-0.2,4-0.7L110.1,1.6z"/>
<path class="st0" d="M114.9,2h1.7v1H112V2h1.8c-0.2-0.5-0.3-1-0.5-1.5l1.2-0.2C114.6,0.8,114.8,1.4,114.9,2z M116.3,9
	c-1.2,0.4-2.5,0.7-4,1L112,9c1.6-0.3,3.1-0.6,4.4-1L116.3,9L116.3,9z M114,8.2l-1,0.2c-0.2-1.6-0.5-3.1-0.8-4.6l0.9-0.3
	C113.5,4.9,113.8,6.4,114,8.2z M116.1,3.5c0,1.6-0.3,3.2-0.7,4.7l-1-0.3c0.4-1.5,0.7-3,0.7-4.5L116.1,3.5z M119.5,0.2v2.1h3v1h-3
	v1.9h2.5v5.6h-1V10h-3.2v0.8h-1V5.2h1.7v-5H119.5z M121,9V6.2h-3.2V9H121z"/>
<path class="st0" d="M126.8,0.6c-0.3,1-0.6,1.9-1,2.7c0.2,0,0.4-0.1,0.7-0.1c0.2-0.5,0.4-1,0.6-1.5L128,2c-0.7,1.7-1.4,3.1-2.1,4.2
	c0.4,0,0.7-0.1,1-0.2c0-0.3-0.1-0.7-0.1-1l0.7-0.2c0.1,0.7,0.3,1.5,0.4,2.3l-0.8,0.2c0-0.2,0-0.3-0.1-0.5c-0.6,0.2-1.4,0.3-2.3,0.4
	l-0.3-0.9c0.2,0,0.4,0,0.5,0c0.4-0.6,0.8-1.4,1.2-2.3c-0.5,0.1-1,0.2-1.6,0.3l-0.2-0.9c0.2,0,0.3,0,0.5,0c0.4-0.9,0.7-2,1.1-3.1
	L126.8,0.6z M125.4,7.7c0,1.2-0.1,2.1-0.3,2.9l-0.9-0.3c0.2-0.9,0.3-1.8,0.4-2.7L125.4,7.7z M126.6,10.2l-0.9,0.1c0-1.1,0-2-0.1-2.7
	h0.7C126.5,8.2,126.6,9.1,126.6,10.2z M127.8,9.4c0.3-0.4,0.5-0.7,0.6-1c0.2-0.3,0.4-0.9,0.6-1.8h-1.2V5.7c0.3-0.4,0.6-1,0.9-1.6
	h-0.9V3.2h1.9v0.7c-0.2,0.6-0.5,1.1-0.9,1.7h1.1v0.6c-0.2,0.9-0.4,1.6-0.6,2c0.4,0.5,0.9,0.8,1.3,0.9c0.6,0.2,1.5,0.3,2.8,0.3
	c0.5,0,1,0,1.5,0l-0.2,1c-2.2,0-3.6-0.1-4.2-0.4c-0.6-0.2-1.1-0.6-1.6-1c-0.3,0.5-0.6,1-1,1.6l-0.7-0.7c0.1-0.1,0.2-0.3,0.3-0.4
	l-0.6,0.2c-0.1-0.8-0.2-1.5-0.3-2.3l0.6-0.2C127.5,8.1,127.7,8.8,127.8,9.4z M129.5,1.9l-0.7,0.7c-0.3-0.4-0.7-0.9-1.2-1.5l0.7-0.6
	C128.7,1,129.2,1.5,129.5,1.9z M132.1,0.4c-0.1,0.2-0.2,0.3-0.3,0.5h2.5v0.6c-0.3,0.5-0.7,1-1.2,1.4c0.5,0.2,1.1,0.4,1.8,0.6
	l-0.4,0.8c-0.9-0.3-1.6-0.6-2.1-0.9c-0.7,0.4-1.4,0.7-2.3,0.9l-0.4-0.8c0.8-0.1,1.4-0.3,1.9-0.6c-0.3-0.2-0.5-0.5-0.8-0.8
	c-0.2,0.2-0.4,0.4-0.7,0.6L129.5,2c0.7-0.5,1.2-1.1,1.6-1.7L132.1,0.4z M131.8,4.4V3.8h1v0.6h1.4v0.9h-1.4V6h1.3v0.8h-1.3v0.7h1.6
	v0.9h-1.6v0.9h-1V8.4h-1.7V7.5h1.7V6.8h-1.4V6h1.4V5.3h-1.5V4.4H131.8z M132.4,2.4c0.3-0.2,0.6-0.5,0.8-0.8h-1.8
	C131.7,2,132,2.2,132.4,2.4z"/>
<path class="st0" d="M142.5,0.2c0.7,0.8,1.4,1.4,2.2,1.9c0.5,0.4,1.4,0.8,2.7,1.3l-0.7,1.1c-0.5-0.2-1-0.4-1.5-0.7v0.7H139V3.8
	c-0.5,0.3-1,0.6-1.7,0.9l-0.6-1.1c1.3-0.5,2.3-1.1,3-1.6c0.6-0.4,1.2-1,1.8-1.8h0.5H142.5z M145.9,10.8h-1.1v-0.6h-5.4v0.6h-1.1V5.9
	h7.6V10.8z M144.8,9.1V6.8h-5.4v2.3H144.8z M144.7,3.6c-0.9-0.6-1.8-1.3-2.7-2.3c-0.7,0.8-1.3,1.4-2,1.9c-0.2,0.2-0.4,0.3-0.6,0.4
	H144.7z"/>
<path class="st0" d="M152.6,1h2v0.9h-1.1l0.5,0.2c-0.2,0.6-0.4,1.2-0.6,1.6h1.2v0.9h-2.1v0.9h2.1v0.9h-2c0.8,0.6,1.4,1.1,2,1.7
	l-0.7,0.7c-0.4-0.4-0.8-0.9-1.4-1.3v3.3h-1v-3c-0.5,0.8-1.1,1.5-1.8,2.1L149.1,9c0.9-0.7,1.7-1.5,2.2-2.5h-1.9V5.6h2.1V4.7h-2.2V3.8
	h1.3c-0.1-0.5-0.3-1-0.5-1.6l0.6-0.2h-1.3V1h2c-0.1-0.3-0.3-0.5-0.5-0.7l1-0.1C152.2,0.5,152.4,0.7,152.6,1z M152.4,3.7
	c0.2-0.5,0.4-1.1,0.6-1.8h-2c0.2,0.5,0.4,1.1,0.6,1.8H152.4z M159.7,1.6c-1.1,0.3-2.2,0.5-3.5,0.5V4h3.5v0.9h-1.2v5.8h-1V4.9h-1.3v1
	c0,0.8-0.2,1.7-0.4,2.6c-0.2,0.8-0.6,1.5-1.1,2.2l-0.8-0.8c0.4-0.6,0.7-1.2,0.9-1.7c0.2-0.6,0.3-1.4,0.3-2.2V1.3
	c1.6,0,2.9-0.2,4-0.7L159.7,1.6z"/>
<path class="st0" d="M163.2,1.2c0,0.5-0.1,1-0.1,1.5h0.7V0.2h1.1v2.5h1.1v1h2.5V2.5h-2.1v-1h2.1V0.2h1.1v1.3h2.3v1h-2.3v1.2h2.7v1
	H171v1.1h1.1v1H171v2.7c0,0.4-0.1,0.7-0.3,0.9s-0.5,0.3-0.9,0.3h-1.6L168,9.6c0.6,0.1,1.1,0.1,1.5,0.1c0.3,0,0.4-0.1,0.4-0.3V6.8
	h-3.8v-1h3.8V4.7h-4.1V3.8h-1V6c0.4-0.1,0.8-0.3,1.1-0.4v1c-0.4,0.1-0.7,0.3-1.1,0.4v3.8h-1.1V7.3c-0.6,0.2-1.2,0.4-1.8,0.6
	l-0.3-1.2c0.7-0.1,1.4-0.3,2.1-0.5V3.7h-0.9c-0.1,0.6-0.2,1.2-0.3,1.7l-1-0.3c0.4-1.2,0.6-2.5,0.8-3.9H163.2z M168.6,8.7l-1,0.7
	c-0.3-0.5-0.7-1.2-1.2-1.9l0.9-0.5C167.8,7.6,168.3,8.2,168.6,8.7z"/>
<path class="st0" d="M184.3,1.5h-8.5v7.8h8.5v1h-8.5v0.4h-1.1V0.5h9.6V1.5z M179.6,5.6v3h-3.4v-3H179.6z M178.7,6.5h-1.6v1.2h1.6
	V6.5z M182.7,2.2V5h-5.5V2.2H182.7z M181.7,3.1h-3.5v1h3.5V3.1z M184.1,5.6v3h-3.6v-3H184.1z M183.2,6.5h-1.7v1.2h1.7V6.5z"/>
<path class="st0" d="M5,21.8c-0.7,1.4-1.5,2.6-2.3,3.4c0.2,0,0.4,0,0.6,0c1.7,0,3.4-0.1,5.2-0.4c-0.4-0.6-0.9-1.2-1.4-1.7l0.8-0.8
	c1.1,1.2,2,2.4,2.7,3.6l-0.9,0.9c-0.2-0.3-0.4-0.7-0.6-1c-2.3,0.3-5.1,0.5-8.4,0.5L0.5,25c0.4,0,0.7,0.1,1.1,0.1
	c0.7-0.9,1.5-2.2,2.3-3.8L5,21.8z M9.7,32H8.5v-0.7H2.4V32H1.3v-4.9h8.4V32z M8.5,30.3v-2.2H2.4v2.2H8.5z"/>
<path class="st0" d="M15.6,21.4c0.7,0.6,1.3,1.3,1.8,1.9L16.6,24c-0.6-0.8-1.1-1.3-1.5-1.7c-0.4,0.6-0.8,1.2-1.3,1.8h2.9V25h-1.2
	v0.9h1.6v0.9h-1.6V30c0.5-0.1,1.1-0.3,1.6-0.4v1c-1.3,0.4-2.8,0.7-4.4,0.9l-0.1-1c0.6,0,1.2-0.1,1.9-0.3V27h-1.8v-0.9h1.8v-0.9h-1.1
	v-0.5c-0.2,0.2-0.4,0.4-0.5,0.6l-0.4-1.1c0.8-0.7,1.4-1.6,2.1-2.7h0.5h0.5V21.4z M14.1,29.9l-1,0.1c0-1-0.1-1.7-0.3-2.3l0.9-0.1
	C13.9,28.2,14.1,28.9,14.1,29.9z M17.2,27.6c0,0.7-0.1,1.4-0.4,2l-0.9-0.2c0.2-0.6,0.4-1.2,0.4-1.8H17.2z M22.4,26.9h-1.7
	c0.1,0.6,0.2,1.1,0.3,1.5c0.5-0.2,0.9-0.6,1.4-1l0.7,0.7c-0.5,0.5-1.1,0.8-1.7,1.1c0.4,0.6,1,1.3,1.9,2L22.5,32
	c-1-0.9-1.7-1.8-2.1-2.6c-0.4-0.7-0.6-1.5-0.6-2.4h-1.2v3.6c0.7-0.2,1.3-0.3,1.9-0.5V31c-1,0.3-2.1,0.6-3.3,0.9L16.9,31
	c0.2,0,0.4-0.1,0.6-0.1v-9h4.8v5H22.4z M21.5,23.9v-1.1h-2.8v1.1H21.5z M21.5,26v-1.3h-2.8V26H21.5z"/>
<path class="st0" d="M29.5,24.8v-3.3h1.3v3.3h3.9v1.1h-3.9V30h4.7v1.2H25.1V30h4.4v-4.1h-3.7v-1.1H29.5z"/>
<path class="st0" d="M38.7,24.4v-2.9h1.1v2.9H41v1.1h-1.2V29c0.4-0.2,0.8-0.3,1.2-0.5v1.2c-1,0.5-2.1,0.9-3.4,1.2l-0.1-1.2
	c0.4,0,0.8-0.1,1.2-0.3v-3.8h-1.2v-1.1h1.2V24.4z M47.7,27.1c0,0.5-0.1,0.9-0.3,1.1c-0.2,0.3-0.7,0.4-1.5,0.4l-0.4-1.1h0.7
	c0.2,0,0.4,0,0.4-0.1s0.1-0.3,0.1-0.6v-2.1l-1.4,0.6v4.3h-1v-3.9L43,26.2v4c0,0.3,0.1,0.4,0.4,0.4h3c0.2,0,0.4,0,0.5-0.1
	c0.1-0.1,0.2-0.5,0.3-1.3l1,0.3c-0.1,1.1-0.3,1.7-0.5,1.9c-0.2,0.2-0.6,0.3-1.1,0.3H43c-0.3,0-0.6-0.1-0.8-0.3
	c-0.2-0.2-0.3-0.5-0.3-0.8v-4L41,26.9v-1.1l0.9-0.3v-2.8H43v2.4l1.3-0.5v-3.1h1v2.7l2.6-1C47.7,25.8,47.7,27.1,47.7,27.1z"/>
<path class="st0" d="M53.5,21.9v1h-1.3c-0.2,1-0.4,1.7-0.6,2.4h1.9V26c0.8-0.6,1.4-1.3,1.8-1.9c0.2-0.3,0.4-0.6,0.5-0.9h-1.1v1.2h-1
	v-2.1h2.4c0.1-0.3,0.2-0.6,0.3-0.9l1,0.1c-0.1,0.3-0.2,0.5-0.2,0.7H60v2.1h-1v-1.2h-2c-0.2,0.5-0.4,0.9-0.6,1.3
	c-0.1,0.3-0.3,0.5-0.5,0.7h1.4c-0.1-0.2-0.3-0.5-0.5-0.8l0.9-0.4c0.2,0.3,0.4,0.7,0.6,1.1h1.9v0.9H58v0.9h2v0.9h-2v0.9h2v0.9h-2v1
	h2.3v0.9h-5v0.5h-1v-5.2c-0.1,0.1-0.2,0.2-0.4,0.3l-0.4-0.5v4.8h-0.9v-0.6h-0.9v1h-0.9v-4.5c-0.2,0.3-0.3,0.6-0.5,0.8l-0.6-1
	c0.5-0.9,0.9-1.7,1.1-2.4c0.1-0.5,0.3-1.1,0.4-1.8H50v-1h3.5V21.9z M52.7,29.8v-3.6h-0.9v3.6H52.7z M57.1,26.1h-1.7V27h1.7V26.1z
	 M57.1,27.8h-1.7v0.9h1.7V27.8z M57.1,30.6v-1h-1.7v1H57.1z"/>
<path class="st0" d="M71.2,24.7v1h-3.1v1.7h3.3v1h-3.3v2.1c0.6,0.1,1.3,0.1,2.1,0.1c0.8,0,1.6,0,2.4-0.1l-0.2,1.2
	c-2.7,0-4.5-0.1-5.2-0.3c-0.6-0.1-1.2-0.4-1.8-0.8c-0.3-0.2-0.6-0.5-0.9-0.9c-0.4,0.7-0.9,1.4-1.6,2.2L62.1,31
	c0.7-0.7,1.2-1.3,1.6-1.9c0.3-0.6,0.6-1.4,0.8-2.4l1.1,0.2c-0.2,0.7-0.4,1.4-0.6,1.9c0.3,0.6,0.8,1,1.3,1.3c0.2,0.1,0.5,0.3,0.7,0.4
	v-4.6h-3.2v-1h7.4V24.7z M68.2,22.4h4.4v2.8h-1.1v-1.8h-7.9v1.8h-1.1v-2.8H67c-0.1-0.3-0.3-0.6-0.5-0.9l1.2-0.2
	C67.9,21.7,68,22.1,68.2,22.4z"/>
<path class="st0" d="M78,21.8c-0.3,0.9-0.6,1.7-0.9,2.3v7.7h-1v-6c-0.3,0.4-0.6,0.9-1,1.3l-0.4-1.3c0.5-0.6,0.9-1.3,1.3-1.9
	c0.4-0.6,0.7-1.4,1.1-2.6L78,21.8z M82.4,23.1l-0.7,0.7h3.2v1h-3v2.1h2.7v1h-2.7v2.6h3.3v1h-7.8v-1h3.4v-2.6h-2.6v-1h2.6v-2.1h-3.1
	v-1h3.7c-0.4-0.5-1-1-1.7-1.5l0.8-0.7C81.3,22.1,81.9,22.6,82.4,23.1z"/>
<path class="st0" d="M89,22.3v-0.9h1v0.9h1.7v0.9H90v0.7h1.5v4.8H90v0.8h1.7v0.9H90V32h-1v-1.6h-1.8v-0.9H89v-0.8h-1.6v-4.8H89v-0.7
	h-1.7v-0.9H89z M89,25.8v-1.1h-0.8v1.1H89z M89,26.6h-0.8v1.2H89V26.6z M90,25.8h0.7v-1.1H90V25.8z M90.6,26.6H90v1.2h0.7L90.6,26.6
	L90.6,26.6z M94.1,22.2v-0.8H95v0.8h2.4v0.9H95v0.5h2.2V27h-0.3c0.3,0.4,0.6,0.8,0.8,1.2l-0.8,0.3c-0.1-0.1-0.1-0.2-0.2-0.3
	c-0.1,0-0.2,0-0.3,0v0.6h1.3v0.9h-1.3v1.2c0,0.4-0.1,0.6-0.2,0.7c-0.1,0.2-0.4,0.2-0.8,0.2h-1.2l-0.2-1c0.4,0.1,0.8,0.1,1.1,0.1
	c0.2,0,0.4-0.1,0.4-0.2v-1.1H93c0.4,0.3,0.8,0.6,1.1,0.9l-0.7,0.7c-0.3-0.4-0.7-0.7-1.2-1.1l0.5-0.5h-1.1v-0.9h3.8v-0.5
	c-1,0.1-2.1,0.1-3.5,0.1l-0.2-0.9c0.8,0,1.6,0,2.3,0v-0.6h-2v-3.4h2.1v-0.5h-2.3V22h2.3V22.2z M94.1,25v-0.6h-1.3V25H94.1z
	 M94.1,25.7h-1.3v0.6h1.3V25.7z M95.1,25h1.3v-0.6h-1.3V25z M96.4,25.7h-1.3v0.6h1.3V25.7z M96.1,27.2l0.4-0.1H95v0.5
	c0.5,0,0.9,0,1.3,0C96.3,27.4,96.2,27.3,96.1,27.2z"/>
<path class="st0" d="M105.4,22.2h4.5v0.9H99.7v-0.9h4.5c-0.2-0.2-0.3-0.4-0.5-0.6l1.2-0.2C105,21.7,105.2,21.9,105.4,22.2z
	 M103.3,24.6h2.7c0.3-0.4,0.5-0.9,0.7-1.4l1,0.4c-0.2,0.4-0.4,0.7-0.7,1h2.3v6.1c0,0.4-0.1,0.6-0.3,0.8c-0.2,0.2-0.4,0.3-0.7,0.3h-1
	l-0.2-1h0.8c0.2,0,0.3-0.1,0.3-0.4v-3h-1.9c-0.3,0-0.6-0.1-0.8-0.2c-0.2-0.1-0.3-0.3-0.3-0.6v-1.1H104c-0.1,0.6-0.2,1-0.4,1.3
	c-0.3,0.4-0.8,0.7-1.7,1.1l-0.7-0.8c0.7-0.2,1.1-0.4,1.4-0.7c0.2-0.2,0.4-0.5,0.4-1h-2v6.4h-1v-7.3h2.1c-0.2-0.3-0.4-0.7-0.6-1
	l1-0.4C102.9,23.6,103.1,24.1,103.3,24.6z M107.3,27.9v2.8h-4.9v-2.8H107.3z M106.3,28.8h-2.9v1h2.9V28.8z M106.4,26.4
	c0,0.2,0.1,0.3,0.4,0.3h1.6v-1.1h-2V26.4z"/>
<path class="st0" d="M117.6,27.9c-0.2,0.2-0.5,0.5-0.9,0.7l-0.4-0.6c0.5-0.3,0.9-0.6,0.9-1h-0.7v-1.4h1.4v1.1
	C117.9,27.2,117.8,27.6,117.6,27.9z"/>
<path class="st0" d="M134.4,22.4v1.1h-4.1v6.8h4.6v1.1h-10.3v-1.1h4.5v-6.8H125v-1.1H134.4z"/>
<path class="st0" d="M141.5,21.4v1.8h1v-1.8h1v1.8h0.8c0.3-0.4,0.5-0.9,0.8-1.6l1.1,0.4c-0.2,0.5-0.4,0.9-0.7,1.2h1.7v0.9H144
	l0.8,0.3c-0.2,0.3-0.3,0.5-0.5,0.7h2.5V26h-4.3v0.6h4v0.9h-4v0.6h4.7V29h-3.7c0.5,0.5,1,0.8,1.4,1c0.5,0.3,1.3,0.5,2.3,0.7l-0.6,0.9
	c-1.2-0.3-2-0.7-2.6-1c-0.5-0.3-1-0.8-1.5-1.4v2.6h-1.1v-2.7c-0.3,0.4-0.7,0.7-1,1c-0.7,0.5-1.7,1-2.9,1.5l-0.5-0.9
	c1.3-0.4,2.2-0.8,2.8-1.1c0.3-0.2,0.6-0.4,0.8-0.6h-3.7v-0.9h4.6v-0.6h-4v-0.9h4V26h-4.2v-0.9h2.6c-0.1-0.2-0.3-0.5-0.4-0.7l0.7-0.3
	h-3.3v-0.9h1.7c-0.1-0.4-0.3-0.8-0.5-1.2l1-0.4c0.2,0.4,0.4,1,0.6,1.6h0.8v-1.8H141.5z M143.1,25.1c0.2-0.3,0.4-0.6,0.6-1h-3.3
	c0.2,0.3,0.3,0.6,0.5,1H143.1z"/>
<path class="st0" d="M159.5,22.7H151v7.8h8.5v1H151v0.4h-1.1V21.7h9.6V22.7z M154.7,26.8v3h-3.4v-3H154.7z M153.8,27.7h-1.6v1.2h1.6
	V27.7z M157.9,23.4v2.7h-5.5v-2.7H157.9z M156.9,24.3h-3.5v1h3.5V24.3z M159.2,26.8v3h-3.6v-3H159.2z M158.3,27.7h-1.7v1.2h1.7V27.7
	z"/>
<path class="st0" d="M172,21.9v0.9h-4.6v1h3.8v4.3h1V29h-1v1.7c0,0.4-0.1,0.7-0.3,0.9c-0.2,0.2-0.4,0.3-0.7,0.3h-1.8l-0.2-1.1
	l1.6,0.1c0.2,0,0.4-0.2,0.4-0.4v-1.4h-6.4v2.8h-1.1v-2.8h-1.1v-0.9h1.1v-4.3h3.7v-1h-4.5V22H172V21.9z M166.3,26v-1.2h-2.6V26H166.3
	z M166.3,28.2v-1.3h-2.6v1.3H166.3z M167.4,26h2.7v-1.2h-2.7V26z M170.1,28.2v-1.3h-2.7v1.3H170.1z"/>
<path class="st0" d="M176,22.3v-0.9h0.9v0.9h1.7v0.9h-1.7v0.7h1.5v4.8h-1.5v0.8h1.7v0.9h-1.7V32H176v-1.6h-1.8v-0.9h1.8v-0.8h-1.6
	v-4.8h1.6v-0.7h-1.7v-0.9H176z M176,25.8v-1.1h-0.8v1.1H176z M176,26.6h-0.8v1.2h0.8V26.6z M176.9,25.8h0.7v-1.1h-0.7V25.8z
	 M177.6,26.6h-0.7v1.2h0.7V26.6z M181.1,22.2v-0.8h0.9v0.8h2.4v0.9H182v0.5h2.2V27h-0.3c0.3,0.4,0.6,0.8,0.8,1.2l-0.8,0.3
	c-0.1-0.1-0.1-0.2-0.2-0.3c-0.1,0-0.2,0-0.3,0v0.6h1.3v0.9h-1.3v1.2c0,0.4-0.1,0.6-0.2,0.7c-0.1,0.2-0.4,0.2-0.8,0.2h-1.2l-0.2-1
	c0.4,0.1,0.8,0.1,1.1,0.1c0.2,0,0.4-0.1,0.4-0.2v-1.1H180c0.4,0.3,0.8,0.6,1.1,0.9l-0.7,0.7c-0.3-0.4-0.7-0.7-1.2-1.1l0.5-0.5h-1.1
	v-0.9h3.8v-0.5c-1,0.1-2.1,0.1-3.5,0.1l-0.2-0.9c0.8,0,1.6,0,2.3,0v-0.6h-2v-3.4h2.1v-0.5h-2.3V22h2.3V22.2z M181.1,25v-0.6h-1.3V25
	H181.1z M181.1,25.7h-1.3v0.6h1.3V25.7z M182,25h1.3v-0.6H182V25z M183.3,25.7H182v0.6h1.3V25.7z M183,27.2l0.4-0.1H182v0.5
	c0.5,0,0.9,0,1.3,0C183.2,27.4,183.1,27.3,183,27.2z"/>
<path class="st0" d="M192.5,21.8v0.9h-1.2v1.5h1.5v0.9h-1.5v2.3h-1v-2.3H189c0,0.4-0.1,0.7-0.2,0.9c-0.2,0.5-0.5,1-1,1.5l-0.9-0.7
	c0.4-0.4,0.7-0.7,0.9-1.2c0.1-0.2,0.1-0.4,0.2-0.6h-1.4v-0.9h1.5v-1.5h-1v-0.9L192.5,21.8L192.5,21.8z M191.1,28.4v-0.8h1.1v0.8h3.9
	v1h-3.9v1.2h4.7v1h-10.3v-1h4.5v-1.2h-3.7v-1H191.1z M190.3,22.7H189v1.5h1.3V22.7z M194.4,22.2v3.7h-1v-3.7H194.4z M196.5,21.5v5.1
	c0,0.3-0.1,0.6-0.3,0.7c-0.2,0.2-0.5,0.2-0.9,0.2h-1.5l-0.2-0.9c0.6,0.1,1.1,0.1,1.4,0.1s0.4-0.1,0.4-0.2v-5H196.5z"/>
<path class="st0" d="M204.3,22.5c-0.6,0.2-1.2,0.3-1.9,0.5v1.5h2.1v1h-2.1v0.1c0.7,0.7,1.5,1.5,2.2,2.4l-0.6,1
	c-0.6-0.9-1.2-1.6-1.6-2.1V32h-1v-5c-0.2,0.5-0.4,0.9-0.6,1.2c-0.4,0.6-0.9,1.3-1.4,1.9l-0.6-1c0.6-0.5,1-1.1,1.4-1.8
	c0.3-0.5,0.6-1,0.8-1.7h-2v-1h2.4v-1.4c-0.6,0.1-1.3,0.2-2,0.2l-0.2-1c1.8-0.1,3.4-0.4,4.8-0.9L204.3,22.5z M206.3,22.3v7.3h-1.1
	v-7.3H206.3z M208.9,21.4v9.2c0,0.4-0.1,0.7-0.3,0.9c-0.2,0.2-0.5,0.3-1,0.3h-1.8l-0.2-1.2c0.7,0.1,1.3,0.1,1.7,0.1
	c0.3,0,0.4-0.1,0.4-0.3v-9H208.9z"/>
<path class="st0" d="M221.4,21.8v8.8c0,0.4-0.1,0.7-0.3,0.9c-0.2,0.2-0.4,0.3-0.8,0.3h-1.5l-0.3-1.1h1.4c0.2,0,0.3-0.1,0.3-0.4v-2
	h-2.9v3.2h-1v-3.2h-3c0,0.4-0.1,0.8-0.2,1.2c-0.2,0.8-0.5,1.6-0.9,2.4l-1-0.8c0.4-0.6,0.7-1.2,0.9-1.9c0.1-0.7,0.2-1.3,0.2-1.9v-5.5
	h0.5H221.4z M216.4,24.6v-1.8h-2.9v1.8H216.4z M216.4,27.5v-1.9h-2.9v1.9H216.4z M217.4,24.6h2.9v-1.8h-2.9V24.6z M217.4,27.5h2.9
	v-1.9h-2.9V27.5z"/>
<path class="st0" d="M3.5,43c-0.3,0.9-0.6,1.7-0.9,2.3v7.8h-1V47c-0.3,0.5-0.7,0.9-1,1.4l-0.4-1.3c0.5-0.6,0.9-1.3,1.3-1.9
	s0.7-1.5,1.1-2.6L3.5,43z M10,43.5c-0.6,0.1-1.1,0.3-1.7,0.4c0,1,0,1.8,0.1,2.6h2.1v1H8.4c0.1,1.1,0.2,2,0.4,2.7
	c0.3,1.1,0.5,1.7,0.8,1.7c0.2,0,0.3-0.6,0.5-1.7L11,51c-0.3,1.3-0.8,2-1.4,2c-0.4,0-0.7-0.2-1-0.6C8.3,52,8,51.3,7.8,50.2
	c-0.2-0.7-0.3-1.6-0.4-2.8H5V50c0.7-0.1,1.4-0.3,2-0.5v1c-1.1,0.4-2.4,0.7-3.8,1L3,50.4c0.3,0,0.7-0.1,1-0.1v-6.9
	c2.1,0,3.9-0.3,5.6-0.7L10,43.5z M7.5,51.9v1H3v-1H7.5z M7.2,44c-0.7,0.1-1.4,0.2-2.2,0.2v2.2h2.3C7.3,45.7,7.2,44.9,7.2,44z"/>
<path class="st0" d="M19,43.5h4.2v0.9H21v1h1.9v0.9H21v1.8h-4.9v-1.8h-1.8v1.3c0,0.8-0.1,1.7-0.2,2.6c-0.2,0.9-0.4,1.8-0.8,2.7
	l-0.9-0.8c0.3-0.7,0.5-1.5,0.7-2.2c0.1-0.8,0.1-1.6,0.1-2.3v-4h4.5c-0.1-0.2-0.3-0.5-0.5-0.7l1.2-0.2C18.6,42.9,18.8,43.1,19,43.5z
	 M22.1,48.6v0.7c-0.6,0.7-1.4,1.4-2.4,1.9c0.9,0.4,2.1,0.7,3.6,1.1l-0.8,0.9c-1.4-0.4-2.6-0.8-3.4-1.2c-0.2-0.1-0.3-0.1-0.5-0.2
	c-1.1,0.5-2.4,0.9-3.8,1.1l-0.5-1c1.2-0.1,2.3-0.4,3.2-0.7c-0.6-0.4-1.1-0.8-1.6-1.3l0.7-0.5H15v-0.9h7.1V48.6z M16.2,44.3h-1.8v1
	h1.8V44.3z M18.6,50.7c0.7-0.4,1.3-0.8,1.8-1.3h-3.7C17.3,49.9,17.9,50.3,18.6,50.7z M20,44.3h-2.7v1H20V44.3z M17.3,47.2H20v-1
	h-2.7V47.2z"/>
<path class="st0" d="M30.4,43.7c-0.6,0.2-1.2,0.3-1.9,0.5v1.5h2.1v1h-2.1v0.1c0.7,0.7,1.5,1.5,2.2,2.4l-0.6,0.9
	c-0.6-0.9-1.2-1.6-1.6-2.1v5.1h-1v-5c-0.2,0.5-0.4,0.9-0.6,1.2c-0.4,0.6-0.9,1.3-1.4,1.9l-0.6-1c0.6-0.5,1-1.1,1.4-1.8
	c0.3-0.5,0.6-1,0.8-1.7h-2v-1h2.4v-1.4c-0.6,0.1-1.3,0.2-2,0.2l-0.2-1c1.8-0.1,3.4-0.4,4.8-0.9L30.4,43.7z M32.4,43.5v7.3h-1.1v-7.3
	H32.4z M35,42.6v9.2c0,0.4-0.1,0.7-0.3,0.9s-0.5,0.3-1,0.3h-1.8l-0.2-1.2c0.7,0.1,1.3,0.1,1.7,0.1c0.3,0,0.4-0.1,0.4-0.3v-9H35z"/>
<path class="st0" d="M47.5,43v8.8c0,0.4-0.1,0.7-0.3,0.9S46.8,53,46.4,53h-1.5l-0.3-1.1H46c0.2,0,0.3-0.1,0.3-0.4v-2h-2.9v3.2h-1
	v-3.2h-3c0,0.4-0.1,0.8-0.2,1.2c-0.2,0.8-0.5,1.6-0.9,2.4l-1-0.8c0.4-0.6,0.7-1.2,0.9-1.9c0.1-0.7,0.2-1.3,0.2-1.9V43H39H47.5z
	 M42.5,45.8V44h-2.9v1.8H42.5z M42.5,48.7v-1.9h-2.9v1.9H42.5z M43.5,45.8h2.9V44h-2.9V45.8z M43.5,48.7h2.9v-1.9h-2.9V48.7z"/>
<path class="st0" d="M53.1,43c-0.3,0.9-0.6,1.7-0.9,2.3V53h-1v-6c-0.3,0.4-0.6,0.9-1,1.3L49.8,47c0.5-0.6,0.9-1.3,1.3-1.9
	c0.4-0.6,0.7-1.5,1.1-2.6L53.1,43z M57.5,44.3L56.8,45H60v1h-3v2.1h2.7v1H57v2.6h3.3v1h-7.8v-1H56v-2.6h-2.6v-1H56V46h-3.1v-1h3.7
	c-0.4-0.5-1-1-1.7-1.5l0.8-0.7C56.4,43.3,57,43.8,57.5,44.3z"/>
<path class="st0" d="M70.8,46.1c-1,0.3-2.1,0.6-3.3,0.9v1.6l5-0.7l0.1,1l-5.1,0.7v2c0,0.2,0.1,0.4,0.4,0.4h3c0.2,0,0.3-0.1,0.4-0.2
	c0.1-0.1,0.1-0.7,0.2-1.7l1.2,0.4c-0.1,1.2-0.3,2-0.5,2.2C72,52.9,71.6,53,71.1,53h-3.6c-0.4,0-0.7-0.1-0.9-0.3
	c-0.2-0.2-0.3-0.4-0.3-0.8v-2.1l-3.6,0.5l-0.1-1l3.7-0.5v-1.6c-0.7,0.1-1.4,0.2-2.2,0.3l-0.2-1c2.5-0.2,4.6-0.7,6.6-1.4L70.8,46.1z
	 M68.2,43.6h4.2v2.9h-1.1v-1.9h-7.7v1.9h-1.1v-2.9H67c-0.1-0.3-0.3-0.6-0.5-0.9l1.2-0.2C67.9,42.9,68.1,43.3,68.2,43.6z"/>
<path class="st0" d="M84.9,43.9h-8.5v7.8h8.5v1h-8.5v0.4h-1.1V43h9.6V43.9z M80.2,48v3h-3.4v-3H80.2z M79.3,48.9h-1.6v1.2h1.6V48.9z
	 M83.4,44.6v2.7h-5.5v-2.7H83.4z M82.4,45.5h-3.5v1h3.5V45.5z M84.7,48v3h-3.6v-3H84.7z M83.8,48.9h-1.7v1.2h1.7V48.9z"/>
<path class="st0" d="M90.6,48.7l-0.4,0.1l0.5,0.3c-0.1,0.1-0.1,0.2-0.2,0.3h6.4v0.9h-1.4c-0.5,0.7-1.1,1.2-1.7,1.5
	c0.9,0.2,2.2,0.3,3.9,0.4l-0.4,1c-2.1-0.2-3.7-0.5-4.8-0.8c-1.3,0.5-2.9,0.8-4.9,0.8L87,52.3c2,0,3.4-0.1,4.4-0.4
	c-0.7-0.4-1.3-0.9-1.9-1.4c-0.1,0.1-0.1,0.1-0.2,0.1c-0.4,0.3-1,0.6-1.7,0.9l-0.5-0.8c0.6-0.2,1.2-0.5,1.6-0.8
	c0.3-0.2,0.7-0.6,1.1-1.1c-0.1-0.4-0.2-0.9-0.3-1.3l0.7-0.2C90.4,47.7,90.5,48.1,90.6,48.7z M89.5,43c-0.3,0.6-0.6,1.1-0.8,1.5
	c0.2,0,0.5,0,0.7,0c0.2-0.2,0.3-0.4,0.5-0.7l0.7,0.4c-0.5,0.8-1,1.5-1.6,2.1c0.3,0,0.6-0.1,0.8-0.1c-0.1-0.2-0.1-0.4-0.2-0.5
	l0.7-0.2c0.2,0.4,0.3,1,0.4,1.5L90,47.2c0-0.1-0.1-0.2-0.1-0.3c-0.6,0.1-1.5,0.3-2.5,0.3l-0.2-0.8c0.2,0,0.4,0,0.6,0
	c0.3-0.3,0.6-0.7,1-1.1c-0.4,0-0.8,0.1-1.3,0.1l-0.2-0.8c0.1,0,0.3,0,0.5,0c0.3-0.5,0.6-1.1,0.9-1.9L89.5,43z M88.3,47.4
	c-0.1,0.6-0.2,1.1-0.3,1.7l-0.8-0.3c0.2-0.5,0.3-1,0.4-1.6L88.3,47.4z M89.4,48.9L88.5,49c0-0.7,0-1.2,0-1.6h0.7
	C89.4,47.7,89.4,48.2,89.4,48.9z M92.6,51.4c0.7-0.3,1.3-0.7,1.7-1.2h-3.8C91.1,50.7,91.8,51.1,92.6,51.4z M92.8,43.4H94v0.7h-3.5
	v-0.7h1.3c-0.1-0.2-0.2-0.4-0.3-0.6l0.9-0.1C92.7,42.8,92.8,43.1,92.8,43.4z M93.8,44.5v0.7h-2.9v-0.7H93.8z M93.8,45.6v0.7h-2.9
	v-0.7H93.8z M93.8,46.7v1.9c0.2-0.5,0.4-0.9,0.4-1.4l0.8,0.2c-0.1,0.6-0.3,1.2-0.5,1.8l-0.8-0.3c0,0,0-0.1,0.1-0.1h-2.9v-2
	L93.8,46.7L93.8,46.7z M93,47.4h-1.2v0.7H93V47.4z M96.1,42.9c-0.3,0.6-0.6,1.1-0.9,1.5c0.3,0,0.6,0,0.9-0.1
	c0.2-0.2,0.3-0.4,0.5-0.7l0.7,0.4c-0.6,0.9-1.2,1.6-1.8,2.1c0.4,0,0.8-0.1,1.1-0.1c-0.1-0.2-0.2-0.4-0.2-0.6l0.7-0.2
	c0.2,0.4,0.4,1,0.6,1.5L97,46.9c0-0.1-0.1-0.2-0.1-0.3c-0.7,0.1-1.6,0.2-2.8,0.3l-0.2-0.8h0.6c0.4-0.3,0.7-0.7,1.1-1.1
	c-0.4,0-0.9,0.1-1.5,0.1L94,44.3c0.1,0,0.3,0,0.4,0c0.3-0.5,0.6-1.1,1-1.8L96.1,42.9z M96.2,48.8l-0.9,0.1v-1.6H96
	C96.1,47.6,96.2,48.1,96.2,48.8z M97.6,48.6l-0.8,0.2c-0.1-0.5-0.3-1-0.5-1.5l0.7-0.2C97.3,47.5,97.5,48,97.6,48.6z"/>
<path class="st0" d="M109.9,43.1v1h-4.6V45h3.7v4.6h-3.9c-0.1,0.6-0.4,1.2-0.7,1.6c0.3,0.1,0.7,0.3,1,0.3c0.9,0.3,2.5,0.5,4.6,0.6
	l-0.3,1c-2-0.1-3.6-0.4-4.6-0.7c-0.5-0.1-1-0.3-1.4-0.5c-0.8,0.7-2.1,1.1-3.8,1.3l-0.5-1c1.4-0.1,2.5-0.3,3.2-0.8
	c-0.6-0.3-1.2-0.7-1.7-1.1l0.8-0.5c0.6,0.4,1.2,0.7,1.7,1c0.3-0.3,0.4-0.7,0.6-1.2h-3.5V45h3.7v-0.9h-4.5v-1H109.9z M104.3,46.8
	v-0.9h-2.7v0.9H104.3z M104.2,47.7h-2.6v0.9h2.6C104.2,48.4,104.2,48.1,104.2,47.7z M107.9,47.7h-2.6c0,0.3,0,0.7-0.1,0.9h2.7V47.7z
	 M105.3,46.8h2.6v-0.9h-2.6V46.8z"/>
<path class="st0" d="M113.7,44.2c-0.1-0.4-0.3-0.8-0.5-1.2l1-0.1c0.1,0.4,0.3,0.8,0.4,1.3h0.8c0.1-0.5,0.2-1,0.3-1.6l1,0.1
	c-0.1,0.5-0.2,1-0.3,1.4h4.5c-0.1,0.8-0.2,1.5-0.3,2h1.1c-0.1,0.8-0.2,1.5-0.3,2h0.9c0,2.6-0.3,4-0.7,4.4c-0.2,0.3-1,0.5-2.3,0.5
	l-0.2-1.1c0.3,0.1,0.6,0.1,0.9,0.1c0.4,0,0.8-0.1,1-0.3s0.3-1.1,0.4-2.7h-6.9c-0.5,0.7-1,1.4-1.6,1.9l-0.9-0.6
	c1.5-1.4,2.7-3.2,3.3-5.2h-2.8v-1L113.7,44.2L113.7,44.2z M115.2,50.1c-0.3,1.1-0.7,2.1-1.3,2.9l-0.9-0.6c0.6-0.8,0.9-1.6,1.2-2.5
	L115.2,50.1z M115,48.3h5.4c0.1-0.3,0.1-0.7,0.2-1.1h-5.1C115.4,47.6,115.2,47.9,115,48.3z M117,52.8l-1.1,0.1
	c0-1.2-0.1-2.2-0.2-2.8l0.9-0.1C116.8,50.7,116.9,51.6,117,52.8z M115.9,46.2h3.8c0.1-0.3,0.1-0.6,0.2-1h-3.6
	C116.1,45.6,116,45.9,115.9,46.2z M118.9,52l-1,0.2c-0.2-0.8-0.4-1.5-0.6-2.2l0.9-0.3C118.5,50.4,118.7,51.2,118.9,52z M120.6,51.3
	l-0.9,0.3c-0.2-0.6-0.4-1.3-0.6-1.9l0.8-0.2C120.1,50.2,120.4,50.8,120.6,51.3z"/>
<path class="st0" d="M130.2,43.4h4.5v0.9h-10.2v-0.9h4.5c-0.2-0.2-0.3-0.4-0.5-0.6l1.2-0.2C129.9,42.9,130.1,43.1,130.2,43.4z
	 M128.2,45.8h2.7c0.3-0.4,0.5-0.9,0.7-1.4l1,0.4c-0.2,0.4-0.4,0.7-0.7,1h2.3v6.1c0,0.4-0.1,0.6-0.3,0.8c-0.2,0.2-0.4,0.3-0.7,0.3h-1
	l-0.2-1h0.8c0.2,0,0.3-0.2,0.3-0.4v-3h-1.9c-0.3,0-0.6-0.1-0.8-0.2c-0.2-0.1-0.3-0.3-0.3-0.6v-1.1H129c-0.1,0.6-0.2,1-0.4,1.3
	c-0.3,0.4-0.8,0.7-1.7,1.1l-0.7-0.8c0.7-0.2,1.1-0.4,1.4-0.7c0.2-0.2,0.4-0.5,0.4-1h-2V53h-1v-7.3h2.1c-0.2-0.3-0.4-0.7-0.6-1l1-0.4
	C127.7,44.8,128,45.3,128.2,45.8z M132.1,49.1v2.8h-4.9v-2.8H132.1z M131.1,50h-2.9v1h2.9V50z M131.2,47.6c0,0.2,0.1,0.3,0.4,0.3
	h1.6v-1.1h-2V47.6z"/>
<path class="st0" d="M141.5,42.6v1.8h1v-1.8h1v1.8h0.8c0.3-0.4,0.5-0.9,0.8-1.6l1.1,0.4c-0.2,0.5-0.4,0.9-0.7,1.2h1.7v0.9H144
	l0.8,0.3c-0.2,0.3-0.3,0.5-0.5,0.7h2.5v0.9h-4.3v0.6h4v0.9h-4v0.6h4.7v0.9h-3.7c0.5,0.5,1,0.8,1.4,1c0.5,0.3,1.3,0.5,2.3,0.7
	l-0.6,0.9c-1.2-0.3-2-0.7-2.6-1c-0.5-0.3-1-0.8-1.5-1.4V53h-1.1v-2.7c-0.3,0.4-0.7,0.7-1,1c-0.7,0.5-1.7,1-2.9,1.5L137,52
	c1.3-0.4,2.2-0.8,2.8-1.1c0.3-0.2,0.6-0.4,0.8-0.6h-3.7v-0.9h4.6v-0.6h-4v-0.9h4v-0.6h-4.2v-0.9h2.6c-0.1-0.2-0.3-0.5-0.4-0.7
	l0.7-0.3h-3.3v-0.9h1.7c-0.1-0.4-0.3-0.8-0.5-1.2l1-0.4c0.2,0.4,0.4,1,0.6,1.6h0.8v-1.8L141.5,42.6L141.5,42.6z M143.1,46.3
	c0.2-0.3,0.4-0.6,0.6-1h-3.3c0.2,0.3,0.3,0.6,0.5,1H143.1z"/>
<path class="st0" d="M159.5,43.9H151v7.8h8.5v1H151v0.4h-1.1V43h9.6V43.9z M154.7,48v3h-3.4v-3H154.7z M153.8,48.9h-1.6v1.2h1.6
	V48.9z M157.9,44.6v2.7h-5.5v-2.7H157.9z M156.9,45.5h-3.5v1h3.5V45.5z M159.2,48v3h-3.6v-3H159.2z M158.3,48.9h-1.7v1.2h1.7V48.9z"
	/>
<path class="st0" d="M167.3,49.1c-0.2,0.2-0.5,0.5-0.9,0.7l-0.4-0.6c0.5-0.3,0.9-0.6,0.9-1h-0.7v-1.4h1.4v1.1
	C167.6,48.4,167.5,48.8,167.3,49.1z"/>
<path class="st0" d="M178.8,44v-1.4h1.1V44h3.8v1.1h-3.8v1.7h4.7v1.1h-3.5c0.4,0.7,0.8,1.3,1.3,1.8c0.6,0.6,1.3,1.3,2.3,2l-0.8,1
	c-1.1-0.8-1.9-1.6-2.6-2.5c-0.5-0.6-1-1.4-1.4-2.3h-0.1v5.3h-1.1v-5.3h-0.2c-0.3,0.8-0.7,1.4-1,1.8c-0.6,0.9-1.6,1.9-3,2.9l-0.6-1
	c1-0.7,1.8-1.4,2.4-2c0.4-0.4,0.8-1,1.1-1.6h-3.5v-1.1h4.7v-1.7h-3.9V44H178.8z"/>
<path class="st0" d="M191.1,43.8v-1.1h1.1v1.1h4.3v1h-4.3v2.6c0.4,0.9,1,1.6,1.6,2.3c0.6,0.7,1.7,1.5,3.1,2.2l-0.8,0.9
	c-1.1-0.7-1.9-1.3-2.6-1.9c-0.5-0.5-1-1.1-1.4-1.7V53H191v-3.9c-0.4,0.6-0.8,1.1-1.2,1.5c-0.7,0.8-1.7,1.5-2.8,2.2l-0.6-1
	c1.1-0.6,2.1-1.3,2.9-2.1c0.6-0.6,1.2-1.4,1.7-2.2v-2.6h-4.2v-1L191.1,43.8L191.1,43.8z M189.7,45.2c-0.1,0.6-0.3,1-0.4,1.4
	c0.4,0.4,0.8,0.8,1.2,1.2l-0.6,0.9c-0.3-0.5-0.7-0.9-1-1.2c-0.3,0.6-0.8,1.3-1.4,2l-0.7-0.9c0.5-0.5,0.9-1.1,1.2-1.6s0.5-1.2,0.6-2
	L189.7,45.2z M195.2,45.2c-0.1,0.6-0.3,1-0.4,1.4c0.6,0.5,1.2,1.1,1.8,1.7l-0.6,0.9c-0.5-0.7-1.1-1.3-1.6-1.8
	c-0.3,0.4-0.6,0.9-1,1.3l-0.7-0.9c0.4-0.4,0.7-0.8,1-1.2c0.2-0.4,0.4-0.9,0.5-1.6L195.2,45.2z"/>
<path class="st0" d="M201.6,43h7.7v0.8h-2.5v0.6h2.2v2.3h-7.3v-2.3h2.2v-0.6h-2.3v-0.6c-0.2,0.7-0.4,1.4-0.6,1.9v8h-1V47
	c-0.3,0.4-0.5,0.8-0.8,1.2l-0.4-1.3c0.4-0.6,0.7-1.2,1-1.9c0.3-0.6,0.6-1.4,0.9-2.6L201.6,43z M204.8,52.2c-0.5,0.3-0.9,0.4-1.3,0.6
	c-0.4,0.1-1,0.3-1.7,0.4l-0.5-0.9c0.6-0.1,1.2-0.2,1.7-0.3c0.4-0.1,0.9-0.3,1.2-0.5L204.8,52.2z M208.8,47.1v4.4h-6.7v-4.4H208.8z
	 M203.9,45.2h-1.2V46h1.2V45.2z M207.9,48.4v-0.5H203v0.5H207.9z M207.9,49.5V49H203v0.5H207.9z M207.9,50.2H203v0.5h4.9V50.2z
	 M206,43.8h-1.2v0.6h1.2V43.8z M206,45.2h-1.2V46h1.2V45.2z M209.5,52.3l-0.4,0.9c-0.9-0.4-1.9-0.7-3-0.9l0.4-0.8
	C207.5,51.7,208.4,52,209.5,52.3z M208.1,45.2h-1.2V46h1.2V45.2z"/>
<path class="st0" d="M214.6,43c-0.3,0.9-0.6,1.7-0.9,2.4v7.7h-1v-6c-0.3,0.4-0.6,0.8-0.9,1.2l-0.4-1.3c0.5-0.6,0.9-1.2,1.2-1.9
	c0.4-0.6,0.7-1.4,1.1-2.5L214.6,43z M217.2,43.5c0-0.3,0-0.6,0.1-0.9l1.2,0.1c0,0.3-0.1,0.6-0.1,0.8h3.1v0.9h-3.2
	c0,0.3-0.1,0.6-0.1,0.8h2.9v6.5h0.8v0.9h-7.7v-0.9h0.9v-6.5h2c0-0.3,0.1-0.5,0.1-0.8h-2.7v-0.9H217.2z M219.9,46.9v-0.8H216v0.8
	H219.9z M219.9,48.5v-0.8H216v0.8H219.9z M219.9,50.1v-0.8H216v0.8H219.9z M219.9,51.7v-0.8H216v0.8H219.9z"/>
<path class="st0" d="M226.1,44.2h1v0.9c-0.4,0.9-0.8,1.7-1.2,2.2v0.2c0.1,0.1,0.1,0.1,0.2,0.2c0.1-0.1,0.2-0.2,0.3-0.3
	c0.1-0.2,0.2-0.5,0.4-0.8l0.8,0.5c-0.2,0.4-0.3,0.7-0.5,0.9c-0.1,0.1-0.1,0.2-0.2,0.3c0.2,0.2,0.4,0.4,0.6,0.6l-0.6,0.9
	c-0.3-0.4-0.7-0.8-1-1.1v4.4h-1v-4.5c-0.3,0.3-0.6,0.7-1,1l-0.3-1.1c0.6-0.5,1-1,1.3-1.5c0.3-0.4,0.7-1.1,1.1-2h-2.2v-1h1.3
	c-0.2-0.5-0.4-1-0.7-1.5l1-0.1C225.7,43.1,225.9,43.6,226.1,44.2z M230.3,43.8v-1.2h1v1.2h1.5c-0.2-0.2-0.4-0.5-0.6-0.8l0.6-0.4
	c0.4,0.3,0.7,0.6,0.9,0.8l-0.5,0.4h1.1v0.9h-3v0.9h2.6v6.3c0,0.4-0.1,0.6-0.3,0.8c-0.2,0.2-0.4,0.3-0.7,0.3H232l-0.2-1h0.8
	c0.2,0,0.3-0.2,0.3-0.4v-1.1h-1.6v2.4h-1v-2.4h-1.5v2.6h-1v-7.6h2.5v-0.9h-2.7v-0.9L230.3,43.8L230.3,43.8z M230.3,47.6v-1.1h-1.5
	v1.1H230.3z M230.3,49.7v-1.2h-1.5v1.2H230.3z M231.3,47.6h1.6v-1.1h-1.6V47.6z M231.3,49.7h1.6v-1.2h-1.6V49.7z"/>
<path class="st0" d="M238.4,43.9l-0.8,0.8c-0.3-0.4-0.8-0.7-1.4-1.2l0.8-0.7C237.5,43.2,238,43.5,238.4,43.9z M238.4,48.8
	c-0.4,1.7-0.8,3.2-1.3,4.3l-0.9-0.8c0.4-1,0.8-2.4,1.2-4L238.4,48.8z M238.4,46.6l-0.7,1c-0.5-0.6-1-1-1.5-1.3l0.6-0.9
	C237.4,45.8,237.9,46.2,238.4,46.6z M241.5,43v3.5h-1.7l-0.1,1.6h1.6c0,2.3,0,3.7-0.1,4.1c-0.1,0.3-0.2,0.6-0.4,0.7
	c-0.2,0.1-0.6,0.2-1.2,0.2c-0.3,0-0.5,0-0.9,0l-0.2-1.1c0.3,0.1,0.7,0.1,1,0.1c0.4,0,0.6-0.1,0.6-0.3c0.1-0.3,0.1-1.1,0.1-2.6h-1.7
	l0.2-3.5h1.6V44h-1.7v-1H241.5z M246.4,43.9h-3.3v0.7h2.8v0.9h-2.8v0.8h2.8v0.9h-2.8V48h3.5v0.9h-2.1c0.1,0.4,0.2,0.8,0.4,1.2
	c0.4-0.2,0.7-0.5,1-0.9l0.7,0.7c-0.4,0.4-0.8,0.7-1.3,0.9c0.4,0.6,0.9,1,1.5,1.4l-0.5,0.9c-0.8-0.6-1.4-1.2-1.8-1.9
	c-0.4-0.6-0.6-1.3-0.8-2.2H243v2.7c0.4-0.1,0.8-0.3,1.2-0.5v0.9c-0.8,0.4-1.6,0.7-2.7,1.1l-0.2-1.1c0.2,0,0.4-0.1,0.7-0.2v-3h-0.5
	V48h0.6v-5h4.3V43.9z"/>
<path class="st0" d="M5.5,64.2c0.3,0.3,0.6,0.6,1,0.9c0.2-0.1,0.4-0.3,0.6-0.5c0.2-0.2,0.4-0.5,0.7-0.8l0.9,0.5
	c-0.3,0.4-0.5,0.7-0.8,1c-0.1,0.1-0.3,0.2-0.4,0.4c0.2,0.1,0.4,0.2,0.7,0.3c0.2-0.1,0.4-0.3,0.6-0.5C9,65.3,9.3,65,9.5,64.6l0.9,0.5
	c-0.3,0.5-0.6,0.8-0.8,1.1c-0.1,0.1-0.2,0.2-0.3,0.3c0.5,0.2,1.1,0.4,1.7,0.6L10.4,68c-0.5-0.2-0.9-0.3-1.3-0.5v1.2
	c0,0.2,0.1,0.4,0.4,0.4h1V70H9.1c-0.4,0-0.7-0.1-0.8-0.3C8,69.5,8,69.2,8,68.8v-0.5H6.9c0,0.4-0.1,0.8-0.2,0.9
	c-0.1,0.3-0.5,0.6-1,0.9l-0.8-0.6c0.5-0.3,0.8-0.6,0.9-0.7c0.1-0.2,0.1-0.6,0.1-1.3h2.9c-0.6-0.3-1.2-0.5-1.6-0.8
	c-0.7-0.4-1.3-0.8-1.8-1.3c-0.3,0.5-0.7,0.9-1.1,1.2c-0.4,0.3-0.9,0.6-1.8,0.9h2.2v2.6H2.4L2.3,71h2.4c0,1.4-0.1,2.3-0.3,2.7
	c-0.2,0.4-0.7,0.7-1.4,0.7H1.3l-0.2-1.1c0.9,0.1,1.6,0.1,2,0.1c0.2,0,0.3-0.1,0.4-0.3c0.1-0.2,0.1-0.6,0.1-1.3H1.1l0.3-2.6h2.1v-0.9
	H1.4v-0.5c-0.3,0.1-0.6,0.2-0.9,0.3L0,67c0.7-0.1,1.2-0.3,1.7-0.4c-0.3-0.3-0.5-0.5-0.9-0.8l0.8-0.5c0.5,0.3,0.9,0.7,1.2,0.9
	c0.1,0,0.1-0.1,0.2-0.1c0.6-0.2,1-0.6,1.3-1H1.2v-0.9H5.5z M9.5,70.2V71c-0.3,0.7-0.8,1.3-1.4,1.8c0.6,0.3,1.5,0.5,2.5,0.7L10,74.4
	c-1.2-0.3-2.1-0.6-2.7-0.9c-0.6,0.4-1.3,0.7-2,0.9l-0.4-0.9c0.6-0.1,1.1-0.3,1.6-0.6c-0.5-0.3-0.9-0.7-1.3-1.1l0.9-0.5
	c0.3,0.4,0.7,0.8,1.2,1c0.4-0.3,0.7-0.7,1-1.2H5.4v-0.9H9.5z"/>
<path class="st0" d="M23.2,69.7v0.9h-3.8c0.2,0.5,0.5,0.9,0.8,1.2c0.5-0.2,1-0.6,1.5-1.1l0.7,0.7c-0.4,0.4-0.9,0.7-1.5,1
	c0.6,0.4,1.3,0.7,2.2,0.9l-0.4,0.9c-1.2-0.4-2.1-0.9-2.9-1.5c-0.6-0.5-1.1-1.3-1.6-2.2H17v2.3c0.7-0.1,1.3-0.3,2-0.4v1
	c-1.3,0.3-2.7,0.6-4.2,0.8l-0.1-1c0.4,0,0.8-0.1,1.3-0.1v-2.5h-1.5v0.1c-0.2,1.1-0.6,2.3-1,3.4l-0.9-0.8c0.5-0.9,0.8-1.9,1-2.9
	c0.1-1,0.2-2,0.2-2.9v-3.6h9.1v2.9H21v0.9h1.8v0.9H21v1h2.2V69.7z M14.7,67.6c0,0.7,0,1.4-0.1,2.1h2v-1h-1.7v-0.9h1.7v-0.9h-1.9
	V67.6z M14.7,65v1h7v-1H14.7z M20,66.9h-2.4v0.9H20V66.9z M20,69.7v-1h-2.4v1H20z"/>
<path class="st0" d="M34.7,64.8c-1.2,0.2-2.6,0.4-4.2,0.5c-0.1,0.3-0.2,0.5-0.3,0.7H35v0.8h-5.1c-0.1,0.2-0.2,0.4-0.3,0.6h5.9v0.9
	h-6.4c0,0.1-0.1,0.1-0.1,0.2c-0.1,0.2-0.2,0.3-0.3,0.4h5.7v5.4h-1V74h-5.2v0.4h-1v-3.9c-0.5,0.5-1,0.9-1.6,1.3l-0.6-1
	c1.2-0.9,2.1-1.8,2.8-2.6h-2.6v-0.9h3.2c0.1-0.2,0.3-0.4,0.4-0.6h-3.1V66h3.5c0.1-0.2,0.2-0.4,0.3-0.7c-1,0-2.2,0.1-3.4,0.1
	l-0.3-0.9c3.3,0,6.1-0.2,8.4-0.6L34.7,64.8z M33.4,70.4v-0.6h-5.2v0.6H33.4z M33.4,71.8v-0.6h-5.2v0.6H33.4z M33.4,73.1v-0.6h-5.2
	v0.6H33.4z"/>
<path class="st0" d="M41.1,64.5c-0.8,1-1.8,1.9-2.9,2.7l-0.7-0.9c1.1-0.6,2-1.4,2.9-2.4L41.1,64.5z M41.2,67.1
	c-0.4,0.8-0.7,1.4-1.1,1.9v5.2H39v-4.1c-0.3,0.3-0.7,0.7-1.1,1l-0.4-1.3c0.6-0.4,1.1-0.9,1.5-1.4c0.4-0.4,0.9-1,1.3-1.9L41.2,67.1z
	 M47.7,68.8v0.9h-1.2v0.7H48v0.9h-1.5v2c0,0.4-0.1,0.7-0.3,0.8c-0.2,0.2-0.5,0.3-0.9,0.3H44l-0.2-1.1c0.5,0.1,1,0.1,1.3,0.1
	c0.3,0,0.4-0.1,0.4-0.3v-1.8h-4.9v-0.9h4.9v-0.7H41v-0.9H47.7z M47.4,64.2v3.9h-6v-3.9H47.4z M43.7,72.8l-1,0.4
	c-0.3-0.6-0.6-1-1-1.5l1-0.3C43.1,71.9,43.4,72.3,43.7,72.8z M46.4,65.8V65h-4v0.8H46.4z M46.4,66.6h-4v0.7h4V66.6z"/>
<path class="st0" d="M55.9,64.1v1H53l-1,2.3c0.9,0,1.7-0.1,2.5-0.2c-0.2-0.4-0.3-0.7-0.5-1.2l0.8-0.5c0.6,1,1,1.9,1.3,2.6l-1,0.7
	c-0.1-0.2-0.2-0.5-0.3-0.8c-0.4,0.1-0.9,0.1-1.4,0.2v1.5h2.1v1h-2.1v1.7c0.9-0.1,1.7-0.2,2.6-0.4v1c-1.7,0.3-3.6,0.6-5.8,0.9
	l-0.3-1.1c0.9-0.1,1.7-0.1,2.5-0.2v-1.9h-2.1v-1h2.1v-1.4c-0.6,0-1.3,0.1-2.1,0.1l-0.2-1.1c0.2,0,0.5,0,0.7,0l1-2.3h-1.9v-1h6V64.1z
	 M57.6,64.6v7.3h-1.1v-7.3H57.6z M59.8,63.8V73c0,0.4-0.1,0.7-0.3,0.9c-0.2,0.2-0.5,0.3-0.9,0.3h-1.5L56.8,73
	c0.6,0.1,1.1,0.1,1.5,0.1c0.3,0,0.4-0.1,0.4-0.3v-9H59.8z"/>
<path class="st0" d="M68.3,70.7c-0.2-0.4-0.6-0.8-1-1.3c-0.3-0.3-0.7-0.7-1.3-1.2l0.7-0.6c0.4,0.3,0.8,0.7,1.4,1.2
	c0.3,0.3,0.7,0.8,1.1,1.3L68.3,70.7z"/>
<path class="st0" d="M80.2,65.1h-1.3c0,0.3-0.1,0.7-0.1,0.9h1.4v4.4H79v2.9c0,0.4-0.1,0.6-0.2,0.7c-0.1,0.2-0.4,0.2-0.8,0.2h-0.8
	l-0.2-1c0.3,0.1,0.5,0.1,0.7,0.1c0.2,0,0.4-0.1,0.4-0.2v-2.8h-1.4V66h1.1c0.1-0.3,0.1-0.6,0.1-0.9h-1.7v3.1c0,1,0,2-0.1,3
	c-0.1,1.1-0.3,2.2-0.6,3.2l-0.9-0.8c0.2-0.9,0.4-1.8,0.5-2.8s0.1-1.9,0.1-2.8v-4h4.9L80.2,65.1L80.2,65.1z M77.7,70.8
	c-0.2,1-0.5,1.9-0.9,2.6L76,72.9c0.4-0.7,0.6-1.5,0.8-2.3L77.7,70.8z M79.2,67.7v-0.9h-1.6v0.9H79.2z M79.2,68.5h-1.6v1h1.6V68.5z
	 M80.7,72.8L79.8,73c-0.2-0.7-0.4-1.5-0.7-2.2l0.8-0.2C80.2,71.3,80.4,72,80.7,72.8z M82.4,72.5c-0.5,0.7-1,1.3-1.6,1.9L80,73.8
	c0.6-0.5,1.2-1,1.7-1.6L82.4,72.5z M85.2,64.2v0.9h-1.8c-0.1,0.3-0.1,0.6-0.3,0.9h1.6v6.1h-4V66h1.4c0.1-0.3,0.2-0.6,0.3-0.9h-1.9
	v-0.9H85.2z M83.7,67.7v-0.9h-2v0.9H83.7z M83.7,69.4v-0.9h-2v0.9H83.7z M83.7,70.1h-2v1h2V70.1z M85.2,73.7l-0.9,0.6
	c-0.4-0.5-0.9-1-1.5-1.6l0.7-0.4C84.2,72.8,84.8,73.3,85.2,73.7z"/>
<path class="st0" d="M96.7,64.1v3.3h-4c0.1,0.2,0.1,0.3,0.2,0.5h4.6v0.9H87.2v-0.9h4.7c-0.1-0.2-0.2-0.3-0.3-0.5h-3.5v-3.3H96.7z
	 M90.5,72.4c-0.5,0.5-0.9,0.8-1.2,1c-0.4,0.2-0.9,0.5-1.6,0.7l-0.5-0.9c0.6-0.2,1.2-0.4,1.6-0.6c0.4-0.2,0.8-0.5,1.2-0.8L90.5,72.4z
	 M96.6,69.2v2.2H93v1.7c0,0.4-0.1,0.6-0.3,0.8c-0.2,0.2-0.5,0.3-0.9,0.3h-1.3l-0.2-1c0.5,0.1,0.9,0.1,1.2,0.1s0.4-0.1,0.4-0.3v-1.6
	h-3.8v-2.2H96.6z M95.7,65.4v-0.6h-6.5v0.6H95.7z M95.7,66.1h-6.5v0.5h6.5V66.1z M95.6,70h-6.4v0.6h6.4V70z M97.5,73.1l-0.4,1
	c-0.9-0.7-1.9-1.3-2.9-1.6l0.4-0.9C95.6,72,96.6,72.5,97.5,73.1z"/>
<path class="st0" d="M101.3,71.9c-0.3,0.9-0.6,1.7-1.1,2.4l-0.8-0.5c0.5-0.6,0.8-1.3,1-2.1L101.3,71.9z M103,64.2v7.1h-3.1v-7.1H103
	z M102.1,66.3V65h-1.3v1.3H102.1z M102.1,68.3V67h-1.3v1.3H102.1z M102.1,69.1h-1.3v1.4h1.3V69.1z M103.3,73.2l-0.2-0.5
	c0.6-0.5,1.2-1.1,1.6-1.8h-1.3v-0.8h1.4v-0.9h-1.6v-0.8h1.6v-0.9h-1.3v-0.8h1.3V66h-1.6v-0.9h1.4c-0.2-0.4-0.4-0.8-0.6-1.2l1.1-0.1
	c0.2,0.4,0.4,0.8,0.6,1.3h1.2c0.2-0.4,0.4-0.9,0.5-1.3l1.1,0.1c-0.1,0.4-0.3,0.9-0.5,1.2h2V66h-2.4v0.8h1.8v1.6h0.7v0.8h-0.7v1.7
	h-1.6c0.2,0.3,0.5,0.6,0.8,0.9c0.4,0.3,0.9,0.7,1.5,1.1l-0.7,0.9c-0.7-0.5-1.2-1-1.6-1.5c-0.1-0.1-0.1-0.2-0.2-0.3v2.3h-0.9v-3.4
	h-0.9v3.4h-0.9v-2.1c-0.4,0.6-0.8,1.2-1.3,1.6l-0.1-0.3l-0.8,0.6c-0.3-0.6-0.6-1.3-1.1-2.1l0.7-0.4
	C102.7,72.3,103.1,72.8,103.3,73.2z M106.7,66h-0.9v0.8h0.9V66z M105.8,68.4h0.9v-0.9h-0.9V68.4z M105.8,70.2h0.9v-0.9h-0.9V70.2z
	 M107.6,68.4h0.9v-0.9h-0.9V68.4z M107.6,70.2h0.9v-0.9h-0.9V70.2z"/>
<path class="st0" d="M115.6,64.5c-0.8,1-1.8,1.9-2.9,2.7l-0.7-0.9c1.1-0.6,2-1.4,2.9-2.4L115.6,64.5z M115.7,67.1
	c-0.4,0.8-0.7,1.4-1.1,1.9v5.2h-1.1v-4.1c-0.3,0.3-0.7,0.7-1.1,1l-0.4-1.3c0.6-0.4,1.1-0.9,1.5-1.4c0.4-0.4,0.9-1,1.3-1.9
	L115.7,67.1z M122.2,68.8v0.9H121v0.7h1.5v0.9H121v2c0,0.4-0.1,0.7-0.3,0.8c-0.2,0.2-0.5,0.3-0.9,0.3h-1.3l-0.2-1.1
	c0.5,0.1,1,0.1,1.3,0.1c0.3,0,0.4-0.1,0.4-0.3v-1.8h-4.9v-0.9h4.9v-0.7h-4.5v-0.9H122.2z M121.9,64.2v3.9h-6v-3.9H121.9z
	 M118.2,72.8l-1,0.4c-0.3-0.6-0.6-1-1-1.5l1-0.3C117.6,71.9,117.9,72.3,118.2,72.8z M120.9,65.8V65h-4v0.8H120.9z M120.9,66.6h-4
	v0.7h4V66.6z"/>
<path class="st0" d="M130.4,64.1v1h-2.9l-1,2.3c0.9,0,1.7-0.1,2.5-0.2c-0.2-0.4-0.3-0.7-0.5-1.2l0.8-0.5c0.6,1,1,1.9,1.3,2.6l-1,0.7
	c-0.1-0.2-0.2-0.5-0.3-0.8c-0.4,0.1-0.9,0.1-1.4,0.2v1.5h2.1v1h-2.1v1.7c0.9-0.1,1.7-0.2,2.6-0.4v1c-1.7,0.3-3.6,0.6-5.8,0.9
	l-0.3-1.1c0.9-0.1,1.7-0.1,2.5-0.2v-1.9h-2.1v-1h2.1v-1.4c-0.6,0-1.3,0.1-2.1,0.1l-0.2-1.1c0.2,0,0.5,0,0.7,0l1-2.3h-1.9v-1h6V64.1z
	 M132.2,64.6v7.3H131v-7.3H132.2z M134.4,63.8V73c0,0.4-0.1,0.7-0.3,0.9c-0.2,0.2-0.5,0.3-0.9,0.3h-1.5l-0.3-1.2
	c0.6,0.1,1.1,0.1,1.5,0.1c0.3,0,0.4-0.1,0.4-0.3v-9H134.4z"/>
<path class="st0" d="M142.8,70.7c-0.2-0.4-0.6-0.8-1-1.3c-0.3-0.3-0.7-0.7-1.3-1.2l0.7-0.6c0.4,0.3,0.8,0.7,1.4,1.2
	c0.3,0.3,0.7,0.8,1.1,1.3L142.8,70.7z"/>
<path class="st0" d="M151.1,64.8v-0.9h4.1c0.7,1.2,2.3,2.3,4.7,3.4l-0.7,1c-0.3-0.1-0.7-0.3-0.9-0.5v0.7H155v1.7h3.1v0.9H155v2h4.4
	V74h-9.9v-0.9h4.4v-2h-3v-0.9h3v-1.7h-3.1v-0.7c-0.3,0.1-0.6,0.3-0.9,0.4l-0.6-1.1c1.2-0.5,2.1-0.9,2.8-1.4c0.5-0.3,0.9-0.6,1.3-1.1
	h-2.3V64.8z M157.7,67.6c-0.5-0.3-1-0.6-1.3-0.9c-0.8-0.6-1.4-1.2-2-1.9c-0.4,0.6-0.8,1-1.2,1.4c-0.5,0.5-1.2,1-2,1.4H157.7z"/>
<path class="st0" d="M172,64.4v1h-4.5c-0.1,0.4-0.3,0.7-0.5,1.1h4.6v7.9h-1.1v-0.6h-7.1v0.6h-1.1v-7.9h3.6c0.2-0.3,0.4-0.7,0.5-1.1
	h-4.6v-1H172z M164.6,72.8v-5.4h-1.3v5.4H164.6z M168.1,68.5v-1.1h-2.5v1.1H168.1z M168.1,70.6v-1.2h-2.5v1.2H168.1z M168.1,72.8
	v-1.3h-2.5v1.3H168.1z M170.4,72.8v-5.4h-1.3v5.4H170.4z"/>
<path class="st0" d="M175.3,66.8v-3h1v3h0.9v1h-0.9v3.4c0.3-0.2,0.7-0.3,1-0.5v1c-0.9,0.5-2,1-3.2,1.4l-0.3-1.2
	c0.4-0.1,0.9-0.2,1.3-0.4v-3.8h-1.2v-1L175.3,66.8L175.3,66.8z M180.1,65.1h1.5c0.3-0.4,0.5-0.9,0.7-1.3l1,0.3
	c-0.2,0.4-0.4,0.7-0.6,1h1.7v4.2h-6.8v-4.2h1.6c-0.2-0.3-0.4-0.7-0.7-1l0.9-0.3C179.6,64.1,179.9,64.6,180.1,65.1z M183.9,74.4h-1
	v-0.5h-4.1v0.5h-1v-4.5h6.1V74.4z M180.3,66h-1.9v2.4h1.9V66z M180.1,67.7l-0.8,0.3c-0.2-0.5-0.4-1-0.6-1.4l0.8-0.2
	C179.7,66.8,179.9,67.2,180.1,67.7z M182.9,71.5v-0.7h-4.1v0.7H182.9z M182.9,73v-0.7h-4.1V73H182.9z M183.4,66h-2.1v2.4h2.1V66z
	 M183.1,66.5c-0.2,0.6-0.5,1.1-0.8,1.5l-0.8-0.5c0.3-0.4,0.6-0.8,0.8-1.3L183.1,66.5z"/>
<path class="st0" d="M189.7,64.2c-0.3,0.9-0.6,1.7-0.9,2.4v7.7h-1v-6c-0.3,0.4-0.6,0.8-0.9,1.2l-0.4-1.3c0.5-0.6,0.9-1.2,1.2-1.9
	c0.4-0.6,0.7-1.4,1.1-2.5L189.7,64.2z M192.4,64.7c0-0.3,0-0.6,0.1-0.9l1.2,0.1c0,0.3-0.1,0.6-0.1,0.8h3.1v0.9h-3.2
	c0,0.3-0.1,0.6-0.1,0.8h2.9v6.5h0.8v0.9h-7.7v-0.9h0.9v-6.5h2c0-0.3,0.1-0.5,0.1-0.8h-2.7v-0.9H192.4z M195.1,68.1v-0.8h-3.9v0.8
	H195.1z M195.1,69.7v-0.8h-3.9v0.8H195.1z M195.1,71.3v-0.8h-3.9v0.8H195.1z M195.1,72.9v-0.8h-3.9v0.8H195.1z"/>
<path class="st0" d="M203.5,66v-2.2h1.2V66h4v5.4h-4v2.9h-1.2v-2.9h-4V66H203.5z M203.5,67h-2.8v3.4h2.8V67z M207.6,67h-2.9v3.4h2.9
	V67z"/>
<path class="st0" d="M215.9,73.2v-1.4h1.4v1.4H215.9z M217,71.3h-0.8l-0.3-6.2h1.4L217,71.3z"/>
</svg>
