<svg width="106" height="92" viewBox="0 0 106 92" fill="none" xmlns="http://www.w3.org/2000/svg">
<path d="M3.06006 41.2304V40.6704H5.63007C6.10007 41.4204 7.09004 42.1304 8.60004 42.7904L8.15009 43.4404C7.93009 43.3504 7.74006 43.2504 7.56006 43.1504V43.5804H5.55005V44.6804H7.47003V45.2704H5.55005V46.5104H8.32007V47.1004H2.08008V46.5104H4.82007V45.2704H2.95007V44.6804H4.82007V43.5804H2.87006V43.1604C2.69006 43.2504 2.50006 43.3504 2.31006 43.4304L1.91003 42.7504C2.66003 42.4604 3.24003 42.1804 3.66003 41.8904C3.96003 41.7104 4.22008 41.4904 4.46008 41.2204H3.07007L3.06006 41.2304ZM7.25006 42.9904C6.92006 42.8204 6.65004 42.6404 6.42004 42.4504C5.91004 42.0904 5.51006 41.6804 5.19006 41.2304C4.96006 41.5904 4.71003 41.8704 4.47003 42.0804C4.17003 42.3804 3.74005 42.6804 3.18005 42.9804H7.25006V42.9904Z" fill="#3E3A39"/>
<path d="M12.5801 40.8105C12.1201 41.6905 11.64 42.4206 11.16 42.9706C11.3 42.9806 11.4301 42.9806 11.5101 42.9806C12.5901 42.9806 13.6701 42.8906 14.7501 42.7206C14.4801 42.3606 14.19 42.0005 13.85 41.6205L14.36 41.1406C15.04 41.9006 15.6101 42.6505 16.0801 43.4005L15.54 43.9406C15.42 43.7406 15.29 43.5306 15.16 43.3306C13.73 43.5506 11.98 43.6606 9.91003 43.6606L9.77008 42.8705C10.0201 42.9005 10.2401 42.9105 10.4401 42.9305C10.9001 42.3605 11.3901 41.5705 11.8901 40.5605L12.5601 40.8105H12.5801ZM15.5201 47.2505H14.8101V46.8005H10.97V47.2306H10.2601V44.1805H15.5201V47.2505ZM14.8101 46.1805V44.8005H10.97V46.1805H14.8101Z" fill="#3E3A39"/>
<path d="M20.1301 42.9603V40.6104H20.92V42.9603H23.8301V43.6903H20.92V47.2503H20.1301V43.6903H17.1901V42.9603H20.1301Z" fill="#3E3A39"/>
<path d="M27.55 42.4404C27.59 42.0504 27.61 41.6204 27.61 41.1504V40.6704H28.35V41.1504C28.35 41.6104 28.3201 42.0504 28.2801 42.4404H31.2601V43.1504H29.0801C29.2401 43.8904 29.4701 44.4904 29.7701 44.9504C30.1701 45.5604 30.7001 46.0604 31.3801 46.4504L30.9501 47.1604C30.1501 46.6104 29.55 46.0004 29.16 45.3204C28.78 44.7304 28.52 44.0004 28.36 43.1404H28.17C28.07 43.6304 27.9201 44.0704 27.7501 44.4604C27.3601 45.3404 26.6101 46.2204 25.5001 47.1304L24.8801 46.5904C25.9101 45.8704 26.6401 45.0804 27.0601 44.2404C27.2201 43.9404 27.3501 43.5704 27.4401 43.1404H25.0201V42.4304H27.55V42.4404Z" fill="#3E3A39"/>
<path d="M36.3 41.0901V40.5801H36.9501V41.0901H38.67V42.1301H39.0701V42.6701H38.67V43.7401H36.9501V44.2001H38.73V44.7101H36.9501V45.2201H39.04V45.7601H36.9501V46.3701C37.0501 46.3701 37.1501 46.3701 37.2501 46.3701C38.1001 46.3701 38.7301 46.3601 39.1501 46.3201L39.0301 47.05C36.7901 47.05 35.4201 47.0001 34.9301 46.9001C34.4801 46.7801 34.1301 46.6101 33.8701 46.3801C33.8401 46.3601 33.81 46.3401 33.79 46.3101C33.56 46.6001 33.2501 46.9001 32.8401 47.2301L32.48 46.55C32.86 46.3 33.15 46.0101 33.36 45.7101C33.14 45.3501 32.92 44.8501 32.67 44.2301L33.23 44.0301C33.4 44.4401 33.5501 44.7801 33.6901 45.0401C33.7001 45.0101 33.71 44.9801 33.73 44.9401C33.82 44.6301 33.8901 44.1901 33.9301 43.6301H32.7001V43.1801C33.1301 42.6601 33.5301 42.0801 33.8901 41.4601H32.5801V40.9201H34.6401V41.5401C34.2301 42.2101 33.8601 42.7301 33.5301 43.1201H34.61C34.59 43.9301 34.5 44.5801 34.36 45.0701C34.29 45.3001 34.2201 45.5101 34.1301 45.7001C34.3001 45.9001 34.5601 46.0501 34.8801 46.1501C35.1501 46.2401 35.6201 46.2901 36.2801 46.3301V45.7401H34.5601V45.2001H36.2801V44.6901H34.8701V44.1801H36.2801V43.7201H34.9501V43.2101H36.2801V42.6501H34.5601V42.1101H36.2801V41.5701H34.9501V41.0601H36.2801L36.3 41.0901ZM36.9501 42.1301H38.0201V41.5901H36.9501V42.1301ZM36.9501 43.2401H38.0201V42.6801H36.9501V43.2401Z" fill="#3E3A39"/>
<path d="M41.9001 40.6903C41.8301 40.8303 41.7701 40.9603 41.7001 41.0903H43.5201V41.6303C43.8401 41.2803 44.08 40.9303 44.22 40.5503L44.8701 40.6603C44.8101 40.8103 44.74 40.9603 44.67 41.0903H46.8401V41.6803H45.6501C45.7201 41.8503 45.79 42.0303 45.85 42.2203L45.1401 42.2803C45.0901 42.0603 45.0401 41.8703 45.0001 41.6903H44.3101C44.1501 41.9203 43.98 42.1203 43.79 42.3103L43.2001 41.9403C43.3001 41.8503 43.39 41.7703 43.47 41.6903H42.5101C42.5801 41.8603 42.65 42.0203 42.72 42.2003L42.0101 42.2603C41.9601 42.0603 41.91 41.8703 41.85 41.7003H41.3101C41.1201 41.9403 40.9301 42.1603 40.7101 42.3503L40.1201 41.9803C40.6601 41.5503 41.0301 41.0903 41.2501 40.6003L41.9001 40.7103V40.6903ZM43.22 44.7903V44.4403L42.9401 44.2003C43.2901 44.0803 43.55 43.9703 43.73 43.8403C43.54 43.7503 43.35 43.6803 43.17 43.6103L43.48 43.1503C43.68 43.2203 43.86 43.2903 44.05 43.3603C44.06 43.3003 44.0701 43.2203 44.0701 43.1503V42.9003H43.2701V42.3903H45.8701V43.8003C45.8701 43.9303 45.9401 43.9903 46.0701 43.9903H46.1C46.17 43.9903 46.2201 43.9703 46.2401 43.9303C46.2801 43.8903 46.3101 43.7003 46.3201 43.3403L46.86 43.5103C46.82 44.0103 46.7401 44.3003 46.6401 44.3903C46.5501 44.4803 46.39 44.5303 46.16 44.5303H45.8801C45.7001 44.5303 45.5601 44.4903 45.4601 44.3803C45.3601 44.2803 45.3201 44.1303 45.3201 43.9603V42.8903H44.61V43.1403C44.61 43.3103 44.59 43.4503 44.55 43.5703C44.78 43.6703 45.0001 43.7903 45.2101 43.9003L44.8701 44.4403C44.6501 44.3103 44.44 44.1903 44.23 44.0703C44.1 44.1903 43.93 44.3003 43.73 44.4103H43.8701V44.7803H46.8401V45.3703H44.5701C44.8301 45.5803 45.07 45.7303 45.29 45.8303C45.64 46.0203 46.14 46.1903 46.79 46.3603L46.5101 46.9503C45.7201 46.6703 45.1401 46.4203 44.7701 46.1803C44.4801 46.0103 44.1801 45.7403 43.8701 45.3803V47.2203H43.22V45.3803H43.2001C42.9801 45.6503 42.7401 45.8903 42.4601 46.0803C42.0201 46.4003 41.37 46.7003 40.54 47.0103L40.1801 46.4203C41.0301 46.1703 41.6401 45.9403 42.0001 45.7203C42.1701 45.6303 42.3401 45.5103 42.4901 45.3803H40.1501V44.7903H43.22ZM43.0201 42.5003V43.0903H42.0601V43.7103C42.3801 43.6503 42.7001 43.5903 43.0201 43.5103V44.0703C42.2601 44.2603 41.3801 44.4303 40.3701 44.6103L40.23 43.9603C40.63 43.9203 41.03 43.8703 41.42 43.8203V43.0903H40.4401V42.5003H43.04H43.0201Z" fill="#3E3A39"/>
<path d="M49.8701 40.6601C49.8001 40.8801 49.7201 41.0901 49.6201 41.2801H50.55V43.5401H48.7101V44.2701H50.6801V47.0401H50.0301V46.6201H48.7101V47.0701H48.0601V41.2801H48.91C49.02 41.0601 49.1 40.8201 49.16 40.5801L49.8701 40.6601ZM49.9001 42.9501V41.8701H48.7101V42.9501H49.9001ZM50.04 46.0201V44.8601H48.72V46.0201H50.04ZM54.48 40.8801V41.5201H53.0001V42.2901H54.2701V45.9901C54.2701 46.1801 54.2201 46.3301 54.1301 46.4601C54.0301 46.5801 53.8901 46.6301 53.7101 46.6301H53.3101L53.1401 45.9601L53.5101 45.9901C53.6001 45.9901 53.6501 45.9201 53.6501 45.7901V42.9101H53.0001V47.2101H52.3301V42.9101H51.6801V46.6601H51.0601V42.2801H52.3301V41.5101H50.8V40.8701H54.47L54.48 40.8801Z" fill="#3E3A39"/>
<path d="M5.59009 50.9405H8.52008V51.4505H1.96008V50.9405H4.83008C4.73008 50.8305 4.62006 50.7305 4.50006 50.6305L5.26007 50.5205C5.38007 50.6505 5.48009 50.7905 5.59009 50.9405ZM8.40009 54.4205H7.69006V53.6505H2.69006V54.4205H1.98004V53.1805H8.40009V54.4205ZM7.44006 53.9405V54.4005H5.49005C5.42005 54.4405 5.36005 54.4805 5.30005 54.5105C5.52005 54.7005 5.68005 54.8905 5.80005 55.0705C6.40005 54.9505 6.97008 54.7705 7.52008 54.5105L7.97003 54.9705C7.64003 55.1105 7.29005 55.2305 6.93005 55.3305C7.07005 55.5305 7.26003 55.7105 7.47003 55.8805C7.69003 56.0605 8.00009 56.2605 8.40009 56.4705L7.97003 57.0105C7.53003 56.7305 7.17003 56.4505 6.91003 56.1605C6.71003 55.9705 6.55009 55.7305 6.40009 55.4705C6.27009 55.5005 6.14008 55.5305 6.02008 55.5505C6.09008 55.8005 6.14008 56.0305 6.14008 56.2505C6.14008 56.5705 6.08006 56.7905 5.94006 56.9305C5.80006 57.0805 5.38007 57.1505 4.70007 57.1505L4.50006 56.5305C4.50006 56.5305 4.63009 56.5605 4.84009 56.5605C5.11009 56.5605 5.28004 56.5405 5.35004 56.5105C5.44004 56.4705 5.49005 56.3805 5.49005 56.2505C5.49005 56.1605 5.48008 56.0705 5.46008 55.9805C5.04008 56.2105 4.66007 56.3905 4.32007 56.5005C3.81007 56.6805 3.17009 56.8605 2.40009 57.0405L2.12006 56.5305C2.87006 56.3905 3.54004 56.2305 4.10004 56.0305C4.55004 55.8805 4.95005 55.7005 5.30005 55.4905C5.30005 55.4805 5.29004 55.4705 5.29004 55.4505C5.26004 55.3905 5.22005 55.3305 5.18005 55.2605C4.77005 55.4605 4.42004 55.6105 4.10004 55.7205C3.64004 55.8705 3.08009 56.0205 2.40009 56.1505L2.15009 55.6905C2.82009 55.5805 3.39009 55.4505 3.90009 55.2905C4.26009 55.1705 4.59008 55.0405 4.89008 54.8905C4.84008 54.8505 4.79004 54.8005 4.73004 54.7405C4.72004 54.7405 4.70006 54.7505 4.69006 54.7505C4.06006 54.9705 3.32008 55.1505 2.46008 55.2905L2.18005 54.8305C3.02005 54.7305 3.67009 54.6205 4.15009 54.5005C4.31009 54.4605 4.45009 54.4205 4.59009 54.3805H2.97003V53.9205H7.43005L7.44006 53.9405ZM7.81006 51.7605V52.9205H2.61005V51.7605H7.81006ZM7.13007 52.1905H3.29004V52.5005H7.13007V52.1905Z" fill="#3E3A39"/>
<path d="M14.9001 52.7202C14.2901 52.9402 13.6001 53.1103 12.8101 53.2603V54.2702L15.9401 53.8603L16.0301 54.5002L12.8101 54.9302V56.1703C12.8101 56.3203 12.9001 56.3903 13.0901 56.3903H15.0101C15.1101 56.3903 15.1901 56.3502 15.2401 56.2702C15.2901 56.2002 15.33 55.8403 15.35 55.2003L16.0901 55.4203C16.0301 56.2003 15.9201 56.6503 15.7801 56.7903C15.6501 56.9303 15.43 57.0002 15.1 57.0002H12.8101C12.5701 57.0002 12.3801 56.9403 12.2501 56.8303C12.1101 56.7103 12.04 56.5503 12.04 56.3503V55.0103L9.78009 55.3102L9.69006 54.6602L12.0301 54.3603V53.3802C11.6001 53.4502 11.1501 53.5102 10.6801 53.5602L10.54 52.9203C12.09 52.7803 13.46 52.5003 14.67 52.0703L14.8901 52.7202H14.9001ZM13.3 51.1602H15.97V53.0002H15.2701V51.7802H10.4601V53.0002H9.76007V51.1602H12.5701C12.4801 50.9702 12.3701 50.8002 12.2701 50.6202L13.04 50.5103C13.13 50.7103 13.2201 50.9202 13.3101 51.1502L13.3 51.1602Z" fill="#3E3A39"/>
<path d="M20.98 51.0305V50.5205H21.6301V51.0305H23.35V52.0705H23.7501V52.6105H23.35V53.6805H21.6301V54.1405H23.41V54.6505H21.6301V55.1605H23.72V55.7005H21.6301V56.3105C21.7301 56.3105 21.8301 56.3105 21.9301 56.3105C22.7801 56.3105 23.4101 56.3005 23.8301 56.2605L23.7101 56.9905C21.4701 56.9905 20.1 56.9405 19.61 56.8405C19.16 56.7205 18.81 56.5505 18.55 56.3205C18.52 56.3005 18.49 56.2805 18.47 56.2505C18.24 56.5405 17.9301 56.8405 17.5201 57.1705L17.16 56.4905C17.54 56.2405 17.83 55.9505 18.04 55.6505C17.82 55.2905 17.6 54.7905 17.35 54.1705L17.91 53.9705C18.08 54.3805 18.2301 54.7205 18.3701 54.9805C18.3801 54.9505 18.39 54.9105 18.41 54.8805C18.5 54.5705 18.57 54.1305 18.61 53.5705H17.3801V53.1205C17.8101 52.6005 18.2101 52.0205 18.5701 51.4005H17.2601V50.8605H19.3201V51.4805C18.9101 52.1505 18.5401 52.6705 18.2101 53.0605H19.29C19.27 53.8705 19.18 54.5205 19.04 55.0105C18.97 55.2405 18.9001 55.4505 18.8101 55.6405C18.9801 55.8405 19.2401 55.9905 19.5601 56.0905C19.8301 56.1805 20.3101 56.2305 20.9601 56.2705V55.6805H19.2401V55.1405H20.9601V54.6305H19.55V54.1205H20.9601V53.6605H19.6301V53.1505H20.9601V52.5905H19.2401V52.0505H20.9601V51.5105H19.6301V51.0005H20.9601L20.98 51.0305ZM21.6301 52.0705H22.7001V51.5305H21.6301V52.0705ZM21.6301 53.1805H22.7001V52.6205H21.6301V53.1805Z" fill="#3E3A39"/>
<path d="M26.5801 50.6302C26.5201 50.7702 26.4501 50.9002 26.3801 51.0302H28.2001V51.5703C28.5201 51.2203 28.7601 50.8702 28.9001 50.4902L29.55 50.6003C29.48 50.7503 29.42 50.9002 29.35 51.0302H31.5201V51.6202H30.3301C30.4001 51.7902 30.4701 51.9702 30.5301 52.1602L29.8201 52.2202C29.7701 52.0002 29.7201 51.8102 29.6801 51.6302H28.9901C28.8301 51.8602 28.66 52.0602 28.47 52.2502L27.8801 51.8802C27.9801 51.7902 28.0701 51.7102 28.1501 51.6302H27.1901C27.2601 51.8002 27.3301 51.9603 27.4001 52.1403L26.6901 52.2003C26.6401 52.0003 26.5901 51.8103 26.5301 51.6403H25.9901C25.8001 51.8803 25.6101 52.1003 25.3901 52.2903L24.8 51.9203C25.34 51.4903 25.7101 51.0303 25.9301 50.5403L26.5801 50.6502V50.6302ZM27.9001 54.7303V54.3802L27.6201 54.1403C27.9701 54.0203 28.23 53.9102 28.41 53.7802C28.22 53.6902 28.03 53.6202 27.85 53.5502L28.16 53.0902C28.36 53.1602 28.54 53.2302 28.73 53.3002C28.74 53.2402 28.7501 53.1602 28.7501 53.0902V52.8402H27.9501V52.3303H30.55V53.7402C30.55 53.8702 30.6101 53.9402 30.7501 53.9402H30.7801C30.8501 53.9402 30.9 53.9202 30.92 53.8802C30.96 53.8402 30.9801 53.6503 31.0001 53.2903L31.54 53.4602C31.5 53.9602 31.4201 54.2502 31.3201 54.3402C31.2301 54.4302 31.0701 54.4803 30.8401 54.4803H30.5601C30.3801 54.4803 30.2401 54.4403 30.1401 54.3303C30.0401 54.2303 30.0001 54.0802 30.0001 53.9102V52.8402H29.29V53.0902C29.29 53.2602 29.27 53.4002 29.22 53.5202C29.45 53.6202 29.6701 53.7403 29.8801 53.8503L29.54 54.3903C29.32 54.2603 29.1101 54.1402 28.9001 54.0202C28.7701 54.1402 28.6001 54.2503 28.4001 54.3603H28.54V54.7303H31.5101V55.3203H29.2401C29.5001 55.5303 29.7401 55.6802 29.9601 55.7802C30.3101 55.9702 30.8101 56.1402 31.4601 56.3102L31.1801 56.9002C30.3901 56.6302 29.8101 56.3702 29.4401 56.1302C29.1501 55.9602 28.85 55.6903 28.54 55.3303V57.1703H27.8901V55.3303H27.8701C27.6501 55.6003 27.4101 55.8402 27.1301 56.0302C26.6901 56.3502 26.0501 56.6502 25.2101 56.9602L24.85 56.3702C25.7 56.1202 26.31 55.8903 26.67 55.6703C26.84 55.5803 27.01 55.4603 27.16 55.3303H24.8201V54.7402H27.8901L27.9001 54.7303ZM27.7001 52.4402V53.0302H26.7401V53.6502C27.0601 53.5902 27.3801 53.5303 27.7001 53.4503V54.0103C26.9401 54.2003 26.06 54.3702 25.05 54.5502L24.91 53.9002C25.31 53.8602 25.71 53.8103 26.1 53.7603V53.0302H25.1201V52.4402H27.72H27.7001Z" fill="#3E3A39"/>
<path d="M34.55 50.6005C34.48 50.8205 34.4 51.0305 34.3 51.2205H35.23V53.4805H33.3901V54.2105H35.36V56.9805H34.7101V56.5605H33.3901V57.0105H32.7401V51.2205H33.5901C33.7001 51.0005 33.7801 50.7605 33.8401 50.5205L34.55 50.6005ZM34.5801 52.8905V51.8105H33.3901V52.8905H34.5801ZM34.72 55.9605V54.8005H33.4001V55.9605H34.72ZM39.16 50.8205V51.4605H37.6801V52.2305H38.9501V55.9305C38.9501 56.1205 38.9001 56.2705 38.8101 56.4005C38.7101 56.5205 38.5701 56.5705 38.3901 56.5705H37.9901L37.8201 55.9005L38.1901 55.9305C38.2801 55.9305 38.3301 55.8705 38.3301 55.7305V52.8505H37.6801V57.1505H37.0101V52.8505H36.36V56.6005H35.7401V52.2205H37.0101V51.4505H35.48V50.8105H39.1501L39.16 50.8205Z" fill="#3E3A39"/>
<path d="M4.13007 61.0504C3.88007 61.0904 3.47003 61.1405 2.91003 61.1905V61.5605H4.04004V62.0405H2.91003V62.4105H4.04004V62.9205H2.91003V63.3505H7.46008V62.9205H6.39008V62.4105H7.46008V62.0705H6.39008V61.5905H7.46008V61.1905H6.33008V60.6305H8.11005L8.08008 63.3405H8.39008V64.7505H7.74005V63.9005H2.66003V64.7505H2.01007V63.3405H2.29004V60.7104C2.80004 60.6804 3.33009 60.6205 3.90009 60.5105L4.12006 61.0504H4.13007ZM7.30005 64.3004V64.8105C6.81005 65.0305 6.26008 65.2405 5.64008 65.4305H8.34009V65.9904H5.60004V66.6105C5.60004 66.7505 5.55004 66.8705 5.48004 66.9505C5.37004 67.0605 5.24004 67.1205 5.10004 67.1205H4.02008L3.91003 66.5605C4.16003 66.5705 4.44004 66.5905 4.73004 66.5905C4.86004 66.5905 4.93005 66.5405 4.93005 66.4505V65.9904H2.14008V65.4305H4.93005V65.1805C5.33005 65.0905 5.77004 64.9705 6.23004 64.8105H3.21008V64.3004H7.31006H7.30005ZM6.19006 60.7704C6.03006 60.9304 5.89005 61.0705 5.74005 61.1705C5.86005 61.2705 5.97008 61.3605 6.08008 61.4405L5.71008 61.8105C5.59008 61.6905 5.46007 61.5704 5.32007 61.4604C5.07007 61.6004 4.78006 61.7405 4.44006 61.8705L4.16003 61.4105C4.41003 61.3505 4.65008 61.2505 4.89008 61.1305C4.73008 61.0205 4.56007 60.9105 4.38007 60.7905L4.72003 60.4805C4.94003 60.6105 5.14008 60.7405 5.33008 60.8705C5.48008 60.7705 5.63008 60.6505 5.77008 60.5105L6.19006 60.7704ZM6.28009 62.0905C6.09009 62.2905 5.92006 62.4505 5.75006 62.5705C5.89006 62.6905 6.03003 62.8005 6.16003 62.9005L5.80005 63.2704C5.66005 63.1304 5.50008 63.0005 5.33008 62.8505C5.10008 62.9905 4.83009 63.1204 4.53009 63.2404L4.25006 62.7905C4.47006 62.7305 4.69009 62.6405 4.90009 62.5305C4.76009 62.4305 4.60006 62.3305 4.44006 62.2305L4.78009 61.9205C4.98009 62.0405 5.16008 62.1604 5.33008 62.2704C5.51008 62.1504 5.68004 62.0005 5.85004 61.8305L6.28009 62.0805V62.0905Z" fill="#3E3A39"/>
<path d="M16.1201 61.2504H10.67V63.7104C10.67 64.2204 10.6301 64.7404 10.5601 65.2904C10.4701 65.8704 10.3401 66.4304 10.1301 66.9804L9.56006 66.4704C9.74006 66.0304 9.86006 65.5704 9.94006 65.0804C9.99006 64.5904 10.0201 64.1304 10.0201 63.7004V60.6504H16.1201V61.2404V61.2504ZM13.8 64.7804V65.2404H15.72V65.7804H13.8V66.3404H16.1801V66.9304H10.7001V66.3404H11.6V65.1004H12.22V66.3404H13.17V64.7804H13.79H13.8ZM13.3801 61.9304C13.1301 62.0004 12.8401 62.0504 12.5301 62.0804V62.5504H13.2601V63.0604H12.5301V63.0804C12.8201 63.2504 13.11 63.4504 13.41 63.6504L13.1 64.1304C12.88 63.9304 12.69 63.7804 12.54 63.6604V64.8104H11.98V63.7404C11.73 64.0704 11.4401 64.3504 11.1301 64.5904L10.8201 64.1104C11.3001 63.8204 11.6701 63.4704 11.9601 63.0704H10.9401V62.5604H11.9901V62.1404C11.7201 62.1504 11.42 62.1604 11.11 62.1604L10.9401 61.6504C11.7901 61.6504 12.5201 61.5904 13.1201 61.4504L13.4001 61.9304H13.3801ZM15.92 61.9304C15.62 62.0204 15.2701 62.0804 14.8801 62.1204V62.5504H16.0701V63.0604H14.8801V63.1304C15.2901 63.4204 15.7001 63.7304 16.1201 64.0804L15.7801 64.5904C15.4201 64.2304 15.1101 63.9504 14.8801 63.7404V64.8204H14.3201V63.6804C14.0701 64.0404 13.8001 64.3404 13.5001 64.5904L13.1901 64.1104C13.6201 63.8204 13.97 63.4704 14.23 63.0704H13.5001V62.5604H14.3201V62.1704C14.0701 62.1804 13.8301 62.1904 13.5801 62.1904L13.41 61.6804C14.28 61.6804 15.0201 61.6104 15.6401 61.4504L15.92 61.9304Z" fill="#3E3A39"/>
<path d="M20.0901 62.7902V61.9102H20.97V62.7902H20.0901ZM20.0901 65.4202V64.5402H20.97V65.4202H20.0901Z" fill="#3E3A39"/>
<path d="M4.56006 71.2103H5.83008C6.05008 70.9503 6.24004 70.6704 6.42004 70.3604L7.10004 70.5804C6.94004 70.8104 6.77009 71.0103 6.59009 71.2003H8.15009V71.7903H5.50006V72.2403H7.87006V72.8304H5.50006V72.9803C5.50006 73.1103 5.50006 73.2303 5.50006 73.3503H8.47003V73.9703H5.45007C5.42007 74.1803 5.39005 74.3703 5.36005 74.5303H8.48004V75.1203H6.05005C6.14005 75.3303 6.27005 75.5004 6.43005 75.6104C6.60005 75.7504 6.86007 75.8903 7.20007 76.0203C7.50007 76.1403 7.96008 76.2503 8.58008 76.3703L8.16003 77.0203C7.56003 76.8803 7.07007 76.7203 6.70007 76.5503C6.32007 76.3703 6.02007 76.1703 5.82007 75.9403C5.60007 75.7203 5.45006 75.4403 5.37006 75.1203H5.17004C5.07004 75.3703 4.95007 75.5903 4.82007 75.7803C4.36007 76.4203 3.47004 76.8303 2.17004 76.9903L1.86005 76.3403C3.11005 76.2603 3.93007 75.9403 4.32007 75.3803C4.38007 75.3003 4.43003 75.2103 4.47003 75.1303H1.97003V74.5403H4.69006C4.73006 74.3703 4.76004 74.1803 4.79004 73.9803H1.97003V73.3604H4.85004C4.85004 73.2404 4.85004 73.1103 4.85004 72.9903V72.8403H2.56006V72.2503H4.85004V71.8003H2.25006V71.2103H3.83008C3.70008 71.0403 3.54005 70.8503 3.36005 70.6503L4.03009 70.4003C4.23009 70.6303 4.41007 70.9103 4.57007 71.2203L4.56006 71.2103Z" fill="#3E3A39"/>
<path d="M15.9401 76.9706H15.3201V76.7405H10.4601V76.9706H9.85004V70.5605H15.9501V76.9706H15.9401ZM15.3201 76.1706V71.1106H10.4601V76.1706H15.3201ZM13.0901 75.1606C12.4401 75.3306 11.6901 75.5006 10.8301 75.6706L10.6901 75.0505C11.5001 74.9705 12.3001 74.8306 13.0901 74.6306V75.1706V75.1606ZM13.04 71.9305C13.04 71.7105 13.04 71.4906 13.04 71.2606H13.6301C13.6301 71.5106 13.6301 71.7305 13.6301 71.9305H14.3101C14.2301 71.7405 14.14 71.5606 14.05 71.3906L14.5601 71.2206C14.6801 71.4006 14.8001 71.6105 14.9001 71.8405L14.5701 71.9206H15.1201V72.4605H13.6501C13.6701 72.9205 13.7101 73.2806 13.7701 73.5706C13.8101 73.8206 13.86 74.0305 13.92 74.2405C14.13 73.8705 14.3501 73.3406 14.5901 72.6606L15.0701 72.9706C14.7401 73.8406 14.43 74.4705 14.17 74.8705L14.16 74.8806C14.17 74.9206 14.2 74.9705 14.22 75.0005C14.33 75.2305 14.44 75.3405 14.54 75.3405C14.58 75.3405 14.6501 75.0605 14.7401 74.4905L15.2801 74.9106C15.1201 75.4506 15.0101 75.7606 14.9301 75.8506C14.8401 75.9706 14.73 76.0205 14.6 76.0205C14.4 76.0205 14.1901 75.8906 13.9901 75.6306C13.9201 75.5406 13.86 75.4506 13.8 75.3506C13.57 75.6106 13.29 75.8606 12.98 76.0806L12.6401 75.6205C13.0001 75.3605 13.3 75.0805 13.54 74.8005C13.44 74.5505 13.3501 74.2706 13.2801 73.9706C13.1801 73.5906 13.1101 73.0906 13.0801 72.4706H10.73V71.9305H13.05H13.04ZM12.66 72.8306V74.5005H10.9401V72.8306H12.66ZM12.1501 73.3105H11.4401V74.0106H12.1501V73.3105Z" fill="#3E3A39"/>
<path d="M19.1401 70.6203C18.9801 71.1603 18.82 71.6303 18.66 72.0203V76.9703H18.0101V73.2503C17.8201 73.5503 17.63 73.8403 17.42 74.1203L17.2001 73.3304C17.4701 72.9204 17.7101 72.5003 17.9301 72.0603C18.1501 71.6703 18.35 71.1004 18.55 70.3604L19.1401 70.6104V70.6203ZM23.3801 70.8703V72.3703H23.9401V73.0203H23.3801V74.5804H21.3401C21.2501 74.9604 21.13 75.2904 20.98 75.5804C20.64 76.2204 20.0901 76.6903 19.3401 77.0403L18.98 76.4503C19.7 76.1003 20.2001 75.6503 20.4601 75.1003C20.5301 74.9403 20.6 74.7703 20.66 74.5903H19.29V73.9703H20.79C20.83 73.6803 20.8601 73.3703 20.8701 73.0403H18.9501V72.3904H20.8701V71.5103H19.3201V70.8904H23.3801V70.8703ZM21.4601 73.9503H22.73V73.0203H21.54C21.53 73.3503 21.5001 73.6603 21.4601 73.9503ZM21.55 72.3703H22.7401V71.4903H21.55V72.3703Z" fill="#3E3A39"/>
<path d="M28.2701 71.0904C27.9101 71.2104 27.5201 71.3104 27.0801 71.3904V72.3604H28.3801V73.0104H27.0801V73.0704C27.5401 73.5204 28 74.0104 28.47 74.5604L28.0701 75.1504C27.6701 74.5904 27.3401 74.1404 27.0801 73.8104V77.0104H26.4301V73.8904C26.2901 74.2204 26.17 74.4704 26.05 74.6604C25.81 75.0604 25.51 75.4504 25.16 75.8204L24.79 75.1804C25.14 74.8704 25.4301 74.4904 25.6901 74.0604C25.8701 73.7604 26.0401 73.4104 26.1901 73.0004H24.92V72.3504H26.42V71.4904C26.03 71.5604 25.6201 71.6104 25.1801 71.6404L25.04 71.0004C26.16 70.9104 27.1601 70.7204 28.0301 70.4304L28.2501 71.0804L28.2701 71.0904ZM29.5101 70.9504V75.5504H28.8301V70.9504H29.5101ZM31.1501 70.4104V76.2004C31.1501 76.4704 31.08 76.6604 30.97 76.7604C30.85 76.8804 30.65 76.9304 30.36 76.9304H29.2001L29.0601 76.1904C29.5001 76.2304 29.87 76.2504 30.16 76.2504C30.35 76.2504 30.4401 76.2004 30.4401 76.0804V70.4004H31.1501V70.4104Z" fill="#3E3A39"/>
<path d="M34.0601 71.1801H34.92V71.7701H32.5201V71.1801H33.4001C33.3601 70.9301 33.3101 70.7001 33.2501 70.4701L33.9301 70.3901C33.9701 70.6201 34.0201 70.8901 34.0601 71.1801ZM33.3901 77.0001H32.7401V74.4001H34.7401V76.8301H34.0901V76.5201H33.3901V77.0001ZM34.7101 72.2801V72.8401H32.7601V72.2801H34.7101ZM34.7101 73.3301V73.8901H32.7601V73.3301H34.7101ZM34.0901 74.9901H33.3901V75.9201H34.0901V74.9901ZM36.4401 72.9001C36.5401 72.6401 36.64 72.3401 36.72 72.0201L37.36 72.1101C37.27 72.4001 37.19 72.6701 37.11 72.9001H39.1501V73.5201H36.85C36.78 73.6601 36.7201 73.7801 36.6501 73.8801C36.5801 74.0201 36.4901 74.1501 36.4001 74.2901H38.8101V77.0301H38.16V76.6001H36.4401V77.0301H35.79V75.0201C35.62 75.1901 35.4401 75.3701 35.2501 75.5301L34.8 74.9601C35.36 74.5201 35.78 74.0801 36.05 73.6501C36.08 73.6101 36.1001 73.5601 36.1301 73.5201H34.86V72.9001H36.4401ZM35.67 71.1801V70.3901H36.3201V71.1801H36.97V71.7401H36.3201V72.4501H35.67V71.7401H34.9901V71.1801H35.67ZM38.16 76.0101V74.8801H36.4401V76.0101H38.16ZM37.79 71.1801V70.3901H38.4401V71.1801H39.1201V71.7401H38.4401V72.4501H37.79V71.7401H37.1401V71.1801H37.79Z" fill="#3E3A39"/>
<path d="M42.6801 70.8401V71.4901H41.7501V72.9301H42.5201V73.5801H41.7501V75.1901C42.0701 75.0701 42.3601 74.9601 42.6501 74.8301V75.5401C41.9601 75.8601 41.1801 76.1501 40.3101 76.4201L40.11 75.7101C40.46 75.6201 40.7801 75.5201 41.0901 75.4201V73.5901H40.3V72.9401H41.0901V71.5001H40.2401V70.8501H42.67L42.6801 70.8401ZM46.5001 70.6401V74.1401H44.97V74.8501H46.5201V75.4401H44.97V76.2601H46.8301V76.8501H42.2601V76.2601H44.29V75.4401H42.8801V74.8501H44.29V74.1401H42.8201V70.6401H46.4901H46.5001ZM44.29 72.0801V71.2001H43.47V72.0801H44.29ZM44.29 72.6401H43.47V73.5701H44.29V72.6401ZM44.97 72.0801H45.85V71.2001H44.97V72.0801ZM45.85 72.6401H44.97V73.5701H45.85V72.6401Z" fill="#3E3A39"/>
<path d="M54.1301 71.0103V71.6802H51.5301V75.9503H54.42V76.6302H47.92V75.9503H50.7801V71.6802H48.2101V71.0103H54.1501H54.1301Z" fill="#3E3A39"/>
<path d="M57.7501 70.9904C57.5001 71.0304 57.0901 71.0804 56.5301 71.1304V71.5004H57.66V71.9804H56.5301V72.3504H57.66V72.8604H56.5301V73.2904H61.0801V72.8604H60.0101V72.3504H61.0801V72.0104H60.0101V71.5304H61.0801V71.1304H59.9501V70.5704H61.73L61.7001 73.2804H62.0101V74.6904H61.36V73.8404H56.2801V74.6904H55.6301V73.2804H55.91V70.6504C56.42 70.6204 56.9501 70.5604 57.5201 70.4504L57.7401 70.9904H57.7501ZM60.92 74.2404V74.7504C60.43 74.9704 59.8801 75.1804 59.2601 75.3704H61.9601V75.9304H59.22V76.5504C59.22 76.7004 59.17 76.8104 59.1 76.8904C58.99 77.0004 58.86 77.0604 58.72 77.0604H57.6401L57.5301 76.5004C57.7801 76.5104 58.06 76.5304 58.35 76.5304C58.48 76.5304 58.55 76.4804 58.55 76.3904V75.9304H55.7601V75.3704H58.55V75.1204C58.96 75.0304 59.39 74.9104 59.85 74.7504H56.8301V74.2404H60.9301H60.92ZM59.8101 70.7104C59.6501 70.8704 59.51 71.0104 59.36 71.1104C59.48 71.2104 59.5901 71.3004 59.7001 71.3804L59.3301 71.7504C59.2101 71.6304 59.0801 71.5104 58.9401 71.4004C58.6901 71.5404 58.4001 71.6804 58.0601 71.8104L57.7801 71.3504C58.0301 71.2804 58.2701 71.1904 58.5101 71.0704C58.3501 70.9604 58.1801 70.8504 58.0001 70.7304L58.3401 70.4204C58.5601 70.5504 58.7601 70.6804 58.9501 70.8104C59.1001 70.7104 59.2501 70.5904 59.3901 70.4504L59.8101 70.7104ZM59.9001 72.0304C59.7101 72.2304 59.5401 72.3904 59.3701 72.5104C59.5101 72.6304 59.6501 72.7404 59.7801 72.8404L59.42 73.2104C59.28 73.0704 59.1201 72.9404 58.9501 72.7904C58.7201 72.9304 58.4501 73.0604 58.1501 73.1804L57.8701 72.7304C58.0901 72.6704 58.3101 72.5804 58.5201 72.4704C58.3801 72.3704 58.2201 72.2704 58.0601 72.1704L58.4001 71.8604C58.6001 71.9804 58.7801 72.1004 58.9501 72.2104C59.1301 72.0904 59.3 71.9404 59.47 71.7704L59.9001 72.0204V72.0304Z" fill="#3E3A39"/>
<path d="M65.66 70.6801V71.1902C65.5 71.7402 65.3301 72.3302 65.1201 72.9402C65.3001 73.2702 65.4301 73.5702 65.5101 73.8302C65.6001 74.1002 65.6501 74.3401 65.6501 74.5201C65.6401 74.9001 65.56 75.1702 65.42 75.3302C65.26 75.5302 64.9101 75.6201 64.3801 75.6201L64.1801 74.9402C64.3001 74.9602 64.4101 74.9702 64.5201 74.9702C64.6601 74.9702 64.77 74.9401 64.85 74.8701C64.93 74.8201 64.97 74.7001 64.97 74.5201C64.97 74.3001 64.9301 74.1002 64.8701 73.9102C64.7901 73.6602 64.6501 73.3702 64.4401 73.0302C64.6901 72.3502 64.87 71.7802 64.98 71.3102H64.0801V77.0501H63.41V70.6902H65.67L65.66 70.6801ZM69.7601 73.6501V74.2701H68.4001V76.1102C68.4001 76.2602 68.4801 76.3302 68.6501 76.3302H68.9301C69.0001 76.3302 69.06 76.2902 69.1 76.2202C69.14 76.1502 69.1701 75.7902 69.1901 75.1702L69.8 75.3701C69.75 76.1401 69.67 76.5802 69.55 76.7202C69.45 76.8602 69.2701 76.9301 69.0101 76.9301H68.3901C68.1901 76.9301 68.04 76.8702 67.92 76.7602C67.8 76.6402 67.7401 76.4901 67.7401 76.3001V74.2701H67.2801C67.2401 74.9601 67.12 75.5101 66.92 75.9001C66.72 76.3201 66.2701 76.7002 65.5701 77.0602L65.11 76.5002C65.66 76.2502 66.04 75.9902 66.23 75.7002C66.45 75.4002 66.5801 74.9202 66.6201 74.2802H65.7601V73.6602H69.7501L69.7601 73.6501ZM68.0301 71.0802H69.6401V72.6602H69.2701V73.0002H66.11V72.6602H65.6801V71.0802H67.29C67.2 70.8802 67.09 70.7001 66.98 70.5201L67.7101 70.4102C67.8101 70.6102 67.9201 70.8402 68.0201 71.0802H68.0301ZM68.9901 72.3802V71.7002H66.3401V72.3802H68.9901Z" fill="#3E3A39"/>
<path d="M5.66003 80.8303V80.3203H6.31006V80.8303H8.03009V81.8703H8.43005V82.4103H8.03009V83.4803H6.31006V83.9403H8.09009V84.4503H6.31006V84.9603H8.40009V85.5003H6.31006V86.1103C6.41006 86.1103 6.51005 86.1103 6.61005 86.1103C7.46005 86.1103 8.09007 86.1003 8.51007 86.0603L8.39008 86.7903C6.15008 86.7903 4.78004 86.7403 4.29004 86.6403C3.84004 86.5203 3.49004 86.3503 3.23004 86.1203C3.20004 86.1003 3.17009 86.0803 3.15009 86.0503C2.92009 86.3403 2.61007 86.6403 2.20007 86.9703L1.84009 86.2903C2.22009 86.0403 2.51003 85.7503 2.72003 85.4503C2.50003 85.0903 2.28009 84.5903 2.03009 83.9703L2.59009 83.7703C2.76009 84.1803 2.91005 84.5203 3.05005 84.7803C3.06005 84.7503 3.07009 84.7203 3.09009 84.6803C3.18009 84.3703 3.25004 83.9303 3.29004 83.3703H2.06006V82.9203C2.49006 82.4003 2.89006 81.8203 3.25006 81.2003H1.94006V80.6603H4.00006V81.2803C3.59006 81.9503 3.22008 82.4703 2.89008 82.8603H3.98004C3.96004 83.6703 3.87004 84.3203 3.73004 84.8103C3.66004 85.0403 3.59006 85.2503 3.50006 85.4403C3.67006 85.6403 3.93006 85.7903 4.25006 85.8903C4.52006 85.9803 4.99009 86.0303 5.65009 86.0703V85.4803H3.93005V84.9403H5.65009V84.4303H4.24005V83.9203H5.65009V83.4603H4.32007V82.9503H5.65009V82.3903H3.93005V81.8503H5.65009V81.3103H4.32007V80.8003H5.65009L5.66003 80.8303ZM6.31006 81.8703H7.38007V81.3303H6.31006V81.8703ZM6.31006 82.9803H7.38007V82.4203H6.31006V82.9803Z" fill="#3E3A39"/>
<path d="M11.2601 80.4403C11.2001 80.5803 11.1301 80.7103 11.0601 80.8403H12.8801V81.3803C13.2001 81.0303 13.4401 80.6803 13.5801 80.3003L14.23 80.4103C14.16 80.5603 14.1001 80.7103 14.0301 80.8403H16.2001V81.4303H15.0101C15.0801 81.6003 15.1501 81.7803 15.2101 81.9703L14.5001 82.0303C14.4501 81.8103 14.4 81.6203 14.36 81.4403H13.67C13.51 81.6703 13.3401 81.8703 13.1501 82.0603L12.5601 81.6903C12.6601 81.6003 12.7501 81.5203 12.8301 81.4403H11.8701C11.9401 81.6103 12.0101 81.7703 12.0801 81.9503L11.3701 82.0103C11.3201 81.8103 11.2701 81.6203 11.2101 81.4503H10.67C10.48 81.6903 10.2901 81.9103 10.0701 82.1003L9.48004 81.7303C10.02 81.3003 10.39 80.8403 10.61 80.3503L11.2601 80.4603V80.4403ZM12.5801 84.5403V84.1903L12.3 83.9503C12.65 83.8303 12.9101 83.7203 13.0901 83.5903C12.9001 83.5003 12.7101 83.4303 12.5301 83.3603L12.8401 82.9003C13.0401 82.9703 13.22 83.0403 13.41 83.1103C13.42 83.0403 13.4301 82.9703 13.4301 82.9003V82.6503H12.6301V82.1403H15.23V83.5503C15.23 83.6803 15.3001 83.7403 15.4301 83.7403H15.4601C15.5301 83.7403 15.58 83.7203 15.6 83.6803C15.64 83.6403 15.6701 83.4503 15.6801 83.0903L16.22 83.2603C16.18 83.7603 16.1001 84.0503 16.0001 84.1403C15.9101 84.2303 15.7501 84.2803 15.5201 84.2803H15.2401C15.0601 84.2803 14.9201 84.2403 14.8201 84.1303C14.7201 84.0303 14.6801 83.8803 14.6801 83.7103V82.6403H13.97V82.8903C13.97 83.0603 13.9501 83.2003 13.9001 83.3203C14.1301 83.4203 14.3501 83.5403 14.5601 83.6503L14.22 84.1903C14 84.0603 13.7901 83.9403 13.5801 83.8203C13.4501 83.9403 13.2801 84.0503 13.0801 84.1603H13.22V84.5303H16.1901V85.1203H13.92C14.18 85.3303 14.4201 85.4803 14.6401 85.5803C14.9901 85.7703 15.4901 85.9403 16.1401 86.1103L15.86 86.7003C15.07 86.4303 14.4901 86.1703 14.1201 85.9303C13.8301 85.7603 13.53 85.4903 13.22 85.1303V86.9703H12.5701V85.1303H12.55C12.33 85.4003 12.0901 85.6403 11.8101 85.8303C11.3701 86.1503 10.7301 86.4503 9.89008 86.7603L9.53009 86.1703C10.3801 85.9203 10.99 85.6903 11.35 85.4703C11.52 85.3803 11.6901 85.2603 11.8401 85.1303H9.50006V84.5403H12.5701H12.5801ZM12.3801 82.2503V82.8403H11.42V83.4603C11.74 83.4003 12.0601 83.3403 12.3801 83.2603V83.8203C11.6201 84.0103 10.74 84.1803 9.73004 84.3603L9.59009 83.7103C10.0001 83.6703 10.3901 83.6203 10.7801 83.5703V82.8403H9.80005V82.2503H12.4001H12.3801Z" fill="#3E3A39"/>
<path d="M19.8201 80.6401V81.2501H18.7501C18.6301 81.8601 18.5 82.3701 18.36 82.7801H19.7101V86.2001H18.42V86.8501H17.8301V83.9301C17.7101 84.1201 17.5901 84.3201 17.4601 84.5101L17.0901 83.8901C17.4401 83.3401 17.6901 82.8301 17.8301 82.3701C17.9301 82.0801 18.02 81.7001 18.1 81.2601H17.36V80.6501H19.8201V80.6401ZM19.11 85.6101V83.3801H18.41V85.6101H19.11ZM23.72 80.6601V81.2501H23.0701V82.9801H23.86V83.6001H23.0701V86.9601H22.42V83.6001H21.42C21.38 84.2101 21.3001 84.7401 21.1801 85.1701C21.0201 85.7501 20.7201 86.3301 20.2701 86.9401L19.73 86.4601C20.12 86.0001 20.4001 85.5101 20.5601 84.9701C20.6701 84.6401 20.7301 84.1901 20.7601 83.6101H19.9001V82.9901H20.7801V81.2601H20.0701V80.6701H23.72V80.6601ZM22.42 81.2501H21.4401V82.9801H22.42V81.2501Z" fill="#3E3A39"/>
<path d="M27.8201 82.05C27.5501 82.47 27.2301 82.8001 26.8701 83.0301C26.5001 83.2501 25.9501 83.4501 25.2101 83.6101L24.85 82.9901C25.63 82.8601 26.1601 82.7101 26.4501 82.5401C26.7301 82.4001 27.0101 82.1301 27.2801 81.7401L27.8201 82.05ZM27.5301 84.05C27.5301 84.05 27.5301 83.9801 27.5301 83.9401V83.0601H28.2001V83.9401C28.2001 83.9401 28.2001 84.02 28.2001 84.05H29.9601L29.8201 85.7701C29.8201 85.95 29.8401 86.0701 29.8901 86.1201C29.9501 86.1701 30.0101 86.1901 30.0701 86.1901H30.5801C30.5801 86.1901 30.6701 86.1701 30.7101 86.1201C30.7401 86.0901 30.7801 85.7001 30.8301 84.9501L31.5001 85.1501C31.4301 85.9901 31.3201 86.4701 31.1801 86.6001C31.0401 86.7201 30.8501 86.7801 30.6201 86.7801H29.7401C29.5801 86.7801 29.4401 86.7201 29.3101 86.6101C29.1601 86.4701 29.0901 86.2701 29.0901 86.0001L29.1801 84.6401H28.1C27.98 85.1501 27.75 85.5701 27.41 85.9101C26.96 86.3701 26.2201 86.7201 25.1901 86.9701L24.8301 86.3801C25.8601 86.1301 26.5601 85.8301 26.9301 85.4701C27.1601 85.2401 27.32 84.9601 27.41 84.6501H25.42V84.0601H27.5001L27.5301 84.05ZM28.4401 80.9501H31.1801V82.4201H30.47V81.5401H29.3401V82.6101C29.3401 82.7801 29.4201 82.8601 29.5901 82.8601H31.4001V83.4501H29.4501C29.2001 83.4501 29.0101 83.4101 28.8701 83.3101C28.7301 83.2201 28.66 83.0601 28.66 82.8301V81.5401H25.86V82.4201H25.16V80.9501H27.7101C27.6101 80.7701 27.5101 80.6001 27.3901 80.4401L28.16 80.3301C28.25 80.5201 28.3501 80.7201 28.4401 80.9501Z" fill="#3E3A39"/>
<path d="M35.85 81.0301C35.2 81.2501 34.4801 81.3801 33.7001 81.4101V82.1301H35.48V84.4701H33.67C33.64 84.8301 33.5901 85.2101 33.5301 85.5901C33.4301 86.0901 33.27 86.5601 33.05 87.0101L32.54 86.4701C32.7 86.1101 32.8101 85.7301 32.8901 85.3601C32.9601 84.9601 33.0001 84.4801 33.0301 83.9401V80.8601C34.0201 80.8601 34.8501 80.7101 35.5201 80.4001L35.86 81.0201L35.85 81.0301ZM34.86 83.8601V82.7601H33.7001V83.8601H34.86ZM39.1801 81.0301C38.4201 81.2501 37.5701 81.3801 36.6401 81.4201V82.6701H39.2101V83.3201H38.48V86.9901H37.8V83.3201H36.6401V84.1401C36.6201 84.6201 36.5401 85.1401 36.3901 85.6701C36.2501 86.1301 36.0201 86.5701 35.7001 86.9901L35.1901 86.4501C35.4401 86.1201 35.6201 85.7801 35.7401 85.4401C35.8401 85.0601 35.9101 84.6301 35.9501 84.1401V80.8301C37.0901 80.8301 38.0401 80.6701 38.8101 80.3501L39.17 81.0301H39.1801Z" fill="#3E3A39"/>
<path d="M40.6501 83.5503C40.6501 83.3003 40.8501 83.1104 41.0901 83.1104C41.3301 83.1104 41.5301 83.3103 41.5301 83.5503C41.5301 83.7903 41.3301 84.0003 41.0901 84.0003C40.8301 84.0003 40.6501 83.7903 40.6501 83.5503Z" fill="#3E3A39"/>
<path d="M45.5201 80.6406V81.2505H44.5701C44.4501 81.8605 44.3201 82.3605 44.1801 82.7505C44.1801 82.7605 44.17 82.7805 44.17 82.7805H45.42V86.2006H44.2601V86.8506H43.67V83.8105C43.55 84.0005 43.4401 84.1906 43.3101 84.3606L42.9401 83.7705C43.2901 83.2505 43.5401 82.7606 43.6801 82.3206C43.7801 82.0506 43.8701 81.6805 43.9501 81.2505H43.1501V80.6406H45.5201ZM44.8201 85.6106V83.3806H44.2501V85.6106H44.8201ZM47.3 86.0106C46.9 86.3806 46.3801 86.7205 45.7701 87.0205L45.35 86.4605C45.9 86.2405 46.4 85.9506 46.85 85.6106L47.3 86.0106ZM49.6501 80.5605V81.1505H47.97C47.92 81.3405 47.86 81.5206 47.8 81.6906H49.3401V85.5005H45.86V81.6906H47.1C47.17 81.5206 47.24 81.3405 47.29 81.1505H45.7801V80.5605H49.66H49.6501ZM48.72 82.7705V82.2606H46.4901V82.7705H48.72ZM48.72 83.8705V83.3105H46.4901V83.8705H48.72ZM48.72 84.4106H46.4901V84.9506H48.72V84.4106ZM49.67 86.4406L49.3101 87.0005C48.8001 86.6305 48.2801 86.3405 47.7501 86.1205L48.0601 85.6406C48.6401 85.8606 49.17 86.1205 49.67 86.4305V86.4406Z" fill="#3E3A39"/>
<path d="M53.61 82.5001V80.3501H54.3701V82.5001H57.2601V83.1801H54.3701V86.0401H56.92V86.6801H51.04V86.0401H53.61V83.1801H50.7801V82.5001H53.61Z" fill="#3E3A39"/>
<path d="M6.01013 7.54984H3.32013V8.32983H2.38013V1.05983H6.02014V7.55983L6.01013 7.54984ZM5.08014 3.81982V1.94983H3.32013V3.81982H5.08014ZM5.08014 6.65984V4.66983H3.32013V6.65984H5.08014ZM6.96014 0.829834H11.3801V8.51982C11.3801 8.83982 11.2901 9.08982 11.1101 9.26982C10.9401 9.41982 10.7201 9.49983 10.4401 9.49983H8.76013L8.56012 8.55983L10.0302 8.63983C10.2402 8.61983 10.3601 8.48983 10.3601 8.24983V6.49983H7.82013C7.74013 6.86983 7.63013 7.19983 7.51013 7.47983C7.21013 8.20983 6.62011 8.92982 5.74011 9.67982L4.88013 8.97983C5.67013 8.41983 6.22011 7.81984 6.55011 7.15984C6.82011 6.62984 6.97009 5.82982 6.97009 4.73982V0.819824L6.96014 0.829834ZM10.3601 5.60983V4.05983H7.99011V4.75983C7.99011 5.06983 7.97013 5.35983 7.95013 5.61983H10.3601V5.60983ZM10.3601 3.15984V1.72983H7.99011V3.15984H10.3601Z" fill="#3E3A39"/>
<path d="M21.4401 9.64008H20.4201V8.90007H15.2201V9.61008H14.1901V0.830078H21.4301V9.64008H21.4401ZM20.4201 4.28008V1.79007H15.2201V4.28008H20.4201ZM20.4201 7.97008V5.25008H15.2201V7.97008H20.4201Z" fill="#3E3A39"/>
<path d="M29.5101 1.17998V0.47998H30.4501V1.17998H32.9401V2.60999H33.5201V3.35999H32.9401V4.82999H30.4501V5.45998H33.0302V6.15999H30.4501V6.85999H33.4801V7.59998H30.4501V8.44998C30.6001 8.44998 30.7401 8.44998 30.8901 8.44998C32.1201 8.44998 33.0401 8.42997 33.6501 8.37997L33.4801 9.37997C30.2301 9.37997 28.2501 9.30998 27.5401 9.16998C26.8901 9.00998 26.3801 8.76998 26.0001 8.44998C25.9601 8.41998 25.9201 8.38998 25.8801 8.34998C25.5401 8.74998 25.0901 9.16999 24.5101 9.60999L23.9901 8.66998C24.5401 8.31998 24.9601 7.92997 25.2701 7.51997C24.9601 7.01997 24.6301 6.33998 24.2701 5.47998L25.0901 5.20998C25.3301 5.77998 25.5501 6.23998 25.7601 6.59998C25.7801 6.55998 25.7901 6.50998 25.8101 6.45998C25.9501 6.02998 26.0401 5.43999 26.0901 4.65999H24.3101V4.03998C24.9401 3.31998 25.5201 2.52998 26.0401 1.66998H24.1401V0.919983H27.1301V1.77998C26.5301 2.69998 26.0002 3.41998 25.5302 3.95998H27.1001C27.0701 5.06998 26.9401 5.96998 26.7301 6.64998C26.6301 6.96998 26.5201 7.25997 26.3901 7.51997C26.6401 7.78997 27.0101 7.99998 27.4801 8.13998C27.8801 8.25998 28.5601 8.33998 29.5001 8.38998V7.57999H27.0101V6.83998H29.5001V6.13998H27.4601V5.43999H29.5001V4.80998H27.5701V4.10999H29.5001V3.32999H27.0101V2.57999H29.5001V1.83998H27.5701V1.13998H29.5001L29.5101 1.17998ZM30.4501 2.60999H32.0001V1.86998H30.4501V2.60999ZM30.4501 4.12997H32.0001V3.34998H30.4501V4.12997Z" fill="#3E3A39"/>
<path d="M37.5302 0.6297C37.4402 0.8297 37.3401 1.0097 37.2401 1.1797H39.8701V1.9297C40.3301 1.4497 40.6801 0.959707 40.8901 0.449707L41.8301 0.599701C41.7401 0.809701 41.6401 1.00971 41.5501 1.18971H44.6901V2.0097H42.9701C43.0701 2.2497 43.1701 2.49971 43.2601 2.74971L42.2301 2.82971C42.1601 2.52971 42.0801 2.2597 42.0201 2.0097H41.0201C40.7901 2.3297 40.5401 2.60971 40.2701 2.86971L39.4101 2.35971C39.5601 2.23971 39.6801 2.1297 39.8001 2.0097H38.4101C38.5101 2.2397 38.6201 2.4697 38.7101 2.7097L37.6801 2.7897C37.6101 2.5097 37.5301 2.2497 37.4501 2.0097H36.6701C36.4001 2.3397 36.1101 2.63971 35.8001 2.90971L34.9401 2.3997C35.7201 1.8097 36.2601 1.17971 36.5801 0.49971L37.5201 0.649704L37.5302 0.6297ZM39.4501 6.2697V5.77971L39.0401 5.44971C39.5401 5.28971 39.9201 5.12971 40.1801 4.94971C39.9101 4.82971 39.6301 4.7297 39.3701 4.6297L39.8201 3.99971C40.1001 4.09971 40.3801 4.1897 40.6501 4.2897C40.6701 4.1997 40.6801 4.09971 40.6801 3.99971V3.6497H39.5302V2.94971H43.3001V4.88971C43.3001 5.06971 43.3901 5.15971 43.5801 5.15971H43.6201C43.7101 5.15971 43.7901 5.1297 43.8301 5.0697C43.8801 5.0197 43.9201 4.7497 43.9501 4.2597L44.7301 4.49971C44.6701 5.18971 44.5601 5.57971 44.4201 5.69971C44.2901 5.82971 44.0501 5.88971 43.7201 5.88971H43.3101C43.0501 5.88971 42.8501 5.82971 42.7001 5.68971C42.5501 5.54971 42.4901 5.34971 42.4901 5.10971V3.63971H41.4601V3.9897C41.4601 4.2197 41.4301 4.41971 41.3701 4.58971C41.7101 4.72971 42.0201 4.88971 42.3201 5.04971L41.8301 5.7897C41.5201 5.6097 41.2101 5.43971 40.9101 5.27971C40.7201 5.43971 40.4801 5.59971 40.1901 5.74971H40.4001V6.2597H44.7001V7.07971H41.4101C41.7901 7.36971 42.1301 7.5797 42.4601 7.7097C42.9601 7.9697 43.6901 8.20971 44.6301 8.43971L44.2201 9.2597C43.0801 8.8797 42.2401 8.52971 41.7001 8.19971C41.2801 7.95971 40.8401 7.5897 40.4001 7.0997V9.6297H39.4601V7.0997H39.4301C39.1201 7.4797 38.7601 7.80971 38.3601 8.05971C37.7201 8.49971 36.7901 8.91971 35.5701 9.33971L35.0501 8.5197C36.2901 8.1697 37.1701 7.84971 37.6901 7.55971C37.9401 7.42971 38.1801 7.26971 38.4001 7.08971H35.0001V6.2697H39.4601H39.4501ZM39.1701 3.11971V3.93971H37.7802V4.79971C38.2402 4.71971 38.7101 4.62971 39.1701 4.52971V5.30971C38.0701 5.56971 36.7901 5.80971 35.3201 6.04971L35.1101 5.1497C35.7001 5.0997 36.2601 5.02971 36.8301 4.94971V3.94971H35.4001V3.1297H39.1601L39.1701 3.11971Z" fill="#3E3A39"/>
<path d="M55.6001 1.67993L54.9201 2.10994H59.2501V2.99994H55.5201V4.90994H58.7601V5.76993H55.5201V8.17993H59.6201V9.11993H50.2401V8.17993H54.4201V5.76993H51.1001V4.90994H54.4201V2.99994H50.5601V2.10994H54.4901C54.2401 1.74994 53.9201 1.35994 53.5601 0.939941L54.3801 0.439941C54.8901 0.919941 55.3001 1.33993 55.6101 1.67993H55.6001Z" fill="#3E3A39"/>
<path d="M64.7201 1.10007V2.00008H63.3701V3.98007H64.4801V4.88007H63.3701V7.09007C63.8301 6.93007 64.2601 6.77007 64.6801 6.59007V7.57007C63.6801 8.01007 62.5502 8.41007 61.2802 8.77007L61.0001 7.79007C61.5001 7.67007 61.9701 7.53008 62.4301 7.39008V4.87007H61.2901V3.97008H62.4301V1.99007H61.2001V1.09007H64.7201V1.10007ZM70.2501 0.830078V5.65007H68.0401V6.62007H70.2802V7.44008H68.0401V8.56007H70.7301V9.38007H64.1001V8.56007H67.0501V7.44008H65.0101V6.62007H67.0501V5.65007H64.9201V0.830078H70.2501ZM67.0501 2.81007V1.61008H65.8701V2.81007H67.0501ZM67.0501 3.59007H65.8701V4.87007H67.0501V3.59007ZM68.0401 2.81007H69.3101V1.61008H68.0401V2.81007ZM69.3101 3.59007H68.0401V4.87007H69.3101V3.59007Z" fill="#3E3A39"/>
<path d="M77.4601 0.439941V2.80994C77.8101 4.25994 78.3301 5.45993 79.0201 6.37993C79.5801 7.15993 80.4901 7.94993 81.7601 8.75993L81.0701 9.64993C80.0201 8.98993 79.2201 8.36993 78.6901 7.73993C77.9901 6.97993 77.4301 6.05994 77.0101 4.94994C76.6601 6.09994 76.1901 6.98994 75.5901 7.60994C74.9601 8.30994 74.0201 8.97993 72.7501 9.64993L72.1001 8.75993C73.6701 7.85993 74.7601 6.87994 75.3701 5.80994C75.9701 4.79994 76.2801 3.78993 76.3101 2.81993V0.449936H77.4501L77.4601 0.439941Z" fill="#3E3A39"/>
<path d="M13.1 21.1603L15.11 22.5903C15.01 22.7303 14.77 22.8803 14.41 22.9503V28.1703C14.41 28.1703 13.8801 28.6303 12.5201 28.6303V27.7103H3.46008V28.1703C3.46008 28.2203 3.15009 28.8503 1.59009 28.8503V21.3403L3.60004 22.1403H6.54004C6.71004 21.3603 6.90006 20.1703 7.00006 19.2303H4.52008V19.5503C4.52008 19.5503 4.25007 20.2003 2.70007 20.2003V13.4703L4.65009 14.2503H11.2801L12.0101 13.3003L14.0001 14.6903C13.9001 14.8303 13.66 14.9803 13.3 15.0503V19.4903C13.3 19.4903 12.7701 19.9503 11.4501 19.9503V19.2403H9.24005C8.59005 20.2403 7.74009 21.4003 7.03009 22.1503H12.3701L13.1 21.1803V21.1603ZM3.46008 27.3603H12.5201V22.4603H3.46008V27.3603ZM4.51007 18.8803H11.4501V14.5803H4.51007V18.8803Z" fill="#C9A063"/>
<path d="M34.61 16.6903C34.47 16.8903 34.2701 16.9803 33.7601 16.9803H31.7701C30.9901 19.8403 29.76 22.2703 27.86 24.2003C29.8 25.5603 32.1101 26.4803 34.6301 27.0703L34.5801 27.2903C33.6801 27.3903 32.9801 27.9503 32.6401 28.8503C30.2801 28.0303 28.2501 26.9003 26.6401 25.3003C24.6901 26.8803 22.1201 28.0703 18.8201 28.8203L18.73 28.6003C21.72 27.6003 24.0301 26.1703 25.7701 24.3503C24.2401 22.4803 23.1701 20.0803 22.5701 16.9703H18.92L18.8201 16.6303H25.7701V12.8203L28.35 13.0603C28.32 13.3103 28.1601 13.4303 27.6401 13.5003V16.6303H31.4601L32.5801 15.1303L34.6 16.6803L34.61 16.6903ZM22.8801 16.9803C23.5901 19.6503 24.9401 21.6903 26.6901 23.2703C28.0701 21.4803 28.9801 19.3803 29.5301 16.9803H22.8801Z" fill="#C9A063"/>
<path d="M41.7801 18.5301V20.4001C43.6801 21.0001 44.3 21.8801 44.3 22.5401C44.3 23.0801 43.89 23.5101 43.42 23.5101C43.18 23.5101 42.94 23.3901 42.72 23.1401C42.69 22.3901 42.28 21.3901 41.79 20.7101V28.3302C41.77 28.4302 41.1901 28.8602 40.3301 28.8602H40.0201V22.7401C39.3201 23.8801 38.4701 24.9202 37.4901 25.8302L37.2701 25.6102C38.5301 23.6702 39.36 21.0201 39.8 18.5401H37.4901L37.4001 18.2001H40.0201V15.4501C39.1401 15.6401 38.2401 15.8101 37.3901 15.9301L37.3201 15.7301C39.0001 14.9701 41.2301 13.7101 42.3201 12.8901L44.41 14.5901C44.29 14.6901 44.1401 14.7401 43.9301 14.7401C43.7601 14.7401 43.5601 14.7101 43.3201 14.6401C42.9001 14.7601 42.37 14.9101 41.79 15.0501V18.2101H42.16L43.0301 16.9701L44.4401 18.0901V13.6401L46.22 14.3701H50.23L50.9301 13.4501L52.85 14.7901C52.75 14.9101 52.49 15.0601 52.17 15.1301V19.2301C52.17 19.2301 51.6801 19.7401 50.4001 19.7401V18.8401H46.1301V19.3201C46.1301 19.3201 45.8701 19.9301 44.4301 19.9301V18.4501C44.2901 18.5201 44.1101 18.5501 43.8201 18.5501H41.7801V18.5301ZM51.7601 26.5201L53.5601 27.8602C53.4201 28.0802 53.2201 28.1501 52.7601 28.1501H43.0701L42.98 27.8101H47.3301V24.6301H44.1L44.0101 24.2901H47.3201V21.4301H43.85L43.7601 21.0901H50.5101L51.4301 19.8701L53.16 21.1301C53.02 21.3501 52.8001 21.4401 52.3401 21.4401H49.1301V24.3001H50.17L51.0701 23.0901L52.7701 24.3302C52.6301 24.5502 52.43 24.6402 51.97 24.6402H49.1301V27.8201H50.7601L51.73 26.5301L51.7601 26.5201ZM50.4001 14.6701H46.1301V18.4801H50.4001V14.6701Z" fill="#C9A063"/>
</svg>
