<svg width="252" height="88" viewBox="0 0 252 88" fill="none" xmlns="http://www.w3.org/2000/svg">
<path d="M8.12012 9.82986V14.2599C11.5001 15.8099 12.5701 17.7199 12.5701 19.0099C12.5701 19.9799 12.0001 20.6299 11.3301 20.6299C11.0001 20.6299 10.6302 20.4499 10.2902 20.0499C10.0602 18.5399 9.12011 16.4099 8.11011 14.9699V32.8599C8.11011 32.9699 7.78012 33.8299 5.50012 33.8299V18.1399C4.33012 20.8399 2.79013 23.2899 0.880127 25.4799L0.410156 24.9799C2.89016 20.7699 4.39007 15.2999 5.20007 9.82986H0.780151L0.610107 9.03986H5.50012V0.399864L9.52014 0.759865C9.49014 1.29986 9.15011 1.54986 8.11011 1.69986V9.03986H8.9801L10.4901 6.76986L13.3002 9.14986C13.0002 8.28986 12.6001 7.48986 12.1301 6.84986L12.4601 6.59986C15.6101 8.32986 16.6501 10.4499 16.6501 11.9999C16.6501 13.3699 15.8802 14.3399 15.0402 14.3399C14.6402 14.3399 14.2401 14.1199 13.8701 13.6199C13.9001 13.2999 13.9401 12.9699 13.9401 12.6499C13.9401 11.4999 13.7102 10.2699 13.3002 9.15987C13.0302 9.65987 12.6301 9.83986 11.7301 9.83986H8.11011L8.12012 9.82986ZM10.4001 21.9199C11.6101 21.4199 14.2802 20.0799 17.0602 18.6099C17.0902 18.0299 17.0901 17.3899 17.0901 16.7699V0.359863L21.0101 0.719864C20.9401 1.29986 20.6102 1.50987 19.5402 1.61987V16.7399C19.5102 24.3699 17.4001 30.2699 10.0701 33.9799L9.67017 33.4799C14.5902 30.1299 16.5301 25.6299 17.0001 19.7999C16.0001 20.9899 14.6901 22.4599 13.1201 24.1899C13.0901 24.6599 12.8502 25.0499 12.5502 25.2299L10.4102 21.9199H10.4001ZM30.9601 25.9899L30.9901 30.4199C31.9901 30.9199 32.1301 31.0299 32.1301 31.4599C32.1301 32.6499 31.2601 33.2199 28.7501 33.2199H25.6401C22.9301 33.2199 22.4601 32.2799 22.4601 29.0099V0.469864L26.4401 0.869865C26.3701 1.44987 26.1401 1.65986 25.0001 1.83986V18.0699C29.5901 19.1899 31.0602 21.4899 31.0602 23.1099C31.0602 24.1199 30.4901 24.8699 29.7201 24.8699C29.3901 24.8699 28.9801 24.7299 28.6201 24.3699C28.2201 22.3899 26.6801 20.1899 25.0001 18.7899V29.1199C25.0001 30.5599 25.0301 30.6299 25.7001 30.6299H28.6101C28.9101 30.6299 29.2501 30.5899 29.5101 30.2299C29.7401 29.8299 30.2801 27.7499 30.6101 25.9799H30.9501L30.9601 25.9899ZM31.6301 8.13986C31.5301 8.35986 31.3602 8.49986 31.0302 8.49986C30.9002 8.49986 30.8001 8.49986 30.6301 8.45986C29.5901 9.96986 27.4801 12.6399 25.6401 14.4399L25.3102 14.2199C26.2802 11.8099 27.5501 7.98987 28.0201 6.15987L31.6401 8.13986H31.6301Z" fill="white"/>
<path d="M64.7401 1.16016L67.9202 3.68015C67.6902 4.00015 67.1501 4.29016 66.4801 4.44016V32.4802C66.4801 32.5502 65.8101 33.4902 63.8401 33.4902V31.4702H41.5402V32.7302C41.5402 32.8002 41.3401 33.9202 38.9601 33.9202V1.49015L41.8102 2.89015H63.5001L64.7401 1.16016ZM41.5402 30.6802H63.8401V3.68015H41.5402V30.6802ZM60.0201 9.62016L62.7701 11.6402C62.5001 12.1802 62.1001 12.3602 61.2301 12.3602H42.9501L42.7501 11.5302H51.3901V8.61015H44.8601L44.6602 7.82015H51.3901V4.65015L55.0402 5.01015C55.0102 5.44015 54.7401 5.62015 53.8701 5.77015V7.82015H57.0201L58.3901 5.95015L61.0402 7.93015C60.7702 8.43015 60.3702 8.61015 59.5302 8.61015H53.8701V11.5302H58.6201L60.0302 9.62016H60.0201ZM59.8201 19.8801L59.8901 19.7701L62.1001 21.8602C62.0001 22.0002 61.8702 22.0802 61.6602 22.0802C61.4902 22.0802 61.2901 22.0402 61.0201 21.9402C60.2801 22.4402 59.0801 23.2002 58.0701 23.7802C58.9701 24.1402 61.6501 25.2902 61.6501 27.1602C61.6501 27.7702 61.3202 28.2001 60.8102 28.2001C60.5102 28.2001 60.1401 28.0601 59.7401 27.7001C58.6701 26.1901 56.3301 24.2401 53.8501 23.2001V28.6702C53.8501 28.8902 53.0501 29.5302 51.7701 29.5302H51.3701V22.6502C49.2301 24.9502 46.4502 26.8601 43.3002 28.2701L42.9701 27.6602C46.0801 25.6802 48.6901 22.9802 50.4401 20.0602H47.8301V20.7802C47.8301 20.8502 47.4301 21.6402 45.4901 21.6402V13.6502L48.0001 14.8401H57.1702L58.1101 13.5102L60.8901 15.5602C60.7201 15.7802 60.3201 16.0302 59.8201 16.1002V19.8801ZM47.8401 19.2701H57.4501V15.6301H47.8401V19.2701ZM53.8701 20.0602V22.6202C55.1101 22.8402 56.2502 23.1202 57.2802 23.4802C57.8502 22.8002 58.4902 21.9002 59.0502 21.0302C58.4102 21.3202 57.9801 21.3202 57.4401 21.3202V20.0602H53.8601H53.8701Z" fill="white"/>
<path d="M73.6401 33.3003C86.7601 24.0903 86.6001 12.2803 86.6301 1.26025L90.9801 1.69025C90.9501 2.16025 90.6801 2.45025 89.6101 2.55025C90.4501 13.7103 93.6901 24.1502 104.84 30.9902L104.77 31.4202C103.33 31.5602 102.39 32.3203 101.96 33.9403C93.4601 27.5303 90.5401 17.9202 89.4401 8.24025H89.4102C88.8402 17.4202 86.6302 26.9903 74.0402 33.8703L73.6401 33.2903V33.3003Z" fill="white"/>
<path d="M115.26 14.8399C115.83 16.8599 116.06 18.6599 116.06 20.1999C116.06 24.9899 113.78 28.1499 111.57 28.1499C110.57 28.1499 110.26 27.3899 110.26 26.8899C110.26 26.2799 110.6 25.6699 111.1 25.1999C113.08 23.6199 114.88 19.5799 114.72 14.8699L115.26 14.8299V14.8399ZM118.81 1.62988C127.68 1.69988 130.49 5.00988 130.49 6.98988C130.49 7.84988 129.95 8.46989 129.15 8.46989C128.92 8.46989 128.68 8.42989 128.41 8.32989C127.1 6.34989 123.69 3.60988 118.73 2.16988L118.8 1.62988H118.81ZM119.48 10.8399L123.46 11.1999C123.39 11.6999 123.19 11.9199 122.19 12.0999V28.9799C122.19 30.1999 122.32 30.3099 123.6 30.3099H130.23C130.83 30.3099 131.2 30.2399 131.5 29.6999C131.8 29.1599 132.34 26.9599 132.91 24.4399H133.21L133.18 29.9799C134.32 30.4099 134.52 30.5899 134.52 31.0199C134.52 32.2399 133.52 32.8599 130.2 32.8599H123.57C120.22 32.8599 119.49 32.1799 119.49 28.9399V10.8299L119.48 10.8399ZM133.81 13.3599C139.57 16.8899 141.38 21.3499 141.38 24.4099C141.38 26.5299 140.51 28.0099 139.51 28.0099C139.11 28.0099 138.67 27.7599 138.27 27.1799C138.34 23.5799 137.27 17.5999 133.48 13.7199L133.81 13.3599Z" fill="white"/>
<path d="M151.75 14.8399C152.32 16.8599 152.55 18.6599 152.55 20.1999C152.55 24.9899 150.27 28.1499 148.06 28.1499C147.06 28.1499 146.75 27.3899 146.75 26.8899C146.75 26.2799 147.08 25.6699 147.59 25.1999C149.57 23.6199 151.37 19.5799 151.21 14.8699L151.75 14.8299V14.8399ZM155.3 1.62988C164.17 1.69988 166.98 5.00988 166.98 6.98988C166.98 7.84988 166.44 8.46989 165.64 8.46989C165.41 8.46989 165.17 8.42989 164.9 8.32989C163.59 6.34989 160.18 3.60988 155.22 2.16988L155.29 1.62988H155.3ZM155.97 10.8399L159.95 11.1999C159.88 11.6999 159.68 11.9199 158.68 12.0999V28.9799C158.68 30.1999 158.81 30.3099 160.09 30.3099H166.72C167.32 30.3099 167.69 30.2399 167.99 29.6999C168.29 29.1599 168.83 26.9599 169.4 24.4399H169.7L169.67 29.9799C170.81 30.4099 171.01 30.5899 171.01 31.0199C171.01 32.2399 170.01 32.8599 166.69 32.8599H160.06C156.71 32.8599 155.98 32.1799 155.98 28.9399V10.8299L155.97 10.8399ZM170.3 13.3599C176.06 16.8899 177.87 21.3499 177.87 24.4099C177.87 26.5299 177 28.0099 176 28.0099C175.6 28.0099 175.16 27.7599 174.76 27.1799C174.83 23.5799 173.76 17.5999 169.97 13.7199L170.3 13.3599Z" fill="white"/>
<path d="M182.76 13.07C188.85 10.08 194.51 4.72004 196.72 0.0400391L201.07 1.30004C200.97 1.73004 200.63 1.95004 199.6 2.06004C202.91 5.55004 208.54 8.29004 214.63 9.58004L214.56 10.12C213.35 10.55 212.68 11.78 212.48 12.93C206.59 10.7 201.8 7.06004 199.06 2.45004C196.01 6.55003 189.95 11.31 182.92 13.61L182.75 13.07H182.76ZM188.65 23.04C188.88 24.08 188.98 25.02 188.98 25.85C188.98 29.74 186.7 32.04 184.66 32.04C183.72 32.04 183.12 31.54 183.12 30.74C183.12 30.06 183.62 29.44 184.26 29.08C186.07 28.29 188.04 26.09 188.11 23.03H188.65V23.04ZM187.14 14.47L186.91 13.68H204.52L205.93 12.1L208.74 14.76C208.47 15.05 207.9 15.23 207.13 15.26C206.39 17.02 204.89 20.16 203.78 22.32C203.55 22.39 203.31 22.39 203.08 22.39C202.51 22.39 201.84 22.25 201.07 21.85C202.28 19.55 203.68 16.56 204.55 14.47H187.14ZM205.55 26.31L205.48 30.56C206.62 30.99 206.79 31.1 206.79 31.53C206.79 32.65 205.85 33.22 202.57 33.22H195.71C192.46 33.22 191.79 32.68 191.79 29.98V22.49L195.57 22.81C195.54 23.24 195.34 23.42 194.46 23.57V30.01C194.46 30.84 194.49 30.87 195.83 30.87H202.59C203.36 30.87 203.66 30.83 203.96 30.33C204.23 29.83 204.66 28.35 205.2 26.3H205.53L205.55 26.31ZM200.83 7.48004L203.81 9.71004C203.54 10.21 203.14 10.43 202.24 10.43H192.67L192.47 9.60004H199.27L200.84 7.48004H200.83ZM194.23 19.54C199.96 19.9 201.83 22.38 201.83 24.08C201.83 25.02 201.29 25.7 200.52 25.7C200.25 25.7 199.92 25.59 199.62 25.41C198.65 23.36 196.17 21.05 194.1 19.9L194.23 19.54ZM206.42 22.56C212.35 24.36 214.19 27.56 214.19 29.72C214.19 31.02 213.52 31.92 212.68 31.92C212.31 31.92 211.91 31.74 211.51 31.38C211.11 28.28 208.63 24.76 206.19 22.89L206.42 22.57V22.56Z" fill="white"/>
<path d="M219.25 13.07C225.34 10.08 231 4.72004 233.21 0.0400391L237.56 1.30004C237.46 1.73004 237.12 1.95004 236.09 2.06004C239.4 5.55004 245.03 8.29004 251.12 9.58004L251.05 10.12C249.84 10.55 249.17 11.78 248.97 12.93C243.08 10.7 238.29 7.06004 235.55 2.45004C232.5 6.55003 226.44 11.31 219.41 13.61L219.24 13.07H219.25ZM225.14 23.04C225.37 24.08 225.47 25.02 225.47 25.85C225.47 29.74 223.19 32.04 221.15 32.04C220.21 32.04 219.61 31.54 219.61 30.74C219.61 30.06 220.11 29.44 220.75 29.08C222.56 28.29 224.53 26.09 224.6 23.03H225.14V23.04ZM223.63 14.47L223.4 13.68H241.01L242.42 12.1L245.23 14.76C244.96 15.05 244.39 15.23 243.62 15.26C242.88 17.02 241.38 20.16 240.27 22.32C240.04 22.39 239.8 22.39 239.57 22.39C239 22.39 238.33 22.25 237.56 21.85C238.76 19.55 240.17 16.56 241.04 14.47H223.63ZM242.04 26.31L241.97 30.56C243.11 30.99 243.28 31.1 243.28 31.53C243.28 32.65 242.34 33.22 239.06 33.22H232.2C228.95 33.22 228.28 32.68 228.28 29.98V22.49L232.06 22.81C232.03 23.24 231.83 23.42 230.95 23.57V30.01C230.95 30.84 230.98 30.87 232.32 30.87H239.08C239.85 30.87 240.15 30.83 240.45 30.33C240.72 29.83 241.15 28.35 241.69 26.3H242.03L242.04 26.31ZM237.32 7.48004L240.3 9.71004C240.03 10.21 239.63 10.43 238.73 10.43H229.16L228.96 9.60004H235.76L237.33 7.48004H237.32ZM230.72 19.54C236.45 19.9 238.32 22.38 238.32 24.08C238.32 25.02 237.78 25.7 237.01 25.7C236.74 25.7 236.41 25.59 236.11 25.41C235.14 23.36 232.66 21.05 230.59 19.9L230.72 19.54ZM242.91 22.56C248.84 24.36 250.68 27.56 250.68 29.72C250.68 31.02 250.01 31.92 249.17 31.92C248.8 31.92 248.4 31.74 248 31.38C247.6 28.28 245.12 24.76 242.68 22.89L242.91 22.57V22.56Z" fill="white"/>
<path d="M14.8201 55.5101L17.8301 57.7801C17.5301 58.2801 17.1601 58.5001 16.2601 58.5001H0.890137L0.690063 57.6701H7.55017V53.6001L11.6301 54.0001C11.5601 54.5401 11.2302 54.7901 10.1602 54.9401V57.6801H13.2401L14.8102 55.5201L14.8201 55.5101ZM13.6101 73.4401L14.6101 72.0401L17.4601 74.2001C17.2601 74.4201 16.7901 74.7001 16.2501 74.8101V83.5201C16.2501 85.4601 15.8101 86.8301 13.0001 87.1201C13.0001 85.0701 12.3301 84.7101 10.2501 84.5301V84.0301H13.3601C13.7601 84.0301 13.9001 83.8901 13.9001 83.4501V74.2401H8.88013C8.41013 75.7501 7.84014 77.3001 7.27014 78.7001C8.41014 78.6601 9.71017 78.5601 11.0502 78.4801C10.7102 77.5801 10.2802 76.6801 9.81018 76.0301L10.1802 75.7801C12.7602 77.1501 13.5901 78.7701 13.5901 79.9601C13.5901 80.9001 13.0901 81.5101 12.4901 81.5101C12.1901 81.5101 11.8501 81.3701 11.5901 81.0101C11.5901 80.5101 11.4901 79.9301 11.3201 79.3501C10.0501 79.7801 8.34016 80.3601 6.16016 81.0401C5.93016 81.5101 5.62007 81.6901 5.32007 81.7601L4.22009 78.8101C4.72009 78.8101 5.46008 78.7701 6.33008 78.7401C6.60008 77.3701 6.83015 75.7901 7.03015 74.2401H4.02014V86.3001C4.02014 86.5201 3.28011 87.1301 2.11011 87.1301H1.74011V72.2301L4.42017 73.4501H7.13013C7.33013 72.0101 7.46007 70.6101 7.57007 69.3801H4.62012V70.2801C4.62012 70.3501 4.32006 71.0701 2.44006 71.0701V59.8401L5.69006 60.1301C5.62006 60.5301 5.39012 60.7401 4.62012 60.8101V68.5801H13.1901V59.8301L16.4701 60.1501C16.4401 60.5101 16.1701 60.7301 15.3601 60.8301V70.0101C15.3601 70.0801 14.9902 70.7701 13.1802 70.7701V69.3701H9.03015L11.2101 69.8001C11.1401 70.2301 10.7701 70.4101 9.97009 70.4501C9.74009 71.3501 9.47013 72.3601 9.13013 73.4401H13.5801H13.6101ZM5.71008 61.3501C6.88008 61.6001 7.89006 61.9601 8.69006 62.3201C9.16006 61.3801 9.63015 60.4101 10.0302 59.3701L12.9801 60.8801C12.8501 61.2001 12.6402 61.3501 12.1802 61.3501C12.0502 61.3501 11.9101 61.3501 11.7401 61.3101C11.3401 62.0301 10.8701 62.7501 10.4001 63.3601C11.5001 64.3001 11.9401 65.2701 11.9401 65.9901C11.9401 66.7101 11.5702 67.1401 11.0402 67.1401C10.8402 67.1401 10.6001 67.0701 10.3401 66.8901C10.0701 66.2801 9.6401 65.5901 9.1001 64.9501C7.8601 66.2101 6.56009 67.2501 5.22009 67.9701L4.82007 67.5001C5.86007 66.6001 6.93018 65.2701 7.93018 63.6801C7.13018 62.9201 6.29014 62.2401 5.52014 61.7401L5.72009 61.3401L5.71008 61.3501ZM29.6501 81.7201L32.4001 83.9201C32.1001 84.4201 31.7001 84.6401 30.8301 84.6401H21.1602V86.1501C21.1602 86.3301 20.3601 87.0101 19.1201 87.0101H18.7201V66.6001C17.9501 67.9301 17.1101 69.1201 16.2401 70.1301L15.7001 69.8101C17.6801 66.2101 19.4502 59.8401 20.2902 53.7201L24.1702 54.6901C24.0702 55.1601 23.8001 55.3701 22.9601 55.4101C22.4201 57.5301 21.8201 59.5901 21.0901 61.4901L21.5901 61.7101H24.5701C25.0401 59.4401 25.5402 56.4201 25.7802 54.2201L29.8002 55.1601C29.6702 55.5901 29.3702 55.7701 28.5602 55.7701C27.7902 57.4601 26.5801 59.8001 25.3801 61.7101H27.7902L29.2001 59.6901L31.9102 61.7801C31.6102 62.3201 31.2101 62.5001 30.3401 62.5001H26.5602V68.8701H27.6602L28.9302 66.9601L31.3701 68.9401C31.1401 69.4801 30.7001 69.6601 29.8601 69.6601H26.5502V76.2101H27.6501L28.9601 74.3001L31.4401 76.2801C31.1701 76.8201 30.7701 77.0001 29.9001 77.0001H26.5502V83.8001H28.2601L29.6702 81.7101L29.6501 81.7201ZM24.1301 62.5001H21.1501V68.8701H24.1301V62.5001ZM24.1301 76.2101V69.6601H21.1501V76.2101H24.1301ZM21.1501 77.0001V83.8001H24.1301V77.0001H21.1501Z" fill="white"/>
<path d="M54.5901 57.6702L57.5701 58.7502C57.4401 59.0702 57.2001 59.2202 56.7301 59.2202C56.5601 59.2202 56.3902 59.2202 56.1602 59.1802C55.4202 60.3302 54.6201 61.5202 53.7201 62.7102L55.0901 63.2502C54.9601 63.5702 54.6502 63.7902 54.0502 63.9002V86.3202C54.0202 86.5402 52.8102 87.1502 51.8102 87.1502H51.2701V65.5902C47.2501 69.9802 42.1002 74.0102 36.8102 76.4602L36.5101 75.9902C43.0401 71.9202 49.7002 64.4702 53.0502 57.6702H37.5502L37.3501 56.8802H62.5602L64.5001 54.2202L68.1201 56.9902C67.8501 57.4602 67.4501 57.6702 66.4801 57.6702H54.6001H54.5901ZM55.5901 65.5202C65.1301 68.4402 68.0402 72.6802 68.0402 74.8802C68.0402 75.7802 67.5401 76.3602 66.8301 76.3602C66.5301 76.3602 66.1901 76.2502 65.8301 76.0402C63.9201 72.6602 59.1001 68.3002 55.3501 65.9602L55.5801 65.5302L55.5901 65.5202Z" fill="white"/>
<path d="M84.5201 65.7301H78.0901V85.9201C78.0901 85.9201 77.8901 87.1101 75.4801 87.1101V54.6801L78.2902 56.0801H84.1802L85.2802 54.5301L88.2902 56.8301C88.0902 57.0801 87.6201 57.3701 87.0201 57.5101V66.6501C87.0201 66.7601 86.3201 67.5901 84.5101 67.5901V65.7201L84.5201 65.7301ZM84.5201 56.8701H78.0901V60.4301H84.5201V56.8701ZM78.0901 64.9001H84.5201V61.2301H78.0901V64.9001ZM98.6802 76.4501C98.4102 76.9501 98.0101 77.1701 97.1401 77.1701H93.5901V84.8701C93.5901 85.0101 92.8201 85.5501 91.5801 85.5501H91.2101V77.1601H86.8201C86.4901 80.1501 85.2802 83.4201 81.0302 85.6601L80.6602 85.1901C83.4102 82.7801 84.2401 79.9301 84.4801 77.1601H80.3301L80.1301 76.3301H84.5502C84.5802 75.8301 84.5801 75.3201 84.5801 74.8201V70.9301H81.0602L80.8601 70.1001H93.3501L94.8601 68.0501L97.6702 70.2101C97.4002 70.7101 97.0001 70.9301 96.1001 70.9301H93.5901V76.3301H94.5302L95.9701 74.2401L98.6802 76.4401V76.4501ZM86.9601 74.8301C86.9601 75.3301 86.9301 75.8401 86.8901 76.3401H91.2101V70.9401H86.9601V74.8301ZM101.12 54.3501L104.33 56.9101C104.1 57.2001 103.56 57.5201 102.89 57.6301V83.1501C102.89 85.3101 102.42 86.7901 99.3102 87.1101C99.3102 84.8801 98.5101 84.3701 96.3601 84.1601V83.6601H99.7101C100.11 83.6601 100.25 83.5201 100.25 83.1201V65.7301H93.5502V66.4501C93.5502 66.5201 93.1501 67.4201 90.9701 67.4201V54.7901L93.6802 56.0901H99.9102L101.12 54.3601V54.3501ZM100.25 56.8701H93.5502V60.4301H100.25V56.8701ZM93.5502 64.9001H100.25V61.2301H93.5502V64.9001Z" fill="white"/>
<path d="M121.25 58.6798L124.43 61.1598C124.2 61.4498 123.66 61.7398 122.99 61.9198V82.0098C122.99 82.0798 122.25 82.9498 120.41 82.9498V80.1098H114.12V83.2398C114.12 83.2398 113.85 84.3198 111.61 84.3198V59.0498L114.29 60.3498H115.13C115.53 58.5898 116.07 55.8498 116.4 53.8698L120.58 54.6998C120.48 55.2398 120.11 55.4598 119.24 55.4898C118.54 56.8898 117.36 58.9098 116.49 60.3498H120.07L121.24 58.6898L121.25 58.6798ZM120.41 61.1298H114.12V69.4398H120.41V61.1298ZM114.12 79.2698H120.41V70.2298H114.12V79.2698ZM138.32 58.5698L141.5 61.2698C141.23 61.5898 140.8 61.8098 140.06 61.8798C139.79 75.6998 139.32 83.7298 137.65 85.5298C136.58 86.6098 135.57 87.1098 133.4 87.1498C133.4 85.5298 133.17 84.6998 129.32 84.1298L129.35 83.5498C130.89 83.6198 133.17 83.6898 134.17 83.6898C134.84 83.6898 135.07 83.6198 135.44 83.2598C136.68 81.9298 137.11 73.7898 137.35 61.1998H129.15C127.71 64.8698 125.97 68.1098 123.96 70.4098L123.46 70.0898C125.44 66.3498 127.28 59.7998 128.25 53.5698L132.3 54.6498C132.17 55.1198 131.93 55.3298 131.06 55.3698C130.59 57.0998 130.06 58.7898 129.45 60.4098H136.98L138.32 58.5698ZM127.57 68.0398C132.32 69.9798 133.8 72.5798 133.8 74.3398C133.8 75.5298 133.16 76.3198 132.36 76.3198C131.99 76.3198 131.56 76.0998 131.15 75.6698C130.85 73.2598 129.04 70.1298 127.3 68.3298L127.57 68.0398Z" fill="white"/>
<path d="M158.05 60.3701L160.8 63.0001C160.57 63.3201 160.26 63.4701 159.56 63.5401C159.16 68.2901 158.46 72.8301 156.71 76.8601C159.15 78.5501 160.06 80.3901 160.06 81.6101C160.06 82.5101 159.59 83.1201 158.92 83.1201C158.65 83.1201 158.32 83.0101 157.98 82.8001C157.44 81.6501 156.57 80.4201 155.5 79.2701C153.69 82.3701 151.05 85.0601 147.13 87.1201L146.86 86.5101C150.21 84.1701 152.45 81.1801 153.96 77.7301C152.76 76.6501 151.45 75.6401 150.21 74.8901L149.77 76.9101C149.47 77.1601 148.97 77.3101 148.36 77.3101C147.96 77.3101 147.49 77.2401 146.99 77.0901C147.79 73.8901 148.93 68.1301 149.84 62.8701H146.83L146.6 62.0801H149.98C150.58 58.7301 151.05 55.6401 151.29 53.6201L155.14 54.0901C155.07 54.5601 154.8 54.8501 153.83 54.9501C153.56 56.6101 153.13 59.2001 152.62 62.0801H156.57L158.04 60.3901L158.05 60.3701ZM152.46 62.8501C151.79 66.6301 151.02 70.8101 150.35 74.1201C152.06 74.5901 153.53 75.1301 154.74 75.7001C156.05 71.8501 156.58 67.4601 156.88 62.8501H152.46ZM175.16 67.1701L178.24 69.6201C177.97 70.1201 177.57 70.3401 176.63 70.3401H169.6V82.9401C169.6 85.1701 169.13 86.7601 165.62 87.1501C165.62 84.8101 164.48 84.4901 161.97 84.1601V83.6201H166.22C166.76 83.6201 166.89 83.4401 166.89 82.9401V70.3401H159.29L159.09 69.5501H166.89V63.5701L169.13 63.7501C170.5 61.9101 172.08 59.2101 173.08 57.4101H160.46L160.23 56.6201H173.12L174.73 54.8901L177.51 57.7701C177.24 58.0601 176.84 58.0901 176.1 58.1301C174.56 59.6401 172.12 62.1301 169.97 63.8201L171.01 63.8901C170.94 64.3901 170.78 64.6501 169.6 64.7901V69.5401H173.52L175.16 67.1601V67.1701Z" fill="white"/>
<path d="M189.59 64.9801V77.1501C191.26 76.7501 193.11 76.3202 194.95 75.8502L195.05 76.3502C192.91 77.5702 189.76 79.3002 185.37 81.4602C185.24 81.9302 184.9 82.2502 184.57 82.3602L182.9 78.6201C183.8 78.4801 185.28 78.1501 187.02 77.7601V64.9801H183.2L183.03 64.1501H187.01V54.6501L191.13 55.0502C191.1 55.6302 190.66 55.8402 189.59 55.9902V64.1602H190.73L192.17 61.7502L194.92 64.2702C194.65 64.7702 194.22 64.9902 193.35 64.9902H189.6L189.59 64.9801ZM212.96 78.1201L212.89 83.2702C214.16 83.7402 214.36 83.8802 214.36 84.3502C214.36 85.6102 213.26 86.1501 209.41 86.1501H200.51C196.89 86.1501 195.89 85.3602 195.89 81.8302V69.3401L192.51 71.0302L192.01 70.4202L195.89 68.4801V57.1801L199.91 57.5802C199.84 58.1202 199.61 58.3402 198.5 58.5202V67.1902L202.65 65.1402V53.6602L206.6 54.0202C206.53 54.5602 206.23 54.8502 205.23 54.9602V63.8502L209.11 61.9102L210.25 59.6402L213.63 61.6602C213.4 62.0602 212.83 62.4502 212.09 62.6302V74.2202C212.09 76.0902 211.59 77.5302 208.57 77.7502C208.57 75.7302 208.5 75.3002 206.59 75.0502V74.6501H208.9C209.37 74.6501 209.5 74.5101 209.5 74.1501V62.5602L205.21 64.7202V78.2502C205.21 78.3202 204.77 79.2202 202.63 79.2202V65.9702L198.48 68.0602V81.9501C198.48 83.4301 198.71 83.6402 200.39 83.6402H209.5C210.17 83.6402 210.71 83.5702 211.04 83.0602C211.41 82.5602 211.94 80.6102 212.61 78.1302H212.95L212.96 78.1201Z" fill="white"/>
<path d="M247.34 58.0698L250.79 60.6998C250.52 61.1698 250.12 61.4198 249.18 61.4198H234.45C234.35 61.7798 234.05 61.9598 233.18 62.0698C233.08 64.1198 232.95 66.4598 232.58 68.9498H242.52L243.83 67.2598L246.94 69.8498C246.71 70.1398 246.27 70.3498 245.57 70.4298C245.2 78.3498 244.47 84.4698 242.86 85.8398C241.79 86.7398 240.68 87.0998 238.61 87.1398C238.68 85.4498 238.17 84.7998 233.96 84.2198V83.6098C235.7 83.7498 238.58 83.8598 239.58 83.8598C240.25 83.8598 240.55 83.8198 240.89 83.4998C241.93 82.4898 242.5 76.8098 242.87 69.7498H232.43C231.36 75.6198 228.51 82.0998 220.28 87.0998L219.81 86.5598C229.65 78.5998 230.12 68.8098 230.22 61.4398H219.88L219.68 60.6098H233.77V53.5498L238.02 53.9498C237.99 54.5298 237.62 54.7398 236.51 54.9198V60.6098H245.52L247.36 58.0898L247.34 58.0698Z" fill="white"/>
</svg>
