<svg width="139" height="16" viewBox="0 0 139 16" fill="none" xmlns="http://www.w3.org/2000/svg">
<path d="M2.71021 3.32037V6.95036C2.71021 9.59036 2.58022 13.0804 0.230225 15.5004L0.0102539 15.3604C1.35025 12.8704 1.4502 9.78037 1.4502 6.97037V2.37036L2.94019 2.96037H7.19019V0.630371L9.19019 0.810364C9.16019 1.05036 8.98021 1.16037 8.46021 1.24037V2.97037H12.5303L13.3604 1.88037L14.9102 3.01036C14.7802 3.23036 14.5901 3.33037 14.1301 3.33037H2.72021L2.71021 3.32037ZM14.9001 8.27037C14.7701 8.49037 14.5801 8.57037 14.1501 8.57037H11.1902V12.0404H12.3901L13.1401 11.0504L14.5503 12.0904C14.4103 12.3104 14.2303 12.4104 13.8003 12.4104H7.27026L7.17017 12.0404H9.98022V8.57037H7.65015L7.89014 8.78036C7.78014 8.92036 7.62027 8.97037 7.28027 9.00037C6.98027 10.3904 6.50018 11.6504 5.68018 12.7504C6.85018 13.6004 8.4602 13.7904 10.7002 13.7904C11.6602 13.7904 13.8601 13.7904 14.9001 13.7604V13.9804C14.4501 14.0604 14.2102 14.4804 14.2002 14.9904H10.6204C8.13036 14.9904 6.42021 14.6404 5.22021 13.3104C4.42021 14.1904 3.38023 14.9104 1.99023 15.4704L1.89014 15.2104C3.12014 14.5204 4.01015 13.6304 4.65015 12.5904C4.25015 11.9504 3.92013 11.1704 3.63013 10.1804L3.85034 10.0704C4.15034 10.9004 4.5202 11.5604 4.9502 12.0704C5.4602 11.0604 5.80023 9.95036 5.99023 8.73036H4.76025L4.50024 9.35037C4.36024 9.40037 4.20026 9.41037 4.02026 9.41037C3.81026 9.41037 3.57026 9.38036 3.27026 9.28036C3.81026 8.02036 4.42028 6.36037 4.79028 5.25037H2.92017L2.8103 4.90036H4.74023L5.36035 4.21037L6.72021 5.34036C6.59021 5.47036 6.34023 5.55037 5.99023 5.58037C5.73023 6.25037 5.32015 7.37037 4.90015 8.36037H5.87036L6.59033 7.64037L7.23022 8.20036H9.96021V5.61037C8.97021 5.75037 7.93021 5.88036 6.96021 5.95036L6.88013 5.68036C8.94013 5.27036 11.4502 4.47037 12.7302 3.83037L13.9902 4.98036C13.9102 5.04036 13.8002 5.08037 13.6702 5.08037C13.5302 5.08037 13.3702 5.05037 13.1702 4.97037C12.6102 5.11037 11.9202 5.27036 11.1702 5.42036V8.22037H12.7502L13.4902 7.23036L14.8801 8.27037H14.9001Z" fill="#D8B167"/>
<path d="M29.1602 0.950195L30.6802 2.07021C30.5702 2.21021 30.3102 2.3402 29.9902 2.4102V14.8602C29.9902 14.8602 29.6702 15.3102 28.7302 15.3102V14.4202H18.0903V14.9802C18.0903 14.9802 17.9904 15.5102 16.8604 15.5102V1.12019L18.2202 1.7402H28.5703L29.1602 0.9702V0.950195ZM18.0903 14.0502H28.7302V2.07021H18.0903V14.0502ZM26.9102 4.7002L28.2202 5.59019C28.0902 5.83019 27.9002 5.9102 27.4902 5.9102H18.7703L18.6702 5.54019H22.7903V4.2502H19.6702L19.5703 3.90019H22.7803V2.4902L24.5203 2.65019C24.5003 2.84019 24.3802 2.9202 23.9602 2.9902V3.90019H25.4602L26.1204 3.07021L27.3801 3.9502C27.2501 4.1702 27.0602 4.2502 26.6602 4.2502H23.9602V5.54019H26.2302L26.9001 4.6902L26.9102 4.7002ZM26.8103 9.2502L26.8403 9.2002L27.8901 10.1302C27.8401 10.1902 27.7802 10.2302 27.6802 10.2302C27.6002 10.2302 27.5001 10.2102 27.3801 10.1702C27.0301 10.3902 26.4502 10.7302 25.9702 10.9802C26.4002 11.1402 27.6802 11.6502 27.6802 12.4802C27.6802 12.7502 27.5203 12.9402 27.2803 12.9402C27.1403 12.9402 26.9603 12.8802 26.7703 12.7202C26.2603 12.0502 25.1402 11.1902 23.9602 10.7202V13.1502C23.9602 13.2502 23.5802 13.5302 22.9702 13.5302H22.7803V10.4802C21.7603 11.5002 20.4302 12.3502 18.9302 12.9702L18.7703 12.7002C20.2603 11.8202 21.5003 10.6202 22.3303 9.3302H21.0803V9.65019C21.0803 9.65019 20.8902 10.0302 19.9602 10.0302V6.48019L21.1602 7.01019H25.5403L25.9902 6.4202L27.3203 7.3302C27.2403 7.4302 27.0503 7.54021 26.8103 7.57021V9.2502ZM21.0903 8.98019H25.6802V7.37019H21.0903V8.98019ZM23.9702 9.3302V10.4602C24.5602 10.5602 25.1003 10.6802 25.6003 10.8402C25.8703 10.5402 26.1802 10.1402 26.4502 9.7502C26.1502 9.8802 25.9402 9.8802 25.6802 9.8802V9.32021H23.9702V9.3302Z" fill="#D8B167"/>
<path d="M38.6702 13.8604C42.9402 13.1704 44.5203 10.7304 44.5203 8.20041C44.5203 5.26041 43.2403 2.90041 39.7603 2.90041C39.4103 2.90041 38.7704 2.96041 38.3704 3.06041C38.8204 3.33041 39.1501 3.97041 39.1501 4.79041C39.1501 7.78041 37.0702 12.6004 34.6802 12.6004C33.4502 12.6004 32.5903 11.2604 32.5903 9.16042C32.5903 5.55042 35.5503 2.42041 39.8303 2.42041C43.7803 2.42041 45.9602 4.83041 45.9602 8.28041C45.9602 11.3504 44.0103 13.7604 38.7703 14.2104L38.6702 13.8604ZM37.9202 3.17041C35.5202 3.82041 33.7502 6.16041 33.7502 9.11041C33.7502 10.3104 34.1002 11.2004 34.7202 11.2004C36.4002 11.2004 38.2002 6.89041 38.2002 4.20041C38.2002 3.75041 38.0602 3.31042 37.9102 3.16042L37.9202 3.17041Z" fill="#D8B167"/>
<path d="M61.0403 5.79053L62.5103 6.83054C62.4003 7.04054 62.2103 7.15053 61.7603 7.15053H47.7703L47.6702 6.78053H54.4001V5.28053H51.2703V5.54053C51.2703 5.54053 51.0902 5.99054 49.9902 5.99054V0.930527L51.3801 1.52054H58.7002L59.2402 0.790527L60.8203 1.89053C60.7103 2.02053 60.4501 2.16053 60.1501 2.23053V5.49054C60.1501 5.49054 59.7504 5.86053 58.8604 5.86053V5.30054H56.3203C56.3003 5.51054 56.1402 5.60053 55.7002 5.68053V6.80054H60.2703L61.0503 5.81053L61.0403 5.79053ZM47.7302 14.9005C49.2602 14.1505 50.8604 12.8605 51.6104 11.7805L53.1802 12.6905C53.1202 12.8005 53.0203 12.8705 52.8403 12.8705C52.7803 12.8705 52.6803 12.8505 52.5803 12.8405C51.5603 13.7305 49.7004 14.6805 47.8704 15.1605L47.7302 14.9005ZM58.6401 11.1105H55.7202V13.8305C55.7202 14.7605 55.4801 15.3505 53.8801 15.4805C53.8801 14.5405 53.4503 14.3905 52.3003 14.2705V14.0805H54.1401C54.3501 14.0805 54.4102 14.0005 54.4102 13.8205V11.1205H51.5203V11.3405C51.5203 11.3405 51.3002 11.7905 50.2302 11.7905V7.80054L51.6204 8.39053H58.4902L59.0503 7.67053L60.6301 8.77054C60.5301 8.88054 60.2802 9.03053 59.9602 9.09053V11.2905C59.9602 11.2905 59.5601 11.6405 58.6501 11.6405V11.1105H58.6401ZM58.8503 1.86053H51.2603V3.20053H58.8503V1.86053ZM51.2603 3.55054V4.92053H58.8503V3.55054H51.2603ZM51.5203 10.7505H58.6401V8.72054H51.5203V10.7505ZM57.2202 12.1105C60.7802 12.4605 61.8901 13.7205 61.8901 14.5105C61.8901 14.8905 61.6303 15.1605 61.2703 15.1605C61.1603 15.1605 61.0301 15.1305 60.8901 15.0605C60.3601 14.3305 59.0001 13.1405 57.1501 12.3405L57.2302 12.1005L57.2202 12.1105Z" fill="#D8B167"/>
<path d="M78.1501 11.9905L78.1301 14.0805C78.5601 14.2405 78.6301 14.3005 78.6301 14.4605C78.6301 14.9105 78.2602 15.1805 77.2202 15.1805H76.1204C75.0204 15.1805 74.8303 14.9105 74.8303 13.7605V9.97054H72.6104V10.4205C72.6104 10.4205 72.5301 10.5305 72.4001 10.6105L74.2502 10.9305C74.2002 11.1405 74.0301 11.2205 73.6301 11.2205C73.2001 13.0305 72.0601 14.6505 69.1401 15.4905L69.0103 15.2205C69.7803 14.9205 70.3703 14.5205 70.8503 14.0505C70.7903 14.0705 70.7101 14.0705 70.6301 14.0705H66.0002V15.0905C66.0002 15.1905 65.6002 15.4905 64.9902 15.4905H64.7803V9.00053C64.4003 9.42053 64.0003 9.80053 63.5803 10.1205L63.3604 9.94054C64.2904 8.92054 65.1503 7.30053 65.8003 5.45053H63.6104L63.5103 5.10054H65.9202C66.1602 4.38054 66.3703 3.65054 66.5403 2.88054H65.6802C65.2702 3.65054 64.7702 4.33053 64.2402 4.81053L63.9802 4.68053C64.4602 3.72053 64.9101 2.09053 65.1301 0.540527L66.9202 1.02054C66.8702 1.21054 66.7401 1.31054 66.3801 1.32054C66.2201 1.74054 66.0403 2.13054 65.8503 2.52054H68.7703L69.5203 1.56053L70.9402 2.55054C70.8302 2.81054 70.6402 2.87053 70.2202 2.87053H67.1003L68.3003 3.22054C68.2403 3.41054 68.1202 3.51053 67.7102 3.51053C67.5302 4.05053 67.3401 4.58053 67.1301 5.09053H69.1401L69.8704 4.12053L71.2803 5.13054C71.1503 5.37054 70.9603 5.45053 70.5303 5.45053H66.9702C66.6302 6.18053 66.2704 6.89053 65.8704 7.53053L66.1602 7.64053H67.3103C67.4203 7.13053 67.5303 6.44053 67.5803 5.93053L69.3403 6.35054C69.3103 6.53054 69.1303 6.59053 68.7603 6.59053C68.5203 6.91053 68.1503 7.31053 67.8003 7.64053H69.2903L69.9102 6.84053L71.1401 7.69054C71.0101 7.91054 70.8202 7.99054 70.4102 7.99054H68.4402V9.62053H69.1902L69.7703 8.84053L70.8901 9.67053C70.7601 9.89053 70.5702 9.97054 70.1702 9.97054H68.4402V11.6205H69.1902L69.7703 10.8505L70.8901 11.6805C70.7601 11.8905 70.5702 11.9805 70.1702 11.9805H68.4402V13.7105H69.3704L70.0403 12.8205L71.1902 13.6505C71.8902 12.7705 72.2304 11.7305 72.3604 10.6305C72.0104 10.8205 71.7104 10.8205 71.3704 10.8205V1.20053L72.7803 1.78053H76.2502L76.8303 1.01053L78.3203 2.14053C78.2103 2.27053 78.0202 2.36054 77.6602 2.41054V10.3005C77.6602 10.3805 77.2004 10.6705 76.6104 10.6705H76.4001V9.97054C76.3201 10.0205 76.2103 10.0705 76.0203 10.0805V13.7705C76.0203 14.0372 76.1003 14.1705 76.2603 14.1705H77.1501C77.3301 14.1705 77.4102 14.1505 77.5002 13.9305C77.5802 13.7205 77.7902 12.8605 78.0002 11.9805H78.1401L78.1501 11.9905ZM67.3003 8.00053H65.9902V9.63054H67.3003V8.00053ZM67.3003 11.6305V9.98053H65.9902V11.6305H67.3003ZM65.9902 12.0005V13.7305H67.3003V12.0005H65.9902ZM76.4102 2.14053H72.6104V4.36053H76.4102V2.14053ZM76.4102 6.98053V4.71054H72.6104V6.98053H76.4102ZM72.6104 9.62053H76.4102V7.34053H72.6104V9.62053Z" fill="#D8B167"/>
<path d="M80.2202 5.73036C80.4802 6.40036 81.1802 6.61037 81.9902 6.61037C82.7302 6.61037 88.7803 6.03036 90.0603 5.92036C90.5203 5.89036 90.9202 5.76036 91.2302 5.42036C92.3202 5.72036 93.2603 6.07037 93.2603 6.63037C93.2603 6.92037 92.9103 7.00037 92.5403 7.00037C92.1103 7.00037 91.3903 6.87036 90.3003 6.81036C90.1403 6.81036 89.9603 6.79036 89.7903 6.79036C89.1003 6.79036 88.2602 6.84036 87.4602 6.90036C87.7202 7.06036 87.9402 7.32036 87.9402 7.48036C87.9402 7.83036 87.7201 7.80036 87.6401 8.20036C87.0001 11.0304 85.6904 13.3904 82.6104 14.9604L82.3403 14.6604C86.0103 12.0904 86.2703 7.87037 86.2703 7.61037C86.2703 7.34037 86.2204 7.15037 86.1104 7.00037C85.2804 7.10037 83.4703 7.29037 82.6003 7.50037C81.9903 7.64037 81.8501 7.88037 81.4001 7.88037C80.8901 7.88037 79.8801 6.97037 79.8801 6.35037C79.8801 6.11037 80.0102 5.79037 80.2002 5.71037L80.2302 5.73036H80.2202ZM82.1204 2.22037C82.6204 2.59037 83.1104 2.65036 83.8604 2.65036C84.3904 2.65036 85.4902 2.65036 87.4702 2.20036C87.8702 2.12036 88.2803 2.01036 88.5603 1.70036C89.4203 1.81036 90.3203 2.07037 90.3203 2.61037C90.3203 3.01037 89.4102 3.09036 88.7102 3.12036C87.3002 3.15036 85.1804 3.60037 84.1104 3.60037C83.0404 3.60037 82.1803 3.17037 82.0303 2.27037L82.1301 2.21037L82.1204 2.22037ZM90.5403 1.04036C91.7403 1.52036 92.6204 2.43037 92.6204 3.16037C92.6204 3.58037 92.4402 3.80037 92.2202 3.80037C92.0002 3.80037 91.7702 3.72037 91.6602 3.32037C91.4802 2.67037 91.0203 1.79036 90.3503 1.26036L90.5403 1.04036ZM92.3604 0.130371C93.3704 0.550371 94.4702 1.38037 94.4702 2.30037C94.4702 2.67037 94.2903 2.89037 94.0903 2.89037C93.8703 2.89037 93.6403 2.79037 93.5103 2.41037C93.3303 1.82037 92.8201 0.810372 92.1501 0.350372L92.3604 0.130371Z" fill="#D8B167"/>
<path d="M102.72 1.69037C102.72 1.45037 103.07 1.15036 103.41 1.15036C104.23 1.15036 105.41 1.76037 105.41 2.32037C105.41 2.50037 105.36 2.59037 105.3 2.74037C105.22 2.90037 105.19 3.04037 105.19 3.38037V5.15036C106.82 5.07036 107 4.91037 107.33 4.61037C108.45 4.83037 109.15 5.18036 109.15 5.73036C109.15 6.00036 108.89 6.08037 108.51 6.08037C108.22 6.08037 107.85 6.03036 107.5 5.98036C107.12 5.92036 105.95 5.90036 105.18 5.92036V7.53036C105.16 10.6904 103.98 13.4904 99.6501 15.0704L99.4602 14.7804C102.93 13.0104 104 10.1804 104 7.50037V5.97037C102.75 6.05037 101.16 6.24036 99.8801 6.43036C99.9001 7.23036 99.9302 7.96037 99.9602 8.38037C99.9802 8.92037 100.04 9.53037 100.04 10.0704C100.04 10.4204 99.8302 10.7404 99.4802 10.7404C99.0502 10.7404 98.7303 10.0404 98.5903 9.21037C98.8303 8.83037 98.8303 8.33036 98.8303 7.93036C98.8303 7.59036 98.8303 7.10036 98.8103 6.62036C98.2303 6.70036 97.5803 6.80036 97.2603 7.04036C97.1303 7.15036 96.9902 7.23036 96.7502 7.23036C96.0502 7.23036 95.1702 6.43037 95.1702 5.71037C95.1702 5.52037 95.2803 5.07037 95.5203 5.07037C95.8103 5.79037 96.1903 5.93036 97.0203 5.93036C97.3903 5.93036 97.7203 5.91037 98.7903 5.80037C98.7603 5.00037 98.7102 4.35037 98.6902 3.96037C98.6302 3.13037 98.6103 2.73036 97.5903 2.73036L97.5603 2.65036C97.6603 2.41036 97.9804 2.20036 98.3604 2.20036C98.9804 2.20036 100.05 2.63037 100.05 3.27037C100.05 3.46037 99.9502 3.65037 99.9102 3.83037C99.8802 3.99037 99.8503 4.36037 99.8503 4.64037C99.8503 4.98037 99.8504 5.28036 99.8704 5.68036C101.12 5.55036 102.94 5.33037 104.01 5.25037C104.01 4.63037 103.99 3.86036 103.96 3.29036C103.91 1.96036 103.7 1.71037 102.75 1.71037L102.73 1.69037H102.72ZM106.11 1.08037C107.37 1.62037 108.01 2.45037 108.01 3.16037C108.01 3.59037 107.74 3.81036 107.47 3.81036C107.25 3.81036 107.04 3.65037 106.99 3.30037C106.93 2.80037 106.53 1.88036 105.87 1.29036L106.11 1.08037ZM108.07 0.380371C109.27 0.910371 109.96 1.77037 109.96 2.49037C109.96 2.94037 109.7 3.13037 109.43 3.13037C109.21 3.13037 108.98 2.94037 108.93 2.60037C108.85 2.09037 108.48 1.21037 107.83 0.600372L108.07 0.380371Z" fill="#D8B167"/>
<path d="M110.34 10.2804C115.85 7.50041 121.01 3.16041 121.01 2.20041C121.01 1.86041 120.55 1.58041 120.1 1.59041C120.1 1.43041 120.47 1.17041 120.91 1.17041C121.79 1.17041 123.08 1.97041 123.08 2.72041C123.08 2.93041 122.87 2.98041 122.63 3.06041C122.42 3.14041 122.28 3.25042 122.12 3.41042C121.08 4.37042 119.31 5.73041 118.33 6.45041C118.67 6.64041 118.94 7.03041 118.94 7.25041C118.94 7.46041 118.86 7.55041 118.83 7.81041C118.78 8.18041 118.78 10.0504 118.78 10.6504C118.78 11.2904 118.8 11.9004 118.8 12.2304C118.82 12.7604 118.88 13.2204 118.88 13.6504C118.88 14.4204 118.59 14.8004 118.15 14.8004C117.71 14.8004 117.38 13.9404 117.21 12.9804C117.43 12.6304 117.63 12.3204 117.63 8.97041C117.63 8.22041 117.63 7.36042 117.42 7.07042C115.97 8.04042 113.54 9.43042 110.5 10.5704L110.34 10.2804Z" fill="#D8B167"/>
<path d="M125.74 2.71045C127.69 2.92045 130.34 3.84044 130.34 5.31044C130.34 5.74044 130.02 6.04044 129.59 6.04044C129.25 6.04044 128.89 5.66044 128.7 5.34044C128.22 4.62044 127.07 3.53044 125.63 3.01044L125.74 2.71045ZM138.2 3.89044C136.2 8.48044 132.7 11.4504 128.77 13.3804C128.02 13.7604 128.05 14.1604 127.68 14.1604C126.99 14.1604 125.76 13.0604 125.76 12.2004C125.76 11.9304 125.94 11.6204 126.18 11.4504C126.32 12.0304 126.79 12.4104 127.31 12.4104C128.54 12.4104 134.83 9.14044 137.84 3.69044L138.19 3.90044L138.2 3.89044Z" fill="#D8B167"/>
</svg>
