<?xml version="1.0" encoding="utf-8"?>
<!-- Generator: Adobe Illustrator 25.2.3, SVG Export Plug-In . SVG Version: 6.00 Build 0)  -->
<svg version="1.1" id="圖層_1" xmlns="http://www.w3.org/2000/svg" xmlns:xlink="http://www.w3.org/1999/xlink" x="0px" y="0px"
	 viewBox="0 0 200 50" style="enable-background:new 0 0 200 50;" xml:space="preserve">
<style type="text/css">
	.st0{fill:#00404B;}
</style>
<path class="st0" d="M1.6,19.4c-0.1-0.1-0.2-0.3-0.4-0.4c2.4-1.6,3.5-3.8,3.5-6.6c1.8,0.3,2.6,0.6,2.6,0.8c0,0.1-0.3,0.3-0.9,0.5
	c0,0.3-0.1,0.5-0.1,0.7c1.9,1.1,2.9,2.1,2.9,3c0,0.6-0.2,0.9-0.5,1.1c-0.1,0.1-0.3,0.1-0.6,0.1s-0.5-0.4-0.7-1.1
	c-0.4-1-0.8-1.9-1.3-2.6C5.6,16.8,4.1,18.2,1.6,19.4z M11,1c0.7,0.7,1.2,1.1,1.2,1.3c0,0.2-0.1,0.3-0.1,0.3h-1.6v4.8
	c0,0.8,0.1,1.7,0.1,2.8c0,0.3-0.3,0.4-1,0.4c-0.5,0-0.8-0.1-0.8-0.3c0-0.4,0.1-1.1,0.1-2.1C7.6,8.8,5.7,9.4,3.2,10
	c-0.1,0.6-0.2,0.8-0.4,0.8c-0.1,0-0.3-0.3-0.4-0.8C2.2,9.5,2,8.9,1.8,8.1c0.4,0.1,1,0.1,1.8,0.1V2.5C3,2.5,2.4,2.6,2.1,2.7
	C2,2.5,1.9,2.2,1.8,1.9C2.2,2,3,2,4.1,2h5.5c0.3-0.4,0.6-0.8,0.9-1.1c0.1-0.1,0.2-0.1,0.2-0.1S10.8,0.9,11,1z M2.7,12.1
	c0-0.1,0-0.2,0-0.3c6-0.6,10.6-1.4,13.7-2.4c1.3,0.9,2,1.4,2,1.6c0,0.1-0.1,0.2-0.3,0.2c-0.4,0-0.8-0.1-1.1-0.1
	c-1.3,0.3-3,0.5-5.2,0.7v4.7c0,0.8,0.1,1.8,0.1,3c0,0.3-0.4,0.4-1.1,0.5c-0.6,0-0.9-0.1-0.9-0.3c0-0.6,0.1-1.7,0.1-3.3V12
	C7.8,12.1,5.4,12.1,2.7,12.1z M8.8,4V2.6H5.3V4H8.8z M8.8,6V4.5H5.3V6H8.8z M8.8,7.7V6.5H5.3v1.6C6.8,8.1,8,7.9,8.8,7.7z M11.5,3.6
	c-0.1-0.3-0.2-0.6-0.3-0.9c0.7,0.1,1.6,0.2,2.8,0.2h2.8C17.4,2.3,17.8,2,18,2c0.3,0.1,0.6,0.4,1.1,0.8c0.4,0.3,0.6,0.6,0.6,0.7
	c0,0.2-0.2,0.3-0.4,0.4c-0.4,0.1-0.6,0.3-0.6,0.3c-0.5,1-1.2,1.9-2.1,2.6c1.1,0.5,2.3,0.8,3.6,1c0,0.1,0,0.3,0,0.4
	c-0.2,0-0.4,0.1-0.6,0.2c-0.2,0.1-0.4,0.4-0.5,0.8c-0.1,0.3-0.2,0.4-0.3,0.4c-0.9-0.2-1.9-0.7-3.2-1.7c-0.1,0-0.1-0.1-0.2-0.1
	c-1.1,0.7-2.3,1.3-3.7,1.8c0,0-0.1-0.1-0.2-0.2c1.2-0.7,2.2-1.4,3.1-2.3c-0.8-0.9-1.5-2.1-2-3.6C12.1,3.6,11.8,3.6,11.5,3.6z
	 M12.3,19.1c-0.1-0.1-0.3-0.3-0.4-0.4c1.9-1.6,2.8-3.8,2.8-6.5c1.9,0.3,2.9,0.6,2.9,0.8c0,0.1-0.3,0.3-1,0.5c0,0.4-0.1,0.8-0.2,1.1
	c2.1,1.1,3.2,2.1,3.2,3c0,0.6-0.2,1-0.5,1.1c-0.1,0.1-0.3,0.1-0.6,0.1c-0.3,0-0.6-0.4-0.8-1.1c-0.4-1.1-0.9-1.9-1.5-2.6
	C15.6,16.8,14.3,18.1,12.3,19.1z M16.9,3.5H14c-0.4,0-0.7,0-1,0c0.8,1.4,1.6,2.3,2.4,2.7C16.1,5.3,16.6,4.4,16.9,3.5z"/>
<path class="st0" d="M39.7,16.4c1,0.9,1.6,1.4,1.6,1.7c0,0.2-0.1,0.3-0.2,0.3H27.3c-2.5,0-4.1,0.1-4.7,0.2c-0.1-0.4-0.3-0.7-0.5-1.1
	c1,0.1,2.8,0.2,5.2,0.2h9.9c0.7-0.9,1.2-1.5,1.6-1.7c0.1,0,0.1,0,0.2,0C39.3,16.1,39.4,16.2,39.7,16.4z M38.2,2.2
	c1,0.9,1.6,1.4,1.6,1.7c0,0.2-0.1,0.3-0.2,0.3H28c-2.1,0-3.4,0.1-3.9,0.2C24,4,23.8,3.7,23.6,3.3c0.8,0.1,2.2,0.2,4.2,0.2h8.1
	c0.7-0.9,1.2-1.5,1.6-1.7c0.1,0,0.1,0,0.2,0C37.8,1.9,38,2,38.2,2.2z M36.7,8.7c1,0.8,1.4,1.3,1.4,1.6c0,0.2-0.1,0.3-0.2,0.3h-9.3
	c-1.7,0-2.8,0.1-3.2,0.3c-0.1-0.4-0.3-0.7-0.5-1.1c0.6,0.1,1.7,0.2,3.3,0.2h6.3c0.7-0.9,1.2-1.4,1.5-1.6c0.1,0,0.1,0,0.2,0
	C36.3,8.5,36.5,8.6,36.7,8.7z"/>
<path class="st0" d="M60.5,5.8c1,0.8,1.4,1.3,1.4,1.6c0,0.2-0.1,0.3-0.2,0.3h-7.6c0.8,3.9,2.8,6.7,5.8,8.5c0.9,0.6,1.7,0.9,2.3,1.1
	c0,0.2,0,0.3-0.1,0.4c-0.3,0.1-0.5,0.1-0.7,0.3c-0.2,0.2-0.4,0.5-0.6,0.9s-0.4,0.6-0.5,0.6c-0.2,0-0.5-0.2-1-0.6
	c-3.1-2.1-5-5.8-5.7-11.2h-0.4c-0.7,6.5-4,10.6-9.9,12.2c-0.1,0-0.1-0.1-0.2-0.2c4.5-2.4,7.2-6.4,7.9-12h-2.4
	c-2.4,0-3.9,0.1-4.5,0.2c-0.1-0.4-0.3-0.7-0.5-1.1c1,0.1,2.6,0.2,5,0.2H51c0.1-0.8,0.1-1.7,0.1-2.6c-0.1-1.6-0.2-2.8-0.3-3.5
	c2,0.3,3.1,0.5,3.1,0.7S53.7,2,53.3,2.1c0,1,0,1.9-0.1,2.9c0,0.7,0,1.4-0.1,2h5.1c0.7-0.9,1.2-1.4,1.5-1.6c0.1,0,0.1,0,0.2,0
	C60.1,5.6,60.3,5.7,60.5,5.8z"/>
<path class="st0" d="M81.7,1.6c1,0.9,1.6,1.4,1.6,1.7c0,0.2-0.1,0.3-0.2,0.3h-8.3c-0.6,1.5-1.4,2.8-2.4,3.8H78
	c0.6-0.8,1-1.3,1.2-1.3c0.2,0,0.5,0.2,0.9,0.5C80.7,7,81,7.3,81,7.5c0,0.1-0.1,0.3-0.4,0.4C80.2,8.2,80,8.3,80,8.4V15
	c0,2.3,0.1,3.8,0.1,4.6c0,0.4-0.5,0.7-1.4,0.7c-0.4,0-0.5-0.2-0.5-0.5v-1.3h-9.3v0.9c-0.1,0.5-0.5,0.7-1.2,0.7
	c-0.5,0-0.7-0.1-0.8-0.2c0-2.1,0-4.1,0.1-6.1v-4c0-1.7-0.1-2.7-0.2-3l2,0.8h2.9c0.3-1.1,0.5-2.4,0.7-3.8h-3.1
	c-2.5,0-4.1,0.1-4.7,0.3c-0.1-0.4-0.3-0.7-0.5-1.1c1,0.1,2.8,0.2,5.2,0.2h10c0.7-0.9,1.2-1.5,1.6-1.7c0.1,0,0.1,0,0.2,0
	C81.3,1.3,81.5,1.4,81.7,1.6z M78.2,12.3V7.8h-9.3v4.5H78.2z M78.2,17.9v-5h-9.3v5H78.2z"/>
<path class="st0" d="M85.9,6.7c-0.2-0.1-0.3-0.1-0.4-0.2c2.3-1.6,4-3.6,5.2-5.9c1.7,0.8,2.5,1.3,2.5,1.5S92.8,2.4,92,2.4
	c-0.4,0.4-0.8,0.8-1.3,1.2v2.2c0,0.5,0.1,1.1,0.1,1.8c0,0.3-0.4,0.5-1,0.5c-0.5,0-0.8,0-0.8-0.2c0-0.3,0-1.1,0-2.3V5
	C87.9,5.6,86.9,6.2,85.9,6.7z M94.2,17.9c0,0.2-0.2,0.3-0.5,0.3c-0.5,0-0.8,0-0.8,0c-1.6,0.9-3.9,1.6-6.9,1.9
	c-0.1-0.1-0.1-0.1-0.3-0.2c1.6-0.5,2.9-1.1,3.9-1.6c1-0.6,1.6-1.1,2-1.7C93.3,17.3,94.2,17.7,94.2,17.9z M90.3,9.2H99
	c0.6-0.7,1-1,1.2-1.1c0.2,0,0.6,0.3,1.2,0.7c0.5,0.4,0.8,0.7,0.8,0.9c0,0.1-0.1,0.3-0.4,0.4c-0.4,0.3-0.6,0.4-0.6,0.5v3.2
	c0.1,1.3,0.1,2.1,0.1,2.4c0,0.5-0.4,0.8-1.2,0.8c-0.6,0-0.9-0.1-0.9-0.4v-0.5h-8.8v0.2c-0.1,0.5-0.5,0.7-1.2,0.7
	c-0.5,0-0.7-0.1-0.8-0.2c0-1.3,0-2.6,0.1-3.9v-2.5c0-1.1-0.1-1.7-0.1-1.9L90.3,9.2z M99.3,11.2V9.8h-8.8v1.4H99.3z M99.3,13.4v-1.6
	h-8.8v1.6H99.3z M99.3,15.6v-1.7h-8.8v1.7H99.3z M97,1.6c0,0.2-0.4,0.4-1,0.7v1.6c2.3-0.6,4.1-1.6,5.5-2.9c0.2,0.1,0.6,0.4,1.2,0.8
	c0.5,0.4,0.8,0.6,0.8,0.7c0,0.1-0.1,0.2-0.2,0.2c-0.6-0.1-0.9-0.1-1-0.1c-1.3,0.8-3.4,1.3-6.2,1.6v1.2c0,0.5,0.3,0.8,0.9,0.8h3.9
	c0.7,0,1.1-0.3,1.4-0.7c0.2-0.3,0.4-1,0.7-2.2c0.2,0,0.3,0,0.3,0v2.2c0,0.2,0.1,0.3,0.4,0.4c0.3,0.2,0.4,0.4,0.4,0.5
	c0,0.6-0.6,0.9-1.6,1.1c-0.9,0.1-1.9,0.1-2.9,0.1c-2,0-3.2,0-3.7-0.1c-1,0-1.6-0.9-1.6-2.5V2.7c0-1,0-1.6-0.1-2
	C96,1.2,97,1.5,97,1.6z M102.4,19c0,0.2,0,0.4-0.1,0.6c-0.1,0.3-0.3,0.5-0.8,0.5c-0.3,0-0.8-0.3-1.4-0.9c-1.4-1-2.7-1.7-4-2.1
	c0-0.1,0.1-0.2,0.2-0.4C100.3,17.2,102.4,17.9,102.4,19z"/>
<path class="st0" d="M115,14.2l-0.4-0.4c0.8-0.7,1.2-1.3,1.2-2c0-0.1-0.1-0.2-0.3-0.2c-1-0.2-1.5-0.7-1.5-1.5c0-0.4,0.1-0.7,0.4-1
	c0.3-0.3,0.7-0.5,1.2-0.5s0.9,0.2,1.2,0.6c0.2,0.3,0.4,0.7,0.4,1.1C117.2,11.9,116.5,13.1,115,14.2z"/>
<path class="st0" d="M1.4,35.8c-0.1-0.3-0.3-0.6-0.4-1.1c0.3,0.1,1.4,0.2,3.2,0.3v-3c0-0.6-0.1-1.2-0.2-1.9c0.7,0.1,1.3,0.2,2.1,0.3
	c0.5,0.1,0.8,0.2,0.8,0.4c0,0.1-0.1,0.2-0.4,0.3C6.1,31.2,6,31.3,6,31.4V35h0.3c0.5-0.8,0.8-1.3,1-1.3c0.1,0,0.3,0.2,0.7,0.7
	c0.3,0.4,0.5,0.7,0.6,0.9c0,0.2-0.1,0.3-0.3,0.3H6v1.2c1.7,0.8,2.6,1.6,2.6,2.4c0,0.4-0.1,0.7-0.4,0.8c-0.2,0.1-0.4,0.2-0.6,0.2
	c-0.4,0-0.7-0.4-0.8-1.2c-0.2-0.7-0.5-1.3-0.9-1.7v6.9c0,2.2,0,3.7,0.1,4.7c0,0.3-0.4,0.5-1.3,0.5C4.2,49.4,4,49.3,4,49
	c0-0.8,0.1-2.4,0.1-4.9v-4.5c-0.9,2-1.8,3.5-2.9,4.6c-0.1,0-0.2-0.1-0.3-0.2c1.5-2.5,2.5-5.2,2.9-8.4C2.3,35.6,1.4,35.7,1.4,35.8z
	 M14,31.1c0,0.1-0.1,0.2-0.3,0.3c-0.4,0.2-0.7,0.3-0.7,0.4v6.9c0,5.6-1.8,9.1-5.5,10.5c-0.1-0.1-0.1-0.2-0.2-0.3
	c1.4-1.2,2.4-2.6,2.9-4.1c0.4-0.9,0.7-2.3,0.9-4.3c-0.5,0.6-1.1,1.2-1.7,1.8c0,0.1-0.1,0.4-0.1,0.9c0,0.1-0.1,0.2-0.2,0.2
	c-0.2,0-0.8-0.8-1.6-2.3c0.5,0,1.7-0.5,3.7-1.5c0-0.7,0.1-1.5,0.1-2.4v-4.8c0-0.9-0.1-1.6-0.2-2.2C13,30.6,14,30.9,14,31.1z
	 M10.8,36.7c0,0.7-0.3,1-0.8,1c-0.5,0-0.7-0.3-0.7-0.8c0-0.3-0.1-0.7-0.1-1.2c-0.1-0.5-0.2-1-0.4-1.6c-0.2-0.5-0.3-0.8-0.4-1
	c0.1-0.1,0.2-0.2,0.3-0.2C10,34.2,10.8,35.5,10.8,36.7z M17.1,31.2c0,0.1-0.1,0.2-0.3,0.3c-0.4,0.1-0.6,0.3-0.7,0.4v4.9
	c0.8-1.1,1.4-2.4,1.7-3.7c0.3,0.2,0.9,0.5,1.7,1c0.4,0.3,0.6,0.5,0.6,0.6s-0.1,0.2-0.3,0.2c-0.4,0-0.7,0.1-0.8,0.1
	c-0.4,0.5-0.8,1-1.3,1.4c-0.5,0.4-1,0.8-1.5,1v1.9c0.9,0.2,1.7,0.5,2.3,0.8c0.9,0.5,1.4,1,1.4,1.5s-0.1,0.8-0.2,0.9
	c-0.1,0.3-0.4,0.4-0.7,0.4c-0.2,0-0.5-0.4-0.9-1.1c-0.6-0.9-1.2-1.6-1.8-2v6.6c0,0.5,0.2,0.7,0.6,0.7h0.6c0.6,0,1-0.4,1.2-1.3
	c0.3-1,0.5-1.6,0.5-1.9c0.1,0,0.2,0,0.3,0c0,0,0,0.8,0,2.3c0,0.3,0.1,0.5,0.3,0.6c0.3,0.2,0.5,0.4,0.5,0.6c0,0.5-0.4,0.8-1.1,1
	c-0.4,0.1-0.9,0.2-1.6,0.2c-0.8,0-1.2,0-1.4-0.1c-1.2-0.1-1.8-0.8-1.8-2V32c0-0.6,0-1.2-0.1-1.8C16.1,30.7,17.1,31,17.1,31.2z"/>
<path class="st0" d="M39.8,30.7c0.6,0.4,0.9,0.7,0.9,0.9c0,0.1-0.1,0.3-0.3,0.4c-0.3,0.3-0.5,0.4-0.5,0.5v9.7c0,3.3,0.1,5.5,0.1,6.7
	c0,0.4-0.5,0.7-1.4,0.7c-0.4,0-0.5-0.2-0.5-0.5v-1.2h-13v0.9c-0.1,0.4-0.5,0.6-1.2,0.6c-0.4,0-0.7-0.1-0.8-0.2c0-2.9,0-5.8,0.1-8.6
	V35c0-2.4-0.1-3.8-0.1-4.3l2,0.8h12.6c0.6-0.8,1-1.2,1.2-1.2C39,30.2,39.4,30.4,39.8,30.7z M38,47.2V31.9H25.1v15.3H38z M36.2,33.6
	c0.4,0.4,0.7,0.7,0.7,0.8c0,0.2-0.1,0.3-0.2,0.3h-4.4v1.6H35c0.6-0.8,1-1.2,1.2-1.3c0.1,0,0.4,0.2,0.8,0.7c0.4,0.4,0.7,0.7,0.7,0.9
	s-0.1,0.3-0.2,0.3h-8.7c-2,0-3.1,0.1-3.1,0.2c-0.1-0.3-0.3-0.6-0.4-1.1c0.3,0.1,1.4,0.2,3.2,0.3h2v-1.6h-0.6c-2,0-3,0.1-3,0.2
	c-0.1-0.3-0.3-0.6-0.4-1.1c0.3,0.1,1.4,0.2,3.3,0.3h0.8c0-0.7-0.1-1.3-0.1-1.8c1.8,0.3,2.8,0.5,2.8,0.7s-0.1,0.3-0.3,0.3
	c-0.4,0.2-0.6,0.3-0.6,0.4v0.4h2c0.6-0.8,1-1.1,1.2-1.1C35.5,32.9,35.8,33.2,36.2,33.6z M25.7,45.9c-0.1-0.1-0.2-0.2-0.2-0.3
	c2.2-1.3,3.7-2.6,4.6-3.9c0-0.1,0.1-0.1,0.1-0.2h-1.4c-0.1,0.4-0.5,0.6-1.1,0.6c-0.4,0-0.6-0.1-0.7-0.2c0-0.7,0-1.4,0.1-2v-1.3
	c0-0.6-0.1-0.9-0.1-1l1.6,0.6h5.1c0.5-0.6,0.9-1,1-1c0.2,0,0.5,0.2,1,0.6s0.7,0.6,0.7,0.8c0,0.1-0.1,0.3-0.3,0.4
	c-0.3,0.2-0.4,0.4-0.4,0.4v1.1c0.1,0.4,0.1,0.7,0.1,0.8c0.3,0.2,0.7,0.4,1.2,0.7c0.3,0.2,0.5,0.4,0.5,0.5c0,0.1-0.1,0.1-0.3,0.1
	c-0.3,0-0.5,0.1-0.7,0.1c-0.3,0.2-0.6,0.4-1,0.6c-0.2,0.1-0.3,0.2-0.5,0.2c1.1,0.5,1.7,1.1,1.7,1.8c0,0.3-0.1,0.5-0.2,0.6
	c-0.1,0.3-0.3,0.4-0.7,0.4c-0.3,0-0.7-0.5-1.3-1.4c-0.6-0.7-1.4-1.3-2.4-1.9v2.4c0,0.3,0,0.6,0,0.8c0,0.4-0.4,0.5-1.1,0.5
	c-0.5,0-0.8-0.1-0.8-0.3v-3.1C29.3,44.3,27.7,45.2,25.7,45.9z M34.1,41v-2.3h-5.2V41H34.1z M35.5,41.8c-0.2,0.1-0.4,0.1-0.6,0.1
	c-0.5,0-0.8-0.1-0.8-0.3h-1.6v1c0.8,0.2,1.6,0.4,2.1,0.6C35,42.7,35.2,42.2,35.5,41.8z"/>
<path class="st0" d="M45.1,47.5c-0.1,0.6-0.3,0.9-0.4,0.9s-0.3-0.3-0.5-0.8s-0.4-1.2-0.6-2c0.4,0.1,1,0.1,1.8,0.1v-7
	c-0.8,0-1.4,0.1-1.7,0.2c-0.1-0.4-0.3-0.7-0.5-1.1c1,0.1,2.9,0.2,5.4,0.2H59c0.5-0.6,0.9-1,1.2-1.2h0.1c0.1,0.1,0.3,0.2,0.4,0.3
	c0.7,0.6,1.1,1,1.1,1.2c0,0.2-0.1,0.3-0.2,0.3H52v7.2c0,0.8,0.1,1.8,0.1,3c0,0.3-0.4,0.4-1.1,0.5c-0.6,0-0.9-0.1-0.9-0.3
	c0-0.6,0.1-1.6,0.1-3.1C49,46.4,47.3,47,45.1,47.5z M48,31.1h8.6c0.5-0.6,0.9-0.9,1.1-0.9s0.6,0.2,1.1,0.6s0.8,0.7,0.8,0.8
	c0,0.1-0.1,0.3-0.3,0.4c-0.4,0.2-0.6,0.4-0.6,0.5v2.3c0.1,0.9,0.1,1.4,0.1,1.7c0,0.5-0.4,0.7-1.1,0.7c-0.5,0-0.8-0.1-0.9-0.4v-0.4
	h-8.5v0.3c-0.1,0.4-0.5,0.6-1.2,0.6c-0.4,0-0.7-0.1-0.8-0.2c0-1,0-2.1,0.1-3.1v-2c0-0.8-0.1-1.4-0.2-1.5L48,31.1z M47.3,38.6v1.7
	h2.9v-1.7H47.3z M47.3,40.9v1.9h2.9v-1.9H47.3z M47.3,43.3v2.2c1.2-0.1,2.1-0.2,2.9-0.3v-1.9H47.3z M56.8,33.3v-1.7h-8.5v1.7H56.8z
	 M56.8,35.8v-2h-8.5v2H56.8z M60.4,39.8c0.6,0.5,0.9,0.8,0.9,1c0,0.1-0.1,0.2-0.3,0.3c-0.5,0.1-0.7,0.2-0.7,0.4
	c-0.7,1.4-1.5,2.7-2.5,3.8c0.6,0.5,1.3,0.8,2,1.2c0.8,0.4,1.6,0.7,2.1,0.7c0,0.1,0,0.3-0.1,0.4c-0.3,0-0.5,0.1-0.6,0.2
	c-0.2,0.2-0.4,0.5-0.6,0.9c-0.2,0.3-0.4,0.5-0.5,0.5c-0.2,0-0.5-0.1-0.9-0.4c-1-0.6-2-1.3-2.7-2.2c-1.1,0.9-2.3,1.7-3.7,2.4
	c-0.1-0.1-0.1-0.2-0.2-0.3c1.1-0.8,2.2-1.8,3.1-3.1c-0.9-1.3-1.4-3-1.8-4.9c-0.6,0-1,0.1-1.3,0.1c-0.2-0.5-0.3-0.8-0.4-1
	c0.8,0.2,1.7,0.3,2.9,0.3h3c0.7-0.7,1-1,1.2-1C59.6,39.1,59.9,39.3,60.4,39.8z M56.7,44.3c0.8-1.2,1.4-2.5,1.7-3.7h-3.3
	c-0.2,0-0.4,0-0.6,0C55,42.1,55.7,43.3,56.7,44.3z"/>
<path class="st0" d="M65.7,35.5c-0.4,0-0.8,0-1.2,0.1c-0.2-0.3-0.4-0.7-0.5-1c0.4,0.2,0.8,0.3,1.3,0.3h2.1v-3c0-0.6-0.1-1.2-0.2-1.9
	c0.7,0.1,1.3,0.2,2.1,0.3c0.5,0.1,0.8,0.2,0.8,0.4c0,0.1-0.1,0.2-0.4,0.3c-0.4,0.1-0.5,0.2-0.5,0.3v3.5h0.4c0.5-0.7,0.9-1,1-1.1
	c0.1,0,0.1,0,0.1,0c0.1,0,0.4,0.3,1,0.9c0.3,0.3,0.4,0.5,0.4,0.6c0,0.2-0.1,0.3-0.3,0.3h-2.6v1.9c1.8,0.9,2.7,1.8,2.7,2.7
	c0,0.4-0.1,0.7-0.3,0.8c-0.2,0.1-0.4,0.2-0.6,0.2c-0.4,0-0.7-0.4-0.9-1.3c-0.2-0.8-0.5-1.4-0.9-2v6.3c0,2.2,0,3.7,0.1,4.7
	c0,0.3-0.4,0.5-1.3,0.5c-0.4,0-0.7-0.1-0.7-0.4c0-0.8,0.1-2.4,0.1-4.9v-4.3c-0.9,1.9-1.9,3.4-3,4.4c-0.1,0-0.2-0.1-0.3-0.2
	c1.6-2.5,2.6-5.3,3.1-8.5L65.7,35.5L65.7,35.5z M70.7,49.3c-0.1-0.1-0.1-0.2-0.2-0.3c4.5-2.4,7.8-5.4,9.7-8.8
	c1.9,0.9,2.8,1.4,2.8,1.7c0,0.1-0.1,0.2-0.2,0.2c-0.1,0.1-0.3,0.1-0.5,0.1c-0.4,0-0.6,0-0.8,0c-0.8,1-1.7,1.9-2.7,2.7
	c2.6,1.1,4,2.1,4,3c0,0.6-0.2,1-0.5,1.1c-0.1,0.1-0.3,0.1-0.6,0.1c-0.4,0-0.8-0.4-1-1.1c-0.6-1.2-1.4-2.1-2.2-2.8
	C76.4,46.8,73.8,48.2,70.7,49.3z M74.9,34.2c-1.5,0-2.4,0.1-2.8,0.2c-0.1-0.4-0.3-0.7-0.5-1.1c0.5,0.1,1.5,0.2,2.9,0.2H80
	c0.6-0.7,1-1.1,1.3-1.3c0,0,0.1,0,0.2,0c0.1,0.1,0.3,0.2,0.5,0.3c0.8,0.7,1.2,1.1,1.2,1.3s-0.1,0.3-0.2,0.3h-5.1
	c-0.8,1.4-2,2.7-3.3,3.8c1.1,0.1,2.3,0.1,3.5,0.1c0.4-0.7,0.8-1.4,1.1-2.1c1.7,0.8,2.6,1.3,2.6,1.6c0,0.1-0.1,0.1-0.2,0.2
	c-0.1,0-0.3,0.1-0.5,0.1c-0.3,0-0.6,0-0.7,0c-2,3.1-5.1,5.6-9.2,7.3C71.1,45,71.1,45,71,44.9c2.8-1.8,5-3.9,6.6-6.2
	c-1,0.4-2.5,0.8-4.3,1.2c-0.1,0.3-0.2,0.5-0.2,0.6s-0.1,0.1-0.2,0.1s-0.4-0.9-0.8-2.7c0.5,0.1,1.1,0.1,1.7,0.1
	c0.8-1.1,1.3-2.4,1.7-3.7L74.9,34.2L74.9,34.2z M78.2,32.1c0,0.3,0,0.5-0.1,0.7c-0.1,0.4-0.4,0.6-0.8,0.6c-0.3,0-0.6-0.4-1.1-1.2
	c-0.5-0.8-1-1.4-1.6-1.9c0.1,0,0.1-0.1,0.1-0.3C76.9,30.3,78.1,31,78.2,32.1z"/>
<path class="st0" d="M88.6,37.6c0.1,0.7,0.2,1.3,0.3,2.1c0,3.3-0.9,5-2.8,5.1c-0.8,0-1.2-0.3-1.2-0.8c0-0.3,0-0.6,0.1-0.7
	c0.1-0.2,0.5-0.7,1.4-1.4c1-0.9,1.6-2.3,1.8-4.2C88.5,37.6,88.6,37.6,88.6,37.6z M94.1,35.4c0,0.3-0.4,0.5-1.2,0.8v9.4
	c0,0.7,0.4,1,1.1,1.1h2.9c0.8,0,1.4-0.4,1.7-1.1c0.2-0.5,0.5-1.6,0.8-3.3c0.3,0,0.4,0,0.4,0v3.2c0,0.3,0.2,0.5,0.6,0.6
	c0.4,0.3,0.7,0.5,0.7,0.8c0,0.7-0.7,1.2-2,1.4c-0.9,0.1-1.8,0.2-2.7,0.2c-1.9,0-3.1,0-3.6-0.1c-1.2-0.1-1.8-1.1-1.8-3.1V37
	c0-1.1-0.1-1.9-0.2-2.3C93,34.9,94.1,35.1,94.1,35.4z M97.9,33.3c0,0.6-0.1,1-0.3,1.3c-0.2,0.2-0.4,0.3-0.7,0.3
	c-0.5,0-1-0.5-1.5-1.5c-0.8-1.1-1.8-2.2-3.3-3.1c0-0.1,0.1-0.2,0.1-0.3C95.9,31,97.7,32,97.9,33.3z M104.2,42.3c0,0.6-0.1,1-0.3,1.3
	c-0.2,0.3-0.5,0.4-0.9,0.4c-0.6,0-0.9-0.6-1.1-1.8c-0.5-2.2-1.2-3.8-2.2-5L100,37C102.7,38.9,104.1,40.7,104.2,42.3z"/>
<path class="st0" d="M123.8,31.5c0.9,0.8,1.3,1.2,1.3,1.4s-0.1,0.3-0.2,0.3h-6c1.3,0.5,1.9,0.9,1.9,1c0,0.2-0.4,0.3-1.2,0.3
	c-0.4,0.7-1,1.3-1.8,1.8h3.8c0.6-0.6,1-0.9,1.1-0.9c0.2,0.1,0.5,0.2,0.9,0.5c0.6,0.4,0.9,0.7,0.9,0.9c0,0.2-0.1,0.3-0.3,0.4
	c-0.2,0.1-0.3,0.2-0.5,0.4v9.1c0,1.3-0.7,2.1-2,2.4c-0.3-0.1-0.5-0.2-0.5-0.4c-0.1-0.5-0.3-0.8-0.6-1c-0.3-0.3-0.8-0.5-1.4-0.7
	c0-0.1,0-0.2,0-0.3c0.8,0.1,1.5,0.2,2,0.2s0.7-0.1,0.7-0.4V37H118v1.8c0,0.3,0.1,0.4,0.3,0.4c1.1,0,1.8-0.1,2.1-0.4
	c0-0.1,0.1-0.1,0.1-0.1c0.3,0.1,0.5,0.3,0.7,0.6c0.1,0.2,0.2,0.4,0.2,0.6c0,0.5-0.8,0.7-2.5,0.7c-0.8,0-1.3,0-1.6-0.1
	c-0.6-0.1-0.9-0.5-0.9-1.3V37h-2.1c-0.1,0.8-0.2,1.3-0.4,1.6c-0.6,1.5-1.9,2.5-3.9,2.9c0,0-0.1-0.1-0.2-0.3c1.2-0.6,2-1.6,2.4-2.9
	c0.1-0.5,0.2-0.9,0.2-1.3h-3.2v11.7c-0.1,0.4-0.5,0.6-1.1,0.6c-0.4,0-0.7-0.1-0.8-0.2c0-2.1,0-4.2,0.1-6.2v-4.1
	c0-1.7-0.1-2.8-0.2-3.1l1.7,0.7h3.7c-0.2-0.2-0.4-0.6-0.6-1.1c-0.4-0.8-0.8-1.5-1.2-2.1c0,0,0,0,0.1-0.1c-2.4,0-4,0.1-4.6,0.2
	c-0.1-0.4-0.3-0.7-0.5-1.1c1,0.1,2.8,0.2,5.4,0.2h10.3c0.6-0.8,1.1-1.3,1.4-1.4h0.2C123.4,31.3,123.6,31.4,123.8,31.5z M113.3,42h4
	c0.5-0.6,0.8-0.9,1-0.9c0.2,0,0.5,0.2,1,0.6c0.5,0.4,0.7,0.6,0.7,0.8c0,0.1-0.1,0.2-0.3,0.3c-0.3,0.2-0.5,0.4-0.5,0.5v1.6
	c0.1,0.7,0.1,1.1,0.1,1.2c0,0.4-0.3,0.7-1,0.7c-0.5,0-0.8-0.1-0.8-0.4V46h-4.2v0.7c-0.1,0.4-0.4,0.6-1,0.6c-0.4,0-0.6-0.1-0.7-0.2
	c0-0.9,0-1.8,0.1-2.7v-1.8c0-0.8-0.1-1.2-0.1-1.3L113.3,42z M117,36.5c0.6-1.1,0.9-2.1,1.1-3.2h-6c1.3,0.4,1.9,1.1,2,2.1
	c0,0.3,0,0.5-0.1,0.7s-0.2,0.3-0.3,0.4H117z M116.5,31.6c0,0.5-0.2,0.8-0.5,0.9c-0.1,0-0.3,0.1-0.4,0.1c-0.2,0-0.5-0.2-0.9-0.6
	c-0.6-0.7-1.3-1.2-2-1.5c0-0.1,0-0.2,0.1-0.3c0.1,0,0.7,0,1.5,0C115.8,30.2,116.5,30.7,116.5,31.6z M117.6,45.5v-3h-4.2v3H117.6z"/>
<path class="st0" d="M145.2,30.6c0.6,0.4,0.9,0.7,0.9,0.9c0,0.1-0.1,0.3-0.3,0.4c-0.4,0.3-0.5,0.4-0.6,0.5v9.7
	c0,3.3,0.1,5.5,0.1,6.7c0,0.4-0.5,0.7-1.4,0.7c-0.4,0-0.6-0.2-0.6-0.5v-0.8h-13.5v0.6c-0.1,0.4-0.5,0.6-1.2,0.6
	c-0.4,0-0.7-0.1-0.8-0.2c0-3,0-5.9,0.1-8.7v-5.7c0-2.4-0.1-3.9-0.2-4.3l1.8,0.7h13.4c0.6-0.7,1-1,1.2-1
	C144.4,30.1,144.8,30.3,145.2,30.6z M143.3,47.5V31.6h-13.5v15.9H143.3z M142,37.2c0.7,0.6,1.1,1,1.1,1.2s-0.1,0.3-0.2,0.3h-4.2
	c0.6,0.7,1.2,1.2,1.9,1.5c0.7,0.4,1.6,0.6,2.6,0.6c0,0.1,0,0.3-0.1,0.3c-0.1,0-0.3,0.1-0.4,0.3c-0.1,0.1-0.2,0.4-0.4,0.7
	c-0.1,0.3-0.2,0.4-0.4,0.4c-0.4,0-1-0.4-1.9-1.2c-0.1,0-0.1-0.1-0.2-0.2c0,0.1-0.1,0.1-0.1,0.1c-0.1,1.9-1,2.9-2.5,2.9
	c-0.1,0-0.3-0.2-0.3-0.5c-0.1-0.2-0.3-0.4-0.6-0.7c-0.4-0.2-0.7-0.3-0.9-0.4c0-0.1,0.1-0.2,0.1-0.3c0.5,0.1,1,0.2,1.5,0.2
	c0.3,0,0.6-0.1,0.7-0.3c0.2-0.3,0.4-0.7,0.4-1.4h-3.3V44c0,0.8,0.5,1.1,1.5,1.1c0.4,0,0.9,0.1,1.2,0.1s0.7,0,1-0.1
	c0.8,0,1.3-0.2,1.5-0.7c0.3-0.7,0.5-1.2,0.5-1.6c0.1,0,0.2,0,0.3,0c0,0.6,0,1.1,0,1.6c0,0.2,0.2,0.3,0.6,0.4
	c0.3,0.1,0.4,0.3,0.4,0.5c-0.2,0.6-1,1-2.3,1.1c-0.4,0.1-1.1,0.1-1.9,0.1c-1,0-1.5,0-1.6,0c-2,0-3-0.7-3.1-2.1v-3.3
	c-0.8,0.6-1.8,1.1-2.8,1.5c0,0,0-0.1-0.1-0.2c1.4-1.1,2.6-2.4,3.5-3.7c-1.6,0-2.6,0.1-3,0.2c-0.1-0.4-0.3-0.7-0.5-1.1
	c0.7,0.1,1.8,0.2,3.5,0.2h0.4c0.3-0.5,0.5-1,0.7-1.5H134c-1.4,0-2.3,0.1-2.6,0.3c-0.1-0.4-0.3-0.7-0.5-1.1c0.5,0.1,1.5,0.2,2.9,0.2
	h1.1c0.4-1.3,0.7-2.6,0.7-4.1c1.5,0.3,2.3,0.5,2.3,0.6c0,0.1,0,0.1-0.1,0.1c-0.2,0.1-0.4,0.1-0.4,0.2c-0.2,1.2-0.4,2.2-0.7,3.1h2.6
	c0.5-0.6,0.8-0.9,1-1h0.1c0.1,0.1,0.3,0.1,0.4,0.3c0.7,0.6,1,0.9,1,1.1c0,0.2-0.1,0.3-0.2,0.3h-5.2c-0.2,0.5-0.5,1-0.7,1.5h4.6
	c0.5-0.6,0.9-1,1.2-1.2h0.1C141.7,37,141.8,37.1,142,37.2z M133.2,33c0.7,0.4,1.1,0.8,1.1,1.3s-0.1,0.8-0.4,0.9
	c-0.1,0.1-0.4,0.2-0.7,0.2s-0.5-0.3-0.6-0.8c-0.1-0.5-0.3-0.8-0.4-1.1c-0.1-0.3-0.4-0.5-0.6-0.8c0-0.1,0.1-0.1,0.2-0.2
	C132.3,32.6,132.8,32.8,133.2,33z M134.3,40.1l0.4,0.2h3.1c0.3-0.4,0.6-0.6,0.7-0.6c-0.2-0.3-0.3-0.6-0.4-0.9h-2.9
	C135,39.2,134.6,39.7,134.3,40.1z M141.1,33.3c0,0.2-0.3,0.3-1,0.3c-0.5,0.7-1.2,1.3-2.1,1.8c-0.1,0-0.2,0-0.3-0.1
	c0.7-1,1.1-2,1.3-3C140.4,32.8,141.1,33.2,141.1,33.3z"/>
</svg>
