<svg width="107" height="93" viewBox="0 0 107 93" fill="none" xmlns="http://www.w3.org/2000/svg">
<path d="M3.8302 41.3203C3.3702 42.2003 2.89016 42.9303 2.41016 43.4803C2.55016 43.4903 2.68019 43.4903 2.76019 43.4903C3.84019 43.4903 4.92018 43.4003 6.00018 43.2303C5.73018 42.8703 5.44016 42.5103 5.10016 42.1303L5.61017 41.6503C6.29017 42.4103 6.8602 43.1603 7.3302 43.9103L6.79016 44.4503C6.67016 44.2503 6.54016 44.0403 6.41016 43.8403C4.98016 44.0603 3.23016 44.1703 1.16016 44.1703L1.0202 43.3803C1.2702 43.4103 1.49019 43.4203 1.69019 43.4403C2.15019 42.8703 2.6402 42.0803 3.1402 41.0703L3.81018 41.3203H3.8302ZM6.7702 47.7603H6.06018V47.3103H2.22015V47.7403H1.51019V44.6903H6.7702V47.7603ZM6.06018 46.6903V45.3103H2.22015V46.6903H6.06018Z" fill="#3E3A39"/>
<path d="M11.2402 41.1704V46.2004C11.4602 46.1304 11.6702 46.0504 11.8902 45.9704V46.6504C10.9602 47.0004 9.86017 47.3304 8.61017 47.6704L8.44019 46.8704C9.16019 46.7604 9.86018 46.6104 10.5602 46.4104V44.0504H8.5802V43.3704H10.5602V41.1604H11.2302L11.2402 41.1704ZM12.9402 41.1704V43.5904C13.6202 43.3004 14.2002 42.9804 14.6602 42.6104L15.0902 43.2204C14.4702 43.6604 13.7502 44.0304 12.9402 44.3304V46.5004C12.9402 46.6204 12.9702 46.7004 13.0302 46.7704C13.0902 46.8304 13.1702 46.8604 13.2802 46.8604H14.0402C14.1302 46.8604 14.2102 46.8304 14.2602 46.7704C14.3202 46.7104 14.3902 46.2604 14.4702 45.4204L15.1402 45.6404C15.0502 46.5704 14.9602 47.1004 14.8402 47.2504C14.6902 47.4204 14.4802 47.5104 14.2002 47.5104H13.0702C12.8102 47.5104 12.6102 47.4404 12.4902 47.3204C12.3102 47.1304 12.2202 46.9104 12.2202 46.6304V41.1504H12.9302L12.9402 41.1704Z" fill="#3E3A39"/>
<path d="M16.6402 43.3704V42.8004C17.1802 42.7504 17.5502 42.6604 17.7702 42.5404C17.9802 42.4204 18.1402 42.1304 18.2502 41.6704H18.8402V47.5804H18.0402V43.3804H16.6402V43.3704Z" fill="#3E3A39"/>
<path d="M24.3402 42.5901C24.6102 43.0801 24.7402 43.7501 24.7402 44.6001C24.7402 45.4101 24.6202 46.0701 24.3802 46.6001C24.0302 47.3601 23.4602 47.7401 22.6702 47.7401C21.9602 47.7401 21.4302 47.4301 21.0802 46.8101C20.7902 46.2901 20.6402 45.6001 20.6402 44.7301C20.6402 44.0601 20.7302 43.4801 20.9002 42.9901C21.2302 42.0901 21.8202 41.6401 22.6702 41.6401C23.4402 41.6401 23.9902 41.9601 24.3402 42.5901ZM23.5902 46.5501C23.8202 46.2101 23.9302 45.5701 23.9302 44.6301C23.9302 43.9601 23.8502 43.4001 23.6802 42.9701C23.5102 42.5301 23.1902 42.3201 22.7102 42.3201C22.2702 42.3201 21.9502 42.5301 21.7402 42.9401C21.5402 43.3501 21.4302 43.9601 21.4302 44.7701C21.4302 45.3801 21.5002 45.8601 21.6302 46.2301C21.8302 46.7901 22.1702 47.0701 22.6502 47.0701C23.0402 47.0701 23.3502 46.9001 23.5802 46.5601L23.5902 46.5501Z" fill="#3E3A39"/>
<path d="M25.9102 43.3704V42.8004C26.4502 42.7504 26.8202 42.6604 27.0402 42.5404C27.2502 42.4204 27.4102 42.1304 27.5202 41.6704H28.1102V47.5804H27.3102V43.3804H25.9102V43.3704Z" fill="#3E3A39"/>
<path d="M31.0602 45.9503C31.0202 46.6403 30.9302 47.2303 30.8102 47.7103L30.1902 47.5103C30.3602 47.0103 30.4702 46.4803 30.5302 45.9003L31.0702 45.9503H31.0602ZM32.1302 41.2903C31.8802 41.9303 31.6202 42.5003 31.3302 43.0103C31.5502 43.0003 31.7802 42.9703 32.0002 42.9303C32.1602 42.6303 32.3102 42.2903 32.4702 41.9403L33.0602 42.1603C32.5202 43.3103 31.9702 44.2503 31.4102 44.9703C31.7902 44.9403 32.1202 44.8803 32.3902 44.8103C32.3202 44.5603 32.2502 44.3104 32.1802 44.0804L32.6902 43.9103C32.8602 44.3703 33.0102 44.8903 33.1402 45.4703L32.5802 45.6104C32.5602 45.5204 32.5402 45.4204 32.5202 45.3304C32.0102 45.4604 31.3302 45.5603 30.4602 45.6303L30.2902 45.0203C30.4402 45.0203 30.5902 45.0203 30.7302 45.0203C31.0502 44.6203 31.3702 44.1103 31.7002 43.5003C31.2902 43.5603 30.8402 43.6303 30.3502 43.7003L30.2102 43.1104C30.3502 43.1104 30.4802 43.1004 30.6302 43.0804C30.9602 42.4904 31.2502 41.8304 31.5102 41.1104L32.1302 41.3103V41.2903ZM32.0502 47.3904L31.4602 47.4403C31.4502 46.8003 31.4002 46.3003 31.3402 45.9403L31.8502 45.8904C31.9502 46.2604 32.0202 46.7604 32.0502 47.3904ZM33.0902 47.0503L32.5302 47.2503C32.4402 46.7703 32.3302 46.2903 32.2202 45.8103L32.7002 45.6903C32.8702 46.1903 33.0002 46.6403 33.0902 47.0503ZM34.6702 41.9703V41.0903H35.3502V41.9703H36.8802V42.5903H35.3502V43.5403H36.6402V44.1303H33.3302V43.5403H34.6602V42.5903H33.1002V41.9703H34.6602H34.6702ZM36.6202 47.7303H36.0102V47.3904H34.0902V47.7303H33.4702V44.7903H36.6302V47.7303H36.6202ZM36.0102 46.8003V45.3803H34.0902V46.8003H36.0102Z" fill="#3E3A39"/>
<path d="M38.7502 42.4701V41.0901H39.3702V42.4701H40.0202V43.0601H39.3702V43.2701C39.6202 43.58 39.8502 43.9101 40.1002 44.2801L39.7402 44.8401C39.6002 44.5501 39.4702 44.3001 39.3702 44.0901V47.7201H38.7502V44.3901C38.5802 44.8701 38.3802 45.2901 38.1602 45.6601L37.8802 44.9001C38.2102 44.3601 38.4902 43.7601 38.7202 43.0601H37.9602V42.4701H38.7602H38.7502ZM41.0102 41.6201V41.0801H41.6302V41.6201H42.8502V41.0801H43.4702V41.6201H44.4902V42.1301H43.4702V42.4701H44.2402V42.9501H43.4702V43.3501H44.5502V43.8601H42.5702V44.2001H44.1802V45.9501H44.5802V46.4901H44.1802V47.0801C44.1802 47.2801 44.1102 47.4401 44.0002 47.5601C43.9002 47.6501 43.7602 47.7001 43.5902 47.7001H42.7102L42.5902 47.1401L43.3602 47.1601C43.4902 47.1501 43.5602 47.0701 43.5602 46.9101V46.4901H40.9902V47.7301H40.3802V46.4901H39.7802V45.9501H40.3802V44.2001H41.9302V43.8601H40.0702V43.3501H41.0202V42.9501H40.3502V42.4701H41.0202V42.1301H40.1202V41.6201H41.0202H41.0102ZM41.9102 45.0601V44.7001H40.9802V45.0601H41.9102ZM41.9102 45.9401V45.55H40.9802V45.9401H41.9102ZM42.8402 42.1301H41.6202V42.4701H42.8402V42.1301ZM42.8402 43.3401V42.9401H41.6202V43.3401H42.8402ZM42.5602 45.0601H43.5502V44.7001H42.5602V45.0601ZM43.5502 45.9401V45.55H42.5602V45.9401H43.5502Z" fill="#3E3A39"/>
<path d="M48.9802 41.6601C48.2302 41.8101 47.3902 41.8801 46.4702 41.9101V42.2001H49.0102V43.6701H47.2202L47.5202 43.8101C47.4502 43.9801 47.3902 44.1301 47.3302 44.2601H48.0102C47.9402 44.1401 47.8702 44.0201 47.7702 43.8901L48.2502 43.7201C48.3602 43.8801 48.4602 44.0501 48.5602 44.2601H49.1802V44.7701H48.5302V45.1101H49.0902V45.5701H48.5302V45.9401H49.0902V46.3601H48.5302V46.7601H49.1802V47.2401H47.3102V47.6101H46.7702V45.0901C46.7002 45.1801 46.6202 45.2601 46.5402 45.3501L46.4402 44.9801C46.4102 45.3601 46.3802 45.7601 46.3402 46.1701C46.2702 46.7201 46.1602 47.2301 46.0102 47.7301L45.5602 47.2501C45.6602 46.8401 45.7302 46.4201 45.7802 45.9901C45.8202 45.5301 45.8602 44.9801 45.8702 44.3701V41.4301C46.9802 41.4301 47.9202 41.3301 48.6602 41.1201L48.9702 41.6801L48.9802 41.6601ZM46.7702 44.2601C46.8702 44.1201 46.9702 43.9301 47.0702 43.6701H46.4702V44.3501C46.4702 44.4501 46.4702 44.5501 46.4702 44.6501C46.5902 44.5201 46.6902 44.3901 46.7702 44.2601ZM48.4202 43.1601V42.7001H46.4702V43.1601H48.4202ZM47.9702 44.7701H47.3202V45.1101H47.9702V44.7701ZM47.9702 45.5701H47.3202V45.9401H47.9702V45.5701ZM47.9702 46.7601V46.3601H47.3202V46.7601H47.9702ZM52.1802 41.3401V41.9001H50.9802C50.9402 42.1001 50.9002 42.2901 50.8502 42.4601H51.9802V46.2701H49.3502V42.4601H50.2302C50.2902 42.2801 50.3402 42.0901 50.3802 41.9001H49.1602V41.3401H52.1802ZM50.4502 46.6201C50.2502 47.0501 50.0102 47.4201 49.7502 47.7301L49.2402 47.3601C49.5102 47.0901 49.7502 46.7701 49.9802 46.4001L50.4602 46.6201H50.4502ZM51.3502 43.5501V43.0101H49.9702V43.5501H51.3502ZM51.3502 44.6201V44.0301H49.9702V44.6201H51.3502ZM51.3502 45.1301H49.9702V45.7501H51.3502V45.1301ZM52.2302 47.3101L51.7702 47.7701C51.5702 47.4601 51.2702 47.1301 50.8902 46.7801L51.3202 46.3801C51.6702 46.7001 51.9802 47.0101 52.2202 47.3101H52.2302Z" fill="#3E3A39"/>
<path d="M56.3302 44.0305H54.2102V47.7306H53.5702V41.3105H56.3302V44.0205V44.0305ZM55.6902 42.4206V41.8806H54.2102V42.4206H55.6902ZM55.6902 43.4706V42.9605H54.2102V43.4706H55.6902ZM58.0002 44.6006V46.6006H55.1102V44.6006H58.0002ZM57.3802 45.1606H55.7402V46.0406H57.3802V45.1606ZM56.8202 41.3206H59.6402V46.9106C59.6402 47.1606 59.5802 47.3406 59.4702 47.4706C59.3702 47.5906 59.2302 47.6406 59.0502 47.6406H57.9202L57.7802 46.9305L58.7902 46.9905C58.9202 46.9905 58.9902 46.8805 58.9902 46.6805V44.0305H56.8102V41.3206H56.8202ZM59.0002 42.4206V41.8806H57.4702V42.4206H59.0002ZM59.0002 42.9605H57.4702V43.4706H59.0002V42.9605Z" fill="#3E3A39"/>
<path d="M3.04016 51.6203C2.79016 51.6603 2.38019 51.7103 1.82019 51.7603V52.1303H2.9502V52.6103H1.82019V52.9803H2.9502V53.4903H1.82019V53.9203H6.37018V53.4903H5.30017V52.9803H6.37018V52.6403H5.30017V52.1603H6.37018V51.7603H5.24017V51.2003H7.0202L6.99017 53.9103H7.30017V55.3203H6.65021V54.4703H1.57019V55.3203H0.920166V53.9103H1.2002V51.2803C1.7102 51.2503 2.24018 51.1903 2.81018 51.0803L3.03021 51.6203H3.04016ZM6.21021 54.8703V55.3803C5.72021 55.6003 5.17017 55.8103 4.55017 56.0003H7.25018V56.5603H4.51019V57.1803C4.51019 57.3203 4.4602 57.4403 4.3902 57.5203C4.2802 57.6303 4.15019 57.6903 4.01019 57.6903H2.93018L2.82019 57.1303C3.07019 57.1403 3.3502 57.1603 3.6402 57.1603C3.7702 57.1603 3.84021 57.1103 3.84021 57.0203V56.5603H1.05017V56.0003H3.84021V55.7503C4.24021 55.6603 4.6802 55.5403 5.1402 55.3803H2.12018V54.8703H6.22015H6.21021ZM5.10016 51.3403C4.94016 51.5003 4.80021 51.6403 4.65021 51.7403C4.77021 51.8403 4.88017 51.9303 4.99017 52.0103L4.62018 52.3803C4.50018 52.2603 4.37016 52.1403 4.23016 52.0303C3.98016 52.1703 3.69016 52.3103 3.35016 52.4403L3.07019 51.9803C3.32019 51.9203 3.56017 51.8203 3.80017 51.7003C3.64017 51.5903 3.47016 51.4803 3.29016 51.3603L3.63019 51.0503C3.85019 51.1803 4.05017 51.3103 4.24017 51.4403C4.39017 51.3403 4.54018 51.2203 4.68018 51.0803L5.10016 51.3403ZM5.19019 52.6603C5.00019 52.8603 4.83016 53.0203 4.66016 53.1403C4.80016 53.2603 4.94019 53.3703 5.07019 53.4703L4.71021 53.8403C4.5702 53.7003 4.41017 53.5703 4.24017 53.4203C4.01017 53.5603 3.74019 53.6903 3.44019 53.8103L3.16016 53.3603C3.38016 53.3003 3.60018 53.2103 3.81018 53.1003C3.67018 53.0003 3.51016 52.9003 3.35016 52.8003L3.69019 52.4903C3.89019 52.6103 4.07017 52.7303 4.24017 52.8403C4.42017 52.7203 4.59019 52.5703 4.76019 52.4003L5.19019 52.6503V52.6603Z" fill="#3E3A39"/>
<path d="M15.0302 51.8202H9.5802V54.2802C9.5802 54.7902 9.54015 55.3102 9.47015 55.8602C9.38015 56.4402 9.25016 57.0002 9.04016 57.5502L8.47015 57.0402C8.65015 56.6002 8.77016 56.1402 8.85016 55.6502C8.90016 55.1602 8.93018 54.7002 8.93018 54.2702V51.2202H15.0302V51.8102V51.8202ZM12.7102 55.3502V55.8102H14.6302V56.3502H12.7102V56.9102H15.0902V57.5002H9.61017V56.9102H10.5102V55.6702H11.1302V56.9102H12.0802V55.3502H12.7002H12.7102ZM12.2902 52.5002C12.0402 52.5702 11.7502 52.6202 11.4402 52.6502V53.1202H12.1702V53.6302H11.4402V53.6502C11.7302 53.8202 12.0202 54.0202 12.3202 54.2202L12.0102 54.7002C11.7902 54.5002 11.6002 54.3502 11.4502 54.2302V55.3802H10.8902V54.3102C10.6402 54.6402 10.3502 54.9202 10.0402 55.1602L9.73016 54.6802C10.2102 54.3902 10.5802 54.0402 10.8702 53.6402H9.85016V53.1302H10.9002V52.7102C10.6302 52.7202 10.3302 52.7302 10.0202 52.7302L9.85016 52.2202C10.7002 52.2202 11.4302 52.1602 12.0302 52.0202L12.3102 52.5002H12.2902ZM14.8302 52.5002C14.5302 52.5902 14.1802 52.6502 13.7902 52.6902V53.1202H14.9802V53.6302H13.7902V53.7002C14.1902 53.9902 14.6102 54.3002 15.0302 54.6502L14.6902 55.1602C14.3302 54.8002 14.0202 54.5202 13.7902 54.3102V55.3902H13.2302V54.2502C12.9802 54.6102 12.7102 54.9202 12.4102 55.1602L12.1002 54.6802C12.5302 54.3902 12.8802 54.0402 13.1402 53.6402H12.4102V53.1302H13.2302V52.7402C12.9802 52.7502 12.7402 52.7602 12.4902 52.7602L12.3202 52.2502C13.1902 52.2502 13.9302 52.1802 14.5502 52.0202L14.8302 52.5002Z" fill="#3E3A39"/>
<path d="M19.0002 53.3605V52.4805H19.8802V53.3605H19.0002ZM19.0002 55.9904V55.1105H19.8802V55.9904H19.0002Z" fill="#3E3A39"/>
<path d="M7.13019 67.5501H6.51019V67.3201H1.7002V67.5501H1.09021V61.1401H7.12018V67.5501H7.13019ZM6.51019 66.7501V61.6901H1.7002V66.7501H6.51019ZM4.31018 65.7401C3.67018 65.9101 2.92019 66.0801 2.07019 66.2501L1.93018 65.6301C2.73018 65.5501 3.53018 65.4101 4.31018 65.2101V65.7501V65.7401ZM4.26019 62.5101C4.26019 62.2901 4.26019 62.0701 4.26019 61.8401H4.85016C4.85016 62.0901 4.85016 62.3101 4.85016 62.5101H5.5202C5.4402 62.3201 5.36019 62.1401 5.26019 61.9701L5.76019 61.8001C5.88019 61.9801 6.00016 62.1901 6.10016 62.4201L5.78021 62.5001H6.32019V63.0401H4.87018C4.89018 63.5001 4.93016 63.8601 4.98016 64.1501C5.02016 64.4001 5.07019 64.6101 5.13019 64.8201C5.34019 64.4501 5.56016 63.9201 5.79016 63.2401L6.26019 63.5501C5.93019 64.4201 5.63018 65.0501 5.37018 65.4501L5.36017 65.4601C5.37017 65.5001 5.40017 65.5501 5.42017 65.5801C5.53017 65.8101 5.63016 65.9201 5.73016 65.9201C5.77016 65.9201 5.84017 65.6401 5.92017 65.0701L6.46021 65.4901C6.30021 66.0301 6.19018 66.3401 6.12018 66.4301C6.03018 66.5501 5.93016 66.6001 5.79016 66.6001C5.59016 66.6001 5.39019 66.4701 5.19019 66.2101C5.12019 66.1201 5.06018 66.0301 5.00018 65.9301C4.77018 66.1901 4.50019 66.4401 4.19019 66.6601L3.85016 66.2001C4.21016 65.9401 4.50017 65.6601 4.74017 65.3801C4.64017 65.1301 4.55016 64.8501 4.48016 64.5501C4.38016 64.1701 4.32021 63.6701 4.28021 63.0501H1.9502V62.5101H4.25018H4.26019ZM3.8902 63.4101V65.0801H2.19019V63.4101H3.8902ZM3.3902 63.8901H2.69019V64.5901H3.3902V63.8901Z" fill="#3E3A39"/>
<path d="M14.4202 66.7002V67.3702H8.07019V66.7002H14.4202ZM14.2802 62.3702V63.0202H8.22015V62.3702H14.2802ZM10.6402 66.2402L9.8902 66.4402C9.7102 65.4302 9.49015 64.4402 9.22015 63.5002L9.8902 63.2802C10.1702 64.1502 10.4202 65.1302 10.6402 66.2502V66.2402ZM11.7902 61.8402L11.3102 62.3202C11.0402 62.0302 10.6402 61.7202 10.1402 61.3902L10.5902 60.9702C11.0602 61.2602 11.4602 61.5602 11.7902 61.8502V61.8402ZM13.3002 63.4702C13.0902 64.5602 12.8102 65.5602 12.4802 66.4602L11.7902 66.2102C12.1002 65.4602 12.3702 64.4902 12.6002 63.3002L13.3002 63.4702Z" fill="#3E3A39"/>
<path d="M18.0002 62.3502V60.9702H18.7202V62.3502H21.2402V65.7702H18.7202V67.6102H18.0002V65.7702H15.5102V62.3502H18.0002ZM18.0002 63.0002H16.2402V65.1202H18.0002V63.0002ZM20.5102 63.0002H18.7202V65.1202H20.5102V63.0002Z" fill="#3E3A39"/>
<path d="M24.0402 61.8102C23.8502 61.8802 23.5702 61.9402 23.2002 62.0102V62.6902H23.8402V63.3102H23.2202V64.0702H23.9002V64.6602H23.2402V65.4602H24.0902V61.2502H26.9202V65.4602H27.8802V64.6602H27.1702V64.0402H27.8902V63.3102H27.1702V62.7202H27.9102V62.0102H27.1402V61.3602H28.5602L28.4902 65.4602H28.8202V66.0802H22.2502V65.4602H22.6002L22.5602 61.5002C22.9502 61.4602 23.3702 61.3702 23.8102 61.2202L24.0402 61.8102ZM24.8802 66.5802C24.3202 66.9602 23.6202 67.3102 22.7802 67.6202L22.3302 67.0302C23.1002 66.8002 23.7802 66.5102 24.4002 66.1502L24.8802 66.5802ZM26.3302 65.4502V61.8302H24.6802V65.4502H26.3302ZM26.1902 62.1702V62.6802H24.8502V62.1702H26.1902ZM26.1102 63.0502V65.0802H24.9102V63.0502H26.1102ZM25.6902 63.5602H25.3302V64.5802H25.6902V63.5602ZM28.8002 67.0102L28.4102 67.6002C27.7002 67.1902 26.9702 66.8702 26.2302 66.6402L26.5702 66.1302C27.3902 66.3802 28.1302 66.6702 28.8102 67.0102H28.8002Z" fill="#3E3A39"/>
<path d="M32.0702 62.8203C32.1102 62.4303 32.1302 62.0003 32.1302 61.5303V61.0503H32.8602V61.5303C32.8602 61.9903 32.8302 62.4303 32.7902 62.8203H35.7402V63.5303H33.5802C33.7402 64.2703 33.9702 64.8703 34.2702 65.3303C34.6602 65.9403 35.1902 66.4403 35.8602 66.8303L35.4402 67.5403C34.6502 66.9903 34.0502 66.3803 33.6702 65.7003C33.3002 65.1103 33.0302 64.3803 32.8802 63.5203H32.6902C32.5902 64.0103 32.4502 64.4503 32.2702 64.8403C31.8802 65.7203 31.1502 66.6103 30.0402 67.5103L29.4202 66.9703C30.4402 66.2503 31.1702 65.4603 31.5802 64.6203C31.7402 64.3203 31.8702 63.9503 31.9602 63.5203H29.5602V62.8103H32.0602L32.0702 62.8203Z" fill="#3E3A39"/>
<path d="M38.7902 61.5602C38.5402 61.6002 38.1402 61.6503 37.5902 61.7003V62.0703H38.7102V62.5502H37.5902V62.9203H38.7102V63.4302H37.5902V63.8603H42.0902V63.4302H41.0302V62.9203H42.0902V62.5803H41.0302V62.1003H42.0902V61.7003H40.9702V61.1403H42.7302L42.7002 63.8503H43.0102V65.2603H42.3702V64.4102H37.3402V65.2603H36.7002V63.8503H36.9802V61.2202C37.4802 61.1902 38.0102 61.1302 38.5802 61.0202L38.8002 61.5602H38.7902ZM41.9202 64.8102V65.3203C41.4302 65.5403 40.8902 65.7502 40.2802 65.9402H42.9502V66.5002H40.2402V67.1202C40.2402 67.2702 40.1902 67.3802 40.1202 67.4602C40.0102 67.5702 39.8802 67.6302 39.7402 67.6302H38.6702L38.5602 67.0703C38.8102 67.0803 39.0802 67.1003 39.3702 67.1003C39.5002 67.1003 39.5602 67.0502 39.5602 66.9602V66.5002H36.8002V65.9402H39.5602V65.6902C39.9602 65.6002 40.3902 65.4803 40.8502 65.3203H37.8602V64.8102H41.9202ZM40.8302 61.2802C40.6702 61.4402 40.5302 61.5802 40.3902 61.6802C40.5002 61.7802 40.6202 61.8703 40.7302 61.9503L40.3702 62.3203C40.2602 62.2003 40.1302 62.0802 39.9802 61.9702C39.7402 62.1102 39.4502 62.2502 39.1102 62.3802L38.8302 61.9203C39.0702 61.8603 39.3202 61.7603 39.5502 61.6403C39.3902 61.5303 39.2302 61.4202 39.0502 61.3002L39.3902 60.9902C39.6002 61.1202 39.8002 61.2502 39.9902 61.3802C40.1402 61.2802 40.2802 61.1602 40.4302 61.0202L40.8502 61.2802H40.8302ZM40.9202 62.6003C40.7302 62.8003 40.5602 62.9603 40.4002 63.0803C40.5402 63.2003 40.6802 63.3102 40.8102 63.4102L40.4502 63.7802C40.3102 63.6402 40.1602 63.5103 39.9802 63.3603C39.7502 63.5003 39.4902 63.6302 39.1902 63.7502L38.9102 63.3002C39.1302 63.2402 39.3502 63.1503 39.5502 63.0403C39.4102 62.9403 39.2602 62.8402 39.1002 62.7402L39.4402 62.4302C39.6302 62.5502 39.8102 62.6702 39.9802 62.7802C40.1602 62.6602 40.3302 62.5102 40.5002 62.3402L40.9202 62.5902V62.6003Z" fill="#3E3A39"/>
<path d="M46.5302 63.1103V61.0503H47.3102V63.1103H49.7402V63.8203H47.3102V66.3903H50.2202V67.1203H43.7902V66.3903H46.5302V63.8203H44.2402V63.1103H46.5302Z" fill="#3E3A39"/>
<path d="M53.7702 62.3202V60.9702H54.5202V62.3202H57.3802V63.0002H55.2002C55.4302 63.5402 55.7202 64.0502 56.0502 64.5102C56.3902 64.9702 56.8702 65.4802 57.4802 66.0202L56.9802 66.6702C56.3202 66.0602 55.7902 65.4302 55.3902 64.8002C55.0502 64.2902 54.7502 63.6902 54.5202 63.0002V67.6302H53.7702V63.0002C53.5602 63.6302 53.3402 64.1302 53.1102 64.4902C52.7302 65.1802 52.1102 65.9102 51.2502 66.6702L50.8602 65.9902C51.4802 65.4502 51.9702 64.9202 52.3302 64.4002C52.6002 64.0202 52.8502 63.5502 53.0702 63.0002H50.9102V62.3202H53.7702Z" fill="#3E3A39"/>
<path d="M60.3602 65.7701C59.8702 66.3601 59.2702 66.8801 58.5402 67.3501L58.0902 66.7601C58.7602 66.3801 59.3502 65.9101 59.8802 65.3501L60.3602 65.7801V65.7701ZM64.2702 61.6401C63.4002 61.8201 62.3502 61.9501 61.1402 62.0201C60.9502 62.3401 60.6802 62.6601 60.3202 63.0101C60.8602 62.9901 61.3902 62.9601 61.9202 62.9201C62.2002 62.6701 62.4802 62.4001 62.7502 62.1201L63.3902 62.4301C62.4702 63.3301 61.5702 64.0701 60.6802 64.6501C61.6902 64.6201 62.5402 64.5701 63.2302 64.4901C63.0702 64.2201 62.9202 63.9501 62.7402 63.6701L63.2402 63.3601C63.7602 64.1001 64.1702 64.7401 64.4702 65.2801L63.8502 65.7101C63.7502 65.4901 63.6402 65.2601 63.5102 65.0201C63.0202 65.0801 62.4202 65.1401 61.7302 65.1901V66.8501C61.7302 67.1201 61.6702 67.3101 61.5402 67.4101C61.4302 67.5301 61.2102 67.5801 60.9002 67.5801H60.2602L60.1202 66.8401C60.3602 66.8801 60.5502 66.9001 60.7102 66.9001C60.9102 66.9001 61.0202 66.8401 61.0202 66.7301V65.2301C60.2802 65.2701 59.4502 65.3201 58.5402 65.3501L58.3702 64.7001C58.8202 64.7001 59.2502 64.7001 59.6602 64.7001C60.2202 64.3501 60.7602 63.9501 61.2802 63.5101C60.5202 63.5801 59.6802 63.6401 58.7602 63.7001L58.6202 63.1101C58.8902 63.1101 59.1602 63.1001 59.4202 63.0801C59.8102 62.7801 60.1302 62.4401 60.3802 62.0801C59.7602 62.1101 59.1102 62.1201 58.4202 62.1201L58.2302 61.5301C60.4802 61.5301 62.3902 61.3901 63.9602 61.1001L64.2702 61.6601V61.6401ZM64.4902 66.8101L63.9902 67.3201C63.5902 66.8401 63.0202 66.3301 62.2802 65.7701L62.7602 65.3101C63.4402 65.8201 64.0202 66.3201 64.4902 66.8101Z" fill="#3E3A39"/>
<path d="M66.2402 64.7403V63.8604H67.1102V64.7403H66.2402Z" fill="#3E3A39"/>
<path d="M71.4102 61.5602C71.1602 61.6002 70.7602 61.6503 70.2102 61.7003V62.0703H71.3302V62.5502H70.2102V62.9203H71.3302V63.4302H70.2102V63.8603H74.7102V63.4302H73.6502V62.9203H74.7102V62.5803H73.6502V62.1003H74.7102V61.7003H73.5902V61.1403H75.3502L75.3202 63.8503H75.6302V65.2603H74.9902V64.4102H69.9602V65.2603H69.3202V63.8503H69.6002V61.2202C70.1002 61.1902 70.6302 61.1302 71.2002 61.0202L71.4202 61.5602H71.4102ZM74.5402 64.8102V65.3203C74.0502 65.5403 73.5102 65.7502 72.9002 65.9402H75.5702V66.5002H72.8602V67.1202C72.8602 67.2702 72.8102 67.3802 72.7402 67.4602C72.6302 67.5702 72.5002 67.6302 72.3602 67.6302H71.2902L71.1802 67.0703C71.4302 67.0803 71.7002 67.1003 71.9902 67.1003C72.1202 67.1003 72.1802 67.0502 72.1802 66.9602V66.5002H69.4202V65.9402H72.1802V65.6902C72.5802 65.6002 73.0102 65.4803 73.4702 65.3203H70.4802V64.8102H74.5402ZM73.4502 61.2802C73.2902 61.4402 73.1502 61.5802 73.0102 61.6802C73.1202 61.7802 73.2402 61.8703 73.3502 61.9503L72.9902 62.3203C72.8802 62.2003 72.7502 62.0802 72.6002 61.9702C72.3602 62.1102 72.0702 62.2502 71.7302 62.3802L71.4502 61.9203C71.6902 61.8603 71.9402 61.7603 72.1702 61.6403C72.0102 61.5303 71.8502 61.4202 71.6702 61.3002L72.0102 60.9902C72.2202 61.1202 72.4302 61.2502 72.6102 61.3802C72.7602 61.2802 72.9002 61.1602 73.0502 61.0202L73.4702 61.2802H73.4502ZM73.5402 62.6003C73.3502 62.8003 73.1802 62.9603 73.0202 63.0803C73.1602 63.2003 73.3002 63.3102 73.4302 63.4102L73.0702 63.7802C72.9302 63.6402 72.7802 63.5103 72.6002 63.3603C72.3702 63.5003 72.1102 63.6302 71.8102 63.7502L71.5302 63.3002C71.7502 63.2402 71.9702 63.1503 72.1702 63.0403C72.0302 62.9403 71.8802 62.8402 71.7202 62.7402L72.0602 62.4302C72.2502 62.5502 72.4302 62.6702 72.6002 62.7802C72.7802 62.6602 72.9502 62.5102 73.1202 62.3402L73.5402 62.5902V62.6003Z" fill="#3E3A39"/>
<path d="M79.2302 63.1305V60.9805H79.9802V63.1305H82.8402V63.8105H79.9802V66.6705H82.5002V67.3105H76.6802V66.6705H79.2302V63.8105H76.4302V63.1305H79.2302Z" fill="#3E3A39"/>
<path d="M6.86017 77.4803H6.2702V77.2503H1.66016V77.4803H1.0802V71.0703H6.87018V77.4803H6.86017ZM6.2702 76.6803V71.6203H1.66016V76.6803H6.2702ZM4.16016 75.6703C3.54016 75.8403 2.83019 76.0103 2.01019 76.1803L1.88019 75.5603C2.65019 75.4803 3.41016 75.3403 4.16016 75.1403V75.6803V75.6703ZM4.11017 72.4403C4.11017 72.2203 4.11017 72.0003 4.11017 71.7703H4.67017C4.67017 72.0203 4.67017 72.2403 4.67017 72.4403H5.32019C5.24019 72.2503 5.16019 72.0703 5.07019 71.9003L5.55017 71.7303C5.67017 71.9103 5.78018 72.1203 5.87018 72.3503L5.56018 72.4303H6.0802V72.9703H4.69019C4.71019 73.4303 4.75017 73.7903 4.80017 74.0803C4.84017 74.3303 4.89019 74.5403 4.94019 74.7503C5.14019 74.3803 5.35019 73.8503 5.57019 73.1703L6.0202 73.4803C5.7002 74.3503 5.42017 74.9803 5.17017 75.3803L5.16016 75.3903C5.17016 75.4303 5.19021 75.4803 5.21021 75.5103C5.3102 75.7403 5.42019 75.8503 5.51019 75.8503C5.55019 75.8503 5.6102 75.5703 5.7002 75.0003L6.22015 75.4203C6.07015 75.9603 5.9602 76.2703 5.8902 76.3603C5.8102 76.4803 5.70019 76.5303 5.57019 76.5303C5.38019 76.5303 5.19017 76.4003 4.99017 76.1403C4.92017 76.0503 4.87018 75.9603 4.81018 75.8603C4.59018 76.1203 4.33021 76.3703 4.03021 76.5903L3.71021 76.1303C4.0502 75.8703 4.33018 75.5903 4.56018 75.3103C4.46018 75.0603 4.38018 74.7803 4.31018 74.4803C4.21018 74.1003 4.15018 73.6003 4.12018 72.9803H1.8902V72.4403H4.09021H4.11017ZM3.75018 73.3403V75.0103H2.12018V73.3403H3.75018ZM3.2702 73.8203H2.60016V74.5203H3.2702V73.8203Z" fill="#3E3A39"/>
<path d="M13.8602 76.6402V77.3102H7.7702V76.6402H13.8602ZM13.7202 72.3102V72.9602H7.90021V72.3102H13.7202ZM10.2302 76.1802L9.51019 76.3802C9.34019 75.3702 9.13017 74.3802 8.86017 73.4402L9.51019 73.2202C9.78019 74.0902 10.0202 75.0702 10.2302 76.1902V76.1802ZM11.3402 71.7802L10.8802 72.2602C10.6202 71.9702 10.2402 71.6602 9.75018 71.3302L10.1802 70.9102C10.6302 71.2002 11.0202 71.5002 11.3302 71.7902L11.3402 71.7802ZM12.7902 73.4102C12.5802 74.5002 12.3202 75.5002 12.0102 76.4002L11.3402 76.1502C11.6402 75.4002 11.9002 74.4302 12.1202 73.2402L12.7902 73.4102Z" fill="#3E3A39"/>
<path d="M17.3902 71.1201C16.9502 72.0001 16.5002 72.7302 16.0402 73.2802C16.1802 73.2902 16.2902 73.2901 16.3802 73.2901C17.4102 73.2901 18.4302 73.2002 19.4602 73.0302C19.2102 72.6702 18.9202 72.3101 18.6102 71.9301L19.1002 71.4501C19.7502 72.2101 20.2902 72.9601 20.7302 73.7101L20.2202 74.2501C20.1102 74.0501 19.9902 73.8401 19.8602 73.6401C18.5002 73.8601 16.8402 73.9702 14.8702 73.9702L14.7402 73.1801C14.9702 73.2101 15.1902 73.2201 15.3802 73.2401C15.8202 72.6701 16.2802 71.8801 16.7502 70.8701L17.3902 71.1201ZM20.1802 77.5601H19.5102V77.1101H15.8602V77.5401H15.1902V74.4901H20.1802V77.5601ZM19.5102 76.4901V75.1101H15.8602V76.4901H19.5102Z" fill="#3E3A39"/>
<path d="M22.6202 73.4103L22.2402 74.0004C21.9402 73.7004 21.6202 73.4504 21.3102 73.2704L21.6302 72.7604C21.9902 72.9504 22.3202 73.1603 22.6202 73.4103ZM22.6802 74.6204C22.4702 75.7604 22.2102 76.7103 21.9002 77.4803L21.4102 77.0004C21.6602 76.3104 21.8902 75.4303 22.1102 74.3503L22.6702 74.6304L22.6802 74.6204ZM22.7602 71.6504L22.3802 72.2404C22.1102 71.9404 21.8302 71.7004 21.5502 71.5304L21.8702 71.0204C22.1902 71.1904 22.4802 71.4004 22.7602 71.6404V71.6504ZM23.2102 73.6003C23.1302 73.9003 23.0502 74.1703 22.9402 74.4203L22.5902 74.3004C22.6902 74.1004 22.7802 73.8304 22.8602 73.5104L23.2102 73.6003ZM23.7502 71.0204C23.6102 71.4004 23.4802 71.7004 23.3402 71.9404C23.4502 71.9404 23.5502 71.9404 23.6402 71.9404C23.7402 71.7704 23.8302 71.5904 23.9202 71.4004L24.2402 71.5604V71.3404H24.9202C24.8502 71.2004 24.7802 71.0704 24.6902 70.9404L25.1702 70.8904C25.2502 71.0304 25.3202 71.1804 25.3902 71.3404H26.0002V71.7704H24.2402V71.6104C23.9902 72.1304 23.7602 72.5703 23.5402 72.9103C23.6602 72.9003 23.7802 72.8803 23.8902 72.8503C23.8702 72.7603 23.8502 72.6804 23.8402 72.6104L24.1602 72.4904C24.2302 72.7404 24.2902 73.0204 24.3502 73.3404L24.0002 73.4304C23.9902 73.3604 23.9802 73.2904 23.9702 73.2204C23.6802 73.3004 23.2702 73.3704 22.7202 73.4304L22.6702 72.9803C22.7702 72.9803 22.8802 72.9804 22.9802 72.9704C23.1202 72.7904 23.2702 72.5904 23.4102 72.3604C23.2202 72.3804 22.9902 72.4003 22.7302 72.4203L22.6802 71.9604H22.9102C23.0502 71.6904 23.2002 71.3204 23.3602 70.8604L23.7902 71.0304L23.7502 71.0204ZM27.2902 74.6104V75.8004H23.6502L23.5502 76.1104H27.5102C27.4902 76.7004 27.4102 77.0604 27.2802 77.2204C27.1402 77.4004 26.8302 77.4904 26.3502 77.4904H25.1102L25.0302 76.9504C25.6102 76.9604 26.0502 76.9803 26.3402 76.9803C26.5002 76.9803 26.6402 76.9503 26.7202 76.9103C26.7902 76.8503 26.8402 76.7404 26.8502 76.5604H22.8802L23.1502 75.3404H26.7202V75.0604H22.8802V74.6003H27.2802L27.2902 74.6104ZM23.7502 74.3604L23.3802 74.3904C23.3702 74.0504 23.3402 73.7903 23.3002 73.6003L23.6202 73.5704C23.6802 73.7704 23.7202 74.0304 23.7502 74.3604ZM24.3102 74.2404L23.9902 74.3304C23.9402 74.0604 23.8802 73.7903 23.8002 73.5403L24.1002 73.4504C24.1802 73.6804 24.2502 73.9504 24.3102 74.2404ZM25.8102 71.9803V72.3204H24.3902V71.9803H25.8102ZM25.8102 72.5704V72.9103H24.3902V72.5704H25.8102ZM25.8102 73.1603V74.3204H24.4202V73.1603H25.8102ZM25.4002 73.5604H24.8102V73.9203H25.4002V73.5604ZM26.4202 73.6404C26.3702 73.9504 26.3002 74.2304 26.2302 74.4904L25.8502 74.3503C25.9202 74.1503 25.9802 73.8804 26.0402 73.5604L26.4202 73.6404ZM26.9802 71.0403C26.8402 71.4203 26.7102 71.7204 26.5702 71.9604C26.6802 71.9604 26.7902 71.9604 26.9002 71.9604C26.9802 71.8204 27.0602 71.6804 27.1402 71.5304L27.5702 71.7004C27.2702 72.2104 26.9702 72.6204 26.6702 72.9404C26.8402 72.9304 27.0002 72.9104 27.1502 72.8904C27.1202 72.7704 27.0902 72.6704 27.0602 72.5504L27.4002 72.4304C27.4902 72.7004 27.5702 73.0204 27.6502 73.3604L27.2702 73.4504C27.2602 73.3804 27.2402 73.3103 27.2202 73.2303C26.9202 73.2903 26.4902 73.3504 25.9302 73.3904L25.8802 72.9704C25.9802 72.9704 26.0902 72.9704 26.1802 72.9704C26.3302 72.8004 26.4902 72.5903 26.6502 72.3503C26.4502 72.3803 26.2102 72.4003 25.9402 72.4103L25.8902 71.9803H26.1102C26.2502 71.7103 26.4002 71.3404 26.5602 70.8804L26.9902 71.0504L26.9802 71.0403ZM27.0402 74.3503L26.6302 74.3804C26.6302 74.0404 26.6002 73.7804 26.5802 73.5904L26.9302 73.5604C26.9802 73.7604 27.0202 74.0203 27.0402 74.3503ZM27.6802 74.2604L27.2802 74.3804C27.2402 74.1104 27.1802 73.8404 27.1202 73.5904L27.5002 73.4704C27.5702 73.7004 27.6302 73.9704 27.6902 74.2604H27.6802Z" fill="#3E3A39"/>
<path d="M30.7902 72.7603C30.8302 72.3703 30.8502 71.9403 30.8502 71.4703V70.9902H31.5502V71.4703C31.5502 71.9303 31.5202 72.3703 31.4802 72.7603H34.3102V73.4703H32.2402C32.3902 74.2103 32.6102 74.8103 32.9002 75.2703C33.2802 75.8803 33.7902 76.3803 34.4202 76.7703L34.0102 77.4802C33.2502 76.9302 32.6802 76.3203 32.3102 75.6403C31.9502 75.0503 31.7002 74.3203 31.5502 73.4603H31.3702C31.2702 73.9503 31.1402 74.3903 30.9702 74.7803C30.6002 75.6603 29.8902 76.5403 28.8302 77.4503L28.2402 76.9102C29.2202 76.1902 29.9202 75.4002 30.3102 74.5602C30.4602 74.2602 30.5802 73.8903 30.6702 73.4603H28.3702V72.7502H30.7702L30.7902 72.7603Z" fill="#3E3A39"/>
<path d="M37.2402 71.4904C37.0002 71.5304 36.6202 71.5804 36.0902 71.6304V72.0004H37.1602V72.4804H36.0902V72.8504H37.1602V73.3604H36.0902V73.7904H40.4102V73.3604H39.3902V72.8504H40.4102V72.5104H39.3902V72.0305H40.4102V71.6304H39.3402V71.0704H41.0302L41.0002 73.7805H41.3002V75.1904H40.6802V74.3405H35.8502V75.1904H35.2302V73.7805H35.5002V71.1505C35.9802 71.1205 36.4902 71.0604 37.0302 70.9504L37.2402 71.4904ZM40.2502 74.7404V75.2504C39.7802 75.4704 39.2602 75.6804 38.6802 75.8704H41.2402V76.4304H38.6402V77.0504C38.6402 77.1904 38.5902 77.3104 38.5202 77.3904C38.4202 77.5004 38.2902 77.5604 38.1602 77.5604H37.1402L37.0402 77.0004C37.2802 77.0104 37.5402 77.0305 37.8202 77.0305C37.9402 77.0305 38.0102 76.9804 38.0102 76.8904V76.4304H35.3602V75.8704H38.0102V75.6204C38.3902 75.5304 38.8102 75.4104 39.2502 75.2504H36.3802V74.7404H40.2702H40.2502ZM39.2002 71.2104C39.0502 71.3704 38.9102 71.5104 38.7702 71.6104C38.8802 71.7104 38.9902 71.8004 39.0902 71.8804L38.7402 72.2504C38.6302 72.1304 38.5102 72.0105 38.3702 71.9005C38.1402 72.0405 37.8602 72.1804 37.5302 72.3104L37.2602 71.8504C37.4902 71.7804 37.7302 71.6904 37.9502 71.5704C37.8002 71.4604 37.6402 71.3504 37.4702 71.2304L37.7902 70.9204C38.0002 71.0504 38.1902 71.1804 38.3702 71.3104C38.5102 71.2104 38.6502 71.0904 38.7902 70.9504L39.1902 71.2104H39.2002ZM39.2802 72.5305C39.1002 72.7305 38.9402 72.8904 38.7802 73.0104C38.9202 73.1304 39.0502 73.2405 39.1702 73.3405L38.8302 73.7104C38.7002 73.5704 38.5502 73.4404 38.3802 73.2904C38.1602 73.4304 37.9102 73.5604 37.6202 73.6804L37.3502 73.2304C37.5602 73.1704 37.7702 73.0805 37.9702 72.9705C37.8302 72.8705 37.6902 72.7704 37.5402 72.6704L37.8602 72.3604C38.0502 72.4804 38.2202 72.6004 38.3802 72.7104C38.5502 72.5904 38.7202 72.4404 38.8702 72.2704L39.2802 72.5204V72.5305Z" fill="#3E3A39"/>
<path d="M44.6702 73.0405V70.9805H45.4202V73.0405H47.7502V73.7505H45.4202V76.3205H48.2102V77.0505H42.0402V76.3205H44.6702V73.7505H42.4702V73.0405H44.6702Z" fill="#3E3A39"/>
<path d="M51.6102 72.2504V70.9004H52.3302V72.2504H55.0702V72.9304H52.9802C53.2002 73.4704 53.4702 73.9804 53.8002 74.4404C54.1202 74.9004 54.5802 75.4104 55.1702 75.9504L54.6902 76.6003C54.0602 75.9903 53.5502 75.3603 53.1702 74.7303C52.8402 74.2203 52.5602 73.6204 52.3302 72.9304V77.5604H51.6102V72.9304C51.4002 73.5604 51.2002 74.0603 50.9802 74.4203C50.6202 75.1103 50.0202 75.8403 49.1902 76.6003L48.8202 75.9203C49.4202 75.3803 49.8802 74.8504 50.2302 74.3304C50.4902 73.9504 50.7202 73.4804 50.9402 72.9304H48.8702V72.2504H51.6102Z" fill="#3E3A39"/>
<path d="M57.9402 75.7003C57.4702 76.2903 56.8902 76.8103 56.2002 77.2803L55.7702 76.6902C56.4102 76.3102 56.9802 75.8403 57.4902 75.2803L57.9502 75.7103L57.9402 75.7003ZM61.7002 71.5703C60.8602 71.7503 59.8602 71.8803 58.7002 71.9503C58.5202 72.2703 58.2602 72.5902 57.9202 72.9402C58.4402 72.9202 58.9502 72.8902 59.4602 72.8502C59.7302 72.6002 60.0002 72.3302 60.2602 72.0502L60.8702 72.3602C59.9902 73.2602 59.1302 74.0003 58.2702 74.5803C59.2402 74.5503 60.0602 74.5002 60.7202 74.4202C60.5702 74.1502 60.4202 73.8802 60.2502 73.6002L60.7302 73.2902C61.2302 74.0302 61.6202 74.6703 61.9102 75.2103L61.3202 75.6403C61.2202 75.4203 61.1102 75.1903 60.9902 74.9503C60.5202 75.0103 59.9502 75.0702 59.2802 75.1202V76.7803C59.2802 77.0503 59.2202 77.2403 59.0902 77.3403C58.9802 77.4603 58.7702 77.5103 58.4702 77.5103H57.8502L57.7102 76.7703C57.9402 76.8103 58.1202 76.8303 58.2702 76.8303C58.4602 76.8303 58.5702 76.7702 58.5702 76.6602V75.1602C57.8602 75.2002 57.0702 75.2503 56.1902 75.2803L56.0302 74.6302C56.4602 74.6302 56.8702 74.6302 57.2702 74.6302C57.8102 74.2802 58.3202 73.8802 58.8302 73.4402C58.1002 73.5002 57.2902 73.5702 56.4102 73.6302L56.2802 73.0402C56.5402 73.0402 56.8002 73.0303 57.0502 73.0103C57.4202 72.7103 57.7302 72.3703 57.9702 72.0103C57.3702 72.0403 56.7502 72.0502 56.0902 72.0502L55.9002 71.4603C58.0602 71.4603 59.8902 71.3203 61.4002 71.0303L61.7002 71.5903V71.5703ZM61.9102 76.7402L61.4302 77.2502C61.0502 76.7702 60.5002 76.2603 59.7902 75.7003L60.2502 75.2402C60.9002 75.7502 61.4602 76.2502 61.9102 76.7402Z" fill="#3E3A39"/>
<path d="M65.0502 71.2104V71.8204H64.0302C63.9202 72.4304 63.8002 72.9404 63.6602 73.3504H64.9402V76.7704H63.7102V77.4204H63.1502V74.5004C63.0402 74.6904 62.9202 74.8904 62.8002 75.0804L62.4502 74.4604C62.7802 73.9104 63.0202 73.4004 63.1602 72.9404C63.2602 72.6504 63.3402 72.2704 63.4202 71.8304H62.7202V71.2205H65.0502V71.2104ZM64.3802 76.1804V73.9504H63.7102V76.1804H64.3802ZM68.7502 71.2304V71.8204H68.1302V73.5504H68.8802V74.1704H68.1302V77.5305H67.5102V74.1704H66.5602C66.5302 74.7804 66.4502 75.3104 66.3302 75.7404C66.1802 76.3204 65.8902 76.9004 65.4602 77.5104L64.9502 77.0305C65.3202 76.5705 65.5902 76.0804 65.7402 75.5404C65.8402 75.2104 65.9002 74.7604 65.9302 74.1804H65.1102V73.5604H65.9402V71.8304H65.2702V71.2404H68.7302L68.7502 71.2304ZM67.5102 71.8204H66.5802V73.5504H67.5102V71.8204Z" fill="#3E3A39"/>
<path d="M72.2402 72.6201C71.9802 73.0401 71.6802 73.3701 71.3402 73.6001C70.9902 73.8201 70.4702 74.0201 69.7702 74.1801L69.4302 73.5601C70.1702 73.4301 70.6702 73.2801 70.9502 73.1101C71.2202 72.9701 71.4802 72.7001 71.7402 72.3101L72.2502 72.6201H72.2402ZM71.9702 74.6201C71.9702 74.6201 71.9702 74.5501 71.9702 74.5101V73.6301H72.6102V74.5101C72.6102 74.5101 72.6102 74.5901 72.6102 74.6201H74.2902L74.1502 76.3401C74.1502 76.5201 74.1702 76.6401 74.2202 76.6901C74.2702 76.7401 74.3402 76.7601 74.3902 76.7601H74.8802C74.8802 76.7601 74.9602 76.7401 75.0002 76.6901C75.0302 76.6601 75.0702 76.2701 75.1202 75.5201L75.7602 75.7202C75.6902 76.5602 75.5902 77.0401 75.4602 77.1701C75.3302 77.2901 75.1502 77.3501 74.9302 77.3501H74.1002C73.9502 77.3501 73.8202 77.2901 73.6902 77.1801C73.5502 77.0401 73.4802 76.8401 73.4802 76.5701L73.5702 75.2101H72.5402C72.4302 75.7201 72.2102 76.1401 71.8902 76.4801C71.4602 76.9401 70.7602 77.2901 69.7802 77.5401L69.4402 76.9501C70.4102 76.7001 71.0802 76.4001 71.4402 76.0401C71.6602 75.8101 71.8102 75.5302 71.8902 75.2202H70.0002V74.6301H71.9802L71.9702 74.6201ZM72.8402 71.5201H75.4402V72.9901H74.7702V72.1101H73.7002V73.1801C73.7002 73.3501 73.7802 73.4301 73.9402 73.4301H75.6602V74.0201H73.8102C73.5802 74.0201 73.3902 73.9801 73.2602 73.8801C73.1202 73.7901 73.0602 73.6301 73.0602 73.4001V72.1001H70.4002V72.9801H69.7302V71.5101H72.1502C72.0502 71.3301 71.9602 71.1601 71.8502 71.0001L72.5802 70.8901C72.6702 71.0801 72.7602 71.2801 72.8502 71.5101L72.8402 71.5201Z" fill="#3E3A39"/>
<path d="M79.4502 71.6004C78.8302 71.8204 78.1502 71.9504 77.4102 71.9804V72.7004H79.1002V75.0404H77.3802C77.3502 75.4004 77.3002 75.7804 77.2402 76.1604C77.1402 76.6604 76.9902 77.1304 76.7902 77.5804L76.3002 77.0404C76.4502 76.6804 76.5602 76.3004 76.6302 75.9304C76.6902 75.5304 76.7302 75.0504 76.7602 74.5104V71.4304C77.7002 71.4304 78.4902 71.2805 79.1202 70.9705L79.4402 71.5905L79.4502 71.6004ZM78.5102 74.4304V73.3304H77.4102V74.4304H78.5102ZM82.6102 71.6004C81.8902 71.8204 81.0902 71.9504 80.2002 71.9904V73.2404H82.6402V73.8904H81.9502V77.5604H81.3002V73.8904H80.2002V74.7104C80.1802 75.1904 80.1002 75.7104 79.9702 76.2404C79.8302 76.7004 79.6202 77.1404 79.3202 77.5604L78.8402 77.0204C79.0702 76.6904 79.2502 76.3504 79.3602 76.0104C79.4602 75.6304 79.5202 75.2004 79.5602 74.7104V71.4005C80.6402 71.4005 81.5402 71.2404 82.2702 70.9204L82.6102 71.6004Z" fill="#3E3A39"/>
<path d="M1.87018 85.6901C1.83018 86.3801 1.74018 86.9701 1.62018 87.4501L1.00018 87.2501C1.17018 86.7501 1.28021 86.2201 1.34021 85.6401L1.88019 85.6901H1.87018ZM2.94019 81.0301C2.69019 81.6701 2.4302 82.2401 2.1402 82.7501C2.3602 82.7401 2.59018 82.71 2.81018 82.67C2.97018 82.37 3.12021 82.0301 3.28021 81.6801L3.87018 81.9001C3.33018 83.0501 2.78015 83.9901 2.22015 84.7101C2.60015 84.6801 2.9302 84.62 3.2002 84.55C3.1302 84.3 3.06017 84.0501 2.99017 83.8201L3.50018 83.6501C3.67018 84.1101 3.8202 84.6301 3.9502 85.2101L3.3902 85.35C3.3702 85.26 3.3502 85.1601 3.3302 85.0701C2.8202 85.2001 2.1402 85.3001 1.2702 85.3701L1.10016 84.7601C1.25016 84.7601 1.40016 84.7601 1.54016 84.7601C1.86016 84.3601 2.18019 83.8501 2.51019 83.2401C2.10019 83.3001 1.65016 83.3701 1.16016 83.4401L1.0202 82.85C1.1602 82.85 1.29019 82.8401 1.44019 82.8201C1.77019 82.2301 2.06019 81.57 2.32019 80.85L2.94019 81.05V81.0301ZM2.86017 87.1301L2.2702 87.1801C2.2602 86.5401 2.21021 86.0401 2.15021 85.6801L2.66016 85.6301C2.76016 86.0001 2.83017 86.5001 2.86017 87.1301ZM3.90021 86.79L3.34021 86.9901C3.25021 86.5101 3.14021 86.03 3.03021 85.55L3.51019 85.4301C3.68019 85.9301 3.81021 86.38 3.90021 86.79ZM5.48016 81.7101V80.8301H6.16016V81.7101H7.69019V82.3301H6.16016V83.2801H7.4502V83.8701H4.1402V83.2801H5.47015V82.3301H3.91016V81.7101H5.47015H5.48016ZM7.43018 87.4701H6.82019V87.1301H4.90021V87.4701H4.28021V84.5301H7.44019V87.4701H7.43018ZM6.82019 86.54V85.1201H4.90021V86.54H6.82019Z" fill="#3E3A39"/>
<path d="M9.55017 82.2201V80.8401H10.1702V82.2201H10.8202V82.8101H10.1702V83.0201C10.4202 83.3301 10.6502 83.6601 10.9002 84.0301L10.5402 84.5901C10.4002 84.3001 10.2702 84.0501 10.1702 83.8401V87.4701H9.55017V84.1401C9.38017 84.6201 9.18021 85.04 8.96021 85.41L8.68018 84.6501C9.01018 84.1101 9.2902 83.5101 9.5202 82.8101H8.76019V82.2201H9.56018H9.55017ZM11.8102 81.3701V80.8301H12.4302V81.3701H13.6502V80.8301H14.2702V81.3701H15.2902V81.8801H14.2702V82.2201H15.0402V82.7001H14.2702V83.1H15.3502V83.61H13.3702V83.9501H14.9802V85.7001H15.3802V86.2401H14.9802V86.8301C14.9802 87.0301 14.9102 87.1901 14.8002 87.3101C14.7002 87.4001 14.5602 87.4601 14.3902 87.4601H13.5102L13.3902 86.9001L14.1602 86.92C14.2902 86.91 14.3602 86.83 14.3602 86.67V86.2501H11.7902V87.4901H11.1802V86.2501H10.5802V85.7101H11.1802V83.9601H12.7302V83.6201H10.8702V83.11H11.8202V82.7101H11.1502V82.23H11.8202V81.8901H10.9202V81.3801H11.8202L11.8102 81.3701ZM12.7102 84.8101V84.4501H11.7802V84.8101H12.7102ZM12.7102 85.6901V85.3H11.7802V85.6901H12.7102ZM13.6402 81.8801H12.4202V82.2201H13.6402V81.8801ZM13.6402 83.0901V82.6901H12.4202V83.0901H13.6402ZM13.3602 84.8101H14.3502V84.4501H13.3602V84.8101ZM14.3502 85.6901V85.3H13.3602V85.6901H14.3502Z" fill="#3E3A39"/>
<path d="M18.3402 81.0303C18.0802 81.7003 17.8002 82.3003 17.4902 82.8103C17.7102 82.7703 17.9402 82.7303 18.1602 82.6903C18.3202 82.3903 18.4902 82.0603 18.6502 81.7103L19.2402 81.9303C18.6902 83.0303 18.1302 83.9303 17.5702 84.6303C17.9702 84.5903 18.3102 84.5403 18.5802 84.4603C18.5102 84.1903 18.4402 83.9203 18.3602 83.6803L18.8402 83.5403C19.0102 84.0003 19.1702 84.5203 19.3002 85.1203L18.7602 85.2603C18.7402 85.1703 18.7202 85.0703 18.7002 84.9803C18.1902 85.1103 17.5002 85.2203 16.6102 85.2903L16.4402 84.6703C16.5902 84.6703 16.7402 84.6703 16.8902 84.6703C17.1902 84.2903 17.5102 83.8303 17.8302 83.2803C17.4302 83.3703 17.0002 83.4603 16.5302 83.5503L16.3902 82.9603C16.5302 82.9503 16.6702 82.9303 16.8202 82.9103C17.1702 82.3003 17.4902 81.6103 17.7502 80.8403L18.3402 81.0403V81.0303ZM17.3002 85.6103C17.2502 86.3303 17.1602 86.9303 17.0402 87.4203L16.4502 87.2503C16.6102 86.7203 16.7102 86.1603 16.7602 85.5603L17.3002 85.6203V85.6103ZM18.2502 87.1403L17.6902 87.1903C17.6802 86.5003 17.6402 85.9703 17.5802 85.5803L18.0602 85.5203C18.1602 85.9303 18.2302 86.4603 18.2602 87.1303L18.2502 87.1403ZM19.2402 86.5503L18.7002 86.6903C18.6102 86.2903 18.5102 85.9103 18.3902 85.5303L18.8702 85.3903C19.0102 85.7303 19.1302 86.1203 19.2402 86.5503ZM22.5502 86.6603H23.0102V87.2503H19.1302V86.6603H19.5902V81.2103H22.5602V86.6603H22.5502ZM21.9302 83.0203V81.8003H20.2102V83.0203H21.9302ZM21.9302 84.8603V83.5903H20.2102V84.8603H21.9302ZM21.9302 86.6703V85.4303H20.2102V86.6703H21.9302Z" fill="#3E3A39"/>
<path d="M25.1402 84.6105V83.7305H26.0202V84.6105H25.1402Z" fill="#3E3A39"/>
<path d="M30.7602 81.1503V81.7603H29.8102C29.6902 82.3703 29.5602 82.8703 29.4202 83.2603C29.4202 83.2703 29.4102 83.2903 29.4102 83.2903H30.6602V86.7103H29.5002V87.3603H28.9102V84.3203C28.7902 84.5103 28.6802 84.7003 28.5502 84.8703L28.1802 84.2803C28.5302 83.7603 28.7802 83.2703 28.9202 82.8303C29.0202 82.5603 29.1102 82.1903 29.1902 81.7603H28.3902V81.1503H30.7602ZM30.0602 86.1203V83.8903H29.4902V86.1203H30.0602ZM32.5402 86.5203C32.1402 86.8903 31.6202 87.2303 31.0102 87.5303L30.5902 86.9703C31.1402 86.7503 31.6402 86.4603 32.0902 86.1203L32.5402 86.5203ZM34.8902 81.0703V81.6603H33.2102C33.1602 81.8503 33.1002 82.0303 33.0402 82.2003H34.5802V86.0103H31.1002V82.2003H32.3402C32.4102 82.0303 32.4802 81.8503 32.5302 81.6603H31.0202V81.0703H34.9002H34.8902ZM33.9602 83.2803V82.7703H31.7302V83.2803H33.9602ZM33.9602 84.3803V83.8203H31.7302V84.3803H33.9602ZM33.9602 84.9203H31.7302V85.4603H33.9602V84.9203ZM34.9102 86.9503L34.5502 87.5103C34.0402 87.1403 33.5202 86.8503 32.9902 86.6303L33.3002 86.1503C33.8802 86.3703 34.4102 86.6303 34.9102 86.9403V86.9503Z" fill="#3E3A39"/>
<path d="M38.8402 83.0104V80.8604H39.6002V83.0104H42.4902V83.6904H39.6002V86.5504H42.1502V87.1904H36.2702V86.5504H38.8402V83.6904H36.0102V83.0104H38.8402Z" fill="#3E3A39"/>
<path d="M4.92017 7.64017H2.23016V8.42017H1.29016V1.15015H4.93018V7.65015L4.92017 7.64017ZM3.99017 3.91016V2.04016H2.23016V3.91016H3.99017ZM3.99017 6.75015V4.76016H2.23016V6.75015H3.99017ZM5.87018 0.920166H10.2902V8.61017C10.2902 8.93017 10.2002 9.18017 10.0202 9.36017C9.8502 9.51017 9.63016 9.59015 9.35016 9.59015H7.67017L7.47015 8.65015L8.94019 8.73016C9.15019 8.71016 9.26019 8.58015 9.26019 8.34015V6.59015H6.72015C6.64015 6.96015 6.53016 7.29016 6.41016 7.57016C6.11016 8.30016 5.5202 9.02014 4.6402 9.77014L3.78021 9.07016C4.57021 8.51016 5.1202 7.91015 5.4502 7.25015C5.7202 6.72015 5.87018 5.92017 5.87018 4.83017V0.910156V0.920166ZM9.2702 5.70016V4.15015H6.90021V4.85016C6.90021 5.16016 6.88017 5.45014 6.86017 5.71014H9.2702V5.70016ZM9.2702 3.25015V1.82016H6.90021V3.25015H9.2702Z" fill="#3E3A39"/>
<path d="M20.3802 9.72992H19.3602V8.9899H14.1602V9.69992H13.1302V0.919922H20.3702V9.72992H20.3802ZM19.3602 4.3699V1.87991H14.1602V4.3699H19.3602ZM19.3602 8.05991V5.3399H14.1602V8.05991H19.3602Z" fill="#3E3A39"/>
<path d="M26.3802 8.72986H25.4802V7.98984H24.1702V8.94986H23.2702V1.25986H26.3802V8.71985V8.72986ZM25.4802 4.21985V2.11984H24.1702V4.21985H25.4802ZM25.4802 7.12985V5.06985H24.1702V7.12985H25.4802ZM29.0902 1.52985V0.589844H29.9902V1.52985H32.2802V2.38986H29.9902V3.39984H32.6102V4.29984H31.5802V5.33984H32.6802V6.19986H31.5802V8.56985C31.5802 8.92985 31.5002 9.17985 31.3302 9.31985C31.1802 9.46985 30.9102 9.54984 30.5102 9.54984H29.2002L29.0002 8.57986C29.5102 8.63986 29.9302 8.65985 30.2702 8.65985C30.5102 8.65985 30.6402 8.58984 30.6402 8.42984V6.20984H26.5802V5.34985H30.6402V4.30984H26.6702V3.40985H29.0902V2.39984H26.8802V1.53986H29.0902V1.52985ZM29.5002 7.90985L28.5602 8.52985C28.2002 8.06985 27.7302 7.53985 27.1202 6.93985L27.9002 6.46985C28.5702 7.02985 29.1102 7.50985 29.5002 7.90985Z" fill="#3E3A39"/>
<path d="M39.4102 0.570312V4.1803H43.4702V5.00031H40.4802V8.38031C40.4802 8.59031 40.6002 8.69031 40.8502 8.69031H42.1602C42.3102 8.69031 42.4102 8.64029 42.4902 8.52029C42.5702 8.40029 42.6302 7.8603 42.6602 6.9003L43.6502 7.1803C43.5602 8.3403 43.4102 9.02032 43.2202 9.23032C43.0502 9.44032 42.7402 9.55029 42.3002 9.55029H40.5002C40.1902 9.55029 39.9302 9.4703 39.7502 9.3103C39.5602 9.1403 39.4802 8.9203 39.4802 8.6503V5.00031H38.0102C37.8902 6.26031 37.6302 7.20031 37.2202 7.82031C36.7302 8.55031 35.9002 9.1703 34.7302 9.7103L34.0402 8.85031C35.1202 8.41031 35.8602 7.92032 36.2702 7.39032C36.6502 6.92032 36.8902 6.13031 36.9902 5.00031H34.2302V4.1803H38.3302V0.570312H39.4302H39.4102ZM37.2402 3.29031L36.1802 3.72031C35.8202 2.88031 35.4502 2.15031 35.0302 1.50031L36.0602 1.19031C36.5102 1.85031 36.9102 2.55031 37.2402 3.29031ZM42.6102 1.54031C42.3102 2.32031 41.9102 3.07029 41.4302 3.80029L40.4402 3.33032C40.9302 2.57032 41.3302 1.83032 41.6202 1.11032L42.6102 1.54031Z" fill="#3E3A39"/>
<path d="M53.5102 1.8403C53.0102 2.0203 52.4202 2.1603 51.7502 2.2403V3.0903H53.3102V3.88031H51.7502V4.77029H53.4402V5.5903H51.7502V5.66031C52.2802 6.08031 52.8302 6.56031 53.4002 7.07031L52.8702 7.8103C52.4302 7.3003 52.0502 6.89031 51.7602 6.60031V9.72031H50.8702V6.69031C50.8302 6.79031 50.7802 6.8903 50.7302 6.9903C50.3802 7.7003 49.9602 8.31032 49.4702 8.83032L49.0602 7.7803C49.7002 7.1403 50.2302 6.42031 50.6502 5.60031H49.0602V4.7803H50.8602V3.89032H49.2602V3.10031H50.8602V2.35031C50.4002 2.39031 49.9102 2.4003 49.3802 2.4003L49.1302 1.6203C49.7402 1.6203 50.3102 1.60031 50.8602 1.54031V0.580322H51.7502V1.4303C52.2202 1.3503 52.6602 1.2503 53.0602 1.1203L53.5102 1.86032V1.8403ZM54.5002 2.47031V0.570312H55.4402V2.47031H56.8802V0.570312H57.8202V2.47031H58.6402V3.33032H57.8202V5.23032H58.8002V6.1203H57.8202V9.70032H56.8802V6.1203H55.3902C55.3302 6.6803 55.2202 7.16032 55.0502 7.58032C54.8102 8.23032 54.3402 8.87031 53.6302 9.54031L52.8502 8.88031C53.4602 8.38031 53.9002 7.85029 54.1502 7.27029C54.2902 6.98029 54.3802 6.5903 54.4302 6.1203H53.5002V5.23032H54.4902V3.33032H53.5902V2.47031H54.4902H54.5002ZM56.8802 3.33032H55.4402V5.23032H56.8802V3.33032Z" fill="#3E3A39"/>
<path d="M64.7902 1.92007C64.2602 2.08007 63.6402 2.19007 62.9502 2.26007V3.09006H64.5402V3.92007H62.9502V4.77005H64.7902V5.59006H62.9502V5.61008C63.5402 6.12008 64.1402 6.68005 64.7502 7.30005L64.2202 8.05005C63.7102 7.41005 63.2902 6.92006 62.9502 6.56006V9.72006H62.0502V6.63007C61.9902 6.75007 61.9202 6.87005 61.8602 6.99005C61.4602 7.70005 60.9802 8.31008 60.4102 8.83008L60.0402 7.85007C60.7902 7.19007 61.4102 6.44006 61.9002 5.59006H60.1302V4.77005H62.0502V3.92007H60.3302V3.09006H62.0502V2.34006C61.5302 2.38006 60.9602 2.39008 60.3702 2.39008L60.1302 1.61008C60.8102 1.61008 61.4502 1.59007 62.0502 1.54007V0.560059H62.9502V1.44006C63.4502 1.38006 63.9102 1.29005 64.3402 1.18005L64.7902 1.92007ZM69.7802 3.79007V4.65005H67.1402C66.9202 5.92005 66.5602 7.14007 66.0802 8.29007C66.8002 8.25007 67.5502 8.18007 68.3102 8.10007C68.0602 7.40007 67.8002 6.76006 67.5302 6.16006L68.4302 5.89008C68.9302 6.96008 69.3602 8.12006 69.7402 9.34006L68.8402 9.73007C68.7602 9.46007 68.6802 9.20007 68.6002 8.95007C67.3402 9.09007 65.9602 9.21005 64.4602 9.30005L64.3302 8.37006C64.5702 8.37006 64.8102 8.37006 65.0602 8.34006C65.5602 7.19006 65.9302 5.95008 66.1802 4.64008H64.6902V3.78006H69.7602L69.7802 3.79007ZM69.3302 1.22006V2.08008H65.1602V1.22006H69.3302Z" fill="#3E3A39"/>
<path d="M79.2602 2.82031V3.64032H77.0702C76.7902 3.86032 76.5002 4.04032 76.2202 4.20032C76.5902 4.65032 76.8602 5.09031 77.0302 5.50031C77.8002 5.18031 78.5302 4.70031 79.2202 4.07031L79.9502 4.7403C79.5102 5.1303 79.0402 5.46031 78.5302 5.72031C78.7602 6.24031 79.0502 6.7203 79.3902 7.1503C79.7102 7.5703 80.1802 8.0203 80.7702 8.4903L80.1102 9.3103C79.4402 8.7303 78.8902 8.14031 78.5002 7.54031C78.2002 7.13031 77.9302 6.6503 77.7202 6.1203C77.5502 6.2003 77.4102 6.2603 77.2602 6.3103C77.3502 6.7403 77.4102 7.16031 77.4102 7.57031C77.4102 8.33031 77.2902 8.8503 77.0602 9.1803C76.8102 9.5303 76.0602 9.7103 74.8302 9.7103L74.5002 8.7403C74.5002 8.7403 74.7202 8.82031 75.0802 8.82031C75.6302 8.82031 75.9802 8.75031 76.1302 8.63031C76.3002 8.44031 76.3902 8.09032 76.3902 7.58032C76.3902 7.44032 76.3802 7.29032 76.3602 7.14032C75.7702 7.58032 75.2402 7.92032 74.7602 8.14032C73.9902 8.52032 73.0402 8.89031 71.8902 9.25031L71.3602 8.39032C72.5002 8.10032 73.5002 7.75031 74.3602 7.35031C75.0402 7.03031 75.6502 6.65031 76.1902 6.22031C76.1702 6.14031 76.1402 6.0503 76.1202 5.9603C76.0902 5.8703 76.0602 5.7803 76.0202 5.6803C75.4502 6.0703 74.9402 6.36029 74.4902 6.55029C73.8202 6.85029 72.9702 7.1503 71.9402 7.4303L71.4502 6.61032C72.4602 6.39032 73.3502 6.12029 74.1102 5.80029C74.6802 5.57029 75.1902 5.30032 75.6502 4.98032C75.5702 4.86032 75.4802 4.73031 75.3902 4.60031C74.4802 4.98031 73.4202 5.3003 72.2202 5.5603L71.6902 4.7403C72.9902 4.5003 74.0202 4.2503 74.7602 3.9903C75.0702 3.8803 75.3702 3.76032 75.6402 3.64032H72.7202V2.82031H79.2702H79.2602ZM76.4302 1.3103H80.5302V3.33032H79.5902V2.17032H72.4302V3.33032H71.4902V1.3103H75.3602C75.2302 1.1103 75.1102 0.910306 74.9702 0.720306L76.0702 0.570312C76.2002 0.790312 76.3102 1.0403 76.4402 1.3103H76.4302Z" fill="#3E3A39"/>
<path d="M14.5002 25.0703L15.2302 24.1903L17.0302 25.5303C16.9102 25.6703 16.6902 25.7703 16.3702 25.8203C16.0502 30.4603 15.4002 31.2803 13.1202 31.2803C13.1202 30.2403 12.8802 29.9703 11.6802 29.7203L11.7002 29.4803L13.3302 29.5003C13.5902 29.5003 13.7002 29.5003 13.8402 29.4003C14.2102 29.0903 14.4902 27.7903 14.6602 25.4203H14.0802C13.2102 27.9503 11.5302 29.8703 8.86017 31.2503L8.69019 30.9603C10.5302 29.5503 11.6602 27.6303 12.2802 25.4203H11.6702C10.7202 27.4603 9.04019 29.1403 6.88019 30.3303L6.68018 30.0803C8.18018 28.8603 9.33021 27.1603 10.0302 25.4203H9.38019C8.56019 26.3703 7.5802 27.2603 6.5202 27.8503L6.3302 27.6803C7.3702 26.6603 8.35021 24.9103 8.90021 23.3803H7.46021C7.6802 23.6703 7.7702 23.9603 7.7702 24.2103C7.7702 24.7403 7.38019 25.1103 6.94019 25.1103C6.72019 25.1103 6.48021 25.0103 6.28021 24.7703C6.20021 24.0403 5.7902 23.0903 5.3302 22.4103V30.7003C5.3302 30.7003 5.09018 31.2403 3.56018 31.2403V24.1703C2.91018 25.2903 2.12016 26.3303 1.16016 27.2303L0.940186 27.0103C2.20019 25.0403 2.98018 22.3903 3.37018 19.8403H1.1402L1.06018 19.5003H3.56018V15.3203L6.01019 15.5403C5.98019 15.7903 5.8402 15.9103 5.3302 15.9803V19.5003H5.62018L6.4502 18.2303L7.9502 19.5403C7.8102 19.7603 7.59019 19.8503 7.13019 19.8503H5.3302V22.1103C6.1802 22.3803 6.76021 22.7103 7.15021 23.0503H14.5302L15.4302 21.8603L17.1102 23.0803C16.9702 23.3003 16.7702 23.3903 16.3102 23.3903H10.8502L11.2202 23.4603C11.1702 23.6503 11.0302 23.7303 10.6102 23.7203C10.3402 24.1803 10.0302 24.6403 9.66016 25.1003H14.5202L14.5002 25.0703ZM9.86017 21.2303V21.6503C9.86017 21.7703 9.32018 22.1403 8.43018 22.1403H8.1402V15.6303L10.0402 16.3803H13.6102L14.3602 15.4103L16.2102 16.7503C16.0902 16.8903 15.9202 16.9903 15.5502 17.0403V21.6103C15.5502 21.6803 14.9702 22.0203 14.0702 22.0203H13.7502V21.2203H9.86017V21.2303ZM13.7502 16.7103H9.86017V18.6103H13.7502V16.7103ZM9.86017 20.8903H13.7502V18.9503H9.86017V20.8903Z" fill="#C9A063"/>
<path d="M24.5802 21.4102L26.1902 22.7903C26.0902 22.9603 25.9302 23.0102 25.5602 23.0502C24.7302 25.8202 22.9902 28.3702 19.7502 29.8802L19.6602 29.6302C22.0102 27.9502 23.2602 25.2802 23.7702 22.5202H19.8802L19.7802 22.1802H23.8102L24.5702 21.4203L24.5802 21.4102ZM29.3702 19.6802C29.2502 19.8202 29.0302 19.9502 28.6902 20.0202C28.6902 20.0902 29.0602 22.1603 30.3602 24.0103C31.5302 22.7703 32.7902 21.0903 33.4202 19.9803L35.5402 21.3603C35.4702 21.4803 35.3702 21.5602 35.1502 21.5602C35.0802 21.5602 34.9802 21.5402 34.8802 21.5302C33.8402 22.4002 32.2102 23.5203 30.6002 24.3303C32.0302 26.2303 33.9502 27.3102 35.8002 28.0202L35.7502 28.2102C35.0002 28.3602 34.4602 29.0303 34.2202 29.8903C31.4802 28.1103 29.6302 25.7902 28.7002 21.0202V28.9803C28.7002 30.2003 28.3402 31.0903 26.1302 31.2603C26.1302 29.6803 25.2102 29.5403 23.9902 29.3903V29.1902H26.5602C26.7802 29.1902 26.8702 29.1002 26.8702 28.9402V19.5902H22.2602L22.1602 19.2502H26.6802L27.4302 18.2802L29.3802 19.6902L29.3702 19.6802ZM24.5102 15.2903C24.8302 15.2703 25.1202 15.2603 25.4102 15.2603C28.9802 15.2603 30.1702 16.5902 30.1702 17.5002C30.1702 18.0102 29.8302 18.3802 29.3002 18.3802C29.1602 18.3802 29.0102 18.3603 28.8602 18.2903C28.2602 17.4403 26.7002 16.2002 24.4602 15.5002L24.5102 15.2802V15.2903Z" fill="#C9A063"/>
<path d="M52.5602 29.0803L54.3602 30.3403C54.2202 30.5603 54.0202 30.6503 53.5402 30.6503H38.5602L38.4602 30.3103H43.8302V30.2903C43.5702 30.2603 43.3002 30.1403 43.1202 29.8303C43.1402 29.7303 43.1402 29.6303 43.1402 29.5203C43.1402 28.9803 42.9902 28.3803 42.7502 27.9703C42.2902 28.3403 41.5802 28.3403 41.1202 28.3403V24.3603L43.0102 25.0903H49.7802L50.4902 24.1703L52.3102 25.4603C52.2102 25.6103 52.0602 25.7003 51.7002 25.7503V27.8403C51.7002 27.9103 51.1202 28.2303 50.2202 28.2303H49.9002V27.7003H42.8502V27.8403L42.8702 27.8203C44.4802 28.2403 45.0102 28.8603 45.0102 29.3703C45.0102 29.8503 44.5702 30.2203 44.0902 30.2703V30.2903H47.8102C48.0302 29.5903 48.3002 28.5703 48.4602 27.8603L50.7902 28.6103C50.7202 28.8003 50.5502 28.8603 50.1402 28.8303C49.6602 29.2703 48.9202 29.8503 48.2402 30.2903H51.6102L52.5802 29.0703L52.5602 29.0803ZM38.9102 23.4503H51.3502L51.9302 22.7003H51.5002V21.9503H41.2502V22.4103C41.2502 22.4103 40.9902 22.8503 39.6702 22.8503V15.7103L41.8802 15.9003C41.8502 16.1203 41.7302 16.2403 41.2502 16.2903V21.6103H42.7002V20.2703H41.6802L41.5902 19.9503H42.7002V18.7603H41.8802L41.7802 18.4203H42.7002V17.2803H41.7502L41.6602 16.9403H42.7002V15.5303L44.3802 15.6803C44.3602 15.8703 44.2302 15.9503 43.8202 16.0203V16.9403H44.1302L44.5202 16.4103L45.3902 16.9903C45.2702 17.2103 45.0702 17.2803 44.6802 17.2803H43.8302V18.4203H44.1002L44.4702 17.9403L45.2202 18.4803C45.1002 18.6803 44.9102 18.7503 44.5402 18.7503H43.8302V19.9403H44.2202L44.6302 19.3803L45.4602 19.9903C45.3602 20.2103 45.1402 20.2603 44.7602 20.2603H43.8302V21.6003H45.5602V15.2803L47.8402 15.4803C47.8102 15.7203 47.6502 15.8203 47.1802 15.8903V21.6003H48.6402V20.2603H47.5402L47.4502 19.9403H48.6402V18.7503H47.7002L47.6002 18.4103H48.6402V17.2703H47.5902L47.5002 16.9303H48.6402V15.5203L50.3202 15.6603C50.3002 15.8603 50.1702 15.9503 49.7802 16.0003V16.9303H50.0902L50.5102 16.4003L51.3602 16.9803C51.2402 17.2003 51.0402 17.2703 50.6502 17.2703H49.7802V18.4103H50.0002L50.3702 17.9203L51.1502 18.4803C51.0302 18.6803 50.8402 18.7503 50.4402 18.7503H49.7802V19.9403H50.1502L50.5602 19.3803L51.4102 19.9903C51.2702 20.2103 51.0902 20.2603 50.6802 20.2603H49.7802V21.6003H51.5102V15.7003L53.7402 15.8903C53.7102 16.0903 53.6002 16.2303 53.1302 16.2803V22.1803C53.1302 22.2603 52.9302 22.4003 52.6502 22.5003L54.0102 23.4903C53.8702 23.7103 53.6702 23.7803 53.2102 23.7803H39.0202L38.9202 23.4403L38.9102 23.4503ZM49.8902 25.4403H42.8402V27.3803H49.8902V25.4403Z" fill="#C9A063"/>
</svg>
