<?xml version="1.0" encoding="utf-8"?>
<!-- Generator: Adobe Illustrator 25.2.3, SVG Export Plug-In . SVG Version: 6.00 Build 0)  -->
<svg version="1.1" id="圖層_1" xmlns="http://www.w3.org/2000/svg" xmlns:xlink="http://www.w3.org/1999/xlink" x="0px" y="0px"
	 viewBox="0 0 280 70" style="enable-background:new 0 0 280 70;" xml:space="preserve">
<style type="text/css">
	.st0{fill:#C9A063;}
	.st1{fill:#C79F62;}
</style>
<path class="st0" d="M9.6,7.9c0.3,0.3,0.5,0.5,0.6,0.6V7c0-1.5-0.1-2.4-0.2-2.6l1.7,0.7h1.2c0.3-0.8,0.4-1.6,0.6-2.5h-1.3
	c-1.3,0-2.1,0.1-2.5,0.3C9.6,2.5,9.4,2.2,9.2,1.8C9.7,1.9,10.6,2,11.8,2h5c0.5-0.6,0.9-1,1.2-1.2h0.1c0.1,0.1,0.3,0.2,0.4,0.3
	c0.7,0.6,1.1,1,1.1,1.2s-0.1,0.3-0.2,0.3h-3.8c-0.5,0.9-1.1,1.7-1.9,2.5h2.7c0.5-0.5,0.9-0.8,1-0.8c0.2,0,0.5,0.2,1,0.6
	s0.7,0.6,0.7,0.8c0,0.1-0.1,0.2-0.3,0.4c-0.3,0.2-0.5,0.4-0.5,0.4v5.1c0.1,2,0.1,3.2,0.1,3.8c0,0.4-0.3,0.7-1,0.7
	c-0.5,0-0.8-0.1-0.8-0.4v-0.5h-4.7v0.2c-0.1,0.4-0.5,0.6-1.2,0.6c-0.4,0-0.7-0.1-0.8-0.2c0-1.8,0-3.5,0.1-5.3V9.1H9.9
	C9.8,9.2,9.4,9.2,9,9.2c-0.6,0.8-1.4,1.7-2.4,2.6c-0.1-0.1-0.2-0.1-0.2-0.2C6.8,10.4,7,9.3,7.2,8.5H5.6v8.8c0,1.3-0.8,2-2.4,2.2
	c-0.1,0-0.2-0.2-0.3-0.5c-0.1-0.5-0.3-0.8-0.7-0.9c-0.4-0.2-0.7-0.4-1-0.5c0-0.1,0-0.2,0-0.3c0.4,0,1,0.1,1.9,0.1
	c0.4,0,0.6-0.1,0.6-0.4V8.6H2.1c-0.5,0-1,0.1-1.4,0.2c-0.1-0.3-0.2-0.6-0.3-1C0.9,8,1.4,8,2,8h5.1c0.6-0.5,1-0.8,1.3-0.8
	C8.7,7.1,9.1,7.4,9.6,7.9z M9,2.1C9.5,2.5,9.7,2.8,9.7,3S9.6,3.3,9.4,3.3C9.3,3.4,9,3.4,8.5,3.4C7.8,4.1,6.9,4.9,5.9,5.7
	c0.2,0.3,0.4,0.6,0.4,1c0,0.3,0,0.5-0.1,0.6C6.1,7.7,5.8,7.8,5.5,7.8S4.9,7.4,4.4,6.6C4,5.8,3.4,5.2,2.8,4.7c0,0,0.1-0.1,0.1-0.2
	c1.1,0.1,2,0.4,2.5,0.8C6,4.4,6.4,3.6,6.7,3H2.5C2.1,3,1.7,3.1,1.3,3.2C1.2,2.9,1.1,2.5,1,2.2c0.4,0.2,0.9,0.2,1.3,0.2h4.2
	c0.6-0.6,1-0.9,1.2-0.9C8.1,1.4,8.5,1.7,9,2.1z M14.4,17.4c0,0.2-0.4,0.2-1.1,0.2c-1.6,0.9-3.5,1.7-5.6,2.3
	c-0.1-0.1-0.3-0.1-0.4-0.1c2.1-1,3.8-2.3,4.9-3.8C13.7,16.7,14.4,17.2,14.4,17.4z M16.8,8.1V5.6h-4.7v2.5H16.8z M16.8,11.2V8.6h-4.7
	v2.6C12.1,11.2,16.8,11.2,16.8,11.2z M16.8,14.6v-2.8h-4.7v2.8H16.8z M19.6,18.5c0,0.4-0.1,0.6-0.1,0.7c-0.1,0.3-0.4,0.5-0.8,0.5
	s-0.8-0.5-1.5-1.4c-0.8-0.9-1.7-1.6-2.6-2c0.1,0,0.1,0,0.1-0.1C17.9,16.6,19.5,17.4,19.6,18.5z"/>
<path class="st0" d="M35.1,1.8c0.6-0.6,1-0.9,1.2-0.9s0.6,0.3,1.2,0.7C38,2,38.3,2.3,38.3,2.5c0,0.1-0.1,0.3-0.3,0.4
	c-0.4,0.3-0.6,0.4-0.6,0.5v5.4c0.1,2.1,0.1,3.5,0.1,4.1c0,0.5-0.4,0.8-1.2,0.8c-0.6,0-0.9-0.1-0.9-0.4v-0.7h-1.8V17
	c0.1,0.5,0.4,0.8,0.8,0.8h3c0.6,0,0.9-0.4,1-1.3c0.2-1.1,0.4-2,0.5-2.7c0.1,0,0.3,0,0.4,0v2.7c0,0.4,0.1,0.7,0.4,0.9
	c0.4,0.2,0.7,0.5,0.7,0.7c0,0.5-0.4,0.8-1.1,1c-0.6,0.1-1.7,0.2-3.1,0.3c-1.1,0-1.9,0-2.2,0c-1.5-0.1-2.3-0.8-2.3-2v-4.7h-1.4
	c-0.2,1.2-0.4,2-0.7,2.5c-1.1,2.4-3.5,3.9-7.3,4.5c0-0.1-0.1-0.2-0.2-0.3c2.9-0.9,4.8-2.4,5.8-4.6c0.3-0.7,0.4-1.4,0.5-2.1h-1.8v0.5
	c-0.1,0.5-0.5,0.7-1.2,0.7c-0.5,0-0.7-0.1-0.8-0.2c0-2,0-3.9,0.1-5.8V4.1c0-1.6-0.1-2.6-0.2-2.9L26.6,2h8.5V1.8z M35.5,2.3h-8.9v2.8
	h8.9V2.3z M26.5,8.4h8.9V5.6h-8.9C26.5,5.6,26.5,8.4,26.5,8.4z M35.5,9h-8.9v3h8.9V9z"/>
<path class="st0" d="M51.6,13.9l-0.4-0.4c0.8-0.7,1.2-1.3,1.2-2c0-0.1-0.1-0.2-0.3-0.2c-1-0.2-1.5-0.7-1.5-1.5c0-0.4,0.1-0.7,0.4-1
	s0.7-0.5,1.2-0.5s0.9,0.2,1.2,0.6c0.2,0.3,0.4,0.7,0.4,1.1C53.8,11.6,53.1,12.9,51.6,13.9z"/>
<path class="st0" d="M64.1,6.3C64,6,63.8,5.7,63.7,5.2c0.3,0.1,1.4,0.2,3.2,0.3v-3c0-0.6-0.1-1.2-0.2-1.9c0.7,0.1,1.3,0.2,2.1,0.3
	c0.5,0.1,0.8,0.2,0.8,0.4c0,0.1-0.1,0.2-0.4,0.3c-0.4,0.1-0.5,0.2-0.5,0.3v3.6H69c0.5-0.8,0.8-1.3,1-1.3c0.1,0,0.3,0.2,0.7,0.7
	c0.3,0.4,0.5,0.7,0.6,0.9c0,0.2-0.1,0.3-0.3,0.3h-2.3v1.2c1.7,0.8,2.6,1.6,2.6,2.4c0,0.4-0.1,0.7-0.4,0.8c-0.2,0.1-0.4,0.2-0.6,0.2
	c-0.4,0-0.7-0.4-0.8-1.2c-0.2-0.7-0.5-1.3-0.9-1.7v6.9c0,2.2,0,3.7,0.1,4.7c0,0.3-0.4,0.5-1.3,0.5c-0.5,0-0.7-0.1-0.7-0.4
	c0-0.8,0.1-2.4,0.1-4.9v-4.5c-0.9,2-1.8,3.5-2.9,4.6c-0.1,0-0.2-0.1-0.3-0.2c1.5-2.5,2.5-5.2,2.9-8.4C64.9,6.2,64.1,6.3,64.1,6.3z
	 M76.6,1.6c0,0.1-0.1,0.2-0.3,0.3c-0.4,0.2-0.7,0.3-0.7,0.4v6.9c0,5.6-1.8,9.1-5.5,10.5c-0.1-0.1-0.1-0.2-0.2-0.3
	c1.4-1.2,2.4-2.6,2.9-4.1c0.4-0.9,0.7-2.3,0.9-4.3c-0.5,0.6-1.1,1.2-1.7,1.8c0,0.1-0.1,0.4-0.1,0.9c0,0.1-0.1,0.2-0.2,0.2
	c-0.2,0-0.8-0.8-1.6-2.3c0.5,0,1.7-0.5,3.7-1.5c0-0.7,0.1-1.5,0.1-2.4V3c0-0.9-0.1-1.6-0.2-2.2C75.6,1.1,76.6,1.4,76.6,1.6z
	 M73.4,7.3c0,0.7-0.3,1-0.8,1S71.9,8,71.9,7.5c0-0.3-0.1-0.7-0.1-1.2c-0.1-0.5-0.2-1-0.4-1.6c-0.2-0.5-0.3-0.8-0.4-1
	c0.1-0.1,0.2-0.2,0.3-0.2C72.6,4.8,73.4,6,73.4,7.3z M79.7,1.7c0,0.1-0.1,0.2-0.3,0.3c-0.4,0.1-0.6,0.3-0.7,0.4v4.9
	c0.8-1.1,1.4-2.4,1.7-3.7c0.3,0.2,0.9,0.5,1.7,1c0.4,0.3,0.6,0.5,0.6,0.6s-0.1,0.2-0.3,0.2c-0.4,0-0.7,0.1-0.8,0.1
	c-0.4,0.5-0.8,1-1.3,1.4s-1,0.8-1.5,1v1.9c0.9,0.2,1.7,0.5,2.3,0.8c0.9,0.5,1.4,1,1.4,1.5s-0.1,0.8-0.2,0.9
	c-0.1,0.3-0.4,0.4-0.7,0.4c-0.2,0-0.5-0.4-0.9-1.1c-0.6-0.9-1.2-1.6-1.8-2v6.6c0,0.5,0.2,0.7,0.6,0.7h0.6c0.6,0,1-0.4,1.2-1.3
	c0.3-1,0.5-1.6,0.5-1.9c0.1,0,0.2,0,0.3,0c0,0,0,0.8,0,2.3c0,0.3,0.1,0.5,0.3,0.6c0.3,0.2,0.5,0.4,0.5,0.6c0,0.5-0.4,0.8-1.1,1
	c-0.4,0.1-0.9,0.2-1.6,0.2c-0.8,0-1.2,0-1.4-0.1c-1.2-0.1-1.8-0.8-1.8-2V2.5c0-0.6,0-1.2-0.1-1.8C78.8,1.2,79.7,1.5,79.7,1.7z"/>
<path class="st0" d="M88.3,8.1c0.1,0.7,0.2,1.3,0.3,2.1c0,3.3-0.9,5-2.8,5.1c-0.8,0-1.2-0.3-1.2-0.8c0-0.3,0-0.6,0.1-0.7
	c0.1-0.2,0.5-0.7,1.4-1.4c1-0.9,1.6-2.3,1.8-4.2C88.1,8.1,88.2,8.1,88.3,8.1z M93.8,5.9c0,0.3-0.4,0.5-1.2,0.8v9.4
	c0,0.7,0.4,1,1.1,1.1h2.9c0.8,0,1.4-0.4,1.7-1.1c0.2-0.5,0.5-1.6,0.8-3.3c0.3,0,0.4,0,0.4,0V16c0,0.3,0.2,0.5,0.6,0.6
	c0.4,0.3,0.7,0.5,0.7,0.8c0,0.7-0.7,1.2-2,1.4C97.9,18.9,97,19,96.1,19c-1.9,0-3.1,0-3.6-0.1c-1.2-0.1-1.8-1.1-1.8-3.1V7.5
	c0-1.1-0.1-1.9-0.2-2.3C92.6,5.4,93.8,5.7,93.8,5.9z M97.5,3.8c0,0.6-0.1,1-0.3,1.3c-0.2,0.2-0.4,0.3-0.7,0.3c-0.5,0-1-0.5-1.5-1.5
	c-0.8-1.1-1.8-2.2-3.3-3.1c0-0.1,0.1-0.2,0.1-0.3C95.5,1.5,97.4,2.6,97.5,3.8z M103.8,12.8c0,0.6-0.1,1-0.3,1.3
	c-0.2,0.3-0.5,0.4-0.9,0.4c-0.6,0-0.9-0.6-1.1-1.8c-0.5-2.2-1.2-3.8-2.2-5l0.3-0.2C102.3,9.5,103.7,11.2,103.8,12.8z"/>
<path class="st0" d="M111.9,6c0.7,0.6,1.1,1,1.2,1.2c0,0.2-0.1,0.3-0.2,0.3h-2.8v5.7c0.9-0.3,1.9-0.7,2.9-1.1
	c0.1,0.1,0.1,0.2,0.1,0.3c-1.5,1.4-3.4,2.6-5.6,3.6c-0.1,0.2-0.2,0.5-0.2,0.9c0,0.2-0.1,0.3-0.3,0.3s-0.5-0.5-1-1.6
	c-0.2-0.5-0.4-1-0.6-1.3c0.9-0.1,1.8-0.3,2.8-0.6V7.5h-0.3c-0.9,0-1.6,0.1-2,0.1c-0.1-0.2-0.2-0.5-0.3-0.8c0.4,0.1,1.2,0.1,2.3,0.1
	h0.3V3.6c0-0.9,0-1.7-0.1-2.2c2,0.3,3,0.5,3,0.8c0,0.2-0.1,0.3-0.4,0.3c-0.4,0.2-0.6,0.3-0.6,0.4v4h0.4c0.3-0.4,0.5-0.7,0.8-1
	c0.1-0.1,0.1-0.1,0.2-0.1S111.8,5.9,111.9,6z M119.6,1.1c0.5,0.1,0.8,0.2,0.8,0.4c0,0.1-0.1,0.2-0.4,0.3c-0.4,0.1-0.5,0.2-0.5,0.3V6
	c0.7-0.2,1.3-0.4,2.1-0.7c0.4-0.9,0.8-1.3,1-1.3c1.3,0.5,2,0.9,2,1.1s-0.2,0.4-0.5,0.6c-0.2,0.1-0.3,0.2-0.4,0.3
	c0,3.9-0.3,6.3-0.6,6.9c-0.5,1-1.2,1.4-2.2,1.4c-0.1,0-0.3-0.3-0.3-0.6c-0.1-0.4-0.3-0.7-0.6-0.9c-0.2-0.1-0.4-0.2-0.5-0.3
	c0,1.2,0,2,0.1,2.6c0,0.3-0.4,0.5-1.3,0.5c-0.5,0-0.7-0.1-0.7-0.4c0-0.8,0.1-2.4,0.1-4.9V7c-0.9,0.3-1.6,0.5-2.2,0.7v8.8
	c0.2,0.5,1.2,0.7,3.1,0.7h3.4c0.5,0,0.8-0.4,1-1.3c0.3-1,0.4-1.6,0.4-1.9c0.1,0,0.2,0,0.3,0c0,0,0.1,0.8,0.1,2.3
	c0,0.3,0.1,0.5,0.4,0.6c0.4,0.2,0.6,0.4,0.6,0.7c0,0.5-0.4,0.8-1.1,1c-1,0.1-2.5,0.2-4.3,0.2c-2.1,0-3.4,0-3.9-0.1
	c-1.2-0.1-1.8-0.8-1.8-2V8.2c-0.7,0.2-1,0.4-1.2,0.5c-0.1-0.2-0.3-0.5-0.7-1c0.4,0,1-0.1,1.8-0.3V3.5c0-0.6,0-1.2-0.1-1.8
	c1.9,0.3,2.9,0.6,2.9,0.8c0,0.1-0.1,0.2-0.3,0.3c-0.4,0.1-0.6,0.3-0.7,0.4v3.9c0.7-0.2,1.4-0.4,2.2-0.7V2.5c0-0.6-0.1-1.3-0.2-1.9
	C118.1,0.8,118.8,0.9,119.6,1.1z M120.5,12.4c0.6,0,0.9-0.2,1-0.5c0.2-0.7,0.3-2.7,0.3-5.9c-0.9,0.3-1.7,0.5-2.4,0.7v3.9
	c0,0.6,0,1.2,0,1.6C119.9,12.3,120.2,12.4,120.5,12.4z"/>
<path class="st0" d="M143.3,1.5c1,0.8,1.4,1.3,1.4,1.6c0,0.2-0.1,0.3-0.2,0.3h-7.3v6.5h2.9c0.7-0.9,1.2-1.4,1.5-1.6
	c0.1,0,0.1,0,0.2,0c0.2,0.1,0.4,0.2,0.6,0.4c1,0.8,1.4,1.3,1.4,1.5s-0.1,0.3-0.2,0.3h-6.4v7.3h4.7c0.7-0.9,1.2-1.5,1.6-1.7
	c0.1,0,0.1,0,0.2,0c0.2,0.1,0.4,0.2,0.6,0.4c1,0.9,1.6,1.4,1.6,1.7c0,0.2-0.1,0.3-0.2,0.3H132c-2.5,0-4.1,0.1-4.6,0.3
	c-0.1-0.4-0.3-0.7-0.5-1.1c1,0.1,2.7,0.2,5.1,0.2h3.1v-7.3h-2c-1.9,0-3.1,0.1-3.6,0.3c-0.1-0.4-0.3-0.7-0.5-1.1
	c0.7,0.1,2,0.2,3.8,0.2h2.3V3.5h-2.6c-2.2,0-3.5,0.1-4.1,0.3c-0.1-0.4-0.3-0.7-0.5-1.1c0.9,0.1,2.4,0.2,4.5,0.2h8.6
	c0.7-0.9,1.2-1.4,1.5-1.6c0.1,0,0.1,0,0.2,0C142.9,1.3,143.1,1.4,143.3,1.5z"/>
<path class="st0" d="M7.9,30c0.7,0.7,1.2,1.1,1.3,1.3c0,0.2-0.1,0.3-0.2,0.3H7.7v14.3c0,0.8,0.1,1.7,0.1,2.8c0,0.2-0.3,0.4-1,0.4
	C6.3,49.1,6,49,6,48.8c0-0.6,0.1-1.6,0.1-3v-7.4c-0.9,0.5-2.3,1-4,1.5c-0.1,0.5-0.2,0.8-0.4,0.8c-0.1,0-0.2-0.2-0.4-0.7
	s-0.4-1-0.5-1.8c0.3,0.1,0.8,0.1,1.4,0.1v-6.8c-0.5,0-0.8,0.1-1.1,0.1c-0.1-0.2-0.2-0.5-0.3-0.8c0.4,0.1,1.2,0.1,2.3,0.1h3.5
	c0.3-0.4,0.6-0.8,0.9-1.1c0.1-0.1,0.2-0.1,0.2-0.1C7.6,29.8,7.8,29.9,7.9,30z M5.3,43.2c0.3,0.4,0.4,0.6,0.4,0.7s-0.1,0.2-0.1,0.2H4
	V46c0.6-0.1,1.1-0.2,1.5-0.4c0,0,0,0.1,0.1,0.1c-0.9,0.8-2.1,1.5-3.7,2.1c0,0.3-0.1,0.5-0.1,0.5c-0.1,0-0.2-0.2-0.4-0.5
	C1.2,47.5,1,47,0.7,46.3c0.7,0,1.3-0.1,1.9-0.2V44c-0.6,0-1,0.1-1.2,0.1c-0.1-0.2-0.2-0.4-0.3-0.8c0.2,0,0.6,0.1,1.2,0.1h0.4v-2.1
	c-0.7,0-1.2,0.1-1.4,0.2c-0.1-0.2-0.2-0.4-0.3-0.8c0.2,0,0.6,0.1,1.2,0.1H4c0.5-0.6,0.8-0.9,0.9-0.9s0.3,0.2,0.5,0.5
	c0.3,0.4,0.5,0.7,0.5,0.8s-0.1,0.2-0.1,0.2H4.1v2.1c0.4-0.5,0.7-0.8,0.8-0.8C4.9,42.8,5.1,42.9,5.3,43.2z M6,33.2v-1.7H3.8v1.7H6z
	 M6,35.6v-1.8H3.8v1.8H6z M6,37.9v-1.8H3.8v2.1C4.7,38.2,5.4,38.1,6,37.9z M10.1,43.2c0,0.4,0.1,0.9,0.1,1.7c0,1.7-0.4,2.6-1.3,2.6
	c-0.7,0-1-0.2-1-0.7c0-0.4,0.2-0.8,0.7-1.1c0.2-0.2,0.5-0.5,0.8-1c0.2-0.4,0.3-0.9,0.5-1.5H10.1z M18.7,39.7c0.7,0.6,1.1,1,1.1,1.2
	s-0.1,0.3-0.2,0.3h-8.3c-1.5,0-2.5,0.1-2.8,0.3c-0.1-0.4-0.3-0.7-0.5-1.1c0.6,0.1,1.6,0.2,3.1,0.2H17c0.5-0.6,0.9-1,1.2-1.2h0.1
	C18.4,39.5,18.5,39.6,18.7,39.7z M18.3,31.1c0.8,0.7,1.2,1.1,1.2,1.3s-0.1,0.3-0.2,0.3h-4.9v1.7h2.4c0.4-0.4,0.7-0.6,0.9-0.7
	c0.1,0,0.4,0.2,0.9,0.5c0.4,0.3,0.6,0.5,0.6,0.7c0,0.1-0.1,0.2-0.3,0.3c-0.3,0.2-0.5,0.3-0.6,0.4v1.9c0.1,0.7,0.1,1.2,0.1,1.4
	c0,0.4-0.3,0.5-0.9,0.5c-0.4,0-0.7-0.1-0.7-0.3V39h-6.3v0.3c-0.1,0.3-0.4,0.5-0.9,0.5c-0.3,0-0.5,0-0.6-0.2c0-0.9,0-1.8,0.1-2.6
	v-1.7C9.1,34.6,9,34.1,9,34l1.2,0.5h2.5v-1.7h-1.3c-1.4,0-2.4,0.1-2.7,0.3c-0.1-0.4-0.3-0.7-0.5-1.1c0.5,0.1,1.5,0.2,2.8,0.2h1.7V32
	c0-0.9,0-1.6-0.1-2.1c1.8,0.3,2.8,0.5,2.8,0.7s-0.1,0.3-0.3,0.3c-0.4,0.2-0.6,0.3-0.6,0.4v0.9h2c0.6-0.7,1-1.2,1.3-1.3
	c0,0,0.1,0,0.2,0C18,30.9,18.2,31,18.3,31.1z M11.8,35h-1.2v3.5h1.2V35z M13.4,43.5c0,0.1-0.1,0.2-0.2,0.3c-0.3,0.1-0.5,0.2-0.5,0.3
	v2.5c0,0.3,0.5,0.4,1.6,0.4s1.6-0.1,1.7-0.4c0.1-0.3,0.2-0.7,0.3-1.1c0.1-0.4,0.1-0.7,0.2-1c0.1,0,0.2,0,0.3,0
	c0,0.5-0.1,1.1-0.1,1.7c0.1,0.3,0.2,0.5,0.5,0.7c0.3,0.1,0.4,0.3,0.4,0.5c0,0.4-0.3,0.7-0.7,0.8c-0.6,0.1-1.4,0.2-2.4,0.2
	c-1.1,0-1.8,0-2.1-0.1c-0.8,0-1.2-0.5-1.2-1.5v-2.5c0-0.7,0-1.2-0.1-1.5C12.6,43.1,13.4,43.3,13.4,43.5z M15.5,43.1
	c0,0.3,0,0.5-0.1,0.6c-0.1,0.3-0.4,0.5-0.7,0.5c-0.2,0-0.5-0.3-0.9-1S13,42,12.5,41.6c0,0,0.1-0.1,0.1-0.2
	C14.5,41.7,15.4,42.2,15.5,43.1z M14.3,35H13v3.5h1.3V35z M16.8,35h-1.3v3.5h1.3V35z M19.6,46c0,0.4-0.1,0.7-0.4,0.9
	c-0.2,0.1-0.4,0.2-0.6,0.2c-0.4,0-0.6-0.5-0.7-1.5c-0.2-1.1-0.5-1.9-1-2.6c0,0,0.1-0.1,0.2-0.2C18.8,43.9,19.6,45,19.6,46z"/>
<path class="st0" d="M35.1,31c0.6-0.6,1-0.9,1.2-0.9s0.6,0.3,1.2,0.7c0.5,0.4,0.8,0.7,0.8,0.9c0,0.1-0.1,0.3-0.3,0.4
	c-0.4,0.3-0.6,0.4-0.6,0.5V38c0.1,2.1,0.1,3.5,0.1,4.1c0,0.5-0.4,0.8-1.2,0.8c-0.6,0-0.9-0.1-0.9-0.4v-0.7h-1.8v4.4
	c0.1,0.5,0.4,0.8,0.8,0.8h3c0.6,0,0.9-0.4,1-1.3c0.2-1.1,0.4-2,0.5-2.7c0.1,0,0.3,0,0.4,0v2.7c0,0.4,0.1,0.7,0.4,0.9
	c0.4,0.2,0.7,0.5,0.7,0.7c0,0.5-0.4,0.8-1.1,1c-0.6,0.1-1.7,0.2-3.1,0.3c-1.1,0-1.9,0-2.2,0c-1.5-0.1-2.3-0.8-2.3-2v-4.7h-1.4
	c-0.2,1.2-0.4,2-0.7,2.5c-1.1,2.4-3.5,3.9-7.3,4.5c0-0.1-0.1-0.2-0.2-0.3c2.9-0.9,4.8-2.4,5.8-4.6c0.3-0.7,0.4-1.4,0.5-2.1h-1.8v0.5
	c-0.1,0.5-0.5,0.7-1.2,0.7c-0.5,0-0.7-0.1-0.8-0.2c0-2,0-3.9,0.1-5.8v-3.8c0-1.6-0.1-2.6-0.2-2.9l2.1,0.8h8.5
	C35.1,31.2,35.1,31,35.1,31z M35.5,31.5h-8.9v2.8h8.9V31.5z M26.5,37.6h8.9v-2.8h-8.9C26.5,34.8,26.5,37.6,26.5,37.6z M35.5,38.2
	h-8.9v3h8.9V38.2z"/>
<path class="st0" d="M51.6,43.1l-0.4-0.4c0.8-0.7,1.2-1.3,1.2-2c0-0.1-0.1-0.2-0.3-0.2c-1-0.2-1.5-0.7-1.5-1.5c0-0.4,0.1-0.7,0.4-1
	s0.7-0.5,1.2-0.5s0.9,0.2,1.2,0.6c0.2,0.3,0.4,0.7,0.4,1.1C53.8,40.8,53.1,42.1,51.6,43.1z"/>
<path class="st0" d="M75.5,30.6c0,0.2-0.1,0.3-0.4,0.4c-0.4,0.2-0.7,0.4-0.7,0.5v4h3.5c0.6-0.9,1.1-1.4,1.3-1.6h0.1
	c0.2,0.1,0.5,0.3,0.9,0.7c0.6,0.6,1,1,1,1.2s-0.1,0.3-0.1,0.3h-6.8v4.7h2.9c0.6-0.8,1.1-1.3,1.4-1.4c0.1,0,0.1,0,0.2,0
	c0.2,0.1,0.3,0.2,0.5,0.3c0.9,0.8,1.3,1.2,1.3,1.4s-0.1,0.3-0.2,0.3h-6.1v6h4.4c0.7-0.9,1.2-1.5,1.6-1.7c0.1,0,0.1,0,0.2,0
	c0.2,0.1,0.4,0.2,0.6,0.4c1,0.9,1.6,1.4,1.6,1.7c0,0.2-0.1,0.3-0.2,0.3H69c-2.5,0-4,0.1-4.6,0.2c-0.1-0.4-0.3-0.7-0.5-1.1
	c1,0.1,2.7,0.2,5.1,0.2h3.3v-6h-2.2c-1.9,0-3,0.1-3.5,0.3c-0.1-0.4-0.3-0.7-0.5-1.1c0.8,0.1,2,0.2,3.8,0.2h2.4V36h-4.2
	c-1,1.8-2.2,3.3-3.6,4.6c-0.1-0.1-0.2-0.3-0.4-0.4c1.6-2.5,2.7-5.6,3.5-9.1c2.2,0.7,3.3,1.3,3.3,1.6c0,0.2-0.5,0.4-1.5,0.4
	c-0.3,0.8-0.6,1.6-1,2.3h3.9v-3.2c0-1,0-1.8-0.1-2.4C74.4,30.1,75.5,30.4,75.5,30.6z"/>
<path class="st0" d="M86.9,35.9c1,0.5,1.6,1.2,1.6,2c0,0.5-0.1,0.8-0.4,0.9C88,38.9,87.7,39,87.4,39c-0.6,0-1-0.4-1.2-1.2
	c-0.3-0.7-0.5-1.2-0.8-1.5c-0.2-0.3-0.4-0.5-0.6-0.8c0,0,0.1-0.1,0.2-0.2C85.7,35.5,86.4,35.7,86.9,35.9z M91,34.7
	c-0.4,1.5-0.8,3.4-1.4,5.9c-0.6,2.4-0.8,3.7-0.8,4.1c0,0.4,0.1,1,0.3,1.6c0.2,0.6,0.3,1,0.3,1.3c0,0.6-0.4,1-1,1
	c-0.8,0-1.3-0.4-1.3-1.2c0-0.3,0.1-0.9,0.2-1.9c0-0.7-0.2-1.2-0.6-1.4c-0.3-0.2-0.7-0.3-1.3-0.5c0-0.2,0-0.3,0.1-0.4
	c0.3,0,0.6,0,0.9,0c0.8,0,1.3-0.4,1.6-1.3l2.8-7.4C90.6,34.7,90.8,34.7,91,34.7z M88.8,30.9c1,0.5,1.5,1.2,1.5,1.9
	c0,0.5-0.1,0.8-0.4,1c-0.1,0.1-0.3,0.2-0.6,0.2c-0.6,0-0.9-0.4-1.1-1.1c-0.3-0.7-0.5-1.2-0.8-1.5c-0.1-0.3-0.4-0.5-0.6-0.8
	c0,0,0.1-0.1,0.2-0.2C87.7,30.5,88.3,30.7,88.8,30.9z M103,31.8c0,0.2-0.1,0.3-0.4,0.3c-0.6-0.1-1.1-0.1-1.4-0.2
	c-0.9,0.3-2,0.5-3.2,0.7v4.1h2.4c0.6-0.8,1.1-1.3,1.4-1.4h0.2c0.2,0.1,0.3,0.2,0.5,0.4c0.9,0.8,1.3,1.2,1.3,1.4s-0.1,0.3-0.2,0.3H98
	v4.2h2c0.5-0.7,0.9-1,1.1-1s0.6,0.2,1.1,0.6c0.5,0.4,0.8,0.7,0.8,0.8s-0.1,0.3-0.3,0.4c-0.3,0.3-0.5,0.4-0.6,0.5V46
	c0.1,1.2,0.1,2,0.1,2.4c0,0.5-0.4,0.7-1.1,0.7c-0.5,0-0.8-0.1-0.9-0.4v-1.2h-6.3v0.9c-0.1,0.4-0.5,0.6-1.2,0.6
	c-0.4,0-0.7-0.1-0.8-0.2c0-1.3,0-2.5,0.1-3.7v-2.4c0-1-0.1-1.6-0.1-1.8l1.7,0.7H96v-4.2h-1.4c-1.7,0-2.7,0.1-3.1,0.2
	c-0.1-0.4-0.3-0.7-0.5-1.1c0.6,0.1,1.7,0.2,3.3,0.2h1.8v-3.8c-1.3,0.1-2.7,0.2-4.2,0.3c0-0.1-0.1-0.3-0.1-0.4c4-0.6,7.1-1.6,9-2.8
	C102.2,31.1,103,31.7,103,31.8z M100.2,46.9V42h-6.3v4.9H100.2z"/>
<path class="st0" d="M112.6,38.9c0,0.2-0.1,0.3-0.4,0.4c-0.4,0.2-0.5,0.3-0.5,0.4v1.2h1c0.3-0.4,0.6-0.8,0.9-1.2
	c0.1-0.1,0.2-0.2,0.3-0.2s0.2,0.1,0.4,0.2c0.8,0.7,1.2,1.2,1.3,1.4c0,0.2-0.1,0.3-0.2,0.3h-3.8v1.2c1.9,0.3,2.9,0.9,3,1.8
	c0,0.3,0,0.4-0.1,0.6c-0.1,0.3-0.4,0.5-0.7,0.5c-0.3,0-0.6-0.3-1.1-1c-0.3-0.5-0.7-0.9-1.2-1.3v5.2c0,0.3-0.4,0.5-1.2,0.6
	c-0.5,0-0.7-0.1-0.7-0.4c0-1.5,0-3.1,0-4.9c-0.9,1.5-2.3,2.7-4.1,3.7c-0.1,0-0.1-0.1-0.2-0.3c1.7-1.6,2.8-3.3,3.4-5.1
	c0.1-0.3,0.2-0.5,0.2-0.7h-0.8c-0.9,0-1.5,0.1-2,0.2c-0.1-0.3-0.2-0.5-0.3-0.8c0.4,0.1,1.2,0.1,2.3,0.1h1.5v-1.5
	c-0.1-0.5-0.1-0.9-0.1-1.2C111.5,38.4,112.4,38.6,112.6,38.9z M114.8,36.2c0.7,0.7,1.2,1.1,1.2,1.3s-0.1,0.3-0.1,0.3H108
	c-0.9,0-1.6,0.1-2,0.2c-0.1-0.2-0.2-0.5-0.3-0.8c0.4,0.1,1.2,0.1,2.3,0.1h3.3c0.5-1.3,0.7-2.6,0.8-3.9c1.7,0.6,2.5,1,2.5,1.2
	s-0.4,0.3-1.1,0.3c-0.4,0.8-0.9,1.6-1.7,2.4h1.4c0.3-0.4,0.6-0.8,0.9-1.1c0.1-0.1,0.2-0.1,0.2-0.1C114.4,36,114.6,36.1,114.8,36.2z
	 M114.2,31.6c0.8,0.7,1.2,1.1,1.3,1.3c0,0.2-0.1,0.3-0.2,0.3h-7.1c-0.9,0-1.5,0.1-2,0.2c-0.1-0.3-0.2-0.5-0.3-0.9
	c0.4,0.1,1.2,0.1,2.3,0.1h2.4c-0.2-0.1-0.4-0.4-0.7-0.9c-0.4-0.7-0.8-1.2-1.3-1.6c0.1,0,0.1-0.1,0.1-0.2c1.9,0.2,2.8,0.7,2.9,1.6
	c0,0.3,0,0.5-0.1,0.7c-0.1,0.3-0.3,0.4-0.4,0.5h1.6c0.3-0.4,0.6-0.8,0.9-1.1c0.1-0.1,0.2-0.1,0.2-0.1
	C113.9,31.3,114,31.4,114.2,31.6z M110.2,35.9c0,0.6-0.3,0.9-1,0.9c-0.4,0-0.6-0.2-0.7-0.7c0-0.1-0.1-0.4-0.1-0.8
	c0-0.3-0.1-0.5-0.2-0.8c-0.2-0.5-0.4-0.8-0.7-1c0.1,0,0.1-0.1,0.1-0.1C109.3,33.9,110.2,34.7,110.2,35.9z M118.3,37.4v0.4
	c0,2.4-0.1,4.1-0.4,5.3c-0.1,0.9-0.5,1.9-1.1,3c-0.8,1.4-1.6,2.3-2.4,2.8c-0.1,0-0.2-0.1-0.3-0.2c0.7-1.1,1.3-2.5,1.7-4.1
	c0.4-1.3,0.6-3.5,0.6-6.7c0-2.6,0-4.2,0-4.9c0-0.5,0-1.1-0.1-1.8l1.9,0.8c1.8-0.5,3.1-1.2,4.1-2.1c1.6,1.1,2.3,1.7,2.3,1.9
	s-0.1,0.3-0.4,0.3c-0.6-0.1-1.1-0.1-1.4-0.2c-1,0.4-2.5,0.6-4.5,0.7v4.2h3.3c0.5-0.8,0.9-1.2,1.1-1.3h0.1c0.2,0,0.4,0.3,0.8,0.6
	c0.5,0.5,0.8,0.8,0.9,1c0,0.2-0.1,0.3-0.1,0.4H122v7.9c0,0.9,0.1,2,0.1,3.2c0,0.3-0.4,0.4-1.2,0.5c-0.6,0-1-0.1-1-0.3
	c0-0.7,0.1-1.8,0.1-3.5v-7.8h-1.7V37.4z"/>
<path class="st0" d="M142.8,30.4c0.5,0.3,0.7,0.5,0.7,0.7c0,0.1-0.1,0.2-0.2,0.3c-0.2,0.1-0.4,0.2-0.5,0.4v0.6
	c0,0.5,0.2,0.7,0.6,0.7c0.4,0,0.7-0.1,0.8-0.3s0.2-0.4,0.3-0.4s0.3,0.1,0.4,0.2c0.4,0.3,0.7,0.6,0.7,0.8c0,0.4-0.5,0.7-1.5,0.7
	c-0.4,0-0.8,0-1,0c0.2,0.1,0.4,0.4,0.7,0.6c0.5,0.5,0.7,0.8,0.7,1c0,0.1-0.1,0.2-0.3,0.3c-0.3,0.1-0.6,0.2-0.7,0.3
	c-0.4,0.7-1,1.3-1.9,1.8c0.7,0.2,1.3,0.3,2.1,0.4c0.5,0,1.1,0,1.6,0v0.3c-0.1,0-0.2,0.1-0.4,0.2c-0.1,0.2-0.3,0.4-0.3,0.7
	c-0.1,0.3-0.2,0.4-0.4,0.4c-0.6,0-1.2-0.1-1.7-0.3c0.6,0.5,0.9,0.9,0.9,1c0,0.2-0.1,0.3-0.2,0.3h-2v4.7c0,0.1,0,0.3,0,0.4
	c0.5,0,1,0,1.6-0.1c0.7-0.9,1-1.4,1.2-1.5c0.1,0.1,0.5,0.4,1,0.9c0.4,0.5,0.7,0.8,0.7,0.9c0,0.1-0.1,0.2-0.2,0.2
	c-1.5,0.1-2.9,0.1-4.2,0.2c0,0.6,0,1.2,0,1.9c0,0.3-0.4,0.4-1.1,0.5c-0.6,0-0.9-0.1-0.9-0.3c0-0.4,0-1.1,0.1-2
	c-7.7,0.4-11.9,0.7-12.5,0.8c-0.1-0.3-0.2-0.6-0.3-0.9c0.8,0,2.2-0.1,4.2-0.1V41c-0.9,0-1.5,0.1-1.8,0.2c-0.1-0.2-0.2-0.4-0.3-0.6
	c-0.5,0.8-1.2,1.4-2.1,1.7c-0.1-0.1-0.1-0.2-0.1-0.3c0.4-0.4,0.7-0.9,0.9-1.5c0.3-0.5,0.5-1.9,0.5-4.1c0-0.9,0-1.6-0.1-2.1l1.6,0.8
	h4.4c0.5-0.5,0.8-0.8,1-0.8s0.5,0.2,1,0.5c0.4,0.3,0.7,0.6,0.7,0.7c0,0.1-0.1,0.2-0.2,0.3c-0.3,0.2-0.4,0.3-0.4,0.4v1.1
	c0,0.4,0.1,0.7,0.1,0.8c0,0.4-0.3,0.6-0.9,0.6c-0.5,0-0.7-0.1-0.7-0.3V38h-4.8c-0.1,0.8-0.3,1.5-0.5,2c0.9,0.1,2.1,0.1,3.8,0.1h8.1
	c0.4-0.5,0.7-0.8,0.9-0.9c-0.5-0.2-1-0.5-1.5-0.8c-1.2,0.5-2.7,0.8-4.5,1c-0.1,0-0.2-0.1-0.2-0.3c1-0.2,2.2-0.7,3.5-1.3
	c0.1,0,0.2-0.1,0.3-0.1c-0.6-0.6-1.2-1.4-1.6-2.3c-0.4,0-0.6,0.1-0.7,0.1c-0.1-0.3-0.3-0.6-0.4-1c0.5,0.1,1.2,0.2,2.2,0.2h2.7
	c0.4-0.5,0.8-0.8,1-0.9c-0.9-0.1-1.3-0.5-1.3-1.3v-1.3h-1.8c0,0.4,0,0.7-0.1,0.9c-0.3,1.1-1.1,1.9-2.5,2.2c-0.1,0-0.1-0.1-0.2-0.3
	c0.3-0.2,0.6-0.6,0.8-1.1c0.2-0.4,0.3-1.1,0.3-2c0-0.5,0-0.9,0-1.1l1.7,0.8h1.7c0.5-0.7,0.8-1,0.9-1
	C142.1,29.9,142.3,30.1,142.8,30.4z M133.6,30.4c0,0.2-0.1,0.3-0.3,0.3c-0.4,0.2-0.6,0.3-0.6,0.4v0.3h1.8c0.4-0.5,0.7-0.8,0.9-0.9
	h0.1c0.1,0.1,0.2,0.1,0.4,0.2c0.6,0.5,0.9,0.9,0.9,1c0,0.2-0.1,0.3-0.2,0.3h-3.9v1.4h1.2c0.4-0.5,0.7-0.8,0.9-0.9h0.1
	c0.1,0.1,0.2,0.1,0.4,0.2c0.6,0.5,0.9,0.9,0.9,1c0,0.2-0.1,0.3-0.2,0.3h-6c-1.1,0-1.8,0.1-2,0.2c-0.1-0.4-0.3-0.7-0.5-1.1
	c0.4,0.1,1.2,0.2,2.2,0.2h1.3V32h-1.3c-1.3,0-2.1,0.1-2.4,0.3c-0.1-0.4-0.3-0.7-0.5-1.1c0.5,0.1,1.4,0.2,2.6,0.2h1.5
	c0-0.7-0.1-1.3-0.1-1.7C132.7,30,133.6,30.2,133.6,30.4z M129.5,37.6h1.7v-1.9h-1.7V37.6z M132.6,37.6h1.7v-1.9h-1.7V37.6z
	 M132.7,41v1.3h6.7V41H132.7z M139.4,44.2v-1.4h-6.7v1.4H139.4z M139.4,46.1v-1.4h-6.7v1.7C134.6,46.4,136.8,46.3,139.4,46.1z
	 M140.3,37.5c0.8-0.6,1.3-1.2,1.6-1.9H139c-0.3,0-0.5,0-0.8,0C138.8,36.4,139.5,37,140.3,37.5z"/>
<g>
	<rect x="0" y="69.2" class="st1" width="13" height="0.8"/>
</g>
</svg>
