<?xml version="1.0" encoding="utf-8"?>
<!-- Generator: Adobe Illustrator 25.2.3, SVG Export Plug-In . SVG Version: 6.00 Build 0)  -->
<svg version="1.1" id="圖層_1" xmlns="http://www.w3.org/2000/svg" xmlns:xlink="http://www.w3.org/1999/xlink" x="0px" y="0px"
	 viewBox="0 0 280 13" style="enable-background:new 0 0 280 13;" xml:space="preserve">
<style type="text/css">
	.st0{opacity:0.6;}
	.st1{fill:#FFFFFF;}
</style>
<g class="st0">
	<path class="st1" d="M3.4,3.3c0,0.4-0.2,0.7-0.5,0.9S2.2,4.4,1.7,4.4c-0.1,0-0.3,0-0.8,0V0.3h0.7c0.4,0,0.7,0.1,1,0.2
		c0.3,0.2,0.5,0.4,0.5,0.7c0,0.2-0.1,0.4-0.2,0.6C2.7,2,2.6,2.1,2.4,2.2c0.3,0.1,0.5,0.2,0.7,0.3C3.3,2.8,3.4,3,3.4,3.3z M3,3.3
		C3,3,2.9,2.7,2.7,2.5C2.5,2.4,2.3,2.3,2,2.3H1.8V2.2H2c0.3,0,0.5-0.1,0.6-0.3c0.1-0.2,0.2-0.4,0.2-0.6c0-0.6-0.4-0.9-1.1-0.9H1.5
		v3.9h0.2C2.5,4.3,3,4,3,3.3z"/>
	<path class="st1" d="M6.6,2.8H5V2.7h1.2c0-0.5-0.2-0.8-0.6-0.8C5.3,1.9,5.1,2,5,2.2C4.8,2.4,4.8,2.7,4.8,3.1S4.9,3.8,5,4
		c0.2,0.2,0.4,0.3,0.7,0.3c0.3,0,0.6-0.1,0.8-0.4l0.1,0.2C6.4,4.3,6.1,4.5,5.7,4.5C5.3,4.5,5,4.4,4.8,4.1C4.5,3.8,4.4,3.5,4.4,3.2
		c0-0.4,0.1-0.7,0.4-0.9C5,2,5.3,1.9,5.7,1.9C6,1.9,6.2,2,6.4,2.2C6.5,2.3,6.6,2.5,6.6,2.8z"/>
	<path class="st1" d="M9.4,2.8v1.7H9V4.3C8.9,4.5,8.6,4.5,8.4,4.5c-0.3,0-0.5-0.1-0.6-0.2C7.6,4.2,7.5,3.9,7.5,3.7
		c0-0.3,0.1-0.5,0.3-0.6C8,3,8.2,2.9,8.4,2.9c0.1,0,0.1,0,0.2,0C8.7,2.9,8.8,3,8.9,3L8.8,3.1C8.7,3,8.5,3,8.4,3C8.2,3,8.1,3.1,8,3.2
		C7.9,3.3,7.9,3.5,7.9,3.7S8,4.1,8.1,4.2c0.1,0.1,0.2,0.2,0.4,0.2C8.8,4.4,9,4.3,9.1,4V2.8C9.1,2.2,8.9,2,8.5,2
		C8.3,2,8.1,2.1,7.9,2.2L7.8,2.1C8,2,8.2,1.9,8.5,1.9C9,1.8,9.4,2.1,9.4,2.8z"/>
	<path class="st1" d="M12.5,4.4h-0.4V4c-0.2,0.3-0.5,0.5-0.8,0.5c-0.6,0-0.9-0.3-0.9-0.9V1.9h0.4v1.7c0,0.5,0.2,0.8,0.6,0.8
		c0.2,0,0.4-0.1,0.6-0.4c0.1-0.1,0.1-0.3,0.2-0.5V1.8h0.4v2.6H12.5z"/>
	<path class="st1" d="M14.6,2h-0.5v1.6c0,0.3,0,0.4,0.1,0.6c0.1,0.1,0.2,0.2,0.4,0.2v0.1c-0.6,0-0.9-0.3-0.9-0.8V2h-0.2V1.9h0.2V1.6
		h0.4v0.3L14.6,2L14.6,2z"/>
	<path class="st1" d="M17.8,1.8l-1.4,3.6h-0.1l0.4-1.1l-1.1-2.6H16l0.9,2.1L17.8,1.8L17.8,1.8L17.8,1.8z"/>
	<path class="st1" d="M20.3,4.4h-0.4v-4h0.4V4.4z"/>
	<path class="st1" d="M21.8,0.7c0,0.1,0,0.1-0.1,0.2C21.6,1,21.6,1,21.5,1s-0.1,0-0.2-0.1c-0.1,0-0.1-0.1-0.1-0.2s0-0.1,0.1-0.2
		c0,0,0.1-0.1,0.2-0.1s0.1,0,0.2,0.1C21.8,0.6,21.8,0.6,21.8,0.7z M21.7,4.4h-0.4V1.8h0.4V4.4z"/>
	<path class="st1" d="M25,2.8h-1.6V2.7h1.2c0-0.5-0.2-0.8-0.6-0.8c-0.3,0-0.5,0.1-0.6,0.3c-0.2,0.2-0.2,0.5-0.2,0.9s0.1,0.7,0.2,0.9
		c0.2,0.2,0.4,0.3,0.7,0.3c0.3,0,0.6-0.1,0.8-0.4L25,4.1c-0.2,0.2-0.5,0.4-0.9,0.4s-0.7-0.1-0.9-0.4c-0.3-0.3-0.4-0.6-0.4-0.9
		c0-0.4,0.1-0.7,0.4-0.9c0.2-0.3,0.5-0.4,0.9-0.4c0.3,0,0.5,0.1,0.7,0.3C24.9,2.3,25,2.5,25,2.8z"/>
	<path class="st1" d="M27.4,3.8c0,0.2-0.1,0.4-0.2,0.5c-0.1,0.1-0.3,0.2-0.5,0.2c-0.3,0-0.5-0.1-0.7-0.3L26.1,4
		c0.2,0.2,0.4,0.3,0.6,0.3c0.1,0,0.3,0,0.3-0.1c0.1-0.1,0.1-0.2,0.1-0.4c0-0.2-0.1-0.3-0.2-0.4c-0.1-0.1-0.3-0.2-0.5-0.3
		C26.1,2.9,26,2.7,26,2.4c0-0.2,0.1-0.3,0.2-0.5c0.1-0.1,0.3-0.1,0.5-0.1c0.1,0,0.2,0,0.4,0.1C27.2,2,27.3,2,27.4,2.1l-0.1,0.1
		C27.1,2,27,1.9,26.8,1.9c-0.3,0-0.4,0.1-0.4,0.3s0.1,0.3,0.3,0.5C27,2.9,27.2,3,27.3,3.1C27.3,3.3,27.4,3.5,27.4,3.8z"/>
	<path class="st1" d="M30,0.7c0,0.1,0,0.1-0.1,0.2S29.8,1,29.7,1c-0.1,0-0.1,0-0.2-0.1c-0.1,0-0.1-0.1-0.1-0.2s0-0.1,0.1-0.2
		c0,0,0.1-0.1,0.2-0.1c0.1,0,0.1,0,0.2,0.1S30,0.6,30,0.7z M30,4.4h-0.4V1.8H30V4.4z"/>
	<path class="st1" d="M33.1,4.4h-0.4V2.7c0-0.5-0.2-0.8-0.6-0.8c-0.4,0-0.6,0.2-0.8,0.7v1.8H31V1.8h0.4v0.4c0.2-0.3,0.5-0.4,0.8-0.4
		c0.3,0,0.5,0.1,0.7,0.2c0.2,0.1,0.2,0.4,0.2,0.7V4.4z"/>
	<path class="st1" d="M36.5,2H36v1.6c0,0.3,0,0.4,0.1,0.6c0.1,0.1,0.2,0.2,0.4,0.2v0.1c-0.6,0-0.9-0.3-0.9-0.8V2h-0.2V1.9h0.2V1.6
		H36v0.3L36.5,2L36.5,2z"/>
	<path class="st1" d="M39.5,4.4h-0.4V2.7c0-0.5-0.2-0.8-0.6-0.8s-0.6,0.2-0.8,0.7v1.8h-0.4v-4h0.4v1.8c0.2-0.3,0.5-0.4,0.8-0.4
		S39,1.9,39.2,2c0.2,0.1,0.2,0.4,0.2,0.7L39.5,4.4L39.5,4.4z"/>
	<path class="st1" d="M42.8,2.8h-1.6V2.7h1.2c0-0.5-0.2-0.8-0.6-0.8c-0.3,0-0.5,0.1-0.6,0.3C41,2.4,41,2.7,41,3.1s0.1,0.7,0.2,0.9
		c0.2,0.2,0.4,0.3,0.7,0.3c0.3,0,0.6-0.1,0.8-0.4l0.1,0.2c-0.2,0.2-0.5,0.4-0.9,0.4c-0.4,0-0.7-0.1-0.9-0.4
		c-0.3-0.3-0.4-0.6-0.4-0.9c0-0.4,0.1-0.7,0.4-0.9c0.2-0.3,0.5-0.4,0.9-0.4c0.3,0,0.5,0.1,0.7,0.3C42.7,2.3,42.8,2.5,42.8,2.8z"/>
	<path class="st1" d="M47,4.1c-0.3,0.2-0.6,0.4-0.9,0.4c-0.4,0-0.7-0.1-0.9-0.4c-0.3-0.3-0.4-0.6-0.4-0.9c0-0.4,0.1-0.7,0.4-0.9
		c0.3-0.3,0.6-0.4,0.9-0.4c0.3,0,0.6,0.1,0.8,0.3l-0.1,0.2c-0.2-0.2-0.4-0.3-0.7-0.3c-0.3,0-0.5,0.1-0.7,0.4
		c-0.2,0.2-0.3,0.5-0.3,0.8s0.1,0.6,0.2,0.8c0.2,0.2,0.4,0.4,0.7,0.4s0.6-0.1,0.8-0.4H47z"/>
	<path class="st1" d="M50.2,3.1c0,0.4-0.1,0.7-0.4,0.9c-0.3,0.3-0.6,0.4-0.9,0.4c-0.4,0-0.7-0.1-0.9-0.4c-0.3-0.3-0.4-0.6-0.4-0.9
		c0-0.4,0.1-0.7,0.4-0.9c0.3-0.3,0.6-0.4,0.9-0.4c0.4,0,0.7,0.1,0.9,0.4C50.1,2.5,50.2,2.8,50.2,3.1z M49.8,3.1
		c0-0.3-0.1-0.6-0.3-0.8C49.3,2.1,49.1,2,48.9,2c-0.3,0-0.5,0.1-0.6,0.3C48.1,2.5,48,2.8,48,3.1s0.1,0.6,0.3,0.8
		c0.2,0.2,0.4,0.4,0.6,0.4c0.2,0,0.5-0.1,0.6-0.4C49.7,3.8,49.8,3.5,49.8,3.1z"/>
	<path class="st1" d="M54.7,4.4h-0.4V2.6c0-0.3,0-0.4-0.1-0.5C54.1,2,54,1.9,53.8,1.9c-0.3,0-0.5,0.2-0.7,0.6v0.1v1.8h-0.4V2.6
		c0-0.3,0-0.4-0.1-0.5c-0.1-0.1-0.2-0.2-0.4-0.2c-0.1,0-0.3,0.1-0.4,0.2c-0.1,0.1-0.2,0.3-0.3,0.5v1.8h-0.4V1.8h0.4v0.3
		c0.2-0.3,0.5-0.4,0.7-0.4c0.4,0,0.7,0.1,0.8,0.4c0.2-0.3,0.5-0.4,0.8-0.4c0.6,0,0.8,0.3,0.8,0.8v1.9H54.7z"/>
	<path class="st1" d="M58,3.2c0,0.4-0.1,0.7-0.3,0.9c-0.2,0.3-0.5,0.4-0.8,0.4c-0.3,0-0.5-0.1-0.6-0.3v0.2h-0.4v-4h0.4v3.4
		c0,0.2,0.1,0.3,0.2,0.4s0.2,0.2,0.4,0.2c0.2,0,0.4-0.1,0.6-0.3c0.1-0.2,0.2-0.5,0.2-0.9s-0.1-0.6-0.2-0.9C57.4,2.1,57.2,2,56.9,2
		c-0.1,0-0.2,0-0.4,0.1L56.4,2c0.1-0.1,0.3-0.1,0.5-0.1c0.3,0,0.6,0.1,0.8,0.4C57.9,2.5,58,2.8,58,3.2z"/>
	<path class="st1" d="M59.5,0.7c0,0.1,0,0.1-0.1,0.2C59.3,1,59.3,1,59.2,1c-0.1,0-0.1,0-0.2-0.1c-0.1,0-0.1-0.1-0.1-0.2
		s0-0.1,0.1-0.2c0,0,0.1-0.1,0.2-0.1c0.1,0,0.1,0,0.2,0.1C59.4,0.6,59.5,0.6,59.5,0.7z M59.4,4.4H59V1.8h0.4V4.4z"/>
	<path class="st1" d="M62.6,4.4h-0.4V2.7c0-0.5-0.2-0.8-0.6-0.8c-0.4,0-0.6,0.2-0.8,0.7v1.8h-0.4V1.8h0.4v0.4
		c0.2-0.3,0.5-0.4,0.8-0.4c0.3,0,0.5,0.1,0.7,0.2s0.2,0.4,0.2,0.7L62.6,4.4L62.6,4.4z"/>
	<path class="st1" d="M65.5,2.8v1.7h-0.4V4.3c-0.1,0.2-0.4,0.2-0.6,0.2c-0.3,0-0.5-0.1-0.6-0.2c-0.2-0.1-0.3-0.4-0.3-0.6
		c0-0.3,0.1-0.5,0.3-0.6c0.2-0.1,0.4-0.2,0.6-0.2c0.1,0,0.1,0,0.2,0C64.8,2.9,64.9,3,65,3l-0.1,0.1C64.8,3,64.6,3,64.5,3
		c-0.2,0-0.3,0.1-0.4,0.2S64,3.5,64,3.7s0.1,0.4,0.2,0.5c0.1,0.1,0.2,0.2,0.4,0.2c0.3,0,0.5-0.1,0.6-0.4V2.8C65.2,2.2,65,2,64.6,2
		c-0.2,0-0.4,0.1-0.6,0.2l-0.1-0.1c0.2-0.1,0.4-0.2,0.7-0.2C65.2,1.8,65.5,2.1,65.5,2.8z"/>
	<path class="st1" d="M67.6,2h-0.5v1.6c0,0.3,0,0.4,0.1,0.6c0.1,0.1,0.2,0.2,0.4,0.2v0.1c-0.6,0-0.9-0.3-0.9-0.8V2h-0.2V1.9h0.2V1.6
		h0.4v0.3L67.6,2L67.6,2z"/>
	<path class="st1" d="M68.9,0.7c0,0.1,0,0.1-0.1,0.2C68.7,1,68.7,1,68.6,1s-0.1,0-0.2-0.1c-0.1,0-0.1-0.1-0.1-0.2s0-0.1,0.1-0.2
		c0,0,0.1-0.1,0.2-0.1s0.1,0,0.2,0.1C68.9,0.6,68.9,0.6,68.9,0.7z M68.9,4.4h-0.4V1.8h0.4V4.4z"/>
	<path class="st1" d="M72.5,3.1c0,0.4-0.1,0.7-0.4,0.9c-0.3,0.3-0.6,0.4-0.9,0.4c-0.4,0-0.7-0.1-0.9-0.4c-0.3-0.3-0.4-0.6-0.4-0.9
		c0-0.4,0.1-0.7,0.4-0.9c0.3-0.3,0.6-0.4,0.9-0.4c0.4,0,0.7,0.1,0.9,0.4C72.4,2.5,72.5,2.8,72.5,3.1z M72.1,3.1
		c0-0.3-0.1-0.6-0.3-0.8C71.6,2.1,71.4,2,71.2,2c-0.3,0-0.5,0.1-0.6,0.3c-0.2,0.2-0.3,0.5-0.3,0.8s0.1,0.6,0.3,0.8
		c0.2,0.2,0.4,0.4,0.6,0.4c0.2,0,0.5-0.1,0.6-0.4C72,3.8,72.1,3.5,72.1,3.1z"/>
	<path class="st1" d="M75.6,4.4h-0.4V2.7c0-0.5-0.2-0.8-0.6-0.8S74,2.1,73.8,2.6v1.8h-0.4V1.8h0.4v0.4c0.2-0.3,0.5-0.4,0.8-0.4
		c0.3,0,0.5,0.1,0.7,0.2c0.2,0.1,0.2,0.4,0.2,0.7L75.6,4.4L75.6,4.4z"/>
	<path class="st1" d="M80.5,3.1c0,0.4-0.1,0.7-0.4,0.9c-0.3,0.3-0.6,0.4-0.9,0.4c-0.4,0-0.7-0.1-0.9-0.4c-0.3-0.3-0.4-0.6-0.4-0.9
		c0-0.4,0.1-0.7,0.4-0.9c0.3-0.3,0.6-0.4,0.9-0.4c0.4,0,0.7,0.1,0.9,0.4C80.3,2.5,80.5,2.8,80.5,3.1z M80,3.1c0-0.3-0.1-0.6-0.3-0.8
		C79.5,2.1,79.3,2,79.1,2c-0.3,0-0.5,0.1-0.6,0.3c-0.2,0.2-0.3,0.5-0.3,0.8s0.1,0.6,0.3,0.8c0.2,0.2,0.4,0.4,0.6,0.4
		c0.2,0,0.5-0.1,0.6-0.4C79.9,3.8,80,3.5,80,3.1z"/>
	<path class="st1" d="M81.9,2v2.5h-0.4V2h-0.2V1.9h0.2V1.3c0-0.6,0.3-0.8,0.9-0.8v0.1c-0.2,0-0.3,0.1-0.4,0.2s-0.1,0.3-0.1,0.6V2z"
		/>
	<path class="st1" d="M86.7,4.4h-0.4V2.7c0-0.5-0.2-0.8-0.6-0.8c-0.4,0-0.6,0.2-0.8,0.7v1.8h-0.4V1.8h0.4v0.4
		c0.2-0.3,0.5-0.4,0.8-0.4c0.3,0,0.5,0.1,0.7,0.2c0.2,0.1,0.2,0.4,0.2,0.7L86.7,4.4L86.7,4.4z"/>
	<path class="st1" d="M89.6,2.8v1.7h-0.4V4.3c-0.1,0.2-0.4,0.2-0.6,0.2c-0.3,0-0.5-0.1-0.6-0.2c-0.2-0.1-0.3-0.4-0.3-0.6
		c0-0.3,0.1-0.5,0.3-0.6s0.4-0.2,0.6-0.2c0.1,0,0.1,0,0.2,0C88.9,2.9,89,3,89.1,3L89,3.1C88.9,3,88.7,3,88.6,3
		c-0.2,0-0.3,0.1-0.4,0.2c-0.1,0.1-0.1,0.3-0.1,0.5s0.1,0.4,0.2,0.5c0.1,0.1,0.2,0.2,0.4,0.2c0.3,0,0.5-0.1,0.6-0.4V2.8
		c0-0.6-0.2-0.8-0.6-0.8c-0.2,0-0.4,0.1-0.6,0.2L88,2.1c0.2-0.1,0.4-0.2,0.7-0.2C89.3,1.8,89.6,2.1,89.6,2.8z"/>
	<path class="st1" d="M91.6,2h-0.5v1.6c0,0.3,0,0.4,0.1,0.6c0.1,0.1,0.2,0.2,0.4,0.2v0.1c-0.6,0-0.9-0.3-0.9-0.8V2h-0.2V1.9h0.2V1.6
		h0.4v0.3L91.6,2L91.6,2z"/>
	<path class="st1" d="M94.6,4.4h-0.4V4c-0.2,0.3-0.5,0.5-0.8,0.5c-0.6,0-0.9-0.3-0.9-0.9V1.9h0.4v1.7c0,0.5,0.2,0.8,0.6,0.8
		c0.2,0,0.4-0.1,0.6-0.4c0.1-0.1,0.1-0.3,0.2-0.5V1.8h0.4L94.6,4.4L94.6,4.4z"/>
	<path class="st1" d="M96.9,1.9l-0.1,0.2C96.7,2,96.6,2,96.5,2s-0.1,0-0.2,0C96.1,2.1,96,2.4,96,2.7v1.7h-0.4V1.8H96v0.3
		c0.1-0.1,0.1-0.2,0.2-0.2c0.1-0.1,0.2-0.1,0.3-0.1C96.7,1.8,96.8,1.9,96.9,1.9z"/>
	<path class="st1" d="M99.6,2.8v1.7h-0.4V4.3c-0.1,0.2-0.4,0.2-0.6,0.2c-0.3,0-0.5-0.1-0.6-0.2c-0.2-0.1-0.3-0.4-0.3-0.6
		c0-0.3,0.1-0.5,0.3-0.6s0.4-0.2,0.6-0.2c0.1,0,0.1,0,0.2,0C98.9,2.9,99,3,99.1,3L99,3.1C98.9,3,98.7,3,98.6,3
		c-0.2,0-0.3,0.1-0.4,0.2c-0.1,0.1-0.1,0.3-0.1,0.5s0.1,0.4,0.2,0.5c0.1,0.1,0.2,0.2,0.4,0.2c0.3,0,0.5-0.1,0.6-0.4V2.8
		c0-0.6-0.2-0.8-0.6-0.8c-0.2,0-0.4,0.1-0.6,0.2L98,2.1c0.2-0.1,0.4-0.2,0.7-0.2C99.2,1.8,99.6,2.1,99.6,2.8z"/>
	<path class="st1" d="M101,4.4h-0.4v-4h0.4V4.4z"/>
	<path class="st1" d="M103.6,4.4h-0.4v-4h0.4V4.4z"/>
	<path class="st1" d="M106.5,2.8v1.7h-0.4V4.3c-0.1,0.2-0.4,0.2-0.6,0.2c-0.3,0-0.5-0.1-0.6-0.2c-0.2-0.1-0.3-0.4-0.3-0.6
		c0-0.3,0.1-0.5,0.3-0.6c0.2-0.1,0.4-0.2,0.6-0.2c0.1,0,0.1,0,0.2,0c0.1,0,0.2,0.1,0.3,0.1l-0.1,0.1C105.8,3,105.6,3,105.5,3
		c-0.2,0-0.3,0.1-0.4,0.2S105,3.5,105,3.7s0.1,0.4,0.2,0.5c0.1,0.1,0.2,0.2,0.4,0.2c0.3,0,0.5-0.1,0.6-0.4V2.8
		c0-0.6-0.2-0.8-0.6-0.8c-0.2,0-0.4,0.1-0.6,0.2l-0.1-0.1c0.2-0.1,0.4-0.2,0.7-0.2C106.2,1.8,106.5,2.1,106.5,2.8z"/>
	<path class="st1" d="M109.7,4.4h-0.4V2.7c0-0.5-0.2-0.8-0.6-0.8c-0.4,0-0.6,0.2-0.8,0.7v1.8h-0.4V1.8h0.4v0.4
		c0.2-0.3,0.5-0.4,0.8-0.4c0.3,0,0.5,0.1,0.7,0.2c0.2,0.1,0.2,0.4,0.2,0.7L109.7,4.4L109.7,4.4z"/>
	<path class="st1" d="M112.9,4.4h-0.4V4.2c-0.2,0.2-0.4,0.3-0.6,0.3c-0.3,0-0.6-0.1-0.8-0.4c-0.2-0.3-0.3-0.6-0.3-0.9
		c0-0.4,0.1-0.7,0.3-0.9c0.2-0.3,0.5-0.4,0.8-0.4c0.1,0,0.3,0,0.5,0.1l-0.1,0.2c-0.1-0.1-0.3-0.1-0.4-0.1c-0.2,0-0.4,0.1-0.5,0.3
		c-0.2,0.2-0.2,0.5-0.2,0.9s0.1,0.6,0.2,0.9c0.1,0.2,0.3,0.3,0.6,0.3c0.1,0,0.3-0.1,0.4-0.2c0.1-0.1,0.2-0.2,0.2-0.4V0.5h0.4
		L112.9,4.4L112.9,4.4z"/>
	<path class="st1" d="M115.4,3.8c0,0.2-0.1,0.4-0.2,0.5c-0.1,0.1-0.3,0.2-0.5,0.2c-0.3,0-0.5-0.1-0.7-0.3l0.1-0.2
		c0.2,0.2,0.4,0.3,0.6,0.3c0.1,0,0.3,0,0.3-0.1c0.1-0.1,0.1-0.2,0.1-0.4c0-0.2-0.1-0.3-0.2-0.4c-0.1-0.1-0.3-0.2-0.5-0.3
		c-0.3-0.2-0.4-0.4-0.4-0.7c0-0.2,0.1-0.3,0.2-0.5c0.1-0.1,0.3-0.1,0.5-0.1c0.1,0,0.2,0,0.4,0.1c0.1,0.1,0.2,0.1,0.3,0.2l-0.1,0.1
		c-0.2-0.2-0.3-0.3-0.5-0.3c-0.3,0-0.4,0.1-0.4,0.3s0.1,0.3,0.3,0.5c0.3,0.2,0.5,0.3,0.6,0.4C115.3,3.3,115.4,3.5,115.4,3.8z"/>
	<path class="st1" d="M118.5,4.1c-0.3,0.2-0.6,0.4-0.9,0.4c-0.4,0-0.7-0.1-0.9-0.4c-0.3-0.3-0.4-0.6-0.4-0.9c0-0.4,0.1-0.7,0.4-0.9
		c0.3-0.3,0.6-0.4,0.9-0.4c0.3,0,0.6,0.1,0.8,0.3l-0.1,0.2c-0.2-0.2-0.4-0.3-0.7-0.3c-0.3,0-0.5,0.1-0.7,0.4
		c-0.2,0.2-0.3,0.5-0.3,0.8s0.1,0.6,0.2,0.8c0.2,0.2,0.4,0.4,0.7,0.4s0.6-0.1,0.8-0.4H118.5z"/>
	<path class="st1" d="M121.1,2.8v1.7h-0.4V4.3c-0.1,0.2-0.4,0.2-0.6,0.2c-0.3,0-0.5-0.1-0.6-0.2c-0.2-0.1-0.3-0.4-0.3-0.6
		c0-0.3,0.1-0.5,0.3-0.6s0.4-0.2,0.6-0.2c0.1,0,0.1,0,0.2,0c0.1,0,0.2,0.1,0.3,0.1l-0.1,0.1C120.4,3,120.2,3,120.1,3
		c-0.2,0-0.3,0.1-0.4,0.2c-0.1,0.1-0.1,0.3-0.1,0.5s0.1,0.4,0.2,0.5c0.1,0.1,0.2,0.2,0.4,0.2c0.3,0,0.5-0.1,0.6-0.4V2.8
		c0-0.6-0.2-0.8-0.6-0.8c-0.2,0-0.4,0.1-0.6,0.2l-0.1-0.1c0.2-0.1,0.4-0.2,0.7-0.2C120.8,1.8,121.1,2.1,121.1,2.8z"/>
	<path class="st1" d="M124.3,3.2c0,0.4-0.1,0.7-0.3,0.9c-0.2,0.3-0.5,0.4-0.8,0.4c-0.1,0-0.3,0-0.5-0.1l0.1-0.1
		c0.1,0.1,0.2,0.1,0.4,0.1c0.2,0,0.4-0.1,0.5-0.3c0.1-0.2,0.2-0.5,0.2-0.9s-0.1-0.6-0.2-0.9c-0.1-0.2-0.3-0.3-0.6-0.3
		c-0.1,0-0.3,0.1-0.4,0.2c-0.1,0.1-0.2,0.2-0.2,0.4v2.9h-0.4V2h0.4v0.2c0.2-0.2,0.4-0.3,0.6-0.3c0.3,0,0.6,0.1,0.8,0.4
		C124.2,2.5,124.3,2.8,124.3,3.2z"/>
	<path class="st1" d="M127.5,2.8h-1.6V2.7h1.2c0-0.5-0.2-0.8-0.6-0.8c-0.3,0-0.5,0.1-0.6,0.3c-0.2,0.2-0.2,0.5-0.2,0.9
		s0.1,0.7,0.2,0.9c0.2,0.2,0.4,0.3,0.7,0.3c0.3,0,0.6-0.1,0.8-0.4l0.1,0.2c-0.2,0.2-0.5,0.4-0.9,0.4s-0.7-0.1-0.9-0.4
		c-0.3-0.3-0.4-0.6-0.4-0.9c0-0.4,0.1-0.7,0.4-0.9c0.2-0.3,0.5-0.4,0.9-0.4c0.3,0,0.5,0.1,0.7,0.3C127.4,2.3,127.5,2.5,127.5,2.8z"
		/>
	<path class="st1" d="M2.9,10v1.7H2.5v-0.2c-0.1,0.2-0.4,0.2-0.6,0.2c-0.3,0-0.5-0.1-0.6-0.2C1.1,11.4,1,11.1,1,10.9
		c0-0.3,0.1-0.5,0.3-0.6s0.4-0.2,0.6-0.2c0.1,0,0.1,0,0.2,0c0.1,0,0.2,0.1,0.3,0.1l-0.1,0.1c-0.1-0.1-0.3-0.1-0.4-0.1
		c-0.2,0-0.3,0.1-0.4,0.2c-0.1,0.1-0.1,0.3-0.1,0.5c0,0.2,0.1,0.4,0.2,0.5c0.1,0.1,0.2,0.2,0.4,0.2c0.3,0,0.5-0.1,0.6-0.4V10
		c0-0.6-0.2-0.8-0.6-0.8c-0.2,0-0.4,0.1-0.6,0.2L1.3,9.3C1.5,9.2,1.7,9.1,2,9.1C2.6,9,2.9,9.3,2.9,10z"/>
	<path class="st1" d="M6.1,11.6H5.7V9.9c0-0.5-0.2-0.8-0.6-0.8S4.5,9.3,4.3,9.8v1.8H4V9h0.4v0.4C4.6,9.1,4.9,9,5.2,9
		c0.3,0,0.5,0.1,0.7,0.2c0.2,0.1,0.2,0.4,0.2,0.7V11.6z"/>
	<path class="st1" d="M9.3,11.6H8.9v-0.2c-0.2,0.2-0.4,0.3-0.6,0.3c-0.3,0-0.6-0.1-0.8-0.4c-0.2-0.3-0.3-0.6-0.3-0.9
		c0-0.4,0.1-0.7,0.3-0.9C7.7,9.2,8,9.1,8.3,9.1c0.1,0,0.3,0,0.5,0.1L8.7,9.3C8.6,9.2,8.4,9.2,8.3,9.2c-0.2,0-0.4,0.1-0.5,0.3
		C7.6,9.7,7.6,10,7.6,10.4c0,0.4,0.1,0.6,0.2,0.9c0.1,0.2,0.3,0.3,0.6,0.3c0.1,0,0.3-0.1,0.4-0.2C8.9,11.3,9,11.2,9,11V7.6h0.4v4
		H9.3z"/>
	<path class="st1" d="M13.4,10v1.7H13v-0.2c-0.1,0.2-0.4,0.2-0.6,0.2c-0.3,0-0.5-0.1-0.6-0.2c-0.2-0.1-0.3-0.4-0.3-0.6
		c0-0.3,0.1-0.5,0.3-0.6s0.4-0.2,0.6-0.2c0.1,0,0.1,0,0.2,0c0.1,0,0.2,0.1,0.3,0.1l-0.1,0.1c-0.1-0.1-0.3-0.1-0.4-0.1
		c-0.2,0-0.3,0.1-0.4,0.2c-0.1,0.1-0.1,0.3-0.1,0.5c0,0.2,0.1,0.4,0.2,0.5c0.1,0.1,0.2,0.2,0.4,0.2c0.3,0,0.5-0.1,0.6-0.4V10
		c0-0.6-0.2-0.8-0.6-0.8c-0.2,0-0.4,0.1-0.6,0.2l-0.1-0.1c0.2-0.1,0.4-0.2,0.7-0.2C13.1,9,13.4,9.3,13.4,10z"/>
	<path class="st1" d="M15.7,9.1l-0.1,0.2c-0.1-0.1-0.2-0.1-0.3-0.1c-0.1,0-0.1,0-0.2,0c-0.2,0.1-0.3,0.4-0.3,0.7v1.7h-0.4V9h0.4v0.3
		c0.1-0.1,0.1-0.2,0.2-0.2C15.1,9,15.2,9,15.3,9C15.5,9,15.6,9.1,15.7,9.1z"/>
	<path class="st1" d="M17.2,9.2v1.6c0,0.3,0,0.4,0.1,0.6c0.1,0.1,0.2,0.2,0.4,0.2v0.1c-0.6,0-0.9-0.3-0.9-0.8V9.3h-0.2V9.2h0.2V8.9
		h0.4V9.2z"/>
	<path class="st1" d="M19,7.9C19,8,19,8,18.9,8.1c-0.1,0-0.1,0.1-0.2,0.1c-0.1,0-0.1,0-0.2-0.1C18.4,8,18.4,8,18.4,7.9
		s0-0.1,0.1-0.2c0,0,0.1-0.1,0.2-0.1c0.1,0,0.1,0,0.2,0.1C19,7.8,19,7.8,19,7.9z M19,11.6h-0.4V9H19V11.6z"/>
	<path class="st1" d="M21.4,11c0,0.2-0.1,0.4-0.2,0.5c-0.1,0.1-0.3,0.2-0.5,0.2c-0.3,0-0.5-0.1-0.7-0.3l0.1-0.2
		c0.2,0.2,0.4,0.3,0.6,0.3c0.1,0,0.3,0,0.3-0.1c0.1-0.1,0.1-0.2,0.1-0.4s-0.1-0.3-0.2-0.4c-0.1-0.1-0.3-0.2-0.5-0.3
		C20.1,10.1,20,9.9,20,9.6c0-0.2,0.1-0.3,0.2-0.5C20.3,9,20.5,9,20.7,9c0.1,0,0.2,0,0.4,0.1c0.1,0.1,0.2,0.1,0.3,0.2l-0.1,0.1
		c-0.2-0.2-0.3-0.3-0.5-0.3c-0.3,0-0.4,0.1-0.4,0.3c0,0.2,0.1,0.3,0.3,0.5c0.3,0.2,0.5,0.3,0.6,0.4C21.3,10.5,21.4,10.7,21.4,11z"/>
	<path class="st1" d="M22.9,9.2v1.6c0,0.3,0,0.4,0.1,0.6c0.1,0.1,0.2,0.2,0.4,0.2v0.1c-0.6,0-0.9-0.3-0.9-0.8V9.3h-0.2V9.2h0.2V8.9
		h0.4V9.2z"/>
	<path class="st1" d="M24.8,7.9c0,0.1,0,0.1-0.1,0.2c-0.1,0-0.1,0.1-0.2,0.1s-0.1,0-0.2-0.1C24.2,8,24.2,8,24.2,7.9s0-0.1,0.1-0.2
		c0,0,0.1-0.1,0.2-0.1s0.1,0,0.2,0.1C24.8,7.8,24.8,7.8,24.8,7.9z M24.7,11.6h-0.4V9h0.4V11.6z"/>
	<path class="st1" d="M27.9,11.3c-0.3,0.2-0.6,0.4-0.9,0.4c-0.4,0-0.7-0.1-0.9-0.4c-0.3-0.3-0.4-0.6-0.4-0.9c0-0.4,0.1-0.7,0.4-0.9
		c0.3-0.3,0.6-0.4,0.9-0.4s0.6,0.1,0.8,0.3l-0.1,0.2c-0.2-0.2-0.4-0.3-0.7-0.3s-0.5,0.1-0.7,0.4c-0.2,0.2-0.3,0.5-0.3,0.8
		c0,0.3,0.1,0.6,0.2,0.8c0.2,0.2,0.4,0.4,0.7,0.4c0.3,0,0.6-0.1,0.8-0.4H27.9z"/>
	<path class="st1" d="M32,10h-1.6V9.9h1.2c0-0.5-0.2-0.8-0.6-0.8c-0.3,0-0.5,0.1-0.6,0.3c-0.2,0.2-0.2,0.5-0.2,0.9
		c0,0.4,0.1,0.7,0.2,0.9c0.2,0.2,0.4,0.3,0.7,0.3c0.3,0,0.6-0.1,0.8-0.4l0.1,0.2c-0.2,0.2-0.5,0.4-0.9,0.4s-0.7-0.1-0.9-0.4
		c-0.3-0.3-0.4-0.6-0.4-0.9c0-0.4,0.1-0.7,0.4-0.9c0.2-0.3,0.5-0.4,0.9-0.4c0.3,0,0.5,0.1,0.7,0.3C31.9,9.5,32,9.7,32,10z"/>
	<path class="st1" d="M35.1,11.6h-0.5l-0.8-1.2l-1,1.2h-0.1l1.1-1.3L32.9,9h0.4l0.7,1l0.8-1h0.1L34,10.1L35.1,11.6z"/>
	<path class="st1" d="M38.1,10.4c0,0.4-0.1,0.7-0.3,0.9c-0.2,0.3-0.5,0.4-0.8,0.4c-0.1,0-0.3,0-0.5-0.1l0.1-0.1
		c0.1,0.1,0.2,0.1,0.4,0.1s0.4-0.1,0.5-0.3c0.1-0.2,0.2-0.5,0.2-0.9c0-0.4-0.1-0.6-0.2-0.9c-0.1-0.2-0.3-0.3-0.6-0.3
		c-0.1,0-0.3,0.1-0.4,0.2c-0.1,0.1-0.2,0.2-0.2,0.4v2.9H36V9.2h0.4v0.2c0.2-0.2,0.4-0.3,0.6-0.3c0.3,0,0.6,0.1,0.8,0.4
		C38,9.7,38.1,10,38.1,10.4z"/>
	<path class="st1" d="M40.3,9.1l-0.1,0.2c-0.1-0.1-0.2-0.1-0.3-0.1c-0.1,0-0.1,0-0.2,0c-0.2,0.1-0.3,0.4-0.3,0.7v1.7H39V9h0.4v0.3
		c0.1-0.1,0.1-0.2,0.2-0.2C39.7,9,39.8,9,39.9,9C40.1,9,40.2,9.1,40.3,9.1z"/>
	<path class="st1" d="M43.2,10h-1.6V9.9h1.2c0-0.5-0.2-0.8-0.6-0.8c-0.3,0-0.5,0.1-0.6,0.3c-0.2,0.2-0.2,0.5-0.2,0.9
		c0,0.4,0.1,0.7,0.2,0.9c0.2,0.2,0.4,0.3,0.7,0.3s0.6-0.1,0.8-0.4l0.1,0.2c-0.2,0.2-0.5,0.4-0.9,0.4c-0.4,0-0.7-0.1-0.9-0.4
		C41.1,11,41,10.7,41,10.4c0-0.4,0.1-0.7,0.4-0.9c0.2-0.3,0.5-0.4,0.9-0.4c0.3,0,0.5,0.1,0.7,0.3C43.1,9.5,43.2,9.7,43.2,10z"/>
	<path class="st1" d="M45.6,11c0,0.2-0.1,0.4-0.2,0.5c-0.1,0.1-0.3,0.2-0.5,0.2c-0.3,0-0.5-0.1-0.7-0.3l0.1-0.2
		c0.2,0.2,0.4,0.3,0.6,0.3c0.1,0,0.3,0,0.4-0.1c0.1-0.1,0.1-0.2,0.1-0.4s-0.1-0.3-0.2-0.4c-0.1-0.1-0.3-0.2-0.5-0.3
		c-0.3-0.2-0.4-0.4-0.4-0.7c0-0.2,0.1-0.3,0.2-0.5C44.6,9,44.8,9,45,9c0.1,0,0.2,0,0.4,0.1c0.1,0.1,0.2,0.1,0.3,0.2l-0.1,0.1
		c-0.2-0.2-0.3-0.3-0.5-0.3c-0.3,0-0.4,0.1-0.4,0.3c0,0.2,0.1,0.3,0.3,0.5c0.3,0.2,0.5,0.3,0.6,0.4C45.5,10.5,45.6,10.7,45.6,11z"/>
	<path class="st1" d="M47.9,11c0,0.2-0.1,0.4-0.2,0.5c-0.1,0.1-0.3,0.2-0.5,0.2c-0.3,0-0.5-0.1-0.7-0.3l0.1-0.2
		c0.2,0.2,0.4,0.3,0.6,0.3c0.1,0,0.3,0,0.4-0.1c0.1-0.1,0.1-0.2,0.1-0.4s-0.1-0.3-0.2-0.4c-0.1-0.1-0.3-0.2-0.5-0.3
		c-0.3-0.2-0.4-0.4-0.4-0.7c0-0.2,0.1-0.3,0.2-0.5C46.9,9,47.1,9,47.3,9c0.1,0,0.2,0,0.4,0.1c0.1,0.1,0.2,0.1,0.3,0.2l-0.1,0.1
		c-0.2-0.2-0.3-0.3-0.5-0.3c-0.3,0-0.4,0.1-0.4,0.3c0,0.2,0.1,0.3,0.3,0.5c0.3,0.2,0.5,0.3,0.6,0.4C47.9,10.5,48,10.7,47.9,11z"/>
	<path class="st1" d="M49.4,7.9c0,0.1,0,0.1-0.1,0.2c-0.1,0-0.1,0.1-0.2,0.1c-0.1,0-0.1,0-0.2-0.1C48.8,8,48.8,8,48.8,7.9
		s0-0.1,0.1-0.2c0,0,0.1-0.1,0.2-0.1c0.1,0,0.1,0,0.2,0.1C49.4,7.8,49.4,7.8,49.4,7.9z M49.3,11.6h-0.4V9h0.4V11.6z"/>
	<path class="st1" d="M53,10.3c0,0.4-0.1,0.7-0.4,0.9c-0.3,0.3-0.6,0.4-0.9,0.4c-0.4,0-0.7-0.1-0.9-0.4c-0.3-0.3-0.4-0.6-0.4-0.9
		c0-0.4,0.1-0.7,0.4-0.9C51.1,9.1,51.4,9,51.7,9c0.4,0,0.7,0.1,0.9,0.4C52.8,9.7,53,10,53,10.3z M52.5,10.3c0-0.3-0.1-0.6-0.3-0.8
		s-0.4-0.4-0.6-0.4c-0.3,0-0.5,0.1-0.6,0.4c-0.2,0.2-0.3,0.5-0.3,0.8c0,0.3,0.1,0.6,0.3,0.8c0.2,0.2,0.4,0.4,0.6,0.4
		c0.2,0,0.5-0.1,0.6-0.4C52.5,11,52.5,10.7,52.5,10.3z"/>
	<path class="st1" d="M56,11.6h-0.4V9.9c0-0.5-0.2-0.8-0.6-0.8s-0.6,0.2-0.8,0.7v1.8h-0.4V9h0.4v0.4C54.4,9.1,54.7,9,55,9
		s0.5,0.1,0.7,0.2c0.2,0.1,0.2,0.4,0.2,0.7L56,11.6L56,11.6z"/>
	<path class="st1" d="M57.6,11.5c0,0.1,0,0.1-0.1,0.2c-0.1,0-0.1,0.1-0.2,0.1c-0.1,0-0.1,0-0.2-0.1c-0.1,0-0.1-0.1-0.1-0.2
		c0-0.1,0-0.1,0.1-0.2c0-0.1,0.1-0.1,0.2-0.1c0.1,0,0.1,0,0.2,0.1C57.6,11.3,57.6,11.4,57.6,11.5z"/>
</g>
</svg>
