<?xml version="1.0" encoding="utf-8"?>
<!-- Generator: Adobe Illustrator 25.2.3, SVG Export Plug-In . SVG Version: 6.00 Build 0)  -->
<svg version="1.1" id="圖層_1" xmlns="http://www.w3.org/2000/svg" xmlns:xlink="http://www.w3.org/1999/xlink" x="0px" y="0px"
	 viewBox="0 0 380 70" style="enable-background:new 0 0 380 70;" xml:space="preserve">
<style type="text/css">
	.st0{fill:#00404B;}
	.st1{fill:#C79F62;}
</style>
<path class="st0" d="M1,6.5C0.9,6.2,0.7,5.9,0.6,5.4C0.9,5.5,2,5.6,3.8,5.7v-3c0-0.6-0.1-1.2-0.2-1.9C4.3,0.9,4.9,1,5.7,1.1
	c0.5,0.1,0.8,0.2,0.8,0.4c0,0.1-0.1,0.2-0.4,0.3C5.7,1.9,5.6,2,5.6,2.1v3.6H6c0.5-0.8,0.8-1.3,1-1.3c0.1,0,0.3,0.2,0.7,0.7
	C8,5.5,8.2,5.8,8.3,6c0,0.2-0.1,0.3-0.3,0.3H5.6v1.2c1.7,0.8,2.6,1.6,2.6,2.4c0,0.4-0.1,0.7-0.4,0.8c-0.2,0.1-0.4,0.2-0.6,0.2
	c-0.4,0-0.7-0.4-0.8-1.2C6.3,9,6,8.4,5.6,8v6.9c0,2.2,0,3.7,0.1,4.7c0,0.3-0.4,0.5-1.3,0.5c-0.5,0-0.7-0.1-0.7-0.4
	c0-0.8,0.1-2.4,0.1-4.9v-4.5c-0.9,2-1.8,3.5-2.9,4.6c-0.1,0-0.2-0.1-0.3-0.2c1.5-2.5,2.5-5.2,2.9-8.4C1.9,6.3,1,6.4,1,6.5z
	 M13.6,1.8c0,0.1-0.1,0.2-0.3,0.3c-0.4,0.2-0.7,0.3-0.7,0.4v6.9c0,5.6-1.8,9.1-5.5,10.5C7,19.8,7,19.7,6.9,19.6
	c1.4-1.2,2.4-2.6,2.9-4.1c0.4-0.9,0.7-2.3,0.9-4.3C10.2,11.8,9.6,12.4,9,13c0,0.1-0.1,0.4-0.1,0.9c0,0.1-0.1,0.2-0.2,0.2
	c-0.2,0-0.8-0.8-1.6-2.3c0.5,0,1.7-0.5,3.7-1.5c0-0.7,0.1-1.5,0.1-2.4V3.1c0-0.9-0.1-1.6-0.2-2.2C12.6,1.3,13.5,1.6,13.6,1.8z
	 M10.4,7.4c0,0.7-0.3,1-0.8,1S8.9,8.1,8.9,7.6c0-0.3-0.1-0.7-0.1-1.2c-0.1-0.5-0.2-1-0.4-1.6C8.2,4.3,8.1,4,8,3.7
	c0.1-0.1,0.2-0.2,0.3-0.2C9.6,4.9,10.4,6.2,10.4,7.4z M16.7,1.9c0,0.1-0.1,0.2-0.3,0.3c-0.4,0.1-0.6,0.3-0.7,0.4v4.9
	c0.8-1.1,1.4-2.4,1.7-3.7c0.3,0.2,0.9,0.5,1.7,1c0.4,0.3,0.6,0.5,0.6,0.6s-0.1,0.2-0.3,0.2c-0.4,0-0.7,0.1-0.8,0.1
	c-0.4,0.5-0.8,1-1.3,1.4s-1,0.8-1.5,1V10c0.9,0.2,1.7,0.5,2.3,0.8c0.9,0.5,1.4,1,1.4,1.5s-0.1,0.8-0.2,0.9c-0.1,0.3-0.4,0.4-0.7,0.4
	c-0.2,0-0.5-0.4-0.9-1.1c-0.6-0.9-1.2-1.6-1.8-2v6.6c0,0.5,0.2,0.7,0.6,0.7h0.6c0.6,0,1-0.4,1.2-1.3c0.3-1,0.5-1.6,0.5-1.9
	c0.1,0,0.2,0,0.3,0c0,0,0,0.8,0,2.3c0,0.3,0.1,0.5,0.3,0.6c0.3,0.2,0.5,0.4,0.5,0.6c0,0.5-0.4,0.8-1.1,1c-0.4,0.1-0.9,0.2-1.6,0.2
	c-0.8,0-1.2,0-1.4-0.1c-1.2-0.1-1.8-0.8-1.8-2V2.7c0-0.6,0-1.2-0.1-1.8C15.7,1.4,16.7,1.7,16.7,1.9z"/>
<path class="st0" d="M39.4,1.4c0.6,0.4,0.9,0.7,0.9,0.9c0,0.1-0.1,0.3-0.3,0.4c-0.3,0.3-0.5,0.4-0.5,0.5v9.7c0,3.3,0.1,5.5,0.1,6.7
	c0,0.4-0.5,0.7-1.4,0.7c-0.4,0-0.5-0.2-0.5-0.5v-1.2h-13v0.9c-0.1,0.4-0.5,0.6-1.2,0.6c-0.4,0-0.7-0.1-0.8-0.2c0-2.9,0-5.8,0.1-8.6
	V5.7c0-2.4-0.1-3.8-0.1-4.3l2,0.8h12.6c0.6-0.8,1-1.2,1.2-1.2C38.6,0.9,39,1.1,39.4,1.4z M37.6,17.9V2.6H24.7v15.3H37.6z M35.8,4.3
	c0.4,0.4,0.7,0.7,0.7,0.8c0,0.2-0.1,0.3-0.2,0.3h-4.4V7h2.8c0.6-0.8,1-1.2,1.2-1.3c0.1,0,0.4,0.2,0.8,0.7c0.4,0.4,0.7,0.7,0.7,0.9
	c0,0.2-0.1,0.3-0.2,0.3h-8.7c-2,0-3.1,0.1-3.1,0.2c-0.1-0.3-0.3-0.6-0.4-1.1c0.3,0.1,1.4,0.2,3.2,0.3h2V5.4h-0.6c-2,0-3,0.1-3,0.2
	c-0.1-0.3-0.3-0.6-0.4-1.1c0.3,0.1,1.4,0.2,3.3,0.3h0.8c0-0.7-0.1-1.3-0.1-1.8C32,3.3,33,3.5,33,3.7S32.9,4,32.7,4
	c-0.4,0.2-0.6,0.3-0.6,0.4v0.4h2c0.6-0.8,1-1.1,1.2-1.1C35.1,3.6,35.4,3.8,35.8,4.3z M25.3,16.6c-0.1-0.1-0.2-0.2-0.2-0.3
	c2.2-1.3,3.7-2.6,4.6-3.9c0-0.1,0.1-0.1,0.1-0.2h-1.4c-0.1,0.4-0.5,0.6-1.1,0.6c-0.4,0-0.6-0.1-0.7-0.2c0-0.7,0-1.4,0.1-2V9.3
	c0-0.6-0.1-0.9-0.1-1l1.6,0.6h5.1c0.5-0.6,0.9-1,1-1c0.2,0,0.5,0.2,1,0.6C35.8,8.9,36,9.1,36,9.3c0,0.1-0.1,0.3-0.3,0.4
	c-0.3,0.2-0.4,0.4-0.4,0.4v1.1c0.1,0.4,0.1,0.7,0.1,0.8c0.3,0.2,0.7,0.4,1.2,0.7c0.3,0.2,0.5,0.4,0.5,0.5s-0.1,0.1-0.3,0.1
	c-0.3,0-0.5,0.1-0.7,0.1c-0.3,0.2-0.6,0.4-1,0.6c-0.2,0.1-0.3,0.2-0.5,0.2c1.1,0.5,1.7,1.1,1.7,1.8c0,0.3-0.1,0.5-0.2,0.6
	C36,16.9,35.8,17,35.4,17c-0.3,0-0.7-0.5-1.3-1.4c-0.6-0.7-1.4-1.3-2.4-1.9v2.4c0,0.3,0,0.6,0,0.8c0,0.4-0.4,0.5-1.1,0.5
	c-0.5,0-0.8-0.1-0.8-0.3V14C28.9,15,27.3,15.9,25.3,16.6z M33.7,11.7V9.4h-5.2v2.3H33.7z M35.1,12.5c-0.2,0.1-0.4,0.1-0.6,0.1
	c-0.5,0-0.8-0.1-0.8-0.3H32v1c0.8,0.2,1.6,0.4,2.1,0.6C34.5,13.4,34.8,12.9,35.1,12.5z"/>
<path class="st0" d="M45.8,5.2h5.3V2.8c0-0.7-0.1-1.3-0.2-2c0.7,0.1,1.5,0.2,2.3,0.3c0.6,0.1,0.9,0.3,0.9,0.4S54,1.8,53.7,1.8
	c-0.4,0.1-0.6,0.3-0.6,0.3v3.1h4.8c0.6-0.8,1-1.2,1.2-1.2s0.6,0.3,1.2,0.7c0.5,0.4,0.8,0.7,0.8,0.9c0,0.1-0.1,0.3-0.3,0.4
	c-0.3,0.3-0.5,0.4-0.6,0.5v3.8c0.1,1.5,0.1,2.4,0.1,2.8c0,0.5-0.4,0.8-1.2,0.8c-0.6,0-0.9-0.1-0.9-0.4v-1.1H53v1.9
	c0,2.4,0.1,4.1,0.1,5c0,0.4-0.5,0.6-1.4,0.6c-0.5,0-0.7-0.1-0.7-0.4c0-0.8,0-2.6,0.1-5.2v-1.9H46v0.9c-0.1,0.5-0.5,0.7-1.2,0.7
	c-0.5,0-0.7-0.1-0.8-0.2c0-1.4,0-2.9,0.1-4.3V6.7c0-1.2-0.1-1.9-0.2-2.1L45.8,5.2z M51.1,11.8v-6H46v6H51.1z M53,11.8h5.2v-6H53
	V11.8z"/>
<path class="st0" d="M80.7,1.8c1,0.8,1.4,1.3,1.4,1.5S82,3.6,81.9,3.6H75v6.2h2.8c0.6-0.8,1-1.3,1.2-1.5h0.1C79.3,8.4,79.6,8.6,80,9
	c0.6,0.5,0.9,0.9,0.9,1.1c0,0.2,0,0.3-0.1,0.3H75V18h3.8c0.7-0.9,1.2-1.5,1.6-1.7c0.1,0,0.1,0,0.2,0c0.2,0.1,0.4,0.2,0.6,0.4
	c1,0.9,1.6,1.4,1.6,1.7c0,0.2-0.1,0.3-0.2,0.3H68.8c-2.5,0-4.1,0.1-4.7,0.3c-0.1-0.4-0.3-0.8-0.5-1.1c0.8,0.1,1.9,0.2,3.4,0.2V9.7
	c0-1,0-1.8-0.1-2.4c2.1,0.3,3.2,0.6,3.2,0.8S70,8.4,69.7,8.5C69.2,8.7,69,8.8,69,9v9.2h3.9V3.9h-3.5c-2.3,0-3.7,0.1-4.3,0.3
	c-0.1-0.4-0.3-0.7-0.5-1.1c0.9,0.1,2.5,0.2,4.8,0.2h9.1c0.7-0.9,1.2-1.4,1.5-1.6c0,0,0.1,0,0.2,0C80.3,1.5,80.5,1.6,80.7,1.8z"/>
<path class="st0" d="M87.1,2.4h3c0.5-0.7,0.9-1.1,1.1-1.1s0.5,0.2,1.1,0.6c0.5,0.4,0.8,0.7,0.8,0.8S93,3,92.8,3.1
	c-0.3,0.2-0.4,0.4-0.5,0.5V6c0.1,0.9,0.1,1.5,0.1,1.8c0,0.5-0.4,0.7-1.1,0.7c-0.5,0-0.8-0.1-0.9-0.4H90v3.1h0.7
	c0.5-0.8,0.8-1.2,0.9-1.2s0.4,0.3,0.8,0.8c0.4,0.4,0.5,0.7,0.5,0.7c0,0.1,0,0.1,0,0.1c1.2-0.8,2.1-1.6,2.7-2.3
	c0.3-0.3,0.6-0.6,0.9-0.9c-0.6-0.8-1.2-1.7-1.6-2.7c-0.6,0.8-1.2,1.5-1.9,2c-0.1-0.1-0.3-0.1-0.4-0.2c1.1-1.8,1.9-4,2.4-6.8
	c1.8,0.6,2.7,0.9,2.7,1.1c0,0.3-0.4,0.4-1.1,0.5c-0.1,0.4-0.3,0.7-0.4,1h2.9c0.7-0.6,1.1-0.9,1.3-0.9c0.2,0,0.6,0.3,1.1,0.7
	c0.7,0.6,1,0.9,1,1.1c0,0.2-0.4,0.4-1.1,0.5c-0.9,1.6-1.9,2.9-3,4c0.2,0.1,0.3,0.2,0.5,0.3c1.4,0.9,2.9,1.3,4.7,1.4
	c0,0.2,0,0.3,0,0.4c-0.1,0-0.3,0.1-0.5,0.4c-0.1,0.1-0.3,0.4-0.4,0.8c-0.1,0.3-0.2,0.4-0.4,0.4c-0.8,0-2.1-0.7-3.8-2.2
	C98.2,10,98,9.7,97.7,9.5c-0.3,0.3-0.7,0.5-1,0.7c-1.6,1.3-3.3,2.3-5.2,3c-0.1-0.2-0.2-0.3-0.2-0.3c0.6-0.4,1.2-0.8,1.7-1.1h-2.7
	v4.6c0.9-0.2,1.9-0.4,2.8-0.7c0,0.1,0,0.2,0.1,0.3c-1.5,1.3-3.7,2.2-6.7,2.9c-0.1,0.7-0.2,1.1-0.4,1.1c-0.1,0-0.4-0.5-0.8-1.5
	c-0.3-0.6-0.4-1-0.5-1.4c0.3,0,0.7,0,0.9,0v-5c0-0.8,0-1.4-0.1-1.9c1.7,0.3,2.5,0.5,2.5,0.7s-0.1,0.3-0.3,0.3
	c-0.4,0.2-0.5,0.3-0.5,0.4v5.5c0.5,0,0.9-0.1,1.3-0.2V8.2h-0.9v0.1c-0.1,0.4-0.5,0.6-1.2,0.6c-0.4,0-0.7-0.1-0.8-0.2
	c0-1.1,0-2.1,0.1-3.2V3.4c0-0.9-0.1-1.4-0.1-1.6L87.1,2.4z M90.6,7.6V2.9h-3.1v4.7H90.6z M95.2,13.2h4.2c0.5-0.7,0.9-1,1.1-1
	s0.6,0.2,1.1,0.6c0.5,0.4,0.8,0.7,0.8,0.8s-0.1,0.3-0.3,0.4c-0.3,0.2-0.4,0.4-0.5,0.5v2.7c0.1,1,0.1,1.7,0.1,2
	c0,0.5-0.4,0.7-1.1,0.7c-0.5,0-0.8-0.1-0.8-0.4v-1h-4.3v0.8c-0.1,0.4-0.5,0.6-1.2,0.6c-0.4,0-0.7-0.1-0.8-0.2c0-1.1,0-2.2,0.1-3.3
	v-2.2c0-0.9-0.1-1.5-0.1-1.6L95.2,13.2z M97.3,7.6c0.9-1.2,1.6-2.5,2.1-3.9h-3.2c-0.3,0.5-0.5,1-0.8,1.4C96,6.2,96.6,7,97.3,7.6z
	 M99.9,18v-4.2h-4.3V18H99.9z"/>
<path class="st0" d="M112.1,1.6c0,0.1-0.1,0.2-0.2,0.2c-0.2,0.1-0.3,0.1-0.5,0.3c-0.2,0.1-0.3,0.2-0.3,0.3v2.9h0.4
	c0.6-0.7,1-1.1,1.3-1.3c0,0,0.1,0,0.2,0c0.1,0.1,0.3,0.2,0.5,0.3c0.8,0.7,1.2,1.2,1.2,1.3c0,0.2-0.1,0.3-0.2,0.3h-3.3v4.2
	c1.4-0.4,2.6-0.9,3.6-1.5c0,0,0.1,0.1,0.1,0.2c-1,1-2.2,1.9-3.7,2.7v6c0,1.6-0.7,2.5-2.1,2.5c-0.3,0-0.4-0.1-0.4-0.3
	c-0.1-0.4-0.3-0.7-0.7-1c-0.3-0.2-0.7-0.4-1.2-0.5c0-0.1,0.1-0.2,0.1-0.3c0.3,0,1.1,0,2.2,0c0.2,0,0.3-0.2,0.3-0.5v-4.9
	c-0.7,0.3-1.3,0.6-2,0.8c0,0.5-0.1,0.7-0.2,0.7s-0.3-0.2-0.5-0.7c-0.2-0.4-0.5-1.1-0.9-2c1.3-0.2,2.5-0.4,3.6-0.7V5.9h-0.9
	c-1.1,0-1.8,0.1-2.1,0.2c-0.1-0.4-0.3-0.7-0.5-1.1c0.4,0.1,1,0.2,2,0.2h1.5V3.5c0-1.2-0.1-2.1-0.1-2.7C110.9,1.1,112,1.4,112.1,1.6z
	 M123.4,1.5c0.9,0.8,1.4,1.3,1.4,1.6c0,0.2-0.1,0.3-0.2,0.3h-4v14.2c0,1.4-0.9,2.2-2.5,2.4c-0.3,0-0.4-0.2-0.4-0.5
	c-0.1-0.3-0.2-0.6-0.4-0.9c-0.1-0.4-0.9-0.7-2.4-1v-0.4c1,0.1,2,0.1,3.1,0.1c0.4,0,0.6-0.1,0.6-0.3V3.3h-2.2c-1.5,0-2.4,0.1-2.8,0.2
	c-0.1-0.4-0.3-0.7-0.5-1.1c0.5,0.1,1.4,0.2,2.8,0.2h5.3c0.7-0.9,1.2-1.4,1.5-1.6c0,0,0.1,0,0.2,0C123,1.2,123.2,1.4,123.4,1.5z"/>
<path class="st0" d="M129.7,17.5c-0.9,1.1-1.9,1.9-2.9,2.4c-0.1-0.1-0.1-0.1-0.2-0.2c1-1,1.8-2.2,2.4-3.4c0.7-1.6,1.2-3.1,1.3-4.6
	h-1c-0.2,0.3-0.3,0.6-0.4,0.8c-0.1,0.2-0.3,0.3-0.7,0.3c-0.7,0-1-0.2-1-0.5c0.9-2,1.7-3.8,2.4-5.5h-1.8c-0.2,0-0.5,0.1-0.8,0.1
	c-0.1-0.3-0.2-0.5-0.3-0.8c0.4,0.1,0.8,0.1,1,0.1h1.8c0.6-0.5,1-0.8,1.1-0.8c0.2,0,0.5,0.2,0.9,0.6s0.7,0.7,0.7,0.9
	c0,0.1-0.2,0.3-0.6,0.5c-0.2,0.1-0.3,0.1-0.4,0.2c-0.7,1.6-1.2,2.8-1.7,3.7h0.7c0.5-0.6,0.8-0.9,1-0.9s0.5,0.2,1,0.5
	c0.5,0.4,0.8,0.7,0.8,0.8s-0.1,0.3-0.4,0.4c-0.3,0.1-0.4,0.3-0.5,0.4c-0.3,1.3-0.7,2.5-1.3,3.4c0.6,0.5,1.4,0.9,2.5,1.2
	c1,0.4,3,0.5,5.9,0.5c3.1-0.1,5.3-0.3,6.5-0.6c0,0.2,0,0.4,0,0.4c-0.2,0.1-0.4,0.2-0.6,0.4c-0.2,0.2-0.3,0.5-0.4,0.8
	c0,0.5-0.3,0.7-0.8,0.7c-3,0-4.7-0.1-5.3-0.2c-2.9,0-5-0.4-6.2-1.1c-0.7-0.4-1.4-1-1.9-1.7C130.3,16.7,130,17.1,129.7,17.5z
	 M129.8,1.5c1,0.6,1.5,1.4,1.5,2.2c0,0.5-0.1,0.8-0.4,1c-0.1,0.1-0.3,0.2-0.6,0.2c-0.6,0-1-0.4-1.2-1.3c-0.3-0.8-0.5-1.4-0.8-1.8
	c-0.1-0.3-0.4-0.5-0.6-0.8c0-0.1,0.1-0.1,0.2-0.2C128.6,0.9,129.3,1.2,129.8,1.5z M144,1.6c0.5,0.5,0.8,0.8,0.8,1
	c0,0.2-0.1,0.3-0.3,0.3C144.4,3,144.1,3,143.6,3c-0.9,0.5-2.1,1-3.6,1.6c0,0.1,0,0.1,0,0.1c0,0.3,0,0.5-0.1,0.7s-0.2,0.4-0.3,0.4
	h2.7c0.6-0.6,0.9-0.9,1-0.9c0.2,0.1,0.4,0.2,0.9,0.5c0.5,0.4,0.8,0.7,0.8,0.8c0,0.2-0.1,0.3-0.3,0.4s-0.3,0.2-0.5,0.4v7.1
	c0,1.2-0.7,2-1.8,2.2c-0.3,0-0.4-0.2-0.4-0.4c-0.1-0.4-0.3-0.7-0.5-0.9c-0.3-0.2-0.7-0.4-1.3-0.6c0-0.1,0-0.2,0-0.3
	c0.7,0.1,1.2,0.1,1.7,0.1c0.4,0,0.7-0.1,0.7-0.4v-1.6h-2.8V13c0,0.8,0.1,1.7,0.1,2.7c0,0.3-0.3,0.4-1,0.4c-0.5,0-0.8-0.1-0.8-0.3
	c0-0.5,0.1-1.5,0.1-3v-0.7h-2.6v3.4c-0.1,0.4-0.4,0.6-1.1,0.6c-0.4,0-0.6-0.1-0.7-0.2c0-1.7,0-3.4,0.1-5.1V7.5
	c0-1.4-0.1-2.3-0.1-2.5l1.6,0.6h3.4c-0.3-0.1-0.5-0.4-0.8-0.8c-0.5-0.6-1.1-1.1-1.8-1.5c0,0,0.1-0.1,0.1-0.3c1.8,0.1,3,0.4,3.5,0.8
	c0.9-0.7,1.6-1.3,2-1.8h-6.3c-0.6,0-1.2,0.1-1.8,0.1c-0.1-0.3-0.2-0.6-0.3-0.9c0.7,0.1,1.3,0.2,1.9,0.2h6.3c0.6-0.6,1-0.9,1.3-0.9
	C143,0.9,143.4,1.2,144,1.6z M138.1,8.7V6.4h-2.6v2.3H138.1z M138.1,11.8V9.3h-2.6v2.5H138.1z M139.8,8.7h2.8V6.4h-2.8V8.7z
	 M139.8,11.8h2.8V9.3h-2.8V11.8z"/>
<path class="st0" d="M156.6,14.1l-0.4-0.4c0.8-0.7,1.2-1.3,1.2-2c0-0.1-0.1-0.2-0.3-0.2c-1-0.2-1.5-0.7-1.5-1.5c0-0.4,0.1-0.7,0.4-1
	s0.7-0.5,1.2-0.5s0.9,0.2,1.2,0.6c0.2,0.3,0.4,0.7,0.4,1.1C158.8,11.8,158,13,156.6,14.1z"/>
<path class="st0" d="M176.6,4.2c0.8,0.7,1.3,1.2,1.4,1.4c0,0.2-0.1,0.3-0.2,0.3h-7c-0.9,0-1.6,0.1-2,0.2c-0.1-0.3-0.2-0.5-0.3-0.9
	c0.5,0.1,1.2,0.1,2.3,0.1h4.2c0.3-0.4,0.7-0.8,1-1.2c0.1-0.1,0.2-0.2,0.3-0.2C176.3,3.9,176.4,4,176.6,4.2z M177.4,7.8
	c0,0.2-0.4,0.4-1.1,0.6c-0.5,2.6-1.3,4.8-2.3,6.7c1.2-0.2,2.3-0.4,3.2-0.7c0,0,0.1,0.1,0.1,0.2c-1.7,1.2-4,2.2-7.1,3.1
	c0,0.4-0.1,0.7-0.2,0.7s-0.3-0.2-0.5-0.6s-0.5-1.1-0.9-2c1.8-0.1,3.3-0.3,4.7-0.5c0.7-2.9,1.1-5.8,1.3-8.7
	C176.4,7.2,177.4,7.6,177.4,7.8z M172.7,12.7c0,1-0.4,1.5-1.1,1.6c-0.5,0-0.9-0.3-0.9-0.9c0-0.3,0-0.8,0-1.5c0-0.5,0-1.3,0-2.3
	c-0.1-1.3-0.3-2.2-0.6-2.7c0.1,0,0.2-0.1,0.3-0.1C171.8,8.9,172.6,10.8,172.7,12.7z M174.1,3.5c0,0.5-0.1,0.8-0.4,1
	c-0.2,0.2-0.4,0.2-0.7,0.2c-0.4,0-0.6-0.4-0.7-1.3c-0.2-1-0.5-1.7-1-2.3c0.1,0,0.1-0.1,0.3-0.2C173.2,1.8,174.1,2.7,174.1,3.5z
	 M183.6,1.6c0,0.2-0.1,0.3-0.4,0.3c-0.4,0.2-0.6,0.3-0.6,0.4v3.3h2c0.6-0.8,1-1.3,1.2-1.5h0.1c0.2,0.1,0.5,0.3,0.9,0.7
	c0.6,0.5,0.9,0.9,0.9,1.1s0,0.3-0.1,0.4h-5.1v4.8h1.5c0.5-0.7,0.9-1,1.1-1.1c0.2,0,0.6,0.2,1.1,0.6c0.5,0.4,0.8,0.7,0.8,0.8
	s-0.1,0.3-0.3,0.4c-0.3,0.2-0.5,0.4-0.5,0.5v3.9c0.1,1.5,0.1,2.5,0.1,2.9c0,0.5-0.4,0.7-1.1,0.7c-0.5,0-0.8-0.1-0.9-0.4v-1.5h-5v1.4
	c-0.1,0.4-0.5,0.6-1.2,0.6c-0.4,0-0.7-0.1-0.8-0.2c0-1.5,0-2.9,0.1-4.3v-2.9c0-1.2-0.1-2-0.1-2.2l1.8,0.7h1.5V2.9
	c0-0.9,0-1.7-0.1-2.2C182.6,1.1,183.6,1.4,183.6,1.6z M184.5,11.7h-5v5.8h5V11.7z"/>
<path class="st0" d="M191.6,15.7c0.1,0.5,0.1,1,0.2,1.5c0,1.6-0.5,2.5-1.5,2.5c-0.6,0-0.9-0.2-0.9-0.6c0-0.2,0-0.4,0.1-0.5
	c0-0.1,0.3-0.4,0.8-0.8c0.5-0.5,0.9-1.2,1-2.2C191.5,15.7,191.6,15.7,191.6,15.7z M191.8,2.2h5.7c0.5-0.6,0.8-0.9,0.9-0.9
	c0.1,0,0.4,0.2,0.7,0.4c0.5,0.3,0.7,0.6,0.7,0.7s-0.1,0.2-0.3,0.3C199.2,2.9,199,3,199,3.1v3.2c0,1.1,0,1.9,0.1,2.2
	c0,0.4-0.4,0.5-1.1,0.5c-0.3,0-0.4-0.1-0.4-0.4V8.5h-2v2.1h1.3c0.6-0.8,1-1.3,1.2-1.3c0.1,0,0.4,0.2,0.8,0.7
	c0.4,0.4,0.6,0.7,0.7,0.9c0,0.2-0.1,0.3-0.3,0.3h-3.7V13c1.6-0.1,2.9-0.2,3.8-0.3c0.1,0.1,0.1,0.2,0.2,0.3c-1.7,0.6-4.5,1.2-8.4,1.8
	c-0.1,0.6-0.2,0.8-0.4,0.8c-0.1,0-0.3-0.3-0.4-0.8c-0.2-0.5-0.4-1.1-0.6-1.9c0.4,0.1,1,0.1,1.8,0.1c0.9,0,1.7,0,2.5-0.1V11h-0.3
	c-2,0-3.1,0.1-3.1,0.2c-0.1-0.3-0.3-0.6-0.4-1.1c0.3,0.1,1.4,0.2,3.2,0.3h0.5V8.3h-2v0.3c-0.1,0.3-0.4,0.5-0.9,0.5
	c-0.3,0-0.5,0-0.6-0.1c0-1.2,0-2.4,0.1-3.5V3.2c0-1-0.1-1.6-0.1-1.8L191.8,2.2z M193.9,8.1V2.7h-2v5.4H193.9z M193.6,6.5
	c0,0.5-0.2,0.8-0.6,0.8c-0.3,0-0.4-0.1-0.4-0.5V6.5c0-0.2,0-0.4,0-0.6c0-0.7-0.1-1.3-0.4-1.9c0.1,0,0.2-0.1,0.2-0.1
	C193.2,4.8,193.6,5.6,193.6,6.5z M194.5,17.8c0,1-0.4,1.4-1.1,1.4c-0.4,0-0.6-0.3-0.6-0.8c0-0.1,0.1-0.4,0.3-0.8
	c0.1-0.3,0.1-0.6,0.1-1.1c0-0.3,0-0.7-0.1-0.9c0.1,0,0.2,0,0.3-0.1C194.1,16.4,194.5,17.2,194.5,17.8z M196.9,17.8
	c0,0.7-0.3,1.1-0.9,1.1c-0.4,0-0.6-0.2-0.6-0.7v-0.3c0-0.2,0-0.4,0-0.6c0-0.7-0.1-1.4-0.2-2.1c0.1,0,0.2-0.1,0.2-0.1
	C196.4,16,196.9,16.9,196.9,17.8z M195.5,8.1h2V4.7c-0.1,0-0.2,0.1-0.3,0.1c-0.3,1-0.7,1.9-1.2,2.7c-0.1,0-0.2,0-0.2-0.1
	c0.3-1.2,0.4-2.4,0.5-3.6c0.6,0.2,1,0.4,1.3,0.5V2.8h-2v5.3H195.5z M199.5,17.1c0,0.4-0.1,0.7-0.3,0.8c-0.2,0.1-0.4,0.2-0.6,0.2
	c-0.2,0-0.4-0.4-0.5-1.2c-0.1-0.9-0.4-1.6-0.7-2.1c0,0,0.1-0.1,0.2-0.2C198.9,15.4,199.5,16.3,199.5,17.1z M205.6,1.5
	c0,0.2-0.1,0.3-0.4,0.3c-0.4,0.2-0.6,0.3-0.6,0.4v3.6h1.2c0.5-0.8,0.9-1.2,1.1-1.3h0.1c0.1,0,0.4,0.3,0.8,0.6c0.5,0.5,0.8,0.8,0.9,1
	c0,0.2-0.1,0.3-0.1,0.4h-4v5h1c0.5-0.7,0.9-1.1,1.1-1.1s0.5,0.2,1.1,0.6c0.5,0.4,0.8,0.7,0.8,0.8s-0.1,0.3-0.4,0.4
	c-0.4,0.2-0.6,0.4-0.7,0.5v3.7c0.1,1.4,0.1,2.4,0.1,2.8c0,0.5-0.4,0.7-1.1,0.7c-0.5,0-0.8-0.1-0.8-0.4v-1.4h-4v1.1
	c-0.1,0.4-0.5,0.6-1.1,0.6c-0.4,0-0.7-0.1-0.8-0.2c0-1.4,0-2.8,0.1-4.2v-2.7c0-1.2-0.1-1.9-0.1-2.1l1.8,0.7h1.2V3
	c0-0.9,0-1.7-0.1-2.2C204.6,1,205.6,1.3,205.6,1.5z M205.7,12h-4v5.6h4V12z"/>
<path class="st0" d="M217.8,2.9c0.7,0.7,1.2,1.1,1.3,1.3c0,0.2-0.1,0.3-0.2,0.3h-3.3v2.2h0.8c0.5-0.7,0.9-1,1-1
	c0.2,0,0.4,0.2,0.8,0.4c0.5,0.4,0.8,0.6,0.8,0.8c0,0.1-0.1,0.2-0.2,0.3c-0.2,0.2-0.4,0.4-0.4,0.4v3.3c0,1.2,0,1.9,0.1,2.3
	c0,0.4-0.4,0.6-1.2,0.6c-0.3,0-0.5-0.1-0.5-0.4v-0.3h-1.1v2.2c0,0.1,0,0.2,0,0.2h0.9c0.3-0.4,0.6-0.8,0.9-1.1
	c0.1-0.1,0.2-0.2,0.2-0.2s0.2,0.1,0.4,0.2c0.7,0.7,1.2,1.1,1.2,1.3s-0.1,0.3-0.1,0.3h-3.5c0,1.6,0,2.8,0.1,3.6
	c0,0.3-0.4,0.5-1.2,0.5c-0.4,0-0.6-0.1-0.6-0.4c0-0.6,0-1.8,0.1-3.7h-1c-0.9,0-1.6,0.1-2,0.2c-0.1-0.3-0.2-0.5-0.3-0.8
	c0.4,0.1,1.2,0.1,2.3,0.1h1c0-0.1,0-0.2,0-0.3v-2.1h-1v0.4c-0.1,0.4-0.4,0.5-1,0.5c-0.4,0-0.6-0.1-0.7-0.2c0-1.2,0-2.4,0.1-3.6V7.8
	c0-1-0.1-1.6-0.1-1.8l1.5,0.6h1.2V4.4h-0.8c-0.9,0-1.5,0.1-2,0.2c-0.1-0.2-0.2-0.5-0.3-0.8c0.4,0.1,1.2,0.1,2.3,0.1h0.8V2.5
	c0-0.6-0.1-1.2-0.2-1.7c0.6,0.1,1.3,0.2,1.9,0.3c0.5,0.1,0.7,0.2,0.7,0.4c0,0.1-0.1,0.2-0.3,0.2c-0.4,0.1-0.5,0.2-0.5,0.3v2h0.7
	c0.3-0.4,0.6-0.8,0.9-1.1c0.1-0.1,0.2-0.1,0.2-0.1C217.5,2.7,217.6,2.8,217.8,2.9z M214,9.5V7.2h-1v2.3H214z M214,12.5V10h-1v2.5
	H214z M215.6,9.5h1.1V7.2h-1.1V9.5z M215.6,12.5h1.1V10h-1.1V12.5z M226.5,12.7c0.6,0.1,1,0.1,1.1,0.2c0.1,0,0.2,0.1,0.2,0.3
	c0,0.1-0.2,0.2-0.6,0.3c-0.2,0.1-0.3,0.1-0.3,0.1v0.5h0.5c0.5-0.7,0.8-1.1,1-1.1c0.1,0,0.3,0.2,0.7,0.6c0.3,0.4,0.5,0.7,0.6,0.8
	c0,0.2-0.1,0.3-0.3,0.3H227v3.1c0,1-0.7,1.8-2.1,2.1c-0.1,0-0.2-0.1-0.2-0.4c0-0.4-0.3-0.8-0.7-1.1c-0.3-0.2-0.6-0.4-0.9-0.4
	c0-0.1,0.1-0.2,0.1-0.3c0.6,0.1,1.2,0.1,1.8,0.1c0.2,0,0.3-0.2,0.3-0.5v-2.6h-3c-2,0-3.1,0.1-3.1,0.2c-0.1-0.3-0.3-0.6-0.4-1.1
	c0.3,0.1,1.4,0.2,3.2,0.3h3.2c0-0.8-0.1-1.3-0.1-1.8C225.6,12.5,226,12.6,226.5,12.7z M228.6,2.1c0.7,0.6,1.1,1,1.1,1.2
	s-0.1,0.3-0.2,0.3h-4.6v1.3h2c0.5-0.5,0.8-0.8,1-0.8c0.1,0,0.5,0.2,1,0.5c0.4,0.3,0.7,0.6,0.7,0.7s-0.1,0.2-0.4,0.3
	c-0.3,0.2-0.5,0.3-0.6,0.4v2c0.1,0.8,0.1,1.3,0.1,1.5c0,0.4-0.3,0.6-0.9,0.6c-0.4,0-0.7-0.1-0.7-0.3H225v1.4c1,0,1.8-0.1,2.4-0.1
	c-0.3-0.3-0.6-0.5-0.9-0.8c0,0,0-0.1,0.1-0.1c1.9,0.2,2.9,0.7,2.9,1.6c0,0.2,0,0.3-0.1,0.4c-0.1,0.3-0.3,0.4-0.5,0.4
	c-0.3,0-0.6-0.3-1-0.9c-0.1-0.1-0.2-0.2-0.2-0.3c-2,0.7-4.4,1.1-7.2,1.2c-0.1,0.6-0.3,0.9-0.4,0.9c-0.1,0-0.3-0.3-0.4-1
	c-0.2-0.6-0.3-1.1-0.4-1.4c0.6,0.1,1.5,0.2,2.7,0.2c0.5,0,1,0,1.4,0V9.8h-1.9V10c-0.1,0.4-0.4,0.5-1,0.5c-0.4,0-0.6-0.1-0.7-0.2
	c0-1,0-1.9,0.1-2.9V5.5c0-0.8-0.1-1.3-0.1-1.4l1.5,0.6h2.1V3.4h-1.3c-1.4,0-2.2,0.1-2.6,0.3c-0.1-0.4-0.3-0.7-0.5-1.1
	c0.5,0.1,1.4,0.2,2.7,0.2h1.7V2.5c0-0.8,0-1.4-0.1-1.9c1.7,0.3,2.5,0.5,2.5,0.7s-0.1,0.3-0.3,0.3C225.1,1.7,225,1.9,225,2v0.9h2
	c0.5-0.6,0.9-1,1.2-1.2h0.1C228.3,1.9,228.4,2,228.6,2.1z M222.9,17.1c0,0.3,0,0.5-0.1,0.7c-0.1,0.4-0.4,0.6-0.8,0.6
	c-0.2,0-0.4-0.4-0.7-1.1s-0.7-1.3-1.1-1.8c0.1,0,0.1-0.1,0.1-0.3C222,15.4,222.8,16,222.9,17.1z M223.2,7V5.3h-1.9V7H223.2z
	 M223.2,9.4V7.6h-1.9v1.8H223.2z M224.8,7h2V5.3h-2V7z M224.8,9.4h2V7.6h-2V9.4z"/>
<path class="st0" d="M241.9,1.5c0.7,0.6,1.1,1,1.1,1.2S242.9,3,242.8,3h-2.1v3.7h0.2c0.6-0.8,1-1.2,1.1-1.3c0.1,0,0.1,0,0.1,0
	c0.1,0,0.5,0.4,1.1,1c0.3,0.3,0.4,0.5,0.4,0.6c0,0.2-0.1,0.3-0.3,0.3h-2.7v1.9c0,0.8,0.1,1.7,0.1,2.8c1.7,0.3,2.5,0.5,2.5,0.7
	s-0.1,0.3-0.4,0.4c-0.5,0.2-0.7,0.4-0.7,0.5v0.9h2.4c0.6-0.8,1.1-1.3,1.4-1.4c0,0,0.1,0,0.2,0c0.1,0.1,0.3,0.2,0.5,0.3
	c0.9,0.8,1.3,1.2,1.3,1.4s-0.1,0.3-0.2,0.3h-5.6v3.2h5.1c0.6-0.8,1.1-1.3,1.4-1.4c0,0,0.1,0,0.2,0c0.1,0.1,0.3,0.2,0.5,0.3
	c0.9,0.8,1.3,1.2,1.3,1.4c0,0.2-0.1,0.3-0.2,0.3h-13.7c-2.5,0-4.1,0.1-4.7,0.2c-0.1-0.4-0.3-0.7-0.5-1.1c1,0.1,2.9,0.2,5.4,0.2h3.2
	V15h-2.5c-1.8,0-3,0.1-3.4,0.3c-0.1-0.4-0.3-0.7-0.5-1.1c0.7,0.1,2,0.2,3.7,0.2h2.8v-0.1c0-0.6,0-1.2-0.1-1.7
	c-0.1,0-0.3,0.1-0.5,0.1c-0.6,0-0.9-0.1-0.9-0.3c0-0.6,0.1-1.7,0.1-3.3V7.3h-1.9c-0.5,3.3-2,5.4-4.6,6.3c0,0,0-0.1-0.1-0.3
	c1.6-1.2,2.5-3.2,2.8-6h-0.8c-0.6,0-1.2,0-1.8,0.1c-0.2-0.3-0.3-0.7-0.4-1c0.6,0.2,1.3,0.3,2,0.3h1.1c0-0.6,0.1-1.3,0.1-2
	c0-0.4,0-0.9,0-1.7c-1.1,0-1.8,0.1-2.1,0.2c-0.1-0.4-0.3-0.7-0.5-1.1c0.5,0.1,1.4,0.2,2.6,0.2h4.9c0.5-0.6,0.9-1,1.2-1.2h0.2
	C241.6,1.3,241.7,1.4,241.9,1.5z M238.8,3.1h-1.7c0,0.4,0,0.9,0,1.5c0,0.8,0,1.6-0.1,2.2h1.8V3.1z M246.6,2.8c0,0.2-0.1,0.3-0.4,0.4
	c-0.4,0.2-0.5,0.3-0.5,0.3v5.7c0,0.3-0.4,0.5-1.1,0.5c-0.4,0-0.7-0.1-0.7-0.3c0-1.8,0.1-3.9,0.1-6.2c-0.1-0.4-0.1-0.8-0.1-1.1
	C245.6,2.3,246.5,2.5,246.6,2.8z M250.1,1.4c0.1,0,0.1,0.1,0.1,0.2s-0.1,0.2-0.3,0.3s-0.3,0.1-0.3,0.2v8.6c-0.1,1.3-0.8,2-2.1,2.2
	c-0.2,0-0.4-0.2-0.4-0.5c-0.1-0.4-0.5-0.7-1.1-1.1c-0.4-0.2-0.8-0.3-1.3-0.4c0-0.1,0-0.3,0.1-0.4c0.7,0.1,1.4,0.2,2.2,0.3
	c0.6,0,0.9-0.2,0.9-0.7V4c0-1.4,0-2.4-0.1-2.9C248.5,1.1,249.3,1.2,250.1,1.4z"/>
<path class="st0" d="M18.4,46c0.9,0.8,1.4,1.3,1.4,1.5s-0.1,0.3-0.2,0.3H5.7c-2.5,0-4.1,0.1-4.7,0.3c-0.1-0.4-0.3-0.8-0.5-1.1
	c1,0.1,2.8,0.2,5.4,0.2h3.3v-8.8H6.6c-2.1,0-3.4,0.1-3.9,0.2c-0.1-0.4-0.3-0.7-0.5-1.1c0.8,0.1,2.2,0.2,4.2,0.2H9v-5.2
	c0-1,0-1.8-0.1-2.4c2.1,0.3,3.2,0.6,3.2,0.8c0,0.2-0.1,0.3-0.4,0.4c-0.5,0.2-0.7,0.3-0.7,0.5v5.9h3.5c0.7-0.9,1.2-1.4,1.5-1.6
	c0,0,0.1,0,0.2,0c0.2,0.1,0.4,0.2,0.5,0.4c1,0.8,1.4,1.3,1.4,1.6c0,0.2-0.1,0.3-0.2,0.3h-7v8.8h5c0.7-0.9,1.2-1.4,1.5-1.6
	c0.1,0,0.1,0,0.2,0C18,45.7,18.1,45.8,18.4,46z"/>
<path class="st0" d="M27.9,35.4c0.7,0.6,1.1,1,1.2,1.2c0,0.2-0.1,0.3-0.2,0.3h-2.8v5.7c0.9-0.3,1.9-0.7,2.9-1.1
	c0.1,0.1,0.1,0.2,0.1,0.3c-1.5,1.4-3.4,2.6-5.6,3.6c-0.1,0.2-0.2,0.5-0.2,0.9c0,0.2-0.1,0.3-0.3,0.3s-0.5-0.5-1-1.6
	c-0.2-0.5-0.4-1-0.6-1.3c0.9-0.1,1.8-0.3,2.8-0.6v-6.2H24c-0.9,0-1.6,0.1-2,0.1c-0.1-0.2-0.2-0.5-0.3-0.8c0.4,0.1,1.2,0.1,2.3,0.1
	h0.3V33c0-0.9,0-1.7-0.1-2.2c2,0.3,3,0.5,3,0.8c0,0.2-0.1,0.3-0.4,0.3c-0.4,0.2-0.6,0.3-0.6,0.4v4h0.4c0.3-0.4,0.5-0.7,0.8-1
	c0.1-0.1,0.1-0.1,0.2-0.1S27.7,35.2,27.9,35.4z M35.6,30.4c0.5,0.1,0.8,0.2,0.8,0.4c0,0.1-0.1,0.2-0.4,0.3c-0.4,0.1-0.5,0.2-0.5,0.3
	v3.9c0.7-0.2,1.3-0.4,2.1-0.7c0.4-0.9,0.8-1.3,1-1.3c1.3,0.5,2,0.9,2,1.1s-0.2,0.4-0.5,0.6c-0.2,0.1-0.3,0.2-0.4,0.3
	c0,3.9-0.3,6.3-0.6,6.9c-0.5,1-1.2,1.4-2.2,1.4c-0.1,0-0.3-0.3-0.3-0.6c-0.1-0.4-0.3-0.7-0.6-0.9c-0.2-0.1-0.4-0.2-0.5-0.3
	c0,1.2,0,2,0.1,2.6c0,0.3-0.4,0.5-1.3,0.5c-0.5,0-0.7-0.1-0.7-0.4c0-0.8,0.1-2.4,0.1-4.8v-3.3c-0.9,0.3-1.6,0.5-2.2,0.7v8.8
	c0.2,0.5,1.2,0.7,3.1,0.7H38c0.5,0,0.8-0.4,1-1.3c0.3-1,0.4-1.6,0.4-1.9c0.1,0,0.2,0,0.3,0c0,0,0.1,0.8,0.1,2.3
	c0,0.3,0.1,0.5,0.4,0.6c0.4,0.2,0.6,0.4,0.6,0.7c0,0.5-0.4,0.8-1.1,1c-1,0.1-2.5,0.2-4.3,0.2c-2.1,0-3.4,0-3.9-0.1
	c-1.2-0.1-1.8-0.8-1.8-2v-8.5c-0.7,0.2-1,0.4-1.2,0.5c-0.1-0.2-0.3-0.5-0.7-1c0.4,0,1-0.1,1.8-0.3v-3.9c0-0.6,0-1.2-0.1-1.8
	c1.9,0.3,2.9,0.6,2.9,0.8c0,0.1-0.1,0.2-0.3,0.3c-0.4,0.1-0.6,0.3-0.7,0.4v3.9c0.7-0.2,1.4-0.4,2.2-0.7V32c0-0.6-0.1-1.3-0.2-1.9
	C34.1,30.2,34.8,30.3,35.6,30.4z M36.5,41.7c0.6,0,0.9-0.2,1-0.5c0.2-0.7,0.3-2.7,0.3-5.9c-0.9,0.3-1.7,0.5-2.4,0.7v3.9
	c0,0.6,0,1.2,0,1.6C35.8,41.7,36.2,41.7,36.5,41.7z"/>
<path class="st0" d="M42.8,40.7c-0.1,0-0.2-0.1-0.2-0.2c2.4-2.9,3.9-6.4,4.5-10.5c2.1,0.4,3.1,0.7,3.1,1s-0.4,0.4-1.2,0.5
	c-0.4,1.5-0.9,2.9-1.7,4.2c0.5,0.2,0.7,0.3,0.7,0.4c0,0.1-0.1,0.2-0.4,0.3c-0.3,0.1-0.4,0.2-0.4,0.3v6.8c0,1.8,0.1,3.6,0.1,5.2
	c0,0.3-0.4,0.5-1.2,0.5c-0.5,0-0.7-0.1-0.7-0.3c0-1.8,0.1-3.6,0.1-5.4v-5.3C44.6,39.1,43.7,40,42.8,40.7z M59.9,33.6
	c0.9,0.8,1.3,1.2,1.3,1.4s-0.1,0.3-0.2,0.3h-5.6v5.2h1.4c0.7-0.9,1.2-1.4,1.5-1.6c0.1,0,0.1,0,0.2,0c0.2,0.1,0.3,0.2,0.5,0.4
	c1,0.8,1.4,1.3,1.4,1.6c0,0.2-0.1,0.3-0.2,0.3h-4.9v6.2h2.8c0.7-0.9,1.2-1.4,1.5-1.6c0,0,0.1,0,0.2,0c0.2,0.1,0.4,0.2,0.6,0.4
	c0.9,0.8,1.4,1.3,1.4,1.6c0,0.2-0.1,0.3-0.2,0.3h-9.7c-1.8,0-2.9,0.1-3.3,0.2c-0.1-0.4-0.3-0.7-0.5-1.1c0.7,0.1,1.8,0.2,3.4,0.2h2
	v-6.2h-1.1c-1.4,0-2.3,0.1-2.7,0.2c-0.1-0.4-0.3-0.7-0.5-1.1c0.5,0.1,1.4,0.2,2.6,0.2h1.7v-5.2h-1.4c-1.6,0-2.6,0.1-3,0.3
	c-0.1-0.4-0.3-0.7-0.5-1.1c0.6,0.1,1.7,0.2,3.1,0.2h6c0.6-0.8,1.1-1.3,1.4-1.4c0,0,0.1,0,0.2,0C59.5,33.4,59.7,33.5,59.9,33.6z
	 M55.6,33c0,0.5-0.1,0.9-0.4,1c-0.2,0.2-0.5,0.3-0.7,0.3c-0.5,0-0.8-0.4-1-1.4c-0.3-1-0.7-1.8-1.3-2.4c0-0.1,0.1-0.1,0.3-0.3
	C54.5,31.3,55.6,32.2,55.6,33z"/>
<path class="st0" d="M70.8,32.1c0.7,0.7,1.2,1.1,1.3,1.3c0,0.2-0.1,0.3-0.2,0.3h-3.3v2.2h0.8c0.5-0.7,0.9-1,1-1
	c0.2,0,0.4,0.2,0.8,0.4c0.5,0.4,0.8,0.6,0.8,0.8c0,0.1-0.1,0.2-0.2,0.3c-0.2,0.2-0.4,0.4-0.4,0.4v3.3c0,1.2,0,1.9,0.1,2.3
	c0,0.4-0.4,0.6-1.2,0.6c-0.3,0-0.5-0.1-0.5-0.4v-0.3h-1.1v2.2c0,0.1,0,0.2,0,0.2h0.9c0.3-0.4,0.6-0.8,0.9-1.1
	c0.1-0.1,0.2-0.2,0.2-0.2c0.1,0,0.2,0.1,0.4,0.2c0.7,0.7,1.2,1.1,1.2,1.3s-0.1,0.3-0.1,0.3h-3.5c0,1.6,0,2.8,0.1,3.6
	c0,0.3-0.4,0.5-1.2,0.5c-0.4,0-0.6-0.1-0.6-0.4c0-0.6,0-1.8,0.1-3.7h-1c-0.9,0-1.6,0.1-2,0.2c-0.1-0.3-0.2-0.5-0.3-0.8
	c0.4,0.1,1.2,0.1,2.3,0.1h1c0-0.1,0-0.2,0-0.3v-2.1h-1v0.4c-0.1,0.4-0.4,0.5-1,0.5c-0.4,0-0.6-0.1-0.7-0.2c0-1.2,0-2.4,0.1-3.6V37
	c0-1-0.1-1.6-0.1-1.8l1.5,0.6H67v-2.2h-0.8c-0.9,0-1.5,0.1-2,0.2c-0.1-0.2-0.2-0.5-0.3-0.8c0.4,0.1,1.2,0.1,2.3,0.1H67v-1.4
	c0-0.6-0.1-1.2-0.2-1.7c0.6,0.1,1.3,0.2,1.9,0.3c0.5,0.1,0.7,0.2,0.7,0.4c0,0.1-0.1,0.2-0.3,0.2c-0.4,0.1-0.5,0.2-0.5,0.3v2h0.7
	c0.3-0.4,0.6-0.8,0.9-1.1c0.1-0.1,0.2-0.1,0.2-0.1S70.6,32,70.8,32.1z M67,38.7v-2.3h-1v2.3H67z M67,41.7v-2.5h-1v2.5H67z
	 M68.6,38.7h1.1v-2.3h-1.1V38.7z M68.6,41.7h1.1v-2.5h-1.1V41.7z M79.5,41.9c0.6,0.1,1,0.1,1.1,0.2c0.1,0,0.2,0.1,0.2,0.3
	c0,0.1-0.2,0.2-0.6,0.3c-0.2,0.1-0.3,0.1-0.3,0.1v0.5h0.5c0.5-0.7,0.8-1.1,1-1.1c0.1,0,0.3,0.2,0.7,0.6c0.3,0.4,0.5,0.7,0.6,0.8
	c0,0.2-0.1,0.3-0.3,0.3H80V47c0,1-0.7,1.8-2.1,2.1c-0.1,0-0.2-0.1-0.2-0.4c0-0.4-0.3-0.8-0.7-1.1c-0.3-0.2-0.6-0.4-0.9-0.4
	c0-0.1,0.1-0.2,0.1-0.3C76.8,47,77.4,47,78,47c0.2,0,0.3-0.2,0.3-0.5V44h-3c-2,0-3.1,0.1-3.1,0.2c-0.1-0.3-0.3-0.6-0.4-1.1
	c0.3,0.1,1.4,0.2,3.2,0.3h3.2c0-0.8-0.1-1.3-0.1-1.8C78.6,41.7,79,41.8,79.5,41.9z M81.6,31.3c0.7,0.6,1.1,1,1.1,1.2
	s-0.1,0.3-0.2,0.3h-4.6v1.3h2c0.5-0.5,0.8-0.8,1-0.8c0.1,0,0.5,0.2,1,0.5c0.4,0.3,0.7,0.6,0.7,0.7c0,0.1-0.1,0.2-0.4,0.3
	c-0.3,0.2-0.5,0.3-0.6,0.4v2c0.1,0.8,0.1,1.3,0.1,1.5c0,0.4-0.3,0.6-0.9,0.6c-0.4,0-0.7-0.1-0.7-0.3H78v1.4c1,0,1.8-0.1,2.4-0.1
	c-0.3-0.3-0.6-0.5-0.9-0.8c0,0,0-0.1,0.1-0.1c1.9,0.2,2.9,0.7,2.9,1.6c0,0.2,0,0.3-0.1,0.4c-0.1,0.3-0.3,0.4-0.5,0.4
	c-0.3,0-0.6-0.3-1-0.9c-0.1-0.1-0.2-0.2-0.2-0.3c-2,0.7-4.4,1.1-7.2,1.2c-0.1,0.6-0.3,0.9-0.4,0.9s-0.3-0.3-0.4-1
	c-0.2-0.6-0.3-1.1-0.4-1.4c0.6,0.1,1.5,0.2,2.7,0.2c0.5,0,1,0,1.4,0V39h-1.9v0.2c-0.1,0.4-0.4,0.5-1,0.5c-0.4,0-0.6-0.1-0.7-0.2
	c0-1,0-1.9,0.1-2.9v-1.9c0-0.8-0.1-1.3-0.1-1.4l1.5,0.6h2.1v-1.3h-1.3c-1.4,0-2.2,0.1-2.6,0.3c-0.1-0.4-0.3-0.7-0.5-1.1
	c0.5,0.1,1.4,0.2,2.7,0.2h1.7v-0.3c0-0.8,0-1.4-0.1-1.9c1.7,0.3,2.5,0.5,2.5,0.7s-0.1,0.3-0.3,0.3c-0.4,0.1-0.5,0.3-0.5,0.4v0.9h2
	c0.5-0.6,0.9-1,1.2-1.2h0.1C81.3,31.1,81.4,31.2,81.6,31.3z M75.9,46.3c0,0.3,0,0.5-0.1,0.7c-0.1,0.4-0.4,0.6-0.8,0.6
	c-0.2,0-0.4-0.4-0.7-1.1c-0.3-0.7-0.7-1.3-1.1-1.8c0.1,0,0.1-0.1,0.1-0.3C75,44.6,75.8,45.2,75.9,46.3z M76.2,36.2v-1.7h-1.9v1.7
	H76.2z M76.2,38.6v-1.8h-1.9v1.8H76.2z M77.8,36.2h2v-1.7h-2V36.2z M77.8,38.6h2v-1.8h-2V38.6z"/>
<path class="st0" d="M102.4,31.4c0.9,0.8,1.3,1.2,1.3,1.4s-0.1,0.3-0.2,0.3h-6c1.3,0.5,1.9,0.9,1.9,1c0,0.2-0.4,0.3-1.2,0.3
	c-0.4,0.7-1,1.3-1.8,1.8h3.8c0.6-0.6,1-0.9,1.1-0.9c0.2,0.1,0.5,0.2,0.9,0.5c0.6,0.4,0.9,0.7,0.9,0.9s-0.1,0.3-0.3,0.4
	c-0.2,0.1-0.3,0.2-0.5,0.4v9.1c0,1.3-0.7,2.1-2,2.4c-0.3-0.1-0.5-0.2-0.5-0.4c-0.1-0.5-0.3-0.8-0.6-1c-0.3-0.3-0.8-0.5-1.4-0.7
	c0-0.1,0-0.2,0-0.3c0.8,0.1,1.5,0.2,2,0.2s0.7-0.1,0.7-0.4v-9.6h-3.8v1.8c0,0.3,0.1,0.4,0.3,0.4c1.1,0,1.8-0.1,2.1-0.4
	c0-0.1,0.1-0.1,0.1-0.1c0.3,0.1,0.5,0.3,0.7,0.6c0.1,0.2,0.2,0.4,0.2,0.6c0,0.5-0.8,0.7-2.5,0.7c-0.8,0-1.3,0-1.6-0.1
	c-0.6-0.1-0.9-0.5-0.9-1.3v-2.1H93c-0.1,0.8-0.2,1.3-0.4,1.6C92,40,90.7,41,88.7,41.4c0,0-0.1-0.1-0.2-0.3c1.2-0.6,2-1.6,2.4-2.9
	c0.1-0.5,0.2-0.9,0.2-1.3h-3.2v11.7c-0.1,0.4-0.5,0.6-1.1,0.6c-0.4,0-0.7-0.1-0.8-0.2c0-2.1,0-4.2,0.1-6.2v-4.1
	c0-1.7-0.1-2.8-0.2-3.1l1.7,0.7h3.7c-0.2-0.2-0.4-0.6-0.6-1.1c-0.4-0.8-0.8-1.5-1.2-2.1c0,0,0,0,0.1-0.1c-2.4,0-4,0.1-4.6,0.2
	c-0.1-0.4-0.3-0.7-0.5-1.1c1,0.1,2.8,0.2,5.4,0.2h10.3c0.6-0.8,1.1-1.3,1.4-1.4h0.2C102,31.2,102.2,31.3,102.4,31.4z M91.9,41.9h4
	c0.5-0.6,0.8-0.9,1-0.9s0.5,0.2,1,0.6c0.5,0.4,0.7,0.6,0.7,0.8c0,0.1-0.1,0.2-0.3,0.3c-0.3,0.2-0.5,0.4-0.5,0.5v1.6
	c0.1,0.7,0.1,1.1,0.1,1.2c0,0.4-0.3,0.7-1,0.7c-0.5,0-0.8-0.1-0.8-0.4V46H92v0.7c-0.1,0.4-0.4,0.6-1,0.6c-0.4,0-0.6-0.1-0.7-0.2
	c0-0.9,0-1.8,0.1-2.7v-1.8c0-0.8-0.1-1.2-0.1-1.3L91.9,41.9z M95.6,36.4c0.6-1.1,0.9-2.1,1.1-3.2h-6c1.3,0.4,1.9,1.1,2,2.1
	c0,0.3,0,0.5-0.1,0.7s-0.2,0.3-0.3,0.4H95.6z M95.1,31.5c0,0.5-0.2,0.8-0.5,0.9c-0.1,0-0.3,0.1-0.4,0.1c-0.2,0-0.5-0.2-0.9-0.6
	c-0.6-0.7-1.3-1.2-2-1.5c0-0.1,0-0.2,0.1-0.3c0.1,0,0.7,0,1.5,0C94.4,30.1,95.1,30.6,95.1,31.5z M96.2,45.4v-3H92v3H96.2z"/>
<path class="st0" d="M114.6,43.3l-0.4-0.4c0.8-0.7,1.2-1.3,1.2-2c0-0.1-0.1-0.2-0.3-0.2c-1-0.2-1.5-0.7-1.5-1.5c0-0.4,0.1-0.7,0.4-1
	s0.7-0.5,1.2-0.5s0.9,0.2,1.2,0.6c0.2,0.3,0.4,0.7,0.4,1.1C116.8,41,116,42.2,114.6,43.3z"/>
<path class="st0" d="M132.7,30.9c0,0.1-0.2,0.3-0.5,0.3c0.7,0.1,1.9,0.2,3.6,0.2h7c0.5-0.6,0.9-1,1.2-1.2h0.1
	c0.1,0.1,0.3,0.2,0.4,0.3c0.7,0.6,1.1,1,1.1,1.2s-0.1,0.3-0.2,0.3h-4.2v1.6h1.3c0.5-0.6,0.9-0.9,1-0.9c0.2,0,0.5,0.2,1,0.6
	c0.5,0.4,0.7,0.6,0.7,0.8c0,0.1-0.1,0.2-0.3,0.4c-0.3,0.2-0.5,0.4-0.6,0.4v1.2c0.1,0.5,0.1,0.8,0.1,0.9c0,0.4-0.3,0.7-1,0.7
	c-0.5,0-0.8-0.1-0.8-0.4V37h-8v0.1c-0.1,0.4-0.5,0.6-1.2,0.6c-0.4,0-0.7-0.1-0.8-0.2c0-0.8,0-1.5,0.1-2.2V34c0-0.6-0.1-1-0.1-1.1
	l1.8,0.7h1.6V32h-0.3c-1.7,0-2.8,0.1-3.3,0.3c-0.1-0.4-0.3-0.7-0.5-1.1c-0.2,0-0.3,0.1-0.5,0.1c-0.5,1.5-0.9,2.9-1.5,4.1
	c0.9,0.3,1.4,0.4,1.4,0.6s-0.1,0.2-0.4,0.3c-0.3,0.1-0.4,0.2-0.4,0.3v6.8c0,1.9,0.1,3.6,0.1,5.3c0,0.3-0.5,0.5-1.3,0.6
	c-0.5,0-0.8-0.1-0.8-0.4c0-1.8,0.1-3.6,0.1-5.4V38c-0.6,1-1.3,1.8-2,2.4c-0.1-0.1-0.1-0.2-0.1-0.2c1.5-2.5,2.6-5.9,3.2-10.2
	C131.8,30.3,132.7,30.6,132.7,30.9z M138.6,47.4l-0.1,0.1h-0.7c-1.6,1-3.6,1.5-6.2,1.6c0-0.1,0-0.2-0.1-0.3c2.2-0.8,3.9-1.7,5.2-3
	C137.9,46.7,138.6,47.2,138.6,47.4z M135.4,38.6h6c0.5-0.6,0.9-0.9,1.1-0.9s0.6,0.2,1.1,0.6c0.5,0.4,0.8,0.7,0.8,0.8
	s-0.1,0.3-0.3,0.4c-0.3,0.2-0.5,0.4-0.6,0.5v3.1c0.1,1.2,0.1,2,0.1,2.3c0,0.5-0.4,0.7-1.1,0.7c-0.5,0-0.8-0.1-0.9-0.4v-0.3h-6.2v0.3
	c-0.1,0.4-0.5,0.6-1.2,0.6c-0.4,0-0.7-0.1-0.8-0.2c0-1.3,0-2.6,0.1-3.8v-2.5c0-1.1-0.1-1.7-0.2-1.9L135.4,38.6z M136.2,36.5v-2.4
	h-1.5v2.4H136.2z M141.7,40.5v-1.4h-6.2v1.4H141.7z M141.7,42.7v-1.6h-6.2v1.6H141.7z M141.7,44.9v-1.7h-6.2v1.7H141.7z M139.5,32.1
	h-1.6v1.6h1.6V32.1z M139.5,36.5v-2.4h-1.6v2.4H139.5z M145.2,47.9c0,0.2-0.1,0.4-0.1,0.6c-0.1,0.3-0.3,0.5-0.8,0.5
	c-0.3,0-0.7-0.3-1.2-0.7c-1.2-0.9-2.3-1.5-3.4-1.8c0-0.1,0.1-0.2,0.2-0.4C143.4,46.5,145.2,47.1,145.2,47.9z M142.8,36.5v-2.4h-1.5
	v2.4H142.8z"/>
<path class="st0" d="M147.8,40.6c-0.1-0.1-0.1-0.2-0.1-0.3c1.7-2.6,3-6,3.6-10.4c2,0.4,3.1,0.8,3.1,1.1c0,0.2-0.4,0.4-1.1,0.5
	c-0.5,1.6-1.1,3-1.7,4.2c0.8,0.2,1.2,0.4,1.2,0.5s-0.1,0.2-0.4,0.3c-0.3,0.1-0.4,0.2-0.4,0.3v6.6c0,1.8,0.1,3.5,0.1,5.1
	c0,0.3-0.5,0.5-1.3,0.6c-0.5,0-0.8-0.1-0.8-0.4c0-1.7,0.1-3.5,0.1-5.2v-5.3C149.3,39.2,148.5,40,147.8,40.6z M161.4,30.8
	c0,0.1-0.1,0.2-0.4,0.3s-0.5,0.2-0.5,0.2l-0.2,1.4h3.4c0.5-0.6,0.9-1,1.2-1.2h0.1c0.1,0.1,0.3,0.2,0.4,0.3c0.7,0.6,1.1,1,1.1,1.2
	s-0.1,0.3-0.2,0.3h-6.1l-0.4,2.5h2.1c0.6-0.8,1-1.2,1.2-1.2c0.1,0,0.5,0.2,1,0.5c0.6,0.4,0.9,0.7,0.9,0.9c0,0.1-0.1,0.2-0.2,0.3
	c-0.4,0.3-0.6,0.5-0.7,0.6v10.8h0.1c0.6-1.1,1-1.6,1.2-1.7c0.1,0,0.4,0.3,0.8,0.9c0.4,0.5,0.7,0.9,0.7,1.1c0,0.2-0.1,0.3-0.2,0.3
	h-10.9c-2,0-3,0.1-3,0.2c-0.1-0.3-0.3-0.6-0.4-1.1c0.2,0.1,1,0.1,2.2,0.2v-11c0-0.4-0.1-1-0.1-1.8c0.7,0.3,1.4,0.7,2,0.9h1.5
	l0.4-2.5h-1.5c-1.7,0-2.8,0.1-3.2,0.2c-0.1-0.4-0.3-0.7-0.5-1.1c0.7,0.1,1.9,0.2,3.6,0.2h1.7l0.2-1.1c0-0.8,0-1.3-0.1-1.6
	C160.4,30.3,161.3,30.6,161.4,30.8z M162.2,38.7v-2.3h-5.8v2.3H162.2z M162.2,41.6v-2.3h-5.8v2.3H162.2z M162.2,44.5v-2.4h-5.8v2.4
	H162.2z M162.2,47.8v-2.7h-5.8v2.7H162.2z"/>
<path class="st0" d="M176.3,37.9c0.6,0.5,0.9,0.8,0.9,1c0,0.1-0.1,0.2-0.3,0.3c-0.5,0.1-0.8,0.2-0.8,0.4c-1.4,3.6-3.9,6.2-7.3,8
	c-0.1-0.1-0.1-0.2-0.2-0.3c1.3-1,2.4-2.4,3.5-4.1c1-1.5,1.6-3,2-4.5h-2.5c-0.9,0-1.5,0.1-1.8,0.2c-0.2-0.5-0.3-0.8-0.4-1
	c0.6,0.2,1.3,0.3,2.2,0.3h2.3c0.7-0.8,1.1-1.2,1.3-1.2C175.4,37.1,175.8,37.4,176.3,37.9z M180.1,34.2c0.3,0.3,0.5,0.4,0.5,0.5
	c0,0.2-0.1,0.3-0.3,0.4c-0.2,0.1-0.4,0.3-0.5,0.3c0.3,1.4,0.8,2.7,1.4,3.8c1.5-1.1,2.6-2.5,3.3-4c1.6,1.1,2.4,1.8,2.4,1.9
	c0,0.2-0.1,0.3-0.3,0.3c-0.3,0-0.7,0-1-0.1c-1,0.9-2.4,1.7-4.1,2.4c0.5,0.8,1.1,1.6,1.8,2.3c1.5,1.6,2.9,2.7,4.4,3.3
	c0,0.1,0,0.3-0.1,0.4c-0.4,0-0.6,0.2-0.8,0.4c-0.1,0.1-0.3,0.4-0.5,0.8c-0.1,0.2-0.3,0.3-0.4,0.3c-0.5-0.1-1.5-0.9-2.9-2.5
	c-1.7-2.3-2.8-4.6-3.4-7.1v9.7c0,1.1-0.8,1.8-2.4,2c-0.3,0-0.5-0.2-0.5-0.5c-0.1-0.5-0.4-0.9-0.8-1.2c-0.5-0.3-1.1-0.5-1.8-0.6
	c0,0,0-0.1,0-0.4c1.2,0.1,2.3,0.1,3.1,0.1c0.4,0,0.5-0.2,0.5-0.6V35h-2.2c-1.4,0-2.3,0.1-2.7,0.2c-0.1-0.3-0.2-0.6-0.4-1
	c1,0.1,2,0.2,3,0.2h1.9c0.6-0.7,1-1.1,1.3-1.1C179,33.4,179.4,33.7,180.1,34.2z M180.2,32.1c0,0.5-0.2,0.8-0.5,0.9
	c-0.1,0-0.3,0.1-0.4,0.1c-0.3,0-0.8-0.3-1.4-0.8c-0.9-0.9-2.1-1.6-3.3-2c0-0.1,0-0.2,0.1-0.3c0.2,0,0.7,0,1.6,0
	C178.9,30.1,180.2,30.8,180.2,32.1z"/>
<path class="st0" d="M199.8,31.1c0,0.2-0.4,0.4-1.2,0.5c-0.4,0.8-0.7,1.5-1.1,2.2h3.1c0.8-0.9,1.3-1.3,1.5-1.3
	c0.3,0.1,0.6,0.4,1.2,0.8c0.6,0.5,0.9,0.9,0.9,1.2c0,0.2-0.4,0.4-1.1,0.7c-0.5,1.9-1.2,3.7-2,5.2c0.6,1.4,1.7,2.6,3.3,3.8
	s3.1,1.9,4.4,2.2c0,0.2,0,0.4-0.1,0.4c-0.5,0.2-0.8,0.5-0.9,0.8c-0.1,0.3-0.2,0.6-0.3,0.8s-0.1,0.4-0.3,0.4c-0.8,0-2.2-1.2-4.2-3.7
	c-0.9-1.2-1.7-2.6-2.2-4.1c-2.4,3.9-5.9,6.6-10.8,8.1c0-0.1-0.1-0.2-0.2-0.4c2.9-1.4,5.5-3.5,7.6-6.4c1.7-2.3,2.9-5,3.5-8h-3.7
	c-1.7,2.8-3.7,4.9-6.1,6.3c-0.1-0.1-0.1-0.2-0.1-0.3c2.7-2.6,4.6-6.1,5.6-10.4C198.7,30.4,199.8,30.8,199.8,31.1z"/>
<path class="st0" d="M216.8,30.7c0,0.2-0.2,0.3-0.6,0.4c0,1,0,1.9,0,2.9c0,0.1,0,0.3,0,0.4h2c0.6-0.6,0.9-0.9,1.1-0.9
	c0.2,0.1,0.5,0.3,0.8,0.5c0.5,0.5,0.8,0.8,0.8,0.9c0,0.1-0.1,0.3-0.3,0.4c-0.1,0.1-0.3,0.2-0.5,0.4c-0.1,5.8-0.4,9.4-0.8,10.7
	c-0.3,1.3-1.2,2-2.5,2.2c-0.2,0-0.3-0.2-0.4-0.5c-0.1-0.4-0.5-0.8-1-1.1c-0.3-0.2-0.7-0.4-1.1-0.6c0-0.1,0.1-0.2,0.1-0.3
	c1,0.1,1.8,0.2,2.2,0.3c0.5,0,0.8-0.3,0.9-0.8c0.5-2.5,0.7-6,0.7-10.6H216c-0.2,7.6-2,12.2-5.6,14c-0.1,0-0.1-0.1-0.2-0.2
	c2.3-2.6,3.5-7.3,3.7-13.8h-0.4c-1.2,0-2.1,0.1-2.7,0.2c-0.1-0.2-0.2-0.5-0.4-0.9c0.8,0.1,1.9,0.2,3.1,0.2h0.3c0-0.3,0-0.6,0-1
	c-0.1-1.6-0.1-2.8-0.1-3.5C215.9,30.3,216.8,30.5,216.8,30.7z M223.7,33.3h2.7c0.6-0.7,1-1.1,1.2-1.1s0.5,0.2,0.9,0.5
	c0.6,0.4,0.9,0.7,0.9,0.9c0,0.1-0.1,0.3-0.3,0.4c-0.3,0.3-0.5,0.4-0.5,0.5v7.8c0,2.7,0.1,4.5,0.1,5.4c0,0.4-0.5,0.7-1.4,0.7
	c-0.4,0-0.5-0.1-0.5-0.4v-1.4h-2.9V48c-0.1,0.4-0.5,0.6-1.2,0.6c-0.4,0-0.7-0.1-0.8-0.2c0-2.5,0-4.9,0.1-7.2v-4.7
	c0-2-0.1-3.2-0.2-3.6L223.7,33.3z M226.7,45.8v-12h-2.9v12H226.7z"/>
<path class="st0" d="M231.8,40.6c-0.1-0.1-0.1-0.2-0.1-0.3c1.7-2.6,3-6,3.6-10.4c2,0.4,3.1,0.8,3.1,1.1c0,0.2-0.4,0.4-1.1,0.5
	c-0.5,1.6-1.1,3-1.7,4.2c0.8,0.2,1.2,0.4,1.2,0.5s-0.1,0.2-0.4,0.3c-0.3,0.1-0.4,0.2-0.4,0.3v6.6c0,1.8,0.1,3.5,0.1,5.1
	c0,0.3-0.5,0.5-1.3,0.6c-0.5,0-0.8-0.1-0.8-0.4c0-1.7,0.1-3.5,0.1-5.2v-5.3C233.3,39.2,232.5,40,231.8,40.6z M245.4,30.8
	c0,0.1-0.1,0.2-0.4,0.3s-0.5,0.2-0.5,0.2l-0.2,1.4h3.4c0.5-0.6,0.9-1,1.2-1.2h0.1c0.1,0.1,0.3,0.2,0.4,0.3c0.7,0.6,1.1,1,1.1,1.2
	s-0.1,0.3-0.2,0.3h-6.1l-0.4,2.5h2.1c0.6-0.8,1-1.2,1.2-1.2c0.1,0,0.5,0.2,1,0.5c0.6,0.4,0.9,0.7,0.9,0.9c0,0.1-0.1,0.2-0.2,0.3
	c-0.4,0.3-0.6,0.5-0.7,0.6v10.8h0.1c0.6-1.1,1-1.6,1.2-1.7c0.1,0,0.4,0.3,0.8,0.9c0.4,0.5,0.7,0.9,0.7,1.1c0,0.2-0.1,0.3-0.2,0.3
	h-10.9c-2,0-3,0.1-3,0.2c-0.1-0.3-0.3-0.6-0.4-1.1c0.2,0.1,1,0.1,2.2,0.2v-11c0-0.4-0.1-1-0.1-1.8c0.7,0.3,1.4,0.7,2,0.9h1.5
	l0.4-2.5h-1.5c-1.7,0-2.8,0.1-3.2,0.2c-0.1-0.4-0.3-0.7-0.5-1.1c0.7,0.1,1.9,0.2,3.6,0.2h1.7l0.2-1.1c0-0.8,0-1.3-0.1-1.6
	C244.4,30.3,245.3,30.6,245.4,30.8z M246.2,38.7v-2.3h-5.8v2.3H246.2z M246.2,41.6v-2.3h-5.8v2.3H246.2z M246.2,44.5v-2.4h-5.8v2.4
	H246.2z M246.2,47.8v-2.7h-5.8v2.7H246.2z"/>
<g>
	<rect y="69.2" class="st1" width="13" height="0.8"/>
</g>
</svg>
