<svg width="113" height="15" viewBox="0 0 113 15" fill="none" xmlns="http://www.w3.org/2000/svg">
<path d="M0.189941 5.51056C2.40994 5.62056 4.15002 6.34057 4.15002 7.36057C4.15002 7.73057 3.87995 8.02057 3.44995 8.02057C3.12995 8.02057 2.82994 7.60057 2.43994 7.22057C2.00994 6.79057 1.15004 6.23056 0.0400391 5.81056L0.180054 5.51056H0.189941ZM13.13 4.28056C11.1 8.59056 7.23004 11.5806 4.17004 13.0706C3.75004 13.2606 3.57995 13.4206 3.44995 13.5306C3.28995 13.6706 3.19003 13.9306 2.91003 13.9506C2.29003 13.9706 1.04004 12.7806 1.04004 12.1306C1.04004 11.7506 1.15004 11.4106 1.42004 11.2806C1.66004 11.9306 2.04005 12.2406 2.55005 12.2406C2.76005 12.2406 3.00002 12.1906 3.27002 12.0806C6.23002 10.8506 10.3999 8.07056 12.8199 4.12056L13.12 4.28056H13.13ZM2.10999 2.08057C4.29999 2.16057 5.95996 2.99056 5.95996 4.00056C5.95996 4.40056 5.67004 4.64056 5.29004 4.64056C4.91004 4.64056 4.64002 4.21056 4.27002 3.81056C3.81002 3.36056 3.08997 2.84057 1.96997 2.32057L2.10999 2.08057Z" fill="#D8B167"/>
<path d="M22.28 4.04036C22.36 3.90036 22.6601 3.80037 22.9301 3.80037C23.7301 3.80037 24.75 4.73037 24.75 5.22037C24.75 5.57037 24.37 5.38037 23.9 5.64037C22.01 6.68037 19.67 7.64037 17.41 8.16037C17.39 8.54037 17.39 8.86036 17.39 9.15036C17.39 11.6704 17.79 12.2704 19.91 12.2704C20.82 12.2704 23.74 12.2704 24.54 11.7304C25.23 11.7904 26.14 12.0304 26.14 12.5604C26.14 13.0104 25.07 13.2004 24.4 13.2604C23.22 13.3604 21.52 13.3904 20.41 13.3904C17.23 13.3904 16.29 12.6704 16.29 8.57037C16.29 7.96037 16.3101 7.26037 16.3101 6.64037C16.3101 6.22037 16.39 4.18037 16.39 3.72037C16.39 3.22037 16.39 2.52037 15.21 2.52037L15.1899 2.50037C15.2199 2.20037 15.73 1.94037 16.16 1.94037C16.93 1.94037 18 2.48036 18 3.09036C18 3.31036 17.8901 3.41037 17.8101 3.55037C17.7301 3.68037 17.67 3.92037 17.63 4.24037C17.53 5.29037 17.44 6.64037 17.42 7.74037C19.75 6.88037 22.87 5.22036 22.87 4.56036C22.87 4.38036 22.61 4.11037 22.28 4.08037L22.26 4.05037L22.28 4.04036ZM22.8101 0.960373C23.9901 1.34037 25.0601 2.22037 25.0601 3.00037C25.0601 3.40037 24.8001 3.59036 24.5601 3.59036C24.3401 3.59036 24.18 3.49037 24.05 3.13037C23.87 2.62037 23.36 1.72037 22.6 1.21037L22.8101 0.950363V0.960373ZM24.9 0.380371C26.21 0.830371 27.1801 1.75037 27.1801 2.46037C27.1801 2.88037 26.9201 3.05037 26.6801 3.05037C26.4601 3.05037 26.3 2.95037 26.17 2.57037C25.99 2.07037 25.5001 1.15036 24.6801 0.620361L24.89 0.380371H24.9Z" fill="#D8B167"/>
<path d="M29.55 5.77048C30.72 6.25048 31.66 7.38047 31.66 8.26047C31.66 8.74047 31.42 9.07048 31.09 9.07048C30.72 9.07048 30.53 8.89047 30.51 8.51047C30.45 7.70047 30 6.69047 29.34 5.97047L29.55 5.76047V5.77048ZM31.47 14.3605C36.76 11.7405 37.96 6.64048 37.96 6.13048C37.96 5.71048 37.5 5.55047 37.1 5.54047C37.1 5.43047 37.36 5.11047 37.77 5.11047C38.47 5.11047 39.5 5.88047 39.5 6.29047C39.5 6.47047 39.36 6.55048 39.21 6.66048C39.15 6.69048 39.08 6.77047 39.03 6.92047C37.9 10.3405 35.66 13.1205 31.67 14.6705L31.48 14.3705L31.47 14.3605ZM33.16 4.98047C34.39 5.76047 34.98 6.79048 34.98 7.55048C34.98 8.22048 34.72 8.59047 34.34 8.59047C33.96 8.59047 33.76 8.37047 33.76 7.92047C33.74 7.14047 33.62 6.15047 32.91 5.14047L33.15 4.98047H33.16Z" fill="#D8B167"/>
<path d="M42 8.60054C45.02 6.17054 46.39 2.56054 46.39 1.91054C46.39 1.43054 45.91 1.30054 45.46 1.30054C45.57 1.00054 45.89 0.790527 46.4 0.790527C47.1 0.790527 48.41 1.49054 48.41 1.91054C48.41 2.10054 48.2299 2.15053 48.0699 2.29053C47.9699 2.35053 47.8 2.50054 47.7 2.71054C47.49 3.19054 47.17 3.78053 46.87 4.26053C46.98 4.28053 47.11 4.29053 47.24 4.29053C47.94 4.29053 49.83 4.10053 50.8 3.95053C51.12 3.90053 51.25 3.79053 51.38 3.65053C51.52 3.51053 51.65 3.35054 51.8 3.35054C52.15 3.35054 53.33 4.21054 53.33 4.52054C53.33 4.71054 53.14 4.78053 52.88 4.90053C52.74 4.96053 52.5301 5.20054 52.4301 5.46054C50.9301 9.52054 48.34 12.7805 43.28 14.6005L43.0699 14.2805C47.3799 12.1705 49.88 8.80053 51.11 4.93053C51.14 4.83053 51.16 4.75054 51.16 4.71054C51.16 4.63054 51.13 4.60054 51.05 4.60054C50.46 4.60054 47.74 5.21054 47.25 5.21054C46.85 5.21054 46.6 5.11054 46.39 4.97054C45.45 6.36054 44.11 7.81054 42.25 8.88054L41.99 8.61053L42 8.60054Z" fill="#D8B167"/>
<path d="M58.49 1.9003C58.55 1.6103 58.91 1.32031 59.37 1.32031C60.3 1.32031 61.4301 1.7403 61.4301 2.3903C61.4301 2.6103 61.2999 2.68031 61.1899 2.85031C60.9699 3.14031 60.81 5.49031 60.77 6.11031C62.24 5.74031 64.83 5.06031 65.67 4.80031C65.96 4.72031 66.1 4.64031 66.23 4.46031C66.42 4.24031 66.57 4.0103 66.76 4.0103C67.18 4.0103 68.52 5.03031 68.52 5.32031C68.52 5.51031 68.3 5.58031 68.02 5.69031C67.86 5.75031 67.72 5.8003 67.59 5.9803C66.98 6.8903 65.64 8.5503 64.3 9.5403L64.03 9.35031C65.34 7.74031 66.14 5.63031 66.14 5.47031C66.14 5.41031 66.1201 5.3903 66.0601 5.3903C65.9501 5.3903 63.26 6.12031 60.72 6.97031C60.67 7.85031 60.64 8.7103 60.64 9.5303C60.64 12.4103 60.9801 12.7103 63.1801 12.7103C64.3601 12.7103 65.72 12.6603 66.42 12.2303C67.25 12.4103 68.02 12.6403 68.02 13.0803C68.02 13.5403 67.33 13.6703 66.41 13.7503C65.64 13.8103 63.74 13.8103 62.9 13.8103C60.34 13.8103 59.53 12.8503 59.54 9.91031C59.54 9.21031 59.56 8.1803 59.59 7.3403C58.15 7.8403 57.78 7.96031 57.45 8.27031C57.34 8.38031 57.16 8.5303 56.89 8.5303C56.25 8.5303 55.24 7.6403 55.24 6.8403C55.24 6.4103 55.45 6.07031 55.59 6.07031C55.73 6.92031 56.52 6.9503 56.8 6.9503C57.37 6.9503 58.01 6.7903 59.6 6.3903C59.63 5.7503 59.73 3.5103 59.73 3.1503C59.73 2.4303 59.67 1.9203 58.5 1.9203L58.48 1.9003H58.49Z" fill="#D8B167"/>
<path d="M71.17 2.46045C73.12 2.67045 75.77 3.59044 75.77 5.06044C75.77 5.49044 75.45 5.79044 75.02 5.79044C74.68 5.79044 74.32 5.41044 74.13 5.09044C73.65 4.37044 72.5001 3.28044 71.0601 2.76044L71.17 2.46045ZM83.63 3.64044C81.63 8.22044 78.13 11.2004 74.2 13.1304C73.45 13.5104 73.48 13.9104 73.11 13.9104C72.42 13.9104 71.1899 12.8104 71.1899 11.9504C71.1899 11.6804 71.37 11.3704 71.61 11.2004C71.75 11.7804 72.22 12.1604 72.74 12.1604C73.97 12.1604 80.26 8.89044 83.27 3.44044L83.62 3.65044L83.63 3.64044Z" fill="#D8B167"/>
<path d="M85.15 8.41013C88.17 5.95013 89.62 2.60013 89.62 1.91013C89.62 1.49013 89 1.35013 88.66 1.35013C88.77 1.01013 89.01 0.870117 89.47 0.870117C90.19 0.870117 91.55 1.49012 91.55 1.97012C91.55 2.16012 91.37 2.24012 91.23 2.34012C91.09 2.45012 90.9701 2.58012 90.8101 2.90012C90.6801 3.16012 90.57 3.40012 90.39 3.67012C90.53 3.70012 90.69 3.70012 90.84 3.70012C91.37 3.70012 93.16 3.59013 94.08 3.46013C94.43 3.41013 94.5 3.36012 94.66 3.20012C94.79 3.09012 95.01 2.90012 95.11 2.90012C95.46 2.90012 96.58 3.91013 96.58 4.16013C96.58 4.37013 96.42 4.43012 96.2 4.53012C96.01 4.63012 95.7799 4.72012 95.6899 4.94012C95.2399 5.99012 94.36 7.67012 93.74 8.58012C94.38 9.00012 95.47 9.70012 95.47 10.5101C95.47 10.9101 95.17 11.1801 94.77 11.1801C94.37 11.1801 94.12 10.7501 93.84 10.4601C93.6 10.2001 93.25 9.93013 92.98 9.71013C91.53 11.5501 89.0001 13.5301 85.8101 14.6001L85.59 14.2801C88.24 13.0501 90.65 10.9101 92.03 8.98012C91.28 8.47012 90.14 7.85012 88.64 7.40012L88.77 7.08012C90.24 7.26012 91.74 7.72012 92.6 8.09012C93.91 6.11012 94.47 4.27013 94.47 4.16013C94.47 4.10013 94.44 4.06012 94.36 4.06012C93.77 4.06012 91.05 4.57013 90.65 4.57013C90.43 4.57013 90.15 4.47013 89.98 4.35013C88.93 5.96013 87.54 7.43012 85.38 8.70012L85.16 8.41013H85.15Z" fill="#D8B167"/>
<path d="M108.83 7.13058C109.95 7.13058 110.54 6.99059 110.78 6.99059C111.53 7.01059 112.65 7.26058 112.65 7.72058C112.65 8.04058 112.3 8.20058 111.63 8.20058C111.05 8.20058 108.21 8.15057 107.57 8.15057C105.8 8.15057 101.9 8.15059 101.08 8.49059C100.86 8.57059 100.65 8.71059 100.39 8.71059C99.73 8.71059 98.63 7.64058 98.63 6.98058C98.63 6.57058 98.7101 6.33057 98.9301 6.12057L99.04 6.10059C99.22 6.96059 99.95 7.12057 101.5 7.12057H108.82L108.83 7.13058Z" fill="#D8B167"/>
</svg>
