<?xml version="1.0" encoding="utf-8"?>
<!-- Generator: Adobe Illustrator 25.2.3, SVG Export Plug-In . SVG Version: 6.00 Build 0)  -->
<svg version="1.1" id="圖層_1" xmlns="http://www.w3.org/2000/svg" xmlns:xlink="http://www.w3.org/1999/xlink" x="0px" y="0px"
	 viewBox="0 0 110 78" style="enable-background:new 0 0 110 78;" xml:space="preserve">
<style type="text/css">
	.st0{clip-path:url(#SVGID_2_);}
	.st1{fill:#C9A063;}
</style>
<g>
	<defs>
		<rect id="SVGID_1_" y="0" width="110" height="78"/>
	</defs>
	<clipPath id="SVGID_2_">
		<use xlink:href="#SVGID_1_"  style="overflow:visible;"/>
	</clipPath>
	<g class="st0">
		<path d="M2.3,47.5V48h3.9v-0.5H2.3z M2.5,46.1v0.5h3.3v-0.5H2.5z M1.7,48.8v0.5h5.1v-0.5H1.7z M3.9,46.3v2.8h0.6v-2.8H3.9z
			 M2.6,44.1v0.5h1.9v-0.5H2.6z M3.9,44.1v0.3h0.2c0.6,0.8,1.6,1.7,2.6,2.2c0.1-0.2,0.3-0.4,0.4-0.5c-1-0.4-2-1.2-2.5-2H3.9z
			 M4,44.1c-0.5,0.8-1.7,1.6-2.6,2.1c0.1,0.1,0.3,0.3,0.4,0.5c0.9-0.5,2.1-1.4,2.6-2.2L4,44.1z M8.8,48.6v0.6h3.3v-0.6H8.8z
			 M8.5,46.9v2.6h0.6v-2h2.8v2h0.6v-2.6H8.5z M11.1,44.9c0.6,0.5,1.3,1.3,1.6,1.8l0.5-0.3c-0.3-0.5-1-1.2-1.6-1.8L11.1,44.9z
			 M8.3,46.5c0-0.1,0.4-0.3,0.4-0.3v0c0.6-0.5,1.3-1.3,1.9-2l-0.6-0.2c-0.4,0.7-1.1,1.5-1.3,1.7c-0.2,0.2-0.3,0.3-0.5,0.3
			C8.2,46.1,8.3,46.3,8.3,46.5z M8.3,46.5c0.3-0.1,0.7-0.1,4.2-0.3c0-0.1,0-0.4-0.1-0.5l-3.8,0.2L8.3,46L8.3,46.5z M14.1,46.1v0.6
			h5.4v-0.6H14.1z M16.5,43.9v5.6h0.6v-5.6H16.5z M20.5,45.6v0.6h5.3v-0.6H20.5z M23.5,45.8L22.9,46c0.5,1.6,1.2,2.9,2.6,3.5
			c0.1-0.2,0.3-0.4,0.4-0.5C24.6,48.4,23.8,47.3,23.5,45.8z M22.8,43.9c0,1.5,0.1,4-2.4,5.1c0.2,0.1,0.3,0.3,0.4,0.5
			c2.6-1.2,2.6-3.9,2.6-5.5H22.8z M28.4,45.2v0.4h3.7v-0.4H28.4z M28.7,46.9v0.4h3.1v-0.4H28.7z M28.4,47.7v0.4H32v-0.4H28.4z
			 M29.8,43.9v4.7h0.5v-4.7H29.8z M28.8,44.4v0.4h2.4v1.2h-2.5v0.4h3v-2.1H28.8z M26.8,44.3v0.5h1.4v-0.5H26.8z M27.3,46l0,0.5h0.9
			V46H27.3z M27.9,46v0.1c-0.1,1.5-0.6,2.5-1.3,3c0.1,0.1,0.3,0.3,0.4,0.4c0.8-0.6,1.3-1.7,1.4-3.4L28.1,46L28,46H27.9z M27.3,46.9
			l-0.4,0.2c0.6,1.9,1.7,2.3,3.4,2.3H32c0-0.2,0.1-0.4,0.2-0.5c-0.4,0-1.6,0-1.9,0C28.8,48.9,27.7,48.6,27.3,46.9z M27,46.7
			c0-0.1,0.4-0.3,0.4-0.3v0c0.4-0.5,0.8-1.2,1.1-2l-0.3-0.2l-0.2,0.1v0c-0.2,0.7-0.6,1.4-0.8,1.6c-0.1,0.2-0.3,0.3-0.4,0.4
			C26.8,46.4,26.9,46.6,27,46.7z M33.1,45.5v0.4h2.1v-0.4H33.1z M33.9,45.7v1.3h0.5v-1.3H33.9z M33.1,46.9l0.1,0.5
			c0.6-0.1,1.4-0.2,2.1-0.3l0-0.4C34.4,46.7,33.6,46.8,33.1,46.9z M36.1,45.6v0.5c0,0.4-0.2,0.7-0.9,1c0.1,0.1,0.3,0.2,0.4,0.3
			c0.8-0.3,1-0.8,1-1.3v-0.5H36.1z M37.1,45.5v1.2c0,0.4,0,0.5,0.1,0.6c0.1,0.1,0.2,0.1,0.4,0.1c0.1,0,0.2,0,0.3,0
			c0.1,0,0.2,0,0.3-0.1c0.1,0,0.1-0.1,0.2-0.2c0-0.1,0.1-0.3,0.1-0.6c-0.1,0-0.3-0.1-0.4-0.2c0,0.2,0,0.4,0,0.4c0,0.1,0,0.1-0.1,0.1
			c0,0-0.1,0-0.1,0c0,0-0.1,0-0.1,0c0,0-0.1,0-0.1,0c0,0,0-0.1,0-0.2v-1.2H37.1z M33,47.7v0.5h5.4v-0.5H33z M35.4,47.3v2.2H36v-2.2
			H35.4z M35.3,46.4c0.5,0.2,1.2,0.5,1.5,0.7l0.2-0.4c-0.3-0.2-1-0.5-1.5-0.7L35.3,46.4z M35.4,45.5v0.4h1.8v-0.4H35.4z M33.8,44.3
			v0.4h1.9v-0.4H33.8z M36.2,44.3v0.4h2.2v-0.4H36.2z M33.9,43.9c-0.2,0.4-0.5,0.8-0.9,1.1c0.1,0.1,0.3,0.3,0.4,0.4
			c0.4-0.3,0.8-0.8,1-1.3L33.9,43.9z M36.3,43.9c-0.2,0.4-0.5,0.9-0.8,1.1c0.1,0.1,0.3,0.3,0.4,0.3c0.4-0.3,0.7-0.8,0.9-1.3
			L36.3,43.9z M34.2,44.9c0.2,0.2,0.4,0.4,0.5,0.6l0.4-0.3c-0.1-0.2-0.3-0.4-0.5-0.6L34.2,44.9z M36.8,44.9c0.2,0.2,0.4,0.4,0.5,0.6
			l0.4-0.3c-0.1-0.1-0.3-0.4-0.5-0.5L36.8,44.9z M34.6,48.2c-0.3,0.3-1,0.6-1.6,0.8c0.1,0.1,0.3,0.3,0.4,0.5c0.6-0.2,1.3-0.6,1.7-1
			L34.6,48.2z M36.4,48.5c0.5,0.2,1.2,0.6,1.6,0.9l0.4-0.4c-0.4-0.3-1.1-0.6-1.6-0.8L36.4,48.5z M39.7,44.8v0.5h1.1v0.8h-1.1v0.5
			h1.6v-1.7H39.7z M39.7,47v0.5h1.2v0.9h-1.2v0.5h1.7V47H39.7z M39.5,44.8v4.5H40v-4.5H39.5z M41.5,44.2v0.5h3.2v-0.5H41.5z
			 M40.2,43.9c0,0.3-0.2,0.7-0.3,1l0.5,0.1c0.1-0.3,0.3-0.7,0.4-1L40.2,43.9z M42.9,44.5v5h0.5v-5H42.9z M41.8,45.4v3.2h0.5v-2.7
			h2.1v-0.5H41.8z M44.1,45.4V48c0,0.1,0,0.1-0.1,0.1c-0.1,0-0.2,0-0.4,0c0.1,0.1,0.1,0.3,0.2,0.5c0.3,0,0.5,0,0.7-0.1
			c0.2-0.1,0.2-0.2,0.2-0.5v-2.6H44.1z M1.5,56.9v0.5h5.4v-0.5H1.5z M2.7,55.9v0.4h2.7v-0.4H2.7z M4,56.7v1.2C4,58,4,58,3.9,58
			c-0.1,0-0.4,0-0.8,0c0.1,0.1,0.2,0.3,0.2,0.5c0.5,0,0.8,0,1-0.1c0.2-0.1,0.3-0.2,0.3-0.5v-1.3H4z M5.3,55.9L5.3,55.9
			C5,56.2,4.5,56.5,4,56.7c0.1,0.1,0.2,0.2,0.3,0.3c0.5-0.2,1.2-0.5,1.6-0.9l-0.3-0.3l-0.1,0H5.3z M1.6,55.1v1.2h0.5v-0.7h4.1v0.7
			h0.6v-1.2H1.6z M6,53.2c0,0.7-0.1,1.6-0.2,2.2h0.5c0.1-0.5,0.1-1.5,0.2-2.2H6z M5,53.2v0.4h1.1v-0.4H5z M3.2,53
			c-0.3,0.1-0.8,0.3-1.2,0.3l0.2,0.3c0.4-0.1,0.9-0.2,1.2-0.3L3.2,53z M2.3,53.8v0.4h1.1v-0.4H2.3z M2.3,54.4v0.4h1.1v-0.4H2.3z
			 M5.1,53.8v0.4h1v-0.4H5.1z M5,54.4v0.4h1v-0.4H5z M4.5,53c-0.2,0.3-0.6,0.6-1,0.8C3.5,53.8,3.7,54,3.7,54
			c0.4-0.2,0.9-0.6,1.1-0.9L4.5,53z M3.5,53.3c0.4,0.2,0.9,0.5,1.1,0.7l0.3-0.3c-0.2-0.2-0.7-0.5-1.1-0.7L3.5,53.3z M4.5,54
			c-0.2,0.3-0.7,0.6-1.1,0.8c0.1,0.1,0.2,0.2,0.3,0.3c0.4-0.2,0.9-0.6,1.2-1L4.5,54z M3.5,54.3c0.4,0.2,0.9,0.5,1.1,0.8l0.3-0.3
			c-0.2-0.2-0.8-0.5-1.1-0.7L3.5,54.3z M2,53.3l0.1,2h0.5l-0.1-1.9L2,53.3z M8.6,53.2v0.5h4.7v-0.5H8.6z M8.6,57.9v0.5h4.6v-0.5H8.6
			z M11,56.8v0.5h1.7v-0.5H11z M8.2,53.2V55c0,0.9,0,2.3-0.5,3.2c0.1,0.1,0.4,0.2,0.5,0.3c0.5-1,0.6-2.5,0.6-3.5v-1.8H8.2z
			 M10.7,56.2v1.9h0.6v-1.9H10.7z M9.4,56.7v1.5h0.5v-1.5H9.4z M8.9,54.7v0.4h1.9v-0.4H8.9z M9.6,54.1v2.2h0.5v-2.2H9.6z M9.6,54.9
			c-0.2,0.4-0.6,0.8-0.9,1C8.7,56,8.9,56.1,9,56.2C9.3,56,9.7,55.5,9.9,55L9.6,54.9z M10.9,54.7v0.4h2.2v-0.4H10.9z M11.7,54.1v2.2
			h0.5v-2.2H11.7z M11.6,54.9c-0.2,0.4-0.6,0.8-0.9,1c0.1,0.1,0.2,0.2,0.3,0.4c0.4-0.3,0.8-0.8,1-1.2L11.6,54.9z M10.1,55.1
			l-0.3,0.2c0.2,0.1,0.5,0.5,0.7,0.6l0.3-0.4C10.6,55.5,10.2,55.2,10.1,55.1z M10.3,53.8C10,53.9,9.4,54,8.9,54.1
			C8.9,54.2,9,54.3,9,54.4c0.6,0,1.2-0.1,1.7-0.3L10.3,53.8z M12.5,53.8c-0.3,0.1-1,0.2-1.6,0.3c0,0.1,0.1,0.2,0.1,0.3
			c0.6,0,1.4-0.1,1.8-0.3L12.5,53.8z M12.2,55.1l-0.3,0.2c0.2,0.2,0.8,0.6,1.1,0.9l0.3-0.4C13.1,55.7,12.4,55.2,12.2,55.1z
			 M16.8,54.8c0.3,0,0.5-0.2,0.5-0.5c0-0.3-0.2-0.5-0.5-0.5c-0.3,0-0.5,0.2-0.5,0.5C16.3,54.6,16.5,54.8,16.8,54.8z M16.8,57.7
			c0.3,0,0.5-0.2,0.5-0.5c0-0.3-0.2-0.5-0.5-0.5c-0.3,0-0.5,0.2-0.5,0.5C16.3,57.5,16.5,57.7,16.8,57.7z M1.7,62.7v0.5h4.9v-0.5H1.7
			z M2.1,63.6v0.5h4.3v-0.5H2.1z M1.7,65.5v0.5h5.1v-0.5H1.7z M1.5,64.6v0.5h5.4v-0.5H1.5z M3.9,63v1.9h0.6V63H3.9z M2.5,62.1
			c0.2,0.2,0.4,0.6,0.5,0.8l0.5-0.2c-0.1-0.2-0.3-0.5-0.5-0.7L2.5,62.1z M5.3,61.9c-0.1,0.3-0.3,0.6-0.5,0.9L5.3,63
			c0.2-0.2,0.4-0.6,0.6-0.9L5.3,61.9z M3.9,64.9c-0.1,1.1-0.4,1.8-2.4,2.1c0.1,0.1,0.2,0.4,0.3,0.5c2.2-0.4,2.6-1.2,2.7-2.6H3.9z
			 M4.2,66.4c0.8,0.3,1.9,0.8,2.4,1.2L6.9,67c-0.6-0.3-1.7-0.8-2.4-1.1L4.2,66.4z M8.8,63.4v0.4h3.4v-0.4H8.8z M11.3,63
			c0.2,0.1,0.5,0.3,0.6,0.4l0.3-0.3c-0.1-0.1-0.4-0.3-0.6-0.4L11.3,63z M11.6,64.1c-0.3,1-0.8,1.7-1.6,2.2c0.1,0.1,0.3,0.3,0.3,0.3
			c0.8-0.5,1.4-1.3,1.7-2.5L11.6,64.1z M8.7,65.8l0.1,0.4c0.5-0.1,1.1-0.2,1.7-0.3l0-0.4C9.8,65.7,9.2,65.7,8.7,65.8z M9.4,64.5h0.6
			V65H9.4V64.5z M9,64.2v1.2h1.3v-1.2H9z M10.5,62.8c0.1,1.8,0.3,3.5,1.1,3.7c0.4,0.1,0.6-0.1,0.7-0.8c-0.1,0-0.3-0.2-0.4-0.3
			c0,0.4-0.1,0.6-0.2,0.6C11.3,66,11,64.4,11,62.8H10.5z M8,62.2v5.3h0.5v-4.8h4v4.8h0.6v-5.3H8z M8.3,66.7v0.5h4.5v-0.5H8.3z
			 M14.1,64.1v0.6h5.4v-0.6H14.1z M16.8,62.7v0.5h2.2v-0.5H16.8z M16.4,61.9v2.4H17v-2.4H16.4z M16.4,64.5v3H17v-3H16.4z M17,65.7
			c0.6,0.3,1.5,0.7,2,0.9l0.3-0.5c-0.5-0.2-1.4-0.6-2-0.8L17,65.7z M20.7,63.3v4.2h0.6v-3.7h3.9v-0.6H20.7z M25,63.3v3.5
			c0,0.1,0,0.1-0.1,0.1c-0.1,0-0.5,0-0.9,0c0.1,0.2,0.2,0.4,0.2,0.6c0.5,0,0.9,0,1.1-0.1c0.2-0.1,0.3-0.3,0.3-0.6v-3.5H25z
			 M21.8,62.2v0.5h1.3v-0.5H21.8z M22.7,62.2v0.3h0.1c0.1,1.7,0.5,3,1.7,3.6c0.1-0.2,0.3-0.4,0.4-0.5c-1.2-0.5-1.5-1.8-1.6-3.4H22.7
			z M22.8,63.4c-0.2,1.1-0.6,1.8-1.5,2.3c0.1,0.1,0.3,0.3,0.4,0.4c1-0.5,1.4-1.4,1.6-2.6L22.8,63.4z M27,62.5v0.5h5v-0.5H27z
			 M27.2,66.9v0.5h4.6v-0.5H27.2z M28.2,63.3v0.4h2.5v-0.4H28.2z M28.2,64v0.4h2.5V64H28.2z M26.7,64.8v0.5h5.5v-0.5H26.7z M28,65.9
			v0.5h2.9v-0.5H28z M27.8,61.9v3.1h0.6v-3.1H27.8z M30.5,61.9v3.1H31v-3.1H30.5z M29.1,65.4v1.7h0.6v-1.7H29.1z M28.2,64.9
			c-0.3,0.5-1,1-1.6,1.2c0.1,0.1,0.3,0.3,0.4,0.4c0.7-0.3,1.3-0.9,1.7-1.5L28.2,64.9z M30.7,64.9l-0.5,0.2c0.4,0.6,1,1.2,1.6,1.4
			c0.1-0.1,0.3-0.3,0.4-0.4C31.6,65.9,31,65.4,30.7,64.9z M33.2,62.7v0.5h4.9v-0.5H33.2z M33.6,63.6v0.5h4.3v-0.5H33.6z M33.2,65.5
			v0.5h5.1v-0.5H33.2z M33,64.6v0.5h5.4v-0.5H33z M35.4,63v1.9H36V63H35.4z M34,62.1c0.2,0.2,0.4,0.6,0.5,0.8l0.5-0.2
			c-0.1-0.2-0.3-0.5-0.5-0.7L34,62.1z M36.8,61.9c-0.1,0.3-0.3,0.6-0.5,0.9l0.5,0.2c0.2-0.2,0.4-0.6,0.6-0.9L36.8,61.9z M35.4,64.9
			c-0.1,1.1-0.4,1.8-2.4,2.1c0.1,0.1,0.2,0.4,0.3,0.5c2.2-0.4,2.6-1.2,2.7-2.6H35.4z M35.7,66.4c0.8,0.3,1.9,0.8,2.4,1.2l0.3-0.5
			c-0.6-0.3-1.7-0.8-2.4-1.1L35.7,66.4z M40.7,63.6v0.5h2.6v-0.5H40.7z M40.1,65.8v0.5h3.7v-0.5H40.1z M39.9,64.6v2.9h0.6v-2.5h3.4
			v-0.5H39.9z M43.6,64.6v2.4c0,0.1,0,0.1-0.1,0.1c-0.1,0-0.2,0-0.4,0c0.1,0.1,0.1,0.4,0.2,0.5c0.3,0,0.5,0,0.7-0.1
			c0.2-0.1,0.2-0.2,0.2-0.5v-2.4H43.6z M41.1,64.9v2.6h0.5v-2.6H41.1z M42.4,64.9v2.6h0.5v-2.6H42.4z M42.1,61.9
			c-0.6,0.9-1.8,1.6-2.8,2.1c0.1,0.1,0.3,0.3,0.4,0.5c1-0.5,2.2-1.4,2.9-2.3L42.1,61.9z M42.3,62.2l-0.5,0.3c1,0.9,1.8,1.5,2.7,1.9
			c0.1-0.2,0.3-0.4,0.4-0.5C44,63.5,43.1,62.9,42.3,62.2z M45.7,63.6v0.6H51v-0.6H45.7z M48.7,63.8L48.1,64c0.5,1.6,1.2,2.9,2.6,3.5
			c0.1-0.2,0.3-0.4,0.4-0.5C49.8,66.4,49,65.3,48.7,63.8z M48,61.9c0,1.5,0.1,4-2.4,5.1c0.2,0.1,0.3,0.3,0.4,0.5
			c2.6-1.2,2.6-3.9,2.6-5.5H48z M51.9,65.9v0.5h5.4v-0.5H51.9z M53.1,64.9v0.4h2.7v-0.4H53.1z M54.4,65.7v1.2c0,0.1,0,0.1-0.1,0.1
			c-0.1,0-0.4,0-0.8,0c0.1,0.1,0.2,0.3,0.2,0.5c0.5,0,0.8,0,1-0.1c0.2-0.1,0.3-0.2,0.3-0.5v-1.3H54.4z M55.7,64.9L55.7,64.9
			c-0.3,0.3-0.8,0.6-1.3,0.8c0.1,0.1,0.2,0.2,0.3,0.3c0.5-0.2,1.2-0.5,1.6-0.9l-0.3-0.3l-0.1,0H55.7z M52,64.1v1.2h0.5v-0.7h4.1v0.7
			h0.6v-1.2H52z M56.4,62.2c0,0.7-0.1,1.6-0.2,2.2h0.5c0.1-0.5,0.1-1.5,0.2-2.2H56.4z M55.4,62.2v0.4h1.1v-0.4H55.4z M53.6,62
			c-0.3,0.1-0.8,0.3-1.2,0.3l0.2,0.3c0.4-0.1,0.9-0.2,1.2-0.3L53.6,62z M52.7,62.8v0.4h1.1v-0.4H52.7z M52.7,63.4v0.4h1.1v-0.4H52.7
			z M55.5,62.8v0.4h1v-0.4H55.5z M55.4,63.4v0.4h1v-0.4H55.4z M54.9,62c-0.2,0.3-0.6,0.6-1,0.8c0.1,0.1,0.2,0.2,0.3,0.3
			c0.4-0.2,0.9-0.6,1.1-0.9L54.9,62z M53.9,62.3c0.4,0.2,0.9,0.5,1.1,0.7l0.3-0.3c-0.2-0.2-0.7-0.5-1.1-0.7L53.9,62.3z M54.9,63
			c-0.2,0.3-0.7,0.6-1.1,0.8c0.1,0.1,0.2,0.2,0.3,0.3c0.4-0.2,0.9-0.6,1.2-1L54.9,63z M53.9,63.3c0.4,0.2,0.9,0.5,1.1,0.8l0.3-0.3
			c-0.2-0.2-0.8-0.5-1.1-0.7L53.9,63.3z M52.4,62.3l0.1,2H53l-0.1-1.9L52.4,62.3z M3.2,72.2v0.4h3.7v-0.4H3.2z M3.5,73.9v0.4h3.1
			v-0.4H3.5z M3.2,74.7v0.4h3.6v-0.4H3.2z M4.6,70.9v4.7h0.5v-4.7H4.6z M3.6,71.4v0.4H6v1.2H3.5v0.4h3v-2.1H3.6z M1.6,71.3v0.5H3
			v-0.5H1.6z M2.1,73l0,0.5h0.9V73H2.1z M2.7,73v0.1c-0.1,1.5-0.6,2.5-1.3,3c0.1,0.1,0.3,0.3,0.4,0.4c0.8-0.6,1.3-1.7,1.4-3.4
			L2.9,73l-0.1,0H2.7z M2.1,73.9l-0.4,0.2c0.6,1.9,1.7,2.3,3.5,2.3h1.7c0-0.2,0.1-0.4,0.2-0.5c-0.4,0-1.6,0-1.9,0
			C3.6,75.9,2.5,75.6,2.1,73.9z M1.8,73.7c0-0.1,0.4-0.3,0.4-0.3v0c0.4-0.5,0.8-1.2,1.1-2l-0.3-0.2l-0.2,0.1v0
			C2.5,72,2.1,72.7,2,72.9c-0.1,0.2-0.3,0.3-0.4,0.4C1.6,73.4,1.7,73.6,1.8,73.7z M7.9,72.5v0.4H10v-0.4H7.9z M8.7,72.7v1.3h0.5
			v-1.3H8.7z M7.9,73.9l0.1,0.5c0.6-0.1,1.4-0.2,2.1-0.3l0-0.4C9.2,73.7,8.4,73.8,7.9,73.9z M10.9,72.6v0.5c0,0.4-0.1,0.7-0.9,1
			c0.1,0.1,0.3,0.2,0.4,0.3c0.8-0.3,1-0.8,1-1.3v-0.5H10.9z M11.9,72.5v1.2c0,0.4,0,0.5,0.1,0.6c0.1,0.1,0.2,0.1,0.4,0.1
			c0.1,0,0.2,0,0.3,0c0.1,0,0.2,0,0.3-0.1c0.1,0,0.1-0.1,0.2-0.2c0-0.1,0.1-0.3,0.1-0.6c-0.1,0-0.3-0.1-0.4-0.2c0,0.2,0,0.4,0,0.4
			s0,0.1-0.1,0.1c0,0-0.1,0-0.1,0c0,0-0.1,0-0.1,0c0,0-0.1,0-0.1,0c0,0,0-0.1,0-0.2v-1.2H11.9z M7.8,74.7v0.5h5.4v-0.5H7.8z
			 M10.2,74.3v2.2h0.6v-2.2H10.2z M10.1,73.4c0.5,0.2,1.2,0.5,1.5,0.7l0.2-0.4c-0.3-0.2-1-0.5-1.5-0.7L10.1,73.4z M10.2,72.5v0.4
			h1.8v-0.4H10.2z M8.6,71.3v0.4h1.9v-0.4H8.6z M11,71.3v0.4h2.2v-0.4H11z M8.7,70.9c-0.2,0.4-0.5,0.8-0.9,1.1
			c0.1,0.1,0.3,0.3,0.4,0.4c0.4-0.3,0.8-0.8,1-1.3L8.7,70.9z M11.1,70.9c-0.2,0.4-0.5,0.9-0.8,1.1c0.1,0.1,0.3,0.3,0.4,0.3
			c0.4-0.3,0.7-0.8,0.9-1.3L11.1,70.9z M9,71.9c0.2,0.2,0.4,0.4,0.5,0.6l0.4-0.3c-0.1-0.2-0.3-0.4-0.5-0.6L9,71.9z M11.6,71.9
			c0.2,0.2,0.4,0.4,0.5,0.6l0.4-0.3c-0.1-0.2-0.3-0.4-0.5-0.5L11.6,71.9z M9.4,75.2c-0.3,0.3-1,0.6-1.6,0.8c0.1,0.1,0.3,0.3,0.4,0.5
			c0.6-0.2,1.3-0.6,1.7-1L9.4,75.2z M11.2,75.5c0.5,0.2,1.2,0.6,1.6,0.9l0.4-0.4c-0.4-0.3-1.1-0.6-1.6-0.8L11.2,75.5z M20.9,71.2
			v0.5h1.2v-0.5H20.9z M20.7,71.2v2.1c0,0.9,0,2.1-0.4,2.9c0.1,0.1,0.3,0.2,0.4,0.3c0.4-0.9,0.5-2.3,0.5-3.2v-2.1H20.7z M21.8,71.2
			v4.7c0,0.1,0,0.1-0.1,0.1c-0.1,0-0.3,0-0.6,0c0.1,0.1,0.1,0.4,0.1,0.5c0.4,0,0.6,0,0.8-0.1c0.2-0.1,0.2-0.2,0.2-0.5v-4.7H21.8z
			 M21.1,74.3l0.2,0.5c0.3-0.2,0.5-0.5,0.8-0.7l-0.1-0.3C21.6,73.9,21.3,74.1,21.1,74.3z M21.1,72.6c0.2,0.2,0.4,0.5,0.5,0.7
			l0.3-0.2c-0.1-0.2-0.3-0.4-0.5-0.7L21.1,72.6z M24.2,71c-0.1,0.3-0.4,0.7-0.6,1.1c0.3,0.4,0.6,0.8,0.8,1.1l0.5-0.2
			c-0.1-0.3-0.4-0.6-0.7-1c0.2-0.3,0.4-0.6,0.6-0.9L24.2,71z M25.3,71c-0.1,0.3-0.4,0.7-0.7,1.1c0.4,0.4,0.7,0.8,0.8,1.1l0.5-0.2
			c-0.2-0.2-0.4-0.6-0.7-0.9c0.2-0.3,0.4-0.6,0.6-0.9L25.3,71z M22.6,73.6v2.9h0.5V74h2.1v2.4h0.5v-2.9H22.6z M22.9,75.8v0.5h2.6
			v-0.5H22.9z M23.8,73.1c-0.1,0.2-0.2,0.5-0.3,0.7l0.4,0.1c0.1-0.2,0.3-0.4,0.5-0.7L23.8,73.1z M24.6,74.1c-0.3,0.5-0.9,1-1.4,1.3
			c0.1,0.1,0.2,0.2,0.3,0.3c0.6-0.4,1.2-0.9,1.5-1.4L24.6,74.1z M23.3,74.5c0.5,0.3,1.2,0.9,1.5,1.2l0.3-0.3c-0.3-0.3-1-0.8-1.5-1.2
			L23.3,74.5z M23.1,71c-0.1,0.3-0.4,0.8-0.6,1.1c0.3,0.4,0.6,0.9,0.8,1.2l0.5-0.2c-0.1-0.3-0.4-0.7-0.7-1c0.2-0.3,0.4-0.7,0.6-1
			L23.1,71z M29.4,73c-0.4,0-0.7,0.3-0.7,0.7c0,0.4,0.3,0.7,0.7,0.7c0.4,0,0.7-0.3,0.7-0.7C30.1,73.3,29.8,73,29.4,73z M35.5,71.2
			v0.5h3v-0.5H35.5z M36.1,73.5h1.5V74h-1.5V73.5z M36.1,74.4h1.5v0.4h-1.5V74.4z M36.1,72.7h1.5v0.4h-1.5V72.7z M35.6,72.2v3.1h2.6
			v-3.1H35.6z M36.2,75.3c-0.3,0.3-0.8,0.6-1.3,0.8c0.1,0.1,0.3,0.3,0.4,0.4c0.5-0.2,1.1-0.6,1.4-1L36.2,75.3z M36.6,71.4
			c0,0.3-0.1,0.7-0.2,1l0.5,0.1c0.1-0.3,0.2-0.7,0.3-1L36.6,71.4z M33,71.2v0.5h2.3v-0.5H33z M33.7,73v0.5h1v1.6h-1v0.5h1.5V73H33.7
			z M33.7,71.5c-0.1,1.1-0.4,2.2-0.9,2.8c0.1,0.1,0.3,0.4,0.3,0.5c0.6-0.8,0.9-2,1.1-3.3L33.7,71.5z M33.5,73v3.1H34V73H33.5z
			 M37.1,75.6c0.4,0.3,0.8,0.7,1,0.9l0.5-0.3c-0.2-0.3-0.6-0.7-1-0.9L37.1,75.6z M39.7,75.6v0.6h4.8v-0.6H39.7z M39.3,72.8v0.6h5.4
			v-0.6H39.3z M41.7,71V76h0.6V71H41.7z M14.9,73.2h-0.5v-1.3h2.3v-0.3h-2v-0.4h4.7v0.4h-2.1v0.3h2.4v1.3H19v-0.9h-1.8v1.3h-0.6
			v-1.3h-1.8V73.2z M18.8,76c0.3,0,0.4-0.1,0.4-0.7c0.1,0.1,0.3,0.2,0.5,0.2c-0.1,0.7-0.2,0.9-0.8,0.9h-1.3c-0.8,0-1-0.1-1-0.7v-0.1
			h-1.2v0.3h-0.5v-2.1H19v1.9h-1.9v0.1c0,0.2,0.1,0.3,0.5,0.3H18.8z M14.9,73.2c0.4,0,0.9-0.1,1.4-0.2l0,0.3
			c-0.5,0.1-0.9,0.2-1.3,0.3L14.9,73.2z M15.2,72.3c0.4,0.1,0.9,0.2,1.1,0.3l-0.2,0.3c-0.3-0.1-0.8-0.2-1.1-0.3L15.2,72.3z
			 M15.4,74.2v0.3h1.2v-0.3H15.4z M16.6,75.2v-0.4h-1.2v0.4H16.6z M18.4,74.2h-1.3v0.3h1.3V74.2z M18.4,75.2v-0.4h-1.3v0.4H18.4z
			 M18.8,73.6c-0.3-0.1-0.9-0.3-1.4-0.3l0.1-0.3c0.5,0,1.1,0.2,1.4,0.3L18.8,73.6z M18.8,72.6c-0.3,0.1-0.8,0.2-1.1,0.3l-0.2-0.3
			c0.3-0.1,0.8-0.2,1.1-0.4L18.8,72.6z"/>
		<path class="st1" d="M2.4,0.9v0.8h1.8v3.9H2.4v0.8h2.6V0.9H2.4z M2.4,3.2V4h2.1V3.2H2.4z M6.2,0.8v0.8h2.9V0.8H6.2z M6.2,3v0.8
			h2.9V3H6.2z M6.1,5.1v0.8h2.9V5.1H6.1z M1.9,0.9v6.3h0.8V0.9H1.9z M8.8,0.8v6.9c0,0.2-0.1,0.2-0.2,0.2c-0.2,0-0.7,0-1.3,0
			c0.1,0.2,0.3,0.6,0.3,0.8c0.8,0,1.3,0,1.6-0.2c0.3-0.1,0.4-0.4,0.4-0.9V0.8H8.8z M5.7,0.8V4c0,1.4-0.1,3.1-1.7,4.2
			c0.2,0.1,0.5,0.4,0.6,0.6C6.3,7.6,6.5,5.6,6.5,4V0.8H5.7z M12.6,1v7.7h0.9V1.8h4.3v6.8h0.9V1H12.6z M13.2,4.1v0.8h4.9V4.1H13.2z
			 M13.2,7.2v0.9h5V7.2H13.2z M22.9,2.1v0.8h6.2V2.1H22.9z M22.5,4.8v0.8h6.3V4.8H22.5z M21.5,7.7v0.8h8.1V7.7H21.5z M25.1,0.4v7.7
			H26V0.4H25.1z M23,0.5c-0.3,1.3-0.9,2.5-1.6,3.3C21.6,4,22,4.2,22.2,4.3c0.7-0.9,1.4-2.2,1.7-3.6L23,0.5z M34.5,5.2v3.6h0.8V6h3
			v2.7H39V5.2H34.5z M38.5,0.4c-1,0.4-2.8,0.7-4.3,0.8c0.1,0.2,0.2,0.5,0.2,0.7c1.6-0.2,3.5-0.4,4.7-0.9L38.5,0.4z M36.3,1.3v4.3
			h0.8V1.3H36.3z M33.8,3v0.8h5.7V3H33.8z M35,7.6v0.8h3.6V7.6H35z M31.7,1.1c0.5,0.3,1.3,0.7,1.7,1l0.5-0.7
			c-0.4-0.3-1.2-0.7-1.7-0.9L31.7,1.1z M31.3,3.6c0.5,0.3,1.3,0.7,1.7,1l0.5-0.7C33,3.6,32.3,3.2,31.7,3L31.3,3.6z M31.4,8.1
			l0.7,0.6c0.5-0.9,1.1-1.9,1.6-2.9l-0.6-0.6C32.6,6.2,31.9,7.4,31.4,8.1z M1.9,14.2v1.5h0.8v-0.8h6v0.8h0.8v-1.5H1.9z M5.4,15.4
			c0,0.6-0.1,1.3-0.2,1.7h0.7C6,16.7,6.1,16,6.1,15.4H5.4z M3.7,18.9h4.1v0.4H3.7V18.9z M3.7,19.7h4.1v0.4H3.7V19.7z M3.7,18.1h4.1
			v0.3H3.7V18.1z M2.8,17.6v2.9h5.8v-2.9H2.8z M6.2,20.9c1,0.3,2.1,0.6,2.8,0.9l0.6-0.5c-0.7-0.3-1.8-0.6-2.9-0.8L6.2,20.9z
			 M3.9,15.7h3.6l-0.1,1.2H3.8L3.9,15.7z M3.2,15.2L3,17.3h5.2l0.2-2.1H3.2z M4.6,20.4c-0.6,0.3-1.8,0.6-2.8,0.8
			c0.1,0.2,0.4,0.4,0.5,0.6c1-0.2,2.2-0.5,3-0.9L4.6,20.4z M1.6,15.9v0.6h2v-0.1h4.1v0.1h2.1v-0.6H7.8V16H3.6v-0.1H1.6z M5,13.6
			c0.2,0.3,0.4,0.8,0.5,1l0.8-0.2c-0.1-0.3-0.3-0.7-0.6-1L5,13.6z M18.4,15.2c-0.8,0.8-2.3,1.3-3.8,1.6c0.1,0.2,0.3,0.5,0.4,0.7
			c1.5-0.4,3.1-1,4-2L18.4,15.2z M14.8,14.7l0,0.7l4.8-0.4l-0.1-0.7L14.8,14.7z M17.2,13.8c0.4,0.2,1,0.5,1.3,0.7l0.5-0.5
			c-0.3-0.2-0.8-0.5-1.3-0.7L17.2,13.8z M18.5,19c-0.8,1-2.5,1.7-4.1,2.1c0.1,0.2,0.4,0.5,0.4,0.7c1.7-0.5,3.5-1.2,4.4-2.4L18.5,19z
			 M14.7,18.6l0.1,0.7l5-0.4l-0.1-0.7L14.7,18.6z M17,17.6c0.4,0.2,1,0.5,1.3,0.8l0.5-0.4c-0.3-0.2-0.8-0.5-1.3-0.7L17,17.6z
			 M12.6,14.5h1.3v1.4h-1.3V14.5z M11.8,13.8v2.9h2.7v-2.9H11.8z M13,16.3v4.2h0.7v-4.2H13z M11.8,17.4v3.3h0.7v-3.3H11.8z
			 M11.4,20.4l0.2,0.8c0.9-0.2,2.1-0.5,3.3-0.8l-0.1-0.7C13.5,20,12.3,20.3,11.4,20.4z M13.3,17.8v0.7h1.4v-0.7H13.3z M15.8,13.4
			c0.4,2.3,1.4,4.1,3.2,4.1c0.4,0,0.7-0.3,0.9-1.1c-0.2-0.1-0.4-0.2-0.6-0.4c-0.1,0.5-0.2,0.7-0.3,0.7c-1.2,0-2.1-1.4-2.3-3.3H15.8z
			 M15.6,17.2c0.4,2.5,1.4,4.5,3.4,4.5c0.4,0,0.7-0.3,0.9-1.2c-0.2-0.1-0.5-0.2-0.6-0.4c-0.1,0.6-0.2,0.8-0.4,0.8
			c-1.3-0.1-2.2-1.6-2.5-3.7H15.6z M21.7,14.2v1.9h0.8V15h5.9v1.2h0.9v-1.9H21.7z M22.9,15.7v0.7h5.2v-0.7H22.9z M24.5,17
			c1.5,1.3,1.4,3.3,0.9,3.8c-0.1,0.2-0.3,0.2-0.5,0.2c-0.2,0-0.5,0-0.8,0c0.2,0.2,0.2,0.6,0.2,0.8c0.3,0,0.6,0,0.8,0
			c0.4,0,0.7-0.1,1-0.4c0.8-0.6,0.9-3.2-0.9-4.7L24.5,17z M25.4,15.9c-0.8,0.8-2.3,1.4-3.8,1.7c0.1,0.2,0.4,0.5,0.5,0.7
			c1.4-0.4,3.1-1.1,4-2L25.4,15.9z M25.1,17.6c-0.8,0.6-2.3,1.2-3.5,1.5c0.2,0.2,0.3,0.5,0.4,0.7c1.2-0.4,2.7-1.1,3.6-1.7L25.1,17.6
			z M25.6,18.7c-0.9,0.8-2.7,1.6-4.1,2c0.2,0.2,0.3,0.5,0.4,0.7c1.5-0.5,3.3-1.4,4.3-2.3L25.6,18.7z M27.5,18.1l-0.7,0.2
			c0.5,1.4,1.3,2.5,2.5,3.1c0.1-0.2,0.4-0.5,0.6-0.7C28.7,20.2,27.8,19.3,27.5,18.1z M28.1,16.6c-0.6,0.6-1.7,1.4-2.4,1.8l0.5,0.5
			c0.8-0.4,1.8-1.1,2.6-1.7L28.1,16.6z M24.8,13.6c0.2,0.3,0.4,0.8,0.5,1.1l0.9-0.3c-0.1-0.3-0.3-0.7-0.5-1.1L24.8,13.6z"/>
	</g>
</g>
</svg>
