<svg width="5" height="581" viewBox="0 0 5 581" fill="none" xmlns="http://www.w3.org/2000/svg">
<g clip-path="url(#clip0_120_6874)">
<path d="M4.69998 510.2V508.9H0.0999756V508.4H4.69998V507.1H4.79998V510.3H4.69998V510.2Z" fill="#C9A063"/>
<path d="M0.0999756 514.1V513.6H2.59998V511.2H0.0999756V510.7H4.79998V511.2H2.79998V513.6H4.89998V514.1H0.0999756Z" fill="#C9A063"/>
<path d="M0.0999756 518V515.6H4.79998V517.9H4.69998V516.1H2.79998V517.7H2.59998V516.1H0.199976V518H0.0999756Z" fill="#C9A063"/>
<path d="M4.8 524.6L0 522.6L4.8 520.6V521.2L0.9 522.8L4.8 524.4V524.6Z" fill="#C9A063"/>
<path d="M2.49998 530.3C1.79998 530.3 1.19998 530.1 0.799976 529.6C0.299976 529.1 0.0999756 528.5 0.0999756 527.8C0.0999756 527.1 0.299976 526.4 0.799976 526C1.29998 525.5 1.79998 525.3 2.49998 525.3C3.19998 525.3 3.79998 525.5 4.19998 526C4.69998 526.5 4.89998 527.1 4.89998 527.8C4.89998 528.5 4.69998 529.2 4.19998 529.6C3.69998 530.1 3.09998 530.3 2.49998 530.3ZM2.49998 529.8C3.19998 529.8 3.69998 529.6 4.09998 529.3C4.59998 528.9 4.79998 528.4 4.79998 527.8C4.79998 527.2 4.59998 526.7 4.09998 526.3C3.69998 525.9 3.09998 525.8 2.49998 525.8C1.79998 525.8 1.29998 526 0.899976 526.3C0.399976 526.7 0.199976 527.2 0.199976 527.8C0.199976 528.4 0.399976 528.9 0.899976 529.3C1.29998 529.6 1.79998 529.8 2.49998 529.8Z" fill="#C9A063"/>
<path d="M0.0999756 532V531.5H4.79998V532H0.0999756Z" fill="#C9A063"/>
<path d="M0.7 537.2C0.2 536.8 0 536.3 0 535.6C0 535 0.2 534.4 0.7 534C1.2 533.5 1.7 533.3 2.4 533.3C3.1 533.3 3.6 533.5 4.1 533.9C4.6 534.3 4.8 534.8 4.8 535.5C4.8 536.1 4.6 536.6 4.3 537L4.1 536.8C4.5 536.4 4.6 536 4.6 535.5C4.6 535 4.4 534.6 3.9 534.3C3.5 534 2.9 533.9 2.3 533.9C1.7 533.9 1.1 534.1 0.7 534.4C0.3 534.7 0 535.2 0 535.7C0 536.3 0.2 536.7 0.7 537V537.2Z" fill="#C9A063"/>
<path d="M0.0999756 540.6V538.2H4.79998V540.5H4.69998V538.7H2.79998V540.3H2.59998V538.7H0.199976V540.6H0.0999756Z" fill="#C9A063"/>
<path d="M4.69998 546.4V545.1H0.0999756V544.6H4.69998V543.3H4.79998V546.5H4.69998V546.4Z" fill="#C9A063"/>
<path d="M0.0999756 550.3V549.8H2.59998V547.4H0.0999756V546.9H4.79998V547.4H2.79998V549.8H4.89998V550.3H0.0999756Z" fill="#C9A063"/>
<path d="M0.0999756 554.1V551.7H4.79998V554H4.69998V552.2H2.79998V553.8H2.59998V552.2H0.199976V554.1H0.0999756Z" fill="#C9A063"/>
<path d="M4.8 562.4L0 560.9L3.9 559.5L0 558.2L4.8 556.7V557.2L1.1 558.4L4.9 559.7L1 561.1L4.8 562.3V562.4Z" fill="#C9A063"/>
<path d="M2.49998 568C1.79998 568 1.19998 567.8 0.799976 567.3C0.299976 566.8 0.0999756 566.2 0.0999756 565.5C0.0999756 564.8 0.299976 564.1 0.799976 563.7C1.29998 563.2 1.79998 563 2.49998 563C3.19998 563 3.79998 563.2 4.19998 563.7C4.69998 564.2 4.89998 564.8 4.89998 565.5C4.89998 566.2 4.69998 566.9 4.19998 567.3C3.69998 567.8 3.09998 568 2.49998 568ZM2.49998 567.5C3.19998 567.5 3.69998 567.3 4.09998 567C4.59998 566.6 4.79998 566.1 4.79998 565.5C4.79998 564.9 4.59998 564.4 4.09998 564C3.69998 563.6 3.09998 563.5 2.49998 563.5C1.79998 563.5 1.29998 563.7 0.899976 564C0.399976 564.4 0.199976 564.9 0.199976 565.5C0.199976 566.1 0.399976 566.6 0.899976 567C1.29998 567.3 1.79998 567.5 2.49998 567.5Z" fill="#C9A063"/>
<path d="M0.0999756 572.2V571.7L2.69998 570.1C2.69998 570.2 2.69998 570.3 2.69998 570.3C2.69998 571 2.99998 571.4 3.69998 571.4C4.39998 571.4 4.69998 570.9 4.69998 570V569.7H0.0999756V569.2H4.79998C4.79998 569.3 4.79998 569.6 4.79998 570.1C4.79998 571.3 4.39998 571.9 3.59998 571.9C3.29998 571.9 2.99998 571.8 2.79998 571.6C2.59998 571.4 2.49998 571.1 2.39998 570.7L0.0999756 572.2Z" fill="#C9A063"/>
<path d="M0.0999756 575.6V573.2H4.79998V573.7H0.199976V575.6H0.0999756Z" fill="#C9A063"/>
<path d="M2.49995 580.5C1.59995 580.5 0.999951 580.2 0.599951 579.5C0.299951 579 0.199951 578.5 0.199951 577.9V576.6H4.89995V577.9C4.89995 578.5 4.79995 579 4.49995 579.5C3.99995 580.1 3.29995 580.5 2.49995 580.5ZM2.49995 580C3.29995 580 3.89995 579.7 4.29995 579.1C4.59995 578.7 4.69995 578.2 4.69995 577.6V577H0.199951V577.5C0.199951 578.2 0.299951 578.7 0.599951 579.1C0.999951 579.7 1.59995 580 2.49995 580Z" fill="#C9A063"/>
<path d="M0.599976 0V502.5" stroke="#C9A063" stroke-width="0.35" stroke-miterlimit="10"/>
</g>
<defs>
<clipPath id="clip0_120_6874">
<rect width="4.9" height="580.5" fill="white"/>
</clipPath>
</defs>
</svg>
