<svg width="300" height="34" viewBox="0 0 300 34" fill="none" xmlns="http://www.w3.org/2000/svg">
<g opacity="0.3">
<path d="M13.58 3.00999C13.31 3.54999 12.91 3.73 12.04 3.73H10.4301V32.89C10.4301 33.11 9.65995 33.72 8.44995 33.72H8.07996V25.3C6.56996 25.98 4.62997 26.85 2.21997 27.86C2.01997 28.33 1.71998 28.58 1.34998 28.69L0.209961 25.23L2.25 25.05V3.74001H0.410034L0.209961 2.90999H8.94995L10.52 0.75L13.5701 3.02L13.58 3.00999ZM8.08997 9.89V3.73H4.54004V9.89H8.08997ZM8.08997 17.23V10.68H4.54004V17.23H8.08997ZM4.54004 18.02V24.79C5.64004 24.65 6.84997 24.5 8.08997 24.32V18.02H4.54004ZM32.03 13.45C31.76 13.95 31.36 14.13 30.46 14.13H25.64C25.81 16.87 26.04 19.46 26.48 21.76C27.32 19.89 27.95 17.91 28.39 15.97L31.77 17.09C31.64 17.52 31.34 17.7 30.46 17.7C29.72 20.08 28.65 22.52 27.21 24.76C28.18 27.89 29.42 29.4 29.55 29.4C29.82 29.4 30.79 26.7 31.26 24.76L31.59 24.83L30.99 30.48C31.53 31.6 31.79 32.35 31.79 32.86C31.79 33.58 31.05 33.72 30.72 33.72C27.91 33.72 25.83 28.07 25.46 27.06C23.28 29.65 20.47 31.88 16.86 33.32L16.63 32.78C20.15 30.84 22.82 28.06 24.83 24.86C23.99 21.73 23.5601 18.13 23.3201 14.13H10.87L10.67 13.34H18C18.37 11.4 18.7 8.72999 18.87 6.81999L22.42 7.58C22.35 7.98 21.99 8.16002 21.25 8.19002C20.65 9.70002 19.74 11.72 18.77 13.34H23.26C23.16 11 23.0901 8.55002 23.0601 6.00002C22.7901 6.14002 22.46 6.22002 21.92 6.22002H11.71L11.51 5.43001H15.8V0.25L19.6801 0.610001C19.6101 1.15 19.28 1.4 18.24 1.55V5.44002H19.61L20.92 3.46001L23.0601 5.19002C23.0301 3.57002 23.03 1.95001 23.03 0.290009L26.8101 0.76001C26.7801 1.23001 26.47 1.41 25.54 1.52C25.51 3.39 25.47 5.26 25.47 7.14C25.47 9.26 25.5 11.35 25.6 13.37H27.47L29.04 11.14L32.02 13.48L32.03 13.45ZM19.17 27.81H14.98V30.08C14.98 30.08 14.68 30.91 12.74 30.91V16.33L15.12 17.48H18.87L19.8101 16.15L22.52 18.2C22.35 18.45 21.92 18.7 21.42 18.81V28.53C21.42 28.6 20.7201 29.29 19.1801 29.29V27.81H19.17ZM13.48 6.93001C15.39 8.44001 16.02 9.92001 16.02 11.03C16.02 12.25 15.28 13.05 14.55 13.05C14.15 13.05 13.78 12.83 13.48 12.33C13.55 11.86 13.58 11.36 13.58 10.82C13.58 9.51999 13.38 8.08 13.04 7.11L13.47 6.93001H13.48ZM19.17 18.27H14.98V22.16H19.17V18.27ZM14.98 26.98H19.17V22.95H14.98V26.98ZM26.53 3.11C30.08 3.83 31.22 5.49001 31.22 6.78001C31.22 7.72001 30.62 8.44002 29.88 8.44002C29.55 8.44002 29.21 8.30002 28.88 7.94002C28.75 6.32002 27.57 4.45 26.3 3.48L26.53 3.12001V3.11Z" fill="white"/>
<path d="M36.92 33.1098C50.04 23.8998 49.88 12.0898 49.91 1.06982L54.26 1.49982C54.23 1.96982 53.96 2.25982 52.89 2.35982C53.73 13.5198 56.97 23.9598 68.12 30.7998L68.05 31.2298C66.61 31.3698 65.67 32.1298 65.24 33.7498C56.74 27.3398 53.82 17.7298 52.72 8.04982H52.6901C52.1201 17.2298 49.9101 26.7998 37.3201 33.6798L36.92 33.0998V33.1098Z" fill="white"/>
<path d="M78.54 14.6397C79.11 16.6597 79.34 18.4597 79.34 19.9997C79.34 24.7897 77.06 27.9597 74.85 27.9597C73.85 27.9597 73.54 27.1997 73.54 26.6997C73.54 26.0897 73.88 25.4797 74.38 25.0097C76.36 23.4297 78.16 19.3897 78 14.6797L78.54 14.6397ZM82.09 1.42969C90.96 1.49969 93.77 4.80967 93.77 6.78967C93.77 7.64967 93.2301 8.26968 92.4301 8.26968C92.2001 8.26968 91.9601 8.22967 91.6901 8.12967C90.3801 6.14967 86.97 3.40968 82.01 1.96968L82.08 1.42969H82.09ZM82.76 10.6397L86.74 10.9997C86.67 11.4997 86.47 11.7197 85.47 11.8997V28.7797C85.47 29.9997 85.6 30.1097 86.88 30.1097H93.51C94.11 30.1097 94.48 30.0397 94.78 29.4997C95.08 28.9597 95.6201 26.7597 96.1901 24.2397H96.49L96.46 29.7797C97.6 30.2097 97.8 30.3897 97.8 30.8197C97.8 32.0397 96.8 32.6597 93.48 32.6597H86.85C83.5 32.6597 82.77 31.9797 82.77 28.7397V10.6297L82.76 10.6397ZM97.09 13.1597C102.85 16.6897 104.66 21.1497 104.66 24.2097C104.66 26.3297 103.79 27.8097 102.79 27.8097C102.39 27.8097 101.95 27.5597 101.55 26.9797C101.62 23.3797 100.55 17.3997 96.76 13.5197L97.09 13.1597Z" fill="white"/>
<path d="M118.64 4.12979H110.1L109.9 3.33981H118.64V0.0597992L122.56 0.379807C122.53 0.879807 122.26 1.09981 121.25 1.23981V3.3298H129.42V0.0498047L133.37 0.369812C133.34 0.909812 133.07 1.0898 132.06 1.2298V3.31979H136.31L137.88 1.0898L140.99 3.42981C140.69 3.92981 140.32 4.1098 139.42 4.1098H132.05V5.7298C132.05 5.8398 131.88 5.97979 131.55 6.12979L133.59 6.30981C133.56 6.70981 133.36 6.95979 132.42 7.06979C132.39 8.03979 132.35 8.97979 132.29 9.90979H134.57L135.68 8.42981L138.56 10.6998C138.36 10.9198 137.92 11.1298 137.35 11.1998C137.25 14.9098 137.55 17.7198 138.69 18.8698C138.79 18.9398 138.86 18.9798 138.92 18.9798C139.19 18.9798 139.92 16.6798 140.13 16.0598L140.43 16.1298L140.1 19.4398C140.57 20.0498 140.84 20.5198 140.84 20.9498C140.84 21.1998 140.64 22.0698 139.57 22.0698C138.97 22.0698 138.26 21.7798 137.73 21.3498C135.49 19.3298 135.02 15.9498 134.88 10.6998H132.27C132.14 12.0998 131.94 13.4398 131.53 14.7298C133.14 15.7698 133.71 16.9298 133.71 17.7498C133.71 18.4698 133.27 19.0098 132.64 19.0098C132.41 19.0098 132.17 18.9398 131.9 18.7898C131.63 18.2898 131.2 17.6398 130.59 16.9498C129.42 19.1098 127.44 20.9798 124.06 22.5298L123.66 21.9498C126.64 20.0798 128.18 17.8798 129.02 15.3998C128.22 14.6798 127.28 13.9998 126.27 13.3798L126.54 12.8398C127.68 13.0898 128.62 13.3398 129.45 13.6698C129.65 12.6998 129.75 11.7298 129.82 10.6798H125.9L125.67 9.8898H129.89C129.92 8.7698 129.96 7.65982 129.96 6.46982H129.42V4.08981H121.25V5.8898C121.25 6.0698 120.75 6.35982 120.04 6.49982C119.87 6.71982 119.57 6.81981 118.97 6.92981V8.0498H120.68L121.92 6.49982L124.33 8.15979C124.1 8.65979 123.69 8.87979 122.82 8.87979H118.97V11.0398H121.82L123.06 9.4198L125.57 11.1498C125.3 11.6498 124.93 11.8298 124.06 11.8298H121.08V12.9498C121.08 13.3365 121.203 13.5298 121.45 13.5298H122.99C123.49 13.5298 123.83 13.4598 124.26 12.9898H124.46L124.63 13.4898C125.4 13.8498 125.47 13.9198 125.47 14.2798C125.47 15.1398 124.8 15.4298 123.23 15.4298H122.12L124.46 17.0098C124.19 17.5098 123.82 17.6898 122.95 17.6898H119V19.6298C121.01 19.5198 123.22 19.3798 125.43 19.2298L125.46 19.8398C122.58 20.4898 118.5 21.2098 112.77 22.1798C112.57 22.6098 112.23 22.8298 111.93 22.9398L110.56 20.0198C111.87 20.0198 114.01 19.9098 116.55 19.7698V17.6798H112.06L111.86 16.8898H116.55V14.5098L119.33 14.7598C119.06 14.2598 119.06 13.5698 119.06 11.8098H116.48L117.25 12.0298C117.12 12.4298 116.78 12.6098 116.04 12.5298C115.24 14.2198 113.56 15.5498 110.48 16.3498L110.08 15.5898C112.22 14.7998 113.36 13.3898 113.9 11.8098H110.55L110.32 11.0198H116.55V8.8598H111.73L111.53 8.02982H116.55V5.7998L118.63 5.9798V4.06979L118.64 4.12979ZM137.96 24.1398L141.04 26.2998C140.77 26.7998 140.4 27.0198 139.43 27.0198H123.73C122.42 28.2798 120.88 29.5398 119.48 30.5498C123.26 30.5098 127.78 30.4098 132.6 30.3298C131.5 29.6098 130.22 28.9598 128.85 28.4198L129.02 27.8398C136.02 28.1998 138.23 30.7598 138.23 32.3798C138.23 33.1398 137.73 33.6798 137.02 33.6798C136.79 33.6798 136.55 33.6398 136.32 33.5398C135.82 32.8598 134.95 31.9898 133.81 31.1598C129.26 31.7398 123 32.2798 114.36 33.0298C114.16 33.4598 113.82 33.7098 113.49 33.7898L111.85 30.5498C113.26 30.5898 115.26 30.5898 117.78 30.5498C118.58 29.5098 119.45 28.1698 120.09 27.0198H110.15L109.95 26.1898H136.33L137.97 24.1398H137.96ZM131.97 22.9198L133.54 20.8998L136.55 23.0198C136.28 23.5198 135.91 23.7398 134.98 23.7398H114.93L114.73 22.9098H131.97V22.9198ZM121.96 15.4698C120.72 15.4698 120.22 15.4698 119.82 15.2498C119.65 15.3898 119.42 15.4698 119.02 15.5398V16.9398H120.83L121.97 15.4598L121.96 15.4698Z" fill="white"/>
<path d="M165.32 24.4297C166.93 24.0697 168.63 23.6697 170.38 23.2397L170.48 23.7397C168.3 24.8897 165.12 26.5498 160.74 28.5298C160.61 28.9998 160.31 29.3197 159.97 29.4297L158.53 25.8297C159.43 25.6897 160.91 25.3998 162.68 24.9998V14.9197H159.16L158.96 14.0898H162.68V4.69974H158.86L158.69 3.90973H165.89L167.43 1.56975L170.38 3.97974C170.11 4.47974 169.71 4.69974 168.81 4.69974H165.33V14.0898H166.1L167.47 11.8597L170.05 14.1997C169.82 14.6997 169.41 14.9197 168.54 14.9197H165.33V24.4197L165.32 24.4297ZM187.21 25.6198L190.19 27.9597C189.92 28.4597 189.52 28.6397 188.62 28.6397H182.13V32.8197C182.13 32.8897 181.69 33.7198 179.45 33.7198V28.6397H168.64L168.44 27.8497H172.39V21.1198L175.37 22.4197H179.45V19.3997L183.4 19.7198C183.33 20.2198 183.06 20.4397 182.13 20.5797V22.4197H184.31L185.82 20.3297L188.7 22.5298C188.43 23.0698 188.03 23.2498 187.13 23.2498H182.14V27.8597H185.66L187.23 25.6297L187.21 25.6198ZM172.15 4.66974L171.92 3.83975H176.07C176.24 2.57975 176.37 1.35975 176.51 0.239746L180.16 0.709747C180.09 1.20975 179.76 1.49975 178.96 1.56975C178.86 2.24975 178.76 3.04975 178.62 3.83975H182.97L184.04 2.32974L187.12 4.66974C186.92 4.91974 186.38 5.24973 185.68 5.34973V9.08975H185.98L187.39 6.85974L190.03 9.19974C189.76 9.69974 189.36 9.87973 188.46 9.87973H169.78L169.58 9.08975H175.3C175.5 7.89975 175.74 6.31973 175.94 4.65973H172.16L172.15 4.66974ZM186.78 18.6397C186.78 18.8597 185.44 19.4698 184.6 19.4698H184.16V18.4297H174.42V19.1097C174.42 19.1797 173.95 20.0097 171.88 20.0097V11.4797L174.59 12.6997H183.83L184.97 11.1198L188.22 13.5697C187.99 13.8597 187.45 14.1497 186.78 14.2897V18.6497V18.6397ZM174.43 17.5997H184.17V13.5298H174.43V17.5997ZM174.93 27.8597H179.45V23.2498H174.93V27.8597ZM183.3 4.67975H178.48C178.25 6.25975 177.98 7.87974 177.74 9.10974H183.3V4.67975Z" fill="white"/>
<path d="M205.22 14.39V25.44C206.39 25.01 207.63 24.5 208.9 24L209.07 24.43C207.76 25.55 205.79 27.27 203.18 29.29C203.11 29.72 202.81 30.08 202.51 30.23L201 26.95C201.44 26.81 202.07 26.59 202.84 26.3V14.39H200.5C200.33 21.41 199.93 28.54 195.68 33.72L195.14 33.18C197.99 27.71 197.99 20.83 198.02 14.39H195.31L195.11 13.6H200.37V0.25L204.15 0.610001C204.12 1.11 203.78 1.33 202.84 1.47V13.6H204.65L206.12 11.66L208.87 13.71C208.64 14.21 208.23 14.39 207.36 14.39H205.22ZM196.08 2.87001C198.49 5.28001 199.29 7.55001 199.29 9.21001C199.29 10.65 198.62 11.59 197.92 11.59C197.59 11.59 197.25 11.41 196.95 10.98C196.98 10.69 196.98 10.4 196.98 10.08C196.98 7.78 196.34 4.9 195.61 3.02L196.08 2.87999V2.87001ZM208.57 3.84001C208.47 4.16001 208.27 4.34001 207.67 4.34001C206.97 6.10001 205.46 9.44999 204.09 11.79L203.69 11.61C204.33 8.91 205.03 4.73001 205.3 2.68001L208.58 3.83L208.57 3.84001ZM223.43 28.21L226.51 30.48C226.21 31.02 225.81 31.2 224.9 31.2H212.65V33C212.65 33.18 211.81 33.72 210.57 33.72H210.13V20.33C209.06 21.55 207.95 22.56 206.85 23.35L206.38 22.95C208.32 20.72 210.43 16.79 211.8 12.69L215.18 14.24C215.01 14.64 214.71 14.82 213.91 14.74C213.44 15.6 212.97 16.47 212.44 17.3L213.04 17.55H216.15C216.45 16.15 216.72 14.38 216.82 13.01L220.64 13.84C220.54 14.27 220.2 14.45 219.43 14.45C218.89 15.39 218.06 16.54 217.19 17.55H221.37L222.84 15.53L225.65 17.65C225.38 18.15 224.95 18.33 224.08 18.33H218.72V21.61H220.86L222.23 19.7L224.87 21.72C224.64 22.22 224.2 22.4 223.33 22.4H218.71V25.89H220.85L222.22 24.02L224.86 26C224.63 26.54 224.19 26.72 223.32 26.72H218.7V30.36H221.81L223.38 28.2L223.43 28.21ZM213.79 2.94002H208.83L208.6 2.15001H213.49L214.53 0.710007L217.44 2.90999C217.24 3.15999 216.77 3.45001 216.2 3.56001V12.42C216.2 12.53 215.5 13.21 213.79 13.21V11.55H208.73L208.5 10.76H213.79V7.15999H209.04L208.81 6.37001H213.8V2.95L213.79 2.94002ZM216.27 18.35H212.65V21.63H216.27V18.35ZM216.27 25.91V22.42H212.65V25.91H216.27ZM212.65 26.74V30.38H216.27V26.74H212.65ZM222.59 2.95H217.64L217.41 2.16H222.3L223.37 0.680008L226.32 2.95C226.15 3.2 225.68 3.45001 225.11 3.56001V12.67C225.11 12.74 224.34 13.5 222.6 13.5V11.56H217.58L217.38 10.77H222.6V7.17H217.88L217.68 6.37999H222.6V2.96001L222.59 2.95Z" fill="white"/>
<path d="M240.01 12.1896L242.72 14.7096C242.52 15.0296 242.18 15.1396 241.48 15.2496C241.01 19.0696 240.24 22.8096 238.57 26.1196C242.19 29.4696 247.34 30.1496 254.91 30.1496C256.68 30.1496 260.67 30.1096 262.74 30.0796V30.5796C261.67 30.7996 261.1 31.7296 261 32.8796H254.67C246.64 32.8796 241.38 31.8396 237.8 27.5196C236.36 29.8996 234.39 31.9796 231.67 33.6796L231.44 33.0996C233.82 31.0796 235.42 28.5596 236.56 25.7896C235.39 23.9196 234.42 21.5796 233.61 18.6596L234.08 18.4096C234.88 20.8896 235.85 22.8696 237.03 24.4196C238.07 21.3996 238.57 18.0496 238.84 14.6296H235.66L234.72 16.6796C234.49 16.7496 234.22 16.8196 233.92 16.8196C233.42 16.8196 232.88 16.6796 232.25 16.4196C234.02 12.4996 236.03 7.38959 237.27 3.99959H231.88L231.68 3.20958H237.2L238.54 1.62958L241.35 4.25957C241.12 4.54957 240.55 4.72958 239.78 4.83958C238.94 7.03958 237.44 10.5996 236.03 13.7996H238.57L240.01 12.1796V12.1896ZM260.7 6.67958L263.31 9.01958C263.04 9.51958 262.67 9.73958 261.77 9.73958H258.89V15.1796C258.89 15.2496 258.12 16.0096 256.35 16.0096V14.5696H251.93V18.5696H255.98L257.55 16.3696L260.46 18.6396C260.19 19.1796 259.79 19.3596 258.92 19.3596H251.92V23.4596H257.24L258.95 21.0796L262.2 23.5296C261.97 24.0296 261.53 24.2496 260.63 24.2496H251.93V28.2796C251.93 28.3896 251.59 29.2196 249.32 29.2196V24.2496H241.15L240.95 23.4596H249.32V19.3596H242.62L242.42 18.5696H249.32V14.5696H243.26L243.03 13.7396H249.32V9.73958H240.62L240.42 8.90956H249.32V4.98958H243.33L243.1 4.15956H249.33V0.0595703L253.35 0.419571C253.28 0.919571 252.98 1.20958 251.94 1.31958V4.15956H256.02L257.12 2.57957L260.3 4.98958C260.07 5.27958 259.56 5.56958 258.89 5.70958V8.90956H259.32L260.69 6.67958H260.7ZM251.93 4.98958V8.90956H256.35V4.98958H251.93ZM256.35 13.7396V9.73958H251.93V13.7396H256.35Z" fill="white"/>
<path d="M299.3 23.3099C299.03 23.8099 298.63 23.9899 297.69 23.9899H285.84C289.05 26.9799 294.78 29.2499 299.63 30.1499L299.6 30.5798C298.53 30.7998 297.66 31.7299 297.32 33.2099C292.4 31.4799 287.75 28.3098 284.97 24.0998V32.8099C284.97 32.8799 284.57 33.6698 282.29 33.6698V25.2499C278.84 28.8099 273.79 31.5499 268.13 33.3099L267.83 32.6998C272.55 30.5798 276.87 27.3699 279.61 23.9899H268.36L268.16 23.1998H282.29V19.3099C281.08 20.1699 279.44 20.9698 277.17 21.5798L276.87 21.0798C281.89 18.8798 282.8 16.0399 282.8 13.0899V8.36986L285.78 9.66985H291.34L292.44 8.11986L295.32 10.5299C295.12 10.7799 294.72 10.9598 294.18 11.0698V16.8699C294.18 17.4099 294.18 17.4498 294.58 17.4498H296.45C296.72 17.4498 296.89 17.4098 297.02 17.1298C297.29 16.6598 297.72 15.0799 297.99 13.9999H298.29L298.32 17.3099C299.09 17.5999 299.22 17.7799 299.22 18.2799C299.22 19.2199 298.55 19.8999 296.54 19.8999H294.2C291.79 19.8999 291.62 19.2498 291.62 16.7298V10.4999H285.29V13.0599C285.29 15.0399 284.89 17.2699 282.48 19.1799L286.23 19.4999C286.2 19.9699 285.89 20.2198 284.96 20.3598V23.1998H294.43L296.1 20.9999L299.28 23.2999L299.3 23.3099ZM276.17 4.51985C277.84 5.34985 278.41 6.38986 278.41 7.17986C278.41 8.03986 277.81 8.65984 277.14 8.65984C276.77 8.65984 276.4 8.47985 276.1 8.07985C276 6.92985 275.4 5.48985 274.73 4.51985H273.09C271.78 6.56985 270.21 8.25986 268.6 9.33986L268.13 8.93987C269.64 7.02987 271.21 3.64986 272.15 0.119858L275.7 1.51985C275.57 1.91985 275.26 2.12984 274.46 2.05984C274.19 2.59984 273.89 3.17986 273.59 3.67986H279.38L280.82 1.62985L283.57 3.78984C283.3 4.28984 282.9 4.50984 282.03 4.50984H276.17V4.51985ZM281.43 16.4699C279.02 17.4399 275.57 18.7398 270.75 20.3898C270.62 20.8198 270.31 21.1099 269.98 21.1799L268.44 17.9798C269.51 17.8698 271.25 17.6198 273.36 17.2598V11.1799H268.84L268.61 10.3898H276.91L278.35 8.44984L281.13 10.4999C280.9 10.9999 280.49 11.1799 279.62 11.1799H275.9V16.8298L281.32 15.8898L281.42 16.4699H281.43ZM286.18 4.51985C284.64 6.35985 282.9 7.86986 281.19 8.83986L280.75 8.36986C282.42 6.63986 284.27 3.50984 285.54 0.0898438L289.09 1.88985C288.92 2.28985 288.55 2.46985 287.78 2.35985C287.48 2.82985 287.18 3.25987 286.84 3.68987H294.51L296.12 1.45985L299.17 3.79985C298.9 4.29985 298.5 4.51985 297.6 4.51985H290.3C292.01 5.27985 292.61 6.31986 292.61 7.14986C292.61 8.04986 291.97 8.72984 291.24 8.72984C290.87 8.72984 290.47 8.58987 290.14 8.18987C290.01 6.99987 289.24 5.48985 288.43 4.51985H286.19H286.18ZM285.88 12.5098C289.46 13.1198 290.6 14.7098 290.6 15.8598C290.6 16.6898 290.06 17.2999 289.43 17.2999C289.13 17.2999 288.79 17.1599 288.49 16.8699C288.16 15.4299 286.88 13.7399 285.68 12.8699L285.88 12.5098Z" fill="white"/>
</g>
</svg>
