<?xml version="1.0" encoding="utf-8"?>
<!-- Generator: Adobe Illustrator 25.2.3, SVG Export Plug-In . SVG Version: 6.00 Build 0)  -->
<svg version="1.1" id="圖層_1" xmlns="http://www.w3.org/2000/svg" xmlns:xlink="http://www.w3.org/1999/xlink" x="0px" y="0px"
	 viewBox="0 0 280 13" style="enable-background:new 0 0 280 13;" xml:space="preserve">
<style type="text/css">
	.st0{opacity:0.6;}
	.st1{fill:#FFFFFF;}
</style>
<g class="st0">
	<path class="st1" d="M3.4,3c0,0.4-0.2,0.7-0.6,0.9C2.5,4.1,2.1,4.1,1.6,4.1c-0.1,0-0.3,0-0.8,0V0h0.7c0.4,0,0.7,0.1,1,0.2
		C2.8,0.4,3,0.6,3,0.9c0,0.2-0.1,0.4-0.2,0.6C2.6,1.7,2.5,1.8,2.3,1.9C2.6,2,2.8,2.1,3,2.2C3.3,2.5,3.4,2.7,3.4,3z M3,3
		c0-0.3-0.1-0.6-0.3-0.8C2.5,2.1,2.3,2,2,2H1.8V1.9H2c0.3,0,0.5-0.1,0.6-0.3C2.7,1.4,2.8,1.2,2.8,1c0-0.6-0.4-0.9-1.2-0.9H1.4V4h0.2
		C2.5,4,3,3.7,3,3z"/>
	<path class="st1" d="M6.6,2.5H5V2.4h1.2c0-0.5-0.2-0.8-0.6-0.8C5.3,1.6,5.1,1.7,5,1.9C4.8,2.1,4.8,2.4,4.8,2.8S4.9,3.5,5,3.7
		C5.2,3.9,5.4,4,5.7,4C6,4,6.3,3.9,6.5,3.6l0.1,0.2C6.4,4,6.1,4.2,5.7,4.2C5.3,4.2,5,4.1,4.8,3.8C4.5,3.5,4.4,3.2,4.4,2.9
		c0-0.4,0.1-0.7,0.4-0.9C5,1.7,5.3,1.6,5.7,1.6c0.3,0,0.5,0.1,0.7,0.3C6.5,2,6.6,2.3,6.6,2.5z"/>
	<path class="st1" d="M9.4,2.5v1.7H9V4C8.9,4.2,8.6,4.2,8.4,4.2C8.1,4.2,7.9,4.1,7.8,4C7.6,3.9,7.5,3.6,7.5,3.4
		c0-0.3,0.1-0.5,0.3-0.6C8,2.7,8.2,2.6,8.4,2.6c0.1,0,0.1,0,0.2,0c0.1,0,0.2,0.1,0.3,0.1L8.8,2.8C8.7,2.7,8.5,2.7,8.4,2.7
		C8.2,2.7,8.1,2.8,8,2.9C7.9,3,7.9,3.2,7.9,3.4c0,0.2,0.1,0.4,0.2,0.5C8.2,4,8.3,4.1,8.5,4.1C8.8,4.1,9,4,9.1,3.7V2.5
		c0-0.6-0.2-0.8-0.6-0.8c-0.2,0-0.4,0.1-0.6,0.2L7.8,1.8C8,1.7,8.2,1.6,8.5,1.6C9,1.5,9.4,1.8,9.4,2.5z"/>
	<path class="st1" d="M12.5,4.2h-0.4V3.8c-0.2,0.3-0.5,0.5-0.8,0.5c-0.6,0-0.9-0.3-0.9-0.9V1.7h0.4v1.7c0,0.5,0.2,0.8,0.6,0.8
		c0.2,0,0.4-0.1,0.6-0.4c0.1-0.1,0.1-0.3,0.2-0.5V1.6h0.4v2.6H12.5z"/>
	<path class="st1" d="M14.1,1.7v1.6c0,0.3,0,0.4,0.1,0.6c0.1,0.1,0.2,0.2,0.4,0.2v0.1c-0.6,0-0.9-0.3-0.9-0.8V1.8h-0.2V1.7h0.2V1.4
		h0.4V1.7z"/>
	<path class="st1" d="M17.8,1.5l-1.5,3.6h-0.1L16.6,4l-1.1-2.6h0.4l0.9,2.1l0.8-2.1L17.8,1.5L17.8,1.5z"/>
	<path class="st1" d="M20.3,4.2h-0.4v-4h0.4V4.2z"/>
	<path class="st1" d="M21.8,0.4c0,0.1,0,0.1-0.1,0.2c-0.1,0-0.1,0.1-0.2,0.1c-0.1,0-0.1,0-0.2-0.1s-0.1-0.1-0.1-0.2s0-0.1,0.1-0.2
		c0.1,0,0.1-0.1,0.2-0.1c0.1,0,0.1,0,0.2,0.1S21.8,0.3,21.8,0.4z M21.7,4.2h-0.4V1.6h0.4V4.2z"/>
	<path class="st1" d="M25,2.5h-1.6V2.4h1.2c0-0.5-0.2-0.8-0.6-0.8c-0.3,0-0.5,0.1-0.6,0.3c-0.2,0.2-0.2,0.5-0.2,0.9s0.1,0.7,0.2,0.9
		C23.6,3.9,23.8,4,24.1,4c0.3,0,0.6-0.1,0.8-0.4L25,3.8c-0.2,0.2-0.5,0.4-0.9,0.4s-0.7-0.1-0.9-0.4c-0.3-0.3-0.4-0.6-0.4-0.9
		c0-0.4,0.1-0.7,0.4-0.9c0.2-0.3,0.5-0.4,0.9-0.4c0.3,0,0.5,0.1,0.7,0.3C24.9,2,25,2.3,25,2.5z"/>
	<path class="st1" d="M27.4,3.5c0,0.2-0.1,0.4-0.2,0.5c-0.1,0.1-0.3,0.2-0.5,0.2c-0.3,0-0.5-0.1-0.7-0.3l0.1-0.2
		C26.3,3.9,26.5,4,26.7,4C26.8,4,27,4,27,3.9c0.1-0.1,0.1-0.2,0.1-0.4S27,3.2,26.9,3.1c-0.1-0.1-0.3-0.2-0.5-0.3
		C26.1,2.6,26,2.4,26,2.1c0-0.2,0.1-0.3,0.2-0.5c0.1-0.1,0.3-0.1,0.5-0.1c0.1,0,0.2,0,0.4,0.1c0.1,0.1,0.2,0.1,0.3,0.2l-0.1,0.1
		c-0.2-0.2-0.3-0.3-0.5-0.3c-0.3,0-0.4,0.1-0.4,0.3s0.1,0.3,0.3,0.5c0.3,0.2,0.5,0.3,0.6,0.4C27.3,3,27.4,3.2,27.4,3.5z"/>
	<path class="st1" d="M30,0.4c0,0.1,0,0.1-0.1,0.2c0,0-0.1,0.1-0.2,0.1c-0.1,0-0.1,0-0.2-0.1s-0.1-0.1-0.1-0.2s0-0.1,0.1-0.2
		c0,0,0.1-0.1,0.2-0.1c0.1,0,0.1,0,0.2,0.1S30,0.3,30,0.4z M30,4.2h-0.4V1.6H30V4.2z"/>
	<path class="st1" d="M33.1,4.2h-0.4V2.5c0-0.5-0.2-0.8-0.6-0.8c-0.4,0-0.6,0.2-0.8,0.7v1.8H31V1.6h0.4V2c0.2-0.3,0.5-0.4,0.8-0.4
		c0.3,0,0.5,0.1,0.7,0.2c0.2,0.1,0.2,0.4,0.2,0.7V4.2z"/>
	<path class="st1" d="M36,1.7v1.6c0,0.3,0,0.4,0.1,0.6c0.1,0.1,0.2,0.2,0.4,0.2v0.1c-0.6,0-0.9-0.3-0.9-0.8V1.8h-0.2V1.7h0.2V1.4H36
		V1.7z"/>
	<path class="st1" d="M39.5,4.2h-0.4V2.5c0-0.5-0.2-0.8-0.6-0.8s-0.6,0.2-0.8,0.7v1.8h-0.4v-4h0.4V2c0.2-0.3,0.5-0.4,0.8-0.4
		s0.5,0.1,0.7,0.2c0.2,0.1,0.2,0.4,0.2,0.7L39.5,4.2L39.5,4.2z"/>
	<path class="st1" d="M42.8,2.5h-1.6V2.4h1.2c0-0.5-0.2-0.8-0.6-0.8c-0.3,0-0.5,0.1-0.6,0.3C41,2.1,41,2.4,41,2.8s0.1,0.7,0.2,0.9
		C41.4,3.9,41.6,4,41.9,4s0.6-0.1,0.8-0.4l0.1,0.2c-0.2,0.2-0.5,0.4-0.9,0.4c-0.4,0-0.7-0.1-0.9-0.4c-0.3-0.3-0.4-0.6-0.4-0.9
		c0-0.4,0.1-0.7,0.4-0.9c0.2-0.3,0.5-0.4,0.9-0.4c0.3,0,0.5,0.1,0.7,0.3C42.7,2,42.8,2.3,42.8,2.5z"/>
	<path class="st1" d="M47,3.8c-0.3,0.2-0.6,0.4-0.9,0.4c-0.4,0-0.7-0.1-0.9-0.4c-0.3-0.3-0.4-0.6-0.4-0.9c0-0.4,0.1-0.7,0.4-0.9
		c0.3-0.3,0.6-0.4,0.9-0.4c0.3,0,0.6,0.1,0.8,0.3l-0.1,0.2c-0.2-0.2-0.4-0.3-0.7-0.3c-0.3,0-0.5,0.1-0.7,0.4
		c-0.2,0.2-0.3,0.5-0.3,0.8s0.1,0.6,0.2,0.8C45.5,4,45.7,4.2,46,4.2s0.6-0.1,0.8-0.4H47z"/>
	<path class="st1" d="M50.2,2.9c0,0.4-0.1,0.7-0.4,0.9c-0.3,0.3-0.6,0.4-0.9,0.4c-0.4,0-0.7-0.1-0.9-0.4c-0.3-0.3-0.4-0.6-0.4-0.9
		c0-0.4,0.1-0.7,0.4-0.9c0.3-0.3,0.6-0.4,0.9-0.4c0.4,0,0.7,0.1,0.9,0.4C50.1,2.2,50.2,2.5,50.2,2.9z M49.8,2.9
		c0-0.3-0.1-0.6-0.3-0.8s-0.4-0.3-0.6-0.3c-0.3,0-0.5,0.1-0.6,0.3C48.1,2.3,48,2.6,48,2.9s0.1,0.6,0.3,0.8c0.2,0.2,0.4,0.4,0.6,0.4
		s0.5-0.1,0.6-0.4C49.7,3.5,49.8,3.2,49.8,2.9z"/>
	<path class="st1" d="M54.7,4.2h-0.4V2.4c0-0.3,0-0.4-0.1-0.5c-0.1-0.1-0.2-0.2-0.4-0.2c-0.3,0-0.5,0.2-0.7,0.6v0.1v1.8h-0.4V2.4
		c0-0.3,0-0.4-0.1-0.5c-0.1-0.1-0.2-0.2-0.4-0.2c-0.1,0-0.3,0.1-0.4,0.2c-0.1,0.1-0.2,0.3-0.3,0.5v1.8h-0.4V1.6h0.4v0.3
		c0.2-0.3,0.5-0.4,0.7-0.4c0.4,0,0.7,0.1,0.8,0.4c0.2-0.3,0.5-0.4,0.8-0.4c0.6,0,0.8,0.3,0.8,0.8L54.7,4.2L54.7,4.2z"/>
	<path class="st1" d="M58,2.9c0,0.4-0.1,0.7-0.3,0.9c-0.2,0.3-0.5,0.4-0.8,0.4c-0.3,0-0.5-0.1-0.6-0.3v0.2h-0.4v-4h0.4v3.4
		c0,0.2,0.1,0.3,0.2,0.4c0.1,0.1,0.2,0.2,0.4,0.2c0.2,0,0.4-0.1,0.6-0.3c0.1-0.2,0.2-0.5,0.2-0.9S57.6,2.3,57.5,2
		c-0.1-0.2-0.3-0.3-0.6-0.3c-0.1,0-0.2,0-0.4,0.1l-0.1-0.1c0.1-0.1,0.3-0.1,0.5-0.1c0.3,0,0.6,0.1,0.8,0.4C57.9,2.2,58,2.5,58,2.9z"
		/>
	<path class="st1" d="M59.5,0.4c0,0.1,0,0.1-0.1,0.2c0,0-0.1,0.1-0.2,0.1c-0.1,0-0.1,0-0.2-0.1c0-0.1-0.1-0.1-0.1-0.2s0-0.1,0.1-0.2
		c0.1,0,0.1-0.1,0.2-0.1c0.1,0,0.1,0,0.2,0.1C59.4,0.3,59.5,0.3,59.5,0.4z M59.4,4.2H59V1.6h0.4V4.2z"/>
	<path class="st1" d="M62.6,4.2h-0.4V2.5c0-0.5-0.2-0.8-0.6-0.8c-0.4,0-0.6,0.2-0.8,0.7v1.8h-0.4V1.6h0.4V2c0.2-0.3,0.5-0.4,0.8-0.4
		c0.3,0,0.5,0.1,0.7,0.2s0.2,0.4,0.2,0.7L62.6,4.2L62.6,4.2z"/>
	<path class="st1" d="M65.5,2.5v1.7h-0.4V4c-0.1,0.2-0.4,0.2-0.6,0.2c-0.3,0-0.5-0.1-0.6-0.2c-0.2-0.1-0.3-0.4-0.3-0.6
		c0-0.3,0.1-0.5,0.3-0.6c0.2-0.1,0.4-0.2,0.6-0.2c0.1,0,0.1,0,0.2,0c0.1,0,0.2,0.1,0.3,0.1l-0.1,0.1c-0.1-0.1-0.3-0.1-0.4-0.1
		c-0.2,0-0.3,0.1-0.4,0.2C64,3,64,3.2,64,3.4c0,0.2,0.1,0.4,0.2,0.5c0.1,0.1,0.2,0.2,0.4,0.2c0.3,0,0.5-0.1,0.6-0.4V2.5
		c0-0.6-0.2-0.8-0.6-0.8c-0.2,0-0.4,0.1-0.6,0.2l-0.1-0.1c0.2-0.1,0.4-0.2,0.7-0.2C65.2,1.5,65.5,1.8,65.5,2.5z"/>
	<path class="st1" d="M67.1,1.7v1.6c0,0.3,0,0.4,0.1,0.6c0.1,0.1,0.2,0.2,0.4,0.2v0.1c-0.6,0-0.9-0.3-0.9-0.8V1.8h-0.2V1.7h0.2V1.4
		h0.4V1.7z"/>
	<path class="st1" d="M68.9,0.4c0,0.1,0,0.1-0.1,0.2c-0.1,0-0.1,0.1-0.2,0.1c-0.1,0-0.1,0-0.2-0.1c0-0.1-0.1-0.1-0.1-0.2
		s0-0.1,0.1-0.2c0.1,0,0.1-0.1,0.2-0.1c0.1,0,0.1,0,0.2,0.1C68.9,0.3,68.9,0.3,68.9,0.4z M68.9,4.2h-0.4V1.6h0.4V4.2z"/>
	<path class="st1" d="M72.5,2.9c0,0.4-0.1,0.7-0.4,0.9c-0.3,0.3-0.6,0.4-0.9,0.4c-0.4,0-0.7-0.1-0.9-0.4c-0.3-0.3-0.4-0.6-0.4-0.9
		c0-0.4,0.1-0.7,0.4-0.9c0.3-0.3,0.6-0.4,0.9-0.4c0.4,0,0.7,0.1,0.9,0.4C72.4,2.2,72.5,2.5,72.5,2.9z M72.1,2.9
		c0-0.3-0.1-0.6-0.3-0.8c-0.2-0.2-0.4-0.3-0.6-0.3c-0.3,0-0.5,0.1-0.6,0.3c-0.2,0.2-0.3,0.5-0.3,0.8s0.1,0.6,0.3,0.8
		c0.2,0.2,0.4,0.4,0.6,0.4c0.2,0,0.5-0.1,0.6-0.4C72,3.5,72.1,3.2,72.1,2.9z"/>
	<path class="st1" d="M75.6,4.2h-0.4V2.5c0-0.5-0.2-0.8-0.6-0.8S74,1.9,73.8,2.4v1.8h-0.4V1.6h0.4V2c0.2-0.3,0.5-0.4,0.8-0.4
		c0.3,0,0.5,0.1,0.7,0.2c0.2,0.1,0.2,0.4,0.2,0.7L75.6,4.2L75.6,4.2z"/>
	<path class="st1" d="M80.5,2.9c0,0.4-0.1,0.7-0.4,0.9c-0.3,0.3-0.6,0.4-0.9,0.4c-0.4,0-0.7-0.1-0.9-0.4c-0.3-0.3-0.4-0.6-0.4-0.9
		c0-0.4,0.1-0.7,0.4-0.9c0.3-0.3,0.6-0.4,0.9-0.4c0.4,0,0.7,0.1,0.9,0.4C80.3,2.2,80.5,2.5,80.5,2.9z M80,2.9c0-0.3-0.1-0.6-0.3-0.8
		c-0.2-0.2-0.4-0.3-0.6-0.3c-0.3,0-0.5,0.1-0.6,0.3c-0.2,0.2-0.3,0.5-0.3,0.8s0.1,0.6,0.3,0.8s0.4,0.4,0.6,0.4
		c0.2,0,0.5-0.1,0.6-0.4C79.9,3.5,80,3.2,80,2.9z"/>
	<path class="st1" d="M81.9,1.7v2.5h-0.4V1.7h-0.2V1.6h0.2V1c0-0.6,0.3-0.8,0.9-0.8v0.1c-0.2,0-0.3,0.1-0.4,0.2s-0.1,0.3-0.1,0.6
		V1.7z"/>
	<path class="st1" d="M86.7,4.2h-0.4V2.5c0-0.5-0.2-0.8-0.6-0.8c-0.4,0-0.6,0.2-0.8,0.7v1.8h-0.4V1.6h0.4V2c0.2-0.3,0.5-0.4,0.8-0.4
		c0.3,0,0.5,0.1,0.7,0.2c0.2,0.1,0.2,0.4,0.2,0.7L86.7,4.2L86.7,4.2z"/>
	<path class="st1" d="M89.6,2.5v1.7h-0.4V4c-0.1,0.2-0.4,0.2-0.6,0.2c-0.3,0-0.5-0.1-0.6-0.2c-0.2-0.1-0.3-0.4-0.3-0.6
		c0-0.3,0.1-0.5,0.3-0.6c0.2-0.1,0.4-0.2,0.6-0.2c0.1,0,0.1,0,0.2,0s0.2,0.1,0.3,0.1L89,2.8c-0.1-0.1-0.3-0.1-0.4-0.1
		c-0.2,0-0.3,0.1-0.4,0.2c-0.1,0.1-0.1,0.3-0.1,0.5c0,0.2,0.1,0.4,0.2,0.5c0.1,0.1,0.2,0.2,0.4,0.2c0.3,0,0.5-0.1,0.6-0.4V2.5
		c0-0.6-0.2-0.8-0.6-0.8c-0.2,0-0.4,0.1-0.6,0.2L88,1.8c0.2-0.1,0.4-0.2,0.7-0.2C89.3,1.5,89.6,1.8,89.6,2.5z"/>
	<path class="st1" d="M91.1,1.7v1.6c0,0.3,0,0.4,0.1,0.6c0.1,0.1,0.2,0.2,0.4,0.2v0.1c-0.6,0-0.9-0.3-0.9-0.8V1.8h-0.2V1.7h0.2V1.4
		h0.4V1.7z"/>
	<path class="st1" d="M94.6,4.2h-0.4V3.8c-0.2,0.3-0.5,0.5-0.8,0.5c-0.6,0-0.9-0.3-0.9-0.9V1.7h0.4v1.7c0,0.5,0.2,0.8,0.6,0.8
		c0.2,0,0.4-0.1,0.6-0.4c0.1-0.1,0.1-0.3,0.2-0.5V1.6h0.4L94.6,4.2L94.6,4.2z"/>
	<path class="st1" d="M96.9,1.6l-0.1,0.2c-0.1-0.1-0.2-0.1-0.3-0.1s-0.1,0-0.2,0C96.1,1.8,96,2.1,96,2.4v1.7h-0.4V1.5H96v0.3
		c0.1-0.1,0.1-0.2,0.2-0.2c0.1-0.1,0.2-0.1,0.3-0.1C96.7,1.5,96.8,1.6,96.9,1.6z"/>
	<path class="st1" d="M99.6,2.5v1.7h-0.4V4c-0.1,0.2-0.4,0.2-0.6,0.2c-0.3,0-0.5-0.1-0.6-0.2c-0.2-0.1-0.3-0.4-0.3-0.6
		c0-0.3,0.1-0.5,0.3-0.6c0.2-0.1,0.4-0.2,0.6-0.2c0.1,0,0.1,0,0.2,0s0.2,0.1,0.3,0.1L99,2.8c-0.1-0.1-0.3-0.1-0.4-0.1
		c-0.2,0-0.3,0.1-0.4,0.2c-0.1,0.1-0.1,0.3-0.1,0.5c0,0.2,0.1,0.4,0.2,0.5c0.1,0.1,0.2,0.2,0.4,0.2c0.3,0,0.5-0.1,0.6-0.4V2.5
		c0-0.6-0.2-0.8-0.6-0.8c-0.2,0-0.4,0.1-0.6,0.2L98,1.8c0.2-0.1,0.4-0.2,0.7-0.2C99.2,1.5,99.6,1.8,99.6,2.5z"/>
	<path class="st1" d="M101,4.2h-0.4v-4h0.4V4.2z"/>
	<path class="st1" d="M103.6,4.2h-0.4v-4h0.4V4.2z"/>
	<path class="st1" d="M106.5,2.5v1.7h-0.4V4c-0.1,0.2-0.4,0.2-0.6,0.2c-0.3,0-0.5-0.1-0.6-0.2c-0.2-0.1-0.3-0.4-0.3-0.6
		c0-0.3,0.1-0.5,0.3-0.6c0.2-0.1,0.4-0.2,0.6-0.2c0.1,0,0.1,0,0.2,0c0.1,0,0.2,0.1,0.3,0.1l-0.1,0.1c-0.1-0.1-0.3-0.1-0.4-0.1
		c-0.2,0-0.3,0.1-0.4,0.2C105,3,105,3.2,105,3.4c0,0.2,0.1,0.4,0.2,0.5c0.1,0.1,0.2,0.2,0.4,0.2c0.3,0,0.5-0.1,0.6-0.4V2.5
		c0-0.6-0.2-0.8-0.6-0.8c-0.2,0-0.4,0.1-0.6,0.2l-0.1-0.1c0.2-0.1,0.4-0.2,0.7-0.2C106.2,1.5,106.5,1.8,106.5,2.5z"/>
	<path class="st1" d="M109.7,4.2h-0.4V2.5c0-0.5-0.2-0.8-0.6-0.8c-0.4,0-0.6,0.2-0.8,0.7v1.8h-0.4V1.6h0.4V2
		c0.2-0.3,0.5-0.4,0.8-0.4c0.3,0,0.5,0.1,0.7,0.2c0.2,0.1,0.2,0.4,0.2,0.7L109.7,4.2L109.7,4.2z"/>
	<path class="st1" d="M112.9,4.2h-0.4V4c-0.2,0.2-0.4,0.3-0.6,0.3c-0.3,0-0.6-0.1-0.8-0.4c-0.2-0.3-0.3-0.6-0.3-0.9
		c0-0.4,0.1-0.7,0.3-0.9c0.2-0.3,0.5-0.4,0.8-0.4c0.1,0,0.3,0,0.5,0.1l-0.1,0.1c-0.1-0.1-0.3-0.1-0.4-0.1c-0.2,0-0.4,0.1-0.5,0.3
		c-0.2,0.2-0.2,0.5-0.2,0.9s0.1,0.6,0.2,0.9c0.1,0.2,0.3,0.3,0.6,0.3c0.1,0,0.3-0.1,0.4-0.2c0.1-0.1,0.2-0.2,0.2-0.4V0.2h0.4
		L112.9,4.2L112.9,4.2z"/>
	<path class="st1" d="M115.4,3.5c0,0.2-0.1,0.4-0.2,0.5c-0.1,0.1-0.3,0.2-0.5,0.2c-0.3,0-0.5-0.1-0.7-0.3l0.1-0.2
		c0.2,0.2,0.4,0.3,0.6,0.3c0.1,0,0.3,0,0.3-0.1c0.1-0.1,0.1-0.2,0.1-0.4s-0.1-0.3-0.2-0.4c-0.1-0.1-0.3-0.2-0.5-0.3
		c-0.3-0.2-0.4-0.4-0.4-0.7c0-0.2,0.1-0.3,0.2-0.5c0.1-0.1,0.3-0.1,0.5-0.1c0.1,0,0.2,0,0.4,0.1c0.1,0.1,0.2,0.1,0.3,0.2l-0.1,0.1
		c-0.2-0.2-0.3-0.3-0.5-0.3c-0.3,0-0.4,0.1-0.4,0.3s0.1,0.3,0.3,0.5c0.3,0.2,0.5,0.3,0.6,0.4C115.3,3,115.4,3.2,115.4,3.5z"/>
	<path class="st1" d="M118.5,3.8c-0.3,0.2-0.6,0.4-0.9,0.4c-0.4,0-0.7-0.1-0.9-0.4c-0.3-0.3-0.4-0.6-0.4-0.9c0-0.4,0.1-0.7,0.4-0.9
		c0.3-0.3,0.6-0.4,0.9-0.4c0.3,0,0.6,0.1,0.8,0.3l-0.1,0.2c-0.2-0.2-0.4-0.3-0.7-0.3c-0.3,0-0.5,0.1-0.7,0.4
		c-0.2,0.2-0.3,0.5-0.3,0.8s0.1,0.6,0.2,0.8c0.2,0.2,0.4,0.4,0.7,0.4s0.6-0.1,0.8-0.4H118.5z"/>
	<path class="st1" d="M121.1,2.5v1.7h-0.4V4c-0.1,0.2-0.4,0.2-0.6,0.2c-0.3,0-0.5-0.1-0.6-0.2c-0.2-0.1-0.3-0.4-0.3-0.6
		c0-0.3,0.1-0.5,0.3-0.6c0.2-0.1,0.4-0.2,0.6-0.2c0.1,0,0.1,0,0.2,0c0.1,0,0.2,0.1,0.3,0.1l-0.1,0.1c-0.1-0.1-0.3-0.1-0.4-0.1
		c-0.2,0-0.3,0.1-0.4,0.2c-0.1,0.1-0.1,0.3-0.1,0.5c0,0.2,0.1,0.4,0.2,0.5c0.1,0.1,0.2,0.2,0.4,0.2c0.3,0,0.5-0.1,0.6-0.4V2.5
		c0-0.6-0.2-0.8-0.6-0.8c-0.2,0-0.4,0.1-0.6,0.2l-0.1-0.1c0.2-0.1,0.4-0.2,0.7-0.2C120.8,1.5,121.1,1.8,121.1,2.5z"/>
	<path class="st1" d="M124.3,2.9c0,0.4-0.1,0.7-0.3,0.9c-0.2,0.3-0.5,0.4-0.8,0.4c-0.1,0-0.3,0-0.5-0.1l0.1-0.1
		c0.1,0.1,0.2,0.1,0.4,0.1c0.2,0,0.4-0.1,0.5-0.3c0.1-0.2,0.2-0.5,0.2-0.9s-0.1-0.6-0.2-0.9c-0.1-0.2-0.3-0.3-0.6-0.3
		c-0.1,0-0.3,0.1-0.4,0.2c-0.1,0.1-0.2,0.2-0.2,0.4v2.9h-0.4V1.7h0.4v0.2c0.2-0.2,0.4-0.3,0.6-0.3c0.3,0,0.6,0.1,0.8,0.4
		C124.2,2.2,124.3,2.5,124.3,2.9z"/>
	<path class="st1" d="M127.5,2.5h-1.6V2.4h1.2c0-0.5-0.2-0.8-0.6-0.8c-0.3,0-0.5,0.1-0.6,0.3c-0.2,0.2-0.2,0.5-0.2,0.9
		s0.1,0.7,0.2,0.9c0.2,0.2,0.4,0.3,0.7,0.3c0.3,0,0.6-0.1,0.8-0.4l0.1,0.2c-0.2,0.2-0.5,0.4-0.9,0.4s-0.7-0.1-0.9-0.4
		c-0.3-0.3-0.4-0.6-0.4-0.9c0-0.4,0.1-0.7,0.4-0.9c0.2-0.3,0.5-0.4,0.9-0.4c0.3,0,0.5,0.1,0.7,0.3C127.4,2,127.5,2.3,127.5,2.5z"/>
	<path class="st1" d="M2.9,9.7v1.7H2.5v-0.2c-0.1,0.2-0.4,0.2-0.6,0.2c-0.3,0-0.5-0.1-0.6-0.2C1.1,11.1,1,10.8,1,10.6
		c0-0.3,0.1-0.5,0.3-0.6c0.2-0.1,0.4-0.2,0.6-0.2c0.1,0,0.1,0,0.2,0c0.1,0,0.2,0.1,0.3,0.1L2.3,10C2.2,9.9,2,9.9,1.9,9.9
		c-0.2,0-0.3,0.1-0.4,0.2c-0.1,0.1-0.1,0.3-0.1,0.5c0,0.2,0.1,0.4,0.2,0.5c0.1,0.1,0.2,0.2,0.4,0.2c0.3,0,0.5-0.1,0.6-0.4V9.7
		c0-0.6-0.2-0.8-0.6-0.8C1.8,8.9,1.6,9,1.4,9.1L1.3,9C1.5,8.9,1.7,8.8,2,8.8C2.6,8.7,2.9,9,2.9,9.7z"/>
	<path class="st1" d="M6.1,11.4H5.7V9.7c0-0.5-0.2-0.8-0.6-0.8S4.5,9.1,4.3,9.6v1.8H4V8.8h0.4v0.4c0.2-0.3,0.5-0.4,0.8-0.4
		c0.3,0,0.5,0.1,0.7,0.2c0.2,0.1,0.2,0.4,0.2,0.7V11.4z"/>
	<path class="st1" d="M9.3,11.4H8.9v-0.2c-0.2,0.2-0.4,0.3-0.6,0.3c-0.3,0-0.6-0.1-0.8-0.4c-0.2-0.3-0.3-0.6-0.3-0.9
		c0-0.4,0.1-0.7,0.3-0.9C7.7,9,8,8.9,8.3,8.9c0.1,0,0.3,0,0.5,0.1L8.7,9.1C8.6,9,8.4,9,8.3,9C8.1,9,7.9,9.1,7.8,9.3
		c-0.2,0.2-0.2,0.5-0.2,0.9c0,0.4,0.1,0.6,0.2,0.9c0.1,0.2,0.3,0.3,0.6,0.3c0.1,0,0.3-0.1,0.4-0.2C8.9,11.1,9,11,9,10.8V7.4h0.4
		L9.3,11.4L9.3,11.4z"/>
	<path class="st1" d="M13.4,9.7v1.7H13v-0.2c-0.1,0.2-0.4,0.2-0.6,0.2c-0.3,0-0.5-0.1-0.6-0.2c-0.2-0.1-0.3-0.4-0.3-0.6
		c0-0.3,0.1-0.5,0.3-0.6c0.2-0.1,0.4-0.2,0.6-0.2c0.1,0,0.1,0,0.2,0c0.1,0,0.2,0.1,0.3,0.1L12.8,10c-0.1-0.1-0.3-0.1-0.4-0.1
		c-0.2,0-0.3,0.1-0.4,0.2c-0.1,0.1-0.1,0.3-0.1,0.5c0,0.2,0.1,0.4,0.2,0.5c0.1,0.1,0.2,0.2,0.4,0.2c0.3,0,0.5-0.1,0.6-0.4V9.7
		c0-0.6-0.2-0.8-0.6-0.8c-0.2,0-0.4,0.1-0.6,0.2L11.8,9c0.2-0.1,0.4-0.2,0.7-0.2C13.1,8.7,13.4,9,13.4,9.7z"/>
	<path class="st1" d="M15.7,8.8L15.6,9c-0.1-0.1-0.2-0.1-0.3-0.1c-0.1,0-0.1,0-0.2,0c-0.2,0.1-0.3,0.4-0.3,0.7v1.7h-0.4V8.7h0.4V9
		c0.1-0.1,0.1-0.2,0.2-0.2c0.1-0.1,0.2-0.1,0.3-0.1C15.5,8.7,15.6,8.8,15.7,8.8z"/>
	<path class="st1" d="M17.2,8.9v1.6c0,0.3,0,0.4,0.1,0.6c0.1,0.1,0.2,0.2,0.4,0.2v0.1c-0.6,0-0.9-0.3-0.9-0.8V9h-0.2V8.9h0.2V8.6
		h0.4V8.9z"/>
	<path class="st1" d="M19,7.6c0,0.1,0,0.1-0.1,0.2s-0.1,0.1-0.2,0.1c-0.1,0-0.1,0-0.2-0.1s-0.1-0.1-0.1-0.2s0-0.1,0.1-0.2
		c0.1,0,0.1-0.1,0.2-0.1c0.1,0,0.1,0,0.2,0.1S19,7.5,19,7.6z M19,11.4h-0.4V8.8H19V11.4z"/>
	<path class="st1" d="M21.4,10.7c0,0.2-0.1,0.4-0.2,0.5c-0.1,0.1-0.3,0.2-0.5,0.2c-0.3,0-0.5-0.1-0.7-0.3l0.1-0.2
		c0.2,0.2,0.4,0.3,0.6,0.3c0.1,0,0.3,0,0.3-0.1c0.1-0.1,0.1-0.2,0.1-0.4s-0.1-0.3-0.2-0.4c-0.1-0.1-0.3-0.2-0.5-0.3
		C20.1,9.8,20,9.6,20,9.3c0-0.2,0.1-0.3,0.2-0.5c0.1-0.1,0.3-0.1,0.5-0.1c0.1,0,0.2,0,0.4,0.1c0.1,0.1,0.2,0.1,0.3,0.2l-0.1,0.1
		c-0.2-0.2-0.3-0.3-0.5-0.3c-0.3,0-0.4,0.1-0.4,0.3c0,0.2,0.1,0.3,0.3,0.5c0.3,0.2,0.5,0.3,0.6,0.4C21.3,10.2,21.4,10.4,21.4,10.7z"
		/>
	<path class="st1" d="M22.9,8.9v1.6c0,0.3,0,0.4,0.1,0.6c0.1,0.1,0.2,0.2,0.4,0.2v0.1c-0.6,0-0.9-0.3-0.9-0.8V9h-0.2V8.9h0.2V8.6
		h0.4V8.9z"/>
	<path class="st1" d="M24.8,7.6c0,0.1,0,0.1-0.1,0.2s-0.1,0.1-0.2,0.1c-0.1,0-0.1,0-0.2-0.1s-0.1-0.1-0.1-0.2s0-0.1,0.1-0.2
		c0,0,0.1-0.1,0.2-0.1c0.1,0,0.1,0,0.2,0.1S24.8,7.5,24.8,7.6z M24.7,11.4h-0.4V8.8h0.4V11.4z"/>
	<path class="st1" d="M27.9,11c-0.3,0.2-0.6,0.4-0.9,0.4c-0.4,0-0.7-0.1-0.9-0.4c-0.3-0.3-0.4-0.6-0.4-0.9c0-0.4,0.1-0.7,0.4-0.9
		c0.3-0.3,0.6-0.4,0.9-0.4c0.3,0,0.6,0.1,0.8,0.3l-0.1,0.2C27.5,9.1,27.3,9,27,9c-0.3,0-0.5,0.1-0.7,0.4C26.1,9.6,26,9.9,26,10.2
		c0,0.3,0.1,0.6,0.2,0.8c0.2,0.2,0.4,0.4,0.7,0.4c0.3,0,0.6-0.1,0.8-0.4H27.9z"/>
	<path class="st1" d="M32,9.7h-1.6V9.6h1.2c0-0.5-0.2-0.8-0.6-0.8c-0.3,0-0.5,0.1-0.6,0.3c-0.2,0.2-0.2,0.5-0.2,0.9
		c0,0.4,0.1,0.7,0.2,0.9c0.2,0.2,0.4,0.3,0.7,0.3c0.3,0,0.6-0.1,0.8-0.4L32,11c-0.2,0.2-0.5,0.4-0.9,0.4s-0.7-0.1-0.9-0.4
		c-0.3-0.3-0.4-0.6-0.4-0.9c0-0.4,0.1-0.7,0.4-0.9c0.2-0.3,0.5-0.4,0.9-0.4c0.3,0,0.5,0.1,0.7,0.3C31.9,9.2,32,9.5,32,9.7z"/>
	<path class="st1" d="M35.1,11.4h-0.5l-0.8-1.2l-1,1.2h-0.1l1.1-1.3l-0.9-1.3h0.4l0.7,1l0.8-1h0.1L34,9.9L35.1,11.4z"/>
	<path class="st1" d="M38.1,10.1c0,0.4-0.1,0.7-0.3,0.9c-0.2,0.3-0.5,0.4-0.8,0.4c-0.1,0-0.3,0-0.5-0.1l0.1-0.1
		c0.1,0.1,0.2,0.1,0.4,0.1s0.4-0.1,0.5-0.3s0.2-0.5,0.2-0.9c0-0.4-0.1-0.6-0.2-0.9c-0.1-0.2-0.3-0.3-0.6-0.3c-0.1,0-0.3,0.1-0.4,0.2
		c-0.1,0.1-0.2,0.2-0.2,0.4v2.9H36V8.9h0.4v0.2c0.2-0.2,0.4-0.3,0.6-0.3c0.3,0,0.6,0.1,0.8,0.4C38,9.4,38.1,9.7,38.1,10.1z"/>
	<path class="st1" d="M40.3,8.8L40.2,9c-0.1-0.1-0.2-0.1-0.3-0.1c-0.1,0-0.1,0-0.2,0c-0.2,0.1-0.3,0.4-0.3,0.7v1.7H39V8.7h0.4V9
		c0.1-0.1,0.1-0.2,0.2-0.2c0.1-0.1,0.2-0.1,0.3-0.1C40.1,8.7,40.2,8.8,40.3,8.8z"/>
	<path class="st1" d="M43.2,9.7h-1.6V9.6h1.2c0-0.5-0.2-0.8-0.6-0.8c-0.3,0-0.5,0.1-0.6,0.3c-0.2,0.2-0.2,0.5-0.2,0.9
		c0,0.4,0.1,0.7,0.2,0.9c0.2,0.2,0.4,0.3,0.7,0.3s0.6-0.1,0.8-0.4l0.1,0.2c-0.2,0.2-0.5,0.4-0.9,0.4c-0.4,0-0.7-0.1-0.9-0.4
		c-0.3-0.3-0.4-0.6-0.4-0.9c0-0.4,0.1-0.7,0.4-0.9c0.2-0.3,0.5-0.4,0.9-0.4c0.3,0,0.5,0.1,0.7,0.3C43.1,9.2,43.2,9.5,43.2,9.7z"/>
	<path class="st1" d="M45.6,10.7c0,0.2-0.1,0.4-0.2,0.5c-0.1,0.1-0.3,0.2-0.5,0.2c-0.3,0-0.5-0.1-0.7-0.3l0.1-0.2
		c0.2,0.2,0.4,0.3,0.6,0.3c0.1,0,0.3,0,0.4-0.1c0.1-0.1,0.1-0.2,0.1-0.4s-0.1-0.3-0.2-0.4c-0.1-0.1-0.3-0.2-0.5-0.3
		c-0.3-0.2-0.4-0.4-0.4-0.7c0-0.2,0.1-0.3,0.2-0.5c0.1-0.1,0.3-0.1,0.5-0.1c0.1,0,0.2,0,0.4,0.1c0.1,0.1,0.2,0.1,0.3,0.2l-0.1,0.1
		c-0.2-0.2-0.3-0.3-0.5-0.3c-0.3,0-0.4,0.1-0.4,0.3c0,0.2,0.1,0.3,0.3,0.5c0.3,0.2,0.5,0.3,0.6,0.4C45.5,10.2,45.6,10.4,45.6,10.7z"
		/>
	<path class="st1" d="M47.9,10.7c0,0.2-0.1,0.4-0.2,0.5c-0.1,0.1-0.3,0.2-0.5,0.2c-0.3,0-0.5-0.1-0.7-0.3l0.1-0.2
		c0.2,0.2,0.4,0.3,0.6,0.3c0.1,0,0.3,0,0.4-0.1c0.1-0.1,0.1-0.2,0.1-0.4s-0.1-0.3-0.2-0.4c-0.1-0.1-0.3-0.2-0.5-0.3
		c-0.3-0.2-0.4-0.4-0.4-0.7c0-0.2,0.1-0.3,0.2-0.5c0.1-0.1,0.3-0.1,0.5-0.1c0.1,0,0.2,0,0.4,0.1C47.8,8.9,47.9,8.9,48,9l-0.1,0.1
		c-0.2-0.2-0.3-0.3-0.5-0.3c-0.3,0-0.4,0.1-0.4,0.3c0,0.2,0.1,0.3,0.3,0.5c0.3,0.2,0.5,0.3,0.6,0.4C47.9,10.2,48,10.4,47.9,10.7z"/>
	<path class="st1" d="M49.4,7.6c0,0.1,0,0.1-0.1,0.2c-0.1,0.1-0.1,0.1-0.2,0.1c-0.1,0-0.1,0-0.2-0.1c-0.1-0.1-0.1-0.1-0.1-0.2
		s0-0.1,0.1-0.2c0,0,0.1-0.1,0.2-0.1c0.1,0,0.1,0,0.2,0.1C49.4,7.5,49.4,7.5,49.4,7.6z M49.3,11.4h-0.4V8.8h0.4V11.4z"/>
	<path class="st1" d="M53,10.1c0,0.4-0.1,0.7-0.4,0.9c-0.3,0.3-0.6,0.4-0.9,0.4c-0.4,0-0.7-0.1-0.9-0.4c-0.3-0.3-0.4-0.6-0.4-0.9
		c0-0.4,0.1-0.7,0.4-0.9c0.3-0.3,0.6-0.4,0.9-0.4c0.4,0,0.7,0.1,0.9,0.4C52.8,9.4,53,9.7,53,10.1z M52.5,10.1c0-0.3-0.1-0.6-0.3-0.8
		S51.8,9,51.6,9c-0.3,0-0.5,0.1-0.6,0.3c-0.2,0.2-0.3,0.5-0.3,0.8c0,0.3,0.1,0.6,0.3,0.8c0.2,0.2,0.4,0.4,0.6,0.4
		c0.2,0,0.5-0.1,0.6-0.4C52.5,10.7,52.5,10.4,52.5,10.1z"/>
	<path class="st1" d="M56,11.4h-0.4V9.7c0-0.5-0.2-0.8-0.6-0.8s-0.6,0.2-0.8,0.7v1.8h-0.4V8.8h0.4v0.4c0.2-0.3,0.5-0.4,0.8-0.4
		s0.5,0.1,0.7,0.2c0.2,0.1,0.2,0.4,0.2,0.7L56,11.4L56,11.4z"/>
	<path class="st1" d="M57.6,11.2c0,0.1,0,0.1-0.1,0.2c0,0-0.1,0.1-0.2,0.1c-0.1,0-0.1,0-0.2-0.1c-0.1,0-0.1-0.1-0.1-0.2
		c0-0.1,0-0.1,0.1-0.2c0,0,0.1-0.1,0.2-0.1c0.1,0,0.1,0,0.2,0.1C57.6,11,57.6,11.1,57.6,11.2z"/>
</g>
</svg>
