<?xml version="1.0" encoding="utf-8"?>
<!-- Generator: Adobe Illustrator 25.2.3, SVG Export Plug-In . SVG Version: 6.00 Build 0)  -->
<svg version="1.1" id="圖層_1" xmlns="http://www.w3.org/2000/svg" xmlns:xlink="http://www.w3.org/1999/xlink" x="0px" y="0px"
	 viewBox="0 0 380 81" style="enable-background:new 0 0 380 81;" xml:space="preserve">
<style type="text/css">
	.st0{fill:#C9A063;}
	.st1{opacity:0.6;}
</style>
<path class="st0" d="M9.3,2.7v12.9h13v2h-13v15.9H4.4v-28c0-1.9-1.2-3.6-3.9-4.3V1h24.4v1.7H9.3z"/>
<path class="st0" d="M57.2,1v22c0,2-0.4,11.1-12.6,11.1c0,0-12.7,0.6-12.7-11.1V5.5c0-1.9-1.2-3.5-3.9-4.3V1h8.8v22
	c0,9.8,8.3,9.2,8.3,9.2c2.6,0,10.2-1,10.2-9.2V1H57.2z"/>
<path class="st0" d="M86.7,3H76v30.5h-4.9V3H60.3V1h26.4V3z"/>
<path class="st0" d="M119.1,1v22c0,2-0.4,11.1-12.6,11.1c0,0-12.7,0.6-12.7-11.1V5.5c0-1.9-1.2-3.5-3.9-4.3V1h8.8v22
	c0,9.8,8.3,9.2,8.3,9.2c2.6,0,10.2-1,10.2-9.2V1H119.1z"/>
<path class="st0" d="M150.5,33.5H145l-10.3-14.6c-1.3,0-2.6,0-3.6,0v14.6h-4.9V5.6c0-2-1.5-4-3.9-4.3V1h8.8c5.1,0,15.4-0.1,15.4,9.1
	c0,5.2-3.2,7.4-6.7,8.3L150.5,33.5z M139.7,15.3c0.3-0.4,0.6-0.8,0.8-1.2c0.3-0.5,0.4-1.1,0.6-1.7c0.1-0.7,0.2-1.5,0.2-2.3
	c-0.2-7.1-5.7-7.5-6.7-7.5h-3.5v14.6h3.5c0.6,0,1.2,0,1.7-0.1c0.8-0.1,1.7-0.4,2.4-0.8C139,15.9,139.3,15.6,139.7,15.3z"/>
<path class="st0" d="M175.9,31.8v1.7h-20.5v-28c0-1.9-1.2-3.5-3.9-4.3V1h24.4v1.7h-15.6v12.9h13v2h-13v14.2H175.9z"/>
<path class="st0" d="M199,1v32.5h-4.4v-28c0-1.9-1.2-3.5-3.9-4.3V1H199z"/>
<path class="st0" d="M225,25.2c0,3.4-2.5,9-10.2,9c-6.1,0-10-2.6-10.9-9.3h1.5c1,6.1,6,7.4,9,7.4c5.2,0,6.4-3.6,6.4-5.2
	c0-3.4-2.8-5.3-8.1-8c-3.4-1.7-9.1-4.6-9.1-10.1c0-7.1,7-8.5,9.5-8.5c6.2,0,8.8,3.3,9.7,7.9h-1.6c-0.7-2.4-2.4-6.1-8-6.1
	c-2.8,0-5.7,2.2-5.7,5c0,3.3,3.9,5.4,8,7.5C223.2,18.6,225,21.3,225,25.2z"/>
<path class="st0" d="M34.5,80.5v0.2h-6.3c-1.4-0.1-2.6-1.2-2.6-2.7V65H9.3v15.7H4.4v-28c0-1.9-1.2-3.5-3-4H1.3l-0.8-0.2v-0.2h6.2
	c0.8,0,1.4,0.3,1.9,0.8C9,49.6,9.4,50.3,9.4,51v12.5h16.3V48.4h4.9v28c0,1.9,1.2,3.5,3.1,4.1h0.1H34.5z"/>
<path class="st0" d="M59.9,79v1.7H39.4v-28c0-1.9-1.2-3.5-3.9-4.3v-0.2h24.4v1.7H44.3v12.9h13v2h-13V79H59.9z"/>
<path class="st0" d="M91.3,80.7h-5.5L75.5,66.1c-1.3,0-2.6,0-3.6,0v14.6H67V52.8c0-2-1.5-4-3.9-4.3v-0.2h8.8
	c5.1,0,15.4-0.1,15.4,9.1c0,5.2-3.2,7.4-6.7,8.3L91.3,80.7z M80.4,62.5c0.3-0.4,0.6-0.8,0.8-1.2c0.3-0.5,0.4-1.1,0.6-1.7
	c0.1-0.7,0.2-1.5,0.2-2.3c-0.2-7.1-5.7-7.5-6.7-7.5h-3.5v14.6h3.5c0.6,0,1.2,0,1.7-0.1c0.8-0.1,1.7-0.4,2.4-0.8
	C79.8,63.1,80.1,62.9,80.4,62.5z"/>
<path class="st0" d="M116.7,79v1.7H96.3v-28c0-1.9-1.2-3.5-3.9-4.3v-0.2h24.4v1.7h-15.6v12.9h13v2h-13V79H116.7z"/>
<g class="st1">
	<path class="st0" d="M130.4,56.9c0,0.5-0.2,0.9-0.7,1.2c-0.4,0.2-0.8,0.3-1.4,0.3c-0.1,0-0.4,0-0.9,0v-5.2h0.9
		c0.5,0,0.9,0.1,1.2,0.2c0.4,0.2,0.6,0.5,0.6,0.9c0,0.3-0.1,0.5-0.3,0.8c-0.2,0.2-0.4,0.4-0.7,0.5c0.4,0.1,0.7,0.2,0.9,0.4
		C130.2,56.2,130.4,56.5,130.4,56.9z M129.9,56.9c0-0.4-0.1-0.7-0.4-0.9c-0.2-0.2-0.5-0.3-0.9-0.3h-0.3v-0.2h0.2
		c0.4,0,0.6-0.1,0.8-0.4c0.1-0.2,0.2-0.5,0.2-0.7c0-0.7-0.5-1.1-1.4-1.1h-0.3v4.9h0.3C129.3,58.2,129.9,57.7,129.9,56.9z"/>
	<path class="st0" d="M134.2,56.3h-2v-0.2h1.5c0-0.6-0.3-0.9-0.8-0.9c-0.3,0-0.6,0.1-0.8,0.4c-0.2,0.3-0.3,0.6-0.3,1.1
		s0.1,0.8,0.3,1.1c0.2,0.3,0.5,0.4,0.8,0.4c0.4,0,0.7-0.2,1-0.5l0.2,0.2c-0.3,0.3-0.7,0.5-1.1,0.5c-0.5,0-0.8-0.2-1.2-0.5
		c-0.3-0.3-0.5-0.7-0.5-1.2s0.2-0.9,0.5-1.2s0.7-0.5,1.1-0.5c0.3,0,0.6,0.1,0.9,0.4C134.1,55.6,134.2,55.9,134.2,56.3z"/>
	<path class="st0" d="M137.4,56.2v2.1h-0.5V58c-0.2,0.2-0.5,0.3-0.8,0.3c-0.3,0-0.6-0.1-0.8-0.3c-0.2-0.2-0.4-0.4-0.4-0.8
		c0-0.3,0.1-0.6,0.4-0.8c0.2-0.2,0.5-0.3,0.7-0.3c0.1,0,0.2,0,0.2,0c0.2,0,0.3,0.1,0.4,0.1l-0.1,0.2c-0.2-0.1-0.3-0.2-0.5-0.2
		s-0.4,0.1-0.5,0.2c-0.1,0.2-0.2,0.4-0.2,0.7s0.1,0.5,0.2,0.6c0.1,0.2,0.3,0.2,0.5,0.2c0.3,0,0.6-0.2,0.8-0.5v-1.5
		c0-0.7-0.2-1-0.7-1c-0.3,0-0.5,0.1-0.8,0.3l-0.1-0.2c0.2-0.2,0.5-0.2,0.9-0.2C137,55,137.4,55.4,137.4,56.2z"/>
	<path class="st0" d="M141.1,58.3h-0.5v-0.6c-0.2,0.4-0.6,0.6-1,0.6c-0.8,0-1.2-0.4-1.2-1.2v-2.2h0.5v2.2c0,0.7,0.2,1,0.7,1
		c0.3,0,0.5-0.2,0.7-0.5c0.1-0.2,0.2-0.4,0.2-0.6v-2.1h0.5v3.4H141.1z"/>
	<path class="st0" d="M143.5,55.2h-0.6v2c0,0.3,0,0.6,0.1,0.7c0.1,0.1,0.2,0.2,0.5,0.2v0.2c-0.7,0-1.1-0.4-1.1-1.1v-2h-0.3V55h0.3
		v-0.4h0.5V55h0.6V55.2z"/>
	<path class="st0" d="M147.3,55l-1.8,4.5h-0.2l0.5-1.3l-1.4-3.2h0.5l1.1,2.6l1-2.6H147.3z"/>
	<path class="st0" d="M150.1,58.3h-0.5v-5h0.5V58.3z"/>
	<path class="st0" d="M151.8,53.6c0,0.1,0,0.2-0.1,0.2c-0.1,0-0.1,0.1-0.2,0.1s-0.2,0-0.2-0.1c0-0.1-0.1-0.1-0.1-0.2s0-0.2,0.1-0.2
		c0.1-0.1,0.1-0.1,0.2-0.1s0.2,0,0.2,0.1C151.8,53.5,151.8,53.5,151.8,53.6z M151.7,58.3h-0.5v-3.2h0.5V58.3z"/>
	<path class="st0" d="M155.6,56.3h-2v-0.2h1.5c0-0.6-0.3-0.9-0.8-0.9c-0.3,0-0.6,0.1-0.8,0.4c-0.2,0.3-0.3,0.6-0.3,1.1
		s0.1,0.8,0.3,1.1s0.5,0.4,0.8,0.4c0.4,0,0.7-0.2,1-0.5l0.2,0.2c-0.3,0.3-0.7,0.5-1.1,0.5c-0.5,0-0.8-0.2-1.2-0.5
		c-0.3-0.3-0.5-0.7-0.5-1.2s0.2-0.9,0.5-1.2s0.7-0.5,1.1-0.5c0.3,0,0.6,0.1,0.9,0.4C155.5,55.6,155.6,55.9,155.6,56.3z"/>
	<path class="st0" d="M158.3,57.5c0,0.3-0.1,0.5-0.3,0.6c-0.2,0.2-0.4,0.2-0.7,0.2c-0.4,0-0.7-0.1-0.9-0.4l0.2-0.2
		c0.2,0.3,0.5,0.4,0.8,0.4c0.2,0,0.3-0.1,0.4-0.2c0.1-0.1,0.2-0.3,0.2-0.4c0-0.2-0.1-0.4-0.3-0.5c-0.1-0.1-0.3-0.2-0.6-0.4
		c-0.4-0.2-0.5-0.5-0.5-0.9c0-0.2,0.1-0.4,0.3-0.6c0.2-0.1,0.4-0.2,0.6-0.2s0.3,0,0.5,0.1c0.2,0.1,0.3,0.2,0.3,0.3l-0.2,0.2
		c-0.2-0.3-0.4-0.4-0.7-0.4c-0.3,0-0.5,0.1-0.6,0.4c0,0.2,0.1,0.4,0.3,0.6c0.4,0.2,0.6,0.4,0.7,0.5
		C158.2,56.9,158.4,57.2,158.3,57.5z"/>
	<path class="st0" d="M161.4,53.6c0,0.1,0,0.2-0.1,0.2c-0.1,0-0.1,0.1-0.2,0.1c-0.1,0-0.2,0-0.2-0.1c0-0.1-0.1-0.1-0.1-0.2
		s0-0.2,0.1-0.2c0.1-0.1,0.1-0.1,0.2-0.1c0.1,0,0.2,0,0.2,0.1C161.3,53.5,161.4,53.5,161.4,53.6z M161.3,58.3h-0.5v-3.2h0.5V58.3z"
		/>
	<path class="st0" d="M165.1,58.3h-0.5v-2.2c0-0.7-0.2-1-0.7-1s-0.8,0.3-1,0.9v2.3h-0.5v-3.2h0.5v0.4c0.3-0.4,0.6-0.5,1-0.5
		c0.4,0,0.7,0.1,0.8,0.2c0.2,0.2,0.3,0.5,0.3,0.9v2.2H165.1z"/>
	<path class="st0" d="M168.9,55.2h-0.6v2c0,0.3,0,0.6,0.1,0.7c0.1,0.1,0.2,0.2,0.5,0.2v0.2c-0.7,0-1.1-0.4-1.1-1.1v-2h-0.3V55h0.3
		v-0.4h0.5V55h0.6V55.2z"/>
	<path class="st0" d="M172.5,58.3H172v-2.2c0-0.7-0.2-1-0.7-1s-0.8,0.3-1,0.9v2.3h-0.5v-5h0.5v2.2c0.3-0.4,0.6-0.5,1-0.5
		c0.4,0,0.7,0.1,0.8,0.2c0.2,0.2,0.3,0.5,0.3,0.9v2.2H172.5z"/>
	<path class="st0" d="M176.4,56.3h-2v-0.2h1.5c0-0.6-0.3-0.9-0.8-0.9c-0.3,0-0.6,0.1-0.8,0.4c-0.2,0.3-0.3,0.6-0.3,1.1
		s0.1,0.8,0.3,1.1s0.5,0.4,0.8,0.4c0.4,0,0.7-0.2,1-0.5l0.2,0.2c-0.3,0.3-0.7,0.5-1.1,0.5c-0.5,0-0.8-0.2-1.2-0.5
		c-0.3-0.3-0.5-0.7-0.5-1.2s0.2-0.9,0.5-1.2s0.7-0.5,1.1-0.5c0.3,0,0.6,0.1,0.9,0.4C176.3,55.6,176.4,55.9,176.4,56.3z"/>
	<path class="st0" d="M181.4,57.9c-0.3,0.3-0.7,0.4-1.1,0.4c-0.5,0-0.8-0.2-1.2-0.5c-0.3-0.3-0.5-0.7-0.5-1.2s0.2-0.9,0.5-1.2
		c0.3-0.3,0.7-0.5,1.2-0.5c0.4,0,0.7,0.1,1,0.3l-0.1,0.2c-0.2-0.2-0.5-0.4-0.9-0.4c-0.3,0-0.6,0.2-0.8,0.5s-0.3,0.6-0.3,1
		c0,0.4,0.1,0.8,0.3,1c0.2,0.3,0.5,0.5,0.8,0.5c0.4,0,0.7-0.2,1-0.5L181.4,57.9z"/>
	<path class="st0" d="M185.2,56.7c0,0.5-0.2,0.9-0.5,1.2c-0.3,0.3-0.7,0.5-1.2,0.5s-0.8-0.2-1.2-0.5c-0.3-0.3-0.5-0.7-0.5-1.2
		s0.2-0.9,0.5-1.2s0.7-0.5,1.2-0.5s0.8,0.2,1.2,0.5C185,55.8,185.2,56.2,185.2,56.7z M184.7,56.7c0-0.4-0.1-0.8-0.3-1.1
		c-0.2-0.3-0.5-0.4-0.8-0.4c-0.3,0-0.6,0.1-0.8,0.4c-0.2,0.3-0.3,0.6-0.3,1.1c0,0.4,0.1,0.8,0.3,1.1s0.5,0.4,0.8,0.4
		c0.3,0,0.6-0.1,0.8-0.4C184.6,57.4,184.7,57.1,184.7,56.7z"/>
	<path class="st0" d="M190.6,58.3h-0.5v-2.2c0-0.3,0-0.5-0.1-0.7c-0.1-0.1-0.2-0.2-0.5-0.2c-0.4,0-0.6,0.3-0.9,0.8v0.1v2.2h-0.5
		v-2.2c0-0.3,0-0.5-0.1-0.7c-0.1-0.1-0.3-0.2-0.5-0.2s-0.3,0.1-0.5,0.2c-0.2,0.2-0.3,0.4-0.4,0.6v2.3h-0.5v-3.2h0.5v0.4
		c0.3-0.3,0.6-0.5,0.9-0.5c0.5,0,0.8,0.2,1,0.5c0.3-0.4,0.6-0.5,1-0.5c0.7,0,1.1,0.4,1.1,1.1V58.3z"/>
	<path class="st0" d="M194.5,56.7c0,0.5-0.1,0.9-0.4,1.2c-0.3,0.3-0.6,0.5-1.1,0.5c-0.3,0-0.6-0.1-0.8-0.4v0.3h-0.5v-5h0.5v4.2
		c0.1,0.2,0.2,0.4,0.3,0.5c0.1,0.1,0.3,0.2,0.5,0.2c0.3,0,0.5-0.1,0.7-0.4s0.3-0.6,0.3-1.1c0-0.4-0.1-0.8-0.3-1.1s-0.4-0.4-0.7-0.4
		c-0.2,0-0.3,0.1-0.5,0.2l-0.1-0.2c0.2-0.1,0.4-0.1,0.6-0.1c0.4,0,0.8,0.2,1.1,0.5C194.4,55.8,194.5,56.2,194.5,56.7z"/>
	<path class="st0" d="M196.1,53.6c0,0.1,0,0.2-0.1,0.2s-0.1,0.1-0.2,0.1c-0.1,0-0.2,0-0.2-0.1c0-0.1-0.1-0.1-0.1-0.2s0-0.2,0.1-0.2
		c0.1-0.1,0.1-0.1,0.2-0.1c0.1,0,0.2,0,0.2,0.1C196.1,53.5,196.1,53.5,196.1,53.6z M196,58.3h-0.5v-3.2h0.5V58.3z"/>
	<path class="st0" d="M199.8,58.3h-0.5v-2.2c0-0.7-0.2-1-0.7-1s-0.8,0.3-1,0.9v2.3h-0.5v-3.2h0.5v0.4c0.3-0.4,0.6-0.5,1-0.5
		c0.4,0,0.7,0.1,0.8,0.2c0.2,0.2,0.3,0.5,0.3,0.9v2.2H199.8z"/>
	<path class="st0" d="M203.2,56.2v2.1h-0.5V58c-0.2,0.2-0.5,0.3-0.8,0.3c-0.3,0-0.6-0.1-0.8-0.3c-0.2-0.2-0.4-0.4-0.4-0.8
		c0-0.3,0.1-0.6,0.4-0.8c0.2-0.2,0.5-0.3,0.7-0.3c0.1,0,0.2,0,0.2,0c0.2,0,0.3,0.1,0.4,0.1l-0.1,0.2c-0.2-0.1-0.3-0.2-0.5-0.2
		s-0.4,0.1-0.5,0.2c-0.1,0.2-0.2,0.4-0.2,0.7s0.1,0.5,0.2,0.6c0.1,0.2,0.3,0.2,0.5,0.2c0.3,0,0.6-0.2,0.8-0.5v-1.5
		c0-0.7-0.2-1-0.7-1c-0.3,0-0.5,0.1-0.8,0.3L201,55c0.2-0.2,0.5-0.2,0.9-0.2C202.8,55,203.2,55.4,203.2,56.2z"/>
	<path class="st0" d="M205.6,55.2H205v2c0,0.3,0,0.6,0.1,0.7c0.1,0.1,0.2,0.2,0.5,0.2v0.2c-0.7,0-1.1-0.4-1.1-1.1v-2h-0.3V55h0.3
		v-0.4h0.5V55h0.6V55.2z"/>
	<path class="st0" d="M207.1,53.6c0,0.1,0,0.2-0.1,0.2s-0.1,0.1-0.2,0.1c-0.1,0-0.2,0-0.2-0.1c0-0.1-0.1-0.1-0.1-0.2s0-0.2,0.1-0.2
		c0.1-0.1,0.1-0.1,0.2-0.1c0.1,0,0.2,0,0.2,0.1C207.1,53.5,207.1,53.5,207.1,53.6z M207,58.3h-0.5v-3.2h0.5V58.3z"/>
	<path class="st0" d="M211.4,56.7c0,0.5-0.2,0.9-0.5,1.2c-0.3,0.3-0.7,0.5-1.2,0.5s-0.8-0.2-1.2-0.5c-0.3-0.3-0.5-0.7-0.5-1.2
		s0.2-0.9,0.5-1.2s0.7-0.5,1.2-0.5s0.8,0.2,1.2,0.5C211.2,55.8,211.4,56.2,211.4,56.7z M210.9,56.7c0-0.4-0.1-0.8-0.3-1.1
		c-0.2-0.3-0.5-0.4-0.8-0.4s-0.6,0.1-0.8,0.4c-0.2,0.3-0.3,0.6-0.3,1.1c0,0.4,0.1,0.8,0.3,1.1s0.5,0.4,0.8,0.4s0.6-0.1,0.8-0.4
		C210.8,57.4,210.9,57.1,210.9,56.7z"/>
	<path class="st0" d="M215,58.3h-0.5v-2.2c0-0.7-0.2-1-0.7-1s-0.8,0.3-1,0.9v2.3h-0.5v-3.2h0.5v0.4c0.3-0.4,0.6-0.5,1-0.5
		c0.4,0,0.7,0.1,0.8,0.2c0.2,0.2,0.3,0.5,0.3,0.9v2.2H215z"/>
	<path class="st0" d="M220.8,56.7c0,0.5-0.2,0.9-0.5,1.2c-0.3,0.3-0.7,0.5-1.2,0.5s-0.8-0.2-1.2-0.5c-0.3-0.3-0.5-0.7-0.5-1.2
		s0.2-0.9,0.5-1.2c0.3-0.3,0.7-0.5,1.2-0.5s0.8,0.2,1.2,0.5C220.7,55.8,220.8,56.2,220.8,56.7z M220.3,56.7c0-0.4-0.1-0.8-0.3-1.1
		c-0.2-0.3-0.5-0.4-0.8-0.4s-0.6,0.1-0.8,0.4c-0.2,0.3-0.3,0.6-0.3,1.1c0,0.4,0.1,0.8,0.3,1.1c0.2,0.3,0.5,0.4,0.8,0.4
		s0.6-0.1,0.8-0.4C220.2,57.4,220.3,57.1,220.3,56.7z"/>
	<path class="st0" d="M223.1,55.2h-0.6v3.1H222v-3.1h-0.3V55h0.3v-0.7c0-0.7,0.4-1.1,1.1-1.1v0.2c-0.2,0-0.4,0.1-0.5,0.2
		c-0.1,0.1-0.1,0.4-0.1,0.7V55h0.6V55.2z"/>
	<path class="st0" d="M129.9,67.3h-0.5v-2.2c0-0.7-0.2-1-0.7-1s-0.8,0.3-1,0.9v2.3h-0.5v-3.2h0.5v0.4c0.3-0.4,0.6-0.5,1-0.5
		c0.4,0,0.7,0.1,0.8,0.2c0.2,0.2,0.3,0.5,0.3,0.9L129.9,67.3L129.9,67.3z"/>
	<path class="st0" d="M133.3,65.2v2.1h-0.5V67c-0.2,0.2-0.5,0.3-0.8,0.3s-0.6-0.1-0.8-0.3c-0.2-0.2-0.4-0.4-0.4-0.8
		c0-0.3,0.1-0.6,0.4-0.8c0.2-0.2,0.5-0.3,0.7-0.3c0.1,0,0.2,0,0.2,0c0.2,0,0.3,0.1,0.4,0.1l-0.1,0.2c-0.2-0.1-0.3-0.2-0.5-0.2
		c-0.2,0-0.4,0.1-0.5,0.2c-0.1,0.2-0.2,0.4-0.2,0.7c0,0.3,0.1,0.5,0.2,0.6c0.1,0.2,0.3,0.2,0.5,0.2c0.3,0,0.6-0.2,0.8-0.5v-1.5
		c0-0.7-0.2-1-0.7-1c-0.3,0-0.5,0.1-0.8,0.3l-0.1-0.2c0.2-0.2,0.5-0.2,0.9-0.2C132.9,64,133.3,64.4,133.3,65.2z"/>
	<path class="st0" d="M135.7,64.2h-0.6v2c0,0.3,0,0.6,0.1,0.7c0.1,0.1,0.2,0.2,0.5,0.2v0.2c-0.7,0-1.1-0.4-1.1-1.1v-2h-0.3V64h0.3
		v-0.4h0.5V64h0.6V64.2z"/>
	<path class="st0" d="M139.2,67.3h-0.5v-0.6c-0.2,0.4-0.6,0.6-1,0.6c-0.8,0-1.2-0.4-1.2-1.2v-2.2h0.5v2.2c0,0.7,0.2,1,0.7,1
		c0.3,0,0.5-0.2,0.7-0.5c0.1-0.2,0.2-0.4,0.2-0.6v-2.1h0.5L139.2,67.3L139.2,67.3z"/>
	<path class="st0" d="M141.9,64.1l-0.1,0.2c-0.1-0.1-0.3-0.1-0.4-0.1c-0.1,0-0.1,0-0.2,0.1c-0.2,0.1-0.3,0.4-0.3,0.9v2.1h-0.5v-3.2
		h0.5v0.4c0.1-0.1,0.1-0.2,0.2-0.3c0.1-0.1,0.2-0.1,0.4-0.1C141.6,64,141.8,64.1,141.9,64.1z"/>
	<path class="st0" d="M145,65.2v2.1h-0.5V67c-0.2,0.2-0.5,0.3-0.8,0.3s-0.6-0.1-0.8-0.3c-0.2-0.2-0.4-0.4-0.4-0.8
		c0-0.3,0.1-0.6,0.4-0.8c0.2-0.2,0.5-0.3,0.7-0.3c0.1,0,0.2,0,0.2,0c0.2,0,0.3,0.1,0.4,0.1l-0.1,0.2c-0.2-0.1-0.3-0.2-0.5-0.2
		c-0.2,0-0.4,0.1-0.5,0.2c-0.1,0.2-0.2,0.4-0.2,0.7c0,0.3,0.1,0.5,0.2,0.6c0.1,0.2,0.3,0.2,0.5,0.2c0.3,0,0.6-0.2,0.8-0.5v-1.5
		c0-0.7-0.2-1-0.7-1c-0.3,0-0.5,0.1-0.8,0.3l-0.1-0.2c0.2-0.2,0.5-0.2,0.9-0.2C144.6,64,145,64.4,145,65.2z"/>
	<path class="st0" d="M146.6,67.3h-0.5v-5h0.5V67.3z"/>
	<path class="st0" d="M149.5,67.3H149v-5h0.5V67.3z"/>
	<path class="st0" d="M153,65.2v2.1h-0.5V67c-0.2,0.2-0.5,0.3-0.8,0.3s-0.6-0.1-0.8-0.3c-0.2-0.2-0.4-0.4-0.4-0.8
		c0-0.3,0.1-0.6,0.4-0.8c0.2-0.2,0.5-0.3,0.7-0.3c0.1,0,0.2,0,0.2,0c0.2,0,0.3,0.1,0.4,0.1l-0.1,0.2c-0.2-0.1-0.3-0.2-0.5-0.2
		c-0.2,0-0.4,0.1-0.5,0.2c-0.1,0.2-0.2,0.4-0.2,0.7c0,0.3,0.1,0.5,0.2,0.6c0.1,0.2,0.3,0.2,0.5,0.2c0.3,0,0.6-0.2,0.8-0.5v-1.5
		c0-0.7-0.2-1-0.7-1c-0.3,0-0.5,0.1-0.8,0.3l-0.1-0.2c0.2-0.2,0.5-0.2,0.9-0.2C152.6,64,153,64.4,153,65.2z"/>
	<path class="st0" d="M156.8,67.3h-0.5v-2.2c0-0.7-0.2-1-0.7-1s-0.8,0.3-1,0.9v2.3h-0.5v-3.2h0.5v0.4c0.3-0.4,0.6-0.5,1-0.5
		c0.4,0,0.7,0.1,0.8,0.2c0.2,0.2,0.3,0.5,0.3,0.9v2.2H156.8z"/>
	<path class="st0" d="M160.6,67.3h-0.5V67c-0.2,0.2-0.5,0.4-0.8,0.4c-0.4,0-0.8-0.2-1.1-0.5s-0.4-0.7-0.4-1.2s0.1-0.9,0.4-1.2
		c0.3-0.3,0.6-0.5,1.1-0.5c0.2,0,0.4,0,0.6,0.1l-0.1,0.2c-0.1-0.1-0.3-0.2-0.5-0.2s-0.5,0.1-0.6,0.4c-0.2,0.3-0.3,0.7-0.3,1.1
		c0,0.4,0.1,0.8,0.3,1.1c0.2,0.3,0.4,0.4,0.7,0.4c0.2,0,0.3-0.1,0.5-0.2c0.1-0.1,0.2-0.3,0.3-0.5v-4.2h0.5L160.6,67.3L160.6,67.3z"
		/>
	<path class="st0" d="M163.4,66.5c0,0.3-0.1,0.5-0.3,0.6c-0.2,0.2-0.4,0.2-0.7,0.2c-0.4,0-0.7-0.1-0.9-0.4l0.2-0.2
		c0.2,0.3,0.5,0.4,0.8,0.4c0.2,0,0.3-0.1,0.4-0.2c0.1-0.1,0.2-0.3,0.2-0.4c0-0.2-0.1-0.4-0.3-0.5c-0.1-0.1-0.3-0.2-0.6-0.4
		c-0.4-0.2-0.5-0.5-0.5-0.9c0-0.2,0.1-0.4,0.3-0.6c0.2-0.1,0.4-0.2,0.6-0.2c0.1,0,0.3,0,0.5,0.1c0.2,0.1,0.3,0.2,0.3,0.3l-0.2,0.2
		c-0.2-0.3-0.4-0.4-0.7-0.4s-0.5,0.1-0.5,0.4c0,0.2,0.1,0.4,0.3,0.6c0.4,0.2,0.6,0.4,0.7,0.5C163.3,65.9,163.5,66.2,163.4,66.5z"/>
	<path class="st0" d="M167.1,66.9c-0.3,0.3-0.7,0.4-1.1,0.4c-0.5,0-0.8-0.2-1.2-0.5c-0.3-0.3-0.5-0.7-0.5-1.2s0.2-0.9,0.5-1.2
		c0.3-0.3,0.7-0.5,1.2-0.5c0.4,0,0.7,0.1,1,0.3l-0.1,0.2c-0.2-0.2-0.5-0.4-0.9-0.4c-0.3,0-0.6,0.2-0.8,0.5c-0.2,0.3-0.3,0.6-0.3,1
		c0,0.4,0.1,0.8,0.3,1c0.2,0.3,0.5,0.5,0.8,0.5c0.4,0,0.7-0.2,1-0.5L167.1,66.9z"/>
	<path class="st0" d="M170.2,65.2v2.1h-0.5V67c-0.2,0.2-0.5,0.3-0.8,0.3c-0.3,0-0.6-0.1-0.8-0.3c-0.2-0.2-0.4-0.4-0.4-0.8
		c0-0.3,0.1-0.6,0.4-0.8c0.2-0.2,0.5-0.3,0.7-0.3c0.1,0,0.2,0,0.2,0c0.2,0,0.3,0.1,0.4,0.1l-0.1,0.2c-0.2-0.1-0.3-0.2-0.5-0.2
		s-0.4,0.1-0.5,0.2c-0.1,0.2-0.2,0.4-0.2,0.7c0,0.3,0.1,0.5,0.2,0.6c0.1,0.2,0.3,0.2,0.5,0.2c0.3,0,0.6-0.2,0.8-0.5v-1.5
		c0-0.7-0.2-1-0.7-1c-0.3,0-0.5,0.1-0.8,0.3L168,64c0.2-0.2,0.5-0.2,0.9-0.2C169.8,64,170.2,64.4,170.2,65.2z"/>
	<path class="st0" d="M174,65.7c0,0.5-0.1,0.8-0.4,1.2c-0.3,0.3-0.6,0.5-1,0.5c-0.2,0-0.4,0-0.6-0.1l0.1-0.2
		c0.1,0.1,0.3,0.2,0.5,0.2c0.2,0,0.5-0.1,0.6-0.4c0.2-0.3,0.3-0.6,0.3-1.1c0-0.4-0.1-0.8-0.3-1.1c-0.2-0.3-0.4-0.4-0.7-0.4
		c-0.2,0-0.3,0.1-0.5,0.2c-0.1,0.1-0.2,0.3-0.3,0.5v3.6h-0.5v-4.4h0.5v0.3c0.2-0.2,0.5-0.4,0.8-0.4c0.4,0,0.8,0.2,1,0.5
		C173.9,64.9,174,65.3,174,65.7z"/>
	<path class="st0" d="M177.8,65.3h-2v-0.2h1.5c0-0.6-0.3-0.9-0.8-0.9c-0.3,0-0.6,0.1-0.8,0.4c-0.2,0.3-0.3,0.6-0.3,1.1
		s0.1,0.8,0.3,1.1c0.2,0.3,0.5,0.4,0.8,0.4c0.4,0,0.7-0.2,1-0.5l0.2,0.2c-0.3,0.3-0.7,0.5-1.1,0.5c-0.5,0-0.8-0.2-1.2-0.5
		c-0.3-0.3-0.5-0.7-0.5-1.2s0.2-0.9,0.5-1.2c0.3-0.3,0.7-0.5,1.1-0.5c0.3,0,0.6,0.1,0.9,0.4C177.7,64.6,177.8,64.9,177.8,65.3z"/>
	<path class="st0" d="M129.7,74.2v2.1h-0.5V76c-0.2,0.2-0.5,0.3-0.8,0.3c-0.3,0-0.6-0.1-0.8-0.3c-0.2-0.2-0.4-0.4-0.4-0.8
		c0-0.3,0.1-0.6,0.4-0.8c0.2-0.2,0.5-0.3,0.7-0.3c0.1,0,0.2,0,0.2,0c0.2,0,0.3,0.1,0.4,0.1l-0.1,0.2c-0.2-0.1-0.3-0.2-0.5-0.2
		s-0.4,0.1-0.5,0.2c-0.1,0.2-0.2,0.4-0.2,0.7c0,0.3,0.1,0.5,0.2,0.6c0.1,0.2,0.3,0.2,0.5,0.2c0.3,0,0.6-0.2,0.8-0.5v-1.5
		c0-0.7-0.2-1-0.7-1c-0.3,0-0.5,0.1-0.8,0.3l-0.1-0.2c0.2-0.2,0.5-0.2,0.9-0.2C129.3,73,129.7,73.4,129.7,74.2z"/>
	<path class="st0" d="M133.5,76.3H133v-2.2c0-0.7-0.2-1-0.7-1s-0.8,0.3-1,0.9v2.3h-0.5v-3.2h0.5v0.4c0.3-0.4,0.6-0.5,1-0.5
		c0.4,0,0.7,0.1,0.8,0.2c0.2,0.2,0.3,0.5,0.3,0.9v2.2H133.5z"/>
	<path class="st0" d="M137.3,76.3h-0.5V76c-0.2,0.2-0.5,0.4-0.8,0.4c-0.4,0-0.8-0.2-1.1-0.5c-0.3-0.3-0.4-0.7-0.4-1.2
		s0.1-0.9,0.4-1.2c0.3-0.3,0.6-0.5,1.1-0.5c0.2,0,0.4,0,0.6,0.1l-0.1,0.2c-0.1-0.1-0.3-0.2-0.5-0.2s-0.5,0.1-0.6,0.4
		c-0.2,0.3-0.3,0.7-0.3,1.1c0,0.4,0.1,0.8,0.3,1.1c0.2,0.3,0.4,0.4,0.7,0.4c0.2,0,0.3-0.1,0.5-0.2c0.1-0.1,0.2-0.3,0.3-0.5v-4.2h0.5
		L137.3,76.3L137.3,76.3z"/>
	<path class="st0" d="M142.2,74.2v2.1h-0.5V76c-0.2,0.2-0.5,0.3-0.8,0.3c-0.3,0-0.6-0.1-0.8-0.3c-0.2-0.2-0.4-0.4-0.4-0.8
		c0-0.3,0.1-0.6,0.4-0.8c0.2-0.2,0.5-0.3,0.7-0.3c0.1,0,0.2,0,0.2,0c0.2,0,0.3,0.1,0.4,0.1l-0.1,0.2c-0.2-0.1-0.3-0.2-0.5-0.2
		s-0.4,0.1-0.5,0.2c-0.1,0.2-0.2,0.4-0.2,0.7c0,0.3,0.1,0.5,0.2,0.6c0.1,0.2,0.3,0.2,0.5,0.2c0.3,0,0.6-0.2,0.8-0.5v-1.5
		c0-0.7-0.2-1-0.7-1c-0.3,0-0.5,0.1-0.8,0.3L140,73c0.2-0.2,0.5-0.2,0.9-0.2C141.8,73,142.2,73.4,142.2,74.2z"/>
	<path class="st0" d="M144.8,73.1l-0.1,0.2c-0.1-0.1-0.3-0.1-0.4-0.1c-0.1,0-0.1,0-0.2,0.1c-0.2,0.1-0.3,0.4-0.3,0.9v2.1h-0.5v-3.2
		h0.5v0.4c0.1-0.1,0.1-0.2,0.2-0.3c0.1-0.1,0.2-0.1,0.4-0.1C144.6,73.1,144.7,73.1,144.8,73.1z"/>
	<path class="st0" d="M147,73.2h-0.6v2c0,0.3,0,0.6,0.1,0.7s0.2,0.2,0.5,0.2v0.2c-0.7,0-1.1-0.4-1.1-1.1v-2h-0.3V73h0.3v-0.4h0.5V73
		h0.6V73.2z"/>
	<path class="st0" d="M148.6,71.6c0,0.1,0,0.2-0.1,0.2s-0.1,0.1-0.2,0.1c-0.1,0-0.2,0-0.2-0.1s-0.1-0.1-0.1-0.2c0-0.1,0-0.2,0.1-0.2
		c0.1-0.1,0.1-0.1,0.2-0.1c0.1,0,0.2,0,0.2,0.1S148.6,71.5,148.6,71.6z M148.5,76.3H148v-3.2h0.5V76.3z"/>
	<path class="st0" d="M151.3,75.5c0,0.3-0.1,0.5-0.3,0.6c-0.2,0.2-0.4,0.2-0.7,0.2c-0.4,0-0.7-0.1-0.9-0.4l0.2-0.2
		c0.2,0.3,0.5,0.4,0.8,0.4c0.2,0,0.3-0.1,0.4-0.2c0.1-0.1,0.2-0.3,0.2-0.4c0-0.2-0.1-0.4-0.3-0.5c-0.1-0.1-0.3-0.2-0.6-0.4
		c-0.4-0.2-0.5-0.5-0.5-0.9c0-0.2,0.1-0.4,0.3-0.6c0.2-0.1,0.4-0.2,0.6-0.2c0.1,0,0.3,0,0.5,0.1c0.2,0.1,0.3,0.2,0.3,0.3l-0.2,0.2
		c-0.2-0.3-0.4-0.4-0.7-0.4c-0.3,0-0.5,0.1-0.5,0.4c0,0.2,0.1,0.4,0.3,0.6c0.4,0.2,0.6,0.4,0.7,0.5
		C151.2,74.9,151.4,75.2,151.3,75.5z"/>
	<path class="st0" d="M153.6,73.2H153v2c0,0.3,0,0.6,0.1,0.7c0.1,0.1,0.2,0.2,0.5,0.2v0.2c-0.7,0-1.1-0.4-1.1-1.1v-2h-0.3V73h0.3
		v-0.4h0.5V73h0.6V73.2z"/>
	<path class="st0" d="M155.1,71.6c0,0.1,0,0.2-0.1,0.2s-0.1,0.1-0.2,0.1c-0.1,0-0.2,0-0.2-0.1s-0.1-0.1-0.1-0.2c0-0.1,0-0.2,0.1-0.2
		c0.1-0.1,0.1-0.1,0.2-0.1c0.1,0,0.2,0,0.2,0.1C155.1,71.5,155.1,71.5,155.1,71.6z M155,76.3h-0.5v-3.2h0.5V76.3z"/>
	<path class="st0" d="M158.9,75.9c-0.3,0.3-0.7,0.4-1.1,0.4c-0.5,0-0.8-0.2-1.2-0.5c-0.3-0.3-0.5-0.7-0.5-1.2s0.2-0.9,0.5-1.2
		c0.3-0.3,0.7-0.5,1.2-0.5c0.4,0,0.7,0.1,1,0.3l-0.1,0.2c-0.2-0.2-0.5-0.4-0.9-0.4c-0.3,0-0.6,0.2-0.8,0.5c-0.2,0.3-0.3,0.6-0.3,1
		c0,0.4,0.1,0.8,0.3,1c0.2,0.3,0.5,0.5,0.8,0.5c0.4,0,0.7-0.2,1-0.5L158.9,75.9z"/>
	<path class="st0" d="M163.6,74.3h-2v-0.2h1.5c0-0.6-0.3-0.9-0.8-0.9c-0.3,0-0.6,0.1-0.8,0.4c-0.2,0.3-0.3,0.6-0.3,1.1
		s0.1,0.8,0.3,1.1c0.2,0.3,0.5,0.4,0.8,0.4c0.4,0,0.7-0.2,1-0.5l0.2,0.2c-0.3,0.3-0.7,0.5-1.1,0.5c-0.5,0-0.8-0.2-1.2-0.5
		c-0.3-0.3-0.5-0.7-0.5-1.2s0.2-0.9,0.5-1.2s0.7-0.5,1.1-0.5c0.3,0,0.6,0.1,0.9,0.4C163.5,73.6,163.6,73.9,163.6,74.3z"/>
	<path class="st0" d="M167.4,76.3h-0.6l-1-1.5l-1.2,1.5h-0.2l1.3-1.6l-1.1-1.6h0.6l0.9,1.2l1-1.2h0.2l-1.1,1.4L167.4,76.3z"/>
	<path class="st0" d="M170.9,74.7c0,0.5-0.1,0.8-0.4,1.2c-0.3,0.3-0.6,0.5-1,0.5c-0.2,0-0.4,0-0.6-0.1l0.1-0.2
		c0.1,0.1,0.3,0.2,0.5,0.2s0.5-0.1,0.6-0.4c0.2-0.3,0.3-0.6,0.3-1.1c0-0.4-0.1-0.8-0.3-1.1c-0.2-0.3-0.4-0.4-0.7-0.4
		c-0.2,0-0.3,0.1-0.5,0.2c-0.1,0.1-0.2,0.3-0.3,0.5v3.6h-0.5v-4.4h0.5v0.3c0.2-0.2,0.5-0.4,0.8-0.4c0.4,0,0.8,0.2,1,0.5
		C170.8,73.9,170.9,74.3,170.9,74.7z"/>
	<path class="st0" d="M173.4,73.1l-0.1,0.2c-0.1-0.1-0.3-0.1-0.4-0.1c-0.1,0-0.1,0-0.2,0.1c-0.2,0.1-0.3,0.4-0.3,0.9v2.1h-0.5v-3.2
		h0.5v0.4c0.1-0.1,0.1-0.2,0.2-0.3c0.1-0.1,0.2-0.1,0.4-0.1S173.3,73.1,173.4,73.1z"/>
	<path class="st0" d="M176.9,74.3h-2v-0.2h1.5c0-0.6-0.3-0.9-0.8-0.9c-0.3,0-0.6,0.1-0.8,0.4c-0.2,0.3-0.3,0.6-0.3,1.1
		s0.1,0.8,0.3,1.1c0.2,0.3,0.5,0.4,0.8,0.4c0.4,0,0.7-0.2,1-0.5l0.2,0.2c-0.3,0.3-0.7,0.5-1.1,0.5c-0.5,0-0.8-0.2-1.2-0.5
		c-0.3-0.3-0.5-0.7-0.5-1.2s0.2-0.9,0.5-1.2s0.7-0.5,1.1-0.5c0.3,0,0.6,0.1,0.9,0.4C176.7,73.6,176.9,73.9,176.9,74.3z"/>
	<path class="st0" d="M179.5,75.5c0,0.3-0.1,0.5-0.3,0.6c-0.2,0.2-0.4,0.2-0.7,0.2c-0.4,0-0.7-0.1-0.9-0.4l0.1-0.2
		c0.2,0.3,0.5,0.4,0.8,0.4c0.2,0,0.3-0.1,0.4-0.2c0.1-0.1,0.2-0.3,0.2-0.4c0-0.2-0.1-0.4-0.3-0.5c-0.1-0.1-0.3-0.2-0.6-0.4
		c-0.4-0.2-0.5-0.5-0.5-0.9c0-0.2,0.1-0.4,0.3-0.6c0.2-0.1,0.4-0.2,0.6-0.2c0.2,0,0.3,0,0.5,0.1c0.2,0.1,0.3,0.2,0.3,0.3l-0.2,0.2
		c-0.2-0.3-0.4-0.4-0.7-0.4s-0.5,0.1-0.6,0.4c0,0.2,0.1,0.4,0.3,0.6c0.4,0.2,0.6,0.4,0.7,0.5C179.4,74.9,179.6,75.2,179.5,75.5z"/>
	<path class="st0" d="M182.3,75.5c0,0.3-0.1,0.5-0.3,0.6c-0.2,0.2-0.4,0.2-0.7,0.2c-0.4,0-0.7-0.1-0.9-0.4l0.2-0.2
		c0.2,0.3,0.5,0.4,0.8,0.4c0.2,0,0.3-0.1,0.4-0.2c0.1-0.1,0.2-0.3,0.2-0.4c0-0.2-0.1-0.4-0.3-0.5c-0.1-0.1-0.3-0.2-0.6-0.4
		c-0.4-0.2-0.5-0.5-0.5-0.9c0-0.2,0.1-0.4,0.3-0.6c0.2-0.1,0.4-0.2,0.6-0.2c0.1,0,0.3,0,0.5,0.1c0.2,0.1,0.3,0.2,0.3,0.3l-0.2,0.2
		c-0.2-0.3-0.4-0.4-0.7-0.4c-0.3,0-0.5,0.1-0.5,0.4c0,0.2,0.1,0.4,0.3,0.6c0.4,0.2,0.6,0.4,0.7,0.5
		C182.2,74.9,182.3,75.2,182.3,75.5z"/>
	<path class="st0" d="M183.9,71.6c0,0.1,0,0.2-0.1,0.2c-0.1,0-0.1,0.1-0.2,0.1c-0.1,0-0.2,0-0.2-0.1s-0.1-0.1-0.1-0.2
		c0-0.1,0-0.2,0.1-0.2c0.1-0.1,0.1-0.1,0.2-0.1c0.1,0,0.2,0,0.2,0.1C183.9,71.5,183.9,71.5,183.9,71.6z M183.8,76.3h-0.5v-3.2h0.5
		V76.3z"/>
	<path class="st0" d="M188.2,74.7c0,0.5-0.2,0.9-0.5,1.2c-0.3,0.3-0.7,0.5-1.2,0.5s-0.8-0.2-1.2-0.5c-0.4-0.3-0.5-0.7-0.5-1.2
		s0.2-0.9,0.5-1.2s0.7-0.5,1.2-0.5s0.8,0.2,1.2,0.5C188,73.8,188.2,74.2,188.2,74.7z M187.7,74.7c0-0.4-0.1-0.8-0.3-1.1
		c-0.2-0.3-0.5-0.4-0.8-0.4c-0.3,0-0.6,0.1-0.8,0.4c-0.2,0.3-0.3,0.6-0.3,1.1c0,0.4,0.1,0.8,0.3,1.1c0.2,0.3,0.5,0.4,0.8,0.4
		c0.3,0,0.6-0.1,0.8-0.4C187.5,75.4,187.7,75.1,187.7,74.7z"/>
	<path class="st0" d="M191.8,76.3h-0.5v-2.2c0-0.7-0.2-1-0.7-1s-0.8,0.3-1,0.9v2.3h-0.5v-3.2h0.5v0.4c0.3-0.4,0.6-0.5,1-0.5
		c0.4,0,0.7,0.1,0.8,0.2c0.2,0.2,0.3,0.5,0.3,0.9v2.2H191.8z"/>
	<path class="st0" d="M193.5,76.1c0,0.1,0,0.2-0.1,0.2c-0.1,0-0.1,0.1-0.2,0.1c-0.1,0-0.2,0-0.2-0.1s-0.1-0.1-0.1-0.2
		c0-0.1,0-0.2,0.1-0.2s0.1-0.1,0.2-0.1c0.1,0,0.2,0,0.2,0.1S193.5,76,193.5,76.1z"/>
</g>
</svg>
