<svg width="5" height="555" viewBox="0 0 5 555" fill="none" xmlns="http://www.w3.org/2000/svg">
<path d="M4.69998 484.7V483.4H0.0999756V482.9H4.69998V481.6H4.79998V484.8H4.69998V484.7Z" fill="#C9A063"/>
<path d="M0.0999756 488.6V488.1H2.59998V485.7H0.0999756V485.2H4.79998V485.7H2.79998V488.1H4.89998V488.6H0.0999756Z" fill="#C9A063"/>
<path d="M0.0999756 492.5V490.1H4.79998V492.4H4.69998V490.6H2.79998V492.2H2.59998V490.6H0.199976V492.5H0.0999756Z" fill="#C9A063"/>
<path d="M4.8 499.1L0 497.1L4.8 495.1V495.7L0.9 497.3L4.8 498.9V499.1Z" fill="#C9A063"/>
<path d="M2.5 504.8C1.8 504.8 1.2 504.6 0.8 504.1C0.3 503.6 0 503 0 502.3C0 501.6 0.2 500.9 0.7 500.5C1.2 500 1.7 499.8 2.4 499.8C3.1 499.8 3.7 500 4.1 500.5C4.6 501 4.8 501.6 4.8 502.3C4.8 503 4.6 503.7 4.1 504.1C3.7 504.6 3.1 504.8 2.5 504.8ZM2.5 504.2C3.2 504.2 3.7 504 4.1 503.7C4.6 503.3 4.8 502.8 4.8 502.2C4.8 501.6 4.6 501.1 4.1 500.7C3.7 500.3 3.1 500.2 2.5 500.2C1.8 500.2 1.3 500.4 0.9 500.7C0.4 501.1 0.2 501.6 0.2 502.2C0.2 502.8 0.4 503.3 0.9 503.7C1.3 504.1 1.8 504.2 2.5 504.2Z" fill="#C9A063"/>
<path d="M0.0999756 506.5V506H4.79998V506.5H0.0999756Z" fill="#C9A063"/>
<path d="M0.7 511.7C0.2 511.3 0 510.8 0 510.1C0 509.5 0.2 508.9 0.7 508.5C1.2 508 1.7 507.8 2.4 507.8C3.1 507.8 3.6 508 4.1 508.4C4.6 508.8 4.8 509.3 4.8 510C4.8 510.6 4.6 511.1 4.3 511.5L4.1 511.3C4.5 510.9 4.6 510.5 4.6 510C4.6 509.5 4.4 509.1 3.9 508.8C3.5 508.5 2.9 508.4 2.3 508.4C1.7 508.4 1.1 508.6 0.7 508.9C0.3 509.2 0 509.7 0 510.2C0 510.8 0.2 511.2 0.7 511.5V511.7Z" fill="#C9A063"/>
<path d="M0.0999756 515.1V512.7H4.79998V515H4.69998V513.2H2.79998V514.8H2.59998V513.2H0.199976V515.1H0.0999756Z" fill="#C9A063"/>
<path d="M4.69998 520.9V519.6H0.0999756V519H4.69998V517.7H4.79998V520.9H4.69998Z" fill="#C9A063"/>
<path d="M0.0999756 524.7V524.2H2.59998V521.8H0.0999756V521.3H4.79998V521.8H2.79998V524.2H4.89998V524.7H0.0999756Z" fill="#C9A063"/>
<path d="M0.0999756 528.6V526.2H4.79998V528.5H4.69998V526.7H2.79998V528.3H2.59998V526.7H0.199976V528.6H0.0999756Z" fill="#C9A063"/>
<path d="M4.8 536.9L0 535.4L3.9 534L0 532.7L4.8 531.2V531.7L1.1 532.9L4.9 534.2L1.1 535.6L4.9 536.8L4.8 536.9Z" fill="#C9A063"/>
<path d="M2.5 542.5C1.8 542.5 1.2 542.3 0.8 541.8C0.3 541.3 0 540.7 0 540C0 539.3 0.2 538.6 0.7 538.2C1.2 537.7 1.7 537.5 2.4 537.5C3.1 537.5 3.7 537.7 4.1 538.2C4.6 538.7 4.8 539.3 4.8 540C4.8 540.7 4.6 541.4 4.1 541.8C3.7 542.3 3.1 542.5 2.5 542.5ZM2.5 541.9C3.2 541.9 3.7 541.7 4.1 541.4C4.6 541 4.8 540.5 4.8 539.9C4.8 539.3 4.6 538.8 4.1 538.4C3.7 538 3.1 537.9 2.5 537.9C1.8 537.9 1.3 538.1 0.9 538.4C0.4 538.8 0.2 539.3 0.2 539.9C0.2 540.5 0.4 541 0.9 541.4C1.3 541.8 1.8 541.9 2.5 541.9Z" fill="#C9A063"/>
<path d="M0.0999756 546.7V546.2L2.69998 544.6C2.69998 544.7 2.69998 544.8 2.69998 544.8C2.69998 545.5 2.99998 545.9 3.69998 545.9C4.39998 545.9 4.69998 545.4 4.69998 544.5V544.2H0.0999756V543.7H4.79998C4.79998 543.8 4.79998 544.1 4.79998 544.6C4.79998 545.8 4.39998 546.4 3.59998 546.4C3.29998 546.4 2.99998 546.3 2.79998 546.1C2.59998 545.9 2.49998 545.6 2.39998 545.2L0.0999756 546.7Z" fill="#C9A063"/>
<path d="M0.0999756 550.1V547.7H4.79998V548.2H0.199976V550.1H0.0999756Z" fill="#C9A063"/>
<path d="M2.49995 554.9C1.59995 554.9 0.999951 554.6 0.599951 553.9C0.299951 553.4 0.199951 552.9 0.199951 552.3V551H4.89995V552.3C4.89995 552.9 4.79995 553.4 4.49995 553.9C3.99995 554.6 3.29995 554.9 2.49995 554.9ZM2.49995 554.4C3.29995 554.4 3.89995 554.1 4.29995 553.5C4.59995 553.1 4.69995 552.6 4.69995 552V551.5H0.199951V552C0.199951 552.7 0.299951 553.2 0.599951 553.6C0.999951 554.2 1.59995 554.4 2.49995 554.4Z" fill="#C9A063"/>
<path d="M0.599976 0V479.7" stroke="#C9A063" stroke-width="0.35" stroke-miterlimit="10"/>
</svg>
