<?xml version="1.0" encoding="utf-8"?>
<!-- Generator: Adobe Illustrator 25.2.3, SVG Export Plug-In . SVG Version: 6.00 Build 0)  -->
<svg version="1.1" id="圖層_1" xmlns="http://www.w3.org/2000/svg" xmlns:xlink="http://www.w3.org/1999/xlink" x="0px" y="0px"
	 viewBox="0 0 300 118" style="enable-background:new 0 0 300 118;" xml:space="preserve">
<style type="text/css">
	.st0{fill:#3E3A39;}
</style>
<path class="st0" d="M4.9,2.5C5.1,2,5.3,1.5,5.5,1l1.2,0.1c-0.2,0.5-0.3,1-0.5,1.4h5.4v1H5.7C5.4,3.9,5.2,4.3,4.9,4.7
	c-0.3,0.4-0.6,0.8-1,1.2v5.6H2.8V7C2.5,7.2,2.3,7.4,2,7.6L1.3,6.7C2.4,5.9,3.3,5,4,4.1c0.1-0.2,0.3-0.4,0.4-0.6H1.3v-1H4.9z
	 M7.4,6.3V4h1.1v2.3h2.6v1H8.5v2.8h3v1H4.1v-1h3.2V7.3H4.6v-1H7.4z"/>
<path class="st0" d="M17.4,1.4c-0.7,1.4-1.5,2.6-2.3,3.4c0.2,0,0.4,0,0.6,0c1.7,0,3.4-0.1,5.2-0.4c-0.4-0.6-0.9-1.2-1.4-1.7l0.8-0.8
	c1.1,1.2,2,2.4,2.7,3.6l-0.9,0.9c-0.2-0.3-0.4-0.7-0.6-1c-2.3,0.3-5.1,0.5-8.4,0.5l-0.2-1.3c0.4,0,0.7,0.1,1.1,0.1
	c0.7-0.9,1.5-2.2,2.3-3.8L17.4,1.4z M22.1,11.6H21v-0.7h-6.1v0.7h-1.1V6.7h8.4v4.9H22.1z M21,9.9V7.7h-6.1v2.2H21z"/>
<path class="st0" d="M26.2,5l-0.6,0.9c-0.5-0.5-1-0.9-1.6-1.2l0.5-0.8C25.1,4.3,25.7,4.6,26.2,5z M26.3,6.9
	c-0.4,1.8-0.8,3.3-1.3,4.5l-0.8-0.8c0.4-1.1,0.8-2.5,1.2-4.2L26.3,6.9z M26.4,2.2l-0.6,0.9c-0.5-0.5-0.9-0.9-1.4-1.1l0.5-0.8
	C25.4,1.5,25.9,1.8,26.4,2.2z M27.1,5.3c-0.1,0.5-0.3,0.9-0.4,1.3l-0.6-0.2c0.2-0.3,0.3-0.7,0.4-1.3L27.1,5.3z M28,1.2
	c-0.2,0.6-0.5,1.1-0.7,1.5c0.2,0,0.3,0,0.5,0c0.2-0.3,0.3-0.6,0.5-0.9l0.5,0.3V1.8H30c-0.1-0.2-0.2-0.4-0.4-0.6l0.8-0.1
	c0.1,0.2,0.3,0.5,0.4,0.7h1v0.7h-3V2.2C28.4,3,28,3.7,27.6,4.3c0.2,0,0.4,0,0.6-0.1c0-0.1-0.1-0.3-0.1-0.4l0.5-0.2
	c0.1,0.4,0.2,0.8,0.3,1.3L28.3,5c0-0.1,0-0.2-0.1-0.3C27.7,4.8,27,4.9,26.1,5L26,4.3c0.2,0,0.3,0,0.5,0c0.2-0.3,0.5-0.6,0.7-1
	c-0.3,0-0.7,0.1-1.1,0.1L26,2.7h0.4c0.2-0.4,0.5-1,0.7-1.7L28,1.2z M34,6.9v1.9h-6.1l-0.2,0.5h6.6c0,0.9-0.2,1.5-0.4,1.8
	c-0.2,0.3-0.7,0.4-1.6,0.4h-2.1l-0.1-0.9c1,0,1.7,0,2.2,0c0.3,0,0.5,0,0.6-0.1c0.1-0.1,0.2-0.3,0.2-0.6h-6.6L26.9,8h6V7.6h-6.4V6.9
	H34z M28,6.5h-0.6c0-0.5-0.1-1-0.1-1.3h0.5C27.9,5.6,28,6,28,6.5z M29,6.3l-0.5,0.1c-0.1-0.4-0.2-0.9-0.3-1.3L28.7,5
	C28.8,5.4,28.9,5.9,29,6.3z M31.5,2.7v0.5h-2.4V2.7H31.5z M31.5,3.7v0.5h-2.4V3.7H31.5z M31.5,4.6v1.8h-2.3V4.6H31.5z M30.8,5.3h-1
	v0.6h1V5.3z M32.5,5.4c-0.1,0.5-0.2,0.9-0.3,1.4l-0.6-0.2c0.1-0.3,0.2-0.7,0.3-1.3L32.5,5.4z M33.5,1.3c-0.2,0.6-0.5,1.1-0.7,1.5
	c0.2,0,0.4,0,0.6,0c0.1-0.2,0.3-0.4,0.4-0.7l0.7,0.3c-0.5,0.8-1,1.5-1.5,2c0.3,0,0.6,0,0.8-0.1c0-0.2-0.1-0.4-0.1-0.5l0.6-0.2
	c0.1,0.4,0.3,0.9,0.4,1.5l-0.6,0.1C34.1,5.1,34,5,34,4.9c-0.5,0.1-1.2,0.2-2.2,0.3l-0.1-0.7c0.2,0,0.3,0,0.5,0
	c0.3-0.3,0.5-0.6,0.8-1c-0.3,0-0.7,0.1-1.2,0.1l-0.1-0.7H32c0.2-0.4,0.5-1,0.7-1.7L33.5,1.3z M33.6,6.5h-0.7c0-0.5,0-1-0.1-1.3h0.6
	C33.5,5.6,33.5,6,33.6,6.5z M34.7,6.4L34,6.6c-0.1-0.4-0.2-0.9-0.3-1.3l0.6-0.2C34.5,5.5,34.6,5.9,34.7,6.4z"/>
<path class="st0" d="M36.9,3.1V1H38v2.1h1.4v1H38v2.2c0.4-0.2,0.8-0.4,1.3-0.7v1.2c-0.4,0.3-0.8,0.5-1.3,0.7v2.9
	c0,0.4-0.1,0.7-0.3,0.9s-0.5,0.3-0.9,0.3H36l-0.2-1.1c0.3,0.1,0.6,0.1,0.8,0.1c0.3,0,0.4-0.1,0.4-0.3V8c-0.4,0.2-0.8,0.3-1.3,0.4
	l-0.1-1.2C36,7.1,36.5,7,37,6.8V4h-1.3V3h1.2V3.1z M45.3,5.9v0.8c-0.3,1.1-0.9,2.1-1.7,2.9c0.7,0.4,1.5,0.7,2.6,1l-0.6,0.9
	c-1.2-0.4-2.2-0.8-2.8-1.3c-0.8,0.5-1.9,0.9-3.2,1.3L39,10.6c1.2-0.3,2.2-0.6,2.9-1c-0.6-0.6-1.1-1.2-1.5-1.9l0.9-0.5
	c0.4,0.7,0.9,1.3,1.5,1.8c0,0,0.1,0,0.1-0.1c0.6-0.6,1-1.2,1.3-2H40V6h5.3V5.9z M44.5,4c0,0.3,0.1,0.4,0.4,0.4H46v1h-1.3
	c-0.4,0-0.7-0.1-0.9-0.3c-0.2-0.2-0.3-0.5-0.3-0.9v-2h-1.7c0,0.8-0.1,1.4-0.3,1.8c-0.2,0.5-0.6,1-1.3,1.7L39.4,5
	c0.6-0.6,1-1,1.2-1.3c0.1-0.3,0.2-1.1,0.2-2.4h3.8L44.5,4L44.5,4z"/>
<path class="st0" d="M49.8,4.2c-0.6,0.4-1.4,0.7-2.4,0.9l-0.4-1c0.8-0.2,1.7-0.5,2.6-0.9L49.8,4.2z M53,1.3
	c-0.1,0.2-0.3,0.4-0.4,0.5h4.5v0.7c-0.4,0.5-0.9,0.9-1.5,1.2l-0.7-0.6c0.3-0.1,0.6-0.3,0.9-0.5h-1.6c-0.2,0.3-0.4,0.6-0.5,0.8
	c1.3,0.3,2.5,0.7,3.6,1l-0.5,0.8c-0.1,0-0.2-0.1-0.4-0.1v4.7h-2.3c1.1,0.2,2.2,0.5,3.4,0.9l-0.4,0.9c-1.2-0.5-2.4-0.8-3.6-1l0.4-0.8
	H51l0.5,0.6c-1.2,0.5-2.4,0.9-3.6,1.1l-0.4-0.9c1.3-0.2,2.4-0.4,3.4-0.8h-2.3V5h2.2l-0.5-0.6c1-0.2,1.8-0.6,2.3-1
	c0.3-0.2,0.5-0.4,0.7-0.8h-1.2c-0.3,0.3-0.8,0.6-1.4,1l-0.8-0.7C50.5,2.6,51,2.3,51.4,2c0.3-0.3,0.6-0.7,0.9-1.1L53,1.3z M49.9,2.1
	L49.3,3c-0.6-0.4-1.2-0.8-1.7-1l0.5-0.8C48.7,1.5,49.3,1.8,49.9,2.1z M55.4,6.4V5.9h-5.9v0.5H55.4z M55.4,7.7V7.1h-5.9v0.6H55.4z
	 M55.4,8.4h-5.9v0.7h5.9V8.4z M56.2,5.1c-1-0.4-2.1-0.7-3.1-1c-0.5,0.4-1.1,0.7-1.8,1H56.2z"/>
<path class="st0" d="M68.6,1.4v2.3h-4.1c0,0.2-0.1,0.4-0.1,0.5h4.4V5h-4.6c-0.1,0.2-0.1,0.4-0.2,0.5h3.7v5H69v0.8H58.7v-0.8H60v-5h3
	c0.1-0.2,0.1-0.4,0.2-0.5h-4.3V4.2h4.5c0-0.2,0.1-0.4,0.1-0.5h-4.3V1.4H68.6z M62,2.1h-1.8v0.8H62V2.1z M66.8,6.9V6.4H61v0.5H66.8z
	 M66.8,8.1V7.6H61v0.5H66.8z M66.8,9.3V8.7H61v0.6H66.8z M66.8,10.5V10H61v0.5H66.8z M64.8,2.1h-1.9v0.8h1.9V2.1z M67.6,2.1h-1.9
	v0.8h1.9V2.1z"/>
<path class="st0" d="M76,1.7h4.3v0.9h-1.8c-0.5,0.4-1,0.7-1.5,1c0.8,0.2,1.6,0.4,2.4,0.7L78.9,5h1.4v0.9h-3.5v0.9h3.1v0.9h-3.1v0.8
	h2.8v0.9h-2.8v0.8h3.7v0.9h-8.9v-0.9h4V9.4h-2.7V8.7c-0.1,0.2-0.3,0.3-0.4,0.5l-0.8-0.7c0.3-0.4,0.6-0.8,0.8-1.1
	C72.7,7,72.9,6.6,73,6l0.9,0.4c-0.1,0.2-0.1,0.3-0.2,0.5h1.7V6h-4v1.4c0,0.6-0.1,1.3-0.2,2c-0.1,0.7-0.4,1.4-0.7,2.1l-0.9-0.8
	c0.3-0.5,0.5-1.1,0.6-1.7c0.1-0.6,0.1-1.2,0.1-1.7V5h1l-0.4-0.6c1.2-0.2,2.2-0.4,3-0.7c-0.9-0.2-1.8-0.4-2.7-0.6l0.4-0.6h-1.5V1.6
	h4.4c-0.2-0.2-0.3-0.5-0.5-0.7l1.2-0.2C75.6,1.1,75.8,1.4,76,1.7z M75.8,3.3c0,0,0.1,0,0.2-0.1c0.5-0.2,1-0.4,1.4-0.7h-4.8
	C73.6,2.8,74.7,3,75.8,3.3z M75.7,7.7h-2.1c0,0.1-0.1,0.1-0.1,0.2c-0.1,0.2-0.2,0.4-0.4,0.6h2.5L75.7,7.7L75.7,7.7z M78.6,5
	c-0.9-0.3-1.8-0.6-2.8-0.9c-0.7,0.3-1.6,0.6-2.6,0.9H78.6z"/>
<path class="st0" d="M87.6,7.9c-0.2-0.4-0.6-0.8-1-1.3c-0.3-0.3-0.7-0.7-1.3-1.2L86,4.8c0.4,0.3,0.8,0.7,1.4,1.2
	c0.3,0.3,0.7,0.8,1.1,1.3L87.6,7.9z"/>
<path class="st0" d="M103.3,3.6h-3.2c0.1,1.6,0.3,2.9,0.6,3.9c0.5-0.8,1-1.8,1.5-3.1l1,0.4c-0.6,1.7-1.3,3-2,3.8
	c0.5,1,0.9,1.5,1.1,1.5c0.1,0,0.3-0.5,0.4-1.6l0.9,0.6c-0.3,1.1-0.5,1.7-0.7,2c-0.1,0.2-0.3,0.3-0.5,0.3c-0.5,0-1-0.3-1.5-0.8
	c-0.3-0.3-0.5-0.6-0.7-1c-0.7,0.7-1.6,1.3-2.7,1.8l-0.6-1c1.2-0.5,2.2-1.2,2.9-1.9c-0.2-0.4-0.3-0.8-0.4-1.2c-0.2-1-0.4-2.2-0.5-3.7
	h-3.8V5h3.2c0,2.1-0.1,3.4-0.3,3.9c-0.2,0.6-0.6,1-1.1,1h-1.5l-0.2-1.1c0.8,0.1,1.3,0.1,1.7,0.1c0.1,0,0.2-0.2,0.2-0.5
	c0-0.4,0.1-1.2,0.1-2.4h-2.1c0,0.8-0.1,1.7-0.2,2.5c-0.2,1.1-0.6,2.1-1,3.1L93,10.8c0.4-0.8,0.7-1.7,0.9-2.6
	c0.1-0.9,0.2-1.8,0.2-2.6V2.5H99c0-0.5,0-1,0-1.6h1.1c0,0.6,0,1.1,0,1.6h1.6c-0.3-0.3-0.7-0.6-1.1-0.9l0.7-0.7c0.5,0.3,1,0.7,1.4,1
	l-0.6,0.6h1.3L103.3,3.6L103.3,3.6z"/>
<path class="st0" d="M113.4,3.6v0.9H111c-0.3,0.3-0.6,0.5-0.9,0.6c0.4,0.5,0.7,1,0.9,1.5c0.8-0.4,1.6-0.9,2.4-1.7l0.8,0.8
	c-0.5,0.4-1,0.8-1.6,1.1c0.3,0.6,0.6,1.2,0.9,1.7c0.4,0.5,0.9,1,1.5,1.6l-0.7,0.9c-0.7-0.7-1.3-1.4-1.8-2c-0.3-0.5-0.6-1-0.9-1.6
	c-0.2,0.1-0.3,0.2-0.5,0.2c0.1,0.5,0.2,1,0.2,1.5c0,0.9-0.1,1.5-0.4,1.9c-0.3,0.4-1.1,0.6-2.5,0.6l-0.4-1.1c0,0.1,0.2,0.1,0.6,0.1
	c0.6,0,1-0.1,1.2-0.2c0.2-0.2,0.3-0.6,0.3-1.2c0-0.2,0-0.3,0-0.5c-0.6,0.5-1.2,0.9-1.8,1.2c-0.8,0.4-1.9,0.9-3.2,1.3l-0.6-1
	c1.3-0.3,2.3-0.7,3.3-1.2c0.7-0.4,1.4-0.8,2-1.3c0-0.1-0.1-0.2-0.1-0.3c0-0.1-0.1-0.2-0.1-0.3c-0.6,0.4-1.2,0.8-1.7,1
	c-0.7,0.3-1.7,0.7-2.8,1l-0.5-0.9c1.1-0.3,2.1-0.6,2.9-0.9c0.6-0.3,1.2-0.6,1.7-0.9c-0.1-0.1-0.2-0.3-0.3-0.4
	c-1,0.4-2.2,0.8-3.5,1.1l-0.6-0.9c1.4-0.3,2.6-0.6,3.4-0.9c0.3-0.1,0.7-0.3,1-0.4H106V4h7.4V3.6z M110.3,1.8h4.5v2.3h-1V2.8h-7.9
	v1.3h-1V1.8h4.2c-0.1-0.2-0.3-0.5-0.4-0.7l1.2-0.2C110.1,1.2,110.2,1.5,110.3,1.8z"/>
<path class="st0" d="M120.3,10.6c-0.6,0.2-1.2,0.4-1.6,0.5c-0.6,0.1-1.3,0.3-2.1,0.4l-0.5-0.9c0.8-0.1,1.6-0.2,2.2-0.3
	c0.6-0.1,1.1-0.3,1.5-0.4L120.3,10.6z M126,1.4v2.8h-9.4V1.4H126z M125.4,4.8v4.9h-8.2V4.8H125.4z M119.4,2.2h-1.9v1h1.9V2.2z
	 M124.4,6.3V5.6h-6.1v0.7H124.4z M124.4,7.6V7h-6.1v0.6H124.4z M124.4,8.2h-6.1v0.7h6.1V8.2z M122.2,2.2h-1.8v1h1.8V2.2z
	 M126.5,10.6l-0.4,1c-1.3-0.4-2.6-0.7-4-0.9l0.4-0.9C123.8,10,125.1,10.3,126.5,10.6z M125,2.2h-1.8v1h1.8V2.2z"/>
<path class="st0" d="M138,2c-2.5,0.2-5.3,0.3-8.4,0.4V3h8v2.7h-3.8l0.4,0.9h4v0.9h-5.1c0,0.3-0.1,0.6-0.1,0.9h4.6
	c-0.1,1.3-0.2,2.1-0.3,2.5c-0.1,0.2-0.3,0.4-0.6,0.5c-0.2,0.1-1,0.2-2.5,0.2l-0.3-1.1c0.4,0,0.6,0,0.8,0c0.7,0,1.1,0,1.3-0.1
	c0.3-0.1,0.4-0.5,0.5-1.2h-3.7c-0.1,0.2-0.3,0.5-0.4,0.6c-0.4,0.6-1.2,1.2-2.3,1.7l-0.6-1c0.9-0.3,1.6-0.8,2-1.3
	c0.4-0.4,0.6-1.1,0.7-1.9h-2.4c0,0.6-0.1,1.2-0.3,1.8c-0.2,0.8-0.5,1.5-0.9,2.2l-0.8-0.9c0.3-0.6,0.5-1.1,0.7-1.7
	c0.1-0.6,0.2-1.3,0.3-2.2V1.2c3.6,0,6.6-0.1,8.9-0.4L138,2z M136.6,4.8V3.9h-7v0.9H136.6z M133,6.6l-0.4-0.9h-3.1v0.9H133z"/>
<path class="st0" d="M144.7,7.5c-0.2,0.2-0.5,0.5-0.9,0.7l-0.4-0.6c0.5-0.3,0.9-0.6,0.9-1h-0.7V5.2h1.4v1.1
	C145.1,6.8,144.9,7.2,144.7,7.5z"/>
<path class="st0" d="M156.4,1v2.2c0,0.7,0.2,1.6,0.5,2.6c0.4,1.1,0.9,2,1.5,2.7c0.7,0.9,1.6,1.5,2.6,1.9l-0.5,1.2
	c-1.2-0.6-2.1-1.3-2.7-2.1c-0.8-0.9-1.5-2.2-2-3.7c-0.3,1.6-0.9,2.9-1.8,3.8c-0.7,0.8-1.7,1.5-3,2l-0.5-1.1c1.2-0.5,2.1-1.1,2.7-1.9
	c0.6-0.7,1.1-1.7,1.4-2.8c0.3-1,0.5-1.8,0.5-2.5V1H156.4z M153.5,3.1c-0.4,1.5-0.8,2.8-1.3,3.9l-1.1-0.8c0.5-1,1-2.2,1.4-3.6
	L153.5,3.1z M160.5,3.1c-0.4,1.5-0.9,2.8-1.4,3.9L158,6.2c0.5-1,1-2.2,1.5-3.6L160.5,3.1z"/>
<path class="st0" d="M166.8,1.9V1h1.1v0.9h4.5v1h-4.5v0.8h3.7v4.6h-3.7v0.8h4.6v1h-4.6v1.5h-1.1v-1.5h-4.6v-1h4.6V8.3h-3.7V3.7h3.7
	V2.9h-4.5v-1H166.8z M166.8,5.4V4.6h-2.7v0.8H166.8z M166.8,6.3h-2.7v0.9h2.7V6.3z M167.9,5.4h2.7V4.6h-2.7V5.4z M170.6,6.3h-2.7
	v0.9h2.7V6.3z"/>
<path class="st0" d="M176.6,2.8h1.7v1h-4.7v-1h1.8c-0.2-0.5-0.3-1-0.5-1.5l1.2-0.2C176.2,1.6,176.4,2.2,176.6,2.8z M177.9,9.8
	c-1.2,0.4-2.5,0.7-4,1l-0.3-1c1.6-0.3,3.1-0.6,4.4-1v1H177.9z M175.7,9l-1,0.2c-0.2-1.6-0.5-3.1-0.8-4.6l0.9-0.3
	C175.1,5.7,175.4,7.2,175.7,9z M177.7,4.3c0,1.6-0.3,3.2-0.7,4.7l-1-0.3c0.4-1.5,0.7-3,0.7-4.5L177.7,4.3z M181.1,1v2.1h3v1h-3V6
	h2.5v5.6h-1v-0.8h-3.2v0.8h-1V6h1.7V1H181.1z M182.6,9.8V7h-3.2v2.8H182.6z"/>
<path class="st0" d="M195.2,11.5h-1v-0.4h-7.9v0.4h-1V1.3h9.9V11.5z M193.1,6.3c0.3,0.2,0.6,0.5,1.1,0.7V2.1h-7.9v4.8
	c0.7-0.4,1.2-0.8,1.7-1.2h-1.3V4.9h2.1c0.1-0.1,0.2-0.3,0.3-0.5H187V3.6h0.9c-0.2-0.4-0.4-0.7-0.7-1l0.9-0.1
	c0.2,0.3,0.5,0.7,0.7,1.2h0.6c0.2-0.4,0.3-0.9,0.5-1.4l0.9,0.1c-0.1,0.5-0.3,0.9-0.4,1.3h1.1c0.3-0.4,0.5-0.7,0.7-1.2l0.9,0.3
	c-0.2,0.3-0.4,0.6-0.7,0.9h1.1v0.8h-3.3c-0.1,0.2-0.2,0.4-0.3,0.5h4v0.8h-1.4C192.7,6,192.9,6.1,193.1,6.3z M194.3,10.2V7.3
	l-0.4,0.5c-0.7-0.4-1.2-0.8-1.6-1.2l-0.1-0.1v1.1c0,0.3-0.1,0.5-0.3,0.6c-0.2,0.1-0.4,0.2-0.6,0.2h-1.2l-0.2-0.8h1
	c0.2,0,0.3-0.1,0.3-0.3V7H189v1.4c0,0.1,0,0.3,0.1,0.3c0.1,0.1,0.2,0.1,0.3,0.1h2.4c0.2,0,0.3,0,0.4-0.1c0.1,0,0.2-0.4,0.4-1
	l0.9,0.3c-0.1,0.8-0.3,1.2-0.5,1.3c-0.2,0.1-0.6,0.2-1,0.2h-2.9c-0.3,0-0.6-0.1-0.8-0.2c-0.2-0.2-0.4-0.5-0.4-0.9V7
	c-0.4,0.3-0.8,0.6-1.3,0.9l-0.4-0.7v3H194.3z M191.9,6.3c-0.2-0.2-0.3-0.4-0.4-0.6h-2.2c-0.2,0.2-0.3,0.4-0.5,0.6H191.9z"/>
<path class="st0" d="M198,3.1c0.1-0.7,0.2-1.4,0.3-2.1l1,0.1c-0.1,0.7-0.2,1.4-0.3,2h1.8V4c-0.1,1.2-0.3,2.3-0.5,3.2
	c-0.1,0.4-0.3,0.9-0.4,1.2c0.5,0.4,0.9,0.8,1.3,1.2l-0.7,0.8c-0.3-0.3-0.7-0.7-1.1-1c-0.4,0.7-1.1,1.3-1.9,2.1l-0.8-0.9
	c0.8-0.6,1.4-1.2,1.9-1.9c-0.5-0.4-1.1-0.9-1.8-1.3c0.4-1,0.8-2.1,1.1-3.3h-1.3V3.2h1.4V3.1z M198,7.1c0.4,0.3,0.7,0.5,1,0.8
	c0.4-0.8,0.6-2.1,0.8-3.8h-1C198.6,5.3,198.3,6.3,198,7.1z M204,1.2c-0.3,1.3-0.8,2.4-1.4,3.5c1,0,1.9-0.1,2.7-0.2
	c-0.3-0.6-0.7-1.1-1-1.6l1-0.3c0.7,1,1.3,2.1,1.9,3.2l-1,0.4c-0.1-0.3-0.3-0.6-0.4-0.8c-1,0.2-2.6,0.3-4.7,0.4l-0.2-1.1
	c0.2,0,0.4,0,0.7,0c0.6-1.1,1.1-2.3,1.3-3.6L204,1.2z M206.4,11.6h-1V11h-3.1v0.6h-1V6.7h5.2v4.9H206.4z M205.4,10V7.7h-3.1V10
	H205.4z"/>
<path class="st0" d="M209.4,8.7c-0.1,1.1-0.2,2-0.4,2.8l-1-0.3c0.2-0.8,0.4-1.6,0.5-2.6L209.4,8.7z M211,1.3c-0.4,1-0.8,1.9-1.2,2.7
	c0.3,0,0.6-0.1,0.9-0.1c0.2-0.5,0.5-1,0.7-1.6l0.9,0.4c-0.8,1.8-1.6,3.3-2.4,4.5c0.5,0,1-0.1,1.4-0.3c-0.1-0.4-0.2-0.8-0.3-1.2
	l0.8-0.3c0.2,0.7,0.4,1.6,0.6,2.5l-0.9,0.2c0-0.2-0.1-0.3-0.1-0.5c-0.7,0.2-1.7,0.4-3,0.5l-0.3-1c0.2,0,0.4,0,0.6,0
	c0.5-0.6,1-1.4,1.4-2.4c-0.6,0.1-1.3,0.2-2,0.4l-0.2-0.9c0.2,0,0.4,0,0.6-0.1c0.5-0.9,1-2,1.3-3.2L211,1.3z M210.9,11l-0.9,0.1
	c0-1-0.1-1.8-0.1-2.4l0.8-0.1C210.7,9.2,210.8,10,210.9,11z M212.4,10.5l-0.9,0.3c-0.1-0.8-0.3-1.5-0.4-2.3l0.8-0.2
	C212,9.1,212.2,9.8,212.4,10.5z M215.2,1.1c-0.2,0.3-0.3,0.7-0.4,0.9h3.4v0.8c-0.6,1.1-1.3,2-1.9,2.6c0.6,0.4,1.5,0.9,2.6,1.2
	l-0.5,1c-1.3-0.6-2.2-1.1-2.9-1.6c-0.7,0.5-1.6,1-2.7,1.4l-0.5-0.9c0.9-0.3,1.7-0.7,2.4-1.1c-0.4-0.4-0.7-0.8-1.1-1.3
	c-0.2,0.3-0.4,0.5-0.6,0.8L212.3,4c0.9-0.9,1.6-1.9,2.1-3L215.2,1.1z M217.3,10.4l-0.4,1c-1.3-0.6-2.7-1-4.1-1.3l0.4-0.9
	C214.6,9.5,215.9,9.9,217.3,10.4z M217.5,8.2l-0.4,1c-1.1-0.5-2.3-0.8-3.5-1.1l0.4-0.9C215.1,7.4,216.3,7.8,217.5,8.2z M215.4,4.8
	c0.4-0.4,0.9-1,1.5-1.8h-2.6c-0.1,0.1-0.1,0.2-0.2,0.3C214.5,3.9,215,4.4,215.4,4.8z"/>
<path class="st0" d="M229.8,1.7v1h-3.5c-0.2,0.5-0.5,1-0.8,1.4v7.5h-1.2v-6c-0.1,0.1-0.2,0.2-0.3,0.3c-1,1-2.2,2-3.7,2.8l-0.7-0.9
	c1.4-0.8,2.6-1.6,3.6-2.6c0.6-0.6,1.3-1.4,1.8-2.5h-5.2v-1H229.8z M229.8,7.7l-0.9,0.9c-0.7-0.9-1.6-1.9-2.8-3l0.8-0.8
	C228.1,5.8,229.1,6.8,229.8,7.7z"/>
<path class="st0" d="M233.3,9.2c-0.2,0.6-0.4,1.1-0.6,1.3c-0.2,0.3-0.4,0.6-0.8,1.1l-0.8-0.7c0.3-0.3,0.6-0.6,0.8-0.9
	c0.2-0.3,0.3-0.7,0.5-1.1L233.3,9.2z M235.9,1.5v3.3c0.3-0.4,0.5-0.9,0.7-1.4c0.2-0.5,0.5-1.3,0.7-2.4l1.1,0.1
	c-0.1,0.6-0.2,1-0.4,1.5h3.6v1.1h-0.9c-0.1,1.9-0.5,3.5-1.2,4.7c0,0.1-0.1,0.1-0.1,0.2c0.6,0.6,1.3,1.2,2.3,1.9l-0.6,1
	c-1-0.6-1.8-1.3-2.4-2c-0.7,0.7-1.5,1.4-2.6,2.1l-0.6-1c1.1-0.6,1.9-1.2,2.6-1.9c-0.5-0.8-0.9-1.9-1.3-3.3c-0.2,0.3-0.4,0.6-0.7,0.9
	L235.9,6v2.7h-4.4V1.6h4.4V1.5z M234.8,3.5V2.3h-2.3v1.2H234.8z M234.8,5.6V4.4h-2.3v1.2H234.8z M234.8,6.5h-2.3v1.3h2.3V6.5z
	 M235.9,10.2l-0.9,0.6c-0.2-0.5-0.6-1-0.9-1.6l0.8-0.4C235.2,9.4,235.6,9.9,235.9,10.2z M238.7,7.7c0.6-1,0.9-2.3,1-4h-2.1
	c0,0.1-0.1,0.2-0.1,0.3v0.1C237.8,5.7,238.2,7,238.7,7.7z"/>
<path class="st0" d="M2.6,24.4v-2.2h1v2.2h1.1v0.9H3.6v0.2c0.4,0.5,0.9,1,1.3,1.6L4.3,28c-0.3-0.5-0.5-0.9-0.7-1.3v6h-1v-5.2
	c-0.3,0.9-0.7,1.7-1.1,2.4l-0.4-1.2c0.6-1,1.1-2.1,1.5-3.4H1.3v-0.9H2.6z M7.6,22.2v5.3c0,1.2-0.2,2.2-0.5,2.9
	c-0.3,0.8-0.9,1.6-1.8,2.4L4.4,32c0.8-0.6,1.3-1.2,1.7-2c0.2-0.4,0.3-0.9,0.4-1.6c-0.5,0.4-1.1,0.8-1.7,1.1l-0.5-0.9
	c0.8-0.3,1.5-0.8,2.3-1.4v-5H7.6z M6.4,26.1l-0.9,0.4c-0.3-1-0.6-1.8-0.9-2.6l0.9-0.3C5.9,24.4,6.2,25.2,6.4,26.1z M9.2,22.2v4.4
	c0.9,0.5,1.7,1.2,2.4,1.9L11,29.4c-0.6-0.6-1.2-1.2-1.8-1.6v3.5c0,0.2,0.1,0.3,0.4,0.3H10c0.1,0,0.2-0.1,0.3-0.2
	c0.1-0.1,0.1-0.7,0.1-1.6l1,0.3c-0.1,1.2-0.2,1.9-0.4,2.1s-0.5,0.3-0.9,0.3h-1c-0.3,0-0.6-0.1-0.8-0.2C8.1,32.1,8,31.9,8,31.6v-9.3
	h1.2V22.2z M11.4,24c-0.3,0.9-0.7,1.7-1.2,2.4l-0.9-0.6c0.4-0.6,0.9-1.3,1.2-2.1L11.4,24z"/>
<path class="st0" d="M22.8,32.7h-1v-0.4h-7.9v0.4h-1V22.5h9.9V32.7z M21.8,31.4v-8h-7.9v8H21.8z M20.9,26.6v2.1h-3.2
	c-0.1,0.1-0.1,0.1-0.1,0.2v2.2h-0.9v-1.4c-0.6,0.4-1.3,0.8-2.1,1l-0.5-0.8c0.8-0.2,1.4-0.5,1.9-0.8c0.2-0.1,0.5-0.3,0.6-0.5H15v-2.1
	h5.9V26.6z M17.2,24.1v-0.5h0.9v0.5h2.7v0.7h-2.7v0.6h3.2v0.8h-7.2v-0.8h3.1v-0.6h-2.6v-0.7H17.2z M20,27.4h-4.2V28H20V27.4z
	 M19.4,29.5c0.2-0.2,0.4-0.5,0.5-0.7l0.9,0.5c-0.1,0.2-0.3,0.4-0.5,0.6c0.4,0.2,0.8,0.4,1.1,0.6l-0.5,0.8c-1-0.6-2-1.2-3.1-1.5
	l0.4-0.7C18.7,29.2,19.1,29.4,19.4,29.5z"/>
<path class="st0" d="M29.9,22.2v2.2c0,0.7,0.2,1.6,0.5,2.6c0.4,1.1,0.9,2,1.5,2.7c0.7,0.9,1.6,1.5,2.6,1.9L34,32.8
	c-1.2-0.6-2.1-1.3-2.7-2.1c-0.8-0.9-1.5-2.2-2-3.7c-0.3,1.6-0.9,2.9-1.8,3.8c-0.7,0.8-1.7,1.5-3,2L24,31.7c1.2-0.5,2.1-1.1,2.7-1.9
	c0.6-0.7,1.1-1.7,1.4-2.8c0.3-1,0.5-1.8,0.5-2.5v-2.2h1.3V22.2z M27,24.3c-0.4,1.5-0.8,2.8-1.3,3.9l-1.1-0.8c0.5-1,1-2.2,1.4-3.6
	L27,24.3z M34,24.3c-0.4,1.5-0.9,2.8-1.4,3.9l-1.1-0.8c0.5-1,1-2.2,1.5-3.6L34,24.3z"/>
<path class="st0" d="M40.3,23.1v-0.9h1.1v0.9h4.5v1h-4.5v0.8h3.7v4.6h-3.7v0.8H46v1h-4.6v1.5h-1.1v-1.5h-4.6v-1h4.6v-0.8h-3.7v-4.6
	h3.7v-0.8h-4.5v-1H40.3z M40.3,26.6v-0.8h-2.7v0.8H40.3z M40.3,27.5h-2.7v0.9h2.7V27.5z M41.4,26.6h2.7v-0.8h-2.7V26.6z M44.1,27.5
	h-2.7v0.9h2.7V27.5z"/>
<path class="st0" d="M50.1,24h1.7v1h-4.7v-1h1.8c-0.2-0.5-0.3-1-0.5-1.5l1.2-0.2C49.7,22.8,49.9,23.4,50.1,24z M51.4,31
	c-1.2,0.4-2.5,0.7-4,1l-0.3-1c1.6-0.3,3.1-0.6,4.4-1L51.4,31L51.4,31z M49.2,30.2l-1,0.2c-0.2-1.6-0.5-3.1-0.8-4.6l0.9-0.3
	C48.6,26.9,48.9,28.4,49.2,30.2z M51.2,25.5c0,1.6-0.3,3.2-0.7,4.7l-1-0.3c0.4-1.5,0.7-3,0.7-4.5L51.2,25.5z M54.6,22.2v2.1h3v1h-3
	v1.9h2.5v5.6h-1V32h-3.2v0.8h-1v-5.6h1.7v-5H54.6z M56.1,31v-2.8h-3.2V31H56.1z"/>
<path class="st0" d="M64.7,22.7v4.8h-0.9v-5.7h3.6v0.9H64.7z"/>
<path class="st0" d="M80.4,24.6h-0.9V25h-2v0.4H80v3.5h-2.5v0.5h3.1v1.1h-3.1v0.7c0.7,0,1.8-0.1,3.2-0.1l-0.2,1.3c-1.3,0-2,0-2.1,0
	c-2.9,0-4.7-0.2-5.5-0.5c-0.3-0.1-0.6-0.3-0.8-0.5c-0.3,0.4-0.6,0.8-1,1.3l-1-1.2c0.6-0.5,1-1,1.3-1.5c0.2-0.4,0.4-0.8,0.6-1.4h-1.3
	c0.4-0.9,0.7-1.7,0.9-2.5h-1.3v-1.3h3c-0.2,0.9-0.5,1.7-0.8,2.5h1.2c-0.2,1.2-0.5,2.2-0.9,3c0,0,0,0,0,0.1c0.2,0.2,0.4,0.3,0.6,0.4
	c0.5,0.2,1.4,0.3,2.9,0.3v-0.7h-2.9v-1.1h2.9V29h-2.4v-3.5h2.4V25h-2v-0.4h-0.9v-2.2h7.2v2.2H80.4z M73.1,23.9l-1.2,0.9
	c-0.4-0.6-0.9-1.2-1.6-1.8l1.1-0.7C72,22.8,72.5,23.3,73.1,23.9z M76.1,24.1v-0.5h-1.6v0.5H76.1z M76.1,26.8v-0.5H75v0.5H76.1z
	 M76.1,27.6H75v0.5h1.1V27.6z M77.5,24.1h1.6v-0.5h-1.6V24.1z M77.5,26.8h1.2v-0.5h-1.2V26.8z M78.7,27.6h-1.2v0.5h1.2V27.6z"/>
<path class="st0" d="M84.2,22.7v-0.5h1.4v0.5h2.3v1h-2.3v0.5h2.8c0-0.6,0-1.3,0-2h1.4c0,0.7,0,1.4,0,2h2.4v1.1h-2.3
	c0,1.2,0.1,2.1,0.2,2.9c0.3-0.8,0.6-1.6,0.7-2.6l1.2,0.6c-0.3,1.3-0.7,2.4-1.3,3.5c-0.1,0.1-0.1,0.2-0.2,0.3
	c0.2,0.6,0.3,0.9,0.5,0.9c0.1,0,0.1-0.2,0.2-0.7c0,0,0-0.3,0.1-1l1.1,0.7c-0.2,1.2-0.5,1.9-0.8,2.3c-0.2,0.3-0.4,0.4-0.7,0.4
	c-0.3,0-0.7-0.3-1.1-0.8c-0.1-0.2-0.2-0.3-0.3-0.5c-0.3,0.4-0.7,0.7-1,1.1L87.9,32h-2.2v0.8h-1.4V32h-2.7v-1h2.7v-0.4H82v-3.5h2.3
	v-0.4h-2.5v-0.9h2.5v-0.5h-2.7v-1.1h2.7v-0.5H82v-1H84.2z M84.3,28.5V28h-1.1v0.5H84.3z M84.3,29.2h-1.1v0.5h1.1V29.2z M85.5,28.5
	h1.2V28h-1.2V28.5z M86.8,29.2h-1.2v0.5h1.2V29.2z M88.9,29.9c0-0.1-0.1-0.3-0.1-0.5c-0.2-0.9-0.3-2.3-0.4-4.2h-2.8v0.5h2.6v0.9
	h-2.6V27H88v3.5h-2.4v0.4h2.3C88.3,30.7,88.6,30.3,88.9,29.9z M91.8,23.3l-1,0.8c-0.2-0.4-0.6-0.8-1-1.3l1-0.6
	C91.2,22.5,91.5,22.9,91.8,23.3z"/>
<path class="st0" d="M102.7,26.9V30H99v0.4h4v0.8h-4v0.4h4.6v1H93v-1h4.5v-0.4h-3.9v-0.8h3.9V30H94v-3.1H102.7z M103.4,25.6v0.9
	H93.1v-0.9H103.4z M102.8,22.4v2.9h-8.9v-2.9H102.8z M101.2,23.5v-0.4h-5.7v0.4H101.2z M101.2,24.1h-5.7v0.4h5.7V24.1z M97.5,28.1
	v-0.4h-2.1v0.4H97.5z M97.5,28.8h-2.1v0.4h2.1V28.8z M99,28.1h2.3v-0.4H99V28.1z M101.2,28.8H99v0.4h2.3v-0.4H101.2z"/>
<path class="st0" d="M110.6,22.4c0.9,1.2,2.4,2.3,4.6,3l-0.6,1.5c-0.4-0.2-0.7-0.3-1-0.5V27h-3v1.2h2.9v1.3h-2.9v1.4h4.1v1.3H105V31
	h4v-1.4h-2.8v-1.3h2.8v-1.2h-2.9v-0.6c-0.3,0.2-0.6,0.3-0.9,0.5l-0.7-1.5c1.3-0.4,2.5-1,3.3-1.7h-1.6v-1.3h4.4V22.4z M112.3,25.7
	c-1.1-0.7-1.9-1.3-2.4-2h-0.2c-0.7,0.8-1.5,1.4-2.3,2H112.3z"/>
<path class="st0" d="M121.4,22.6c-0.5,0.9-1,1.7-1.6,2.4c-0.2,0.3-0.4,0.5-0.6,0.7c1.3,0,2.8-0.1,4.5-0.2c-0.5-0.5-1-1-1.5-1.5
	l1.1-0.8c1.2,1,2.3,2.2,3.3,3.5l-1.2,0.9c-0.2-0.3-0.4-0.6-0.7-1c-2.8,0.3-5.6,0.4-8.3,0.5l-0.2-1.5c0.3,0,0.7,0,0.9,0
	c0.4-0.3,0.7-0.6,1-1c0.5-0.6,1-1.4,1.5-2.5L121.4,22.6z M125.5,32.8H124v-0.6h-5.3v0.6h-1.5v-4.9h8.4L125.5,32.8L125.5,32.8z
	 M124,30.9v-1.6h-5.3v1.6H124z"/>
<path class="st0" d="M130.6,22.4c-0.1,0.2-0.2,0.4-0.3,0.5h2.7v1c0.4-0.5,0.6-1,0.9-1.7l1.4,0.2c-0.1,0.2-0.2,0.4-0.2,0.5h3V24h-1.7
	c0.2,0.4,0.3,0.7,0.4,1l-1.4,0.1c0-0.3-0.1-0.7-0.3-1.1h-0.5c-0.3,0.4-0.5,0.9-0.8,1.2h3.7v2.9h-3.8v0.7h4.1c0,0.6,0,0.9,0,0.9
	c0,1-0.1,1.6-0.3,1.9S137,32,136.6,32H135l-0.3-1.3c0.6,0.1,1,0.1,1.2,0.1c0.1,0,0.2-0.1,0.2-0.4c0,0,0-0.1,0-0.4h-2.6v2.7H132v-2.6
	c-1.2,1.2-2.5,1.9-3.9,2.3l-0.7-1.3c1.1-0.2,2.1-0.6,2.9-1.2H128l0.6-3h3.4v-0.6h-3.9v-1.2h5.2l-1-0.7c0.2-0.2,0.3-0.3,0.5-0.5h-1.4
	c0.1,0.4,0.3,0.7,0.3,0.9l-1.4,0.1c0-0.3-0.1-0.7-0.2-1.1h-0.6c-0.3,0.4-0.6,0.8-0.9,1.1l-1.2-0.9c0.8-0.6,1.4-1.3,1.7-2.1
	L130.6,22.4z M132.1,28.2H130l-0.1,0.7h2.3L132.1,28.2L132.1,28.2z M133.6,27h2.3v-0.6h-2.3V27z"/>
<path class="st0" d="M149.2,29.6v1.5h-9.8v-1.5H149.2z M148.2,23.8v1.5h-8v-1.5H148.2z"/>
<path class="st0" d="M154.9,25v-2.8h1.7V25h4.1v1.5h-4c0.2,0.9,0.6,1.7,1.2,2.5c0.8,1,1.9,1.8,3.2,2.4l-1,1.5
	c-1-0.6-1.9-1.3-2.7-2.1c-0.7-0.7-1.2-1.6-1.7-2.9c-0.3,1-0.7,1.9-1.3,2.6c-0.7,0.8-1.6,1.6-2.8,2.3l-1-1.3c1.3-0.7,2.4-1.6,3.1-2.6
	c0.5-0.8,0.9-1.6,1.1-2.4H151V25H154.9z"/>
<path class="st0" d="M163.7,33.2v-0.9h2.7v-4.8h0.9v5.7H163.7z"/>
<path class="st0" d="M5.7,44.5v-1.1h1.2v1.1h3.9v3.2H6.9v1h4.2v3.5H6.9v2H5.7v-2h-4v-3.5h4v-1H2v-3.2H5.7z M5.7,49.6H2.9v1.6h2.8
	V49.6z M5.7,45.5H3.1v1.3h2.6V45.5z M9.6,45.5H6.9v1.3h2.7V45.5z M9.9,49.6H6.8v1.6h3.1V49.6z"/>
<path class="st0" d="M14,45.5v-2.1h1v2.1h1.2v0.9H15v2.1c0.4-0.2,0.7-0.4,1.1-0.7v1.1c-0.4,0.2-0.7,0.5-1.1,0.6v3.1
	c0,0.4-0.1,0.7-0.3,0.9s-0.5,0.3-0.9,0.3H13l-0.2-1.1c0.3,0.1,0.6,0.1,0.8,0.1c0.3,0,0.4-0.1,0.4-0.3v-2.4c-0.4,0.2-0.8,0.3-1.3,0.5
	l-0.1-1.2c0.4-0.1,0.9-0.2,1.4-0.4v-2.6h-1.4v-0.9H14z M18.4,49.2c0.2-0.4,0.3-0.7,0.4-1.1l1,0.1c-0.1,0.3-0.3,0.7-0.4,1H23v1h-1
	c-0.4,0.7-0.8,1.3-1.3,1.8c0.8,0.3,1.5,0.7,2.1,1l-0.6,0.9c-0.6-0.4-1.4-0.8-2.4-1.2c-0.9,0.6-2.2,1-3.7,1.3l-0.4-0.9
	c1.3-0.2,2.3-0.5,3.1-0.8c-0.6-0.2-1.2-0.4-1.9-0.7c0.4-0.4,0.7-0.9,1-1.4h-1.6v-1H18.4z M20.1,44.6h2.7v0.9h-0.9
	c-0.1,0.6-0.3,1.1-0.6,1.6h1.8V48h-6.8v-0.9H18l-0.6-1.6h-0.9v-0.9H19c-0.1-0.4-0.3-0.7-0.4-1.1l1.1-0.1
	C19.8,43.8,20,44.2,20.1,44.6z M20.9,50.2H19c-0.2,0.3-0.4,0.6-0.6,0.9c0.5,0.2,0.9,0.4,1.4,0.5C20.2,51.3,20.6,50.8,20.9,50.2z
	 M20.2,47.1c0.3-0.5,0.5-1,0.6-1.6h-2.4l0.6,1.6H20.2z"/>
<path class="st0" d="M28.5,43.5v8c0.3-0.1,0.7-0.2,1-0.4v1.1c-1.5,0.6-3.2,1.1-5.2,1.6L24,52.5c1.1-0.2,2.3-0.4,3.4-0.7V48h-3.2v-1
	h3.2v-3.5H28.5z M31.2,43.5v3.9c1.1-0.5,2-1,2.7-1.6l0.7,1c-1,0.7-2.1,1.3-3.4,1.8v3.5c0,0.2,0,0.3,0.1,0.4c0.1,0.1,0.2,0.1,0.4,0.1
	h1.2c0.1,0,0.3,0,0.3-0.1c0.1-0.1,0.2-0.8,0.3-2.2l1.1,0.4c-0.1,1.5-0.3,2.3-0.5,2.6c-0.2,0.3-0.6,0.4-1,0.4h-1.8
	c-0.4,0-0.7-0.1-0.9-0.3c-0.3-0.3-0.4-0.7-0.4-1.1v-8.7L31.2,43.5L31.2,43.5z"/>
<path class="st0" d="M40,43.5v8c0.3-0.1,0.7-0.2,1-0.4v1.1c-1.5,0.6-3.2,1.1-5.2,1.6l-0.3-1.3c1.1-0.2,2.3-0.4,3.4-0.7V48h-3.2v-1
	h3.2v-3.5H40z M42.7,43.5v3.9c1.1-0.5,2-1,2.7-1.6l0.7,1c-1,0.7-2.1,1.3-3.4,1.8v3.5c0,0.2,0,0.3,0.1,0.4c0.1,0.1,0.2,0.1,0.4,0.1
	h1.2c0.1,0,0.3,0,0.3-0.1c0.1-0.1,0.2-0.8,0.3-2.2l1.1,0.4c-0.1,1.5-0.3,2.3-0.5,2.6c-0.2,0.3-0.6,0.4-1,0.4h-1.8
	c-0.4,0-0.7-0.1-0.9-0.3c-0.3-0.3-0.4-0.7-0.4-1.1v-8.7L42.7,43.5L42.7,43.5z"/>
<path class="st0" d="M48.6,45.6v-2.2h1v2.2h1.1v0.9h-1.1v0.2c0.4,0.5,0.9,1,1.3,1.6l-0.6,0.9c-0.3-0.5-0.5-0.9-0.7-1.3v6h-1v-5.2
	c-0.3,0.9-0.7,1.7-1.1,2.4l-0.4-1.2c0.6-1,1.1-2.1,1.5-3.4h-1.3v-0.9H48.6z M53.6,43.4v5.3c0,1.2-0.2,2.2-0.5,2.9
	c-0.3,0.8-0.9,1.6-1.8,2.4l-0.9-0.8c0.8-0.6,1.3-1.2,1.7-2c0.2-0.4,0.3-0.9,0.4-1.6c-0.5,0.4-1.1,0.8-1.7,1.1l-0.5-0.9
	c0.8-0.3,1.5-0.8,2.3-1.4v-5H53.6z M52.4,47.3l-0.9,0.4c-0.3-1-0.6-1.8-0.9-2.6l0.9-0.3C51.9,45.6,52.2,46.4,52.4,47.3z M55.2,43.4
	v4.4c0.9,0.5,1.7,1.2,2.4,1.9L57,50.6c-0.6-0.6-1.2-1.2-1.8-1.6v3.5c0,0.2,0.1,0.3,0.4,0.3H56c0.1,0,0.2-0.1,0.3-0.2
	c0.1-0.1,0.1-0.7,0.1-1.6l1,0.3c-0.1,1.2-0.2,1.9-0.4,2.1c-0.2,0.2-0.5,0.3-0.9,0.3h-1c-0.3,0-0.6-0.1-0.8-0.2
	c-0.2-0.2-0.3-0.4-0.3-0.7v-9.3h1.2V43.4z M57.4,45.2c-0.3,0.9-0.7,1.7-1.2,2.4L55.3,47c0.4-0.6,0.9-1.3,1.2-2.1L57.4,45.2z"/>
<path class="st0" d="M69,52.1v1.1H58.7v-1.1H69z M68.4,44.3v1.1h-9.3v-1.1H68.4z M67.8,48.1v1.1h-8v-1.1H67.8z"/>
<path class="st0" d="M72.4,44.6v-1.2h1v1.2h1.5v0.9h-1.5v1.3h0.7c0.6-0.6,1.1-1.4,1.7-2.4l0.8,0.4c-0.4,0.8-0.8,1.4-1.3,2h0.8v0.9
	h-1.6c-0.2,0.2-0.4,0.4-0.6,0.6c-0.2,0.2-0.4,0.4-0.7,0.5h2.4V54h-1v-0.7h-2.5V54h-1v-4c-0.2,0.1-0.4,0.2-0.7,0.3l-0.5-0.8
	c1.3-0.5,2.3-1.1,3.2-1.8h-2.9v-0.9h2.2v-1.3h-1.8v-0.9H72.4z M74.7,50.5v-0.9h-2.5v0.9H74.7z M74.7,52.4v-1.1h-2.5v1.1H74.7z
	 M80.5,43.9v0.8c-0.4,1.2-0.7,2.3-1.1,3.4c0.5,0.7,0.9,1.2,1,1.6c0.2,0.4,0.3,0.8,0.3,1.2c0,0.7-0.1,1.2-0.4,1.6
	c-0.3,0.4-1,0.5-2.1,0.5l-0.3-1.1c0.3,0.1,0.7,0.1,1,0.1c0.3,0,0.5-0.1,0.6-0.3c0.1-0.1,0.1-0.4,0.1-0.8c0-0.2-0.1-0.5-0.2-0.9
	c-0.2-0.4-0.5-1-1.1-1.8c0.4-1.2,0.8-2.2,1-3.2h-1.6v9h-1V44h3.8V43.9z"/>
<path class="st0" d="M83.9,46.9c-0.3,2.3-0.7,4.2-1.2,5.8L81.6,52c0.5-1.7,0.9-3.4,1.1-5.3L83.9,46.9z M85.8,46.2v6.1
	c0,0.3,0.1,0.4,0.4,0.4h2.1c0.1,0,0.3-0.1,0.3-0.3c0.1-0.2,0.1-1,0.2-2.4l1.1,0.3c-0.1,1.7-0.2,2.7-0.4,3s-0.5,0.5-1,0.5h-2.6
	c-0.3,0-0.6-0.1-0.8-0.3c-0.2-0.2-0.3-0.5-0.3-0.8v-6.5H85.8z M88.8,46.4l-1.1,0.8c-0.5-0.8-1.2-1.8-2.1-2.8l0.9-0.6
	C87.5,44.8,88.2,45.7,88.8,46.4z M92,51.7l-1.1,0.5c-0.4-1.9-0.9-3.7-1.5-5.2l1.1-0.4C91.1,48.3,91.6,50,92,51.7z"/>
<path class="st0" d="M5.8,66v-1.4h1.1V66h3.8v1.1H6.9v1.7h4.7v1.1H8.1c0.4,0.7,0.8,1.3,1.3,1.8c0.6,0.6,1.3,1.3,2.3,2l-0.8,1
	c-1.1-0.8-1.9-1.6-2.6-2.5c-0.5-0.6-1-1.4-1.4-2.3H6.8v5.3H5.7v-5.3H5.5c-0.3,0.8-0.7,1.4-1,1.8c-0.6,0.9-1.6,1.9-3,2.9l-0.6-1
	c1-0.7,1.8-1.4,2.4-2c0.4-0.4,0.8-1,1.1-1.6H0.9v-1.1h4.7v-1.7H1.7V66H5.8z"/>
<path class="st0" d="M17.2,65.8v-1.1h1.1v1.1h4.3v1h-4.3v2.6c0.4,0.9,1,1.6,1.6,2.3c0.6,0.7,1.7,1.5,3.1,2.2l-0.8,0.9
	c-1.1-0.7-1.9-1.3-2.6-1.9c-0.5-0.5-1-1.1-1.4-1.7V75h-1.1v-3.9c-0.4,0.6-0.8,1.1-1.2,1.4c-0.7,0.8-1.7,1.5-2.8,2.2l-0.6-1
	c1.1-0.6,2.1-1.3,2.9-2.1c0.6-0.6,1.2-1.4,1.7-2.2v-2.6H13v-1H17.2z M15.8,67.2c-0.1,0.6-0.3,1-0.4,1.4c0.4,0.4,0.8,0.8,1.2,1.2
	L16,70.7c-0.3-0.5-0.7-0.9-1-1.2c-0.3,0.6-0.8,1.3-1.4,2l-0.7-0.9c0.5-0.5,0.9-1.1,1.2-1.6c0.3-0.5,0.5-1.2,0.6-2L15.8,67.2z
	 M21.3,67.2c-0.1,0.6-0.3,1-0.4,1.4c0.6,0.5,1.2,1.1,1.8,1.7l-0.6,0.9c-0.5-0.7-1.1-1.3-1.6-1.8c-0.3,0.4-0.6,0.9-1,1.3l-0.7-0.9
	c0.4-0.4,0.7-0.8,1-1.2c0.2-0.4,0.4-0.9,0.5-1.6L21.3,67.2z"/>
<path class="st0" d="M26.7,64.6c0.5,0.6,0.9,1.2,1.3,1.9l-0.7,0.7c-0.3-0.7-0.6-1.2-0.9-1.6c-0.4,0.6-0.8,1.2-1.2,1.7h2.3v0.9h-0.8
	v1h1.2v0.9h-1.2v3.3c0.4-0.1,0.7-0.2,1.1-0.3V74c-1,0.4-2.2,0.6-3.5,0.9l-0.1-1c0.5,0,1.1-0.1,1.6-0.2v-3.5h-1.4v-0.9h1.4v-1h-0.9
	v-0.5c-0.1,0.1-0.2,0.3-0.4,0.4l-0.3-1c0.6-0.7,1.2-1.5,1.7-2.5h0.4h0.4V64.6z M25.4,73l-0.8,0.2c-0.1-0.8-0.2-1.5-0.3-2.3l0.7-0.2
	C25.2,71.4,25.3,72.2,25.4,73z M27.7,70.8c0,0.7-0.1,1.4-0.2,2l-0.7-0.2c0.1-0.6,0.2-1.3,0.2-1.9L27.7,70.8z M29.3,65.5v-0.8h0.9
	v0.8h1.3v0.8h-1.3V67h1.5c0-0.7,0-1.5,0-2.4h0.9c0,0.9,0,1.7,0,2.4h2v0.9h-2c0,1.4,0.1,2.5,0.1,3.4c0.3-0.8,0.6-1.8,0.8-3l0.9,0.1
	c-0.3,1.5-0.7,2.7-1.1,3.5c-0.1,0.3-0.3,0.6-0.4,0.9v0.1c0.2,0.7,0.4,1.1,0.5,1.1c0.2,0,0.4-0.5,0.5-1.5l0.7,0.6
	c-0.2,1-0.4,1.6-0.6,1.8s-0.4,0.3-0.6,0.3c-0.3,0-0.5-0.1-0.7-0.4c-0.2-0.3-0.3-0.6-0.5-0.9c-0.3,0.4-0.7,0.9-1.1,1.4l-0.6-0.7
	c0.1-0.1,0.3-0.3,0.4-0.4c-0.9,0.2-1.8,0.4-2.9,0.7L27.8,74c0.4,0,0.8-0.1,1.3-0.2v-0.9h-1V72h1v-0.6H28v-0.7h3.3v0.7H30V72h1.1v0.7
	H30v0.7c0.4-0.1,0.8-0.2,1.2-0.3v0.5c0.3-0.4,0.5-0.7,0.7-1.1c-0.2-1-0.3-2.6-0.3-4.8h-3.9V67h1.5v-0.7H28v-0.8H29.3z M31.3,68.3
	v1.9h-3.2v-1.9H31.3z M30.5,68.9h-1.6v0.6h1.6V68.9z M34.5,66.3l-0.8,0.5c-0.2-0.4-0.5-0.9-0.9-1.4l0.7-0.4
	C33.9,65.5,34.2,65.9,34.5,66.3z"/>
<path class="st0" d="M39.7,65v1.9c0.5-0.3,0.9-0.6,1.2-1c0.3-0.3,0.6-0.7,0.9-1.3l1.1,0.1c-0.1,0.3-0.3,0.6-0.4,0.8h3v0.8
	c-0.6,0.9-1.2,1.7-1.8,2.2c0.6,0.4,1.5,0.8,2.5,1.1l-0.4,0.9c-1.2-0.5-2.2-1-2.9-1.4c-0.8,0.6-1.8,1-3.1,1.4l-0.1-0.2v0.9h-1.2v1.9
	c0.5-0.1,0.9-0.3,1.4-0.4v0.9c-1.2,0.4-2.6,0.9-4.2,1.2l-0.3-1c0.2,0,0.4-0.1,0.6-0.1v-4.4h0.9v4.2c0.3,0,0.5-0.1,0.7-0.2v-4.8h-1.5
	V65H39.7z M38.8,65.9H37v1.9h1.8V65.9z M39.3,69.7c1.1-0.3,2-0.7,2.8-1.1c-0.4-0.3-0.7-0.7-1.1-1.2c-0.3,0.2-0.6,0.4-0.9,0.6
	l-0.4-0.6v1.3h-1.2v1.6h1.1L39.3,69.7z M45.4,75.2h-1v-0.5h-2.9v0.5h-1v-4.5h4.9V75.2z M44.4,73.7v-1.9h-2.9v1.9H44.4z M42.9,68
	c0.4-0.4,0.9-0.9,1.4-1.5h-2.4c-0.1,0.1-0.1,0.1-0.2,0.2C42.1,67.3,42.5,67.7,42.9,68z"/>
<path class="st0" d="M48.4,67.6v-2.9h1.1v2.9h1.2v1.1h-1.2v3.5c0.4-0.1,0.8-0.3,1.2-0.5v1.2c-1,0.5-2.1,0.9-3.4,1.2l-0.1-1.2
	c0.4,0,0.8-0.1,1.2-0.3v-3.8h-1.2v-1.1h1.2V67.6z M57.3,70.3c0,0.5-0.1,0.9-0.3,1.1c-0.2,0.3-0.7,0.4-1.5,0.4l-0.4-1.1h0.7
	c0.2,0,0.4,0,0.4-0.1c0-0.1,0.1-0.3,0.1-0.6v-2.1l-1.4,0.6v4.3h-1v-3.9l-1.3,0.5v4c0,0.3,0.1,0.4,0.4,0.4h3c0.2,0,0.4,0,0.5-0.1
	c0.1-0.1,0.2-0.5,0.3-1.3l1,0.3c-0.1,1.1-0.3,1.7-0.5,1.9c-0.2,0.2-0.6,0.3-1.1,0.3h-3.6c-0.3,0-0.6-0.1-0.8-0.3
	c-0.2-0.2-0.3-0.5-0.3-0.8v-4l-0.9,0.3V69l0.9-0.3v-2.8h1.1v2.4l1.3-0.5v-3.1h1v2.7l2.6-1C57.4,69,57.3,70.3,57.3,70.3z"/>
<path class="st0" d="M69,65.2v1h-5.2v1.9c1.3,0.8,2.7,1.6,4,2.6l-0.7,1.1c-1.4-1-2.5-1.8-3.3-2.4v5.7h-1.2v-8.9h-4v-1H69z"/>
<path class="st0" d="M73.7,65c-0.3,0.9-0.7,1.7-1,2.4v7.7h-1.1v-6c-0.4,0.5-0.8,1-1.2,1.5L70,69.2c0.6-0.6,1-1.3,1.5-2
	c0.4-0.6,0.8-1.5,1.2-2.7L73.7,65z M75.5,64.7v4.2c1.6-0.8,3-1.7,4.1-2.7l0.7,1c-1.4,1.2-3,2.1-4.8,2.9v3.6c0,0.3,0.1,0.4,0.4,0.4
	h2.7c0.2,0,0.4-0.1,0.5-0.3c0.1-0.2,0.2-1.1,0.3-2.6l1.1,0.3c-0.1,1.8-0.3,2.8-0.6,3.2c-0.2,0.3-0.6,0.5-1.2,0.5h-3.2
	c-0.3,0-0.6-0.1-0.8-0.3c-0.2-0.2-0.3-0.5-0.3-0.8v-9.3h1.1V64.7z"/>
<path class="st0" d="M84.4,64.9C84,66,83.5,67,83,67.8c0.3,0,0.6-0.1,0.9-0.1c0.3-0.5,0.5-1.1,0.8-1.7l0.9,0.3
	c-0.8,1.8-1.7,3.3-2.5,4.4c0.6,0,1.2-0.1,1.6-0.2c-0.1-0.4-0.2-0.8-0.3-1.2l0.8-0.2c0.3,0.7,0.5,1.5,0.7,2.4L85,71.7
	c0-0.2-0.1-0.3-0.1-0.4c-0.7,0.2-1.8,0.3-3.1,0.4l-0.3-0.9c0.2,0,0.4,0,0.6,0c0.4-0.6,0.9-1.3,1.3-2.1c-0.6,0.1-1.2,0.2-1.9,0.2
	L81.3,68c0.2,0,0.4,0,0.6,0c0.6-1,1-2.1,1.4-3.3L84.4,64.9z M82.8,72.2c-0.1,1.2-0.2,2.2-0.4,3l-0.9-0.3c0.2-0.9,0.4-1.8,0.4-2.8
	L82.8,72.2z M84.2,74.7l-0.9,0.1c0-1.1-0.1-2-0.1-2.6l0.8-0.1C84.1,72.8,84.2,73.7,84.2,74.7z M85.7,73.7c0.2-0.6,0.4-1.3,0.6-2.1
	l0.9,0.2c-0.2,1-0.5,2-0.8,2.8l-0.9-0.3v-0.1l-0.6,0.1c-0.1-0.8-0.3-1.5-0.4-2.2l0.8-0.2C85.4,72.4,85.5,73,85.7,73.7z M89.5,64.7
	c-0.1,0.3-0.3,0.5-0.5,0.8h2.7v5.2h-2.9c0.5,0.5,0.9,0.9,1.3,1.3l-0.7,0.7c-0.3-0.5-0.8-1-1.4-1.6l0.5-0.4h-2.6v-5.2h2
	c0.2-0.3,0.4-0.6,0.5-0.9L89.5,64.7z M90.7,66.3h-3.9v3.5h1.3l-0.2-0.4c0.3-0.3,0.6-0.6,0.9-0.9c-0.1-0.1-0.3-0.2-0.4-0.3
	c-0.3,0.4-0.6,0.7-1.1,1.1l-0.4-0.7c0.3-0.3,0.6-0.5,0.9-0.8c-0.3-0.2-0.6-0.4-0.9-0.6l0.5-0.5c0.3,0.2,0.5,0.3,0.7,0.5
	c0.1-0.2,0.2-0.4,0.3-0.7h0.7c-0.1,0.5-0.3,0.8-0.4,1.1c0.1,0.1,0.3,0.2,0.4,0.3c0.2-0.3,0.4-0.7,0.5-1.1h0.8
	c-0.2,0.7-0.4,1.2-0.6,1.5c0.3,0.2,0.5,0.4,0.7,0.6l-0.6,0.6c-0.2-0.2-0.4-0.4-0.6-0.5c-0.2,0.3-0.4,0.5-0.7,0.7h1.9v-3.4H90.7z
	 M88.3,71.6v2.2c0,0.2,0.1,0.3,0.4,0.3h0.7c0.2,0,0.3,0,0.4-0.1c0.1-0.1,0.1-0.4,0.2-1l0.9,0.3c-0.1,0.8-0.2,1.3-0.4,1.5
	C90.3,74.9,90,75,89.6,75h-1.2c-0.3,0-0.6-0.1-0.7-0.3c-0.2-0.2-0.3-0.4-0.3-0.7v-2.4H88.3z M92.2,73.9l-0.9,0.4
	c-0.3-1-0.7-2-1.1-2.8l0.9-0.3C91.6,72.1,91.9,73,92.2,73.9z"/>
<path class="st0" d="M96,64.9c-0.4,1.1-0.8,2-1.3,2.9c0.3,0,0.7-0.1,1-0.1c0.2-0.5,0.5-1,0.7-1.6l0.9,0.4c-0.8,1.8-1.6,3.2-2.5,4.4
	c0.6-0.1,1.1-0.1,1.5-0.3c-0.1-0.3-0.2-0.7-0.3-1l0.8-0.3c0.3,0.7,0.5,1.6,0.7,2.5L96.6,72c0-0.2-0.1-0.4-0.1-0.6
	c-0.8,0.2-1.9,0.4-3.2,0.5l-0.3-1c0.3,0,0.5,0,0.7,0c0.5-0.6,0.9-1.4,1.4-2.3c-0.6,0.1-1.3,0.2-2,0.3L92.9,68c0.2,0,0.4,0,0.6,0
	c0.5-1,1-2.1,1.4-3.3L96,64.9z M94.4,72.2c-0.1,1.2-0.2,2.1-0.4,2.9l-1-0.3c0.3-0.8,0.4-1.7,0.5-2.7L94.4,72.2z M96,74.6l-0.9,0.1
	c0-1.1-0.1-1.9-0.2-2.5l0.8-0.1C95.8,72.7,95.9,73.6,96,74.6z M97.5,73.9l-0.9,0.3c-0.1-0.7-0.3-1.4-0.4-2.1l0.8-0.2
	C97.2,72.7,97.4,73.3,97.5,73.9z M99.3,66.6c-0.3,0.6-0.7,1.2-1.1,1.8c0.6,0.6,1,1.2,1.3,1.7l-0.9,0.4c-0.4-0.6-0.8-1.3-1.3-2.1
	c0.5-0.6,0.9-1.3,1.3-2L99.3,66.6z M103.5,65.1V66h-6.1v-0.9H103.5z M103.3,70.6v0.9H101v2.4h2.5v0.9h-6v-0.9h2.5v-2.4h-2.2v-0.9
	H103.3z M101.4,66.6c-0.3,0.6-0.6,1.1-1,1.6c0.5,0.6,0.9,1.2,1.1,1.7l-0.9,0.4c-0.3-0.7-0.7-1.4-1.2-2.1c0.4-0.6,0.8-1.2,1.2-1.9
	L101.4,66.6z M103.4,66.6c-0.3,0.6-0.6,1.1-1,1.6c0.5,0.6,0.9,1.2,1.2,1.6l-0.9,0.4c-0.4-0.6-0.8-1.3-1.3-2c0.4-0.6,0.8-1.2,1.2-1.9
	L103.4,66.6z"/>
<path class="st0" d="M108.1,65.2v-0.6h1v0.6h1.6v-0.6h1v0.6h2.8v2.1h-2.8v0.5h3.3c0,1.1-0.2,1.8-0.5,1.9c-0.1,0.1-0.3,0.1-0.6,0.2
	v3.8h-2c1,0.1,2.1,0.3,3.2,0.6l-0.4,0.9c-1.1-0.3-2.3-0.6-3.5-0.8l0.4-0.8h-3.4l0.5,0.6c-0.6,0.2-1.1,0.4-1.5,0.5
	c-0.5,0.1-1.2,0.3-2,0.4l-0.5-0.9c0.8-0.1,1.4-0.2,2-0.3c0.4-0.1,0.8-0.2,1.2-0.3H106v-3.7c-0.3,0.1-0.6,0.1-1,0.2l-0.4-1
	c1-0.1,1.8-0.3,2.4-0.6h-2l0.4-2h2.7c0-0.2,0-0.4,0.1-0.6h-2.9v-0.8h2.8V65.2z M107.8,67.3h-1.6l-0.1,0.5h1.5
	C107.6,67.6,107.7,67.5,107.8,67.3z M112.8,70.5V70h-5.9v0.5H112.8z M112.8,71.7v-0.6h-5.9v0.6H112.8z M112.8,72.3h-5.9v0.6h5.9
	V72.3z M110.6,69.2v-0.6h-2.3l-0.1,0.1c-0.1,0.2-0.3,0.4-0.5,0.5H110.6z M110.6,67.3h-1.8c0,0.2-0.1,0.4-0.1,0.5h2L110.6,67.3
	L110.6,67.3z M109,66.5h1.7v-0.6H109C109,66.1,109,66.3,109,66.5z M111.6,66.5h1.8v-0.6h-1.8V66.5z M112.8,69.2V69
	c0.3,0.1,0.5,0.1,0.7,0.1c0.1,0,0.2,0,0.3-0.1c0.1,0,0.1-0.2,0.1-0.5h-2.3v0.6h1.2V69.2z"/>
<path class="st0" d="M120.5,70.6c0.1-0.4,0.1-0.9,0.2-1.3h1.1c0,0.5-0.1,0.9-0.1,1.3h2.4c-0.2-0.3-0.4-0.6-0.7-0.9l1.2-0.2
	c0.2,0.3,0.4,0.7,0.6,1.1h1.2v1h-3.9c0.3,0.5,0.7,1,1.2,1.3c0.7,0.5,1.7,0.9,2.9,1.3l-0.6,1.1c-1.4-0.5-2.5-1.1-3.2-1.7
	c-0.6-0.5-1.1-1.2-1.4-1.9c-0.2,0.5-0.4,1-0.7,1.3c-0.6,0.8-1.9,1.5-4,2.2l-0.8-0.9c1.7-0.5,2.9-1,3.5-1.6c0.3-0.3,0.6-0.6,0.7-1
	h-3.9v-1h4.3V70.6z M120.8,67.2c-0.4,0.7-1,1.2-1.5,1.6c-0.6,0.4-1.5,0.7-2.7,0.9l-0.6-1c1.3-0.2,2.1-0.5,2.6-0.7
	c0.4-0.2,0.9-0.6,1.3-1.3L120.8,67.2z M121.9,65.6h4.4v2.3h-1.1v-1.3H123V68c0,0.3,0.1,0.4,0.4,0.4h3.1v0.9h-3.3
	c-0.4,0-0.7-0.1-0.9-0.2c-0.2-0.1-0.3-0.4-0.3-0.7v-1.7h-4.5V68h-1.1v-2.3h4.3c-0.1-0.3-0.3-0.6-0.4-0.9l1.2-0.2
	C121.6,64.9,121.7,65.3,121.9,65.6z"/>
<path class="st0" d="M131.9,65.1v1H130c-0.2,0.9-0.3,1.6-0.5,2.1c0,0.1-0.1,0.2-0.1,0.3h2v5.4h-1.9v0.9h-1v-4.4
	c-0.2,0.3-0.3,0.6-0.5,0.9l-0.6-1c0.4-0.8,0.8-1.5,1-2.3c0.2-0.5,0.4-1.2,0.5-2h-1.2v-1L131.9,65.1L131.9,65.1z M130.5,73v-3.6h-0.9
	V73H130.5z M134.7,65.8v-1.2h1v1.2h2.4c-0.1,0.9-0.3,1.8-0.6,2.7l-1-0.3c0.2-0.4,0.3-0.9,0.5-1.5h-1.2v2.2h1.7v0.7
	c-0.3,1.3-0.7,2.2-1.2,2.9c-0.1,0.1-0.1,0.2-0.2,0.3c0.5,0.5,1.2,1,1.9,1.4l-0.6,1c-0.8-0.5-1.5-1-2-1.6c-0.6,0.5-1.3,1-2.2,1.6
	l-0.4-1c0.9-0.4,1.5-0.9,2-1.3l-0.1-0.1c-0.6-0.8-1-1.8-1.3-3h-0.2c0,0.7-0.1,1.5-0.2,2.3c-0.2,1.1-0.4,2.1-0.8,3.2l-0.9-0.8
	c0.3-0.9,0.5-1.7,0.7-2.7c0.1-1,0.1-1.9,0.1-2.7v-3.3h0.5H134.7z M134.7,68.9v-2.2h-1.5v2.2H134.7z M135.4,72c0.3-0.5,0.7-1.3,1-2.3
	h-2C134.7,70.7,135,71.4,135.4,72z"/>
<path class="st0" d="M142.5,65.4h2v0.9h-1.1l0.5,0.2c-0.2,0.6-0.4,1.2-0.6,1.6h1.2V69h-2.1v0.9h2.1v0.9h-2c0.8,0.6,1.4,1.1,2,1.7
	l-0.7,0.7c-0.4-0.4-0.8-0.9-1.4-1.3v3.3h-1v-3c-0.5,0.8-1.1,1.5-1.8,2.1l-0.6-0.9c0.9-0.7,1.7-1.5,2.2-2.5h-1.9V70h2.1v-1h-2.2v-0.9
	h1.3c-0.1-0.5-0.3-1-0.5-1.6l0.6-0.2h-1.3v-0.9h2c-0.1-0.3-0.3-0.5-0.5-0.7l1-0.1C142,64.8,142.3,65.1,142.5,65.4z M142.3,68.1
	c0.2-0.5,0.4-1.1,0.6-1.8h-2.1c0.2,0.5,0.4,1.1,0.6,1.8H142.3z M149.6,66c-1.1,0.3-2.2,0.5-3.5,0.5v1.9h3.5v0.9h-1.2v5.8h-1v-5.8
	h-1.3v1c0,0.8-0.2,1.7-0.4,2.6c-0.2,0.8-0.6,1.5-1.1,2.2l-0.8-0.8c0.4-0.6,0.7-1.2,0.9-1.7c0.2-0.6,0.3-1.4,0.3-2.2v-4.7
	c1.6,0,2.9-0.2,4-0.7L149.6,66z"/>
<path class="st0" d="M155.4,65c-0.7,1.4-1.5,2.6-2.3,3.4c0.2,0,0.4,0,0.6,0c1.7,0,3.4-0.1,5.2-0.4c-0.4-0.6-0.9-1.2-1.4-1.7l0.8-0.8
	c1.1,1.2,2,2.4,2.7,3.6l-0.9,0.9c-0.2-0.3-0.4-0.7-0.6-1c-2.3,0.3-5.1,0.5-8.4,0.5l-0.2-1.3c0.4,0,0.7,0.1,1.1,0.1
	c0.7-0.9,1.5-2.2,2.3-3.8L155.4,65z M160.1,75.2H159v-0.7h-6.1v0.7h-1.1v-4.9h8.4L160.1,75.2L160.1,75.2z M159,73.5v-2.2h-6.1v2.2
	H159z"/>
<path class="st0" d="M164.1,66.3h0.4v-1.7h0.9v1.7h0.4c0.2-0.4,0.4-0.9,0.6-1.4l0.9,0.3c-0.2,0.4-0.4,0.8-0.6,1.2h0.9v0.7
	c0.3-0.3,0.5-0.6,0.7-1c0.2-0.3,0.4-0.8,0.5-1.4l1,0.1c-0.1,0.4-0.2,0.7-0.3,1h2.9v0.9H172c-0.2,0.9-0.6,1.6-1,2.1
	c0,0.1-0.1,0.1-0.2,0.2c0.5,0.4,1.1,0.8,1.9,1.1l-0.6,0.9c-0.9-0.4-1.6-0.9-2-1.3c-0.5,0.4-1.1,0.8-1.9,1.3l-0.5-0.9
	c0.7-0.3,1.3-0.7,1.7-1c-0.4-0.5-0.7-1-0.9-1.5c-0.2,0.2-0.3,0.4-0.5,0.5l-0.4-0.5v2.3c0,0.3-0.1,0.5-0.3,0.7
	c-0.2,0.1-0.4,0.2-0.6,0.2h-0.6l-0.2-0.9h0.4c0.2,0,0.3-0.1,0.3-0.4v-2.2h-1.3v3.6h-0.9v-3.6h-1.2v3.5h-0.9v-4.4h0.9
	c-0.2-0.3-0.4-0.7-0.6-1.1l0.8-0.3C163.7,65.3,163.9,65.8,164.1,66.3z M171.9,73.7c0,0.3-0.1,0.6-0.3,0.8c-0.2,0.2-0.4,0.2-0.7,0.2
	h-1.6l-0.2-0.9h1.4c0.2,0,0.3-0.1,0.3-0.4v-1.1h-3.1v2.9h-1v-2.9H164v2.4h-1v-3.4h3.9v-0.6h1v0.6h4.1v2.4H171.9z M164.4,67.8
	c0,0.8-0.1,1.5-0.4,2.2l-0.7-0.2c0.2-0.7,0.4-1.4,0.4-2.1L164.4,67.8z M166.6,69.2l-0.7,0.2c-0.1-0.5-0.2-1-0.4-1.5l0.6-0.2
	C166.3,68.1,166.5,68.6,166.6,69.2z M170.2,68.3c0.4-0.4,0.6-1,0.8-1.6h-1.8C169.5,67.3,169.8,67.9,170.2,68.3z"/>
<path class="st0" d="M183.3,65.7c-1.1,0.3-2.4,0.6-3.9,0.8V69h4.7v1.1h-4.7v5.1h-1.2v-5.1h-4.7V69h4.7v-2.4
	c-1.1,0.1-2.4,0.1-3.7,0.1l-0.4-1.1c3.4,0,6.2-0.3,8.5-0.9L183.3,65.7z"/>
<path class="st0" d="M187.9,65c-0.2,0.9-0.5,1.6-0.7,2.2v7.9h-0.9v-6c-0.3,0.4-0.5,0.8-0.8,1.3l-0.4-1.3c0.4-0.6,0.7-1.3,1-1.9
	c0.3-0.6,0.6-1.5,0.9-2.6L187.9,65z M189.1,72.6c-0.2,0.9-0.5,1.6-0.8,2.3l-0.9-0.5c0.3-0.6,0.6-1.2,0.7-1.9L189.1,72.6z M192,65.4
	h3.1v0.8h-1.3l-0.4,0.9h2.1v0.8h-7.9v-0.8h2.1l-0.4-0.9h-1.2v-0.8h2.9c-0.1-0.2-0.3-0.4-0.4-0.6l1.1-0.1
	C191.8,64.9,191.9,65.1,192,65.4z M194.8,68.5V72h-6.5v-3.5H194.8z M193.7,69.9v-0.6h-4.4v0.6H193.7z M193.7,70.6h-4.4v0.5h4.4V70.6
	z M190.5,72.4V74c0,0.2,0.1,0.3,0.4,0.3h1.2c0.2,0,0.4,0,0.5-0.1c0.1-0.1,0.2-0.4,0.2-1.1l1,0.3c-0.1,0.8-0.3,1.3-0.5,1.4
	s-0.6,0.2-1.1,0.2h-1.7c-0.3,0-0.6-0.1-0.7-0.2c-0.2-0.2-0.3-0.4-0.3-0.6v-1.8H190.5z M192.3,67.1l0.4-0.9h-2.3l0.4,0.9H192.3z
	 M192.4,73.3l-0.8,0.5c-0.2-0.4-0.4-0.8-0.7-1.3l0.7-0.4C192,72.5,192.2,72.9,192.4,73.3z M195.7,74.4l-0.9,0.4
	c-0.3-0.8-0.7-1.6-1-2.2l0.9-0.3C195,73,195.4,73.7,195.7,74.4z"/>
<path class="st0" d="M206.9,68.2v1.1h-3.2v4.3c0,0.3,0.1,0.4,0.4,0.4h1.2c0.2,0,0.4-0.1,0.5-0.2c0.1-0.1,0.2-0.8,0.3-2l1.1,0.4
	c-0.1,1.4-0.3,2.3-0.6,2.5c-0.2,0.3-0.6,0.4-1.2,0.4h-1.7c-0.4,0-0.7-0.1-0.9-0.3c-0.2-0.2-0.3-0.5-0.3-0.8v-4.7h-1.7
	c-0.1,1.5-0.3,2.7-0.7,3.5c-0.4,0.9-1.3,1.7-2.7,2.4l-0.8-0.9c1.2-0.5,1.9-1.1,2.3-1.7c0.5-0.7,0.7-1.8,0.8-3.2h-2.9v-1.1
	L206.9,68.2L206.9,68.2z M205.9,65.2v1.1h-8.1v-1.1H205.9z"/>
<path class="st0" d="M3.9,86.1C3.5,87.2,3,88.2,2.5,89c0.3,0,0.6-0.1,0.9-0.1c0.3-0.5,0.5-1.1,0.8-1.7l0.9,0.3
	c-0.8,1.8-1.7,3.3-2.5,4.4c0.6,0,1.2-0.1,1.6-0.2c-0.1-0.4-0.2-0.8-0.3-1.2l0.8-0.2C5,91,5.2,91.8,5.4,92.7l-0.9,0.2
	c0-0.2-0.1-0.3-0.1-0.4c-0.7,0.2-1.8,0.3-3.1,0.4L1,92c0.2,0,0.4,0,0.6,0c0.4-0.6,0.9-1.3,1.3-2.1C2.3,90,1.7,90.1,1,90.1l-0.2-0.9
	c0.2,0,0.4,0,0.6,0c0.6-1,1-2.1,1.4-3.3L3.9,86.1z M2.3,93.4c-0.1,1.2-0.2,2.2-0.4,3L1,96.1c0.2-0.9,0.4-1.8,0.4-2.8L2.3,93.4z
	 M3.7,95.9L2.8,96c0-1.1-0.1-2-0.1-2.6l0.8-0.1C3.6,94,3.7,94.9,3.7,95.9z M5.2,94.9c0.2-0.6,0.4-1.3,0.6-2.1L6.7,93
	c-0.2,1-0.5,2-0.8,2.8L5,95.5v-0.1l-0.6,0.1C4.3,94.7,4.1,94,4,93.3l0.8-0.2C4.9,93.6,5,94.2,5.2,94.9z M9,85.9
	c-0.1,0.3-0.3,0.5-0.5,0.8h2.7v5.2H8.3c0.5,0.5,0.9,0.9,1.3,1.3l-0.7,0.7c-0.3-0.5-0.8-1-1.4-1.6L8,91.9H5.4v-5.2h2
	c0.2-0.3,0.4-0.6,0.5-0.9L9,85.9z M10.2,87.5H6.3V91h1.3l-0.2-0.4C7.7,90.3,8,90,8.3,89.7c-0.1-0.1-0.3-0.2-0.4-0.3
	c-0.3,0.4-0.6,0.7-1.1,1.1l-0.4-0.7C6.7,89.5,7,89.3,7.3,89c-0.3-0.2-0.6-0.4-0.9-0.6L7,88c0.3,0.2,0.5,0.3,0.7,0.5
	c0.1-0.2,0.2-0.4,0.3-0.7h0.7c-0.1,0.5-0.3,0.8-0.4,1.1c0.1,0.1,0.3,0.2,0.4,0.3c0.2-0.3,0.4-0.7,0.5-1.1H10
	c-0.2,0.7-0.4,1.2-0.6,1.5c0.3,0.2,0.5,0.4,0.7,0.6l-0.6,0.6c-0.2-0.2-0.4-0.4-0.6-0.5c-0.2,0.3-0.4,0.5-0.7,0.7h1.9L10.2,87.5
	L10.2,87.5z M7.8,92.8V95c0,0.2,0.1,0.3,0.4,0.3h0.7c0.2,0,0.3,0,0.4-0.1c0.1-0.1,0.1-0.4,0.2-1l0.9,0.3c-0.1,0.8-0.2,1.3-0.4,1.5
	c-0.2,0.1-0.5,0.2-0.9,0.2H7.9c-0.3,0-0.6-0.1-0.7-0.3c-0.2-0.2-0.3-0.4-0.3-0.7v-2.4H7.8z M11.7,95.1l-0.9,0.4
	c-0.3-1-0.7-2-1.1-2.8l0.9-0.3C11.1,93.3,11.4,94.2,11.7,95.1z"/>
<path class="st0" d="M16.7,89H17v2.1h-0.6v4.2c0,0.3-0.1,0.6-0.2,0.8c-0.1,0.2-0.3,0.2-0.6,0.2H15l-0.2-0.9h0.5
	c0.2,0,0.3-0.2,0.3-0.4v-0.6H14v1.9h-0.9V91h-0.5v-2H13v-2.9h3.7V89z M16.1,90.5v-0.7h-2.5v0.7H16.1z M14.4,89v-1.4h1.4V87h-2v2
	H14.4z M15.5,92.1v-0.7H14v0.7H15.5z M15.5,93.6v-0.8H14v0.8H15.5z M15.8,89v-0.7h-0.7V89H15.8z M23.1,90.7v0.9h-6v-0.9H23.1z
	 M22.6,92.1v2.2H22l-0.4,0.9H23v0.9h-5.9v-0.9h1.6l-0.4-0.9h-0.7v-2.2H22.6z M18.9,86.6v-0.8h0.8v0.8h0.8v-0.8h0.8v0.8h1.6v3.7h-5.6
	v-3.7H18.9z M18.9,88v-0.7h-0.7V88H18.9z M18.9,88.7h-0.7v0.7h0.7V88.7z M21.6,92.9h-3.2v0.7h3.2V92.9z M20.6,95.3l0.4-0.9h-1.7
	l0.4,0.9H20.6z M19.7,88h0.8v-0.7h-0.8V88z M20.5,88.7h-0.8v0.7h0.8V88.7z M21.3,88H22v-0.7h-0.8L21.3,88L21.3,88z M22,88.7h-0.8
	v0.7H22V88.7z"/>
<path class="st0" d="M27.1,87.1H29V88h-4.9v-0.9h2c-0.2-0.4-0.4-0.8-0.7-1.2l1.1-0.1C26.7,86.2,26.9,86.6,27.1,87.1z M28.6,88.8v0.9
	h-4.1v-0.9H28.6z M28.6,90.5v0.9h-4.1v-0.9H28.6z M25.6,96.3h-1v-4.1h4v4h-1v-0.6h-1.9v0.7H25.6z M27.5,93.1h-1.9v1.4h1.9V93.1z
	 M31.4,89.1v-3.3h1.1v3.3h2.2v1h-2.2v6.2h-1.1v-6.2h-2.2v-1H31.4z"/>
<path class="st0" d="M38.4,86.4v-0.6h1v0.6h2.5v1.2h0.7v0.7h-0.7v1.2h-2.5V90H42v0.7h-2.6v0.4h3v0.7h-6.7v-0.7h2.7v-0.4H36V90h2.4
	v-0.5h-2.3v-0.7h2.3v-0.5h-2.9v-0.7h2.9V87h-2.3v-0.7L38.4,86.4L38.4,86.4z M42.3,95.8c-1.3,0.1-3.5,0.3-6.7,0.4l-0.1-0.9
	c2.7,0,4.9-0.1,6.8-0.3V95.8z M41.8,92.2v2.6H36v-2.6H41.8z M38.5,93.2v-0.4H37v0.4H38.5z M38.5,93.7H37v0.4h1.5V93.7z M39.4,87.5
	h1.5V87h-1.5V87.5z M39.4,88.8h1.5v-0.5h-1.5V88.8z M39.5,93.2H41v-0.4h-1.5V93.2z M40.9,93.7h-1.5v0.4h1.5V93.7z M45.8,85.8v9.3
	c0,0.4-0.1,0.7-0.3,0.9c-0.2,0.2-0.5,0.3-0.9,0.3h-1.5l-0.2-1.2c0.6,0.1,1.1,0.1,1.5,0.1c0.3,0,0.4-0.1,0.4-0.3v-9.1H45.8z M44,86.6
	v7.3h-1v-7.3H44z"/>
<path class="st0" d="M50.8,95.2h-1v-0.9h-1.4v1.1h-1v-8.9h3.4V95.2z M49.8,90v-2.4h-1.4V90H49.8z M49.8,93.4V91h-1.4v2.4H49.8z
	 M53.8,86.9v-1.1h1v1.1h2.5v1h-2.5v1.2h2.9v1h-1.1v1.2h1.2v1h-1.2V95c0,0.4-0.1,0.7-0.3,0.9c-0.2,0.2-0.5,0.3-0.9,0.3H54l-0.2-1.1
	c0.6,0.1,1,0.1,1.4,0.1c0.3,0,0.4-0.1,0.4-0.3v-2.6H51v-1h4.5v-1.2h-4.4v-1h2.7v-1.2h-2.4v-1H53.8z M54.2,94.3l-1,0.7
	c-0.4-0.5-0.9-1.2-1.6-1.8l0.9-0.5C53.2,93.3,53.8,93.8,54.2,94.3z"/>
<path class="st0" d="M62.7,86.9c-0.4,0.1-0.9,0.3-1.4,0.4V89h1.4v0.9h-1.4v0.5c0.5,0.5,1,1.1,1.6,1.7L62.3,93c-0.4-0.6-0.7-1-1-1.4
	v4.8h-1v-4.7c0,0.1,0,0.1-0.1,0.1c-0.4,0.9-0.8,1.7-1.4,2.4l-0.4-1.1c0.7-0.9,1.3-1.9,1.8-3.1h-1.6v-0.9h1.7v-1.5
	c-0.4,0.1-0.8,0.1-1.3,0.1l-0.2-0.9c1.3-0.1,2.5-0.3,3.5-0.7L62.7,86.9z M68.7,91c-0.7,0.2-1.5,0.3-2.4,0.4v1.2h2.4v0.9h-2.4V95h2.8
	v0.9h-6.8V95h3v-1.5H63v-0.9h2.3v-1.1c-0.7,0-1.4,0.1-2.2,0.1l-0.3-0.9c2.1,0,3.9-0.2,5.4-0.5L68.7,91z M68.6,86.2v3.4h-5.4v-3.4
	H68.6z M67.5,87.1h-3.3v1.6h3.3V87.1z"/>
<path class="st0" d="M80.1,96.4h-1v-0.7h-7.5v0.7h-1v-8.8h4.1v-1.8h1.1v1.8h4.3V96.4z M74.7,91v-2.4h-3.1V91H74.7z M74.7,94.6v-2.7
	h-3.1v2.7H74.7z M75.8,91H79v-2.4h-3.2V91z M79.1,94.6v-2.7h-3.2v2.7H79.1z"/>
<path class="st0" d="M83.4,93.9c0.3-0.6,0.8-1.1,1.6-1.6l1.2-0.7c0.5-0.3,0.9-0.6,1.1-0.8c0.3-0.4,0.5-0.8,0.5-1.2
	c0-0.5-0.2-1-0.5-1.3C87,88,86.6,87.8,86,87.8c-0.8,0-1.3,0.3-1.6,0.9c-0.2,0.3-0.2,0.8-0.3,1.3h-1.2c0-0.8,0.2-1.4,0.4-1.9
	c0.5-0.9,1.4-1.3,2.6-1.3c1,0,1.8,0.3,2.3,0.8c0.5,0.6,0.7,1.2,0.7,1.9c0,0.7-0.3,1.3-0.8,1.9c-0.3,0.3-0.8,0.7-1.6,1.1L85.6,93
	c-0.4,0.2-0.7,0.4-1,0.7c-0.4,0.4-0.7,0.8-0.8,1.2h5V96h-6.2C82.9,95.2,83.1,94.5,83.4,93.9z"/>
<path class="st0" d="M96.6,88.3c0.4,0.7,0.6,1.8,0.6,3.1c0,1.2-0.2,2.3-0.6,3.1c-0.5,1.2-1.4,1.7-2.6,1.7c-1.1,0-1.9-0.5-2.4-1.4
	c-0.4-0.8-0.7-1.9-0.7-3.2c0-1,0.1-1.9,0.4-2.7c0.5-1.4,1.4-2.1,2.7-2.1C95.2,86.8,96,87.3,96.6,88.3z M95.4,94.4
	c0.4-0.5,0.5-1.5,0.5-2.9c0-1-0.1-1.9-0.4-2.5c-0.3-0.7-0.7-1-1.5-1c-0.7,0-1.2,0.3-1.5,0.9S92,90.5,92,91.7c0,0.9,0.1,1.7,0.3,2.2
	c0.3,0.9,0.8,1.3,1.6,1.3C94.6,95.1,95.1,94.9,95.4,94.4z"/>
<path class="st0" d="M99.4,93.9c0.3-0.6,0.8-1.1,1.6-1.6l1.2-0.7c0.5-0.3,0.9-0.6,1.1-0.8c0.3-0.4,0.5-0.8,0.5-1.2
	c0-0.5-0.2-1-0.5-1.3c-0.3-0.3-0.7-0.5-1.3-0.5c-0.8,0-1.3,0.3-1.6,0.9c-0.2,0.3-0.2,0.8-0.3,1.3h-1.2c0-0.8,0.2-1.4,0.4-1.9
	c0.5-0.9,1.4-1.3,2.6-1.3c1,0,1.8,0.3,2.3,0.8c0.5,0.6,0.7,1.2,0.7,1.9c0,0.7-0.3,1.3-0.8,1.9c-0.3,0.3-0.8,0.7-1.6,1.1L102,93
	c-0.4,0.2-0.7,0.4-1,0.7c-0.4,0.4-0.7,0.8-0.8,1.2h5V96H99C99,95.2,99.1,94.5,99.4,93.9z"/>
<path class="st0" d="M112.6,88.3c0.4,0.7,0.6,1.8,0.6,3.1c0,1.2-0.2,2.3-0.6,3.1c-0.5,1.2-1.4,1.7-2.6,1.7c-1.1,0-1.9-0.5-2.4-1.4
	c-0.4-0.8-0.7-1.9-0.7-3.2c0-1,0.1-1.9,0.4-2.7c0.5-1.4,1.4-2.1,2.7-2.1C111.2,86.8,112.1,87.3,112.6,88.3z M111.4,94.4
	c0.4-0.5,0.5-1.5,0.5-2.9c0-1-0.1-1.9-0.4-2.5c-0.3-0.7-0.7-1-1.5-1c-0.7,0-1.2,0.3-1.5,0.9s-0.5,1.6-0.5,2.8c0,0.9,0.1,1.7,0.3,2.2
	c0.3,0.9,0.8,1.3,1.6,1.3C110.6,95.1,111.1,94.9,111.4,94.4z"/>
<path class="st0" d="M119.6,92.1V91h1.2v1.2h3.6v1h-3.6V95h4.6v1h-10.3v-1h4.5v-1.8H116v-1L119.6,92.1L119.6,92.1z M125.3,86.3v1
	H120c-0.3,0.7-0.8,1.5-1.4,2.2c1.5,0,2.7-0.1,3.8-0.2c-0.3-0.3-0.7-0.7-1.1-1l0.9-0.5c1.2,1,2.2,1.9,2.9,2.6l-1,0.7
	c-0.2-0.3-0.5-0.6-0.8-0.9c-1.7,0.2-4.2,0.4-7.5,0.5l-0.3-1.1c0.6,0,1.2,0,1.8,0c0.6-0.7,1.2-1.4,1.6-2.2h-3.5v-1L125.3,86.3
	L125.3,86.3z"/>
<path class="st0" d="M128.3,93.9c0.3-0.6,0.8-1.1,1.6-1.6l1.2-0.7c0.5-0.3,0.9-0.6,1.1-0.8c0.3-0.4,0.5-0.8,0.5-1.2
	c0-0.5-0.2-1-0.5-1.3s-0.7-0.5-1.3-0.5c-0.8,0-1.3,0.3-1.6,0.9c-0.2,0.3-0.2,0.8-0.3,1.3h-1c0-0.8,0.2-1.4,0.4-1.9
	c0.5-0.9,1.4-1.3,2.6-1.3c1,0,1.8,0.3,2.3,0.8c0.5,0.6,0.7,1.2,0.7,1.9c0,0.7-0.3,1.3-0.8,1.9c-0.3,0.3-0.8,0.7-1.6,1.1l-0.9,0.5
	c-0.4,0.2-0.7,0.4-1,0.7c-0.4,0.4-0.7,0.8-0.8,1.2h5V96h-6.2C127.9,95.2,128,94.5,128.3,93.9z"/>
<path class="st0" d="M141.5,88.3c0.4,0.7,0.6,1.8,0.6,3.1c0,1.2-0.2,2.3-0.6,3.1c-0.5,1.2-1.4,1.7-2.6,1.7c-1.1,0-1.9-0.5-2.4-1.4
	c-0.4-0.8-0.7-1.9-0.7-3.2c0-1,0.1-1.9,0.4-2.7c0.5-1.4,1.4-2.1,2.7-2.1C140.1,86.8,141,87.3,141.5,88.3z M140.3,94.4
	c0.4-0.5,0.5-1.5,0.5-2.9c0-1-0.1-1.9-0.4-2.5c-0.3-0.7-0.7-1-1.5-1c-0.7,0-1.2,0.3-1.5,0.9c-0.3,0.6-0.5,1.6-0.5,2.8
	c0,0.9,0.1,1.7,0.3,2.2c0.3,0.9,0.8,1.3,1.6,1.3C139.5,95.1,140,94.9,140.3,94.4z"/>
<path class="st0" d="M144.5,95.3c-0.5-0.6-0.7-1.3-0.7-2.2h1.2c0.1,0.6,0.2,1,0.3,1.3c0.3,0.5,0.8,0.7,1.6,0.7
	c0.6,0,1.1-0.2,1.4-0.5c0.4-0.3,0.5-0.7,0.5-1.2c0-0.6-0.2-1.1-0.6-1.3c-0.4-0.2-0.9-0.4-1.6-0.4c-0.1,0-0.2,0-0.2,0
	c-0.1,0-0.2,0-0.2,0v-1c0.1,0,0.2,0,0.3,0s0.2,0,0.3,0c0.4,0,0.8-0.1,1.1-0.2c0.5-0.2,0.7-0.7,0.7-1.3c0-0.5-0.2-0.8-0.5-1
	c-0.3-0.2-0.7-0.4-1.1-0.4c-0.8,0-1.3,0.3-1.6,0.8c-0.2,0.3-0.3,0.7-0.3,1.2H144c0-0.7,0.1-1.3,0.4-1.7c0.5-0.8,1.3-1.3,2.5-1.3
	c0.9,0,1.6,0.2,2.2,0.6c0.5,0.4,0.8,1,0.8,1.8c0,0.6-0.2,1-0.5,1.4c-0.2,0.2-0.4,0.4-0.7,0.5c0.5,0.1,0.9,0.4,1.1,0.8
	c0.3,0.4,0.4,0.8,0.4,1.4c0,0.9-0.3,1.6-0.9,2.1c-0.6,0.5-1.4,0.8-2.4,0.8C145.7,96.2,144.9,95.9,144.5,95.3z"/>
<path class="st0" d="M157.5,88.3c0.4,0.7,0.6,1.8,0.6,3.1c0,1.2-0.2,2.3-0.6,3.1c-0.5,1.2-1.4,1.7-2.6,1.7c-1.1,0-1.9-0.5-2.4-1.4
	c-0.4-0.8-0.7-1.9-0.7-3.2c0-1,0.1-1.9,0.4-2.7c0.5-1.4,1.4-2.1,2.7-2.1C156.1,86.8,157,87.3,157.5,88.3z M156.4,94.4
	c0.4-0.5,0.5-1.5,0.5-2.9c0-1-0.1-1.9-0.4-2.5c-0.3-0.7-0.7-1-1.5-1c-0.7,0-1.2,0.3-1.5,0.9s-0.5,1.6-0.5,2.8c0,0.9,0.1,1.7,0.3,2.2
	c0.3,0.9,0.8,1.3,1.6,1.3C155.5,95.1,156,94.9,156.4,94.4z"/>
<path class="st0" d="M163.6,86.3c-0.1,0.3-0.3,0.5-0.4,0.8h7.1V88h-3.7v1.7h3.4v0.9h-3.4v2.3h3.8v1h-3.8v2.4h-1.1v-2.4H160v-1h1.8
	v-3.2h3.7V88h-2.9c-0.1,0.1-0.2,0.2-0.3,0.3c-0.5,0.6-1.1,1.2-1.8,1.7l-0.6-1c0.6-0.3,1.1-0.8,1.6-1.5c0.4-0.5,0.8-1.1,1.2-1.9
	L163.6,86.3z M165.5,90.6h-2.6v2.3h2.6V90.6z"/>
<path class="st0" d="M173.6,89.5v-0.9c0.8-0.1,1.4-0.2,1.7-0.4c0.3-0.2,0.6-0.6,0.7-1.3h0.9V96h-1.2v-6.4L173.6,89.5L173.6,89.5z"/>
<path class="st0" d="M181.2,93.9c0.3-0.6,0.8-1.1,1.6-1.6l1.2-0.7c0.5-0.3,0.9-0.6,1.1-0.8c0.3-0.4,0.5-0.8,0.5-1.2
	c0-0.5-0.2-1-0.5-1.3c-0.3-0.3-0.7-0.5-1.3-0.5c-0.8,0-1.3,0.3-1.6,0.9c-0.2,0.3-0.2,0.8-0.3,1.3H181c0-0.8,0.2-1.4,0.4-1.9
	c0.5-0.9,1.4-1.3,2.6-1.3c1,0,1.8,0.3,2.3,0.8c0.5,0.6,0.7,1.2,0.7,1.9c0,0.7-0.3,1.3-0.8,1.9c-0.3,0.3-0.8,0.7-1.6,1.1l-0.9,0.5
	c-0.4,0.2-0.7,0.4-1,0.7c-0.4,0.4-0.7,0.8-0.8,1.2h5V96h-6.2C180.8,95.2,180.9,94.5,181.2,93.9z"/>
<path class="st0" d="M198.4,86.3V95c0,0.4-0.1,0.7-0.4,0.9c-0.2,0.2-0.5,0.3-1,0.3h-1.4l-0.2-1.1h1.4c0.3,0,0.4-0.2,0.4-0.5v-1.9
	h-5.8c0,0.3-0.1,0.6-0.2,1c-0.3,0.9-0.7,1.8-1.3,2.7l-1-0.9c0.6-0.7,1-1.4,1.3-2.2c0.2-0.8,0.3-1.5,0.3-2.2v-4.9h0.5L198.4,86.3
	L198.4,86.3z M197.3,91.8V90h-5.7v1.3c0,0.2,0,0.4,0,0.5H197.3z M197.3,89v-1.7h-5.7V89H197.3z"/>
<path class="st0" d="M2.6,109.2V107h1v2.2h1.1v0.9H3.6v0.2c0.4,0.5,0.9,1,1.3,1.6l-0.6,0.9c-0.3-0.5-0.5-0.9-0.7-1.3v6h-1v-5.2
	c-0.3,0.9-0.7,1.7-1.1,2.4l-0.4-1.2c0.6-1,1.1-2.1,1.5-3.4H1.3v-0.9H2.6z M7.6,107v5.3c0,1.2-0.2,2.2-0.5,2.9
	c-0.3,0.8-0.9,1.6-1.8,2.4l-0.9-0.8c0.8-0.6,1.3-1.2,1.7-2c0.2-0.4,0.3-0.9,0.4-1.6c-0.5,0.4-1.1,0.8-1.7,1.1l-0.5-0.9
	c0.8-0.3,1.5-0.8,2.3-1.5v-5L7.6,107L7.6,107z M6.4,110.9l-0.9,0.4c-0.3-1-0.6-1.8-0.9-2.6l0.9-0.3C5.9,109.2,6.2,110,6.4,110.9z
	 M9.2,107v4.4c0.9,0.5,1.7,1.2,2.4,1.9l-0.6,0.9c-0.6-0.6-1.2-1.2-1.8-1.6v3.5c0,0.2,0.1,0.3,0.4,0.3H10c0.1,0,0.2-0.1,0.3-0.2
	c0.1-0.1,0.1-0.7,0.1-1.6l1,0.3c-0.1,1.2-0.2,1.9-0.4,2.1s-0.5,0.3-0.9,0.3h-1c-0.3,0-0.6-0.1-0.8-0.2c-0.2-0.2-0.3-0.4-0.3-0.7V107
	H9.2z M11.4,108.8c-0.3,0.9-0.7,1.7-1.2,2.4l-0.9-0.6c0.4-0.6,0.9-1.3,1.2-2.1L11.4,108.8z"/>
<path class="st0" d="M22.8,117.5h-1v-0.4h-7.9v0.4h-1v-10.2h9.9V117.5z M21.8,116.2v-8h-7.9v8H21.8z M20.9,111.4v2.1h-3.2
	c-0.1,0.1-0.1,0.1-0.1,0.2v2.2h-0.9v-1.4c-0.6,0.4-1.3,0.8-2.1,1l-0.5-0.8c0.8-0.2,1.4-0.5,1.9-0.8c0.2-0.1,0.5-0.3,0.6-0.5H15v-2.1
	L20.9,111.4L20.9,111.4z M17.2,108.9v-0.5h0.9v0.5h2.7v0.7h-2.7v0.6h3.2v0.8h-7.2v-0.8h3.1v-0.6h-2.6v-0.7H17.2z M20,112.2h-4.2v0.6
	H20V112.2z M19.4,114.3c0.2-0.2,0.4-0.5,0.5-0.7l0.9,0.5c-0.1,0.2-0.3,0.4-0.5,0.6c0.4,0.2,0.8,0.4,1.1,0.6l-0.5,0.8
	c-1-0.6-2-1.2-3.1-1.5l0.4-0.7C18.7,114,19.1,114.2,19.4,114.3z"/>
<path class="st0" d="M25.6,107.8v2.1h1.3v-2.8h1v10.3h-1v-4.5h-0.8c0,1.1-0.1,1.8-0.2,2.2c-0.1,0.8-0.4,1.5-0.8,2.2l-0.9-0.7
	c0.3-0.5,0.6-1,0.7-1.6c0.1-0.5,0.1-1.2,0.2-2.2h-0.9V112h2.7v-1.1h-2.3v-3.1H25.6z M31.2,107.4c-0.1,0.2-0.3,0.4-0.4,0.5h3.5v0.8
	c-0.5,0.9-1.2,1.6-2,2.2c-1.1,0.9-2.4,1.4-3.8,1.8l-0.4-0.9c0.5-0.1,0.9-0.2,1.4-0.3c-0.3-0.3-0.7-0.6-1-0.9l0.7-0.4
	c0.5,0.4,0.9,0.7,1.3,1c0.2-0.1,0.5-0.2,0.7-0.4c-0.4-0.3-0.9-0.6-1.4-1l0.6-0.6c0.6,0.3,1.1,0.7,1.6,1c0.4-0.4,0.9-0.8,1.2-1.3
	h-2.9c-0.4,0.5-0.9,0.9-1.4,1.2l-0.7-0.9c1-0.6,1.7-1.2,2.2-2L31.2,107.4z M32.4,112.7v-1.2h1.1v1.2h1.1v1h-1.1v2.6
	c0,0.4-0.1,0.7-0.3,0.8c-0.2,0.2-0.5,0.3-0.9,0.3H31l-0.2-1.1c0.5,0.1,0.9,0.1,1.2,0.1s0.4-0.1,0.4-0.3v-2.4h-4.2v-1H32.4z
	 M31,115.8l-1,0.7c-0.3-0.6-0.7-1.2-1.2-1.9l0.9-0.5C30.2,114.8,30.6,115.3,31,115.8z"/>
<path class="st0" d="M45.8,107.7v1h-3.5c-0.2,0.5-0.5,1-0.8,1.4v7.5h-1.2v-6c-0.1,0.1-0.2,0.2-0.3,0.3c-1,1-2.2,2-3.7,2.8l-0.7-0.9
	c1.4-0.8,2.6-1.6,3.6-2.6c0.6-0.6,1.3-1.4,1.8-2.5h-5.2v-1H45.8z M45.8,113.7l-0.9,0.9c-0.7-0.9-1.6-1.9-2.8-3l0.8-0.8
	C44.1,111.8,45.1,112.8,45.8,113.7z"/>
<path class="st0" d="M51.2,113.8c-0.9,1.4-2,2.6-3.4,3.6l-0.8-1c1.2-0.9,2.3-2,3.3-3.4L51.2,113.8z M56.6,107.6v4.9h-8.3v-4.9H56.6z
	 M55.5,108.7h-5.9v2.9h5.9V108.7z M57.6,116.8l-1.1,0.7c-0.7-1.1-1.7-2.4-3-3.8l0.9-0.6C55.7,114.6,56.8,115.8,57.6,116.8z"/>
<path class="st0" d="M69.1,112.1v1h-4.5v1.1h3.9v0.9h-3.9v1.2c0.6,0,1.2,0.1,2,0.1c1.1,0,2,0,2.7-0.1l-0.3,1.1
	c-3.5,0-5.6-0.1-6.3-0.4c-0.7-0.2-1.3-0.7-1.7-1.4c-0.3,0.6-0.9,1.3-1.6,2l-0.8-1c0.6-0.5,1.1-1,1.4-1.5s0.6-1.1,0.7-1.9l1.1,0.2
	c-0.1,0.5-0.3,0.9-0.4,1.3c0.5,0.7,1,1.1,1.7,1.3c0.1,0,0.3,0.1,0.4,0.1V113h-4.9v-1L69.1,112.1L69.1,112.1z M68,107.3v4.2h-8.2
	v-4.2H68z M66.9,108.9v-0.7h-6v0.7H66.9z M66.9,109.7h-6v0.8h6V109.7z"/>
<path class="st0" d="M71.6,109.2V107h1v2.2h1.1v0.9h-1.1v0.2c0.4,0.5,0.9,1,1.3,1.6l-0.6,0.9c-0.3-0.5-0.5-0.9-0.7-1.3v6h-1v-5.2
	c-0.3,0.9-0.7,1.7-1.1,2.4l-0.4-1.2c0.6-1,1.1-2.1,1.5-3.4h-1.3v-0.9H71.6z M76.6,107v5.3c0,1.2-0.2,2.2-0.5,2.9
	c-0.3,0.8-0.9,1.6-1.8,2.4l-0.9-0.8c0.8-0.6,1.3-1.2,1.7-2c0.2-0.4,0.3-0.9,0.4-1.6c-0.5,0.4-1.1,0.8-1.7,1.1l-0.5-0.9
	c0.8-0.3,1.5-0.8,2.3-1.5v-5L76.6,107L76.6,107z M75.4,110.9l-0.9,0.4c-0.3-1-0.6-1.8-0.9-2.6l0.9-0.3
	C74.9,109.2,75.2,110,75.4,110.9z M78.2,107v4.4c0.9,0.5,1.7,1.2,2.4,1.9l-0.6,0.9c-0.6-0.6-1.2-1.2-1.8-1.6v3.5
	c0,0.2,0.1,0.3,0.4,0.3H79c0.1,0,0.2-0.1,0.3-0.2c0.1-0.1,0.1-0.7,0.1-1.6l1,0.3c-0.1,1.2-0.2,1.9-0.4,2.1s-0.5,0.3-0.9,0.3h-1
	c-0.3,0-0.6-0.1-0.8-0.2c-0.2-0.2-0.3-0.4-0.3-0.7V107H78.2z M80.4,108.8c-0.3,0.9-0.7,1.7-1.2,2.4l-0.9-0.6
	c0.4-0.6,0.9-1.3,1.2-2.1L80.4,108.8z"/>
<path class="st0" d="M91.8,117.5h-1v-0.4h-7.9v0.4h-1v-10.2h9.9V117.5z M90.8,116.2v-8h-7.9v8H90.8z M89.9,111.4v2.1h-3.2
	c-0.1,0.1-0.1,0.1-0.1,0.2v2.2h-0.9v-1.4c-0.6,0.4-1.3,0.8-2.1,1l-0.5-0.8c0.8-0.2,1.4-0.5,1.9-0.8c0.2-0.1,0.5-0.3,0.6-0.5H84v-2.1
	L89.9,111.4L89.9,111.4z M86.2,108.9v-0.5h0.9v0.5h2.7v0.7h-2.7v0.6h3.2v0.8h-7.2v-0.8h3.1v-0.6h-2.6v-0.7H86.2z M89,112.2h-4.2v0.6
	H89V112.2z M88.4,114.3c0.2-0.2,0.4-0.5,0.5-0.7l0.9,0.5c-0.1,0.2-0.3,0.4-0.5,0.6c0.4,0.2,0.8,0.4,1.1,0.6l-0.5,0.8
	c-1-0.6-2-1.2-3.1-1.5l0.4-0.7C87.7,114,88.1,114.2,88.4,114.3z"/>
<path class="st0" d="M98.7,113.5c-0.2,0.2-0.5,0.5-0.9,0.7l-0.4-0.6c0.5-0.3,0.9-0.6,0.9-1h-0.7v-1.4H99v1.1
	C99.1,112.8,98.9,113.2,98.7,113.5z"/>
<path class="st0" d="M115.2,107.7v1h-4.6c-0.1,0.5-0.3,1-0.5,1.4h4.4v6.2c0,0.4-0.1,0.7-0.3,0.9c-0.2,0.2-0.4,0.3-0.7,0.3h-1.2
	l-0.2-1.1l0.9,0.1c0.2,0,0.4-0.2,0.4-0.4v-4.9h-1.6v6h-1.1v-6h-1.5v6H108v-6h-1.4v6.4h-1.1v-7.4h3.3c0.2-0.4,0.4-0.9,0.5-1.4h-4.8
	v-1h10.7V107.7z"/>
<path class="st0" d="M126.6,112.1v1h-4.5v1.1h3.9v0.9h-3.9v1.2c0.6,0,1.2,0.1,2,0.1c1.1,0,2,0,2.7-0.1l-0.3,1.1
	c-3.5,0-5.6-0.1-6.3-0.4c-0.7-0.2-1.3-0.7-1.7-1.4c-0.3,0.6-0.9,1.3-1.6,2l-0.8-1c0.6-0.5,1.1-1,1.4-1.5s0.6-1.1,0.7-1.9l1.1,0.2
	c-0.1,0.5-0.3,0.9-0.4,1.3c0.5,0.7,1,1.1,1.7,1.3c0.1,0,0.3,0.1,0.4,0.1V113h-4.9v-1L126.6,112.1L126.6,112.1z M125.5,107.3v4.2
	h-8.2v-4.2H125.5z M124.4,108.9v-0.7h-6v0.7H124.4z M124.4,109.7h-6v0.8h6V109.7z"/>
<path class="st0" d="M132.4,107.4c-0.7,1.4-1.5,2.6-2.3,3.4c0.2,0,0.4,0,0.6,0c1.7,0,3.4-0.1,5.2-0.4c-0.4-0.6-0.9-1.2-1.4-1.7
	l0.8-0.8c1.1,1.2,2,2.4,2.7,3.6l-0.9,0.9c-0.2-0.3-0.4-0.7-0.6-1c-2.3,0.3-5.1,0.5-8.4,0.5l-0.2-1.3c0.4,0,0.7,0.1,1.1,0.1
	c0.7-0.9,1.5-2.2,2.3-3.8L132.4,107.4z M137.1,117.6H136v-0.7h-6.1v0.7h-1.1v-4.9h8.4L137.1,117.6L137.1,117.6z M136,115.9v-2.2
	h-6.1v2.2H136z"/>
<path class="st0" d="M141.2,111l-0.6,0.9c-0.5-0.5-1-0.9-1.6-1.2l0.5-0.8C140.1,110.3,140.7,110.6,141.2,111z M141.3,112.9
	c-0.4,1.8-0.8,3.3-1.3,4.5l-0.8-0.8c0.4-1.1,0.8-2.5,1.2-4.2L141.3,112.9z M141.4,108.2l-0.6,0.9c-0.5-0.5-0.9-0.9-1.4-1.1l0.5-0.8
	C140.4,107.5,140.9,107.8,141.4,108.2z M142.1,111.3c-0.1,0.5-0.3,0.9-0.4,1.3l-0.6-0.2c0.2-0.3,0.3-0.7,0.4-1.3L142.1,111.3z
	 M143,107.2c-0.2,0.6-0.5,1.1-0.7,1.5c0.2,0,0.3,0,0.5,0c0.2-0.3,0.3-0.6,0.5-0.9l0.5,0.3v-0.3h1.1c-0.1-0.2-0.2-0.4-0.4-0.6
	l0.8-0.1c0.1,0.2,0.3,0.5,0.4,0.7h1v0.7h-3v-0.3c-0.4,0.8-0.8,1.5-1.2,2.1c0.2,0,0.4,0,0.6-0.1c0-0.1-0.1-0.3-0.1-0.4l0.5-0.2
	c0.1,0.4,0.2,0.8,0.3,1.3l-0.6,0.1c0-0.1,0-0.2-0.1-0.3c-0.5,0.1-1.2,0.2-2.1,0.3l-0.1-0.7c0.2,0,0.3,0,0.5,0c0.2-0.3,0.5-0.6,0.7-1
	c-0.3,0-0.7,0.1-1.1,0.1l-0.1-0.7h0.4c0.2-0.4,0.5-1,0.7-1.7L143,107.2z M149,112.9v1.9h-6.1l-0.2,0.5h6.6c0,0.9-0.2,1.5-0.4,1.8
	c-0.2,0.3-0.7,0.4-1.6,0.4h-2.1l-0.1-0.9c1,0,1.7,0,2.2,0c0.3,0,0.5,0,0.6-0.1c0.1-0.1,0.2-0.3,0.2-0.6h-6.6l0.4-1.9h6v-0.4h-6.4
	v-0.7H149z M143,112.5h-0.6c0-0.5-0.1-1-0.1-1.3h0.5C142.9,111.6,143,112,143,112.5z M144,112.3l-0.5,0.1c-0.1-0.4-0.2-0.9-0.3-1.3
	l0.5-0.1C143.8,111.4,143.9,111.9,144,112.3z M146.5,108.7v0.5h-2.4v-0.5H146.5z M146.5,109.7v0.5h-2.4v-0.5H146.5z M146.5,110.6
	v1.8h-2.3v-1.8H146.5z M145.8,111.3h-1v0.6h1V111.3z M147.5,111.4c-0.1,0.5-0.2,0.9-0.3,1.4l-0.6-0.2c0.1-0.3,0.2-0.7,0.3-1.3
	L147.5,111.4z M148.5,107.3c-0.2,0.6-0.5,1.1-0.7,1.5c0.2,0,0.4,0,0.6,0c0.1-0.2,0.3-0.4,0.4-0.7l0.7,0.3c-0.5,0.8-1,1.5-1.5,2
	c0.3,0,0.6,0,0.8-0.1c0-0.2-0.1-0.4-0.1-0.5l0.6-0.2c0.1,0.4,0.3,0.9,0.4,1.5l-0.6,0.1c0-0.1-0.1-0.2-0.1-0.3
	c-0.5,0.1-1.2,0.2-2.2,0.3l-0.1-0.7c0.2,0,0.3,0,0.5,0c0.3-0.3,0.5-0.6,0.8-1c-0.3,0-0.7,0.1-1.2,0.1l-0.1-0.7h0.4
	c0.2-0.4,0.5-1,0.7-1.7L148.5,107.3z M148.6,112.5h-0.7c0-0.5,0-1-0.1-1.3h0.6C148.5,111.6,148.5,112,148.6,112.5z M149.7,112.4
	l-0.7,0.2c-0.1-0.4-0.2-0.9-0.3-1.3l0.6-0.2C149.5,111.5,149.6,111.9,149.7,112.4z"/>
<path class="st0" d="M154,107.2c-0.1,0.6-0.3,1.2-0.6,1.7h1.7v2.4c0.3-0.6,0.6-1.1,0.8-1.7c0.2-0.6,0.4-1.5,0.6-2.6l1.1,0.2
	c-0.1,0.6-0.2,1.2-0.3,1.6h3.5c0,4-0.1,6.4-0.2,7.2c-0.1,0.6-0.3,1-0.6,1.2c-0.3,0.2-0.9,0.3-1.8,0.3c-0.3,0-0.5,0-0.9,0l-0.2-1.1
	c0.3,0.1,0.7,0.1,1,0.1c0.7,0,1.1-0.2,1.2-0.7c0.1-0.6,0.2-2.5,0.3-5.8H157c0,0.1-0.1,0.1-0.1,0.2c-0.3,0.8-0.7,1.7-1.3,2.6
	l-0.5-0.7v4.7h-1v-0.5H152v0.9h-1V109h1.4c0.2-0.6,0.4-1.2,0.6-1.8H154z M154.1,112v-2.2H152v2.2H154.1z M154.1,115.2v-2.3H152v2.3
	H154.1z M158.9,114.1l-1.1,0.7c-0.3-0.8-0.8-1.8-1.3-2.9l0.9-0.6C158,112.4,158.5,113.3,158.9,114.1z"/>
<path class="st0" d="M166.8,108.4V107h1.1v1.4h3.8v1.1h-3.8v1.7h4.7v1.1h-3.5c0.4,0.7,0.8,1.3,1.3,1.8c0.6,0.6,1.3,1.3,2.3,2l-0.8,1
	c-1.1-0.8-1.9-1.6-2.6-2.5c-0.5-0.6-1-1.4-1.4-2.3h-0.1v5.3h-1.1v-5.3h-0.2c-0.3,0.8-0.7,1.4-1,1.8c-0.6,0.9-1.6,1.9-3,2.9l-0.6-1
	c1-0.7,1.8-1.4,2.4-2c0.4-0.4,0.8-1,1.1-1.6h-3.5v-1.1h4.7v-1.7h-3.9v-1.1L166.8,108.4L166.8,108.4z"/>
<path class="st0" d="M178.2,108.2v-1.1h1.1v1.1h4.3v1h-4.3v2.6c0.4,0.9,1,1.6,1.6,2.3c0.6,0.7,1.7,1.5,3.1,2.2l-0.8,0.9
	c-1.1-0.7-1.9-1.3-2.6-1.9c-0.5-0.5-1-1.1-1.4-1.7v3.8h-1.1v-3.9c-0.4,0.6-0.8,1.1-1.2,1.4c-0.7,0.8-1.7,1.5-2.8,2.2l-0.6-1
	c1.1-0.6,2.1-1.3,2.9-2.1c0.6-0.6,1.2-1.4,1.7-2.2v-2.6H174v-1H178.2z M176.8,109.6c-0.1,0.6-0.3,1-0.4,1.4c0.4,0.4,0.8,0.8,1.2,1.2
	l-0.6,0.9c-0.3-0.5-0.7-0.9-1-1.2c-0.3,0.6-0.8,1.3-1.4,2l-0.7-0.9c0.5-0.5,0.9-1.1,1.2-1.6c0.3-0.5,0.5-1.2,0.6-2L176.8,109.6z
	 M182.3,109.6c-0.1,0.6-0.3,1-0.4,1.4c0.6,0.5,1.2,1.1,1.8,1.7l-0.6,0.9c-0.5-0.7-1.1-1.3-1.6-1.8c-0.3,0.4-0.6,0.9-1,1.3l-0.7-0.9
	c0.4-0.4,0.7-0.8,1-1.2c0.2-0.4,0.4-0.9,0.5-1.6L182.3,109.6z"/>
<path class="st0" d="M186.8,109.2V107h1v2.2h1.2v0.9h-1.2v0.5c0.5,0.5,1,1.1,1.5,1.7l-0.6,0.9c-0.3-0.6-0.6-1-0.9-1.4v5.7h-1V112
	c-0.4,1-0.8,1.8-1.3,2.5l-0.4-1.2c0.7-1,1.2-2.1,1.7-3.3h-1.5v-0.9L186.8,109.2L186.8,109.2z M195.5,112c-0.6,1.1-1.3,2-2.1,2.8
	c0.9,0.7,1.6,1.3,2.2,2l-0.8,0.8c-0.5-0.7-1.3-1.4-2.2-2.1c-0.9,0.8-2.2,1.4-3.7,2l-0.6-0.9c1.5-0.5,2.7-1.2,3.7-2
	c0.8-0.6,1.7-1.7,2.6-3.1L195.5,112z M192.9,108.1h2.7v1h-3.3c-0.2,0.6-0.6,1.3-1.1,2c0.6,0,1,0,1.5-0.1c0.3-0.4,0.5-0.8,0.8-1.2
	l0.9,0.4c-0.6,1.2-1.4,2.2-2.2,3c-0.7,0.7-1.7,1.2-2.9,1.7l-0.5-0.9c1.1-0.5,2-1,2.8-1.6c0.2-0.1,0.3-0.3,0.5-0.5
	c-0.7,0.1-1.6,0.1-2.7,0.2l-0.1-1c0.3,0,0.5,0,0.8,0c0.5-0.6,0.9-1.3,1.2-2H189v-1h2.8c-0.2-0.3-0.3-0.7-0.5-1l1.1-0.1
	C192.6,107.3,192.8,107.7,192.9,108.1z"/>
<path class="st0" d="M198.9,110.5c-0.3,2.3-0.7,4.2-1.2,5.8l-1.1-0.7c0.5-1.7,0.9-3.4,1.1-5.4L198.9,110.5z M200.8,109.8v6.1
	c0,0.3,0.1,0.4,0.4,0.4h2.1c0.1,0,0.3-0.1,0.3-0.3c0.1-0.2,0.1-1,0.2-2.4l1.1,0.3c-0.1,1.7-0.2,2.7-0.4,3c-0.2,0.3-0.5,0.5-1,0.5
	h-2.6c-0.3,0-0.6-0.1-0.8-0.3c-0.2-0.2-0.3-0.5-0.3-0.8v-6.5H200.8z M203.8,110l-1.1,0.8c-0.5-0.8-1.2-1.8-2.1-2.8l0.9-0.6
	C202.5,108.4,203.2,109.3,203.8,110z M207,115.3l-1.1,0.5c-0.4-1.9-0.9-3.7-1.5-5.2l1.1-0.4C206.1,111.9,206.6,113.6,207,115.3z"/>
<path class="st0" d="M209.5,115.3c-0.1,0.9-0.3,1.6-0.5,2.3l-0.9-0.3c0.3-0.6,0.5-1.3,0.6-2.1L209.5,115.3z M213.4,107.3v4.3h-2.1
	v0.7h2v0.9h-2v0.7c0.8,0,1.5-0.1,2.2-0.2v0.8c-1,0.2-2.7,0.3-5.1,0.4l-0.1-0.9c0.8,0,1.5,0,2.2-0.1v-0.8h-1.8v-0.9h1.8v-0.7h-1.9
	v-4.3h4.8V107.3z M210.4,108.1h-1.1v2.6h1.1V108.1z M210.3,110.2l-0.6,0.1c-0.1-0.6-0.2-1.1-0.3-1.6l0.5-0.2
	C210.1,109.1,210.2,109.6,210.3,110.2z M210.8,117.3l-0.9,0.1c0-0.9-0.1-1.6-0.1-2.1l0.8-0.1C210.7,115.7,210.8,116.4,210.8,117.3z
	 M212.2,117.1l-0.8,0.2c-0.1-0.7-0.3-1.3-0.4-1.9l0.7-0.2C211.9,115.7,212.1,116.3,212.2,117.1z M212.6,108.1h-1.3v2.6h1.3V108.1z
	 M212.4,108.8c-0.1,0.6-0.2,1.1-0.3,1.7l-0.6-0.2c0.2-0.5,0.3-1,0.4-1.6L212.4,108.8z M213.5,116.6l-0.8,0.3
	c-0.1-0.6-0.3-1.2-0.5-1.8l0.6-0.2C213.1,115.6,213.3,116.1,213.5,116.6z M216.2,107v1.9h2.4v0.9h-2.4v2.2h2v5.5h-1v-0.8h-2.3v0.8
	h-1V112h1.3v-5H216.2z M217.2,115.8V113h-2.3v2.9L217.2,115.8L217.2,115.8z"/>
</svg>
