<?xml version="1.0" encoding="utf-8"?>
<!-- Generator: Adobe Illustrator 25.2.3, SVG Export Plug-In . SVG Version: 6.00 Build 0)  -->
<svg version="1.1" id="圖層_1" xmlns="http://www.w3.org/2000/svg" xmlns:xlink="http://www.w3.org/1999/xlink" x="0px" y="0px"
	 viewBox="0 0 200 16" style="enable-background:new 0 0 200 16;" xml:space="preserve">
<style type="text/css">
	.st0{opacity:0.6;}
	.st1{fill:#C9A063;}
</style>
<g class="st0">
	<path class="st1" d="M3.2,3.9c0,0.5-0.2,0.9-0.7,1.2C2.1,5.3,1.7,5.4,1.1,5.4c-0.1,0-0.4,0-0.9,0V0.2H1c0.5,0,0.9,0.1,1.2,0.2
		c0.4,0.2,0.6,0.5,0.6,0.9c0,0.3-0.1,0.5-0.3,0.8C2.3,2.3,2.1,2.5,1.8,2.6C2.2,2.7,2.5,2.8,2.7,3C3.1,3.2,3.2,3.5,3.2,3.9z M2.7,3.9
		c0-0.4-0.1-0.7-0.4-0.9C2.1,2.8,1.8,2.7,1.4,2.7H1.2V2.5h0.2c0.4,0,0.6-0.1,0.8-0.4c0.1-0.2,0.2-0.5,0.2-0.7c0-0.7-0.5-1.1-1.4-1.1
		H0.6v4.9h0.3C2.1,5.2,2.7,4.7,2.7,3.9z"/>
	<path class="st1" d="M7,3.3H5V3.1h1.5c0-0.6-0.3-0.9-0.8-0.9c-0.3,0-0.6,0.1-0.8,0.4C4.7,2.9,4.6,3.2,4.6,3.7s0.1,0.8,0.3,1.1
		c0.2,0.3,0.5,0.4,0.8,0.4c0.4,0,0.7-0.2,1-0.5l0.2,0.2C6.6,5.2,6.2,5.4,5.8,5.4C5.3,5.4,5,5.2,4.6,4.9C4.3,4.6,4.1,4.2,4.1,3.7
		s0.2-0.9,0.5-1.2C4.9,2.2,5.3,2,5.7,2C6,2,6.3,2.1,6.6,2.4C6.9,2.6,7,2.9,7,3.3z"/>
	<path class="st1" d="M10.2,3.2v2.1H9.7V5C9.5,5.2,9.2,5.3,8.9,5.3S8.3,5.2,8.1,5C7.9,4.8,7.7,4.6,7.7,4.2c0-0.3,0.1-0.6,0.4-0.8
		c0.2-0.2,0.5-0.3,0.7-0.3c0.1,0,0.2,0,0.2,0c0.2,0,0.3,0.1,0.4,0.1L9.3,3.4C9.1,3.3,9,3.2,8.8,3.2c-0.2,0-0.4,0.1-0.5,0.2
		C8.2,3.6,8.1,3.8,8.1,4.1c0,0.3,0.1,0.5,0.2,0.6c0.1,0.2,0.3,0.2,0.5,0.2c0.3,0,0.6-0.2,0.8-0.5V2.9c0-0.7-0.2-1-0.7-1
		C8.6,1.9,8.4,2,8.1,2.2L8,2c0.2-0.2,0.5-0.2,0.9-0.2C9.8,2,10.2,2.4,10.2,3.2z"/>
	<path class="st1" d="M14,5.3h-0.5V4.7c-0.2,0.4-0.6,0.6-1,0.6c-0.8,0-1.2-0.4-1.2-1.2V1.9h0.5v2.2c0,0.7,0.2,1,0.7,1
		c0.3,0,0.5-0.2,0.7-0.5c0.1-0.2,0.2-0.4,0.2-0.6V1.9H14V5.3z"/>
	<path class="st1" d="M16.4,2.2h-0.6v2c0,0.3,0,0.6,0.1,0.7C16,5,16.1,5.1,16.4,5.1v0.2c-0.7,0-1.1-0.4-1.1-1.1v-2H15V2h0.3V1.6h0.5
		V2h0.6V2.2z"/>
	<path class="st1" d="M20.1,2l-1.8,4.5h-0.2l0.5-1.3L17.2,2h0.5l1.1,2.6l1-2.6H20.1z"/>
	<path class="st1" d="M22.9,5.3h-0.5v-5h0.5V5.3z"/>
	<path class="st1" d="M24.7,0.6c0,0.1,0,0.2-0.1,0.2s-0.1,0.1-0.2,0.1s-0.2,0-0.2-0.1s-0.1-0.1-0.1-0.2s0-0.2,0.1-0.2
		c0.1-0.1,0.1-0.1,0.2-0.1s0.2,0,0.2,0.1S24.7,0.6,24.7,0.6z M24.6,5.3h-0.5V2.1h0.5V5.3z"/>
	<path class="st1" d="M28.5,3.3h-2V3.1H28c0-0.6-0.3-0.9-0.8-0.9c-0.3,0-0.6,0.1-0.8,0.4c-0.2,0.3-0.3,0.6-0.3,1.1s0.1,0.8,0.3,1.1
		c0.2,0.3,0.5,0.4,0.8,0.4c0.4,0,0.7-0.2,1-0.5l0.2,0.2c-0.3,0.3-0.7,0.5-1.1,0.5c-0.5,0-0.8-0.2-1.2-0.5c-0.3-0.3-0.5-0.7-0.5-1.2
		s0.2-0.9,0.5-1.2C26.4,2.2,26.8,2,27.2,2c0.3,0,0.6,0.1,0.9,0.4C28.4,2.6,28.5,2.9,28.5,3.3z"/>
	<path class="st1" d="M31.2,4.5c0,0.3-0.1,0.5-0.3,0.6c-0.2,0.2-0.4,0.2-0.7,0.2c-0.4,0-0.7-0.1-0.9-0.4l0.1-0.2
		c0.2,0.3,0.5,0.4,0.8,0.4c0.2,0,0.3-0.1,0.4-0.2c0.1-0.1,0.2-0.3,0.2-0.4c0-0.2-0.1-0.4-0.3-0.5c-0.1-0.1-0.3-0.2-0.6-0.4
		c-0.4-0.2-0.5-0.5-0.5-0.9c0-0.2,0.1-0.4,0.3-0.6c0.2-0.1,0.4-0.2,0.6-0.2s0.3,0,0.5,0.1c0.2,0.1,0.3,0.2,0.3,0.3l-0.2,0.2
		c-0.2-0.3-0.4-0.4-0.7-0.4c-0.3,0-0.5,0.1-0.5,0.4c0,0.2,0.1,0.4,0.3,0.6c0.4,0.2,0.6,0.4,0.7,0.5C31.1,3.9,31.2,4.2,31.2,4.5z"/>
	<path class="st1" d="M34.2,0.6c0,0.1,0,0.2-0.1,0.2C34,0.8,34,1,33.9,1c-0.1,0-0.2,0-0.2-0.1c0-0.1-0.1-0.1-0.1-0.2s0-0.2,0.1-0.2
		c0.1-0.1,0.1-0.1,0.2-0.1c0.1,0,0.2,0,0.2,0.1C34.2,0.5,34.2,0.6,34.2,0.6z M34.2,5.3h-0.5V2.1h0.5V5.3z"/>
	<path class="st1" d="M37.9,5.3h-0.5V3.1c0-0.7-0.2-1-0.7-1s-0.8,0.3-1,0.9v2.3h-0.5V2.1h0.5v0.4C36,2.1,36.3,2,36.7,2
		c0.4,0,0.7,0.1,0.8,0.2c0.2,0.2,0.3,0.5,0.3,0.9v2.2H37.9z"/>
	<path class="st1" d="M41.8,2.2h-0.6v2c0,0.3,0,0.6,0.1,0.7c0.1,0.1,0.2,0.2,0.5,0.2v0.2c-0.7,0-1.1-0.4-1.1-1.1v-2h-0.3V2h0.3V1.6
		h0.5V2h0.6V2.2z"/>
	<path class="st1" d="M45.3,5.3h-0.5V3.1c0-0.7-0.2-1-0.7-1s-0.8,0.3-1,0.9v2.3h-0.5v-5h0.5v2.2c0.3-0.4,0.6-0.5,1-0.5
		c0.4,0,0.7,0.1,0.8,0.2c0.2,0.2,0.3,0.5,0.3,0.9L45.3,5.3L45.3,5.3z"/>
	<path class="st1" d="M49.2,3.3h-2V3.1h1.5c0-0.6-0.3-0.9-0.8-0.9c-0.3,0-0.6,0.1-0.8,0.4s-0.3,0.6-0.3,1.1s0.1,0.8,0.3,1.1
		c0.2,0.3,0.5,0.4,0.8,0.4c0.4,0,0.7-0.2,1-0.5l0.2,0.2c-0.3,0.3-0.7,0.5-1.1,0.5c-0.5,0-0.8-0.2-1.2-0.5c-0.3-0.3-0.5-0.7-0.5-1.2
		s0.2-0.9,0.5-1.2S47.5,2,47.9,2c0.3,0,0.6,0.1,0.9,0.4C49.1,2.6,49.2,2.9,49.2,3.3z"/>
	<path class="st1" d="M54.3,4.9c-0.3,0.3-0.7,0.4-1.1,0.4c-0.5,0-0.8-0.2-1.2-0.5c-0.3-0.3-0.5-0.7-0.5-1.2s0.2-0.9,0.5-1.2
		s0.7-0.5,1.2-0.5c0.4,0,0.7,0.1,1,0.3l-0.1,0.2C53.9,2.2,53.6,2,53.2,2c-0.3,0-0.6,0.2-0.8,0.5c-0.2,0.3-0.3,0.6-0.3,1
		s0.1,0.8,0.3,1C52.6,4.8,52.9,5,53.2,5c0.4,0,0.7-0.2,1-0.5L54.3,4.9z"/>
	<path class="st1" d="M58.1,3.7c0,0.5-0.2,0.9-0.5,1.2c-0.3,0.3-0.7,0.5-1.2,0.5s-0.8-0.2-1.2-0.5c-0.3-0.3-0.5-0.7-0.5-1.2
		s0.2-0.8,0.5-1.2C55.5,2.2,55.9,2,56.4,2s0.8,0.2,1.2,0.5C57.9,2.8,58.1,3.2,58.1,3.7z M57.5,3.7c0-0.4-0.1-0.8-0.3-1.1
		s-0.5-0.4-0.8-0.4c-0.3,0-0.6,0.1-0.8,0.4s-0.3,0.6-0.3,1.1c0,0.4,0.1,0.8,0.3,1.1c0.2,0.3,0.5,0.4,0.8,0.4c0.3,0,0.6-0.1,0.8-0.4
		C57.4,4.5,57.5,4.1,57.5,3.7z"/>
	<path class="st1" d="M63.5,5.3H63V3.1c0-0.3,0-0.5-0.1-0.7c-0.1-0.1-0.2-0.2-0.5-0.2c-0.4,0-0.6,0.3-0.9,0.8v0.1v2.2H61V3.1
		c0-0.3,0-0.5-0.1-0.7c-0.1-0.1-0.3-0.2-0.5-0.2c-0.2,0-0.3,0.1-0.5,0.2c-0.2,0.1-0.3,0.4-0.4,0.6v2.3H59V2.1h0.5v0.4
		C59.8,2.2,60.1,2,60.4,2c0.5,0,0.8,0.2,1,0.5C61.7,2.1,62,2,62.4,2c0.7,0,1.1,0.4,1.1,1.1V5.3z"/>
	<path class="st1" d="M67.4,3.7c0,0.5-0.1,0.9-0.4,1.2c-0.3,0.3-0.6,0.5-1.1,0.5c-0.3,0-0.6-0.1-0.8-0.4v0.3h-0.5v-5h0.5v4.2
		c0.1,0.2,0.2,0.4,0.3,0.5s0.3,0.2,0.5,0.2c0.3,0,0.5-0.1,0.7-0.4c0.2-0.3,0.3-0.6,0.3-1.1c0-0.4-0.1-0.8-0.3-1.1
		c-0.2-0.3-0.4-0.4-0.7-0.4c-0.2,0-0.3,0.1-0.4,0.2l-0.1-0.2c0.2-0.1,0.4-0.1,0.6-0.1c0.4,0,0.8,0.2,1.1,0.5
		C67.2,2.8,67.4,3.2,67.4,3.7z"/>
	<path class="st1" d="M69,0.6c0,0.1,0,0.2-0.1,0.2s-0.1,0.1-0.2,0.1c-0.1,0-0.2,0-0.2-0.1s-0.1-0.1-0.1-0.2s0-0.2,0.1-0.2
		c0.1-0.1,0.1-0.1,0.2-0.1c0.1,0,0.2,0,0.2,0.1C69,0.5,69,0.6,69,0.6z M68.9,5.3h-0.5V2.1h0.5V5.3z"/>
	<path class="st1" d="M72.7,5.3h-0.5V3.1c0-0.7-0.2-1-0.7-1s-0.8,0.3-1,0.9v2.3H70V2.1h0.5v0.4c0.3-0.4,0.6-0.5,1-0.5
		s0.7,0.1,0.8,0.2c0.2,0.2,0.3,0.5,0.3,0.9L72.7,5.3L72.7,5.3z"/>
	<path class="st1" d="M76.1,3.2v2.1h-0.5V5c-0.2,0.2-0.5,0.3-0.8,0.3c-0.3,0-0.6-0.1-0.8-0.3c-0.2-0.2-0.4-0.4-0.4-0.8
		c0-0.3,0.1-0.6,0.4-0.8c0.2-0.2,0.5-0.3,0.7-0.3c0.1,0,0.2,0,0.2,0c0.2,0,0.3,0.1,0.4,0.1l-0.1,0.2c-0.2-0.1-0.3-0.2-0.5-0.2
		c-0.2,0-0.4,0.1-0.5,0.2C74.1,3.6,74,3.8,74,4.1c0,0.3,0.1,0.5,0.2,0.6c0.1,0.2,0.3,0.2,0.5,0.2c0.3,0,0.6-0.2,0.8-0.5V2.9
		c0-0.7-0.2-1-0.7-1c-0.3,0-0.5,0.1-0.8,0.3L73.9,2c0.2-0.2,0.5-0.2,0.9-0.2C75.7,2,76.1,2.4,76.1,3.2z"/>
	<path class="st1" d="M78.5,2.2h-0.6v2c0,0.3,0,0.6,0.1,0.7c0.1,0.1,0.2,0.2,0.5,0.2v0.2c-0.7,0-1.1-0.4-1.1-1.1v-2h-0.3V2h0.3V1.6
		h0.5V2h0.6V2.2z"/>
	<path class="st1" d="M80,0.6c0,0.1,0,0.2-0.1,0.2s-0.1,0.1-0.2,0.1c-0.1,0-0.2,0-0.2-0.1s-0.1-0.1-0.1-0.2s0-0.2,0.1-0.2
		c0.1-0.1,0.1-0.1,0.2-0.1c0.1,0,0.2,0,0.2,0.1C80,0.5,80,0.6,80,0.6z M79.9,5.3h-0.5V2.1h0.5V5.3z"/>
	<path class="st1" d="M84.3,3.7c0,0.5-0.2,0.9-0.5,1.2c-0.3,0.3-0.7,0.5-1.2,0.5s-0.8-0.2-1.2-0.5c-0.3-0.3-0.5-0.7-0.5-1.2
		s0.2-0.8,0.5-1.2C81.7,2.2,82.1,2,82.6,2s0.8,0.2,1.2,0.5C84.1,2.8,84.3,3.2,84.3,3.7z M83.7,3.7c0-0.4-0.1-0.8-0.3-1.1
		c-0.2-0.3-0.5-0.4-0.8-0.4c-0.3,0-0.6,0.1-0.8,0.4c-0.2,0.3-0.3,0.6-0.3,1.1c0,0.4,0.1,0.8,0.3,1.1c0.2,0.3,0.5,0.4,0.8,0.4
		c0.3,0,0.6-0.1,0.8-0.4C83.6,4.5,83.7,4.1,83.7,3.7z"/>
	<path class="st1" d="M87.9,5.3h-0.5V3.1c0-0.7-0.2-1-0.7-1s-0.8,0.3-1,0.9v2.3h-0.5V2.1h0.5v0.4C86,2.1,86.3,2,86.7,2
		c0.4,0,0.7,0.1,0.8,0.2c0.2,0.2,0.3,0.5,0.3,0.9L87.9,5.3L87.9,5.3z"/>
	<path class="st1" d="M93.7,3.7c0,0.5-0.2,0.9-0.5,1.2c-0.3,0.3-0.7,0.5-1.2,0.5s-0.8-0.2-1.2-0.5c-0.3-0.3-0.5-0.7-0.5-1.2
		s0.2-0.8,0.5-1.2C91.1,2.2,91.5,2,92,2s0.8,0.2,1.2,0.5C93.5,2.8,93.7,3.2,93.7,3.7z M93.2,3.7c0-0.4-0.1-0.8-0.3-1.1
		c-0.2-0.3-0.5-0.4-0.8-0.4s-0.6,0.1-0.8,0.4C91.1,2.9,91,3.2,91,3.7c0,0.4,0.1,0.8,0.3,1.1c0.2,0.3,0.5,0.4,0.8,0.4
		s0.6-0.1,0.8-0.4C93.1,4.5,93.2,4.1,93.2,3.7z"/>
	<path class="st1" d="M95.9,2.2h-0.6v3.1h-0.5V2.2h-0.3V2h0.3V1.3c0-0.7,0.4-1,1.1-1v0.2c-0.2,0-0.4,0.1-0.5,0.2s-0.1,0.4-0.1,0.7
		v0.7h0.6V2.2z"/>
	<path class="st1" d="M2.8,14.3H2.3v-2.2c0-0.7-0.2-1-0.7-1s-0.8,0.3-1,0.9v2.3H0.1v-3.2h0.5v0.4c0.3-0.4,0.6-0.5,1-0.5
		s0.7,0.1,0.8,0.2c0.2,0.2,0.3,0.5,0.3,0.9L2.8,14.3L2.8,14.3z"/>
	<path class="st1" d="M6.2,12.2v2.1H5.7V14c-0.2,0.2-0.5,0.3-0.8,0.3S4.3,14.2,4.1,14c-0.2-0.2-0.4-0.4-0.4-0.8
		c0-0.3,0.1-0.6,0.4-0.8c0.2-0.2,0.5-0.3,0.7-0.3c0.1,0,0.2,0,0.2,0c0.2,0,0.3,0.1,0.4,0.1l-0.1,0.2c-0.2-0.1-0.3-0.2-0.5-0.2
		c-0.2,0-0.4,0.1-0.5,0.2c-0.1,0.2-0.2,0.4-0.2,0.7s0.1,0.5,0.2,0.6c0.1,0.2,0.3,0.2,0.5,0.2c0.3,0,0.6-0.2,0.8-0.5v-1.5
		c0-0.7-0.2-1-0.7-1c-0.3,0-0.5,0.1-0.8,0.3L4,11c0.2-0.2,0.5-0.2,0.9-0.2C5.8,11,6.2,11.4,6.2,12.2z"/>
	<path class="st1" d="M8.6,11.2H8v2c0,0.3,0,0.6,0.1,0.7c0.1,0.1,0.2,0.2,0.5,0.2v0.2c-0.7,0-1.1-0.4-1.1-1.1v-2H7.2V11h0.3v-0.4H8
		V11h0.6V11.2z"/>
	<path class="st1" d="M12.1,14.3h-0.5v-0.6c-0.2,0.4-0.6,0.6-1,0.6c-0.8,0-1.2-0.4-1.2-1.2v-2.2H10v2.2c0,0.7,0.2,1,0.7,1
		c0.3,0,0.5-0.2,0.7-0.5c0.1-0.2,0.2-0.4,0.2-0.6v-2.1h0.5V14.3z"/>
	<path class="st1" d="M14.7,11.2l-0.1,0.2c-0.1-0.1-0.3-0.1-0.4-0.1c-0.1,0-0.1,0-0.2,0.1c-0.2,0.1-0.3,0.4-0.3,0.9v2.1h-0.5v-3.2
		h0.5v0.4c0.1-0.1,0.1-0.2,0.2-0.3c0.1-0.1,0.2-0.1,0.4-0.1C14.5,11,14.6,11.1,14.7,11.2z"/>
	<path class="st1" d="M17.9,12.2v2.1h-0.5V14c-0.2,0.2-0.5,0.3-0.8,0.3c-0.3,0-0.6-0.1-0.8-0.3c-0.2-0.2-0.4-0.4-0.4-0.8
		c0-0.3,0.1-0.6,0.4-0.8c0.2-0.2,0.5-0.3,0.7-0.3c0.1,0,0.2,0,0.2,0c0.2,0,0.3,0.1,0.4,0.1L17,12.4c-0.2-0.1-0.3-0.2-0.5-0.2
		s-0.4,0.1-0.5,0.2c-0.1,0.2-0.2,0.4-0.2,0.7s0.1,0.5,0.2,0.6c0.1,0.2,0.3,0.2,0.5,0.2c0.3,0,0.6-0.2,0.8-0.5v-1.5
		c0-0.7-0.2-1-0.7-1c-0.3,0-0.5,0.1-0.8,0.3L15.7,11c0.2-0.2,0.5-0.2,0.9-0.2C17.5,11,17.9,11.4,17.9,12.2z"/>
	<path class="st1" d="M19.5,14.3H19v-5h0.5V14.3z"/>
	<path class="st1" d="M22.4,14.3h-0.5v-5h0.5V14.3z"/>
	<path class="st1" d="M25.9,12.2v2.1h-0.5V14c-0.2,0.2-0.5,0.3-0.8,0.3c-0.3,0-0.6-0.1-0.8-0.3c-0.2-0.2-0.4-0.4-0.4-0.8
		c0-0.3,0.1-0.6,0.4-0.8c0.2-0.2,0.5-0.3,0.7-0.3c0.1,0,0.2,0,0.2,0c0.2,0,0.3,0.1,0.4,0.1L25,12.4c-0.2-0.1-0.3-0.2-0.5-0.2
		s-0.4,0.1-0.5,0.2c-0.1,0.2-0.2,0.4-0.2,0.7s0.1,0.5,0.2,0.6c0.1,0.2,0.3,0.2,0.5,0.2c0.3,0,0.6-0.2,0.8-0.5v-1.5
		c0-0.7-0.2-1-0.7-1c-0.3,0-0.5,0.1-0.8,0.3L23.7,11c0.2-0.2,0.5-0.2,0.9-0.2C25.5,11,25.9,11.4,25.9,12.2z"/>
	<path class="st1" d="M29.6,14.3h-0.5v-2.2c0-0.7-0.2-1-0.7-1s-0.8,0.3-1,0.9v2.3H27v-3.2h0.5v0.4c0.3-0.4,0.6-0.5,1-0.5
		s0.7,0.1,0.8,0.2c0.2,0.2,0.3,0.5,0.3,0.9V14.3z"/>
	<path class="st1" d="M33.4,14.3h-0.5V14c-0.2,0.2-0.5,0.4-0.8,0.4c-0.4,0-0.8-0.2-1.1-0.5s-0.4-0.7-0.4-1.2s0.1-0.9,0.4-1.2
		s0.6-0.5,1.1-0.5c0.2,0,0.4,0,0.6,0.1l-0.1,0.2c-0.2-0.1-0.3-0.2-0.5-0.2c-0.2,0-0.5,0.1-0.6,0.4c-0.2,0.3-0.3,0.7-0.3,1.1
		c0,0.4,0.1,0.8,0.3,1.1s0.4,0.4,0.7,0.4c0.2,0,0.3-0.1,0.5-0.2c0.1-0.1,0.2-0.3,0.3-0.5V9.2h0.5L33.4,14.3L33.4,14.3z"/>
	<path class="st1" d="M36.3,13.5c0,0.3-0.1,0.5-0.3,0.6c-0.2,0.2-0.4,0.2-0.7,0.2c-0.4,0-0.7-0.1-0.9-0.4l0.1-0.2
		c0.2,0.3,0.5,0.4,0.8,0.4c0.2,0,0.3-0.1,0.4-0.2c0.1-0.1,0.2-0.3,0.2-0.4c0-0.2-0.1-0.4-0.3-0.5c-0.1-0.1-0.3-0.2-0.6-0.4
		c-0.4-0.2-0.5-0.5-0.5-0.9c0-0.2,0.1-0.4,0.3-0.6c0.2-0.1,0.4-0.2,0.6-0.2c0.2,0,0.3,0,0.5,0.1c0.2,0.1,0.3,0.2,0.3,0.3L36,11.5
		c-0.2-0.3-0.4-0.4-0.7-0.4s-0.5,0.1-0.6,0.4c0,0.2,0.1,0.4,0.3,0.6c0.4,0.2,0.6,0.4,0.7,0.5C36.2,12.9,36.3,13.2,36.3,13.5z"/>
	<path class="st1" d="M40,13.9c-0.3,0.3-0.7,0.4-1.1,0.4c-0.5,0-0.8-0.2-1.2-0.5c-0.3-0.3-0.5-0.7-0.5-1.2s0.2-0.9,0.5-1.2
		s0.7-0.5,1.2-0.5c0.4,0,0.7,0.1,1,0.3l-0.1,0.2c-0.2-0.2-0.5-0.4-0.9-0.4c-0.3,0-0.6,0.2-0.8,0.5c-0.2,0.3-0.3,0.6-0.3,1
		c0,0.4,0.1,0.8,0.3,1c0.2,0.3,0.5,0.5,0.8,0.5c0.4,0,0.7-0.2,1-0.5L40,13.9z"/>
	<path class="st1" d="M43,12.2v2.1h-0.5V14c-0.2,0.2-0.5,0.3-0.8,0.3s-0.6-0.1-0.8-0.3c-0.2-0.2-0.4-0.4-0.4-0.8
		c0-0.3,0.1-0.6,0.4-0.8c0.2-0.2,0.5-0.3,0.7-0.3c0.1,0,0.2,0,0.2,0c0.2,0,0.3,0.1,0.4,0.1l-0.1,0.2c-0.2-0.1-0.3-0.2-0.5-0.2
		c-0.2,0-0.4,0.1-0.5,0.2c-0.1,0.2-0.2,0.4-0.2,0.7s0.1,0.5,0.2,0.6c0.1,0.2,0.3,0.2,0.5,0.2c0.3,0,0.6-0.2,0.8-0.5v-1.5
		c0-0.7-0.2-1-0.7-1c-0.3,0-0.5,0.1-0.8,0.3L40.8,11c0.2-0.2,0.5-0.2,0.9-0.2C42.6,11,43,11.4,43,12.2z"/>
	<path class="st1" d="M46.9,12.7c0,0.5-0.1,0.8-0.4,1.2c-0.3,0.3-0.6,0.5-1,0.5c-0.2,0-0.4,0-0.6-0.1l0.1-0.2
		c0.1,0.1,0.3,0.2,0.5,0.2s0.5-0.1,0.6-0.4c0.2-0.3,0.3-0.6,0.3-1.1c0-0.4-0.1-0.8-0.3-1.1c-0.2-0.3-0.4-0.4-0.7-0.4
		c-0.2,0-0.3,0.1-0.5,0.2c-0.1,0.1-0.2,0.3-0.3,0.5v3.6h-0.5v-4.4h0.5v0.3c0.2-0.2,0.5-0.4,0.8-0.4c0.4,0,0.8,0.2,1,0.5
		C46.7,11.9,46.9,12.3,46.9,12.7z"/>
	<path class="st1" d="M50.7,12.3h-2v-0.2h1.5c0-0.6-0.3-0.9-0.8-0.9c-0.3,0-0.6,0.1-0.8,0.4c-0.2,0.3-0.3,0.6-0.3,1.1
		s0.1,0.8,0.3,1.1s0.5,0.4,0.8,0.4c0.4,0,0.7-0.2,1-0.5l0.2,0.2c-0.3,0.3-0.7,0.5-1.1,0.5c-0.5,0-0.8-0.2-1.2-0.5
		c-0.3-0.3-0.5-0.7-0.5-1.2s0.2-0.9,0.5-1.2S49,11,49.4,11c0.3,0,0.6,0.1,0.9,0.4C50.6,11.6,50.7,11.9,50.7,12.3z"/>
	<path class="st1" d="M55.4,12.2v2.1h-0.5V14c-0.2,0.2-0.5,0.3-0.8,0.3c-0.3,0-0.6-0.1-0.8-0.3c-0.2-0.2-0.4-0.4-0.4-0.8
		c0-0.3,0.1-0.6,0.4-0.8c0.2-0.2,0.5-0.3,0.7-0.3c0.1,0,0.2,0,0.2,0c0.2,0,0.3,0.1,0.4,0.1l-0.1,0.2c-0.2-0.1-0.3-0.2-0.5-0.2
		s-0.4,0.1-0.5,0.2c-0.1,0.2-0.2,0.4-0.2,0.7s0.1,0.5,0.2,0.6c0.1,0.2,0.3,0.2,0.5,0.2c0.3,0,0.6-0.2,0.8-0.5v-1.5
		c0-0.7-0.2-1-0.7-1c-0.3,0-0.5,0.1-0.8,0.3L53.2,11c0.2-0.2,0.5-0.2,0.9-0.2C55,11,55.4,11.4,55.4,12.2z"/>
	<path class="st1" d="M59.1,14.3h-0.5v-2.2c0-0.7-0.2-1-0.7-1s-0.8,0.3-1,0.9v2.3h-0.5v-3.2H57v0.4c0.3-0.4,0.6-0.5,1-0.5
		s0.7,0.1,0.8,0.2c0.2,0.2,0.3,0.5,0.3,0.9V14.3z"/>
	<path class="st1" d="M62.9,14.3h-0.5V14c-0.2,0.2-0.5,0.4-0.8,0.4c-0.4,0-0.8-0.2-1.1-0.5s-0.4-0.7-0.4-1.2s0.1-0.9,0.4-1.2
		s0.6-0.5,1.1-0.5c0.2,0,0.4,0,0.6,0.1l-0.1,0.2c-0.1-0.1-0.3-0.2-0.5-0.2c-0.2,0-0.5,0.1-0.6,0.4c-0.2,0.3-0.3,0.7-0.3,1.1
		c0,0.4,0.1,0.8,0.3,1.1s0.4,0.4,0.7,0.4c0.2,0,0.3-0.1,0.5-0.2c0.1-0.1,0.2-0.3,0.3-0.5V9.2H63L62.9,14.3L62.9,14.3z"/>
	<path class="st1" d="M67.8,12.2v2.1h-0.5V14c-0.2,0.2-0.5,0.3-0.8,0.3c-0.3,0-0.6-0.1-0.8-0.3c-0.2-0.2-0.4-0.4-0.4-0.8
		c0-0.3,0.1-0.6,0.4-0.8c0.2-0.2,0.5-0.3,0.7-0.3c0.1,0,0.2,0,0.2,0c0.2,0,0.3,0.1,0.4,0.1l-0.1,0.2c-0.2-0.1-0.3-0.2-0.5-0.2
		c-0.2,0-0.4,0.1-0.5,0.2c-0.1,0.2-0.2,0.4-0.2,0.7s0.1,0.5,0.2,0.6c0.1,0.2,0.3,0.2,0.5,0.2c0.3,0,0.6-0.2,0.8-0.5v-1.5
		c0-0.7-0.2-1-0.7-1c-0.3,0-0.5,0.1-0.8,0.3L65.6,11c0.2-0.2,0.5-0.2,0.9-0.2C67.4,11,67.8,11.4,67.8,12.2z"/>
	<path class="st1" d="M70.4,11.2l-0.1,0.2c-0.1-0.1-0.3-0.1-0.4-0.1s-0.1,0-0.2,0.1c-0.2,0.1-0.3,0.4-0.3,0.9v2.1H69v-3.2h0.5v0.4
		c0.1-0.1,0.1-0.2,0.2-0.3c0.1-0.1,0.2-0.1,0.4-0.1C70.3,11.2,70.3,11.1,70.4,11.2z"/>
	<path class="st1" d="M72.7,11.2h-0.6v2c0,0.3,0,0.6,0.1,0.7c0.1,0.1,0.2,0.2,0.5,0.2v0.2c-0.7,0-1.1-0.4-1.1-1.1v-2h-0.3V11h0.3
		v-0.4h0.5V11h0.6V11.2z"/>
	<path class="st1" d="M74.2,9.6c0,0.1,0,0.2-0.1,0.2S74,10,73.9,10s-0.2,0-0.2-0.1c0-0.1-0.1-0.1-0.1-0.2c0-0.1,0-0.2,0.1-0.2
		c0.1-0.1,0.1-0.1,0.2-0.1S74.1,9.4,74.2,9.6C74.2,9.5,74.2,9.6,74.2,9.6z M74.1,14.3h-0.5v-3.2h0.5V14.3z"/>
	<path class="st1" d="M77,13.5c0,0.3-0.1,0.5-0.3,0.6c-0.2,0.2-0.4,0.2-0.7,0.2c-0.4,0-0.7-0.1-0.9-0.4l0.2-0.2
		c0.2,0.3,0.5,0.4,0.8,0.4c0.2,0,0.3-0.1,0.4-0.2c0.1-0.1,0.2-0.3,0.2-0.4c0-0.2-0.1-0.4-0.3-0.5c-0.1-0.1-0.3-0.2-0.6-0.4
		c-0.4-0.2-0.5-0.5-0.5-0.9c0-0.2,0.1-0.4,0.3-0.6c0.2-0.1,0.4-0.2,0.6-0.2c0.1,0,0.3,0,0.5,0.1c0.2,0.1,0.3,0.2,0.3,0.3l-0.2,0.2
		c-0.2-0.3-0.4-0.4-0.7-0.4c-0.3,0-0.5,0.1-0.5,0.4c0,0.2,0.1,0.4,0.3,0.6c0.4,0.2,0.6,0.4,0.7,0.5C76.9,12.9,77,13.2,77,13.5z"/>
	<path class="st1" d="M79.3,11.2h-0.6v2c0,0.3,0,0.6,0.1,0.7c0.1,0.1,0.2,0.2,0.5,0.2v0.2c-0.7,0-1.1-0.4-1.1-1.1v-2h-0.3V11h0.3
		v-0.4h0.5V11h0.6V11.2z"/>
	<path class="st1" d="M80.8,9.6c0,0.1,0,0.2-0.1,0.2c-0.1,0-0.1,0.1-0.2,0.1s-0.2,0-0.2-0.1c0-0.1-0.1-0.1-0.1-0.2
		c0-0.1,0-0.2,0.1-0.2c0.1-0.1,0.1-0.1,0.2-0.1s0.2,0,0.2,0.1C80.8,9.5,80.8,9.6,80.8,9.6z M80.7,14.3h-0.5v-3.2h0.5V14.3z"/>
	<path class="st1" d="M84.5,13.9c-0.3,0.3-0.7,0.4-1.1,0.4c-0.5,0-0.8-0.2-1.2-0.5c-0.3-0.3-0.5-0.7-0.5-1.2s0.2-0.9,0.5-1.2
		c0.3-0.3,0.7-0.5,1.2-0.5c0.4,0,0.7,0.1,1,0.3l-0.1,0.2c-0.2-0.2-0.5-0.4-0.9-0.4c-0.3,0-0.6,0.2-0.8,0.5c-0.2,0.3-0.3,0.6-0.3,1
		c0,0.4,0.1,0.8,0.3,1c0.2,0.3,0.5,0.5,0.8,0.5c0.4,0,0.7-0.2,1-0.5L84.5,13.9z"/>
	<path class="st1" d="M89.3,12.3h-2v-0.2h1.5c0-0.6-0.3-0.9-0.8-0.9c-0.3,0-0.6,0.1-0.8,0.4c-0.2,0.3-0.3,0.6-0.3,1.1
		s0.1,0.8,0.3,1.1c0.2,0.3,0.5,0.4,0.8,0.4c0.4,0,0.7-0.2,1-0.5l0.2,0.2c-0.3,0.3-0.7,0.5-1.1,0.5c-0.5,0-0.8-0.2-1.2-0.5
		c-0.3-0.3-0.5-0.7-0.5-1.2s0.2-0.9,0.5-1.2c0.3-0.3,0.7-0.5,1.1-0.5c0.3,0,0.6,0.1,0.9,0.4C89.2,11.6,89.3,11.9,89.3,12.3z"/>
	<path class="st1" d="M93,14.3h-0.6l-1-1.5l-1.2,1.5H90l1.3-1.6l-1.1-1.6h0.6l0.9,1.2l1-1.2h0.2l-1.1,1.4L93,14.3z"/>
	<path class="st1" d="M96.5,12.7c0,0.5-0.1,0.8-0.4,1.2c-0.3,0.3-0.6,0.5-1,0.5c-0.2,0-0.4,0-0.6-0.1l0.1-0.2
		c0.1,0.1,0.3,0.2,0.5,0.2c0.2,0,0.5-0.1,0.6-0.4c0.2-0.3,0.3-0.6,0.3-1.1c0-0.4-0.1-0.8-0.3-1.1c-0.2-0.3-0.4-0.4-0.7-0.4
		c-0.2,0-0.3,0.1-0.5,0.2c-0.1,0.1-0.2,0.3-0.3,0.5v3.6h-0.5v-4.4h0.5v0.3c0.2-0.2,0.5-0.4,0.8-0.4c0.4,0,0.8,0.2,1,0.5
		C96.4,11.9,96.5,12.3,96.5,12.7z"/>
	<path class="st1" d="M99.1,11.2L99,11.4c-0.1-0.1-0.3-0.1-0.4-0.1s-0.1,0-0.2,0.1c-0.2,0.1-0.3,0.4-0.3,0.9v2.1h-0.5v-3.2h0.5v0.4
		c0.1-0.1,0.1-0.2,0.2-0.3c0.1-0.1,0.2-0.1,0.4-0.1C98.8,11,98.9,11.1,99.1,11.2z"/>
	<path class="st1" d="M102.5,12.3h-2v-0.2h1.5c0-0.6-0.3-0.9-0.8-0.9c-0.3,0-0.6,0.1-0.8,0.4c-0.2,0.3-0.3,0.6-0.3,1.1
		s0.1,0.8,0.3,1.1c0.2,0.3,0.5,0.4,0.8,0.4c0.4,0,0.7-0.2,1-0.5l0.2,0.2c-0.3,0.3-0.7,0.5-1.1,0.5c-0.5,0-0.8-0.2-1.2-0.5
		c-0.3-0.3-0.5-0.7-0.5-1.2s0.2-0.9,0.5-1.2c0.3-0.3,0.7-0.5,1.1-0.5c0.3,0,0.6,0.1,0.9,0.4C102.4,11.6,102.5,11.9,102.5,12.3z"/>
	<path class="st1" d="M105.2,13.5c0,0.3-0.1,0.5-0.3,0.6c-0.2,0.2-0.4,0.2-0.7,0.2c-0.4,0-0.7-0.1-0.9-0.4l0.2-0.2
		c0.2,0.3,0.5,0.4,0.8,0.4c0.2,0,0.3-0.1,0.4-0.2c0.1-0.1,0.2-0.3,0.2-0.4c0-0.2-0.1-0.4-0.3-0.5c-0.1-0.1-0.3-0.2-0.6-0.4
		c-0.4-0.2-0.5-0.5-0.5-0.9c0-0.2,0.1-0.4,0.3-0.6c0.2-0.1,0.4-0.2,0.6-0.2c0.2,0,0.3,0,0.5,0.1c0.2,0.1,0.3,0.2,0.3,0.3l-0.2,0.2
		c-0.2-0.3-0.4-0.4-0.7-0.4c-0.3,0-0.5,0.1-0.5,0.4c0,0.2,0.1,0.4,0.3,0.6c0.4,0.2,0.6,0.4,0.7,0.5
		C105.1,12.9,105.2,13.2,105.2,13.5z"/>
	<path class="st1" d="M108,13.5c0,0.3-0.1,0.5-0.3,0.6c-0.2,0.2-0.4,0.2-0.7,0.2c-0.4,0-0.7-0.1-0.9-0.4l0.2-0.2
		c0.2,0.3,0.5,0.4,0.8,0.4c0.2,0,0.3-0.1,0.4-0.2c0.1-0.1,0.2-0.3,0.2-0.4c0-0.2-0.1-0.4-0.3-0.5c-0.1-0.1-0.3-0.2-0.6-0.4
		c-0.4-0.2-0.5-0.5-0.5-0.9c0-0.2,0.1-0.4,0.3-0.6c0.2-0.1,0.4-0.2,0.6-0.2c0.1,0,0.3,0,0.5,0.1c0.2,0.1,0.3,0.2,0.3,0.3l-0.2,0.2
		c-0.2-0.3-0.4-0.4-0.7-0.4c-0.3,0-0.5,0.1-0.5,0.4c0,0.2,0.1,0.4,0.3,0.6c0.4,0.2,0.6,0.4,0.7,0.5C107.9,12.9,108,13.2,108,13.5z"
		/>
	<path class="st1" d="M109.6,9.6c0,0.1,0,0.2-0.1,0.2s-0.1,0.1-0.2,0.1c-0.1,0-0.2,0-0.2-0.1c0-0.1-0.1-0.1-0.1-0.2
		c0-0.1,0-0.2,0.1-0.2c0.1-0.1,0.1-0.1,0.2-0.1c0.1,0,0.2,0,0.2,0.1C109.5,9.5,109.6,9.6,109.6,9.6z M109.5,14.3H109v-3.2h0.5V14.3z
		"/>
	<path class="st1" d="M113.8,12.7c0,0.5-0.2,0.9-0.5,1.2c-0.3,0.3-0.7,0.5-1.2,0.5s-0.8-0.2-1.2-0.5c-0.3-0.3-0.5-0.7-0.5-1.2
		s0.2-0.8,0.5-1.2c0.3-0.3,0.7-0.5,1.2-0.5s0.8,0.2,1.2,0.5C113.7,11.8,113.8,12.2,113.8,12.7z M113.3,12.7c0-0.4-0.1-0.8-0.3-1.1
		c-0.2-0.3-0.5-0.4-0.8-0.4c-0.3,0-0.6,0.1-0.8,0.4c-0.2,0.3-0.3,0.6-0.3,1.1c0,0.4,0.1,0.8,0.3,1.1c0.2,0.3,0.5,0.4,0.8,0.4
		c0.3,0,0.6-0.1,0.8-0.4S113.3,13.1,113.3,12.7z"/>
	<path class="st1" d="M117.5,14.3H117v-2.2c0-0.7-0.2-1-0.7-1s-0.8,0.3-1,0.9v2.3h-0.5v-3.2h0.5v0.4c0.3-0.4,0.6-0.5,1-0.5
		c0.4,0,0.7,0.1,0.8,0.2c0.2,0.2,0.3,0.5,0.3,0.9L117.5,14.3L117.5,14.3z"/>
	<path class="st1" d="M119.2,14.1c0,0.1,0,0.2-0.1,0.2s-0.1,0.1-0.2,0.1s-0.2,0-0.2-0.1c0-0.1-0.1-0.1-0.1-0.2c0-0.1,0-0.2,0.1-0.2
		c0.1,0,0.1-0.1,0.2-0.1s0.2,0,0.2,0.1S119.2,14,119.2,14.1z"/>
</g>
</svg>
