<?xml version="1.0" encoding="utf-8"?>
<!-- Generator: Adobe Illustrator 27.0.0, SVG Export Plug-In . SVG Version: 6.00 Build 0)  -->
<svg version="1.1" id="圖層_1" xmlns="http://www.w3.org/2000/svg" xmlns:xlink="http://www.w3.org/1999/xlink" x="0px" y="0px"
	 viewBox="0 0 90 153" style="enable-background:new 0 0 90 153;" xml:space="preserve">
<style type="text/css">
	.st0{fill:#D8B167;}
	.st1{fill:none;stroke:#D8B167;stroke-width:0.54;stroke-miterlimit:10;}
</style>
<path class="st0" d="M10.1,73.1c-0.1,0.3-1.3,2.4-4.3,2.4c-3.2,0-5-2.7-5-6.1c0-3.3,1.9-6,5-6c3,0,4.2,2.2,4.3,2.4l-0.3,0.4
	c-3.3-4.4-7.2-1.5-7.2,3.2c0,4.3,3.9,7.6,7.1,3.2L10.1,73.1L10.1,73.1z"/>
<path class="st0" d="M18.2,71.3c0,2.8-1.5,4.1-3.4,4.1s-3.4-1.2-3.4-4.1c0-2.8,1.5-4.1,3.4-4.1S18.2,68.5,18.2,71.3z M16.7,71.3
	c0-2.5-0.6-3.7-1.8-3.7S13,68.8,13,71.3c0,2.5,0.6,3.7,1.9,3.7S16.7,73.9,16.7,71.3z"/>
<path class="st0" d="M31.2,69.8v5.3h-1.4v-5.2c0-1.5-0.8-2.2-1.4-2.2c-0.9,0-1.4,0.4-1.8,1v6.4h-1.4V70c0-1.5-0.8-2.2-1.4-2.2
	c-0.9,0-1.4,0.5-1.8,1v6.4h-1.4v-6.3c0-0.7-0.5-1.4-1.3-1.5v-0.1h2.7v0.8c0.4-0.5,1-0.8,1.8-0.8c1.3,0,2.1,0.5,2.5,1.2
	c0.5-0.7,1.2-1.2,2.1-1.2C30.4,67.3,31.2,68.6,31.2,69.8L31.2,69.8z"/>
<path class="st0" d="M35,67.2v8h-1.4v-6.4c0-0.7-0.5-1.4-1.3-1.5v-0.1H35z M34.3,63.9c-0.5,0-0.9,0.4-0.9,1c0,0.6,0.4,1,0.9,1
	s0.9-0.4,0.9-1C35.2,64.4,34.8,63.9,34.3,63.9z"/>
<path class="st0" d="M43.9,69.8v5.4h-1.4v-5.2c0-1.5-0.8-2.2-1.4-2.2c-0.9,0-1.4,0.5-1.8,1v6.4h-1.4v-6.4c0-0.7-0.5-1.4-1.3-1.5
	v-0.1h2.7v0.8c0.4-0.5,1-0.8,1.8-0.8C43.1,67.2,43.9,68.6,43.9,69.8L43.9,69.8z"/>
<path class="st0" d="M52.1,76c0,1.1-0.4,2.7-3.4,2.7c-2.7,0-3.4-1.1-3.4-2.1s0.7-1.5,1.3-1.7c-0.5,0-1.3-0.6-1.3-1.6
	c0-1.4,1-1.8,1.3-1.9c-0.3-0.4-0.5-1-0.5-1.7c0-1.7,1.2-2.5,2.5-2.5c0.5,0,0.9,0.1,1.3,0.3h2v0.6h-1.2c0.3,0.4,0.5,0.9,0.5,1.6
	c0,1.8-1.2,2.5-2.5,2.5c-0.6,0-1.3-0.2-1.6-0.5c-0.2,0.1-1,0.2-0.9,1c0.1,0.8,1.8,0.6,2.6,0.6C50.1,73.4,52.1,73.2,52.1,76L52.1,76z
	 M51.6,76.3c0-1-0.8-1.4-2.1-1.4h-1.5c-0.9,0-1.3,0.8-1.3,1.7c0,0.8,0.6,1.7,2.1,1.7C51.2,78.3,51.6,77.3,51.6,76.3L51.6,76.3z
	 M47.4,69.7c0,1.6,0.3,2.1,1.2,2.1c0.9,0,1.1-0.5,1.1-2.1s-0.2-2.1-1.1-2.1C47.7,67.6,47.4,68.2,47.4,69.7z"/>
<path class="st0" d="M64.3,72.2c0,1.2-0.8,3.2-3.3,3.2c-2,0-3.2-0.9-3.5-3.3H58c0.3,2.2,1.9,2.7,2.9,2.7c1.7,0,2.1-1.3,2.1-1.9
	c0-1.2-0.9-1.9-2.6-2.9c-1.1-0.6-2.9-1.6-2.9-3.6c0-2.5,2.2-3,3-3c2,0,2.8,1.2,3.1,2.8H63c-0.2-0.9-0.8-2.2-2.6-2.2
	c-0.9,0-1.8,0.8-1.8,1.8c0,1.2,1.3,1.9,2.6,2.7C63.7,69.9,64.2,70.8,64.3,72.2L64.3,72.2z"/>
<path class="st0" d="M72.5,71.3c0,2.8-1.5,4.1-3.4,4.1s-3.4-1.2-3.4-4.1c0-2.8,1.5-4.1,3.4-4.1S72.5,68.5,72.5,71.3z M70.9,71.3
	c0-2.5-0.6-3.7-1.8-3.7s-1.9,1.2-1.9,3.7c0,2.5,0.6,3.7,1.9,3.7S70.9,73.9,70.9,71.3z"/>
<path class="st0" d="M80.7,71.3c0,2.8-1.5,4.1-3.4,4.1c-1.9,0-3.4-1.2-3.4-4.1c0-2.8,1.5-4.1,3.4-4.1C79.2,67.2,80.7,68.5,80.7,71.3
	z M79.1,71.3c0-2.5-0.6-3.7-1.8-3.7c-1.2,0-1.9,1.2-1.9,3.7c0,2.5,0.6,3.7,1.9,3.7S79.1,73.9,79.1,71.3z"/>
<path class="st0" d="M89,69.8v5.4h-1.4v-5.2c0-1.5-0.8-2.2-1.4-2.2c-0.9,0-1.4,0.5-1.8,1v6.4h-1.4v-6.4c0-0.7-0.5-1.4-1.3-1.5v-0.1
	h2.7v0.8c0.4-0.5,1-0.8,1.8-0.8C88.2,67.2,89,68.6,89,69.8L89,69.8z"/>
<path class="st1" d="M44.8,0.7v57.1"/>
<path class="st1" d="M44.8,85.8v66.8"/>
</svg>
