<svg width="110" height="78" viewBox="0 0 110 78" fill="none" xmlns="http://www.w3.org/2000/svg">
<g clip-path="url(#clip0_138_6366)">
<path d="M0.756 43.29V43.806H1.95V46.392H0.756V46.914H2.478V43.29H0.756ZM0.762 44.82V45.33H2.166V44.82H0.762ZM3.306 43.188V43.716H5.25V43.188H3.306ZM3.306 44.634V45.15H5.25V44.634H3.306ZM3.282 46.086V46.596H5.238V46.086H3.282ZM0.45 43.29V47.46H0.978V43.29H0.45ZM5.04 43.188V47.808C5.04 47.916 4.998 47.952 4.89 47.952C4.788 47.958 4.416 47.964 4.056 47.946C4.14 48.096 4.23 48.342 4.254 48.498C4.77 48.498 5.106 48.486 5.316 48.396C5.526 48.3 5.604 48.138 5.604 47.814V43.188H5.04ZM2.97 43.188V45.342C2.97 46.266 2.874 47.406 1.86 48.168C1.98 48.24 2.196 48.438 2.28 48.552C3.372 47.73 3.528 46.368 3.528 45.348V43.188H2.97ZM6.702 44.532V44.94H8.784V44.532H6.702ZM7.5 44.658V45.924H8.022V44.658H7.5ZM6.63 45.894L6.702 46.356C7.278 46.272 8.058 46.164 8.802 46.05L8.784 45.612C7.992 45.726 7.176 45.834 6.63 45.894ZM9.636 44.622V45.084C9.636 45.438 9.486 45.804 8.73 46.08C8.832 46.146 9.024 46.32 9.096 46.416C9.918 46.092 10.116 45.576 10.116 45.096V44.622H9.636ZM10.656 44.502V45.702C10.656 46.056 10.692 46.164 10.782 46.254C10.872 46.338 11.016 46.374 11.148 46.374C11.22 46.374 11.364 46.374 11.442 46.374C11.538 46.374 11.658 46.356 11.73 46.32C11.82 46.278 11.874 46.206 11.916 46.11C11.946 46.008 11.976 45.762 11.982 45.534C11.856 45.492 11.7 45.414 11.604 45.336C11.598 45.546 11.592 45.708 11.58 45.78C11.568 45.852 11.544 45.888 11.526 45.9C11.502 45.918 11.46 45.924 11.424 45.924C11.382 45.924 11.322 45.924 11.292 45.924C11.262 45.924 11.232 45.918 11.214 45.9C11.19 45.876 11.19 45.81 11.19 45.708V44.502H10.656ZM6.6 46.65V47.106H12.006V46.65H6.6ZM9.018 46.284V48.498H9.57V46.284H9.018ZM8.898 45.384C9.384 45.6 10.056 45.924 10.398 46.128L10.602 45.744C10.254 45.558 9.582 45.252 9.102 45.054L8.898 45.384ZM9 44.502V44.886H10.836V44.502H9ZM7.35 43.278V43.716H9.246V43.278H7.35ZM9.798 43.278V43.716H12.048V43.278H9.798ZM7.428 42.888C7.23 43.302 6.882 43.71 6.516 43.98C6.63 44.076 6.822 44.268 6.906 44.37C7.284 44.046 7.686 43.542 7.932 43.038L7.428 42.888ZM9.858 42.888C9.696 43.326 9.39 43.746 9.036 44.022C9.156 44.1 9.366 44.274 9.462 44.364C9.822 44.046 10.176 43.536 10.38 43.026L9.858 42.888ZM7.752 43.902C7.932 44.082 8.16 44.34 8.268 44.502L8.652 44.202C8.538 44.04 8.304 43.8 8.118 43.632L7.752 43.902ZM10.374 43.884C10.554 44.058 10.764 44.292 10.866 44.448L11.274 44.154C11.166 44.004 10.944 43.782 10.764 43.626L10.374 43.884ZM8.196 47.19C7.854 47.526 7.2 47.82 6.594 47.952C6.72 48.066 6.888 48.282 6.966 48.42C7.608 48.228 8.28 47.832 8.664 47.37L8.196 47.19ZM9.942 47.502C10.476 47.742 11.172 48.12 11.52 48.372L11.922 47.976C11.556 47.724 10.848 47.37 10.314 47.154L9.942 47.502ZM13.158 43.962V48.504H13.722V44.514H17.7V43.962H13.158ZM17.496 43.962V47.802C17.496 47.91 17.46 47.94 17.346 47.94C17.22 47.946 16.806 47.952 16.41 47.928C16.494 48.084 16.578 48.348 16.602 48.51C17.148 48.51 17.526 48.498 17.76 48.408C17.988 48.318 18.066 48.144 18.066 47.808V43.962H17.496ZM15.168 42.93C15.072 43.308 14.886 43.83 14.718 44.178L15.264 44.304C15.45 43.98 15.69 43.494 15.882 43.038L15.168 42.93ZM14.418 45.222V47.664H14.94V45.222H14.418ZM14.652 45.222V45.72H16.248V46.734H14.652V47.238H16.776V45.222H14.652ZM21.078 45.474V45.93H24.684V45.474H21.078ZM21.726 46.29V46.74H24.12V46.29H21.726ZM21.924 45.648C21.708 46.23 21.276 46.734 20.766 47.058C20.868 47.142 21.048 47.316 21.12 47.412C21.648 47.034 22.128 46.44 22.398 45.762L21.924 45.648ZM22.38 46.47C22.092 47.106 21.564 47.67 20.976 48.018C21.072 48.102 21.234 48.288 21.3 48.384C21.906 47.976 22.488 47.334 22.824 46.596L22.38 46.47ZM23.262 46.482C23.052 47.172 22.644 47.784 22.14 48.168C22.242 48.246 22.422 48.408 22.5 48.492C23.022 48.054 23.466 47.37 23.718 46.59L23.262 46.482ZM23.976 46.29V46.374C23.922 47.472 23.85 47.88 23.754 47.988C23.712 48.042 23.664 48.054 23.592 48.054C23.514 48.054 23.346 48.048 23.16 48.03C23.226 48.156 23.28 48.354 23.286 48.504C23.508 48.516 23.724 48.51 23.85 48.492C23.988 48.474 24.096 48.432 24.192 48.318C24.342 48.15 24.42 47.688 24.486 46.5C24.492 46.428 24.504 46.29 24.504 46.29H23.976ZM22.098 44.358H23.682V44.754H22.098V44.358ZM22.098 43.584H23.682V43.968H22.098V43.584ZM21.576 43.17V45.168H24.228V43.17H21.576ZM19.356 43.194V48.51H19.86V43.704H20.772V43.194H19.356ZM20.598 43.194V43.356C20.49 43.752 20.28 44.52 20.088 45.066C20.478 45.504 20.574 45.894 20.574 46.2C20.574 46.374 20.544 46.518 20.46 46.578C20.412 46.614 20.352 46.632 20.28 46.632C20.196 46.638 20.094 46.632 19.968 46.626C20.052 46.764 20.094 46.98 20.1 47.118C20.238 47.124 20.382 47.118 20.502 47.106C20.628 47.088 20.736 47.052 20.826 46.992C21.006 46.866 21.078 46.614 21.078 46.26C21.078 45.9 20.988 45.486 20.58 45C20.766 44.526 20.982 43.896 21.144 43.392L20.778 43.176L20.694 43.194H20.598ZM28.602 46.65L29.112 46.218C28.77 45.804 28.212 45.24 27.786 44.892L27.294 45.324C27.714 45.672 28.224 46.188 28.602 46.65ZM32.256 43.29V43.806H33.45V46.392H32.256V46.914H33.978V43.29H32.256ZM32.262 44.82V45.33H33.666V44.82H32.262ZM34.806 43.188V43.716H36.75V43.188H34.806ZM34.806 44.634V45.15H36.75V44.634H34.806ZM34.782 46.086V46.596H36.738V46.086H34.782ZM31.95 43.29V47.46H32.478V43.29H31.95ZM36.54 43.188V47.808C36.54 47.916 36.498 47.952 36.39 47.952C36.288 47.958 35.916 47.964 35.556 47.946C35.64 48.096 35.73 48.342 35.754 48.498C36.27 48.498 36.606 48.486 36.816 48.396C37.026 48.3 37.104 48.138 37.104 47.814V43.188H36.54ZM34.47 43.188V45.342C34.47 46.266 34.374 47.406 33.36 48.168C33.48 48.24 33.696 48.438 33.78 48.552C34.872 47.73 35.028 46.368 35.028 45.348V43.188H34.47ZM38.202 44.532V44.94H40.284V44.532H38.202ZM39 44.658V45.924H39.522V44.658H39ZM38.13 45.894L38.202 46.356C38.778 46.272 39.558 46.164 40.302 46.05L40.284 45.612C39.492 45.726 38.676 45.834 38.13 45.894ZM41.136 44.622V45.084C41.136 45.438 40.986 45.804 40.23 46.08C40.332 46.146 40.524 46.32 40.596 46.416C41.418 46.092 41.616 45.576 41.616 45.096V44.622H41.136ZM42.156 44.502V45.702C42.156 46.056 42.192 46.164 42.282 46.254C42.372 46.338 42.516 46.374 42.648 46.374C42.72 46.374 42.864 46.374 42.942 46.374C43.038 46.374 43.158 46.356 43.23 46.32C43.32 46.278 43.374 46.206 43.416 46.11C43.446 46.008 43.476 45.762 43.482 45.534C43.356 45.492 43.2 45.414 43.104 45.336C43.098 45.546 43.092 45.708 43.08 45.78C43.068 45.852 43.044 45.888 43.026 45.9C43.002 45.918 42.96 45.924 42.924 45.924C42.882 45.924 42.822 45.924 42.792 45.924C42.762 45.924 42.732 45.918 42.714 45.9C42.69 45.876 42.69 45.81 42.69 45.708V44.502H42.156ZM38.1 46.65V47.106H43.506V46.65H38.1ZM40.518 46.284V48.498H41.07V46.284H40.518ZM40.398 45.384C40.884 45.6 41.556 45.924 41.898 46.128L42.102 45.744C41.754 45.558 41.082 45.252 40.602 45.054L40.398 45.384ZM40.5 44.502V44.886H42.336V44.502H40.5ZM38.85 43.278V43.716H40.746V43.278H38.85ZM41.298 43.278V43.716H43.548V43.278H41.298ZM38.928 42.888C38.73 43.302 38.382 43.71 38.016 43.98C38.13 44.076 38.322 44.268 38.406 44.37C38.784 44.046 39.186 43.542 39.432 43.038L38.928 42.888ZM41.358 42.888C41.196 43.326 40.89 43.746 40.536 44.022C40.656 44.1 40.866 44.274 40.962 44.364C41.322 44.046 41.676 43.536 41.88 43.026L41.358 42.888ZM39.252 43.902C39.432 44.082 39.66 44.34 39.768 44.502L40.152 44.202C40.038 44.04 39.804 43.8 39.618 43.632L39.252 43.902ZM41.874 43.884C42.054 44.058 42.264 44.292 42.366 44.448L42.774 44.154C42.666 44.004 42.444 43.782 42.264 43.626L41.874 43.884ZM39.696 47.19C39.354 47.526 38.7 47.82 38.094 47.952C38.22 48.066 38.388 48.282 38.466 48.42C39.108 48.228 39.78 47.832 40.164 47.37L39.696 47.19ZM41.442 47.502C41.976 47.742 42.672 48.12 43.02 48.372L43.422 47.976C43.056 47.724 42.348 47.37 41.814 47.154L41.442 47.502ZM44.532 43.176V48.492H45.006V43.686H45.876V43.176H44.532ZM45.732 43.176V43.332C45.624 43.728 45.426 44.46 45.234 45C45.618 45.456 45.708 45.858 45.708 46.164C45.708 46.344 45.678 46.5 45.594 46.56C45.552 46.59 45.486 46.608 45.426 46.608C45.342 46.62 45.24 46.614 45.12 46.602C45.198 46.746 45.24 46.962 45.246 47.1C45.378 47.1 45.522 47.1 45.63 47.088C45.756 47.07 45.858 47.034 45.948 46.968C46.116 46.836 46.188 46.578 46.188 46.224C46.188 45.858 46.098 45.426 45.702 44.934C45.894 44.466 46.092 43.866 46.254 43.374L45.906 43.158L45.822 43.176H45.732ZM47.79 44.358V45.03H48.318V44.358H47.79ZM46.572 44.196V44.562H49.602V44.196H46.572ZM46.284 46.062V46.38H49.854V46.062H46.284ZM46.374 44.862V45.228H49.824V44.862H46.374ZM46.494 45.456V45.798H49.068V46.656H46.47V47.004H49.572V45.456H46.494ZM46.992 47.214V47.892C46.992 48.336 47.124 48.462 47.682 48.462C47.79 48.462 48.378 48.462 48.498 48.462C48.888 48.462 49.026 48.336 49.08 47.856C48.942 47.826 48.738 47.76 48.642 47.694C48.624 47.994 48.588 48.036 48.438 48.036C48.306 48.036 47.832 48.036 47.736 48.036C47.526 48.036 47.496 48.018 47.496 47.892V47.214H46.992ZM46.482 47.226C46.386 47.55 46.218 47.964 46.02 48.228L46.458 48.426C46.65 48.156 46.8 47.73 46.902 47.394L46.482 47.226ZM47.538 47.124C47.76 47.316 48.078 47.61 48.24 47.79L48.558 47.502C48.396 47.334 48.09 47.058 47.844 46.872L47.538 47.124ZM48.888 47.376C49.086 47.688 49.332 48.12 49.446 48.384L49.89 48.18C49.77 47.922 49.524 47.52 49.308 47.208L48.888 47.376ZM49.062 43.488C48.948 43.74 48.786 44.022 48.612 44.232C48.72 44.28 48.906 44.376 48.996 44.436C49.152 44.226 49.35 43.896 49.482 43.614L49.062 43.488ZM49.446 42.948C48.732 43.122 47.448 43.242 46.368 43.284C46.416 43.386 46.476 43.554 46.488 43.668C47.586 43.638 48.918 43.53 49.776 43.308L49.446 42.948ZM47.664 43.716C47.76 43.878 47.868 44.1 47.916 44.238L48.348 44.064C48.294 43.932 48.18 43.722 48.078 43.566L47.664 43.716ZM46.656 43.788C46.758 43.926 46.872 44.112 46.932 44.232L47.364 44.052C47.298 43.938 47.172 43.758 47.07 43.632L46.656 43.788ZM53.802 46.65L54.312 46.218C53.97 45.804 53.412 45.24 52.986 44.892L52.494 45.324C52.914 45.672 53.424 46.188 53.802 46.65ZM57.456 43.29V43.806H58.65V46.392H57.456V46.914H59.178V43.29H57.456ZM57.462 44.82V45.33H58.866V44.82H57.462ZM60.006 43.188V43.716H61.95V43.188H60.006ZM60.006 44.634V45.15H61.95V44.634H60.006ZM59.982 46.086V46.596H61.938V46.086H59.982ZM57.15 43.29V47.46H57.678V43.29H57.15ZM61.74 43.188V47.808C61.74 47.916 61.698 47.952 61.59 47.952C61.488 47.958 61.116 47.964 60.756 47.946C60.84 48.096 60.93 48.342 60.954 48.498C61.47 48.498 61.806 48.486 62.016 48.396C62.226 48.3 62.304 48.138 62.304 47.814V43.188H61.74ZM59.67 43.188V45.342C59.67 46.266 59.574 47.406 58.56 48.168C58.68 48.24 58.896 48.438 58.98 48.552C60.072 47.73 60.228 46.368 60.228 45.348V43.188H59.67ZM63.402 44.532V44.94H65.484V44.532H63.402ZM64.2 44.658V45.924H64.722V44.658H64.2ZM63.33 45.894L63.402 46.356C63.978 46.272 64.758 46.164 65.502 46.05L65.484 45.612C64.692 45.726 63.876 45.834 63.33 45.894ZM66.336 44.622V45.084C66.336 45.438 66.186 45.804 65.43 46.08C65.532 46.146 65.724 46.32 65.796 46.416C66.618 46.092 66.816 45.576 66.816 45.096V44.622H66.336ZM67.356 44.502V45.702C67.356 46.056 67.392 46.164 67.482 46.254C67.572 46.338 67.716 46.374 67.848 46.374C67.92 46.374 68.064 46.374 68.142 46.374C68.238 46.374 68.358 46.356 68.43 46.32C68.52 46.278 68.574 46.206 68.616 46.11C68.646 46.008 68.676 45.762 68.682 45.534C68.556 45.492 68.4 45.414 68.304 45.336C68.298 45.546 68.292 45.708 68.28 45.78C68.268 45.852 68.244 45.888 68.226 45.9C68.202 45.918 68.16 45.924 68.124 45.924C68.082 45.924 68.022 45.924 67.992 45.924C67.962 45.924 67.932 45.918 67.914 45.9C67.89 45.876 67.89 45.81 67.89 45.708V44.502H67.356ZM63.3 46.65V47.106H68.706V46.65H63.3ZM65.718 46.284V48.498H66.27V46.284H65.718ZM65.598 45.384C66.084 45.6 66.756 45.924 67.098 46.128L67.302 45.744C66.954 45.558 66.282 45.252 65.802 45.054L65.598 45.384ZM65.7 44.502V44.886H67.536V44.502H65.7ZM64.05 43.278V43.716H65.946V43.278H64.05ZM66.498 43.278V43.716H68.748V43.278H66.498ZM64.128 42.888C63.93 43.302 63.582 43.71 63.216 43.98C63.33 44.076 63.522 44.268 63.606 44.37C63.984 44.046 64.386 43.542 64.632 43.038L64.128 42.888ZM66.558 42.888C66.396 43.326 66.09 43.746 65.736 44.022C65.856 44.1 66.066 44.274 66.162 44.364C66.522 44.046 66.876 43.536 67.08 43.026L66.558 42.888ZM64.452 43.902C64.632 44.082 64.86 44.34 64.968 44.502L65.352 44.202C65.238 44.04 65.004 43.8 64.818 43.632L64.452 43.902ZM67.074 43.884C67.254 44.058 67.464 44.292 67.566 44.448L67.974 44.154C67.866 44.004 67.644 43.782 67.464 43.626L67.074 43.884ZM64.896 47.19C64.554 47.526 63.9 47.82 63.294 47.952C63.42 48.066 63.588 48.282 63.666 48.42C64.308 48.228 64.98 47.832 65.364 47.37L64.896 47.19ZM66.642 47.502C67.176 47.742 67.872 48.12 68.22 48.372L68.622 47.976C68.256 47.724 67.548 47.37 67.014 47.154L66.642 47.502ZM70.422 42.99V45.264H70.908V42.99H70.422ZM73.182 43.746V48.504H73.698V43.746H73.182ZM69.534 45.012V45.54H71.85V45.012H69.534ZM72.024 44.19V44.646H74.862V44.19H72.024ZM71.808 47.19V47.676H75.072V47.19H71.808ZM71.904 43.11V44.07H72.384V43.548H74.502V44.07H74.994V43.11H71.904ZM69.996 45.312C69.978 46.566 69.936 47.538 69.474 48.108C69.6 48.192 69.756 48.372 69.834 48.498C70.38 47.832 70.458 46.716 70.476 45.312H69.996ZM69.576 43.446C69.69 43.89 69.816 44.472 69.858 44.85L70.266 44.742C70.218 44.364 70.098 43.8 69.972 43.356L69.576 43.446ZM71.376 43.332C71.298 43.758 71.142 44.364 71.004 44.742L71.37 44.85C71.52 44.496 71.706 43.92 71.844 43.446L71.376 43.332ZM72.552 46.086H74.346V46.452H72.552V46.086ZM72.552 45.372H74.346V45.732H72.552V45.372ZM72.096 45.006V46.818H74.826V45.006H72.096ZM70.818 47.91C70.908 47.814 71.052 47.736 71.844 47.334C71.82 47.226 71.784 47.022 71.766 46.884L70.926 47.286L70.776 47.46L70.818 47.91ZM70.83 45.264V46.884C70.83 47.124 70.704 47.268 70.602 47.334C70.686 47.472 70.788 47.772 70.818 47.91L71.31 47.394V45.264H70.83ZM76.32 46.05V46.536H80.91V46.05H76.32ZM76.602 46.962V47.436H80.646V46.962H76.602ZM75.936 47.88V48.378H81.27V47.88H75.936ZM77.118 44.784H80.082V45.228H77.118V44.784ZM77.118 43.926H80.082V44.364H77.118V43.926ZM76.548 43.476V45.678H80.676V43.476H76.548ZM78.33 46.296V48.138H78.918V46.296H78.33ZM78.3 42.942C78.246 43.158 78.132 43.464 78.036 43.686L78.6 43.764C78.714 43.566 78.864 43.296 78.99 43.002L78.3 42.942ZM1.986 53.238V53.67H5.676V53.238H1.986ZM2.268 54.894V55.308H5.406V54.894H2.268ZM2.022 55.71V56.148H5.616V55.71H2.022ZM3.42 51.942V56.664H3.96V51.942H3.42ZM2.346 52.422V52.86H4.794V54.066H2.31V54.51H5.298V52.422H2.346ZM0.36 52.29V52.794H1.728V52.29H0.36ZM0.828 54.006L0.786 54.504H1.716V54.006H0.828ZM1.518 54.006V54.108C1.38 55.626 0.936 56.61 0.186 57.132C0.306 57.204 0.516 57.402 0.6 57.504C1.368 56.928 1.866 55.812 2.04 54.072L1.722 53.994L1.62 54.006H1.518ZM0.828 54.93L0.408 55.08C0.978 57.006 2.136 57.372 3.858 57.372H5.58C5.61 57.222 5.706 56.97 5.79 56.856C5.436 56.862 4.158 56.862 3.876 56.862C2.394 56.862 1.302 56.574 0.828 54.93ZM0.564 54.732C0.564 54.624 0.954 54.45 0.954 54.45V54.444C1.32 53.94 1.728 53.208 2.064 52.446L1.716 52.212L1.512 52.302V52.332C1.272 53.004 0.864 53.718 0.732 53.904C0.612 54.102 0.456 54.252 0.336 54.282C0.408 54.396 0.522 54.618 0.564 54.732ZM6.702 53.532V53.94H8.784V53.532H6.702ZM7.5 53.658V54.924H8.022V53.658H7.5ZM6.63 54.894L6.702 55.356C7.278 55.272 8.058 55.164 8.802 55.05L8.784 54.612C7.992 54.726 7.176 54.834 6.63 54.894ZM9.636 53.622V54.084C9.636 54.438 9.486 54.804 8.73 55.08C8.832 55.146 9.024 55.32 9.096 55.416C9.918 55.092 10.116 54.576 10.116 54.096V53.622H9.636ZM10.656 53.502V54.702C10.656 55.056 10.692 55.164 10.782 55.254C10.872 55.338 11.016 55.374 11.148 55.374C11.22 55.374 11.364 55.374 11.442 55.374C11.538 55.374 11.658 55.356 11.73 55.32C11.82 55.278 11.874 55.206 11.916 55.11C11.946 55.008 11.976 54.762 11.982 54.534C11.856 54.492 11.7 54.414 11.604 54.336C11.598 54.546 11.592 54.708 11.58 54.78C11.568 54.852 11.544 54.888 11.526 54.9C11.502 54.918 11.46 54.924 11.424 54.924C11.382 54.924 11.322 54.924 11.292 54.924C11.262 54.924 11.232 54.918 11.214 54.9C11.19 54.876 11.19 54.81 11.19 54.708V53.502H10.656ZM6.6 55.65V56.106H12.006V55.65H6.6ZM9.018 55.284V57.498H9.57V55.284H9.018ZM8.898 54.384C9.384 54.6 10.056 54.924 10.398 55.128L10.602 54.744C10.254 54.558 9.582 54.252 9.102 54.054L8.898 54.384ZM9 53.502V53.886H10.836V53.502H9ZM7.35 52.278V52.716H9.246V52.278H7.35ZM9.798 52.278V52.716H12.048V52.278H9.798ZM7.428 51.888C7.23 52.302 6.882 52.71 6.516 52.98C6.63 53.076 6.822 53.268 6.906 53.37C7.284 53.046 7.686 52.542 7.932 52.038L7.428 51.888ZM9.858 51.888C9.696 52.326 9.39 52.746 9.036 53.022C9.156 53.1 9.366 53.274 9.462 53.364C9.822 53.046 10.176 52.536 10.38 52.026L9.858 51.888ZM7.752 52.902C7.932 53.082 8.16 53.34 8.268 53.502L8.652 53.202C8.538 53.04 8.304 52.8 8.118 52.632L7.752 52.902ZM10.374 52.884C10.554 53.058 10.764 53.292 10.866 53.448L11.274 53.154C11.166 53.004 10.944 52.782 10.764 52.626L10.374 52.884ZM8.196 56.19C7.854 56.526 7.2 56.82 6.594 56.952C6.72 57.066 6.888 57.282 6.966 57.42C7.608 57.228 8.28 56.832 8.664 56.37L8.196 56.19ZM9.942 56.502C10.476 56.742 11.172 57.12 11.52 57.372L11.922 56.976C11.556 56.724 10.848 56.37 10.314 56.154L9.942 56.502ZM15.756 51.936C15.564 52.836 15.216 53.7 14.724 54.234C14.844 54.306 15.066 54.468 15.156 54.558C15.654 53.958 16.05 53.028 16.272 52.038L15.756 51.936ZM17.802 52.914V53.04C17.688 55.638 17.562 56.586 17.376 56.802C17.304 56.886 17.25 56.91 17.154 56.91C17.04 56.91 16.812 56.904 16.566 56.88C16.656 57.036 16.71 57.276 16.722 57.438C16.986 57.456 17.244 57.456 17.406 57.432C17.598 57.402 17.718 57.342 17.85 57.162C18.084 56.862 18.204 55.902 18.33 53.184C18.336 53.112 18.342 52.914 18.342 52.914H17.802ZM15.81 52.914L15.558 53.442H18.036V52.914H15.81ZM16.338 53.082C16.098 54.114 15.546 55.26 14.844 55.812C14.994 55.896 15.174 56.028 15.288 56.136C15.954 55.536 16.506 54.342 16.758 53.292L16.338 53.082ZM17.184 53.13C16.902 54.702 16.254 56.304 15.21 57.054C15.366 57.132 15.57 57.276 15.678 57.39C16.68 56.574 17.334 54.93 17.634 53.34L17.184 53.13ZM12.786 55.242L12.93 55.788C13.548 55.602 14.364 55.35 15.12 55.11L15.048 54.612C14.226 54.852 13.362 55.104 12.786 55.242ZM13.89 51.942V57.504H14.412V51.942H13.89ZM13.122 52.284C13.062 53.01 12.948 53.766 12.738 54.264C12.852 54.318 13.068 54.45 13.152 54.516C13.374 53.982 13.524 53.16 13.608 52.362L13.122 52.284ZM13.218 53.136L13.116 53.682H14.982V53.136H13.218ZM20.22 52.836V53.376H21.684V52.836H20.22ZM22.506 51.942V57.504H23.1V51.942H22.506ZM19.668 54.21C20.094 54.594 20.634 55.146 20.886 55.488L21.294 55.086C21.03 54.744 20.466 54.222 20.046 53.856L19.668 54.21ZM20.202 51.93C19.998 52.98 19.626 53.976 19.086 54.588C19.218 54.672 19.464 54.852 19.566 54.948C20.112 54.258 20.526 53.184 20.772 52.038L20.202 51.93ZM21.486 52.836V52.98C21.24 55.116 20.406 56.382 19.116 57.018C19.266 57.114 19.5 57.354 19.596 57.492C20.904 56.784 21.81 55.338 22.11 52.932L21.708 52.818L21.6 52.836H21.486ZM22.866 54.084C23.346 54.516 23.964 55.122 24.252 55.506L24.726 55.116C24.42 54.738 23.778 54.156 23.31 53.754L22.866 54.084ZM26.232 55.398V55.776H28.104V55.398H26.232ZM26.232 56.094V56.466H28.14V56.094H26.232ZM26.148 56.82V57.216H28.206V56.82H26.148ZM26.97 54.966V56.922H27.414V54.966H26.97ZM25.956 53.46H26.412V53.94H25.956V53.46ZM25.626 53.148V54.246H26.76V53.148H25.626ZM27.372 53.46H27.834V53.928H27.372V53.46ZM27.042 53.142V54.246H28.176V53.142H27.042ZM26.31 54.702H26.268L25.89 55.164V57.504H26.31V55.098H28.224V54.702H26.31ZM26.154 54.24C25.98 54.714 25.68 55.182 25.368 55.506C25.44 55.596 25.572 55.806 25.614 55.89C25.956 55.512 26.31 54.924 26.526 54.366L26.154 54.24ZM26.862 54.408C26.964 54.576 27.066 54.798 27.096 54.948L27.468 54.774C27.438 54.63 27.324 54.414 27.216 54.258L26.862 54.408ZM25.404 52.284V52.698H26.436V52.284H25.404ZM26.226 51.942V53.04H26.676V51.942H26.226ZM27.144 51.942V53.04H27.6V51.942H27.144ZM27.342 52.278V52.698H28.344V52.278H27.342ZM28.932 53.604H30.21V54.09H28.932V53.604ZM28.932 54.546H30.21V55.044H28.932V54.546ZM28.932 52.656H30.21V53.142H28.932V52.656ZM28.452 52.152V55.548H30.714V52.152H28.452ZM29.724 55.35V56.838C29.724 57.3 29.808 57.45 30.192 57.45C30.27 57.45 30.426 57.45 30.504 57.45C30.828 57.45 30.948 57.24 30.978 56.388C30.858 56.346 30.654 56.274 30.57 56.19C30.558 56.91 30.54 56.982 30.444 56.982C30.408 56.982 30.294 56.982 30.258 56.982C30.18 56.982 30.174 56.964 30.174 56.832V55.35H29.724ZM28.938 55.362C28.884 56.13 28.734 56.748 28.02 57.096C28.134 57.186 28.284 57.384 28.35 57.516C29.16 57.072 29.358 56.316 29.424 55.362H28.938ZM34.902 55.65L35.412 55.218C35.07 54.804 34.512 54.24 34.086 53.892L33.594 54.324C34.014 54.672 34.524 55.188 34.902 55.65ZM40.08 52.158V52.644H41.178V52.158H40.08ZM40.89 53.562V54.036H42.384V53.562H40.89ZM39.792 56.832V57.318H43.512V56.832H39.792ZM40.866 54.822H42.438V55.362H40.866V54.822ZM40.35 54.372V55.812H42.972V54.372H40.35ZM40.998 52.158V52.242C40.812 53.124 40.278 53.916 39.648 54.27C39.756 54.366 39.9 54.558 39.966 54.678C40.692 54.228 41.268 53.388 41.508 52.248L41.178 52.134L41.088 52.158H40.998ZM39.882 53.178C40.122 53.346 40.434 53.586 40.584 53.742L40.89 53.358C40.728 53.214 40.41 52.986 40.176 52.83L39.882 53.178ZM40.542 56.004C40.68 56.274 40.794 56.634 40.824 56.862L41.34 56.706C41.298 56.472 41.172 56.118 41.028 55.866L40.542 56.004ZM42.792 52.128C42.612 52.314 42.282 52.59 42.066 52.746L42.33 53.046C42.57 52.914 42.876 52.698 43.152 52.494L42.792 52.128ZM43.224 52.83C43.038 53.01 42.684 53.286 42.456 53.436L42.708 53.724C42.966 53.598 43.284 53.4 43.596 53.208L43.224 52.83ZM42.246 55.824C42.15 56.148 41.958 56.61 41.802 56.898L42.276 57.054C42.444 56.784 42.648 56.37 42.828 55.992L42.246 55.824ZM42.18 51.96L41.712 52.062C42.09 53.496 42.576 54.126 43.29 54.612C43.362 54.462 43.512 54.282 43.644 54.174C42.996 53.772 42.528 53.238 42.18 51.96ZM38.766 51.984V54.048C38.766 55.122 38.694 56.232 38.022 57.114C38.136 57.186 38.298 57.354 38.376 57.462C39.138 56.484 39.228 55.254 39.228 54.048V51.984H38.766ZM39.534 52.974C39.492 53.4 39.372 54.024 39.288 54.402L39.588 54.528C39.708 54.174 39.828 53.586 39.948 53.124L39.534 52.974ZM39.186 55.29L38.838 55.548C39.012 55.812 39.414 56.454 39.57 56.772L39.966 56.382C39.846 56.214 39.33 55.458 39.186 55.29ZM37.974 53.064C38.106 53.586 38.232 54.276 38.286 54.678L38.7 54.546C38.652 54.168 38.502 53.496 38.358 52.968L37.974 53.064ZM47.562 54.606V56.718C47.562 57.312 47.718 57.492 48.318 57.492C48.432 57.492 48.996 57.492 49.122 57.492C49.668 57.492 49.818 57.222 49.878 56.208C49.728 56.166 49.482 56.07 49.356 55.974C49.332 56.82 49.296 56.958 49.074 56.958C48.948 56.958 48.492 56.958 48.39 56.958C48.174 56.958 48.132 56.922 48.132 56.718V54.606H47.562ZM45.966 54.636C45.876 55.758 45.708 56.586 44.274 57.018C44.4 57.132 44.562 57.366 44.622 57.51C46.2 56.988 46.464 55.98 46.566 54.636H45.966ZM44.88 52.404C45.168 52.878 45.456 53.508 45.552 53.904L46.104 53.682C45.996 53.28 45.684 52.674 45.396 52.218L44.88 52.404ZM48.798 52.158C48.636 52.638 48.324 53.286 48.072 53.688L48.558 53.88C48.822 53.496 49.14 52.896 49.398 52.368L48.798 52.158ZM44.412 54.192V54.726H49.8V54.192H44.412ZM46.788 51.936V54.408H47.364V51.936H46.788ZM50.91 53.76V54.198H52.716V53.76H50.91ZM50.91 54.558V54.996H52.728V54.558H50.91ZM50.658 52.944V53.406H52.974V52.944H50.658ZM51.162 55.374V55.836H52.224V56.694H51.162V57.156H52.722V55.374H51.162ZM50.91 55.374V57.426H51.402V55.374H50.91ZM51.288 52.128C51.45 52.38 51.642 52.734 51.726 52.956L52.188 52.698C52.092 52.482 51.9 52.158 51.732 51.912L51.288 52.128ZM53.544 52.146V52.674H55.122V52.146H53.544ZM52.89 54.57V55.098H55.536V54.57H52.89ZM55.332 54.57V54.66C54.966 55.926 53.91 56.706 52.668 56.994C52.77 57.12 52.896 57.354 52.956 57.504C54.318 57.114 55.44 56.274 55.89 54.696L55.536 54.546L55.44 54.57H55.332ZM53.592 55.044L53.106 55.212C53.64 56.37 54.558 57.156 55.866 57.492C55.938 57.336 56.094 57.096 56.22 56.976C54.966 56.712 54.036 56.01 53.592 55.044ZM53.442 52.146V52.8C53.442 53.214 53.352 53.682 52.698 54.036C52.8 54.12 52.998 54.336 53.064 54.45C53.802 54.036 53.964 53.376 53.964 52.818V52.146H53.442ZM54.84 52.146V53.496C54.84 54.018 54.936 54.222 55.404 54.222C55.482 54.222 55.686 54.222 55.764 54.222C55.884 54.222 56.004 54.216 56.082 54.18C56.058 54.054 56.046 53.844 56.04 53.706C55.962 53.724 55.842 53.736 55.764 53.736C55.704 53.736 55.512 53.736 55.452 53.736C55.374 53.736 55.368 53.676 55.368 53.502V52.146H54.84ZM57.324 53.76V54.198H59.316V53.76H57.324ZM57.324 54.558V54.996H59.304V54.558H57.324ZM57.06 52.944V53.406H59.568V52.944H57.06ZM57.606 55.374V55.836H58.824V56.694H57.606V57.156H59.316V55.374H57.606ZM57.36 55.374V57.426H57.846V55.374H57.36ZM57.75 52.128C57.912 52.38 58.104 52.734 58.194 52.956L58.644 52.698C58.548 52.482 58.362 52.158 58.194 51.912L57.75 52.128ZM59.556 53.982V54.54H62.448V53.982H59.556ZM60.678 52.044V57.504H61.266V52.044H60.678ZM0.294 64.896V65.364H5.7V64.896H0.294ZM1.434 63.858V64.272H4.182V63.858H1.434ZM2.778 64.68V65.928C2.778 66.006 2.754 66.024 2.658 66.03C2.562 66.03 2.214 66.03 1.878 66.018C1.95 66.156 2.034 66.348 2.064 66.498C2.532 66.498 2.844 66.498 3.06 66.426C3.276 66.348 3.336 66.216 3.336 65.946V64.68H2.778ZM4.044 63.858V63.954C3.774 64.188 3.234 64.506 2.778 64.68C2.85 64.746 2.982 64.884 3.042 64.974C3.588 64.764 4.194 64.446 4.626 64.122L4.296 63.828L4.176 63.858H4.044ZM0.414 63.09V64.248H0.954V63.516H5.034V64.248H5.598V63.09H0.414ZM4.734 61.152C4.704 61.842 4.644 62.748 4.566 63.312H5.112C5.178 62.766 5.238 61.86 5.274 61.152H4.734ZM3.822 61.152V61.524H4.956V61.152H3.822ZM1.956 60.978C1.644 61.08 1.122 61.23 0.768 61.29L0.972 61.608C1.332 61.554 1.842 61.458 2.202 61.314L1.956 60.978ZM1.056 61.8V62.166H2.16V61.8H1.056ZM1.08 62.442V62.814H2.184V62.442H1.08ZM3.858 61.8V62.166H4.902V61.8H3.858ZM3.822 62.442V62.814H4.86V62.442H3.822ZM3.258 60.984C3.03 61.29 2.616 61.572 2.208 61.764C2.298 61.824 2.448 61.956 2.514 62.028C2.922 61.812 3.372 61.464 3.642 61.092L3.258 60.984ZM2.322 61.278C2.712 61.464 3.186 61.758 3.414 61.974L3.696 61.716C3.45 61.506 2.976 61.218 2.592 61.044L2.322 61.278ZM3.27 61.998C3.03 62.322 2.586 62.622 2.16 62.814C2.25 62.88 2.394 63.03 2.46 63.102C2.892 62.874 3.366 62.508 3.654 62.112L3.27 61.998ZM2.298 62.292C2.706 62.502 3.198 62.826 3.432 63.06L3.72 62.796C3.474 62.562 2.97 62.256 2.574 62.064L2.298 62.292ZM0.768 61.29L0.894 63.294H1.422L1.308 61.434L0.768 61.29ZM7.332 61.194V61.71H11.982V61.194H7.332ZM7.41 65.874V66.348H11.994V65.874H7.41ZM9.768 64.788V65.238H11.448V64.788H9.768ZM6.972 61.194V63.006C6.972 63.954 6.93 65.292 6.462 66.228C6.6 66.282 6.834 66.414 6.942 66.492C7.44 65.502 7.512 64.014 7.512 63.006V61.194H6.972ZM9.468 64.236V66.138H10.02V64.236H9.468ZM8.13 64.662V66.144H8.67V64.662H8.13ZM7.668 62.712V63.12H9.534V62.712H7.668ZM8.388 62.064V64.26H8.862V62.064H8.388ZM8.328 62.886C8.13 63.276 7.764 63.696 7.416 63.9C7.518 63.984 7.656 64.134 7.728 64.248C8.082 63.978 8.448 63.474 8.646 63.006L8.328 62.886ZM9.702 62.712V63.12H11.874V62.712H9.702ZM10.47 62.064V64.26H10.95V62.064H10.47ZM10.332 62.886C10.14 63.27 9.75 63.69 9.39 63.894C9.492 63.978 9.63 64.134 9.702 64.248C10.074 63.984 10.458 63.474 10.656 63L10.332 62.886ZM8.838 63.102L8.562 63.312C8.73 63.438 9.102 63.774 9.24 63.924L9.522 63.57C9.408 63.48 8.976 63.186 8.838 63.102ZM9.102 61.806C8.784 61.938 8.178 62.034 7.65 62.082C7.704 62.172 7.758 62.322 7.782 62.412C8.346 62.376 9.024 62.274 9.468 62.094L9.102 61.806ZM11.268 61.782C10.92 61.926 10.248 62.016 9.672 62.07C9.72 62.154 9.78 62.31 9.798 62.4C10.416 62.364 11.154 62.256 11.64 62.076L11.268 61.782ZM10.956 63.126L10.698 63.366C10.944 63.54 11.532 64.014 11.754 64.23L12.012 63.852C11.844 63.726 11.16 63.246 10.956 63.126ZM15.6 62.814C15.87 62.814 16.104 62.61 16.104 62.316C16.104 62.016 15.87 61.812 15.6 61.812C15.324 61.812 15.096 62.016 15.096 62.316C15.096 62.61 15.324 62.814 15.6 62.814ZM15.6 65.718C15.87 65.718 16.104 65.514 16.104 65.22C16.104 64.92 15.87 64.716 15.6 64.716C15.324 64.716 15.096 64.92 15.096 65.22C15.096 65.514 15.324 65.718 15.6 65.718ZM0.552 70.998V73.932H1.122V71.556H4.848V73.902H5.442V70.998H0.552ZM0.852 73.02V73.578H5.184V73.02H0.852ZM2.682 69.936V75.504H3.282V69.936H2.682ZM6.738 72.354V72.84H8.73V72.354H6.738ZM6.588 73.356V73.848H12.018V73.356H6.588ZM6.744 71.394V71.868H11.862V71.394H6.744ZM6.912 74.268V74.742H11.658V74.268H6.912ZM8.994 71.574V75.51H9.558V71.574H8.994ZM7.554 72.006V73.23H8.082V72.006H7.554ZM10.512 72.006V73.23H11.046V72.006H10.512ZM7.962 69.936V71.238H8.52V69.936H7.962ZM10.038 69.936V71.238H10.596V69.936H10.038ZM6.636 70.332V70.83H9.186V70.332H6.636ZM9.402 70.332V70.83H11.952V70.332H9.402ZM9.84 72.33V72.816H11.832V72.33H9.84ZM13.8 70.464V75.498H14.352V70.464H13.8ZM12.828 71.628V72.156H15.198V71.628H12.828ZM13.83 71.838C13.626 72.546 13.17 73.452 12.744 73.932C12.84 74.07 12.966 74.304 13.02 74.466C13.482 73.896 13.938 72.834 14.172 71.982L13.83 71.838ZM14.808 70.008C14.334 70.212 13.56 70.392 12.882 70.494C12.942 70.62 13.014 70.812 13.038 70.938C13.734 70.848 14.556 70.692 15.138 70.47L14.808 70.008ZM14.328 72.216L14.076 72.45C14.256 72.69 14.682 73.356 14.826 73.65L15.162 73.212C15.036 73.044 14.484 72.366 14.328 72.216ZM17.106 69.93V75.498H17.67V69.93H17.106ZM15.114 73.824L15.198 74.364L18.414 73.824L18.324 73.29L15.114 73.824ZM15.558 70.656C15.9 70.908 16.314 71.28 16.488 71.532L16.884 71.172C16.692 70.914 16.272 70.566 15.924 70.332L15.558 70.656ZM15.324 72.228C15.696 72.48 16.14 72.864 16.344 73.128L16.728 72.756C16.512 72.498 16.056 72.138 15.684 71.898L15.324 72.228ZM21.186 70.842V71.37H24.51V70.842H21.186ZM21.3 72.192V72.708H23.91V72.192H21.3ZM22.548 69.936V72.48H23.106V69.936H22.548ZM21.966 72.588L21.456 72.738C21.99 74.124 22.932 75.09 24.372 75.51C24.45 75.366 24.612 75.138 24.738 75.024C23.352 74.67 22.41 73.788 21.966 72.588ZM23.856 72.192V72.288C23.454 73.728 22.248 74.64 20.838 74.988C20.946 75.108 21.084 75.348 21.144 75.498C22.668 75.048 23.928 74.07 24.426 72.324L24.066 72.174L23.964 72.192H23.856ZM19.092 73.056L19.248 73.602C19.794 73.452 20.496 73.26 21.156 73.062L21.084 72.546C20.364 72.744 19.608 72.942 19.092 73.056ZM19.17 71.118V71.646H21.102V71.118H19.17ZM19.908 69.936V74.85C19.908 74.94 19.878 74.97 19.794 74.97C19.716 74.97 19.458 74.97 19.194 74.964C19.266 75.114 19.344 75.342 19.362 75.486C19.782 75.486 20.046 75.468 20.226 75.384C20.406 75.294 20.466 75.15 20.466 74.856V69.936H19.908ZM25.554 71.616V72.198H30.858V71.616H25.554ZM28.548 71.85L27.978 71.982C28.428 73.614 29.214 74.868 30.546 75.492C30.642 75.33 30.828 75.084 30.972 74.958C29.718 74.442 28.926 73.266 28.548 71.85ZM27.888 69.942C27.87 71.46 27.948 73.914 25.44 75.018C25.602 75.138 25.776 75.342 25.866 75.492C28.47 74.274 28.482 71.628 28.506 69.942H27.888ZM31.794 73.896V74.364H37.2V73.896H31.794ZM32.934 72.858V73.272H35.682V72.858H32.934ZM34.278 73.68V74.928C34.278 75.006 34.254 75.024 34.158 75.03C34.062 75.03 33.714 75.03 33.378 75.018C33.45 75.156 33.534 75.348 33.564 75.498C34.032 75.498 34.344 75.498 34.56 75.426C34.776 75.348 34.836 75.216 34.836 74.946V73.68H34.278ZM35.544 72.858V72.954C35.274 73.188 34.734 73.506 34.278 73.68C34.35 73.746 34.482 73.884 34.542 73.974C35.088 73.764 35.694 73.446 36.126 73.122L35.796 72.828L35.676 72.858H35.544ZM31.914 72.09V73.248H32.454V72.516H36.534V73.248H37.098V72.09H31.914ZM36.234 70.152C36.204 70.842 36.144 71.748 36.066 72.312H36.612C36.678 71.766 36.738 70.86 36.774 70.152H36.234ZM35.322 70.152V70.524H36.456V70.152H35.322ZM33.456 69.978C33.144 70.08 32.622 70.23 32.268 70.29L32.472 70.608C32.832 70.554 33.342 70.458 33.702 70.314L33.456 69.978ZM32.556 70.8V71.166H33.66V70.8H32.556ZM32.58 71.442V71.814H33.684V71.442H32.58ZM35.358 70.8V71.166H36.402V70.8H35.358ZM35.322 71.442V71.814H36.36V71.442H35.322ZM34.758 69.984C34.53 70.29 34.116 70.572 33.708 70.764C33.798 70.824 33.948 70.956 34.014 71.028C34.422 70.812 34.872 70.464 35.142 70.092L34.758 69.984ZM33.822 70.278C34.212 70.464 34.686 70.758 34.914 70.974L35.196 70.716C34.95 70.506 34.476 70.218 34.092 70.044L33.822 70.278ZM34.77 70.998C34.53 71.322 34.086 71.622 33.66 71.814C33.75 71.88 33.894 72.03 33.96 72.102C34.392 71.874 34.866 71.508 35.154 71.112L34.77 70.998ZM33.798 71.292C34.206 71.502 34.698 71.826 34.932 72.06L35.22 71.796C34.974 71.562 34.47 71.256 34.074 71.064L33.798 71.292ZM32.268 70.29L32.394 72.294H32.922L32.808 70.434L32.268 70.29ZM39.786 71.238V71.67H43.476V71.238H39.786ZM40.068 72.894V73.308H43.206V72.894H40.068ZM39.822 73.71V74.148H43.416V73.71H39.822ZM41.22 69.942V74.664H41.76V69.942H41.22ZM40.146 70.422V70.86H42.594V72.066H40.11V72.51H43.098V70.422H40.146ZM38.16 70.29V70.794H39.528V70.29H38.16ZM38.628 72.006L38.586 72.504H39.516V72.006H38.628ZM39.318 72.006V72.108C39.18 73.626 38.736 74.61 37.986 75.132C38.106 75.204 38.316 75.402 38.4 75.504C39.168 74.928 39.666 73.812 39.84 72.072L39.522 71.994L39.42 72.006H39.318ZM38.628 72.93L38.208 73.08C38.778 75.006 39.936 75.372 41.658 75.372H43.38C43.41 75.222 43.506 74.97 43.59 74.856C43.236 74.862 41.958 74.862 41.676 74.862C40.194 74.862 39.102 74.574 38.628 72.93ZM38.364 72.732C38.364 72.624 38.754 72.45 38.754 72.45V72.444C39.12 71.94 39.528 71.208 39.864 70.446L39.516 70.212L39.312 70.302V70.332C39.072 71.004 38.664 71.718 38.532 71.904C38.412 72.102 38.256 72.252 38.136 72.282C38.208 72.396 38.322 72.618 38.364 72.732ZM44.502 71.532V71.94H46.584V71.532H44.502ZM45.3 71.658V72.924H45.822V71.658H45.3ZM44.43 72.894L44.502 73.356C45.078 73.272 45.858 73.164 46.602 73.05L46.584 72.612C45.792 72.726 44.976 72.834 44.43 72.894ZM47.436 71.622V72.084C47.436 72.438 47.286 72.804 46.53 73.08C46.632 73.146 46.824 73.32 46.896 73.416C47.718 73.092 47.916 72.576 47.916 72.096V71.622H47.436ZM48.456 71.502V72.702C48.456 73.056 48.492 73.164 48.582 73.254C48.672 73.338 48.816 73.374 48.948 73.374C49.02 73.374 49.164 73.374 49.242 73.374C49.338 73.374 49.458 73.356 49.53 73.32C49.62 73.278 49.674 73.206 49.716 73.11C49.746 73.008 49.776 72.762 49.782 72.534C49.656 72.492 49.5 72.414 49.404 72.336C49.398 72.546 49.392 72.708 49.38 72.78C49.368 72.852 49.344 72.888 49.326 72.9C49.302 72.918 49.26 72.924 49.224 72.924C49.182 72.924 49.122 72.924 49.092 72.924C49.062 72.924 49.032 72.918 49.014 72.9C48.99 72.876 48.99 72.81 48.99 72.708V71.502H48.456ZM44.4 73.65V74.106H49.806V73.65H44.4ZM46.818 73.284V75.498H47.37V73.284H46.818ZM46.698 72.384C47.184 72.6 47.856 72.924 48.198 73.128L48.402 72.744C48.054 72.558 47.382 72.252 46.902 72.054L46.698 72.384ZM46.8 71.502V71.886H48.636V71.502H46.8ZM45.15 70.278V70.716H47.046V70.278H45.15ZM47.598 70.278V70.716H49.848V70.278H47.598ZM45.228 69.888C45.03 70.302 44.682 70.71 44.316 70.98C44.43 71.076 44.622 71.268 44.706 71.37C45.084 71.046 45.486 70.542 45.732 70.038L45.228 69.888ZM47.658 69.888C47.496 70.326 47.19 70.746 46.836 71.022C46.956 71.1 47.166 71.274 47.262 71.364C47.622 71.046 47.976 70.536 48.18 70.026L47.658 69.888ZM45.552 70.902C45.732 71.082 45.96 71.34 46.068 71.502L46.452 71.202C46.338 71.04 46.104 70.8 45.918 70.632L45.552 70.902ZM48.174 70.884C48.354 71.058 48.564 71.292 48.666 71.448L49.074 71.154C48.966 71.004 48.744 70.782 48.564 70.626L48.174 70.884ZM45.996 74.19C45.654 74.526 45 74.82 44.394 74.952C44.52 75.066 44.688 75.282 44.766 75.42C45.408 75.228 46.08 74.832 46.464 74.37L45.996 74.19ZM47.742 74.502C48.276 74.742 48.972 75.12 49.32 75.372L49.722 74.976C49.356 74.724 48.648 74.37 48.114 74.154L47.742 74.502ZM53.4 72.03C53.016 72.03 52.704 72.342 52.704 72.72C52.704 73.104 53.016 73.416 53.4 73.416C53.778 73.416 54.09 73.104 54.09 72.72C54.09 72.342 53.778 72.03 53.4 72.03ZM59.43 70.188V70.704H62.394V70.188H59.43ZM60.126 72.528H61.65V72.966H60.126V72.528ZM60.126 73.404H61.65V73.848H60.126V73.404ZM60.126 71.658H61.65V72.096H60.126V71.658ZM59.61 71.196V74.31H62.19V71.196H59.61ZM60.192 74.316C59.904 74.64 59.394 74.94 58.908 75.126C59.028 75.222 59.22 75.426 59.31 75.528C59.802 75.294 60.366 74.904 60.714 74.496L60.192 74.316ZM60.618 70.416C60.588 70.71 60.516 71.13 60.456 71.418L60.96 71.508C61.044 71.25 61.152 70.854 61.248 70.488L60.618 70.416ZM56.958 70.212V70.734H59.304V70.212H56.958ZM57.696 72.006V72.51H58.674V74.112H57.696V74.61H59.178V72.006H57.696ZM57.72 70.476C57.582 71.592 57.33 72.648 56.832 73.314C56.94 73.434 57.108 73.704 57.174 73.824C57.75 73.038 58.08 71.838 58.266 70.554L57.72 70.476ZM57.438 72.006V75.102H57.936V72.006H57.438ZM61.116 74.562C61.47 74.844 61.896 75.246 62.088 75.51L62.544 75.222C62.334 74.952 61.896 74.562 61.536 74.298L61.116 74.562ZM63.63 74.634V75.198H68.394V74.634H63.63ZM63.3 71.802V72.36H68.718V71.802H63.3ZM65.682 69.954V75.042H66.288V69.954H65.682Z" fill="black"/>
<path d="M1.134 -0.0650002V0.708999H2.925V4.588H1.134V5.371H3.717V-0.0650002H1.134ZM1.143 2.23V2.995H3.249V2.23H1.143ZM4.959 -0.218V0.574H7.875V-0.218H4.959ZM4.959 1.951V2.725H7.875V1.951H4.959ZM4.923 4.129V4.894H7.857V4.129H4.923ZM0.675 -0.0650002V6.19H1.467V-0.0650002H0.675ZM7.56 -0.218V6.712C7.56 6.874 7.497 6.928 7.335 6.928C7.182 6.937 6.624 6.946 6.084 6.919C6.21 7.144 6.345 7.513 6.381 7.747C7.155 7.747 7.659 7.729 7.974 7.594C8.289 7.45 8.406 7.207 8.406 6.721V-0.218H7.56ZM4.455 -0.218V3.013C4.455 4.399 4.311 6.109 2.79 7.252C2.97 7.36 3.294 7.657 3.42 7.828C5.058 6.595 5.292 4.552 5.292 3.022V-0.218H4.455ZM11.394 -0.0110004V7.657H12.267V0.844H16.551V7.63H17.46V-0.0110004H11.394ZM11.988 3.067V3.904H16.929V3.067H11.988ZM11.979 6.217V7.072H16.938V6.217H11.979ZM20.241 0.934V1.708H23.022V0.934H20.241ZM21.501 3.76V7.756H22.329V2.77L21.501 3.76ZM22.293 3.004L21.807 3.436C22.14 3.778 22.86 4.624 23.148 5.038L23.679 4.336C23.463 4.111 22.563 3.22 22.293 3.004ZM22.77 0.934V1.096C22.284 2.365 21.132 3.652 19.989 4.309C20.106 4.471 20.277 4.921 20.34 5.164C21.591 4.354 22.905 2.851 23.544 1.231L23.094 0.907L22.941 0.934H22.77ZM21.15 -0.254C21.474 0.106 21.816 0.619 21.969 0.961L22.662 0.538C22.5 0.214 22.14 -0.272 21.807 -0.623001L21.15 -0.254ZM23.265 6.604V7.441H28.467V6.604H23.265ZM23.679 2.176V2.995H28.26V2.176H23.679ZM25.56 -0.587V7.009H26.433V-0.587H25.56ZM30.393 0.168999V2.113H31.23V0.952H37.179V2.113H38.052V0.168999H30.393ZM31.608 1.654V2.383H36.765V1.654H31.608ZM33.174 3.022C34.668 4.318 34.587 6.361 34.083 6.775C33.939 6.946 33.777 6.973 33.552 6.973C33.354 6.973 33.057 6.964 32.724 6.928C32.877 7.162 32.949 7.504 32.958 7.738C33.237 7.747 33.516 7.756 33.714 7.747C34.146 7.747 34.407 7.666 34.704 7.387C35.514 6.748 35.577 4.147 33.822 2.662L33.174 3.022ZM34.119 1.888C33.309 2.653 31.77 3.238 30.366 3.553C30.51 3.715 30.735 4.066 30.816 4.228C32.265 3.814 33.876 3.121 34.821 2.185L34.119 1.888ZM33.804 3.589C33.039 4.165 31.482 4.804 30.321 5.074C30.474 5.254 30.654 5.542 30.753 5.731C31.923 5.362 33.489 4.642 34.353 3.994L33.804 3.589ZM34.326 4.651C33.444 5.461 31.644 6.298 30.186 6.64C30.348 6.829 30.528 7.135 30.627 7.351C32.103 6.901 33.921 5.992 34.911 5.092L34.326 4.651ZM36.135 4.093L35.388 4.273C35.838 5.686 36.666 6.811 37.881 7.378C37.998 7.162 38.25 6.838 38.439 6.685C37.332 6.244 36.522 5.254 36.135 4.093ZM36.747 2.644C36.126 3.238 35.082 4.003 34.308 4.453L34.857 4.939C35.64 4.516 36.666 3.823 37.449 3.202L36.747 2.644ZM33.444 -0.416001C33.633 -0.0740001 33.831 0.385 33.903 0.682L34.83 0.385C34.758 0.0969998 34.533 -0.344 34.335 -0.668001L33.444 -0.416001ZM3.96 13.493V14.222H8.118V13.493H3.96ZM2.916 15.203V15.923H8.487V15.203H2.916ZM4.05 12.512C3.798 13.331 3.348 14.15 2.808 14.681C3.006 14.771 3.348 14.951 3.51 15.077C4.023 14.492 4.518 13.601 4.815 12.683L4.05 12.512ZM5.328 12.404V15.68H6.165V12.404H5.328ZM0.684 12.8C1.089 13.241 1.602 13.871 1.845 14.249L2.493 13.781C2.241 13.412 1.737 12.845 1.323 12.413L0.684 12.8ZM0.405 14.492V15.185H2.277V14.492H0.405ZM2.106 18.524L1.539 18.776C2.205 20.36 3.357 20.621 5.454 20.621C6.471 20.621 7.614 20.603 8.496 20.549C8.541 20.315 8.658 19.919 8.775 19.748C7.812 19.829 6.417 19.883 5.472 19.883C3.753 19.874 2.628 19.721 2.106 18.524ZM2.025 16.715V16.85C1.791 18.47 1.143 19.595 0.198 20.198C0.36 20.315 0.648 20.612 0.756 20.774C1.755 20.09 2.484 18.794 2.781 16.85L2.367 16.697L2.232 16.715H2.025ZM0.549 17.516C0.621 17.444 0.864 17.39 1.08 17.39H2.268V16.715H0.9L0.549 16.895V17.516ZM0.549 17.516C0.549 17.318 1.143 17.03 1.143 17.03C1.638 16.445 2.403 15.293 2.808 14.681L2.268 14.456L2.034 14.546L2.043 14.573C1.755 15.059 0.954 16.256 0.693 16.517C0.54 16.697 0.396 16.76 0.252 16.805C0.342 16.958 0.495 17.336 0.549 17.516ZM4.401 17.237H7.074V18.479H4.401V17.237ZM3.582 16.544V19.172H7.929V16.544H3.582ZM10.755 12.755V13.502H14.841V12.755H10.755ZM10.458 14.618V15.365H15.039V14.618H10.458ZM10.314 19.667V20.459H18.459V19.667H10.314ZM11.241 17.93V18.704H17.541V17.93H11.241ZM13.293 13.052V17.219H14.094V13.052H13.293ZM13.986 17.057V20.234H14.859V17.057H13.986ZM15.516 12.926V15.959H16.299V12.926H15.516ZM17.181 12.485V16.427C17.181 16.544 17.145 16.58 17.01 16.58C16.875 16.598 16.434 16.598 15.957 16.58C16.074 16.796 16.191 17.12 16.227 17.336C16.866 17.336 17.316 17.327 17.613 17.201C17.91 17.075 17.991 16.868 17.991 16.436V12.485H17.181ZM11.547 13.061V14.609C11.547 15.374 11.412 16.238 10.332 16.859C10.485 16.976 10.773 17.291 10.89 17.453C12.096 16.742 12.33 15.59 12.33 14.627V13.061H11.547ZM20.493 13.169V15.113H21.33V13.952H27.279V15.113H28.152V13.169H20.493ZM21.708 14.654V15.383H26.865V14.654H21.708ZM23.274 16.022C24.768 17.318 24.687 19.361 24.183 19.775C24.039 19.946 23.877 19.973 23.652 19.973C23.454 19.973 23.157 19.964 22.824 19.928C22.977 20.162 23.049 20.504 23.058 20.738C23.337 20.747 23.616 20.756 23.814 20.747C24.246 20.747 24.507 20.666 24.804 20.387C25.614 19.748 25.677 17.147 23.922 15.662L23.274 16.022ZM24.219 14.888C23.409 15.653 21.87 16.238 20.466 16.553C20.61 16.715 20.835 17.066 20.916 17.228C22.365 16.814 23.976 16.121 24.921 15.185L24.219 14.888ZM23.904 16.589C23.139 17.165 21.582 17.804 20.421 18.074C20.574 18.254 20.754 18.542 20.853 18.731C22.023 18.362 23.589 17.642 24.453 16.994L23.904 16.589ZM24.426 17.651C23.544 18.461 21.744 19.298 20.286 19.64C20.448 19.829 20.628 20.135 20.727 20.351C22.203 19.901 24.021 18.992 25.011 18.092L24.426 17.651ZM26.235 17.093L25.488 17.273C25.938 18.686 26.766 19.811 27.981 20.378C28.098 20.162 28.35 19.838 28.539 19.685C27.432 19.244 26.622 18.254 26.235 17.093ZM26.847 15.644C26.226 16.238 25.182 17.003 24.408 17.453L24.957 17.939C25.74 17.516 26.766 16.823 27.549 16.202L26.847 15.644ZM23.544 12.584C23.733 12.926 23.931 13.385 24.003 13.682L24.93 13.385C24.858 13.097 24.633 12.656 24.435 12.332L23.544 12.584Z" fill="#C9A063"/>
</g>
<defs>
<clipPath id="clip0_138_6366">
<rect width="110" height="78" fill="white"/>
</clipPath>
</defs>
</svg>
