<?xml version="1.0" encoding="utf-8"?>
<!-- Generator: Adobe Illustrator 25.2.3, SVG Export Plug-In . SVG Version: 6.00 Build 0)  -->
<svg version="1.1" id="圖層_1" xmlns="http://www.w3.org/2000/svg" xmlns:xlink="http://www.w3.org/1999/xlink" x="0px" y="0px"
	 viewBox="0 0 380 115.6" style="enable-background:new 0 0 380 115.6;" xml:space="preserve">
<style type="text/css">
	.st0{fill:#00404B;}
	.st1{fill:#C79F62;}
</style>
<g>
	<g>
		<path class="st0" d="M4.1,103c0,0.5-0.2,0.9-0.7,1.2c-0.4,0.2-0.8,0.3-1.4,0.3c-0.1,0-0.4,0-0.9,0v-5.2h0.9c0.5,0,0.9,0.1,1.2,0.2
			c0.4,0.2,0.6,0.5,0.6,0.9c0,0.3-0.1,0.5-0.3,0.8c-0.2,0.2-0.4,0.4-0.7,0.5c0.4,0.1,0.7,0.2,0.9,0.4C3.9,102.3,4.1,102.6,4.1,103z
			 M3.6,103c0-0.4-0.1-0.7-0.4-0.9c-0.2-0.2-0.5-0.3-0.9-0.3H2v-0.2h0.2c0.4,0,0.6-0.1,0.8-0.4c0.1-0.2,0.2-0.5,0.2-0.7
			c0-0.7-0.5-1.1-1.4-1.1H1.5v4.9h0.3C3,104.3,3.6,103.8,3.6,103z"/>
		<path class="st0" d="M7.9,102.4h-2v-0.2h1.5c0-0.6-0.3-0.9-0.8-0.9c-0.3,0-0.6,0.1-0.8,0.4c-0.2,0.3-0.3,0.6-0.3,1.1
			c0,0.5,0.1,0.8,0.3,1.1c0.2,0.3,0.5,0.4,0.8,0.4c0.4,0,0.7-0.2,1-0.5l0.2,0.2c-0.3,0.3-0.7,0.5-1.1,0.5c-0.5,0-0.8-0.2-1.2-0.5
			c-0.3-0.3-0.5-0.7-0.5-1.2c0-0.5,0.2-0.9,0.5-1.2c0.3-0.3,0.7-0.5,1.1-0.5c0.3,0,0.6,0.1,0.9,0.4C7.8,101.7,7.9,102,7.9,102.4z"/>
		<path class="st0" d="M11.1,102.3L11.1,102.3v2.1h-0.5v-0.3c-0.2,0.2-0.5,0.3-0.8,0.3c-0.3,0-0.6-0.1-0.8-0.3
			c-0.2-0.2-0.4-0.4-0.4-0.8c0-0.3,0.1-0.6,0.4-0.8c0.2-0.2,0.5-0.3,0.7-0.3c0.1,0,0.2,0,0.2,0c0.2,0,0.3,0.1,0.4,0.1l-0.1,0.2
			c-0.2-0.1-0.3-0.2-0.5-0.2c-0.2,0-0.4,0.1-0.5,0.2c-0.1,0.2-0.2,0.4-0.2,0.7c0,0.3,0.1,0.5,0.2,0.6c0.1,0.2,0.3,0.2,0.5,0.2
			c0.3,0,0.6-0.2,0.8-0.5v-1.5c0-0.7-0.2-1-0.7-1c-0.3,0-0.5,0.1-0.8,0.3L9,101.4c0.2-0.2,0.5-0.2,0.9-0.2
			C10.7,101.1,11.1,101.5,11.1,102.3z"/>
		<path class="st0" d="M14.8,104.4h-0.5v-0.6c-0.2,0.4-0.6,0.6-1,0.6c-0.8,0-1.2-0.4-1.2-1.2v-2.2h0.5v2.2c0,0.7,0.2,1,0.7,1
			c0.3,0,0.5-0.2,0.7-0.5c0.1-0.2,0.2-0.4,0.2-0.6v-2.1h0.5V104.4z"/>
		<path class="st0" d="M17.2,101.3h-0.6v2c0,0.3,0,0.6,0.1,0.7c0.1,0.1,0.2,0.2,0.5,0.2v0.2c-0.7,0-1.1-0.4-1.1-1.1v-2h-0.3v-0.2
			h0.3v-0.4h0.5v0.4h0.6V101.3z"/>
		<path class="st0" d="M21,101.1l-1.8,4.5H19l0.5-1.3l-1.4-3.2h0.5l1.1,2.6l1-2.6H21z"/>
		<path class="st0" d="M23.8,104.4h-0.5v-5h0.5V104.4z"/>
		<path class="st0" d="M25.5,99.7c0,0.1,0,0.2-0.1,0.2s-0.1,0.1-0.2,0.1c-0.1,0-0.2,0-0.2-0.1s-0.1-0.1-0.1-0.2s0-0.2,0.1-0.2
			c0.1-0.1,0.1-0.1,0.2-0.1c0.1,0,0.2,0,0.2,0.1C25.5,99.6,25.5,99.6,25.5,99.7z M25.4,104.4H25v-3.2h0.5V104.4z"/>
		<path class="st0" d="M29.4,102.4h-2v-0.2h1.5c0-0.6-0.3-0.9-0.8-0.9c-0.3,0-0.6,0.1-0.8,0.4c-0.2,0.3-0.3,0.6-0.3,1.1
			c0,0.5,0.1,0.8,0.3,1.1c0.2,0.3,0.5,0.4,0.8,0.4c0.4,0,0.7-0.2,1-0.5l0.2,0.2c-0.3,0.3-0.7,0.5-1.1,0.5c-0.5,0-0.8-0.2-1.2-0.5
			c-0.3-0.3-0.5-0.7-0.5-1.2c0-0.5,0.2-0.9,0.5-1.2c0.3-0.3,0.7-0.5,1.1-0.5c0.3,0,0.6,0.1,0.9,0.4C29.2,101.7,29.4,102,29.4,102.4z
			"/>
		<path class="st0" d="M32.1,103.6c0,0.3-0.1,0.5-0.3,0.6c-0.2,0.2-0.4,0.2-0.7,0.2c-0.4,0-0.7-0.1-0.9-0.4l0.2-0.2
			c0.2,0.3,0.5,0.4,0.8,0.4c0.2,0,0.3-0.1,0.4-0.2c0.1-0.1,0.2-0.3,0.2-0.4c0-0.2-0.1-0.4-0.3-0.5c-0.1-0.1-0.3-0.2-0.6-0.4
			c-0.4-0.2-0.5-0.5-0.5-0.9c0-0.2,0.1-0.4,0.3-0.6c0.2-0.1,0.4-0.2,0.6-0.2c0.1,0,0.3,0,0.5,0.1c0.2,0.1,0.3,0.2,0.3,0.3l-0.2,0.2
			c-0.2-0.3-0.4-0.4-0.7-0.4c-0.3,0-0.5,0.1-0.5,0.4c0,0.2,0.1,0.4,0.3,0.6c0.4,0.2,0.6,0.4,0.7,0.5C31.9,103,32.1,103.3,32.1,103.6
			z"/>
		<path class="st0" d="M35.1,99.7c0,0.1,0,0.2-0.1,0.2s-0.1,0.1-0.2,0.1c-0.1,0-0.2,0-0.2-0.1s-0.1-0.1-0.1-0.2s0-0.2,0.1-0.2
			c0.1-0.1,0.1-0.1,0.2-0.1c0.1,0,0.2,0,0.2,0.1C35.1,99.6,35.1,99.6,35.1,99.7z M35,104.4h-0.5v-3.2H35V104.4z"/>
		<path class="st0" d="M38.8,104.4h-0.5v-2.2c0-0.7-0.2-1-0.7-1c-0.5,0-0.8,0.3-1,0.9v2.3h-0.5v-3.2h0.5v0.4c0.3-0.4,0.6-0.5,1-0.5
			c0.4,0,0.7,0.1,0.8,0.2c0.2,0.2,0.3,0.5,0.3,0.9V104.4z"/>
		<path class="st0" d="M42.6,101.3H42v2c0,0.3,0,0.6,0.1,0.7c0.1,0.1,0.2,0.2,0.5,0.2v0.2c-0.7,0-1.1-0.4-1.1-1.1v-2h-0.3v-0.2h0.3
			v-0.4H42v0.4h0.6V101.3z"/>
		<path class="st0" d="M46.2,104.4h-0.5v-2.2c0-0.7-0.2-1-0.7-1c-0.5,0-0.8,0.3-1,0.9v2.3h-0.5v-5H44v2.2c0.3-0.4,0.6-0.5,1-0.5
			c0.4,0,0.7,0.1,0.8,0.2c0.2,0.2,0.3,0.5,0.3,0.9V104.4z"/>
		<path class="st0" d="M50.1,102.4h-2v-0.2h1.5c0-0.6-0.3-0.9-0.8-0.9c-0.3,0-0.6,0.1-0.8,0.4c-0.2,0.3-0.3,0.6-0.3,1.1
			c0,0.5,0.1,0.8,0.3,1.1c0.2,0.3,0.5,0.4,0.8,0.4c0.4,0,0.7-0.2,1-0.5L50,104c-0.3,0.3-0.7,0.5-1.1,0.5c-0.5,0-0.8-0.2-1.2-0.5
			c-0.3-0.3-0.5-0.7-0.5-1.2c0-0.5,0.2-0.9,0.5-1.2c0.3-0.3,0.7-0.5,1.1-0.5c0.3,0,0.6,0.1,0.9,0.4C50,101.7,50.1,102,50.1,102.4z"
			/>
		<path class="st0" d="M55.1,104c-0.3,0.3-0.7,0.4-1.1,0.4c-0.5,0-0.8-0.2-1.2-0.5c-0.3-0.3-0.5-0.7-0.5-1.2c0-0.5,0.2-0.9,0.5-1.2
			c0.3-0.3,0.7-0.5,1.2-0.5c0.4,0,0.7,0.1,1,0.3l-0.1,0.2c-0.2-0.2-0.5-0.4-0.9-0.4c-0.3,0-0.6,0.2-0.8,0.5c-0.2,0.3-0.3,0.6-0.3,1
			c0,0.4,0.1,0.8,0.3,1c0.2,0.3,0.5,0.5,0.8,0.5c0.4,0,0.7-0.2,1-0.5L55.1,104z"/>
		<path class="st0" d="M58.9,102.8c0,0.5-0.2,0.9-0.5,1.2c-0.3,0.3-0.7,0.5-1.2,0.5c-0.5,0-0.8-0.2-1.2-0.5
			c-0.3-0.3-0.5-0.7-0.5-1.2c0-0.5,0.2-0.9,0.5-1.2c0.3-0.3,0.7-0.5,1.2-0.5c0.5,0,0.8,0.2,1.2,0.5
			C58.8,101.9,58.9,102.3,58.9,102.8z M58.4,102.8c0-0.4-0.1-0.8-0.3-1.1c-0.2-0.3-0.5-0.4-0.8-0.4c-0.3,0-0.6,0.1-0.8,0.4
			c-0.2,0.3-0.3,0.6-0.3,1.1c0,0.4,0.1,0.8,0.3,1.1c0.2,0.3,0.5,0.4,0.8,0.4c0.3,0,0.6-0.1,0.8-0.4
			C58.3,103.5,58.4,103.2,58.4,102.8z"/>
		<path class="st0" d="M64.3,104.4h-0.5v-2.2c0-0.3,0-0.5-0.1-0.7c-0.1-0.1-0.2-0.2-0.5-0.2c-0.4,0-0.6,0.3-0.9,0.8c0,0,0,0.1,0,0.1
			v2.2h-0.5v-2.2c0-0.3,0-0.5-0.1-0.7c-0.1-0.1-0.3-0.2-0.5-0.2c-0.2,0-0.3,0.1-0.5,0.2c-0.2,0.2-0.3,0.4-0.4,0.6v2.3h-0.5v-3.2h0.5
			v0.4c0.3-0.3,0.6-0.5,0.9-0.5c0.5,0,0.8,0.2,1,0.5c0.3-0.4,0.6-0.5,1-0.5c0.7,0,1.1,0.4,1.1,1.1V104.4z"/>
		<path class="st0" d="M68.2,102.8c0,0.5-0.1,0.9-0.4,1.2c-0.3,0.3-0.6,0.5-1.1,0.5c-0.3,0-0.6-0.1-0.8-0.4v0.3h-0.5v-5h0.5v4.2
			c0.1,0.2,0.2,0.4,0.3,0.5c0.1,0.1,0.3,0.2,0.5,0.2c0.3,0,0.5-0.1,0.7-0.4c0.2-0.3,0.3-0.6,0.3-1.1c0-0.4-0.1-0.8-0.3-1.1
			c-0.2-0.3-0.4-0.4-0.7-0.4c-0.2,0-0.3,0.1-0.4,0.2l-0.1-0.2c0.2-0.1,0.4-0.1,0.6-0.1c0.4,0,0.8,0.2,1.1,0.5
			C68.1,101.9,68.2,102.3,68.2,102.8z"/>
		<path class="st0" d="M69.8,99.7c0,0.1,0,0.2-0.1,0.2s-0.1,0.1-0.2,0.1c-0.1,0-0.2,0-0.2-0.1s-0.1-0.1-0.1-0.2s0-0.2,0.1-0.2
			c0.1-0.1,0.1-0.1,0.2-0.1c0.1,0,0.2,0,0.2,0.1C69.8,99.6,69.8,99.6,69.8,99.7z M69.8,104.4h-0.5v-3.2h0.5V104.4z"/>
		<path class="st0" d="M73.5,104.4h-0.5v-2.2c0-0.7-0.2-1-0.7-1c-0.5,0-0.8,0.3-1,0.9v2.3h-0.5v-3.2h0.5v0.4c0.3-0.4,0.6-0.5,1-0.5
			c0.4,0,0.7,0.1,0.8,0.2c0.2,0.2,0.3,0.5,0.3,0.9V104.4z"/>
		<path class="st0" d="M77,102.3L77,102.3v2.1h-0.5v-0.3c-0.2,0.2-0.5,0.3-0.8,0.3c-0.3,0-0.6-0.1-0.8-0.3c-0.2-0.2-0.4-0.4-0.4-0.8
			c0-0.3,0.1-0.6,0.4-0.8c0.2-0.2,0.5-0.3,0.7-0.3c0.1,0,0.2,0,0.2,0c0.2,0,0.3,0.1,0.4,0.1l-0.1,0.2c-0.2-0.1-0.3-0.2-0.5-0.2
			c-0.2,0-0.4,0.1-0.5,0.2c-0.1,0.2-0.2,0.4-0.2,0.7c0,0.3,0.1,0.5,0.2,0.6c0.1,0.2,0.3,0.2,0.5,0.2c0.3,0,0.6-0.2,0.8-0.5v-1.5
			c0-0.7-0.2-1-0.7-1c-0.3,0-0.5,0.1-0.8,0.3l-0.1-0.2c0.2-0.2,0.5-0.2,0.9-0.2C76.6,101.1,77,101.5,77,102.3z"/>
		<path class="st0" d="M79.3,101.3h-0.6v2c0,0.3,0,0.6,0.1,0.7c0.1,0.1,0.2,0.2,0.5,0.2v0.2c-0.7,0-1.1-0.4-1.1-1.1v-2h-0.3v-0.2
			h0.3v-0.4h0.5v0.4h0.6V101.3z"/>
		<path class="st0" d="M80.8,99.7c0,0.1,0,0.2-0.1,0.2s-0.1,0.1-0.2,0.1c-0.1,0-0.2,0-0.2-0.1s-0.1-0.1-0.1-0.2s0-0.2,0.1-0.2
			c0.1-0.1,0.1-0.1,0.2-0.1c0.1,0,0.2,0,0.2,0.1C80.8,99.6,80.8,99.6,80.8,99.7z M80.8,104.4h-0.5v-3.2h0.5V104.4z"/>
		<path class="st0" d="M85.1,102.8c0,0.5-0.2,0.9-0.5,1.2c-0.3,0.3-0.7,0.5-1.2,0.5c-0.5,0-0.8-0.2-1.2-0.5
			c-0.3-0.3-0.5-0.7-0.5-1.2c0-0.5,0.2-0.9,0.5-1.2c0.3-0.3,0.7-0.5,1.2-0.5c0.5,0,0.8,0.2,1.2,0.5C85,101.9,85.1,102.3,85.1,102.8z
			 M84.6,102.8c0-0.4-0.1-0.8-0.3-1.1c-0.2-0.3-0.5-0.4-0.8-0.4c-0.3,0-0.6,0.1-0.8,0.4c-0.2,0.3-0.3,0.6-0.3,1.1
			c0,0.4,0.1,0.8,0.3,1.1c0.2,0.3,0.5,0.4,0.8,0.4c0.3,0,0.6-0.1,0.8-0.4C84.5,103.5,84.6,103.2,84.6,102.8z"/>
		<path class="st0" d="M88.8,104.4h-0.5v-2.2c0-0.7-0.2-1-0.7-1c-0.5,0-0.8,0.3-1,0.9v2.3h-0.5v-3.2h0.5v0.4c0.3-0.4,0.6-0.5,1-0.5
			c0.4,0,0.7,0.1,0.8,0.2c0.2,0.2,0.3,0.5,0.3,0.9V104.4z"/>
		<path class="st0" d="M94.5,102.8c0,0.5-0.2,0.9-0.5,1.2c-0.3,0.3-0.7,0.5-1.2,0.5c-0.5,0-0.8-0.2-1.2-0.5
			c-0.3-0.3-0.5-0.7-0.5-1.2c0-0.5,0.2-0.9,0.5-1.2c0.3-0.3,0.7-0.5,1.2-0.5c0.5,0,0.8,0.2,1.2,0.5
			C94.4,101.9,94.5,102.3,94.5,102.8z M94,102.8c0-0.4-0.1-0.8-0.3-1.1c-0.2-0.3-0.5-0.4-0.8-0.4c-0.3,0-0.6,0.1-0.8,0.4
			c-0.2,0.3-0.3,0.6-0.3,1.1c0,0.4,0.1,0.8,0.3,1.1c0.2,0.3,0.5,0.4,0.8,0.4c0.3,0,0.6-0.1,0.8-0.4C93.9,103.5,94,103.2,94,102.8z"
			/>
		<path class="st0" d="M96.8,101.3h-0.6v3.1h-0.5v-3.1h-0.3v-0.2h0.3v-0.7c0-0.7,0.4-1,1.1-1v0.2c-0.2,0-0.4,0.1-0.5,0.2
			c-0.1,0.1-0.1,0.4-0.1,0.7v0.7h0.6V101.3z"/>
		<path class="st0" d="M3.6,113.4H3.1v-2.2c0-0.7-0.2-1-0.7-1c-0.5,0-0.8,0.3-1,0.9v2.3H1v-3.2h0.5v0.4c0.3-0.4,0.6-0.5,1-0.5
			c0.4,0,0.7,0.1,0.8,0.2c0.2,0.2,0.3,0.5,0.3,0.9V113.4z"/>
		<path class="st0" d="M7.1,111.3L7.1,111.3v2.1H6.6v-0.3c-0.2,0.2-0.5,0.3-0.8,0.3c-0.3,0-0.6-0.1-0.8-0.3
			c-0.2-0.2-0.4-0.4-0.4-0.8c0-0.3,0.1-0.6,0.4-0.8c0.2-0.2,0.5-0.3,0.7-0.3c0.1,0,0.2,0,0.2,0c0.2,0,0.3,0.1,0.4,0.1l-0.1,0.2
			c-0.2-0.1-0.3-0.2-0.5-0.2c-0.2,0-0.4,0.1-0.5,0.2c-0.1,0.2-0.2,0.4-0.2,0.7c0,0.3,0.1,0.5,0.2,0.6c0.1,0.2,0.3,0.2,0.5,0.2
			c0.3,0,0.6-0.2,0.8-0.5v-1.5c0-0.7-0.2-1-0.7-1c-0.3,0-0.5,0.1-0.8,0.3L5,110.4c0.2-0.2,0.5-0.2,0.9-0.2
			C6.7,110.1,7.1,110.5,7.1,111.3z"/>
		<path class="st0" d="M9.4,110.3H8.8v2c0,0.3,0,0.6,0.1,0.7c0.1,0.1,0.2,0.2,0.5,0.2v0.2c-0.7,0-1.1-0.4-1.1-1.1v-2H8v-0.2h0.3
			v-0.4h0.5v0.4h0.6V110.3z"/>
		<path class="st0" d="M13,113.4h-0.5v-0.6c-0.2,0.4-0.6,0.6-1,0.6c-0.8,0-1.2-0.4-1.2-1.2v-2.2h0.5v2.2c0,0.7,0.2,1,0.7,1
			c0.3,0,0.5-0.2,0.7-0.5c0.1-0.2,0.2-0.4,0.2-0.6v-2.1H13V113.4z"/>
		<path class="st0" d="M15.6,110.2l-0.1,0.2c-0.1-0.1-0.3-0.1-0.4-0.1c-0.1,0-0.1,0-0.2,0.1c-0.2,0.1-0.3,0.4-0.3,0.9c0,0,0,0,0,0
			v2.1h-0.5v-3.2h0.5v0.4c0.1-0.1,0.1-0.2,0.2-0.3c0.1-0.1,0.2-0.1,0.4-0.1S15.5,110.2,15.6,110.2z"/>
		<path class="st0" d="M18.7,111.3L18.7,111.3v2.1h-0.5v-0.3c-0.2,0.2-0.5,0.3-0.8,0.3c-0.3,0-0.6-0.1-0.8-0.3
			c-0.2-0.2-0.4-0.4-0.4-0.8c0-0.3,0.1-0.6,0.4-0.8c0.2-0.2,0.5-0.3,0.7-0.3c0.1,0,0.2,0,0.2,0c0.2,0,0.3,0.1,0.4,0.1l-0.1,0.2
			c-0.2-0.1-0.3-0.2-0.5-0.2c-0.2,0-0.4,0.1-0.5,0.2c-0.1,0.2-0.2,0.4-0.2,0.7c0,0.3,0.1,0.5,0.2,0.6c0.1,0.2,0.3,0.2,0.5,0.2
			c0.3,0,0.6-0.2,0.8-0.5v-1.5c0-0.7-0.2-1-0.7-1c-0.3,0-0.5,0.1-0.8,0.3l-0.1-0.2c0.2-0.2,0.5-0.2,0.9-0.2
			C18.3,110.1,18.7,110.5,18.7,111.3z"/>
		<path class="st0" d="M20.3,113.4h-0.5v-5h0.5V113.4z"/>
		<path class="st0" d="M23.3,113.4h-0.5v-5h0.5V113.4z"/>
		<path class="st0" d="M26.7,111.3L26.7,111.3v2.1h-0.5v-0.3c-0.2,0.2-0.5,0.3-0.8,0.3c-0.3,0-0.6-0.1-0.8-0.3
			c-0.2-0.2-0.4-0.4-0.4-0.8c0-0.3,0.1-0.6,0.4-0.8c0.2-0.2,0.5-0.3,0.7-0.3c0.1,0,0.2,0,0.2,0c0.2,0,0.3,0.1,0.4,0.1l-0.1,0.2
			c-0.2-0.1-0.3-0.2-0.5-0.2c-0.2,0-0.4,0.1-0.5,0.2c-0.1,0.2-0.2,0.4-0.2,0.7c0,0.3,0.1,0.5,0.2,0.6c0.1,0.2,0.3,0.2,0.5,0.2
			c0.3,0,0.6-0.2,0.8-0.5v-1.5c0-0.7-0.2-1-0.7-1c-0.3,0-0.5,0.1-0.8,0.3l-0.1-0.2c0.2-0.2,0.5-0.2,0.9-0.2
			C26.3,110.1,26.7,110.5,26.7,111.3z"/>
		<path class="st0" d="M30.5,113.4H30v-2.2c0-0.7-0.2-1-0.7-1c-0.5,0-0.8,0.3-1,0.9v2.3h-0.5v-3.2h0.5v0.4c0.3-0.4,0.6-0.5,1-0.5
			c0.4,0,0.7,0.1,0.8,0.2c0.2,0.2,0.3,0.5,0.3,0.9V113.4z"/>
		<path class="st0" d="M34.3,113.4h-0.5v-0.3c-0.2,0.2-0.5,0.4-0.8,0.4c-0.4,0-0.8-0.2-1.1-0.5c-0.3-0.3-0.4-0.7-0.4-1.2
			c0-0.5,0.1-0.9,0.4-1.2c0.3-0.3,0.6-0.5,1.1-0.5c0.2,0,0.4,0,0.6,0.1l-0.1,0.2c-0.2-0.1-0.3-0.2-0.5-0.2c-0.2,0-0.5,0.1-0.6,0.4
			c-0.2,0.3-0.3,0.7-0.3,1.1c0,0.4,0.1,0.8,0.3,1.1c0.2,0.3,0.4,0.4,0.7,0.4c0.2,0,0.3-0.1,0.5-0.2c0.1-0.1,0.2-0.3,0.3-0.5v-4.2
			h0.5V113.4z"/>
		<path class="st0" d="M37.2,112.6c0,0.3-0.1,0.5-0.3,0.6c-0.2,0.2-0.4,0.2-0.7,0.2c-0.4,0-0.7-0.1-0.9-0.4l0.1-0.2
			c0.2,0.3,0.5,0.4,0.8,0.4c0.2,0,0.3-0.1,0.4-0.2c0.1-0.1,0.2-0.3,0.2-0.4c0-0.2-0.1-0.4-0.3-0.5c-0.1-0.1-0.3-0.2-0.6-0.4
			c-0.4-0.2-0.5-0.5-0.5-0.9c0-0.2,0.1-0.4,0.3-0.6c0.2-0.1,0.4-0.2,0.6-0.2c0.1,0,0.3,0,0.5,0.1c0.2,0.1,0.3,0.2,0.3,0.3l-0.2,0.2
			c-0.2-0.3-0.4-0.4-0.7-0.4c-0.3,0-0.5,0.1-0.5,0.4c0,0.2,0.1,0.4,0.3,0.6c0.4,0.2,0.6,0.4,0.7,0.5C37,112,37.2,112.3,37.2,112.6z"
			/>
		<path class="st0" d="M40.8,113c-0.3,0.3-0.7,0.4-1.1,0.4c-0.5,0-0.8-0.2-1.2-0.5c-0.3-0.3-0.5-0.7-0.5-1.2c0-0.5,0.2-0.9,0.5-1.2
			c0.3-0.3,0.7-0.5,1.2-0.5c0.4,0,0.7,0.1,1,0.3l-0.1,0.2c-0.2-0.2-0.5-0.4-0.9-0.4c-0.3,0-0.6,0.2-0.8,0.5c-0.2,0.3-0.3,0.6-0.3,1
			c0,0.4,0.1,0.8,0.3,1c0.2,0.3,0.5,0.5,0.8,0.5c0.4,0,0.7-0.2,1-0.5L40.8,113z"/>
		<path class="st0" d="M43.9,111.3L43.9,111.3v2.1h-0.5v-0.3c-0.2,0.2-0.5,0.3-0.8,0.3c-0.3,0-0.6-0.1-0.8-0.3
			c-0.2-0.2-0.4-0.4-0.4-0.8c0-0.3,0.1-0.6,0.4-0.8c0.2-0.2,0.5-0.3,0.7-0.3c0.1,0,0.2,0,0.2,0c0.2,0,0.3,0.1,0.4,0.1l-0.1,0.2
			c-0.2-0.1-0.3-0.2-0.5-0.2c-0.2,0-0.4,0.1-0.5,0.2c-0.1,0.2-0.2,0.4-0.2,0.7c0,0.3,0.1,0.5,0.2,0.6c0.1,0.2,0.3,0.2,0.5,0.2
			c0.3,0,0.6-0.2,0.8-0.5v-1.5c0-0.7-0.2-1-0.7-1c-0.3,0-0.5,0.1-0.8,0.3l-0.1-0.2c0.2-0.2,0.5-0.2,0.9-0.2
			C43.5,110.1,43.9,110.5,43.9,111.3z"/>
		<path class="st0" d="M47.7,111.8c0,0.5-0.1,0.8-0.4,1.2c-0.3,0.3-0.6,0.5-1,0.5c-0.2,0-0.4,0-0.6-0.1l0.1-0.2
			c0.1,0.1,0.3,0.2,0.5,0.2c0.2,0,0.5-0.1,0.6-0.4c0.2-0.3,0.3-0.6,0.3-1.1c0-0.4-0.1-0.8-0.3-1.1c-0.2-0.3-0.4-0.4-0.7-0.4
			c-0.2,0-0.3,0.1-0.5,0.2c-0.1,0.1-0.2,0.3-0.3,0.5v3.6H45v-4.4h0.5v0.3c0.2-0.2,0.5-0.4,0.8-0.4c0.4,0,0.8,0.2,1,0.5
			C47.6,111,47.7,111.3,47.7,111.8z"/>
		<path class="st0" d="M51.5,111.4h-2v-0.2h1.5c0-0.6-0.3-0.9-0.8-0.9c-0.3,0-0.6,0.1-0.8,0.4c-0.2,0.3-0.3,0.6-0.3,1.1
			c0,0.5,0.1,0.8,0.3,1.1c0.2,0.3,0.5,0.4,0.8,0.4c0.4,0,0.7-0.2,1-0.5l0.2,0.2c-0.3,0.3-0.7,0.5-1.1,0.5c-0.5,0-0.8-0.2-1.2-0.5
			c-0.3-0.3-0.5-0.7-0.5-1.2c0-0.5,0.2-0.9,0.5-1.2c0.3-0.3,0.7-0.5,1.1-0.5c0.3,0,0.6,0.1,0.9,0.4C51.4,110.7,51.5,111,51.5,111.4z
			"/>
		<path class="st0" d="M56.2,111.3L56.2,111.3v2.1h-0.5v-0.3c-0.2,0.2-0.5,0.3-0.8,0.3c-0.3,0-0.6-0.1-0.8-0.3
			c-0.2-0.2-0.4-0.4-0.4-0.8c0-0.3,0.1-0.6,0.4-0.8c0.2-0.2,0.5-0.3,0.7-0.3c0.1,0,0.2,0,0.2,0c0.2,0,0.3,0.1,0.4,0.1l-0.1,0.2
			c-0.2-0.1-0.3-0.2-0.5-0.2c-0.2,0-0.4,0.1-0.5,0.2c-0.1,0.2-0.2,0.4-0.2,0.7c0,0.3,0.1,0.5,0.2,0.6c0.1,0.2,0.3,0.2,0.5,0.2
			c0.3,0,0.6-0.2,0.8-0.5v-1.5c0-0.7-0.2-1-0.7-1c-0.3,0-0.5,0.1-0.8,0.3l-0.1-0.2c0.2-0.2,0.5-0.2,0.9-0.2
			C55.8,110.1,56.2,110.5,56.2,111.3z"/>
		<path class="st0" d="M60,113.4h-0.5v-2.2c0-0.7-0.2-1-0.7-1c-0.5,0-0.8,0.3-1,0.9v2.3h-0.5v-3.2h0.5v0.4c0.3-0.4,0.6-0.5,1-0.5
			c0.4,0,0.7,0.1,0.8,0.2c0.2,0.2,0.3,0.5,0.3,0.9V113.4z"/>
		<path class="st0" d="M63.8,113.4h-0.5v-0.3c-0.2,0.2-0.5,0.4-0.8,0.4c-0.4,0-0.8-0.2-1.1-0.5c-0.3-0.3-0.4-0.7-0.4-1.2
			c0-0.5,0.1-0.9,0.4-1.2c0.3-0.3,0.6-0.5,1.1-0.5c0.2,0,0.4,0,0.6,0.1l-0.1,0.2c-0.2-0.1-0.3-0.2-0.5-0.2c-0.2,0-0.5,0.1-0.6,0.4
			c-0.2,0.3-0.3,0.7-0.3,1.1c0,0.4,0.1,0.8,0.3,1.1c0.2,0.3,0.4,0.4,0.7,0.4c0.2,0,0.3-0.1,0.5-0.2c0.1-0.1,0.2-0.3,0.3-0.5v-4.2
			h0.5V113.4z"/>
		<path class="st0" d="M68.7,111.3L68.7,111.3v2.1h-0.5v-0.3c-0.2,0.2-0.5,0.3-0.8,0.3c-0.3,0-0.6-0.1-0.8-0.3
			c-0.2-0.2-0.4-0.4-0.4-0.8c0-0.3,0.1-0.6,0.4-0.8c0.2-0.2,0.5-0.3,0.7-0.3c0.1,0,0.2,0,0.2,0c0.2,0,0.3,0.1,0.4,0.1l-0.1,0.2
			c-0.2-0.1-0.3-0.2-0.5-0.2c-0.2,0-0.4,0.1-0.5,0.2c-0.1,0.2-0.2,0.4-0.2,0.7c0,0.3,0.1,0.5,0.2,0.6c0.1,0.2,0.3,0.2,0.5,0.2
			c0.3,0,0.6-0.2,0.8-0.5v-1.5c0-0.7-0.2-1-0.7-1c-0.3,0-0.5,0.1-0.8,0.3l-0.1-0.2c0.2-0.2,0.5-0.2,0.9-0.2
			C68.3,110.1,68.7,110.5,68.7,111.3z"/>
		<path class="st0" d="M71.3,110.2l-0.1,0.2c-0.1-0.1-0.3-0.1-0.4-0.1c-0.1,0-0.1,0-0.2,0.1c-0.2,0.1-0.3,0.4-0.3,0.9c0,0,0,0,0,0
			v2.1h-0.5v-3.2h0.5v0.4c0.1-0.1,0.1-0.2,0.2-0.3c0.1-0.1,0.2-0.1,0.4-0.1C71.1,110.1,71.2,110.2,71.3,110.2z"/>
		<path class="st0" d="M73.6,110.3H73v2c0,0.3,0,0.6,0.1,0.7c0.1,0.1,0.2,0.2,0.5,0.2v0.2c-0.7,0-1.1-0.4-1.1-1.1v-2h-0.3v-0.2h0.3
			v-0.4H73v0.4h0.6V110.3z"/>
		<path class="st0" d="M75.1,108.7c0,0.1,0,0.2-0.1,0.2c-0.1,0.1-0.1,0.1-0.2,0.1c-0.1,0-0.2,0-0.2-0.1s-0.1-0.1-0.1-0.2
			c0-0.1,0-0.2,0.1-0.2c0.1-0.1,0.1-0.1,0.2-0.1c0.1,0,0.2,0,0.2,0.1C75,108.6,75.1,108.6,75.1,108.7z M75,113.4h-0.5v-3.2H75V113.4
			z"/>
		<path class="st0" d="M77.9,112.6c0,0.3-0.1,0.5-0.3,0.6c-0.2,0.2-0.4,0.2-0.7,0.2c-0.4,0-0.7-0.1-0.9-0.4l0.2-0.2
			c0.2,0.3,0.5,0.4,0.8,0.4c0.2,0,0.3-0.1,0.4-0.2c0.1-0.1,0.2-0.3,0.2-0.4c0-0.2-0.1-0.4-0.3-0.5c-0.1-0.1-0.3-0.2-0.6-0.4
			c-0.4-0.2-0.5-0.5-0.5-0.9c0-0.2,0.1-0.4,0.3-0.6c0.2-0.1,0.4-0.2,0.6-0.2c0.2,0,0.3,0,0.5,0.1c0.2,0.1,0.3,0.2,0.3,0.3l-0.2,0.2
			c-0.2-0.3-0.4-0.4-0.7-0.4c-0.3,0-0.5,0.1-0.6,0.4c0,0.2,0.1,0.4,0.3,0.6c0.4,0.2,0.6,0.4,0.7,0.5C77.7,112,77.9,112.3,77.9,112.6
			z"/>
		<path class="st0" d="M80.1,110.3h-0.6v2c0,0.3,0,0.6,0.1,0.7c0.1,0.1,0.2,0.2,0.5,0.2v0.2c-0.7,0-1.1-0.4-1.1-1.1v-2h-0.3v-0.2H79
			v-0.4h0.5v0.4h0.6V110.3z"/>
		<path class="st0" d="M81.6,108.7c0,0.1,0,0.2-0.1,0.2s-0.1,0.1-0.2,0.1c-0.1,0-0.2,0-0.2-0.1s-0.1-0.1-0.1-0.2
			c0-0.1,0-0.2,0.1-0.2c0.1-0.1,0.1-0.1,0.2-0.1c0.1,0,0.2,0,0.2,0.1C81.6,108.6,81.6,108.6,81.6,108.7z M81.6,113.4h-0.5v-3.2h0.5
			V113.4z"/>
		<path class="st0" d="M85.4,113c-0.3,0.3-0.7,0.4-1.1,0.4c-0.5,0-0.8-0.2-1.2-0.5c-0.3-0.3-0.5-0.7-0.5-1.2c0-0.5,0.2-0.9,0.5-1.2
			c0.3-0.3,0.7-0.5,1.2-0.5c0.4,0,0.7,0.1,1,0.3l-0.1,0.2c-0.2-0.2-0.5-0.4-0.9-0.4c-0.3,0-0.6,0.2-0.8,0.5c-0.2,0.3-0.3,0.6-0.3,1
			c0,0.4,0.1,0.8,0.3,1c0.2,0.3,0.5,0.5,0.8,0.5c0.4,0,0.7-0.2,1-0.5L85.4,113z"/>
		<path class="st0" d="M90.2,111.4h-2v-0.2h1.5c0-0.6-0.3-0.9-0.8-0.9c-0.3,0-0.6,0.1-0.8,0.4c-0.2,0.3-0.3,0.6-0.3,1.1
			c0,0.5,0.1,0.8,0.3,1.1c0.2,0.3,0.5,0.4,0.8,0.4c0.4,0,0.7-0.2,1-0.5l0.2,0.2c-0.3,0.3-0.7,0.5-1.1,0.5c-0.5,0-0.8-0.2-1.2-0.5
			c-0.3-0.3-0.5-0.7-0.5-1.2c0-0.5,0.2-0.9,0.5-1.2c0.3-0.3,0.7-0.5,1.1-0.5c0.3,0,0.6,0.1,0.9,0.4C90,110.7,90.2,111,90.2,111.4z"
			/>
		<path class="st0" d="M93.9,113.4h-0.6l-1-1.5l-1.2,1.5l-0.2,0l1.3-1.6l-1.1-1.6h0.6l0.9,1.3l1-1.3l0.2,0l-1.1,1.4L93.9,113.4z"/>
		<path class="st0" d="M97.4,111.8c0,0.5-0.1,0.8-0.4,1.2c-0.3,0.3-0.6,0.5-1,0.5c-0.2,0-0.4,0-0.6-0.1l0.1-0.2
			c0.1,0.1,0.3,0.2,0.5,0.2c0.2,0,0.5-0.1,0.6-0.4c0.2-0.3,0.3-0.6,0.3-1.1c0-0.4-0.1-0.8-0.3-1.1c-0.2-0.3-0.4-0.4-0.7-0.4
			c-0.2,0-0.3,0.1-0.5,0.2c-0.1,0.1-0.2,0.3-0.3,0.5v3.6h-0.5v-4.4h0.5v0.3c0.2-0.2,0.5-0.4,0.8-0.4c0.4,0,0.8,0.2,1,0.5
			C97.3,111,97.4,111.3,97.4,111.8z"/>
		<path class="st0" d="M99.9,110.2l-0.1,0.2c-0.1-0.1-0.3-0.1-0.4-0.1c-0.1,0-0.1,0-0.2,0.1c-0.2,0.1-0.3,0.4-0.3,0.9c0,0,0,0,0,0
			v2.1h-0.5v-3.2h0.5v0.4c0.1-0.1,0.1-0.2,0.2-0.3c0.1-0.1,0.2-0.1,0.4-0.1C99.7,110.1,99.8,110.2,99.9,110.2z"/>
		<path class="st0" d="M103.4,111.4h-2v-0.2h1.5c0-0.6-0.3-0.9-0.8-0.9c-0.3,0-0.6,0.1-0.8,0.4c-0.2,0.3-0.3,0.6-0.3,1.1
			c0,0.5,0.1,0.8,0.3,1.1c0.2,0.3,0.5,0.4,0.8,0.4c0.4,0,0.7-0.2,1-0.5l0.2,0.2c-0.3,0.3-0.7,0.5-1.1,0.5c-0.5,0-0.8-0.2-1.2-0.5
			c-0.3-0.3-0.5-0.7-0.5-1.2c0-0.5,0.2-0.9,0.5-1.2c0.3-0.3,0.7-0.5,1.1-0.5c0.3,0,0.6,0.1,0.9,0.4
			C103.2,110.7,103.4,111,103.4,111.4z"/>
		<path class="st0" d="M106.1,112.6c0,0.3-0.1,0.5-0.3,0.6c-0.2,0.2-0.4,0.2-0.7,0.2c-0.4,0-0.7-0.1-0.9-0.4l0.2-0.2
			c0.2,0.3,0.5,0.4,0.8,0.4c0.2,0,0.3-0.1,0.4-0.2c0.1-0.1,0.2-0.3,0.2-0.4c0-0.2-0.1-0.4-0.3-0.5c-0.1-0.1-0.3-0.2-0.6-0.4
			c-0.4-0.2-0.5-0.5-0.5-0.9c0-0.2,0.1-0.4,0.3-0.6c0.2-0.1,0.4-0.2,0.6-0.2c0.1,0,0.3,0,0.5,0.1c0.2,0.1,0.3,0.2,0.3,0.3l-0.2,0.2
			c-0.2-0.3-0.4-0.4-0.7-0.4c-0.3,0-0.5,0.1-0.5,0.4c0,0.2,0.1,0.4,0.3,0.6c0.4,0.2,0.6,0.4,0.7,0.5
			C106,112,106.1,112.3,106.1,112.6z"/>
		<path class="st0" d="M108.8,112.6c0,0.3-0.1,0.5-0.3,0.6c-0.2,0.2-0.4,0.2-0.7,0.2c-0.4,0-0.7-0.1-0.9-0.4l0.1-0.2
			c0.2,0.3,0.5,0.4,0.8,0.4c0.2,0,0.3-0.1,0.4-0.2c0.1-0.1,0.2-0.3,0.2-0.4c0-0.2-0.1-0.4-0.3-0.5c-0.1-0.1-0.3-0.2-0.6-0.4
			c-0.4-0.2-0.5-0.5-0.5-0.9c0-0.2,0.1-0.4,0.3-0.6c0.2-0.1,0.4-0.2,0.6-0.2c0.2,0,0.3,0,0.5,0.1c0.2,0.1,0.3,0.2,0.3,0.3l-0.2,0.2
			c-0.2-0.3-0.4-0.4-0.7-0.4c-0.3,0-0.5,0.1-0.5,0.4c0,0.2,0.1,0.4,0.3,0.6c0.4,0.2,0.6,0.4,0.7,0.5
			C108.7,112,108.9,112.3,108.8,112.6z"/>
		<path class="st0" d="M110.4,108.7c0,0.1,0,0.2-0.1,0.2s-0.1,0.1-0.2,0.1c-0.1,0-0.2,0-0.2-0.1s-0.1-0.1-0.1-0.2
			c0-0.1,0-0.2,0.1-0.2c0.1-0.1,0.1-0.1,0.2-0.1c0.1,0,0.2,0,0.2,0.1C110.4,108.6,110.4,108.6,110.4,108.7z M110.3,113.4h-0.5v-3.2
			h0.5V113.4z"/>
		<path class="st0" d="M114.7,111.8c0,0.5-0.2,0.9-0.5,1.2c-0.3,0.3-0.7,0.5-1.2,0.5c-0.5,0-0.8-0.2-1.2-0.5
			c-0.3-0.3-0.5-0.7-0.5-1.2c0-0.5,0.2-0.9,0.5-1.2c0.3-0.3,0.7-0.5,1.2-0.5c0.5,0,0.8,0.2,1.2,0.5
			C114.5,110.9,114.7,111.3,114.7,111.8z M114.2,111.8c0-0.4-0.1-0.8-0.3-1.1c-0.2-0.3-0.5-0.4-0.8-0.4c-0.3,0-0.6,0.1-0.8,0.4
			c-0.2,0.3-0.3,0.6-0.3,1.1c0,0.4,0.1,0.8,0.3,1.1c0.2,0.3,0.5,0.4,0.8,0.4c0.3,0,0.6-0.1,0.8-0.4
			C114.1,112.5,114.2,112.2,114.2,111.8z"/>
		<path class="st0" d="M118.3,113.4h-0.5v-2.2c0-0.7-0.2-1-0.7-1c-0.5,0-0.8,0.3-1,0.9v2.3h-0.5v-3.2h0.5v0.4c0.3-0.4,0.6-0.5,1-0.5
			c0.4,0,0.7,0.1,0.8,0.2c0.2,0.2,0.3,0.5,0.3,0.9V113.4z"/>
		<path class="st0" d="M120.1,113.2c0,0.1,0,0.2-0.1,0.2s-0.1,0.1-0.2,0.1c-0.1,0-0.2,0-0.2-0.1s-0.1-0.1-0.1-0.2
			c0-0.1,0-0.2,0.1-0.2s0.1-0.1,0.2-0.1c0.1,0,0.2,0,0.2,0.1S120.1,113.1,120.1,113.2z"/>
	</g>
</g>
<g>
	<g>
		<path class="st1" d="M26.4,2.7H15.7v30.5h-4.9V2.7H0v-2h26.4V2.7z"/>
		<path class="st1" d="M62.6,33v0.2h-6.3c-1.4-0.1-2.6-1.2-2.6-2.7v-13H37.5v15.7h-4.9v-28c0-1.9-1.2-3.5-3-4c0,0-0.1,0-0.1,0
			l-0.8-0.2V0.7h6.2c0.8,0,1.4,0.3,1.9,0.8c0.4,0.5,0.8,1.2,0.8,1.9v12.5h16.3V0.7h4.9v28c0,1.9,1.2,3.5,3.1,4.1h0.1L62.6,33z"/>
		<path class="st1" d="M88.1,31.5v1.7H67.6v-28c0-1.9-1.2-3.5-3.9-4.3V0.7h24.4v1.7H72.5v12.9h13v2h-13v14.2H88.1z"/>
		<path class="st1" d="M134,0.7l-14.5,33.1L106.3,3.4c-0.5-1.1-1.5-1.9-2.6-2.2l-1-0.3V0.7h4.3c1.7,0,3.3,1.1,4,2.7l9.7,22.5
			l11-25.1H134z"/>
		<path class="st1" d="M166,16.9c0,11.8-7,16.9-15.7,16.9c-8.7,0-15.7-5.1-15.7-16.9c0-11.4,7-16.9,15.7-16.9
			C159,0,166,5.4,166,16.9z M160.6,16.9c0-10.4-4.6-15.4-10.3-15.4c-5.7,0-10.3,5.1-10.3,15.4c0,10.7,4.7,15.4,10.3,15.4
			C156,32.3,160.6,27.6,160.6,16.9z"/>
		<path class="st1" d="M176.8,0.7v32.5h-4.4v-28c0-1.9-1.2-3.5-3.9-4.3V0.7H176.8z"/>
		<path class="st1" d="M210.2,27.2c-0.4,0.8-4,6.7-13.2,6.7c-9.9,0-15.7-7.5-15.7-16.9c0-9.3,5.8-16.9,15.7-16.9
			c9.4,0,12.9,6.2,13.3,6.8l-1.1,1.1c-10.2-12.2-22.3-4.1-22.3,9c0,12.1,12.1,21.3,22.2,9.1L210.2,27.2z"/>
		<path class="st1" d="M236.6,31.5v1.7h-20.5v-28c0-1.9-1.2-3.5-3.9-4.3V0.7h24.4v1.7H221v12.9h13v2h-13v14.2H236.6z"/>
		<path class="st1" d="M42.6,48L30.1,81.1l-7.9-22.6l-7.7,22.6L3.4,50.7v0c-0.2-0.5-0.5-1-0.9-1.4c-0.4-0.4-0.9-0.7-1.5-0.8l-1-0.3
			V48h4.3C6,48,7.5,49,8.2,50.6v0l7.5,20.8l8-23.5l8,23.1L40.4,48H42.6z"/>
		<path class="st1" d="M74.8,64.1c0,11.8-7,16.9-15.7,16.9c-8.7,0-15.7-5.1-15.7-16.9c0-11.4,7-16.9,15.7-16.9
			C67.8,47.3,74.8,52.7,74.8,64.1z M69.5,64.1c0-10.4-4.6-15.4-10.3-15.4c-5.7,0-10.3,5.1-10.3,15.4c0,10.7,4.7,15.4,10.3,15.4
			C64.9,79.5,69.5,74.9,69.5,64.1z"/>
		<path class="st1" d="M103.8,80.4h-5.5L88,65.8c-1.3,0-2.6,0-3.6,0v14.6h-4.9V52.5c0-2-1.5-4-3.9-4.3V48h8.8
			c5.1,0,15.4-0.1,15.4,9.1c0,5.2-3.2,7.4-6.7,8.3L103.8,80.4z M92.9,62.3c0.3-0.4,0.6-0.8,0.8-1.2c0.3-0.5,0.4-1.1,0.6-1.7
			c0.1-0.7,0.2-1.5,0.2-2.3c-0.2-7.1-5.7-7.5-6.7-7.5h-3.5v14.6h3.5c0.6,0,1.2,0,1.7-0.1c0.8-0.1,1.7-0.4,2.4-0.8
			C92.3,62.9,92.6,62.6,92.9,62.3z"/>
		<path class="st1" d="M128.7,78.4v2h-20.9v-28c0-1.9-1.2-3.5-3.9-4.3V48h8.3v30.5H128.7z"/>
		<path class="st1" d="M161,64.2c0,17-17.5,16.2-17.9,16.2h-10.3v-28c0-2-1.5-4-3.9-4.3V48h14.3C143.5,48,161,46.9,161,64.2z
			 M155.6,64.2c0-14.6-10.4-14.6-12.5-14.6h-5.5v29.2h5.5C144.8,78.8,155.7,78.7,155.6,64.2z"/>
	</g>
</g>
</svg>
