<?xml version="1.0" encoding="utf-8"?>
<!-- Generator: Adobe Illustrator 25.2.3, SVG Export Plug-In . SVG Version: 6.00 Build 0)  -->
<svg version="1.1" id="圖層_1" xmlns="http://www.w3.org/2000/svg" xmlns:xlink="http://www.w3.org/1999/xlink" x="0px" y="0px"
	 viewBox="0 0 280 50" style="enable-background:new 0 0 280 50;" xml:space="preserve">
<style type="text/css">
	.st0{fill:#C9A063;}
</style>
<path class="st0" d="M3.7,3.1h2.7C6.9,2.4,7.3,2,7.5,2S8,2.2,8.6,2.6C9.1,3,9.4,3.3,9.4,3.4c0,0.1-0.1,0.3-0.3,0.4
	C8.8,4.1,8.6,4.2,8.6,4.3v5.9c0.1,2.3,0.1,3.8,0.1,4.4c0,0.5-0.4,0.7-1.1,0.7c-0.5,0-0.8-0.1-0.9-0.4v-1.3H4v1.7
	c-0.1,0.4-0.5,0.6-1.2,0.6c-0.4,0-0.7-0.1-0.8-0.2c0-2.1,0-4.2,0.1-6.2V5.4C2.1,3.7,2,2.6,2,2.3L3.7,3.1z M6.7,7.9V3.5H4v4.4H6.7z
	 M6.7,13.1V8.5H4v4.6H6.7z M12,14.6c-0.3,0.9-0.8,1.8-1.8,2.7c-1.2,1.3-2.5,2.1-3.7,2.5c-0.1,0-0.2-0.1-0.3-0.2
	c1.4-1,2.6-2.2,3.4-3.8c0.8-1.2,1.2-3.2,1.2-6.1c0-3.3,0-5.3,0-6.1c0-0.7,0-1.4-0.1-2.3l2.2,1h3.7c0.4-0.6,0.8-1,1-1.2
	c0.2,0,0.5,0.2,1.1,0.5c0.6,0.4,0.9,0.7,0.9,0.9c0,0.1-0.1,0.3-0.4,0.4c-0.3,0.2-0.4,0.3-0.5,0.4v13.4c0,1.4-0.8,2.2-2.3,2.5
	c-0.2,0-0.4-0.1-0.4-0.4c-0.2-0.5-0.7-1-1.2-1.2c-0.8-0.3-1.4-0.5-1.7-0.6c0,0,0-0.1,0-0.4c0.8,0.1,1.9,0.1,3.3,0.1
	c0.3,0,0.5-0.2,0.5-0.5v-4h-4.3C12.3,13.4,12.2,14.1,12,14.6z M12.6,9.8c0,0.8,0,1.6-0.1,2.2h4.3V7.6h-4.2V9.8z M12.6,7h4.2V3h-4.2
	V7z"/>
<path class="st0" d="M39.4,12.5c0.9,0.8,1.3,1.2,1.3,1.4c0,0.2-0.1,0.3-0.2,0.3h-7.1c1,0.9,2,1.6,3.2,2c1.2,0.5,2.6,0.7,4.2,0.8
	c0,0.2,0,0.3-0.1,0.4c-0.1,0-0.3,0.2-0.5,0.4c-0.1,0.1-0.3,0.4-0.4,0.8c-0.1,0.3-0.2,0.4-0.4,0.4c-0.7,0-1.8-0.5-3.4-1.4
	c-1.4-0.8-2.4-1.9-3.1-3.3h-0.3l0.1,5.1c0,0.4-0.4,0.6-1.2,0.7c-0.6,0-0.9-0.2-0.9-0.5c0-1.6,0-3.1,0-4.5c-1.5,1.7-4.3,3-8.5,4
	c-0.1,0-0.2-0.1-0.3-0.3c3.4-1.2,5.6-2.6,6.7-4c0.2-0.2,0.3-0.4,0.4-0.5h-1.6c-2.4,0-4,0.1-4.6,0.3c-0.1-0.4-0.3-0.7-0.5-1.1
	c1,0.1,2.8,0.2,5.2,0.2h3.1v-0.2c0-0.7-0.1-1.2-0.1-1.6c-0.6,0.2-1.3,0.4-2,0.5c0,0-0.1-0.1-0.2-0.3c1.7-0.6,2.9-1.5,3.7-2.7
	c-0.6-0.4-1.1-0.7-1.7-0.9c0,0,0.1-0.1,0.1-0.3c0.7,0.1,1.4,0.2,1.9,0.4c0.2-0.5,0.3-1,0.3-1.4c-0.8,0-1.4,0.1-1.7,0.2
	c-0.1-0.3-0.3-0.7-0.4-1c0.3,0.1,1,0.2,2,0.2H36c0.2-0.3,0.4-0.5,0.6-0.7c-0.4,0-0.6-0.2-0.7-0.7c0-0.1-0.1-0.3-0.1-0.5
	s-0.1-0.3-0.1-0.5c-0.1-0.2-0.2-0.4-0.3-0.5h-1.6c-0.2,0.2-0.4,0.4-0.5,0.5c-0.7,0.6-1.4,1.2-2.2,1.6c0,0-0.1-0.1-0.2-0.2
	C32.2,4,33.1,2.5,33.4,1c1.8,0.5,2.7,0.9,2.7,1.1s-0.4,0.3-1.2,0.4c-0.1,0.2-0.3,0.4-0.4,0.6h3.7c0.5-0.8,0.9-1.2,1.1-1.3h0.1
	c0.1,0.1,0.4,0.3,0.8,0.6c0.5,0.5,0.8,0.8,0.9,1c0,0.2-0.1,0.3-0.1,0.3h-4.4C37.4,4,37.8,4.4,37.8,5c0,0.3-0.1,0.6-0.3,0.7
	c0.3,0.1,0.6,0.4,1,0.6C39,6.7,39.2,7,39.2,7.1c0,0.2-0.3,0.5-0.9,0.8v1.9c0,0.5,0.2,0.7,0.6,0.8c0,0,0,0,0.1,0
	c0.5,0,0.7-0.1,0.8-0.3c0.2-0.3,0.4-0.9,0.5-1.7c0,0,0.1,0.1,0.4,0.1c0,0.3,0,0.7,0,1.2c0,0.2,0.1,0.4,0.3,0.5
	c0.3,0.1,0.5,0.4,0.5,0.6c0,0.3-0.1,0.4-0.1,0.5c-0.2,0.4-0.6,0.6-1.2,0.7c-0.3,0.1-0.5,0.1-0.8,0.1c-0.3,0-0.5,0-0.7,0
	c-1.2,0-1.8-0.6-1.9-1.9V7.3h-1.9c-0.1,0.9-0.3,1.5-0.5,1.8v0.1c1.1,0.5,1.7,1,1.7,1.7c0,0.2,0,0.3-0.1,0.5
	c-0.1,0.3-0.3,0.4-0.6,0.4c-0.3,0-0.7-0.3-1.2-0.9c-0.2-0.2-0.4-0.4-0.6-0.5c-0.6,0.7-1.4,1.2-2.4,1.5c2,0.3,3,0.6,3,0.8
	c0,0.1-0.1,0.3-0.4,0.4c-0.4,0.2-0.7,0.3-0.7,0.4v0.3h4.8c0.6-0.8,1.1-1.3,1.4-1.4C39.3,12.4,39.4,12.4,39.4,12.5
	C39.1,12.3,39.2,12.4,39.4,12.5z M25.7,3.6c-1,1.3-2.2,2.2-3.5,2.9c-0.1-0.1-0.2-0.2-0.4-0.2c1.4-1.4,2.5-3.2,3.1-5.5
	c1.8,0.6,2.7,0.9,2.7,1.1c0,0.3-0.4,0.4-1,0.5c-0.1,0.2-0.3,0.4-0.4,0.6h2.7c0.5-0.8,0.9-1.2,1.1-1.3h0.1c0.2,0.1,0.4,0.3,0.8,0.6
	c0.5,0.5,0.8,0.8,0.9,1c0,0.2-0.1,0.3-0.1,0.3h-4.6c1,0.3,1.6,0.9,1.6,1.6c0,0.6-0.3,0.9-0.9,0.9c-0.4,0-0.6-0.2-0.7-0.7
	c0-0.1-0.1-0.3-0.1-0.6c0-0.2-0.1-0.4-0.1-0.6c-0.1-0.3-0.3-0.5-0.4-0.7h-0.8V3.6z M25.1,7.4c-0.9,0-1.6,0.1-2,0.2
	c-0.1-0.3-0.2-0.5-0.3-0.8c0.4,0.1,1.2,0.1,2.3,0.1H28c0.3-0.4,0.5-0.7,0.8-1C28.9,5.8,29,5.8,29,5.8c0.1,0,0.2,0.1,0.4,0.2
	c0.7,0.6,1.1,1,1.2,1.2c0,0.2-0.1,0.3-0.1,0.3h-3v2.7c1.1-0.1,2.1-0.2,2.9-0.4l0.1,0.1c-1.6,0.8-3.8,1.6-6.7,2.1
	c0,0.4-0.1,0.5-0.2,0.5s-0.2-0.2-0.4-0.5c-0.2-0.3-0.4-0.9-0.7-1.6c1.2,0,2.3-0.1,3.3-0.2V7.4H25.1z"/>
<path class="st0" d="M47.3,6C47.7,6.4,48,6.7,48,6.8s-0.2,0.3-0.6,0.4c-0.2,0.1-0.3,0.1-0.4,0.2c-0.6,1.7-1.1,3-1.4,3.9h0.7
	c0.5-0.6,0.8-0.9,0.9-0.9c0.2,0,0.5,0.2,1,0.5c0.5,0.4,0.8,0.7,0.8,0.8c0,0.1-0.1,0.3-0.4,0.4c-0.3,0.1-0.4,0.3-0.5,0.4
	c-0.4,1.6-0.9,3-1.6,4.1c0.9,0.5,1.9,0.8,3.1,0.9c1.9,0.3,4.1,0.4,6.7,0.4c3,0,4.9-0.1,5.8-0.3c0,0.1,0,0.3,0,0.4
	c-0.3,0-0.5,0.1-0.8,0.4c-0.2,0.2-0.4,0.4-0.4,0.8c-0.1,0.3-0.4,0.4-0.8,0.4c-0.8,0-2.2,0-4.3-0.1c-3.2-0.1-5.5-0.4-6.8-0.8
	c-1.4-0.4-2.4-1-2.9-1.7c-0.1,0.2-0.3,0.4-0.4,0.5c-0.9,1.1-1.8,1.9-2.8,2.4c-0.1-0.1-0.1-0.1-0.2-0.2c0.9-1,1.7-2.2,2.2-3.4
	c0.7-1.6,1.1-3.1,1.2-4.6h-1c-0.1,0.2-0.2,0.4-0.2,0.6c-0.1,0.2-0.3,0.3-0.7,0.3c-0.6,0-0.9-0.2-0.9-0.4c0.8-1.9,1.4-3.7,2-5.4h-1.7
	c-0.2,0-0.5,0.1-0.8,0.1c-0.1-0.3-0.2-0.5-0.3-0.8c0.4,0.1,0.7,0.1,1,0.1h1.8c0.6-0.6,0.9-0.9,1-0.9C46.7,5.4,46.9,5.6,47.3,6z
	 M45.7,1.9c0.8,0.5,1.2,1.1,1.2,1.8c0,0.5-0.2,0.8-0.4,1c-0.1,0.1-0.4,0.2-0.7,0.2s-0.5-0.4-0.7-1.1c-0.1-0.6-0.3-1.1-0.4-1.4
	c-0.1-0.3-0.4-0.6-0.7-0.9c0-0.1,0.1-0.1,0.2-0.3C44.8,1.5,45.3,1.7,45.7,1.9z M58.6,9c0,0.2-0.1,0.3-0.3,0.3
	c-0.4,0.2-0.6,0.3-0.6,0.4v0.5h0.9c0.5-0.6,0.9-1,1.2-1.2h0.1c0.1,0.1,0.3,0.2,0.4,0.3c0.7,0.6,1.1,1,1.1,1.2s-0.1,0.3-0.2,0.3h-3.5
	V13h1.4c0.5-0.6,0.9-1,1.2-1.2h0.1c0.1,0.1,0.3,0.2,0.4,0.3c0.7,0.6,1.1,1,1.1,1.2s-0.1,0.3-0.2,0.3H52c-1.8,0-2.9,0.1-3.3,0.2
	c-0.1-0.4-0.3-0.7-0.5-1.1c0.7,0.1,1.7,0.2,3.2,0.2v-2.2c-1.2,0-1.9,0.1-2.2,0.3c-0.1-0.4-0.3-0.7-0.5-1.1c0.5,0.1,1.4,0.2,2.7,0.2
	c0-0.8,0-1.5-0.1-2c1.8,0.3,2.8,0.5,2.8,0.7c0,0.2-0.1,0.3-0.3,0.3c-0.4,0.2-0.6,0.3-0.6,0.4v0.6H56c0-0.8,0-1.5-0.1-2
	C57.7,8.5,58.6,8.7,58.6,9z M54.8,15.2c0,0.2-0.4,0.3-1,0.3c-1,0.6-2.7,1.2-4.8,1.6c-0.1-0.1-0.2-0.2-0.3-0.3c1.7-0.7,3-1.6,3.8-2.7
	C54,14.6,54.8,15,54.8,15.2z M53.9,1.8c0.4,0.3,0.6,0.5,0.6,0.7c0,0.1-0.1,0.2-0.2,0.3c-0.2,0.2-0.4,0.3-0.4,0.4v0.9
	c0,0.4,0.1,0.6,0.1,0.7c0,0.4-0.3,0.5-0.9,0.5c-0.4,0-0.7-0.1-0.7-0.3V4.8h-1.9v1c0,0.4,0.3,0.6,1,0.6c0.2,0,0.4,0,0.6,0
	c0.6,0,1-0.1,1.3-0.2c0.1,0,0.3-0.1,0.4-0.4C53.9,5.5,54,5.3,54.1,5c0.1,0,0.2,0,0.3,0c0,0.4,0,0.7,0,0.9c0.1,0.1,0.2,0.3,0.4,0.5
	C54.9,6.6,55,6.7,55,6.8c0,0.4-0.2,0.7-0.7,0.8c-0.5,0.1-1.3,0.1-2.2,0.1c-1.1,0-1.8,0-1.9-0.1c-0.9-0.1-1.3-0.6-1.3-1.7V2.4
	c0-0.6,0-1-0.1-1.4l1.7,0.9H52c0.4-0.5,0.7-0.8,0.9-0.8C53.2,1.3,53.4,1.5,53.9,1.8z M50.6,4.2h1.9V2.6h-1.9V4.2z M53.2,10.9v2.2H56
	v-2.2H53.2z M60.6,1.8c0.4,0.3,0.6,0.5,0.6,0.7c0,0.1-0.1,0.2-0.3,0.3c-0.3,0.2-0.4,0.3-0.4,0.4v0.9c0.1,0.4,0.1,0.6,0.1,0.7
	c0,0.4-0.3,0.5-0.9,0.5C59.3,5.3,59,5.2,59,5V4.7h-1.9v1.1c0,0.4,0.3,0.6,1,0.6h0.7c0.7,0,1.2,0,1.6-0.2c0.1,0,0.3-0.2,0.4-0.5
	c0.1-0.3,0.2-0.6,0.3-1c0.1,0,0.2,0,0.3,0v1c0,0.2,0.1,0.3,0.3,0.5c0.1,0.2,0.1,0.3,0.1,0.4c0,0.5-0.2,0.7-0.7,0.9
	c-0.5,0.1-1.3,0.1-2.3,0.1c-1.2,0-1.8,0-2-0.1c-0.9-0.1-1.3-0.7-1.3-1.7V2.3c0-0.6,0-1-0.1-1.4l1.7,0.9h1.6c0.4-0.5,0.7-0.7,0.9-0.8
	C59.8,1.3,60.1,1.5,60.6,1.8z M61,16.3c0,0.6-0.3,1-0.9,1c-0.1,0-0.3,0-0.5-0.2c-0.1-0.1-0.5-0.4-1.2-1.1c-0.6-0.6-1.5-1.1-2.8-1.6
	c0,0,0.1-0.1,0.1-0.2h0.8C59.5,14.5,61,15.2,61,16.3z M57.1,4.2H59V2.6h-1.9V4.2z"/>
<path class="st0" d="M71.7,5c0.8,0.7,1.2,1.1,1.3,1.3c0,0.2-0.1,0.3-0.2,0.3h-3.1v2C70.4,8.7,71,9,71.5,9.2c1,0.5,1.5,1.2,1.5,1.9
	c0,0.5-0.1,0.8-0.4,1c-0.1,0.1-0.3,0.2-0.6,0.2c-0.5,0-0.9-0.4-1.1-1.1c-0.2-0.7-0.5-1.2-0.7-1.5c-0.1-0.2-0.3-0.4-0.4-0.6V15
	c0,2.2,0,3.7,0.1,4.7c0,0.3-0.4,0.5-1.3,0.5c-0.5,0-0.7-0.1-0.7-0.4c0-0.8,0.1-2.4,0.1-4.9v-4.1c-1.1,2.2-2.4,3.9-3.7,5.1
	c-0.1,0-0.2-0.1-0.3-0.2c2-2.7,3.3-5.8,3.9-9.2h-1.5c-0.9,0-1.6,0.1-2,0.2c-0.1-0.3-0.2-0.5-0.3-0.8C64.5,6,65.3,6,66.4,6H68V2.8
	c0-0.6-0.1-1.3-0.2-1.9c0.7,0.1,1.3,0.2,2.1,0.3c0.5,0.1,0.8,0.2,0.8,0.4c0,0.1-0.1,0.2-0.4,0.3c-0.4,0.1-0.5,0.2-0.5,0.3V6h0.5
	c0.3-0.4,0.6-0.8,0.9-1.1c0.1-0.1,0.2-0.2,0.2-0.2C71.4,4.8,71.5,4.8,71.7,5z M82.2,5.2c0.4,0.5,0.6,0.8,0.7,0.9
	c0,0.2-0.1,0.3-0.3,0.3h-2.8v10.5c0,1.9-0.8,2.8-2.5,2.8c-0.3,0-0.4-0.1-0.4-0.4c-0.1-0.4-0.3-0.8-0.8-1.1c-0.3-0.3-0.8-0.4-1.3-0.5
	c0-0.1,0.1-0.2,0.1-0.4c0.4,0,1.3,0,2.7,0c0.2,0,0.3-0.2,0.3-0.6V10c-1.4,2.7-3.7,4.9-6.7,6.5c-0.1,0-0.1-0.1-0.2-0.3
	c3.1-2.6,5.1-5.4,6-8.5c0.2-0.5,0.4-0.9,0.4-1.3h-0.9c-2,0-3.1,0.1-3.1,0.2C73.3,6.3,73.1,6,73,5.5c0.3,0.1,1.4,0.2,3.2,0.3h1.6V3.5
	c0-1.2-0.1-2.1-0.1-2.6c1.9,0.3,2.9,0.6,3.1,0.8c0,0.1-0.1,0.2-0.2,0.2C80.4,2,80.3,2,80.1,2.2c-0.2,0.1-0.3,0.2-0.3,0.3v3.3h0.3
	c0.6-0.9,1-1.4,1.2-1.4C81.5,4.4,81.8,4.7,82.2,5.2z"/>
<path class="st0" d="M7.4,30.7c0.8,0.7,1.2,1.2,1.3,1.4c0,0.2-0.1,0.3-0.1,0.3H7v4.9c0.7,0.1,1.8,0.2,3.3,0.2h1
	c0.4-1,0.6-2.2,0.7-3.7c0.8,0.3,1.4,0.5,1.8,0.7c0.4,0.2,0.6,0.3,0.6,0.4c0,0.1-0.1,0.2-0.3,0.3c-0.3,0.1-0.5,0.1-0.7,0.2
	c-0.3,0.9-0.8,1.6-1.5,2.2h2.9c-0.1-0.9-0.1-1.8-0.1-2.7c0-2.7,0-4.2-0.1-4.6c1.8,0.2,2.7,0.4,2.8,0.6c0,0.1-0.1,0.2-0.3,0.3
	c-0.4,0.2-0.7,0.3-0.7,0.4c0,1.8,0,3.8,0.1,5.9H17c0.5-0.6,0.9-1,1.2-1.2h0.1c0.1,0.1,0.3,0.2,0.4,0.3c0.7,0.7,1.1,1.1,1.1,1.2
	c0,0.2-0.1,0.3-0.2,0.3h-3.2c0,0.1,0,0.1,0,0.2c0.1,1.5,0.2,2.8,0.3,3.9c0.4-0.9,0.8-1.8,1.1-2.9c1.3,0.9,2,1.5,2,1.7
	c0,0.1-0.1,0.2-0.2,0.2c-0.3,0-0.5,0-0.6,0c-0.6,1.3-1.3,2.4-2,3.3c0.2,1.2,0.5,1.8,0.8,2.1c0.3-0.1,0.8-1,1.6-2.9
	c0.1,0,0.3,0.1,0.4,0.1c-0.5,1.7-0.7,2.9-0.7,3.6c0,0.3,0.2,0.5,0.3,0.8c0.1,0.2,0.2,0.4,0.2,0.5c0,0.3-0.3,0.5-0.8,0.5
	c-0.3,0-0.7-0.1-1-0.3c-0.8-0.6-1.4-1.6-1.8-3.1c-1.7,1.8-3.5,2.8-5.6,3.1c0-0.1-0.1-0.1-0.1-0.1c2.2-1.2,3.9-2.7,5.3-4.5
	c-0.4-1.7-0.6-3.7-0.8-6.2h-4.5c-1.7,0-2.8,0.1-3.2,0.3C7,38.2,6.9,38,6.8,37.7v8.5c0,0.8,0.1,1.7,0.1,2.8c0,0.2-0.3,0.4-1,0.4
	c-0.5,0-0.8-0.1-0.8-0.3c0-0.6,0.1-1.6,0.1-3v-1.7c-0.8,0.5-1.7,1-2.8,1.5c0,0.1-0.1,0.4-0.1,0.9c0,0.1-0.1,0.2-0.2,0.2
	c-0.3,0-0.8-0.8-1.6-2.3c0.3,0,0.7-0.1,1.3-0.2V32.4c-0.3,0-0.5,0.1-0.6,0.1C1.1,32.2,1,32,0.9,31.7c0.4,0.1,1.2,0.1,2.3,0.1h2.5
	c0.3-0.4,0.6-0.8,1-1.2c0.1-0.1,0.2-0.2,0.3-0.2S7.2,30.5,7.4,30.7z M5.3,35.6v-3.3H3.4v3.3H5.3z M5.3,39.4v-3.3H3.4v3.3H5.3z
	 M5.3,43.8V40H3.4v4.2C4,44.1,4.6,44,5.3,43.8z M13.3,31.8c0.8,0.7,1.3,1.2,1.4,1.4c0,0.2-0.1,0.3-0.2,0.3H9.6c-0.9,0-1.5,0.1-2,0.1
	c-0.1-0.2-0.2-0.5-0.3-0.8c0.4,0.1,1.2,0.1,2.3,0.1h2.1c0.3-0.4,0.7-0.8,1-1.2c0.1-0.1,0.2-0.2,0.3-0.2C13,31.6,13.1,31.7,13.3,31.8
	z M9.5,39.6H12c0.4-0.6,0.7-0.9,0.9-0.9c0.1,0,0.4,0.2,0.9,0.5c0.4,0.3,0.6,0.5,0.6,0.7c0,0.1-0.1,0.2-0.3,0.3
	c-0.3,0.2-0.5,0.3-0.5,0.4v3c0,1.2,0.1,1.9,0.1,2.3c0,0.4-0.3,0.6-0.9,0.6c-0.4,0-0.7-0.1-0.7-0.3v-0.5H9.8v0.9
	c-0.1,0.4-0.4,0.5-1,0.5c-0.4,0-0.6,0-0.7-0.2c0-1.2,0-2.5,0.1-3.7v-2.4c0-1-0.1-1.6-0.1-1.8L9.5,39.6z M10.6,36
	c0,0.8-0.3,1.2-0.9,1.2C9.3,37.2,9,37,9,36.5c0-0.1,0-0.2,0-0.3c0-0.1,0-0.3,0-0.5c0-0.6-0.2-1.1-0.5-1.6c0.1,0,0.2-0.1,0.2-0.1
	C9.9,34.6,10.6,35.3,10.6,36z M10.7,30.3c0.6,0.3,0.9,0.7,0.9,1.1c0,0.5-0.1,0.8-0.4,1c-0.2,0.1-0.4,0.2-0.7,0.2
	c-0.2,0-0.3-0.2-0.3-0.7c-0.1-0.4-0.1-0.7-0.2-0.9c-0.2-0.3-0.4-0.5-0.7-0.9c0,0,0.1-0.1,0.2-0.2C10,30,10.4,30.1,10.7,30.3z
	 M12.1,42.2v-2H9.8v2H12.1z M12.1,45.1v-2.4H9.8v2.4H12.1z M19.6,34.1c0,0.8-0.4,1.2-1,1.2c-0.5,0-0.7-0.3-0.7-0.8
	c0-0.1,0-0.2,0-0.3c0-0.1,0-0.3,0-0.5c0-0.6-0.3-1.2-0.7-1.8c0.2-0.1,0.3-0.1,0.3-0.1C18.9,32.6,19.6,33.3,19.6,34.1z"/>
<path class="st0" d="M22.2,49c0-0.1-0.1-0.2-0.3-0.2c2.3-1.5,4.3-3.7,6-6.7c1.4-2.1,2.2-5.5,2.3-10.2L30.1,31c0-0.2-0.1-0.4-0.2-0.5
	c2.5,0.3,3.8,0.7,3.8,1c0,0.2-0.2,0.4-0.6,0.4c-0.3,0.1-0.5,0.3-0.5,0.5v0.4c0,0.5-0.1,0.9-0.1,1.3c0.4,3.2,1.5,6,3.4,8.5
	c1.5,2,3.1,3.3,5,4c0,0.2,0,0.4-0.1,0.5c-0.4,0-0.6,0.1-0.6,0.2c-0.3,0.1-0.5,0.3-0.8,0.7c-0.3,0.5-0.5,0.8-0.7,0.8
	c-0.6,0-1.7-1.2-3.3-3.4c-1.7-2.4-2.8-5.5-3.2-9.2C30.9,42.6,27.6,46.9,22.2,49z"/>
<path class="st0" d="M50.4,37.1c0.4,0.4,0.6,0.6,0.6,0.7c0,0.2-0.1,0.3-0.3,0.3h-2.8v1.7c1.7,1,2.6,1.9,2.6,2.8
	c0,0.4-0.1,0.7-0.4,0.8c-0.2,0.1-0.4,0.2-0.6,0.2c-0.5,0-0.8-0.5-1-1.4c-0.2-0.6-0.4-1.1-0.7-1.6v3.6c0,2.2,0,3.7,0.1,4.7
	c0,0.3-0.4,0.5-1.3,0.5c-0.5,0-0.7-0.1-0.7-0.4c0-0.8,0.1-2.4,0.1-4.9v-2.6c-0.9,2.1-2,3.7-3.1,4.7c-0.1,0-0.2-0.1-0.3-0.2
	c1.5-2.3,2.5-5,3-7.9c-1.7,0-2.6,0.1-2.6,0.2c-0.1-0.3-0.3-0.6-0.4-1.1c0.3,0.1,1.4,0.2,3.2,0.3H46V32c0-0.6-0.1-1.3-0.2-1.9
	c0.7,0.1,1.3,0.2,2.1,0.3c0.5,0.1,0.8,0.2,0.8,0.4c0,0.1-0.1,0.2-0.4,0.3c-0.4,0.1-0.5,0.2-0.5,0.3v6.1h0.7c0.5-0.7,0.9-1,1.1-1
	C49.8,36.5,50,36.7,50.4,37.1z M45.7,35.2c0,0.7-0.3,1-0.9,1c-0.5,0-0.8-0.3-0.8-0.8c0-0.3,0-0.6-0.1-1c-0.1-0.4-0.1-0.9-0.3-1.4
	c-0.1-0.4-0.2-0.7-0.3-0.9c0.1-0.1,0.2-0.2,0.3-0.2C45,33.1,45.7,34.1,45.7,35.2z M60.7,31.6c0.7,0.6,1.1,1,1.1,1.2
	c0,0.2-0.1,0.3-0.2,0.3h-4.7v1.8h1.3c0.3-0.4,0.6-0.8,0.9-1.1c0.1-0.1,0.2-0.1,0.2-0.1s0.2,0.1,0.4,0.2c0.7,0.7,1.2,1.1,1.3,1.3
	c0,0.2-0.1,0.3-0.2,0.3h-3.9v1.8h2c0.6-0.7,1-1.1,1.3-1.3h0.1c0.1,0.1,0.3,0.2,0.5,0.3c0.8,0.7,1.2,1.2,1.2,1.3
	c0,0.2-0.1,0.3-0.2,0.3h-7.7c-1.4,0-2.3,0.1-2.6,0.2c-0.1-0.4-0.3-0.7-0.5-1.1c0.5,0.1,1.4,0.2,2.7,0.2H55v-1.8h-1.3
	c-0.9,0-1.6,0.1-2,0.2c-0.1-0.2-0.2-0.5-0.3-0.8c0.5,0.1,1.2,0.1,2.3,0.1H55v-1.8h-0.8c-1.3,0-2.2,0.1-2.5,0.3
	c-0.1-0.3-0.2-0.5-0.3-0.8h-0.1c-0.3,0.1-0.5,0.1-0.6,0.2c-0.4,1.3-1,2.3-2.1,3.1l-0.2-0.1c0.5-1.2,0.7-2.6,0.8-4.4
	c0.8,0.3,1.4,0.5,1.8,0.7c0.4,0.1,0.6,0.3,0.6,0.3c0.5,0.1,1.3,0.1,2.2,0.1H55v-0.2c0-0.9,0-1.7-0.1-2.2c2,0.3,3,0.5,3,0.8
	c0,0.2-0.1,0.3-0.4,0.3c-0.4,0.2-0.6,0.3-0.6,0.4v0.9h2c0.5-0.6,0.9-1,1.2-1.2h0.1C60.4,31.4,60.5,31.5,60.7,31.6z M53.4,48.7
	c-0.1,0.4-0.5,0.6-1.1,0.6c-0.4,0-0.7-0.1-0.8-0.2c0-1.6,0-3.2,0.1-4.7v-3.1c0-1.3-0.1-2.1-0.2-2.4l1.6,0.6h5.4c0.6-0.7,1-1,1.2-1
	c0.2,0,0.5,0.2,0.9,0.5c0.6,0.4,0.9,0.7,0.9,0.9s-0.1,0.3-0.3,0.4c-0.2,0.1-0.4,0.3-0.5,0.4V47c0,1.3-0.7,2.1-2.1,2.4
	c-0.3-0.1-0.4-0.2-0.4-0.4c-0.1-0.5-0.3-0.8-0.6-1c-0.3-0.3-0.8-0.5-1.4-0.7c0-0.1,0-0.2,0-0.4c0.8,0.1,1.4,0.2,2,0.2
	c0.5,0,0.7-0.1,0.7-0.4v-1.8h-5.2v3.8H53.4z M53.4,41.8h5.2V40h-5.2V41.8z M53.4,44.3h5.2v-2h-5.2V44.3z"/>
<path class="st0" d="M81.5,45.4c1,0.9,1.6,1.4,1.6,1.7c0,0.2-0.1,0.3-0.2,0.3H69.2c-2.5,0-4.1,0.1-4.7,0.2c-0.1-0.4-0.3-0.7-0.5-1.1
	c1,0.1,2.8,0.2,5.2,0.2h3.1V33.4h-2.6c-2.1,0-3.5,0.1-4,0.2c-0.1-0.4-0.3-0.7-0.5-1.1c0.8,0.1,2.3,0.2,4.4,0.2H78
	c0.7-0.9,1.2-1.4,1.5-1.6c0,0,0.1,0,0.2,0c0.2,0.1,0.4,0.2,0.5,0.4c1,0.8,1.4,1.3,1.4,1.6c0,0.2-0.1,0.3-0.2,0.3h-6.9v13.3h4.7
	c0.7-0.9,1.2-1.5,1.6-1.7c0.1,0,0.1,0,0.2,0C81.1,45.1,81.3,45.2,81.5,45.4z"/>
<path class="st0" d="M93.9,43.4L93.5,43c0.8-0.7,1.2-1.3,1.2-2c0-0.1-0.1-0.2-0.3-0.2c-1-0.2-1.5-0.7-1.5-1.5c0-0.4,0.1-0.7,0.4-1
	c0.3-0.3,0.7-0.5,1.2-0.5s0.9,0.2,1.2,0.6c0.2,0.3,0.4,0.7,0.4,1.1C96,41.1,95.3,42.4,93.9,43.4z"/>
<path class="st0" d="M112.8,31.2c0.2,0.2,0.3,0.3,0.5,0.4h8.5c0.6-0.8,1-1.3,1.2-1.5h0.1c0.2,0,0.5,0.3,0.9,0.7
	c0.6,0.5,0.9,0.9,0.9,1.1c0,0.2,0,0.3-0.1,0.4h-5c-0.5,1-1.1,1.9-1.8,2.6h3.5c0.5-0.7,0.9-1,1.1-1c0.2,0,0.6,0.2,1.1,0.6
	c0.5,0.4,0.8,0.7,0.8,0.8c0,0.1-0.1,0.3-0.3,0.4c-0.3,0.3-0.5,0.4-0.6,0.5V41c0.1,1.9,0.1,3.1,0.1,3.6s-0.4,0.7-1.1,0.7
	c-0.5,0-0.8-0.1-0.9-0.4v-0.6h-5.9v0.4c-0.1,0.5-0.5,0.7-1.2,0.7c-0.5,0-0.7-0.1-0.8-0.2c0-1.7,0-3.4,0.1-5.1v-3.4
	c0-1.4-0.1-2.3-0.2-2.6l2,0.8h1.5c0.2-0.8,0.4-1.7,0.5-2.6h-3.8c0.2,0.2,0.3,0.4,0.4,0.5c0,0.2-0.1,0.3-0.2,0.3h-2.9v13.7
	c0,1.2-0.8,1.8-2.4,2c-0.3,0-0.4-0.1-0.4-0.4c-0.1-0.3-0.2-0.5-0.3-0.7c-0.1-0.3-0.8-0.6-2.1-0.8v-0.3c0.8,0.1,1.7,0.1,2.6,0.1
	c0.4,0,0.6-0.1,0.6-0.2V33.2h-1c-0.9,0-1.6,0.1-2,0.2c-0.1-0.2-0.2-0.5-0.3-0.8c0.4,0.1,1.2,0.1,2.3,0.1h2.9c0.3-0.5,0.7-0.9,1-1.3
	c0.1-0.1,0.2-0.2,0.3-0.2C112.5,30.9,112.6,31,112.8,31.2z M118,45.9c0.6,0.4,0.9,0.7,0.9,0.8s-0.1,0.2-0.2,0.3
	c-0.6-0.1-1-0.1-1.1-0.1c-1.3,1.1-3.4,1.9-6.3,2.3c0-0.2,0-0.3-0.1-0.3c2.4-0.8,4.2-2.1,5.6-3.8C116.9,45.2,117.3,45.5,118,45.9z
	 M121.8,37.5v-2.2h-5.9v2.2H121.8z M121.8,40.4v-2.3h-5.9v2.3H121.8z M121.8,43.8V41h-5.9v2.8H121.8z M125,48c0,0.4-0.1,0.7-0.1,0.8
	c-0.1,0.4-0.4,0.5-0.9,0.5c-0.4,0-0.9-0.5-1.6-1.6c-0.9-1-1.9-1.7-2.9-2.2c0.1,0,0.1,0,0.1-0.2C123,45.9,124.9,46.8,125,48z"/>
<path class="st0" d="M144.3,31.2c0.9,0.8,1.3,1.2,1.3,1.4c0,0.2-0.1,0.3-0.2,0.3h-6.9c1,0.8,2,1.4,3.1,1.7c1.2,0.4,2.7,0.7,4.3,0.7
	c0,0.1,0,0.3,0,0.4c-0.1,0-0.3,0.1-0.5,0.3c-0.1,0.1-0.2,0.4-0.4,0.8c-0.1,0.3-0.2,0.4-0.4,0.4c-0.7,0-1.8-0.4-3.5-1.3
	c-1.4-0.7-2.4-1.7-3.2-3h-2.6c-2,2.2-4.8,3.8-8.4,4.9c0,0-0.1-0.1-0.1-0.2c2.8-1.4,4.8-3,6.2-4.7h-0.9c-2.4,0-3.9,0.1-4.5,0.3
	c-0.1-0.4-0.3-0.7-0.5-1.1c1,0.1,2.7,0.2,5.2,0.2h1.2c0.5-0.8,1-1.5,1.3-2.3c2,0.3,3,0.5,3,0.8c0,0.2-0.4,0.4-1.2,0.5
	c-0.2,0.3-0.4,0.7-0.7,0.9h6.4c0.6-0.8,1.1-1.3,1.4-1.4c0.1,0,0.1,0,0.2,0C144,31,144.2,31.1,144.3,31.2z M139.2,36.3
	c0.3,0.3,0.4,0.5,0.4,0.6c0,0.2-0.1,0.3-0.3,0.3h-2.6v2.3h0.6c1.4-1,2.5-2,3.3-3.1c1.5,0.7,2.2,1.1,2.2,1.4c0,0.1-0.1,0.1-0.3,0.1
	h-0.7c-0.6,0.6-1.2,1.1-1.8,1.6h2.6c0.6-0.7,1-1.2,1.3-1.3c0,0,0.1,0,0.2,0c0.1,0.1,0.3,0.2,0.5,0.3c0.8,0.7,1.2,1.1,1.2,1.3
	s-0.1,0.3-0.2,0.3h-6.3c-1.2,0.9-2.6,1.6-4.1,2.2h5.4c0.5-0.6,0.9-1,1.1-1s0.6,0.2,1.1,0.6c0.5,0.4,0.8,0.7,0.8,0.8
	c0,0.1-0.1,0.3-0.3,0.4c-0.3,0.2-0.5,0.4-0.6,0.5v2.9c0.1,1.1,0.1,1.8,0.1,2.2c0,0.4-0.4,0.7-1.1,0.7c-0.5,0-0.8-0.1-0.9-0.4v-0.6
	h-7.2v0.4c0,0.3-0.4,0.5-1.1,0.5c-0.6,0-0.9-0.1-0.9-0.2c0-0.3,0-1.2,0-2.5v-3.2c-1.4,0.4-3,0.7-4.6,0.9c0,0-0.1-0.1-0.1-0.2
	c3.8-1.2,6.9-2.6,9.4-4.1h-3.8c-2.4,0-3.9,0.1-4.5,0.3c-0.1-0.4-0.3-0.7-0.5-1.1c1,0.1,2.7,0.2,5.2,0.2h2.1v-2.3H133
	c-0.4,0-0.8,0-1.2,0.1c-0.2-0.3-0.4-0.7-0.5-1c0.4,0.2,0.8,0.3,1.3,0.3h2.1v-0.2c0-0.9,0-1.7-0.1-2.2c2,0.3,3,0.5,3,0.8
	c0,0.2-0.1,0.3-0.4,0.3c-0.4,0.2-0.6,0.3-0.6,0.4v0.9h0.4c0.5-0.7,0.9-1,1-1.1c0.1,0,0.1,0,0.1,0C138.3,35.4,138.7,35.7,139.2,36.3z
	 M140.8,44.8v-2h-7.2v2H140.8z M140.8,47.8v-2.4h-7.2v1.4c0,0.3,0,0.6,0,1H140.8z"/>
<path class="st0" d="M150.2,35.1h1c0-0.4,0-0.7,0-1.1v-1.8h-0.9c-0.9,0-1.6,0.1-2,0.2c-0.1-0.3-0.2-0.5-0.3-0.8
	c0.4,0.1,1.2,0.1,2.3,0.1h5c0.3-0.4,0.6-0.8,1-1.2c0.1-0.1,0.2-0.2,0.3-0.2c0.1,0,0.2,0.1,0.4,0.2c0.8,0.7,1.3,1.2,1.3,1.4
	c0,0.2-0.1,0.3-0.1,0.3h-3.3v2.9h0.4c0.5-0.5,0.8-0.8,1-0.8c0.1,0,0.5,0.2,1,0.5c0.4,0.3,0.7,0.6,0.7,0.7c0,0.1-0.1,0.2-0.2,0.3
	c-0.2,0.2-0.3,0.3-0.4,0.4v7c0,2.7,0.1,4.5,0.1,5.3c0,0.4-0.3,0.6-0.9,0.6c-0.5,0-0.7-0.1-0.7-0.3v-1h-5.3v0.7
	c-0.1,0.4-0.4,0.5-1,0.5c-0.4,0-0.6-0.1-0.7-0.2c0-2.3,0-4.5,0.1-6.7v-4.4c0-1.9-0.1-3-0.1-3.3L150.2,35.1z M155.7,44.1v-2.6h-1
	c-0.8,0-1.2-0.4-1.3-1.3v-4.6h-0.8c-0.2,3.6-1,5.9-2.3,6.9v1.6H155.7z M151.2,35.6h-0.8v6.3C150.8,40.6,151.1,38.5,151.2,35.6z
	 M155.7,47.3v-2.7h-5.3v2.7H155.7z M153.4,32.2h-0.7c0,0.4,0,0.9,0,1.6c0,0.5,0,0.9,0,1.3h0.8v-2.9H153.4z M154.8,39.6
	c0,0.4,0.2,0.6,0.7,0.6h0.2v-4.5h-0.9V39.6z M160.8,46.2c0,0.7,0.3,1,1,1c0.4,0.1,0.8,0.1,1.2,0.1s0.7,0,1-0.1c0.5,0,0.9-0.4,1-1.2
	c0.3-0.8,0.4-1.8,0.6-3h0.3c0,1.4,0,2.4,0.1,3.2c0,0.2,0.1,0.4,0.3,0.5c0.4,0.2,0.6,0.5,0.6,0.9c0,0.7-0.6,1.1-1.9,1.3
	c-0.6,0.1-1.3,0.1-1.9,0.1c-0.8,0-1.4,0-2-0.1c-1.4-0.1-2.2-0.9-2.2-2.4v-6.7c0-0.9-0.1-1.8-0.1-2.7l1.9,0.7h2.9v-6h-2.7
	c-0.9,0-1.5,0.1-2,0.2c-0.1-0.3-0.2-0.5-0.3-0.8c0.3,0.1,1.1,0.1,2.2,0.1h2.4c0.6-0.7,1-1,1.3-1c0.2,0,0.5,0.2,1,0.6
	c0.5,0.5,0.8,0.8,0.8,1c0,0.1-0.1,0.3-0.3,0.4c-0.1,0.1-0.4,0.2-0.6,0.4v4c0.1,0.9,0.1,1.7,0.1,2.4c0,0.4-0.5,0.6-1.4,0.7
	c-0.4,0-0.7-0.1-0.7-0.4v-1h-2.8v7.8H160.8z"/>
<path class="st0" d="M175.3,31.1c0,0.2-0.4,0.4-1,0.4c-0.5,1.5-1.1,2.9-1.7,4c0.7,0.2,1.1,0.4,1.1,0.5c0,0.1-0.1,0.2-0.4,0.3
	c-0.3,0.1-0.4,0.2-0.4,0.3v6.9c0,1.9,0.1,3.6,0.1,5.3c0,0.3-0.4,0.5-1.2,0.5c-0.5,0-0.7-0.1-0.7-0.3c0-1.8,0.1-3.6,0.1-5.4v-5.5
	c-0.8,1-1.6,1.9-2.4,2.6c-0.1-0.1-0.1-0.2-0.1-0.2c1.8-2.5,3.1-6,3.8-10.3C174.3,30.5,175.3,30.9,175.3,31.1z M186.4,32.2
	c0.8,0.7,1.2,1.1,1.2,1.3c0,0.2-0.1,0.3-0.2,0.3h-3.8v2.5h1.4c0.6-0.7,1-1.1,1.3-1.3h0.1c0.1,0.1,0.3,0.2,0.5,0.3
	c0.8,0.7,1.2,1.1,1.2,1.3s-0.1,0.3-0.2,0.3h-9.2c-0.2,0.6-0.5,1.2-0.7,1.7h6.5c0.6-0.6,0.9-0.9,1.1-0.9c0.1,0.1,0.4,0.2,0.8,0.5
	c0.5,0.4,0.8,0.7,0.8,0.8c0,0.1-0.1,0.3-0.3,0.4c-0.2,0.1-0.3,0.2-0.5,0.4V47c0,1.2-0.8,1.9-2.2,2.2c-0.2,0-0.3-0.2-0.3-0.4
	c-0.1-0.4-0.3-0.8-0.5-0.9c-0.2-0.2-0.6-0.4-1.1-0.6c0-0.1,0-0.2,0-0.3c0.7,0.1,1.2,0.1,1.6,0.1c0.4,0,0.7-0.1,0.7-0.4V45H182v0.7
	c0,0.8,0.1,1.8,0.1,3c0,0.3-0.4,0.4-1.1,0.5c-0.6,0-0.9-0.1-0.9-0.3c0-0.6,0.1-1.7,0.1-3.3v-0.5h-2.4c0,1.2,0,2.5,0.1,3.9
	c-0.1,0.3-0.5,0.5-1.2,0.5c-0.4,0-0.5-0.1-0.5-0.3c0-1.8,0-3.7,0-5.8v-1.8c-0.7,0.9-1.5,1.7-2.3,2.4l-0.5-0.1
	c1.6-2.1,2.7-4.4,3.3-6.8c-1.2,0-2,0.1-2.3,0.2c-0.1-0.4-0.3-0.7-0.5-1.1c0.7,0.1,1.9,0.2,3.5,0.2v-2.5c-1.2,0-2,0.1-2.4,0.3
	c-0.1-0.4-0.3-0.7-0.5-1.1c0.6,0.1,1.5,0.2,2.8,0.2v-0.8c0-0.9,0-1.6-0.1-2.1c1.8,0.3,2.8,0.5,2.8,0.7c0,0.2-0.1,0.3-0.3,0.3
	c-0.4,0.2-0.6,0.3-0.6,0.4v1.5h2.7v-0.9c0-0.9,0-1.6-0.1-2.1c1.8,0.3,2.8,0.5,2.8,0.7c0,0.2-0.1,0.3-0.3,0.3
	c-0.4,0.2-0.6,0.3-0.6,0.4v1.6h0.9c0.6-0.7,1-1.2,1.3-1.3c0,0,0.1,0,0.2,0C186,31.9,186.2,32,186.4,32.2z M180.3,41.4v-2.2h-2.4v2.2
	H180.3z M180.3,44.4V42h-2.4v2.4H180.3z M179.2,36.2h2.7v-2.5h-2.7V36.2z M182.1,41.4h2.6v-2.2h-2.6V41.4z M182.1,44.4h2.6V42h-2.6
	V44.4z"/>
</svg>
