<svg width="228" height="231" viewBox="0 0 228 231" fill="none" xmlns="http://www.w3.org/2000/svg">
<path d="M50.6 5.06006V6.19006H40.6699V5.06006H50.6Z" fill="white"/>
<path d="M56.53 5.34015H53.19V11.5302H52.16V0.890137H56.53V5.34015ZM55.5 2.62015V1.83014H53.19V2.62015H55.5ZM55.5 4.41013V3.52014H53.19V4.41013H55.5ZM59.33 5.91013V10.4601H54.66V5.91013H59.33ZM58.3 7.68015V6.84015H55.67V7.68015H58.3ZM58.3 8.57013H55.67V9.52014H58.3V8.57013ZM61.86 0.890137V10.3501C61.86 10.7701 61.75 11.0801 61.53 11.2901C61.34 11.4701 61.02 11.5701 60.57 11.5701H59.73L59.5 10.4501L60.36 10.5002C60.65 10.4902 60.79 10.3201 60.8 9.98013V5.34015H57.37V0.890137H61.86ZM60.8 2.67014V1.83014H58.44V2.67014H60.8ZM60.8 3.52014H58.44V4.41013H60.8V3.52014Z" fill="white"/>
<path d="M73.49 1.9299H65.2V5.5799C65.2 6.47989 65.13 7.4099 64.99 8.3999C64.81 9.4199 64.52 10.4099 64.14 11.3999L63.16 10.5099C63.52 9.71989 63.79 8.8999 63.92 8.0499C64.03 7.1599 64.09 6.3499 64.09 5.5799V0.899902H73.48V1.9299H73.49ZM67.35 3.08989V2.1499H68.38V3.08989H70.56V2.1499H71.59V3.08989H73.11V4.03989H71.59V4.9299H73.5V5.8699H65.58V4.9299H67.36V4.03989H65.89V3.08989H67.36H67.35ZM72.65 11.4899H71.62V10.9699H67.44V11.4399H66.41V6.55991H72.64V11.4899H72.65ZM71.62 8.34988V7.50989H67.44V8.34988H71.62ZM71.62 10.0399V9.18991H67.44V10.0399H71.62ZM70.55 4.9299V4.03989H68.37V4.9299H70.55Z" fill="white"/>
<path d="M80.2299 7.29996C80.0499 7.54996 79.75 7.79995 79.33 8.06995L78.97 7.47995C79.51 7.19995 79.81 6.83994 79.9 6.40994H79.1699V4.95996H80.5599V6.14996C80.5599 6.61996 80.4499 6.99996 80.2299 7.29996Z" fill="white"/>
<path d="M96.2 1.22021V2.30022H92.72C92.49 2.82022 92.24 3.30022 91.97 3.74022V11.5402H90.8099V5.32021C90.7199 5.42021 90.6399 5.5102 90.5599 5.6002C89.5999 6.6802 88.3599 7.66022 86.8599 8.55022L86.1899 7.6002C87.5899 6.7802 88.77 5.89022 89.71 4.93022C90.35 4.31022 90.95 3.44022 91.52 2.32022H86.3199V1.24022H96.2V1.22021ZM96.2 7.55022L95.3599 8.44023C94.6999 7.48023 93.7599 6.43022 92.5599 5.30022L93.3599 4.51021C94.4899 5.54021 95.43 6.55023 96.21 7.56023L96.2 7.55022Z" fill="white"/>
<path d="M101.55 7.58994C100.66 9.00994 99.54 10.2599 98.21 11.3899L97.45 10.3599C98.68 9.41992 99.7799 8.24991 100.76 6.84991L101.56 7.58994H101.55ZM106.9 1.16992V6.32993H98.7V1.16992H106.9ZM105.74 2.24992H99.8599V5.24994H105.74V2.24992ZM107.84 10.7299L106.77 11.4899C106.04 10.3399 105.05 9.02994 103.78 7.55994L104.67 6.94992C106.02 8.42992 107.08 9.67993 107.84 10.7399V10.7299Z" fill="white"/>
<path d="M119.23 5.80981V6.83981H114.77V7.96982H118.65V8.9498H114.77V10.1898C115.33 10.2398 115.98 10.2598 116.73 10.2598C117.78 10.2598 118.67 10.2398 119.4 10.1598L119.09 11.3398C115.61 11.3398 113.54 11.2098 112.87 10.9398C112.2 10.6998 111.63 10.2198 111.15 9.49982C110.83 10.1498 110.3 10.8298 109.57 11.5598L108.77 10.5398C109.37 10.0098 109.83 9.47982 110.13 8.96982C110.43 8.48982 110.68 7.83982 110.86 7.02982L111.98 7.20981C111.84 7.73981 111.71 8.17979 111.58 8.53979C112.04 9.23979 112.61 9.68979 113.27 9.90979C113.4 9.95979 113.54 10.0098 113.71 10.0298V6.83981H108.85V5.80981H119.23ZM118.16 0.799805V5.14981H110.01V0.799805H118.16ZM117.04 2.53981V1.7798H111.12V2.53981H117.04ZM117.04 3.37979H111.12V4.1698H117.04V3.37979Z" fill="white"/>
<path d="M130.4 5.06006V6.19006H120.47V5.06006H130.4Z" fill="white"/>
<path d="M136.33 0.610092V2.4001C136.33 3.0701 136.22 3.62009 136 4.05009C135.83 4.42009 135.53 4.7901 135.1 5.1501H136.28V4.45009H137.31V5.1501H141.58V5.95009H137.31V6.47011H141.14V9.42009H137.31V9.94011H142.03V10.7801H137.31V11.5401H136.28V10.7801H131.78V9.94011H136.28V9.42009H132.71V6.47011H136.28V5.95009H132.18V5.1501H134.55L133.97 4.63008C134.25 4.46008 134.49 4.29008 134.68 4.13008C133.93 4.25008 133.02 4.33008 131.92 4.41008L131.69 3.61009C133.19 3.61009 134.37 3.53009 135.22 3.33009C135.25 3.23009 135.28 3.1301 135.3 3.0101H132.22V2.30009H135.34V1.8801H131.95V1.1201H135.34V0.600098H136.32L136.33 0.610092ZM136.28 7.69011V7.17009H133.74V7.69011H136.28ZM136.28 8.25011H133.74V8.72011H136.28V8.25011ZM137.31 7.69011H140.11V7.17009H137.31V7.69011ZM140.11 8.25011H137.31V8.72011H140.11V8.25011ZM138.59 0.610092V1.17009H141.79V1.9301H138.59V2.4001H141.7V3.14009H138.59V3.66008H142.02V4.42009H138.59V4.8401H137.56V0.620102H138.59V0.610092Z" fill="white"/>
<path d="M152.26 1.06982V2.04982C151.63 2.74982 150.55 3.62982 149.01 4.70982V5.52983H153.33V6.64983H149.01V10.3598C149.01 10.6998 148.93 10.9598 148.78 11.1498C148.57 11.3698 148.3 11.4898 147.98 11.4898H145.85L145.76 10.2698C146.47 10.3398 147.05 10.3698 147.49 10.3698C147.7 10.3698 147.8 10.2498 147.8 9.99983V6.66982H143.17V5.54982H147.8V4.08983C148.92 3.47983 149.9 2.83982 150.74 2.16982H144.29V1.08981H152.26V1.06982Z" fill="white"/>
<path d="M157.83 0.700012C157.69 1.32001 157.5 1.91002 157.26 2.44002H158.9V4.95001C159.23 4.37001 159.49 3.80002 159.67 3.22002C159.9 2.55002 160.08 1.65002 160.23 0.52002L161.35 0.700012C161.25 1.35001 161.14 1.91001 161.04 2.39001H164.55C164.55 6.61001 164.48 9.11003 164.37 9.87003C164.26 10.47 164.06 10.88 163.79 11.07C163.47 11.31 162.88 11.43 162.02 11.43C161.77 11.43 161.48 11.41 161.17 11.38L161 10.2C161.33 10.27 161.67 10.3 162.03 10.3C162.75 10.3 163.15 10.05 163.24 9.54001C163.38 8.92001 163.47 6.89002 163.49 3.46002H160.78C160.75 3.54002 160.72 3.62 160.71 3.66C160.46 4.52 160.04 5.45 159.44 6.41L158.9 5.71002V10.62H157.92V10.06H155.83V10.96H154.85V2.43002H156.26C156.5 1.85002 156.68 1.22002 156.81 0.550018L157.82 0.690018L157.83 0.700012ZM157.92 5.76001V3.42001H155.83V5.76001H157.92ZM157.92 9.08002V6.69003H155.83V9.08002H157.92ZM162.64 7.92001L161.57 8.66C161.25 7.8 160.81 6.79 160.24 5.66L161.13 5.05002C161.77 6.17002 162.28 7.12001 162.65 7.92001H162.64Z" fill="white"/>
<path d="M169.01 1.03981C168.75 1.93981 168.49 2.70979 168.21 3.34979V11.4298H167.18V5.26981C166.87 5.74981 166.54 6.2298 166.2 6.6998L165.84 5.3898C166.3 4.7298 166.71 4.04979 167.05 3.34979C167.4 2.72979 167.75 1.79981 168.08 0.599808L169.01 1.0298V1.03981ZM175.95 4.5498L172.25 4.95981C172.32 5.71981 172.4 6.29981 172.49 6.70981C172.76 7.80981 173.12 8.6498 173.56 9.2298C174.04 9.8898 174.45 10.2098 174.8 10.2098C174.89 10.2098 174.96 10.1598 174.99 10.0498C175.07 9.9298 175.15 9.2898 175.24 8.1398L176.35 8.7998C176.19 9.9298 176 10.6698 175.79 11.0298C175.58 11.3198 175.29 11.4698 174.88 11.4698C174.26 11.4698 173.6 11.0398 172.9 10.1898C172.28 9.44982 171.79 8.37981 171.44 6.98981C171.31 6.50981 171.21 5.86979 171.13 5.06979L168.69 5.3298L168.57 4.24982L171.03 3.98981C170.96 3.01981 170.9 1.8698 170.88 0.549805H172C172.03 1.8398 172.09 2.95981 172.16 3.86981L175.82 3.45981L175.96 4.53979L175.95 4.5498ZM175.24 2.56981L174.26 3.2798C173.93 2.7598 173.49 2.17981 172.93 1.50981L173.73 0.989807C174.37 1.60981 174.88 2.13981 175.25 2.56981H175.24Z" fill="white"/>
<path d="M179.81 1.88002H181.39V2.86002H177.16V1.88002H178.76C178.62 1.45002 178.48 1.04002 178.32 0.660019L179.39 0.530014C179.54 0.940014 179.68 1.38001 179.81 1.89001V1.88002ZM180.95 10.63H178.55V11.48H177.52V7.16H180.95V10.63ZM180.9 3.65002V4.59003H177.56V3.65002H180.9ZM180.9 5.39001V6.33002H177.56V5.39001H180.9ZM179.92 9.65002V8.15002H178.54V9.65002H179.92ZM182.72 7.41C182.57 8.61 182.39 9.70002 182.18 10.68L181.15 10.31C181.36 9.48003 181.53 8.41003 181.69 7.12003L182.72 7.41ZM183.92 1.88002V0.52002H184.99V1.88002H187.53V2.91002H184.99V4.46002H187.3V5.44003H181.74V4.46002H183.92V2.91002H181.65V1.88002H183.92ZM183.92 7.07001V10.03C183.92 10.25 184.03 10.35 184.28 10.35H184.68C184.85 10.35 184.98 10.3 185.07 10.19C185.16 10.09 185.22 9.61003 185.26 8.75003L186.19 9.04001C186.1 10.14 185.95 10.79 185.76 10.98C185.58 11.17 185.27 11.28 184.81 11.28H183.91C183.61 11.28 183.37 11.2 183.2 11.03C183.02 10.84 182.93 10.59 182.93 10.3V7.06003H183.91L183.92 7.07001ZM185.31 7.17001L184.41 7.59003C184.16 6.93003 183.87 6.34001 183.57 5.82001L184.46 5.54001C184.78 6.04001 185.06 6.60001 185.32 7.17001H185.31ZM187.62 10.07L186.69 10.5C186.44 9.30003 186.18 8.25003 185.88 7.31003L186.81 6.99002C187.12 7.95002 187.39 8.98001 187.62 10.07Z" fill="white"/>
<path d="M11.01 32.4702V33.5502H6.45001C6.31001 34.0502 6.14 34.5502 5.94 35.0002H10.31V41.4602C10.31 41.8402 10.21 42.1402 10.01 42.3602C9.83001 42.5402 9.59003 42.6402 9.28003 42.6402H8.13L7.90002 41.5102L8.83002 41.6102C9.06002 41.5902 9.17999 41.4302 9.17999 41.1402V36.0802H7.63V42.3502H6.51001V36.0802H5.04004V42.3502H3.91998V36.0802H2.5V42.7402H1.39001V35.0002H4.67999C4.90999 34.5302 5.08003 34.0502 5.22003 33.5502H0.5V32.4702H11H11.01Z" fill="white"/>
<path d="M22.1001 32.4199V33.4999H18.6201C18.3901 34.0199 18.1401 34.4999 17.8701 34.9399V42.7399H16.7101V36.5199C16.6201 36.6199 16.5401 36.7099 16.4601 36.7999C15.5001 37.8799 14.2601 38.8599 12.7601 39.7499L12.0901 38.7999C13.4901 37.9799 14.67 37.0799 15.61 36.1299C16.25 35.5099 16.85 34.6399 17.42 33.5199H12.2201V32.4399H22.1001V32.4199ZM22.1001 38.7499L21.2601 39.6399C20.6001 38.6799 19.6601 37.6199 18.4601 36.4999L19.2601 35.7099C20.3901 36.7399 21.33 37.7499 22.11 38.7599L22.1001 38.7499Z" fill="white"/>
<path d="M27.4501 38.7901C26.5601 40.2001 25.44 41.4601 24.11 42.5901L23.3501 41.5601C24.5801 40.6201 25.6801 39.4501 26.6601 38.0501L27.4601 38.7901H27.4501ZM32.8 32.3701V37.5301H24.6001V32.3701H32.8ZM31.6401 33.4501H25.7601V36.4501H31.6401V33.4501ZM33.7401 41.9301L32.67 42.6901C31.94 41.5401 30.9501 40.2301 29.6801 38.7601L30.5701 38.1501C31.9201 39.6301 32.9801 40.8801 33.7401 41.9401V41.9301Z" fill="white"/>
<path d="M45.1299 37.01V38.04H40.6699V39.17H44.5499V40.15H40.6699V41.39C41.2299 41.44 41.8799 41.46 42.6299 41.46C43.6799 41.46 44.5699 41.44 45.2999 41.36L44.9899 42.54C41.5099 42.54 39.44 42.41 38.77 42.14C38.1 41.9 37.5299 41.42 37.0499 40.7C36.7299 41.35 36.19 42.03 35.47 42.76L34.6699 41.74C35.2699 41.21 35.73 40.68 36.03 40.17C36.33 39.69 36.5799 39.04 36.7599 38.23L37.8799 38.41C37.7399 38.94 37.6099 39.38 37.4799 39.74C37.9399 40.44 38.5099 40.89 39.1699 41.11C39.2999 41.16 39.4399 41.21 39.6099 41.23V38.04H34.7499V37.01H45.1299ZM44.0599 32V36.35H35.91V32H44.0599ZM42.9399 33.74V32.98H37.02V33.74H42.9399ZM42.9399 34.58H37.02V35.37H42.9399V34.58Z" fill="white"/>
<path d="M56.3 36.2598V37.3898H46.37V36.2598H56.3Z" fill="white"/>
<path d="M62.23 31.8101V33.6C62.23 34.27 62.1201 34.82 61.9001 35.26C61.7301 35.63 61.4301 36 61.0001 36.36H62.1901V35.66H63.2201V36.36H67.4901V37.16H63.2201V37.6801H67.05V40.63H63.2201V41.1501H67.9401V41.9901H63.2201V42.7501H62.1901V41.9901H57.6901V41.1501H62.1901V40.63H58.6201V37.6801H62.1901V37.16H58.0901V36.36H60.4601L59.8801 35.8401C60.1601 35.6701 60.4001 35.5001 60.5901 35.3401C59.8401 35.4601 58.9301 35.5401 57.8301 35.6201L57.6001 34.82C59.1001 34.82 60.2801 34.74 61.1301 34.54C61.1601 34.44 61.1901 34.3401 61.2101 34.2201H58.1301V33.51H61.2501V33.0901H57.86V32.33H61.2501V31.8101H62.23ZM62.1801 38.89V38.3701H59.6401V38.89H62.1801ZM62.1801 39.45H59.6401V39.92H62.1801V39.45ZM63.2101 38.89H66.0101V38.3701H63.2101V38.89ZM66.0101 39.45H63.2101V39.92H66.0101V39.45ZM64.4901 31.8101V32.3701H67.6901V33.13H64.4901V33.6H67.6001V34.3401H64.4901V34.86H67.92V35.6201H64.4901V36.04H63.4601V31.82H64.4901V31.8101Z" fill="white"/>
<path d="M78.1601 32.27V33.25C77.5301 33.95 76.4501 34.83 74.9101 35.91V36.73H79.23V37.85H74.9101V41.56C74.9101 41.9 74.8301 42.16 74.6801 42.35C74.4701 42.57 74.2001 42.69 73.8801 42.69H71.7501L71.6601 41.47C72.3701 41.54 72.9501 41.57 73.3901 41.57C73.6001 41.57 73.7001 41.45 73.7001 41.2V37.87H69.0701V36.75H73.7001V35.29C74.8201 34.68 75.8001 34.04 76.6401 33.37H70.1901V32.29H78.1601V32.27Z" fill="white"/>
<path d="M85.9299 38.5002C85.7499 38.7502 85.45 39.0002 85.03 39.2702L84.6699 38.6802C85.2099 38.4002 85.51 38.0402 85.6 37.6102H84.8699V36.1602H86.2599V37.3502C86.2599 37.8202 86.1499 38.2002 85.9299 38.5002Z" fill="white"/>
<path d="M101.19 32.3198V33.2198C100.64 35.5698 99.67 37.5698 98.31 39.1998C98.24 39.2798 98.17 39.3598 98.12 39.3998C99.18 40.2298 100.54 40.9498 102.18 41.5498L101.46 42.6798C99.68 41.9098 98.26 41.1098 97.21 40.2198C96.04 41.1398 94.47 41.9398 92.51 42.6298L91.79 41.4498C93.64 40.8498 95.13 40.1398 96.27 39.3198C94.94 37.9298 93.86 36.2898 93.04 34.3798L94.07 33.7698C94.87 35.7698 95.91 37.3798 97.18 38.5798C97.39 38.3898 97.57 38.1998 97.74 37.9898C98.73 36.7698 99.45 35.2298 99.91 33.3998H92.73V32.3198H101.2H101.19Z" fill="white"/>
<path d="M109.26 32.5102H113.48V33.4002H104.84V35.9502C105.61 35.2502 106.18 34.4302 106.53 33.4902L107.51 33.8102C107.29 34.3602 107.05 34.8402 106.8 35.2202V36.1102C107.62 35.3202 108.24 34.4402 108.67 33.4802L109.6 33.6702C109.45 33.9702 109.32 34.2502 109.18 34.5102H110.7C110.56 34.2002 110.4 33.9002 110.23 33.6202L111.21 33.4802C111.36 33.7902 111.51 34.1302 111.64 34.5102H113.25V35.3002H111.43V35.8202H113.16V36.4802H111.43V37.0402H113.16V37.7002H111.43V38.3002H113.39V39.1502H109.41C109.9 39.5602 110.29 39.9202 110.58 40.2302L109.74 40.8302C109.44 40.4502 109.06 40.0102 108.58 39.5202L109.15 39.1502H107.87V36.5002C107.69 36.7302 107.51 36.9202 107.33 37.0902L106.79 36.4102V39.2402H105.81V36.4802C105.56 36.7602 105.27 37.0302 104.97 37.3202L104.83 36.6702C104.81 37.5302 104.75 38.4202 104.65 39.3602C104.51 40.4402 104.27 41.4902 103.94 42.5302L103.05 41.6902C103.35 40.8502 103.55 39.9602 103.67 39.0402C103.76 38.0902 103.81 37.2002 103.81 36.3902V32.5002H108.12C108.01 32.2702 107.87 32.0602 107.73 31.8402L108.88 31.6602C109.02 31.9102 109.14 32.1902 109.26 32.5002V32.5102ZM106.89 40.0102C106.53 40.9202 106.11 41.6902 105.64 42.3502L104.75 41.7002C105.22 41.1002 105.65 40.3902 106.04 39.5902L106.89 40.0102ZM108.27 39.5402V41.1802C108.27 41.4302 108.38 41.5502 108.62 41.5502H109.91C110.14 41.5502 110.3 41.5302 110.41 41.4702C110.54 41.4102 110.63 41.1202 110.67 40.6202L111.6 40.9002C111.49 41.7002 111.33 42.1702 111.11 42.3202C110.9 42.4602 110.55 42.5502 110.04 42.5502H108.26C107.95 42.5502 107.71 42.4502 107.54 42.2702C107.36 42.0802 107.28 41.8302 107.28 41.5102V39.5402H108.26H108.27ZM110.45 35.3202H108.81V35.8402H110.45V35.3202ZM110.45 36.5002H108.81V37.0602H110.45V36.5002ZM110.45 37.7202H108.81V38.3202H110.45V37.7202ZM113.65 41.6102L112.72 42.2602C112.36 41.5902 111.87 40.8302 111.25 39.9702L112.01 39.4502C112.71 40.2902 113.25 41.0102 113.65 41.6102Z" fill="white"/>
<path d="M117.11 33.08H118.69V34.06H114.46V33.08H116.06C115.92 32.65 115.78 32.24 115.62 31.86L116.69 31.73C116.84 32.14 116.98 32.58 117.11 33.09V33.08ZM118.25 41.84H115.85V42.69H114.82V38.37H118.25V41.84ZM118.2 34.86V35.8H114.86V34.86H118.2ZM118.2 36.6V37.54H114.86V36.6H118.2ZM117.22 40.86V39.36H115.84V40.86H117.22ZM124.83 36.97C124.12 38.21 123.47 39.16 122.88 39.86C123.61 40.44 124.29 41.07 124.92 41.79L124.29 42.82C123.58 41.91 122.88 41.18 122.15 40.6C121.4 41.28 120.45 41.9 119.3 42.45L118.68 41.56C120.12 40.89 121.21 40.13 121.97 39.29C122.59 38.67 123.24 37.68 123.93 36.35L124.82 36.96L124.83 36.97ZM122.42 32.89H124.87V33.92H121.94C121.69 34.59 121.32 35.29 120.82 36.02C121.32 36.01 121.79 36 122.22 36C122.48 35.59 122.72 35.16 122.95 34.68L123.93 35.05C123.25 36.29 122.65 37.17 122.15 37.72C121.66 38.32 120.82 39.04 119.61 39.87L118.77 39.08C119.85 38.41 120.72 37.74 121.38 37.08C121.43 37.03 121.47 36.98 121.52 36.92C120.81 36.98 119.92 37.03 118.85 37.06L118.72 36.03H119.6C120.1 35.38 120.51 34.67 120.83 33.92H118.8V32.89H121.32C121.16 32.53 120.99 32.18 120.81 31.86L121.93 31.73C122.1 32.08 122.26 32.46 122.42 32.89Z" fill="white"/>
<path d="M127.99 39.3002C127.74 40.5202 127.4 41.5702 126.96 42.4402L125.98 41.7802C126.42 40.9402 126.73 40.0402 126.91 39.0702L127.98 39.3002H127.99ZM129.55 31.9002C129.37 32.2802 129.2 32.6402 129.03 32.9802H136.1V34.0102H129.47V34.8002H135.52V35.7802H129.47V36.6802H135.52V37.6602H129.47V38.5502H128.4V34.1102C127.91 34.9302 127.41 35.5902 126.9 36.1102L126.18 35.1702C127.22 34.1102 128 32.9502 128.54 31.6602L129.57 31.8902L129.55 31.9002ZM129.46 38.9802V41.2702C129.46 41.5302 129.58 41.6502 129.86 41.6502H133.06C133.23 41.6502 133.36 41.6002 133.45 41.5202C133.54 41.4502 133.61 41.0602 133.64 40.3802L134.67 40.7202C134.58 41.6602 134.42 42.2102 134.21 42.3802C134.03 42.5502 133.69 42.6402 133.2 42.6402H129.46C129.13 42.6402 128.87 42.5402 128.68 42.3602C128.47 42.1702 128.38 41.9202 128.38 41.6002V38.9702H129.45L129.46 38.9802ZM132.75 40.2002L131.77 40.6702C131.39 39.9502 130.98 39.3002 130.53 38.7502L131.51 38.4102C131.99 38.9602 132.4 39.5602 132.75 40.2002ZM136.44 41.3602L135.43 41.8302C134.96 40.8002 134.46 39.8702 133.91 39.0702L134.94 38.7502C135.51 39.5702 136.01 40.4402 136.44 41.3602Z" fill="white"/>
<path d="M143.41 32.5601H147.64V33.4501H145.82V34.1601H147.46V35.0001H145.82V38.1401H144.93V35.0001H143.54V34.1601H144.93V33.4501H141.85V34.1601H143.09V35.0001H141.85V38.1401H140.92V35.0001H139.5V34.1601H140.92V33.4501H139.1V35.9801C139.1 37.0101 139.03 38.0901 138.89 39.2301C138.73 40.4101 138.46 41.5601 138.07 42.6801L137.18 41.8301C137.53 40.9101 137.77 39.9301 137.91 38.9001C138.01 37.8401 138.07 36.8701 138.07 35.9701V32.5501H142.32C142.21 32.2601 142.08 32.0001 141.94 31.7501L143.05 31.6201C143.18 31.9101 143.3 32.2201 143.41 32.5601ZM140.52 35.5101C140.5 36.1901 140.46 36.6601 140.42 36.9001C140.35 37.3001 140.2 37.6801 139.99 38.0401L139.32 37.5201C139.49 37.2701 139.6 37.0201 139.66 36.7601C139.71 36.5001 139.74 36.0801 139.76 35.5001H140.52V35.5101ZM143.46 38.0901C143 38.5601 142.5 38.9701 141.97 39.3301C142.73 39.3201 143.49 39.2901 144.24 39.2501C144.58 38.9601 144.92 38.6601 145.29 38.3301L146.22 38.9901C145.09 39.9301 144.13 40.6001 143.36 41.0201C143.06 41.1901 142.74 41.3401 142.38 41.4901C143.61 41.4201 144.74 41.3101 145.77 41.1501C145.63 40.9301 145.49 40.7201 145.34 40.4901L146.09 40.0201C146.73 40.8401 147.24 41.5401 147.61 42.1301L146.72 42.7801C146.58 42.5001 146.42 42.2201 146.24 41.9201C144.83 42.1801 142.56 42.4201 139.46 42.6501L139.32 41.6201C139.59 41.6101 139.87 41.6001 140.14 41.6001C141.13 41.2501 141.94 40.8801 142.56 40.5001C142.75 40.3801 142.96 40.2501 143.16 40.1001C142.12 40.1701 140.99 40.2401 139.76 40.3001L139.59 39.4101C139.99 39.4101 140.39 39.4001 140.79 39.3701C141.42 38.8801 141.96 38.3301 142.44 37.7301L143.47 38.1001L143.46 38.0901ZM143.1 35.5101V37.5701H142.3V35.5101H143.1ZM144.52 35.3201C144.5 36.0501 144.47 36.5401 144.44 36.8001C144.38 37.2101 144.26 37.6201 144.08 38.0001L143.42 37.4801C143.56 37.2201 143.65 36.9401 143.69 36.6801C143.72 36.3901 143.75 35.9501 143.77 35.3201H144.52ZM147.02 35.3701V36.8701C147.02 37.0601 147.12 37.1601 147.33 37.1601H147.69V37.9001H147.15C146.85 37.9001 146.63 37.8501 146.47 37.7301C146.3 37.6101 146.22 37.4201 146.22 37.1501V35.3601H147.02V35.3701Z" fill="white"/>
<path d="M150.35 34.0102V31.7202H151.38V34.0102H152.54V34.9902H151.38V35.6502C151.78 36.1802 152.18 36.7302 152.58 37.3302L152.01 38.2302C151.77 37.7502 151.57 37.3302 151.38 36.9702V42.7302H150.35V37.0902C150.01 38.0702 149.59 38.9402 149.11 39.6802L148.71 38.5002C149.36 37.4902 149.9 36.3202 150.33 34.9902H148.84V34.0102H150.36H150.35ZM155.02 39.4402V40.1002C154.72 40.6802 154.39 41.1102 154.05 41.4202C153.57 41.8202 152.99 42.1502 152.31 42.4402L151.73 41.6502C152.5 41.3402 153.06 41.0502 153.39 40.7902C153.6 40.6502 153.75 40.4702 153.89 40.2502H152.17V39.4502H155.02V39.4402ZM155.04 32.9302H156.49C156.71 32.5702 156.9 32.1602 157.07 31.7202L158.05 32.0402C157.89 32.3802 157.73 32.6602 157.56 32.9302H159.03V33.7702H156.23V34.2502H158.76V35.0402H156.23V35.6002H159.13V36.4402H152.36V35.6002H155.21V35.0402H152.81V34.2502H155.21V33.7702H152.5V32.9302H154C153.82 32.6902 153.59 32.4302 153.34 32.1402L154.27 31.7602C154.56 32.1002 154.82 32.4902 155.05 32.9402L155.04 32.9302ZM156.49 37.9402V38.6702C156.63 38.9502 156.76 39.2002 156.92 39.4302C157.38 39.0802 157.81 38.5502 158.23 37.8502L158.98 38.6502C158.54 39.3202 158.05 39.8402 157.5 40.2102C157.91 40.6802 158.51 41.1502 159.29 41.6002L158.58 42.4402C157.92 41.9602 157.38 41.5002 156.98 41.0602C156.8 40.8702 156.64 40.6502 156.48 40.4202V41.5502C156.48 41.9002 156.4 42.1702 156.24 42.3802C156.08 42.5702 155.82 42.6802 155.45 42.6802H154.12L153.9 41.6502L155.14 41.7002C155.35 41.7002 155.45 41.5802 155.45 41.3602V38.8802H152.65V37.9402H156.48H156.49ZM157.82 37.1502L157.51 38.0402C156.23 37.7502 154.89 37.5202 153.5 37.3802L153.86 36.5902C155.13 36.7102 156.45 36.9002 157.81 37.1502H157.82Z" fill="white"/>
<path d="M163.08 34.6302V35.4202C162.72 36.0802 162.25 36.7602 161.68 37.4802H163.04V38.1902C162.88 38.9302 162.71 39.5202 162.55 39.9502C162.97 40.5002 163.31 40.8502 163.59 40.9802C163.83 41.1502 164.19 41.2702 164.67 41.3402C165.22 41.4402 166.3 41.5002 167.92 41.5102C169.11 41.5102 169.98 41.4902 170.58 41.4102L170.44 42.5402C167.31 42.5402 165.39 42.4902 164.7 42.4002C164.07 42.3002 163.57 42.1502 163.21 41.9402C162.89 41.7702 162.53 41.4402 162.12 40.8802C161.8 41.4402 161.39 42.0302 160.88 42.6802L160.13 41.8302C160.71 41.2102 161.12 40.6702 161.36 40.1902C161.55 39.9102 161.77 39.3402 162.02 38.4602H160.44V37.5702C160.9 37.0702 161.39 36.3902 161.9 35.5502H160.21V34.6202H163.1L163.08 34.6302ZM162.77 33.5002L162.02 34.2902C161.72 33.7502 161.3 33.1602 160.77 32.5202L161.49 31.8102C161.99 32.3902 162.42 32.9502 162.78 33.5002H162.77ZM169.8 32.5602C169.03 32.7602 168.14 32.9202 167.13 33.0202V33.8202H170.1V34.7202H168.07C168.29 34.9402 168.53 35.1402 168.79 35.3302C169.18 35.6102 169.71 35.9102 170.42 36.2202L169.75 37.1102C169 36.6802 168.39 36.2302 167.94 35.7802C167.62 35.4902 167.36 35.1702 167.13 34.8102V36.4102H166.15V34.7302H166.07C165.86 35.0902 165.65 35.3702 165.44 35.5802C165.01 36.0802 164.31 36.6102 163.34 37.1602L162.8 36.2202C163.5 35.9102 164.04 35.5802 164.44 35.2702C164.66 35.1102 164.86 34.9302 165.04 34.7202H163.33V33.8202H166.13V33.1002C165.34 33.1502 164.5 33.1702 163.59 33.1702L163.33 32.2702C165.69 32.2702 167.7 32.0902 169.34 31.7202L169.78 32.5602H169.8ZM169 36.8202C168.93 37.2302 168.84 37.6402 168.73 38.0402H169.85C169.76 39.1702 169.67 39.9002 169.58 40.2502C169.51 40.5102 169.41 40.6902 169.27 40.7902C169.07 40.9602 168.75 41.0402 168.34 41.0402H166.96L166.65 39.9602C167.19 40.0302 167.66 40.0602 168.07 40.0602C168.29 40.0602 168.43 40.0402 168.51 39.9602C168.58 39.9102 168.64 39.7902 168.69 39.6002C168.74 39.4402 168.77 39.2202 168.81 38.9302H167.43C167.57 38.5202 167.68 38.1402 167.77 37.7502H166.16C166.05 38.4502 165.89 39.0002 165.67 39.4302C165.29 40.1502 164.71 40.6802 163.91 40.9902L163.45 39.9602C163.97 39.7802 164.38 39.4602 164.68 39.0002C164.87 38.7402 165.01 38.3202 165.09 37.7502H164.17V36.8102H168.98L169 36.8202Z" fill="white"/>
<path d="M174.48 34.6298V35.4198C174.12 36.0798 173.65 36.7598 173.08 37.4798H174.48V38.1398C174.31 38.9198 174.14 39.5298 173.96 39.9598C174.37 40.5098 174.71 40.8498 174.99 40.9798C175.23 41.1498 175.59 41.2698 176.07 41.3398C176.62 41.4398 177.7 41.4998 179.32 41.5098C180.51 41.5098 181.38 41.4898 181.98 41.4098L181.84 42.5398C178.71 42.5398 176.79 42.4898 176.1 42.3998C175.47 42.2998 174.97 42.1498 174.61 41.9398C174.29 41.7698 173.93 41.4398 173.53 40.8998C173.2 41.4798 172.77 42.0898 172.23 42.7398L171.43 41.8398C172.02 41.2198 172.44 40.6798 172.7 40.1998C172.89 39.9098 173.12 39.3198 173.38 38.4198H171.83V37.5298C172.29 37.0398 172.78 36.3798 173.28 35.5598H171.56V34.6298H174.5H174.48ZM174.17 33.4998L173.42 34.2898C173.09 33.7398 172.62 33.1298 172.03 32.4698L172.75 31.7598C173.31 32.3498 173.79 32.9198 174.17 33.4998ZM180.99 35.6598H181.48V40.0598C181.48 40.4198 181.38 40.6998 181.2 40.8898C181.04 41.0598 180.82 41.1398 180.55 41.1398H179.43L179.2 40.1598L180.14 40.2098C180.35 40.1998 180.46 40.0498 180.46 39.7798V36.5998H175.91V40.8598H174.88V35.6698H175.46V32.1098H180.99V35.6698V35.6598ZM177.38 35.6598V33.9198H180.01V32.9798H176.44V35.6498H177.37L177.38 35.6598ZM179.69 37.2098V39.9198H176.67V37.2098H179.69ZM178.76 37.9998H177.61V39.1298H178.76V37.9998ZM180.01 35.6598V34.7598H178.27V35.6598H180.01Z" fill="white"/>
<path d="M188.87 32.5602V31.7202H189.9V32.5602H192.61V34.2902H193.24V35.1902H192.61V36.9602H189.9V37.7202H192.7V38.5602H189.9V39.4002H193.19V40.2902H189.9V41.3102C190.06 41.3102 190.22 41.3202 190.38 41.3202C191.71 41.3202 192.72 41.3002 193.38 41.2402L193.2 42.4502C189.67 42.4502 187.51 42.3702 186.74 42.2002C186.03 42.0102 185.47 41.7202 185.06 41.3402C185.01 41.3002 184.97 41.2702 184.93 41.2202C184.57 41.7002 184.07 42.2002 183.44 42.7402L182.87 41.6102C183.46 41.1902 183.93 40.7202 184.26 40.2202C183.92 39.6202 183.56 38.7902 183.18 37.7602L184.07 37.4402C184.33 38.1202 184.57 38.6902 184.8 39.1202C184.82 39.0702 184.83 39.0102 184.86 38.9502C185.01 38.4302 185.11 37.7102 185.17 36.7802H183.23V36.0402C183.91 35.1802 184.54 34.2202 185.11 33.1902H183.05V32.2902H186.3V33.3202C185.65 34.4202 185.07 35.3002 184.56 35.9502H186.27C186.24 37.2902 186.1 38.3702 185.87 39.1902C185.76 39.5702 185.64 39.9202 185.51 40.2302C185.78 40.5502 186.18 40.8102 186.7 40.9702C187.13 41.1102 187.87 41.2102 188.9 41.2702V40.3002H186.19V39.4102H188.9V38.5702H186.68V37.7302H188.9V36.9702H186.8V36.1302H188.9V35.1902H186.19V34.2902H188.9V33.4002H186.8V32.5602H188.9H188.87ZM189.9 34.2902H191.59V33.4002H189.9V34.2902ZM189.9 36.1302H191.59V35.1902H189.9V36.1302Z" fill="white"/>
<path d="M197.02 31.8999C196.92 32.1399 196.81 32.3599 196.7 32.5599H199.56V33.4599C200.06 32.8799 200.44 32.2999 200.67 31.6699L201.7 31.8499C201.6 32.0999 201.49 32.3399 201.39 32.5599H204.81V33.5399H202.94C203.05 33.8299 203.16 34.1299 203.26 34.4299L202.14 34.5299C202.06 34.1699 201.98 33.8499 201.91 33.5499H200.83C200.58 33.9299 200.31 34.2699 200.01 34.5799L199.08 33.9699C199.24 33.8299 199.38 33.6899 199.5 33.5499H197.98C198.09 33.8299 198.21 34.0999 198.31 34.3899L197.19 34.4899C197.11 34.1499 197.03 33.8399 196.94 33.5499H196.1C195.8 33.9499 195.5 34.3099 195.15 34.6299L194.22 34.0199C195.06 33.3099 195.66 32.5399 196 31.7299L197.03 31.9099L197.02 31.8999ZM199.11 38.6999V38.1099L198.67 37.7099C199.22 37.5199 199.63 37.3299 199.91 37.1099C199.61 36.9699 199.32 36.8499 199.03 36.7299L199.52 35.9699C199.83 36.0899 200.12 36.1999 200.42 36.3199C200.44 36.2099 200.45 36.0899 200.45 35.9699V35.5499H199.2V34.7099H203.3V37.0499C203.3 37.2699 203.4 37.3699 203.61 37.3699H203.66C203.76 37.3699 203.84 37.3299 203.89 37.2599C203.95 37.1999 203.99 36.8799 204.02 36.2899L204.86 36.5799C204.79 37.4099 204.68 37.8899 204.52 38.0299C204.38 38.1899 204.12 38.2599 203.76 38.2599H203.32C203.03 38.2599 202.82 38.1899 202.66 38.0199C202.5 37.8499 202.43 37.6099 202.43 37.3199V35.5399H201.31V35.9599C201.31 36.2399 201.28 36.4799 201.21 36.6799C201.57 36.8499 201.92 37.0399 202.25 37.2299L201.71 38.1199C201.37 37.8999 201.04 37.6999 200.71 37.5099C200.5 37.6999 200.24 37.8899 199.92 38.0699H200.15V38.6799H204.82V39.6599H201.24C201.65 40.0099 202.03 40.2599 202.38 40.4199C202.93 40.7299 203.71 41.0199 204.74 41.2999L204.3 42.2799C203.06 41.8199 202.15 41.3999 201.56 40.9999C201.1 40.7099 200.62 40.2699 200.15 39.6699V42.7199H199.12V39.6699H199.09C198.75 40.1299 198.36 40.5199 197.93 40.8299C197.23 41.3599 196.22 41.8599 194.9 42.3799L194.33 41.3999C195.68 40.9799 196.63 40.5999 197.2 40.2399C197.47 40.0799 197.74 39.8899 197.97 39.6799H194.28V38.6999H199.12H199.11ZM198.8 34.8999V35.8799H197.28V36.9099C197.78 36.8099 198.29 36.7099 198.8 36.5899V37.5299C197.6 37.8399 196.21 38.1299 194.62 38.4199L194.39 37.3399C195.03 37.2799 195.64 37.1999 196.26 37.0999V35.8899H194.71V34.9099H198.8V34.8999Z" fill="white"/>
<path d="M208.77 32.1902C208.75 32.2702 208.72 32.3502 208.7 32.4202H211.57V31.7202H212.6V32.4202H215.89V33.3102H212.6V33.8702H215.31V37.2402C215.63 37.7702 215.88 38.2202 216.07 38.6102L215.23 39.2202C215.15 39.0202 215.07 38.8002 214.98 38.5802C214.83 38.5902 214.7 38.6002 214.56 38.6002V39.3402H216.08V40.2402H214.56V41.5502C214.56 41.9302 214.47 42.2102 214.29 42.3702C214.12 42.5402 213.81 42.6302 213.36 42.6302H212.3L212.07 41.5502C212.46 41.6102 212.79 41.6502 213.05 41.6502C213.35 41.6502 213.49 41.5502 213.49 41.3602V40.2402H210.29C210.76 40.7202 211.13 41.1402 211.41 41.5002L210.43 42.2102C210.16 41.7302 209.78 41.1902 209.31 40.5702L209.81 40.2502H208.28V39.3502H213.49V38.6802C212.01 38.7802 210.37 38.8602 208.59 38.9302L208.42 38.0402C209.48 38.0202 210.53 37.9902 211.58 37.9602V37.3402H208.91V33.8702H211.58V33.3102H208.64V32.6502C208.41 33.3902 208.17 34.0302 207.93 34.5702V42.6402H206.95V36.3402C206.65 36.8002 206.35 37.2402 206.02 37.6702L205.67 36.3502C206.1 35.7302 206.5 35.0702 206.84 34.4002C207.18 33.8002 207.52 32.9102 207.84 31.7602L208.77 32.1902ZM211.57 35.2402V34.6802H209.88V35.2402H211.57ZM211.57 35.9802H209.88V36.5402H211.57V35.9802ZM212.6 35.2402H214.33V34.6802H212.6V35.2402ZM214.33 35.9802H212.6V36.5402H214.33V35.9802ZM212.6 37.9202C213.28 37.9002 213.97 37.8702 214.64 37.8402C214.59 37.7602 214.56 37.6702 214.51 37.5802L214.87 37.3402H212.59V37.9302L212.6 37.9202Z" fill="white"/>
<path d="M219.68 34.6302V35.4202C219.36 36.0902 218.96 36.8002 218.48 37.5302H219.72V38.1902C219.57 38.9802 219.42 39.5902 219.26 40.0302C219.73 40.5802 220.1 40.9302 220.39 41.0602C220.64 41.2002 221.01 41.3202 221.5 41.4102C222.07 41.4902 223.19 41.5402 224.85 41.5702C226.06 41.5702 226.96 41.5502 227.56 41.4702L227.42 42.5502C224.22 42.5502 222.27 42.5002 221.56 42.4202C220.92 42.3202 220.41 42.1702 220.03 41.9802C219.69 41.8102 219.3 41.4802 218.88 40.9202C218.61 41.5002 218.25 42.1002 217.8 42.7402L217.09 41.9402C217.59 41.3202 217.94 40.7502 218.16 40.2702C218.33 39.9802 218.52 39.3802 218.75 38.4702H217.35V37.5802C217.74 37.0802 218.14 36.4302 218.56 35.6102H217.17V34.6302H219.67H219.68ZM219.54 33.5002L218.83 34.2602C218.52 33.7302 218.09 33.1402 217.54 32.5202L218.2 31.8602C218.72 32.4102 219.17 32.9602 219.53 33.5002H219.54ZM223.24 32.6602V31.7202H224.25V32.6602H227.1V33.5502H224.25V34.2902H227.46V35.1402H226L225.73 36.0302H227.23V36.9702H224.21V37.6302H227.09V38.4702H224.21V39.1802H227.37V40.0202H224.21V41.2002H223.18V40.0202H219.97V39.1802H223.18V38.4702H220.28V37.6302H223.18V36.9702H220.06V36.0302H221.69L221.46 35.1402H220.15V34.2902H223.23V33.5502H220.38V32.6602H223.23H223.24ZM224.66 36.0302L224.93 35.1402H222.52L222.75 36.0302H224.65H224.66Z" fill="white"/>
<path d="M8.12 64.0399V62.96H9.22998V64.0399H13.69V62.96H14.8V64.0399H16.41V65.02H14.8V70.2299H16.68V71.2599H6.25V70.2299H8.13V65.02H6.52002V64.0399H8.13H8.12ZM10.48 72.0999C9.60998 72.7599 8.52003 73.35 7.22003 73.89L6.47003 72.86C7.66003 72.45 8.72998 71.96 9.66998 71.36L10.48 72.0999ZM13.68 66.06V65.03H9.22003V66.06H13.68ZM13.68 68.0699V66.99H9.22003V68.0699H13.68ZM13.68 70.2299V69.0099H9.22003V70.2299H13.68ZM16.44 72.9L15.81 73.93C14.72 73.21 13.59 72.65 12.42 72.24L12.96 71.3499C14.23 71.7799 15.39 72.3 16.44 72.9Z" fill="white"/>
<path d="M26.56 64.8401L26.49 66.0501H28.11V66.7601H26.45L26.38 67.9401H19.12L19.21 66.7601H17.61V66.0501H19.25L19.34 64.8401H26.55H26.56ZM23.51 63.5201H27.85V65.5801H26.82V64.3701H18.9V65.5801H17.87V63.5201H22.38C22.24 63.3301 22.11 63.1401 21.96 62.9601L23.08 62.8301C23.22 63.0501 23.37 63.2701 23.5 63.5301L23.51 63.5201ZM26.87 68.4001V72.4301H24.65C25.61 72.6101 26.6 72.8501 27.63 73.1701L27.32 74.0601C26.18 73.6401 24.99 73.3301 23.76 73.1201L24.07 72.4201H21.72L22.02 72.8401C21.45 73.1401 20.94 73.3601 20.5 73.5001C19.98 73.6701 19.33 73.8401 18.55 74.0001L18.06 73.0601C18.81 72.9401 19.48 72.8001 20.05 72.6401C20.29 72.5701 20.52 72.5001 20.73 72.4101H18.8V68.3801H26.86L26.87 68.4001ZM25.89 69.5201V69.1001H19.79V69.5201H25.89ZM25.89 70.6501V70.1801H19.79V70.6501H25.89ZM25.89 71.3101H19.79V71.7301H25.89V71.3101ZM22.23 67.2301L22.26 66.7601H20.16L20.13 67.2301H22.23ZM22.32 66.0501L22.35 65.5301H20.25L20.22 66.0501H22.32ZM23.16 67.2301H25.46L25.48 66.7601H23.19L23.16 67.2301ZM23.25 66.0501H25.52L25.55 65.5301H23.28L23.25 66.0501Z" fill="white"/>
<path d="M32.79 64.4599C33.01 63.9799 33.21 63.4499 33.41 62.8799L34.57 63.0099C34.41 63.5399 34.23 64.0199 34.05 64.4599H39.38V65.5399H33.53C33.28 65.9999 33.02 66.4199 32.74 66.7999C32.44 67.2399 32.11 67.6599 31.76 68.0499V73.8399H30.64V69.1499C30.38 69.3899 30.12 69.6099 29.84 69.8099L29.12 68.8699C30.19 68.0299 31.08 67.1099 31.81 66.1199C31.95 65.9499 32.07 65.7499 32.21 65.5299H29.12V64.4499H32.78L32.79 64.4599ZM35.27 68.4899V66.0999H36.39V68.4899H38.93V69.5199H36.39V72.4299H39.38V73.4999H32.07V72.4299H35.27V69.5199H32.56V68.4899H35.27Z" fill="white"/>
<path d="M43.97 66.3402C43.67 67.0102 43.38 67.5902 43.08 68.0702V73.8402H42.0099V69.4302C41.6299 69.8402 41.22 70.2502 40.77 70.6502L40.4199 69.2902C40.9399 68.8202 41.42 68.3302 41.84 67.8302C42.25 67.3902 42.65 66.7402 43.04 65.8702L43.9799 66.3402H43.97ZM44.1099 63.6702C43.3299 64.7002 42.37 65.6302 41.21 66.4402L40.4899 65.4602C41.5499 64.7902 42.5 63.9602 43.34 62.9702L44.1 63.6802L44.1099 63.6702ZM46.96 64.1402V62.9302H47.9399V64.1402H50.65C50.52 65.1002 50.32 66.0402 50.02 66.9602L49.04 66.6702C49.24 66.2502 49.4299 65.7302 49.5599 65.1202H47.9299V67.3702H50.15V68.1602C49.91 69.3802 49.4699 70.4402 48.8199 71.3402C48.7499 71.4402 48.69 71.5102 48.65 71.5702C49.22 71.9902 49.97 72.4202 50.91 72.8502L50.39 73.8802C49.36 73.3802 48.54 72.8702 47.91 72.3402C47.23 72.9202 46.34 73.4802 45.22 74.0102L44.7 72.9402C45.71 72.5802 46.54 72.1502 47.16 71.6202C46.5 70.8502 45.97 69.7402 45.59 68.3002H45.3799C45.3299 69.0202 45.27 69.7502 45.15 70.4902C44.94 71.6102 44.5899 72.7002 44.1099 73.7802L43.27 72.9802C43.73 72.1002 44.05 71.1802 44.22 70.2002C44.36 69.1902 44.4299 68.2702 44.4299 67.4202V64.1302H46.97L46.96 64.1402ZM46.96 67.3802V65.1302H45.4V67.3802H46.96ZM47.8699 70.9102L47.8799 70.9202C48.3799 70.3402 48.7899 69.4702 49.1099 68.3202H46.5099C46.8699 69.5002 47.3199 70.3602 47.8699 70.9102Z" fill="white"/>
<path d="M55.8501 62.9199V66.3899H57.5401V67.4599H55.8501V71.7099C56.3701 71.5499 56.9101 71.3699 57.4601 71.1699V72.3499C55.8001 72.9299 53.9601 73.3899 51.9301 73.7499L51.8 72.5299C52.06 72.5099 52.3201 72.4799 52.6001 72.4499V64.5699H53.67V72.2699C54.02 72.1999 54.38 72.1299 54.73 72.0299V62.9399H55.8501V62.9199ZM62.2701 65.6799C61.3501 66.6599 60.2901 67.4999 59.1001 68.1699V71.9999C59.1001 72.1899 59.1601 72.3499 59.2701 72.4699C59.3601 72.5699 59.5001 72.6099 59.6801 72.6099H60.3501C60.5201 72.6099 60.6601 72.5599 60.7601 72.4499C60.8701 72.3399 61.0001 71.5499 61.1501 70.0799L62.2701 70.4499C62.1101 72.0599 61.94 72.9799 61.73 73.2299C61.46 73.5299 61.09 73.6899 60.61 73.6899H59.3701C58.9301 73.6899 58.5901 73.5799 58.3901 73.3799C58.0901 73.0699 57.9501 72.6999 57.9501 72.2399V62.9199H59.1001V66.9399C60.0801 66.2799 60.9101 65.5399 61.6001 64.6999L62.2701 65.6799Z" fill="white"/>
<path d="M65.52 66.57C65.22 68.92 64.82 70.94 64.31 72.61L63.24 71.91C63.76 70.18 64.14 68.32 64.36 66.33L65.52 66.5601V66.57ZM67.44 65.8701V72.2401C67.44 72.5301 67.57 72.66 67.84 72.66H69.89C70.03 72.66 70.14 72.5801 70.21 72.4001C70.29 72.2301 70.35 71.39 70.37 69.91L71.44 70.23C71.35 71.98 71.2 73.0001 71 73.3101C70.82 73.6201 70.5 73.79 70.02 73.79H67.44C67.1 73.79 66.82 73.68 66.62 73.48C66.41 73.26 66.32 72.9801 66.32 72.6201V65.88H67.44V65.8701ZM70.37 66.05L69.26 66.85C68.76 65.99 68.07 65.0001 67.21 63.9001L68.14 63.29C69.09 64.37 69.83 65.28 70.36 66.05H70.37ZM73.58 71.63L72.46 72.1501C72.02 70.1301 71.52 68.34 70.99 66.76L72.06 66.39C72.64 68.03 73.14 69.78 73.58 71.63Z" fill="white"/>
<path d="M84.22 64.9402V68.2102H80.34V68.6802H84.4V69.4402H80.34V69.9102H84.98V70.7002H81.2C81.54 71.1802 81.92 71.5902 82.34 71.9002C82.56 71.8002 82.77 71.6702 82.98 71.5002C83.21 71.3302 83.42 71.1002 83.65 70.8402L84.4 71.3102C84.13 71.6702 83.88 71.9502 83.65 72.1402C83.51 72.2602 83.38 72.3702 83.22 72.4602C83.74 72.7402 84.38 72.9602 85.11 73.1802L84.54 74.0702C83.31 73.6502 82.4 73.1902 81.8 72.6902C81.1 72.1402 80.53 71.4702 80.1 70.7002H79.42C78.96 71.0402 78.53 71.3002 78.12 71.5202V72.7802C78.93 72.6602 79.76 72.5002 80.62 72.3002V73.1902C79.27 73.5002 77.79 73.7502 76.16 73.9502L76.07 73.0002C76.42 72.9802 76.78 72.9502 77.14 72.9202V71.9802C76.54 72.2302 75.83 72.4802 75.01 72.7202L74.52 71.8802C75.41 71.7002 76.25 71.4402 77.06 71.0802C77.32 70.9702 77.58 70.8502 77.84 70.7102H74.74V69.9202H79.38V69.4502H75.5V68.6902H79.38V68.2202H75.68V64.9502H84.23L84.22 64.9402ZM80.47 63.6702H85.11V64.5102H74.57V63.6702H79.36C79.22 63.4502 79.09 63.2502 78.93 63.0602L80.05 62.9302C80.2 63.1602 80.35 63.4102 80.48 63.6702H80.47ZM79.38 66.2002V65.7302H76.66V66.2002H79.38ZM79.38 66.9602H76.66V67.4302H79.38V66.9602ZM80.35 66.2002H83.25V65.7302H80.35V66.2002ZM83.25 66.9602H80.35V67.4302H83.25V66.9602Z" fill="white"/>
<path d="M96.34 63.52V64.55H91.84C91.71 64.95 91.54 65.32 91.34 65.68H95.85V73.93H94.78V73.27H87.7V73.93H86.6299V65.68H90.1899C90.4099 65.32 90.58 64.94 90.7 64.55H86.1899V63.52H96.35H96.34ZM88.9899 72.29V66.67H87.7V72.29H88.9899ZM92.47 67.84V66.66H90.02V67.84H92.47ZM92.47 70.03V68.77H90.02V70.03H92.47ZM92.47 72.28V70.96H90.02V72.28H92.47ZM94.78 72.28V66.66H93.45V72.28H94.78Z" fill="white"/>
<path d="M99.7201 64.1299V62.9199H100.75V64.1299H102.25V65.0699H100.75V66.3899H101.41C101.96 65.7499 102.52 64.9099 103.11 63.8599L103.91 64.2799C103.51 65.0699 103.08 65.7699 102.61 66.3899H103.42V67.3299H101.86C101.67 67.5499 101.47 67.7399 101.28 67.9299C101.07 68.1199 100.85 68.3099 100.62 68.4899H102.98V73.9299H102V73.2199H99.55V73.9599H98.5201V69.7399C98.3001 69.8399 98.09 69.9299 97.86 70.0299L97.3201 69.1899C98.5901 68.6599 99.63 68.0399 100.48 67.3199H97.5801V66.3799H99.7201V65.0599H97.9001V64.1199H99.7201V64.1299ZM101.99 70.3699V69.3899H99.5401V70.3699H101.99ZM101.99 72.3399V71.2099H99.5401V72.3399H101.99ZM107.73 63.4799V64.3299C107.38 65.5899 107 66.7599 106.61 67.8399C107.12 68.5599 107.45 69.0999 107.59 69.4799C107.77 69.8999 107.86 70.3099 107.86 70.6899C107.86 71.4299 107.72 71.9899 107.45 72.3499C107.18 72.7199 106.49 72.8999 105.41 72.8999L105.09 71.7199C105.41 71.7899 105.74 71.8199 106.07 71.8199C106.33 71.8199 106.53 71.7199 106.65 71.5199C106.74 71.3799 106.79 71.0999 106.79 70.6899C106.8 70.4399 106.73 70.1299 106.58 69.7399C106.42 69.3599 106.08 68.7199 105.53 67.8299C105.96 66.6299 106.3 65.5299 106.56 64.4999H104.96V73.9299H103.93V63.4699H107.71L107.73 63.4799Z" fill="white"/>
<path d="M112.81 64.2299C112.99 63.8499 113.16 63.43 113.35 62.96L114.51 63.0999C114.37 63.5099 114.23 63.8899 114.08 64.2299H119.23V65.31H113.54C113.34 65.68 113.12 66.03 112.89 66.34H118.29V72.71C118.29 73.06 118.2 73.3299 118.03 73.5399C117.85 73.7299 117.56 73.84 117.18 73.84H115.36L115.13 72.81L116.87 72.86C117.08 72.86 117.18 72.75 117.18 72.52V71.4H112.19V73.8799H111.08V68.42C110.57 68.9 110.02 69.34 109.43 69.75L108.72 68.81C109.87 67.99 110.84 67.09 111.63 66.12C111.84 65.88 112.03 65.5999 112.23 65.2899H109.03V64.21H112.81V64.2299ZM117.18 68.36V67.3799H112.19V68.36H117.18ZM117.18 70.42V69.2899H112.19V70.42H117.18Z" fill="white"/>
<path d="M123.18 63.39C122.93 64.25 122.68 64.99 122.43 65.61V73.93H121.45V67.45C121.15 67.91 120.85 68.3599 120.52 68.8199L120.17 67.5C120.59 66.88 120.97 66.2399 121.3 65.5699C121.63 64.9699 121.95 64.11 122.26 62.96L123.19 63.39H123.18ZM130.09 73.84H129.06V73.28H124.39V73.84H123.36V63.53H130.08V73.84H130.09ZM129.06 72.2V64.46H124.39V72.2H129.06ZM126.17 65.8799V64.8499H127.15V65.8799H128.71V66.8199H127.15V68.03H128.27V71.4099H125.1V68.03H126.17V66.8199H124.7V65.8799H126.17ZM127.33 68.93H126.03V70.5099H127.33V68.93Z" fill="white"/>
<path d="M135.96 71.4498H133.03V72.3898H132V63.6198H135.96V71.4498ZM134.95 66.9498V64.6998H133.04V66.9498H134.95ZM134.95 70.3698V67.9698H133.04V70.3698H134.95ZM136.99 63.3398H141.8V72.6098C141.8 72.9898 141.7 73.2898 141.5 73.5098C141.32 73.6898 141.08 73.7898 140.77 73.7898H138.95L138.73 72.6598L140.33 72.7598C140.56 72.7398 140.68 72.5798 140.68 72.2898V70.1798H137.92C137.83 70.6198 137.71 71.0198 137.58 71.3698C137.25 72.2498 136.61 73.1198 135.65 74.0198L134.72 73.1798C135.57 72.5098 136.18 71.7798 136.53 70.9898C136.83 70.3498 136.99 69.3798 136.99 68.0798V63.3498V63.3398ZM140.68 69.0998V67.2298H138.1V68.0698C138.1 68.4398 138.08 68.7898 138.05 69.0998H140.67H140.68ZM140.68 66.1498V64.4198H138.1V66.1498H140.68Z" fill="white"/>
<path d="M146.7 63.4402V64.5102H145.42C145.25 65.5102 145.07 66.3302 144.87 66.9902H146.78V67.7502C147.58 67.0802 148.18 66.4202 148.59 65.7502C148.77 65.4702 148.94 65.1602 149.1 64.8002H148.02V66.0602H147.04V63.8702H149.46C149.55 63.5902 149.63 63.2902 149.71 62.9702L150.69 63.1102C150.61 63.3902 150.53 63.6402 150.46 63.8702H153.09V66.0602H152.11V64.8002H150.13C149.92 65.3202 149.71 65.7502 149.5 66.1102C149.36 66.3702 149.21 66.6302 149.03 66.8702H150.43C150.3 66.6202 150.16 66.3502 149.97 66.0702L150.9 65.7002C151.11 66.0402 151.29 66.4302 151.45 66.8802H153.35V67.8202H151.16V68.7102H153.12V69.6002H151.16V70.5802H153.12V71.4802H151.16V72.5002H153.44V73.4502H148.49V73.9702H147.51V68.5902C147.4 68.7102 147.27 68.8202 147.16 68.9102L146.76 68.3802V73.3602H145.83V72.7002H144.9V73.7802H143.97V69.1302C143.81 69.4202 143.65 69.7102 143.48 69.9902L142.9 68.9902C143.42 68.0802 143.79 67.2302 144.01 66.4602C144.16 65.9602 144.3 65.3102 144.43 64.5402H143.26V63.4702H146.69L146.7 63.4402ZM145.86 71.6802V67.9702H144.93V71.6802H145.86ZM150.21 67.7902H148.52V68.6802H150.21V67.7902ZM150.21 69.5702H148.52V70.5502H150.21V69.5702ZM150.21 72.4702V71.4502H148.52V72.4702H150.21Z" fill="white"/>
<path d="M163.26 72.52H164.78V73.55H154.53V72.52H156V63.48H163.26V72.52ZM162.14 66.39V64.51H157.11V66.39H162.14ZM162.14 69.44V67.38H157.11V69.44H162.14ZM162.14 72.52V70.42H157.11V72.52H162.14Z" fill="white"/>
<path d="M170.48 70.3702V69.3902H171.54V70.3702H175.46V71.3102H171.54V72.6702H176.18V73.6502H165.93V72.6702H170.48V71.3102H166.7V70.3702H170.48ZM171.14 64.1802H169.41V64.9702H170.93V67.5002H169.41V68.2602H171.37V69.2002H166.12V63.2502H171.15V64.1902L171.14 64.1802ZM168.47 64.1802H167.09V64.9702H168.47V64.1802ZM169.99 66.6102V65.8702H167.09V66.6102H169.99ZM168.47 67.5002H167.09V68.2602H168.47V67.5002ZM175.99 63.2402V64.0802C175.8 65.1602 175.43 66.0802 174.9 66.8702C174.76 67.0902 174.6 67.2802 174.43 67.4702C174.95 67.9102 175.63 68.3002 176.44 68.6202L175.81 69.5602C174.9 69.1402 174.17 68.6802 173.64 68.1802C173.16 68.5502 172.59 68.9002 171.94 69.2402L171.4 68.1602C171.99 67.9402 172.49 67.6802 172.92 67.3802C172.37 66.6802 171.93 65.8802 171.58 64.9702L172.43 64.4502C172.76 65.3602 173.18 66.1202 173.68 66.7202C173.77 66.6202 173.86 66.5202 173.94 66.4202C174.34 65.9402 174.67 65.2102 174.92 64.2302H171.44V63.2502H175.98L175.99 63.2402Z" fill="white"/>
<path d="M186.11 66.3899V67.4599H183.08V69.2499H186.37V70.2799H183.08V72.4999C183.64 72.5799 184.33 72.6199 185.18 72.6199C185.94 72.6199 186.73 72.5999 187.54 72.5199L187.36 73.7399C184.64 73.7399 182.91 73.6299 182.2 73.4399C181.61 73.3099 181 73.0199 180.39 72.5599C180.05 72.3199 179.75 72.0099 179.5 71.6199C179.14 72.3399 178.6 73.0799 177.88 73.8699L177.13 72.8899C177.81 72.2099 178.33 71.5299 178.67 70.8599C179 70.2399 179.27 69.3999 179.49 68.3399L180.56 68.5199C180.38 69.2899 180.18 69.9499 180 70.4799C180.32 71.0999 180.75 71.5599 181.28 71.8499C181.5 72.0099 181.75 72.1299 182.02 72.2199V67.4499H178.82V66.3799H186.13L186.11 66.3899ZM183.1 63.9899H187.44V66.8999H186.37V65.0599H178.54V66.8999H177.47V63.9899H181.94C181.8 63.6799 181.64 63.3899 181.48 63.0999L182.68 62.9199C182.82 63.2399 182.97 63.5999 183.1 63.9899Z" fill="white"/>
<path d="M192.03 63.0999C191.89 63.7199 191.7 64.3099 191.46 64.8399H193.1V67.3499C193.43 66.7699 193.69 66.1999 193.87 65.6199C194.1 64.9499 194.28 64.0499 194.43 62.9199L195.55 63.0999C195.45 63.7499 195.34 64.3099 195.24 64.7899H198.75C198.75 69.0099 198.68 71.5099 198.57 72.2699C198.46 72.8699 198.26 73.2799 197.99 73.4699C197.67 73.7099 197.08 73.8299 196.22 73.8299C195.97 73.8299 195.68 73.8099 195.37 73.7799L195.2 72.5999C195.53 72.6699 195.87 72.6999 196.23 72.6999C196.95 72.6999 197.35 72.4499 197.44 71.9399C197.58 71.3199 197.67 69.2899 197.69 65.8599H194.98C194.95 65.9399 194.92 66.0199 194.91 66.0599C194.66 66.9199 194.24 67.8499 193.64 68.8099L193.1 68.1099V73.0199H192.12V72.4599H190.03V73.3599H189.05V64.8299H190.46C190.7 64.2499 190.88 63.6199 191.01 62.9499L192.02 63.0899L192.03 63.0999ZM192.12 68.1599V65.8199H190.03V68.1599H192.12ZM192.12 71.4799V69.0899H190.03V71.4799H192.12ZM196.84 70.3199L195.77 71.0599C195.45 70.1999 195.01 69.1899 194.44 68.0599L195.33 67.4499C195.97 68.5699 196.48 69.5199 196.85 70.3199H196.84Z" fill="white"/>
<path d="M206.28 64.2799L205.88 64.6999H210.38V65.8299H204.05V66.7699C204.05 67.0299 204.04 67.2699 204.03 67.5099H209.08C209.06 70.8399 208.79 72.7399 208.29 73.2199C208.02 73.6299 207.09 73.8399 205.52 73.8399L205.29 72.6199C205.64 72.6899 205.94 72.7199 206.19 72.7199C206.73 72.7199 207.14 72.5899 207.43 72.3099C207.68 72.0499 207.84 70.8099 207.92 68.5899H203.94C203.85 69.4199 203.68 70.1399 203.45 70.7599C203.06 71.8199 202.33 72.8799 201.24 73.9699L200.31 73.1299C201.29 72.2899 202 71.3799 202.41 70.3999C202.75 69.6099 202.93 68.3999 202.93 66.7699V65.8299H200.13V64.6999H205.07C204.71 64.3599 204.26 63.9999 203.75 63.6199L204.5 62.8799C205.21 63.3499 205.8 63.8199 206.28 64.2799Z" fill="white"/>
<path d="M217.32 63.15C217.15 63.65 216.92 64.12 216.64 64.55H221.29V72.56C221.29 72.97 221.18 73.28 220.96 73.5C220.78 73.69 220.52 73.7899 220.17 73.7899H218.65L218.43 72.61L219.72 72.71C219.98 72.7 220.12 72.53 220.12 72.19V65.6299H213.18V73.93H212.02V64.55H215.35C215.65 64.06 215.87 63.53 216.03 62.96L217.32 63.15ZM218.97 66.99V71.4H214.28V66.99H218.97ZM217.85 68.02H215.4V70.37H217.85V68.02Z" fill="white"/>
<path d="M66.6601 100.05C66.6501 100.64 66.5501 101.08 66.3401 101.37C66.1601 101.66 65.6001 101.8 64.6601 101.8L64.2201 100.67H65.1201C65.3401 100.67 65.4701 100.62 65.5301 100.5C65.5801 100.4 65.6 100.15 65.61 99.7401V96.9801L63.3301 97.6601V102.35H62.2701V97.9801L60.1301 98.6301V103.01C60.1301 103.33 60.1901 103.56 60.3101 103.69C60.4501 103.8 60.7001 103.85 61.0601 103.85H66.4101C66.6901 103.85 66.8901 103.78 67.0001 103.62C67.1401 103.43 67.2301 102.74 67.2501 101.56L68.23 101.88C68.23 102.41 68.1801 102.95 68.1001 103.5C68.0101 103.96 67.8601 104.28 67.6801 104.51C67.4501 104.75 67.0601 104.88 66.5401 104.88H60.6601C60.1101 104.88 59.7101 104.75 59.4701 104.51C59.1801 104.23 59.05 103.74 59.05 103.01V98.9601L57.5801 99.4001V98.3201L59.05 97.8801V95.1001H60.1201V97.5601L62.2601 96.9101V94.1201H63.3201V96.5901L66.7101 95.5701C66.6601 98.5601 66.6501 100.04 66.6501 100.04L66.6601 100.05Z" fill="white"/>
<path d="M79.01 105.04H77.98V104.48H70.37V105.04H69.36V94.5898H79.01V105.04ZM77.98 103.49V95.5698H70.37V103.49H77.98ZM73.58 97.5398V95.9898H74.64V97.5398H77.58V98.5198H74.79C75.03 99.2598 75.35 99.8898 75.76 100.39C76.16 100.92 76.81 101.45 77.72 101.99L77.01 102.97C76.28 102.48 75.72 102 75.36 101.52C74.87 100.94 74.48 100.25 74.2 99.4098C73.97 100.29 73.65 100.96 73.24 101.43C72.81 101.96 72.17 102.47 71.31 102.98L70.64 102C71.73 101.4 72.5 100.74 72.92 100.02C73.23 99.5198 73.43 99.0098 73.52 98.5298H70.77V97.5498H73.57L73.58 97.5398Z" fill="white"/>
<path d="M82.11 95.7999C81.97 95.3699 81.8101 94.9699 81.6401 94.5899L82.67 94.4499C82.82 94.8599 82.9701 95.3099 83.1001 95.8099H83.9001C84.0401 95.2799 84.1401 94.7299 84.2201 94.1699L85.2001 94.3099C85.1001 94.8399 84.9901 95.3299 84.8801 95.8099H89.3501C89.2601 96.6499 89.1601 97.3499 89.0401 97.9199H90.1001C90.0101 98.7499 89.92 99.4599 89.8 100.03H90.6801C90.6501 102.72 90.4201 104.25 90.0101 104.64C89.7801 104.98 89.0101 105.14 87.7001 105.14L87.4701 103.96C87.8101 104.02 88.1001 104.06 88.3201 104.06C88.7401 104.06 89.0701 103.96 89.3101 103.75C89.5001 103.56 89.6301 102.62 89.7001 100.97H82.8301C82.3301 101.75 81.7901 102.41 81.2001 102.94L80.3101 102.28C81.8401 100.79 82.9401 98.9799 83.6201 96.8499H80.8801V95.8199H82.11V95.7999ZM83.6001 101.94C83.3001 103.1 82.8801 104.1 82.3501 104.94L81.4601 104.33C82.0101 103.54 82.3901 102.67 82.6201 101.75L83.6001 101.94ZM83.36 100.02H88.7501C88.8201 99.7099 88.8801 99.3199 88.9301 98.8899H83.8801C83.7101 99.2999 83.54 99.6699 83.36 100.02ZM85.3301 104.75L84.2601 104.89C84.2401 103.62 84.1601 102.64 84.0401 101.94L84.9301 101.84C85.1201 102.56 85.2601 103.53 85.3301 104.74V104.75ZM84.2601 97.9099H88.0001C88.0701 97.6099 88.1301 97.2499 88.1801 96.8299H84.6001C84.4901 97.2099 84.3701 97.5699 84.2601 97.9099ZM87.2501 103.95L86.2701 104.18C86.1101 103.38 85.8901 102.6 85.6401 101.84L86.5301 101.56C86.8001 102.26 87.0401 103.06 87.2501 103.95ZM88.8901 103.19L88.0001 103.53C87.8301 102.86 87.6201 102.21 87.3801 101.56L88.1301 101.37C88.4501 102.04 88.7001 102.64 88.8801 103.19H88.8901Z" fill="white"/>
<path d="M95.4901 95.6601C95.7101 95.1801 95.91 94.6501 96.11 94.0801L97.2701 94.2101C97.1101 94.7401 96.9301 95.2201 96.7501 95.6601H102.08V96.7401H96.23C95.98 97.2001 95.7201 97.6201 95.4401 98.0001C95.1401 98.4401 94.8101 98.8601 94.4601 99.2501V105.04H93.3401V100.35C93.0801 100.59 92.8201 100.81 92.5401 101.01L91.8201 100.07C92.8901 99.2301 93.7801 98.3101 94.5101 97.3201C94.6501 97.1501 94.7701 96.9501 94.9101 96.7301H91.8201V95.6501H95.48L95.4901 95.6601ZM97.9701 99.6901V97.3001H99.0901V99.6901H101.63V100.72H99.0901V103.63H102.08V104.7H94.7701V103.63H97.9701V100.72H95.2601V99.6901H97.9701Z" fill="white"/>
<path d="M106.08 96.9801V97.7701C105.7 98.4401 105.22 99.1501 104.64 99.8801H106.03V100.59C105.87 101.33 105.7 101.92 105.52 102.35C105.95 102.88 106.31 103.2 106.58 103.32C106.82 103.48 107.18 103.58 107.66 103.66C108.21 103.76 109.29 103.8 110.91 103.82C112.1 103.82 112.97 103.8 113.57 103.72L113.43 104.85C110.3 104.85 108.38 104.8 107.69 104.72C107.06 104.62 106.56 104.48 106.2 104.29C105.87 104.13 105.5 103.81 105.09 103.28C104.77 103.86 104.34 104.44 103.81 105.09L103.06 104.24C103.65 103.62 104.06 103.08 104.31 102.6C104.5 102.32 104.73 101.75 104.99 100.87H103.41V99.9801C103.88 99.4801 104.37 98.8001 104.88 97.9701H103.18V96.9901H106.08V96.9801ZM105.82 95.8501L105.06 96.6501C104.76 96.1301 104.35 95.5701 103.82 94.9601L104.54 94.2501C105.04 94.7901 105.46 95.3201 105.83 95.8501H105.82ZM110.29 95.1901H113.44V96.2201H106.32V95.1901H109.2C109.06 94.8701 108.93 94.5501 108.77 94.2501L109.88 94.1201C110.02 94.4401 110.17 94.8001 110.3 95.1901H110.29ZM112.9 96.8301V97.7701H106.97V96.8301H112.9ZM112.9 98.4301V99.3701H106.97V98.4301H112.9ZM112.85 100.07V102.97H107.06V100.07H112.85ZM111.82 101.01H108.08V102.04H111.82V101.01Z" fill="white"/>
<path d="M116.95 94.3499V96.7399H120.03V94.1299H121.19V96.7399H124.48V97.8699H116.95C116.94 98.5799 116.92 99.2099 116.87 99.7899H122.43V105.14H121.27V100.92H116.76C116.71 101.2 116.68 101.45 116.63 101.69C116.42 102.81 116.03 103.94 115.44 105.1L114.46 104.2C114.96 103.31 115.31 102.34 115.52 101.31C115.7 100.47 115.79 99.1899 115.79 97.4599V94.3699H116.94L116.95 94.3499Z" fill="white"/>
<path d="M130.4 97.67V94.25H131.64V97.67H135.52V98.85H131.64V103.12H136.28V104.33H126.03V103.12H130.4V98.85H126.75V97.67H130.4Z" fill="white"/>
<path d="M138.64 97.25V94.25H139.75V97.25H140.91V98.38H139.75V101.99C140.13 101.83 140.51 101.64 140.91 101.43V102.65C139.91 103.18 138.79 103.6 137.57 103.91L137.43 102.65C137.82 102.6 138.22 102.52 138.64 102.39V98.38H137.43V97.25H138.64ZM147.5 100.08C147.48 100.61 147.39 101 147.21 101.26C147.03 101.52 146.54 101.66 145.72 101.66L145.28 100.54H145.94C146.17 100.54 146.3 100.49 146.36 100.38C146.39 100.3 146.42 100.08 146.43 99.73V97.56L145.01 98.14V102.65H144V98.56L142.75 99.08V103.3C142.75 103.59 142.88 103.72 143.15 103.72H146.14C146.37 103.72 146.53 103.67 146.64 103.58C146.77 103.48 146.84 103.02 146.89 102.18L147.92 102.52C147.82 103.65 147.65 104.31 147.41 104.5C147.21 104.7 146.83 104.81 146.28 104.81H142.76C142.43 104.81 142.17 104.7 141.99 104.51C141.78 104.29 141.69 104.02 141.69 103.68V99.53L140.8 99.89V98.76L141.69 98.4V95.44H142.76V97.98L144.01 97.48V94.27H145.02V97.08L147.56 96.06C147.53 98.76 147.51 100.1 147.51 100.1L147.5 100.08Z" fill="white"/>
<path d="M158.85 96.8801H155.68C155.78 98.5801 156 99.9401 156.32 100.93C156.84 100.11 157.33 99.0401 157.78 97.7201L158.76 98.1501C158.12 99.9501 157.47 101.27 156.82 102.13C157.32 103.19 157.69 103.71 157.91 103.71C158.02 103.71 158.17 103.16 158.35 102.03L159.24 102.68C158.98 103.82 158.74 104.5 158.52 104.74C158.37 104.93 158.21 105.03 158.04 105.03C157.56 105.03 157.07 104.74 156.59 104.17C156.34 103.87 156.12 103.52 155.94 103.13C155.22 103.84 154.32 104.45 153.23 104.99L152.6 103.96C153.77 103.4 154.73 102.74 155.46 101.99C155.3 101.59 155.17 101.17 155.06 100.72C154.82 99.6901 154.66 98.4201 154.58 96.8801H150.77V98.3301H153.89C153.86 100.49 153.77 101.86 153.62 102.43C153.45 103.1 153.07 103.44 152.49 103.44H151L150.82 102.31C151.58 102.38 152.15 102.41 152.53 102.41C152.62 102.41 152.7 102.24 152.75 101.89C152.78 101.48 152.81 100.66 152.83 99.4101H150.77C150.75 100.26 150.68 101.14 150.54 102.05C150.34 103.15 149.99 104.23 149.54 105.31L148.61 104.47C149.04 103.59 149.35 102.68 149.52 101.72C149.65 100.74 149.71 99.8201 149.71 98.9901V95.8001H154.54C154.52 95.2701 154.52 94.7101 154.52 94.1201H155.59C155.59 94.7201 155.59 95.2701 155.61 95.8001H157.24C156.94 95.4901 156.58 95.1501 156.12 94.8201L156.83 94.1201C157.35 94.4801 157.81 94.8301 158.17 95.1901L157.59 95.8001H158.83V96.8801H158.85Z" fill="white"/>
<path d="M169.76 95.5302H163.03V96.2302H169.36V97.1702H163.03V97.9302H169.36V98.8702H163.03V99.6702H170.52V100.74H165.38C165.68 101.32 166.06 101.81 166.54 102.2C167.31 101.91 168.04 101.46 168.73 100.83L169.54 101.63C168.94 102.16 168.26 102.57 167.53 102.86C168.38 103.36 169.43 103.77 170.69 104.11L170.07 105.23C168.25 104.59 166.89 103.9 166 103.12C165.18 102.46 164.6 101.67 164.25 100.73H162.72V103.64C163.5 103.5 164.3 103.29 165.13 103.03V104.16C163.76 104.57 162.26 104.89 160.59 105.14L160.45 103.96C160.84 103.94 161.24 103.89 161.65 103.83V100.72H160.27V99.6502H161.97V94.4902H169.76V95.5202V95.5302Z" fill="white"/>
<path d="M55.72 126.35C54.53 126.59 53.16 126.77 51.56 126.87C51.47 127.13 51.39 127.39 51.31 127.61H56.04V128.45H50.98C50.88 128.69 50.78 128.92 50.67 129.11H56.48V130H50.17C50.12 130.07 50.09 130.13 50.06 130.19C49.95 130.36 49.84 130.51 49.74 130.66H55.42V136.33H54.44V135.95H49.28V136.33H48.3V132.31C47.82 132.79 47.31 133.25 46.74 133.7L46.16 132.67C47.36 131.71 48.27 130.82 48.91 130H46.35V129.11H49.51C49.64 128.91 49.76 128.69 49.89 128.45H46.85V127.61H50.27C50.36 127.39 50.44 127.17 50.53 126.93C49.49 126.98 48.39 127 47.2 127L46.94 126.06C50.21 126.06 52.98 125.86 55.26 125.45L55.75 126.35H55.72ZM54.43 132.15V131.54H49.27V132.15H54.43ZM54.43 133.6V132.94H49.27V133.6H54.43ZM54.43 135.05V134.39H49.27V135.05H54.43Z" fill="white"/>
<path d="M63.56 125.6V126.63H60.66L59.67 129.02C60.58 128.98 61.4 128.94 62.13 128.86C61.97 128.48 61.81 128.08 61.64 127.66L62.44 127.14C62.99 128.22 63.41 129.13 63.73 129.9L62.76 130.61C62.67 130.36 62.59 130.09 62.5 129.82C62.1 129.89 61.62 129.95 61.06 130V131.55H63.16V132.58H61.06V134.4C61.93 134.28 62.77 134.15 63.6 133.98V135.01C61.95 135.32 60.02 135.63 57.81 135.95L57.54 134.79C58.38 134.73 59.22 134.65 60.04 134.54V132.59H57.95V131.56H60.04V130.11C59.41 130.16 58.72 130.21 57.95 130.25L57.77 129.07C58 129.07 58.23 129.07 58.45 129.06L59.46 126.64H57.62V125.61H63.55L63.56 125.6ZM65.25 126.12V133.71H64.14V126.12H65.25ZM67.44 125.33V134.88C67.44 135.34 67.35 135.66 67.17 135.85C67 136.04 66.69 136.15 66.23 136.15H64.71L64.45 134.88C65.04 134.95 65.53 134.98 65.92 134.98C66.22 134.98 66.36 134.9 66.36 134.7V125.33H67.43H67.44Z" fill="white"/>
<path d="M78.6501 125.92V127.05C77.4801 128.05 76.1301 128.98 74.6001 129.84V135.15C74.5801 135.46 74.5 135.69 74.36 135.86C74.14 136.1 73.8901 136.23 73.6201 136.23H71.8301L71.5701 135.05C72.0001 135.09 72.4601 135.1 72.9501 135.1C73.2101 135.1 73.3501 134.99 73.3501 134.78V129.11C74.4401 128.64 75.6201 127.96 76.8701 127.05H69.5601V125.92H78.6401H78.6501Z" fill="white"/>
<path d="M84 126.07C83.22 127.1 82.26 128.03 81.1 128.84L80.38 127.86C81.44 127.19 82.39 126.36 83.23 125.37L83.99 126.08L84 126.07ZM84.05 128.74C83.71 129.52 83.34 130.17 82.98 130.69V136.23H81.91V131.95C81.55 132.33 81.17 132.69 80.76 133.04L80.4 131.68C80.96 131.21 81.45 130.72 81.87 130.22C82.3 129.78 82.71 129.13 83.12 128.26L84.05 128.73V128.74ZM89.92 131.03H87.77C87.91 131.68 88.08 132.23 88.31 132.7C88.9 132.4 89.47 131.94 90.02 131.32L90.78 132.11C90.19 132.72 89.53 133.19 88.79 133.53C89.3 134.26 89.96 134.87 90.78 135.35L90.2 136.37C89.13 135.63 88.34 134.81 87.82 133.9C87.32 133.11 86.98 132.15 86.77 131.03H85.61V134.64C86.26 134.48 86.9 134.29 87.53 134.08V135.16C86.44 135.53 85.16 135.9 83.7 136.29L83.44 135.07C83.82 135.02 84.19 134.96 84.56 134.89V125.75H89.94V131.04L89.92 131.03ZM88.86 127.85V126.82H85.6V127.85H88.86ZM88.86 129.95V128.83H85.6V129.95H88.86Z" fill="white"/>
<path d="M97 125.46C96.85 125.72 96.69 125.95 96.52 126.17H100.83V127.06C100.12 127.98 99.17 128.8 97.94 129.5C96.38 130.44 94.54 131.07 92.42 131.42L91.98 130.44C93.54 130.24 94.88 129.9 95.98 129.44C95.63 129.06 95.22 128.65 94.74 128.19L95.55 127.67C96.15 128.15 96.66 128.56 97.05 128.92C97.89 128.44 98.63 127.88 99.3 127.2H95.48C95.42 127.25 95.38 127.27 95.35 127.3C94.67 127.83 93.8 128.32 92.73 128.75L92.07 127.81C93.03 127.46 93.83 127.08 94.48 126.67C94.98 126.37 95.46 125.93 95.9 125.33L97.01 125.46H97ZM99.59 129.73C99.34 130.09 99.1 130.4 98.86 130.67H101.95V131.61C101.15 133.07 100.24 134.12 99.19 134.74C98 135.47 96.06 136.02 93.35 136.38L92.6 135.31C94.79 135.12 96.48 134.79 97.64 134.34C97.28 133.96 96.84 133.52 96.34 133.06L97.14 132.54C97.78 133.02 98.3 133.45 98.71 133.81C99.52 133.33 100.17 132.63 100.67 131.7H97.73C97.73 131.7 97.65 131.75 97.63 131.77C96.87 132.37 95.58 132.99 93.75 133.66L92.95 132.58C94.55 132.12 95.73 131.67 96.52 131.22C97.3 130.8 97.93 130.24 98.42 129.53L99.58 129.72L99.59 129.73Z" fill="white"/>
<path d="M109.22 125.83V130.86H108.37V124.94H111.95V125.84H109.23L109.22 125.83Z" fill="white"/>
<path d="M116.99 126.77V125.35H118.02V126.77H119.67V127.8H118.02V129.06H119.67V130.09H118.02V131.49H119.67V132.52H118.02V134.52C118.19 134.59 118.37 134.64 118.58 134.68C119.18 134.81 120.39 134.88 122.2 134.91C123.5 134.91 124.46 134.89 125.1 134.83L124.97 135.9C121.53 135.9 119.43 135.84 118.68 135.73C118 135.61 117.45 135.42 117.04 135.15C116.7 134.96 116.32 134.55 115.91 133.93C115.74 134.69 115.52 135.42 115.26 136.14L114.51 135.43C114.76 134.57 114.95 133.79 115.09 133.09C115.19 132.5 115.26 131.73 115.31 130.8L116.29 130.88C116.24 131.6 116.2 132.2 116.14 132.68C116.47 133.21 116.76 133.6 116.99 133.86V130.09H114.68V129.06H116.99V127.8H115.03V126.77H116.99ZM124.39 130.19H121.1V132.48C121.1 132.73 121.23 132.85 121.5 132.85H123.32C123.46 132.85 123.55 132.8 123.62 132.68C123.69 132.56 123.75 132.01 123.77 131.02L124.75 131.34C124.66 132.59 124.52 133.32 124.34 133.53C124.18 133.76 123.88 133.87 123.46 133.87H121.1C120.78 133.87 120.53 133.77 120.35 133.58C120.17 133.39 120.08 133.14 120.08 132.8V125.9H124.4V130.17L124.39 130.19ZM121.1 129.16H123.37V126.95H121.1V129.16Z" fill="white"/>
<path d="M134.72 128.03V129.01H132.34C132.03 129.27 131.72 129.49 131.42 129.68C131.82 130.22 132.12 130.75 132.3 131.25C133.13 130.87 133.93 130.29 134.68 129.52L135.48 130.32C135 130.79 134.49 131.18 133.94 131.51C134.19 132.13 134.51 132.71 134.88 133.24C135.23 133.74 135.73 134.28 136.38 134.86L135.66 135.84C134.93 135.14 134.34 134.43 133.9 133.71C133.57 133.22 133.28 132.64 133.06 132C132.88 132.1 132.72 132.17 132.56 132.23C132.66 132.75 132.72 133.25 132.72 133.75C132.72 134.66 132.59 135.3 132.34 135.69C132.07 136.11 131.26 136.33 129.91 136.33L129.56 135.15C129.58 135.21 129.8 135.25 130.19 135.25C130.78 135.25 131.17 135.17 131.33 135.02C131.51 134.79 131.61 134.37 131.61 133.75C131.61 133.58 131.6 133.4 131.58 133.22C130.94 133.75 130.36 134.16 129.84 134.42C129.01 134.88 127.97 135.32 126.72 135.76L126.14 134.73C127.38 134.38 128.47 133.96 129.4 133.47C130.14 133.09 130.8 132.63 131.39 132.1C131.37 132 131.33 131.9 131.31 131.79C131.28 131.68 131.24 131.57 131.2 131.45C130.58 131.92 130.03 132.27 129.54 132.49C128.81 132.85 127.89 133.21 126.77 133.55L126.23 132.57C127.32 132.31 128.29 131.98 129.13 131.6C129.75 131.32 130.3 131 130.81 130.62C130.72 130.48 130.63 130.32 130.52 130.16C129.53 130.62 128.38 131 127.08 131.31L126.5 130.33C127.91 130.04 129.03 129.74 129.84 129.43C130.18 129.3 130.5 129.15 130.8 129.01H127.62V128.03H134.74H134.72ZM131.64 126.21H136.1V128.64H135.07V127.24H127.28V128.64H126.25V126.21H130.46C130.32 125.97 130.19 125.73 130.04 125.5L131.24 125.32C131.38 125.58 131.5 125.88 131.64 126.21Z" fill="white"/>
<path d="M138.98 136.78V135.88H141.7V130.86H142.55V136.78H138.97H138.98Z" fill="white"/>
<path d="M152.13 125.5C151.99 126.12 151.8 126.71 151.56 127.24H153.2V129.75C153.53 129.17 153.79 128.6 153.97 128.02C154.2 127.35 154.38 126.45 154.53 125.32L155.65 125.5C155.55 126.15 155.44 126.71 155.34 127.19H158.85C158.85 131.41 158.78 133.91 158.67 134.67C158.56 135.27 158.36 135.68 158.09 135.87C157.77 136.11 157.18 136.23 156.32 136.23C156.07 136.23 155.78 136.21 155.46 136.18L155.29 135C155.62 135.07 155.96 135.1 156.32 135.1C157.04 135.1 157.44 134.85 157.53 134.34C157.67 133.72 157.76 131.69 157.78 128.26H155.07C155.04 128.34 155.01 128.42 155 128.46C154.75 129.32 154.33 130.25 153.73 131.21L153.19 130.51V135.42H152.21V134.86H150.12V135.76H149.14V127.23H150.55C150.79 126.65 150.97 126.02 151.1 125.35L152.11 125.49L152.13 125.5ZM152.22 130.56V128.22H150.13V130.56H152.22ZM152.22 133.88V131.49H150.13V133.88H152.22ZM156.94 132.72L155.87 133.46C155.55 132.6 155.11 131.59 154.54 130.46L155.43 129.85C156.07 130.97 156.58 131.92 156.95 132.72H156.94Z" fill="white"/>
<path d="M162.1 127.34V125.46H163.17V127.34H165.13V128.36H163.17V130.29H164.59V135.26C165.6 134.7 166.41 134.06 167.03 133.34C166.51 132.48 166.08 131.31 165.75 129.83C165.54 130.18 165.32 130.5 165.08 130.81L164.41 129.86C164.85 129.22 165.23 128.53 165.54 127.79C165.77 127.24 166 126.41 166.2 125.33L167.31 125.46C167.2 126.06 167.07 126.61 166.93 127.1H170.57V128.18H169.69C169.61 130.17 169.22 131.79 168.52 133.03C168.46 133.13 168.41 133.22 168.35 133.31C168.9 133.95 169.65 134.59 170.61 135.26L170.04 136.34C169.06 135.67 168.27 134.97 167.67 134.23C167.02 134.97 166.18 135.67 165.14 136.34L164.59 135.44H161.57V136.2H160.51V130.3H162.11V128.37H160.11V127.35H162.11L162.1 127.34ZM163.52 134.45V131.27H161.56V134.45H163.52ZM167.69 132.4C168.26 131.39 168.58 129.98 168.66 128.18H166.56C166.51 128.28 166.48 128.37 166.45 128.44C166.44 128.46 166.43 128.49 166.43 128.49C166.76 130.25 167.18 131.56 167.7 132.4H167.69Z" fill="white"/>
<path d="M176.23 126.02V125.32H177.29V126.02H181.7V127H177.29V127.52H181.21V129.95H177.29V130.51H181.17V132.01H182.1V132.95H181.17V134.5H177.29V135.21C177.29 135.58 177.2 135.85 177.02 135.99C176.85 136.16 176.54 136.24 176.1 136.24H174.81L174.63 135.21C175.1 135.27 175.48 135.31 175.79 135.31C176.1 135.31 176.23 135.23 176.23 135.07V134.51H172.13V133.62H176.23V132.96H171.37V132.02H176.23V131.41H172.13V130.52H176.23V129.96H172.45V127.53H176.23V127.01H171.82V126.03H176.23V126.02ZM176.23 128.36H173.51V129.12H176.23V128.36ZM180.14 128.36H177.29V129.12H180.14V128.36ZM177.29 132.02H180.19V131.41H177.29V132.02ZM177.29 133.62H180.19V132.96H177.29V133.62Z" fill="white"/>
<path d="M68.28 156.99C68.28 161.86 68.23 164.75 68.16 165.64C68.09 166.35 67.9699 166.8 67.7999 167.03C67.5899 167.29 67.2299 167.44 66.6799 167.44C66.4099 167.44 66.0999 167.42 65.7499 167.39L65.58 166.12C65.93 166.19 66.2999 166.22 66.6899 166.22C66.9699 166.22 67.1299 165.92 67.1699 165.32C67.1899 165.01 67.1999 164.4 67.2299 163.46H65.79C65.72 163.84 65.6499 164.18 65.5599 164.49C65.2899 165.46 64.77 166.43 64.02 167.44L63.1799 166.64C63.8399 165.87 64.32 165.04 64.59 164.15C64.66 163.95 64.7099 163.72 64.7599 163.47H63.53V162.44H64.9C64.93 161.97 64.96 161.44 64.96 160.84V160.7H63.54V159.67H64.96V158.07H63.58V157H68.2999L68.28 156.99ZM65.97 160.83C65.97 161.41 65.95 161.95 65.9 162.43H67.22C67.22 161.91 67.2299 161.34 67.2399 160.69H65.96V160.83H65.97ZM65.97 159.65H67.2599V158.05H65.97V159.65ZM73.45 156.99V157.83C73.04 159.15 72.5999 160.36 72.1199 161.49C72.6899 162.2 73.0399 162.74 73.1899 163.11C73.3999 163.52 73.4999 163.91 73.4999 164.3C73.4999 165.04 73.35 165.6 73.08 165.96C72.79 166.33 72.09 166.51 70.96 166.51L70.65 165.33C70.97 165.4 71.2999 165.43 71.6299 165.43C71.9199 165.43 72.13 165.33 72.28 165.13C72.37 164.99 72.4299 164.71 72.4299 164.3C72.4399 164.06 72.37 163.75 72.21 163.38C72.04 163 71.6499 162.37 71.0499 161.5C71.5699 160.25 71.98 159.09 72.29 158.03H70.2499V167.54H69.22V157H73.45V156.99Z" fill="white"/>
<path d="M77.9001 156.89C77.6001 157.83 77.3101 158.63 77.0101 159.3V167.43H75.98V161.1C75.66 161.58 75.3201 162.05 74.9501 162.51L74.6001 161.19C75.0801 160.54 75.5001 159.87 75.8801 159.18C76.2401 158.56 76.6101 157.66 76.9601 156.47L77.8901 156.89H77.9001ZM80.5201 156.99C80.1301 158.14 79.7901 158.97 79.5201 159.48C79.3101 159.89 79.0201 160.33 78.6301 160.82H83.8301C83.6001 160.51 83.4201 160.21 83.2701 159.9C82.9301 159.29 82.6501 158.59 82.4401 157.82H81.0601V156.79H83.2401C83.5401 158.13 84.1701 159.4 85.1501 160.58L84.4401 161.61C84.2701 161.42 84.12 161.24 83.98 161.05C83.88 164.22 83.7601 165.92 83.6301 166.18C83.5201 166.59 83.33 166.89 83.11 167.06C82.92 167.26 82.5601 167.38 82.0401 167.43C81.6801 167.43 81.3601 167.41 81.1001 167.38L80.92 166.2C81.47 166.27 81.8001 166.3 81.9001 166.3C82.2101 166.3 82.4101 166.19 82.5301 165.95C82.7001 165.78 82.8401 164.44 82.9301 161.9H81.0301C80.8401 163.24 80.57 164.31 80.23 165.1C79.82 166.01 79.2201 166.8 78.3901 167.52L77.67 166.57C78.35 165.97 78.9001 165.3 79.2901 164.54C79.6001 163.88 79.8401 162.99 80.0001 161.89H78.4701V161C78.3301 161.16 78.2101 161.31 78.0701 161.47L77.1801 160.67C77.7701 160.05 78.2601 159.42 78.6301 158.8C78.9701 158.18 79.2601 157.43 79.5001 156.55L80.5301 156.98L80.5201 156.99Z" fill="white"/>
<path d="M91.97 156.65C91.92 156.9 91.8699 157.14 91.8199 157.36H96.2V158.25H91.58C91.51 158.44 91.45 158.63 91.39 158.81H95.1299V164.53H96.3799V165.42H86.1799V164.53H87.47V158.81H90.2999C90.3599 158.63 90.41 158.44 90.46 158.25H86.3699V157.36H90.6799C90.7299 157.08 90.7699 156.81 90.8199 156.52L91.9799 156.65H91.97ZM90.41 166.3C89.14 166.86 87.8799 167.28 86.6299 167.56L86.1899 166.54C87.5699 166.32 88.7799 166 89.7999 165.54L90.4199 166.3H90.41ZM94.1099 160.25V159.64H88.4899V160.25H94.1099ZM94.1099 161.65V161H88.4899V161.65H94.1099ZM94.1099 163.1V162.4H88.4899V163.1H94.1099ZM94.1099 164.52V163.86H88.4899V164.52H94.1099ZM96.4999 166.57L95.9299 167.52C94.7199 167.02 93.4899 166.63 92.2299 166.34L92.72 165.54C94.1 165.84 95.3599 166.19 96.4999 166.57Z" fill="white"/>
<path d="M99.72 160.17C99.42 162.52 99.0199 164.54 98.5099 166.21L97.4399 165.51C97.9599 163.78 98.3399 161.92 98.5599 159.93L99.72 160.16V160.17ZM101.64 159.47V165.84C101.64 166.13 101.77 166.26 102.04 166.26H104.09C104.23 166.26 104.34 166.18 104.41 166C104.49 165.83 104.55 164.99 104.57 163.51L105.64 163.83C105.55 165.58 105.4 166.6 105.2 166.91C105.02 167.22 104.7 167.39 104.22 167.39H101.64C101.3 167.39 101.02 167.28 100.82 167.08C100.61 166.86 100.52 166.58 100.52 166.22V159.48H101.64V159.47ZM104.57 159.65L103.46 160.45C102.96 159.59 102.27 158.6 101.41 157.5L102.34 156.89C103.29 157.97 104.03 158.88 104.56 159.65H104.57ZM107.78 165.23L106.66 165.75C106.22 163.73 105.72 161.94 105.19 160.36L106.26 159.99C106.84 161.63 107.34 163.38 107.78 165.23Z" fill="white"/>
<path d="M114.43 163.3C114.25 163.55 113.95 163.8 113.53 164.07L113.17 163.48C113.71 163.2 114.01 162.84 114.1 162.41H113.37V160.96H114.76V162.15C114.76 162.62 114.65 163 114.43 163.3Z" fill="white"/>
<path d="M125.28 156.99C125.28 161.86 125.23 164.75 125.16 165.64C125.09 166.35 124.97 166.8 124.8 167.03C124.59 167.29 124.23 167.44 123.68 167.44C123.41 167.44 123.1 167.42 122.75 167.39L122.58 166.12C122.93 166.19 123.3 166.22 123.69 166.22C123.98 166.22 124.13 165.92 124.17 165.32C124.19 165.01 124.2 164.4 124.23 163.46H122.79C122.72 163.84 122.65 164.18 122.56 164.49C122.29 165.46 121.77 166.43 121.02 167.44L120.18 166.64C120.84 165.87 121.32 165.04 121.59 164.15C121.66 163.95 121.71 163.72 121.76 163.47H120.53V162.44H121.9C121.93 161.97 121.96 161.44 121.96 160.84V160.7H120.54V159.67H121.96V158.07H120.58V157H125.3L125.28 156.99ZM122.97 160.83C122.97 161.41 122.95 161.95 122.9 162.43H124.22C124.22 161.91 124.23 161.34 124.24 160.69H122.96V160.83H122.97ZM122.97 159.65H124.26V158.05H122.97V159.65ZM130.45 156.99V157.83C130.04 159.15 129.6 160.36 129.12 161.49C129.69 162.2 130.04 162.74 130.19 163.11C130.4 163.52 130.5 163.91 130.5 164.3C130.5 165.04 130.35 165.6 130.08 165.96C129.79 166.33 129.09 166.51 127.96 166.51L127.65 165.33C127.97 165.4 128.3 165.43 128.63 165.43C128.92 165.43 129.13 165.33 129.28 165.13C129.37 164.99 129.43 164.71 129.43 164.3C129.44 164.06 129.37 163.75 129.21 163.38C129.04 163 128.65 162.37 128.05 161.5C128.57 160.25 128.98 159.09 129.29 158.03H127.25V167.54H126.22V157H130.45V156.99Z" fill="white"/>
<path d="M134.9 156.89C134.6 157.83 134.31 158.63 134.01 159.3V167.43H132.98V161.1C132.66 161.58 132.32 162.05 131.95 162.51L131.6 161.19C132.08 160.54 132.5 159.87 132.88 159.18C133.24 158.56 133.61 157.66 133.96 156.47L134.89 156.89H134.9ZM137.52 156.99C137.13 158.14 136.79 158.97 136.52 159.48C136.31 159.89 136.02 160.33 135.63 160.82H140.83C140.6 160.51 140.42 160.21 140.27 159.9C139.93 159.29 139.65 158.59 139.44 157.82H138.06V156.79H140.24C140.54 158.13 141.17 159.4 142.15 160.58L141.44 161.61C141.27 161.42 141.12 161.24 140.98 161.05C140.88 164.22 140.76 165.92 140.63 166.18C140.52 166.59 140.33 166.89 140.11 167.06C139.92 167.26 139.56 167.38 139.04 167.43C138.68 167.43 138.36 167.41 138.1 167.38L137.92 166.2C138.47 166.27 138.8 166.3 138.9 166.3C139.21 166.3 139.41 166.19 139.53 165.95C139.7 165.78 139.84 164.44 139.93 161.9H138.03C137.84 163.24 137.57 164.31 137.23 165.1C136.82 166.01 136.22 166.8 135.39 167.52L134.67 166.57C135.35 165.97 135.9 165.3 136.29 164.54C136.6 163.88 136.84 162.99 137 161.89H135.47V161C135.33 161.16 135.21 161.31 135.07 161.47L134.18 160.67C134.77 160.05 135.26 159.42 135.63 158.8C135.97 158.18 136.26 157.43 136.5 156.55L137.53 156.98L137.52 156.99Z" fill="white"/>
<path d="M143.85 157.73V156.55H144.88V157.73H146.57V156.55H147.6V157.73H148.31V158.67H147.6V163.5H148.49V164.44H142.97V163.5H143.86V158.67H143.19V157.73H143.86H143.85ZM145.32 165C144.92 165.89 144.46 166.64 143.94 167.29L143.04 166.63C143.56 166.04 144.03 165.36 144.46 164.57L145.32 165ZM146.56 159.65V158.67H144.87V159.65H146.56ZM146.56 161.53V160.55H144.87V161.53H146.56ZM146.56 163.5V162.37H144.87V163.5H146.56ZM147.94 166.07L147.05 166.73C146.77 166.25 146.38 165.69 145.89 165.05L146.65 164.57C147.2 165.16 147.62 165.66 147.94 166.07ZM152.84 156.99V166.16C152.84 166.57 152.74 166.87 152.53 167.06C152.36 167.24 152.07 167.34 151.67 167.34H150.61L150.38 166.26L151.45 166.31C151.7 166.31 151.84 166.15 151.85 165.84V163.78H149.64C149.61 164.09 149.57 164.39 149.53 164.69C149.35 165.72 149.04 166.72 148.61 167.71L147.77 166.92C148.17 166.12 148.44 165.28 148.6 164.39C148.71 163.48 148.78 162.64 148.78 161.86V156.99H152.84ZM151.86 162.7V160.83H149.76V161.86C149.76 162.15 149.75 162.42 149.74 162.7H151.86ZM151.86 159.8V158.06H149.76V159.8H151.86Z" fill="white"/>
<path d="M157.96 159.94C157.66 160.61 157.37 161.19 157.07 161.67V167.44H156V163.03C155.62 163.44 155.21 163.85 154.76 164.25L154.41 162.9C154.93 162.43 155.41 161.94 155.83 161.44C156.24 161 156.64 160.35 157.03 159.48L157.97 159.95L157.96 159.94ZM158.1 157.27C157.32 158.3 156.36 159.23 155.2 160.04L154.48 159.06C155.54 158.39 156.49 157.56 157.33 156.57L158.09 157.28L158.1 157.27ZM160.77 157.83V156.65H161.84V157.83H164.42V158.86H161.84V160.26H164.73V161.29H163.66V162.42H164.73V163.45H163.66V166.16C163.66 166.6 163.57 166.92 163.39 167.1C163.22 167.29 162.91 167.39 162.47 167.39H161.13L160.91 166.17C161.41 166.24 161.82 166.27 162.15 166.27C162.45 166.27 162.59 166.19 162.59 165.99V163.46H157.92V162.43H162.59V161.3H157.96V160.27H160.76V158.87H158.36V157.84H160.76L160.77 157.83ZM161.09 165.55L160.11 166.26C159.81 165.66 159.4 164.98 158.9 164.2L159.7 163.68C160.29 164.41 160.75 165.03 161.09 165.55Z" fill="white"/>
<path d="M34.4301 188.89C33.8901 189.11 33.3001 189.29 32.6501 189.44V191.14H35.0601V187.76H36.17V191.14H39.2901V192.17H36.17C36.19 193.38 36.3001 194.39 36.5001 195.18C36.9601 194.51 37.3901 193.59 37.7801 192.4L38.8101 192.82C38.2601 194.27 37.7001 195.34 37.1601 196.03C37.0701 196.14 36.99 196.23 36.92 196.33C37 196.5 37.0901 196.65 37.1901 196.8C37.5101 197.24 37.75 197.46 37.92 197.46C38.06 197.46 38.2401 196.76 38.4601 195.35L39.3901 196.11C39.0901 197.38 38.8301 198.14 38.5901 198.4C38.4001 198.62 38.17 198.74 37.92 198.74C37.44 198.74 36.9701 198.42 36.5001 197.79C36.3401 197.6 36.1901 197.39 36.0701 197.15C35.4101 197.69 34.6301 198.17 33.7401 198.59L33.0701 197.65C34.1101 197.25 34.9601 196.75 35.6501 196.14C35.5601 195.89 35.4901 195.62 35.4301 195.35C35.2101 194.44 35.1001 193.37 35.0801 192.17H32.67V193.84C33.32 193.65 33.9901 193.42 34.6801 193.16V194.32C34.0301 194.56 33.36 194.79 32.67 194.98V197.51C32.67 197.92 32.5801 198.21 32.4001 198.37C32.2301 198.54 31.9201 198.63 31.4701 198.63H30.23L30.0101 197.5C30.4701 197.56 30.8501 197.6 31.1601 197.6C31.4701 197.6 31.6001 197.5 31.6001 197.31V195.26C30.8301 195.45 30.0201 195.62 29.2001 195.76L29.0601 194.55C29.8701 194.48 30.7101 194.33 31.6001 194.12V192.17H29.2001V191.14H31.6001V189.68C30.9501 189.81 30.2601 189.92 29.5101 190.02L29.3301 188.99C31.1101 188.81 32.7001 188.44 34.0901 187.86L34.4401 188.89H34.4301ZM39.0101 190.16L38.0401 190.86C37.6501 190.26 37.14 189.58 36.48 188.8L37.2801 188.28C38.0101 189.01 38.5901 189.64 39.0101 190.16Z" fill="white"/>
<path d="M43.3401 188.19C43.1201 188.97 42.9101 189.65 42.6801 190.23V198.64H41.6501V192.28C41.3501 192.78 41.02 193.28 40.67 193.76L40.3201 192.45C40.7401 191.8 41.1201 191.14 41.4501 190.46C41.7801 189.84 42.1001 188.94 42.4101 187.76L43.3401 188.19ZM46.6301 193.58H44.5001V198.69H43.4701V188.33H46.6301V193.58ZM45.6201 190.44V189.23H44.5001V190.44H45.6201ZM45.6201 192.69V191.32H44.5001V192.69H45.6201ZM50.3401 188.32V197.55C50.3401 197.95 50.2301 198.25 50.0101 198.45C49.8301 198.63 49.5201 198.73 49.0901 198.73H48.0601L47.8401 197.65L48.9101 197.7C49.1601 197.69 49.3001 197.54 49.3101 197.23V193.62H47.17V188.32H50.3401ZM49.3101 190.53V189.22H48.1501V190.53H49.3101ZM49.3101 191.42H48.1501V192.74H49.3101V191.42Z" fill="white"/>
<path d="M54.5201 187.86V195.38C55.3201 195.07 56.1201 194.7 56.9301 194.28L57.1901 195.41C55.8701 196.19 54.24 196.87 52.3 197.47L51.8101 196.29C52.3201 196.16 52.84 196 53.36 195.82V187.86H54.5201ZM60.6201 187.86C60.5901 190.33 60.3401 192.32 59.8701 193.83C60.7701 194.98 61.5501 196.13 62.1801 197.27L61.2501 198.25C60.7801 197.29 60.1601 196.25 59.3701 195.14C58.7501 196.39 57.6101 197.56 55.9501 198.68L55.1501 197.65C56.7201 196.68 57.7801 195.65 58.3301 194.54C59.0301 193.17 59.4001 190.94 59.4601 187.85H60.6201V187.86ZM58.17 192.26L57.0601 193.06C56.6601 192.05 56.1301 190.89 55.4501 189.59L56.3901 188.98C57.1401 190.25 57.73 191.34 58.17 192.25V192.26Z" fill="white"/>
<path d="M66.99 188.09V188.7H68.37C68.23 188.4 68.09 188.11 67.93 187.85L68.86 187.72C69.01 188.01 69.15 188.34 69.28 188.7H70.64V189.59H70.17L69.82 191.09H70.9V187.72H71.84V191.09H73.71V192.03H71.84C71.84 192.94 71.87 193.73 71.92 194.41C72.18 193.86 72.42 193.23 72.65 192.55L73.49 192.87C72.94 194.26 72.46 195.28 72.07 195.9C72.14 196.33 72.23 196.72 72.34 197.03C72.49 197.49 72.6 197.7 72.69 197.7C72.78 197.7 72.9 197.11 73.04 195.91L73.84 196.52C73.61 197.6 73.4 198.26 73.21 198.49C73.06 198.67 72.89 198.77 72.69 198.77C72.39 198.77 72.09 198.46 71.79 197.85C71.64 197.56 71.52 197.23 71.41 196.84C71.02 197.32 70.54 197.82 69.96 198.4L69.25 197.75C69.43 197.58 69.59 197.43 69.75 197.27H67.87V197.83H66.98V192.68H70.18V196.82C70.54 196.42 70.88 196.04 71.15 195.67C71.13 195.6 71.12 195.51 71.12 195.44C70.97 194.47 70.89 193.33 70.89 192.02H66.54V198.72H65.64V196.72C64.97 197.01 64.22 197.31 63.37 197.6L63.15 196.52C63.32 196.5 63.48 196.46 63.64 196.41V189.02H63.2V188.08H66.98L66.99 188.09ZM65.64 190.48V189.03H64.53V190.48H65.64ZM65.64 193.01V191.41H64.53V193.01H65.64ZM65.64 195.78V193.95H64.53V196.18C64.91 196.07 65.27 195.94 65.64 195.78ZM67.6 191.09L67.33 189.59H66.9V189.03H66.55V191.09H67.61H67.6ZM69.3 194.56V193.58H67.88V194.56H69.3ZM69.3 196.38V195.35H67.88V196.38H69.3ZM69.02 191.09L69.36 189.59H68.13L68.4 191.09H69.02ZM73.67 190.29L72.86 190.67C72.64 189.95 72.4 189.3 72.15 188.75L72.95 188.46C73.22 189.04 73.46 189.64 73.67 190.28V190.29Z" fill="white"/>
<path d="M80.43 187.67V190.52C80.81 192.27 81.38 193.71 82.13 194.83C82.73 195.77 83.73 196.72 85.11 197.7L84.36 198.77C83.22 197.98 82.35 197.22 81.77 196.47C81.01 195.56 80.4 194.44 79.95 193.11C79.57 194.5 79.06 195.57 78.41 196.31C77.73 197.15 76.7 197.97 75.32 198.77L74.61 197.7C76.32 196.62 77.51 195.43 78.17 194.14C78.82 192.92 79.16 191.71 79.2 190.53V187.68H80.44L80.43 187.67Z" fill="white"/>
<path d="M89.4299 187.9C89.2899 188.52 89.0999 189.11 88.8599 189.64H90.4999V192.15C90.8299 191.57 91.09 191 91.27 190.42C91.5 189.75 91.68 188.85 91.83 187.72L92.95 187.9C92.85 188.55 92.74 189.11 92.64 189.59H96.15C96.15 193.81 96.08 196.31 95.97 197.07C95.86 197.67 95.66 198.08 95.39 198.27C95.07 198.51 94.4799 198.63 93.6199 198.63C93.3699 198.63 93.08 198.61 92.77 198.58L92.6 197.4C92.93 197.47 93.2699 197.5 93.6299 197.5C94.3499 197.5 94.75 197.25 94.84 196.74C94.98 196.12 95.07 194.09 95.09 190.66H92.3799C92.3499 190.74 92.3199 190.82 92.3099 190.86C92.0599 191.72 91.64 192.65 91.04 193.61L90.4999 192.91V197.82H89.52V197.26H87.4299V198.16H86.45V189.63H87.8599C88.0999 189.05 88.28 188.42 88.41 187.75L89.4199 187.89L89.4299 187.9ZM89.52 192.96V190.62H87.4299V192.96H89.52ZM89.52 196.28V193.89H87.4299V196.28H89.52ZM94.2399 195.12L93.1699 195.86C92.8499 195 92.41 193.99 91.84 192.86L92.7299 192.25C93.3699 193.37 93.8799 194.32 94.2499 195.12H94.2399Z" fill="white"/>
<path d="M99.72 191.37C99.42 193.72 99.0199 195.74 98.5099 197.41L97.4399 196.71C97.9599 194.98 98.3399 193.12 98.5599 191.13L99.72 191.36V191.37ZM101.64 190.67V197.04C101.64 197.33 101.77 197.46 102.04 197.46H104.09C104.23 197.46 104.34 197.38 104.41 197.2C104.49 197.03 104.55 196.19 104.57 194.71L105.64 195.03C105.55 196.78 105.4 197.8 105.2 198.11C105.02 198.42 104.7 198.59 104.22 198.59H101.64C101.3 198.59 101.02 198.48 100.82 198.28C100.61 198.06 100.52 197.78 100.52 197.42V190.68H101.64V190.67ZM104.57 190.85L103.46 191.65C102.96 190.79 102.27 189.8 101.41 188.7L102.34 188.09C103.29 189.17 104.03 190.08 104.56 190.85H104.57ZM107.78 196.43L106.66 196.95C106.22 194.94 105.72 193.14 105.19 191.56L106.26 191.19C106.84 192.83 107.34 194.58 107.78 196.43Z" fill="white"/>
<path d="M114.43 194.5C114.25 194.75 113.95 195 113.53 195.27L113.17 194.68C113.71 194.4 114.01 194.04 114.1 193.61H113.37V192.16H114.76V193.35C114.76 193.82 114.65 194.2 114.43 194.5Z" fill="white"/>
<path d="M125.63 188.89C125.09 189.11 124.5 189.29 123.85 189.44V191.14H126.26V187.76H127.37V191.14H130.49V192.17H127.37C127.39 193.38 127.5 194.39 127.7 195.18C128.16 194.51 128.59 193.59 128.98 192.4L130.01 192.82C129.46 194.27 128.9 195.34 128.36 196.03C128.27 196.14 128.19 196.23 128.12 196.33C128.2 196.5 128.29 196.65 128.39 196.8C128.71 197.24 128.95 197.46 129.12 197.46C129.26 197.46 129.44 196.76 129.66 195.35L130.59 196.11C130.29 197.38 130.03 198.14 129.79 198.4C129.6 198.62 129.37 198.74 129.12 198.74C128.64 198.74 128.17 198.42 127.7 197.79C127.54 197.6 127.39 197.39 127.27 197.15C126.61 197.69 125.83 198.17 124.94 198.59L124.27 197.65C125.31 197.25 126.16 196.75 126.85 196.14C126.76 195.89 126.69 195.62 126.63 195.35C126.41 194.44 126.3 193.37 126.28 192.17H123.87V193.84C124.52 193.65 125.19 193.42 125.88 193.16V194.32C125.23 194.56 124.56 194.79 123.87 194.98V197.51C123.87 197.92 123.78 198.21 123.6 198.37C123.43 198.54 123.12 198.63 122.67 198.63H121.43L121.21 197.5C121.67 197.56 122.05 197.6 122.36 197.6C122.67 197.6 122.8 197.5 122.8 197.31V195.26C122.03 195.45 121.22 195.62 120.4 195.76L120.26 194.55C121.07 194.48 121.91 194.33 122.8 194.12V192.17H120.4V191.14H122.8V189.68C122.15 189.81 121.46 189.92 120.71 190.02L120.53 188.99C122.31 188.81 123.9 188.44 125.29 187.86L125.64 188.89H125.63ZM130.21 190.16L129.24 190.86C128.85 190.26 128.34 189.58 127.68 188.8L128.48 188.28C129.21 189.01 129.79 189.64 130.21 190.16Z" fill="white"/>
<path d="M134.54 188.19C134.32 188.97 134.11 189.65 133.88 190.23V198.64H132.85V192.28C132.55 192.78 132.22 193.28 131.87 193.76L131.52 192.45C131.94 191.8 132.32 191.14 132.65 190.46C132.98 189.84 133.3 188.94 133.61 187.76L134.54 188.19ZM137.83 193.58H135.7V198.69H134.67V188.33H137.83V193.58ZM136.82 190.44V189.23H135.7V190.44H136.82ZM136.82 192.69V191.32H135.7V192.69H136.82ZM141.54 188.32V197.55C141.54 197.95 141.43 198.25 141.21 198.45C141.03 198.63 140.72 198.73 140.29 198.73H139.26L139.04 197.65L140.11 197.7C140.36 197.69 140.5 197.54 140.51 197.23V193.62H138.37V188.32H141.54ZM140.51 190.53V189.22H139.35V190.53H140.51ZM140.51 191.42H139.35V192.74H140.51V191.42Z" fill="white"/>
<path d="M145.72 187.86V195.38C146.52 195.07 147.32 194.7 148.13 194.28L148.39 195.41C147.07 196.19 145.44 196.87 143.5 197.47L143.01 196.29C143.52 196.16 144.04 196 144.56 195.82V187.86H145.72ZM151.82 187.86C151.79 190.33 151.54 192.32 151.07 193.83C151.97 194.98 152.75 196.13 153.38 197.27L152.45 198.25C151.98 197.29 151.36 196.25 150.57 195.14C149.95 196.39 148.81 197.56 147.15 198.68L146.35 197.65C147.92 196.68 148.98 195.65 149.53 194.54C150.23 193.17 150.6 190.94 150.66 187.85H151.82V187.86ZM149.37 192.26L148.26 193.06C147.86 192.05 147.33 190.89 146.65 189.59L147.59 188.98C148.34 190.25 148.93 191.34 149.37 192.25V192.26Z" fill="white"/>
<path d="M158.19 188.09V188.7H159.57C159.43 188.4 159.29 188.11 159.13 187.85L160.06 187.72C160.21 188.01 160.35 188.34 160.48 188.7H161.84V189.59H161.37L161.02 191.09H162.1V187.72H163.04V191.09H164.91V192.03H163.04C163.04 192.94 163.07 193.73 163.12 194.41C163.38 193.86 163.62 193.23 163.85 192.55L164.69 192.87C164.14 194.26 163.66 195.28 163.27 195.9C163.34 196.33 163.43 196.72 163.54 197.03C163.69 197.49 163.8 197.7 163.89 197.7C163.98 197.7 164.1 197.11 164.24 195.91L165.04 196.52C164.81 197.6 164.6 198.26 164.41 198.49C164.26 198.67 164.09 198.77 163.89 198.77C163.59 198.77 163.29 198.46 162.99 197.85C162.84 197.56 162.72 197.23 162.61 196.84C162.22 197.32 161.74 197.82 161.16 198.4L160.45 197.75C160.63 197.58 160.79 197.43 160.95 197.27H159.07V197.83H158.18V192.68H161.38V196.82C161.74 196.42 162.08 196.04 162.35 195.67C162.33 195.6 162.32 195.51 162.32 195.44C162.17 194.47 162.09 193.33 162.09 192.02H157.74V198.72H156.84V196.72C156.17 197.01 155.42 197.31 154.57 197.6L154.35 196.52C154.52 196.5 154.68 196.46 154.84 196.41V189.02H154.4V188.08H158.18L158.19 188.09ZM156.84 190.48V189.03H155.73V190.48H156.84ZM156.84 193.01V191.41H155.73V193.01H156.84ZM156.84 195.78V193.95H155.73V196.18C156.11 196.07 156.47 195.94 156.84 195.78ZM158.8 191.09L158.53 189.59H158.1V189.03H157.75V191.09H158.81H158.8ZM160.5 194.56V193.58H159.08V194.56H160.5ZM160.5 196.38V195.35H159.08V196.38H160.5ZM160.22 191.09L160.56 189.59H159.33L159.6 191.09H160.22ZM164.87 190.29L164.06 190.67C163.84 189.95 163.6 189.3 163.35 188.75L164.15 188.46C164.42 189.04 164.66 189.64 164.87 190.28V190.29Z" fill="white"/>
<path d="M171.63 187.67V190.52C172.01 192.27 172.58 193.71 173.33 194.83C173.93 195.77 174.93 196.72 176.31 197.7L175.56 198.77C174.42 197.98 173.55 197.22 172.97 196.47C172.21 195.56 171.6 194.44 171.15 193.11C170.77 194.5 170.26 195.57 169.61 196.31C168.93 197.15 167.9 197.97 166.52 198.77L165.81 197.7C167.52 196.62 168.71 195.43 169.37 194.14C170.02 192.92 170.36 191.71 170.4 190.53V187.68H171.64L171.63 187.67Z" fill="white"/>
<path d="M180.63 187.9C180.49 188.52 180.3 189.11 180.06 189.64H181.7V192.15C182.03 191.57 182.29 191 182.47 190.42C182.7 189.75 182.88 188.85 183.03 187.72L184.15 187.9C184.05 188.55 183.94 189.11 183.84 189.59H187.35C187.35 193.81 187.28 196.31 187.17 197.07C187.06 197.67 186.86 198.08 186.59 198.27C186.27 198.51 185.68 198.63 184.82 198.63C184.57 198.63 184.28 198.61 183.97 198.58L183.8 197.4C184.13 197.47 184.47 197.5 184.83 197.5C185.55 197.5 185.95 197.25 186.04 196.74C186.18 196.12 186.27 194.09 186.29 190.66H183.58C183.55 190.74 183.52 190.82 183.51 190.86C183.26 191.72 182.84 192.65 182.24 193.61L181.7 192.91V197.82H180.72V197.26H178.63V198.16H177.65V189.63H179.06C179.3 189.05 179.48 188.42 179.61 187.75L180.62 187.89L180.63 187.9ZM180.72 192.96V190.62H178.63V192.96H180.72ZM180.72 196.28V193.89H178.63V196.28H180.72ZM185.44 195.12L184.37 195.86C184.05 195 183.61 193.99 183.04 192.86L183.93 192.25C184.57 193.37 185.08 194.32 185.45 195.12H185.44Z" fill="white"/>
<path d="M190.92 191.37C190.62 193.72 190.22 195.74 189.71 197.41L188.64 196.71C189.16 194.98 189.54 193.12 189.76 191.13L190.92 191.36V191.37ZM192.84 190.67V197.04C192.84 197.33 192.97 197.46 193.24 197.46H195.29C195.43 197.46 195.54 197.38 195.61 197.2C195.69 197.03 195.75 196.19 195.77 194.71L196.84 195.03C196.75 196.78 196.6 197.8 196.4 198.11C196.22 198.42 195.9 198.59 195.42 198.59H192.84C192.5 198.59 192.22 198.48 192.02 198.28C191.81 198.06 191.72 197.78 191.72 197.42V190.68H192.84V190.67ZM195.77 190.85L194.66 191.65C194.16 190.79 193.47 189.8 192.61 188.7L193.54 188.09C194.49 189.17 195.23 190.08 195.76 190.85H195.77ZM198.98 196.43L197.86 196.95C197.42 194.94 196.92 193.14 196.39 191.56L197.46 191.19C198.04 192.83 198.54 194.58 198.98 196.43Z" fill="white"/>
<path d="M42.21 220.6C42.07 220.17 41.91 219.77 41.74 219.39L42.77 219.25C42.92 219.66 43.07 220.11 43.2 220.61H44C44.14 220.08 44.24 219.53 44.32 218.97L45.3 219.11C45.2 219.64 45.09 220.13 44.98 220.61H49.45C49.36 221.45 49.26 222.15 49.14 222.72H50.2C50.11 223.55 50.02 224.26 49.9 224.83H50.78C50.75 227.52 50.52 229.05 50.11 229.44C49.88 229.78 49.11 229.94 47.8 229.94L47.57 228.76C47.91 228.82 48.2 228.86 48.42 228.86C48.84 228.86 49.17 228.76 49.41 228.55C49.6 228.36 49.73 227.42 49.8 225.77H42.93C42.43 226.55 41.89 227.21 41.3 227.74L40.41 227.08C41.94 225.59 43.04 223.78 43.72 221.65H40.98V220.62H42.21V220.6ZM43.7 226.74C43.4 227.9 42.98 228.9 42.45 229.74L41.56 229.13C42.11 228.34 42.49 227.47 42.72 226.55L43.7 226.74ZM43.46 224.82H48.85C48.92 224.51 48.98 224.12 49.03 223.69H43.98C43.81 224.1 43.64 224.47 43.46 224.82ZM45.43 229.55L44.36 229.69C44.34 228.42 44.26 227.44 44.14 226.74L45.03 226.64C45.22 227.36 45.36 228.33 45.43 229.54V229.55ZM44.36 222.71H48.1C48.17 222.41 48.23 222.05 48.28 221.63H44.7C44.59 222.01 44.47 222.37 44.36 222.71ZM47.35 228.75L46.37 228.98C46.21 228.18 45.99 227.4 45.74 226.64L46.63 226.36C46.9 227.06 47.14 227.86 47.35 228.75ZM48.99 227.99L48.1 228.33C47.93 227.66 47.72 227.01 47.48 226.36L48.23 226.17C48.55 226.84 48.8 227.44 48.98 227.99H48.99Z" fill="white"/>
<path d="M55.1501 219.34C54.8301 220.1 54.5 220.72 54.17 221.21V225.8H53.1401V222.45C52.8301 222.79 52.5001 223.1 52.1601 223.41L51.8101 222.14C52.3001 221.7 52.7501 221.24 53.1301 220.76C53.5201 220.34 53.8801 219.73 54.2501 218.91L55.1501 219.33V219.34ZM53.9901 226.69C53.6701 227.78 53.2901 228.72 52.8701 229.5L51.8901 228.76C52.3201 228.05 52.7301 227.22 53.1001 226.28L53.9901 226.7V226.69ZM55.6401 226.17V228.28C55.6401 228.53 55.7701 228.65 56.0401 228.65H58.5701C58.7501 228.65 58.89 228.6 58.98 228.51C59.08 228.41 59.1501 227.97 59.2001 227.15L60.23 227.47C60.13 228.54 59.9701 229.15 59.7501 229.34C59.5601 229.53 59.2101 229.63 58.7101 229.63H55.6401C55.3101 229.63 55.0501 229.53 54.8501 229.35C54.6601 229.16 54.5701 228.91 54.5701 228.59V226.16H55.6401V226.17ZM57.5401 219.09C57.4301 219.31 57.32 219.51 57.23 219.7H61.86C61.77 220.47 61.6001 221.21 61.3701 221.94L60.3101 221.62C60.4401 221.36 60.5501 221.04 60.6401 220.68H59.0601V224.61C59.0601 224.99 58.97 225.26 58.8 225.4C58.64 225.57 58.3401 225.64 57.9101 225.64H56.8401L56.6601 224.61C57.0601 224.68 57.3901 224.71 57.6401 224.71C57.8901 224.71 58.0401 224.64 58.0401 224.47V220.68H56.6601C56.2301 221.35 55.7801 221.89 55.3301 222.32L54.6201 221.43C55.4701 220.66 56.1201 219.82 56.5801 218.9L57.55 219.08L57.5401 219.09ZM57.1901 222.18C56.8301 223.26 56.32 224.17 55.67 224.94L54.7801 224.34C55.4601 223.62 55.9301 222.83 56.2001 221.99L57.1801 222.18H57.1901ZM58.4901 227.47L57.5101 227.94C57.1901 227.28 56.85 226.69 56.48 226.16L57.4601 225.84C57.8501 226.36 58.1901 226.9 58.4901 227.47ZM62.05 224.34L61.0701 225.04C60.7301 224.28 60.2501 223.41 59.6501 222.43L60.4501 221.91C61.1301 222.86 61.6701 223.67 62.0601 224.34H62.05ZM62.4001 228.6L61.3701 229.07C60.8701 227.95 60.32 226.96 59.73 226.07L60.7601 225.75C61.3901 226.64 61.9301 227.6 62.4001 228.6Z" fill="white"/>
<path d="M69.23 226.12C69 225.75 68.66 225.28 68.19 224.72C67.9 224.4 67.46 223.99 66.87 223.51L67.6 222.89C67.99 223.18 68.43 223.57 68.94 224.09C69.26 224.43 69.61 224.88 70 225.46L69.23 226.13V226.12Z" fill="white"/>
<path d="M76.41 220.6C76.27 220.17 76.11 219.77 75.94 219.39L76.97 219.25C77.12 219.66 77.27 220.11 77.4 220.61H78.2C78.34 220.08 78.44 219.53 78.52 218.97L79.5 219.11C79.4 219.64 79.29 220.13 79.18 220.61H83.65C83.56 221.45 83.46 222.15 83.34 222.72H84.4C84.31 223.55 84.22 224.26 84.1 224.83H84.98C84.95 227.52 84.72 229.05 84.31 229.44C84.08 229.78 83.31 229.94 82 229.94L81.77 228.76C82.11 228.82 82.4 228.86 82.62 228.86C83.04 228.86 83.37 228.76 83.61 228.55C83.8 228.36 83.93 227.42 84 225.77H77.13C76.63 226.55 76.09 227.21 75.5 227.74L74.61 227.08C76.14 225.59 77.24 223.78 77.92 221.65H75.18V220.62H76.41V220.6ZM77.9 226.74C77.6 227.9 77.18 228.9 76.65 229.74L75.76 229.13C76.31 228.34 76.69 227.47 76.92 226.55L77.9 226.74ZM77.66 224.82H83.05C83.12 224.51 83.18 224.12 83.23 223.69H78.18C78.01 224.1 77.84 224.47 77.66 224.82ZM79.63 229.55L78.56 229.69C78.54 228.42 78.46 227.44 78.34 226.74L79.23 226.64C79.42 227.36 79.56 228.33 79.63 229.54V229.55ZM78.56 222.71H82.3C82.37 222.41 82.43 222.05 82.48 221.63H78.9C78.79 222.01 78.67 222.37 78.56 222.71ZM81.55 228.75L80.57 228.98C80.41 228.18 80.19 227.4 79.94 226.64L80.83 226.36C81.1 227.06 81.34 227.86 81.55 228.75ZM83.19 227.99L82.3 228.33C82.13 227.66 81.92 227.01 81.68 226.36L82.43 226.17C82.75 226.84 83 227.44 83.18 227.99H83.19Z" fill="white"/>
<path d="M94.82 221.63V222.61H92.44C92.13 222.87 91.82 223.09 91.52 223.28C91.92 223.82 92.22 224.35 92.4 224.85C93.23 224.47 94.03 223.89 94.78 223.12L95.58 223.92C95.1 224.39 94.59 224.78 94.04 225.11C94.29 225.73 94.61 226.31 94.97 226.84C95.32 227.34 95.82 227.88 96.47 228.46L95.75 229.44C95.02 228.74 94.43 228.02 93.99 227.31C93.66 226.82 93.37 226.24 93.15 225.59C92.97 225.69 92.81 225.76 92.65 225.82C92.75 226.34 92.81 226.84 92.81 227.34C92.81 228.25 92.68 228.89 92.43 229.28C92.16 229.7 91.35 229.92 90 229.92L89.65 228.74C89.67 228.8 89.89 228.84 90.28 228.84C90.87 228.84 91.26 228.76 91.42 228.61C91.6 228.38 91.7 227.96 91.7 227.34C91.7 227.17 91.69 226.99 91.67 226.81C91.03 227.34 90.45 227.75 89.93 228.01C89.1 228.47 88.06 228.91 86.81 229.35L86.23 228.32C87.47 227.97 88.56 227.55 89.49 227.06C90.23 226.68 90.89 226.22 91.48 225.69C91.46 225.59 91.42 225.49 91.4 225.38C91.37 225.27 91.33 225.16 91.29 225.04C90.67 225.51 90.12 225.86 89.63 226.08C88.9 226.44 87.98 226.8 86.86 227.14L86.32 226.16C87.41 225.9 88.38 225.57 89.21 225.19C89.83 224.91 90.38 224.59 90.89 224.21C90.8 224.07 90.71 223.91 90.6 223.75C89.61 224.21 88.46 224.59 87.16 224.9L86.58 223.92C87.99 223.63 89.11 223.33 89.92 223.02C90.26 222.89 90.58 222.74 90.88 222.6H87.7V221.62H94.82V221.63ZM91.74 219.81H96.2V222.24H95.17V220.84H87.38V222.24H86.35V219.81H90.56C90.42 219.57 90.29 219.33 90.14 219.1L91.34 218.92C91.48 219.18 91.6 219.48 91.74 219.81Z" fill="white"/>
<path d="M103.03 225.7C102.85 225.95 102.55 226.2 102.13 226.47L101.77 225.88C102.31 225.6 102.61 225.24 102.7 224.81H101.97V223.36H103.36V224.55C103.36 225.02 103.25 225.4 103.03 225.7Z" fill="white"/>
<path d="M117.76 220.84L117.69 222.05H119.31V222.76H117.65L117.58 223.94H110.32L110.41 222.76H108.81V222.05H110.45L110.54 220.84H117.75H117.76ZM114.71 219.52H119.05V221.58H118.02V220.37H110.1V221.58H109.07V219.52H113.58C113.44 219.33 113.31 219.14 113.16 218.96L114.28 218.83C114.42 219.05 114.57 219.27 114.7 219.53L114.71 219.52ZM118.07 224.4V228.43H115.85C116.81 228.61 117.8 228.85 118.83 229.17L118.52 230.06C117.38 229.64 116.19 229.33 114.96 229.12L115.27 228.42H112.92L113.22 228.84C112.65 229.14 112.14 229.36 111.7 229.5C111.18 229.67 110.53 229.84 109.75 230L109.26 229.06C110.01 228.94 110.68 228.8 111.25 228.64C111.49 228.57 111.72 228.5 111.93 228.41H110V224.38H118.06L118.07 224.4ZM117.09 225.52V225.1H110.99V225.52H117.09ZM117.09 226.65V226.18H110.99V226.65H117.09ZM117.09 227.31H110.99V227.73H117.09V227.31ZM113.43 223.23L113.46 222.76H111.36L111.33 223.23H113.43ZM113.52 222.05L113.55 221.53H111.45L111.42 222.05H113.52ZM114.36 223.23H116.66L116.68 222.76H114.39L114.36 223.23ZM114.45 222.05H116.72L116.75 221.53H114.48L114.45 222.05Z" fill="white"/>
<path d="M124.39 219.67V220.75H122.83V223.14H124.16V224.22H122.83V226.88C123.35 226.69 123.87 226.5 124.35 226.28V227.46C123.2 227.99 121.89 228.47 120.43 228.91L120.12 227.73C120.7 227.59 121.26 227.42 121.81 227.24V224.22H120.43V223.14H121.81V220.75H120.34V219.67H124.4H124.39ZM130.09 219.39V226.08H128.76V228.43C128.76 228.65 128.89 228.75 129.16 228.75H129.47C129.58 228.75 129.68 228.7 129.74 228.58C129.8 228.46 129.84 227.92 129.87 226.96L130.85 227.3C130.77 228.48 130.65 229.16 130.46 229.36C130.3 229.58 130.02 229.68 129.61 229.68H128.77C128.45 229.68 128.2 229.6 128.02 229.43C127.84 229.24 127.75 228.99 127.75 228.7V226.07H126.83C126.74 227.08 126.53 227.83 126.24 228.32C125.88 228.92 125.25 229.46 124.37 229.91L123.65 228.96C124.45 228.62 124.99 228.24 125.29 227.82C125.54 227.47 125.71 226.88 125.8 226.06H124.81V219.37H130.11L130.09 219.39ZM129.11 221.26V220.32H125.77V221.26H129.11ZM129.11 223.18V222.2H125.77V223.18H129.11ZM129.11 224.12H125.77V225.15H129.11V224.12Z" fill="white"/>
<path d="M141.93 219.44V220.51H137.34V221.41H141V226.23H137.12C136.97 226.9 136.76 227.46 136.47 227.92C136.81 228.06 137.14 228.18 137.46 228.28C138.39 228.58 139.93 228.78 142.06 228.9L141.79 229.97C139.78 229.83 138.27 229.59 137.22 229.24C136.74 229.1 136.27 228.92 135.82 228.7C135.02 229.38 133.78 229.83 132.09 230.02L131.6 228.95C133 228.85 134.06 228.6 134.77 228.16C134.18 227.84 133.61 227.45 133.06 227.02L133.82 226.46C134.4 226.87 134.96 227.2 135.51 227.48C135.76 227.14 135.94 226.72 136.07 226.23H132.62V221.41H136.32V220.51H131.82V219.44H141.93ZM136.32 223.28V222.39H133.69V223.28H136.32ZM136.31 224.26H133.69V225.24H136.26C136.29 224.93 136.32 224.6 136.32 224.26H136.31ZM139.92 224.26H137.33C137.32 224.62 137.3 224.96 137.27 225.24H139.91V224.26H139.92ZM137.33 223.28H139.92V222.39H137.33V223.28Z" fill="white"/>
<path d="M144.36 220.97C144.47 220.32 144.57 219.67 144.65 219L145.63 219.1C145.55 219.75 145.47 220.37 145.38 220.97H147.55V222C147.42 223.34 147.23 224.48 146.97 225.44C146.82 225.94 146.65 226.4 146.45 226.81C146.93 227.19 147.38 227.59 147.82 228L147.25 228.9C146.89 228.53 146.45 228.13 145.94 227.72C145.46 228.46 144.73 229.22 143.73 230.01L142.93 229.07C143.82 228.42 144.53 227.74 145.03 227.03C144.48 226.65 143.89 226.25 143.24 225.84C143.62 224.6 143.94 223.32 144.2 221.99H143.06V220.96H144.38L144.36 220.97ZM144.51 225.43C144.87 225.67 145.22 225.9 145.55 226.14C145.56 226.13 145.57 226.1 145.58 226.08C146.02 225.19 146.32 223.84 146.48 222H145.21C145 223.21 144.77 224.35 144.5 225.43H144.51ZM153.15 219.47V220.6C152.58 221.42 151.94 222.18 151.24 222.89V223.89H153.47V225.01H151.24V228.86C151.22 229.15 151.15 229.38 151.02 229.54C150.83 229.77 150.6 229.89 150.35 229.89H148.44L148.22 228.76C148.69 228.78 149.19 228.81 149.72 228.81C149.96 228.81 150.08 228.71 150.08 228.52V225.01H147.54V223.89H150.08V222.52C150.63 222.09 151.21 221.44 151.85 220.6H147.8V219.47H153.15Z" fill="white"/>
<path d="M157.83 219.1C157.69 219.72 157.5 220.31 157.26 220.84H158.9V223.35C159.23 222.77 159.49 222.2 159.67 221.62C159.9 220.95 160.08 220.05 160.23 218.92L161.35 219.1C161.25 219.75 161.14 220.31 161.04 220.79H164.55C164.55 225.01 164.48 227.51 164.37 228.27C164.26 228.87 164.06 229.28 163.79 229.47C163.47 229.71 162.88 229.83 162.02 229.83C161.77 229.83 161.48 229.81 161.17 229.78L161 228.6C161.33 228.67 161.67 228.7 162.03 228.7C162.75 228.7 163.15 228.45 163.24 227.94C163.38 227.32 163.47 225.29 163.49 221.86H160.78C160.75 221.94 160.72 222.02 160.71 222.06C160.46 222.92 160.04 223.85 159.44 224.81L158.9 224.11V229.02H157.92V228.46H155.83V229.36H154.85V220.83H156.26C156.5 220.25 156.68 219.62 156.81 218.95L157.82 219.09L157.83 219.1ZM157.92 224.16V221.82H155.83V224.16H157.92ZM157.92 227.48V225.09H155.83V227.48H157.92ZM162.64 226.32L161.57 227.06C161.25 226.2 160.81 225.19 160.24 224.06L161.13 223.45C161.77 224.57 162.28 225.52 162.65 226.32H162.64Z" fill="white"/>
<path d="M170.16 227.45H167.23V228.39H166.2V219.62H170.16V227.45ZM169.15 222.95V220.7H167.24V222.95H169.15ZM169.15 226.37V223.97H167.24V226.37H169.15ZM171.19 219.34H176V228.61C176 228.99 175.9 229.29 175.7 229.51C175.52 229.69 175.28 229.79 174.97 229.79H173.15L172.93 228.66L174.53 228.76C174.76 228.74 174.88 228.58 174.88 228.29V226.18H172.12C172.03 226.62 171.91 227.02 171.78 227.37C171.45 228.25 170.81 229.12 169.85 230.02L168.92 229.18C169.77 228.51 170.38 227.78 170.73 226.99C171.03 226.35 171.19 225.38 171.19 224.08V219.35V219.34ZM174.88 225.1V223.23H172.3V224.07C172.3 224.44 172.28 224.79 172.25 225.1H174.87H174.88ZM174.88 222.15V220.42H172.3V222.15H174.88Z" fill="white"/>
<path d="M186.37 229.97H185.26V229.08H179.61V229.93H178.49V219.34H186.37V229.97ZM185.26 223.51V220.51H179.61V223.51H185.26ZM185.26 227.96V224.69H179.61V227.96H185.26Z" fill="white"/>
</svg>
