<svg width="193" height="111" viewBox="0 0 193 111" fill="none" xmlns="http://www.w3.org/2000/svg">
<path d="M30.4602 5.60989V1.03992H31.9303V5.60989H33.4003V7.15991H31.9303V11.4599C32.3403 11.2799 32.7302 11.0999 33.1302 10.8799V12.4999C32.0002 13.1099 30.7002 13.7199 29.2002 14.3399L28.8103 12.4999C29.3603 12.3899 29.9202 12.2299 30.4702 12.0299V7.1499H29.0002V5.59991H30.4702L30.4602 5.60989ZM44.3702 4.56992H40.8302C40.8302 7.26992 40.9702 9.4699 41.2402 11.1799C41.8402 9.9599 42.3903 8.2599 42.9003 6.1199L44.3003 6.74991C43.5603 9.37991 42.8302 11.3399 42.0802 12.6399C41.9402 12.8599 41.8202 13.0499 41.7002 13.2299C41.8002 13.6299 41.9402 13.9699 42.0802 14.2599C42.4602 15.1199 42.7602 15.5399 42.9702 15.5399C43.0902 15.5399 43.2403 14.6899 43.4303 12.9999L44.7603 14.0599C44.4003 15.6299 44.0803 16.5599 43.7903 16.8899C43.5503 17.1599 43.2802 17.2999 42.9702 17.2999C42.3502 17.2999 41.7402 16.7199 41.1202 15.5699C40.9502 15.2799 40.7903 14.9799 40.6603 14.6199C39.7703 15.6299 38.7102 16.5099 37.4802 17.2999L36.5603 15.9499C38.0103 15.1899 39.2103 14.1899 40.1403 12.9599C39.9903 12.3799 39.8703 11.7499 39.7603 11.0699C39.4503 9.22992 39.3003 7.06992 39.3003 4.56992H35.4203V7.0899H38.5702C38.4702 10.9099 38.3602 12.9599 38.2302 13.2699C38.1302 13.7599 37.9602 14.0999 37.7502 14.2799C37.5602 14.5299 37.2403 14.6599 36.7603 14.6899C36.2803 14.6899 35.8903 14.6699 35.5603 14.6199L35.2903 12.9999C36.0103 13.1099 36.4402 13.1399 36.5702 13.1399C36.7402 13.1399 36.8603 13.0299 36.9303 12.7799C37.0303 12.5999 37.1003 11.1399 37.1703 8.41992H35.4303C35.4303 9.78992 35.2802 11.2099 34.9702 12.6899C34.5902 14.2599 33.9802 15.7899 33.1102 17.2999L31.8302 16.0899C32.6902 14.8699 33.2802 13.5899 33.5902 12.2199C33.8302 10.8299 33.9702 9.5499 33.9702 8.3699V3.1499H39.3202V0.899902H40.8602V3.1499H42.7102C42.3802 2.7199 41.9903 2.20992 41.5303 1.66992L42.5902 0.96991C43.2402 1.54991 43.7502 2.04992 44.1302 2.44992L43.1503 3.1499H44.4003V4.56992H44.3702Z" fill="#D8B167"/>
<path d="M52.8402 4.27008V0.830078H54.5702V4.27008H60.5902V12.7901H54.5702V17.3601H52.8402V12.7901H46.8903V4.27008H52.8402ZM52.8402 5.89011H48.6302V11.1701H52.8402V5.89011ZM58.8402 5.89011H54.5603V11.1701H58.8402V5.89011Z" fill="#D8B167"/>
<path d="M66.4702 6.30991C66.0302 9.83991 65.4303 12.8599 64.6603 15.3799L63.0503 14.3399C63.8403 11.7499 64.4002 8.95991 64.7302 5.96991L66.4802 6.30991H66.4702ZM69.3402 5.2699V14.8299C69.3402 15.2599 69.5302 15.4599 69.9402 15.4599H73.0203C73.2303 15.4599 73.4002 15.3299 73.5002 15.0599C73.6202 14.8099 73.7102 13.5499 73.7402 11.3099L75.3502 11.7999C75.2102 14.4299 74.9903 15.9599 74.6803 16.4299C74.4103 16.8999 73.9302 17.1499 73.2102 17.1499H69.3402C68.8302 17.1499 68.4202 16.9899 68.1102 16.6799C67.8002 16.3599 67.6703 15.9199 67.6703 15.3799V5.25992H69.3502L69.3402 5.2699ZM73.7402 5.53992L72.0802 6.74991C71.3302 5.44991 70.3002 3.97992 69.0002 2.31992L70.4003 1.3999C71.8203 3.0199 72.9302 4.38992 73.7402 5.53992ZM78.5603 13.9099L76.8802 14.6799C76.2102 11.6599 75.4803 8.94991 74.6703 6.59991L76.2803 6.03992C77.1503 8.50992 77.9003 11.1399 78.5603 13.9099Z" fill="#D8B167"/>
<path d="M85.2302 1.10983C85.0202 2.04983 84.7302 2.92985 84.3702 3.71985H86.8302V7.47986C87.3302 6.61986 87.7202 5.74986 87.9902 4.88986C88.3302 3.87986 88.6102 2.52984 88.8302 0.839844L90.5103 1.10983C90.3603 2.07983 90.2003 2.92984 90.0503 3.64984H95.3202C95.3202 9.98984 95.2203 13.7299 95.0503 14.8899C94.8803 15.7899 94.5903 16.3998 94.1803 16.6898C93.7003 17.0498 92.8103 17.2299 91.5303 17.2299C91.1503 17.2299 90.7302 17.1899 90.2502 17.1599L89.9902 15.3998C90.4902 15.5098 91.0003 15.5399 91.5303 15.5399C92.6103 15.5399 93.2102 15.1599 93.3402 14.4099C93.5502 13.4699 93.6802 10.4298 93.7202 5.27985H89.6503C89.6003 5.40985 89.5603 5.50984 89.5503 5.58984C89.1703 6.88984 88.5403 8.26984 87.6503 9.70984L86.8502 8.66986V16.0298H85.3802V15.1798H82.2502V16.5298H80.7803V3.72986H82.9003C83.2603 2.86986 83.5302 1.90984 83.7202 0.899841L85.2402 1.11984L85.2302 1.10983ZM85.3702 8.70984V5.19986H82.2402V8.70984H85.3702ZM85.3702 13.6999V10.1198H82.2402V13.6999H85.3702ZM92.4502 11.9499L90.8402 13.0699C90.3602 11.7699 89.6902 10.2599 88.8402 8.56985L90.1703 7.64984C91.1303 9.31984 91.9002 10.7699 92.4402 11.9499H92.4502Z" fill="#D8B167"/>
<path d="M105.94 0.76001V5.04999C106.5 7.67999 107.36 9.84001 108.49 11.51C109.4 12.91 110.88 14.35 112.95 15.81L111.82 17.41C110.11 16.22 108.81 15.09 107.94 13.95C106.79 12.58 105.89 10.91 105.2 8.91C104.64 11 103.87 12.6 102.89 13.72C101.86 14.98 100.32 16.2 98.2502 17.41L97.1902 15.81C99.7602 14.19 101.53 12.41 102.53 10.46C103.51 8.61999 104.02 6.80001 104.07 5.04001V0.75H105.93L105.94 0.76001Z" fill="#D8B167"/>
<path d="M123.64 3.36011L122.7 4.06012H129.87V5.68011H127.36C126.62 7.80011 125.74 9.59012 124.69 11.0601C124.31 11.6001 123.94 12.0901 123.53 12.5201C125.02 13.5601 127.16 14.6301 129.94 15.7401L129 17.4901C126.16 16.3201 123.92 15.1001 122.26 13.7601C121.95 14.0301 121.63 14.2801 121.32 14.5001C119.64 15.6201 117.61 16.5701 115.23 17.3601L114.31 15.6701C116.88 14.9701 118.84 14.1601 120.21 13.2601C120.48 13.0801 120.76 12.9001 121.03 12.6801C119.44 11.0201 118.19 8.68011 117.27 5.68011H114.5V4.06012H121.8C121.22 3.36012 120.53 2.58011 119.71 1.74011L120.98 0.890137C122.11 1.86014 123 2.67011 123.65 3.36011H123.64ZM122.27 11.5301C122.75 11.0301 123.23 10.4301 123.67 9.78012C124.44 8.66012 125.07 7.30014 125.59 5.67014H118.82C119.74 8.35014 120.89 10.3001 122.28 11.5201L122.27 11.5301Z" fill="#D8B167"/>
<path d="M133.33 2.09985V0.839844H134.66V2.09985H135.79V3.35983H134.66V4.41986H135.6V7.78986H133.68L134.52 8.07983C134.38 8.43983 134.26 8.74985 134.16 8.99985H135.94C135.84 8.72985 135.73 8.43984 135.6 8.14984L136.45 7.78986H136.06V4.34985H137.07V3.35983H135.92V2.09985H137.07V0.839844H138.4V2.09985H140.06V3.35983H138.4V4.34985H139.67V7.78986H136.85C136.99 8.14986 137.12 8.54985 137.26 8.99985H139.67V10.1898H137.07V11.1798H139.4V12.2998H137.07V13.3598H139.4V14.4799H137.07V15.4698H139.6V15.9698C140.15 15.5198 140.56 14.9798 140.83 14.3698C141.09 13.7798 141.24 12.9499 141.31 11.8899H140.34V1.47986H146.36V11.8899H144.68V15.5399C144.68 15.8099 144.83 15.9499 145.14 15.9499H145.48C145.62 15.9499 145.72 15.8799 145.79 15.7299C145.86 15.5899 145.91 14.8999 145.94 13.6399L147.21 14.0498C147.11 15.5598 146.95 16.4399 146.71 16.7299C146.51 16.9999 146.13 17.1399 145.62 17.1399H144.68C144.27 17.1399 143.94 17.0098 143.71 16.7998C143.47 16.5498 143.35 16.2399 143.35 15.8799V11.8698H142.67C142.6 13.1698 142.4 14.2298 142.05 15.0598C141.71 15.8898 141.11 16.6799 140.27 17.4199L139.6 16.3199V16.6399H133.78V17.3598H132.45V11.6898C132.21 11.9598 131.97 12.2298 131.71 12.4998L131.38 10.8098C132.2 9.97984 132.8 8.96986 133.19 7.78986H132.16V4.41986H133.31V3.35983H131.5V2.09985H133.31H133.33ZM134.39 5.46985H133.4V6.74985H134.39V5.46985ZM135.72 10.1898H133.79V11.1798H135.72V10.1898ZM135.72 12.2998H133.79V13.3598H135.72V12.2998ZM135.72 15.4698V14.4799H133.79V15.4698H135.72ZM138.47 5.39984H137.26V6.74985H138.47V5.39984ZM145 4.56985V2.87985H141.66V4.56985H145ZM145 7.51984V5.82983H141.66V7.51984H145ZM145 8.77985H141.66V10.4698H145V8.77985Z" fill="#D8B167"/>
<path d="M157.38 2.43997C156.56 2.68997 155.72 2.90998 154.85 3.06998C154.85 4.36998 154.87 5.51997 154.9 6.52997H157.38V8.07996H154.95C155.05 10.42 155.22 11.97 155.5 12.73C155.84 13.63 156.13 14.06 156.39 14.06C156.6 14.06 156.77 13.27 156.92 11.66L158.12 12.72C157.85 14.31 157.56 15.26 157.28 15.58C157.06 15.9 156.78 16.08 156.44 16.08C155.96 16.08 155.57 15.9 155.26 15.54C154.71 14.98 154.32 14.23 154.05 13.25C153.78 12.24 153.59 10.51 153.49 8.05997H150.91V12.09C151.71 11.84 152.47 11.59 153.18 11.3V12.9C151.93 13.48 150.51 13.98 148.9 14.45L148.44 12.78C148.75 12.71 149.06 12.64 149.36 12.55V2.01996C152.06 1.97996 154.47 1.61996 156.58 0.959961L157.38 2.43997ZM154.04 14.97V16.59H149.1V14.97H154.04ZM153.37 3.33997C152.57 3.47997 151.75 3.56996 150.89 3.64996V6.52997H153.42C153.39 5.55997 153.37 4.48997 153.37 3.33997ZM164.13 1.60995V2.86996C163.5 4.77996 162.83 6.52996 162.11 8.14996C162.93 9.29996 163.46 10.2 163.68 10.83C163.97 11.51 164.12 12.16 164.12 12.79C164.12 13.82 163.91 14.57 163.52 15.06C163.11 15.56 162.1 15.82 160.51 15.82L160.03 14.06C160.51 14.17 161.01 14.2 161.5 14.2C161.88 14.2 162.15 14.07 162.32 13.82C162.44 13.64 162.51 13.3 162.51 12.79C162.53 12.38 162.42 11.87 162.18 11.26C161.94 10.63 161.38 9.58998 160.5 8.13998C161.29 6.33998 161.9 4.67997 162.36 3.12997H159.76V17.35H158.22V1.59998H164.1L164.13 1.60995Z" fill="#D8B167"/>
<path d="M10.2703 37.6699V38.7499H6.79028C6.56028 39.2699 6.31028 39.7499 6.04028 40.1899V47.9899H4.88025V41.7699C4.79025 41.8699 4.71025 41.9599 4.63025 42.0499C3.67025 43.1299 2.4303 44.1099 0.930298 44.9999L0.260254 44.0499C1.66025 43.2299 2.84027 42.3399 3.78027 41.3799C4.42027 40.7599 5.02021 39.8899 5.59021 38.7699H0.390259V37.6899H10.2703V37.6699ZM10.2703 43.9999L9.4303 44.8899C8.7703 43.9299 7.83025 42.8799 6.63025 41.7499L7.4303 40.9599C8.5603 41.9899 9.50027 42.9999 10.2803 44.0099L10.2703 43.9999Z" fill="white"/>
<path d="M16.0103 37.3399C15.8603 37.6999 15.7302 38.0399 15.6002 38.3199H19.2102V39.2599C18.7002 40.7199 18.1602 41.9499 17.6002 42.9099C18.0102 43.6799 18.5002 44.3499 19.0802 44.9199C19.7002 45.5899 20.6603 46.2499 22.0103 46.8999L21.1202 48.0199C20.1302 47.4199 19.3302 46.8299 18.7102 46.2799C18.0002 45.6199 17.4003 44.8499 16.9103 43.9899C16.8503 44.0599 16.8103 44.1199 16.7703 44.1699C15.5803 45.6699 14.1303 46.9299 12.3903 47.9799L11.6302 46.9499C13.7202 45.5799 15.2003 44.3199 16.0603 43.1699C16.8203 42.2099 17.4302 40.9899 17.8702 39.4999H15.0303C14.8703 39.7999 14.7202 40.0499 14.6002 40.2399C14.2102 40.9099 13.5502 41.6899 12.6102 42.5799L11.7202 41.7899C12.5602 41.0499 13.2402 40.2999 13.7502 39.5799C14.2202 38.8499 14.6302 37.9599 14.9702 36.9199L16.0002 37.3399H16.0103Z" fill="white"/>
<path d="M26.3003 37.1502C26.1603 37.7702 25.9702 38.3602 25.7302 38.8902H27.3702V41.4002C27.7002 40.8202 27.9603 40.2502 28.1403 39.6702C28.3703 39.0002 28.5502 38.1002 28.7002 36.9702L29.8202 37.1502C29.7202 37.8002 29.6103 38.3602 29.5103 38.8402H33.0203C33.0203 43.0602 32.9502 45.5602 32.8402 46.3202C32.7302 46.9202 32.5303 47.3302 32.2603 47.5202C31.9403 47.7602 31.3502 47.8802 30.4902 47.8802C30.2402 47.8802 29.9503 47.8602 29.6403 47.8302L29.4702 46.6502C29.8002 46.7202 30.1402 46.7502 30.5002 46.7502C31.2202 46.7502 31.6202 46.5002 31.7102 45.9902C31.8502 45.3702 31.9402 43.3402 31.9602 39.9102H29.2502C29.2202 39.9902 29.1903 40.0702 29.1803 40.1102C28.9303 40.9702 28.5103 41.9002 27.9103 42.8602L27.3702 42.1602V47.0702H26.3903V46.5102H24.3003V47.4102H23.3202V38.8802H24.7302C24.9702 38.3002 25.1503 37.6702 25.2803 37.0002L26.2903 37.1402L26.3003 37.1502ZM26.3903 42.2102V39.8702H24.3003V42.2102H26.3903ZM26.3903 45.5302V43.1402H24.3003V45.5302H26.3903ZM31.1102 44.3702L30.0403 45.1102C29.7203 44.2502 29.2802 43.2402 28.7102 42.1102L29.6002 41.5002C30.2402 42.6202 30.7502 43.5702 31.1202 44.3702H31.1102Z" fill="white"/>
<path d="M35.8302 37.8101V40.0101H37.0802V37.1101H38.0603V47.8901H37.0802V43.1501H36.3103C36.2603 44.2501 36.2102 45.0201 36.1302 45.4501C36.0002 46.2401 35.7303 47.0001 35.3003 47.7401L34.4103 47.0301C34.7503 46.4901 34.9802 45.9401 35.0902 45.3901C35.1802 44.8901 35.2403 44.1301 35.2803 43.1501H34.4003V42.1701H37.0802V41.0401H34.8502V37.8101H35.8302ZM41.4003 37.3401C41.2603 37.5601 41.1403 37.7401 41.0203 37.9001H44.5103V38.6901C44.0303 39.5801 43.3603 40.3501 42.5203 41.0201C41.4503 41.9101 40.1802 42.5301 38.7202 42.8701L38.2803 41.9301C38.7603 41.8301 39.2102 41.7301 39.6302 41.5801C39.3302 41.2801 38.9802 40.9601 38.5902 40.6101L39.2603 40.1901C39.7703 40.5701 40.1903 40.9101 40.5403 41.2001C40.7803 41.0801 41.0102 40.9601 41.2202 40.8201C40.8302 40.5101 40.3703 40.1801 39.8003 39.8201L40.4303 39.2101C41.0203 39.5601 41.5502 39.8901 41.9802 40.2301C42.4202 39.8301 42.8202 39.3701 43.1902 38.8401H40.3103C39.8803 39.3401 39.4202 39.7601 38.9602 40.1001L38.2402 39.1601C39.1902 38.5501 39.9002 37.8601 40.3802 37.1001L41.4103 37.3401H41.4003ZM42.5103 42.9601V41.6901H43.5802V42.9601H44.6503V44.0301H43.5802V46.7501C43.5802 47.1601 43.4903 47.4501 43.3103 47.6101C43.1403 47.7801 42.8303 47.8701 42.3903 47.8701H41.1403L40.9203 46.7401C41.3803 46.8001 41.7602 46.8401 42.0702 46.8401C42.3802 46.8401 42.5103 46.7401 42.5103 46.5501V44.0201H38.3702V42.9501H42.5103V42.9601ZM41.1302 46.1401L40.1002 46.9001C39.8102 46.3201 39.4302 45.6801 38.9502 44.9301L39.7903 44.3701C40.3603 45.0701 40.8002 45.6501 41.1202 46.1501L41.1302 46.1401Z" fill="white"/>
<path d="M50.3003 38.2301V37.1001H51.3702V38.2301H55.6002V39.3101H51.3702V42.0001C51.8002 42.9101 52.3502 43.7001 52.9902 44.3901C53.6302 45.1601 54.6702 45.9301 56.0902 46.6701L55.3302 47.6101C54.2802 46.9301 53.4403 46.2801 52.7903 45.6501C52.2503 45.1201 51.7902 44.5301 51.3802 43.8901V47.9001H50.3103V43.8301C49.8803 44.4801 49.4902 44.9801 49.1202 45.3401C48.3802 46.1301 47.4602 46.9001 46.3402 47.6501L45.7603 46.5701C46.8503 45.9501 47.8102 45.2001 48.6302 44.3401C49.2502 43.6801 49.8003 42.9101 50.3103 42.0301V39.3201H46.1703V38.2401H50.3103L50.3003 38.2301ZM48.8802 39.6801C48.7402 40.2701 48.6202 40.7701 48.4802 41.1801C48.9102 41.5501 49.3103 41.9701 49.6803 42.4501L49.1002 43.3901C48.7802 42.8901 48.4502 42.4701 48.1202 42.1201C47.8202 42.7901 47.3702 43.4801 46.7402 44.1801L46.0802 43.2901C46.6002 42.7301 47.0003 42.1701 47.2703 41.6201C47.5203 41.1001 47.7403 40.4101 47.9103 39.5301L48.8903 39.6701L48.8802 39.6801ZM54.3502 39.7301C54.2102 40.3201 54.0902 40.8001 53.9502 41.1801C54.5902 41.7101 55.1802 42.3201 55.7302 43.0001L55.1603 43.9501C54.6203 43.1901 54.0903 42.5701 53.5503 42.0801C53.3003 42.5201 52.9802 42.9801 52.5702 43.4401L51.8602 42.5001C52.2802 42.0601 52.6002 41.6201 52.8202 41.2101C53.0302 40.8001 53.1802 40.2601 53.3202 39.5901L54.3502 39.7301Z" fill="white"/>
<path d="M62.6902 43.7502C62.5102 44.0002 62.2103 44.2501 61.7903 44.5201L61.4303 43.9301C61.9703 43.6501 62.2702 43.2901 62.3602 42.8601H61.6302V41.4102H63.0203V42.6002C63.0203 43.0702 62.9102 43.4502 62.6902 43.7502Z" fill="white"/>
<path d="M71.4502 39.8302V40.6202C71.0702 41.2902 70.6003 42.0002 70.0103 42.7302H71.4003V43.4402C71.2403 44.1802 71.0703 44.7702 70.8903 45.2002C71.3203 45.7302 71.6802 46.0502 71.9502 46.1702C72.1902 46.3302 72.5503 46.4302 73.0303 46.5102C73.5803 46.6102 74.6603 46.6502 76.2803 46.6702C77.4703 46.6702 78.3402 46.6502 78.9402 46.5702L78.8003 47.7002C75.6703 47.7002 73.7503 47.6502 73.0603 47.5702C72.4303 47.4702 71.9302 47.3302 71.5702 47.1402C71.2402 46.9802 70.8702 46.6602 70.4602 46.1302C70.1402 46.7102 69.7103 47.2902 69.1803 47.9402L68.4303 47.0902C69.0203 46.4702 69.4303 45.9302 69.6803 45.4502C69.8703 45.1702 70.1002 44.6002 70.3602 43.7202H68.7803V42.8302C69.2503 42.3302 69.7402 41.6502 70.2502 40.8102H68.5503V39.8302H71.4402H71.4502ZM71.1902 38.7002L70.4303 39.5002C70.1303 38.9802 69.7202 38.4202 69.1902 37.8102L69.9103 37.1002C70.4103 37.6402 70.8302 38.1702 71.2002 38.6902L71.1902 38.7002ZM75.6603 38.0402H78.8103V39.0702H71.6902V38.0402H74.5702C74.4302 37.7202 74.3003 37.4002 74.1403 37.1002L75.2502 36.9702C75.3902 37.2902 75.5403 37.6502 75.6703 38.0402H75.6603ZM78.2703 39.6802V40.6202H72.3402V39.6802H78.2703ZM78.2703 41.2802V42.2202H72.3402V41.2802H78.2703ZM78.2202 42.9202V45.8202H72.4303V42.9202H78.2202ZM77.1902 43.8602H73.4502V44.8902H77.1902V43.8602Z" fill="white"/>
<path d="M82.3903 38.94H83.5203V39.88C83.1403 40.76 82.7803 41.47 82.4303 42.04C82.5003 42.11 82.5703 42.18 82.6403 42.24C82.8903 41.95 83.1202 41.56 83.3502 41.04L84.0203 41.75C83.7703 42.22 83.5102 42.59 83.2302 42.88C83.5002 43.2 83.7703 43.53 84.0203 43.86L83.3903 44.84C83.0603 44.31 82.7303 43.84 82.4103 43.46V48.02H81.4303V43.39C81.0703 43.82 80.6402 44.25 80.1902 44.7L79.8402 43.44C80.4602 42.89 80.9102 42.4 81.2302 41.95C81.5802 41.55 81.9702 40.88 82.3802 39.92H79.9602V38.94H81.3602C81.2002 38.29 81.0203 37.68 80.8103 37.11L81.8702 36.98C82.0502 37.56 82.2203 38.22 82.3903 38.95V38.94ZM89.8802 37.57V43.05H87.4902V44.37H89.8003V45.35H87.4902V46.56H90.3402V47.54H83.3903V46.56H86.4203V45.35H84.1102V44.37H86.4203V43.05H84.1102V37.57H89.8903H89.8802ZM86.4203 39.82V38.5H85.1302V39.82H86.4203ZM86.4203 40.71H85.1302V42.11H86.4203V40.71ZM87.4902 39.82H88.8702V38.5H87.4902V39.82ZM88.8702 40.71H87.4902V42.11H88.8702V40.71Z" fill="white"/>
<path d="M94.6902 37.1502C94.5502 37.7702 94.3602 38.3602 94.1202 38.8902H95.7603V41.4002C96.0903 40.8202 96.3503 40.2502 96.5303 39.6702C96.7603 39.0002 96.9402 38.1002 97.0902 36.9702L98.2102 37.1502C98.1102 37.8002 98.0103 38.3602 97.9003 38.8402H101.41C101.41 43.0602 101.34 45.5602 101.23 46.3202C101.12 46.9202 100.92 47.3302 100.65 47.5202C100.33 47.7602 99.7402 47.8802 98.8802 47.8802C98.6302 47.8802 98.3403 47.8602 98.0203 47.8302L97.8502 46.6502C98.1802 46.7202 98.5202 46.7502 98.8802 46.7502C99.6002 46.7502 100 46.5002 100.09 45.9902C100.23 45.3702 100.32 43.3402 100.34 39.9102H97.6302C97.6002 39.9902 97.5703 40.0702 97.5603 40.1102C97.3103 40.9702 96.8903 41.9002 96.2903 42.8602L95.7502 42.1602V47.0702H94.7703V46.5102H92.6803V47.4102H91.7002V38.8802H93.1102C93.3502 38.3002 93.5303 37.6702 93.6603 37.0002L94.6703 37.1402L94.6902 37.1502ZM94.7803 42.2102V39.8702H92.6902V42.2102H94.7803ZM94.7803 45.5302V43.1402H92.6902V45.5302H94.7803ZM99.5002 44.3702L98.4303 45.1102C98.1103 44.2502 97.6702 43.2402 97.1002 42.1102L97.9902 41.5002C98.6302 42.6202 99.1403 43.5702 99.5103 44.3702H99.5002Z" fill="white"/>
<path d="M104.85 41.8902C104.8 42.1502 104.75 42.3802 104.7 42.5902H106.14V43.4402C106.05 44.2002 105.9 44.8402 105.7 45.3802C105.52 45.8702 105.26 46.3002 104.93 46.6702C104.57 47.0802 104.01 47.5202 103.25 47.9802L102.63 47.2702C103.51 46.8002 104.15 46.3002 104.53 45.7702C104.28 45.4102 104.03 45.1102 103.79 44.8502C103.62 45.1302 103.44 45.3902 103.24 45.6302L102.75 44.7902C103.16 44.2502 103.45 43.7502 103.62 43.2902C103.76 42.9302 103.89 42.4602 104.01 41.8902H104.85ZM105.78 39.0202V36.9702H106.71V39.0202H109.34V39.9202H106.75C107.55 40.1502 108.38 40.4602 109.25 40.8602L108.89 41.8002C108.18 41.4002 107.45 41.0802 106.71 40.8402V42.2202H105.78V39.9502C105.6 40.2702 105.42 40.5302 105.23 40.7202C104.83 41.2002 104.18 41.6902 103.28 42.2202L102.79 41.3302C103.43 41.0302 103.93 40.7302 104.29 40.4302C104.5 40.2902 104.67 40.1202 104.83 39.9302H102.88V39.0302H105.78V39.0202ZM105.29 38.3702L104.54 38.9302C104.31 38.5202 104.02 38.0402 103.65 37.5102L104.27 37.0902C104.7 37.5802 105.04 38.0002 105.3 38.3602L105.29 38.3702ZM104.95 45.0402C105.12 44.6202 105.25 44.0802 105.34 43.4302H104.46C104.41 43.5702 104.36 43.7202 104.31 43.8402C104.26 43.9602 104.21 44.0802 104.16 44.1802C104.43 44.4402 104.7 44.7302 104.95 45.0402ZM109.38 43.5602H108.63V45.2502H109.52V46.1402H108.63V48.0102H107.79V46.1402H106.18L106.45 42.6702H107.78V41.9302H108.62V42.6702H109.37V43.5602H109.38ZM107.78 43.5602H107.15L107 45.2502H107.78V43.5602ZM108.85 37.4802C108.56 38.0202 108.23 38.4902 107.87 38.8802L107.15 38.3602C107.51 38.0102 107.86 37.6002 108.18 37.1402L108.85 37.4802ZM112.9 37.3802V38.1702C112.65 39.3202 112.38 40.5502 112.06 41.8302C112.4 42.4302 112.65 42.9602 112.8 43.4402C112.98 43.9302 113.09 44.3502 113.09 44.6902C113.07 45.4002 112.95 45.9002 112.75 46.2102C112.52 46.5702 112.02 46.7502 111.26 46.7502L110.95 45.6702C111.14 45.7102 111.33 45.7202 111.49 45.7202C111.7 45.7202 111.84 45.6502 111.95 45.4902C112.06 45.3702 112.12 45.0902 112.12 44.6902C112.12 44.3102 112.05 43.9302 111.93 43.5902C111.77 43.1302 111.5 42.6102 111.1 41.9802C111.49 40.5402 111.77 39.3202 111.94 38.3202H110.65V47.9802H109.72V37.3902H112.92L112.9 37.3802Z" fill="white"/>
<path d="M119.9 36.9199V39.7699C120.28 41.5199 120.85 42.9599 121.6 44.0799C122.2 45.0199 123.2 45.9799 124.58 46.9499L123.83 48.0199C122.69 47.2299 121.82 46.4699 121.24 45.7199C120.48 44.8099 119.87 43.6899 119.42 42.3599C119.04 43.7499 118.53 44.8199 117.88 45.5599C117.2 46.3999 116.17 47.2199 114.79 48.0199L114.08 46.9499C115.79 45.8699 116.98 44.6799 117.64 43.3899C118.29 42.1699 118.63 40.9599 118.67 39.7799V36.9299H119.91L119.9 36.9199Z" fill="white"/>
<path d="M127.65 43.3902C127.22 43.9402 126.68 44.4502 126.04 44.8902L125.42 44.0002C125.99 43.6602 126.51 43.2602 126.97 42.7802L127.64 43.3902H127.65ZM130.15 37.5702V36.9702H131.18V37.5702H134.87V38.9902H135.9V39.8302H134.87V41.2302H131.18V41.8402H135.9V42.7302H125.61V41.8402H130.16V41.2302H126.19V40.3902H130.16V39.8302H125.61V38.9902H130.16V38.4302H126.19V37.5802H130.16L130.15 37.5702ZM134.69 46.6602H135.9V47.6002H125.61V46.6602H126.59V44.5502H134.69V46.6602ZM129.04 46.6602V45.5002H127.57V46.6602H129.04ZM130.16 44.2702L129 44.4102C128.95 43.8102 128.84 43.3302 128.65 43.0002L129.63 42.9202C129.89 43.2602 130.07 43.7102 130.17 44.2802L130.16 44.2702ZM131.4 46.6602V45.5002H129.98V46.6602H131.4ZM131.18 38.9802H133.89V38.4202H131.18V38.9802ZM131.18 40.3802H133.89V39.8202H131.18V40.3802ZM132.73 44.3102L131.67 44.4102C131.56 43.8802 131.44 43.4002 131.31 43.0002L132.2 42.9202C132.41 43.3502 132.58 43.8202 132.74 44.3202L132.73 44.3102ZM133.71 46.6502V45.4902H132.33V46.6502H133.71ZM135.94 44.1702L135.18 44.9702C134.82 44.5102 134.29 44.0102 133.62 43.4702L134.34 42.7602C134.97 43.2402 135.5 43.7102 135.95 44.1602L135.94 44.1702Z" fill="white"/>
<path d="M147.29 42.26V43.29H142.83V44.42H146.71V45.4H142.83V46.64C143.39 46.69 144.04 46.71 144.79 46.71C145.84 46.71 146.73 46.69 147.46 46.61L147.15 47.78C143.67 47.78 141.6 47.65 140.93 47.38C140.26 47.14 139.69 46.66 139.21 45.94C138.89 46.59 138.36 47.27 137.63 48L136.83 46.98C137.43 46.45 137.89 45.92 138.19 45.41C138.49 44.93 138.74 44.28 138.92 43.47L140.04 43.65C139.9 44.18 139.77 44.62 139.64 44.98C140.1 45.68 140.67 46.13 141.33 46.35C141.46 46.4 141.6 46.45 141.77 46.47V43.28H136.91V42.25H147.29V42.26ZM146.22 37.25V41.6H138.07V37.25H146.22ZM145.1 38.99V38.23H139.18V38.99H145.1ZM145.1 39.83H139.18V40.62H145.1V39.83Z" fill="white"/>
<path d="M158.46 41.5V42.63H148.53V41.5H158.46Z" fill="white"/>
<path d="M163.37 46.8098H162.39V45.9198H160.97V47.0797H159.99V37.8098H163.38V46.8098H163.37ZM162.39 41.3798V38.8498H160.97V41.3798H162.39ZM162.39 44.8898V42.4098H160.97V44.8898H162.39ZM166.31 38.1398V37.0098H167.29V38.1398H169.77V39.1698H167.29V40.3898H170.14V41.4698H169.02V42.7298H170.22V43.7598H169.02V46.6097C169.02 47.0397 168.93 47.3398 168.75 47.5098C168.59 47.6898 168.29 47.7898 167.86 47.7898H166.44L166.22 46.6198C166.78 46.6898 167.23 46.7198 167.6 46.7198C167.86 46.7198 168 46.6398 168 46.4398V43.7697H163.59V42.7397H168V41.4798H163.68V40.3997H166.31V39.1797H163.91V38.1497H166.31V38.1398ZM166.75 45.8297L165.72 46.5698C165.33 46.0198 164.82 45.3697 164.16 44.6497L165 44.0898C165.73 44.7598 166.31 45.3497 166.74 45.8297H166.75Z" fill="white"/>
<path d="M177.14 38.7498H181.13V39.7798C180.24 41.2398 179.39 42.3798 178.56 43.1898C177.84 43.9198 176.61 44.7998 174.86 45.8198C175.09 46.0398 175.41 46.1897 175.79 46.2997C176.31 46.4597 177.37 46.5497 178.95 46.5797C180.12 46.5797 181 46.5598 181.57 46.4998L181.4 47.7598C178.31 47.7598 176.43 47.6898 175.75 47.5598C175.13 47.4198 174.63 47.1898 174.27 46.8798C173.96 46.6498 173.62 46.1598 173.24 45.4198C172.95 46.1898 172.53 46.9798 171.96 47.8198L171.29 46.6497C171.69 46.0497 172.01 45.4597 172.24 44.8597C172.45 44.3597 172.64 43.7097 172.81 42.8997H173.93C173.85 43.3097 173.77 43.6698 173.69 43.9798C173.83 44.2798 173.96 44.5398 174.08 44.7598C175.13 44.2298 176.15 43.6098 177.15 42.8698C177.8 42.3198 178.68 41.3197 179.78 39.8597H172.02V38.7798H175.83C175.44 38.2298 175 37.6898 174.51 37.1898L175.89 37.0098C176.33 37.5398 176.76 38.1298 177.16 38.7798L177.14 38.7498Z" fill="white"/>
<path d="M188.21 45.4001C187.71 45.8301 187.1 46.2201 186.4 46.5601C186.56 46.6101 186.73 46.6301 186.91 46.6601C187.47 46.7401 188.59 46.7901 190.25 46.8001C191.45 46.8001 192.35 46.7801 192.94 46.7001L192.8 47.7801C189.61 47.7801 187.67 47.7301 186.98 47.6601C186.34 47.5601 185.83 47.4301 185.45 47.2601C185.1 47.1001 184.7 46.7701 184.24 46.2401C183.97 46.8001 183.61 47.4001 183.18 48.0501L182.47 47.2601C182.97 46.6001 183.32 46.0201 183.54 45.5301C183.71 45.2301 183.9 44.6101 184.13 43.6501H182.73V42.7601C183.12 42.2701 183.53 41.6101 183.96 40.7901H182.55V39.8601H185.05V40.6501C184.73 41.3101 184.33 41.9901 183.85 42.7101H185.09V43.3701C184.93 44.2601 184.77 44.9301 184.59 45.3701C185.09 45.9101 185.49 46.2301 185.8 46.3501C185.88 46.4001 185.97 46.4301 186.08 46.4601L185.53 45.7001C186.26 45.4401 186.91 45.1101 187.49 44.7201L188.2 45.3801L188.21 45.4001ZM184.96 38.7401L184.25 39.5001C183.96 38.9701 183.57 38.3801 183.04 37.7601L183.71 37.1001C184.2 37.6501 184.61 38.2001 184.95 38.7401H184.96ZM187.06 42.1601V41.6401H188.04V42.1601H189.82V41.6401H190.8V42.1601H192.49V43.0001H190.8V43.8501H192.71V44.6401H185.4V43.8501H187.05V43.0001H185.53V42.1601H187.05H187.06ZM188.62 39.6801H186.43V40.2901C186.43 40.4801 186.53 40.5701 186.75 40.5701H187.59C187.73 40.5701 187.84 40.5501 187.91 40.5001C187.99 40.4601 188.05 40.2601 188.08 39.8801L188.92 40.1601C188.84 40.7601 188.71 41.1201 188.53 41.2201C188.37 41.3401 188.09 41.3901 187.68 41.3901H186.43C186.16 41.3901 185.94 41.3201 185.78 41.1601C185.62 41.0001 185.54 40.8001 185.54 40.5401V37.3601H188.62V39.7001V39.6801ZM186.43 38.8901H187.73V38.1301H186.43V38.8901ZM189.82 43.8601V43.0101H188.04V43.8601H189.82ZM192.36 39.6401H190.13V40.3501C190.13 40.5401 190.24 40.6301 190.49 40.6301H191.29C191.45 40.6301 191.56 40.6101 191.64 40.5601C191.73 40.5101 191.79 40.3001 191.82 39.8901L192.71 40.1701C192.62 40.7701 192.48 41.1301 192.3 41.2301C192.14 41.3501 191.84 41.4001 191.42 41.4001H190.12C189.83 41.4001 189.61 41.3301 189.44 41.1801C189.27 41.0401 189.19 40.8401 189.19 40.5901V37.3601H192.36V39.6501V39.6401ZM192.31 45.6901L191.73 46.6301C191.05 46.1701 190.35 45.8101 189.63 45.5501L190.12 44.7601C190.92 45.0201 191.65 45.3401 192.31 45.7001V45.6901ZM190.12 38.9001H191.42V38.1001H190.12V38.9001Z" fill="white"/>
<path d="M17.0603 72.2799V68.2999H18.0403V72.2799H19.5603V73.2599H18.0403V73.5599C18.5803 74.1599 19.1203 74.8199 19.6803 75.5599L19.1102 76.4999C18.6802 75.7899 18.3203 75.2199 18.0403 74.7799V79.1199H17.0603V74.8999C17.0603 74.8999 17.0303 74.9799 17.0103 75.0199C16.6503 75.9099 16.2003 76.6899 15.6803 77.3299L15.2803 76.1699C15.9603 75.3299 16.5302 74.3599 16.9902 73.2599H15.3103V72.2799H17.0503H17.0603ZM16.9702 71.5399L16.0403 71.7699C15.8903 70.9699 15.7102 70.1899 15.5002 69.4299L16.3402 69.1499C16.5702 69.8499 16.7802 70.6499 16.9702 71.5399ZM19.7302 69.3299C19.5502 70.2199 19.3103 71.0299 19.0203 71.7599L18.1302 71.4399C18.4002 70.8299 18.6302 70.0499 18.8402 69.0999L19.7302 69.3299ZM22.0902 69.0099V68.1699H23.1202V69.0099H25.3903V69.9499H23.1202V70.5099H25.2202V71.3499H23.1202V71.9599H25.6603V72.8999H19.7302V71.9599H22.0902V71.3499H20.0802V70.5099H22.0902V69.9499H19.8702V69.0099H22.0902ZM25.2603 78.1499C25.2603 78.4899 25.1602 78.7499 24.9802 78.9399C24.8202 79.0999 24.6002 79.1799 24.3302 79.1799H23.1703L22.9902 78.2299L23.9702 78.2799C24.1802 78.2599 24.2903 78.1199 24.2903 77.8599V77.2999H21.1703V79.1799H20.1902V73.4099H25.2703V78.1499H25.2603ZM24.2803 74.9599V74.2999H21.1603V74.9599H24.2803ZM24.2803 76.4599V75.7999H21.1603V76.4599H24.2803Z" fill="white"/>
<path d="M36.0203 74.5899H36.9502V75.6199H33.0603C33.3903 76.2399 33.7903 76.6999 34.2703 76.9899C34.8203 77.3599 35.7703 77.7499 37.1703 78.1499L36.6503 79.1799C35.4103 78.7699 34.4603 78.3499 33.8003 77.8999C33.0503 77.4099 32.4802 76.6499 32.0702 75.6199H31.9203C31.6903 76.2299 31.3802 76.7599 30.9702 77.2199C30.2202 78.0599 28.9802 78.7199 27.2402 79.1899L26.6703 78.2099C28.4103 77.7499 29.6002 77.1699 30.2302 76.4599C30.4602 76.2099 30.6403 75.9299 30.7803 75.6299H26.8003V74.5999H27.8302V71.9699H31.2202V70.8899H32.2903V71.9699H36.0303V74.5999L36.0203 74.5899ZM29.2502 69.2899V68.1699H30.3202V69.2899H31.6102V70.3199H30.3202V71.4499H29.2502V70.3199H26.7102V69.2899H29.2502ZM31.1202 74.5899C31.1802 74.2499 31.2102 73.9199 31.2102 73.5599V72.9499H28.8502V74.5899H31.1202ZM33.3502 69.2899V68.1699H34.4103V69.2899H37.0403V70.3199H34.4103V71.4499H33.3502V70.3199H32.1403V69.2899H33.3502ZM32.2803 73.5599C32.2703 73.9399 32.2303 74.2799 32.1803 74.5899H35.0002V72.9499H32.2903V73.5599H32.2803Z" fill="white"/>
<path d="M48.3602 69.5701H39.7703V72.2001L40.3103 71.6801C40.8303 72.1001 41.2803 72.5201 41.6403 72.9401L40.9303 73.7001C40.6503 73.3201 40.2603 72.9001 39.7703 72.4501V77.7601H48.3602V78.7401H39.7703V79.2101H38.7402V68.5801H48.3602V69.5601V69.5701ZM42.2202 75.0001C41.7202 75.9801 41.1302 76.7701 40.4402 77.3901L39.8602 76.3601C40.5202 75.8601 41.1702 75.0801 41.8202 74.0201L42.2202 75.0001ZM42.3602 71.1101L41.6403 71.8501C41.3403 71.4201 40.9102 70.9501 40.3502 70.4501L41.0103 69.7901C41.5303 70.2301 41.9902 70.6801 42.3502 71.1101H42.3602ZM44.4502 69.8901C44.3002 70.2701 44.1503 70.6301 44.0203 70.9701H45.4902C45.3302 70.6201 45.1702 70.3001 44.9902 69.9901L45.9702 69.8501C46.1302 70.1901 46.2902 70.5701 46.4502 70.9801H48.1503V71.8201H46.2402V72.7601H47.8903V73.5601H46.2402V74.4901H47.8903V75.2801H46.2402V76.2601H48.2002V77.1101H42.8202V73.2701C42.6102 73.5701 42.4202 73.8301 42.2402 74.0601L41.5702 73.2101C42.4402 72.1701 43.0903 70.9901 43.5303 69.7001L44.4602 69.8901H44.4502ZM45.2903 71.8101H43.7402V72.7501H45.2903V71.8101ZM45.2903 73.5501H43.7402V74.4801H45.2903V73.5501ZM45.2903 75.2801H43.7402V76.2601H45.2903V75.2801Z" fill="white"/>
<path d="M52.5902 75.6701C52.4802 76.0801 52.3502 76.4101 52.2102 76.7001C52.7802 77.0701 53.3003 77.4901 53.7803 77.9601L53.2603 78.8501C52.7603 78.3001 52.2603 77.8501 51.7603 77.4901C51.4003 77.9801 50.7902 78.4601 49.9702 78.9401L49.4303 77.9101C50.0203 77.6201 50.4802 77.3001 50.8202 76.9401C51.0802 76.6801 51.3303 76.2101 51.5603 75.5301L52.5902 75.6701ZM54.9502 68.5901V69.5301H54.4103V74.1701H53.5203V73.5101C52.3103 73.6501 51.0102 73.7601 49.6002 73.8301L49.5103 72.8901C49.7403 72.8901 49.9503 72.8801 50.1803 72.8701V69.5201H49.7402V68.5801H54.9502V68.5901ZM59.3202 74.7701C58.1202 74.9901 56.7303 75.1401 55.1403 75.2401V79.1901H54.0702V75.3001C52.8202 75.3601 51.4703 75.3801 50.0103 75.3801L49.7502 74.4401C53.3202 74.4401 56.3502 74.2601 58.8302 73.8801L59.3202 74.7701ZM53.5303 70.0401V69.5201H51.0802V70.0401H53.5303ZM53.5303 71.3501V70.7901H51.0802V71.3501H53.5303ZM53.5303 72.6201V72.1001H51.0802V72.8201C51.8702 72.7701 52.6903 72.7101 53.5303 72.6201ZM59.4902 68.8201V69.6201C59.1502 70.6001 58.7602 71.3601 58.3202 71.8901C58.2502 71.9901 58.1702 72.0801 58.0902 72.1701C58.6102 72.4701 59.2503 72.7301 60.0303 72.9501L59.4103 73.8901C58.5003 73.5801 57.7803 73.2401 57.2603 72.8801C56.7003 73.2601 55.9903 73.6501 55.1403 74.0301L54.7002 72.9501C55.3802 72.7101 55.9503 72.4501 56.4103 72.1801C55.8603 71.6501 55.4103 71.0501 55.0503 70.3701L55.8903 69.8501C56.2403 70.5601 56.6902 71.1301 57.2302 71.5601C57.2802 71.5201 57.3102 71.4901 57.3602 71.4401C57.7002 71.1001 58.0403 70.5401 58.4003 69.7501H55.1403V68.8101H59.4902V68.8201ZM58.1603 75.3801C58.0703 75.7901 57.9702 76.1501 57.8602 76.4401C58.6202 76.9001 59.3302 77.4201 59.9802 78.0101L59.4103 78.9501C58.7703 78.2801 58.1202 77.7501 57.4802 77.3201V77.3401C57.1702 77.8801 56.6603 78.4101 55.9303 78.9501L55.3903 77.9201C55.8703 77.6001 56.2503 77.2401 56.5203 76.8401C56.7403 76.5501 56.9402 76.0101 57.1202 75.2401L58.1503 75.3801H58.1603Z" fill="white"/>
<path d="M66.9003 75.3701C66.6703 75.0001 66.3302 74.5301 65.8602 73.9701C65.5702 73.6501 65.1303 73.2401 64.5403 72.7601L65.2703 72.1401C65.6603 72.4301 66.1002 72.8201 66.6102 73.3401C66.9302 73.6801 67.2803 74.1301 67.6703 74.7101L66.9003 75.3801V75.3701Z" fill="white"/>
<path d="M78.1002 68.1201V70.9701C78.4802 72.7201 79.0503 74.1601 79.8003 75.2801C80.4003 76.2201 81.4003 77.1701 82.7803 78.1501L82.0303 79.2201C80.8903 78.4301 80.0202 77.6701 79.4402 76.9201C78.6802 76.0101 78.0702 74.8901 77.6202 73.5601C77.2402 74.9501 76.7302 76.0201 76.0802 76.7601C75.4002 77.6001 74.3702 78.4101 72.9902 79.2201L72.2803 78.1501C73.9903 77.0701 75.1802 75.8801 75.8402 74.5901C76.4902 73.3701 76.8302 72.1601 76.8702 70.9801V68.1301H78.1102L78.1002 68.1201Z" fill="white"/>
<path d="M89.9003 69.85L89.2703 70.32H94.0503V71.4H92.3702C91.8802 72.81 91.2902 74 90.5902 74.99C90.3402 75.35 90.0902 75.67 89.8202 75.96C90.8102 76.66 92.2402 77.36 94.0902 78.11L93.4602 79.27C91.5702 78.49 90.0702 77.67 88.9702 76.79C88.7602 76.97 88.5502 77.14 88.3402 77.28C87.2202 78.02 85.8703 78.66 84.2803 79.19L83.6603 78.06C85.3703 77.59 86.6802 77.05 87.5902 76.45C87.7702 76.33 87.9503 76.21 88.1403 76.07C87.0803 74.97 86.2502 73.41 85.6302 71.4H83.7803V70.32H88.6503C88.2603 69.85 87.8103 69.34 87.2603 68.77L88.1002 68.21C88.8502 68.86 89.4502 69.4 89.8802 69.85H89.9003ZM88.9902 75.29C89.3102 74.95 89.6303 74.56 89.9203 74.13C90.4303 73.39 90.8502 72.47 91.2002 71.4H86.6902C87.3102 73.19 88.0702 74.48 88.9902 75.3V75.29Z" fill="white"/>
<path d="M101.25 69.2402H105.57V70.3202H97.0203V72.9502C97.0203 73.9102 96.9503 74.9102 96.8103 75.9502C96.6303 77.0302 96.3402 78.0902 95.9602 79.1402L95.0303 78.2902C95.3903 77.4502 95.6603 76.5602 95.7903 75.6302C95.9003 74.6702 95.9602 73.7802 95.9602 72.9602V69.2502H100.1C99.9202 68.9402 99.7203 68.6502 99.5203 68.3602L100.68 68.1802C100.89 68.5002 101.07 68.8602 101.25 69.2502V69.2402ZM104.91 71.6902C104.11 71.8102 103.29 71.9202 102.43 72.0002C102.43 72.5502 102.45 73.0302 102.49 73.4602H105.13V74.4402H102.58C102.61 74.7302 102.66 74.9702 102.7 75.1802C102.89 76.0702 103.18 76.8102 103.57 77.3902C103.79 77.7402 103.99 77.9102 104.2 77.9102C104.29 77.9102 104.44 77.2602 104.64 75.9402L105.57 76.7002C105.27 77.8802 105.06 78.5602 104.92 78.7802C104.76 79.0202 104.54 79.1402 104.28 79.1402C103.89 79.1402 103.52 78.9202 103.15 78.5202C102.58 77.9002 102.15 77.0202 101.84 75.8902C101.71 75.4802 101.62 75.0002 101.55 74.4502H99.1603V76.1702C99.8403 76.0702 100.54 75.9302 101.26 75.7602V76.7902C100.06 77.0702 98.7403 77.2802 97.2903 77.4502L97.1503 76.3702C97.4703 76.3602 97.8002 76.3302 98.1302 76.3002V71.2102C100.48 71.2002 102.58 71.0502 104.41 70.7902L104.9 71.6902H104.91ZM102.28 77.9102V78.8502H97.3402V77.9102H102.28ZM101.4 72.0802C100.67 72.1402 99.9303 72.1902 99.1703 72.2102V73.4602H101.46C101.43 73.0302 101.4 72.5702 101.4 72.0802Z" fill="white"/>
<path d="M107.81 76.7299C107.72 77.6699 107.57 78.4299 107.37 79.0799L106.48 78.7899C106.74 78.1199 106.91 77.4099 107 76.6399L107.81 76.7199V76.7299ZM109.19 68.9599V68.1699H110.22V68.9599H111.51V69.8999H110.22V70.6099H109.19V69.8999H106.51V68.9599H109.19ZM109.33 70.8299C108.94 71.6099 108.51 72.2999 108.04 72.8999C108.39 72.8899 108.74 72.8799 109.08 72.8499C109.3 72.4899 109.51 72.1099 109.73 71.7099L110.62 72.0499C109.86 73.3699 109.08 74.4499 108.28 75.3099C108.78 75.2699 109.21 75.2299 109.58 75.1499C109.51 74.9199 109.43 74.6999 109.36 74.4799L110.08 74.2399C110.31 74.8199 110.52 75.4799 110.71 76.2099L109.9 76.3999C109.87 76.2599 109.83 76.1099 109.8 75.9699C109.07 76.1399 108.09 76.2599 106.84 76.3499L106.57 75.3699C106.83 75.3699 107.07 75.3699 107.3 75.3599C107.71 74.8999 108.12 74.3599 108.54 73.7299C107.97 73.7799 107.37 73.8299 106.7 73.8699L106.52 72.9299C106.69 72.9299 106.86 72.9299 107.04 72.9199C107.55 72.1999 108.01 71.3799 108.4 70.4999L109.33 70.8199V70.8299ZM109.01 78.7499L108.17 78.8499C108.16 77.9399 108.12 77.2399 108.08 76.7399L108.8 76.6999C108.9 77.1999 108.97 77.8899 109.02 78.7499H109.01ZM110.39 78.2799L109.59 78.5699C109.46 77.9499 109.32 77.3299 109.15 76.7299L109.82 76.5499C110.06 77.1699 110.25 77.7499 110.39 78.2799ZM116.67 77.9099H117.07V78.8499H110.48V77.9099H110.97V75.0099H116.67V77.9099ZM116.32 70.8799V74.6299H111.28V70.8799H116.32ZM112.58 77.9099V75.9899H111.95V77.9099H112.58ZM113.29 68.9599V68.1699H114.32V68.9599H116.91V69.8999H114.32V70.4599H113.29V69.8999H112.05V68.9599H113.29ZM112.35 73.2199C112.9 72.7899 113.27 72.3199 113.49 71.8199H112.26V73.6999H113.06L112.35 73.2199ZM113.15 73.6999H114.7C114.28 73.4199 113.95 73.2199 113.71 73.0799C113.54 73.3199 113.36 73.5199 113.15 73.6999ZM114.1 77.9099V75.9899H113.52V77.9099H114.1ZM115.34 71.8199H113.73L114.36 71.9599C114.3 72.0899 114.25 72.2099 114.18 72.3299C114.54 72.5099 114.92 72.6999 115.3 72.8899L114.79 73.6899H115.35V71.8099L115.34 71.8199ZM115.69 77.9099V75.9899H115.03V77.9099H115.69Z" fill="white"/>
<path d="M127.69 75.3701C127.46 75.0001 127.12 74.5301 126.65 73.9701C126.36 73.6501 125.92 73.2401 125.33 72.7601L126.06 72.1401C126.45 72.4301 126.89 72.8201 127.4 73.3401C127.72 73.6801 128.07 74.1301 128.46 74.7101L127.69 75.3801V75.3701Z" fill="white"/>
<path d="M137.7 68.7202V68.2002H138.73V68.7202H142.51V69.9902H143.44V70.8302H142.51V72.1002H138.73V72.5702H142.61V73.3602H138.73V73.8802H143.49V74.7702H133.24V73.8802H137.7V73.3602H133.96V72.5702H137.7V72.1002H134.18V71.3002H137.7V70.8302H133.24V69.9902H137.7V69.5202H134.18V68.7202H137.7ZM142.42 79.0802H141.44V78.7402H135.16V78.9802H134.18V75.1402H142.42V79.0702V79.0802ZM141.44 76.5502V75.9902H135.16V76.5502H141.44ZM141.44 77.9102V77.3002H135.16V77.9102H141.44ZM138.73 69.9902H141.49V69.5202H138.73V69.9902ZM138.73 71.3002H141.49V70.8302H138.73V71.3002Z" fill="white"/>
<path d="M153.96 69.24C152.87 69.43 151.61 69.58 150.18 69.67V70.7H154.9V71.68H151.45C151.86 72.06 152.25 72.35 152.6 72.52C153.16 72.84 153.95 73.16 154.95 73.46L154.46 74.54C154.1 74.41 153.78 74.28 153.48 74.13V79.21H152.45V78.66H146.97V79.21H145.94V74.15C145.64 74.29 145.32 74.44 145.01 74.58L144.39 73.5C145.66 73.07 146.56 72.66 147.08 72.29C147.34 72.12 147.59 71.92 147.82 71.68H144.51V70.7H149.1V69.73C147.98 69.78 146.77 69.8 145.49 69.8L145.18 68.77C148.42 68.77 151.16 68.6 153.42 68.25L153.96 69.23V69.24ZM149.1 73.83V71.68H149.01C148.68 72.18 148.3 72.6 147.88 72.94C147.52 73.24 147.06 73.54 146.54 73.83H149.1ZM152.44 75.7V74.86H146.96V75.7H152.44ZM152.44 77.68V76.7H146.96V77.68H152.44ZM152.85 73.83C152.38 73.6 152.01 73.37 151.71 73.15C151.24 72.84 150.76 72.36 150.27 71.69H150.17V73.84H152.85V73.83Z" fill="white"/>
<path d="M157.07 70.9801V68.8201H158.23V70.9801H159.87V68.3101H160.99V70.9801H163.17V68.3101H164.29V70.9801H166.16V72.0601H164.29V76.2201H159.88V72.0601H158.24V77.5901H166.07V78.6701H158.24V79.2201H157.08V72.0601H155.92V70.9801H157.08H157.07ZM160.99 75.1501H163.17V72.0601H160.99V75.1501Z" fill="white"/>
<path d="M176.08 70.8799V71.8599H173.7C173.39 72.1199 173.08 72.3399 172.78 72.5299C173.18 73.0699 173.48 73.5999 173.66 74.0999C174.49 73.7199 175.29 73.1399 176.04 72.3699L176.84 73.1699C176.36 73.6399 175.85 74.0299 175.3 74.3599C175.55 74.9799 175.87 75.5599 176.24 76.0899C176.59 76.5899 177.09 77.1299 177.74 77.7099L177.02 78.6899C176.29 77.9899 175.7 77.2799 175.26 76.5599C174.93 76.0699 174.64 75.4899 174.42 74.8499C174.24 74.9499 174.08 75.0199 173.92 75.0799C174.02 75.5999 174.08 76.0999 174.08 76.5999C174.08 77.5099 173.95 78.1499 173.7 78.5399C173.43 78.9599 172.62 79.1799 171.27 79.1799L170.92 77.9999C170.94 78.0599 171.16 78.0999 171.55 78.0999C172.14 78.0999 172.53 78.0199 172.69 77.8699C172.87 77.6399 172.97 77.2199 172.97 76.5999C172.97 76.4299 172.96 76.2499 172.94 76.0699C172.3 76.5999 171.72 77.0099 171.2 77.2699C170.37 77.7299 169.33 78.1699 168.08 78.6099L167.5 77.5799C168.74 77.2299 169.83 76.8099 170.76 76.3199C171.5 75.9399 172.16 75.4799 172.75 74.9499C172.73 74.8499 172.69 74.7499 172.67 74.6399C172.64 74.5299 172.6 74.4199 172.56 74.2999C171.94 74.7699 171.39 75.1199 170.9 75.3399C170.17 75.6999 169.25 76.0599 168.13 76.3999L167.59 75.4199C168.68 75.1599 169.65 74.8299 170.49 74.4499C171.11 74.1699 171.66 73.8499 172.17 73.4699C172.08 73.3299 171.99 73.1699 171.88 73.0099C170.89 73.4699 169.74 73.8499 168.44 74.1599L167.86 73.1799C169.27 72.8899 170.39 72.5899 171.2 72.2799C171.54 72.1499 171.86 71.9999 172.16 71.8599H168.98V70.8799H176.1H176.08ZM173 69.0599H177.46V71.4899H176.43V70.0899H168.64V71.4899H167.61V69.0599H171.82C171.68 68.8199 171.55 68.5799 171.4 68.3499L172.6 68.1699C172.74 68.4299 172.86 68.7299 173 69.0599Z" fill="white"/>
<path d="M23.0203 100.21H27.4103V102.5H26.4802V105.59H21.1302C20.9902 105.82 20.8702 106.02 20.7302 106.2H27.3602C27.2902 107.94 27.2002 109.01 27.0902 109.4C27.0302 109.71 26.8602 109.95 26.5802 110.13C26.4002 110.25 25.7402 110.32 24.6102 110.32L24.3802 109.24C24.7302 109.26 24.9803 109.29 25.1403 109.29C25.5803 109.29 25.8602 109.24 25.9702 109.15C26.1502 108.96 26.2503 108.27 26.2903 107.09H19.8802C19.3302 107.53 18.6302 107.97 17.7402 108.4L17.1703 107.38C18.2003 106.97 18.9302 106.59 19.3602 106.24C19.6002 106.06 19.8203 105.84 20.0203 105.59H18.4103V102.45H17.4303V100.21H21.8602C21.7602 99.9801 21.6403 99.7701 21.5203 99.5501L22.6803 99.3701C22.7903 99.6301 22.9003 99.9101 23.0103 100.21H23.0203ZM20.0603 107.98C19.7403 108.93 19.3602 109.73 18.9502 110.41L18.1102 109.76C18.5202 109.14 18.9103 108.42 19.2603 107.6L20.0603 107.97V107.98ZM21.9702 103.3V104.04H19.3903V104.75H25.4902V104.04H22.8702V103.3H25.4902V102.64H22.6403V101.8H26.3302V101.14H18.5002V101.93C19.6502 101.91 20.6802 101.71 21.5702 101.38L22.0103 102.17C21.2303 102.48 20.3603 102.7 19.3903 102.82V103.3H21.9702ZM21.8003 109.94L20.7703 110.04C20.7503 109.08 20.7002 108.32 20.6302 107.8L21.4702 107.7C21.6302 108.25 21.7303 109.01 21.7903 109.94H21.8003ZM23.7603 109.57L22.7803 109.81C22.6703 109.09 22.5402 108.41 22.3802 107.75L23.2703 107.46C23.4503 108.08 23.6103 108.78 23.7603 109.57ZM25.5403 108.78L24.6503 109.1C24.4903 108.55 24.3002 108 24.0702 107.46L24.8202 107.28C25.1302 107.83 25.3703 108.32 25.5403 108.78Z" fill="white"/>
<path d="M38.9502 99.9702V101.05H33.7903V102.99C35.1003 103.78 36.4303 104.68 37.7903 105.69L37.0802 106.82C35.7302 105.73 34.6303 104.9 33.7903 104.33V110.29H32.6302V101.06H28.7102V99.9802H38.9602L38.9502 99.9702Z" fill="white"/>
<path d="M45.6002 106.15C45.4202 106.4 45.1202 106.65 44.7002 106.92L44.3402 106.33C44.8802 106.05 45.1803 105.69 45.2703 105.26H44.5403V103.81H45.9303V105C45.9303 105.47 45.8202 105.85 45.6002 106.15Z" fill="white"/>
<path d="M54.6202 99.7901C54.3202 100.77 54.0002 101.61 53.6902 102.29V110.29H52.6603V104.03C52.3903 104.44 52.0903 104.83 51.7703 105.23L51.4103 103.91C51.8803 103.29 52.2903 102.65 52.6403 101.98C53.0003 101.38 53.3502 100.52 53.6902 99.3801L54.6202 99.8001V99.7901ZM57.2603 100.35C57.2803 100.03 57.3102 99.7001 57.3302 99.3701L58.4902 99.5001C58.4702 99.8001 58.4303 100.09 58.4003 100.35H61.4702V101.29H58.2803C58.2303 101.59 58.1903 101.87 58.1403 102.13H60.9802V108.88H61.7903V109.82H54.1302V108.88H55.0603V102.13H57.0403C57.0903 101.87 57.1203 101.58 57.1503 101.29H54.5203V100.35H57.2603ZM59.9502 103.86V103.06H56.0902V103.86H59.9502ZM59.9502 105.49V104.7H56.0902V105.49H59.9502ZM59.9502 107.18V106.34H56.0902V107.18H59.9502ZM59.9502 108.87V108.02H56.0902V108.87H59.9502Z" fill="white"/>
<path d="M66.4702 100.12C65.6902 101.15 64.7302 102.08 63.5702 102.89L62.8502 101.91C63.9102 101.24 64.8602 100.41 65.7002 99.4102L66.4602 100.12H66.4702ZM66.5203 102.79C66.1603 103.59 65.7903 104.27 65.4003 104.82V110.29H64.3302V106.06C63.9902 106.42 63.6102 106.77 63.2202 107.1L62.8602 105.74C63.4202 105.27 63.9102 104.78 64.3302 104.28C64.7602 103.84 65.1702 103.19 65.5802 102.33L66.5103 102.8L66.5203 102.79ZM72.9702 104.56V105.45H71.7703V106.16H73.2402V107.14H71.7703V109.2C71.7703 109.61 71.6802 109.9 71.5002 110.06C71.3402 110.23 71.0402 110.32 70.6102 110.32H69.2803L69.0503 109.19C69.5703 109.25 70.0102 109.29 70.3502 109.29C70.6102 109.29 70.7502 109.19 70.7502 109V107.13H65.9402V106.15H70.7502V105.44H66.2502V104.55H72.9802L72.9702 104.56ZM72.7102 99.8301V103.86H66.7402V99.8301H72.7102ZM69.0103 108.78L68.0403 109.25C67.7403 108.67 67.4402 108.16 67.0902 107.7L68.0702 107.38C68.4302 107.81 68.7402 108.28 69.0002 108.78H69.0103ZM71.6902 101.46V100.67H67.7703V101.46H71.6902ZM71.6902 102.26H67.7703V103H71.6902V102.26Z" fill="white"/>
<path d="M82.9902 102.08V103.06H80.6102C80.3002 103.32 79.9902 103.54 79.6902 103.73C80.0902 104.27 80.3902 104.8 80.5702 105.3C81.4002 104.92 82.2002 104.34 82.9502 103.57L83.7502 104.37C83.2702 104.84 82.7602 105.23 82.2102 105.56C82.4602 106.18 82.7803 106.76 83.1503 107.29C83.5003 107.79 84.0003 108.33 84.6503 108.91L83.9303 109.89C83.2003 109.19 82.6103 108.47 82.1703 107.76C81.8403 107.27 81.5502 106.69 81.3302 106.05C81.1502 106.15 80.9902 106.22 80.8302 106.28C80.9302 106.8 80.9902 107.3 80.9902 107.8C80.9902 108.71 80.8602 109.35 80.6102 109.74C80.3402 110.16 79.5303 110.38 78.1803 110.38L77.8302 109.2C77.8502 109.26 78.0702 109.3 78.4602 109.3C79.0502 109.3 79.4402 109.22 79.6002 109.07C79.7802 108.84 79.8802 108.42 79.8802 107.8C79.8802 107.63 79.8702 107.45 79.8502 107.27C79.2102 107.8 78.6302 108.21 78.1102 108.47C77.2802 108.93 76.2402 109.37 74.9902 109.81L74.4103 108.78C75.6503 108.43 76.7403 108.01 77.6703 107.52C78.4103 107.14 79.0703 106.68 79.6603 106.15C79.6403 106.05 79.6002 105.95 79.5802 105.84C79.5502 105.73 79.5102 105.62 79.4702 105.5C78.8502 105.97 78.3003 106.32 77.8103 106.54C77.0803 106.9 76.1603 107.26 75.0403 107.6L74.5002 106.62C75.5902 106.36 76.5603 106.03 77.4003 105.65C78.0203 105.37 78.5702 105.05 79.0802 104.67C78.9902 104.53 78.9003 104.37 78.7903 104.21C77.8003 104.67 76.6502 105.05 75.3502 105.36L74.7703 104.38C76.1803 104.09 77.3002 103.79 78.1102 103.48C78.4502 103.35 78.7702 103.2 79.0702 103.06H75.8903V102.08H83.0103H82.9902ZM79.9103 100.26H84.3702V102.69H83.3402V101.29H75.5503V102.69H74.5203V100.26H78.7302C78.5902 100.02 78.4603 99.7801 78.3103 99.5501L79.5103 99.3701C79.6503 99.6301 79.7703 99.9301 79.9103 100.26Z" fill="white"/>
<path d="M88.6002 100.68L88.1002 101.05H89.8602V102.03H87.6703V102.37C87.6703 102.85 87.6603 103.31 87.6503 103.72H89.5902C89.5202 106.93 89.4302 108.66 89.3402 108.93C89.2602 109.34 89.1502 109.63 88.9902 109.79C88.8502 109.98 88.6103 110.1 88.2603 110.14C87.9103 110.14 87.6102 110.12 87.3702 110.09L87.1902 109.01C87.7102 109.08 88.0302 109.11 88.1202 109.11C88.2602 109.11 88.3503 109 88.3903 108.76C88.4603 108.59 88.5203 107.25 88.5603 104.71H87.6002C87.5502 105.5 87.4702 106.21 87.3802 106.81C87.2002 107.98 86.8402 109.17 86.3302 110.38L85.5303 109.67C85.9703 108.7 86.2902 107.66 86.4902 106.53C86.6502 105.62 86.7302 104.23 86.7302 102.37V102.03H85.7002V101.05H87.5503C87.3403 100.69 87.1102 100.31 86.8202 99.8901L87.5702 99.4101C88.0002 99.9101 88.3402 100.33 88.6002 100.68ZM92.2603 99.7001C92.1503 100.01 92.0302 100.3 91.9402 100.54H95.9502V101.57H91.4602C91.4302 101.63 91.3902 101.68 91.3702 101.73C91.1302 102.19 90.7102 102.74 90.1202 103.36L89.3202 102.6C89.5102 102.41 89.7002 102.23 89.8602 102.04C90.1302 101.73 90.3702 101.43 90.5802 101.12C90.8702 100.63 91.1202 100.03 91.3202 99.3301L92.2703 99.7001H92.2603ZM92.6102 102.18C92.5102 102.48 92.4202 102.74 92.3402 102.97H95.6803V103.95H93.5002V105.54H95.9502V106.52H93.5802C93.6702 106.83 93.8203 107.18 94.0503 107.54C94.4603 108.21 95.1402 108.85 96.0802 109.47L95.4602 110.32C94.8402 109.94 94.3703 109.54 94.0103 109.13C93.5903 108.67 93.2603 108.11 93.0103 107.45C92.7203 108.04 92.4202 108.51 92.1002 108.85C91.7002 109.28 91.1003 109.76 90.3003 110.26L89.6302 109.46C90.5202 108.96 91.2502 108.32 91.8202 107.54C92.1102 107.13 92.3003 106.8 92.4103 106.51H89.8602V105.53H92.5303V103.94H91.9003C91.6903 104.36 91.3502 104.84 90.8702 105.39L90.0702 104.65C90.4802 104.22 90.8202 103.79 91.0702 103.36C91.3002 102.93 91.5003 102.41 91.6703 101.8L92.6002 102.17L92.6102 102.18Z" fill="white"/>
<path d="M101.6 106.06V105.22H102.67V106.06H106.85V107H103.81C104.27 107.48 104.7 107.82 105.09 108.01C105.66 108.37 106.45 108.71 107.47 109.02L107.03 110.05C105.78 109.55 104.84 109.07 104.25 108.61C103.76 108.27 103.26 107.73 102.73 107H102.67V110.38H101.6V107.01C101.27 107.49 100.94 107.87 100.6 108.15C99.9602 108.77 98.9102 109.41 97.4702 110.09L96.8903 109.06C97.9603 108.65 98.8003 108.26 99.4203 107.86C99.8203 107.62 100.18 107.33 100.51 107H97.5902V106.06H101.6ZM100.31 99.3999V100.11C100.29 100.59 100.24 101.01 100.15 101.37C100.88 101.93 101.5 102.49 102 103.01L101.28 103.77C100.92 103.31 100.41 102.82 99.8003 102.29C99.7503 102.39 99.7103 102.46 99.6603 102.52C99.2803 103.08 98.6703 103.52 97.8103 103.82L97.2703 102.92C98.0403 102.64 98.5802 102.3 98.8802 101.88C99.1802 101.42 99.3202 100.84 99.3202 100.12V99.4099H100.3L100.31 99.3999ZM107.16 105.83H106.09V104.93H98.3502V105.83H97.2803V103.95H107.16V105.83ZM98.8402 99.9699C98.7502 100.7 98.5802 101.31 98.3502 101.81L97.4203 101.52C97.7003 101.02 97.9002 100.46 97.9902 99.8899L98.8502 99.9699H98.8402ZM102.18 100.21C102.09 100.8 101.94 101.36 101.74 101.9L100.76 101.56C101.03 101.07 101.2 100.54 101.28 99.9599L102.18 100.2V100.21ZM105.15 99.4099V100.12C105.13 100.61 105.07 101.04 104.98 101.43C105.71 101.84 106.39 102.32 107.02 102.85L106.45 103.79C105.85 103.21 105.24 102.72 104.64 102.33C104.59 102.41 104.55 102.49 104.5 102.55C104.11 103.11 103.49 103.55 102.62 103.85L102.08 102.95C102.88 102.67 103.42 102.33 103.72 101.91C104.02 101.45 104.16 100.87 104.16 100.15V99.4399H105.14L105.15 99.4099ZM103.51 100.02C103.44 100.75 103.32 101.36 103.16 101.86L102.23 101.57C102.45 101.07 102.59 100.51 102.67 99.9299L103.51 100.03V100.02ZM106.94 100.21C106.85 100.75 106.68 101.27 106.45 101.76L105.52 101.42C105.82 100.98 106 100.5 106.09 99.9699L106.94 100.21Z" fill="white"/>
<path d="M110.86 99.3701V103.68H112.33V104.66H111.39V108.16C111.7 107.93 111.99 107.68 112.28 107.42V108.5C111.71 109.1 111.05 109.64 110.32 110.14L110.01 109.06C110.19 108.96 110.36 108.86 110.55 108.74V104.66H110.16C110.07 106 109.94 107.07 109.8 107.85C109.61 108.74 109.32 109.53 108.95 110.24L108.38 109.44C108.65 108.84 108.87 108.16 109.03 107.4C109.17 106.7 109.26 105.79 109.33 104.67H108.51V103.69H109.98V99.3801H110.87L110.86 99.3701ZM109.71 102.79L108.95 103.11C108.79 102.04 108.61 101.1 108.41 100.26L109.17 100.02C109.38 100.88 109.55 101.81 109.71 102.79ZM112.29 100.36C112.15 101.46 111.98 102.42 111.8 103.21L111.09 102.69C111.27 101.92 111.45 101.04 111.63 100.02L112.29 100.36ZM114.3 104.01C114.21 104.23 114.13 104.43 114.04 104.62H115.65C115.56 104.44 115.47 104.27 115.38 104.1L116.27 103.96C116.36 104.16 116.44 104.38 116.53 104.62H118.72V105.46H116.45V106.07H118.45V106.91H116.45V107.57H118.45V108.41H116.45V109.12H118.89V109.96H113.68V110.39H112.79V106.5C112.56 106.75 112.33 107 112.08 107.24L111.81 106.21C112.17 105.86 112.49 105.5 112.78 105.13C113.05 104.79 113.33 104.31 113.6 103.68L114.31 104L114.3 104.01ZM114.3 102.85C113.87 103.34 113.33 103.77 112.69 104.16L112.34 103.27C112.9 103.01 113.48 102.57 114.08 102L114.3 102.85ZM115.33 99.7101V103.97H114.44V100.6H112.43V99.7101H115.33ZM114.04 101.48L113.6 102.24C113.26 101.88 112.92 101.6 112.57 101.4L112.97 100.74C113.36 100.96 113.71 101.2 114.04 101.48ZM115.46 105.46H113.67V106.07H115.46V105.46ZM115.46 106.91H113.67V107.57H115.46V106.91ZM115.46 109.12V108.41H113.67V109.12H115.46ZM117.42 102.85C117.01 103.26 116.5 103.6 115.9 103.92L115.58 103.08C116.1 102.86 116.66 102.52 117.23 102.05L117.41 102.85H117.42ZM118.48 99.7101V103.97H117.55V100.6H115.68V99.7101H118.48ZM117.1 101.53L116.66 102.29C116.34 101.93 116.01 101.65 115.68 101.44L116.08 100.79C116.44 101.01 116.79 101.25 117.11 101.53H117.1Z" fill="white"/>
<path d="M122.84 99.8401C122.82 99.9201 122.79 100 122.77 100.07H125.64V99.3701H126.67V100.07H129.96V100.96H126.67V101.52H129.38V104.89C129.7 105.42 129.95 105.87 130.14 106.26L129.3 106.87C129.22 106.67 129.14 106.45 129.05 106.23C128.9 106.24 128.77 106.25 128.63 106.25V106.99H130.15V107.89H128.63V109.2C128.63 109.58 128.54 109.86 128.36 110.02C128.19 110.19 127.88 110.28 127.43 110.28H126.37L126.14 109.2C126.53 109.26 126.86 109.3 127.12 109.3C127.42 109.3 127.56 109.2 127.56 109.01V107.89H124.36C124.83 108.37 125.2 108.79 125.48 109.15L124.5 109.86C124.23 109.38 123.85 108.84 123.38 108.22L123.88 107.9H122.35V107H127.56V106.33C126.08 106.43 124.44 106.51 122.66 106.58L122.49 105.69C123.55 105.67 124.6 105.64 125.65 105.61V104.99H122.98V101.52H125.65V100.96H122.71V100.3C122.48 101.04 122.24 101.68 122 102.22V110.29H121.02V103.99C120.72 104.45 120.42 104.89 120.09 105.32L119.74 104C120.17 103.38 120.57 102.72 120.91 102.04C121.25 101.44 121.59 100.55 121.91 99.4001L122.84 99.8301V99.8401ZM125.64 102.89V102.33H123.95V102.89H125.64ZM125.64 103.63H123.95V104.19H125.64V103.63ZM126.67 102.89H128.4V102.33H126.67V102.89ZM128.4 103.63H126.67V104.19H128.4V103.63ZM126.67 105.57C127.35 105.55 128.04 105.52 128.71 105.49C128.66 105.41 128.63 105.32 128.58 105.23L128.94 104.99H126.66V105.58L126.67 105.57Z" fill="white"/>
<path d="M134.02 102.45V103.53C133.95 104.56 133.84 105.44 133.7 106.17C133.56 106.83 133.38 107.42 133.14 107.92C132.89 108.48 132.5 109.07 131.97 109.67L131.17 108.73C131.81 108.02 132.26 107.27 132.52 106.45C132.72 105.8 132.87 104.83 132.96 103.52H131.34V102.44H134.02V102.45ZM139.63 99.6401V100.72C138.9 101.39 138.07 102.03 137.13 102.63V103.11H138.46V104.09H137.13V104.93H138.78V105.91H137.13V106.76H139.18V107.79H137.13V109.24C137.12 109.53 137.05 109.76 136.94 109.92C136.76 110.15 136.56 110.27 136.34 110.27H134.82L134.59 109.14C134.95 109.18 135.34 109.19 135.75 109.19C135.95 109.19 136.06 109.09 136.06 108.9V107.78H133.7V106.75H136.06V105.9H134.14V104.92H136.06V104.08H134.33V103.1H136.06V102.12C136.72 101.8 137.42 101.33 138.16 100.72H133V99.6401H139.63ZM141.64 102.91C141.35 103.49 141.09 103.92 140.84 104.23C140.62 104.52 140.36 104.79 140.05 105.07C140.1 105.35 140.16 105.59 140.23 105.8C140.49 106.74 140.97 107.71 141.67 108.73L140.78 109.67C140.01 108.37 139.48 107.16 139.22 106.04C138.89 104.84 138.73 103.5 138.74 101.99H139.72C139.74 102.65 139.78 103.25 139.85 103.79C139.93 103.69 140.01 103.6 140.08 103.5C140.31 103.21 140.52 102.84 140.74 102.37L141.64 102.92V102.91Z" fill="white"/>
<path d="M145.99 99.5501C145.85 100.17 145.66 100.76 145.42 101.29H147.06V103.8C147.39 103.22 147.65 102.65 147.83 102.07C148.06 101.4 148.24 100.5 148.39 99.3701L149.51 99.5501C149.41 100.2 149.31 100.76 149.2 101.24H152.71C152.71 105.46 152.64 107.96 152.53 108.72C152.42 109.32 152.22 109.73 151.95 109.92C151.63 110.16 151.04 110.28 150.18 110.28C149.93 110.28 149.64 110.26 149.33 110.23L149.16 109.05C149.49 109.12 149.83 109.15 150.19 109.15C150.91 109.15 151.31 108.9 151.4 108.39C151.54 107.77 151.63 105.74 151.65 102.31H148.94C148.91 102.39 148.88 102.47 148.87 102.51C148.62 103.37 148.2 104.3 147.6 105.26L147.06 104.56V109.47H146.08V108.91H143.99V109.81H143.01V101.28H144.42C144.66 100.7 144.84 100.07 144.97 99.4001L145.98 99.5401L145.99 99.5501ZM146.08 104.61V102.27H143.99V104.61H146.08ZM146.08 107.93V105.54H143.99V107.93H146.08ZM150.8 106.77L149.73 107.51C149.41 106.65 148.97 105.64 148.4 104.51L149.29 103.9C149.93 105.02 150.44 105.97 150.81 106.77H150.8Z" fill="white"/>
<path d="M158.77 104.85H155.52V110.38H154.46V99.7402H158.77V104.85ZM157.71 101.76V100.68H155.52V101.76H157.71ZM157.71 103.91V102.65H155.52V103.91H157.71ZM163.98 99.7502V109.02C163.98 109.44 163.87 109.75 163.66 109.96C163.48 110.15 163.17 110.25 162.74 110.25H161.41L161.18 109.12L162.56 109.17C162.82 109.17 162.96 108.99 162.97 108.65V104.86H159.63V99.7502H163.98ZM162.97 101.76V100.68H160.66V101.76H162.97ZM162.97 102.65H160.66V103.91H162.97V102.65Z" fill="white"/>
<path d="M167.06 99.7401V102.55H167.9V99.3701H168.88V102.55H169.55V103.58H167.05V103.9C167.05 104.28 167.04 104.64 167.04 104.98H169.19V110.38H168.21V105.97H167C166.97 106.53 166.92 107.04 166.87 107.47C166.76 108.41 166.55 109.35 166.24 110.34L165.39 109.54C165.62 108.8 165.79 107.99 165.89 107.13C165.97 106.43 166.01 105.36 166.01 103.92V99.7601H167.04L167.06 99.7401ZM173.2 99.5501C173.09 99.8001 172.96 100.04 172.8 100.26H175.51V105.45H172.5C172.16 105.99 171.61 106.52 170.87 107.04H173.15V105.68H174.18V107.04H175.87V108.07H174.18V110.37H173.15V108.07H169.41V107.04H170.25L169.67 106.52C170.33 106.18 170.84 105.82 171.23 105.44H169.81V100.25H171.68C171.85 99.9901 171.99 99.7101 172.08 99.4001L173.2 99.5401V99.5501ZM172.17 102.4V101.24H170.79V102.4H172.17ZM172.16 103.3H170.79V104.46H171.92C172.05 104.14 172.13 103.75 172.16 103.3ZM174.53 103.3H173.14C173.11 103.73 173.04 104.13 172.93 104.46H174.53V103.3ZM173.15 102.4H174.53V101.24H173.15V102.4Z" fill="white"/>
</svg>
