<?xml version="1.0" encoding="utf-8"?>
<!-- Generator: Adobe Illustrator 25.2.3, SVG Export Plug-In . SVG Version: 6.00 Build 0)  -->
<svg version="1.1" id="圖層_1" xmlns="http://www.w3.org/2000/svg" xmlns:xlink="http://www.w3.org/1999/xlink" x="0px" y="0px"
	 viewBox="0 0 280 35" style="enable-background:new 0 0 280 35;" xml:space="preserve">
<style type="text/css">
	.st0{fill:none;stroke:#D1AC64;stroke-width:0.25;stroke-miterlimit:10;stroke-dasharray:2,2;}
	.st1{fill:#C39C61;}
	.st2{fill:#C9A063;}
	.st3{fill:#FFFFFF;}
</style>
<path class="st0" d="M55.5,33.9h215.7"/>
<path class="st1" d="M22.5,0.8V22h-2.9V3l-2.7,1l-0.4-1L22.5,0.8z"/>
<path class="st2" d="M30,1.5c0.8,1.1,2.1,2.5,3.5,2.7c0.2-1.7-1.4-3.1-2.8-3.6c-0.5-0.2-1-0.3-1.6-0.4C29.4,0.6,29.7,1,30,1.5z
	 M37.1,5.8c-0.4,1.6-0.7,3.5,0,5c1.6-1,1.7-3.1,1.3-4.8c-0.2-0.6-0.4-1.3-0.8-1.8C37.4,4.7,37.3,5.3,37.1,5.8z M39,10.5
	c-0.9,1.4-1.7,3.3-1.4,5c2-0.5,2.5-2.6,2.6-4.4c0-0.7-0.1-1.4-0.2-2C39.6,9.6,39.3,10.1,39,10.5z M39.6,15.7
	c-1.3,1.2-2.6,2.8-2.9,4.6c0.5,0,0.8,0,1.3-0.2c1.9-0.9,2.9-3.4,2.9-5.5C40.4,14.9,40,15.3,39.6,15.7z M38.7,21
	c-1.6,0.8-3.4,2-4.1,3.6c2,0.7,3.7-0.8,4.8-2.3c0.4-0.6,0.8-1.3,1-2C39.8,20.5,39.3,20.7,38.7,21z M36.6,25.8
	c-1.8,0.3-3.8,0.9-5,2.3c0.7,0.5,1.3,0.7,2.1,0.6c1.9-0.2,3.6-1.5,4.7-3C37.7,25.7,37.1,25.7,36.6,25.8z M33.2,29.9
	c-1.8-0.2-4.1-0.1-5.6,0.9c1.3,1.8,3.6,1.4,5.4,0.7c0.7-0.3,1.4-0.7,2-1.2C34.4,30.1,33.8,30,33.2,29.9z M34.1,1.7
	c0,1.6,0.3,3.6,1.4,4.8c1.3-1.3,0.7-3.6-0.1-4.9c-0.3-0.6-0.8-1.1-1.2-1.5C34.1,0.6,34.1,1.1,34.1,1.7z M28.9,33
	c-1.4-0.6-2.5-0.9-4-1c-0.6,0-1.1,0.1-1.7,0.3c0.5,1.1,1.3,1.6,2.4,2.1c0.9,0.2,1.7,0.2,2.6,0.1c0.8-0.1,1.6-0.3,2.3-0.6
	C30,33.6,29.4,33.3,28.9,33z M33.2,7.8C34,8,34.7,8.3,35.3,8.9c0.6,0.6,0.9,1.3,0.9,2.1c-1.9-0.1-3.5-1.8-4.5-3.4
	C32.2,7.7,32.7,7.7,33.2,7.8z M34.4,11.5c1.4,0.7,2.6,2.3,2.2,4c-1.7-0.5-3.1-2.7-3.6-4.4C33.4,11.2,33.9,11.3,34.4,11.5z
	 M34.6,15.4c1.2,1.1,1.8,2.4,1.4,4c-0.1,0.2-0.1,0.3-0.2,0.5c-1.6-0.9-2.4-3.5-2.5-5.3C33.7,14.8,34.2,15.1,34.6,15.4z M33.7,19.3
	c1,1.3,1.3,3.4,0.1,4.7c-1.4-1.3-1.5-4-1.2-5.8C33,18.5,33.4,18.9,33.7,19.3z M31.9,22.7c0.6,1.4,0.6,2.7-0.3,3.9
	c-0.2,0.3-0.4,0.5-0.7,0.7c-1.1-1.6-0.6-4.3,0.2-6C31.4,21.8,31.7,22.2,31.9,22.7z M29.3,25.5c0.3,1.7-0.4,3.7-2.2,4.4
	c-0.5-1.4,0.2-3.4,0.9-4.7c0.2-0.4,0.5-0.8,0.8-1.2C29,24.4,29.2,25,29.3,25.5z M31.1,4.4c1.5,0,3.3,0.9,3.6,2.5
	c-1.8,0.3-3.9-1-5.1-2.2C30.1,4.5,30.6,4.4,31.1,4.4z M26.1,27.5c-0.1,1.4-0.6,2.4-1.7,3.2c-0.5,0.4-1,0.6-1.6,0.7
	c-0.2-1.2,0.2-2.1,0.9-3c0.3-0.5,0.7-1,1.1-1.5c0.3-0.4,0.7-0.7,1.1-1C26.1,26.4,26.1,26.9,26.1,27.5z"/>
<path class="st2" d="M33.5,4.2c1.1,1.5,1.8,2.8,2.4,4.5c1.3,3.8,1.4,7,0.3,10.9c-1,3-2.2,5.1-4.4,7.3c-2.2,2.1-4.3,3.3-7.2,4.2
	c-1.8,0.5-3.6,1.1-5.3,1.6c0.1,0.2,0.1,0.4,0.2,0.5c1.8-0.6,3.5-1.1,5.3-1.6c3-1,5.1-2.2,7.4-4.4c2.2-2.3,3.5-4.5,4.4-7.5
	c1-4,0.9-7.1-0.5-11C35.4,6.9,34.6,5.7,33.5,4.2z"/>
<path class="st2" d="M11.4,1.5C10.6,2.6,9.3,4,7.9,4.2c-0.2-1.7,1.4-3.1,2.8-3.6c0.5-0.2,1-0.3,1.6-0.4C12,0.6,11.7,1,11.4,1.5z
	 M4.3,5.8c0.4,1.6,0.7,3.5,0,5C2.7,9.8,2.6,7.7,3,6c0.2-0.6,0.4-1.3,0.8-1.8C4,4.7,4.1,5.3,4.3,5.8z M2.4,10.5
	c0.9,1.4,1.7,3.3,1.4,5c-2-0.5-2.5-2.6-2.6-4.4c0-0.7,0.1-1.4,0.2-2C1.8,9.6,2.1,10.1,2.4,10.5z M1.9,15.7c1.3,1.2,2.6,2.8,2.9,4.6
	c-0.5,0-0.8,0-1.3-0.2c-1.9-0.9-2.9-3.4-2.9-5.5C1,14.9,1.4,15.3,1.9,15.7z M2.7,21c1.6,0.8,3.4,2,4.1,3.6c-2,0.7-3.7-0.8-4.8-2.3
	c-0.4-0.6-0.8-1.3-1-2C1.6,20.5,2.1,20.7,2.7,21z M4.9,25.8c1.8,0.3,3.8,0.9,5,2.3c-0.7,0.5-1.3,0.7-2.1,0.6c-1.9-0.2-3.6-1.5-4.7-3
	C3.7,25.7,4.3,25.7,4.9,25.8z M8.2,29.9c1.8-0.2,4.1-0.1,5.6,0.9c-1.3,1.8-3.6,1.4-5.4,0.7c-0.7-0.3-1.4-0.7-2-1.2
	C7,30.1,7.6,30,8.2,29.9z M7.3,1.7c0,1.6-0.3,3.6-1.4,4.8C4.6,5.2,5.2,2.9,6,1.6C6.3,1,6.8,0.5,7.2,0.1C7.3,0.6,7.3,1.1,7.3,1.7z
	 M12.5,33c1.4-0.6,2.5-0.9,4-1c0.6,0,1.1,0.1,1.7,0.3c-0.5,1.1-1.3,1.6-2.4,2.1c-0.9,0.2-1.7,0.2-2.6,0.1c-0.8-0.1-1.6-0.3-2.3-0.6
	C11.4,33.6,12,33.3,12.5,33z M8.2,7.8C7.4,8,6.7,8.3,6.1,8.9C5.5,9.5,5.2,10.2,5.2,11c1.9-0.1,3.5-1.8,4.5-3.4
	C9.2,7.7,8.7,7.7,8.2,7.8z M7,11.5c-1.4,0.7-2.6,2.3-2.2,4c1.7-0.5,3.1-2.7,3.6-4.4C8,11.2,7.5,11.3,7,11.5z M6.8,15.4
	c-1.2,1.1-1.8,2.4-1.4,4c0.1,0.2,0.1,0.3,0.2,0.5C7.2,19,8,16.4,8.1,14.6C7.7,14.8,7.2,15.1,6.8,15.4z M7.7,19.3
	c-1,1.3-1.3,3.4-0.1,4.7c1.4-1.3,1.5-4,1.2-5.8C8.4,18.5,8,18.9,7.7,19.3z M9.5,22.7c-0.6,1.4-0.6,2.7,0.3,3.9
	c0.2,0.3,0.4,0.5,0.7,0.7c1.1-1.6,0.6-4.3-0.2-6C10,21.8,9.7,22.2,9.5,22.7z M12.1,25.5c-0.3,1.7,0.4,3.7,2.2,4.4
	c0.5-1.4-0.2-3.4-0.9-4.7c-0.2-0.4-0.5-0.8-0.8-1.2C12.4,24.4,12.2,25,12.1,25.5z M10.3,4.4C8.8,4.4,7,5.3,6.7,6.9
	c1.8,0.3,3.9-1,5.1-2.2C11.3,4.5,10.8,4.4,10.3,4.4z M15.3,27.5c0.1,1.4,0.6,2.4,1.7,3.2c0.5,0.4,1,0.6,1.6,0.7
	c0.2-1.2-0.2-2.1-0.9-3c-0.3-0.5-0.7-1-1.1-1.5c-0.3-0.4-0.7-0.7-1.1-1C15.3,26.4,15.3,26.9,15.3,27.5z"/>
<path class="st2" d="M7.9,4.2C6.8,5.7,6.1,7,5.5,8.7c-1.3,3.8-1.4,7-0.3,10.9c1,3,2.2,5.1,4.4,7.3c2.2,2.1,4.3,3.3,7.2,4.2
	c1.8,0.5,3.6,1.1,5.3,1.6c-0.1,0.2-0.1,0.4-0.2,0.5c-1.8-0.6-3.5-1.1-5.3-1.6c-3-1-5.1-2.2-7.4-4.4c-2.2-2.3-3.5-4.5-4.4-7.5
	c-1-4-0.9-7.1,0.5-11C6,6.9,6.8,5.7,7.9,4.2z"/>
<path class="st3" d="M65.2,11.4v1.1h-2.7c-0.4,0.3-0.7,0.5-1.1,0.7c0.5,0.6,0.8,1.2,1,1.7c0.9-0.4,1.9-1,2.7-1.9l0.9,0.9
	c-0.5,0.5-1.1,0.9-1.8,1.3c0.3,0.7,0.7,1.3,1.1,1.9c0.4,0.5,1,1.1,1.7,1.8L66.2,20c-0.8-0.8-1.5-1.5-2-2.3c-0.4-0.5-0.7-1.2-1-1.9
	C63,15.9,62.8,16,62.6,16c0.1,0.6,0.2,1.1,0.2,1.7c0,1-0.1,1.7-0.4,2.1c-0.3,0.5-1.2,0.7-2.8,0.7l-0.4-1.3c0,0.1,0.3,0.1,0.7,0.1
	c0.7,0,1.1-0.1,1.3-0.2c0.2-0.2,0.3-0.7,0.3-1.4c0-0.2,0-0.4,0-0.6c-0.7,0.6-1.4,1-2,1.3c-0.9,0.5-2.1,1-3.6,1.5l-0.7-1.1
	c1.4-0.4,2.7-0.8,3.7-1.4c0.8-0.4,1.6-0.9,2.3-1.5c0-0.1-0.1-0.2-0.1-0.3S61,15.4,61,15.2c-0.7,0.5-1.3,0.9-1.9,1.1
	c-0.8,0.4-1.9,0.8-3.2,1.1l-0.6-1.1c1.2-0.3,2.4-0.6,3.3-1.1c0.7-0.3,1.3-0.6,1.9-1.1c-0.1-0.2-0.2-0.3-0.3-0.5
	c-1.1,0.5-2.4,0.9-3.9,1.2l-0.7-1.1c1.6-0.3,2.9-0.6,3.8-1c0.4-0.1,0.8-0.3,1.1-0.5H57v-1.1h8.2V11.4z M61.7,9.4h5.1V12h-1.2v-1.5
	h-8.9V12h-1.2V9.4h4.8c-0.2-0.3-0.3-0.5-0.5-0.8l1.4-0.2C61.4,8.7,61.5,9,61.7,9.4z"/>
<path class="st3" d="M80,14.2v1.1h-5.1v1.2h4.4v1.1h-4.4v1.3c0.6,0.1,1.4,0.1,2.2,0.1c1.2,0,2.2,0,3-0.1l-0.4,1.3
	c-4,0-6.3-0.1-7.1-0.4c-0.8-0.3-1.4-0.8-2-1.6c-0.4,0.7-1,1.4-1.8,2.2l-0.9-1.1c0.7-0.6,1.2-1.1,1.5-1.7c0.3-0.5,0.6-1.2,0.8-2.1
	l1.3,0.2c-0.2,0.6-0.3,1.1-0.5,1.4c0.5,0.8,1.2,1.2,1.9,1.5c0.1,0.1,0.3,0.1,0.5,0.1v-3.5h-5.5v-1.1H80V14.2z M78.8,8.7v4.7h-9.3
	V8.7H78.8z M77.5,10.6V9.8h-6.7v0.8H77.5z M77.5,11.5h-6.7v0.9h6.7V11.5z"/>
<path class="st3" d="M87.2,8.6c-0.2,0.3-0.4,0.6-0.5,0.9h5.4v0.9c-1.4,1.8-2.8,3.1-4.3,4c-0.2,0.1-0.4,0.3-0.6,0.4h5.1v5.6H91v-0.8
	h-5.6v0.8h-1.3v-4.3c-0.7,0.2-1.5,0.5-2.3,0.7l-0.7-1.2c1.9-0.4,3.6-1,4.9-1.6c-0.4-0.5-0.9-1-1.5-1.6l1-0.6
	c0.7,0.6,1.3,1.1,1.8,1.6c1-0.6,2-1.5,3.1-2.7h-4.6c-0.2,0.2-0.3,0.3-0.5,0.4c-0.8,0.7-1.8,1.3-3,1.9l-0.8-1c1.1-0.5,2-1,2.7-1.6
	c0.6-0.4,1.1-1,1.6-1.9L87.2,8.6z M91,18.4v-2.6h-5.6v2.6H91z"/>
<path class="st3" d="M104.2,11.4v1.1h-2.7c-0.4,0.3-0.7,0.5-1.1,0.7c0.5,0.6,0.8,1.2,1,1.7c0.9-0.4,1.9-1,2.7-1.9l0.9,0.9
	c-0.5,0.5-1.1,0.9-1.8,1.3c0.3,0.7,0.7,1.3,1.1,1.9c0.4,0.5,1,1.1,1.7,1.8l-0.8,1.1c-0.8-0.8-1.5-1.5-2-2.3c-0.4-0.5-0.7-1.2-1-1.9
	c-0.2,0.1-0.4,0.2-0.6,0.2c0.1,0.6,0.2,1.1,0.2,1.7c0,1-0.1,1.7-0.4,2.1c-0.3,0.5-1.2,0.7-2.8,0.7l-0.4-1.3c0,0.1,0.3,0.1,0.7,0.1
	c0.7,0,1.1-0.1,1.3-0.2c0.2-0.2,0.3-0.7,0.3-1.4c0-0.2,0-0.4,0-0.6c-0.7,0.6-1.4,1-2,1.3c-0.9,0.5-2.1,1-3.6,1.5l-0.7-1.1
	c1.4-0.4,2.7-0.8,3.7-1.4c0.8-0.4,1.6-0.9,2.3-1.5c0-0.1-0.1-0.2-0.1-0.3s-0.1-0.2-0.1-0.4c-0.7,0.5-1.3,0.9-1.9,1.1
	c-0.8,0.4-1.9,0.8-3.2,1.1l-0.6-1.1c1.2-0.3,2.4-0.6,3.3-1.1c0.7-0.3,1.3-0.6,1.9-1.1c-0.1-0.2-0.2-0.3-0.3-0.5
	c-1.1,0.5-2.4,0.9-3.9,1.2l-0.7-1.1c1.6-0.3,2.9-0.6,3.8-1c0.4-0.1,0.8-0.3,1.1-0.5H96v-1.1h8.2V11.4z M100.7,9.4h5.1V12h-1.2v-1.5
	h-8.9V12h-1.2V9.4h4.8c-0.2-0.3-0.3-0.5-0.5-0.8l1.4-0.2C100.4,8.7,100.5,9,100.7,9.4z"/>
<path class="st3" d="M109.2,10.9V8.5h1.2v2.4h1.8v1.2h-1.8v2.4c0.6-0.2,1.2-0.4,1.8-0.7V15c-0.6,0.3-1.2,0.5-1.8,0.7V19
	c0,0.5-0.1,0.8-0.3,1c-0.2,0.2-0.5,0.3-1.1,0.3h-1.5l-0.3-1.3c0.5,0.1,1,0.1,1.4,0.1c0.3,0,0.5-0.1,0.5-0.3V16
	c-0.6,0.2-1.3,0.3-1.9,0.5l-0.1-1.3c0.7-0.1,1.4-0.2,2.1-0.4V12h-2v-1.2h2V10.9z M119.1,9.3v1.2H117v8.2c0,0.5-0.1,0.8-0.4,1
	c-0.2,0.2-0.6,0.3-1.2,0.3h-2l-0.3-1.3c0.8,0.1,1.4,0.1,1.9,0.1c0.4,0,0.6-0.1,0.6-0.3v-8h-3.4V9.3H119.1z"/>
<path class="st3" d="M123.5,11.6v0.9c-0.4,0.7-0.9,1.5-1.6,2.2h1.7v0.8c-0.2,0.7-0.4,1.3-0.5,1.8c0.5,0.7,1.2,1.1,2,1.3
	c0.7,0.2,2.1,0.4,4,0.4c1.2,0,2.2,0,3.1-0.1l-0.4,1.3c-4,0-6.4-0.1-7.2-0.4c-0.8-0.2-1.5-0.7-2-1.5c-0.4,0.7-0.9,1.4-1.6,2.1
	l-0.9-0.9c0.7-0.7,1.2-1.3,1.5-1.8c0.2-0.3,0.5-0.9,0.8-1.9h-1.9v-1c0.5-0.5,1.1-1.2,1.6-2.1h-1.9v-1.1H123.5z M123.2,10.2l-0.8,0.8
	c-0.4-0.5-0.9-1.1-1.5-1.7l0.8-0.7C122.2,9.2,122.7,9.7,123.2,10.2z M126.6,8.8c-0.1,0.4-0.3,0.7-0.4,1.1h1.1V8.5h1.2v1.4h2.8V11
	h-2.8v1.3h3.4v1.1h-3.4v0.8h-1.2v-0.8h-3.4v-1.1h3.4V11h-1.7c-0.3,0.4-0.5,0.8-0.8,1.2l-1.1-0.7c0.8-0.9,1.4-1.8,1.7-2.8L126.6,8.8z
	 M131.2,14.4v3.4h-6.5v-3.4H131.2z M130,15.4h-4.2v1.4h4.2V15.4z"/>
<path class="st3" d="M139.5,15.8c-0.2,0.3-0.5,0.5-1,0.8l-0.4-0.6c0.6-0.3,1-0.7,1.1-1.2h-0.8v-1.6h1.6v1.3
	C139.9,15,139.8,15.4,139.5,15.8z"/>
<path class="st3" d="M148.5,14.7v-1h1.1v1h2.1v1.1h-2.1v4.6h-1.1v-3.3c0,0.1-0.1,0.1-0.1,0.2c-0.5,0.8-1.1,1.5-1.8,2.1l-0.5-1.1
	c0.9-0.7,1.7-1.5,2.2-2.4h-2.2v-1.1L148.5,14.7L148.5,14.7z M149.7,9.5h2v1.1H151l-0.5,1.9h1.1v1.1h-5.4v-1.1h1.2l-0.5-1.9h-0.6V9.5
	h2.1c-0.1-0.3-0.3-0.6-0.5-0.9l1.2-0.2C149.4,8.8,149.5,9.2,149.7,9.5z M149.5,12.5l0.5-1.9h-1.9l0.5,1.9H149.5z M152.1,18.2
	l-1.1,0.4c-0.3-0.8-0.8-1.5-1.3-2.3l0.9-0.2C151.3,16.8,151.8,17.5,152.1,18.2z M157.4,8.9v7.4H156v2.4c0,0.3,0.1,0.4,0.4,0.4h0.2
	c0.2,0,0.3-0.1,0.3-0.2c0.1-0.1,0.1-0.7,0.2-1.7l1.1,0.3c-0.1,1.3-0.2,2.1-0.4,2.3c-0.2,0.2-0.5,0.4-1,0.4H156
	c-0.3,0-0.6-0.1-0.8-0.3s-0.3-0.5-0.3-0.8v-2.8h-0.7c-0.1,1-0.3,1.7-0.6,2.3c-0.3,0.6-1,1.2-2.1,1.7l-0.8-1c0.9-0.4,1.4-0.7,1.8-1.1
	c0.3-0.4,0.5-1.1,0.6-1.9h-0.9V8.9H157.4z M156.3,11v-1h-3.1v1H156.3z M156.3,12.9v-1h-3.1v1H156.3z M156.3,13.9h-3.1v1.2h3.1V13.9z
	"/>
<path class="st3" d="M163,10c0.1-0.5,0.1-1,0.2-1.5h1.2c-0.1,0.5-0.1,1.1-0.2,1.5h6.7v1.3H164c-0.1,0.6-0.2,1.1-0.3,1.6h5.9v0.9
	c-0.3,1.4-1,2.5-1.9,3.5c-0.1,0.1-0.1,0.1-0.2,0.2c0.9,0.7,2.1,1.2,3.4,1.7l-0.7,1.2c-1.5-0.6-2.8-1.3-3.7-2.1c-1,0.7-2.4,1.4-4.1,2
	l-0.7-1.3c1.6-0.4,2.9-1,3.8-1.6c-1-0.9-1.7-2.1-2.1-3.5h-0.1c-0.2,0.6-0.3,1.1-0.5,1.5c-0.7,1.7-1.6,3.2-2.9,4.6l-0.8-1.1
	c1.1-1.2,2-2.6,2.6-4.1c0.4-1,0.7-2.2,0.9-3.7h-3.4V10H163z M166.7,16.7c0.7-0.6,1.2-1.5,1.7-2.7H165
	C165.3,15.1,165.9,16,166.7,16.7z"/>
<path class="st3" d="M177.4,9.8V8.6h1.2v1.2h4.8V11h-4.8v2.9c0.5,1,1.1,1.8,1.8,2.6c0.7,0.8,1.9,1.7,3.5,2.5l-0.9,1
	c-1.2-0.7-2.2-1.4-2.9-2.1c-0.6-0.6-1.1-1.2-1.6-1.9v4.3h-1.2v-4.4c-0.5,0.7-0.9,1.2-1.4,1.6c-0.8,0.9-1.9,1.7-3.2,2.5l-0.7-1.2
	c1.2-0.7,2.3-1.5,3.3-2.4c0.7-0.7,1.3-1.5,1.9-2.5V11h-4.7V9.8H177.4z M175.8,11.4c-0.2,0.6-0.3,1.2-0.5,1.6
	c0.5,0.4,0.9,0.9,1.4,1.4l-0.7,1c-0.4-0.5-0.7-1-1.1-1.4c-0.3,0.7-0.9,1.5-1.6,2.2l-0.8-1c0.6-0.6,1.1-1.2,1.4-1.8
	c0.3-0.6,0.5-1.3,0.7-2.3L175.8,11.4z M182,11.4c-0.2,0.6-0.3,1.2-0.5,1.6c0.7,0.6,1.4,1.2,2,2l-0.7,1c-0.6-0.8-1.2-1.5-1.8-2
	c-0.3,0.5-0.7,1-1.1,1.5l-0.8-1c0.5-0.5,0.8-0.9,1.1-1.4c0.2-0.4,0.4-1,0.6-1.8L182,11.4z"/>
<path class="st3" d="M188.3,9.9h1.9V11h-5V9.9h2c-0.2-0.5-0.4-0.9-0.7-1.3l1.2-0.1C187.9,8.9,188.1,9.3,188.3,9.9z M189.7,19.4h-2.9
	v0.9h-1.2v-4.7h4.1V19.4z M189.7,11.8v1h-4.1v-1H189.7z M189.7,13.7v1h-4.1v-1H189.7z M188.5,18.3v-1.6h-1.8v1.6H188.5z M194.6,9.9
	l-0.6,0.6h3.1v1.1h-4.2v1.5c0,0.1,0,0.2,0,0.4h3.6c-0.1,2.9-0.2,4.6-0.4,5.3c-0.1,0.5-0.3,0.9-0.7,1.2c-0.2,0.2-1.1,0.3-2.6,0.3
	l-0.3-1.3c0.4,0,0.7,0.1,0.9,0.1c0.7,0,1.1-0.1,1.3-0.3c0.3-0.4,0.5-1.8,0.5-4.2h-2.4c-0.1,1-0.2,1.9-0.4,2.6
	c-0.3,1.1-0.9,2.1-1.7,3.3l-1-0.9c0.7-0.9,1.3-1.8,1.6-2.8c0.3-0.8,0.4-2,0.4-3.7v-1.5h-1.4v-1.1h3.2c-0.5-0.4-1.1-0.9-1.9-1.4
	l0.8-0.8C193.3,8.8,194,9.4,194.6,9.9z"/>
<path class="st3" d="M202.3,19.1h-1.1v-1h-1.6v1.3h-1.1v-10h3.9L202.3,19.1L202.3,19.1z M201.2,13.2v-2.7h-1.6v2.7H201.2z M201.2,17
	v-2.7h-1.6V17H201.2z M205.7,9.7V8.5h1.1v1.2h2.8v1.1h-2.8v1.3h3.2v1.2h-1.3v1.4h1.4v1.1h-1.4v3.1c0,0.5-0.1,0.8-0.3,1
	c-0.2,0.2-0.5,0.3-1,0.3h-1.6l-0.2-1.3c0.6,0.1,1.2,0.1,1.6,0.1c0.3,0,0.5-0.1,0.5-0.3v-2.9h-5v-1.1h5v-1.4h-4.9v-1.2h3v-1.3h-2.7
	V9.7H205.7z M206.2,18l-1.2,0.8c-0.4-0.6-1-1.3-1.8-2.1l1-0.6C205,16.9,205.7,17.5,206.2,18z"/>
<path class="st3" d="M222.9,9.1v1.1h-5.1c-0.1,0.4-0.3,0.8-0.6,1.2h5.1v8.9h-1.2v-0.7H213v0.7h-1.2v-8.9h4.1
	c0.2-0.4,0.4-0.8,0.6-1.2h-5.1V9.1H222.9z M214.5,18.6v-6.1H213v6.1H214.5z M218.5,13.8v-1.3h-2.8v1.3H218.5z M218.5,16.1v-1.4h-2.8
	v1.4H218.5z M218.5,18.6v-1.4h-2.8v1.4H218.5z M221.1,18.6v-6.1h-1.5v6.1H221.1z"/>
<path class="st3" d="M234.7,9v1.1c-0.7,0.8-2,1.7-3.7,2.9v0.9h4.9v1.2H231v4c0,0.4-0.1,0.7-0.3,0.9c-0.2,0.2-0.5,0.4-0.9,0.4h-2.4
	l-0.1-1.3c0.8,0.1,1.5,0.1,2,0.1c0.2,0,0.4-0.1,0.4-0.4v-3.6h-5.3V14h5.3v-1.6c1.3-0.7,2.4-1.4,3.4-2.1h-7.4V9H234.7z"/>
<path class="st3" d="M248.9,9v1.2h-5.2v1h4.2v5.2h-4.4c-0.2,0.7-0.4,1.3-0.7,1.8c0.4,0.2,0.8,0.3,1.1,0.4c1.1,0.3,2.8,0.5,5.3,0.7
	l-0.3,1.2c-2.3-0.2-4-0.4-5.2-0.8c-0.5-0.2-1.1-0.4-1.6-0.6c-0.9,0.7-2.3,1.2-4.3,1.4l-0.6-1.2c1.6-0.1,2.8-0.4,3.6-0.9
	c-0.7-0.4-1.3-0.8-2-1.2l0.9-0.6c0.7,0.4,1.3,0.8,1.9,1.1c0.3-0.4,0.5-0.8,0.6-1.4h-3.9v-5.2h4.2v-1h-5.1V9H248.9z M242.5,13.1v-1
	h-3v1H242.5z M242.5,14.2h-3v1.1h2.9C242.5,14.9,242.5,14.6,242.5,14.2z M246.6,14.2h-3c0,0.4,0,0.8-0.1,1.1h3v-1.1H246.6z
	 M243.7,13.1h3v-1h-3V13.1z"/>
<path class="st3" d="M251.7,10.6c0.1-0.7,0.2-1.4,0.3-2.1l1.1,0.1c-0.1,0.7-0.2,1.4-0.3,2h2.5v1.1c-0.1,1.5-0.4,2.7-0.7,3.7
	c-0.2,0.5-0.4,1-0.6,1.5c0.5,0.4,1.1,0.8,1.6,1.3l-0.7,1c-0.4-0.4-0.9-0.8-1.5-1.3c-0.5,0.8-1.4,1.6-2.5,2.5l-0.9-1
	c1-0.7,1.8-1.4,2.4-2.2c-0.6-0.4-1.3-0.8-2-1.3c0.4-1.3,0.8-2.7,1.1-4.2h-1.3v-1.1H251.7z M251.8,15.5c0.4,0.3,0.8,0.5,1.2,0.8
	c0,0,0,0,0-0.1c0.5-1,0.8-2.4,1-4.4h-1.4C252.4,13.1,252.1,14.3,251.8,15.5z M261.7,9v1.2c-0.6,0.9-1.4,1.7-2.2,2.5v1.1h2.5V15h-2.5
	v4.2c0,0.3-0.1,0.6-0.2,0.7c-0.2,0.2-0.5,0.4-0.8,0.4h-2.2l-0.2-1.2c0.5,0,1.1,0.1,1.7,0.1c0.3,0,0.4-0.1,0.4-0.3V15h-2.9v-1.2h2.9
	v-1.5c0.6-0.5,1.3-1.2,2-2.1h-4.6V9H261.7z"/>
<path class="st3" d="M270.4,15.7c-0.4,0.3-0.8,0.5-1.3,0.5s-0.9-0.2-1.3-0.5c-0.4-0.3-0.5-0.7-0.5-1.2s0.2-0.9,0.5-1.2
	c0.3-0.3,0.8-0.5,1.3-0.5s0.9,0.2,1.3,0.5c0.4,0.3,0.5,0.8,0.5,1.2C270.9,14.9,270.7,15.3,270.4,15.7z M269.7,13.8
	c-0.2-0.2-0.4-0.3-0.6-0.3c-0.2,0-0.5,0.1-0.6,0.3c-0.2,0.2-0.3,0.4-0.3,0.6s0.1,0.4,0.3,0.6c0.2,0.2,0.4,0.3,0.6,0.3
	c0.2,0,0.4-0.1,0.6-0.3c0.2-0.2,0.3-0.4,0.3-0.6S269.9,14,269.7,13.8z"/>
<path class="st0" d="M55.5,33.9h215.7"/>
</svg>
