<?xml version="1.0" encoding="utf-8"?>
<!-- Generator: Adobe Illustrator 25.2.3, SVG Export Plug-In . SVG Version: 6.00 Build 0)  -->
<svg version="1.1" id="圖層_1" xmlns="http://www.w3.org/2000/svg" xmlns:xlink="http://www.w3.org/1999/xlink" x="0px" y="0px"
	 viewBox="0 0 200 70" style="enable-background:new 0 0 200 70;" xml:space="preserve">
<style type="text/css">
	.st0{fill:#00404B;}
	.st1{fill:#C79F62;}
</style>
<path class="st0" d="M1.9,2.4h2.7c0.5-0.7,0.9-1.1,1.1-1.1s0.5,0.2,1.1,0.6c0.5,0.4,0.8,0.7,0.8,0.8S7.5,3,7.3,3.1
	C7,3.4,6.8,3.5,6.8,3.6v5.9c0.1,2.3,0.1,3.8,0.1,4.4c0,0.5-0.4,0.7-1.1,0.7c-0.5,0-0.8-0.1-0.9-0.4v-1.3H2.2v1.7
	C2.1,15,1.7,15.2,1,15.2c-0.4,0-0.7-0.1-0.8-0.2c0-2.1,0-4.2,0.1-6.2V4.7c0-1.7-0.1-2.8-0.1-3.1L1.9,2.4z M4.9,7.3V3H2.2v4.4
	L4.9,7.3L4.9,7.3z M4.9,12.5V7.9H2.2v4.6H4.9z M10.1,14c-0.3,0.9-0.8,1.8-1.8,2.7c-1.2,1.3-2.5,2.1-3.7,2.5c-0.1,0-0.2-0.1-0.3-0.2
	c1.4-1,2.6-2.2,3.4-3.8C8.5,14,8.9,12,8.9,9.1c0-3.3,0-5.3,0-6.1c0-0.7,0-1.4-0.1-2.3l2.2,1h3.7c0.4-0.6,0.8-1,1-1.2
	c0.2,0,0.5,0.2,1.1,0.5c0.6,0.4,0.9,0.7,0.9,0.9c0,0.1-0.1,0.3-0.4,0.4c-0.3,0.2-0.4,0.3-0.5,0.4v13.4c0,1.4-0.8,2.2-2.3,2.5
	c-0.2,0-0.4-0.1-0.4-0.4c-0.2-0.5-0.7-1-1.2-1.2c-0.8-0.3-1.4-0.5-1.7-0.6c0,0,0-0.1,0-0.4c0.8,0.1,1.9,0.1,3.3,0.1
	c0.3,0,0.5-0.2,0.5-0.5v-4h-4.3C10.5,12.8,10.4,13.5,10.1,14z M10.8,9.1c0,0.8,0,1.6-0.1,2.2H15V7h-4.2V9.1z M10.8,6.4H15V2.3h-4.2
	V6.4z"/>
<path class="st0" d="M37.6,11.9c0.9,0.8,1.3,1.2,1.3,1.4s-0.1,0.3-0.2,0.3h-7.1c1,0.9,2,1.6,3.2,2c1.2,0.5,2.6,0.7,4.2,0.8
	c0,0.2,0,0.3-0.1,0.4c-0.1,0-0.3,0.2-0.5,0.4c-0.1,0.1-0.3,0.4-0.4,0.8c-0.1,0.3-0.2,0.4-0.4,0.4c-0.7,0-1.8-0.5-3.4-1.4
	c-1.4-0.8-2.4-1.9-3.1-3.3h-0.3l0.1,5.1c0,0.4-0.4,0.6-1.2,0.7c-0.6,0-0.9-0.2-0.9-0.5c0-1.6,0-3.1,0-4.5c-1.5,1.7-4.3,3-8.5,4
	c-0.1,0-0.2-0.1-0.3-0.3c3.4-1.2,5.6-2.6,6.7-4c0.2-0.2,0.3-0.4,0.4-0.5h-1.6c-2.4,0-4,0.1-4.6,0.3c-0.1-0.4-0.3-0.7-0.5-1.1
	c1,0.1,2.8,0.2,5.2,0.2h3.1v-0.2c0-0.7-0.1-1.2-0.1-1.6c-0.6,0.2-1.3,0.4-2,0.5c0,0-0.1-0.1-0.2-0.3c1.7-0.6,2.9-1.5,3.7-2.7
	c-0.6-0.4-1.1-0.7-1.7-0.9c0,0,0.1-0.1,0.1-0.3c0.7,0.1,1.4,0.2,1.9,0.4c0.2-0.5,0.3-1,0.3-1.4c-0.8,0-1.4,0.1-1.7,0.2
	c-0.1-0.3-0.3-0.7-0.4-1c0.3,0.1,1,0.2,2,0.2h3.6c0.2-0.3,0.4-0.5,0.6-0.7c-0.4,0-0.6-0.2-0.7-0.7c0-0.1-0.1-0.3-0.1-0.5
	s-0.1-0.3-0.1-0.5c-0.1-0.2-0.2-0.4-0.3-0.5H32c-0.2,0.2-0.4,0.4-0.5,0.5c-0.7,0.6-1.4,1.2-2.2,1.6c0,0-0.1-0.1-0.2-0.2
	c1.3-1.6,2.2-3.1,2.5-4.6c1.8,0.5,2.7,0.9,2.7,1.1s-0.4,0.3-1.2,0.4c-0.1,0.2-0.3,0.4-0.4,0.6h3.7c0.5-0.8,0.9-1.2,1.1-1.3h0.1
	c0.1,0.1,0.4,0.3,0.8,0.6c0.5,0.5,0.8,0.8,0.9,1c0,0.2-0.1,0.3-0.1,0.3h-4.4C35.6,3.4,36,3.8,36,4.4c0,0.3-0.1,0.6-0.3,0.7
	c0.3,0.1,0.6,0.4,1,0.6c0.5,0.4,0.7,0.7,0.7,0.8c0,0.2-0.3,0.5-0.9,0.8v1.9c0,0.5,0.2,0.7,0.6,0.8c0,0,0,0,0.1,0
	c0.5,0,0.7-0.1,0.8-0.3c0.2-0.3,0.4-0.9,0.5-1.7c0,0,0.1,0.1,0.4,0.1c0,0.3,0,0.7,0,1.2c0,0.2,0.1,0.4,0.3,0.5
	c0.3,0.1,0.5,0.4,0.5,0.6c0,0.3-0.1,0.4-0.1,0.5c-0.2,0.4-0.6,0.6-1.2,0.7c-0.3,0.1-0.5,0.1-0.8,0.1s-0.5,0-0.7,0
	c-1.2,0-1.8-0.6-1.9-1.9V6.7h-1.9c-0.1,0.9-0.3,1.5-0.5,1.8v0.1c1.1,0.5,1.7,1,1.7,1.7c0,0.2,0,0.3-0.1,0.5
	c-0.1,0.3-0.3,0.4-0.6,0.4s-0.7-0.3-1.2-0.9c-0.2-0.2-0.4-0.4-0.6-0.5c-0.6,0.7-1.4,1.2-2.4,1.5c2,0.3,3,0.6,3,0.8
	c0,0.1-0.1,0.3-0.4,0.4c-0.4,0.2-0.7,0.3-0.7,0.4v0.3h4.8C36.7,12.4,37.2,11.9,37.6,11.9c-0.1-0.1,0-0.1,0.1-0.1
	C37.2,11.7,37.4,11.8,37.6,11.9z M23.9,3c-1,1.3-2.2,2.2-3.5,2.9c-0.1-0.1-0.2-0.2-0.4-0.2c1.4-1.4,2.5-3.2,3.1-5.5
	c1.8,0.6,2.7,0.9,2.7,1.1c0,0.3-0.4,0.4-1,0.5c-0.1,0.2-0.3,0.4-0.4,0.6h2.7c0.5-0.8,0.9-1.2,1.1-1.3h0.1c0.2,0.1,0.4,0.3,0.8,0.6
	c0.5,0.5,0.8,0.8,0.9,1C30,2.9,29.9,3,29.9,3h-4.6c1,0.3,1.6,0.9,1.6,1.6c0,0.6-0.3,0.9-0.9,0.9c-0.4,0-0.6-0.2-0.7-0.7
	c0-0.1-0.1-0.3-0.1-0.6c0-0.2-0.1-0.4-0.1-0.6c-0.1-0.3-0.3-0.5-0.4-0.7L23.9,3L23.9,3z M23.2,6.8c-0.9,0-1.6,0.1-2,0.2
	c-0.1-0.3-0.2-0.5-0.3-0.8c0.4,0.1,1.2,0.1,2.3,0.1h2.9c0.3-0.4,0.5-0.7,0.8-1c0.1-0.1,0.2-0.1,0.2-0.1c0.1,0,0.2,0.1,0.4,0.2
	c0.7,0.6,1.1,1,1.2,1.2c0,0.2-0.1,0.3-0.1,0.3h-3v2.7c1.1-0.1,2.1-0.2,2.9-0.4l0.1,0.1c-1.6,0.8-3.8,1.6-6.7,2.1
	c0,0.4-0.1,0.5-0.2,0.5s-0.2-0.2-0.4-0.5c-0.2-0.3-0.4-0.9-0.7-1.6c1.2,0,2.3-0.1,3.3-0.2V6.8H23.2z"/>
<path class="st0" d="M48.4,7c0.7,0.6,1.1,1,1.1,1.2s-0.1,0.3-0.2,0.3h-2.1V14c0.7-0.4,1.4-0.9,2.2-1.4c0,0,0,0.2,0.1,0.4
	c-0.9,1.2-2,2.4-3.3,3.7c0,0.1-0.1,0.4-0.1,0.8c0,0.1-0.1,0.2-0.2,0.2c-0.2,0-0.7-0.7-1.5-2.2c0.3,0,0.7-0.2,1.2-0.5V8.5h-1
	c-0.1,1.9-0.1,3.2-0.3,3.9c-0.5,3.5-1.5,5.8-3.1,6.7c0-0.1-0.1-0.1-0.2-0.2c0.9-1.4,1.5-3.8,1.8-7c0.1-1.2,0.1-2.3,0.1-3.4
	c-0.9,0-1.5,0.1-1.7,0.3c-0.1-0.4-0.3-0.7-0.5-1.1c0.4,0.1,1.1,0.2,2,0.2h1.5V2.1c0-0.8,0-1.4-0.1-1.9c1.7,0.3,2.5,0.5,2.5,0.7
	s-0.1,0.3-0.3,0.3c-0.4,0.1-0.5,0.3-0.5,0.4v6.3h0.9c0.5-0.6,0.9-1,1.2-1.2H48C48.1,6.8,48.3,6.9,48.4,7z M43.7,5.4
	c0,0.5-0.1,0.8-0.3,1c-0.2,0.3-0.4,0.4-0.8,0.4c-0.2,0-0.4-0.4-0.4-1.1c-0.2-1.4-0.5-2.5-0.9-3.2l0.3-0.2C43,3.4,43.7,4.4,43.7,5.4z
	 M49.5,2.8c0.8-0.6,1.2-1.4,1.3-2.3h0.4c0,0.3,0.1,0.6,0.1,1h6c0.5-0.6,0.9-0.9,1.2-1c0.2,0.1,0.5,0.3,0.9,0.7
	c0.5,0.5,0.8,0.8,0.8,1S60,2.5,59.7,2.5s-0.4,0.1-0.5,0.1c-0.5,0.4-1.3,0.8-2.1,1.2c-0.1,0-0.2-0.1-0.2-0.2c0.3-0.5,0.5-1.1,0.6-1.6
	h-6.2v0.1c0,1.6-0.4,2.3-1.2,2.3c-0.7,0-1.1-0.2-1.1-0.7c0-0.2,0.1-0.4,0.2-0.6c-0.2,0-0.3,0.1-0.5,0.1c-0.4,1.1-1,2.3-1.9,3.5
	c-0.1,0-0.3-0.1-0.5-0.1c0.4-1.6,0.8-3.2,0.9-4.9C48.6,2.3,49.4,2.6,49.5,2.8z M58.5,4.1c0.7,0.7,1.1,1.1,1.1,1.2
	c0,0.2-0.1,0.3-0.2,0.3h-4.5v1.6h1.4c0.5-0.5,0.8-0.8,1-0.8s0.5,0.2,1,0.6S59,7.6,59,7.8c0,0.1-0.1,0.3-0.3,0.4
	c-0.3,0.2-0.4,0.4-0.5,0.4v2.6c0.1,1,0.1,1.7,0.1,2c0,0.4-0.4,0.7-1,0.7c-0.5,0-0.8-0.1-0.8-0.4v-0.3h-1.7v1.5c0,0.2,0,0.4,0,0.5
	h2.4c0.5-0.6,0.9-1,1.2-1.2h0.1c0.1,0.1,0.3,0.2,0.4,0.3c0.7,0.6,1.1,1,1.1,1.2s-0.1,0.3-0.2,0.3h-5c0,1.4,0,2.5,0.1,3.1
	c0,0.3-0.4,0.5-1.2,0.5c-0.4,0-0.6-0.1-0.6-0.4c0-0.6,0-1.7,0.1-3.2h-1.5c-1.5,0-2.4,0.1-2.8,0.2c-0.1-0.4-0.3-0.7-0.5-1.1
	c0.6,0.1,1.6,0.2,3,0.2h1.8v-2h-1.7v0.4c-0.1,0.4-0.4,0.6-1.1,0.6c-0.4,0-0.6-0.1-0.7-0.2c0-1.1,0-2.2,0.1-3.3V8.4
	c0-0.9-0.1-1.5-0.1-1.7l1.6,0.6h2V5.7h-0.9c-1.3,0-2.1,0.1-2.4,0.3c-0.1-0.4-0.3-0.7-0.5-1.1C50,5,50.8,5.1,52,5.1h1.3V4.4
	c0-0.6-0.1-1.2-0.2-1.7C53.7,2.8,54.3,2.9,55,3c0.5,0.1,0.7,0.2,0.7,0.4c0,0.1-0.1,0.2-0.3,0.3c-0.3,0.1-0.5,0.2-0.5,0.3v1.2h1.8
	c0.5-0.6,0.9-1,1.2-1.2H58C58.2,4,58.3,4,58.5,4.1z M53.3,9.8v-2h-1.7v2H53.3z M53.3,12.5v-2.2h-1.7v2.2H53.3z M54.9,9.8h1.7v-2
	h-1.7V9.8z M54.9,12.5h1.7v-2.2h-1.7V12.5z"/>
<path class="st0" d="M79.2,10.4c0.8,0.7,1.2,1.1,1.2,1.3S80.3,12,80.2,12h-7.6v2.5h3.1c0.3-0.4,0.6-0.8,1-1.2
	c0.1-0.1,0.2-0.2,0.2-0.2c0.1,0,0.2,0.1,0.4,0.2c0.8,0.7,1.2,1.2,1.3,1.4c0,0.2-0.1,0.3-0.2,0.3h-5.9v2.9h4.9
	c0.7-0.9,1.2-1.4,1.5-1.6c0,0,0.1,0,0.2,0c0.2,0.1,0.4,0.2,0.6,0.4c0.9,0.8,1.4,1.3,1.4,1.6c0,0.2-0.1,0.3-0.2,0.3H67.1
	c-2.5,0-4.1,0.1-4.7,0.2c-0.1-0.4-0.3-0.7-0.5-1.1c1,0.1,2.9,0.2,5.4,0.2h3.3V15h-3.5c-0.9,0-1.6,0.1-2,0.1
	c-0.1-0.2-0.2-0.5-0.3-0.8c0.4,0.1,1.2,0.1,2.3,0.1h3.5V12h-2.8c-2.3,0-3.7,0.1-4.2,0.3c-0.1-0.4-0.3-0.7-0.5-1.1
	c1,0.1,2.6,0.2,4.9,0.2h9.4c0.6-0.7,1-1.2,1.3-1.3c0,0,0.1,0,0.2,0C78.9,10.1,79.1,10.2,79.2,10.4z M72.6,1c0,0.1-0.2,0.2-0.5,0.2
	s-0.5,0.1-0.6,0.1c-0.4,0.5-0.9,1-1.6,1.4h6.3c0.5-0.7,0.9-1.1,1.1-1.1s0.5,0.2,1.1,0.6c0.5,0.4,0.8,0.7,0.8,0.8s-0.1,0.3-0.4,0.4
	c-0.4,0.2-0.6,0.4-0.6,0.5v3c0.1,1.2,0.1,1.9,0.1,2.2c0,0.5-0.4,0.7-1.1,0.7c-0.5,0-0.8-0.1-0.9-0.4V9h-9.7v0.5
	c-0.1,0.4-0.5,0.6-1.2,0.6c-0.4,0-0.7-0.1-0.8-0.2c0-1.3,0-2.5,0.1-3.7V4c0-1-0.1-1.6-0.1-1.8l1.8,0.7h2.9c0.3-0.8,0.4-1.7,0.5-2.6
	C71.7,0.6,72.6,0.8,72.6,1z M76.4,3.4h-9.7v2.3h9.7V3.4z M66.7,8.7h9.7V6.3h-9.7V8.7z"/>
<path class="st0" d="M44.5,34.6c0.7-0.1,2.6,0.1,3.2,0.3c2.7,0.7,4.3,2.7,4.3,5.2c0,4-3.2,6.9-7.1,6.9c-2.1,0-3.6-0.8-3.6-1.6
	c0-0.4,0.3-0.7,0.6-0.7c0.5,0,1,0.3,1.4,0.6s1.4,0.5,2.2,0.5c2.2,0,4.4-1.8,4.4-4.3c0-2-0.6-3.5-2.5-4.3c-1.5-0.7-2.9-0.7-3.6-0.6
	c-0.2,0-0.3,0.1-0.5-0.1c-0.1-0.1-0.2-0.1-0.1-0.3l1-7.9c0-0.3,0.1-0.4,0.4-0.4h6c1,0,1.2-0.5,1.7-1.4c0.1-0.2,0.2-0.2,0.3-0.1
	c0.3,0.1,0.4,0.2,0.4,0.3l-1,2.8c-0.2,0.4-0.3,0.6-1.2,0.6H45L44.5,34.6z"/>
<path class="st0" d="M64,31.8c0,0.2-0.5,0.3-1.4,0.5c-0.8,1.4-1.7,2.8-2.7,4c-1.2,1.5-2.5,2.7-4.1,3.7c0,0-0.1-0.1-0.2-0.3
	c2.9-3.1,4.7-6.2,5.4-9.2C63,31,64,31.5,64,31.8z M58.8,38.9c-0.1-0.3-0.2-0.7-0.4-1c0.8,0.2,2.1,0.3,3.8,0.3h6.3
	c0.5-0.6,0.9-0.9,1.2-0.9c1.1,0.7,1.7,1.2,1.7,1.6c0,0.1-0.1,0.3-0.4,0.4c-0.3,0.2-0.5,0.3-0.5,0.5c-0.2,3.6-0.6,5.9-1.1,6.9
	c-0.6,1.1-1.5,1.7-2.8,1.7c-0.2,0-0.3-0.2-0.4-0.7c-0.1-0.4-0.4-0.8-0.9-1c-0.4-0.3-0.9-0.5-1.6-0.8c0.1-0.1,0.1-0.3,0.1-0.4
	c0.8,0.2,1.7,0.3,2.6,0.3c0.8,0,1.2-0.3,1.4-0.8c0.4-0.9,0.7-3,0.8-6.2H64c0,0.8-0.1,1.2-0.1,1.2c-0.6,4.5-3.3,7.4-8,8.7
	c-0.1,0-0.1-0.1-0.2-0.1c3.5-1.8,5.6-4.7,6.2-9c0-0.2,0-0.4,0-0.8C60.4,38.7,59.4,38.8,58.8,38.9z M69.3,31c0,0.2-0.2,0.3-0.7,0.4
	c-0.3,0.1-0.5,0.1-0.5,0.3c0,0.7,0.5,1.6,1.6,2.7c1.5,1.5,3.1,2.4,4.9,2.9c0,0.2,0,0.3-0.1,0.4c-0.4,0-0.8,0.1-0.9,0.4
	c-0.2,0.7-0.5,1-0.7,1c-0.7-0.1-1.6-0.7-2.6-2c-1.5-1.6-2.5-3.5-3-5.8H66c-0.8,0-1.3,0-1.6,0.1c-0.1-0.3-0.3-0.6-0.4-0.9
	c0.4,0.1,1,0.2,1.8,0.2h1.1c0.5-0.7,0.8-1,1-1C68.8,30.2,69.3,30.7,69.3,31z"/>
<path class="st0" d="M82,30.3c0,0.2-0.3,0.4-0.9,0.4c0,0.1-0.1,0.1-0.1,0.1c2.2,0.7,3.3,1.5,3.4,2.5c0,0.4-0.1,0.7-0.2,0.8
	s-0.3,0.2-0.5,0.2c-0.3,0-0.7-0.4-1.1-1.1c-0.5-0.7-1.1-1.4-1.8-2c-0.8,1.6-1.7,2.9-2.8,3.9c0.5,0.1,1.1,0.1,2,0.1h0.7
	c0.3-0.4,0.6-0.8,0.9-1.1c0.1-0.1,0.2-0.1,0.2-0.1c0.1,0,0.2,0.1,0.4,0.2c0.7,0.7,1.2,1.1,1.2,1.3s-0.1,0.3-0.2,0.3h-2.3v2.6h0.5
	c0.3-0.4,0.5-0.7,0.8-1c0.1-0.1,0.2-0.1,0.2-0.1c0.1,0,0.2,0.1,0.4,0.2c0.7,0.6,1.1,1,1.2,1.2c0,0.2-0.1,0.3-0.1,0.3H81v6.3
	c1.2-0.2,2.1-0.4,2.8-0.7c0.1,0.1,0.1,0.3,0.2,0.3c-1.2,0.8-3.2,1.6-6.1,2.5c-0.1,0.6-0.2,0.9-0.4,0.9c-0.1,0-0.3-0.3-0.5-0.8
	c-0.2-0.6-0.4-1.2-0.6-2.1c0.4,0.1,1,0.1,1.9,0.1c0.3,0,0.7,0,1-0.1v-6.6H79c-0.9,0-1.5,0.1-2,0.1c-0.1-0.2-0.2-0.5-0.3-0.8
	c0.4,0.1,1.2,0.1,2.3,0.1h0.4v-2.6c-0.5,0-1,0.1-1.3,0.1c-0.1-0.2-0.1-0.4-0.2-0.6c-0.4,0.4-0.8,0.7-1.3,1c-0.1-0.1-0.2-0.1-0.3-0.2
	c1.6-1.8,2.8-4,3.4-6.7C81.2,29.9,82,30.2,82,30.3z M78.8,43.4c0,0.7-0.3,1-1,1c-0.4,0-0.5-0.2-0.6-0.6c0-0.1,0-0.3,0.1-0.6
	c0-0.2,0.1-0.4,0.1-0.8c0-0.9-0.2-1.6-0.5-2.1l0.1-0.1C78.2,41,78.8,42.1,78.8,43.4z M84,40.6c0.4,0.1,0.5,0.3,0.6,0.3
	c0,0.1-0.1,0.2-0.3,0.2c-0.3,0.1-0.5,0.1-0.6,0.2c-0.3,1.2-1,2.1-2,2.8L81.5,44c0.5-1.1,0.8-2.4,0.9-4C83.1,40.2,83.6,40.4,84,40.6z
	 M86.4,37.5H92c0.5-0.5,0.8-0.8,1-0.8s0.5,0.2,1,0.6c0.5,0.4,0.7,0.6,0.7,0.8c0,0.1-0.1,0.2-0.3,0.4c-0.3,0.2-0.5,0.4-0.5,0.4v2.2
	C94,42,94,42.5,94,42.8c0,0.4-0.3,0.7-1,0.7c-0.5,0-0.8-0.1-0.8-0.4V43h-2v1.8h1.7c0.5-0.5,0.8-0.9,1-1H93c0.1,0.1,0.3,0.2,0.4,0.3
	c0.7,0.6,1,0.9,1,1.1s-0.1,0.3-0.2,0.3h-4.1v2h2.1c0.6-0.7,1-1.1,1.3-1.3h0.1c0.1,0.1,0.3,0.2,0.5,0.3c0.8,0.7,1.2,1.1,1.2,1.3
	s-0.1,0.3-0.2,0.3h-9c-1.6,0-2.7,0.1-3.1,0.3c-0.1-0.4-0.3-0.7-0.5-1.1c0.6,0.1,1.7,0.2,3.3,0.2h2.3v-2h-1.2c-1.3,0-2.1,0.1-2.5,0.3
	c-0.1-0.4-0.3-0.7-0.5-1.1c0.5,0.1,1.4,0.2,2.7,0.2h1.5v-1.8h-1.8v0.4c-0.1,0.4-0.4,0.6-1.1,0.6c-0.4,0-0.6-0.1-0.7-0.2
	c0-1.1,0-2.1,0.1-3.1v-2.1c0-0.9-0.1-1.4-0.1-1.6L86.4,37.5z M93.7,33.7c0,0.1-0.3,0.3-0.9,0.5c-0.4,0.5-0.9,1-1.7,1.3h1.8
	c0.5-0.6,0.9-1,1.2-1.2h0.2c0.1,0.1,0.3,0.2,0.4,0.3c0.7,0.6,1.1,1,1.1,1.2s-0.1,0.3-0.2,0.3h-8.3c-1.5,0-2.5,0.1-2.8,0.2
	c-0.1-0.4-0.3-0.7-0.5-1.1c0.6,0.1,1.6,0.2,3.1,0.2h0.4c-0.1-0.2-0.3-0.4-0.4-0.8c-0.3-0.7-0.5-1.2-0.9-1.7c0.1,0,0.1-0.1,0.1-0.3
	c1.5,0.2,2.2,0.7,2.3,1.6c0,0.3,0,0.5-0.1,0.7s-0.2,0.3-0.3,0.4h2.1c0.6-1,0.9-1.9,1-2.9C92.9,33.2,93.7,33.5,93.7,33.7z M94,31
	c0.7,0.6,1.1,1,1.1,1.2s-0.1,0.3-0.2,0.3h-7.4c-1.3,0-2.2,0.1-2.5,0.3c-0.1-0.4-0.3-0.7-0.5-1.1c0.5,0.1,1.4,0.2,2.7,0.2h2.1
	c-0.2-0.1-0.4-0.4-0.6-0.7c-0.4-0.6-0.8-1.1-1.4-1.5c0.1,0,0.1-0.1,0.1-0.2c2,0.2,3,0.6,3.1,1.4c0,0.3,0,0.5-0.1,0.7
	s-0.2,0.3-0.3,0.4h2.2c0.5-0.6,0.9-1,1.2-1.2h0.1C93.7,30.8,93.8,30.9,94,31z M88.5,39.9V38h-1.8v1.9H88.5z M88.5,42.3v-1.9h-1.8
	v1.9H88.5z M92.3,39.9V38h-2v1.9H92.3z M92.3,42.3v-1.9h-2v1.9H92.3z"/>
<g>
	<rect y="69.2" class="st1" width="13" height="0.8"/>
</g>
<g>
	<path class="st0" d="M1,33.4c0.6,0.1,1.5,0.2,2.7,0.2h0.4v-1.5c0-0.5-0.1-1-0.2-1.6c0.8,0.1,1.6,0.2,2.3,0.3c0.5,0,0.7,0.1,0.7,0.4
		c0,0.1-0.1,0.2-0.4,0.3C6.2,31.5,6,31.7,6,31.9v1.6h0.6c0,0,0.2-0.2,0.5-0.6c0.4-0.5,0.6-0.7,0.7-0.7c0.2,0,0.5,0.2,0.9,0.7
		c0.4,0.4,0.6,0.7,0.6,0.8c0,0.2-0.1,0.3-0.3,0.3H6v2h0.2c0.3-0.3,0.5-0.6,0.7-0.8c0.2-0.2,0.3-0.3,0.5-0.3c0.1,0,0.5,0.2,1,0.5
		c0.6,0.4,0.9,0.7,0.9,0.9S9.2,36.6,9,36.8c-0.2,0.2-0.3,0.3-0.3,0.5v3c0,0.5,0,1.3,0.1,2.2c0,0.2-0.3,0.4-0.9,0.5
		c-0.3,0-0.4,0-0.6,0c-0.3,0-0.5-0.2-0.5-0.5v-0.2H6.1v2.2h0.8c0.1,0,0.3-0.2,0.6-0.7c0.4-0.5,0.7-0.8,0.7-0.8c0.2,0,0.5,0.2,1,0.7
		c0.5,0.5,0.7,0.8,0.7,0.9c0,0.2-0.1,0.3-0.3,0.3H6.1v3.2c0,0.2-0.1,0.3-0.4,0.4c-0.4,0.1-0.8,0.1-1.1,0.1c-0.3,0-0.5-0.1-0.5-0.4
		c0.1-0.9,0.1-2,0.1-3.3H3.6c-1.1,0-1.9,0-2.4,0.1l-0.3-0.8c0.6,0.1,1.5,0.2,2.7,0.2h0.5c0-0.7,0-1.4,0-2.2H3.3v0.3
		c0,0.2-0.3,0.4-0.9,0.5c-0.3,0-0.4,0.1-0.6,0.1c-0.4,0-0.5-0.2-0.5-0.5c0.1-0.6,0.1-1.2,0.1-1.8v-3c0-0.9,0-1.7-0.1-2.5
		c0.7,0.2,1.5,0.4,2.2,0.8h0.5v-2H3.7c-1.1,0-1.9,0-2.4,0.1L1,33.4z M3.3,38.8h0.9v-2.2H3.3V38.8z M3.3,41.7h0.9v-2.4H3.3V41.7z
		 M6,36.6v2.2h0.9v-2.2H6z M6,39.3v2.4h0.9v-2.4H6z M9.5,42.8c0.6,0.1,1.5,0.1,2.7,0.1h3.3c0.1,0,0.3-0.3,0.7-0.8
		c0.5-0.6,0.7-0.9,0.8-0.9c0.3,0,0.7,0.3,1.2,0.9c0.5,0.6,0.8,0.9,0.8,1c0,0.2-0.1,0.3-0.4,0.3H15v4.2H16c0,0,0.3-0.3,0.7-0.8
		c0.5-0.6,0.8-1,0.9-1c0.3,0,0.7,0.3,1.2,0.9c0.6,0.6,0.9,1,0.9,1.1c0,0.2-0.1,0.3-0.4,0.3H11c-1.1,0-1.9,0-2.4,0.1l-0.3-0.8
		c0.6,0.1,1.5,0.2,2.7,0.2h1.7v-4.2h-0.5c-1.1,0-1.9,0-2.4,0.1L9.5,42.8z M9.3,37.3c0.1,0,0.2,0.1,0.3,0.1c0.3-1.2,0.5-2.6,0.7-4
		c0.7,0.2,1.3,0.4,1.9,0.7c0.6,0.2,0.9,0.5,0.9,0.7c0,0.1-0.1,0.2-0.4,0.3c-0.3,0-0.5,0.1-0.5,0.2c-0.6,0.9-1.2,1.7-2,2.4
		c0.4,0.1,0.7,0.3,1.1,0.6c0.8,0.5,1.1,1.2,1.1,2c0,0.4-0.1,0.8-0.4,1.1c-0.2,0.3-0.5,0.5-0.9,0.5c-0.3,0-0.5-0.3-0.7-0.9
		c-0.2-1.2-0.6-2.2-1.3-3.1L9.3,37.3z M9.3,32.3c0.6,0.1,1.5,0.2,2.7,0.2h3.5c0.1,0,0.3-0.3,0.7-0.8c0.5-0.6,0.7-0.9,0.8-0.9
		c0.3,0,0.7,0.3,1.2,0.9c0.6,0.6,0.8,1,0.8,1.1c0,0.2-0.1,0.3-0.4,0.3H12c-1.1,0-1.9,0-2.4,0.1L9.3,32.3z M12.1,37.2
		c0.2,0,0.3,0.1,0.4,0.1c0.4-1.1,0.7-2.3,0.8-3.6c0.6,0.2,1.3,0.4,1.9,0.7c0.6,0.2,0.9,0.5,0.9,0.7c0,0.1-0.1,0.2-0.4,0.2
		c-0.3,0-0.5,0.1-0.5,0.1c-0.6,0.8-1.3,1.4-2.1,2.1c0.4,0.2,0.7,0.3,1.1,0.5c0.8,0.5,1.2,1.2,1.2,1.9c0,0.4-0.1,0.8-0.4,1.1
		c-0.2,0.3-0.5,0.4-0.9,0.4c-0.3,0-0.6-0.3-0.7-0.9c-0.2-1.2-0.7-2.2-1.4-3.1L12.1,37.2z M15.3,37.1c0.1,0,0.3,0.1,0.4,0.1
		c0.4-1.1,0.8-2.3,1-3.5c0.7,0.2,1.3,0.4,1.9,0.7c0.6,0.2,0.9,0.5,0.9,0.7c0,0.1-0.1,0.2-0.4,0.3c-0.3,0-0.5,0.1-0.5,0.2
		c-0.6,0.7-1.4,1.3-2.2,1.9c0.4,0.1,0.8,0.3,1.2,0.5c0.8,0.5,1.2,1.1,1.2,1.8c0,0.5-0.1,0.8-0.4,1.1c-0.2,0.3-0.5,0.5-0.9,0.5
		c-0.4,0-0.6-0.3-0.8-0.9c-0.2-1.1-0.7-2.1-1.5-3L15.3,37.1z"/>
	<path class="st0" d="M21.8,31.4c0.7,0.1,1.4,0.2,2.2,0.2h8.9c0.2-0.3,0.4-0.5,0.6-0.7c0.2-0.3,0.4-0.4,0.6-0.4
		c0.2,0,0.6,0.2,1.2,0.6c0.7,0.5,1,0.8,1,0.9c0,0.2-0.2,0.4-0.7,0.5c-0.4,0.2-0.6,0.4-0.6,0.4l-0.5,1.7h0.9c0.2-0.2,0.4-0.4,0.5-0.6
		c0.3-0.2,0.5-0.4,0.6-0.4c0.2,0,0.7,0.2,1.3,0.7c0.5,0.4,0.8,0.8,0.8,1c0,0.1-0.1,0.3-0.4,0.5c-0.2,0.2-0.4,0.4-0.4,0.5
		c0,0.7-0.2,1.5-0.4,2.4c-0.2,0.8-0.5,1.3-0.8,1.5c-0.2,0.2-0.6,0.3-1,0.4c-0.1,0-0.1,0-0.2,0.1c0.2,0.1,0.4,0.3,0.7,0.5
		c0.6,0.5,1,0.8,1,0.9c0,0.2-0.1,0.4-0.4,0.6c-0.2,0.2-0.3,0.3-0.4,0.5v3.9h0.2c0.1-0.2,0.3-0.5,0.5-0.9c0.2-0.5,0.4-0.8,0.4-0.8
		c0.2,0,0.5,0.3,0.9,0.9c0.4,0.5,0.6,0.9,0.6,1c0,0.2-0.1,0.3-0.3,0.3h-16c-0.4,0-0.9,0-1.5,0.1l-0.3-0.8c0.8,0.1,1.4,0.2,1.9,0.2
		h0.4v-2.5c0-1.7-0.1-2.9-0.2-3.8c0.7,0.2,1.6,0.4,2.5,0.9h8.1c0.3-0.2,0.5-0.5,0.7-0.7c0.1-0.1,0.2-0.2,0.3-0.2
		c-0.1-0.1-0.2-0.3-0.2-0.6c-0.2-0.5-0.8-1.1-1.9-1.6l0.1-0.4c0.8,0.2,1.4,0.3,1.7,0.3c0.3,0,0.5-0.1,0.6-0.2
		c0.1-0.1,0.2-0.5,0.4-1.2c0.2-0.7,0.3-1.4,0.3-2.1h-1.4l0,0.1c0,0.1-0.1,0.3-0.3,0.4c-0.2,0.1-0.4,0.1-0.8,0.1
		c-0.5,0-0.8-0.1-0.9-0.2c-0.1,0-0.1,0.1-0.2,0.1c-0.3,0.2-0.5,0.3-0.5,0.5c-0.3,0.7-0.6,1.2-1,1.7c0.5,0.3,0.9,0.5,1.2,0.8
		c0.2,0.2,0.3,0.4,0.3,0.6c0,0.4-0.1,0.7-0.3,1c-0.2,0.3-0.5,0.4-0.8,0.4c-0.2,0-0.4-0.2-0.6-0.5c-0.2-0.4-0.5-0.8-0.9-1.2
		c-0.4,0.3-0.9,0.6-1.4,0.9c-1,0.5-2.1,0.9-3,1.1L25,40.9c1.3-0.7,2.4-1.5,3.3-2.4c0.1-0.2,0.2-0.3,0.3-0.4
		c-0.5-0.4-1.1-0.9-1.7-1.3l0.1-0.3c0.8,0.3,1.5,0.5,2.1,0.7c0.3-0.6,0.6-1.3,0.7-2.1h-2.9c-0.1,0.3-0.2,0.6-0.3,0.9
		c-0.4,1.1-0.8,1.9-1.2,2.6c-0.5,0.7-1,1.3-1.7,1.8c-0.8,0.7-1.7,1.2-2.7,1.5L21,41.5c0.7-0.6,1.3-1.2,1.8-1.8
		c0.4-0.5,0.8-1.2,1.2-2c0.2-0.5,0.5-1.3,0.7-2.3c0.2-1,0.4-2,0.6-3.2h-1.4c-0.9,0-1.5,0-1.9,0.1L21.8,31.4z M25.7,47.3h1.5v-4.9
		h-1.5V47.3z M27,34.6h2.7c0.2-0.2,0.3-0.4,0.5-0.6c0.3-0.2,0.5-0.4,0.6-0.4c0.2,0,0.6,0.2,1.1,0.6c0.2,0.2,0.4,0.4,0.5,0.5
		c0.2-0.8,0.4-1.7,0.6-2.6h-5.5C27.4,33,27.3,33.8,27,34.6z M29.3,47.3h1.6v-4.9h-1.6V47.3z M32.9,47.3h1.6v-4.9h-1.6V47.3z"/>
</g>
</svg>
