<svg width="288" height="178" viewBox="0 0 288 178" fill="none" xmlns="http://www.w3.org/2000/svg">
<path d="M30.0701 6.77039C29.5601 7.84039 28.54 8.07037 26.72 8.07037H23.5901V70.4603C23.5901 71.0003 21.55 72.5304 18.35 72.5304H17.2601V54.3904C14.2801 56.0704 10.3501 58.1404 5.62006 60.5104C5.26006 61.5104 4.46003 62.1204 3.66003 62.2704L0.820068 53.3104C1.91007 53.2304 3.44007 53.1604 5.26007 53.0004V8.06036H1.26007L0.900085 6.61035H18.9401L22.79 1.40039L30.0601 6.76038L30.0701 6.77039ZM17.2701 21.3203V8.08038H11.4501V21.3203H17.2701ZM17.2701 36.7103V22.8503H11.4501V36.7103H17.2701ZM11.4501 38.2404V52.4004C13.2701 52.2504 15.2301 52.0204 17.2701 51.7904V38.2404H11.4501ZM70.6501 29.1304C70.0701 30.1304 69.12 30.5104 67.16 30.5104H57.05C57.27 35.5604 57.7801 40.3904 58.5001 44.7504C60.0301 41.2304 61.1901 37.6304 61.9901 34.0304L70.4301 36.9403C70.0701 37.8603 69.4101 38.2404 67.5901 38.2404C65.9201 43.0604 63.5201 48.0404 60.3901 52.6304C61.9901 57.6804 64.4601 61.2804 64.8301 61.2804C65.7001 61.2804 68.25 53.7803 69.05 51.3303L69.6301 51.4803L68.2501 64.1104C69.4101 66.7104 70.0001 68.7004 70.0001 70.0004C70.0001 72.3004 67.5301 72.5304 66.9501 72.5304C64.2601 72.5304 61.1301 69.8503 59.5301 67.3203C57.9301 64.7203 56.6201 61.8803 55.4601 58.8203C50.6601 64.0303 44.6201 68.4703 36.9901 71.4503L36.41 70.3804C43.83 66.1704 49.57 60.2804 53.86 53.6204C52.04 46.7304 51.0201 39.0004 50.5101 30.5004H24.2601L23.9001 28.9703H39.54C40.19 24.7603 40.7 19.0204 40.92 14.8804L49.86 16.6404C49.71 17.5604 48.9901 17.9404 47.3101 18.0204C45.8601 21.2404 43.4601 25.5203 41.2001 28.9703H50.4401C50.1501 24.0703 50.0801 18.8604 50.0001 13.5104C49.5601 13.5904 49.0501 13.6604 48.4001 13.6604H26.0001L25.5601 12.1304H34.1401V0.950378L43.9601 1.87036C43.8101 2.94036 43.16 3.4004 41.05 3.7804V12.1204H42.72L45.85 7.37036L49.92 10.8104V0.860352L59.66 1.93036C59.51 2.93036 58.9301 3.38037 56.9001 3.69037C56.8301 8.28037 56.7501 12.9503 56.7501 17.4703C56.7501 21.3703 56.82 25.2803 56.97 28.9503H59.8101L63.5901 23.5903L70.6401 29.1003L70.6501 29.1304ZM41.2701 59.6003H34.0701V64.0404C34.0701 64.0404 33.27 66.3403 28.11 66.3403V34.8804L34.4401 37.7103H40.6901L43.0201 34.4204L49.7801 39.4004C49.4201 39.8604 48.4701 40.4004 47.3101 40.6204V60.9803C47.3101 61.1303 45.7101 62.8203 41.2701 62.8203V59.6003ZM29.4901 15.0504C34.4401 18.1904 36.11 21.4004 36.11 23.9304C36.11 26.6104 34.1501 28.4503 32.2601 28.4503C31.1701 28.4503 30.08 27.9104 29.35 26.5404C29.57 25.3104 29.7101 23.9404 29.7101 22.5604C29.7101 19.9604 29.2701 17.3503 28.6901 15.4403L29.4901 15.0604V15.0504ZM41.2701 39.2404H34.0701V47.6604H41.2701V39.2404ZM34.0701 58.0004H41.2701V49.2704H34.0701V58.0004ZM58.5801 7.02039C66.3601 8.55039 68.91 11.9204 68.91 14.6804C68.91 16.9004 67.24 18.6604 65.35 18.6604C64.4 18.6604 63.4601 18.2804 62.5901 17.2804C62.5201 13.9104 60.5501 9.78037 58.0801 7.63037L58.5901 7.02039H58.5801Z" fill="white"/>
<path d="M74.0801 71.3103C101.35 51.0203 100.77 26.2203 100.84 2.26025L112.26 3.33026C112.19 4.40026 111.61 5.01023 109.28 5.24023C111.17 29.6602 118.37 50.8702 142.22 64.1102L142.07 64.9502C138.14 65.5602 135.67 68.0903 134.65 72.5303C116.83 59.4403 111.09 38.9203 108.91 17.6403H108.84C107.68 37.7003 102.8 58.0602 74.8801 72.4502L74.0801 71.3003V71.3103Z" fill="white"/>
<path d="M208.11 23.6103L215.16 29.0504C214.58 30.0504 213.71 30.3503 211.74 30.3503H175.16C174.65 30.5003 174 30.5803 173.2 30.5803H164.18V38.0103C172.32 41.3003 175.02 45.6703 175.02 48.8803C175.02 51.4803 173.27 53.3203 171.31 53.3203C170.29 53.3203 169.2 52.8603 168.33 51.7103C168.18 47.8103 166.29 42.8303 164.18 39.4603V70.2303C164.18 70.3803 163.31 72.5303 156.91 72.5303V47.5703C154.29 52.4703 151.09 56.9104 147.31 60.8104L146.36 59.8104C150.65 51.7704 153.56 40.8303 155.16 30.5703H146.87L146.51 29.0403H156.91V0.720276L167.02 1.64032C166.87 2.79032 166.29 3.32029 164.18 3.55029V29.0403H166.14L169.85 23.7603L176.1 28.8104H189.92V21.0803H178.07L177.63 19.5504H189.92V12.0504H176.1L175.74 10.5203H189.92V0.570312L200.39 1.64032C200.32 2.79032 199.52 3.32031 197.26 3.63031V10.5203H203.01L206.79 5.16028L213.77 10.7503C213.19 11.7503 212.24 12.0504 210.35 12.0504H197.26V19.5504H200.9L204.46 14.6503L211.15 19.7803C210.57 20.7803 209.62 21.0803 207.8 21.0803H197.26V28.8104H204.39L208.1 23.6003L208.11 23.6103ZM147.82 6.23029C153.06 10.7503 154.87 15.1103 154.87 18.4003C154.87 21.6903 153.05 23.8403 151.23 23.8403C150.21 23.8403 149.27 23.2303 148.47 22.0003C148.62 20.8503 148.69 19.6303 148.69 18.3303C148.69 14.2703 147.96 9.76028 146.87 6.54028L147.82 6.23029ZM177.85 8.3703C177.63 9.3703 176.98 9.82033 175.23 9.90033C172.68 14.7203 169.63 20.4603 166.94 24.2903L165.78 23.7503C166.65 19.2303 167.74 11.8103 168.62 5.6803L177.86 8.36029L177.85 8.3703ZM201.34 36.8503L204.39 32.7203L212.46 38.8403C212.02 39.3803 210.93 40.0703 209.41 40.3703V63.2603C209.41 68.0803 208.68 71.5303 200.54 72.5203C200.54 67.3103 199.3 65.6303 195.01 65.0903V64.0903H201.12C201.85 64.0903 202.07 63.9403 202.07 63.0203V56.3603H185.13V69.8303C185.13 69.9803 184.18 72.5903 178.22 72.5903V33.5504L185.49 36.8403H201.34V36.8503ZM202.07 38.3803H185.13V45.8104H202.07V38.3803ZM185.13 54.9203H202.07V47.2603H185.13V54.9203Z" fill="white"/>
<path d="M278.88 57.3004L287.9 64.1903C287.32 65.1103 286.45 65.4904 284.26 65.4904H219.97L219.53 63.9603H249.2V13.9703H224.84L224.4 12.4403H269.42L274.29 5.86035L283.23 12.6003C282.65 13.6003 281.7 13.9803 279.67 13.9803H257.42V63.9703H273.93L278.88 57.3104V57.3004Z" fill="white"/>
<path d="M53.7101 109.57L62.0701 116.151C61.6301 116.761 60.5401 117.45 59.0901 117.76V173.031C59.0901 173.181 56.9101 175.63 51.0901 175.63V168.51H19.3801V173.33C19.3801 173.56 18.5101 176.7 11.6001 176.7V110.48L19.9601 114.151H50.3601L53.7101 109.561V109.57ZM51.0901 115.771H19.3801V140.11H51.0901V115.771ZM19.3801 166.98H51.0901V141.641H19.3801V166.98Z" fill="white"/>
<path d="M97.35 159.18C96.99 159.79 96.55 160.1 95.6 160.1C95.31 160.1 94.95 160.1 94.58 160.02C89.78 165.23 81.71 171.2 73.13 174.72L72.48 173.65C79.17 168.37 85.57 159.95 88.55 153.82L97.35 159.18ZM108.19 118.15C107.97 118.76 107.46 118.99 106.66 118.99C106.3 118.99 105.86 118.99 105.28 118.84C102.15 121.9 97.21 125.73 92.55 128.87C95.24 130.78 96.33 133.16 96.33 135.07C96.33 137.52 94.8 139.36 92.77 139.36C91.97 139.36 91.17 139.13 90.3 138.52C88.19 134 83.32 128.72 78.88 125.89L79.24 125.2C84.26 125.51 87.97 126.42 90.58 127.73C92.62 124.36 94.73 120.23 96.4 116.63C88.47 117.24 80.4 117.63 72.84 117.78L72.77 116.48C90.81 114.11 114 109.13 126.08 105.07L133.86 113.03C133.42 113.41 132.84 113.64 132.04 113.64C131.24 113.64 130.22 113.41 129.06 112.87C122.08 114.02 113.21 115.09 103.75 116.01L108.19 118.15ZM123.68 126.34C123.39 126.72 122.95 126.95 122.37 126.95C121.86 126.95 121.21 126.8 120.48 126.49C114.95 132 106.52 138.82 98.01 144.4C106.08 144.25 115.25 144.09 124.99 143.86C122.37 141.18 119.39 138.88 116.63 137.28L116.92 136.51C132.63 137.96 137.65 144.55 137.65 149.06C137.65 151.59 136.12 153.5 134.01 153.5C133.21 153.5 132.34 153.19 131.46 152.66C130.44 150.44 128.84 148.14 126.95 146C122 146.77 116.33 147.61 109.71 148.45V174.86C109.64 175.32 107.24 177.16 103.24 177.16H101.86V149.45C95.31 150.22 88.04 151.13 79.75 152.05C79.24 152.97 78.44 153.58 77.64 153.73L73.2 144.54C77.35 144.62 82.36 144.54 94.07 144.46C101.63 136.73 109.63 126.93 114.65 119.66L123.67 126.32L123.68 126.34ZM115.97 154.66C131.53 157.72 136.48 164.77 136.48 169.51C136.48 172.27 134.81 174.18 132.63 174.18C131.76 174.18 130.74 173.87 129.72 173.11C127.47 166.91 121.36 159.41 115.54 155.35L115.98 154.66H115.97Z" fill="white"/>
<path d="M181.28 169.82C180.77 170.89 179.83 171.2 177.93 171.2H156.19V175.1C156.19 175.64 154.08 177.24 150.74 177.24H149.58V154.5C148.05 156.34 146.45 157.94 144.85 159.25L143.83 158.48C146.96 153.66 150.16 145.08 152.05 136.66L160.41 139.57C160.12 140.49 159.46 140.95 157.72 140.95C157.14 142.33 156.48 143.71 155.83 145.01L157.14 145.55H162.52C162.88 143.02 163.17 139.66 163.32 137.36L172.7 139.35C172.48 140.19 171.75 140.58 170.01 140.65C168.77 142.1 166.88 143.94 165.14 145.55H171.39L174.66 141.19L180.84 145.78C180.33 146.78 179.39 147.08 177.49 147.08H168.25V153.36H169.92L172.97 149.3L178.79 153.59C178.21 154.59 177.34 154.89 175.52 154.89H168.25V161.47H169.92L172.97 157.34L178.79 161.63C178.28 162.7 177.34 162.93 175.52 162.93H168.25V169.67H171.45L174.87 165.08L181.27 169.83L181.28 169.82ZM210.59 160.33V169.44C212.77 170.51 212.99 170.82 212.99 171.97C212.99 174.65 211.1 176.03 206.74 176.03H203.39C197.28 176.03 196.63 174.88 196.63 167.69V149.78H189.5V151.08C189.5 151.39 188.55 152.23 186.95 152.84L195.9 154.14C195.68 155.21 194.95 155.59 192.99 155.67C191.54 164.55 187.17 172.97 175.54 177.33L174.89 176.11C183.11 171.13 185.65 162.1 186.09 153.07C185.14 153.3 184.42 153.3 182.67 153.3V113.8C182.23 114.18 181.58 114.49 180.42 114.49H172.64V118.32C172.64 118.78 171.33 119.93 167.33 119.93H166.09V114.49H158.96V118.62C158.96 119.08 157.51 120.15 153.65 120.15H152.41V114.48H144.85L144.56 112.95H152.41V105.45L161.28 106.22C161.13 107.22 160.77 107.67 158.95 107.98V112.96H166.08V105.46L174.95 106.23C174.88 107.15 174.51 107.68 172.62 108.07V112.97H174.8L177.56 108.76L182.65 112.82V108.07L190.29 111.21H201.42L204.55 106.92L212.11 112.97C211.6 113.66 210.87 114.12 209.2 114.35V150.64C209.2 151.1 206.87 152.63 203.45 152.71V167.79C203.45 169.55 203.45 169.78 204.18 169.78H206.36C206.65 169.78 207.16 169.78 207.6 168.86C208.18 167.79 209.27 163.88 210.07 160.36H210.58L210.59 160.33ZM161.43 135.3C161.36 135.84 158.59 136.98 156.92 136.98H156.05V133.84H152.2V136.14C152.2 136.6 150.45 137.9 147.76 137.9H146.89V120.37L153.07 123.13H155.47L157.58 120.37L163.62 124.73C163.33 125.19 162.46 125.65 161.44 125.8V135.29L161.43 135.3ZM152.19 132.31H156.04V124.65H152.19V132.31ZM161.72 147.08H156.19V153.36H161.72V147.08ZM161.72 161.47V154.89H156.19V161.47H161.72ZM161.72 169.66V162.92H156.19V169.66H161.72ZM179.32 134.98C179.25 135.52 176.48 136.66 174.81 136.66H173.86V133.83H169.79V135.36C169.79 135.74 168.04 137.12 165.28 137.12H164.41V120.35L170.74 123.11H173.36L175.47 120.28L181.65 124.72C181.29 125.18 180.41 125.64 179.32 125.87V134.98ZM169.79 132.3H173.86V124.64H169.79V132.3ZM202.08 112.7H189.5V123.42H202.08V112.7ZM202.08 135.74V124.95H189.5V135.74H202.08ZM189.5 148.22H202.08V137.27H189.5V148.22Z" fill="white"/>
<path d="M258.66 149.92L257.57 160.56C258.81 162.93 259.39 164.62 259.39 165.84C259.39 167.98 257.21 168.6 256.04 168.6C249.35 168.6 241.35 156.35 239.24 134.38H230.15V155.59C234.08 154.9 238.51 154.06 242.88 153.22L243.03 154.14C238.81 156.74 232.34 160.34 223.18 164.93C222.82 165.93 222.09 166.61 221.29 166.77L217.14 157.74L223.03 156.82V111.27L231.39 115.48C237.94 112.72 245.35 108.44 249.28 105.38L257.64 112.81C257.2 113.19 256.55 113.5 255.68 113.5C255.03 113.5 254.15 113.35 253.21 112.96C250.81 113.65 247.83 114.41 244.56 115.03L248.34 115.41C248.27 116.41 247.69 116.79 245.65 117.09C245.58 122.37 245.58 127.73 246.01 132.86H248.77L252.33 127.58L258.95 133.09C258.3 134.09 257.42 134.39 255.46 134.39H246.15C246.95 143.81 249.06 152.23 253.42 157.66C253.71 158.12 253.93 158.35 254.22 158.35C255.09 158.35 257.42 151.84 258.07 149.85L258.65 149.93L258.66 149.92ZM240.7 170.97L244.85 165.08L252.41 171.2C251.83 172.12 250.88 172.5 248.92 172.5H223.1L222.74 170.97H240.7ZM230.16 132.85H239.1C238.66 127.57 238.52 121.98 238.45 116.16C236.27 116.47 234.09 116.77 231.98 117C231.47 117.23 230.89 117.38 230.16 117.46V132.85ZM279.03 107.28L286.38 115.24C285.87 115.93 284.85 116.24 283.18 116.24C280.85 120.99 276.2 129.79 273.14 134.84C281.58 140.5 285.5 146.71 285.58 153.06V153.37C285.58 161.1 282.67 165.85 274.16 166.61C274.16 161.02 272.49 160.26 269.58 159.64V158.57H274.89C277.22 158.57 278.02 156.35 278.02 152.75C278.02 146.78 276.27 140.58 271.69 135.07C272.78 129.86 274.53 119.68 275.54 113.48H268.99V174.72C268.99 175.41 266.66 177.25 262.95 177.25H261.64V108.51L269.93 111.95H274.88L279.03 107.28Z" fill="white"/>
</svg>
