<?xml version="1.0" encoding="utf-8"?>
<!-- Generator: Adobe Illustrator 25.2.3, SVG Export Plug-In . SVG Version: 6.00 Build 0)  -->
<svg version="1.1" id="圖層_1" xmlns="http://www.w3.org/2000/svg" xmlns:xlink="http://www.w3.org/1999/xlink" x="0px" y="0px"
	 viewBox="0 0 280 49" style="enable-background:new 0 0 280 49;" xml:space="preserve">
<style type="text/css">
	.st0{fill:#C9A063;}
</style>
<path class="st0" d="M2.7,2.4h2.7c0.5-0.7,0.9-1.1,1.1-1.1S7,1.5,7.6,1.9c0.5,0.4,0.8,0.7,0.8,0.8c0,0.1-0.1,0.3-0.3,0.4
	C7.8,3.4,7.6,3.5,7.6,3.6v5.9c0.1,2.3,0.1,3.8,0.1,4.4c0,0.5-0.4,0.7-1.1,0.7c-0.5,0-0.8-0.1-0.9-0.4V13H3v1.7
	c-0.1,0.4-0.5,0.6-1.2,0.6c-0.4,0-0.7-0.1-0.8-0.2c0-2.1,0-4.2,0.1-6.2V4.8C1.1,3.1,1,2,1,1.7L2.7,2.4z M5.7,7.3V2.9H3v4.4H5.7z
	 M5.7,12.4V7.8H3v4.6H5.7z M11,13.9c-0.3,0.9-0.8,1.8-1.8,2.7c-1.2,1.3-2.5,2.1-3.7,2.5c-0.1,0-0.2-0.1-0.3-0.2
	c1.4-1,2.6-2.2,3.4-3.8c0.8-1.2,1.2-3.2,1.2-6.1c0-3.3,0-5.3,0-6.1c0-0.7,0-1.4-0.1-2.3l2.2,1h3.7c0.4-0.6,0.8-1,1-1.2
	c0.2,0,0.5,0.2,1.1,0.5c0.6,0.4,0.9,0.7,0.9,0.9c0,0.1-0.1,0.3-0.4,0.4c-0.3,0.2-0.4,0.3-0.5,0.4V16c0,1.4-0.8,2.2-2.3,2.5
	c-0.2,0-0.4-0.1-0.4-0.4c-0.2-0.5-0.7-1-1.2-1.2c-0.8-0.3-1.4-0.5-1.7-0.6c0,0,0-0.1,0-0.4C12.9,16,14,16,15.4,16
	c0.3,0,0.5-0.2,0.5-0.5v-4h-4.3C11.3,12.7,11.2,13.4,11,13.9z M11.6,9.1c0,0.8,0,1.6-0.1,2.2h4.3V6.9h-4.2V9.1z M11.6,6.4h4.2V2.3
	h-4.2V6.4z"/>
<path class="st0" d="M38.4,11.9c0.9,0.8,1.3,1.2,1.3,1.4c0,0.2-0.1,0.3-0.2,0.3h-7.1c1,0.9,2,1.6,3.2,2c1.2,0.5,2.6,0.7,4.2,0.8
	c0,0.2,0,0.3-0.1,0.4c-0.1,0-0.3,0.2-0.5,0.4c-0.1,0.1-0.3,0.4-0.4,0.8c-0.1,0.3-0.2,0.4-0.4,0.4c-0.7,0-1.8-0.5-3.4-1.4
	c-1.4-0.8-2.4-1.9-3.1-3.3h-0.3l0.1,5.1c0,0.4-0.4,0.6-1.2,0.7c-0.6,0-0.9-0.2-0.9-0.5c0-1.6,0-3.1,0-4.5c-1.5,1.7-4.3,3-8.5,4
	c-0.1,0-0.2-0.1-0.3-0.3c3.4-1.2,5.6-2.6,6.7-4c0.2-0.2,0.3-0.4,0.4-0.5h-1.6c-2.4,0-4,0.1-4.6,0.3c-0.1-0.4-0.3-0.7-0.5-1.1
	c1,0.1,2.8,0.2,5.2,0.2h3.1v-0.2c0-0.7-0.1-1.2-0.1-1.6c-0.6,0.2-1.3,0.4-2,0.5c0,0-0.1-0.1-0.2-0.3c1.7-0.6,2.9-1.5,3.7-2.7
	c-0.6-0.4-1.1-0.7-1.7-0.9c0,0,0.1-0.1,0.1-0.3C30,7.7,30.7,7.8,31.2,8c0.2-0.5,0.3-1,0.3-1.4c-0.8,0-1.4,0.1-1.7,0.2
	c-0.1-0.3-0.3-0.7-0.4-1c0.3,0.1,1,0.2,2,0.2H35c0.2-0.3,0.4-0.5,0.6-0.7c-0.4,0-0.6-0.2-0.7-0.7c0-0.1-0.1-0.3-0.1-0.5
	s-0.1-0.3-0.1-0.5c-0.1-0.2-0.2-0.4-0.3-0.5h-1.6c-0.2,0.2-0.4,0.4-0.5,0.5c-0.7,0.6-1.4,1.2-2.2,1.6c0,0-0.1-0.1-0.2-0.2
	c1.3-1.6,2.2-3.1,2.5-4.6c1.8,0.5,2.7,0.9,2.7,1.1s-0.4,0.3-1.2,0.4c-0.1,0.2-0.3,0.4-0.4,0.6h3.7c0.5-0.8,0.9-1.2,1.1-1.3h0.1
	c0.1,0.1,0.4,0.3,0.8,0.6c0.5,0.5,0.8,0.8,0.9,1C40.1,3,40,3.1,40,3.1h-4.4c0.8,0.3,1.2,0.7,1.2,1.3c0,0.3-0.1,0.6-0.3,0.7
	c0.3,0.1,0.6,0.4,1,0.6c0.5,0.4,0.7,0.7,0.7,0.8c0,0.2-0.3,0.5-0.9,0.8v1.9c0,0.5,0.2,0.7,0.6,0.8c0,0,0,0,0.1,0
	c0.5,0,0.7-0.1,0.8-0.3C39,9.4,39.2,8.8,39.3,8c0,0,0.1,0.1,0.4,0.1c0,0.3,0,0.7,0,1.2c0,0.2,0.1,0.4,0.3,0.5
	c0.3,0.1,0.5,0.4,0.5,0.6c0,0.3-0.1,0.4-0.1,0.5c-0.2,0.4-0.6,0.6-1.2,0.7c-0.3,0.1-0.5,0.1-0.8,0.1c-0.3,0-0.5,0-0.7,0
	c-1.2,0-1.8-0.6-1.9-1.9V6.7h-1.9c-0.1,0.9-0.3,1.5-0.5,1.8v0.1c1.1,0.5,1.7,1,1.7,1.7c0,0.2,0,0.3-0.1,0.5
	c-0.1,0.3-0.3,0.4-0.6,0.4c-0.3,0-0.7-0.3-1.2-0.9c-0.2-0.2-0.4-0.4-0.6-0.5c-0.6,0.7-1.4,1.2-2.4,1.5c2,0.3,3,0.6,3,0.8
	c0,0.1-0.1,0.3-0.4,0.4c-0.4,0.2-0.7,0.3-0.7,0.4v0.3h4.8c0.6-0.8,1.1-1.3,1.4-1.4C38.3,11.8,38.4,11.8,38.4,11.9
	C38.1,11.6,38.2,11.8,38.4,11.9z M24.7,2.9c-1,1.3-2.2,2.2-3.5,2.9c-0.1-0.1-0.2-0.2-0.4-0.2c1.4-1.4,2.5-3.2,3.1-5.5
	c1.8,0.6,2.7,0.9,2.7,1.1c0,0.3-0.4,0.4-1,0.5c-0.1,0.2-0.3,0.4-0.4,0.6h2.7C28.4,1.5,28.8,1.1,29,1h0.1c0.2,0.1,0.4,0.3,0.8,0.6
	c0.5,0.5,0.8,0.8,0.9,1c0,0.2-0.1,0.3-0.1,0.3h-4.6c1,0.3,1.6,0.9,1.6,1.6c0,0.6-0.3,0.9-0.9,0.9c-0.4,0-0.6-0.2-0.7-0.7
	c0-0.1-0.1-0.3-0.1-0.6c0-0.2-0.1-0.4-0.1-0.6c-0.1-0.3-0.3-0.5-0.4-0.7L24.7,2.9L24.7,2.9z M24.1,6.8c-0.9,0-1.6,0.1-2,0.2
	c-0.1-0.3-0.2-0.5-0.3-0.8c0.4,0.1,1.2,0.1,2.3,0.1H27c0.3-0.4,0.5-0.7,0.8-1C27.9,5.2,28,5.2,28,5.2c0.1,0,0.2,0.1,0.4,0.2
	c0.7,0.6,1.1,1,1.2,1.2c0,0.2-0.1,0.3-0.1,0.3h-3v2.7c1.1-0.1,2.1-0.2,2.9-0.4l0.1,0.1c-1.6,0.8-3.8,1.6-6.7,2.1
	c0,0.4-0.1,0.5-0.2,0.5s-0.2-0.2-0.4-0.5c-0.2-0.3-0.4-0.9-0.7-1.6c1.2,0,2.3-0.1,3.3-0.2V6.8H24.1z"/>
<path class="st0" d="M49.5,4.4c0.4,0.4,0.6,0.7,0.7,0.9c0,0.2-0.1,0.3-0.3,0.3H47v1.9c0,0.8,0,1.5-0.1,2.2h0.9
	c0.6-0.8,1-1.3,1.2-1.3c0.1,0,0.4,0.2,0.8,0.7c0.4,0.4,0.6,0.7,0.7,0.9c0,0.2-0.1,0.3-0.3,0.3h-3.4c-0.1,0.7-0.2,1.3-0.3,1.8
	c2.5,0.7,3.8,1.7,3.9,3.2c0,0.4-0.1,0.7-0.1,0.7c-0.1,0.3-0.4,0.5-0.8,0.5c-0.3,0-0.7-0.6-1.2-1.8c-0.6-1-1.2-1.7-1.8-2.2
	c-0.7,2.7-2.1,4.7-4.1,6c-0.1-0.1-0.2-0.2-0.3-0.2c0.8-0.9,1.5-2.3,2.2-4.2c0.4-1,0.6-2.3,0.8-3.7c-1.8,0-2.7,0.1-2.7,0.2
	c-0.1-0.3-0.3-0.6-0.4-1.1c0.3,0.1,1.4,0.2,3.2,0.3c0.1-1,0.1-2,0.1-3.1v-1c-1.6,0-2.5,0.1-2.5,0.2c-0.1-0.3-0.3-0.6-0.4-1.1
	c0.3,0.1,1.2,0.2,2.9,0.3v-3c0-0.6-0.1-1.1-0.1-1.5c0.9,0.2,1.6,0.3,2.1,0.4c0.6,0.1,0.9,0.3,0.9,0.4s-0.1,0.2-0.3,0.3
	C47.6,1.9,47.4,2,47.2,2L47,5h0.5c0.6-0.8,1-1.3,1.2-1.3C48.8,3.7,49.1,3.9,49.5,4.4z M52.7,1.6h4.7c0.5-0.6,0.9-0.9,1.1-1
	c0.2,0,0.6,0.2,1.1,0.6c0.5,0.4,0.8,0.7,0.8,0.8c0,0.1-0.1,0.3-0.3,0.4c-0.3,0.3-0.5,0.4-0.6,0.5v5.2c0.1,2,0.1,3.4,0.1,3.9
	s-0.4,0.7-1.1,0.7c-0.5,0-0.8-0.1-0.9-0.4V12h-0.4v4.5c0.1,0.5,0.4,0.8,0.7,0.8h0.2c0.6,0,0.9-0.4,1-1.1c0.3-0.9,0.4-1.6,0.5-2.1
	c0.1,0,0.2,0,0.4,0v2.2c0,0.3,0.1,0.6,0.4,0.7c0.4,0.2,0.6,0.4,0.6,0.6c0,0.5-0.4,0.8-1.1,1c-0.3,0.1-0.8,0.2-1.4,0.3
	c-0.5,0-0.8,0-1,0c-1.3-0.1-2-0.8-2-2V12h-0.4c-0.1,1.3-0.3,2.1-0.5,2.6c-0.9,2.5-2.9,4-6,4.7c0-0.1-0.1-0.1-0.2-0.2
	c2.3-1,3.8-2.6,4.5-4.8c0.2-0.8,0.4-1.5,0.4-2.2h-0.5v0.4c-0.1,0.4-0.5,0.6-1.2,0.6c-0.4,0-0.7-0.1-0.8-0.2c0-1.9,0-3.8,0.1-5.6V3.6
	c0-1.6-0.1-2.5-0.1-2.8L52.7,1.6z M57.8,4.8V2.1h-4.9v2.7H57.8z M57.8,8.1V5.4h-4.9v2.7H57.8z M57.8,11.6V8.7h-4.9v2.9H57.8z"/>
<path class="st0" d="M73.4,1.4c0.5,0.4,0.7,0.7,0.7,0.8c0,0.1-0.1,0.2-0.3,0.3c-0.1,0.1-0.3,0.2-0.5,0.4v0.7h0.5
	c0.5-0.6,0.8-0.9,0.9-0.9c0.1,0,0.3,0.2,0.6,0.5c0.3,0.3,0.4,0.5,0.5,0.7c0,0.2-0.1,0.3-0.3,0.3h-2.2v0.7c0.1,0.5,0.1,0.9,0.1,1.2
	c0,0.3-0.4,0.5-1.2,0.6c-0.4,0-0.6-0.1-0.6-0.4h-2.1v1.4h2.7c0.5-0.6,0.9-0.9,1.1-0.9c0.1,0,0.4,0.2,0.7,0.5
	c0.4,0.3,0.6,0.5,0.6,0.7s-0.1,0.3-0.3,0.3h-4.9v1.2H73c0.5-0.7,0.9-1,1.1-1c0.1,0,0.4,0.2,0.7,0.6c0.4,0.4,0.6,0.6,0.6,0.7
	c0,0.2-0.1,0.3-0.3,0.3h-8.9c-2,0-3,0.1-3,0.2c-0.1-0.3-0.3-0.6-0.4-1.1c0.3,0.1,1.4,0.2,3.3,0.3h1.6V8.3h-0.2c-2,0-3.1,0.1-3.1,0.2
	c-0.1-0.3-0.3-0.6-0.4-1.1c0.3,0.1,1.4,0.2,3.2,0.3h0.5V6.3c-1.5,0-2.7,0.1-3.6,0.2c-0.2-0.3-0.3-0.6-0.4-0.9
	c0.5,0.1,1.8,0.1,3.9,0.1V4.2h-1.2c-2,0-3,0.1-3,0.2c-0.1-0.3-0.3-0.6-0.4-1.1c0.3,0.1,1.4,0.2,3.3,0.3h1.4V2.3h-0.4
	c-1.4,0-2.4,0.1-3.1,0.2C64.1,2.2,64,2,63.9,1.7c0.5,0.1,1.7,0.1,3.5,0.1h0.3c0-0.8-0.1-1.4-0.1-1.8c1.8,0.3,2.8,0.5,2.8,0.7
	S70.3,1,70.1,1c-0.4,0.2-0.6,0.3-0.6,0.4v0.4h1.9c0.5-0.6,0.9-0.9,1.1-0.9C72.6,0.9,72.9,1.1,73.4,1.4z M75.2,16.9
	c-2.8,0.9-6.4,1.5-10.6,1.7c-0.1,0.6-0.3,1-0.5,1c-0.2,0-0.3-0.4-0.5-1.1c-0.2-0.7-0.3-1.3-0.4-1.7c0.8,0.1,2,0.2,3.6,0.2
	c4.3,0,7.1-0.2,8.3-0.4C75.1,16.6,75.1,16.8,75.2,16.9z M65.5,11.3h6.1c0.5-0.5,0.8-0.7,1-0.8c0.2,0,0.5,0.2,1,0.6
	c0.5,0.4,0.7,0.6,0.7,0.8c0,0.1-0.1,0.3-0.3,0.4c-0.3,0.2-0.5,0.4-0.5,0.4v1.8c0.1,0.7,0.1,1.1,0.1,1.3c0,0.4-0.3,0.7-1,0.7
	c-0.5,0-0.8-0.1-0.8-0.4v-0.2H66V16c-0.1,0.4-0.4,0.6-1,0.6c-0.4,0-0.6-0.1-0.7-0.2c0-0.9,0-1.8,0.1-2.6V12c0-0.7-0.1-1.2-0.1-1.3
	L65.5,11.3z M67.9,13.2v-1.4h-2v1.4H67.9z M67.9,15.3v-1.6h-2v1.6H67.9z M69.5,3.6h2.1V2.3h-2.1V3.6z M69.5,4.2v1.5h2.1V4.2H69.5z
	 M69.8,13.2h2.1v-1.4h-2.1V13.2z M69.8,15.3h2.1v-1.6h-2.1V15.3z M77.7,2.2c0.5,0.1,0.7,0.2,0.7,0.4c0,0.1-0.1,0.2-0.3,0.2
	c-0.4,0.1-0.5,0.2-0.5,0.3v7.1c0,2,0.1,3.5,0.1,4.3c0,0.3-0.4,0.5-1.2,0.5c-0.4,0-0.6-0.1-0.6-0.4c0-0.7,0-2.2,0.1-4.5V3.6
	c0-0.6-0.1-1.2-0.2-1.7C76.4,2,77,2.1,77.7,2.2z M82.1,0.9C82.1,1,82,1.1,82,1.1c-0.1,0.1-0.3,0.1-0.5,0.2c-0.2,0.1-0.3,0.2-0.3,0.3
	v14.8c0,1.8-0.7,2.6-2.1,2.6c-0.3,0-0.5-0.1-0.5-0.4c-0.1-0.4-0.4-0.7-0.9-1c-0.3-0.3-0.9-0.4-1.5-0.5c0-0.1,0.1-0.2,0.1-0.3
	c0.5,0,1.4,0,2.8,0c0.2,0,0.3-0.2,0.3-0.6V2.7c0-1.2-0.1-2.1-0.2-2.7C80.9,0.5,81.9,0.7,82.1,0.9z"/>
<path class="st0" d="M18.1,30c0.5,0.4,0.8,0.7,0.8,0.8c0,0.1-0.1,0.2-0.3,0.4c-0.3,0.2-0.5,0.4-0.5,0.4v9.6c0,3.3,0.1,5.5,0.1,6.7
	c0,0.4-0.4,0.6-1.3,0.6c-0.4,0-0.5-0.1-0.5-0.4v-0.6H2.7v0.6c-0.1,0.4-0.5,0.6-1.2,0.6c-0.4,0-0.7-0.1-0.8-0.2c0-3,0-5.9,0.1-8.7V34
	c0-2.4-0.1-3.9-0.2-4.3l1.8,0.7H16c0.6-0.6,0.9-0.9,1.1-0.9C17.4,29.5,17.6,29.7,18.1,30z M16.3,46.9V31H2.7v15.9H16.3z M14.7,33.5
	c0.7,0.6,1,0.9,1,1.1c0,0.2-0.1,0.3-0.2,0.3h-3.7v1c0.1,1.4,0.2,2.7,0.5,3.8c0.4-1,0.7-2.1,0.8-3.4c1.7,0.6,2.5,1,2.5,1.2
	c0,0.1-0.2,0.2-0.5,0.3l-0.5,0.1c-0.4,1.5-1,2.8-1.7,3.9c0.3,0.8,0.8,1.5,1.3,1.9c0.3,0,0.8-0.7,1.5-2c0.1,0.1,0.2,0.1,0.3,0.1
	c-0.4,0.8-0.7,1.7-0.9,2.5c0,0.3,0.1,0.6,0.2,0.8c0.2,0.3,0.3,0.6,0.3,0.8c0,0.3-0.2,0.4-0.6,0.4c-1,0-2-1-2.9-2.9
	c-0.1-0.1-0.2-0.3-0.3-0.4c-1.3,1.5-3,2.6-5,3.1c0,0,0-0.1-0.1-0.2c1.9-1.1,3.4-2.5,4.5-4.3c-0.7-1.8-1-4-1.1-6.8H6.6
	c-1.6,0-2.6,0.1-3,0.3c-0.1-0.4-0.3-0.7-0.5-1.1c0.7,0.1,1.8,0.2,3.4,0.2h3.6v-0.6c0-0.8-0.1-1.6-0.2-2.5c1.7,0.3,2.6,0.6,2.6,0.8
	c0,0.1-0.1,0.2-0.2,0.2c-0.3,0.1-0.5,0.2-0.5,0.3c0,0.7,0,1.3,0,1.8h1.3c0.2-0.2,0.3-0.4,0.5-0.5h-0.1c-0.2,0-0.4-0.3-0.4-0.8
	c-0.1-0.4-0.2-0.8-0.3-1c-0.1-0.2-0.3-0.4-0.4-0.6l0.1-0.1c0.4,0.1,0.7,0.2,1,0.4c0.5,0.4,0.8,0.8,0.8,1.3c0,0.1,0,0.2,0,0.3h0.1
	C14.4,33.3,14.6,33.4,14.7,33.5z M9.8,42.5c-1,0.8-2.7,1.6-5.1,2.4c-0.1,0.6-0.2,0.8-0.4,0.8c-0.1,0-0.3-0.3-0.4-0.8
	c-0.2-0.5-0.4-1.1-0.6-1.9c0.4,0.1,1,0.1,1.8,0.1c2.1-0.2,3.6-0.5,4.5-1C9.7,42.3,9.8,42.4,9.8,42.5z M5.4,36.8h1.8
	c0.4-0.6,0.7-0.9,0.9-0.9c0.1,0,0.4,0.2,0.9,0.5c0.4,0.3,0.6,0.5,0.6,0.7c0,0.1-0.1,0.2-0.2,0.3C9.1,37.6,9,37.7,9,37.8v2
	c0,0.8,0.1,1.3,0.1,1.5c0,0.4-0.3,0.5-0.8,0.5c-0.4,0-0.7-0.1-0.7-0.3v-0.3H5.7v0.4c-0.1,0.3-0.4,0.5-0.9,0.5c-0.3,0-0.5,0-0.6-0.2
	c0-0.9,0-1.8,0.1-2.6v-1.7c0-0.7-0.1-1.2-0.1-1.3L5.4,36.8z M7.4,40.6v-3.2H5.5v3.2H7.4z"/>
<path class="st0" d="M23,30.8h2.4c0.5-0.5,0.9-0.8,1.1-0.8c0.1,0,0.4,0.2,1,0.7c0.5,0.5,0.8,0.8,0.8,0.9c0,0.1-0.1,0.2-0.3,0.3
	c-0.4,0.2-0.7,0.3-0.8,0.4c-0.5,1.3-1.4,2.9-2.5,4.6c1.8,1.4,2.7,3,2.8,4.8c0,1.8-0.8,2.9-2.2,3.1c-0.2,0-0.3-0.1-0.3-0.4
	c-0.1-0.4-0.3-0.8-0.5-1s-0.4-0.3-0.7-0.4c0,0,0.1-0.1,0.1-0.3c0.3,0.1,0.6,0.1,1,0.1c0.7,0,1-0.5,1-1.4c0-2-0.5-3.5-1.5-4.5
	c0.6-1.4,1.1-3.3,1.4-5.6h-2.2v16.8c-0.1,0.4-0.4,0.5-1,0.5c-0.4,0-0.6-0.1-0.7-0.2c0-2.9,0-5.7,0.1-8.4v-5.5c0-2.4-0.1-3.8-0.1-4.2
	L23,30.8z M32.1,43.7c0,0.2-0.1,0.3-0.4,0.3c-0.3,0-0.5,0-0.8,0c-1.1,1.2-2.5,2.3-4.1,3.4c-0.1,0-0.1-0.1-0.2-0.3
	c1.6-1.7,2.5-3.4,3-5.1C31.3,42.9,32.1,43.5,32.1,43.7z M31.6,30.4c-0.1,0.2-0.4,0.3-1,0.4c-0.1,0.3-0.1,0.6-0.2,0.8h1.4
	c0.5-0.6,0.8-0.9,0.9-0.9c0.2,0,0.5,0.2,0.9,0.5c0.5,0.4,0.8,0.6,0.8,0.7c0,0.1-0.1,0.3-0.4,0.4c-0.3,0.1-0.4,0.2-0.4,0.4
	c-0.5,2.1-1.4,3.8-2.6,5c-1,1.1-2,1.9-3.1,2.3c-0.1,0-0.1-0.1-0.1-0.1c1.1-1,2-2.1,2.7-3.3c0.8-1.5,1.3-3,1.5-4.4h-1.7
	c-0.1,0.3-0.2,0.5-0.3,0.7c0.8,0.6,1.3,1.1,1.3,1.7c0,0.7-0.3,1-0.8,1c-0.4,0-0.5-0.2-0.5-0.6c0-0.1,0-0.1,0-0.2c0-0.1,0-0.3,0-0.4
	c0-0.3-0.1-0.7-0.2-0.9c-0.3,0.5-0.6,1-0.9,1.4c0.7,0.5,1,1.1,1,1.7c0,0.7-0.3,1-0.8,1c-0.4,0-0.6-0.2-0.6-0.6c0-0.1,0-0.1,0-0.2
	c0-0.1,0-0.3,0-0.4c0-0.3,0-0.6-0.1-0.9C28,36,27.5,36.4,27,36.7c-0.1-0.1-0.1-0.1-0.2-0.2c1.3-1.9,2.1-4.1,2.4-6.8
	C30.8,29.9,31.6,30.2,31.6,30.4z M38.5,39.7c0.8,0.7,1.2,1.1,1.2,1.3c0,0.2-0.1,0.3-0.2,0.3h-4.9v5c0,1.3-0.7,2-2,2.2
	c-0.1,0-0.2-0.2-0.3-0.5c-0.1-0.5-0.4-0.8-0.9-0.9c-0.4-0.2-0.8-0.4-1.1-0.5c0-0.1,0-0.2,0-0.3c0.4,0,1.1,0.1,2,0.2
	c0.4,0,0.6-0.1,0.6-0.5v-4.7h-1.7c-1.5,0-2.5,0.1-2.8,0.2c-0.1-0.4-0.3-0.7-0.5-1.1c0.6,0.1,1.6,0.2,3,0.2h5.8
	c0.6-0.7,1-1.2,1.3-1.3c0,0,0.1,0,0.2,0C38.2,39.5,38.3,39.6,38.5,39.7z M35.3,36.9c0.7,0.6,1.1,1,1.2,1.2c0,0.2-0.1,0.3-0.1,0.3
	h-2.9c-0.9,0-1.5,0.1-2,0.2c-0.1-0.2-0.2-0.5-0.3-0.8c0.4,0.1,1.2,0.1,2.3,0.1H34c0.3-0.4,0.5-0.7,0.8-1c0.1-0.1,0.2-0.1,0.2-0.1
	C35,36.7,35.1,36.8,35.3,36.9z M39.3,30.7c0.5,0.5,0.8,0.8,0.8,0.8c0,0.2-0.2,0.3-0.6,0.4c-0.4,0-0.6,0.1-0.8,0.1
	c-0.6,1.1-1.3,2.1-2,3c0.1,0.1,0.1,0.2,0.2,0.3c0.9,1.2,2,1.8,3.2,1.9c0,0.2,0,0.3-0.1,0.4c-0.1,0-0.3,0.1-0.5,0.4
	c-0.1,0.1-0.3,0.4-0.4,0.8c-0.1,0.3-0.2,0.4-0.4,0.4c-0.5,0-1.3-0.9-2.4-2.7c-1-1.6-1.8-3.7-2.3-6.5l0.3-0.2
	c0.7,2.1,1.4,3.7,2.1,4.8c0.4-1.2,0.6-2.2,0.8-3.2h-0.9c-0.3,0-0.6,0.1-0.8,0.2c-0.1-0.3-0.2-0.6-0.4-0.9c0.3,0.1,0.7,0.2,1.1,0.2
	H37c0.5-0.5,0.9-0.8,1.2-0.9C38.3,30,38.6,30.2,39.3,30.7z M39.7,45.7c0,0.6-0.2,1-0.5,1.2c-0.1,0.1-0.4,0.2-0.6,0.2
	c-0.3,0-0.6-0.4-0.9-1.2c-0.6-1.5-1.3-2.6-2.1-3.4c0,0,0.1-0.1,0.3-0.2C38.4,43.5,39.7,44.7,39.7,45.7z"/>
<path class="st0" d="M46,30.8h10.6c0.6-0.8,1-1.2,1.2-1.2c0.3,0,0.6,0.3,1.1,0.7s0.8,0.7,0.8,0.9c0,0.1-0.1,0.2-0.2,0.3
	c-0.2,0.2-0.4,0.3-0.7,0.5c0,3.4,0,6.4-0.1,8.9c0.1,2.9,0.5,4.3,1.1,4.3c0.2,0,0.6-0.9,1-2.6c0.1,0,0.2,0.1,0.2,0.1
	c-0.3,1.6-0.4,2.7-0.4,3.5c0,0.3,0,0.5,0.1,0.7c0.1,0.4,0.2,0.8,0.2,0.9c0,0.3-0.1,0.4-0.4,0.5c-1.3,0-2.4-1.4-3.3-4.3
	c-0.3-1.3-0.5-5.5-0.5-12.7h-11v4.4c0,2.7-0.1,4.7-0.3,6.1c-0.1,1.1-0.4,2.2-0.9,3.4c-0.7,1.6-1.3,2.6-1.9,3.2
	c-0.1,0-0.2-0.1-0.3-0.2c0.5-1.3,0.9-2.8,1.2-4.7c0.3-1.5,0.4-4.1,0.4-7.6c0-2.3,0-3.8,0-4.3c0-0.5,0-1-0.1-1.6L46,30.8z M55,32.7
	c0.7,0.6,1.1,1,1.2,1.2c0,0.2-0.1,0.3-0.2,0.3h-4v2.6h1.4c0.5-0.6,0.8-1,1-1c0.2,0,0.5,0.2,1,0.5c0.4,0.3,0.7,0.6,0.7,0.7
	c0,0.1-0.1,0.2-0.3,0.3c-0.3,0.2-0.4,0.3-0.5,0.4v2.5c0.1,1,0.1,1.6,0.1,1.9c0,0.4-0.3,0.6-0.9,0.6c-0.5,0-0.7-0.1-0.7-0.3v-0.7H52
	v3.4c1,0,1.8-0.1,2.5-0.2c-0.3-0.6-0.7-1.2-1.2-1.6c0,0,0.1-0.1,0.2-0.2c2.1,1,3.2,2.1,3.2,3c0,0.4-0.1,0.6-0.3,0.8
	c-0.1,0.1-0.3,0.2-0.5,0.2c-0.5,0-0.9-0.5-1.1-1.4c0-0.1-0.1-0.3-0.1-0.4c-1.6,0.5-4,1.1-7.2,1.7c-0.1,0.6-0.3,0.9-0.4,0.9
	c-0.1,0-0.3-0.3-0.5-0.8c-0.2-0.5-0.4-1.2-0.6-2.1c0.4,0.1,1,0.1,1.9,0.1c0.8,0,1.6,0,2.3-0.1v-3.4h-1.6v0.8c-0.1,0.4-0.4,0.5-1,0.5
	c-0.4,0-0.6,0-0.7-0.2c0-1.1,0-2.1,0.1-3.1v-2.1c0-0.9-0.1-1.4-0.1-1.6l1.6,0.6h1.7v-2.6h-1.6c-0.9,0-1.5,0.1-2,0.2
	c-0.1-0.3-0.2-0.5-0.3-0.8c0.4,0.1,1.2,0.1,2.3,0.1h4.9c0.3-0.4,0.5-0.7,0.8-1c0.1-0.1,0.2-0.1,0.2-0.1C54.7,32.5,54.8,32.5,55,32.7
	z M50.3,41.2v-3.9h-1.6v3.9H50.3z M52,41.2h1.6v-3.9H52V41.2z"/>
<path class="st0" d="M64.6,34.8c-0.4,0-0.8,0-1.2,0.1c-0.2-0.3-0.4-0.7-0.5-1c0.4,0.2,0.8,0.3,1.3,0.3h2.2v-3c0-0.6-0.1-1.2-0.2-1.9
	c0.7,0.1,1.3,0.2,2.1,0.3c0.5,0.1,0.8,0.2,0.8,0.4c0,0.1-0.1,0.2-0.4,0.3c-0.4,0.1-0.5,0.2-0.5,0.3v3.5h0.3c0.6-0.8,1-1.2,1.1-1.3
	h0.1c0.1,0,0.5,0.4,1.1,1c0.3,0.3,0.4,0.5,0.4,0.6c0,0.2-0.1,0.3-0.3,0.3h-2.7v1.5c1.6,0.8,2.5,1.5,2.5,2.2c0,0.5-0.1,0.8-0.3,0.9
	c-0.1,0.2-0.4,0.3-0.7,0.3c-0.4,0-0.6-0.3-0.7-0.9c-0.2-0.8-0.5-1.4-0.9-1.9v6.6c0,2.2,0,3.7,0.1,4.7c0,0.3-0.4,0.5-1.3,0.5
	c-0.4,0-0.7-0.1-0.7-0.4c0-0.8,0.1-2.4,0.1-4.8v-4.7c-0.9,2.1-2,3.8-3.2,4.9c-0.1,0-0.2-0.1-0.3-0.2c1.6-2.5,2.6-5.4,3.1-8.6H64.6z
	 M76.2,30.4c0,0.3-0.4,0.4-1.1,0.5c-0.2,0.4-0.4,0.8-0.5,1.2h3c0.6-0.7,1-1.1,1.1-1.1c0.2,0,0.6,0.3,1.2,0.7c0.5,0.5,0.8,0.8,0.8,1
	c0,0.3-0.4,0.4-1.1,0.5c-0.9,1.8-1.7,3.2-2.6,4.2c0.1,0.1,0.2,0.1,0.3,0.2c1.4,0.9,3.1,1.3,4.9,1.4c0,0.2,0,0.3-0.1,0.4
	c-0.1,0-0.3,0.1-0.5,0.4c-0.1,0.1-0.3,0.4-0.4,0.8C81.1,40.9,81,41,80.8,41c-0.8,0-2.2-0.7-4.1-2.2c-0.2-0.2-0.4-0.3-0.6-0.5
	c-1.6,1.4-3.9,2.5-6.9,3.3c-0.1-0.1-0.2-0.2-0.2-0.3c2.7-1.2,4.7-2.5,6-4.1c-0.8-0.8-1.4-1.8-1.9-2.9c-0.8,1.1-1.7,2-2.7,2.7
	c-0.1-0.1-0.3-0.2-0.4-0.2c1.6-2,2.7-4.5,3.3-7.5C75.2,30,76.2,30.3,76.2,30.4z M73.4,41.9h4.3c0.5-0.6,0.9-1,1.1-1
	c0.2,0,0.5,0.2,1.1,0.6c0.5,0.4,0.8,0.7,0.8,0.8c0,0.1-0.1,0.3-0.3,0.4c-0.3,0.3-0.5,0.4-0.6,0.5v2.6c0.1,1,0.1,1.7,0.1,2
	c0,0.5-0.4,0.7-1.1,0.7c-0.5,0-0.8-0.1-0.8-0.4v-1h-4.6v0.8c-0.1,0.4-0.5,0.6-1.2,0.6c-0.4,0-0.7-0.1-0.8-0.2c0-1.2,0-2.3,0.1-3.4
	v-2.2c0-0.9-0.1-1.5-0.2-1.7L73.4,41.9z M77.6,32.6h-3.3c-0.3,0.5-0.5,0.9-0.8,1.3c0.7,1.1,1.5,1.9,2.2,2.6
	C76.6,35.3,77.2,34.1,77.6,32.6z M78,46.6v-4.2h-4.6v4.2H78z"/>
<path class="st0" d="M101.9,44c0.4,0.2,0.7,0.3,0.7,0.4c0,0.1-0.1,0.2-0.3,0.3c-0.4,0.1-0.6,0.2-0.7,0.2c-0.6,1.6-1.7,2.8-3.5,3.8
	l-0.3-0.1c1.2-1.4,1.9-3.1,2.1-5.2C100.9,43.6,101.5,43.8,101.9,44z M100.5,31.1h3c0.6-0.7,1-1,1.2-1c0.2,0,0.5,0.2,0.9,0.5
	c0.6,0.4,0.9,0.7,0.9,0.9c0,0.1-0.1,0.3-0.3,0.4c-0.3,0.3-0.5,0.4-0.6,0.5v6.1c0,2.1,0.1,3.5,0.1,4.2c0,0.4-0.5,0.7-1.4,0.7
	c-0.4,0-0.6-0.1-0.6-0.4v-0.7h-2.9v0.4c-0.1,0.4-0.5,0.6-1.2,0.6c-0.4,0-0.7-0.1-0.8-0.2c0-2,0-3.9,0.1-5.8v-3.8
	c0-1.6-0.1-2.6-0.1-2.9L100.5,31.1z M103.7,31.6h-2.9v2.8h2.9V31.6z M103.7,35h-2.9v3h2.9V35z M103.7,41.6v-3.1h-2.9v3.1H103.7z
	 M106.1,47c0,0.5-0.1,0.9-0.4,1c-0.2,0.2-0.4,0.3-0.7,0.3c-0.4,0-0.7-0.5-0.8-1.6c-0.2-1.2-0.6-2.2-1.1-2.9c0-0.1,0.1-0.1,0.3-0.3
	C105.2,44.8,106.1,45.9,106.1,47z M112.8,30.2c0,0.2-0.1,0.3-0.4,0.3c-0.4,0.2-0.6,0.3-0.6,0.4v3.6h2c0.6-0.8,1-1.3,1.2-1.5h0.1
	c0.2,0,0.5,0.3,0.9,0.7c0.6,0.5,0.9,0.9,0.9,1.1s0,0.3-0.1,0.4h-5.1v5h1.6c0.5-0.7,0.9-1,1.1-1.1c0.2,0,0.6,0.2,1.1,0.6
	c0.5,0.4,0.8,0.7,0.8,0.8s-0.1,0.3-0.4,0.4c-0.4,0.2-0.6,0.4-0.7,0.5v3.7c0.1,1.4,0.1,2.3,0.1,2.7c0,0.5-0.4,0.7-1.1,0.7
	c-0.5,0-0.8-0.1-0.9-0.4v-1.3h-4.9V48c-0.1,0.4-0.5,0.6-1.2,0.6c-0.4,0-0.7-0.1-0.8-0.2c0-1.4,0-2.8,0.1-4.2v-2.7
	c0-1.2-0.1-1.8-0.1-2.1l2,0.8h1.4v-8.5c0-0.9,0-1.7-0.1-2.2C111.8,29.7,112.8,29.9,112.8,30.2z M113.6,40.7h-4.9v5.6h4.9V40.7z"/>
<path class="st0" d="M122.5,36.9c0.1,0.7,0.2,1.3,0.3,2.1c0,3.3-0.9,5-2.8,5.1c-0.8,0-1.2-0.3-1.2-0.8c0-0.3,0-0.6,0.1-0.7
	c0.1-0.2,0.5-0.7,1.4-1.4c1-0.9,1.6-2.3,1.8-4.2C122.3,36.9,122.4,36.9,122.5,36.9z M128,34.7c0,0.3-0.4,0.5-1.2,0.8v9.4
	c0,0.7,0.4,1,1.1,1.1h2.9c0.8,0,1.4-0.4,1.7-1.1c0.2-0.5,0.5-1.6,0.8-3.3c0.3,0,0.4,0,0.4,0v3.2c0,0.3,0.2,0.5,0.6,0.6
	c0.4,0.3,0.7,0.5,0.7,0.8c0,0.7-0.7,1.2-2,1.4c-0.9,0.1-1.8,0.2-2.7,0.2c-1.9,0-3.1,0-3.6-0.1c-1.2-0.1-1.8-1.1-1.8-3.1v-8.3
	c0-1.1-0.1-1.9-0.2-2.3C126.8,34.2,128,34.5,128,34.7z M131.7,32.6c0,0.6-0.1,1-0.3,1.3c-0.2,0.2-0.4,0.3-0.7,0.3
	c-0.5,0-1-0.5-1.5-1.5c-0.8-1.1-1.8-2.2-3.3-3.1c0-0.1,0.1-0.2,0.1-0.3C129.7,30.3,131.6,31.4,131.7,32.6z M138,41.6
	c0,0.6-0.1,1-0.3,1.3s-0.5,0.4-0.9,0.4c-0.6,0-0.9-0.6-1.1-1.8c-0.5-2.2-1.2-3.8-2.2-5l0.3-0.2C136.5,38.3,138,40,138,41.6z"/>
<path class="st0" d="M143.9,30.7h11.4c0.4-0.5,0.8-0.9,1-1c0.2,0,0.5,0.2,1.1,0.5c0.6,0.4,0.9,0.7,0.9,0.9c0,0.1-0.1,0.3-0.4,0.4
	c-0.3,0.2-0.4,0.3-0.5,0.4V46c0,1.4-0.8,2.2-2.4,2.5c-0.2,0-0.3-0.1-0.4-0.4c-0.2-0.5-0.6-1-1.1-1.2c-0.8-0.3-1.3-0.5-1.6-0.5
	c0,0,0-0.1,0-0.4c0.8,0.1,1.8,0.1,3,0.1c0.3,0,0.5-0.2,0.5-0.5V31.1H144V35c0,3.5-0.1,5.9-0.4,7.1c-0.1,0.9-0.4,1.8-0.8,2.8
	c-0.7,1.5-1.6,2.6-2.6,3.3c-0.2,0-0.3-0.1-0.3-0.2c1.5-2.1,2.2-5.8,2.2-11.3v-4.6c0-0.9-0.1-1.7-0.1-2.4L143.9,30.7z M153.4,33.4
	c0.7,0.6,1.1,1,1.2,1.2c0,0.2-0.1,0.3-0.2,0.3h-4v2.4h2c0.3-0.4,0.6-0.8,0.9-1.1c0.1-0.1,0.2-0.2,0.2-0.2c0.1,0,0.2,0.1,0.4,0.2
	c0.7,0.7,1.2,1.1,1.3,1.3c0,0.2-0.1,0.3-0.2,0.3h-4.6v1.3c0,0.4-0.4,0.5-1.2,0.6c-0.5,0-0.7-0.1-0.7-0.3c0-0.5,0-1,0-1.6h-1.8
	c-0.9,0-1.5,0.1-2,0.2c-0.1-0.3-0.2-0.5-0.3-0.8c0.4,0.1,1.2,0.1,2.3,0.1h1.8c0-0.8,0-1.6,0-2.4h-1.4c-0.9,0-1.5,0.1-2,0.2
	c-0.1-0.2-0.2-0.5-0.3-0.8c0.4,0.1,1.2,0.1,2.3,0.1h1.4V33c-0.1-0.5-0.1-0.9-0.1-1.2c1.7,0.2,2.6,0.4,2.8,0.7c0,0.2-0.1,0.3-0.4,0.4
	c-0.4,0.2-0.5,0.3-0.5,0.4v1.1h1.6c0.3-0.4,0.5-0.7,0.8-1c0.1-0.1,0.2-0.1,0.2-0.1C153.1,33.2,153.2,33.2,153.4,33.4z M147.5,40.3
	h3.6c0.5-0.6,0.8-0.9,1-0.9c0.2,0,0.5,0.2,1,0.6c0.5,0.4,0.7,0.6,0.7,0.8c0,0.1-0.1,0.2-0.3,0.4c-0.3,0.2-0.4,0.4-0.5,0.4v1.9
	c0.1,0.7,0.1,1.2,0.1,1.4c0,0.4-0.3,0.7-1,0.7c-0.5,0-0.8-0.1-0.8-0.4v-0.4h-3.7v0.6c-0.1,0.4-0.4,0.6-1.1,0.6
	c-0.4,0-0.6-0.1-0.7-0.2c0-0.9,0-1.9,0.1-2.8v-1.8c0-0.8-0.1-1.2-0.1-1.4L147.5,40.3z M151.4,44.2v-3.3h-3.7v3.3H151.4z"/>
<path class="st0" d="M171,29.7c0.9,0.8,1.4,1.3,1.6,1.6c0,0.2-0.1,0.3-0.2,0.3h-4.7c-0.7,1.7-1.7,3.1-2.9,4.4c2.3,0,4.1-0.1,5.4-0.1
	c-0.4-0.7-1-1.3-1.6-1.9c0-0.1,0.1-0.2,0.1-0.3c2.4,0.8,3.7,1.8,3.7,2.9c0,0.5-0.1,0.9-0.3,1.1c-0.2,0.2-0.4,0.3-0.6,0.3
	c-0.3,0-0.6-0.4-0.9-1.3c0-0.1-0.1-0.2-0.1-0.3c-0.8,0.2-1.7,0.5-2.8,0.7v3.7h1.5c0.3-0.5,0.7-0.9,1-1.3c0.1-0.1,0.2-0.2,0.3-0.2
	s0.2,0.1,0.4,0.2c0.9,0.8,1.3,1.2,1.4,1.5c0,0.2-0.1,0.3-0.2,0.3h-4.5v3.9c2-0.2,3.6-0.4,4.8-0.7c0.1,0.1,0.1,0.3,0.2,0.4
	c-1.9,0.9-5.1,1.8-9.7,2.7c-0.1,0.7-0.3,1-0.4,1c-0.2,0-0.3-0.3-0.5-1c-0.2-0.6-0.5-1.4-0.7-2.3c0.5,0.1,1.2,0.1,2.2,0.1
	c0.8,0,1.6-0.1,2.3-0.1v-4.1h-1.5c-0.9,0-1.5,0.1-2,0.2c-0.1-0.3-0.2-0.5-0.3-0.8c0.4,0.1,1.2,0.1,2.3,0.1h1.5v-3.4
	c-0.9,0.2-1.9,0.3-2.9,0.5c-0.1,0.6-0.3,0.9-0.4,0.9s-0.3-0.3-0.5-0.8s-0.4-1.2-0.6-2c0.4,0.1,1,0.1,1.9,0.1h0.7
	c0.7-1.3,1.1-2.8,1.4-4.4h-1.8c-0.9,0-1.5,0.1-2,0.2c-0.1-0.3-0.2-0.5-0.3-0.8c0.4,0.1,1.2,0.1,2.3,0.1h5.6c0.4-0.5,0.7-1,1.1-1.4
	c0.1-0.1,0.2-0.2,0.3-0.2C170.6,29.5,170.8,29.6,171,29.7z M175.1,31.8c0.5,0.1,0.8,0.3,0.8,0.4c0,0.1-0.1,0.2-0.4,0.3
	c-0.4,0.1-0.6,0.2-0.6,0.3v6.6c0,2.2,0.1,3.8,0.1,4.7c0,0.3-0.4,0.5-1.3,0.5c-0.4,0-0.7-0.1-0.7-0.4c0-0.8,0-2.4,0.1-4.9v-5.9
	c0-0.6-0.1-1.3-0.2-1.9C173.7,31.6,174.3,31.7,175.1,31.8z M179.9,30.2c0,0.1-0.1,0.2-0.2,0.2c-0.2,0.1-0.3,0.1-0.5,0.3
	c-0.2,0.1-0.3,0.2-0.3,0.3v14.8c0,1.8-0.7,2.6-2.2,2.6c-0.3,0-0.4-0.1-0.4-0.4c-0.1-0.4-0.4-0.7-0.8-1c-0.3-0.2-0.8-0.4-1.5-0.5
	c0-0.1,0-0.2,0-0.3c0.4,0,1.3,0,2.6,0c0.2,0,0.4-0.2,0.4-0.6V32c0-1.2-0.1-2.1-0.2-2.7C178.7,29.7,179.7,30,179.9,30.2z"/>
</svg>
