<?xml version="1.0" encoding="utf-8"?>
<!-- Generator: Adobe Illustrator 25.2.3, SVG Export Plug-In . SVG Version: 6.00 Build 0)  -->
<svg version="1.1" id="圖層_1" xmlns="http://www.w3.org/2000/svg" xmlns:xlink="http://www.w3.org/1999/xlink" x="0px" y="0px"
	 viewBox="0 0 380 82" style="enable-background:new 0 0 380 82;" xml:space="preserve">
<style type="text/css">
	.st0{fill:#D3B380;}
	.st1{opacity:0.6;}
	.st2{fill:#FFFFFF;}
</style>
<path class="st0" d="M29.8,27.1c-0.1,0.3-0.7,1.3-1.8,2.4c-2,2-5.5,4.3-11.4,4.3C6.7,33.8,0.9,26.3,0.9,17c0-9.4,5.8-17,15.7-17
	C26,0,29.5,6.2,29.9,6.8l-1.1,1.1C18.6-4.3,6.5,3.9,6.5,17c0,10.9,9.9,19.4,19.3,11.9V17.7h4V27.1z"/>
<path class="st0" d="M64.3,16.9c0,11.8-7,16.9-15.7,16.9C40,33.8,33,28.6,33,16.9C33,5.5,40,0,48.6,0C57.3,0,64.3,5.4,64.3,16.9z
	 M59,16.9C59,6.4,54.3,1.5,48.6,1.5S38.3,6.6,38.3,16.9c0,10.7,4.7,15.4,10.3,15.4C54.3,32.3,59,27.6,59,16.9z"/>
<path class="st0" d="M98.7,16.9c0,11.8-7,16.9-15.7,16.9s-15.7-5.1-15.7-16.9C67.4,5.5,74.4,0,83.1,0C91.7,0,98.7,5.4,98.7,16.9z
	 M93.4,16.9c0-10.4-4.6-15.4-10.3-15.4c-5.7,0-10.3,5.1-10.3,15.4c0,10.7,4.7,15.4,10.3,15.4C88.8,32.3,93.4,27.6,93.4,16.9z"/>
<path class="st0" d="M132.5,17c0,17-17.5,16.2-17.9,16.2h-10.3v-28c0-2-1.5-4-3.9-4.3V0.7h14.3C115,0.8,132.5-0.3,132.5,17z
	 M127.1,17c0-14.6-10.4-14.6-12.5-14.6h-5.5v29.2h5.5C116.2,31.5,127.2,31.5,127.1,17z"/>
<path class="st0" d="M171.9,31.2v2H151v-28c0-1.9-1.2-3.5-3.9-4.3V0.7h8.3v30.5H171.9z"/>
<path class="st0" d="M181.3,0.7v32.5h-4.4v-28c0-1.9-1.2-3.5-3.9-4.3V0.7H181.3z"/>
<path class="st0" d="M193.1,2.4v12.9h13v2h-13v15.9h-4.9v-28c0-1.9-1.2-3.5-3.9-4.3V0.7h24.4v1.7H193.1z"/>
<path class="st0" d="M236.2,31.5v1.7h-20.5v-28c0-1.9-1.2-3.5-3.9-4.3V0.7h24.4v1.7h-15.6v12.9h13v2h-13v14.2H236.2z"/>
<path class="st0" d="M29.8,74.3c-0.1,0.3-0.7,1.3-1.8,2.4c-2,2-5.5,4.3-11.4,4.3C6.7,81,0.9,73.5,0.9,64.1c0-9.3,5.8-16.9,15.7-16.9
	c9.4,0,12.9,6.2,13.3,6.8l-1.1,1.1c-10.2-12.2-22.3-4-22.3,9C6.5,75,16.4,83.5,25.8,76V64.9h4V74.3z"/>
<path class="st0" d="M64.3,64.1c0,11.8-7,16.9-15.7,16.9C40,81,33,75.9,33,64.1c0-11.4,7-16.9,15.7-16.9
	C57.3,47.3,64.3,52.7,64.3,64.1z M59,64.1c0-10.4-4.6-15.4-10.3-15.4s-10.3,5.1-10.3,15.4c0,10.7,4.7,15.4,10.3,15.4
	S59,74.9,59,64.1z"/>
<path class="st0" d="M98.7,64.1c0,11.8-7,16.9-15.7,16.9s-15.7-5.1-15.7-16.9c0-11.4,7-16.9,15.7-16.9
	C91.7,47.3,98.7,52.7,98.7,64.1z M93.4,64.1c0-10.4-4.6-15.4-10.3-15.4c-5.7,0-10.3,5.1-10.3,15.4c0,10.7,4.7,15.4,10.3,15.4
	C88.8,79.5,93.4,74.9,93.4,64.1z"/>
<path class="st0" d="M132.5,64.2c0,17-17.5,16.2-17.9,16.2h-10.3v-28c0-2-1.5-4-3.9-4.3V48h14.3C115,48,132.5,46.9,132.5,64.2z
	 M127.1,64.2c0-14.6-10.4-14.6-12.5-14.6h-5.5v29.2h5.5C116.2,78.8,127.2,78.7,127.1,64.2z"/>
<path class="st0" d="M173.5,50h-10.7v30.5h-4.9V50h-10.8v-2h26.4V50z"/>
<path class="st0" d="M185,48v32.5h-4.4v-28c0-1.9-1.2-3.5-3.9-4.3V48H185z"/>
<path class="st0" d="M225.7,80.4h-0.2h-4.7l-3.9-22.3l-12.1,22.3l-11-20.8l-2.4,20.8h-2l2.3-20.1c0.3-2.8,1.4-10.2-3.5-11.4v-0.2
	c6.3,0.2,8.4,5.9,10.1,9l8.1,15.5L220.1,48L225.7,80.4z"/>
<path class="st0" d="M251.3,78.8v1.7h-20.5v-28c0-1.9-1.2-3.5-3.9-4.3V48h24.4v1.7h-15.6v12.9h13v2h-13v14.2H251.3z"/>
<path class="st0" d="M274.8,72.1c0,3.4-2.5,9-10.2,9c-6.1,0-10-2.6-10.9-9.3h1.5c1,6.1,6,7.4,9,7.4c5.2,0,6.4-3.6,6.4-5.2
	c0-3.4-2.8-5.3-8.1-8c-3.4-1.7-9.1-4.6-9.1-10.1c0-7.1,7-8.5,9.5-8.5c6.2,0,8.8,3.3,9.7,7.9H271c-0.7-2.4-2.4-6.1-8-6.1
	c-2.8,0-5.7,2.2-5.7,5c0,3.3,3.9,5.4,8,7.5C273,65.5,274.8,68.3,274.8,72.1z"/>
<g class="st1">
	<path class="st2" d="M259.7,10.1c0,0.5-0.2,0.9-0.7,1.2c-0.4,0.2-0.8,0.3-1.4,0.3c-0.1,0-0.4,0-0.9,0V6.3h0.9
		c0.5,0,0.9,0.1,1.2,0.2c0.4,0.2,0.6,0.5,0.6,0.9c0,0.3-0.1,0.5-0.3,0.7c-0.2,0.2-0.4,0.4-0.7,0.5c0.4,0.1,0.7,0.2,0.9,0.4
		C259.6,9.4,259.7,9.7,259.7,10.1z M259.2,10.1c0-0.4-0.1-0.7-0.4-0.9c-0.2-0.2-0.5-0.3-0.9-0.3h-0.3V8.7h0.2c0.4,0,0.6-0.1,0.8-0.4
		c0.1-0.2,0.2-0.5,0.2-0.7c0-0.7-0.5-1.1-1.4-1.1h-0.3v4.9h0.3C258.6,11.4,259.2,10.9,259.2,10.1z"/>
	<path class="st2" d="M263.5,9.5h-2V9.3h1.5c0-0.6-0.3-0.9-0.8-0.9c-0.3,0-0.6,0.1-0.8,0.4c-0.2,0.3-0.3,0.6-0.3,1.1
		c0,0.5,0.1,0.8,0.3,1.1c0.2,0.3,0.5,0.4,0.8,0.4c0.4,0,0.7-0.2,1-0.5l0.2,0.2c-0.3,0.3-0.7,0.5-1.1,0.5c-0.5,0-0.8-0.2-1.2-0.5
		c-0.3-0.3-0.5-0.7-0.5-1.2c0-0.5,0.2-0.9,0.5-1.2c0.3-0.3,0.7-0.5,1.1-0.5c0.3,0,0.6,0.1,0.9,0.4C263.4,8.8,263.5,9.1,263.5,9.5z"
		/>
	<path class="st2" d="M266.7,9.4v2.1h-0.5v-0.3c-0.2,0.2-0.5,0.3-0.8,0.3c-0.3,0-0.6-0.1-0.8-0.3c-0.2-0.2-0.4-0.4-0.4-0.8
		c0-0.3,0.1-0.6,0.4-0.8c0.2-0.2,0.5-0.3,0.7-0.3c0.1,0,0.2,0,0.2,0c0.2,0,0.3,0.1,0.4,0.1l-0.1,0.2c-0.2-0.1-0.3-0.2-0.5-0.2
		c-0.2,0-0.4,0.1-0.5,0.2c-0.1,0.2-0.2,0.4-0.2,0.7c0,0.3,0.1,0.5,0.2,0.6c0.1,0.2,0.3,0.2,0.5,0.2c0.3,0,0.6-0.2,0.8-0.5V9.4
		c0-0.7-0.2-1-0.7-1c-0.3,0-0.5,0.1-0.8,0.3l-0.1-0.2c0.2-0.2,0.5-0.2,0.9-0.2C266.3,8.2,266.7,8.6,266.7,9.4z"/>
	<path class="st2" d="M270.4,11.5H270V11c-0.2,0.4-0.6,0.6-1,0.6c-0.8,0-1.2-0.4-1.2-1.2V8.3h0.5v2.2c0,0.7,0.2,1,0.7,1
		c0.3,0,0.5-0.2,0.7-0.5c0.1-0.2,0.2-0.4,0.2-0.6V8.3h0.5V11.5z"/>
	<path class="st2" d="M272.8,8.4h-0.6v2c0,0.3,0,0.6,0.1,0.7c0.1,0.1,0.2,0.2,0.5,0.2v0.2c-0.7,0-1.1-0.4-1.1-1.1v-2h-0.3V8.3h0.3
		V7.9h0.5v0.4h0.6V8.4z"/>
	<path class="st2" d="M276.6,8.2l-1.8,4.5h-0.2l0.5-1.3l-1.4-3.2h0.5l1.1,2.6l1-2.6H276.6z"/>
	<path class="st2" d="M279.4,11.5h-0.5v-5h0.5V11.5z"/>
	<path class="st2" d="M281.1,6.8c0,0.1,0,0.2-0.1,0.2s-0.1,0.1-0.2,0.1c-0.1,0-0.2,0-0.2-0.1s-0.1-0.1-0.1-0.2c0-0.1,0-0.2,0.1-0.2
		c0.1-0.1,0.1-0.1,0.2-0.1c0.1,0,0.2,0,0.2,0.1C281.1,6.7,281.1,6.7,281.1,6.8z M281.1,11.5h-0.5V8.3h0.5V11.5z"/>
	<path class="st2" d="M285,9.5h-2V9.3h1.5c0-0.6-0.3-0.9-0.8-0.9c-0.3,0-0.6,0.1-0.8,0.4c-0.2,0.3-0.3,0.6-0.3,1.1
		c0,0.5,0.1,0.8,0.3,1.1c0.2,0.3,0.5,0.4,0.8,0.4c0.4,0,0.7-0.2,1-0.5l0.2,0.2c-0.3,0.3-0.7,0.5-1.1,0.5c-0.5,0-0.8-0.2-1.2-0.5
		c-0.3-0.3-0.5-0.7-0.5-1.2c0-0.5,0.2-0.9,0.5-1.2c0.3-0.3,0.7-0.5,1.1-0.5c0.3,0,0.6,0.1,0.9,0.4C284.8,8.8,285,9.1,285,9.5z"/>
	<path class="st2" d="M287.7,10.7c0,0.3-0.1,0.5-0.3,0.6c-0.2,0.2-0.4,0.2-0.7,0.2c-0.4,0-0.7-0.1-0.9-0.4l0.1-0.2
		c0.2,0.3,0.5,0.4,0.8,0.4c0.2,0,0.3-0.1,0.4-0.2c0.1-0.1,0.2-0.3,0.2-0.4c0-0.2-0.1-0.4-0.3-0.5c-0.1-0.1-0.3-0.2-0.6-0.4
		c-0.4-0.2-0.5-0.5-0.5-0.9c0-0.2,0.1-0.4,0.3-0.6c0.2-0.1,0.4-0.2,0.6-0.2c0.2,0,0.3,0,0.5,0.1c0.2,0.1,0.3,0.2,0.3,0.3l-0.2,0.2
		c-0.2-0.3-0.4-0.4-0.7-0.4c-0.3,0-0.5,0.1-0.6,0.4c0,0.2,0.1,0.4,0.3,0.6c0.4,0.2,0.6,0.4,0.7,0.5
		C287.6,10.1,287.7,10.4,287.7,10.7z"/>
	<path class="st2" d="M290.7,6.8c0,0.1,0,0.2-0.1,0.2s-0.1,0.1-0.2,0.1s-0.2,0-0.2-0.1s-0.1-0.1-0.1-0.2c0-0.1,0-0.2,0.1-0.2
		c0.1-0.1,0.1-0.1,0.2-0.1s0.2,0,0.2,0.1C290.7,6.7,290.7,6.7,290.7,6.8z M290.6,11.5h-0.5V8.3h0.5V11.5z"/>
	<path class="st2" d="M294.4,11.5h-0.5V9.4c0-0.7-0.2-1-0.7-1s-0.8,0.3-1,0.9v2.3h-0.5V8.3h0.5v0.4c0.3-0.4,0.6-0.5,1-0.5
		c0.4,0,0.7,0.1,0.8,0.2c0.2,0.2,0.3,0.5,0.3,0.9v2.2H294.4z"/>
	<path class="st2" d="M298.3,8.4h-0.6v2c0,0.3,0,0.6,0.1,0.7c0.1,0.1,0.2,0.2,0.5,0.2v0.2c-0.7,0-1.1-0.4-1.1-1.1v-2h-0.3V8.3h0.3
		V7.9h0.5v0.4h0.6V8.4z"/>
	<path class="st2" d="M301.8,11.5h-0.5V9.4c0-0.7-0.2-1-0.7-1s-0.8,0.3-1,0.9v2.3h-0.5v-5h0.5v2.2c0.3-0.4,0.6-0.5,1-0.5
		s0.7,0.1,0.8,0.2c0.2,0.2,0.3,0.5,0.3,0.9L301.8,11.5L301.8,11.5z"/>
	<path class="st2" d="M305.7,9.5h-2V9.3h1.5c0-0.6-0.3-0.9-0.8-0.9c-0.3,0-0.6,0.1-0.8,0.4c-0.2,0.3-0.3,0.6-0.3,1.1
		c0,0.5,0.1,0.8,0.3,1.1c0.2,0.3,0.5,0.4,0.8,0.4c0.4,0,0.7-0.2,1-0.5l0.2,0.2c-0.3,0.3-0.7,0.5-1.1,0.5c-0.5,0-0.8-0.2-1.2-0.5
		c-0.3-0.3-0.5-0.7-0.5-1.2c0-0.5,0.2-0.9,0.5-1.2c0.3-0.3,0.7-0.5,1.1-0.5c0.3,0,0.6,0.1,0.9,0.4C305.6,8.8,305.7,9.1,305.7,9.5z"
		/>
	<path class="st2" d="M310.7,11.1c-0.3,0.3-0.7,0.4-1.1,0.4c-0.5,0-0.8-0.2-1.2-0.5c-0.3-0.3-0.5-0.7-0.5-1.2c0-0.5,0.2-0.9,0.5-1.2
		c0.3-0.3,0.7-0.5,1.2-0.5c0.4,0,0.7,0.1,1,0.3l-0.1,0.2c-0.2-0.2-0.5-0.4-0.9-0.4c-0.3,0-0.6,0.2-0.8,0.5c-0.2,0.3-0.3,0.6-0.3,1
		c0,0.4,0.1,0.8,0.3,1c0.2,0.3,0.5,0.5,0.8,0.5c0.4,0,0.7-0.2,1-0.5L310.7,11.1z"/>
	<path class="st2" d="M314.5,9.9c0,0.5-0.2,0.9-0.5,1.2s-0.7,0.5-1.2,0.5s-0.8-0.2-1.2-0.5c-0.3-0.3-0.5-0.7-0.5-1.2
		c0-0.5,0.2-0.9,0.5-1.2c0.3-0.3,0.7-0.5,1.2-0.5s0.8,0.2,1.2,0.5S314.5,9.4,314.5,9.9z M314,9.9c0-0.4-0.1-0.8-0.3-1.1
		c-0.2-0.3-0.5-0.4-0.8-0.4c-0.3,0-0.6,0.1-0.8,0.4c-0.2,0.3-0.3,0.6-0.3,1.1c0,0.4,0.1,0.8,0.3,1.1c0.2,0.3,0.5,0.4,0.8,0.4
		c0.3,0,0.6-0.1,0.8-0.4C313.9,10.6,314,10.3,314,9.9z"/>
	<path class="st2" d="M319.9,11.5h-0.5V9.3c0-0.3,0-0.5-0.1-0.7c-0.1-0.1-0.2-0.2-0.5-0.2c-0.4,0-0.6,0.3-0.9,0.8v0.1v2.2h-0.5V9.3
		c0-0.3,0-0.5-0.1-0.7c-0.1-0.1-0.3-0.2-0.5-0.2c-0.2,0-0.3,0.1-0.5,0.2c-0.2,0.2-0.3,0.4-0.4,0.6v2.3h-0.5V8.3h0.5v0.4
		c0.3-0.3,0.6-0.5,0.9-0.5c0.5,0,0.8,0.2,1,0.5c0.3-0.4,0.6-0.5,1-0.5c0.7,0,1.1,0.4,1.1,1.1V11.5z"/>
	<path class="st2" d="M323.8,9.9c0,0.5-0.1,0.9-0.4,1.2c-0.3,0.3-0.6,0.5-1.1,0.5c-0.3,0-0.6-0.1-0.8-0.4v0.3H321v-5h0.5v4.2
		c0.1,0.2,0.2,0.4,0.3,0.5c0.1,0.1,0.3,0.2,0.5,0.2c0.3,0,0.5-0.1,0.7-0.4s0.3-0.6,0.3-1.1c0-0.4-0.1-0.8-0.3-1.1s-0.4-0.4-0.7-0.4
		c-0.2,0-0.3,0.1-0.4,0.2l-0.1-0.2c0.2-0.1,0.4-0.1,0.6-0.1c0.4,0,0.8,0.2,1.1,0.5C323.7,9,323.8,9.4,323.8,9.9z"/>
	<path class="st2" d="M325.5,6.8c0,0.1,0,0.2-0.1,0.2s-0.1,0.1-0.2,0.1c-0.1,0-0.2,0-0.2-0.1s-0.1-0.1-0.1-0.2c0-0.1,0-0.2,0.1-0.2
		c0.1-0.1,0.1-0.1,0.2-0.1c0.1,0,0.2,0,0.2,0.1S325.5,6.7,325.5,6.8z M325.4,11.5h-0.5V8.3h0.5V11.5z"/>
	<path class="st2" d="M329.1,11.5h-0.5V9.4c0-0.7-0.2-1-0.7-1s-0.8,0.3-1,0.9v2.3h-0.5V8.3h0.5v0.4c0.3-0.4,0.6-0.5,1-0.5
		s0.7,0.1,0.8,0.2c0.2,0.2,0.3,0.5,0.3,0.9v2.2H329.1z"/>
	<path class="st2" d="M332.6,9.4v2.1h-0.5v-0.3c-0.2,0.2-0.5,0.3-0.8,0.3c-0.3,0-0.6-0.1-0.8-0.3c-0.2-0.2-0.4-0.4-0.4-0.8
		c0-0.3,0.1-0.6,0.4-0.8c0.2-0.2,0.5-0.3,0.7-0.3c0.1,0,0.2,0,0.2,0c0.2,0,0.3,0.1,0.4,0.1l-0.1,0.2c-0.2-0.1-0.3-0.2-0.5-0.2
		c-0.2,0-0.4,0.1-0.5,0.2c-0.1,0.2-0.2,0.4-0.2,0.7c0,0.3,0.1,0.5,0.2,0.6c0.1,0.2,0.3,0.2,0.5,0.2c0.3,0,0.6-0.2,0.8-0.5V9.4
		c0-0.7-0.2-1-0.7-1c-0.3,0-0.5,0.1-0.8,0.3l-0.1-0.2c0.2-0.2,0.5-0.2,0.9-0.2C332.2,8.2,332.6,8.6,332.6,9.4z"/>
	<path class="st2" d="M334.9,8.4h-0.6v2c0,0.3,0,0.6,0.1,0.7c0.1,0.1,0.2,0.2,0.5,0.2v0.2c-0.7,0-1.1-0.4-1.1-1.1v-2h-0.3V8.3h0.3
		V7.9h0.5v0.4h0.6V8.4z"/>
	<path class="st2" d="M336.5,6.8c0,0.1,0,0.2-0.1,0.2s-0.1,0.1-0.2,0.1c-0.1,0-0.2,0-0.2-0.1s-0.1-0.1-0.1-0.2c0-0.1,0-0.2,0.1-0.2
		c0.1-0.1,0.1-0.1,0.2-0.1c0.1,0,0.2,0,0.2,0.1S336.5,6.7,336.5,6.8z M336.4,11.5h-0.5V8.3h0.5V11.5z"/>
	<path class="st2" d="M340.7,9.9c0,0.5-0.2,0.9-0.5,1.2c-0.3,0.3-0.7,0.5-1.2,0.5s-0.8-0.2-1.2-0.5c-0.3-0.3-0.5-0.7-0.5-1.2
		c0-0.5,0.2-0.9,0.5-1.2c0.3-0.3,0.7-0.5,1.2-0.5s0.8,0.2,1.2,0.5C340.6,9,340.7,9.4,340.7,9.9z M340.2,9.9c0-0.4-0.1-0.8-0.3-1.1
		c-0.2-0.3-0.5-0.4-0.8-0.4c-0.3,0-0.6,0.1-0.8,0.4c-0.2,0.3-0.3,0.6-0.3,1.1c0,0.4,0.1,0.8,0.3,1.1c0.2,0.3,0.5,0.4,0.8,0.4
		c0.3,0,0.6-0.1,0.8-0.4C340.1,10.6,340.2,10.3,340.2,9.9z"/>
	<path class="st2" d="M344.4,11.5h-0.5V9.4c0-0.7-0.2-1-0.7-1s-0.8,0.3-1,0.9v2.3h-0.5V8.3h0.5v0.4c0.3-0.4,0.6-0.5,1-0.5
		c0.4,0,0.7,0.1,0.8,0.2c0.2,0.2,0.3,0.5,0.3,0.9v2.2H344.4z"/>
	<path class="st2" d="M350.1,9.9c0,0.5-0.2,0.9-0.5,1.2c-0.3,0.3-0.7,0.5-1.2,0.5s-0.8-0.2-1.2-0.5c-0.3-0.3-0.5-0.7-0.5-1.2
		c0-0.5,0.2-0.9,0.5-1.2c0.3-0.3,0.7-0.5,1.2-0.5s0.8,0.2,1.2,0.5S350.1,9.4,350.1,9.9z M349.6,9.9c0-0.4-0.1-0.8-0.3-1.1
		c-0.2-0.3-0.5-0.4-0.8-0.4s-0.6,0.1-0.8,0.4c-0.2,0.3-0.3,0.6-0.3,1.1c0,0.4,0.1,0.8,0.3,1.1c0.2,0.3,0.5,0.4,0.8,0.4
		s0.6-0.1,0.8-0.4C349.5,10.6,349.6,10.3,349.6,9.9z"/>
	<path class="st2" d="M351.8,8.4v3.1h-0.5V8.4H351V8.3h0.3V7.6c0-0.7,0.4-1,1.1-1v0.2c-0.2,0-0.4,0.1-0.5,0.2s-0.1,0.4-0.1,0.7V8.4z
		"/>
	<path class="st2" d="M259.2,20.5h-0.5v-2.2c0-0.7-0.2-1-0.7-1s-0.8,0.3-1,0.9v2.3h-0.5v-3.2h0.5v0.4c0.3-0.4,0.6-0.5,1-0.5
		s0.7,0.1,0.8,0.2c0.2,0.2,0.3,0.5,0.3,0.9v2.2H259.2z"/>
	<path class="st2" d="M262.7,18.4v2.1h-0.5v-0.3c-0.2,0.2-0.5,0.3-0.8,0.3c-0.3,0-0.6-0.1-0.8-0.3c-0.2-0.2-0.4-0.4-0.4-0.8
		c0-0.3,0.1-0.6,0.4-0.8c0.2-0.2,0.5-0.3,0.7-0.3c0.1,0,0.2,0,0.2,0c0.2,0,0.3,0.1,0.4,0.1l-0.1,0.2c-0.2-0.1-0.3-0.2-0.5-0.2
		c-0.2,0-0.4,0.1-0.5,0.2c-0.1,0.2-0.2,0.4-0.2,0.7c0,0.3,0.1,0.5,0.2,0.6c0.1,0.2,0.3,0.2,0.5,0.2c0.3,0,0.6-0.2,0.8-0.5v-1.5
		c0-0.7-0.2-1-0.7-1c-0.3,0-0.5,0.1-0.8,0.3l-0.1-0.2c0.2-0.2,0.5-0.2,0.9-0.2C262.3,17.2,262.7,17.6,262.7,18.4z"/>
	<path class="st2" d="M265,17.4h-0.6v2c0,0.3,0,0.6,0.1,0.7s0.2,0.2,0.5,0.2v0.2c-0.7,0-1.1-0.4-1.1-1.1v-2h-0.3v-0.2h0.3v-0.4h0.5
		v0.4h0.6V17.4z"/>
	<path class="st2" d="M268.6,20.5h-0.5V20c-0.2,0.4-0.6,0.6-1,0.6c-0.8,0-1.2-0.4-1.2-1.2v-2.2h0.5v2.2c0,0.7,0.2,1,0.7,1
		c0.3,0,0.5-0.2,0.7-0.5c0.1-0.2,0.2-0.4,0.2-0.6v-2.1h0.5v3.3H268.6z"/>
	<path class="st2" d="M271.2,17.3l-0.1,0.2c-0.1-0.1-0.3-0.1-0.4-0.1c-0.1,0-0.1,0-0.2,0.1c-0.2,0.1-0.3,0.4-0.3,0.9v2.1h-0.5v-3.2
		h0.5v0.4c0.1-0.1,0.1-0.2,0.2-0.3c0.1-0.1,0.2-0.1,0.4-0.1C270.9,17.2,271.1,17.3,271.2,17.3z"/>
	<path class="st2" d="M274.3,18.4v2.1h-0.5v-0.3c-0.2,0.2-0.5,0.3-0.8,0.3s-0.6-0.1-0.8-0.3c-0.2-0.2-0.4-0.4-0.4-0.8
		c0-0.3,0.1-0.6,0.4-0.8c0.2-0.2,0.5-0.3,0.7-0.3c0.1,0,0.2,0,0.2,0c0.2,0,0.3,0.1,0.4,0.1l-0.1,0.2c-0.2-0.1-0.3-0.2-0.5-0.2
		c-0.2,0-0.4,0.1-0.5,0.2c-0.1,0.2-0.2,0.4-0.2,0.7c0,0.3,0.1,0.5,0.2,0.6c0.1,0.2,0.3,0.2,0.5,0.2c0.3,0,0.6-0.2,0.8-0.5v-1.5
		c0-0.7-0.2-1-0.7-1c-0.3,0-0.5,0.1-0.8,0.3l-0.1-0.2c0.2-0.2,0.5-0.2,0.9-0.2C273.9,17.2,274.3,17.6,274.3,18.4z"/>
	<path class="st2" d="M275.9,20.5h-0.5v-5h0.5V20.5z"/>
	<path class="st2" d="M278.9,20.5h-0.5v-5h0.5V20.5z"/>
	<path class="st2" d="M282.3,18.4v2.1h-0.5v-0.3c-0.2,0.2-0.5,0.3-0.8,0.3s-0.6-0.1-0.8-0.3c-0.2-0.2-0.4-0.4-0.4-0.8
		c0-0.3,0.1-0.6,0.4-0.8c0.2-0.2,0.5-0.3,0.7-0.3c0.1,0,0.2,0,0.2,0c0.2,0,0.3,0.1,0.4,0.1l-0.1,0.2c-0.2-0.1-0.3-0.2-0.5-0.2
		c-0.2,0-0.4,0.1-0.5,0.2c-0.1,0.2-0.2,0.4-0.2,0.7c0,0.3,0.1,0.5,0.2,0.6c0.1,0.2,0.3,0.2,0.5,0.2c0.3,0,0.6-0.2,0.8-0.5v-1.5
		c0-0.7-0.2-1-0.7-1c-0.3,0-0.5,0.1-0.8,0.3l-0.1-0.2c0.2-0.2,0.5-0.2,0.9-0.2C281.9,17.2,282.3,17.6,282.3,18.4z"/>
	<path class="st2" d="M286.1,20.5h-0.5v-2.2c0-0.7-0.2-1-0.7-1s-0.8,0.3-1,0.9v2.3h-0.5v-3.2h0.5v0.4c0.3-0.4,0.6-0.5,1-0.5
		s0.7,0.1,0.8,0.2c0.2,0.2,0.3,0.5,0.3,0.9v2.2H286.1z"/>
	<path class="st2" d="M289.9,20.5h-0.5v-0.3c-0.2,0.2-0.5,0.4-0.8,0.4c-0.4,0-0.8-0.2-1.1-0.5c-0.3-0.3-0.4-0.7-0.4-1.2
		s0.1-0.9,0.4-1.2c0.3-0.3,0.6-0.5,1.1-0.5c0.2,0,0.4,0,0.6,0.1l-0.1,0.2c-0.2-0.1-0.3-0.2-0.5-0.2c-0.2,0-0.5,0.1-0.6,0.4
		c-0.2,0.3-0.3,0.7-0.3,1.1s0.1,0.8,0.3,1.1c0.2,0.3,0.4,0.4,0.7,0.4c0.2,0,0.3-0.1,0.5-0.2c0.1-0.1,0.2-0.3,0.3-0.5v-4.2h0.5v5.1
		H289.9z"/>
	<path class="st2" d="M292.8,19.7c0,0.3-0.1,0.5-0.3,0.6c-0.2,0.2-0.4,0.2-0.7,0.2c-0.4,0-0.7-0.1-0.9-0.4L291,20
		c0.2,0.3,0.5,0.4,0.8,0.4c0.2,0,0.3-0.1,0.4-0.2c0.1-0.1,0.2-0.3,0.2-0.4c0-0.2-0.1-0.4-0.3-0.5c-0.1-0.1-0.3-0.2-0.6-0.4
		c-0.4-0.2-0.5-0.5-0.5-0.9c0-0.2,0.1-0.4,0.3-0.6c0.2-0.1,0.4-0.2,0.6-0.2c0.2,0,0.3,0,0.5,0.1c0.2,0.1,0.3,0.2,0.3,0.3l-0.2,0.2
		c-0.2-0.3-0.4-0.4-0.7-0.4c-0.3,0-0.5,0.1-0.5,0.4c0,0.2,0.1,0.4,0.3,0.6c0.4,0.2,0.6,0.4,0.7,0.5
		C292.7,19.1,292.8,19.4,292.8,19.7z"/>
	<path class="st2" d="M296.4,20.1c-0.3,0.3-0.7,0.4-1.1,0.4c-0.5,0-0.8-0.2-1.2-0.5c-0.3-0.3-0.5-0.7-0.5-1.2s0.2-0.9,0.5-1.2
		c0.3-0.3,0.7-0.5,1.2-0.5c0.4,0,0.7,0.1,1,0.3l-0.1,0.2c-0.2-0.2-0.5-0.4-0.9-0.4c-0.3,0-0.6,0.2-0.8,0.5c-0.2,0.3-0.3,0.6-0.3,1
		s0.1,0.8,0.3,1c0.2,0.3,0.5,0.5,0.8,0.5c0.4,0,0.7-0.2,1-0.5L296.4,20.1z"/>
	<path class="st2" d="M299.5,18.4v2.1H299v-0.3c-0.2,0.2-0.5,0.3-0.8,0.3c-0.3,0-0.6-0.1-0.8-0.3c-0.2-0.2-0.4-0.4-0.4-0.8
		c0-0.3,0.1-0.6,0.4-0.8c0.2-0.2,0.5-0.3,0.7-0.3c0.1,0,0.2,0,0.2,0c0.2,0,0.3,0.1,0.4,0.1l-0.1,0.2c-0.2-0.1-0.3-0.2-0.5-0.2
		c-0.2,0-0.4,0.1-0.5,0.2c-0.1,0.2-0.2,0.4-0.2,0.7c0,0.3,0.1,0.5,0.2,0.6c0.1,0.2,0.3,0.2,0.5,0.2c0.3,0,0.6-0.2,0.8-0.5v-1.5
		c0-0.7-0.2-1-0.7-1c-0.3,0-0.5,0.1-0.8,0.3l-0.1-0.2c0.2-0.2,0.5-0.2,0.9-0.2C299.1,17.2,299.5,17.6,299.5,18.4z"/>
	<path class="st2" d="M303.3,18.9c0,0.5-0.1,0.8-0.4,1.2c-0.3,0.3-0.6,0.5-1,0.5c-0.2,0-0.4,0-0.6-0.1l0.1-0.2
		c0.1,0.1,0.3,0.2,0.5,0.2c0.2,0,0.5-0.1,0.6-0.4c0.2-0.3,0.3-0.6,0.3-1.1c0-0.4-0.1-0.8-0.3-1.1c-0.2-0.3-0.4-0.4-0.7-0.4
		c-0.2,0-0.3,0.1-0.5,0.2c-0.1,0.1-0.2,0.3-0.3,0.5v3.6h-0.5v-4.4h0.5v0.3c0.2-0.2,0.5-0.4,0.8-0.4c0.4,0,0.8,0.2,1,0.5
		C303.2,18.1,303.3,18.5,303.3,18.9z"/>
	<path class="st2" d="M307.2,18.5h-2v-0.2h1.5c0-0.6-0.3-0.9-0.8-0.9c-0.3,0-0.6,0.1-0.8,0.4c-0.2,0.3-0.3,0.6-0.3,1.1
		s0.1,0.8,0.3,1.1c0.2,0.3,0.5,0.4,0.8,0.4c0.4,0,0.7-0.2,1-0.5l0.2,0.2c-0.3,0.3-0.7,0.5-1.1,0.5c-0.5,0-0.8-0.2-1.2-0.5
		c-0.3-0.3-0.5-0.7-0.5-1.2s0.2-0.9,0.5-1.2c0.3-0.3,0.7-0.5,1.1-0.5c0.3,0,0.6,0.1,0.9,0.4C307,17.8,307.2,18.1,307.2,18.5z"/>
	<path class="st2" d="M259,27.4v2.1h-0.5v-0.3c-0.2,0.2-0.5,0.3-0.8,0.3c-0.3,0-0.6-0.1-0.8-0.3c-0.2-0.2-0.4-0.4-0.4-0.8
		c0-0.3,0.1-0.6,0.4-0.8c0.2-0.2,0.5-0.3,0.7-0.3c0.1,0,0.2,0,0.2,0c0.2,0,0.3,0.1,0.4,0.1l-0.1,0.2c-0.2-0.1-0.3-0.2-0.5-0.2
		c-0.2,0-0.4,0.1-0.5,0.2c-0.1,0.2-0.2,0.4-0.2,0.7c0,0.3,0.1,0.5,0.2,0.6c0.1,0.2,0.3,0.2,0.5,0.2c0.3,0,0.6-0.2,0.8-0.5v-1.5
		c0-0.7-0.2-1-0.7-1c-0.3,0-0.5,0.1-0.8,0.3l-0.1-0.2c0.2-0.2,0.5-0.2,0.9-0.2C258.6,26.2,259,26.6,259,27.4z"/>
	<path class="st2" d="M262.8,29.5h-0.5v-2.2c0-0.7-0.2-1-0.7-1s-0.8,0.3-1,0.9v2.3h-0.5v-3.2h0.5v0.4c0.3-0.4,0.6-0.5,1-0.5
		s0.7,0.1,0.8,0.2c0.2,0.2,0.3,0.5,0.3,0.9L262.8,29.5L262.8,29.5z"/>
	<path class="st2" d="M266.6,29.5h-0.5v-0.3c-0.2,0.2-0.5,0.4-0.8,0.4c-0.4,0-0.8-0.2-1.1-0.5c-0.3-0.3-0.4-0.7-0.4-1.2
		s0.1-0.9,0.4-1.2c0.3-0.3,0.6-0.5,1.1-0.5c0.2,0,0.4,0,0.6,0.1l-0.1,0.2c-0.2-0.1-0.3-0.2-0.5-0.2c-0.2,0-0.5,0.1-0.6,0.4
		c-0.2,0.3-0.3,0.7-0.3,1.1s0.1,0.8,0.3,1.1c0.2,0.3,0.4,0.4,0.7,0.4c0.2,0,0.3-0.1,0.5-0.2c0.1-0.1,0.2-0.3,0.3-0.5v-4.2h0.5v5.1
		H266.6z"/>
	<path class="st2" d="M271.5,27.4v2.1H271v-0.3c-0.2,0.2-0.5,0.3-0.8,0.3c-0.3,0-0.6-0.1-0.8-0.3c-0.2-0.2-0.4-0.4-0.4-0.8
		c0-0.3,0.1-0.6,0.4-0.8c0.2-0.2,0.5-0.3,0.7-0.3c0.1,0,0.2,0,0.2,0c0.2,0,0.3,0.1,0.4,0.1l-0.1,0.2c-0.2-0.1-0.3-0.2-0.5-0.2
		c-0.2,0-0.4,0.1-0.5,0.2c-0.1,0.2-0.2,0.4-0.2,0.7c0,0.3,0.1,0.5,0.2,0.6c0.1,0.2,0.3,0.2,0.5,0.2c0.3,0,0.6-0.2,0.8-0.5v-1.5
		c0-0.7-0.2-1-0.7-1c-0.3,0-0.5,0.1-0.8,0.3l-0.1-0.2c0.2-0.2,0.5-0.2,0.9-0.2C271.1,26.2,271.5,26.6,271.5,27.4z"/>
	<path class="st2" d="M274.1,26.3l-0.1,0.2c-0.1-0.1-0.3-0.1-0.4-0.1s-0.1,0-0.2,0.1c-0.2,0.1-0.3,0.4-0.3,0.9v2.1h-0.5v-3.2h0.5
		v0.4c0.1-0.1,0.1-0.2,0.2-0.3c0.1-0.1,0.2-0.1,0.4-0.1C273.9,26.2,274,26.3,274.1,26.3z"/>
	<path class="st2" d="M276.4,26.4h-0.6v2c0,0.3,0,0.6,0.1,0.7s0.2,0.2,0.5,0.2v0.2c-0.7,0-1.1-0.4-1.1-1.1v-2H275v-0.2h0.3v-0.4h0.5
		v0.4h0.6V26.4z"/>
	<path class="st2" d="M277.9,24.8c0,0.1,0,0.2-0.1,0.2c-0.1,0-0.1,0.1-0.2,0.1s-0.2,0-0.2-0.1s-0.1-0.1-0.1-0.2c0-0.1,0-0.2,0.1-0.2
		c0.1-0.1,0.1-0.1,0.2-0.1s0.2,0,0.2,0.1S277.9,24.7,277.9,24.8z M277.8,29.5h-0.5v-3.2h0.5V29.5z"/>
	<path class="st2" d="M280.7,28.7c0,0.3-0.1,0.5-0.3,0.6c-0.2,0.2-0.4,0.2-0.7,0.2c-0.4,0-0.7-0.1-0.9-0.4l0.2-0.2
		c0.2,0.3,0.5,0.4,0.8,0.4c0.2,0,0.3-0.1,0.4-0.2c0.1-0.1,0.2-0.3,0.2-0.4c0-0.2-0.1-0.4-0.3-0.5c-0.1-0.1-0.3-0.2-0.6-0.4
		c-0.4-0.2-0.5-0.5-0.5-0.9c0-0.2,0.1-0.4,0.3-0.6c0.2-0.1,0.4-0.2,0.6-0.2c0.1,0,0.3,0,0.5,0.1c0.2,0.1,0.3,0.2,0.3,0.3l-0.2,0.2
		c-0.2-0.3-0.4-0.4-0.7-0.4c-0.3,0-0.5,0.1-0.5,0.4c0,0.2,0.1,0.4,0.3,0.6c0.4,0.2,0.6,0.4,0.7,0.5
		C280.6,28.1,280.7,28.4,280.7,28.7z"/>
	<path class="st2" d="M283,26.4h-0.6v2c0,0.3,0,0.6,0.1,0.7s0.2,0.2,0.5,0.2v0.2c-0.7,0-1.1-0.4-1.1-1.1v-2h-0.3v-0.2h0.3v-0.4h0.5
		v0.4h0.6V26.4z"/>
	<path class="st2" d="M284.5,24.8c0,0.1,0,0.2-0.1,0.2s-0.1,0.1-0.2,0.1c-0.1,0-0.2,0-0.2-0.1s-0.1-0.1-0.1-0.2c0-0.1,0-0.2,0.1-0.2
		c0.1-0.1,0.1-0.1,0.2-0.1c0.1,0,0.2,0,0.2,0.1S284.5,24.7,284.5,24.8z M284.4,29.5h-0.5v-3.2h0.5V29.5z"/>
	<path class="st2" d="M288.2,29.1c-0.3,0.3-0.7,0.4-1.1,0.4c-0.5,0-0.8-0.2-1.2-0.5c-0.3-0.3-0.5-0.7-0.5-1.2s0.2-0.9,0.5-1.2
		c0.3-0.3,0.7-0.5,1.2-0.5c0.4,0,0.7,0.1,1,0.3l-0.1,0.2c-0.2-0.2-0.5-0.4-0.9-0.4c-0.3,0-0.6,0.2-0.8,0.5c-0.2,0.3-0.3,0.6-0.3,1
		s0.1,0.8,0.3,1c0.2,0.3,0.5,0.5,0.8,0.5c0.4,0,0.7-0.2,1-0.5L288.2,29.1z"/>
	<path class="st2" d="M293,27.5h-2v-0.2h1.5c0-0.6-0.3-0.9-0.8-0.9c-0.3,0-0.6,0.1-0.8,0.4c-0.2,0.3-0.3,0.6-0.3,1.1
		s0.1,0.8,0.3,1.1c0.2,0.3,0.5,0.4,0.8,0.4c0.4,0,0.7-0.2,1-0.5l0.2,0.2c-0.3,0.3-0.7,0.5-1.1,0.5c-0.5,0-0.8-0.2-1.2-0.5
		c-0.3-0.3-0.5-0.7-0.5-1.2s0.2-0.9,0.5-1.2c0.3-0.3,0.7-0.5,1.1-0.5c0.3,0,0.6,0.1,0.9,0.4C292.9,26.8,293,27.1,293,27.5z"/>
	<path class="st2" d="M296.7,29.5h-0.6l-1-1.5l-1.2,1.5h-0.2l1.3-1.6l-1.1-1.6h0.6l0.9,1.2l1-1.2h0.2l-1.1,1.4L296.7,29.5z"/>
	<path class="st2" d="M300.2,27.9c0,0.5-0.1,0.8-0.4,1.2c-0.3,0.3-0.6,0.5-1,0.5c-0.2,0-0.4,0-0.6-0.1l0.1-0.2
		c0.1,0.1,0.3,0.2,0.5,0.2c0.2,0,0.5-0.1,0.6-0.4c0.2-0.3,0.3-0.6,0.3-1.1c0-0.4-0.1-0.8-0.3-1.1c-0.2-0.3-0.4-0.4-0.7-0.4
		c-0.2,0-0.3,0.1-0.5,0.2c-0.1,0.1-0.2,0.3-0.3,0.5v3.6h-0.5v-4.4h0.5v0.3c0.2-0.2,0.5-0.4,0.8-0.4c0.4,0,0.8,0.2,1,0.5
		C300.1,27.1,300.2,27.5,300.2,27.9z"/>
	<path class="st2" d="M302.7,26.3l-0.1,0.2c-0.1-0.1-0.3-0.1-0.4-0.1c-0.1,0-0.1,0-0.2,0.1c-0.2,0.1-0.3,0.4-0.3,0.9v2.1h-0.5v-3.2
		h0.5v0.4c0.1-0.1,0.1-0.2,0.2-0.3c0.1-0.1,0.2-0.1,0.4-0.1C302.5,26.2,302.6,26.3,302.7,26.3z"/>
	<path class="st2" d="M306.2,27.5h-2v-0.2h1.5c0-0.6-0.3-0.9-0.8-0.9c-0.3,0-0.6,0.1-0.8,0.4c-0.2,0.3-0.3,0.6-0.3,1.1
		s0.1,0.8,0.3,1.1c0.2,0.3,0.5,0.4,0.8,0.4c0.4,0,0.7-0.2,1-0.5l0.2,0.2c-0.3,0.3-0.7,0.5-1.1,0.5c-0.5,0-0.8-0.2-1.2-0.5
		c-0.3-0.3-0.5-0.7-0.5-1.2s0.2-0.9,0.5-1.2c0.3-0.3,0.7-0.5,1.1-0.5c0.3,0,0.6,0.1,0.9,0.4C306.1,26.8,306.2,27.1,306.2,27.5z"/>
	<path class="st2" d="M308.9,28.7c0,0.3-0.1,0.5-0.3,0.6c-0.2,0.2-0.4,0.2-0.7,0.2c-0.4,0-0.7-0.1-0.9-0.4l0.2-0.2
		c0.2,0.3,0.5,0.4,0.8,0.4c0.2,0,0.3-0.1,0.4-0.2s0.2-0.3,0.2-0.4c0-0.2-0.1-0.4-0.3-0.5c-0.1-0.1-0.3-0.2-0.6-0.4
		c-0.4-0.2-0.5-0.5-0.5-0.9c0-0.2,0.1-0.4,0.3-0.6c0.2-0.1,0.4-0.2,0.6-0.2c0.1,0,0.3,0,0.5,0.1c0.2,0.1,0.3,0.2,0.3,0.3l-0.2,0.2
		c-0.2-0.3-0.4-0.4-0.7-0.4s-0.5,0.1-0.5,0.4c0,0.2,0.1,0.4,0.3,0.6c0.4,0.2,0.6,0.4,0.7,0.5C308.8,28.1,308.9,28.4,308.9,28.7z"/>
	<path class="st2" d="M311.6,28.7c0,0.3-0.1,0.5-0.3,0.6c-0.2,0.2-0.4,0.2-0.7,0.2c-0.4,0-0.7-0.1-0.9-0.4l0.2-0.2
		c0.2,0.3,0.5,0.4,0.8,0.4c0.2,0,0.3-0.1,0.4-0.2s0.2-0.3,0.2-0.4c0-0.2-0.1-0.4-0.3-0.5c-0.1-0.1-0.3-0.2-0.6-0.4
		c-0.4-0.2-0.5-0.5-0.5-0.9c0-0.2,0.1-0.4,0.3-0.6c0.2-0.1,0.4-0.2,0.6-0.2c0.1,0,0.3,0,0.5,0.1c0.2,0.1,0.3,0.2,0.3,0.3l-0.2,0.2
		c-0.2-0.3-0.4-0.4-0.7-0.4c-0.3,0-0.5,0.1-0.5,0.4c0,0.2,0.1,0.4,0.3,0.6c0.4,0.2,0.6,0.4,0.7,0.5
		C311.5,28.1,311.7,28.4,311.6,28.7z"/>
	<path class="st2" d="M313.2,24.8c0,0.1,0,0.2-0.1,0.2s-0.1,0.1-0.2,0.1s-0.2,0-0.2-0.1s-0.1-0.1-0.1-0.2c0-0.1,0-0.2,0.1-0.2
		c0.1-0.1,0.1-0.1,0.2-0.1s0.2,0,0.2,0.1C313.2,24.7,313.2,24.7,313.2,24.8z M313.2,29.5h-0.5v-3.2h0.5V29.5z"/>
	<path class="st2" d="M317.5,27.9c0,0.5-0.2,0.9-0.5,1.2c-0.3,0.3-0.7,0.5-1.2,0.5s-0.8-0.2-1.2-0.5c-0.3-0.3-0.5-0.7-0.5-1.2
		s0.2-0.9,0.5-1.2c0.3-0.3,0.7-0.5,1.2-0.5s0.8,0.2,1.2,0.5C317.3,27,317.5,27.4,317.5,27.9z M317,27.9c0-0.4-0.1-0.8-0.3-1.1
		c-0.2-0.3-0.5-0.4-0.8-0.4c-0.3,0-0.6,0.1-0.8,0.4c-0.2,0.3-0.3,0.6-0.3,1.1c0,0.4,0.1,0.8,0.3,1.1c0.2,0.3,0.5,0.4,0.8,0.4
		c0.3,0,0.6-0.1,0.8-0.4C316.9,28.6,317,28.3,317,27.9z"/>
	<path class="st2" d="M321.2,29.5h-0.5v-2.2c0-0.7-0.2-1-0.7-1s-0.8,0.3-1,0.9v2.3h-0.5v-3.2h0.5v0.4c0.3-0.4,0.6-0.5,1-0.5
		s0.7,0.1,0.8,0.2c0.2,0.2,0.3,0.5,0.3,0.9v2.2H321.2z"/>
	<path class="st2" d="M322.9,29.3c0,0.1,0,0.2-0.1,0.2c-0.1,0-0.1,0.1-0.2,0.1s-0.2,0-0.2-0.1s-0.1-0.1-0.1-0.2c0-0.1,0-0.2,0.1-0.2
		s0.1-0.1,0.2-0.1s0.2,0,0.2,0.1S322.9,29.2,322.9,29.3z"/>
</g>
</svg>
