<?xml version="1.0" encoding="utf-8"?>
<!-- Generator: Adobe Illustrator 25.2.3, SVG Export Plug-In . SVG Version: 6.00 Build 0)  -->
<svg version="1.1" id="圖層_1" xmlns="http://www.w3.org/2000/svg" xmlns:xlink="http://www.w3.org/1999/xlink" x="0px" y="0px"
	 viewBox="0 0 280 70" style="enable-background:new 0 0 280 70;" xml:space="preserve">
<style type="text/css">
	.st0{fill:#C9A063;}
	.st1{fill:#C79F62;}
</style>
<path class="st0" d="M3.7,14.3c0.6-1.8,1-3.7,1.2-5.7H3.3C3,9.1,2.9,9.4,2.7,9.7C2.6,10,2.4,10.1,2,10.1c-0.7,0-1-0.2-1-0.5
	c1.3-2.4,2.5-4.7,3.4-6.8H1.7c-0.2,0-0.5,0.1-0.8,0.1C0.8,2.6,0.7,2.4,0.6,2.1c0.4,0.1,0.7,0.1,1,0.1h2.7c0.7-0.7,1-1,1.1-1
	c0.2,0,0.5,0.2,0.9,0.7C6.8,2.4,7,2.7,7,2.8S6.8,3.1,6.3,3.3C6.1,3.4,5.9,3.4,5.9,3.5c-1,2-1.8,3.5-2.4,4.6h1.2
	c0.5-0.6,0.9-0.9,1.1-0.9c0.1,0,0.5,0.2,0.9,0.7c0.5,0.4,0.7,0.7,0.7,0.9c0,0.1-0.1,0.2-0.3,0.3C6.7,9.3,6.4,9.4,6.3,9.6
	c-0.4,2.5-1,4.5-1.7,6.1C4.8,15.9,5,16,5.2,16.1c1.5,1.1,4.6,1.7,9.3,1.7c1.8,0,3.4-0.1,4.8-0.3v0.4c-0.3,0.1-0.6,0.2-0.9,0.5
	c-0.1,0.1-0.2,0.4-0.3,0.7c0,0.3-0.2,0.5-0.5,0.5c-0.8,0-1.8,0-3.2,0C10,19.5,6.9,18.8,5,17.5c-0.4-0.2-0.7-0.5-1-0.8
	c-1,1.6-2.2,2.7-3.6,3.3c0-0.1,0-0.2-0.1-0.3c1.3-1.2,2.2-2.6,2.8-4.1c-0.8-1.1-1.3-2.6-1.7-4.4l0.3-0.1C2.5,12.3,3.1,13.4,3.7,14.3
	z M17.2,2.3C17.7,2.7,18,3,18,3.2c0,0.1-0.1,0.2-0.3,0.3c-0.1,0.1-0.4,0.2-0.6,0.4v1.4h0.2c0.5-0.8,0.8-1.3,1-1.3
	c0.1,0,0.3,0.2,0.7,0.7c0.3,0.4,0.5,0.7,0.6,0.9c0,0.2-0.1,0.3-0.3,0.3H17v1c0.1,0.7,0.1,1.3,0.1,1.8c0,0.4-0.4,0.6-1.3,0.6
	c-0.4,0-0.6-0.1-0.6-0.4V8.7H13v2.1h2.2c0.3-0.4,0.6-0.8,0.9-1.1c0.1-0.1,0.2-0.2,0.2-0.2c0.1,0,0.2,0.1,0.4,0.2
	c0.7,0.7,1.2,1.1,1.2,1.3s-0.1,0.3-0.1,0.3H13v0.3c0,0.7,0,1.4,0,1.9h2.9c0.3-0.5,0.6-0.9,1-1.2c0.1-0.1,0.2-0.2,0.2-0.2
	c0.1,0,0.2,0.1,0.4,0.2c0.8,0.7,1.2,1.2,1.3,1.4c0,0.2-0.1,0.3-0.2,0.3H13c0,1,0,1.7,0,2.2c0,0.4-0.4,0.5-1.3,0.5
	c-0.4,0-0.7-0.1-0.7-0.4c0-0.5,0-1.3,0-2.4H9c-0.9,0-1.6,0.1-2,0.2c-0.1-0.3-0.2-0.5-0.3-0.8c0.4,0.1,1.2,0.1,2.3,0.1h2.2
	c0-0.6,0-1.2,0-2v-0.3H9.7c-0.9,0-1.6,0.1-2,0.2c-0.1-0.3-0.2-0.5-0.3-0.8c0.5,0.1,1.2,0.1,2.3,0.1h1.5V8.5c-1.3,0-2.3,0.1-3.1,0.2
	C7.9,8.4,7.8,8,7.7,7.8c0.4,0.1,1.6,0.1,3.4,0.1V5.7H10c-2,0-3,0.1-3,0.2C6.9,5.6,6.7,5.3,6.6,4.8C6.9,4.9,8,5,9.9,5.1h1.3v-2H11
	c-1.4,0-2.5,0.1-3.1,0.2C7.8,3,7.7,2.8,7.6,2.5c0.5,0.1,1.7,0.1,3.6,0.1h0.1V2.3c0-0.6-0.1-1.3-0.2-1.9c0.7,0.1,1.4,0.2,2.1,0.3
	C13.7,0.8,14,0.9,14,1.1c0,0.1-0.1,0.2-0.4,0.3c-0.4,0.1-0.5,0.2-0.5,0.3v0.9h2c0.6-0.7,1-1.1,1.2-1.1C16.3,1.7,16.7,1.9,17.2,2.3z
	 M13,5.3h2.2v-2H13V5.3z M13,8.1c0.1,0,0.2,0,0.3,0h1.9V5.9H13V8.1z"/>
<path class="st0" d="M39,12.2c0.9,0.8,1.3,1.2,1.3,1.4s-0.1,0.3-0.2,0.3H33c1,0.9,2,1.6,3.2,2c1.2,0.5,2.6,0.7,4.2,0.8
	c0,0.2,0,0.3-0.1,0.4c-0.1,0-0.3,0.2-0.5,0.4c-0.1,0.1-0.3,0.4-0.4,0.8c-0.1,0.3-0.2,0.4-0.4,0.4c-0.7,0-1.8-0.5-3.4-1.4
	c-1.4-0.8-2.4-1.9-3.1-3.3h-0.3l0.1,5.1c0,0.4-0.4,0.6-1.2,0.7c-0.6,0-0.9-0.2-0.9-0.5c0-1.6,0-3.1,0-4.5c-1.5,1.7-4.3,3-8.5,4
	c-0.1,0-0.2-0.1-0.3-0.3c3.4-1.2,5.6-2.6,6.7-4c0.2-0.2,0.3-0.4,0.4-0.5h-1.6c-2.4,0-4,0.1-4.6,0.3c-0.1-0.4-0.3-0.7-0.5-1.1
	c1,0.1,2.8,0.2,5.2,0.2h3.1v-0.2c0-0.7-0.1-1.2-0.1-1.6c-0.6,0.2-1.3,0.4-2,0.5c0,0-0.1-0.1-0.2-0.3c1.7-0.6,2.9-1.5,3.7-2.7
	c-0.6-0.4-1.1-0.7-1.7-0.9c0,0,0.1-0.1,0.1-0.3c0.7,0.1,1.4,0.2,1.9,0.4c0.2-0.5,0.3-1,0.3-1.4c-0.8,0-1.4,0.1-1.7,0.2
	c-0.1-0.3-0.3-0.7-0.4-1c0.3,0.1,1,0.2,2,0.2h3.6C35.8,6,36,5.8,36.2,5.6c-0.4,0-0.6-0.2-0.7-0.7c0-0.1-0.1-0.3-0.1-0.5
	s-0.1-0.3-0.1-0.5c-0.1-0.2-0.2-0.4-0.3-0.5h-1.6c-0.2,0.2-0.4,0.4-0.5,0.5c-0.7,0.6-1.4,1.2-2.2,1.6c0,0-0.1-0.1-0.2-0.2
	c1.3-1.6,2.2-3.1,2.5-4.6c1.8,0.5,2.7,0.9,2.7,1.1c0,0.2-0.4,0.3-1.2,0.4c-0.1,0.2-0.3,0.4-0.4,0.6h3.7c0.5-0.8,0.9-1.2,1.1-1.3H39
	c0.1,0.1,0.4,0.3,0.8,0.6c0.5,0.5,0.8,0.8,0.9,1c0,0.2-0.1,0.3-0.1,0.3h-4.4c0.8,0.3,1.2,0.7,1.2,1.3c0,0.3-0.1,0.6-0.3,0.7
	c0.3,0.1,0.6,0.4,1,0.6c0.5,0.4,0.7,0.7,0.7,0.8c0,0.2-0.3,0.5-0.9,0.8v1.9c0,0.5,0.2,0.7,0.6,0.8c0,0,0,0,0.1,0
	c0.5,0,0.7-0.1,0.8-0.3c0.2-0.3,0.4-0.9,0.5-1.7c0,0,0.1,0.1,0.4,0.1c0,0.3,0,0.7,0,1.2c0,0.2,0.1,0.4,0.3,0.5
	c0.3,0.1,0.5,0.4,0.5,0.6c0,0.3-0.1,0.4-0.1,0.5c-0.2,0.4-0.6,0.6-1.2,0.7C39.5,12,39.3,12,39,12s-0.5,0-0.7,0
	c-1.2,0-1.8-0.6-1.9-1.9V7h-1.9c-0.1,0.9-0.3,1.5-0.5,1.8v0.1c1.1,0.5,1.7,1,1.7,1.7c0,0.2,0,0.3-0.1,0.5c-0.1,0.3-0.3,0.4-0.6,0.4
	s-0.7-0.3-1.2-0.9c-0.2-0.2-0.4-0.4-0.6-0.5c-0.6,0.7-1.4,1.2-2.4,1.5c2,0.3,3,0.6,3,0.8c0,0.1-0.1,0.3-0.4,0.4
	c-0.4,0.2-0.7,0.3-0.7,0.4v0.3h4.8C38.1,12.7,38.6,12.2,39,12.2C38.9,12.1,39,12.1,39,12.2C38.6,11.9,38.8,12.1,39,12.2z M25.3,3.2
	c-1,1.3-2.2,2.2-3.5,2.9c-0.1-0.1-0.2-0.2-0.4-0.2c1.4-1.4,2.5-3.2,3.1-5.5c1.8,0.6,2.7,0.9,2.7,1.1c0,0.3-0.4,0.4-1,0.5
	c-0.1,0.2-0.3,0.4-0.4,0.6h2.7c0.5-0.8,0.9-1.2,1.1-1.3h0.1c0.2,0.1,0.4,0.3,0.8,0.6c0.5,0.5,0.8,0.8,0.9,1c0,0.2-0.1,0.3-0.1,0.3
	h-4.6c1,0.3,1.6,0.9,1.6,1.6c0,0.6-0.3,0.9-0.9,0.9c-0.4,0-0.6-0.2-0.7-0.7c0-0.1-0.1-0.3-0.1-0.6c0-0.2-0.1-0.4-0.1-0.6
	c-0.1-0.3-0.3-0.5-0.4-0.7L25.3,3.2C25.3,3.1,25.3,3.2,25.3,3.2z M24.6,7.1c-0.9,0-1.6,0.1-2,0.2c-0.1-0.3-0.2-0.5-0.3-0.8
	c0.4,0.1,1.2,0.1,2.3,0.1h2.9c0.3-0.4,0.5-0.7,0.8-1c0.1-0.1,0.2-0.1,0.2-0.1c0.1,0,0.2,0.1,0.4,0.2c0.7,0.6,1.1,1,1.2,1.2
	c0,0.2-0.1,0.3-0.1,0.3h-3v2.7c1.1-0.1,2.1-0.2,2.9-0.4L30,9.6c-1.6,0.8-3.8,1.6-6.7,2.1c0,0.4-0.1,0.5-0.2,0.5s-0.2-0.2-0.4-0.5
	c-0.2-0.3-0.4-0.9-0.7-1.6c1.2,0,2.3-0.1,3.3-0.2V7.1H24.6z"/>
<path class="st0" d="M42.8,19.5c0-0.1-0.1-0.2-0.3-0.2c2.3-1.5,4.3-3.7,6-6.7c1.4-2.1,2.2-5.5,2.3-10.2l-0.1-0.9
	c0-0.2-0.1-0.4-0.2-0.5c2.5,0.3,3.8,0.7,3.8,1c0,0.2-0.2,0.4-0.6,0.4c-0.3,0.1-0.5,0.3-0.5,0.5v0.4c0,0.5-0.1,0.9-0.1,1.3
	c0.4,3.2,1.5,6,3.4,8.5c1.5,2,3.1,3.3,5,4c0,0.2,0,0.4-0.1,0.5c-0.4,0-0.6,0.1-0.6,0.2c-0.3,0.1-0.5,0.3-0.8,0.7
	c-0.3,0.5-0.5,0.8-0.7,0.8c-0.6,0-1.7-1.2-3.3-3.4c-1.7-2.4-2.8-5.5-3.2-9.2C51.5,13,48.2,17.3,42.8,19.5z"/>
<path class="st0" d="M75.2,1.3c0,0.2-0.1,0.3-0.4,0.4c-0.4,0.2-0.7,0.4-0.7,0.5v6.5h4.2c0-1.4,0-3,0-4.8c-0.1-0.5-0.1-0.9-0.1-1.3
	c1.8,0.2,2.8,0.5,3,0.8c0,0.2-0.1,0.4-0.4,0.4c-0.4,0.2-0.6,0.3-0.6,0.4v5.6c0,0.4-0.4,0.6-1.2,0.6c-0.5,0-0.8-0.1-0.8-0.4
	c0-0.3,0-0.6,0-0.9H74v8.3h4.7c0-1.6,0-3.2,0-5c-0.1-0.5-0.1-0.9-0.1-1.3c1.8,0.2,2.8,0.5,3,0.8c0,0.2-0.1,0.4-0.4,0.4
	c-0.4,0.2-0.6,0.3-0.6,0.4V19c0,0.4-0.4,0.6-1.3,0.7c-0.5,0-0.7-0.1-0.7-0.4c0-0.4,0-0.8,0-1.3H67v1c0,0.4-0.4,0.6-1.2,0.6
	c-0.5,0-0.8-0.1-0.8-0.4c0-2,0.1-4.3,0.1-6.9C65,11.8,65,11.4,65,11c1.8,0.2,2.8,0.5,3,0.8c0,0.2-0.1,0.4-0.4,0.4
	c-0.4,0.2-0.6,0.3-0.6,0.4v4.8h5V9.1h-4.2v0.6c0,0.4-0.4,0.6-1.2,0.6c-0.5,0-0.7-0.1-0.7-0.4C65.9,8.1,66,6,66,3.6
	c-0.1-0.5-0.1-0.9-0.1-1.3c1.8,0.2,2.8,0.5,3,0.8c0,0.2-0.1,0.4-0.4,0.4c-0.4,0.2-0.6,0.3-0.6,0.4v4.5h4.2V2.7c0-1,0-1.8-0.1-2.4
	C74.1,0.8,75.2,1.1,75.2,1.3z"/>
<path class="st0" d="M96.1,1.5c0,0.1-0.2,0.2-0.5,0.3c-0.3,0-0.5,0.1-0.7,0.1C94.5,2.5,94,3,93.5,3.4h3.8c0.4-0.6,0.8-1,1-1.2
	c0.2,0,0.5,0.2,1.1,0.5c0.6,0.4,0.9,0.7,0.9,0.9c0,0.1-0.1,0.3-0.4,0.4c-0.3,0.2-0.4,0.3-0.5,0.4v5c0.7-0.9,1.2-1.8,1.6-2.9
	c1.7,1,2.5,1.6,2.5,1.7c0,0.2-0.1,0.3-0.3,0.3c-0.2,0-0.5,0-1-0.1c-0.9,1.3-1.8,2.5-2.9,3.5v5c0,1.4-0.8,2.2-2.4,2.5
	c-0.2,0-0.3-0.1-0.4-0.4c-0.2-0.5-0.5-1-1.1-1.2c-0.7-0.3-1.2-0.5-1.5-0.5c0,0,0-0.1,0-0.4c0.8,0.1,1.7,0.1,3,0.1
	c0.3,0,0.5-0.2,0.5-0.5v-3c-3.4,2.5-7.7,4.1-12.8,4.8c0-0.1,0-0.2-0.1-0.3c5.6-1.6,9.8-3.7,12.7-6.4c-2.5,0.9-6,1.7-10.3,2.2
	c0,0.7-0.2,1.1-0.4,1.1c-0.1,0-0.4-0.5-0.8-1.5c-0.3-0.6-0.4-1-0.5-1.4c1.1,0,2.2,0,3.2-0.1V4c0-0.4-0.1-1-0.1-1.8
	c0.7,0.4,1.4,0.7,2,0.9h2.4C92.9,2.2,93,1.3,93,0.3C95.2,1,96.1,1.3,96.1,1.5z M97.6,4h-7.1v2h7.1V4z M97.6,6.6h-7.1v2.2h7.1V6.6z
	 M97.6,11.3v-2h-7.1v2.8C93,11.9,95.3,11.7,97.6,11.3z"/>
<path class="st0" d="M123,0.8c0.9,0.8,1.3,1.2,1.3,1.4s-0.1,0.3-0.2,0.3h-8.2v2.8h3.6c0.6-0.6,1-1,1.2-1c0.2,0.1,0.5,0.2,0.9,0.5
	c0.6,0.4,0.9,0.7,0.9,0.9c0,0.2-0.1,0.3-0.3,0.4c-0.2,0.1-0.3,0.2-0.5,0.4V13h0.3c0.6-0.9,1-1.4,1.2-1.4c0.1,0,0.4,0.3,0.8,0.7
	c0.4,0.5,0.7,0.8,0.7,0.9c0,0.2-0.1,0.3-0.2,0.3h-2.7V17c0,1.3-0.7,2.1-2.1,2.4c-0.3-0.1-0.4-0.2-0.4-0.4c-0.1-0.5-0.3-0.8-0.6-1
	c-0.3-0.2-0.8-0.4-1.4-0.7c0-0.1,0-0.2,0-0.3c0.8,0.1,1.4,0.2,1.9,0.2s0.7-0.1,0.7-0.4v-3.2h-9.5V19c-0.1,0.4-0.5,0.6-1.2,0.6
	c-0.4,0-0.7-0.1-0.8-0.2c0-2,0-3.9,0-5.8c-1.7,0-2.5,0.1-2.5,0.2c-0.1-0.3-0.3-0.6-0.4-1.1c0.3,0.1,1.3,0.2,3,0.3c0-0.2,0-0.3,0-0.5
	V8c0-2-0.1-3.1-0.1-3.5l2,0.8h3.7V2.5h-3.2c-2.4,0-4,0.1-4.6,0.3c-0.1-0.4-0.3-0.7-0.5-1.1c1,0.1,2.8,0.2,5.2,0.2h10
	c0.6-0.8,1.1-1.3,1.4-1.4c0,0,0.1,0,0.2,0C122.6,0.6,122.8,0.7,123,0.8z M110.3,5.9v3.2h3.7V5.9H110.3z M114,13.1V9.7h-3.7v3.4H114z
	 M119.7,5.9h-3.9v3.2h3.9V5.9z M119.7,13.1V9.7h-3.9v3.4H119.7z"/>
<path class="st0" d="M136.5,0.8c0.9,0.8,1.4,1.3,1.6,1.6c0,0.2-0.1,0.3-0.2,0.3h-4.7c-0.7,1.7-1.7,3.1-2.9,4.4
	c2.3,0,4.1-0.1,5.4-0.1c-0.4-0.7-1-1.3-1.6-1.9c0-0.1,0.1-0.2,0.1-0.3c2.4,0.8,3.7,1.8,3.7,2.9c0,0.5-0.1,0.9-0.3,1.1
	s-0.4,0.3-0.6,0.3c-0.3,0-0.6-0.4-0.9-1.3c0-0.1-0.1-0.2-0.1-0.3c-0.8,0.2-1.7,0.5-2.8,0.7v3.7h1.5c0.3-0.5,0.7-0.9,1-1.3
	c0.1-0.1,0.2-0.2,0.3-0.2s0.2,0.1,0.4,0.2c0.9,0.8,1.3,1.2,1.4,1.5c0,0.2-0.1,0.3-0.2,0.3h-4.5v3.9c2-0.2,3.6-0.4,4.8-0.7
	c0.1,0.1,0.1,0.3,0.2,0.4c-1.9,0.9-5.1,1.8-9.7,2.7c-0.1,0.7-0.3,1-0.4,1s-0.3-0.3-0.5-1c-0.2-0.6-0.5-1.4-0.7-2.3
	c0.5,0.1,1.2,0.1,2.2,0.1c0.8,0,1.6-0.1,2.3-0.1v-4.1h-1.5c-0.9,0-1.5,0.1-2,0.2c-0.1-0.3-0.2-0.5-0.3-0.8c0.4,0.1,1.2,0.1,2.3,0.1
	h1.5V8.4c-0.9,0.2-1.9,0.3-2.9,0.5c-0.1,0.6-0.3,0.9-0.4,0.9c-0.1,0-0.3-0.3-0.5-0.8s-0.4-1.2-0.6-2c0.4,0.1,1,0.1,1.9,0.1h0.7
	c0.7-1.3,1.1-2.8,1.4-4.4h-1.8c-0.9,0-1.5,0.1-2,0.2c-0.1-0.3-0.2-0.5-0.3-0.8c0.4,0.1,1.2,0.1,2.3,0.1h5.6c0.4-0.5,0.7-1,1.1-1.4
	c0.1-0.1,0.2-0.2,0.3-0.2C136.2,0.6,136.3,0.7,136.5,0.8z M140.6,2.9c0.5,0.1,0.8,0.3,0.8,0.4c0,0.1-0.1,0.2-0.4,0.3
	c-0.4,0.1-0.6,0.2-0.6,0.3v6.6c0,2.2,0.1,3.8,0.1,4.7c0,0.3-0.4,0.5-1.3,0.5c-0.4,0-0.7-0.1-0.7-0.4c0-0.8,0-2.4,0.1-4.9V4.5
	c0-0.6-0.1-1.3-0.2-1.9C139.2,2.7,139.9,2.8,140.6,2.9z M145.4,1.3c0,0.1-0.1,0.2-0.2,0.2c-0.2,0.1-0.3,0.1-0.5,0.3
	c-0.2,0.1-0.3,0.2-0.3,0.3v14.8c0,1.8-0.7,2.6-2.2,2.6c-0.3,0-0.4-0.1-0.4-0.4c-0.1-0.4-0.4-0.7-0.8-1c-0.3-0.2-0.8-0.4-1.5-0.5
	c0-0.1,0-0.2,0-0.3c0.4,0,1.3,0,2.6,0c0.2,0,0.4-0.2,0.4-0.6V3.1c0-1.2-0.1-2.1-0.2-2.7C144.2,0.8,145.3,1.1,145.4,1.3z"/>
<path class="st0" d="M150.7,14.3c0.6-1.8,1-3.7,1.2-5.7h-1.6c-0.3,0.5-0.4,0.8-0.6,1.1c-0.1,0.3-0.3,0.4-0.7,0.4c-0.7,0-1-0.2-1-0.5
	c1.3-2.4,2.5-4.7,3.4-6.8h-2.7c-0.2,0-0.5,0.1-0.8,0.1c-0.1-0.3-0.2-0.5-0.3-0.8c0.4,0.1,0.7,0.1,1,0.1h2.7c0.7-0.7,1-1,1.1-1
	c0.2,0,0.5,0.2,0.9,0.7c0.5,0.5,0.7,0.8,0.7,0.9c0,0.1-0.2,0.3-0.7,0.5c-0.2,0.1-0.4,0.1-0.4,0.2c-1,2-1.8,3.5-2.4,4.6h1.2
	c0.5-0.6,0.9-0.9,1.1-0.9c0.1,0,0.5,0.2,0.9,0.7c0.5,0.4,0.7,0.7,0.7,0.9c0,0.1-0.1,0.2-0.3,0.3c-0.4,0.2-0.7,0.3-0.8,0.5
	c-0.4,2.5-1,4.5-1.7,6.1c0.2,0.2,0.4,0.3,0.6,0.4c1.5,1.1,4.6,1.7,9.3,1.7c1.8,0,3.4-0.1,4.8-0.3v0.4c-0.3,0.1-0.6,0.2-0.9,0.5
	c-0.1,0.1-0.2,0.4-0.3,0.7c0,0.3-0.2,0.5-0.5,0.5c-0.8,0-1.8,0-3.2,0c-4.4-0.1-7.5-0.8-9.4-2.1c-0.4-0.2-0.7-0.5-1-0.8
	c-1,1.6-2.2,2.7-3.6,3.3c0-0.1,0-0.2-0.1-0.3c1.3-1.2,2.2-2.6,2.8-4.1c-0.8-1.1-1.3-2.6-1.7-4.4l0.3-0.1
	C149.5,12.3,150.1,13.4,150.7,14.3z M164.2,2.3c0.5,0.4,0.8,0.7,0.8,0.9c0,0.1-0.1,0.2-0.3,0.3c-0.1,0.1-0.4,0.2-0.6,0.4v1.4h0.2
	c0.5-0.8,0.8-1.3,1-1.3c0.1,0,0.3,0.2,0.7,0.7c0.3,0.4,0.5,0.7,0.6,0.9c0,0.2-0.1,0.3-0.3,0.3H164v1c0.1,0.7,0.1,1.3,0.1,1.8
	c0,0.4-0.4,0.6-1.3,0.6c-0.4,0-0.6-0.1-0.6-0.4V8.7H160v2.1h2.2c0.3-0.4,0.6-0.8,0.9-1.1c0.1-0.1,0.2-0.2,0.2-0.2
	c0.1,0,0.2,0.1,0.4,0.2c0.7,0.7,1.2,1.1,1.2,1.3s-0.1,0.3-0.1,0.3H160v0.3c0,0.7,0,1.4,0,1.9h2.9c0.3-0.5,0.6-0.9,1-1.2
	c0.1-0.1,0.2-0.2,0.2-0.2c0.1,0,0.2,0.1,0.4,0.2c0.8,0.7,1.2,1.2,1.3,1.4c0,0.2-0.1,0.3-0.2,0.3H160c0,1,0,1.7,0,2.2
	c0,0.4-0.4,0.5-1.3,0.5c-0.4,0-0.7-0.1-0.7-0.4c0-0.5,0-1.3,0-2.4h-2c-0.9,0-1.6,0.1-2,0.2c-0.1-0.3-0.2-0.5-0.3-0.8
	c0.4,0.1,1.2,0.1,2.3,0.1h2.2c0-0.6,0-1.2,0-2v-0.3h-1.5c-0.9,0-1.6,0.1-2,0.2c-0.1-0.3-0.2-0.5-0.3-0.8c0.5,0.1,1.2,0.1,2.3,0.1
	h1.5V8.5c-1.3,0-2.3,0.1-3.1,0.2c-0.2-0.3-0.3-0.7-0.4-0.9c0.4,0.1,1.6,0.1,3.4,0.1V5.7H157c-2,0-3,0.1-3,0.2
	c-0.1-0.3-0.3-0.6-0.4-1.1c0.3,0.1,1.4,0.2,3.3,0.3h1.3v-2H158c-1.4,0-2.5,0.1-3.1,0.2c-0.1-0.3-0.2-0.5-0.3-0.8
	c0.5,0.1,1.7,0.1,3.6,0.1h0.1V2.3c0-0.6-0.1-1.3-0.2-1.9c0.7,0.1,1.4,0.2,2.1,0.3c0.5,0.1,0.8,0.2,0.8,0.4c0,0.1-0.1,0.2-0.4,0.3
	c-0.4,0.1-0.5,0.2-0.5,0.3v0.9h2c0.6-0.7,1-1.1,1.2-1.1C163.3,1.7,163.7,1.9,164.2,2.3z M160,5.3h2.2v-2H160V5.3z M160,8.1
	c0.1,0,0.2,0,0.3,0h1.9V5.9H160V8.1z"/>
<path class="st0" d="M175.6,3.3c0.8,0.7,1.3,1.2,1.4,1.4c0,0.2-0.1,0.3-0.2,0.3h-6.1c-0.9,0-1.6,0.1-2,0.2c-0.1-0.2-0.2-0.5-0.3-0.8
	c0.4,0.1,1.2,0.1,2.3,0.1h3.3c0.3-0.4,0.7-0.8,1-1.2c0.1-0.1,0.2-0.2,0.3-0.2C175.3,3,175.4,3.1,175.6,3.3z M174.8,9.2
	c0.7,0.6,1.1,1,1.2,1.2c0,0.2-0.1,0.3-0.2,0.3h-4.2c-0.9,0-1.6,0.1-2,0.2c-0.1-0.3-0.2-0.5-0.3-0.8c0.4,0.1,1.2,0.1,2.3,0.1h1.8
	c0.3-0.4,0.5-0.7,0.8-1c0.1-0.1,0.1-0.1,0.2-0.1C174.5,9,174.7,9.1,174.8,9.2z M174.8,6.2c0.8,0.7,1.3,1.2,1.3,1.4
	c0,0.2-0.1,0.3-0.1,0.3h-4.3c-0.9,0-1.6,0.1-2,0.2c-0.1-0.3-0.2-0.5-0.3-0.8c0.4,0.1,1.2,0.1,2.3,0.1h1.5c0.3-0.4,0.6-0.8,1-1.2
	c0.1-0.1,0.2-0.2,0.3-0.2S174.6,6,174.8,6.2z M170.9,13.2h2.7c0.5-0.6,0.8-1,1-1s0.5,0.2,1,0.6s0.7,0.6,0.7,0.8
	c0,0.1-0.1,0.2-0.4,0.4c-0.4,0.2-0.6,0.4-0.6,0.4v2.2c0.1,0.9,0.1,1.4,0.1,1.7c0,0.4-0.3,0.7-1,0.7c-0.5,0-0.8-0.1-0.8-0.3V18h-2.4
	v1c-0.1,0.4-0.4,0.6-1,0.6c-0.4,0-0.6-0.1-0.7-0.2c0-1.1,0-2.1,0.1-3.1v-2.1c0-0.9-0.1-1.4-0.1-1.6L170.9,13.2z M172.1,1
	c0.9,0.5,1.3,1,1.3,1.6c0,0.5-0.2,0.8-0.4,1c-0.1,0.1-0.4,0.2-0.7,0.2c-0.4,0-0.7-0.3-0.8-1c-0.2-0.6-0.4-1-0.5-1.3
	s-0.4-0.5-0.7-0.9c0-0.1,0.1-0.1,0.2-0.2C171.2,0.6,171.7,0.8,172.1,1z M173.7,17.5v-3.7h-2.4v3.7H173.7z M176.8,10.9
	c-0.2-0.3-0.3-0.7-0.4-1c0.6,0.2,1.3,0.2,2.2,0.2h4.3c0.6-0.6,1-0.9,1.3-1c0.2,0,0.5,0.2,1,0.7c0.6,0.5,0.9,0.8,0.9,1
	s-0.4,0.4-1,0.7c-0.5,1.7-1.3,3.1-2.4,4.2c1.5,0.9,3.2,1.4,5.1,1.7c0,0.1,0,0.3,0,0.5c-0.2,0-0.4,0.1-0.7,0.2
	c-0.2,0.2-0.4,0.5-0.6,0.9c-0.1,0.3-0.3,0.5-0.4,0.5c-1.1-0.3-2.5-1.1-4.2-2.4c-0.1-0.1-0.2-0.2-0.3-0.3c-1.5,1.2-3.5,2.1-5.8,2.8
	c-0.1-0.1-0.1-0.2-0.2-0.3c2.1-1,3.8-2.1,5-3.4c-1-1.3-2-3-2.7-5.1C177.4,10.8,177,10.8,176.8,10.9z M180.1,2.1h1.7
	c0.6-0.7,1-1,1.1-1s0.4,0.2,0.9,0.6s0.8,0.6,0.8,0.8c0,0.1-0.1,0.2-0.2,0.3c-0.2,0.1-0.4,0.3-0.6,0.4V6c0,0.6,0.3,0.9,0.7,0.9
	c0.5,0,0.8-0.1,0.9-0.4c0.2-0.3,0.3-0.5,0.3-0.5c0.2,0,0.4,0.1,0.6,0.3c0.5,0.4,0.8,0.8,0.8,1c0,0.5-0.6,0.8-1.8,0.9
	c-0.5,0-1,0-1.4,0c-1.3,0-2-0.6-2-1.8V2.5H180c0,1.2,0,2-0.1,2.4c-0.2,2.2-1.5,3.7-3.9,4.4c-0.1-0.1-0.1-0.2-0.2-0.3
	c0.7-0.5,1.2-1,1.5-1.6c0.6-0.5,0.9-2,0.9-4.3c0-0.9,0-1.6-0.1-2.1L180.1,2.1z M183.1,10.7h-4.5c-0.1,0-0.3,0-0.4,0
	c1.1,2.1,2.1,3.4,3,4.2C182.3,13.6,182.9,12.3,183.1,10.7z"/>
<path class="st0" d="M198.2,3.2c0,0.2-0.5,0.4-1.5,0.5c-0.7,1.5-1.6,2.9-2.7,4.2c-1.2,1.6-2.5,2.8-4,3.9c0,0-0.1-0.1-0.3-0.3
	c2.8-3.3,4.5-6.5,5.1-9.7C197.1,2.4,198.2,2.9,198.2,3.2z M200.4,9.3c0,0.2-0.5,0.4-1.5,0.5c-0.6,1.3-1.2,2.6-2,3.7
	c-0.7,1-1.4,1.9-2.1,2.6c3.1,0,6-0.1,8.8-0.2c-0.7-1.6-1.5-3-2.4-4c0,0,0.1-0.1,0.3-0.2c3.2,2.2,4.9,4.2,4.9,6c0,0.6-0.2,1-0.5,1.2
	c-0.2,0.1-0.4,0.2-0.6,0.2c-0.5,0-0.8-0.7-1.2-1.9c-0.1-0.3-0.2-0.6-0.3-0.9c-2.5,0.8-6.1,1.5-10.9,1.9c0,0.8-0.2,1.2-0.4,1.2
	c-0.1,0-0.5-0.6-0.9-1.7c-0.3-0.7-0.4-1.2-0.5-1.6c1,0,2,0,3,0c1.8-2.8,2.8-5.5,3.2-8.2C199.3,8.5,200.4,9,200.4,9.3z M203.7,2.3
	c0,0.2-0.2,0.4-0.7,0.4c-0.3,0.1-0.5,0.1-0.6,0.3c0,0.8,0.5,1.8,1.4,3.1c1.3,1.7,2.8,2.8,4.5,3.3c0,0.2-0.1,0.4-0.1,0.4
	c-0.5,0-0.8,0.1-1,0.4c-0.3,0.8-0.5,1.1-0.7,1.1c-0.6-0.1-1.4-0.8-2.4-2.3c-1.3-1.8-2.2-4-2.7-6.7h-1.3c-0.8,0-1.3,0-1.6,0.1
	c-0.1-0.3-0.3-0.6-0.4-0.9c0.4,0.1,1,0.2,1.7,0.2h1c0.5-0.7,0.9-1,1.1-1C203.1,1.6,203.7,2.1,203.7,2.3z"/>
<path class="st0" d="M228,1.6c0.5,0.3,0.7,0.6,0.7,0.8c0,0.1-0.2,0.4-0.7,0.6l-0.3,0.3v13.4c0,1.5-0.9,2.5-2.6,2.9
	c-0.3,0-0.4-0.2-0.5-0.5c-0.2-0.5-0.6-1-1.4-1.3c-0.2-0.1-0.7-0.3-1.5-0.6c0,0,0-0.2,0-0.4c0.2,0.1,1.4,0.1,3.4,0.2
	c0.4,0,0.6-0.2,0.6-0.6V2.6h-10.8c-1.4,0-2.6,0-3.4,0.1c-0.1-0.3-0.3-0.6-0.4-0.9c0.6,0.2,1.9,0.3,3.9,0.3h10.3
	c0.6-0.9,1-1.3,1.2-1.3C227,0.9,227.4,1.2,228,1.6z M222.7,4.6c0.9,0.8,1.3,1.2,1.3,1.4s-0.1,0.3-0.2,0.3h-8.4
	c-1.6,0-2.5,0.1-2.9,0.3c-0.1-0.4-0.3-0.7-0.5-1.1c0.6,0.1,1.6,0.2,3,0.2h5.7c0.6-0.8,1.1-1.3,1.4-1.4c0,0,0.1,0,0.2,0
	C222.3,4.3,222.5,4.4,222.7,4.6z M215.1,9h4.7c0.5-0.7,0.9-1,1.1-1c0.2,0,0.6,0.2,1.1,0.6c0.5,0.4,0.8,0.7,0.8,0.8s-0.1,0.3-0.3,0.4
	c-0.3,0.2-0.5,0.4-0.5,0.5V13c0.1,1,0.1,1.7,0.1,2c0,0.5-0.4,0.7-1.1,0.7c-0.5,0-0.8-0.1-0.9-0.4v-1.2h-5v1.5
	c-0.1,0.4-0.5,0.6-1.2,0.6c-0.4,0-0.7-0.1-0.8-0.2c0-1.3,0-2.5,0.1-3.7V9.9c0-1-0.1-1.6-0.1-1.8L215.1,9z M220.1,13.7V9.5h-5v4.2
	H220.1z"/>
<path class="st0" d="M11.8,42c0,0.2-0.1,0.3-0.4,0.3c-0.4,0.2-0.6,0.3-0.6,0.4v0.9H14c0.6-0.7,1-1.2,1.3-1.3c0,0,0.1,0,0.2,0
	c0.1,0.1,0.3,0.2,0.5,0.3c0.8,0.7,1.2,1.1,1.2,1.3s-0.1,0.3-0.2,0.3h-6.1v3.1h5.3c0.6-0.8,1.1-1.3,1.4-1.4c0,0,0.1,0,0.2,0
	c0.2,0.1,0.3,0.2,0.5,0.3c0.9,0.8,1.3,1.2,1.3,1.4s-0.1,0.3-0.2,0.3H5.6c-2.5,0-4.1,0.1-4.7,0.2c-0.1-0.4-0.3-0.7-0.5-1.1
	c1,0.1,2.8,0.2,5.4,0.2h3.1v-3.1H6.5c-1.9,0-3.1,0.1-3.5,0.2c-0.1-0.4-0.3-0.7-0.5-1.1c0.8,0.1,2.1,0.2,3.9,0.2h2.5v-0.2
	c0-0.9,0-1.7-0.1-2.2C10.8,41.5,11.8,41.8,11.8,42z M3.5,31h4.3c0.5-0.7,0.8-1.1,1-1.2h0.1c0.1,0,0.4,0.2,0.8,0.5
	c0.5,0.5,0.8,0.8,0.8,0.9c0,0.2-0.1,0.3-0.1,0.3H7.3v2.4h0.8c0.5-0.6,0.8-0.9,1-1c0.2,0,0.5,0.2,1,0.5c0.4,0.3,0.7,0.6,0.7,0.7
	s-0.1,0.2-0.3,0.3c-0.3,0.2-0.4,0.3-0.5,0.4v1.6c0,0.6,0.1,1,0.1,1.2c0,0.4-0.3,0.6-0.9,0.6c-0.5,0-0.7-0.1-0.7-0.3v-0.4H7.4v2.7H8
	c0.5-0.7,0.8-1.1,1-1.2h0.1c0.1,0,0.4,0.2,0.8,0.6c0.5,0.5,0.8,0.8,0.8,0.9c0,0.2-0.1,0.3-0.1,0.4H3.8v0.7c-0.1,0.4-0.4,0.6-1.1,0.6
	c-0.4,0-0.6-0.1-0.7-0.2c0-1.8,0-3.7,0.1-5.4V33c0-1.5-0.1-2.4-0.1-2.7L3.5,31z M5.6,31.6H3.7V34h1.9V31.6z M8.3,37.1v-2.5H3.6v2.5
	H8.3z M5.5,40.3v-2.7H3.6v2.7H5.5z M18.3,30.5c0.5,0.5,0.8,0.8,0.8,1c0,0.1-0.1,0.2-0.3,0.3c-0.5,0.1-0.7,0.2-0.8,0.4
	c-0.7,2-1.7,3.8-2.8,5.3c0.6,0.7,1.2,1.2,1.9,1.6c0.8,0.5,1.4,0.8,1.9,1c0,0.1,0,0.3-0.1,0.4c-0.2,0-0.4,0.1-0.5,0.2
	c-0.2,0.2-0.4,0.4-0.5,0.8c-0.2,0.3-0.3,0.5-0.4,0.5c-0.2,0-0.5-0.2-0.9-0.5c-1-0.7-1.8-1.6-2.4-2.7c-0.9,0.9-1.9,1.7-3,2.4
	c-0.1-0.1-0.1-0.2-0.2-0.3c0.9-0.9,1.8-2,2.6-3.3c-0.8-1.6-1.4-3.6-1.7-6c-0.4,0-0.7,0.1-0.9,0.1c-0.2-0.5-0.3-0.8-0.4-1
	c0.7,0.2,1.5,0.3,2.6,0.3H16c0.6-0.8,1-1.1,1.2-1.1C17.4,29.9,17.8,30.1,18.3,30.5z M14.4,36.4c0.9-1.6,1.5-3.3,1.9-4.9h-3
	c-0.3,0-0.6,0-0.8,0C12.8,33.4,13.5,35.1,14.4,36.4z"/>
<path class="st0" d="M28.1,33.8c0.7,0.7,1.2,1.1,1.2,1.3s-0.1,0.3-0.2,0.3h-2.9v3.7c1-0.2,1.9-0.5,2.6-0.8c0,0,0.1,0.1,0.1,0.2
	c-0.8,0.7-1.7,1.3-2.8,1.9v5.9c0,1.8-0.8,2.6-2.2,2.6c-0.2,0-0.4-0.1-0.4-0.4c0-0.4-0.3-0.7-0.6-1c-0.3-0.2-0.6-0.4-1.1-0.5
	c0-0.1,0.1-0.2,0.1-0.3c0.3,0,1.1,0,2.2,0c0.2,0,0.3-0.2,0.3-0.6v-4.9c-0.5,0.2-1,0.4-1.6,0.6c0,0.4-0.1,0.7-0.2,0.7
	s-0.3-0.2-0.5-0.6c-0.2-0.4-0.5-1.1-0.9-2c1.2-0.1,2.2-0.2,3.2-0.4v-4.1h-0.7c-0.9,0-1.6,0.1-2,0.2c-0.1-0.3-0.2-0.5-0.3-0.8
	c0.4,0.1,1.2,0.1,2.3,0.1h0.7v-2.4c0-1.2-0.1-2.1-0.1-2.7c1.7,0.3,2.7,0.6,2.9,0.8c0,0.1-0.1,0.2-0.1,0.2c-0.1,0.1-0.3,0.1-0.5,0.2
	s-0.3,0.2-0.3,0.3V35h0.3c0.3-0.4,0.6-0.8,0.9-1.1c0.1-0.1,0.2-0.2,0.2-0.2C27.8,33.5,27.9,33.6,28.1,33.8z M40.2,40.1
	c0.3,0.3,0.5,0.5,0.5,0.7s-0.1,0.3-0.3,0.3h-3.2v5.5c0,1.1-0.8,1.9-2.4,2.3c-0.2,0-0.3-0.2-0.3-0.4c-0.1-0.4-0.4-0.8-1-1.2
	c-0.5-0.3-0.9-0.4-1.3-0.5c0-0.1,0.1-0.3,0.1-0.3c0.8,0.1,1.7,0.1,2.7,0.1c0.3,0,0.4-0.2,0.4-0.5v-5H30c-0.7,0-1.4,0-2.1,0.1
	c-0.2-0.3-0.4-0.6-0.5-1c0.7,0.2,1.5,0.2,2.3,0.2h5.4c0-1.2-0.1-2.1-0.1-2.8c0.5,0.1,1,0.2,1.6,0.4c0.7,0.1,1.2,0.2,1.3,0.3
	c0.1,0,0.2,0.1,0.2,0.3c0,0.1-0.2,0.3-0.7,0.4c-0.2,0.1-0.3,0.1-0.3,0.2v1.3h0.5c0.7-0.8,1.1-1.3,1.2-1.4c0.1,0,0.1,0,0.1,0
	C39.2,39.1,39.5,39.4,40.2,40.1z M37.9,31.9c0.8,0.8,1.3,1.2,1.4,1.5c0,0.2-0.1,0.3-0.2,0.3h-4.9v3.2h2.6c0.4-0.5,0.7-1,1.1-1.4
	c0.1-0.1,0.2-0.2,0.3-0.2s0.3,0.1,0.5,0.3c0.9,0.8,1.4,1.3,1.6,1.6c0,0.2-0.1,0.3-0.2,0.3h-10c-0.9,0-1.5,0.1-2,0.2
	c-0.1-0.3-0.2-0.5-0.3-0.9c0.4,0.1,1.2,0.1,2.3,0.1h2.3v-3.2h-1.6c-0.9,0-1.6,0.1-2,0.2c-0.1-0.3-0.2-0.5-0.3-0.8
	c0.4,0.1,1.2,0.1,2.3,0.1h1.6v-1c0-0.9,0-1.7-0.1-2.2c2,0.3,3,0.5,3,0.8c0,0.2-0.1,0.3-0.4,0.3c-0.4,0.2-0.6,0.3-0.6,0.4v1.7h1.9
	c0.3-0.5,0.7-0.9,1-1.3c0.1-0.1,0.2-0.2,0.3-0.2C37.5,31.6,37.7,31.7,37.9,31.9z M31.2,42.5c0.9,0.5,1.3,1.2,1.3,2
	c0,0.5-0.1,0.8-0.4,0.9c-0.1,0.1-0.4,0.2-0.7,0.2c-0.5,0-0.8-0.4-0.9-1.2c-0.2-0.7-0.4-1.2-0.6-1.6c-0.2-0.3-0.4-0.5-0.6-0.8
	c0-0.1,0.1-0.1,0.2-0.2C30.2,42,30.8,42.2,31.2,42.5z"/>
<path class="st0" d="M52.6,31.7c0.9,0.8,1.3,1.2,1.4,1.5c0,0.2-0.1,0.3-0.2,0.3h-4.5c-0.9,1.5-2.2,2.9-3.8,4c0.4,0,0.8,0.1,1.2,0.1
	c0.8,0,1.6,0,2.3,0c0.5-0.8,0.9-1.6,1.3-2.5c1.7,0.8,2.6,1.3,2.6,1.6c0,0.1-0.1,0.1-0.2,0.2c-0.1,0-0.3,0.1-0.5,0.1
	c-0.3,0-0.5,0-0.7,0c-1.8,3-4.7,5.4-8.5,7.1c-0.1-0.1-0.1-0.1-0.2-0.2c2.4-1.6,4.3-3.5,5.7-5.6c-1.3,0.5-2.7,0.8-4.3,0.9
	c-0.1,0.3-0.2,0.5-0.4,0.5c-0.1,0-0.1-0.2-0.3-0.6c-0.2-0.7-0.3-1.3-0.4-1.8c0.4,0.1,0.9,0.2,1.5,0.3c0.9-1.2,1.6-2.5,2-3.9h-1.9
	c-0.9,0-1.5,0.1-2,0.2c-0.1-0.3-0.2-0.5-0.3-0.8c0.4,0.1,1.2,0.1,2.3,0.1h5.9c0.3-0.5,0.7-0.9,1-1.3c0.1-0.1,0.2-0.2,0.3-0.2
	C52.2,31.5,52.4,31.6,52.6,31.7z M54.3,40.6c0,0.1-0.1,0.2-0.2,0.2c-0.1,0.1-0.3,0.1-0.5,0.1c-0.4,0-0.6,0-0.8,0
	c-0.8,1.2-1.6,2.2-2.6,3.2c2.4,0.9,3.6,1.8,3.7,3c0,0.5-0.1,0.9-0.3,1.1c-0.2,0.2-0.4,0.3-0.6,0.3c-0.3,0-0.7-0.5-1.1-1.4
	c-0.5-1-1.2-1.8-2-2.6c-1.9,1.8-4.2,3.3-7,4.5c-0.1-0.1-0.1-0.2-0.2-0.3c4.1-2.7,7-5.9,8.7-9.7C53.4,39.8,54.3,40.3,54.3,40.6z
	 M49.3,31.5c0,0.3,0,0.5-0.1,0.7c-0.2,0.4-0.4,0.6-0.8,0.6c-0.3,0-0.7-0.4-1.3-1.1c-0.5-0.7-1.1-1.3-1.8-1.8c0.1,0,0.1-0.1,0.1-0.3
	C48,29.9,49.3,30.5,49.3,31.5z M56.6,32.1c0.5,0.1,0.7,0.2,0.7,0.4c0,0.1-0.1,0.2-0.3,0.3c-0.3,0.1-0.5,0.2-0.5,0.3V40
	c0,2,0,3.5,0.1,4.3c0,0.3-0.4,0.5-1.2,0.5c-0.4,0-0.6-0.1-0.6-0.4c0-0.7,0.1-2.2,0.1-4.5v-6.3c0-0.6-0.1-1.2-0.2-1.7
	C55.2,32,55.9,32,56.6,32.1z M61.4,30.7c0,0.1-0.1,0.2-0.2,0.2C61,31,60.9,31,60.7,31.2c-0.2,0.1-0.3,0.2-0.3,0.3V46
	c0,1.9-0.8,2.8-2.3,2.8c-0.3,0-0.4-0.1-0.4-0.4c-0.1-0.4-0.3-0.8-0.8-1.1c-0.3-0.3-0.8-0.4-1.4-0.6c0-0.1,0.1-0.2,0.1-0.3
	c0.4,0,1.3,0,2.5,0c0.2,0,0.4-0.2,0.4-0.6V32.5c0-1.2-0.1-2.1-0.2-2.6C60.2,30.1,61.3,30.4,61.4,30.7z"/>
<path class="st0" d="M73.9,30.9c0.5,0.4,0.7,0.7,0.7,0.8c0,0.1-0.1,0.2-0.3,0.3c-0.1,0.1-0.3,0.2-0.5,0.4v0.7h0.5
	c0.5-0.6,0.8-0.9,0.9-0.9s0.3,0.2,0.6,0.5c0.3,0.3,0.4,0.5,0.5,0.7c0,0.2-0.1,0.3-0.3,0.3h-2.2v0.7c0.1,0.5,0.1,0.9,0.1,1.2
	s-0.4,0.5-1.2,0.6c-0.4,0-0.6-0.1-0.6-0.4H70v1.4h2.7c0.5-0.6,0.9-0.9,1.1-0.9c0.1,0,0.4,0.2,0.7,0.5c0.4,0.3,0.6,0.5,0.6,0.7
	s-0.1,0.3-0.3,0.3H70V39h3.6c0.5-0.7,0.9-1,1.1-1c0.1,0,0.4,0.2,0.7,0.6c0.4,0.4,0.6,0.6,0.6,0.7c0,0.2-0.1,0.3-0.3,0.3H67
	c-2,0-3,0.1-3,0.2c-0.1-0.3-0.3-0.6-0.4-1.1c0.3,0.1,1.4,0.2,3.3,0.3h1.6v-1.2h-0.2c-2,0-3.1,0.1-3.1,0.2c-0.1-0.3-0.3-0.6-0.4-1.1
	c0.3,0.1,1.4,0.2,3.2,0.3h0.5v-1.4c-1.5,0-2.7,0.1-3.6,0.2c-0.2-0.3-0.3-0.6-0.4-0.9c0.5,0.1,1.8,0.1,3.9,0.1v-1.5h-1.2
	c-2,0-3,0.1-3,0.2c-0.1-0.3-0.3-0.6-0.4-1.1c0.3,0.1,1.4,0.2,3.3,0.3h1.4v-1.3h-0.4c-1.4,0-2.4,0.1-3.1,0.2
	c-0.1-0.3-0.2-0.5-0.3-0.8c0.5,0.1,1.7,0.1,3.5,0.1h0.3c0-0.8-0.1-1.4-0.1-1.8c1.8,0.3,2.8,0.5,2.8,0.7s-0.1,0.3-0.3,0.3
	c-0.4,0.2-0.6,0.3-0.6,0.4v0.4h1.9c0.5-0.6,0.9-0.9,1.1-0.9C73.1,30.4,73.4,30.6,73.9,30.9z M75.7,46.4c-2.8,0.9-6.4,1.5-10.6,1.7
	c-0.1,0.6-0.3,1-0.5,1s-0.3-0.4-0.5-1.1c-0.2-0.7-0.3-1.3-0.4-1.7c0.8,0.1,2,0.2,3.6,0.2c4.3,0,7.1-0.2,8.3-0.4
	C75.6,46.2,75.6,46.3,75.7,46.4z M66.1,40.8h6.1c0.5-0.5,0.8-0.7,1-0.8c0.2,0,0.5,0.2,1,0.6c0.5,0.4,0.7,0.6,0.7,0.8
	c0,0.1-0.1,0.3-0.3,0.4c-0.3,0.2-0.5,0.4-0.5,0.4V44c0.1,0.7,0.1,1.1,0.1,1.3c0,0.4-0.3,0.7-1,0.7c-0.5,0-0.8-0.1-0.8-0.4v-0.2h-5.9
	v0.1c-0.1,0.4-0.4,0.6-1,0.6c-0.4,0-0.6-0.1-0.7-0.2c0-0.9,0-1.8,0.1-2.6v-1.7c0-0.7-0.1-1.2-0.1-1.3L66.1,40.8z M68.5,42.7v-1.4h-2
	v1.4H68.5z M68.5,44.9v-1.6h-2v1.6H68.5z M70,33.1h2.1v-1.3H70V33.1z M70,33.8v1.5h2.1v-1.5H70z M70.4,42.7h2.1v-1.4h-2.1V42.7z
	 M70.4,44.9h2.1v-1.6h-2.1V44.9z M78.3,31.7c0.5,0.1,0.7,0.2,0.7,0.4c0,0.1-0.1,0.2-0.3,0.2c-0.4,0.1-0.5,0.2-0.5,0.3v7.1
	c0,2,0.1,3.5,0.1,4.3c0,0.3-0.4,0.5-1.2,0.5c-0.4,0-0.6-0.1-0.6-0.4c0-0.7,0-2.2,0.1-4.5v-6.5c0-0.6-0.1-1.2-0.2-1.7
	C76.9,31.5,77.6,31.6,78.3,31.7z M82.6,30.5c0,0.1-0.1,0.2-0.1,0.2c-0.1,0.1-0.3,0.1-0.5,0.2s-0.3,0.2-0.3,0.3V46
	c0,1.8-0.7,2.6-2.1,2.6c-0.3,0-0.5-0.1-0.5-0.4c-0.1-0.4-0.4-0.7-0.9-1c-0.3-0.3-0.9-0.4-1.5-0.5c0-0.1,0.1-0.2,0.1-0.3
	c0.5,0,1.4,0,2.8,0c0.2,0,0.3-0.2,0.3-0.6V32.3c0-1.2-0.1-2.1-0.2-2.7C81.5,30,82.4,30.3,82.6,30.5z"/>
<path class="st0" d="M95.6,41.4c-0.2,0.2-0.4,0.3-0.6,0.3c-0.3,0-0.5-0.1-0.7-0.4c0,0-0.1-0.2-0.4-0.7c-0.5-0.9-1-1.6-1.7-2.3
	c-0.2-0.1-0.3-0.3-0.5-0.4c-0.3-0.2-0.4-0.4-0.4-0.5c0-0.2,0.1-0.3,0.3-0.3c0.6,0,1.4,0.4,2.5,1.2c1.1,0.9,1.7,1.7,1.7,2.5
	C95.9,41,95.8,41.2,95.6,41.4z"/>
<path class="st0" d="M123.8,33.5c0.4,0.4,0.7,0.7,0.7,0.8c0,0.2-0.1,0.3-0.1,0.4h-2.7v3.5h0.3c0.5-0.8,0.9-1.2,1-1.2
	s0.4,0.3,0.9,0.8c0.4,0.4,0.6,0.7,0.6,0.8c0,0.2-0.1,0.3-0.2,0.3h-2.7v3.4h0.3c0.5-0.7,0.9-1,1-1.1c0.1,0,0.4,0.3,0.9,0.7
	c0.4,0.4,0.6,0.6,0.6,0.7c0,0.2-0.1,0.3-0.2,0.3h-2.7V47h0.4c0.5-0.8,0.9-1.3,1-1.3s0.4,0.3,0.9,0.8c0.4,0.5,0.6,0.7,0.6,0.8
	c0,0.2-0.1,0.3-0.1,0.3h-6.1v0.3c0,0.3,0,0.5,0,0.8s-0.3,0.5-1,0.5c-0.5,0-0.7-0.1-0.8-0.3V37.1c-0.3,0.6-0.6,1.2-1,1.7
	c-0.1,0-0.2,0-0.3-0.1v7.9c0,1.3-0.8,2-2.3,2.3c-0.1,0-0.2-0.1-0.3-0.4c-0.1-0.5-0.4-0.9-0.8-1.1c-0.5-0.3-0.9-0.5-1-0.5
	c0,0,0-0.1,0-0.3c0.6,0.1,1.3,0.1,2.3,0.1c0.3,0,0.4-0.1,0.4-0.4V31.7h-5.6v4.1c0,3.5-0.1,5.8-0.3,7.1c-0.1,0.9-0.3,1.8-0.5,2.8
	c-0.5,1.5-1,2.6-1.8,3.3c-0.1,0-0.2-0.1-0.2-0.2c0.8-2.1,1.2-5.9,1.2-11.5v-4.5c0-0.9,0-1.7-0.1-2.3l1.6,0.6h5.6
	c0.4-0.5,0.7-0.9,0.9-1c0.2,0,0.5,0.2,0.9,0.5c0.5,0.3,0.8,0.6,0.8,0.8c0,0.1-0.1,0.3-0.4,0.4c-0.2,0.2-0.4,0.3-0.4,0.4v6
	c1-2.6,1.7-5.4,2.1-8.3c1.7,0.7,2.6,1.1,2.6,1.3c0,0.2-0.4,0.3-1,0.4c-0.3,0.9-0.6,1.9-1,2.8h4.1c0.5-0.6,0.8-1,1-1.1h0.1
	C123.2,33,123.5,33.2,123.8,33.5z M112.3,32.6c0,0.1-0.1,0.3-0.3,0.3c-0.3,0.1-0.4,0.2-0.4,0.3v1.3h0.3c0.4-0.6,0.6-0.9,0.8-0.9
	c0.1,0,0.2,0.2,0.4,0.5c0.3,0.4,0.4,0.7,0.4,0.8s-0.1,0.2-0.1,0.2h-1.7v2.1h0.2c0.4-0.7,0.7-1,0.8-1c0.1,0,0.2,0.2,0.4,0.5
	c0.3,0.4,0.4,0.7,0.4,0.8s-0.1,0.2-0.1,0.2h-1.8v1.5c0,0.3-0.3,0.5-0.9,0.5c-0.4,0-0.5-0.1-0.5-0.3c0-0.5,0-1.1,0-1.7
	c-0.7,0-1.2,0.1-1.4,0.1c-0.1-0.1-0.2-0.4-0.3-0.8c0.2,0,0.6,0.1,1.2,0.1h0.5c0-0.7,0-1.4,0-2.1c-0.7,0-1.2,0.1-1.4,0.2
	c-0.1-0.1-0.2-0.4-0.3-0.8c0.2,0,0.6,0.1,1.2,0.1h0.6V33c0-0.3-0.1-0.7-0.1-0.9C111.4,32.2,112.1,32.4,112.3,32.6z M110.2,40.3h1
	c0.4-0.5,0.6-0.7,0.8-0.7c0.1,0,0.4,0.2,0.8,0.5s0.5,0.5,0.5,0.6s-0.1,0.2-0.2,0.3c-0.3,0.2-0.4,0.3-0.4,0.3v2.2
	c0,0.8,0.1,1.4,0.1,1.6c0,0.3-0.3,0.5-0.8,0.5c-0.4,0-0.6-0.1-0.6-0.3v-0.7h-1.1v0.9c-0.1,0.3-0.3,0.4-0.8,0.4c-0.3,0-0.5,0-0.5-0.1
	c0-0.9,0-1.8,0.1-2.8v-1.8c0-0.8-0.1-1.2-0.1-1.4L110.2,40.3z M111.4,44.1v-3.2h-1.1v3.2H111.4z M118.4,38.2h1.7v-3.5h-1.7V38.2z
	 M118.4,42.1h1.7v-3.4h-1.7V42.1z M118.4,46.8h1.7v-4.1h-1.7V46.8z M122.1,32.4c0,0.8-0.3,1.2-0.9,1.2c-0.4,0-0.7-0.2-0.7-0.7
	c0-0.1,0-0.2,0-0.3c0-0.2,0-0.4,0-0.6c0-0.7-0.4-1.3-0.9-1.9c0.2,0,0.3-0.1,0.3-0.1C121.3,30.7,122.1,31.5,122.1,32.4z"/>
<path class="st0" d="M133.5,42.2c-1.4,1.3-3.1,2.5-5.2,3.5c-0.1,0.2-0.2,0.5-0.2,0.9c0,0.2-0.1,0.3-0.3,0.3s-0.5-0.5-1-1.6
	c-0.2-0.5-0.4-1-0.6-1.3c0.8-0.1,1.7-0.3,2.5-0.5V38c-1.2,0-1.9,0.1-1.9,0.2c-0.1-0.3-0.3-0.6-0.4-1.1c0.3,0.1,1,0.2,2.3,0.2v-4.9
	h-0.1c-0.9,0-1.6,0.1-2,0.2c-0.1-0.2-0.2-0.5-0.3-0.8c0.4,0.1,1.2,0.1,2.3,0.1h1.6c0.3-0.4,0.6-0.8,1-1.2c0.1-0.1,0.2-0.1,0.3-0.1
	s0.2,0.1,0.4,0.2c0.8,0.7,1.2,1.2,1.3,1.4c0,0.2-0.1,0.3-0.1,0.3h-2.6v5h0.3c0.5-0.8,0.9-1.3,1.1-1.3c0.1,0,0.4,0.2,0.7,0.7
	c0.4,0.4,0.6,0.7,0.6,0.9s-0.1,0.3-0.2,0.3h-2.5v5c0.9-0.3,1.9-0.7,2.8-1.1C133.4,42.1,133.5,42.2,133.5,42.2z M144.1,30.4
	c0.9,0.8,1.3,1.2,1.3,1.4c0,0.2-0.1,0.3-0.2,0.3h-5c-0.1,0.3-0.3,0.4-0.5,0.6c-0.6,0.7-1.3,1.3-2,1.8c1,0.8,1.8,1.8,2.4,3
	c1.1-0.9,2-2.1,2.6-3.4c1.7,0.8,2.5,1.2,2.5,1.5c0,0.2-0.4,0.3-1.2,0.3c-0.6,0.5-1.3,0.9-2,1.2c0.3,1.3,0.7,2.6,1.4,4.1
	c0.6,1,1.3,1.7,2.2,2.2c0,0-0.1,0.1-0.1,0.4c-0.3,0-0.6,0.3-0.8,0.7c-0.1,0.2-0.1,0.4-0.2,0.7c-0.1,0.2-0.2,0.3-0.3,0.3
	c-0.6,0-1.3-1.4-2-4.4c-0.3-1.3-0.4-2.5-0.5-3.7c-0.4,0.2-0.9,0.4-1.3,0.6c0.6,1.6,0.9,3.5,0.9,5.8c-0.1,2.7-0.8,4.3-2.1,4.8
	c-0.4,0.2-0.8,0.3-1.3,0.3c-0.3,0-0.5-0.2-0.7-0.5c-0.1-0.5-0.4-0.9-0.9-1.1c-0.5-0.3-1-0.5-1.6-0.6c0-0.1,0.1-0.2,0.1-0.3
	c0.9,0.3,1.8,0.4,2.7,0.4c1.3,0,2-1,2-2.9c0-0.8,0-1.6-0.1-2.3c-0.6,0.4-1.1,0.8-1.7,1.2c0.1,0.5,0.2,0.9,0.2,1.4s-0.1,0.8-0.3,1
	s-0.4,0.3-0.8,0.3c-0.4,0-0.7-0.6-0.8-1.8c-1.4,0.8-2.8,1.3-4.3,1.8c-0.1,0-0.1-0.1-0.2-0.4c1.6-0.8,3-1.6,4.3-2.7
	c-0.2-0.8-0.3-1.6-0.5-2.3c-0.9,0.4-1.8,0.8-2.7,1c0,0-0.1-0.1-0.2-0.3c1-0.5,1.8-1,2.6-1.6c-0.2-0.6-0.4-1.1-0.7-1.6l0.3-0.2
	c0.4,0.4,0.7,0.9,1,1.2c0.9-0.8,1.7-1.6,2.4-2.6c-0.2-0.5-0.4-0.9-0.7-1.3c-1.1,0.8-2.4,1.4-3.8,2c-0.1-0.1-0.2-0.3-0.3-0.3
	c2.1-1.3,3.5-2.6,4.3-4.1c0-0.1,0.1-0.1,0.1-0.2h-1.1c-1.6,0-2.5,0.1-2.9,0.2c-0.1-0.4-0.3-0.7-0.5-1.1c0.6,0.1,1.6,0.2,3,0.2h5.7
	c0.6-0.8,1.1-1.3,1.4-1.4c0,0,0.1,0,0.2,0C143.8,30.1,143.9,30.3,144.1,30.4z M137.1,41.1c0.7-0.6,1.3-1.3,1.9-2
	c-0.1-0.5-0.2-0.9-0.3-1.3c-0.8,0.6-1.6,1.2-2.5,1.7C136.6,40,136.9,40.6,137.1,41.1z"/>
<path class="st0" d="M158.6,41.4c-0.2,0.2-0.4,0.3-0.6,0.3c-0.3,0-0.5-0.1-0.7-0.4c0,0-0.1-0.2-0.4-0.7c-0.5-0.9-1-1.6-1.7-2.3
	c-0.2-0.1-0.3-0.3-0.5-0.4c-0.3-0.2-0.4-0.4-0.4-0.5c0-0.2,0.1-0.3,0.3-0.3c0.6,0,1.4,0.4,2.5,1.2c1.1,0.9,1.7,1.7,1.7,2.5
	C158.9,41,158.8,41.2,158.6,41.4z"/>
<path class="st0" d="M175.1,30.5c0,0.2-0.1,0.3-0.3,0.3c-0.4,0.2-0.6,0.3-0.6,0.4v1.6h0.9c0.3-0.4,0.6-0.8,0.9-1.1
	c0.1-0.1,0.2-0.1,0.2-0.1s0.2,0.1,0.4,0.2c0.7,0.7,1.2,1.1,1.3,1.3c0,0.2-0.1,0.3-0.2,0.3h-3.5v2.8h1.3c0.3-0.4,0.7-0.8,1-1.2
	c0.1-0.1,0.2-0.2,0.3-0.2s0.2,0.1,0.4,0.2c0.8,0.7,1.2,1.2,1.3,1.4c0,0.2-0.1,0.3-0.2,0.3h-7.5c-0.9,0-1.6,0.1-2,0.1
	c-0.1-0.2-0.2-0.5-0.3-0.8c0.4,0.1,1.2,0.1,2.3,0.1h1.6v-2.8H171c-0.9,0-1.5,0.1-2,0.2c-0.1-0.2-0.2-0.5-0.3-0.8
	c0.4,0.1,1.2,0.1,2.3,0.1h1.4v-0.9c0-0.9,0-1.6-0.1-2.1C174.2,30.1,175.1,30.3,175.1,30.5z M170.8,40.9c-0.9,0-1.6,0.1-2,0.2
	c-0.1-0.3-0.2-0.5-0.3-0.9c0.4,0.1,1.2,0.1,2.3,0.1h3.1c0.5-1,0.9-2.1,1.1-3.3c1.4,0.4,2.2,0.7,2.2,0.9s-0.3,0.3-0.9,0.4
	c-0.4,0.7-1,1.4-1.8,2.1h1.4c0.3-0.4,0.6-0.8,1-1.2c0.1-0.1,0.2-0.2,0.3-0.2s0.2,0.1,0.4,0.2c0.8,0.7,1.2,1.2,1.3,1.4
	c0,0.2-0.1,0.3-0.1,0.3h-4.5v3h1c0.3-0.4,0.6-0.8,1-1.2c0.1-0.1,0.2-0.2,0.2-0.2c0.1,0,0.2,0.1,0.4,0.2c0.8,0.7,1.2,1.2,1.3,1.4
	c0,0.2-0.1,0.3-0.2,0.3h-3.8v1.1c0,0.8,0.1,1.8,0.1,3c0,0.3-0.4,0.4-1.1,0.5c-0.6,0-0.9-0.1-0.9-0.3c0-0.6,0.1-1.7,0.1-3.3v-1h-1.3
	c-0.9,0-1.5,0.1-2,0.2c-0.1-0.3-0.2-0.5-0.3-0.9c0.4,0.1,1.2,0.1,2.3,0.1h1.3v-3L170.8,40.9L170.8,40.9z M171.6,37.4
	c0.8,0.4,1.2,1,1.2,1.6c0,0.4-0.1,0.7-0.4,0.9c-0.1,0.1-0.3,0.2-0.6,0.2c-0.4,0-0.6-0.3-0.7-0.9c-0.2-0.5-0.3-0.9-0.5-1.2
	c-0.1-0.2-0.3-0.5-0.6-0.7c0,0,0.1-0.1,0.2-0.2C170.7,37.1,171.2,37.2,171.6,37.4z M185.5,34.5c0.5,0.4,0.8,0.7,0.8,0.9
	c0,0.1-0.1,0.2-0.3,0.3c-0.3,0.2-0.4,0.3-0.5,0.4c0,1.9-0.1,3.3-0.1,4.3c0,3.2,0.3,4.8,0.7,4.8c0.3,0,0.6-0.6,1-1.9
	c0.1,0.1,0.2,0.1,0.3,0.1c-0.3,1.1-0.4,2-0.4,2.9c0,0.3,0.1,0.5,0.1,0.8c0.2,0.5,0.3,0.8,0.3,1.1s-0.2,0.4-0.6,0.4
	c-1.9-0.2-3-2.7-3.1-7.6v-5.7h-1.8v2.1c0,1.1-0.1,2.1-0.2,3c1.2,0.9,1.8,1.8,1.9,2.6c0,0.4-0.1,0.7-0.4,0.9
	c-0.1,0.1-0.3,0.1-0.4,0.1c-0.5,0-0.9-0.5-1.3-1.4c-0.1-0.1-0.1-0.2-0.2-0.3c-0.8,2.9-2.5,5.1-4.9,6.4c-0.1-0.1-0.2-0.2-0.2-0.2
	c1-0.9,2-2.4,2.8-4.3c0.5-1.1,0.8-2.4,1-3.9c-0.5-0.6-1.1-1.2-1.7-1.6c0,0,0.1-0.1,0.2-0.1c0.6,0.3,1.1,0.6,1.6,0.8
	c0.1-0.9,0.1-1.8,0.2-2.8v-1.2c-0.8,0-1.4,0.1-1.9,0.1c-0.1-0.3-0.2-0.6-0.3-0.9c0.8,0.1,1.5,0.2,2.2,0.2v-3.4
	c0-0.7-0.1-1.3-0.1-1.7c0.8,0.1,1.5,0.3,2,0.4s0.8,0.3,0.8,0.4s-0.1,0.2-0.3,0.3c-0.3,0.1-0.5,0.3-0.6,0.3l-0.1,3.7h1.5
	c0.5-0.6,0.8-1,1-1C184.7,33.9,185,34.1,185.5,34.5z"/>
<path class="st0" d="M207.2,30.9c0.9,0.8,1.3,1.2,1.3,1.4s-0.1,0.3-0.2,0.3h-4.9v1.3c0,0.4-0.4,0.6-1.1,0.6c-0.6,0-0.9-0.1-0.9-0.4
	c0-0.5,0-1,0-1.4h-4.9V34c0,0.4-0.4,0.6-1.1,0.6c-0.6,0-0.9-0.1-0.9-0.4c0-0.5,0-1,0-1.5c-2.4,0-3.9,0.1-4.5,0.3
	c-0.1-0.4-0.3-0.7-0.5-1.1c1,0.1,2.7,0.2,5,0.2v-0.7c0-0.7-0.1-1.3-0.1-1.6c2,0.3,3,0.6,3,0.8c0,0.1-0.1,0.2-0.4,0.4
	c-0.4,0.2-0.6,0.3-0.6,0.4v0.7h5v-0.6c0-0.7-0.1-1.3-0.1-1.6c2,0.3,3,0.6,3,0.8c0,0.1-0.1,0.3-0.4,0.4c-0.4,0.2-0.6,0.3-0.6,0.4v0.7
	h1.7c0.6-0.8,1.1-1.3,1.4-1.4c0,0,0.1,0,0.2,0C206.8,30.6,207,30.7,207.2,30.9z M200,34.3c0,0.2-0.1,0.3-0.3,0.3
	c-0.4,0.2-0.6,0.3-0.6,0.4v0.8h1c0.5-0.6,0.9-1,1.2-1.2h0.1c0.1,0.1,0.3,0.2,0.4,0.3c0.7,0.6,1.1,1,1.1,1.2s-0.1,0.3-0.2,0.3h-3.6
	v2.5h0.8c2.3-1.4,4-2.9,5.3-4.5c1.6,0.7,2.4,1.2,2.4,1.5c0,0.1-0.1,0.2-0.3,0.2h-0.7c-1.1,1-2.2,2-3.5,2.8h2.2
	c0.6-0.7,1-1.1,1.3-1.3h0.2c0.1,0.1,0.3,0.2,0.5,0.3c0.8,0.7,1.2,1.1,1.2,1.3s-0.1,0.3-0.2,0.3H202c-1.6,0.9-3.2,1.7-5,2.3h6.5
	c0.5-0.7,0.9-1,1.1-1c0.2,0,0.5,0.2,1.1,0.6c0.5,0.4,0.8,0.7,0.8,0.8s-0.1,0.3-0.4,0.4c-0.4,0.2-0.6,0.4-0.6,0.5V46
	c0.1,1.1,0.1,1.9,0.1,2.2c0,0.5-0.4,0.7-1.1,0.7c-0.5,0-0.8-0.1-0.8-0.4v-0.7h-7.3v0.5c0,0.3-0.4,0.5-1.2,0.5c-0.6,0-1-0.1-1-0.3
	c0-0.7,0.1-1.8,0.1-3.5v-2.5c-1.5,0.4-3.1,0.7-4.7,0.9c0,0-0.1-0.1-0.1-0.2c3.6-1.1,6.7-2.4,9.2-3.7H195c-2.4,0-3.9,0.1-4.5,0.3
	c-0.1-0.4-0.3-0.7-0.5-1.1c1,0.1,2.7,0.2,5.2,0.2h2.1v-2.5h-2.1c-1.4,0-2.2,0.1-2.5,0.2c-0.1-0.4-0.3-0.7-0.5-1.1
	c0.5,0.1,1.4,0.2,2.7,0.2h2.5v-0.1c0-0.9,0-1.6-0.1-2.1C199.1,33.8,200,34.1,200,34.3z M203.7,44.4v-2.1h-7.3v2.1H203.7z
	 M203.7,47.3V45h-7.3v0.2c0,0.6,0,1.3,0.1,2.1H203.7z"/>
<g>
	<rect y="69.2" class="st1" width="13" height="0.8"/>
</g>
</svg>
