<svg width="121" height="121" viewBox="0 0 121 121" fill="none" xmlns="http://www.w3.org/2000/svg">
<path d="M6.23999 11.3197H2.38V12.4897H1.03003V1.52969H6.23999V11.3197ZM4.90002 5.69968V2.87967H2.38V5.69968H4.90002ZM4.90002 9.9697V6.9697H2.38V9.9697H4.90002ZM7.57996 1.17969H13.91V12.7697C13.91 13.2497 13.77 13.6197 13.52 13.8897C13.28 14.1197 12.9601 14.2297 12.5601 14.2297H10.16L9.87 12.8197L11.97 12.9397C12.27 12.9097 12.4301 12.7097 12.4301 12.3497V9.70969H8.80005C8.68005 10.2597 8.52998 10.7597 8.34998 11.1897C7.90998 12.2797 7.07006 13.3797 5.81006 14.4997L4.57996 13.4497C5.69996 12.6097 6.49997 11.6997 6.96997 10.7097C7.35997 9.91969 7.57007 8.69967 7.57007 7.06967V1.15967L7.57996 1.17969ZM12.4401 8.37967V6.03967H9.05005V7.08969C9.05005 7.55969 9.01999 7.98967 8.98999 8.37967H12.4401ZM12.4401 4.6897V2.52969H9.05005V4.6897H12.4401Z" fill="white"/>
<path d="M29.38 1.4599H35.15V4.6199H33.9401C33.4901 5.3099 33.01 5.8799 32.51 6.3399C33.3 6.7599 34.3201 7.12991 35.5701 7.49991L34.86 8.60989C33.75 8.25989 32.82 7.9099 32.1 7.5499V8.3699H25.65V7.7099C24.84 8.1899 23.82 8.58989 22.61 8.94989L22.02 7.8999C22.86 7.6899 23.59 7.42988 24.24 7.15988C24 6.82988 23.7301 6.49988 23.4301 6.15988C23.2101 6.30988 23 6.4299 22.78 6.5499L21.96 5.55991C23.64 4.71991 24.92 3.7799 25.77 2.7399L26.9401 2.97989C26.7901 3.15989 26.64 3.33991 26.49 3.49991H29.29C29.49 3.73991 29.68 3.97991 29.87 4.18991V3.49991H33.85V2.6199H23.49V4.4899H22.2V1.44989H27.89C27.68 1.22989 27.47 1.01991 27.24 0.809906L28.71 0.649902C28.94 0.889902 29.16 1.1599 29.37 1.4599H29.38ZM26.49 11.5399C25.97 12.1099 25.47 12.5299 24.99 12.8299C24.45 13.2099 23.73 13.5799 22.86 13.9399L22.16 12.7699C22.8 12.5899 23.42 12.3199 24.02 11.9599C24.47 11.6899 24.93 11.3499 25.38 10.8899L26.49 11.5299V11.5399ZM35.28 9.31989V10.5499H29.54V13.0099C29.54 13.4799 29.42 13.7999 29.2 13.9899C28.99 14.1999 28.6 14.2999 28.03 14.2999H26.74L26.5 13.0099C26.97 13.0899 27.35 13.1299 27.67 13.1299C28.02 13.1299 28.2 13.0299 28.2 12.8299V10.5499H22.23V9.31989H35.29H35.28ZM25.13 6.75989C25.37 6.63989 25.58 6.49988 25.78 6.34988C25.81 6.33988 25.82 6.31991 25.84 6.30991C25.53 5.97991 25.15 5.61991 24.73 5.24991C24.55 5.39991 24.3701 5.54989 24.1901 5.66989C24.5501 6.05989 24.86 6.4199 25.13 6.7699V6.75989ZM26.5701 5.69989C26.9001 5.36989 27.24 4.9899 27.6 4.5799H25.49C25.49 4.5799 25.42 4.64989 25.38 4.66989C25.83 5.02989 26.2401 5.36989 26.5701 5.69989ZM31.46 7.2099C31.28 7.1199 31.13 7.00988 30.98 6.90988C30.23 6.38988 29.52 5.66991 28.83 4.74991C28.04 5.82991 27.2401 6.6499 26.4301 7.2099H31.45H31.46ZM31.55 5.7699C31.94 5.4399 32.3 5.04989 32.65 4.56989H30.23C30.7 5.07989 31.13 5.4699 31.55 5.7699ZM35.28 12.8299L34.52 13.9999C33.35 13.0999 32.17 12.4099 30.95 11.8999L31.6 10.8999C32.93 11.4399 34.16 12.0799 35.29 12.8299H35.28Z" fill="white"/>
<path d="M47.02 2.46976L46.49 2.98975H48.61V4.27975H45.97V4.79974C45.97 5.30974 45.96 5.76975 45.96 6.20975H48.4301C48.3301 10.1397 48.2 12.2497 48.09 12.5797C47.97 13.0597 47.8 13.3997 47.58 13.6097C47.4 13.8497 47.0601 13.9997 46.5601 14.0497C46.1301 14.0497 45.75 14.0197 45.45 13.9897L45.21 12.6997C45.87 12.7897 46.26 12.8197 46.38 12.8197C46.6 12.8197 46.76 12.6897 46.84 12.3997C46.96 12.1897 47.07 10.5598 47.14 7.49976H45.88C45.82 8.45976 45.71 9.30975 45.58 10.0298C45.31 11.4098 44.81 12.7997 44.09 14.2297L42.98 13.2897C43.61 12.1697 44.06 10.9497 44.33 9.64975C44.56 8.59975 44.67 6.97975 44.67 4.80975V4.28973H43.26V2.99976H45.85C45.52 2.45976 45.1 1.90975 44.61 1.30975L45.49 0.489746C46.09 1.15975 46.58 1.81974 47.01 2.47974L47.02 2.46976ZM52.1801 0.87973C52.0301 1.38973 51.88 1.86973 51.72 2.28973H56.76V3.57974H51.11C51.05 3.67974 50.99 3.77973 50.95 3.84973C50.65 4.35973 50.3 4.83975 49.92 5.27975H50.85V6.53973L52.26 6.14975V4.10974H53.49V5.80975L56.41 4.99976C56.41 7.63976 56.35 9.22974 56.26 9.76974C56.14 10.1297 55.99 10.3697 55.78 10.4897C55.52 10.6997 54.9501 10.7897 54.0701 10.7897L53.83 9.44974C54.01 9.51974 54.19 9.54974 54.37 9.54974C54.6 9.54974 54.7801 9.50973 54.9301 9.40973C55.0501 9.33973 55.14 8.43974 55.17 6.72974L53.49 7.19974V12.0097H52.26V7.52975L50.85 7.90973V12.3797C50.85 12.6997 51.0001 12.8497 51.3101 12.8497H54.66C54.96 12.8497 55.1701 12.8098 55.3201 12.6898C55.4901 12.5898 55.61 12.0597 55.67 11.0997L56.9 11.4497C56.75 12.7897 56.54 13.5497 56.26 13.7897C55.99 14.0297 55.53 14.1497 54.85 14.1497H50.86C50.47 14.1497 50.1501 14.0297 49.9301 13.7897C49.6901 13.5397 49.5701 13.1997 49.5701 12.7997V8.26974L48.64 8.52975V7.17975L49.5701 6.92975V5.69974C49.3801 5.89974 49.18 6.07974 48.98 6.25974L48.17 5.13974C48.81 4.51974 49.3701 3.84973 49.8201 3.12973C50.1601 2.58973 50.49 1.79976 50.79 0.749756L52.2 0.929749L52.1801 0.87973Z" fill="white"/>
<path d="M68.8 1.11984C68.39 2.33984 67.9901 3.36984 67.5701 4.20984V14.2998H66.22V6.40982C65.8 6.99982 65.35 7.57984 64.87 8.14984L64.41 6.49985C65.05 5.68985 65.62 4.84983 66.12 3.97983C66.62 3.19983 67.0901 2.07984 67.5701 0.589844L68.8 1.10983V1.11984ZM72.59 0.879822C72.35 1.55982 72.11 2.18983 71.87 2.75983H78.05V4.10983H72.83V6.15982H77.6901V7.50983H72.83V9.78983H77.6901V11.1398H72.83V14.2998H71.42V4.09982H71.27C70.64 5.41982 69.9801 6.50982 69.3201 7.37982L68.26 6.14984C69.52 4.48984 70.48 2.62984 71.14 0.589844L72.59 0.869843V0.879822Z" fill="white"/>
<path d="M87.34 10.7197C87.25 12.1597 87.0701 13.3797 86.8201 14.3697L85.53 13.9497C85.88 12.9197 86.12 11.8097 86.24 10.6197L87.35 10.7197H87.34ZM89.5601 1.05969C89.0501 2.41969 88.48 3.61968 87.87 4.66968C88.32 4.63968 88.75 4.57968 89.17 4.51968C89.5 3.85968 89.82 3.15967 90.15 2.40967L91.38 2.87967C90.3 5.25967 89.1901 7.20969 88.0701 8.70969C88.8401 8.64969 89.48 8.53967 90.02 8.40967C89.89 7.88967 89.7401 7.37969 89.5701 6.86969L90.63 6.50967C90.97 7.46967 91.2901 8.55967 91.5601 9.78967L90.39 10.0797C90.34 9.87968 90.3 9.68969 90.27 9.48969C89.25 9.72969 87.8601 9.92968 86.0601 10.0797L85.71 8.79968C86.04 8.79968 86.35 8.79967 86.65 8.78967C87.28 7.94967 87.9101 6.92968 88.5701 5.69968C87.7501 5.84968 86.85 5.97967 85.87 6.09967L85.58 4.86969C85.85 4.84969 86.14 4.83969 86.42 4.80969C87.12 3.57969 87.74 2.18967 88.26 0.659668L89.55 1.06967L89.5601 1.05969ZM89.39 13.7197L88.16 13.8297C88.13 12.5097 88.04 11.4697 87.92 10.7197L88.97 10.6197C89.18 11.3897 89.31 12.4197 89.39 13.7197ZM91.4301 13.0197L90.26 13.4197C90.06 12.4197 89.8301 11.4297 89.5601 10.4397L90.5601 10.1997C90.9201 11.2297 91.2201 12.1797 91.4301 13.0197ZM98.87 14.4297H97.64V13.5497H93.14V14.4297H91.91V1.24969H98.87V14.4297ZM94.78 6.62967V2.57968H93.15V6.62967H94.78ZM94.78 12.1897V7.97968H93.15V12.1897H94.78ZM96.01 6.62967H97.64V2.57968H96.01V6.62967ZM97.64 12.1897V7.97968H96.01V12.1897H97.64Z" fill="white"/>
<path d="M110.75 0.879669C110.6 1.23967 110.45 1.56968 110.3 1.88968H113.8V3.11969H111.7C111.88 3.53969 112.05 3.98969 112.21 4.45969L110.76 4.57968C110.62 4.03968 110.49 3.55967 110.35 3.12967H109.59C109.17 3.76967 108.69 4.35967 108.18 4.87967L106.95 4.10968C108.12 3.04968 108.93 1.88967 109.41 0.659668L110.76 0.879669H110.75ZM113.96 10.3697H109.28V12.3897C110.24 12.2697 111.24 12.0697 112.28 11.8297C112.1 11.5297 111.92 11.2297 111.74 10.9397L113.03 10.5397C113.63 11.4397 114.15 12.3797 114.6 13.3997L113.31 13.9797C113.16 13.6397 113.02 13.3197 112.89 13.0197C111.18 13.4097 109.34 13.7397 107.34 13.9797L107.16 12.5697C107.43 12.5697 107.72 12.5397 107.98 12.5097V5.02969H113.95V10.3497L113.96 10.3697ZM112.67 7.14969V6.2197H109.28V7.14969H112.67ZM112.67 9.19968V8.14969H109.28V9.19968H112.67ZM116.78 0.879669C116.63 1.23967 116.48 1.56968 116.33 1.88968H120.81V3.11969H118.02C118.23 3.57969 118.41 4.05967 118.59 4.56967L117.12 4.6897C116.99 4.1197 116.84 3.59969 116.67 3.11969H115.62C115.23 3.71969 114.8 4.25969 114.32 4.74969L113.09 3.98969C114.2 2.96969 114.98 1.85967 115.43 0.659668L116.78 0.879669ZM120.17 11.7797C120.17 12.2797 120.05 12.6497 119.81 12.8897C119.6 13.1097 119.31 13.2297 118.94 13.2297H117.31L117.02 11.8297L118.41 11.9397C118.68 11.9297 118.83 11.7297 118.83 11.3597V6.49969H116.25V14.4197H114.9V5.26968H120.16V11.7797H120.17Z" fill="white"/>
<path d="M5.58997 36.7796V38.1296H3.70996V41.1096H5.23999V42.4596H3.70996V45.7896C4.33996 45.5496 4.96004 45.3096 5.54004 45.0396V46.5096C4.15004 47.1696 2.55004 47.7696 0.790039 48.3196L0.380005 46.8496C1.07 46.6696 1.75 46.4596 2.38 46.2496V42.4596H0.790039V41.1096H2.38V38.1296H0.670044V36.7796H5.58997ZM8.80005 36.7196C8.84005 36.4396 8.89005 36.1496 8.93005 35.8496L10.34 36.0196C10.29 36.2696 10.25 36.5096 10.22 36.7196H13.26V39.0096H14.26V40.0596H5.41003V39.0096H8.18005C8.31005 38.6196 8.43004 38.2296 8.54004 37.8296H6.10999V36.7196H8.78003H8.80005ZM13.45 40.8296V43.8096H11.11V44.6296H13.92V45.6796H11.11V46.9096H14.27V47.9596H11.11V49.6096H9.76001V47.9596H5.48999L6.01001 44.6296H9.76001V43.8096H6.01001V40.8296H13.45ZM9.76001 45.6896H7.20996L6.98999 46.9196H9.76001V45.6896ZM12.1 41.8196H7.35999V42.8096H12.1V41.8196ZM11.92 39.0096V37.8296H9.96997C9.84997 38.2496 9.72997 38.6596 9.58997 39.0096H11.91H11.92Z" fill="white"/>
<path d="M25.55 36.5996V35.8496H26.89V36.5996H28.48V37.6596H26.89V38.0696H25.55V37.6596H21.74V36.5996H25.55ZM25.0701 38.5896V38.1896H26.3V38.5896H28.65V39.4096H26.3V39.9296H29.12V40.8196H27.77V40.9796C27.77 41.1396 27.9101 41.2196 28.1801 41.2196H29.0601V41.9196H27.95C27.56 41.9196 27.26 41.8796 27.05 41.7596C26.82 41.6596 26.72 41.4696 26.72 41.2196V40.8196H24.62C24.53 41.2196 24.37 41.5496 24.1 41.8196C23.98 41.9396 23.86 42.0596 23.71 42.1496H25.02V41.3396H26.3101V42.1496H28.42V42.9696H26.3101V43.5196C27.1801 43.4796 27.99 43.4196 28.72 43.3296V44.1396C27.49 44.3396 25.36 44.5196 22.33 44.6696L22.21 43.6796C23.2 43.6796 24.15 43.6496 25.02 43.5996V42.9696H23.21V42.4496C22.98 42.5496 22.75 42.6596 22.5 42.7496L21.92 41.8096C22.5 41.6596 22.94 41.4996 23.21 41.2896C23.39 41.1696 23.51 41.0196 23.59 40.8196H22.11V39.9296H25.09V39.4096H22.5701V38.5896H25.09H25.0701ZM35.45 46.2696V47.2596H33.0701C33.7801 47.8396 34.3901 48.4596 34.9301 49.1296L33.74 49.6596C33.59 49.4496 33.4401 49.2696 33.3101 49.1096C31.1701 49.2396 27.64 49.3796 22.74 49.4996L22.5601 48.3896C23.1901 48.3896 23.81 48.3696 24.4 48.3696C24.76 48.0096 25.06 47.6496 25.29 47.2596H21.97V46.2696H35.45ZM33.92 44.7996V45.7496H23.62V44.7996H33.92ZM31.76 47.4996L32.54 47.2596H26.95C26.74 47.6396 26.45 47.9896 26.11 48.3396C28.48 48.3096 30.59 48.2496 32.49 48.1896C32.25 47.9496 32.01 47.7096 31.77 47.4996H31.76ZM30.9401 39.3596V38.4196H32.05V39.3596H34.16V42.6396C34.24 43.0796 34.32 43.2896 34.45 43.2896C34.58 43.2896 34.68 42.8196 34.75 41.8796L35.58 42.5196C35.4 43.5596 35.22 44.1396 35.04 44.2896C34.85 44.4896 34.62 44.5696 34.35 44.5696C33.99 44.5696 33.7 44.4696 33.52 44.2396C33.24 43.9396 33.0901 43.4196 33.0601 42.6296V40.3396H32.0601C32.0301 41.0296 31.9601 41.6096 31.8101 42.1096C32.2001 42.3896 32.59 42.6796 32.95 42.9796L32.36 43.9296C32.03 43.6296 31.71 43.3596 31.39 43.1096C31.08 43.6496 30.61 44.1696 30.01 44.6796L29.08 43.8696C29.71 43.4196 30.17 42.9396 30.48 42.4296C30.09 42.1696 29.7001 41.9496 29.3201 41.7496L29.85 40.9296C30.18 41.1096 30.51 41.3096 30.84 41.4796C30.9 41.1496 30.94 40.7596 30.96 40.3396H29.3201V39.3496H30.96L30.9401 39.3596ZM30.8201 36.5996V35.8496H32.17V36.5996H35.62V37.6596H32.17V38.2396H30.8201V37.6596H29.25V36.5996H30.8201Z" fill="white"/>
<path d="M45.4401 40.9996V36.0196H46.73V40.9996H48.73V42.2296H46.73V42.6096C47.43 43.3596 48.15 44.1796 48.89 45.1096L48.14 46.2796C47.57 45.3896 47.1 44.6696 46.73 44.1296V49.5596H45.4401V44.2796C45.4101 44.3396 45.4 44.3896 45.38 44.4296C44.9 45.5396 44.32 46.5196 43.63 47.3196L43.11 45.8696C44.01 44.8196 44.76 43.6096 45.36 42.2296H43.15V40.9996H45.4401ZM45.3201 40.0696L44.09 40.3496C43.9 39.3496 43.66 38.3696 43.39 37.4296L44.5 37.0796C44.8 37.9496 45.0901 38.9496 45.3201 40.0596V40.0696ZM48.95 37.3096C48.71 38.4196 48.4 39.4396 48.02 40.3496L46.85 39.9496C47.21 39.1896 47.51 38.2096 47.78 37.0296L48.95 37.3096ZM52.0601 36.8996V35.8496H53.41V36.8996H56.39V38.0696H53.41V38.7696H56.17V39.8196H53.41V40.5796H56.75V41.7496H48.95V40.5796H52.0601V39.8196H49.42V38.7696H52.0601V38.0696H49.14V36.8996H52.0601ZM56.23 48.3296C56.23 48.7496 56.09 49.0796 55.85 49.3196C55.64 49.5096 55.35 49.6196 54.99 49.6196H53.46L53.22 48.4396L54.51 48.4996C54.78 48.4696 54.9301 48.2996 54.9301 47.9696V47.2696H50.8201V49.6196H49.53V42.4096H56.22V48.3296H56.23ZM54.9401 44.3396V43.5196H50.83V44.3396H54.9401ZM54.9401 46.2196V45.3996H50.83V46.2196H54.9401Z" fill="white"/>
<path d="M77.47 37.1396V38.5396H72.0701V47.3896H78.05V48.7997H64.5701V47.3896H70.49V38.5396H65.15V37.1396H77.46H77.47Z" fill="white"/>
<path d="M98.35 44.7496H99.52V45.9796H85.65V44.7496H86.88V37.4896H90.21V35.8496H91.62V37.4896H93.55V35.8496H94.96V37.4896H98.35V44.7496ZM91.21 46.9296C90.55 47.5596 89.94 48.0396 89.35 48.3796C88.66 48.7996 87.7701 49.1996 86.6901 49.6196L85.87 48.2696C86.69 48.0596 87.49 47.7596 88.24 47.3496C88.83 47.0496 89.41 46.6496 89.98 46.1496L91.21 46.9196V46.9296ZM90.21 40.9496V38.6696H88.27V40.9496H90.21ZM90.21 44.7596V42.1396H88.27V44.7596H90.21ZM91.62 40.9496H93.55V38.6696H91.62V40.9496ZM93.55 44.7596V42.1396H91.62V44.7596H93.55ZM99.41 48.4096L98.1801 49.6396C97.1301 48.8896 95.65 48.0996 93.73 47.2296L94.84 46.1796C96.64 46.9296 98.17 47.6796 99.41 48.4196V48.4096ZM94.96 40.9596H96.95V38.6796H94.96V40.9596ZM96.95 44.7696V42.1496H94.96V44.7696H96.95Z" fill="white"/>
<path d="M110.57 36.0796C110.42 36.4096 110.27 36.6896 110.12 36.9596H113.67V38.1296H111.81C111.99 38.4296 112.11 38.7596 112.2 39.1196L110.79 39.2996C110.73 38.8396 110.63 38.4496 110.48 38.1296H109.36C108.97 38.6296 108.56 39.0796 108.11 39.4796L106.88 38.7096C107.99 37.8296 108.77 36.8696 109.22 35.8496L110.57 36.0696V36.0796ZM110.17 40.0096V39.4296H111.44V40.0096H114.14V41.1196H111.44V41.8296H114.02V46.0996H111.44V46.8596H114.2V48.0296H111.44V49.6196H110.17V48.0296H107.41V46.8596H110.17V46.0996H107.65V41.8296H110.17V41.1196H107.47V40.0096H110.17ZM110.17 43.5196V42.7096H108.88V43.5196H110.17ZM110.17 44.4096H108.88V45.2296H110.17V44.4096ZM111.44 43.5196H112.79V42.7096H111.44V43.5196ZM112.79 44.4096H111.44V45.2296H112.79V44.4096ZM116.72 36.0896C116.58 36.4196 116.45 36.6996 116.3 36.9696H120.81V38.1396H118.25C118.46 38.4396 118.61 38.7996 118.71 39.1896L117.3 39.3696C117.24 38.8896 117.1 38.4696 116.91 38.1396H115.59C115.23 38.6396 114.86 39.0896 114.44 39.4896L113.21 38.7196C114.23 37.8396 114.95 36.8796 115.37 35.8596L116.72 36.0796V36.0896ZM116.01 41.1296V47.6996C116.01 48.0096 116.18 48.1696 116.53 48.1696H118.28C118.63 48.1696 118.88 48.1096 119.03 47.9696C119.21 47.8496 119.33 47.2496 119.41 46.1696L120.7 46.5696C120.55 47.9596 120.31 48.7696 119.99 49.0196C119.71 49.2596 119.2 49.3896 118.46 49.3896H116C115.58 49.3896 115.27 49.2696 115.02 49.0496C114.77 48.8096 114.64 48.4896 114.64 48.1096V39.9696H119.86C119.76 42.8496 119.64 44.3896 119.52 44.6296C119.4 44.9896 119.23 45.2396 119.01 45.3996C118.83 45.5796 118.49 45.6796 117.99 45.7096C117.52 45.7096 117.14 45.6896 116.82 45.6496L116.58 44.1796C117.27 44.2696 117.69 44.2996 117.81 44.2996C118.02 44.2996 118.16 44.2296 118.25 44.0396C118.37 43.9196 118.46 42.9596 118.52 41.1296H116H116.01Z" fill="white"/>
<path d="M8.34998 72.0998V71.0498H9.69995V72.0998H13.27V74.2598H14.09V75.3798H13.27V77.5998H9.69995V78.5498H13.39V79.5998H9.69995V80.6498H14.03V81.7598H9.69995V83.0298C9.90995 83.0298 10.12 83.0498 10.33 83.0498C12.08 83.0498 13.4 83.0198 14.27 82.9498L14.03 84.4598C9.38003 84.4598 6.55003 84.3598 5.53003 84.1498C4.60003 83.9098 3.87007 83.5498 3.32007 83.0698C3.26007 83.0298 3.20003 82.9798 3.16003 82.9198C2.68003 83.5198 2.03995 84.1498 1.19995 84.8298L0.449951 83.4198C1.22995 82.8998 1.84003 82.3098 2.28003 81.6798C1.83003 80.9298 1.36999 79.8898 0.859985 78.6098L2.03003 78.1998C2.37003 79.0498 2.68999 79.7598 2.98999 80.2998C3.01999 80.2398 3.03006 80.1698 3.06006 80.0898C3.26006 79.4498 3.38997 78.5498 3.46997 77.3798H0.920044V76.4498C1.82004 75.3698 2.65002 74.1698 3.40002 72.8798H0.690063V71.7598H4.95996V73.0498C4.09996 74.4298 3.34004 75.5198 2.67004 76.3298H4.92004C4.87004 78.0098 4.69001 79.3598 4.39001 80.3798C4.24001 80.8598 4.09003 81.2998 3.91003 81.6898C4.27003 82.0898 4.79997 82.4098 5.46997 82.6198C6.03997 82.7998 7.01 82.9198 8.37 82.9998V81.7798H4.80005V80.6698H8.37V79.6198H5.44995V78.5698H8.37V77.6198H5.60999V76.5698H8.37V75.3998H4.80005V74.2798H8.37V73.1698H5.60999V72.1198H8.37L8.34998 72.0998ZM9.69995 74.2598H11.92V73.1498H9.69995V74.2598ZM9.69995 76.5498H11.92V75.3798H9.69995V76.5498Z" fill="white"/>
<path d="M23.5 73.9196V71.0596H24.79V73.9196H26.14V75.1496H24.79V75.5896C25.3 76.2296 25.7901 76.9196 26.3101 77.6696L25.5601 78.8396C25.2601 78.2396 25 77.7296 24.79 77.2896V84.8195H23.5V77.9095C23.14 78.8995 22.74 79.7796 22.27 80.5296L21.6901 78.9496C22.3801 77.8396 22.9601 76.5796 23.4301 75.1396H21.85V73.9095H23.5V73.9196ZM28.1801 72.1696V71.0596H29.47V72.1696H31.99V71.0596H33.28V72.1696H35.39V73.2196H33.28V73.9196H34.87V74.9095H33.28V75.7296H35.51V76.7796H31.4V77.4796H34.74V81.1096H35.5701V82.2296H34.74V83.4596C34.74 83.8796 34.61 84.2096 34.36 84.4496C34.15 84.6496 33.87 84.7496 33.51 84.7496H31.7L31.46 83.5796L33.05 83.6295C33.32 83.5995 33.45 83.4396 33.45 83.1096V82.2396H28.11V84.8195H26.84V82.2396H25.59V81.1196H26.84V77.4896H30.05V76.7896H26.2V75.7396H28.1801V74.9196H26.79V73.9296H28.1801V73.2296H26.3V72.1796H28.1801V72.1696ZM30.05 79.3096V78.5596H28.12V79.3096H30.05ZM30.05 81.1196V80.3096H28.12V81.1196H30.05ZM31.99 73.2196H29.47V73.9196H31.99V73.2196ZM31.99 75.7396V74.9196H29.47V75.7396H31.99ZM31.4 79.3096H33.45V78.5596H31.4V79.3096ZM33.45 81.1196V80.3096H31.4V81.1196H33.45Z" fill="white"/>
<path d="M48.09 71.5196V72.2896H49.9C49.72 71.9096 49.5201 71.5496 49.3101 71.2196L50.54 71.0596C50.73 71.4196 50.92 71.8396 51.09 72.2896H52.88V73.3996H52.26L51.8 75.2796H53.22V71.0695H54.45V75.2796H56.91V76.4496H54.45C54.45 77.5896 54.49 78.5796 54.55 79.4196C54.9 78.7296 55.21 77.9495 55.51 77.0995L56.62 77.4996C55.9 79.2396 55.27 80.5096 54.75 81.2896C54.84 81.8296 54.96 82.3096 55.11 82.6996C55.3 83.2696 55.4501 83.5396 55.5701 83.5396C55.6901 83.5396 55.84 82.7996 56.03 81.3096L57.08 82.0796C56.78 83.4296 56.5 84.2496 56.25 84.5396C56.06 84.7596 55.8301 84.8795 55.5601 84.8795C55.1701 84.8795 54.77 84.4896 54.37 83.7196C54.18 83.3596 54.01 82.9396 53.88 82.4596C53.37 83.0596 52.74 83.6895 51.97 84.4095L51.04 83.5995C51.28 83.3895 51.49 83.1996 51.7 82.9996H49.23V83.7096H48.0601V77.2796H52.27V82.4596C52.75 81.9596 53.18 81.4796 53.54 81.0196C53.51 80.9296 53.5 80.8296 53.5 80.7396C53.3 79.5196 53.2 78.0996 53.2 76.4696H47.47V84.8495H46.28V82.3495C45.39 82.7095 44.4 83.0796 43.3 83.4396L43.01 82.0896C43.24 82.0596 43.45 82.0096 43.66 81.9496V72.7096H43.08V71.5396H48.0601L48.09 71.5196ZM46.3201 74.4996V72.6896H44.87V74.4996H46.3201ZM46.3201 77.6595V75.6696H44.87V77.6595H46.3201ZM46.3201 81.1196V78.8296H44.87V81.6196C45.37 81.4896 45.8501 81.3195 46.3201 81.1295V81.1196ZM48.9 75.2596L48.54 73.3795H47.97V72.6796H47.51V75.2596H48.9ZM51.14 79.5896V78.3596H49.26V79.5896H51.14ZM51.14 81.8696V80.5796H49.26V81.8696H51.14ZM50.76 75.2596L51.21 73.3795H49.59L49.95 75.2596H50.76ZM56.88 74.2496L55.8201 74.7296C55.5301 73.8296 55.22 73.0196 54.89 72.3296L55.9401 71.9696C56.3001 72.6896 56.61 73.4396 56.88 74.2496Z" fill="white"/>
<path d="M72.0701 70.9897V74.5598C72.5701 76.7498 73.32 78.5498 74.3 79.9398C75.1 81.1098 76.4 82.3098 78.21 83.5298L77.22 84.8597C75.72 83.8697 74.5801 82.9197 73.8101 81.9797C72.8101 80.8397 72.01 79.4498 71.41 77.7798C70.92 79.5198 70.24 80.8498 69.39 81.7798C68.49 82.8298 67.14 83.8497 65.33 84.8597L64.4 83.5298C66.65 82.1798 68.21 80.6897 69.08 79.0797C69.93 77.5497 70.3901 76.0397 70.4301 74.5697V70.9998H72.0601L72.0701 70.9897Z" fill="white"/>
<path d="M88.04 76.1998V71.2198H89.33V76.1998H91.33V77.4298H89.33V77.8098C90.03 78.5598 90.75 79.3798 91.49 80.3198L90.74 81.4898C90.17 80.5998 89.7 79.8798 89.33 79.3398V84.7698H88.04V79.4898C88.01 79.5498 88 79.5998 87.98 79.6398C87.5 80.7498 86.91 81.7198 86.23 82.5398L85.71 81.0798C86.61 80.0298 87.36 78.8198 87.96 77.4398H85.75V76.2098H88.04V76.1998ZM87.92 75.2698L86.6901 75.5498C86.5001 74.5498 86.26 73.5698 85.99 72.6298L87.1 72.2898C87.4 73.1598 87.69 74.1598 87.92 75.2698ZM91.55 72.5098C91.31 73.6198 91 74.6398 90.62 75.5498L89.45 75.1398C89.81 74.3798 90.11 73.3998 90.38 72.2198L91.55 72.4998V72.5098ZM94.66 72.0998V71.0498H96.01V72.0998H98.99V73.2698H96.01V73.9698H98.77V75.0198H96.01V75.7798H99.35V76.9498H91.55V75.7798H94.66V75.0198H92.02V73.9698H94.66V73.2698H91.74V72.0998H94.66ZM98.83 83.5298C98.83 83.9498 98.69 84.2798 98.45 84.5198C98.24 84.7098 97.95 84.8198 97.6 84.8198H96.0701L95.83 83.6298L97.12 83.6898C97.39 83.6598 97.54 83.4898 97.54 83.1598V82.4598H93.4301V84.8198H92.14V77.6098H98.83V83.5298ZM97.54 79.5398V78.7198H93.4301V79.5398H97.54ZM97.54 81.4098V80.5898H93.4301V81.4098H97.54Z" fill="white"/>
<path d="M110.69 73.3298H112.26V74.6198C111.68 75.8298 111.12 76.8098 110.58 77.5298C111.29 78.0198 111.94 78.5798 112.56 79.1898L111.79 80.3598C111.37 79.8698 110.94 79.4198 110.5 79.0298V84.8198H109.09V79.2598C108.58 79.7698 108.02 80.2898 107.39 80.8298L106.99 79.3598C107.89 78.6398 108.58 77.9798 109.06 77.3798C109.58 76.8598 110.16 75.9598 110.75 74.6798H107.27V73.3298H109.32C109.11 72.6098 108.87 71.9198 108.62 71.2698L110.03 71.0898C110.26 71.7498 110.47 72.4998 110.68 73.3198L110.69 73.3298ZM115.89 73.2098V71.0498H117.3V73.2098H120.46V81.5898H117.3V84.8198H115.89V81.5898H112.73V73.2098H115.89ZM115.89 76.6698V74.5598H114.08V76.6698H115.89ZM115.89 77.9598H114.08V80.2398H115.89V77.9598ZM117.3 76.6698H119.11V74.5598H117.3V76.6698ZM119.11 77.9598H117.3V80.2398H119.11V77.9598Z" fill="white"/>
<path d="M4.07007 106.48C3.94007 106.78 3.80002 107.05 3.65002 107.31H7.41003V108.43C8.07003 107.71 8.57 106.97 8.87 106.2L10.22 106.43C10.08 106.74 9.95006 107.05 9.81006 107.31H14.3101V108.54H11.85C12 108.9 12.14 109.27 12.27 109.65L10.8 109.77C10.69 109.32 10.59 108.92 10.5 108.54H9.07996C8.74996 109.02 8.39 109.44 8 109.83L6.77002 109.06C6.98002 108.88 7.15996 108.72 7.32996 108.54H5.32996C5.47996 108.89 5.63002 109.23 5.77002 109.59L4.30005 109.71C4.20005 109.29 4.08997 108.9 3.96997 108.54H2.85999C2.46999 109.04 2.05999 109.48 1.60999 109.89L0.380005 109.12C1.49 108.24 2.26997 107.28 2.71997 106.26L4.07007 106.48ZM6.82007 114.98V114.25L6.23999 113.76C6.95999 113.52 7.5 113.28 7.87 113.01C7.48 112.83 7.08997 112.68 6.71997 112.53L7.35999 111.59C7.76999 111.74 8.16004 111.87 8.54004 112.02C8.57004 111.89 8.58997 111.73 8.58997 111.59V111.07H6.94006V110.02H12.34V112.94C12.34 113.21 12.48 113.34 12.75 113.34H12.8101C12.9501 113.34 13.05 113.29 13.11 113.2C13.18 113.13 13.24 112.72 13.27 111.99L14.38 112.35C14.29 113.39 14.1401 113.98 13.9301 114.16C13.7501 114.36 13.4101 114.45 12.9301 114.45H12.35C11.97 114.45 11.69 114.36 11.48 114.15C11.27 113.94 11.1801 113.64 11.1801 113.28V111.06H9.70996V111.58C9.70996 111.93 9.66007 112.22 9.57007 112.48C10.0501 112.69 10.5001 112.93 10.9401 113.17L10.23 114.28C9.77998 114.01 9.34003 113.76 8.91003 113.52C8.64003 113.76 8.29 114 7.87 114.23H8.17004V114.99H14.3201V116.22H9.60999C10.15 116.65 10.65 116.97 11.11 117.16C11.83 117.55 12.86 117.91 14.21 118.26L13.62 119.49C11.99 118.92 10.78 118.4 10.02 117.89C9.42002 117.53 8.79003 116.98 8.16003 116.23V120.04H6.81006V116.23H6.76001C6.31001 116.8 5.79998 117.29 5.22998 117.68C4.31998 118.34 2.97999 118.97 1.23999 119.62L0.48999 118.39C2.25999 117.87 3.52002 117.39 4.27002 116.94C4.63002 116.75 4.98004 116.5 5.29004 116.24H0.430054V115.01H6.81006L6.82007 114.98ZM6.41003 110.23V111.46H4.42004V112.75C5.08004 112.63 5.76003 112.5 6.41003 112.35V113.52C4.84003 113.91 3.01003 114.27 0.910034 114.63L0.609985 113.28C1.44999 113.2 2.26007 113.1 3.07007 112.98V111.47H1.03003V110.24H6.41003V110.23Z" fill="white"/>
<path d="M25.25 107.18V106.25H26.6V107.18H28.35V108.35H26.6V109.18H30.75V108.35H29.0601V107.18H30.75V106.25H32.1V107.18H35.5V108.35H32.1V109.18H34.5V112.16H23.13V109.18H25.24V108.35H21.9V107.18H25.24H25.25ZM35.33 115.56H33.98V113.97H28.4301C28.1801 114.33 27.92 114.64 27.65 114.92H32.8101V115.97C32.0001 116.94 31.07 117.71 30.04 118.28C28.73 119 26.63 119.61 23.73 120.13L23.27 118.84C24.77 118.67 26.06 118.45 27.14 118.13C26.81 117.77 26.42 117.38 25.97 116.96L26.96 116.31C27.62 116.81 28.16 117.24 28.59 117.61C28.72 117.55 28.86 117.49 28.98 117.43C29.73 117.13 30.42 116.67 31.02 116.02H26.3101C25.4101 116.62 24.42 117.12 23.33 117.54L22.6801 116.43C23.9701 115.97 24.99 115.47 25.72 114.96C26.14 114.66 26.53 114.33 26.89 113.97H23.4401V115.56H22.09V112.8H35.33V115.56ZM26.42 110.22H24.49V111.11H26.42V110.22ZM29.71 110.22H27.71V111.11H29.71V110.22ZM33.16 110.22H31V111.11H33.16V110.22Z" fill="white"/>
<path d="M47.02 109.88V110.93C46.54 111.76 45.92 112.61 45.17 113.51H46.96V114.39C46.73 115.35 46.51 116.1 46.27 116.64C46.84 117.3 47.3201 117.72 47.6801 117.87C47.9801 118.06 48.46 118.2 49.09 118.29C49.81 118.41 51.22 118.47 53.35 118.48C54.89 118.48 56.0501 118.45 56.8101 118.36L56.63 119.71C52.55 119.71 50.05 119.65 49.15 119.55C48.34 119.43 47.68 119.25 47.2 119.01C46.76 118.81 46.29 118.39 45.75 117.72C45.33 118.47 44.76 119.23 44.04 120.06L43.05 119.01C43.83 118.23 44.37 117.52 44.7 116.93C44.95 116.57 45.26 115.85 45.6 114.74H43.52V113.63C44.12 113 44.74 112.19 45.4 111.17H43.17V109.88H47.04H47.02ZM46.55 108.53L45.5601 109.52C45.1401 108.8 44.56 108.02 43.79 107.18L44.73 106.3C45.45 107.05 46.05 107.8 46.54 108.53H46.55ZM49.42 107V106.25H50.6V107H51.71V107.94H50.6V108.58H53.16V107.94H52.11V107H53.16V106.25H54.35V107H56.51V107.94H54.35V108.58H55.58V112.73H52.48V113.5H56.39V116.84C56.39 117.17 56.3 117.42 56.12 117.6C55.94 117.8 55.64 117.89 55.22 117.89H53.58L53.34 116.9L54.87 116.95C55.1 116.95 55.22 116.84 55.22 116.6V114.49H52.47V115.5C52.89 115.47 53.28 115.41 53.64 115.35C53.6 115.11 53.55 114.89 53.52 114.68L54.28 114.62C54.45 115.23 54.6 115.89 54.75 116.61L53.8 116.67C53.79 116.55 53.77 116.41 53.76 116.29C52.86 116.47 51.51 116.63 49.71 116.78L49.53 115.66C50.16 115.66 50.75 115.63 51.28 115.58V114.48H49.12V117.83H47.89V114.48H47.1801V113.49H47.89V113.03H49.12V113.49H51.28V112.72H48.1801V108.57H49.41V107.93H47.1901V106.99H49.41L49.42 107ZM51.29 110.22V109.46H49.37V110.22H51.29ZM51.29 111.05H49.37V111.88H51.29V111.05ZM52.48 110.22H54.4V109.46H52.48V110.22ZM54.4 111.05H52.48V111.88H54.4V111.05Z" fill="white"/>
<path d="M72.1901 106.54C71.9601 107.17 71.67 107.75 71.29 108.29H77.41V118.31C77.41 118.82 77.26 119.21 76.97 119.48C76.73 119.72 76.3901 119.84 75.9401 119.84H73.9401L73.65 118.37L75.35 118.49C75.69 118.48 75.87 118.27 75.87 117.85V109.64H66.74V120.02H65.21V108.29H69.59C69.98 107.67 70.28 107.01 70.49 106.29L72.1801 106.53L72.1901 106.54ZM74.36 111.34V116.86H68.2V111.34H74.36ZM72.89 112.63H69.66V115.57H72.89V112.63Z" fill="white"/>
<path d="M99.05 109.7H94.88C95.01 111.83 95.3 113.52 95.72 114.77C96.41 113.75 97.06 112.4 97.64 110.75L98.9301 111.29C98.0901 113.54 97.24 115.19 96.38 116.27C97.04 117.59 97.5201 118.25 97.8201 118.25C97.9701 118.25 98.16 117.56 98.41 116.15L99.58 116.96C99.23 118.39 98.92 119.24 98.64 119.54C98.44 119.78 98.23 119.9 98.01 119.9C97.38 119.9 96.74 119.54 96.11 118.82C95.78 118.44 95.5 118.01 95.25 117.52C94.31 118.4 93.1201 119.17 91.6801 119.84L90.86 118.55C92.4 117.84 93.66 117.02 94.62 116.09C94.41 115.59 94.24 115.07 94.09 114.5C93.78 113.21 93.57 111.62 93.46 109.7H88.45V111.51H92.5601C92.5201 114.21 92.4 115.92 92.2 116.64C91.97 117.48 91.48 117.9 90.72 117.9H88.76L88.52 116.49C89.53 116.58 90.28 116.61 90.77 116.61C90.89 116.61 91.0001 116.4 91.0601 115.97C91.1001 115.46 91.14 114.43 91.17 112.87H88.46C88.43 113.93 88.34 115.03 88.16 116.17C87.89 117.55 87.44 118.9 86.84 120.25L85.61 119.2C86.18 118.11 86.5901 116.97 86.8101 115.77C86.9701 114.54 87.0601 113.4 87.0601 112.35V108.36H93.42C93.39 107.7 93.39 107 93.39 106.26H94.8C94.8 107.01 94.8 107.7 94.83 108.36H96.97C96.58 107.97 96.1 107.55 95.5 107.13L96.4301 106.26C97.1201 106.71 97.72 107.14 98.2 107.59L97.4301 108.35H99.0701V109.7H99.05Z" fill="white"/>
<path d="M112.57 107.65V108.94H110.63V115.72C111.32 115.48 112.01 115.22 112.67 114.93V116.28C111.14 116.94 109.34 117.57 107.29 118.2L106.94 116.69C107.69 116.57 108.42 116.39 109.16 116.18V108.95H107.16V107.66H112.56L112.57 107.65ZM115.25 109.24V106.26H116.66V109.24H120.47C120.47 114.23 120.38 117.19 120.23 118.12C120.11 118.84 119.87 119.31 119.54 119.53C119.14 119.82 118.42 119.97 117.37 119.97C117.04 119.97 116.68 119.94 116.26 119.91L116.02 118.44C116.46 118.53 116.9 118.56 117.37 118.56C118.21 118.56 118.67 118.27 118.78 117.69C118.93 116.97 119.03 114.6 119.07 110.6H116.65C116.56 112.49 116.29 114.06 115.84 115.35C115.32 116.88 114.29 118.44 112.79 120.03L111.62 118.96C112.99 117.72 113.95 116.37 114.52 114.91C114.94 113.92 115.18 112.48 115.24 110.59H112.85V109.24H115.25Z" fill="white"/>
</svg>
