<svg width="160" height="54" viewBox="0 0 160 54" fill="none" xmlns="http://www.w3.org/2000/svg">
<path d="M16.1078 51.0696H15.2068V43.5614H16.1078V44.062H17.209V43.5614H18.11V50.6692H17.209V50.1686H16.1078V51.0696ZM16.1078 49.7682H17.209V44.4624H16.1078V46.6648H16.9087V47.0652H16.1078V49.7682ZM18.9109 49.2676V43.1609H19.8118V43.7616H21.5137V43.1609H22.4147V51.9706C22.5148 52.3711 22.0143 52.7715 21.0132 52.9717C21.0132 52.8716 20.913 52.7715 20.7128 52.8717L19.912 52.9717V52.8717C20.6127 52.6714 21.1133 52.4712 21.3135 52.3711C21.5137 52.271 21.6138 52.0707 21.6138 51.7703V44.062H19.912V46.1642H21.2134V46.5647H19.912V48.667H21.1132V49.0674H19.912C20.0121 50.469 19.1111 51.7704 17.4092 53.0718H17.0088C18.4103 51.8705 19.011 50.6691 18.9109 49.2676Z" fill="#C9A063"/>
<path d="M29.8228 48.7673V49.6683H33.0263V50.0688H30.3234C30.924 50.9698 31.9251 51.5704 33.3266 51.6705C32.9262 51.8707 32.8261 52.171 32.9262 52.7717C31.5247 52.2711 30.5236 51.4703 30.023 50.0688H29.7227V53.0721H28.8217V50.5693C28.3212 51.0699 27.3201 51.8707 25.8184 52.7717H25.3179C26.7194 51.8707 27.7205 50.9697 28.221 50.1689H25.7183V49.7684H28.8217V48.8675H29.8228V48.7673ZM26.6193 43.1612H27.7205C27.6204 43.4615 27.4202 43.7619 27.3201 43.9621H29.3223V44.3626H27.4202C27.7205 44.5628 28.0208 44.763 28.4213 44.9632C28.3212 45.1634 28.1209 45.3636 27.9207 45.6639C27.6204 45.1634 27.4202 44.7629 27.2199 44.2624H27.0197C26.5192 44.7629 26.1187 45.1634 25.8184 45.4638H25.5181C26.1188 44.8631 26.5192 44.0622 26.6193 43.1612ZM28.8217 45.8642V46.2646H27.7205V47.8664C28.1209 47.7663 28.6215 47.5661 29.0219 47.3659V47.4659C28.121 48.1667 26.9196 48.7673 25.5181 49.0677C25.7183 48.6672 25.7183 48.2668 25.418 47.9665C26.0186 48.0666 26.4191 48.0666 26.9196 47.9665V46.2646H25.7183V45.8642H28.8217V45.8642ZM30.023 43.0611H31.1242C31.0241 43.3614 30.8239 43.5617 30.7238 43.862H33.0263V44.2624H30.924C31.2243 44.4626 31.6248 44.6629 31.9251 44.8631C31.825 45.0633 31.6248 45.2635 31.4246 45.5638H32.0252V47.9665C32.0252 48.0666 32.0252 48.1667 32.2254 48.1667C32.4256 48.1667 32.5258 48.0666 32.5258 47.9665L32.726 46.5649H32.8261V47.6661H33.0263V48.467C33.0263 48.7674 32.8261 48.8675 32.5258 48.8675H31.9251C31.4246 48.8675 31.1242 48.7674 31.2243 48.367V46.2646H30.1231C30.1231 46.5649 30.1231 46.7652 30.1231 46.8653C30.4234 47.0655 30.7238 47.2657 31.1242 47.4659C31.0241 47.6662 30.924 47.9664 30.7238 48.2667C30.4235 47.8663 30.2232 47.4659 30.1231 47.0655C30.023 47.566 29.5225 48.0666 28.7216 48.8675C28.6215 48.9676 28.5214 48.9676 28.5214 48.9676H28.1209C28.9218 48.467 29.3222 47.7662 29.2221 46.7651V45.4638H30.1231V45.764H31.2243V45.4638H31.3244C31.0241 44.8631 30.7238 44.4626 30.7238 44.2624H30.3234C30.1231 44.4626 29.8228 44.8631 29.3223 45.3637H29.0219C29.6226 44.763 29.9229 43.9621 30.023 43.0611Z" fill="#C9A063"/>
<path d="M37.2309 50.1688V51.5704C37.1308 52.171 36.7303 52.6716 35.9295 52.9719V52.4714C36.3299 52.2712 36.5301 51.9708 36.5301 51.5704H35.8293V50.1688H37.2309Z" fill="#C9A063"/>
<path d="M48.6434 47.2657H49.5445C49.4443 48.0665 49.0439 48.6672 48.3431 49.0677H49.144V48.7673H50.045V51.6705C50.1451 52.3713 49.6446 52.8718 48.5434 53.1721C48.4432 52.9719 48.3431 52.9719 48.243 53.0721L47.8426 53.1721V53.0721C48.7436 52.7717 49.2441 52.3713 49.2441 51.8708V50.9698C49.0439 51.17 48.8437 51.4703 48.7436 51.7706C48.3431 51.4703 48.1429 50.7696 48.243 49.8686C48.4432 50.3691 48.6434 50.6695 49.144 50.8697V49.5682H44.3387C44.0384 50.8696 43.5379 52.0709 42.737 53.1721H42.3365C43.1374 51.6705 43.5379 50.1689 43.5379 48.6672V46.0644H44.3387C44.1385 45.7641 44.0384 45.2635 43.9383 44.6628H44.0384C44.4389 44.9632 44.8393 45.2635 45.0395 45.5638C44.8393 45.8642 44.6391 46.0644 44.539 46.1645V46.3648H48.0428C48.0428 46.2647 48.0428 46.1645 48.0428 46.0644H49.0439C48.8437 46.8653 48.4432 47.466 47.6423 47.8664H48.6434V47.2657V47.2657ZM43.3376 44.1623C46.441 43.6617 48.3431 43.2613 48.8437 43.0611C49.144 43.4615 49.4443 43.7619 49.5445 43.862C48.7436 44.0622 46.6413 44.1623 43.3376 44.1623ZM44.4389 50.0688H45.2397C45.2397 51.17 44.8393 51.7706 44.0384 52.071V51.7706C44.3388 51.6705 44.4389 51.5704 44.4389 51.27V50.0688ZM48.0428 48.9676C48.3431 48.7674 48.5433 48.467 48.6434 48.1667H44.539C44.539 48.3669 44.539 48.6673 44.4389 48.9676V49.0677H48.0428V48.9676ZM48.0428 46.5649H44.539C44.539 46.9654 44.539 47.2657 44.539 47.6661H47.4421C47.7425 47.4659 47.9427 47.0655 48.0428 46.5649ZM45.8404 49.9687C46.1407 50.3691 46.2408 50.8697 46.441 51.3702C46.2408 51.5705 46.0406 51.6706 45.8404 51.8708C45.7403 51.7707 45.7403 51.4703 45.7403 51.1699C45.7403 50.7695 45.8404 50.3691 45.8404 49.9687ZM45.9405 44.3626C46.2408 44.5628 46.5412 44.863 46.9416 45.2635C46.7414 45.5638 46.5412 45.7641 46.3409 45.9643C46.1407 45.4638 45.9405 44.9632 45.9405 44.3626ZM47.1418 49.9687C47.2419 50.1689 47.4421 50.5693 47.7425 51.1699C47.5422 51.3702 47.342 51.5704 47.1418 51.7706C47.0417 51.4703 47.0417 50.8697 47.1418 49.9687ZM48.5434 44.2624L48.9438 44.4627L48.0428 45.8642L47.6423 45.6639L48.5434 44.2624Z" fill="#C9A063"/>
<path d="M55.8512 46.665V43.0611H56.8523V46.8653C57.0526 49.2679 58.2539 50.8696 60.2561 51.6705C60.0558 51.8707 59.9557 52.2711 59.9557 52.7717C59.9557 52.8718 59.9557 52.8719 59.9557 52.8719H59.8556C57.9535 51.9709 56.9524 50.3691 56.7522 47.9665C56.6521 49.4681 55.3507 51.17 52.848 52.8719H52.3474C53.6488 51.8708 54.6499 50.8696 55.1505 50.0688C55.651 49.2679 55.8512 48.0666 55.8512 46.665Z" fill="#C9A063"/>
<path d="M68.6653 47.2657H69.5663C69.4662 48.0665 69.0657 48.6672 68.365 49.0677H69.1658V48.7673H70.0668V51.6705C70.1669 52.3713 69.6664 52.8718 68.5652 53.1721C68.4651 52.9719 68.3649 52.9719 68.2648 53.0721L67.8644 53.1721V53.0721C68.7654 52.7717 69.2659 52.3713 69.2659 51.8708V50.9698C69.0657 51.17 68.8655 51.4703 68.7654 51.7706C68.3649 51.4703 68.1647 50.7696 68.2648 49.8686C68.4651 50.3691 68.6653 50.6695 69.1658 50.8697V49.5682H64.3606C64.0602 50.8696 63.5597 52.0709 62.7588 53.1721H62.4585C63.2594 51.6705 63.6598 50.1689 63.6598 48.6672V46.0644H64.4607C64.2605 45.7641 64.1604 45.2635 64.0603 44.6628H64.1603C64.5608 44.9632 64.9612 45.2635 65.1614 45.5638C64.9612 45.8642 64.761 46.0644 64.6609 46.1645V46.3648H68.1647C68.1647 46.2647 68.1647 46.1645 68.1647 46.0644H69.1658C68.9656 46.8653 68.5652 47.466 67.7643 47.8664H68.7654V47.2657H68.6653ZM63.4596 44.1623C66.563 43.6617 68.4651 43.2613 68.9656 43.0611C69.2659 43.4615 69.5663 43.7619 69.6664 43.862C68.7654 44.0622 66.7632 44.1623 63.4596 44.1623ZM64.5608 50.0688H65.3617C65.3617 51.17 64.9612 51.7706 64.1603 52.071V51.7706C64.4607 51.6705 64.5608 51.5704 64.5608 51.27V50.0688ZM68.0646 48.9676C68.365 48.7674 68.5652 48.467 68.6653 48.1667H64.5608C64.5608 48.3669 64.5608 48.6673 64.4607 48.9676V49.0677H68.0646V48.9676ZM68.1647 46.5649H64.6609C64.6609 46.9654 64.6609 47.2657 64.6609 47.6661H67.5641C67.7643 47.4659 68.0646 47.0655 68.1647 46.5649ZM65.9623 49.9687C66.2627 50.3691 66.3628 50.8697 66.563 51.3702C66.3628 51.5705 66.1626 51.6706 65.9623 51.8708C65.8622 51.7707 65.8622 51.4703 65.8622 51.1699C65.8622 50.7695 65.8622 50.3691 65.9623 49.9687ZM65.9623 44.3626C66.2627 44.5628 66.563 44.863 66.9634 45.2635C66.7632 45.5638 66.563 45.7641 66.3628 45.9643C66.1625 45.4638 66.0624 44.9632 65.9623 44.3626ZM67.1636 49.9687C67.2637 50.1689 67.464 50.5693 67.7643 51.1699C67.5641 51.3702 67.3638 51.5704 67.1636 51.7706C67.0635 51.4703 67.0635 50.8697 67.1636 49.9687ZM68.6653 44.2624L69.0657 44.4627L68.1647 45.8642L67.7643 45.6639L68.6653 44.2624Z" fill="#C9A063"/>
<path d="M73.7709 45.764H79.0767V46.1645H76.9744L75.9733 47.0655C76.0734 47.1656 76.1735 47.1656 76.2736 47.2657C76.8743 47.566 77.1746 47.8663 77.1746 48.1667L79.2769 46.7651L79.5773 47.0655L77.9755 48.0666C78.1757 49.368 78.9766 50.269 80.4782 50.9698C80.0778 51.3702 79.9777 51.7706 80.0778 52.1711C78.7764 51.6705 78.0756 50.3691 77.7753 48.1667L77.2747 48.4671V51.5704C77.2747 52.1711 76.8743 52.5716 75.8732 52.8719C75.8732 52.7718 75.673 52.6716 75.3726 52.7717L74.772 52.8719V52.7717C76.0734 52.4714 76.574 52.071 76.3737 51.5704V49.2679C76.0734 50.3691 74.9722 51.3703 73.0701 52.3713H72.5696C74.0712 51.6706 74.9722 50.6694 75.3726 49.1678C74.9722 49.5682 74.1713 50.0688 73.0701 50.6694H72.6697C74.0712 49.9686 74.8721 48.9676 75.2725 47.8664H76.3737C76.2736 47.5661 76.1735 47.3658 75.9733 47.1656C75.0723 47.7662 74.1713 48.2668 73.1702 48.7673H72.7698C74.2714 47.8663 75.2725 46.9654 75.7731 46.1645H73.871V45.764H73.7709ZM72.7698 44.1623H73.6708V44.3626H76.2736C75.9733 44.0623 75.673 43.5616 75.5729 43.1612C76.0734 43.3614 76.574 43.5616 76.8743 43.7618C76.6741 44.0622 76.574 44.3626 76.3737 44.4627H78.9766V44.1623H79.8776V45.764C79.5772 45.5638 79.2769 45.5639 78.9766 45.8642V44.8631H73.6708V45.8642H72.7698V44.1623V44.1623ZM76.1735 49.1678V48.0666C75.9733 48.3669 75.673 48.6672 75.3726 49.0677C75.2725 49.1678 75.2725 49.1678 75.2725 49.1678H76.1735Z" fill="#C9A063"/>
<path d="M84.0822 50.1688V51.5704C83.9821 52.171 83.5817 52.6716 82.7808 52.9719V52.4714C83.1812 52.2712 83.3814 51.9708 83.3814 51.5704H82.6807V50.1688H84.0822Z" fill="#C9A063"/>
<path d="M93.9931 48.7673V49.6683H97.1966V50.0688H94.4936C95.0943 50.9698 96.0954 51.5704 97.4969 51.6705C97.0965 51.8707 96.9964 52.171 97.0965 52.7717C95.695 52.2711 94.6938 51.4703 94.1933 50.0688H93.893V53.0721H92.992V50.5693C92.4914 51.0699 91.4904 51.8707 89.9887 52.7717H89.4882C90.8897 51.8707 91.8908 50.9697 92.3913 50.1689H89.8886V49.7684H92.992V48.8675H93.9931V48.7673ZM90.7896 43.1612H91.8908C91.7907 43.4615 91.5905 43.7619 91.4904 43.9621H93.4925V44.3626H91.5905C91.8908 44.5628 92.1911 44.763 92.5916 44.9632C92.4915 45.1634 92.2912 45.3636 92.091 45.6639C91.7907 45.1634 91.5905 44.7629 91.3902 44.2624H91.19C90.6895 44.7629 90.289 45.1634 89.9887 45.4638H89.6884C90.289 44.8631 90.6895 44.0622 90.7896 43.1612ZM92.992 45.8642V46.2646H91.8908V47.8664C92.2912 47.7663 92.7918 47.5661 93.1922 47.3659V47.4659C92.2912 48.1667 91.0899 48.7673 89.6884 49.0677C89.8886 48.6672 89.8886 48.2668 89.5883 47.9665C90.1889 48.0666 90.5894 48.0666 91.0899 47.9665V46.2646H89.8886V45.8642H92.992V45.8642ZM94.1933 43.0611H95.2945C95.1944 43.3614 94.9942 43.5617 94.8941 43.862H97.1966V44.2624H95.0943C95.3946 44.4626 95.7951 44.6629 96.0954 44.8631C95.9953 45.0633 95.7951 45.2635 95.5949 45.5638H96.1955V47.9665C96.1955 48.0666 96.1955 48.1667 96.3957 48.1667C96.5959 48.1667 96.696 48.0666 96.696 47.9665L96.8963 46.5649H96.9964V47.6661H97.1966V48.467C97.1966 48.7674 96.9964 48.8675 96.696 48.8675H96.0954C95.5949 48.8675 95.2945 48.7674 95.3946 48.367V46.2646H94.2934C94.2934 46.5649 94.2934 46.7652 94.2934 46.8653C94.5937 47.0655 94.8941 47.2657 95.2945 47.4659C95.1944 47.6662 95.0943 47.9664 94.8941 48.2667C94.5937 47.8663 94.3935 47.4659 94.2934 47.0655C94.1933 47.566 93.6928 48.0666 92.8919 48.8675C92.7918 48.9676 92.6916 48.9676 92.6916 48.9676H92.2912C93.0921 48.467 93.4925 47.7662 93.3924 46.7651V45.4638H94.2934V45.764H95.3946V45.4638H95.4947C95.1944 44.8631 94.8941 44.4626 94.8941 44.2624H94.4936C94.2934 44.4626 93.9931 44.8631 93.4925 45.3637H93.1922C93.7929 44.763 94.0932 43.9621 94.1933 43.0611Z" fill="#C9A063"/>
<path d="M103.403 45.2635V43.9621H99.9996V43.5616H107.708V43.9621H104.304V45.2635H105.906V44.8631H106.807V49.0677H105.906V48.6672H104.304C104.304 49.5682 104.104 50.269 103.704 50.8697C104.805 51.3702 106.106 51.6705 107.708 51.6705C107.408 51.8707 107.308 52.2712 107.408 52.8719C105.506 52.4714 104.004 51.9709 103.103 51.3702C102.502 51.6706 101.501 52.1711 100.1 52.8719H99.6992C101.201 52.1711 102.102 51.4703 102.602 50.9698C102.102 50.4692 101.802 49.8685 101.601 49.0677H100.8V44.8631H101.701V45.2635H103.403V45.2635ZM101.802 45.6639V46.7651H103.403V45.6639H101.802ZM101.802 48.2667H103.403V47.1656H101.802V48.2667ZM103.403 48.6672H101.802V49.0677C102.002 49.5682 102.402 50.0688 103.103 50.5693C103.303 50.0688 103.403 49.4681 103.403 48.6672ZM105.806 45.6639H104.204V46.7651H105.806V45.6639ZM104.304 47.1656V48.2667H105.906V47.1656H104.304Z" fill="#C9A063"/>
<path d="M111.712 42.961H112.613L112.313 45.5638H113.114V44.9632H114.015V47.4659H115.717V45.9643H115.216L117.319 43.862H114.115V43.3615H117.719L117.919 43.1612H118.019V43.862C117.819 43.9621 117.619 44.0622 117.419 44.3626L115.917 45.764H116.618V47.4659H118.32V47.9665H116.618V51.8708C116.718 52.2712 116.117 52.6716 114.916 52.972C114.916 52.7717 114.816 52.6716 114.716 52.7717L114.115 52.972V52.8719C115.416 52.4714 115.917 52.1711 115.817 51.8708V47.9665H114.115C114.015 48.8675 113.715 49.6684 113.314 50.3691C113.915 50.7696 114.215 51.0698 114.415 51.1699C114.415 51.3702 114.315 51.5704 114.115 51.9709C113.715 51.5704 113.314 51.1699 113.014 50.7695C112.613 51.1699 112.113 51.6705 111.512 52.2711C111.312 52.4713 111.112 52.6717 110.912 52.8719H110.511C111.112 52.2712 111.813 51.4703 112.513 50.4692C112.413 50.4692 112.313 50.369 112.213 50.2689C112.113 50.1688 112.013 50.0688 111.913 50.0688V50.3691H111.012L111.512 46.0644H110.611V45.6639H111.512C111.612 44.6628 111.712 43.862 111.712 42.961ZM113.214 47.7662V45.9643H112.413L112.013 49.6683C112.313 49.8685 112.613 49.9686 112.714 50.0688C113.114 49.4681 113.214 48.6672 113.214 47.7662Z" fill="#C9A063"/>
<path d="M125.027 43.0611H126.128C126.028 43.9621 125.928 44.7629 125.628 45.2634H127.129V44.6628H128.03V51.5704C128.03 52.0709 127.53 52.4713 126.729 52.7717C126.629 52.6716 126.529 52.6716 126.429 52.6716L125.828 52.7717L125.728 52.6716C126.529 52.3713 127.029 52.0709 127.029 51.6705V45.6639H125.427C125.227 46.1645 124.827 46.665 124.326 47.2656H124.126V52.171H123.225V51.6705H121.723V52.4714H120.822V44.7629H121.723V45.1634H121.924C122.124 44.7629 122.324 44.0622 122.224 42.961H123.225C123.225 43.7619 122.825 44.4626 122.124 45.1634H123.125V44.7629H124.026V47.0655C124.727 46.2646 125.027 44.8631 125.027 43.0611ZM121.723 51.3702H123.225V45.764H121.723V47.9665H122.724V48.3669H121.723V51.3702ZM124.927 47.2656C125.528 47.8663 125.928 48.4671 126.228 48.8675C126.128 49.368 125.928 49.6683 125.628 49.9687C125.227 49.2679 125.027 48.2667 124.927 47.2656Z" fill="#C9A063"/>
<path d="M132.035 51.0699H131.134V43.5617H132.035V44.0622H133.136V43.5617H134.037V50.6694H133.136V50.1689H132.035V51.0699ZM132.035 49.7684H133.136V44.4627H132.035V46.665H132.836V47.0655H132.035V49.7684ZM134.838 49.2679V43.1612H135.739V43.7618H137.441V43.1612H138.342V51.9709C138.442 52.3713 137.941 52.7718 136.94 52.972C136.94 52.8719 136.84 52.7718 136.64 52.8719L135.839 52.972V52.8719C136.54 52.6717 137.04 52.4715 137.24 52.3713C137.441 52.2712 137.541 52.0709 137.541 51.7706V44.0622H135.839V46.1645H137.14V46.5649H135.839V48.6672H137.04V49.0677H135.839C135.939 50.4692 135.038 51.7706 133.336 53.0721H132.936C134.337 51.8708 134.938 50.6694 134.838 49.2679Z" fill="#C9A063"/>
<path d="M142.546 52.7716H141.545V43.2612H142.546V43.862H146.45V43.2612H147.452V52.6716H146.45V51.6705H142.546V52.7716ZM142.546 51.27H146.45V44.2623H142.546V47.2656H145.75V47.7662H142.546V51.27Z" fill="#C9A063"/>
<path d="M16.1078 51.0696H15.2068V43.5614H16.1078V44.062H17.209V43.5614H18.11V50.6692H17.209V50.1686H16.1078V51.0696ZM16.1078 49.7682H17.209V44.4624H16.1078V46.6648H16.9087V47.0652H16.1078V49.7682ZM18.9109 49.2676V43.1609H19.8118V43.7616H21.5137V43.1609H22.4147V51.9706C22.5148 52.3711 22.0143 52.7715 21.0132 52.9717C21.0132 52.8716 20.913 52.7715 20.7128 52.8717L19.912 52.9717V52.8717C20.6127 52.6714 21.1133 52.4712 21.3135 52.3711C21.5137 52.271 21.6138 52.0707 21.6138 51.7703V44.062H19.912V46.1642H21.2134V46.5647H19.912V48.667H21.1132V49.0674H19.912C20.0121 50.469 19.1111 51.7704 17.4092 53.0718H17.0088C18.4103 51.8705 19.011 50.6691 18.9109 49.2676Z" fill="#D8B165"/>
<path d="M29.8228 48.7673V49.6683H33.0263V50.0688H30.3234C30.924 50.9698 31.9251 51.5704 33.3266 51.6705C32.9262 51.8707 32.8261 52.171 32.9262 52.7717C31.5247 52.2711 30.5236 51.4703 30.023 50.0688H29.7227V53.0721H28.8217V50.5693C28.3212 51.0699 27.3201 51.8707 25.8184 52.7717H25.3179C26.7194 51.8707 27.7205 50.9697 28.221 50.1689H25.7183V49.7684H28.8217V48.8675H29.8228V48.7673ZM26.6193 43.1612H27.7205C27.6204 43.4615 27.4202 43.7619 27.3201 43.9621H29.3223V44.3626H27.4202C27.7205 44.5628 28.0208 44.763 28.4213 44.9632C28.3212 45.1634 28.1209 45.3636 27.9207 45.6639C27.6204 45.1634 27.4202 44.7629 27.2199 44.2624H27.0197C26.5192 44.7629 26.1187 45.1634 25.8184 45.4638H25.5181C26.1188 44.8631 26.5192 44.0622 26.6193 43.1612ZM28.8217 45.8642V46.2646H27.7205V47.8664C28.1209 47.7663 28.6215 47.5661 29.0219 47.3659V47.4659C28.121 48.1667 26.9196 48.7673 25.5181 49.0677C25.7183 48.6672 25.7183 48.2668 25.418 47.9665C26.0186 48.0666 26.4191 48.0666 26.9196 47.9665V46.2646H25.7183V45.8642H28.8217V45.8642ZM30.023 43.0611H31.1242C31.0241 43.3614 30.8239 43.5617 30.7238 43.862H33.0263V44.2624H30.924C31.2243 44.4626 31.6248 44.6629 31.9251 44.8631C31.825 45.0633 31.6248 45.2635 31.4246 45.5638H32.0252V47.9665C32.0252 48.0666 32.0252 48.1667 32.2254 48.1667C32.4256 48.1667 32.5258 48.0666 32.5258 47.9665L32.726 46.5649H32.8261V47.6661H33.0263V48.467C33.0263 48.7674 32.8261 48.8675 32.5258 48.8675H31.9251C31.4246 48.8675 31.1242 48.7674 31.2243 48.367V46.2646H30.1231C30.1231 46.5649 30.1231 46.7652 30.1231 46.8653C30.4234 47.0655 30.7238 47.2657 31.1242 47.4659C31.0241 47.6662 30.924 47.9664 30.7238 48.2667C30.4235 47.8663 30.2232 47.4659 30.1231 47.0655C30.023 47.566 29.5225 48.0666 28.7216 48.8675C28.6215 48.9676 28.5214 48.9676 28.5214 48.9676H28.1209C28.9218 48.467 29.3222 47.7662 29.2221 46.7651V45.4638H30.1231V45.764H31.2243V45.4638H31.3244C31.0241 44.8631 30.7238 44.4626 30.7238 44.2624H30.3234C30.1231 44.4626 29.8228 44.8631 29.3223 45.3637H29.0219C29.6226 44.763 29.9229 43.9621 30.023 43.0611Z" fill="#D8B165"/>
<path d="M37.2309 50.1688V51.5704C37.1308 52.171 36.7303 52.6716 35.9295 52.9719V52.4714C36.3299 52.2712 36.5301 51.9708 36.5301 51.5704H35.8293V50.1688H37.2309Z" fill="#D8B165"/>
<path d="M48.6434 47.2657H49.5445C49.4443 48.0665 49.0439 48.6672 48.3431 49.0677H49.144V48.7673H50.045V51.6705C50.1451 52.3713 49.6446 52.8718 48.5434 53.1721C48.4432 52.9719 48.3431 52.9719 48.243 53.0721L47.8426 53.1721V53.0721C48.7436 52.7717 49.2441 52.3713 49.2441 51.8708V50.9698C49.0439 51.17 48.8437 51.4703 48.7436 51.7706C48.3431 51.4703 48.1429 50.7696 48.243 49.8686C48.4432 50.3691 48.6434 50.6695 49.144 50.8697V49.5682H44.3387C44.0384 50.8696 43.5379 52.0709 42.737 53.1721H42.3365C43.1374 51.6705 43.5379 50.1689 43.5379 48.6672V46.0644H44.3387C44.1385 45.7641 44.0384 45.2635 43.9383 44.6628H44.0384C44.4389 44.9632 44.8393 45.2635 45.0395 45.5638C44.8393 45.8642 44.6391 46.0644 44.539 46.1645V46.3648H48.0428C48.0428 46.2647 48.0428 46.1645 48.0428 46.0644H49.0439C48.8437 46.8653 48.4432 47.466 47.6423 47.8664H48.6434V47.2657V47.2657ZM43.3376 44.1623C46.441 43.6617 48.3431 43.2613 48.8437 43.0611C49.144 43.4615 49.4443 43.7619 49.5445 43.862C48.7436 44.0622 46.6413 44.1623 43.3376 44.1623ZM44.4389 50.0688H45.2397C45.2397 51.17 44.8393 51.7706 44.0384 52.071V51.7706C44.3388 51.6705 44.4389 51.5704 44.4389 51.27V50.0688ZM48.0428 48.9676C48.3431 48.7674 48.5433 48.467 48.6434 48.1667H44.539C44.539 48.3669 44.539 48.6673 44.4389 48.9676V49.0677H48.0428V48.9676ZM48.0428 46.5649H44.539C44.539 46.9654 44.539 47.2657 44.539 47.6661H47.4421C47.7425 47.4659 47.9427 47.0655 48.0428 46.5649ZM45.8404 49.9687C46.1407 50.3691 46.2408 50.8697 46.441 51.3702C46.2408 51.5705 46.0406 51.6706 45.8404 51.8708C45.7403 51.7707 45.7403 51.4703 45.7403 51.1699C45.7403 50.7695 45.8404 50.3691 45.8404 49.9687ZM45.9405 44.3626C46.2408 44.5628 46.5412 44.863 46.9416 45.2635C46.7414 45.5638 46.5412 45.7641 46.3409 45.9643C46.1407 45.4638 45.9405 44.9632 45.9405 44.3626ZM47.1418 49.9687C47.2419 50.1689 47.4421 50.5693 47.7425 51.1699C47.5422 51.3702 47.342 51.5704 47.1418 51.7706C47.0417 51.4703 47.0417 50.8697 47.1418 49.9687ZM48.5434 44.2624L48.9438 44.4627L48.0428 45.8642L47.6423 45.6639L48.5434 44.2624Z" fill="#D8B165"/>
<path d="M55.8512 46.665V43.0611H56.8523V46.8653C57.0526 49.2679 58.2539 50.8696 60.2561 51.6705C60.0558 51.8707 59.9557 52.2711 59.9557 52.7717C59.9557 52.8718 59.9557 52.8719 59.9557 52.8719H59.8556C57.9535 51.9709 56.9524 50.3691 56.7522 47.9665C56.6521 49.4681 55.3507 51.17 52.848 52.8719H52.3474C53.6488 51.8708 54.6499 50.8696 55.1505 50.0688C55.651 49.2679 55.8512 48.0666 55.8512 46.665Z" fill="#D8B165"/>
<path d="M68.6653 47.2657H69.5663C69.4662 48.0665 69.0657 48.6672 68.365 49.0677H69.1658V48.7673H70.0668V51.6705C70.1669 52.3713 69.6664 52.8718 68.5652 53.1721C68.4651 52.9719 68.3649 52.9719 68.2648 53.0721L67.8644 53.1721V53.0721C68.7654 52.7717 69.2659 52.3713 69.2659 51.8708V50.9698C69.0657 51.17 68.8655 51.4703 68.7654 51.7706C68.3649 51.4703 68.1647 50.7696 68.2648 49.8686C68.4651 50.3691 68.6653 50.6695 69.1658 50.8697V49.5682H64.3606C64.0602 50.8696 63.5597 52.0709 62.7588 53.1721H62.4585C63.2594 51.6705 63.6598 50.1689 63.6598 48.6672V46.0644H64.4607C64.2605 45.7641 64.1604 45.2635 64.0603 44.6628H64.1603C64.5608 44.9632 64.9612 45.2635 65.1614 45.5638C64.9612 45.8642 64.761 46.0644 64.6609 46.1645V46.3648H68.1647C68.1647 46.2647 68.1647 46.1645 68.1647 46.0644H69.1658C68.9656 46.8653 68.5652 47.466 67.7643 47.8664H68.7654V47.2657H68.6653ZM63.4596 44.1623C66.563 43.6617 68.4651 43.2613 68.9656 43.0611C69.2659 43.4615 69.5663 43.7619 69.6664 43.862C68.7654 44.0622 66.7632 44.1623 63.4596 44.1623ZM64.5608 50.0688H65.3617C65.3617 51.17 64.9612 51.7706 64.1603 52.071V51.7706C64.4607 51.6705 64.5608 51.5704 64.5608 51.27V50.0688ZM68.0646 48.9676C68.365 48.7674 68.5652 48.467 68.6653 48.1667H64.5608C64.5608 48.3669 64.5608 48.6673 64.4607 48.9676V49.0677H68.0646V48.9676ZM68.1647 46.5649H64.6609C64.6609 46.9654 64.6609 47.2657 64.6609 47.6661H67.5641C67.7643 47.4659 68.0646 47.0655 68.1647 46.5649ZM65.9623 49.9687C66.2627 50.3691 66.3628 50.8697 66.563 51.3702C66.3628 51.5705 66.1626 51.6706 65.9623 51.8708C65.8622 51.7707 65.8622 51.4703 65.8622 51.1699C65.8622 50.7695 65.8622 50.3691 65.9623 49.9687ZM65.9623 44.3626C66.2627 44.5628 66.563 44.863 66.9634 45.2635C66.7632 45.5638 66.563 45.7641 66.3628 45.9643C66.1625 45.4638 66.0624 44.9632 65.9623 44.3626ZM67.1636 49.9687C67.2637 50.1689 67.464 50.5693 67.7643 51.1699C67.5641 51.3702 67.3638 51.5704 67.1636 51.7706C67.0635 51.4703 67.0635 50.8697 67.1636 49.9687ZM68.6653 44.2624L69.0657 44.4627L68.1647 45.8642L67.7643 45.6639L68.6653 44.2624Z" fill="#D8B165"/>
<path d="M73.7709 45.764H79.0767V46.1645H76.9744L75.9733 47.0655C76.0734 47.1656 76.1735 47.1656 76.2736 47.2657C76.8743 47.566 77.1746 47.8663 77.1746 48.1667L79.2769 46.7651L79.5773 47.0655L77.9755 48.0666C78.1757 49.368 78.9766 50.269 80.4782 50.9698C80.0778 51.3702 79.9777 51.7706 80.0778 52.1711C78.7764 51.6705 78.0756 50.3691 77.7753 48.1667L77.2747 48.4671V51.5704C77.2747 52.1711 76.8743 52.5716 75.8732 52.8719C75.8732 52.7718 75.673 52.6716 75.3726 52.7717L74.772 52.8719V52.7717C76.0734 52.4714 76.574 52.071 76.3737 51.5704V49.2679C76.0734 50.3691 74.9722 51.3703 73.0701 52.3713H72.5696C74.0712 51.6706 74.9722 50.6694 75.3726 49.1678C74.9722 49.5682 74.1713 50.0688 73.0701 50.6694H72.6697C74.0712 49.9686 74.8721 48.9676 75.2725 47.8664H76.3737C76.2736 47.5661 76.1735 47.3658 75.9733 47.1656C75.0723 47.7662 74.1713 48.2668 73.1702 48.7673H72.7698C74.2714 47.8663 75.2725 46.9654 75.7731 46.1645H73.871V45.764H73.7709ZM72.7698 44.1623H73.6708V44.3626H76.2736C75.9733 44.0623 75.673 43.5616 75.5729 43.1612C76.0734 43.3614 76.574 43.5616 76.8743 43.7618C76.6741 44.0622 76.574 44.3626 76.3737 44.4627H78.9766V44.1623H79.8776V45.764C79.5772 45.5638 79.2769 45.5639 78.9766 45.8642V44.8631H73.6708V45.8642H72.7698V44.1623V44.1623ZM76.1735 49.1678V48.0666C75.9733 48.3669 75.673 48.6672 75.3726 49.0677C75.2725 49.1678 75.2725 49.1678 75.2725 49.1678H76.1735Z" fill="#D8B165"/>
<path d="M84.0822 50.1688V51.5704C83.9821 52.171 83.5817 52.6716 82.7808 52.9719V52.4714C83.1812 52.2712 83.3814 51.9708 83.3814 51.5704H82.6807V50.1688H84.0822Z" fill="#D8B165"/>
<path d="M93.9931 48.7673V49.6683H97.1966V50.0688H94.4936C95.0943 50.9698 96.0954 51.5704 97.4969 51.6705C97.0965 51.8707 96.9964 52.171 97.0965 52.7717C95.695 52.2711 94.6938 51.4703 94.1933 50.0688H93.893V53.0721H92.992V50.5693C92.4914 51.0699 91.4904 51.8707 89.9887 52.7717H89.4882C90.8897 51.8707 91.8908 50.9697 92.3913 50.1689H89.8886V49.7684H92.992V48.8675H93.9931V48.7673ZM90.7896 43.1612H91.8908C91.7907 43.4615 91.5905 43.7619 91.4904 43.9621H93.4925V44.3626H91.5905C91.8908 44.5628 92.1911 44.763 92.5916 44.9632C92.4915 45.1634 92.2912 45.3636 92.091 45.6639C91.7907 45.1634 91.5905 44.7629 91.3902 44.2624H91.19C90.6895 44.7629 90.289 45.1634 89.9887 45.4638H89.6884C90.289 44.8631 90.6895 44.0622 90.7896 43.1612ZM92.992 45.8642V46.2646H91.8908V47.8664C92.2912 47.7663 92.7918 47.5661 93.1922 47.3659V47.4659C92.2912 48.1667 91.0899 48.7673 89.6884 49.0677C89.8886 48.6672 89.8886 48.2668 89.5883 47.9665C90.1889 48.0666 90.5894 48.0666 91.0899 47.9665V46.2646H89.8886V45.8642H92.992V45.8642ZM94.1933 43.0611H95.2945C95.1944 43.3614 94.9942 43.5617 94.8941 43.862H97.1966V44.2624H95.0943C95.3946 44.4626 95.7951 44.6629 96.0954 44.8631C95.9953 45.0633 95.7951 45.2635 95.5949 45.5638H96.1955V47.9665C96.1955 48.0666 96.1955 48.1667 96.3957 48.1667C96.5959 48.1667 96.696 48.0666 96.696 47.9665L96.8963 46.5649H96.9964V47.6661H97.1966V48.467C97.1966 48.7674 96.9964 48.8675 96.696 48.8675H96.0954C95.5949 48.8675 95.2945 48.7674 95.3946 48.367V46.2646H94.2934C94.2934 46.5649 94.2934 46.7652 94.2934 46.8653C94.5937 47.0655 94.8941 47.2657 95.2945 47.4659C95.1944 47.6662 95.0943 47.9664 94.8941 48.2667C94.5937 47.8663 94.3935 47.4659 94.2934 47.0655C94.1933 47.566 93.6928 48.0666 92.8919 48.8675C92.7918 48.9676 92.6916 48.9676 92.6916 48.9676H92.2912C93.0921 48.467 93.4925 47.7662 93.3924 46.7651V45.4638H94.2934V45.764H95.3946V45.4638H95.4947C95.1944 44.8631 94.8941 44.4626 94.8941 44.2624H94.4936C94.2934 44.4626 93.9931 44.8631 93.4925 45.3637H93.1922C93.7929 44.763 94.0932 43.9621 94.1933 43.0611Z" fill="#D8B165"/>
<path d="M103.403 45.2635V43.9621H99.9996V43.5616H107.708V43.9621H104.304V45.2635H105.906V44.8631H106.807V49.0677H105.906V48.6672H104.304C104.304 49.5682 104.104 50.269 103.704 50.8697C104.805 51.3702 106.106 51.6705 107.708 51.6705C107.408 51.8707 107.308 52.2712 107.408 52.8719C105.506 52.4714 104.004 51.9709 103.103 51.3702C102.502 51.6706 101.501 52.1711 100.1 52.8719H99.6992C101.201 52.1711 102.102 51.4703 102.602 50.9698C102.102 50.4692 101.802 49.8685 101.601 49.0677H100.8V44.8631H101.701V45.2635H103.403V45.2635ZM101.802 45.6639V46.7651H103.403V45.6639H101.802ZM101.802 48.2667H103.403V47.1656H101.802V48.2667ZM103.403 48.6672H101.802V49.0677C102.002 49.5682 102.402 50.0688 103.103 50.5693C103.303 50.0688 103.403 49.4681 103.403 48.6672ZM105.806 45.6639H104.204V46.7651H105.806V45.6639ZM104.304 47.1656V48.2667H105.906V47.1656H104.304Z" fill="#D8B165"/>
<path d="M111.712 42.961H112.613L112.313 45.5638H113.114V44.9632H114.015V47.4659H115.717V45.9643H115.216L117.319 43.862H114.115V43.3615H117.719L117.919 43.1612H118.019V43.862C117.819 43.9621 117.619 44.0622 117.419 44.3626L115.917 45.764H116.618V47.4659H118.32V47.9665H116.618V51.8708C116.718 52.2712 116.117 52.6716 114.916 52.972C114.916 52.7717 114.816 52.6716 114.716 52.7717L114.115 52.972V52.8719C115.416 52.4714 115.917 52.1711 115.817 51.8708V47.9665H114.115C114.015 48.8675 113.715 49.6684 113.314 50.3691C113.915 50.7696 114.215 51.0698 114.415 51.1699C114.415 51.3702 114.315 51.5704 114.115 51.9709C113.715 51.5704 113.314 51.1699 113.014 50.7695C112.613 51.1699 112.113 51.6705 111.512 52.2711C111.312 52.4713 111.112 52.6717 110.912 52.8719H110.511C111.112 52.2712 111.813 51.4703 112.513 50.4692C112.413 50.4692 112.313 50.369 112.213 50.2689C112.113 50.1688 112.013 50.0688 111.913 50.0688V50.3691H111.012L111.512 46.0644H110.611V45.6639H111.512C111.612 44.6628 111.712 43.862 111.712 42.961ZM113.214 47.7662V45.9643H112.413L112.013 49.6683C112.313 49.8685 112.613 49.9686 112.714 50.0688C113.114 49.4681 113.214 48.6672 113.214 47.7662Z" fill="#D8B165"/>
<path d="M125.027 43.0611H126.128C126.028 43.9621 125.928 44.7629 125.628 45.2634H127.129V44.6628H128.03V51.5704C128.03 52.0709 127.53 52.4713 126.729 52.7717C126.629 52.6716 126.529 52.6716 126.429 52.6716L125.828 52.7717L125.728 52.6716C126.529 52.3713 127.029 52.0709 127.029 51.6705V45.6639H125.427C125.227 46.1645 124.827 46.665 124.326 47.2656H124.126V52.171H123.225V51.6705H121.723V52.4714H120.822V44.7629H121.723V45.1634H121.924C122.124 44.7629 122.324 44.0622 122.224 42.961H123.225C123.225 43.7619 122.825 44.4626 122.124 45.1634H123.125V44.7629H124.026V47.0655C124.727 46.2646 125.027 44.8631 125.027 43.0611ZM121.723 51.3702H123.225V45.764H121.723V47.9665H122.724V48.3669H121.723V51.3702ZM124.927 47.2656C125.528 47.8663 125.928 48.4671 126.228 48.8675C126.128 49.368 125.928 49.6683 125.628 49.9687C125.227 49.2679 125.027 48.2667 124.927 47.2656Z" fill="#D8B165"/>
<path d="M132.035 51.0699H131.134V43.5617H132.035V44.0622H133.136V43.5617H134.037V50.6694H133.136V50.1689H132.035V51.0699ZM132.035 49.7684H133.136V44.4627H132.035V46.665H132.836V47.0655H132.035V49.7684ZM134.838 49.2679V43.1612H135.739V43.7618H137.441V43.1612H138.342V51.9709C138.442 52.3713 137.941 52.7718 136.94 52.972C136.94 52.8719 136.84 52.7718 136.64 52.8719L135.839 52.972V52.8719C136.54 52.6717 137.04 52.4715 137.24 52.3713C137.441 52.2712 137.541 52.0709 137.541 51.7706V44.0622H135.839V46.1645H137.14V46.5649H135.839V48.6672H137.04V49.0677H135.839C135.939 50.4692 135.038 51.7706 133.336 53.0721H132.936C134.337 51.8708 134.938 50.6694 134.838 49.2679Z" fill="#D8B165"/>
<path d="M142.546 52.7716H141.545V43.2612H142.546V43.862H146.45V43.2612H147.452V52.6716H146.45V51.6705H142.546V52.7716ZM142.546 51.27H146.45V44.2623H142.546V47.2656H145.75V47.7662H142.546V51.27Z" fill="#D8B165"/>
<path d="M8.79972 25.1413C8.79972 26.5429 8.19907 27.4438 6.89764 28.1446C5.89655 28.6452 4.59512 28.8454 2.89326 28.8454C2.59293 28.8454 1.69194 28.8454 0.290405 28.8454V15.5308H2.69303C4.09456 15.5308 5.19576 15.731 6.09675 16.1315C7.29806 16.632 7.89874 17.4329 7.89874 18.5341C7.89874 19.2349 7.59842 19.8356 6.99776 20.4362C6.49721 21.0369 5.89654 21.4372 5.19577 21.7376C6.19686 21.9378 7.09785 22.2382 7.69851 22.8389C8.39928 23.4395 8.79972 24.2403 8.79972 25.1413ZM7.39819 25.1413C7.39819 24.0401 6.99775 23.2392 6.29698 22.7387C5.69632 22.2381 4.89545 22.0379 3.79424 22.0379H2.99338V21.6375H3.59401C4.59511 21.6375 5.29588 21.2371 5.79643 20.5363C6.19687 20.0358 6.3971 19.335 6.3971 18.6342C6.3971 16.7321 5.09567 15.8312 2.39271 15.8312H1.49173V28.445H2.2926C5.69632 28.445 7.39819 27.3437 7.39819 25.1413Z" fill="#C9A063" stroke="#C9A063" stroke-width="0.207" stroke-miterlimit="10"/>
<path d="M17.309 28.0446H11.9031V17.2327H17.1088V17.5331H13.1044V21.938H16.7083V22.2382H13.1044V27.6441H17.309V28.0446Z" fill="#C9A063" stroke="#C9A063" stroke-width="0.207" stroke-miterlimit="10"/>
<path d="M26.8195 17.6332H23.8162V28.0446H22.715V17.6332H19.6116V17.3329H26.8195V17.6332V17.6332Z" fill="#C9A063" stroke="#C9A063" stroke-width="0.207" stroke-miterlimit="10"/>
<path d="M36.7303 17.6332H33.727V28.0446H32.6258V17.6332H29.5225V17.3329H36.7303V17.6332V17.6332Z" fill="#C9A063" stroke="#C9A063" stroke-width="0.207" stroke-miterlimit="10"/>
<path d="M44.4387 28.0446H39.0328V17.2327H44.2385V17.5331H40.2341V21.938H43.8381V22.2382H40.2341V27.6441H44.4387V28.0446Z" fill="#C9A063" stroke="#C9A063" stroke-width="0.207" stroke-miterlimit="10"/>
<path d="M54.6499 28.0446H53.4486L49.7445 22.038C49.9447 22.038 50.1449 22.038 50.245 22.038C51.8468 22.038 52.7478 21.3373 52.7478 19.8357C52.7478 18.2339 51.7467 17.433 49.6444 17.5331H48.8435V28.0446H47.7423V17.2327C47.9425 17.2327 48.5432 17.2327 49.7445 17.2327C52.4475 17.2327 53.849 18.0337 53.849 19.8357C53.849 20.5364 53.6488 21.137 53.1482 21.5375C52.6477 21.9379 52.047 22.2383 51.146 22.3384L54.6499 28.0446Z" fill="#C9A063" stroke="#C9A063" stroke-width="0.207" stroke-miterlimit="10"/>
<path d="M70.5674 17.6332H67.5641V28.0446H66.3628V17.6332H63.3595V17.3329H70.5674V17.6332Z" fill="#C9A063" stroke="#C9A063" stroke-width="0.207" stroke-miterlimit="10"/>
<path d="M82.9809 22.6387C82.9809 24.1404 82.4803 25.4418 81.3791 26.543C80.2779 27.6442 78.8764 28.1447 77.1745 28.1447C75.4726 28.1447 74.0711 27.6442 72.9699 26.543C71.8687 25.5419 71.3682 24.2405 71.3682 22.6387C71.3682 21.1371 71.8687 19.8356 72.9699 18.7344C74.0711 17.6332 75.4726 17.1327 77.1745 17.1327C78.8764 17.1327 80.2779 17.6332 81.3791 18.7344C82.4803 19.8356 82.9809 21.1371 82.9809 22.6387ZM81.7796 22.6387C81.7796 21.1371 81.3791 19.9358 80.5783 18.9347C79.7774 17.9336 78.6762 17.4331 77.2746 17.4331C75.8731 17.4331 74.7719 17.9336 73.971 18.9347C73.1701 19.9358 72.7697 21.1371 72.7697 22.6387C72.7697 24.1404 73.1701 25.3418 73.971 26.3428C74.7719 27.3439 75.9732 27.8445 77.2746 27.8445C78.576 27.8445 79.6773 27.3439 80.5783 26.3428C81.3791 25.4419 81.7796 24.1404 81.7796 22.6387Z" fill="#C9A063" stroke="#C9A063" stroke-width="0.207" stroke-miterlimit="10"/>
<path d="M95.6948 28.0447H94.5937L93.993 19.8357L90.1888 28.1447L86.2845 19.9358L85.6839 28.0447H85.2834L86.0843 17.1327L90.5893 26.6431L94.894 17.1327L95.6948 28.0447Z" fill="#C9A063" stroke="#C9A063" stroke-width="0.207" stroke-miterlimit="10"/>
<path d="M109.51 22.6387C109.51 24.1404 109.009 25.4418 107.908 26.543C106.807 27.6442 105.405 28.1447 103.704 28.1447C102.002 28.1447 100.6 27.6442 99.499 26.543C98.3978 25.5419 97.8972 24.2405 97.8972 22.6387C97.8972 21.1371 98.3978 19.8356 99.499 18.7344C100.6 17.6332 102.002 17.1327 103.704 17.1327C105.405 17.1327 106.807 17.6332 107.908 18.7344C109.009 19.8356 109.51 21.1371 109.51 22.6387ZM108.309 22.6387C108.309 21.1371 107.908 19.9358 107.107 18.9347C106.306 17.9336 105.205 17.4331 103.804 17.4331C102.402 17.4331 101.301 17.9336 100.5 18.9347C99.6992 19.9358 99.2987 21.1371 99.2987 22.6387C99.2987 24.1404 99.6992 25.3418 100.5 26.3428C101.301 27.3439 102.502 27.8445 103.804 27.8445C105.105 27.8445 106.206 27.3439 107.107 26.3428C107.908 25.4419 108.309 24.1404 108.309 22.6387Z" fill="#C9A063" stroke="#C9A063" stroke-width="0.207" stroke-miterlimit="10"/>
<path d="M119.02 28.0446H117.819L114.115 22.038C114.315 22.038 114.515 22.038 114.616 22.038C116.217 22.038 117.118 21.3373 117.118 19.8357C117.118 18.2339 116.117 17.433 114.015 17.5331H113.214V28.0446H112.113V17.2327C112.313 17.2327 112.914 17.2327 114.115 17.2327C116.818 17.2327 118.219 18.0337 118.219 19.8357C118.219 20.5364 118.019 21.137 117.519 21.5375C117.018 21.9379 116.417 22.2383 115.517 22.3384L119.02 28.0446Z" fill="#C9A063" stroke="#C9A063" stroke-width="0.207" stroke-miterlimit="10"/>
<path d="M128.531 28.0446H127.33L123.625 22.038C123.826 22.038 124.026 22.038 124.126 22.038C125.728 22.038 126.629 21.3373 126.629 19.8357C126.629 18.2339 125.628 17.433 123.525 17.5331H122.724V28.0446H121.623V17.2327C121.824 17.2327 122.424 17.2327 123.625 17.2327C126.328 17.2327 127.73 18.0337 127.73 19.8357C127.73 20.5364 127.53 21.137 127.029 21.5375C126.529 21.9379 125.928 22.2383 125.027 22.3384L128.531 28.0446Z" fill="#C9A063" stroke="#C9A063" stroke-width="0.207" stroke-miterlimit="10"/>
<path d="M141.645 22.6387C141.645 24.1404 141.145 25.4418 140.043 26.543C138.942 27.6442 137.541 28.1447 135.839 28.1447C134.137 28.1447 132.735 27.6442 131.634 26.543C130.533 25.5419 130.032 24.2405 130.032 22.6387C130.032 21.1371 130.533 19.8356 131.634 18.7344C132.735 17.6332 134.137 17.1327 135.839 17.1327C137.541 17.1327 138.942 17.6332 140.043 18.7344C141.145 19.8356 141.645 21.1371 141.645 22.6387ZM140.444 22.6387C140.444 21.1371 140.043 19.9358 139.243 18.9347C138.442 17.9336 137.34 17.4331 135.939 17.4331C134.537 17.4331 133.436 17.9336 132.635 18.9347C131.834 19.9358 131.434 21.1371 131.434 22.6387C131.434 24.1404 131.834 25.3418 132.635 26.3428C133.436 27.3439 134.638 27.8445 135.939 27.8445C137.24 27.8445 138.342 27.3439 139.243 26.3428C140.043 25.4419 140.444 24.1404 140.444 22.6387Z" fill="#C9A063" stroke="#C9A063" stroke-width="0.207" stroke-miterlimit="10"/>
<path d="M159.264 15.5309L154.96 29.1458L151.056 18.334L147.351 29.1458L143.147 15.631H144.648L147.852 26.1425L151.456 15.4308L155.36 26.2426L158.664 15.631L159.264 15.5309Z" fill="#C9A063" stroke="#C9A063" stroke-width="0.207" stroke-miterlimit="10"/>
<path d="M8.79972 25.1413C8.79972 26.5429 8.19907 27.4438 6.89764 28.1446C5.89655 28.6452 4.59512 28.8454 2.89326 28.8454C2.59293 28.8454 1.69194 28.8454 0.290405 28.8454V15.5308H2.69303C4.09456 15.5308 5.19576 15.731 6.09675 16.1315C7.29806 16.632 7.89874 17.4329 7.89874 18.5341C7.89874 19.2349 7.59842 19.8356 6.99776 20.4362C6.49721 21.0369 5.89654 21.4372 5.19577 21.7376C6.19686 21.9378 7.09785 22.2382 7.69851 22.8389C8.39928 23.4395 8.79972 24.2403 8.79972 25.1413ZM7.39819 25.1413C7.39819 24.0401 6.99775 23.2392 6.29698 22.7387C5.69632 22.2381 4.89545 22.0379 3.79424 22.0379H2.99338V21.6375H3.59401C4.59511 21.6375 5.29588 21.2371 5.79643 20.5363C6.19687 20.0358 6.3971 19.335 6.3971 18.6342C6.3971 16.7321 5.09567 15.8312 2.39271 15.8312H1.49173V28.445H2.2926C5.69632 28.445 7.39819 27.3437 7.39819 25.1413Z" fill="#D8B165"/>
<path d="M17.309 28.0446H11.9031V17.2327H17.1088V17.5331H13.1044V21.938H16.7083V22.2382H13.1044V27.6441H17.309V28.0446Z" fill="#D8B165"/>
<path d="M26.8195 17.6332H23.8162V28.0446H22.715V17.6332H19.6116V17.3329H26.8195V17.6332V17.6332Z" fill="#D8B165"/>
<path d="M36.7303 17.6332H33.727V28.0446H32.6258V17.6332H29.5225V17.3329H36.7303V17.6332V17.6332Z" fill="#D8B165"/>
<path d="M44.4387 28.0446H39.0328V17.2327H44.2385V17.5331H40.2341V21.938H43.8381V22.2382H40.2341V27.6441H44.4387V28.0446Z" fill="#D8B165"/>
<path d="M54.6499 28.0446H53.4486L49.7445 22.038C49.9447 22.038 50.1449 22.038 50.245 22.038C51.8468 22.038 52.7478 21.3373 52.7478 19.8357C52.7478 18.2339 51.7467 17.433 49.6444 17.5331H48.8435V28.0446H47.7423V17.2327C47.9425 17.2327 48.5432 17.2327 49.7445 17.2327C52.4475 17.2327 53.849 18.0337 53.849 19.8357C53.849 20.5364 53.6488 21.137 53.1482 21.5375C52.6477 21.9379 52.047 22.2383 51.146 22.3384L54.6499 28.0446Z" fill="#D8B165"/>
<path d="M70.5674 17.6332H67.5641V28.0446H66.3628V17.6332H63.3595V17.3329H70.5674V17.6332Z" fill="#D8B165"/>
<path d="M82.9809 22.6387C82.9809 24.1404 82.4803 25.4418 81.3791 26.543C80.2779 27.6442 78.8764 28.1447 77.1745 28.1447C75.4726 28.1447 74.0711 27.6442 72.9699 26.543C71.8687 25.5419 71.3682 24.2405 71.3682 22.6387C71.3682 21.1371 71.8687 19.8356 72.9699 18.7344C74.0711 17.6332 75.4726 17.1327 77.1745 17.1327C78.8764 17.1327 80.2779 17.6332 81.3791 18.7344C82.4803 19.8356 82.9809 21.1371 82.9809 22.6387ZM81.7796 22.6387C81.7796 21.1371 81.3791 19.9358 80.5783 18.9347C79.7774 17.9336 78.6762 17.4331 77.2746 17.4331C75.8731 17.4331 74.7719 17.9336 73.971 18.9347C73.1701 19.9358 72.7697 21.1371 72.7697 22.6387C72.7697 24.1404 73.1701 25.3418 73.971 26.3428C74.7719 27.3439 75.9732 27.8445 77.2746 27.8445C78.576 27.8445 79.6773 27.3439 80.5783 26.3428C81.3791 25.4419 81.7796 24.1404 81.7796 22.6387Z" fill="#D8B165"/>
<path d="M95.6948 28.0447H94.5937L93.993 19.8357L90.1888 28.1447L86.2845 19.9358L85.6839 28.0447H85.2834L86.0843 17.1327L90.5893 26.6431L94.894 17.1327L95.6948 28.0447Z" fill="#D8B165"/>
<path d="M109.51 22.6387C109.51 24.1404 109.009 25.4418 107.908 26.543C106.807 27.6442 105.405 28.1447 103.704 28.1447C102.002 28.1447 100.6 27.6442 99.499 26.543C98.3978 25.5419 97.8972 24.2405 97.8972 22.6387C97.8972 21.1371 98.3978 19.8356 99.499 18.7344C100.6 17.6332 102.002 17.1327 103.704 17.1327C105.405 17.1327 106.807 17.6332 107.908 18.7344C109.009 19.8356 109.51 21.1371 109.51 22.6387ZM108.309 22.6387C108.309 21.1371 107.908 19.9358 107.107 18.9347C106.306 17.9336 105.205 17.4331 103.804 17.4331C102.402 17.4331 101.301 17.9336 100.5 18.9347C99.6992 19.9358 99.2987 21.1371 99.2987 22.6387C99.2987 24.1404 99.6992 25.3418 100.5 26.3428C101.301 27.3439 102.502 27.8445 103.804 27.8445C105.105 27.8445 106.206 27.3439 107.107 26.3428C107.908 25.4419 108.309 24.1404 108.309 22.6387Z" fill="#D8B165"/>
<path d="M119.02 28.0446H117.819L114.115 22.038C114.315 22.038 114.515 22.038 114.616 22.038C116.217 22.038 117.118 21.3373 117.118 19.8357C117.118 18.2339 116.117 17.433 114.015 17.5331H113.214V28.0446H112.113V17.2327C112.313 17.2327 112.914 17.2327 114.115 17.2327C116.818 17.2327 118.219 18.0337 118.219 19.8357C118.219 20.5364 118.019 21.137 117.519 21.5375C117.018 21.9379 116.417 22.2383 115.517 22.3384L119.02 28.0446Z" fill="#D8B165"/>
<path d="M128.531 28.0446H127.33L123.625 22.038C123.826 22.038 124.026 22.038 124.126 22.038C125.728 22.038 126.629 21.3373 126.629 19.8357C126.629 18.2339 125.628 17.433 123.525 17.5331H122.724V28.0446H121.623V17.2327C121.824 17.2327 122.424 17.2327 123.625 17.2327C126.328 17.2327 127.73 18.0337 127.73 19.8357C127.73 20.5364 127.53 21.137 127.029 21.5375C126.529 21.9379 125.928 22.2383 125.027 22.3384L128.531 28.0446Z" fill="#D8B165"/>
<path d="M141.645 22.6387C141.645 24.1404 141.145 25.4418 140.043 26.543C138.942 27.6442 137.541 28.1447 135.839 28.1447C134.137 28.1447 132.735 27.6442 131.634 26.543C130.533 25.5419 130.032 24.2405 130.032 22.6387C130.032 21.1371 130.533 19.8356 131.634 18.7344C132.735 17.6332 134.137 17.1327 135.839 17.1327C137.541 17.1327 138.942 17.6332 140.043 18.7344C141.145 19.8356 141.645 21.1371 141.645 22.6387ZM140.444 22.6387C140.444 21.1371 140.043 19.9358 139.243 18.9347C138.442 17.9336 137.34 17.4331 135.939 17.4331C134.537 17.4331 133.436 17.9336 132.635 18.9347C131.834 19.9358 131.434 21.1371 131.434 22.6387C131.434 24.1404 131.834 25.3418 132.635 26.3428C133.436 27.3439 134.638 27.8445 135.939 27.8445C137.24 27.8445 138.342 27.3439 139.243 26.3428C140.043 25.4419 140.444 24.1404 140.444 22.6387Z" fill="#D8B165"/>
<path d="M159.264 15.5309L154.96 29.1458L151.056 18.334L147.351 29.1458L143.147 15.631H144.648L147.852 26.1425L151.456 15.4308L155.36 26.2426L158.664 15.631L159.264 15.5309Z" fill="#D8B165"/>
<path d="M75.5728 2.6168C75.5728 2.71691 75.5728 2.81709 75.5728 2.81709C75.5728 2.9172 75.5728 3.01726 75.5728 3.01726C75.5728 3.31759 75.4727 3.71803 75.2725 4.01836C75.0722 4.31869 74.872 4.61907 74.5717 4.81929C74.2714 5.01951 73.8709 5.2197 73.4705 5.41992C73.0701 5.52003 72.5695 5.62009 72.069 5.62009C71.2681 5.62009 70.6674 5.41987 70.3671 5.11954C69.9667 4.81921 69.7664 4.41885 69.7664 3.81819C69.7664 3.41775 69.9667 2.91716 70.267 2.51672C70.5673 2.11628 71.0679 1.61578 71.7686 1.31545C72.4694 1.01512 73.3704 0.614659 74.5717 0.41444C75.773 0.214221 77.1746 0.0139771 78.8764 0.0139771C79.377 0.0139771 79.8775 0.0139771 80.2779 0.0139771C80.6784 0.0139771 81.0788 0.0139771 81.3792 0.0139771C81.6795 0.0139771 81.8797 0.0139771 82.0799 0.0139771C82.2802 0.0139771 82.3803 0.0139771 82.5805 0.0139771C82.6806 0.0139771 82.7807 0.0139526 82.8808 0.114062C82.9809 0.214172 82.9809 0.31433 82.9809 0.41444C82.9809 0.514549 82.9809 0.514501 82.8808 0.61461C82.7807 0.61461 82.7807 0.714695 82.5805 0.714695C82.4804 0.714695 82.2802 0.714695 82.0799 0.714695C81.8797 0.714695 81.5794 0.714695 81.279 0.714695C80.5783 0.714695 80.0777 0.814854 79.5772 1.01507C79.1768 1.21529 78.7763 1.51562 78.3759 2.01617C77.9754 2.41661 77.575 3.01724 77.1745 3.6179C76.7741 4.31866 76.2736 5.01948 75.6729 5.92047C75.4727 6.2208 75.1724 6.52112 74.872 6.92156C74.5717 7.322 74.1713 7.62231 73.7708 8.02274C73.3704 8.32307 72.8698 8.62345 72.2692 8.82367C71.6685 9.02389 71.0679 9.12393 70.3671 9.12393C70.0668 9.12393 69.8666 9.12395 69.5662 9.02384C69.2659 8.92373 68.9656 8.92368 68.7653 8.72346C68.5651 8.62335 68.3649 8.42313 68.1647 8.22291C67.9645 8.0227 67.9645 7.72244 67.9645 7.42211C67.9645 7.22189 68.0646 7.02167 68.1647 6.92156C68.2648 6.82145 68.465 6.72127 68.6652 6.72127C68.8654 6.72127 68.9656 6.72137 69.0657 6.82148C69.1658 6.92159 69.1658 7.02162 69.1658 7.12173C69.1658 7.22184 69.1658 7.322 69.0657 7.42211C68.9656 7.52222 68.8655 7.5222 68.7653 7.5222C68.6652 7.5222 68.6653 7.5222 68.5651 7.5222C68.5651 7.92263 68.8654 8.22296 69.1658 8.52329C69.5662 8.72351 69.9667 8.82367 70.5673 8.82367C71.0679 8.82367 71.5684 8.72351 72.069 8.52329C72.4694 8.32307 72.9699 8.02272 73.2703 7.62228C73.6707 7.22184 73.971 6.82145 74.3715 6.42102C74.6718 5.92047 75.0723 5.52 75.3726 5.01946C75.6729 4.51891 76.0733 4.01836 76.3737 3.51781C76.674 3.01726 77.0745 2.61678 77.4749 2.21634C77.8753 1.8159 78.2757 1.51557 78.6762 1.21524C79.0766 0.914914 79.5772 0.71472 80.0777 0.61461C79.6773 0.61461 79.1767 0.614635 78.6762 0.514525C78.1756 0.514525 77.6751 0.41444 77.2747 0.41444C76.0733 0.41444 74.9722 0.514501 74.0712 0.61461C73.1702 0.814829 72.3693 1.01512 71.7686 1.31545C71.168 1.61578 70.6674 1.91611 70.3671 2.31655C70.0668 2.71698 69.8666 3.11737 69.8666 3.51781C69.8666 4.01836 70.0668 4.41875 70.4672 4.71908C70.8677 5.01941 71.3682 5.11954 72.069 5.11954C72.5695 5.11954 72.97 5.01948 73.3704 4.91937C73.7708 4.81926 74.1713 4.61904 74.4716 4.41882C74.7719 4.2186 74.9721 3.91823 75.1723 3.6179C75.3726 3.31757 75.3726 3.01722 75.3726 2.71689C75.3726 2.61678 75.3726 2.51672 75.3726 2.51672C75.3726 2.41661 75.3726 2.31645 75.3726 2.21634H75.5728V2.6168Z" fill="#C9A063"/>
<path d="M85.3836 0.0139771L80.3781 6.92156C80.5783 6.72134 80.7785 6.42097 81.0789 6.12064C81.3792 5.82031 81.5794 5.52005 81.8797 5.31983C82.1801 5.01951 82.4804 4.81919 82.7807 4.71908C83.081 4.51886 83.4815 4.41882 83.7818 4.41882C84.3825 4.41882 84.6828 4.71908 84.6828 5.21963C84.6828 5.31974 84.5827 5.51996 84.4826 5.72017C84.3825 5.92039 84.2824 6.12071 84.0821 6.32093C83.8819 6.52115 83.7818 6.72132 83.5816 7.02165C83.3814 7.22187 83.1812 7.42206 83.0811 7.62228C82.8808 7.8225 82.7807 8.0227 82.6806 8.22291C82.5805 8.42313 82.4804 8.52324 82.4804 8.72346C82.4804 8.82357 82.4804 8.92375 82.5805 8.92375C82.6806 9.02386 82.6806 9.02384 82.7807 9.02384C82.9809 9.02384 83.2813 8.92378 83.4815 8.82367C83.7818 8.72356 83.982 8.52334 84.2824 8.32312C84.5827 8.1229 84.883 7.92261 85.0832 7.62228C85.3836 7.32195 85.5838 7.12181 85.8841 6.82148C86.0843 6.62126 86.2846 6.32086 86.4848 6.12064C86.685 5.92042 86.7851 5.7202 86.8852 5.62009H86.9853C86.8852 5.82031 86.685 6.0205 86.5849 6.22072C86.3847 6.42094 86.1844 6.72134 85.9842 6.92156C85.784 7.22189 85.4837 7.42204 85.1833 7.72237C84.883 8.0227 84.5827 8.22299 84.3825 8.42321C84.0821 8.62343 83.7818 8.82365 83.5816 8.92375C83.2813 9.02386 83.081 9.12393 82.7807 9.12393C82.5805 9.12393 82.3803 9.02386 82.18 8.92375C81.9798 8.82365 81.9798 8.62345 81.9798 8.32312C81.9798 8.1229 82.0799 7.92259 82.18 7.72237C82.2802 7.52215 82.3803 7.32195 82.5805 7.12173C82.7807 6.92151 82.8808 6.72132 83.0811 6.5211C83.2813 6.32088 83.4815 6.12069 83.5816 5.92047C83.7818 5.72025 83.8819 5.52003 83.982 5.41992C84.0821 5.2197 84.1822 5.11957 84.1822 5.01946C84.1822 4.91935 84.1823 4.81919 84.0821 4.71908C83.982 4.61897 83.8819 4.61899 83.7818 4.61899C83.5816 4.61899 83.2813 4.71918 82.9809 4.81929C82.6806 5.01951 82.3803 5.2197 82.08 5.41992C81.7796 5.72025 81.4793 6.0206 81.1789 6.32093C80.8786 6.62126 80.5783 7.0217 80.278 7.32203C79.9776 7.62235 79.7774 7.92259 79.5772 8.22291C79.377 8.52324 79.1768 8.82362 79.0767 9.02384H78.1757C78.6762 8.22296 79.2769 7.52215 79.7774 6.72127C80.278 5.92039 80.8786 5.11959 81.3792 4.41882C81.8797 3.61795 82.4804 2.91713 82.9809 2.11625C83.4815 1.41549 83.982 0.614635 84.4826 0.0139771H85.3836Z" fill="#C9A063"/>
<path d="M93.092 5.72016C92.9918 5.92038 92.7916 6.22078 92.5914 6.421C92.3912 6.72133 92.0908 6.92148 91.8906 7.22181C91.5903 7.52213 91.29 7.72243 90.9896 7.92265C90.6893 8.12287 90.389 8.42317 89.9886 8.52328C89.6882 8.7235 89.2878 8.82363 88.9875 8.92374C88.6871 9.02385 88.2867 9.12391 87.9864 9.12391C87.5859 9.12391 87.2856 9.02388 87.0854 8.82366C86.8852 8.62344 86.785 8.32306 86.785 8.02273C86.785 7.62229 86.8851 7.2219 87.1855 6.82147C87.4858 6.42103 87.7861 6.02052 88.1866 5.62008C88.587 5.21964 88.9875 4.91929 89.488 4.71907C89.9886 4.51885 90.389 4.31873 90.7894 4.31873C90.9896 4.31873 91.1899 4.3187 91.3901 4.41881C91.4902 4.51892 91.5903 4.61905 91.5903 4.81927C91.5903 5.01949 91.4902 5.21969 91.1898 5.41991C90.9896 5.62013 90.6893 5.82034 90.2889 5.92045C89.8884 6.12067 89.5881 6.22081 89.1877 6.32092C88.7872 6.42103 88.3868 6.52106 88.0865 6.62117C87.9864 6.82139 87.8862 7.02159 87.7861 7.22181C87.686 7.42203 87.686 7.62232 87.686 7.92265C87.686 8.02276 87.686 8.12279 87.686 8.2229C87.686 8.32301 87.7861 8.42317 87.7861 8.52328C87.8862 8.62339 87.8863 8.72345 87.9864 8.72345C88.0865 8.82356 88.1866 8.82366 88.2867 8.82366C88.587 8.82366 88.9875 8.7235 89.3879 8.52328C89.7883 8.32306 90.1888 8.12279 90.6893 7.72235C91.0897 7.42203 91.5903 7.02161 91.8906 6.62117C92.2911 6.22073 92.5914 5.82034 92.8917 5.41991L93.092 5.72016ZM90.7894 5.01944C90.7894 4.91933 90.7894 4.81918 90.6893 4.71907C90.5892 4.61896 90.4891 4.61898 90.389 4.61898C90.1888 4.61898 89.9885 4.71916 89.7883 4.81927C89.5881 4.91938 89.2878 5.1196 89.0876 5.31982C88.8874 5.52004 88.6871 5.72021 88.4869 6.02054C88.2867 6.22076 88.1866 6.52104 88.0865 6.72126C88.2867 6.72126 88.587 6.6212 88.8873 6.52109C89.1877 6.42098 89.488 6.32084 89.7883 6.12062C90.0887 6.02052 90.2889 5.8203 90.4891 5.62008C90.6893 5.41986 90.7894 5.21966 90.7894 5.01944Z" fill="#C9A063"/>
<path d="M75.5728 2.6168C75.5728 2.71691 75.5728 2.81709 75.5728 2.81709C75.5728 2.9172 75.5728 3.01726 75.5728 3.01726C75.5728 3.31759 75.4727 3.71803 75.2725 4.01836C75.0722 4.31869 74.872 4.61907 74.5717 4.81929C74.2714 5.01951 73.8709 5.2197 73.4705 5.41992C73.0701 5.52003 72.5695 5.62009 72.069 5.62009C71.2681 5.62009 70.6674 5.41987 70.3671 5.11954C69.9667 4.81921 69.7664 4.41885 69.7664 3.81819C69.7664 3.41775 69.9667 2.91716 70.267 2.51672C70.5673 2.11628 71.0679 1.61578 71.7686 1.31545C72.4694 1.01512 73.3704 0.614659 74.5717 0.41444C75.773 0.214221 77.1746 0.0139771 78.8764 0.0139771C79.377 0.0139771 79.8775 0.0139771 80.2779 0.0139771C80.6784 0.0139771 81.0788 0.0139771 81.3792 0.0139771C81.6795 0.0139771 81.8797 0.0139771 82.0799 0.0139771C82.2802 0.0139771 82.3803 0.0139771 82.5805 0.0139771C82.6806 0.0139771 82.7807 0.0139526 82.8808 0.114062C82.9809 0.214172 82.9809 0.31433 82.9809 0.41444C82.9809 0.514549 82.9809 0.514501 82.8808 0.61461C82.7807 0.61461 82.7807 0.714695 82.5805 0.714695C82.4804 0.714695 82.2802 0.714695 82.0799 0.714695C81.8797 0.714695 81.5794 0.714695 81.279 0.714695C80.5783 0.714695 80.0777 0.814854 79.5772 1.01507C79.1768 1.21529 78.7763 1.51562 78.3759 2.01617C77.9754 2.41661 77.575 3.01724 77.1745 3.6179C76.7741 4.31866 76.2736 5.01948 75.6729 5.92047C75.4727 6.2208 75.1724 6.52112 74.872 6.92156C74.5717 7.322 74.1713 7.62231 73.7708 8.02274C73.3704 8.32307 72.8698 8.62345 72.2692 8.82367C71.6685 9.02389 71.0679 9.12393 70.3671 9.12393C70.0668 9.12393 69.8666 9.12395 69.5662 9.02384C69.2659 8.92373 68.9656 8.92368 68.7653 8.72346C68.5651 8.62335 68.3649 8.42313 68.1647 8.22291C67.9645 8.0227 67.9645 7.72244 67.9645 7.42211C67.9645 7.22189 68.0646 7.02167 68.1647 6.92156C68.2648 6.82145 68.465 6.72127 68.6652 6.72127C68.8654 6.72127 68.9656 6.72137 69.0657 6.82148C69.1658 6.92159 69.1658 7.02162 69.1658 7.12173C69.1658 7.22184 69.1658 7.322 69.0657 7.42211C68.9656 7.52222 68.8655 7.5222 68.7653 7.5222C68.6652 7.5222 68.6653 7.5222 68.5651 7.5222C68.5651 7.92263 68.8654 8.22296 69.1658 8.52329C69.5662 8.72351 69.9667 8.82367 70.5673 8.82367C71.0679 8.82367 71.5684 8.72351 72.069 8.52329C72.4694 8.32307 72.9699 8.02272 73.2703 7.62228C73.6707 7.22184 73.971 6.82145 74.3715 6.42102C74.6718 5.92047 75.0723 5.52 75.3726 5.01946C75.6729 4.51891 76.0733 4.01836 76.3737 3.51781C76.674 3.01726 77.0745 2.61678 77.4749 2.21634C77.8753 1.8159 78.2757 1.51557 78.6762 1.21524C79.0766 0.914914 79.5772 0.71472 80.0777 0.61461C79.6773 0.61461 79.1767 0.614635 78.6762 0.514525C78.1756 0.514525 77.6751 0.41444 77.2747 0.41444C76.0733 0.41444 74.9722 0.514501 74.0712 0.61461C73.1702 0.814829 72.3693 1.01512 71.7686 1.31545C71.168 1.61578 70.6674 1.91611 70.3671 2.31655C70.0668 2.71698 69.8666 3.11737 69.8666 3.51781C69.8666 4.01836 70.0668 4.41875 70.4672 4.71908C70.8677 5.01941 71.3682 5.11954 72.069 5.11954C72.5695 5.11954 72.97 5.01948 73.3704 4.91937C73.7708 4.81926 74.1713 4.61904 74.4716 4.41882C74.7719 4.2186 74.9721 3.91823 75.1723 3.6179C75.3726 3.31757 75.3726 3.01722 75.3726 2.71689C75.3726 2.61678 75.3726 2.51672 75.3726 2.51672C75.3726 2.41661 75.3726 2.31645 75.3726 2.21634H75.5728V2.6168Z" fill="#D8B165"/>
<path d="M85.3836 0.0139771L80.3781 6.92156C80.5783 6.72134 80.7785 6.42097 81.0789 6.12064C81.3792 5.82031 81.5794 5.52005 81.8797 5.31983C82.1801 5.01951 82.4804 4.81919 82.7807 4.71908C83.081 4.51886 83.4815 4.41882 83.7818 4.41882C84.3825 4.41882 84.6828 4.71908 84.6828 5.21963C84.6828 5.31974 84.5827 5.51996 84.4826 5.72017C84.3825 5.92039 84.2824 6.12071 84.0821 6.32093C83.8819 6.52115 83.7818 6.72132 83.5816 7.02165C83.3814 7.22187 83.1812 7.42206 83.0811 7.62228C82.8808 7.8225 82.7807 8.0227 82.6806 8.22291C82.5805 8.42313 82.4804 8.52324 82.4804 8.72346C82.4804 8.82357 82.4804 8.92375 82.5805 8.92375C82.6806 9.02386 82.6806 9.02384 82.7807 9.02384C82.9809 9.02384 83.2813 8.92378 83.4815 8.82367C83.7818 8.72356 83.982 8.52334 84.2824 8.32312C84.5827 8.1229 84.883 7.92261 85.0832 7.62228C85.3836 7.32195 85.5838 7.12181 85.8841 6.82148C86.0843 6.62126 86.2846 6.32086 86.4848 6.12064C86.685 5.92042 86.7851 5.7202 86.8852 5.62009H86.9853C86.8852 5.82031 86.685 6.0205 86.5849 6.22072C86.3847 6.42094 86.1844 6.72134 85.9842 6.92156C85.784 7.22189 85.4837 7.42204 85.1833 7.72237C84.883 8.0227 84.5827 8.22299 84.3825 8.42321C84.0821 8.62343 83.7818 8.82365 83.5816 8.92375C83.2813 9.02386 83.081 9.12393 82.7807 9.12393C82.5805 9.12393 82.3803 9.02386 82.18 8.92375C81.9798 8.82365 81.9798 8.62345 81.9798 8.32312C81.9798 8.1229 82.0799 7.92259 82.18 7.72237C82.2802 7.52215 82.3803 7.32195 82.5805 7.12173C82.7807 6.92151 82.8808 6.72132 83.0811 6.5211C83.2813 6.32088 83.4815 6.12069 83.5816 5.92047C83.7818 5.72025 83.8819 5.52003 83.982 5.41992C84.0821 5.2197 84.1822 5.11957 84.1822 5.01946C84.1822 4.91935 84.1823 4.81919 84.0821 4.71908C83.982 4.61897 83.8819 4.61899 83.7818 4.61899C83.5816 4.61899 83.2813 4.71918 82.9809 4.81929C82.6806 5.01951 82.3803 5.2197 82.08 5.41992C81.7796 5.72025 81.4793 6.0206 81.1789 6.32093C80.8786 6.62126 80.5783 7.0217 80.278 7.32203C79.9776 7.62235 79.7774 7.92259 79.5772 8.22291C79.377 8.52324 79.1768 8.82362 79.0767 9.02384H78.1757C78.6762 8.22296 79.2769 7.52215 79.7774 6.72127C80.278 5.92039 80.8786 5.11959 81.3792 4.41882C81.8797 3.61795 82.4804 2.91713 82.9809 2.11625C83.4815 1.41549 83.982 0.614635 84.4826 0.0139771H85.3836Z" fill="#D8B165"/>
<path d="M93.092 5.72016C92.9918 5.92038 92.7916 6.22078 92.5914 6.421C92.3912 6.72133 92.0908 6.92148 91.8906 7.22181C91.5903 7.52213 91.29 7.72243 90.9896 7.92265C90.6893 8.12287 90.389 8.42317 89.9886 8.52328C89.6882 8.7235 89.2878 8.82363 88.9875 8.92374C88.6871 9.02385 88.2867 9.12391 87.9864 9.12391C87.5859 9.12391 87.2856 9.02388 87.0854 8.82366C86.8852 8.62344 86.785 8.32306 86.785 8.02273C86.785 7.62229 86.8851 7.2219 87.1855 6.82147C87.4858 6.42103 87.7861 6.02052 88.1866 5.62008C88.587 5.21964 88.9875 4.91929 89.488 4.71907C89.9886 4.51885 90.389 4.31873 90.7894 4.31873C90.9896 4.31873 91.1899 4.3187 91.3901 4.41881C91.4902 4.51892 91.5903 4.61905 91.5903 4.81927C91.5903 5.01949 91.4902 5.21969 91.1898 5.41991C90.9896 5.62013 90.6893 5.82034 90.2889 5.92045C89.8884 6.12067 89.5881 6.22081 89.1877 6.32092C88.7872 6.42103 88.3868 6.52106 88.0865 6.62117C87.9864 6.82139 87.8862 7.02159 87.7861 7.22181C87.686 7.42203 87.686 7.62232 87.686 7.92265C87.686 8.02276 87.686 8.12279 87.686 8.2229C87.686 8.32301 87.7861 8.42317 87.7861 8.52328C87.8862 8.62339 87.8863 8.72345 87.9864 8.72345C88.0865 8.82356 88.1866 8.82366 88.2867 8.82366C88.587 8.82366 88.9875 8.7235 89.3879 8.52328C89.7883 8.32306 90.1888 8.12279 90.6893 7.72235C91.0897 7.42203 91.5903 7.02161 91.8906 6.62117C92.2911 6.22073 92.5914 5.82034 92.8917 5.41991L93.092 5.72016ZM90.7894 5.01944C90.7894 4.91933 90.7894 4.81918 90.6893 4.71907C90.5892 4.61896 90.4891 4.61898 90.389 4.61898C90.1888 4.61898 89.9885 4.71916 89.7883 4.81927C89.5881 4.91938 89.2878 5.1196 89.0876 5.31982C88.8874 5.52004 88.6871 5.72021 88.4869 6.02054C88.2867 6.22076 88.1866 6.52104 88.0865 6.72126C88.2867 6.72126 88.587 6.6212 88.8873 6.52109C89.1877 6.42098 89.488 6.32084 89.7883 6.12062C90.0887 6.02052 90.2889 5.8203 90.4891 5.62008C90.6893 5.41986 90.7894 5.21966 90.7894 5.01944Z" fill="#D8B165"/>
<path d="M75.3726 34.752H86.2845" stroke="#D8B165" stroke-width="0.25" stroke-miterlimit="10"/>
</svg>
