<?xml version="1.0" encoding="utf-8"?>
<!-- Generator: Adobe Illustrator 25.2.3, SVG Export Plug-In . SVG Version: 6.00 Build 0)  -->
<svg version="1.1" id="圖層_1" xmlns="http://www.w3.org/2000/svg" xmlns:xlink="http://www.w3.org/1999/xlink" x="0px" y="0px"
	 viewBox="0 0 280 35" style="enable-background:new 0 0 280 35;" xml:space="preserve">
<style type="text/css">
	.st0{fill:none;stroke:#D1AC64;stroke-width:0.25;stroke-miterlimit:10;stroke-dasharray:2,2;}
	.st1{fill:#C39C61;}
	.st2{fill:#C9A063;}
	.st3{fill:#FFFFFF;}
</style>
<path class="st0" d="M55.5,34.2h215.7"/>
<path class="st1" d="M20.9,21.8c0,0-3.9,0.8-7.1-2.1l1.2-1.4c0,0,1.6,2.3,4.9,2.1s3.9-3.1,3.9-4.8c0-1.2-0.6-2.9-1.5-3.8
	c-0.5-0.5-1.1-0.7-1.8-0.7h-3.1V9.8h3.1c0.6,0,1.2-0.3,1.7-0.7C23,8.3,23.5,7,23.5,5.9c0-1.5-0.5-4.1-3.5-4.2
	c-3-0.2-4.4,1.8-4.4,1.8l-1.1-1.2c2.8-2.6,6.4-1.9,6.4-1.9c5.8,0.7,5.3,5.5,5.3,5.5c-0.2,2.6-1.7,3.9-3.1,4.6
	c1.6,0.7,3.5,2.2,3.7,5.3C26.8,15.6,27.3,21,20.9,21.8z"/>
<path class="st2" d="M30,1.8c0.8,1.1,2.1,2.5,3.5,2.7c0.2-1.7-1.4-3.1-2.8-3.6c-0.5-0.2-1-0.3-1.6-0.4C29.4,0.9,29.7,1.4,30,1.8z
	 M37.1,6.1c-0.4,1.6-0.7,3.5,0,5c1.6-1,1.7-3.1,1.3-4.8C38.2,5.7,38,5,37.6,4.5C37.4,5,37.3,5.6,37.1,6.1z M39,10.8
	c-0.9,1.4-1.7,3.3-1.4,5c2-0.5,2.5-2.6,2.6-4.4c0-0.7-0.1-1.4-0.2-2C39.6,9.9,39.3,10.4,39,10.8z M39.6,16c-1.3,1.2-2.6,2.8-2.9,4.6
	c0.5,0,0.8,0,1.3-0.2c1.9-0.9,2.9-3.4,2.9-5.5C40.4,15.2,40,15.6,39.6,16z M38.7,21.3c-1.6,0.8-3.4,2-4.1,3.6c2,0.7,3.7-0.8,4.8-2.3
	c0.4-0.6,0.8-1.3,1-2C39.8,20.8,39.3,21,38.7,21.3z M36.6,26.1c-1.8,0.3-3.8,0.9-5,2.3c0.7,0.5,1.3,0.7,2.1,0.6
	c1.9-0.2,3.6-1.5,4.7-3C37.7,26,37.1,26,36.6,26.1z M33.2,30.2c-1.8-0.2-4.1-0.1-5.6,0.9c1.3,1.8,3.6,1.4,5.4,0.7
	c0.7-0.3,1.4-0.7,2-1.2C34.4,30.4,33.8,30.3,33.2,30.2z M34.1,2c0,1.6,0.3,3.6,1.4,4.8c1.3-1.3,0.7-3.6-0.1-4.9
	c-0.3-0.6-0.8-1.1-1.2-1.5C34.1,0.9,34.1,1.5,34.1,2z M28.9,33.3c-1.4-0.6-2.5-0.9-4-1c-0.6,0-1.1,0.1-1.7,0.3
	c0.5,1.1,1.3,1.6,2.4,2.1c0.9,0.2,1.7,0.2,2.6,0.1c0.8-0.1,1.6-0.3,2.3-0.6C30,33.9,29.4,33.6,28.9,33.3z M33.2,8.1
	c0.8,0.2,1.5,0.5,2.1,1.1c0.6,0.6,0.9,1.3,0.9,2.1c-1.9-0.1-3.5-1.8-4.5-3.4C32.2,8,32.7,8,33.2,8.1z M34.4,11.9
	c1.4,0.7,2.6,2.3,2.2,4c-1.7-0.5-3.1-2.7-3.6-4.4C33.4,11.5,33.9,11.6,34.4,11.9z M34.6,15.8c1.2,1.1,1.8,2.4,1.4,4
	c-0.1,0.2-0.1,0.3-0.2,0.5c-1.6-0.9-2.4-3.5-2.5-5.3C33.7,15.2,34.2,15.4,34.6,15.8z M33.7,19.6c1,1.3,1.3,3.4,0.1,4.7
	c-1.4-1.3-1.5-4-1.2-5.8C33,18.8,33.4,19.2,33.7,19.6z M31.9,23.1c0.6,1.4,0.6,2.7-0.3,3.9c-0.2,0.3-0.4,0.5-0.7,0.7
	c-1.1-1.6-0.6-4.3,0.2-6C31.4,22.1,31.7,22.6,31.9,23.1z M29.3,25.8c0.3,1.7-0.4,3.7-2.2,4.4c-0.5-1.4,0.2-3.4,0.9-4.7
	c0.2-0.4,0.5-0.8,0.8-1.2C29,24.8,29.2,25.3,29.3,25.8z M31.1,4.8c1.5,0,3.3,0.9,3.6,2.5c-1.8,0.3-3.9-1-5.1-2.2
	C30.1,4.8,30.6,4.8,31.1,4.8z M26.1,27.8c-0.1,1.4-0.6,2.4-1.7,3.2c-0.5,0.4-1,0.6-1.6,0.7c-0.2-1.2,0.2-2.1,0.9-3
	c0.3-0.5,0.7-1,1.1-1.5c0.3-0.4,0.7-0.7,1.1-1C26.1,26.7,26.1,27.2,26.1,27.8z"/>
<path class="st2" d="M33.5,4.5C34.6,6,35.3,7.3,35.9,9c1.3,3.8,1.4,7,0.3,10.9c-1,3-2.2,5.1-4.4,7.3c-2.2,2.1-4.3,3.3-7.2,4.2
	c-1.8,0.5-3.6,1.1-5.3,1.6c0.1,0.2,0.1,0.4,0.2,0.5c1.8-0.6,3.5-1.1,5.3-1.6c3-1,5.1-2.2,7.4-4.4c2.2-2.3,3.5-4.5,4.4-7.5
	c1-4,0.9-7.1-0.5-11C35.4,7.2,34.6,6,33.5,4.5z"/>
<path class="st2" d="M11.4,1.8c-0.8,1.1-2.1,2.5-3.5,2.7c-0.2-1.7,1.4-3.1,2.8-3.6c0.5-0.2,1-0.3,1.6-0.4C12,0.9,11.7,1.4,11.4,1.8z
	 M4.3,6.1c0.4,1.6,0.7,3.5,0,5C2.7,10.1,2.6,8,3,6.3C3.2,5.7,3.4,5,3.8,4.5C4,5,4.1,5.6,4.3,6.1z M2.4,10.8c0.9,1.4,1.7,3.3,1.4,5
	c-2-0.5-2.5-2.6-2.6-4.4c0-0.7,0.1-1.4,0.2-2C1.8,9.9,2.1,10.4,2.4,10.8z M1.9,16c1.3,1.2,2.6,2.8,2.9,4.6c-0.5,0-0.8,0-1.3-0.2
	c-1.9-0.9-2.9-3.4-2.9-5.5C1,15.2,1.4,15.6,1.9,16z M2.7,21.3c1.6,0.8,3.4,2,4.1,3.6c-2,0.7-3.7-0.8-4.8-2.3c-0.4-0.6-0.8-1.3-1-2
	C1.6,20.8,2.1,21,2.7,21.3z M4.9,26.1c1.8,0.3,3.8,0.9,5,2.3c-0.7,0.5-1.3,0.7-2.1,0.6c-1.9-0.2-3.6-1.5-4.7-3
	C3.7,26,4.3,26,4.9,26.1z M8.2,30.2c1.8-0.2,4.1-0.1,5.6,0.9c-1.3,1.8-3.6,1.4-5.4,0.7c-0.7-0.3-1.4-0.7-2-1.2
	C7,30.4,7.6,30.3,8.2,30.2z M7.3,2c0,1.6-0.3,3.6-1.4,4.8C4.6,5.5,5.2,3.2,6,1.9c0.3-0.6,0.8-1.1,1.2-1.5C7.3,0.9,7.3,1.5,7.3,2z
	 M12.5,33.3c1.4-0.6,2.5-0.9,4-1c0.6,0,1.1,0.1,1.7,0.3c-0.5,1.1-1.3,1.6-2.4,2.1c-0.9,0.2-1.7,0.2-2.6,0.1
	c-0.8-0.1-1.6-0.3-2.3-0.6C11.4,33.9,12,33.6,12.5,33.3z M8.2,8.1C7.4,8.3,6.7,8.6,6.1,9.2c-0.6,0.6-0.9,1.3-0.9,2.1
	c1.9-0.1,3.5-1.8,4.5-3.4C9.2,8,8.7,8,8.2,8.1z M7,11.9c-1.4,0.7-2.6,2.3-2.2,4c1.7-0.5,3.1-2.7,3.6-4.4C8,11.5,7.5,11.6,7,11.9z
	 M6.8,15.8c-1.2,1.1-1.8,2.4-1.4,4c0.1,0.2,0.1,0.3,0.2,0.5C7.2,19.4,8,16.8,8.1,15C7.7,15.2,7.2,15.4,6.8,15.8z M7.7,19.6
	c-1,1.3-1.3,3.4-0.1,4.7c1.4-1.3,1.5-4,1.2-5.8C8.4,18.8,8,19.2,7.7,19.6z M9.5,23.1c-0.6,1.4-0.6,2.7,0.3,3.9
	c0.2,0.3,0.4,0.5,0.7,0.7c1.1-1.6,0.6-4.3-0.2-6C10,22.1,9.7,22.6,9.5,23.1z M12.1,25.8c-0.3,1.7,0.4,3.7,2.2,4.4
	c0.5-1.4-0.2-3.4-0.9-4.7c-0.2-0.4-0.5-0.8-0.8-1.2C12.4,24.8,12.2,25.3,12.1,25.8z M10.3,4.8C8.8,4.8,7,5.7,6.7,7.3
	c1.8,0.3,3.9-1,5.1-2.2C11.3,4.8,10.8,4.8,10.3,4.8z M15.3,27.8c0.1,1.4,0.6,2.4,1.7,3.2c0.5,0.4,1,0.6,1.6,0.7
	c0.2-1.2-0.2-2.1-0.9-3c-0.3-0.5-0.7-1-1.1-1.5c-0.3-0.4-0.7-0.7-1.1-1C15.3,26.7,15.3,27.2,15.3,27.8z"/>
<path class="st2" d="M7.9,4.5C6.8,6,6.1,7.3,5.5,9c-1.3,3.8-1.4,7-0.3,10.9c1,3,2.2,5.1,4.4,7.3c2.2,2.1,4.3,3.3,7.2,4.2
	c1.8,0.5,3.6,1.1,5.3,1.6c-0.1,0.2-0.1,0.4-0.2,0.5c-1.8-0.6-3.5-1.1-5.3-1.6c-3-1-5.1-2.2-7.4-4.4C7,25.2,5.7,23,4.8,20
	c-1-4-0.9-7.1,0.5-11C6,7.2,6.8,6,7.9,4.5z"/>
<path class="st3" d="M67.1,13.5v1h-5.9v6.2H60v-1.3c-1.4,0.2-2.9,0.3-4.6,0.5l-0.2-1.1c0.4,0,0.7,0,1.1-0.1v-4.3h-1.1v-1h11.9V13.5z
	 M65.8,9v4h-9.3V9H65.8z M60,15.3v-0.8h-2.6v0.8H60z M60,17v-0.8h-2.6V17H60z M60,18.5v-0.7h-2.6v0.9C58.3,18.7,59.1,18.6,60,18.5z
	 M64.6,10.6V9.9h-6.7v0.7H64.6z M64.6,11.4h-6.7v0.7h6.7V11.4z M66.6,15.2V16c-0.3,1.2-0.8,2.1-1.5,2.9c0.6,0.3,1.2,0.6,2,0.8
	l-0.6,0.9c-0.9-0.3-1.7-0.7-2.3-1.1c-0.6,0.4-1.4,0.8-2.4,1.1l-0.6-1c0.8-0.2,1.5-0.5,2.1-0.8c-0.6-0.6-1.1-1.2-1.5-2l0.9-0.5
	c0.4,0.8,0.8,1.4,1.4,1.9c0.1-0.1,0.2-0.1,0.2-0.2c0.5-0.5,0.8-1.2,1.1-1.9h-3.9v-1L66.6,15.2L66.6,15.2z"/>
<path class="st3" d="M70.3,9.9v-1h4.6c0.8,1.4,2.6,2.6,5.3,3.8l-0.8,1.2c-0.4-0.2-0.7-0.3-1.1-0.5v0.8h-3.6v2h3.5v1.1h-3.5v2.2h5
	v1.1H68.5v-1.1h4.9v-2.2H70v-1.1h3.4v-2h-3.5v-0.8c-0.3,0.2-0.7,0.3-1,0.5l-0.7-1.2c1.4-0.5,2.4-1,3.1-1.5c0.5-0.3,1-0.7,1.4-1.2
	h-2.4V9.9z M77.8,13.1c-0.6-0.3-1.1-0.6-1.5-1c-0.9-0.6-1.6-1.4-2.2-2.2c-0.4,0.6-0.9,1.2-1.3,1.5c-0.5,0.5-1.3,1.1-2.3,1.6
	L77.8,13.1L77.8,13.1z"/>
<path class="st3" d="M92.9,9.4v1.1h-5.1c-0.1,0.4-0.3,0.8-0.6,1.2h5.1v8.9h-1.2V20H83v0.7h-1.2v-8.9h4.1c0.2-0.4,0.4-0.8,0.6-1.2
	h-5.1V9.5L92.9,9.4L92.9,9.4z M84.5,18.9v-6.1H83v6.1H84.5z M88.5,14.1v-1.3h-2.8v1.3H88.5z M88.5,16.4V15h-2.8v1.4H88.5z
	 M88.5,18.9v-1.4h-2.8v1.4H88.5z M91.1,18.9v-6.1h-1.5v6.1H91.1z"/>
<path class="st3" d="M98,8.9c-0.2,0.7-0.4,1.3-0.7,1.9h1.9v2.7c0.4-0.6,0.7-1.2,0.9-1.9c0.3-0.7,0.5-1.7,0.6-2.9l1.3,0.2
	c-0.1,0.7-0.2,1.3-0.4,1.8h4c0,4.6-0.1,7.3-0.2,8.1c-0.1,0.7-0.4,1.1-0.7,1.3c-0.4,0.3-1,0.4-2,0.4c-0.3,0-0.6,0-1-0.1l-0.2-1.3
	c0.4,0.1,0.8,0.1,1.2,0.1c0.8,0,1.3-0.3,1.4-0.8c0.2-0.7,0.3-2.9,0.3-6.6h-3.1c0,0.1-0.1,0.2-0.1,0.2c-0.3,0.9-0.8,1.9-1.4,3
	l-0.6-0.8v5.3h-1.1v-0.6h-2.4v1h-1.1v-9.2h1.6c0.3-0.6,0.5-1.3,0.6-2L98,8.9z M98.1,14.4v-2.5h-2.4v2.5H98.1z M98.1,18v-2.6h-2.4V18
	H98.1z M103.5,16.8l-1.2,0.8c-0.4-0.9-0.9-2-1.5-3.2l1-0.7C102.5,14.9,103.1,15.9,103.5,16.8z"/>
<path class="st3" d="M117.7,15.8v1.1h-4v2.3h5.3v1.2h-12v-1.2h5.3V17h-4v-1.1L117.7,15.8L117.7,15.8z M112.5,12.2
	c-0.5,0.8-1,1.5-1.7,1.9c-0.6,0.4-1.6,0.8-2.9,1.1l-0.7-1.2c1.4-0.3,2.3-0.6,2.8-0.9c0.5-0.3,1-0.8,1.4-1.6L112.5,12.2z M113.8,10
	h4.8v2.7h-1.2v-1.6H115v2c0,0.3,0.2,0.5,0.5,0.5h3.4v1.1h-3.7c-0.5,0-0.8-0.1-1.1-0.3c-0.3-0.2-0.4-0.5-0.4-0.8v-2.4h-5.1v1.6h-1.2
	V10h5.1c-0.2-0.4-0.4-0.7-0.5-1.1l1.3-0.2C113.5,9.1,113.7,9.5,113.8,10z"/>
<path class="st3" d="M125.5,14h-3.8v6.7h-1.2V9.2h5V14z M124.3,11v-0.9h-2.6V11H124.3z M124.3,13v-1h-2.6v1H124.3z M128.7,14.6v4.9
	h-5.3v-4.9H128.7z M127.5,16.5v-0.9h-3v0.9H127.5z M127.5,17.5h-3v1h3V17.5z M131.6,9.1v10.3c0,0.5-0.1,0.8-0.4,1
	c-0.2,0.2-0.6,0.3-1.1,0.3h-1l-0.3-1.2l1,0.1c0.3,0,0.5-0.2,0.5-0.6v-5h-3.9V9.2h0.6h4.6V9.1z M130.4,11.1v-0.9h-2.7v0.9H130.4z
	 M130.4,12h-2.7v1h2.7V12z"/>
<path class="st3" d="M135.2,10.6V8.8h1.2v1.8h1.5v1.1h-1.5v1.2c0,0.3,0,0.5,0,0.8h1.7v1.1h-1.8c0,0.3-0.1,0.5-0.1,0.8
	c0.7,0.6,1.5,1.3,2.2,2l-0.8,1.2c-0.7-0.9-1.2-1.5-1.7-2c0,0.1,0,0.1-0.1,0.2c-0.3,1.1-1,2.2-1.9,3.3l-1-0.9
	c0.8-0.9,1.4-1.8,1.8-2.8c0.2-0.5,0.3-1.1,0.4-1.8h-2v-1.1h2c0-0.2,0-0.5,0-0.8v-1.2h-1.8v-1.1H135.2z M144.3,9.2v7.2h-1.6V19
	c0,0.2,0.1,0.4,0.4,0.4h0.5c0.1,0,0.2-0.1,0.3-0.2c0.1-0.1,0.1-0.7,0.1-1.8l1.1,0.3c-0.1,1.3-0.2,2.1-0.4,2.3
	c-0.2,0.2-0.5,0.4-0.9,0.4h-1c-0.4,0-0.6-0.1-0.8-0.3s-0.3-0.5-0.3-0.8v-2.9h-0.9c-0.1,1.1-0.4,1.9-0.7,2.4
	c-0.5,0.7-1.3,1.2-2.5,1.7l-0.8-1c1-0.4,1.8-0.8,2.2-1.3c0.3-0.4,0.6-1,0.7-1.9h-1.2V9.1h5.8V9.2z M143.2,11.3v-1h-3.7v1H143.2z
	 M143.2,13.3v-1h-3.7v1H143.2z M143.2,14.3h-3.7v1h3.7V14.3z"/>
<path class="st3" d="M149.3,9.4V8.8h1.1v0.6h2.8v1.3h0.8v0.8h-0.8v1.3h-2.8v0.6h3v0.8h-3v0.5h3.3v0.8h-7.5v-0.8h3.1v-0.5h-2.7v-0.8
	h2.7v-0.6h-2.5V12h2.5v-0.6h-3.2v-0.8h3.2V10h-2.5V9.2h2.5V9.4z M153.8,20.1c-1.4,0.2-3.9,0.3-7.5,0.5l-0.1-1c3,0,5.6-0.1,7.7-0.3
	L153.8,20.1L153.8,20.1z M153.2,15.9v2.9h-6.5v-2.9H153.2z M149.5,17.1v-0.5h-1.7v0.5H149.5z M149.5,17.7h-1.7v0.5h1.7V17.7z
	 M150.4,10.7h1.7v-0.6h-1.7V10.7z M150.4,12.1h1.7v-0.6h-1.7V12.1z M150.5,17.1h1.7v-0.5h-1.7V17.1z M152.2,17.7h-1.7v0.5h1.7V17.7z
	 M157.7,8.8v10.5c0,0.5-0.1,0.8-0.3,1c-0.2,0.2-0.5,0.3-1,0.3h-1.7l-0.3-1.3c0.7,0.1,1.2,0.1,1.7,0.1c0.3,0,0.5-0.1,0.5-0.3V8.8
	H157.7z M155.6,9.7v8.2h-1.2V9.7H155.6z"/>
<path class="st3" d="M165.5,16.1c-0.2,0.3-0.5,0.5-1,0.8l-0.4-0.6c0.6-0.3,1-0.7,1.1-1.2h-0.8v-1.6h1.6v1.3
	C165.9,15.3,165.8,15.8,165.5,16.1z"/>
<path class="st3" d="M182.5,12v1.1H181c0.9,0.9,1.7,1.7,2.4,2.5l-0.8,0.8c-0.2-0.3-0.5-0.7-0.8-1c-0.9,0.1-1.9,0.2-3.1,0.3v1.2h4.7
	V18h-4.7v1.2h5.2v1.1h-11.6v-1.1h5.1V18h-4.5v-1.1h4.5v-1.1c-1.2,0.1-2.6,0.1-4.2,0.2l-0.3-1.2c0.6,0,1.2,0,1.7,0
	c0.5-0.5,1-1.1,1.4-1.7h-2.2V12H182.5z M178.9,9.9h5v2.7h-1.2V11h-9.1v1.5h-1.2V9.8h5.2c-0.1-0.3-0.3-0.7-0.5-1l1.3-0.2
	C178.6,9.1,178.8,9.5,178.9,9.9z M180.1,13.6l0.6-0.6h-3.3c-0.3,0.5-0.7,1.1-1.1,1.6c1.9,0,3.5-0.1,4.7-0.2
	C180.7,14.2,180.4,13.9,180.1,13.6z"/>
<path class="st3" d="M196.1,19.2c0,0.4-0.1,0.8-0.3,1c-0.2,0.2-0.5,0.3-0.8,0.3h-2.2l-0.2-1.3l1.9,0.1c0.3,0,0.4-0.2,0.4-0.6V17
	l-0.8,0.9c-0.7-0.7-1.3-1.4-1.8-2c-0.4-0.6-0.8-1.4-1.1-2.2c-0.2,0.5-0.4,0.9-0.7,1.3c-0.6,1-1.5,2-2.6,3.1l-0.5-0.8v3.2h-1.3v-9.3
	h4.4V9.9h-2.8v-1h4.1v2.3h4.3V19.2z M189.6,14.4c0.3-0.5,0.6-1.2,0.9-2h-3v4.5C188.4,16,189.1,15.1,189.6,14.4z M192.9,14.6
	c0.4,0.7,1.1,1.5,2,2.2v-4.4h-3C192.1,13.2,192.5,14,192.9,14.6z"/>
<path class="st3" d="M201.8,9.3c-0.3,1-0.7,1.9-1,2.6v8.6h-1.2v-6.7c-0.3,0.5-0.7,0.9-1.1,1.4l-0.4-1.5c0.5-0.7,1-1.4,1.4-2.1
	c0.4-0.7,0.8-1.6,1.2-2.9L201.8,9.3z M205,10V8.7h1.2V10h3.6v1.1h-3.6v1.1h3.1V16h-3.1c-0.1,0.9-0.2,1.7-0.5,2.3
	c0.1,0.1,0.2,0.1,0.3,0.2c0.8,0.4,2.2,0.7,4.1,0.9l-0.3,1.2c-1.8-0.2-3.2-0.5-4.2-1c-0.2-0.1-0.4-0.2-0.6-0.3
	c-0.7,0.7-1.8,1.2-3.4,1.4l-0.6-1.2c1.3-0.1,2.3-0.4,2.8-0.8c-0.8-0.6-1.5-1.2-2.2-2.1l0.7-0.5H202v-3.8h3v-1.1h-3.4V10H205z
	 M204.6,17.6c0.2-0.4,0.3-1,0.3-1.6h-2.1C203.4,16.7,204,17.2,204.6,17.6z M205,13.3h-1.7V15h1.7V13.3z M208.1,13.3h-1.9V15h1.9
	V13.3z"/>
<path class="st3" d="M222.5,9.2v9.9c0,0.4-0.1,0.8-0.3,1c-0.2,0.2-0.5,0.4-0.9,0.4h-1.7l-0.3-1.2l1.6,0.1c0.2,0,0.4-0.1,0.4-0.4
	v-2.3H218v3.7h-1.2v-3.7h-3.4c-0.1,0.4-0.1,0.9-0.2,1.3c-0.2,0.9-0.6,1.8-1.1,2.7l-1.1-0.9c0.5-0.7,0.8-1.4,1-2.1
	c0.1-0.8,0.2-1.5,0.2-2.1V9.4h0.6h9.7V9.2z M216.9,12.4v-2h-3.3v2H216.9z M216.9,15.6v-2.1h-3.3v2.1H216.9z M218,12.4h3.3v-2H218
	V12.4z M218,15.6h3.3v-2.1H218V15.6z"/>
<path class="st3" d="M235.9,9.3v1.2h-5.2v1h4.2v5.2h-4.4c-0.2,0.7-0.4,1.3-0.7,1.8c0.4,0.2,0.8,0.3,1.1,0.4c1.1,0.3,2.8,0.5,5.3,0.7
	l-0.3,1.2c-2.3-0.2-4-0.4-5.2-0.8c-0.5-0.2-1.1-0.4-1.6-0.6c-0.9,0.7-2.3,1.2-4.3,1.4l-0.6-1.2c1.6-0.1,2.8-0.4,3.6-0.9
	c-0.7-0.4-1.3-0.8-2-1.2l0.9-0.6c0.7,0.4,1.3,0.8,1.9,1.1c0.3-0.4,0.5-0.8,0.6-1.4h-3.9v-5.2h4.2v-1h-5.1V9.2L235.9,9.3L235.9,9.3z
	 M229.5,13.5v-1h-3v1H229.5z M229.5,14.5h-3v1.1h2.9C229.5,15.3,229.5,14.9,229.5,14.5z M233.6,14.5h-3c0,0.4,0,0.8-0.1,1.1h3v-1.1
	H233.6z M230.7,13.5h3v-1h-3V13.5z"/>
<path class="st3" d="M241.7,10.2c0.2-0.4,0.4-0.9,0.6-1.4l1.3,0.2c-0.2,0.4-0.3,0.9-0.5,1.2h5.9v1.2h-6.5c-0.2,0.4-0.5,0.8-0.7,1.1
	h6.2v6.9c0,0.4-0.1,0.7-0.3,0.9c-0.2,0.2-0.5,0.3-1,0.3h-2.1l-0.3-1.1l2,0.1c0.2,0,0.4-0.1,0.4-0.4V18H241v2.7h-1.3v-5.9
	c-0.6,0.5-1.2,1-1.9,1.4l-0.8-1c1.3-0.9,2.4-1.9,3.3-2.9c0.2-0.3,0.5-0.6,0.7-0.9h-3.7v-1.2H241.7z M246.7,14.6v-1.1H241v1.1H246.7z
	 M246.7,16.9v-1.2H241v1.2H246.7z"/>
<path class="st3" d="M261.6,11.1h-3c0.1,0.6,0.1,1.1,0.2,1.5c0.1,0.4,0.2,0.7,0.3,1c0.4-0.6,0.8-1.3,1.2-2.1l1,0.5
	c-0.6,1.2-1.1,2.1-1.6,2.7c0.1,0.1,0.1,0.2,0.2,0.2c0.3,0.4,0.5,0.6,0.7,0.6c0.1,0,0.2-0.6,0.4-1.7l1.1,0.8
	c-0.3,1.1-0.5,1.7-0.7,1.9c-0.2,0.2-0.4,0.3-0.7,0.3c-0.4,0-0.9-0.2-1.3-0.7c-0.2-0.2-0.3-0.4-0.5-0.6c-0.5,0.5-1,1-1.6,1.4
	l-0.5-0.9h-4v-2.9h4.1v2.6c0.5-0.3,1-0.8,1.4-1.3c-0.2-0.4-0.4-0.8-0.5-1.3c-0.2-0.6-0.3-1.4-0.4-2.3h-5.3v1.1
	c0,0.8-0.1,1.6-0.2,2.4c-0.2,0.9-0.5,1.7-0.9,2.6l-1.1-0.9c0.4-0.6,0.6-1.3,0.8-2c0.1-0.7,0.2-1.4,0.2-2v-2h6.5c0-0.4,0-0.8,0-1.3
	h1.2c0,0.5,0,0.9,0,1.3h1.6c-0.2-0.3-0.4-0.5-0.7-0.9l0.8-0.5c0.4,0.4,0.7,0.7,1,1l-0.6,0.4h0.8v1.1H261.6z M252.7,17.4
	c-0.4,1.1-0.9,2-1.4,2.8l-1-0.7c0.5-0.7,1-1.6,1.4-2.6L252.7,17.4z M257.1,11.7v1h-4.3v-1H257.1z M254.6,17v2.1
	c0,0.2,0.1,0.4,0.5,0.4h2.8c0.1,0,0.2,0,0.3-0.1c0.1-0.1,0.1-0.6,0.1-1.4l1.1,0.4c-0.1,1.1-0.2,1.7-0.4,1.9
	c-0.2,0.2-0.5,0.3-0.9,0.3h-3.5c-0.4,0-0.6-0.1-0.8-0.3c-0.2-0.2-0.3-0.5-0.3-0.8V17H254.6z M256,14.2h-2v1.1h1.9v-1.1H256z
	 M257.5,18.1l-1,0.7c-0.3-0.5-0.7-1.1-1.1-1.7l0.9-0.5C256.8,17.2,257.2,17.7,257.5,18.1z M262.1,19.2l-1.1,0.7
	c-0.5-0.7-1.1-1.5-1.8-2.4l0.9-0.6C260.9,17.8,261.6,18.6,262.1,19.2z"/>
<path class="st3" d="M270.4,16c-0.4,0.3-0.8,0.5-1.3,0.5s-0.9-0.2-1.3-0.5c-0.4-0.3-0.5-0.7-0.5-1.2s0.2-0.9,0.5-1.2
	c0.3-0.3,0.8-0.5,1.3-0.5s0.9,0.2,1.3,0.5c0.4,0.3,0.5,0.8,0.5,1.2C270.9,15.2,270.7,15.6,270.4,16z M269.7,14.1
	c-0.2-0.2-0.4-0.3-0.6-0.3c-0.2,0-0.5,0.1-0.6,0.3c-0.2,0.2-0.3,0.4-0.3,0.6s0.1,0.4,0.3,0.6c0.2,0.2,0.4,0.3,0.6,0.3
	c0.2,0,0.4-0.1,0.6-0.3c0.2-0.2,0.3-0.4,0.3-0.6S269.9,14.3,269.7,14.1z"/>
</svg>
