<?xml version="1.0" encoding="utf-8"?>
<!-- Generator: Adobe Illustrator 25.2.3, SVG Export Plug-In . SVG Version: 6.00 Build 0)  -->
<svg version="1.1" id="圖層_1" xmlns="http://www.w3.org/2000/svg" xmlns:xlink="http://www.w3.org/1999/xlink" x="0px" y="0px"
	 viewBox="0 0 280 36" style="enable-background:new 0 0 280 36;" xml:space="preserve">
<style type="text/css">
	.st0{fill:none;stroke:#D1AC64;stroke-width:0.25;stroke-miterlimit:10;stroke-dasharray:2,2;}
	.st1{fill:#C39C61;}
	.st2{fill:#C9A063;}
	.st3{fill:#FFFFFF;}
</style>
<path class="st0" d="M55.5,34.7h215.7"/>
<path class="st1" d="M27.4,16.3h-2.8v5.6H22v-5.6h-8.9l1.5-2.3l8.3-13.3h1.8V14h2.8v2.3H27.4z M22,14V4.2L15.9,14H22z"/>
<path class="st2" d="M30,2.2c0.8,1.1,2.1,2.5,3.5,2.7c0.2-1.7-1.4-3.1-2.8-3.6c-0.5-0.2-1-0.3-1.6-0.4C29.4,1.4,29.7,1.8,30,2.2z
	 M37.1,6.6c-0.4,1.6-0.7,3.5,0,5c1.6-1,1.7-3.1,1.3-4.8C38.2,6.2,38,5.5,37.6,5C37.4,5.5,37.3,6,37.1,6.6z M39,11.3
	c-0.9,1.4-1.7,3.3-1.4,5c2-0.5,2.5-2.6,2.6-4.4c0-0.7-0.1-1.4-0.2-2C39.6,10.3,39.3,10.8,39,11.3z M39.6,16.4
	c-1.3,1.2-2.6,2.8-2.9,4.6c0.5,0,0.8,0,1.3-0.2c1.9-0.9,2.9-3.4,2.9-5.5C40.4,15.7,40,16.1,39.6,16.4z M38.7,21.7
	c-1.6,0.8-3.4,2-4.1,3.6c2,0.7,3.7-0.8,4.8-2.3c0.4-0.6,0.8-1.3,1-2C39.8,21.2,39.3,21.5,38.7,21.7z M36.6,26.6
	c-1.8,0.3-3.8,0.9-5,2.3c0.7,0.5,1.3,0.7,2.1,0.6c1.9-0.2,3.6-1.5,4.7-3C37.7,26.4,37.1,26.5,36.6,26.6z M33.2,30.7
	c-1.8-0.2-4.1-0.1-5.6,0.9c1.3,1.8,3.6,1.4,5.4,0.7c0.7-0.3,1.4-0.7,2-1.2C34.4,30.9,33.8,30.7,33.2,30.7z M34.1,2.5
	c0,1.6,0.3,3.6,1.4,4.8c1.3-1.3,0.7-3.6-0.1-4.9c-0.3-0.6-0.8-1.1-1.2-1.5C34.1,1.3,34.1,1.9,34.1,2.5z M28.9,33.8
	c-1.4-0.6-2.5-0.9-4-1c-0.6,0-1.1,0.1-1.7,0.3c0.5,1.1,1.3,1.6,2.4,2.1c0.9,0.2,1.7,0.2,2.6,0.1c0.8-0.1,1.6-0.3,2.3-0.6
	C30,34.3,29.4,34,28.9,33.8z M33.2,8.6c0.8,0.2,1.5,0.5,2.1,1.1c0.6,0.6,0.9,1.3,0.9,2.1c-1.9-0.1-3.5-1.8-4.5-3.4
	C32.2,8.4,32.7,8.5,33.2,8.6z M34.4,12.3c1.4,0.7,2.6,2.3,2.2,4c-1.7-0.5-3.1-2.7-3.6-4.4C33.4,11.9,33.9,12.1,34.4,12.3z
	 M34.6,16.2c1.2,1.1,1.8,2.4,1.4,4c-0.1,0.2-0.1,0.3-0.2,0.5c-1.6-0.9-2.4-3.5-2.5-5.3C33.7,15.6,34.2,15.9,34.6,16.2z M33.7,20.1
	c1,1.3,1.3,3.4,0.1,4.7c-1.4-1.3-1.5-4-1.2-5.8C33,19.3,33.4,19.6,33.7,20.1z M31.9,23.5c0.6,1.4,0.6,2.7-0.3,3.9
	c-0.2,0.3-0.4,0.5-0.7,0.7c-1.1-1.6-0.6-4.3,0.2-6C31.4,22.6,31.7,23,31.9,23.5z M29.3,26.3c0.3,1.7-0.4,3.7-2.2,4.4
	c-0.5-1.4,0.2-3.4,0.9-4.7c0.2-0.4,0.5-0.8,0.8-1.2C29,25.2,29.2,25.7,29.3,26.3z M31.1,5.2c1.5,0,3.3,0.9,3.6,2.5
	c-1.8,0.3-3.9-1-5.1-2.2C30.1,5.3,30.6,5.2,31.1,5.2z M26.1,28.2c-0.1,1.4-0.6,2.4-1.7,3.2c-0.5,0.4-1,0.6-1.6,0.7
	c-0.2-1.2,0.2-2.1,0.9-3c0.3-0.5,0.7-1,1.1-1.5c0.3-0.4,0.7-0.7,1.1-1C26.1,27.1,26.1,27.7,26.1,28.2z"/>
<path class="st2" d="M33.5,5c1.1,1.5,1.8,2.8,2.4,4.5c1.3,3.8,1.4,7,0.3,10.9c-1,3-2.2,5.1-4.4,7.3c-2.2,2.1-4.3,3.3-7.2,4.2
	c-1.8,0.5-3.6,1.1-5.3,1.6c0.1,0.2,0.1,0.4,0.2,0.5c1.8-0.6,3.5-1.1,5.3-1.6c3-1,5.1-2.2,7.4-4.4c2.2-2.3,3.5-4.5,4.4-7.5
	c1-4,0.9-7.1-0.5-11C35.4,7.7,34.6,6.4,33.5,5z"/>
<path class="st2" d="M11.4,2.2c-0.8,1.1-2.1,2.5-3.5,2.7c-0.2-1.7,1.4-3.1,2.8-3.6c0.5-0.2,1-0.3,1.6-0.4C12,1.4,11.7,1.8,11.4,2.2z
	 M4.3,6.6c0.4,1.6,0.7,3.5,0,5c-1.6-1-1.7-3.1-1.3-4.8C3.2,6.2,3.4,5.5,3.8,5C4,5.5,4.1,6,4.3,6.6z M2.4,11.3c0.9,1.4,1.7,3.3,1.4,5
	c-2-0.5-2.5-2.6-2.6-4.4c0-0.7,0.1-1.4,0.2-2C1.8,10.3,2.1,10.8,2.4,11.3z M1.9,16.4c1.3,1.2,2.6,2.8,2.9,4.6c-0.5,0-0.8,0-1.3-0.2
	c-1.9-0.9-2.9-3.4-2.9-5.5C1,15.7,1.4,16.1,1.9,16.4z M2.7,21.7c1.6,0.8,3.4,2,4.1,3.6C4.8,26,3.1,24.5,2,23c-0.4-0.6-0.8-1.3-1-2
	C1.6,21.2,2.1,21.5,2.7,21.7z M4.9,26.6c1.8,0.3,3.8,0.9,5,2.3c-0.7,0.5-1.3,0.7-2.1,0.6c-1.9-0.2-3.6-1.5-4.7-3
	C3.7,26.4,4.3,26.5,4.9,26.6z M8.2,30.7c1.8-0.2,4.1-0.1,5.6,0.9c-1.3,1.8-3.6,1.4-5.4,0.7c-0.7-0.3-1.4-0.7-2-1.2
	C7,30.9,7.6,30.7,8.2,30.7z M7.3,2.5c0,1.6-0.3,3.6-1.4,4.8C4.6,6,5.2,3.7,6,2.4c0.3-0.6,0.8-1.1,1.2-1.5C7.3,1.3,7.3,1.9,7.3,2.5z
	 M12.5,33.8c1.4-0.6,2.5-0.9,4-1c0.6,0,1.1,0.1,1.7,0.3c-0.5,1.1-1.3,1.6-2.4,2.1c-0.9,0.2-1.7,0.2-2.6,0.1
	c-0.8-0.1-1.6-0.3-2.3-0.6C11.4,34.3,12,34,12.5,33.8z M8.2,8.6C7.4,8.8,6.7,9.1,6.1,9.7c-0.6,0.6-0.9,1.3-0.9,2.1
	c1.9-0.1,3.5-1.8,4.5-3.4C9.2,8.4,8.7,8.5,8.2,8.6z M7,12.3c-1.4,0.7-2.6,2.3-2.2,4c1.7-0.5,3.1-2.7,3.6-4.4C8,11.9,7.5,12.1,7,12.3
	z M6.8,16.2c-1.2,1.1-1.8,2.4-1.4,4c0.1,0.2,0.1,0.3,0.2,0.5c1.6-0.9,2.4-3.5,2.5-5.3C7.7,15.6,7.2,15.9,6.8,16.2z M7.7,20.1
	c-1,1.3-1.3,3.4-0.1,4.7c1.4-1.3,1.5-4,1.2-5.8C8.4,19.3,8,19.6,7.7,20.1z M9.5,23.5c-0.6,1.4-0.6,2.7,0.3,3.9
	c0.2,0.3,0.4,0.5,0.7,0.7c1.1-1.6,0.6-4.3-0.2-6C10,22.6,9.7,23,9.5,23.5z M12.1,26.3c-0.3,1.7,0.4,3.7,2.2,4.4
	c0.5-1.4-0.2-3.4-0.9-4.7c-0.2-0.4-0.5-0.8-0.8-1.2C12.4,25.2,12.2,25.7,12.1,26.3z M10.3,5.2C8.8,5.2,7,6.1,6.7,7.7
	c1.8,0.3,3.9-1,5.1-2.2C11.3,5.3,10.8,5.2,10.3,5.2z M15.3,28.2c0.1,1.4,0.6,2.4,1.7,3.2c0.5,0.4,1,0.6,1.6,0.7
	c0.2-1.2-0.2-2.1-0.9-3c-0.3-0.5-0.7-1-1.1-1.5c-0.3-0.4-0.7-0.7-1.1-1C15.3,27.1,15.3,27.7,15.3,28.2z"/>
<path class="st2" d="M7.9,5C6.8,6.5,6.1,7.8,5.5,9.5c-1.3,3.8-1.4,7-0.3,10.9c1,3,2.2,5.1,4.4,7.3c2.2,2.1,4.3,3.3,7.2,4.2
	c1.8,0.5,3.6,1.1,5.3,1.6C22,33.7,22,33.9,21.9,34c-1.8-0.6-3.5-1.1-5.3-1.6c-3-1-5.1-2.2-7.4-4.4c-2.2-2.3-3.5-4.5-4.4-7.5
	c-1-4-0.9-7.1,0.5-11C6,7.7,6.8,6.4,7.9,5z"/>
<path class="st3" d="M59.8,9.7v1.9l0.7-0.4c0.5,0.7,0.9,1.4,1.2,1.9V9.3h1.2v5c0,1.5-0.2,2.8-0.5,3.8c-0.3,1-0.9,2-1.8,3.1l-1-0.9
	c0.8-0.8,1.3-1.7,1.6-2.6c0.2-0.5,0.3-1.1,0.4-1.9c-0.4,0.5-0.8,0.9-1.3,1.3l-0.5-0.8v0.5h-1.3v2.1c0.5-0.1,0.9-0.3,1.4-0.5v1.1
	c-1.3,0.5-2.9,1-4.6,1.4L55,19.8c0.2,0,0.4-0.1,0.6-0.1v-5h1v4.7c0.3-0.1,0.5-0.1,0.8-0.2v-5.3h-1.7V9.7H59.8z M58.7,10.7h-1.8v2.1
	h1.8V10.7z M61.7,13.3l-0.9,0.6c-0.3-0.6-0.6-1.2-1-2v1.9h-1.3v1.8h1.3V16c0.6-0.4,1.2-1.1,1.9-1.9V13.3z M64.8,9.3v4.8
	c0.8,0.6,1.5,1.3,2.3,2l-0.7,1.1c-0.6-0.7-1.2-1.3-1.6-1.8v3.9c0,0.3,0.1,0.4,0.5,0.4h0.2c0.2,0,0.3-0.1,0.3-0.2
	c0.1-0.1,0.1-0.7,0.2-1.8l1.1,0.4c-0.1,1.3-0.2,2.1-0.5,2.3c-0.2,0.2-0.5,0.4-1,0.4h-0.9c-0.4,0-0.7-0.1-0.9-0.3
	c-0.2-0.2-0.3-0.5-0.3-0.8V9.3H64.8z M66.8,11.3c-0.3,1-0.6,1.8-1,2.5l-0.9-0.7c0.4-0.7,0.7-1.4,1-2.3L66.8,11.3z"/>
<path class="st3" d="M72.8,9.5v10.1c0,0.4-0.1,0.7-0.2,0.9c-0.2,0.2-0.4,0.3-0.8,0.3h-1.1l-0.3-1.2l1.1,0.1c0.2,0,0.3-0.1,0.3-0.4
	v-3c-0.4,0.4-0.8,0.8-1.2,1.1l-0.5-0.6c0,0.6-0.1,1.1-0.2,1.7c-0.2,0.9-0.4,1.8-0.7,2.6l-1-0.9c0.3-0.7,0.5-1.4,0.6-2.1
	c0.1-0.8,0.1-1.5,0.1-2.1V9.5h0.6H72.8z M71.7,14.8v-1l-0.8,0.3c-0.3-0.7-0.6-1.3-0.9-1.9V16c0,0.1,0,0.3,0,0.4
	C70.5,16,71.1,15.5,71.7,14.8z M70.8,11.7c0.3,0.5,0.6,1.1,0.9,1.7v-2.8H70V12L70.8,11.7z M79.6,12v4.1h-1.7v3.2
	c0,0.3,0.1,0.4,0.4,0.4h0.2c0.1,0,0.2-0.1,0.3-0.2c0.1-0.1,0.1-0.8,0.2-1.9l1.1,0.3c-0.1,1.5-0.2,2.3-0.4,2.6
	c-0.2,0.3-0.5,0.4-0.9,0.4H78c-0.3,0-0.6-0.1-0.8-0.3c-0.2-0.2-0.3-0.5-0.3-0.9v-3.6H76c-0.1,1.2-0.3,2.2-0.6,2.9
	c-0.3,0.8-0.9,1.5-1.8,2.1L72.9,20c0.6-0.4,1.1-1,1.4-1.6c0.3-0.6,0.4-1.4,0.5-2.4h-1.3v-4H79.6z M76.1,11.4l-1.2,0.5
	c-0.4-0.8-0.8-1.6-1.2-2.2l1.2-0.4C75.4,10,75.8,10.7,76.1,11.4z M78.5,13.1h-3.8v1.8h3.8V13.1z M79.4,9.8c-0.3,0.7-0.8,1.4-1.3,2.1
	L77,11.3c0.5-0.7,1-1.4,1.3-2L79.4,9.8z"/>
<path class="st3" d="M84.6,9.7c0,0.1-0.1,0.2-0.1,0.2h3.3V9.1H89v0.8h3.8v1H89v0.6h3.1v3.7c0.4,0.6,0.6,1.1,0.9,1.5l-1,0.7
	c-0.1-0.2-0.2-0.5-0.3-0.7c-0.2,0-0.3,0-0.5,0v0.8h1.7v1h-1.7v1.4c0,0.4-0.1,0.7-0.3,0.9c-0.2,0.2-0.5,0.3-1.1,0.3h-1.2l-0.3-1.2
	c0.4,0.1,0.8,0.1,1.1,0.1c0.3,0,0.5-0.1,0.5-0.3v-1.2h-3.7c0.5,0.5,1,1,1.3,1.4l-1.1,0.8c-0.3-0.5-0.7-1.1-1.3-1.8l0.6-0.4H84v-1
	h5.9v-0.7c-1.7,0.1-3.6,0.2-5.6,0.3l-0.2-1c1.2,0,2.4-0.1,3.6-0.1v-0.7h-3v-3.8h3v-0.6h-3.4v-0.7c-0.3,0.8-0.5,1.5-0.8,2.1V21h-1.1
	v-6.8c-0.3,0.5-0.7,1-1.1,1.4l-0.4-1.4c0.5-0.7,0.9-1.4,1.3-2.1c0.4-0.6,0.8-1.6,1.1-2.9L84.6,9.7z M87.8,13v-0.6h-1.9V13H87.8z
	 M87.8,13.8h-1.9v0.6h1.9V13.8z M89,13h2v-0.6h-2V13z M91,13.8h-2v0.6h2V13.8z M89,15.9c0.8,0,1.6-0.1,2.3-0.1
	c-0.1-0.1-0.1-0.2-0.1-0.3l0.4-0.3H89V15.9z"/>
<path class="st3" d="M97.3,9.5c-0.4,1.2-0.9,2.3-1.4,3.2c0.4-0.1,0.7-0.1,1.1-0.2c0.3-0.6,0.6-1.2,0.8-1.8l1,0.4
	c-0.9,2-1.8,3.6-2.7,4.9c0.7-0.1,1.2-0.2,1.7-0.3c-0.1-0.4-0.2-0.7-0.3-1.1l0.9-0.3c0.3,0.8,0.6,1.7,0.8,2.7l-1,0.3
	c-0.1-0.2-0.1-0.4-0.1-0.7c-0.8,0.3-2,0.5-3.6,0.6l-0.3-1.1c0.3,0,0.6,0,0.8,0c0.5-0.7,1-1.5,1.5-2.4c-0.7,0.1-1.4,0.3-2.2,0.4
	L94,13c0.2,0,0.5,0,0.7-0.1c0.6-1.1,1.1-2.4,1.5-3.7L97.3,9.5z M95.5,17.8c-0.1,1.3-0.2,2.4-0.4,3.2L94,20.7c0.2-0.9,0.4-2,0.5-3
	L95.5,17.8z M97.3,20.5l-1.1,0.1c0-1.2-0.1-2.2-0.2-2.8l0.9-0.1C97.2,18.3,97.3,19.3,97.3,20.5z M99,19.6l-1,0.3
	c-0.1-0.8-0.3-1.5-0.5-2.2l0.9-0.3C98.7,18,98.9,18.8,99,19.6z M103.2,10.6h2.8v1h-3.7c-0.2,0.9-0.6,1.7-1.1,2.5
	c1.1-0.1,2.1-0.2,2.9-0.4c-0.2-0.3-0.3-0.6-0.5-1l0.9-0.6c0.7,1.1,1.2,2,1.6,2.7l-1.1,0.7c-0.1-0.3-0.3-0.7-0.5-1
	c-0.3,0.1-0.5,0.1-0.8,0.2v4.6c0,0.2,0.1,0.4,0.4,0.4h0.5c0.1,0,0.2-0.1,0.3-0.2c0.1-0.2,0.1-0.9,0.1-2.1l1.1,0.3
	c-0.1,1.5-0.2,2.4-0.4,2.6c-0.2,0.3-0.5,0.4-0.9,0.4h-1.1c-0.4,0-0.6-0.1-0.8-0.3c-0.2-0.2-0.3-0.5-0.3-0.8V15
	c-0.3,0-0.5,0.1-0.8,0.1c-0.1,1.6-0.3,2.8-0.6,3.6c-0.4,0.9-1,1.7-2,2.4l-0.8-1c0.8-0.6,1.4-1.2,1.7-1.9c0.3-0.6,0.5-1.6,0.5-3
	c-0.4,0.1-0.9,0.1-1.4,0.1l-0.3-1.2c0.3,0,0.6,0,0.9,0c0.5-0.8,0.9-1.7,1.1-2.6H99v-1h3c-0.2-0.3-0.4-0.7-0.6-1.1l1.1-0.4
	C102.7,9.6,102.9,10,103.2,10.6z"/>
<path class="st3" d="M113.6,11.5c0-0.7,0-1.4,0-2.1h1.3c0,0.8,0,1.5,0.1,2.1h3.9v1H115c0.2,2.1,0.5,3.7,1,4.8
	c0.8,1.6,1.3,2.4,1.6,2.4c0.2,0,0.4-0.8,0.7-2.5l1.1,0.7c-0.4,1.6-0.7,2.5-0.9,2.8c-0.2,0.3-0.4,0.4-0.6,0.4c-0.6,0-1.1-0.3-1.7-0.9
	c-0.7-0.9-1.3-2.1-1.8-3.7c-0.3-1.1-0.5-2.4-0.5-4h-6.3v-1H113.6z M113.5,14.1v1h-2.3v3.2c0.9-0.2,1.8-0.5,2.7-0.8v1.2
	c-1.9,0.6-4.1,1.2-6.4,1.5l-0.2-1.2c0.8-0.1,1.7-0.2,2.6-0.4v-3.5h-2v-1H113.5z M118,10.6l-1,0.7c-0.4-0.4-0.8-0.9-1.4-1.5l0.9-0.5
	C117.1,9.8,117.6,10.2,118,10.6z"/>
<path class="st3" d="M126.9,10.1V9.2h1.2v0.9h3.1V12h0.7v1h-0.7v1.9h-3.1v0.8h3.2v0.9h-3.2v0.9h3.8v1h-3.8v1.1c0.2,0,0.4,0,0.5,0
	c1.5,0,2.7,0,3.4-0.1l-0.2,1.3c-4,0-6.5-0.1-7.4-0.3c-0.8-0.2-1.4-0.5-1.9-0.9c-0.1,0-0.1-0.1-0.1-0.1c-0.4,0.5-1,1.1-1.7,1.7
	L120,20c0.7-0.5,1.2-1,1.6-1.5c-0.4-0.7-0.8-1.5-1.2-2.7l1-0.4c0.3,0.7,0.6,1.4,0.8,1.8c0-0.1,0-0.1,0.1-0.2
	c0.2-0.6,0.3-1.3,0.4-2.4h-2.2v-0.8c0.8-0.9,1.5-2,2.1-3.1h-2.4v-1h3.7v1.1c-0.7,1.2-1.4,2.1-2,2.8h2c0,1.5-0.2,2.6-0.5,3.5
	c-0.1,0.4-0.3,0.8-0.4,1.1c0.3,0.4,0.8,0.6,1.4,0.8c0.5,0.2,1.3,0.3,2.5,0.3v-1.1h-3.1v-1h3.1v-0.9h-2.5v-0.9h2.5v-0.8h-2.4V14h2.4
	v-1h-3.1v-1h3.1v-1h-2.4v-0.9H126.9z M128.1,12h1.9v-1h-1.9V12z M128.1,14h1.9v-1h-1.9V14z"/>
<path class="st3" d="M136.2,9.4c-0.1,0.3-0.2,0.5-0.4,0.7h3.3v1c0.6-0.6,1-1.3,1.3-1.9l1.2,0.2c-0.1,0.3-0.2,0.5-0.4,0.8h3.9v1.1
	H143c0.1,0.3,0.2,0.6,0.4,1l-1.3,0.1c-0.1-0.4-0.2-0.7-0.3-1.1h-1.2c-0.3,0.4-0.6,0.8-0.9,1.1l-1.1-0.7c0.2-0.2,0.3-0.3,0.5-0.5
	h-1.7c0.1,0.3,0.3,0.6,0.4,0.9l-1.3,0.1c-0.1-0.4-0.2-0.7-0.3-1h-1c-0.3,0.4-0.7,0.8-1.1,1.2l-1.1-0.7c1-0.8,1.6-1.6,2-2.5
	L136.2,9.4z M138.6,16.8v-0.6l-0.5-0.4c0.6-0.2,1.1-0.4,1.4-0.7c-0.3-0.2-0.7-0.3-1-0.4l0.6-0.8c0.4,0.1,0.7,0.2,1,0.4
	c0-0.1,0-0.2,0-0.4v-0.5h-1.4v-0.9h4.7V15c0,0.2,0.1,0.4,0.4,0.4h0.1c0.1,0,0.2,0,0.3-0.1c0.1-0.1,0.1-0.4,0.1-1.1l1,0.3
	c-0.1,0.9-0.2,1.4-0.4,1.6c-0.2,0.2-0.5,0.2-0.9,0.2h-0.5c-0.3,0-0.6-0.1-0.8-0.3c-0.2-0.2-0.3-0.4-0.3-0.8v-1.9h-1.3v0.5
	c0,0.3,0,0.6-0.1,0.8c0.4,0.2,0.8,0.4,1.2,0.6l-0.6,1c-0.4-0.2-0.8-0.5-1.1-0.7c-0.2,0.2-0.5,0.4-0.9,0.6h0.3v0.7h5.3v1.1H141
	c0.5,0.4,0.9,0.7,1.3,0.8c0.6,0.3,1.5,0.7,2.7,0.9l-0.5,1.1c-1.4-0.5-2.5-0.9-3.1-1.4c-0.5-0.3-1.1-0.8-1.6-1.4v3.3h-1.2v-3.3
	c-0.4,0.5-0.8,0.9-1.3,1.3c-0.8,0.6-2,1.1-3.5,1.7l-0.7-1.1c1.5-0.5,2.6-0.9,3.3-1.3c0.3-0.2,0.6-0.4,0.9-0.6h-4.2v-1.1H138.6z
	 M138.2,12.6v1.1h-1.7v1.1c0.6-0.1,1.2-0.2,1.7-0.4v1c-1.4,0.3-3,0.7-4.8,1l-0.3-1.2c0.7-0.1,1.4-0.2,2.1-0.3v-1.3h-1.8v-1.1
	L138.2,12.6L138.2,12.6z"/>
<path class="st3" d="M148.8,16.9c-0.3,1.3-0.8,2.4-1.3,3.2l-1.1-0.7c0.6-0.9,1-1.8,1.2-2.8L148.8,16.9z M157.2,9.8v5.9h-9.4V9.8
	H157.2z M151.8,12.2v-1.4H149v1.4H151.8z M151.8,13.2H149v1.3h2.8V13.2z M150.4,16.3v3.1c0,0.3,0.1,0.4,0.5,0.4h3.8
	c0.2,0,0.3,0,0.4-0.1c0.1-0.1,0.2-0.5,0.2-1.4l1.2,0.4c-0.1,1.1-0.3,1.7-0.5,1.9s-0.6,0.3-1.1,0.3h-4.4c-0.4,0-0.7-0.1-0.9-0.3
	c-0.2-0.2-0.3-0.5-0.3-0.8v-3.5H150.4z M154.2,17.9l-1.1,0.5c-0.4-0.8-0.9-1.4-1.4-2l1.1-0.4C153.3,16.6,153.8,17.2,154.2,17.9z
	 M153,12.2h2.9v-1.4H153V12.2z M156,13.2h-3v1.3h2.9v-1.3H156z M158.4,19.3l-1.2,0.5c-0.5-1.1-1-2.2-1.6-3l1.2-0.4
	C157.4,17.4,157.9,18.3,158.4,19.3z"/>
<path class="st3" d="M162.4,9.5c-0.4,1.2-0.9,2.3-1.5,3.2c0.4-0.1,0.9-0.1,1.3-0.2c0.3-0.5,0.5-1.1,0.8-1.8l1.1,0.4
	c-0.9,2-1.9,3.7-2.8,5c0.7-0.1,1.2-0.2,1.7-0.3c-0.1-0.4-0.2-0.8-0.4-1.1l0.9-0.3c0.3,0.8,0.6,1.7,0.9,2.7l-1,0.3
	c-0.1-0.2-0.1-0.4-0.1-0.6c-0.9,0.3-2.1,0.5-3.7,0.6l-0.3-1.1c0.3,0,0.6,0,0.9,0c0.5-0.7,1.1-1.6,1.6-2.7c-0.7,0.2-1.5,0.3-2.4,0.5
	l-0.2-1.1c0.2,0,0.4,0,0.6-0.1c0.6-1.1,1.2-2.4,1.7-3.7L162.4,9.5z M160.8,17.8c-0.1,1.3-0.3,2.4-0.6,3.3l-1.1-0.4
	c0.4-0.9,0.7-2,0.8-3L160.8,17.8z M162.4,20.5l-1.1,0.1c0-1.2,0-2.1-0.1-2.7l0.9-0.1C162.3,18.4,162.4,19.4,162.4,20.5z M164.3,19.9
	l-1,0.4c-0.1-0.9-0.3-1.7-0.5-2.6l0.9-0.2C163.9,18.4,164.1,19.2,164.3,19.9z M166.6,9.3c-0.2,0.8-0.4,1.5-0.7,2.1h4.9v1.1h-2v1.4
	h1.9v1h-1.9v1.6h1.9v1h-1.9v1.6h2.2v1.1h-5.2V21h-1.1v-7.4c-0.2,0.3-0.5,0.6-0.8,0.9l-0.7-0.9c0.5-0.6,1-1.3,1.4-2.1
	c0.3-0.5,0.6-1.4,0.8-2.5L166.6,9.3z M167.8,12.5h-1.9v1.4h1.9V12.5z M167.8,15h-1.9v1.6h1.9V15z M167.8,19.2v-1.6h-1.9v1.6H167.8z
	 M169.4,11.1l-1.1,0.3c-0.2-0.6-0.6-1.1-0.9-1.7l1-0.3C168.7,9.9,169.1,10.5,169.4,11.1z"/>
<path class="st3" d="M178.5,16.5c-0.2,0.3-0.5,0.5-1,0.8l-0.4-0.6c0.6-0.3,1-0.7,1.1-1.2h-0.8V14h1.6v1.3
	C178.9,15.8,178.8,16.2,178.5,16.5z"/>
<path class="st3" d="M188.2,9.3v8.2c0.9-0.3,1.8-0.7,2.7-1.2l0.3,1.2c-1.5,0.8-3.4,1.6-5.6,2.2l-0.6-1.3c0.6-0.1,1.2-0.3,1.8-0.5
	V9.3H188.2z M195.2,9.3c0,2.7-0.3,4.8-0.9,6.5c1,1.2,1.9,2.5,2.6,3.7l-1.1,1.1c-0.5-1-1.2-2.2-2.1-3.4c-0.7,1.4-2,2.6-3.9,3.8
	l-0.9-1.1c1.8-1.1,3-2.2,3.6-3.4c0.8-1.5,1.2-3.9,1.3-7.3L195.2,9.3L195.2,9.3z M192.4,14.1l-1.3,0.9c-0.5-1.1-1.1-2.4-1.8-3.8
	l1.1-0.7C191.2,11.9,191.9,13.1,192.4,14.1z"/>
<path class="st3" d="M204.8,9.1v3.1c0.4,1.9,1.1,3.5,1.9,4.7c0.7,1,1.8,2.1,3.4,3.1l-0.9,1.2c-1.3-0.9-2.3-1.7-3-2.5
	c-0.9-1-1.6-2.2-2.1-3.6c-0.4,1.5-1,2.7-1.8,3.5c-0.8,0.9-2,1.8-3.5,2.7l-0.8-1.2c2-1.2,3.3-2.5,4.1-3.9c0.7-1.3,1.1-2.6,1.2-3.9
	V9.2h1.5V9.1z"/>
<path class="st3" d="M216.3,11.3V9.2h1.3v2.1h5.1v1.3h-3.9c0.4,0.9,1,1.8,1.6,2.6c0.6,0.8,1.6,1.7,2.7,2.7l-0.9,1.1
	c-1.2-1.1-2.3-2.2-3-3.3c-0.6-0.9-1.2-1.9-1.6-3.1v5.1h3v1.2h-3v2.3h-1.3v-2.3h-2.8v-1.2h2.8v-5.1h-0.1c-0.4,1.1-0.8,2-1.2,2.7
	c-0.7,1.3-1.8,2.6-3.3,4l-0.7-1.2c1.1-1,2-2,2.6-2.9c0.5-0.7,0.9-1.5,1.3-2.5h-3.6v-1.3L216.3,11.3L216.3,11.3z"/>
<path class="st3" d="M226.2,11c-0.2-0.5-0.3-0.9-0.5-1.3l1.2-0.2c0.2,0.4,0.3,0.9,0.5,1.5h0.9c0.2-0.6,0.3-1.2,0.4-1.8l1.1,0.2
	c-0.1,0.6-0.2,1.1-0.4,1.6h5.1c-0.1,0.9-0.2,1.7-0.4,2.3h1.2c-0.1,0.9-0.2,1.7-0.3,2.3h1c0,2.9-0.3,4.6-0.8,5
	c-0.3,0.4-1.1,0.5-2.6,0.5l-0.3-1.3c0.4,0.1,0.7,0.1,1,0.1c0.5,0,0.9-0.1,1.1-0.3c0.2-0.2,0.4-1.2,0.4-3H227
	c-0.6,0.8-1.2,1.6-1.9,2.1l-1-0.7c1.7-1.6,3-3.6,3.8-5.9h-3.1V11H226.2z M227.9,17.7c-0.3,1.3-0.8,2.3-1.4,3.3l-1-0.7
	c0.6-0.9,1.1-1.8,1.3-2.8L227.9,17.7z M227.6,15.6h6.1c0.1-0.3,0.1-0.8,0.2-1.2h-5.8C228,14.8,227.8,15.2,227.6,15.6z M229.9,20.7
	l-1.2,0.2c0-1.4-0.1-2.4-0.2-3.2l1-0.1C229.6,18.3,229.8,19.4,229.9,20.7z M228.6,13.3h4.3c0.1-0.3,0.1-0.7,0.2-1.2H229
	C228.9,12.5,228.8,12.9,228.6,13.3z M232,19.8l-1.1,0.2c-0.2-0.9-0.4-1.7-0.7-2.5l1-0.3C231.5,18,231.8,18.9,232,19.8z M233.9,19
	l-1,0.4c-0.2-0.7-0.4-1.4-0.7-2.1l0.9-0.2C233.4,17.8,233.7,18.4,233.9,19z"/>
<path class="st3" d="M239.6,10.2v3.5h2.7V9.2h1.4v4.5h3v-3.5h1.3v4.7h-4.2v4.3h3.5v-3.3h1.3v5.3h-1.3v-0.8H239v0.8h-1.2v-5.3h1.2
	v3.3h3.3v-4.3h-4v-4.7H239.6z"/>
<path class="st3" d="M256.2,9.6c0.3,0.3,0.7,0.7,1.1,1c0.2-0.1,0.5-0.3,0.7-0.5c0.2-0.2,0.5-0.5,0.7-0.9l1,0.6
	c-0.3,0.5-0.6,0.8-0.9,1.1c-0.1,0.1-0.3,0.3-0.5,0.4c0.2,0.1,0.5,0.3,0.8,0.4c0.3-0.2,0.5-0.4,0.7-0.6c0.3-0.3,0.5-0.6,0.8-1l1,0.6
	c-0.3,0.5-0.6,0.9-0.9,1.2c-0.1,0.1-0.2,0.2-0.4,0.4c0.6,0.2,1.2,0.5,1.9,0.7l-0.7,1c-0.5-0.2-1-0.4-1.5-0.6v1.3
	c0,0.3,0.1,0.4,0.4,0.4h1.2v1h-1.4c-0.4,0-0.8-0.1-0.9-0.3c-0.2-0.2-0.3-0.5-0.3-0.9v-0.6h-1.2c0,0.5-0.1,0.9-0.2,1.1
	c-0.1,0.3-0.5,0.6-1.2,1l-0.9-0.7c0.5-0.4,0.9-0.6,1-0.8s0.2-0.7,0.2-1.5h3.3c-0.7-0.3-1.3-0.6-1.8-0.9c-0.8-0.4-1.5-0.9-2.1-1.5
	c-0.3,0.5-0.8,1-1.3,1.3c-0.4,0.3-1.1,0.7-2,1h2.4v3h-2.5l-0.1,1h2.7c0,1.6-0.2,2.6-0.4,3.1c-0.2,0.5-0.7,0.8-1.5,0.8h-2l-0.2-1.2
	c1,0.1,1.8,0.1,2.3,0.1c0.2,0,0.4-0.1,0.5-0.3c0.1-0.2,0.1-0.7,0.2-1.4h-2.9l0.4-3h2.4v-1h-2.4v-0.5c-0.3,0.1-0.7,0.2-1,0.3
	l-0.6-1.2c0.8-0.2,1.4-0.3,2-0.5c-0.3-0.3-0.6-0.6-1-0.9L252,11c0.5,0.4,1,0.7,1.3,1c0.1,0,0.2-0.1,0.2-0.1c0.6-0.3,1.1-0.6,1.5-1.1
	h-3.5V9.7h4.7V9.6z M260.7,16.4v0.9c-0.4,0.8-0.9,1.5-1.5,2c0.7,0.3,1.7,0.5,2.9,0.8l-0.7,1c-1.4-0.3-2.4-0.6-3.1-1
	c-0.7,0.5-1.5,0.8-2.3,1.1l-0.5-1c0.7-0.2,1.3-0.4,1.8-0.6c-0.6-0.4-1-0.8-1.4-1.3l1-0.6c0.4,0.5,0.8,0.9,1.4,1.2
	c0.4-0.4,0.8-0.8,1.1-1.4h-3.1v-1h4.4V16.4z"/>
<path class="st3" d="M270.4,16.4c-0.4,0.3-0.8,0.5-1.3,0.5s-0.9-0.2-1.3-0.5c-0.4-0.3-0.5-0.7-0.5-1.2s0.2-0.9,0.5-1.2
	c0.3-0.3,0.8-0.5,1.3-0.5s0.9,0.2,1.3,0.5s0.5,0.8,0.5,1.2C270.9,15.7,270.7,16.1,270.4,16.4z M269.7,14.6c-0.2-0.2-0.4-0.3-0.6-0.3
	c-0.2,0-0.5,0.1-0.6,0.3c-0.2,0.2-0.3,0.4-0.3,0.6s0.1,0.4,0.3,0.6s0.4,0.3,0.6,0.3c0.2,0,0.4-0.1,0.6-0.3c0.2-0.2,0.3-0.4,0.3-0.6
	C270,14.9,269.9,14.8,269.7,14.6z"/>
</svg>
