<svg width="280" height="77" viewBox="0 0 280 77" fill="none" xmlns="http://www.w3.org/2000/svg">
<g clip-path="url(#clip0_139_7639)">
<path d="M53.2002 44.7998L62.4002 24.2998L71.8002 44.7998H68.4002L66.6002 40.8998H56.3002L54.6002 44.7998H53.2002ZM56.8002 39.8998H66.1002L61.4002 29.5998L56.8002 39.8998Z" fill="#C9A063"/>
<path d="M87.9001 43.7004V44.8004H75.1001V27.2004C75.1001 26.0004 74.3001 25.0004 72.6001 24.5004V24.4004H88.0001V25.5004H78.2001V33.6004H86.4001V34.9004H78.2001V43.9004H87.9001V43.7004Z" fill="#C9A063"/>
<path d="M103.5 39.6C103.5 41.7 101.9 45.2 97.1 45.2C93.3 45.2 90.8 43.6 90.2 39.4H91.1C91.7 43.2 94.9 44.1 96.7 44.1C100 44.1 100.8 41.8 100.8 40.8C100.8 38.6 99 37.5 95.7 35.7C93.6 34.6 90 32.8 90 29.3C90 24.9 94.4 24 96 24C99.9 24 101.5 26.1 102.1 29H101.1C100.7 27.5 99.6 25.1 96 25.1C94.3 25.1 92.4 26.5 92.4 28.3C92.4 30.4 94.9 31.7 97.5 33C102.3 35.4 103.5 37.1 103.5 39.6Z" fill="#C9A063"/>
<path d="M121.3 25.5998H114.5V44.7998H111.4V25.5998H104.6V24.2998H121.2V25.5998H121.3Z" fill="#C9A063"/>
<path d="M145.4 44.6004V44.7004H141.5C140.6 44.6004 139.9 43.9004 139.9 43.0004V34.8004H129.6V44.7004H126.5V27.1004C126.5 25.9004 125.7 24.9004 124.6 24.6004H124.5L124 24.5004V24.4004H127.9C128.4 24.4004 128.8 24.6004 129.1 24.9004C129.4 25.2004 129.6 25.6004 129.6 26.1004V34.0004H139.9V24.5004H143V42.1004C143 43.3004 143.8 44.3004 144.9 44.7004H145L145.4 44.6004Z" fill="#C9A063"/>
<path d="M162.1 43.7004V44.8004H149.2V27.2004C149.2 26.0004 148.4 25.0004 146.7 24.5004V24.4004H162.1V25.5004H152.3V33.6004H160.5V34.9004H152.3V43.9004H162.1V43.7004Z" fill="#C9A063"/>
<path d="M181.4 25.5998H174.6V44.7998H171.5V25.5998H164.7V24.2998H181.3L181.4 25.5998Z" fill="#C9A063"/>
<path d="M189.4 24.2998V44.7998H186.6V27.1998C186.6 25.9998 185.8 24.9998 184.1 24.4998V24.3998L189.4 24.2998Z" fill="#C9A063"/>
<path d="M210.5 40.9998C210.2 41.4998 208 45.1998 202.2 45.1998C196 45.1998 192.3 40.3998 192.3 34.4998C192.3 28.5998 195.9 23.7998 202.2 23.7998C208.1 23.7998 210.3 27.6998 210.6 28.0998L209.9 28.7998C203.5 21.0998 195.9 26.1998 195.9 34.4998C195.9 42.0998 203.5 47.8998 209.9 40.1998L210.5 40.9998Z" fill="#C9A063"/>
<path d="M226.7 39.6C226.7 41.7 225.1 45.2 220.3 45.2C216.5 45.2 214 43.6 213.4 39.4H214.3C214.9 43.2 218.1 44.1 219.9 44.1C223.2 44.1 224 41.8 224 40.8C224 38.6 222.2 37.5 218.9 35.7C216.8 34.6 213.2 32.8 213.2 29.3C213.2 24.9 217.6 24 219.2 24C223.1 24 224.7 26.1 225.3 29H224.3C223.9 27.5 222.8 25.1 219.2 25.1C217.5 25.1 215.6 26.5 215.6 28.3C215.6 30.4 218.1 31.7 220.7 33C225.5 35.4 226.7 37.1 226.7 39.6Z" fill="#C9A063"/>
<path d="M108.7 65.5004C108.7 72.9004 104.3 76.2004 98.7999 76.2004C93.2999 76.2004 88.8999 73.0004 88.8999 65.5004C88.8999 58.3004 93.2999 54.9004 98.7999 54.9004C104.2 54.9004 108.7 58.3004 108.7 65.5004ZM105.3 65.5004C105.3 58.9004 102.4 55.8004 98.7999 55.8004C95.1999 55.8004 92.2999 59.0004 92.2999 65.5004C92.2999 72.3004 95.1999 75.2004 98.7999 75.2004C102.4 75.2004 105.3 72.3004 105.3 65.5004Z" fill="#C9A063"/>
<path d="M115.4 56.4004V64.5004H123.6V65.8004H115.4V75.8004H112.3V58.2004C112.3 57.0004 111.5 56.0004 109.8 55.5004V55.4004H125.2V56.5004H115.4V56.4004Z" fill="#C9A063"/>
<path d="M150 74.6004V75.9004H136.9V58.2004C136.9 57.0004 136.1 56.0004 134.4 55.5004V55.4004H139.7V74.6004H150Z" fill="#C9A063"/>
<path d="M156.1 55.2998V75.7998H153.3V58.1998C153.3 56.9998 152.5 55.9998 150.8 55.4998V55.3998L156.1 55.2998Z" fill="#C9A063"/>
<path d="M163.7 56.4004V64.5004H171.9V65.8004H163.7V75.8004H160.6V58.2004C160.6 57.0004 159.8 56.0004 158.1 55.5004V55.4004H173.5V56.5004H163.7V56.4004Z" fill="#C9A063"/>
<path d="M191 74.7004V75.8004H178.1V58.2004C178.1 57.0004 177.3 56.0004 175.6 55.5004V55.4004H191V56.5004H181.2V64.6004H189.4V65.9004H181.2V74.9004H191V74.7004Z" fill="#C9A063"/>
<path d="M133.6 3.3C133.6 3.4 133.6 3.5 133.6 3.6C133.6 3.7 133.6 3.8 133.6 3.9C133.6 4.3 133.5 4.8 133.3 5.1C133.1 5.5 132.8 5.8 132.4 6.2C132 6.5 131.5 6.8 131 6.9C130.4 7.1 129.8 7.2 129.2 7.2C128.2 7.2 127.5 7 127 6.6C126.5 6.2 126.3 5.6 126.3 5C126.3 4.5 126.5 3.9 126.9 3.3C127.3 2.7 127.9 2.2 128.8 1.7C129.7 1.2 130.9 0.8 132.4 0.5C133.9 0.2 135.7 0 137.9 0C138.6 0 139.2 0 139.7 0.1C140.3 0.1 140.7 0.2 141.1 0.2C141.5 0.2 141.7 0.2 142 0.1C142.2 0.1 142.4 0 142.6 0C142.7 0 142.9 0 143 0.1C143.1 0.2 143.2 0.3 143.2 0.5C143.2 0.6 143.2 0.7 143.1 0.7C142.9 1 142.8 1 142.6 1C142.4 1 142.2 1 141.9 1C141.6 1 141.3 1 140.8 1C140 1 139.3 1.1 138.7 1.4C138.1 1.7 137.6 2.1 137.1 2.6C136.6 3.2 136.1 3.8 135.6 4.7C135.1 5.5 134.4 6.5 133.7 7.6C133.4 8 133.1 8.4 132.7 8.9C132.3 9.4 131.8 9.8 131.3 10.3C130.7 10.7 130.1 11.1 129.4 11.4C128.7 11.7 127.9 11.8 127 11.8C126.7 11.8 126.3 11.8 125.9 11.7C125.5 11.6 125.2 11.5 124.9 11.3C124.6 11.1 124.3 10.9 124.1 10.7C123.9 10.4 123.8 10.1 123.8 9.7C123.8 9.5 123.9 9.2 124 9.1C124.2 8.9 124.4 8.8 124.6 8.8C124.8 8.8 125 8.9 125.1 9C125.2 9.1 125.3 9.3 125.3 9.4C125.3 9.6 125.2 9.7 125.1 9.8C125 9.9 124.8 10 124.7 10C124.6 10 124.5 10 124.5 10C124.6 10.5 124.8 10.9 125.3 11.2C125.8 11.5 126.4 11.6 127.1 11.6C127.8 11.6 128.4 11.5 129 11.2C129.6 10.9 130.1 10.6 130.6 10.1C131.1 9.6 131.6 9.1 132 8.5C132.4 7.9 132.9 7.3 133.3 6.7C133.7 6.1 134.2 5.4 134.6 4.8C135 4.2 135.5 3.6 136 3.1C136.5 2.6 137 2.1 137.5 1.8C138 1.4 138.7 1.2 139.3 1.1C138.8 1.1 138.2 1.1 137.5 1C136.9 1 136.3 0.9 135.7 0.9C134.2 0.9 132.8 1 131.6 1.2C130.4 1.4 129.4 1.7 128.6 2.1C127.8 2.5 127.2 2.9 126.8 3.4C126.4 3.9 126.2 4.4 126.2 5C126.2 5.7 126.4 6.2 126.9 6.5C127.4 6.8 128.1 7 129 7C129.6 7 130.2 6.9 130.7 6.7C131.2 6.5 131.7 6.3 132 6C132.4 5.7 132.7 5.4 132.9 5C133.1 4.6 133.2 4.3 133.2 3.9C133.2 3.8 133.2 3.7 133.2 3.6C133.2 3.5 133.2 3.4 133.2 3.3H133.6Z" fill="#C9A063"/>
<path d="M146.1 0L139.7 8.8C139.9 8.5 140.2 8.2 140.6 7.8C140.9 7.4 141.3 7.1 141.7 6.8C142.1 6.5 142.5 6.2 142.9 6C143.3 5.8 143.7 5.7 144.2 5.7C144.9 5.7 145.3 6 145.3 6.7C145.3 6.9 145.2 7.1 145.1 7.3C145 7.5 144.8 7.8 144.6 8.1C144.4 8.4 144.2 8.7 143.9 8.9C143.7 9.2 143.4 9.5 143.2 9.7C143 10 142.8 10.2 142.7 10.4C142.6 10.6 142.5 10.8 142.5 11C142.5 11.1 142.5 11.2 142.6 11.3C142.7 11.4 142.8 11.4 142.9 11.4C143.2 11.4 143.5 11.3 143.8 11.2C144.1 11 144.5 10.8 144.8 10.6C145.2 10.3 145.5 10 145.9 9.7C146.3 9.4 146.6 9.1 146.9 8.7C147.2 8.4 147.5 8.1 147.7 7.8C147.9 7.5 148.1 7.3 148.2 7.1H148.3C148.2 7.3 148 7.6 147.7 7.9C147.5 8.2 147.2 8.5 146.9 8.9C146.6 9.2 146.3 9.6 145.9 9.9C145.5 10.2 145.2 10.5 144.8 10.8C144.4 11.1 144.1 11.3 143.7 11.4C143.3 11.6 143 11.6 142.7 11.6C142.4 11.6 142.1 11.5 141.9 11.3C141.7 11.1 141.6 10.9 141.6 10.6C141.6 10.4 141.7 10.1 141.8 9.9C141.9 9.6 142.1 9.4 142.3 9.1C142.5 8.8 142.7 8.6 143 8.3C143.2 8 143.5 7.8 143.7 7.5C143.9 7.3 144.1 7 144.2 6.8C144.3 6.6 144.4 6.4 144.4 6.3C144.4 6.1 144.3 6 144.2 5.9C144.1 5.8 144 5.8 143.8 5.8C143.5 5.8 143.2 5.9 142.8 6.1C142.4 6.3 142.1 6.6 141.7 6.9C141.3 7.2 140.9 7.6 140.5 8C140.1 8.4 139.7 8.8 139.4 9.3C139.1 9.7 138.8 10.1 138.5 10.5C138.2 10.9 138 11.2 137.9 11.5H136.7C137.4 10.5 138 9.6 138.7 8.6C139.4 7.6 140.1 6.6 140.8 5.6C141.5 4.6 142.2 3.6 142.8 2.7C143.5 1.7 144.1 0.8 144.7 0L146.1 0Z" fill="#C9A063"/>
<path d="M155.9 7.3002C155.7 7.6002 155.5 7.9002 155.2 8.2002C154.9 8.5002 154.6 8.9002 154.3 9.2002C154 9.5002 153.6 9.8002 153.2 10.2002C152.8 10.5002 152.4 10.8002 152 11.0002C151.6 11.2002 151.2 11.4002 150.7 11.6002C150.3 11.7002 149.9 11.8002 149.4 11.8002C148.9 11.8002 148.5 11.7002 148.2 11.4002C147.9 11.2002 147.8 10.8002 147.8 10.4002C147.8 9.9002 148 9.4002 148.3 8.8002C148.6 8.3002 149 7.8002 149.5 7.3002C150 6.8002 150.5 6.5002 151.1 6.2002C151.7 5.9002 152.3 5.7002 152.8 5.7002C153.1 5.7002 153.3 5.8002 153.5 5.9002C153.7 6.0002 153.8 6.2002 153.8 6.4002C153.8 6.7002 153.6 6.9002 153.3 7.2002C153 7.5002 152.6 7.7002 152.1 7.9002C151.6 8.1002 151.2 8.3002 150.6 8.5002C150.1 8.7002 149.6 8.8002 149.2 8.9002C149.1 9.1002 149 9.4002 148.9 9.7002C148.8 10.0002 148.8 10.3002 148.8 10.5002C148.8 10.6002 148.8 10.8002 148.8 10.9002C148.8 11.0002 148.9 11.1002 148.9 11.3002C149 11.4002 149.1 11.5002 149.2 11.6002C149.3 11.7002 149.5 11.7002 149.6 11.7002C150 11.7002 150.5 11.6002 151 11.3002C151.5 11.1002 152.1 10.7002 152.6 10.3002C153.2 9.9002 153.7 9.4002 154.2 8.9002C154.7 8.4002 155.1 7.9002 155.5 7.3002H155.9ZM153 6.4002C153 6.2002 153 6.1002 152.9 6.0002C152.8 5.9002 152.7 5.9002 152.6 5.9002C152.3 5.9002 152.1 6.0002 151.8 6.2002C151.5 6.4002 151.2 6.6002 150.9 6.9002C150.6 7.2002 150.3 7.5002 150.1 7.8002C149.9 8.1002 149.7 8.4002 149.6 8.6002C149.9 8.6002 150.2 8.5002 150.6 8.3002C151 8.2002 151.4 8.0002 151.8 7.8002C152.2 7.6002 152.5 7.4002 152.8 7.1002C152.8 6.9002 153 6.7002 153 6.4002Z" fill="#C9A063"/>
<path d="M133.6 3.3C133.6 3.4 133.6 3.5 133.6 3.6C133.6 3.7 133.6 3.8 133.6 3.9C133.6 4.3 133.5 4.8 133.3 5.1C133.1 5.5 132.8 5.8 132.4 6.2C132 6.5 131.5 6.8 131 6.9C130.4 7.1 129.8 7.2 129.2 7.2C128.2 7.2 127.5 7 127 6.6C126.5 6.2 126.3 5.6 126.3 5C126.3 4.5 126.5 3.9 126.9 3.3C127.3 2.7 127.9 2.2 128.8 1.7C129.7 1.2 130.9 0.8 132.4 0.5C133.9 0.2 135.7 0 137.9 0C138.6 0 139.2 0 139.7 0.1C140.3 0.1 140.7 0.2 141.1 0.2C141.5 0.2 141.7 0.2 142 0.1C142.2 0.1 142.4 0 142.6 0C142.7 0 142.9 0 143 0.1C143.1 0.2 143.2 0.3 143.2 0.5C143.2 0.6 143.2 0.7 143.1 0.7C142.9 1 142.8 1 142.6 1C142.4 1 142.2 1 141.9 1C141.6 1 141.3 1 140.8 1C140 1 139.3 1.1 138.7 1.4C138.1 1.7 137.6 2.1 137.1 2.6C136.6 3.2 136.1 3.8 135.6 4.7C135.1 5.5 134.4 6.5 133.7 7.6C133.4 8 133.1 8.4 132.7 8.9C132.3 9.4 131.8 9.8 131.3 10.3C130.7 10.7 130.1 11.1 129.4 11.4C128.7 11.7 127.9 11.8 127 11.8C126.7 11.8 126.3 11.8 125.9 11.7C125.5 11.6 125.2 11.5 124.9 11.3C124.6 11.1 124.3 10.9 124.1 10.7C123.9 10.4 123.8 10.1 123.8 9.7C123.8 9.5 123.9 9.2 124 9.1C124.2 8.9 124.4 8.8 124.6 8.8C124.8 8.8 125 8.9 125.1 9C125.2 9.1 125.3 9.3 125.3 9.4C125.3 9.6 125.2 9.7 125.1 9.8C125 9.9 124.8 10 124.7 10C124.6 10 124.5 10 124.5 10C124.6 10.5 124.8 10.9 125.3 11.2C125.8 11.5 126.4 11.6 127.1 11.6C127.8 11.6 128.4 11.5 129 11.2C129.6 10.9 130.1 10.6 130.6 10.1C131.1 9.6 131.6 9.1 132 8.5C132.4 7.9 132.9 7.3 133.3 6.7C133.7 6.1 134.2 5.4 134.6 4.8C135 4.2 135.5 3.6 136 3.1C136.5 2.6 137 2.1 137.5 1.8C138 1.4 138.7 1.2 139.3 1.1C138.8 1.1 138.2 1.1 137.5 1C136.9 1 136.3 0.9 135.7 0.9C134.2 0.9 132.8 1 131.6 1.2C130.4 1.4 129.4 1.7 128.6 2.1C127.8 2.5 127.2 2.9 126.8 3.4C126.4 3.9 126.2 4.4 126.2 5C126.2 5.7 126.4 6.2 126.9 6.5C127.4 6.8 128.1 7 129 7C129.6 7 130.2 6.9 130.7 6.7C131.2 6.5 131.7 6.3 132 6C132.4 5.7 132.7 5.4 132.9 5C133.1 4.6 133.2 4.3 133.2 3.9C133.2 3.8 133.2 3.7 133.2 3.6C133.2 3.5 133.2 3.4 133.2 3.3H133.6Z" fill="#D8B165"/>
<path d="M146.1 0L139.7 8.8C139.9 8.5 140.2 8.2 140.6 7.8C140.9 7.4 141.3 7.1 141.7 6.8C142.1 6.5 142.5 6.2 142.9 6C143.3 5.8 143.7 5.7 144.2 5.7C144.9 5.7 145.3 6 145.3 6.7C145.3 6.9 145.2 7.1 145.1 7.3C145 7.5 144.8 7.8 144.6 8.1C144.4 8.4 144.2 8.7 143.9 8.9C143.7 9.2 143.4 9.5 143.2 9.7C143 10 142.8 10.2 142.7 10.4C142.6 10.6 142.5 10.8 142.5 11C142.5 11.1 142.5 11.2 142.6 11.3C142.7 11.4 142.8 11.4 142.9 11.4C143.2 11.4 143.5 11.3 143.8 11.2C144.1 11 144.5 10.8 144.8 10.6C145.2 10.3 145.5 10 145.9 9.7C146.3 9.4 146.6 9.1 146.9 8.7C147.2 8.4 147.5 8.1 147.7 7.8C147.9 7.5 148.1 7.3 148.2 7.1H148.3C148.2 7.3 148 7.6 147.7 7.9C147.5 8.2 147.2 8.5 146.9 8.9C146.6 9.2 146.3 9.6 145.9 9.9C145.5 10.2 145.2 10.5 144.8 10.8C144.4 11.1 144.1 11.3 143.7 11.4C143.3 11.6 143 11.6 142.7 11.6C142.4 11.6 142.1 11.5 141.9 11.3C141.7 11.1 141.6 10.9 141.6 10.6C141.6 10.4 141.7 10.1 141.8 9.9C141.9 9.6 142.1 9.4 142.3 9.1C142.5 8.8 142.7 8.6 143 8.3C143.2 8 143.5 7.8 143.7 7.5C143.9 7.3 144.1 7 144.2 6.8C144.3 6.6 144.4 6.4 144.4 6.3C144.4 6.1 144.3 6 144.2 5.9C144.1 5.8 144 5.8 143.8 5.8C143.5 5.8 143.2 5.9 142.8 6.1C142.4 6.3 142.1 6.6 141.7 6.9C141.3 7.2 140.9 7.6 140.5 8C140.1 8.4 139.7 8.8 139.4 9.3C139.1 9.7 138.8 10.1 138.5 10.5C138.2 10.9 138 11.2 137.9 11.5H136.7C137.4 10.5 138 9.6 138.7 8.6C139.4 7.6 140.1 6.6 140.8 5.6C141.5 4.6 142.2 3.6 142.8 2.7C143.5 1.7 144.1 0.8 144.7 0L146.1 0Z" fill="#D8B165"/>
<path d="M155.9 7.3002C155.7 7.6002 155.5 7.9002 155.2 8.2002C154.9 8.5002 154.6 8.9002 154.3 9.2002C154 9.5002 153.6 9.8002 153.2 10.2002C152.8 10.5002 152.4 10.8002 152 11.0002C151.6 11.2002 151.2 11.4002 150.7 11.6002C150.3 11.7002 149.9 11.8002 149.4 11.8002C148.9 11.8002 148.5 11.7002 148.2 11.4002C147.9 11.2002 147.8 10.8002 147.8 10.4002C147.8 9.9002 148 9.4002 148.3 8.8002C148.6 8.3002 149 7.8002 149.5 7.3002C150 6.8002 150.5 6.5002 151.1 6.2002C151.7 5.9002 152.3 5.7002 152.8 5.7002C153.1 5.7002 153.3 5.8002 153.5 5.9002C153.7 6.0002 153.8 6.2002 153.8 6.4002C153.8 6.7002 153.6 6.9002 153.3 7.2002C153 7.5002 152.6 7.7002 152.1 7.9002C151.6 8.1002 151.2 8.3002 150.6 8.5002C150.1 8.7002 149.6 8.8002 149.2 8.9002C149.1 9.1002 149 9.4002 148.9 9.7002C148.8 10.0002 148.8 10.3002 148.8 10.5002C148.8 10.6002 148.8 10.8002 148.8 10.9002C148.8 11.0002 148.9 11.1002 148.9 11.3002C149 11.4002 149.1 11.5002 149.2 11.6002C149.3 11.7002 149.5 11.7002 149.6 11.7002C150 11.7002 150.5 11.6002 151 11.3002C151.5 11.1002 152.1 10.7002 152.6 10.3002C153.2 9.9002 153.7 9.4002 154.2 8.9002C154.7 8.4002 155.1 7.9002 155.5 7.3002H155.9ZM153 6.4002C153 6.2002 153 6.1002 152.9 6.0002C152.8 5.9002 152.7 5.9002 152.6 5.9002C152.3 5.9002 152.1 6.0002 151.8 6.2002C151.5 6.4002 151.2 6.6002 150.9 6.9002C150.6 7.2002 150.3 7.5002 150.1 7.8002C149.9 8.1002 149.7 8.4002 149.6 8.6002C149.9 8.6002 150.2 8.5002 150.6 8.3002C151 8.2002 151.4 8.0002 151.8 7.8002C152.2 7.6002 152.5 7.4002 152.8 7.1002C152.8 6.9002 153 6.7002 153 6.4002Z" fill="#D8B165"/>
</g>
<defs>
<clipPath id="clip0_139_7639">
<rect width="280" height="77" fill="white"/>
</clipPath>
</defs>
</svg>
