<svg width="163" height="118" viewBox="0 0 163 118" fill="none" xmlns="http://www.w3.org/2000/svg">
<path d="M2.42 76.6399C4.9 76.5599 7.53 76.5199 10.3 76.5199C11.66 76.5699 12.75 76.7399 13.57 77.0099C14.74 77.7699 15.09 78.9199 14.63 80.4399C14.44 82.9999 14.36 85.3599 14.38 87.5099C14.49 88.8199 14.4299 89.7599 14.2199 90.3299C13.9199 91.2599 13.24 91.8099 12.18 91.9999C8.50001 91.7799 5.81996 91.8399 4.12996 92.1599C2.32996 92.8099 1.1899 92.2299 0.699904 90.3999C0.589904 86.5599 0.519952 82.7199 0.499952 78.8799C0.419952 77.6799 1.06 76.9299 2.42 76.6299V76.6399ZM10.06 79.0899C8.15001 79.0399 6.25996 79.0999 4.37996 79.2899C3.72996 79.5099 3.3299 80.0299 3.1999 80.8399C3.2299 81.0899 3.20999 81.3399 3.15999 81.6199C3.15999 82.2999 3.60996 82.6699 4.50996 82.7199L10.51 82.6799C11.35 82.6499 11.75 82.2299 11.69 81.4099L11.6099 80.3099C11.3899 79.5999 10.87 79.1899 10.06 79.0799V79.0899ZM10.4699 85.4199C8.42992 85.3899 6.38992 85.4099 4.33992 85.4599C3.59992 85.5399 3.23994 85.9499 3.23994 86.6899C3.28994 87.9199 3.50997 88.7199 3.88997 89.0999C4.51997 89.2099 5.13997 89.2099 5.76997 89.0999L10.39 88.8099C11.02 88.7799 11.4499 88.3299 11.6999 87.4599L11.78 86.4399C11.81 85.8399 11.3699 85.4999 10.4699 85.4199ZM18.39 74.1099C18.8 73.1599 19.71 72.8199 21.13 73.0899C24.62 72.9499 28.1399 72.9099 31.7099 72.9699C34.1599 73.4899 34.88 74.7699 33.88 76.8099C33.39 80.3999 33.35 87.2699 33.76 97.3999C33.81 99.0299 33.7599 100.14 33.5999 100.71C33.0599 102.04 32.29 102.4 31.31 101.77C30.82 101.25 30.56 100.69 30.53 100.1L30.6099 91.9699C30.6399 91.2099 30.2 90.7899 29.3 90.6999C25.9 90.5099 23.4199 90.5499 21.8699 90.8199C21.2199 90.8699 20.69 91.2999 20.28 92.0899C18.29 96.1199 15.66 99.1699 12.4 101.24C10.96 102.33 9.68001 102.18 8.56001 100.79C8.37001 100.25 8.41001 99.8099 8.68001 99.4799C9.66001 98.7199 10.6399 98.0499 11.6199 97.4799C15.5399 94.8699 17.94 91.6699 18.81 87.8799C19.49 83.5799 19.31 79.4399 18.28 75.4599C18.28 74.8299 18.32 74.3799 18.4 74.1099H18.39ZM29.38 83.3399C26.82 83.2599 24.71 83.2899 23.05 83.4199C22.4 83.4699 22.0299 83.9099 21.9499 84.7299C21.9499 85.4099 21.9 86.1299 21.79 86.8899C21.74 87.4899 22.14 87.8199 23.02 87.8699C25.23 87.9199 27.43 87.9099 29.64 87.8299C30.35 87.7999 30.6999 87.4599 30.6999 86.8099V84.7299C30.7299 83.9099 30.29 83.4499 29.39 83.3399H29.38ZM29.26 75.4999C27.46 75.4699 25.35 75.5699 22.93 75.7899C22.28 76.1199 21.9599 76.6899 21.9899 77.5099C22.0699 78.0499 22.1 78.6399 22.07 79.2699C22.07 80.0299 22.4499 80.4399 23.2099 80.4999C25.3599 80.5799 27.55 80.5999 29.79 80.5399C30.44 80.4299 30.77 80.0499 30.77 79.3999L30.69 76.7899C30.55 76.0799 30.08 75.6599 29.26 75.5199V75.4999Z" fill="white" stroke="white" stroke-width="0.2" stroke-miterlimit="10"/>
<path d="M42.4499 76.6398C43.2699 75.7098 44.3 75.3998 45.55 75.6998L51.76 75.8598C52.3 75.8898 52.85 75.9598 53.39 76.0598C54.23 76.3598 54.48 76.8798 54.13 77.6098C53.89 78.1798 53.44 78.4998 52.78 78.5498L51.1099 78.5898C50.3699 78.5898 49.97 78.9898 49.88 79.7698L49.8 82.5498C49.8 83.2898 50.09 83.6498 50.66 83.6498C52.13 83.5398 53.17 83.8098 53.76 84.4698C54.03 85.0998 53.92 85.6298 53.43 86.0598C52.83 86.3598 51.96 86.4398 50.82 86.3098C50.14 86.3098 49.8 86.6398 49.8 87.2898L49.88 90.8798C49.91 91.5098 50.3599 91.7798 51.2299 91.6998C52.7799 91.6198 53.84 91.6998 54.42 91.9498C55.16 92.8198 54.81 93.5398 53.4 94.1098C52.31 94.3598 51.22 94.5298 50.13 94.6398C48.28 95.0198 46.0999 95.5798 43.5899 96.3098C42.9099 96.5498 42.2999 96.4298 41.7499 95.9398C41.1499 95.1198 41.5999 94.1598 43.0999 93.0398C44.0799 92.4998 45.01 92.2398 45.88 92.2598C46.53 92.2298 46.91 91.8098 47.02 90.9898L47.14 87.3498C47.14 86.6998 46.73 86.3798 45.91 86.4098C44.66 86.6298 43.53 86.6398 42.52 86.4498C41.87 86.0098 41.6099 85.4798 41.7399 84.8598C42.4199 83.8298 43.86 83.3998 46.07 83.5898C46.72 83.5898 47.05 83.1798 47.05 82.3598L46.93 79.7898C46.93 79.0498 46.6199 78.7098 45.9899 78.7698C44.4099 79.0998 43.21 79.0598 42.4 78.6498C41.86 78.0198 41.87 77.3398 42.44 76.6098L42.4499 76.6398ZM66.14 88.4398C66.77 88.1098 67.2999 88.3498 67.7299 89.1298C67.8399 89.3798 68.2599 89.4798 68.9999 89.4598C70.4399 89.4298 71.8899 89.4598 73.3299 89.5398C74.4999 89.6998 74.81 90.3198 74.27 91.3798C73.83 92.2198 73.09 92.5798 72.02 92.4398C70.9 92.1998 69.8999 92.0598 68.9999 92.0298C68.3699 91.9998 68.05 92.4298 68.02 93.2998C68.02 94.1698 68.4299 94.6098 69.2499 94.6098C72.5999 94.8298 75.9599 95.2598 79.3399 95.9198C79.8599 96.3298 79.7299 96.9098 78.9699 97.6798C78.2299 98.9898 77.35 99.4898 76.31 99.1898C74.05 98.1598 71.63 97.5198 69.04 97.2698C68.33 97.2198 67.96 97.5799 67.94 98.3699L67.9 101.47C67.74 102.7 67.25 103.33 66.43 103.39C65.53 103.14 65.1199 102.46 65.1999 101.35C65.0899 100.29 65.04 99.2298 65.04 98.1598C65.04 97.4798 64.71 97.1398 64.06 97.1398C60.71 97.0298 57.8 97.5798 55.32 98.7698C54.5 99.1798 53.75 99.2198 53.07 98.8898C52.12 97.9398 52.2 96.9299 53.32 95.8699C54.11 95.2699 55.2399 95.0498 56.7099 95.2198C57.3899 95.1898 57.7299 94.8398 57.7299 94.1598C57.7599 93.0398 57.62 92.0998 57.32 91.3398C58.08 89.7898 59.12 89.1798 60.42 89.4998H64.0999C64.8599 89.4698 65.34 89.2998 65.53 88.9698C65.69 88.7498 65.9 88.5798 66.14 88.4398ZM63.16 73.0798C63.32 71.8498 63.8799 71.3398 64.8299 71.5298C65.5099 71.6898 65.9699 72.1298 66.2199 72.8398C66.2999 73.4398 66.6399 73.7398 67.2399 73.7398C69.1699 73.6898 70.5099 73.8598 71.2399 74.2698C72.1699 74.3798 72.72 74.9398 72.91 75.9398C72.58 76.7798 72.42 77.3698 72.42 77.6998C72.37 78.1398 72.75 78.3498 73.56 78.3498C74.7 78.4298 75.8499 78.4598 76.9899 78.4298C78.0199 78.5098 78.58 78.6199 78.66 78.7599C78.99 79.3299 78.61 80.1198 77.52 81.1298C76.7 81.9498 75.89 82.1798 75.07 81.8198C74.25 81.3798 73.16 81.0598 71.8 80.8398C66.08 80.2698 60.7599 80.5299 55.8299 81.6199C55.2799 81.6799 54.93 81.6898 54.77 81.6598C53.54 81.1998 53.4099 80.4098 54.3599 79.2898C54.7399 78.9398 55.4099 78.6898 56.3599 78.5498C57.6699 78.3298 59.5699 78.2399 62.0799 78.2599C62.7299 78.2599 63.1 77.9198 63.18 77.2398C63.21 76.5298 62.8099 76.1798 61.9999 76.1798L58.53 76.4698C57.69 76.5498 57.1299 76.2098 56.8599 75.4498C56.9099 74.8498 57.47 74.2498 58.53 73.6498C59.35 73.2998 60.5399 73.2798 62.1199 73.6098C62.7699 73.6598 63.11 73.4898 63.14 73.0798H63.16ZM64.7099 81.6199C66.9199 81.4599 69.1199 81.5798 71.3299 81.9898C71.9799 82.2098 72.3599 82.6598 72.4699 83.3398C72.3599 86.1698 71.54 87.7699 70.02 88.1199C66.56 87.9299 63.44 88.0798 60.67 88.5698C60.12 88.6798 59.6899 88.3098 59.3599 87.4698C59.2499 86.3298 59.0899 85.2398 58.8699 84.1998C58.6799 83.1098 58.99 82.3998 59.81 82.0798C61.01 81.8098 62.6399 81.6598 64.7099 81.6298V81.6199ZM64.0999 91.9098C63.2599 91.9098 62.41 91.9498 61.57 92.0298C60.83 92.1098 60.45 92.5198 60.43 93.2598V93.8298C60.43 94.4798 60.84 94.7998 61.66 94.7698C62.45 94.6898 63.24 94.6598 64.03 94.6898C64.71 94.6898 65.0599 94.2798 65.0899 93.4598V92.9298C65.0899 92.2498 64.7599 91.9098 64.1099 91.9098H64.0999ZM68.2299 83.8598C65.3999 83.6998 63.34 83.7498 62.06 84.0198C61.95 84.0698 61.87 84.3199 61.81 84.7599C61.62 85.7699 62.0799 86.1198 63.1999 85.8198L68.31 85.6598C69.05 85.5498 69.4299 85.3299 69.4499 85.0099C69.6399 84.0299 69.2299 83.6499 68.2199 83.8699L68.2299 83.8598ZM68.68 76.0598C68.11 75.9198 67.5399 75.8798 66.9599 75.9398C66.3099 75.9898 65.95 76.3798 65.9 77.0798C65.85 77.8398 66.15 78.2198 66.8 78.2198L68.4699 78.2599C69.1199 78.2899 69.5299 78.1098 69.6999 77.7298C70.1099 76.7198 69.77 76.1598 68.68 76.0598Z" fill="white" stroke="white" stroke-width="0.2" stroke-miterlimit="10"/>
<path d="M102.37 73.25C102.67 72.19 103.25 71.79 104.13 72.07C104.67 72.4 105 72.9 105.11 73.58C105.16 74.18 105.6 74.48 106.42 74.48C107.56 74.54 108.71 74.63 109.85 74.77C111.92 75.1 112.53 76.19 111.69 78.04C111.69 78.18 112.02 78.24 112.67 78.24H114.14C115.53 78.1 116.26 78.42 116.35 79.18C115.48 80.62 114.4 81.2 113.12 80.9L112.1 80.74C111.45 80.69 111.02 81.07 110.83 81.88C110.56 84.36 109.43 85.37 107.44 84.9C107 84.79 106.57 84.72 106.13 84.7C105.45 84.7 105.11 84.95 105.11 85.44C105.11 85.98 105.44 86.26 106.09 86.26C108.24 86.21 109.79 86.27 110.75 86.46C111.19 86.65 111.42 86.95 111.44 87.36C111.66 88.12 111.24 88.61 110.17 88.83H106.37C105.53 88.88 105.1 89.25 105.1 89.93C105.1 90.61 105.54 90.9 106.41 90.87C108.92 90.76 111.46 90.69 114.05 90.67C116.2 91 116.39 91.98 114.62 93.61C113.91 94.02 113.05 94.11 112.05 93.9C110.09 93.52 108.18 93.36 106.33 93.41C105.51 93.46 105.1 93.82 105.1 94.47L104.98 96.39C104.76 97.04 105.06 97.47 105.88 97.66C110.81 98.83 115.15 99.63 118.91 100.07C119.78 100.1 120.39 100.23 120.75 100.48C121.35 100.92 121.02 101.62 119.77 102.6C117.81 104.45 115.64 104.67 113.28 103.25C110.83 102.19 108.65 101.36 106.74 100.76C101.32 99.1 97.11 98.21 94.12 98.11C92.54 98 90.92 98.12 89.26 98.48C88.61 98.51 88.12 98.82 87.79 99.42C86.13 101.65 84.8099 102.81 83.8299 102.89C83.4199 102.94 83.08 102.69 82.81 102.11C82.48 101.24 82.6999 100.42 83.4599 99.66C87.3499 95.9 89.61 92.85 90.24 90.51C89.75 89.86 88.77 89.8 87.3 90.35C85.86 90.49 85.2399 89.75 85.4599 88.14C85.6499 87.76 86.11 87.28 86.85 86.71C88.27 85.05 89.21 83.62 89.67 82.42C89.64 82.26 89.22 82.08 88.4 81.89L86.93 81.81C86.11 81.81 85.43 81.72 84.89 81.52C83.64 80.89 83.4901 80.16 84.4401 79.31C85.3701 78.6 86.18 78.44 86.89 78.82C87.92 79.2 89.56 79.6 91.79 80C92.33 80.11 92.78 80.33 93.14 80.65C93.63 81.6 93.47 82.5 92.65 83.35C91.81 84.39 91.02 85.46 90.28 86.58C89.79 87.32 89.86 87.72 90.48 87.81C93.34 87.67 94.13 88.8 92.85 91.2C92.44 92.21 91.92 93.26 91.3 94.35C90.86 95.03 91.07 95.41 91.91 95.49C96.24 95.95 99.44 96.38 101.51 96.76C102.16 96.92 102.44 96.6 102.33 95.78L102.21 94.6C102.21 93.92 101.8 93.58 100.98 93.58C98.8 93.66 96.84 93.91 95.1 94.32C93.74 94.32 93.3199 93.67 93.8299 92.36C93.9399 92.06 94.16 91.76 94.48 91.46C95.38 90.86 96.56 90.71 98.03 91.01L101.18 91.05C101.86 91.05 102.2 90.72 102.2 90.07C102.2 89.42 101.79 89.05 100.97 89.05C100.07 89.13 99.17 89.27 98.27 89.46C97.04 89.57 96.31 89.19 96.06 88.32C96.01 87.39 96.56 86.81 97.73 86.56C98.82 86.4 99.96 86.34 101.16 86.4C101.84 86.4 102.18 86.18 102.18 85.75C102.18 85.29 101.77 85.07 100.95 85.1C99.9999 85.21 99.04 85.36 98.09 85.55C96.35 85.44 95.71 84.75 96.17 83.47C96.5 82.87 97.2599 82.49 98.4599 82.33H101.16C101.84 82.33 102.18 82.06 102.18 81.51C102.18 80.96 101.77 80.71 100.95 80.73C99.5299 80.81 97.63 81.13 95.23 81.67C94.09 81.7 93.54 81.18 93.6 80.12C93.63 79.71 93.98 79.25 94.66 78.73C95.04 78.51 95.48 78.36 95.97 78.28C97.66 78.25 99.39 78.27 101.16 78.32C101.84 78.32 102.18 78.12 102.18 77.71C102.18 77.3 101.77 77.11 100.95 77.14L96.9499 77.47C96.0499 77.36 95.64 76.93 95.72 76.16C95.67 75.89 95.84 75.56 96.25 75.18C96.88 74.66 97.56 74.38 98.29 74.32C98.81 74.27 99.76 74.32 101.15 74.48C101.8 74.51 102.2 74.11 102.33 73.3L102.37 73.25ZM105.96 76.76C105.39 76.84 105.1 77.1 105.1 77.54C105.1 78.03 105.43 78.28 106.08 78.28H107.31C107.99 78.28 108.33 78.12 108.33 77.79C108.33 77.38 108.07 77.1 107.55 76.93C107.03 76.82 106.5 76.77 105.96 76.77V76.76ZM108.12 80.97C108.15 80.64 107.83 80.48 107.18 80.48H106.12C105.44 80.48 105.1 80.77 105.1 81.34C105.1 81.86 105.56 82.12 106.49 82.12C107.52 82.34 108.07 81.96 108.12 80.98V80.97Z" fill="white" stroke="white" stroke-width="0.2" stroke-miterlimit="10"/>
<path d="M124.47 79.0497C125.01 77.5297 126.12 76.9297 127.78 77.2497C129.41 77.3897 132.2 77.4697 136.15 77.4997C136.78 77.4997 137.44 77.5497 138.15 77.6597C139.54 77.7097 139.89 78.3697 139.21 79.6197C138.75 80.1397 137.86 80.2897 136.56 80.0697C133.21 80.0397 129.75 80.1797 126.18 80.4797C125.01 80.5297 124.44 80.0597 124.46 79.0497H124.47ZM126.72 88.7297C126.77 87.6397 127.5 87.0397 128.88 86.9297C131.36 86.8997 133.88 86.9197 136.44 86.9697C137.64 87.0197 138.24 87.5197 138.24 88.4397C138.02 89.4197 137.26 89.7997 135.95 89.5797C133.36 89.4697 130.72 89.5797 128.03 89.9097C127.43 89.8797 126.99 89.4897 126.72 88.7297ZM128.48 82.5997C132.05 82.4597 134.8 82.4897 136.73 82.6797C137.79 82.9497 138.15 83.5497 137.79 84.4797C137.65 84.8597 137.35 85.0797 136.89 85.1297C133.76 85.0797 131.18 85.1997 129.17 85.4997C127.86 85.6597 127.1 85.1697 126.88 84.0297C127.13 83.1597 127.66 82.6797 128.47 82.5997H128.48ZM127.09 92.9297C127.63 91.9497 128.46 91.6397 129.58 91.9897C131.59 91.9097 133.61 91.8797 135.63 91.9097C137.64 92.0997 138.35 93.0497 137.75 94.7697V97.9197C137.31 100.15 136.06 101.08 133.99 100.7C132.46 100.46 130.83 100.55 129.09 100.99C127.67 101.07 126.97 100.35 126.97 98.8197C126.83 95.9897 126.87 94.0297 127.09 92.9397V92.9297ZM127.87 73.8497C128.8 72.6497 129.84 72.2197 131.02 72.5397C132.87 72.8697 134.72 73.0297 136.58 73.0297C137.4 73.2497 137.87 73.4497 138.01 73.6397C138.39 74.4597 138.13 75.1097 137.23 75.5997C136.41 75.7397 135.43 75.7197 134.29 75.5597C132.33 75.4497 130.8 75.5197 129.72 75.7597C128.06 75.8697 127.45 75.2297 127.88 73.8397L127.87 73.8497ZM133.22 94.3497C131.83 94.2997 130.78 94.3597 130.07 94.5497C129.96 94.5997 129.85 95.0397 129.74 95.8597V96.6797C129.85 97.3297 130.23 97.6597 130.88 97.6597H133.49C134.14 97.6597 134.52 97.2197 134.63 96.3497V95.4497C134.55 94.7997 134.07 94.4297 133.2 94.3497H133.22ZM151.97 85.6497C152.62 85.0497 153.28 85.0497 153.93 85.6497C154.58 86.2497 154.76 87.2297 154.46 88.5897C154.3 89.3497 153.82 90.4397 153.03 91.8597C152.51 92.6997 152.65 93.4097 153.44 93.9797C156.11 95.8297 158.83 97.5697 161.61 99.2097C162.05 99.5897 162.22 99.9697 162.14 100.35C161.73 101.19 161.1 101.72 160.26 101.94C158.73 102.65 157.32 102.16 156.01 100.47C154.76 98.9497 153.29 97.3697 151.6 95.7297C151 95.1597 150.36 95.1997 149.68 95.8497C147.99 97.3797 145.81 98.6297 143.14 99.6097C141.59 100.54 140.09 100.28 138.65 98.8297C138.02 98.0397 138.32 97.3597 139.55 96.7897C142.52 96.8397 145.23 95.9297 147.68 94.0497C148.39 93.4797 148.36 92.9097 147.6 92.3297C145.83 91.1297 144.35 90.3297 143.15 89.9197C142.41 89.6497 142.11 89.0997 142.25 88.2897C143.04 87.4997 144.1 87.3097 145.44 87.7197C145.98 87.9097 146.52 88.2697 147.03 88.7797C147.47 89.2997 148.23 89.9797 149.32 90.8197C150 91.3697 150.57 91.2297 151.04 90.4097C151.61 89.4297 151.86 88.3997 151.78 87.3097C151.56 86.6797 151.63 86.1297 151.98 85.6397L151.97 85.6497ZM148.01 73.3997C150.46 73.2397 152.54 73.5597 154.26 74.3797C155.05 74.8697 155.46 75.4697 155.49 76.1797C155.03 77.5697 154.74 79.0697 154.63 80.6697C154.57 81.4097 154.93 81.7497 155.69 81.6897H158.1C159.22 81.6897 159.86 82.0197 160.02 82.6697C160.07 83.4897 159.64 84.2097 158.71 84.8297C158.36 84.9897 157.67 84.9397 156.67 84.6697C151.61 83.7697 147.42 83.8497 144.13 84.9197C143.26 85.1697 142.56 85.1497 142.05 84.8797C141.4 84.4397 141.29 83.7997 141.72 82.9597C142.02 82.6097 142.37 82.3197 142.78 82.0997C143.35 81.8497 143.77 81.4197 144.05 80.7897C144.49 79.3697 144.59 77.8497 144.38 76.2197C144.16 75.3797 144.12 74.7497 144.26 74.3397C144.45 73.8497 144.86 73.5797 145.49 73.5197C146.01 73.6297 146.85 73.5897 148.02 73.3997H148.01ZM151.07 75.8897C149.52 75.4797 148.36 75.5597 147.6 76.1397C147.16 76.3897 146.95 76.8997 146.95 77.6897C146.81 78.6997 146.72 79.7097 146.66 80.7097C146.31 81.7697 146.71 82.1797 147.89 81.9397C148.82 81.8597 149.78 81.8297 150.79 81.8597C151.44 81.8597 151.82 81.4497 151.93 80.6297C152.04 79.5397 152.08 78.4397 152.05 77.3197C152.05 76.6697 151.72 76.1897 151.07 75.8897Z" fill="white" stroke="white" stroke-width="0.2" stroke-miterlimit="10"/>
<path d="M23.34 111.77H24.36L25.87 116.28L27.36 111.77H28.37V117.1H27.6901V113.95C27.6901 113.84 27.6901 113.66 27.6901 113.41C27.6901 113.16 27.6901 112.89 27.6901 112.6L26.1901 117.09H25.49L23.98 112.6V112.76C23.98 112.89 23.98 113.09 23.99 113.36C23.99 113.63 24 113.82 24 113.95V117.1H23.3201V111.77H23.34Z" fill="white"/>
<path d="M30.03 111.77H30.75V117.1H30.03V111.77Z" fill="white"/>
<path d="M32.92 111.77H33.76L36.37 116.08V111.77H37.05V117.1H36.25L33.6 112.8V117.1H32.92V111.77Z" fill="white"/>
<path d="M42.12 111.92C42.63 112.2 42.9501 112.69 43.0601 113.38H42.36C42.28 112.99 42.1 112.71 41.84 112.53C41.58 112.35 41.25 112.26 40.85 112.26C40.38 112.26 39.98 112.45 39.65 112.82C39.33 113.19 39.16 113.74 39.16 114.47C39.16 115.1 39.2901 115.62 39.5601 116.02C39.8301 116.42 40.26 116.62 40.87 116.62C41.33 116.62 41.72 116.48 42.02 116.2C42.32 115.92 42.48 115.47 42.49 114.84H40.85V114.24H43.15V117.09H42.6901L42.52 116.4C42.28 116.67 42.07 116.85 41.89 116.96C41.58 117.14 41.19 117.23 40.72 117.23C40.11 117.23 39.58 117.03 39.15 116.62C38.67 116.11 38.4301 115.4 38.4301 114.51C38.4301 113.62 38.66 112.91 39.13 112.38C39.58 111.88 40.15 111.63 40.86 111.63C41.34 111.63 41.76 111.73 42.12 111.92Z" fill="white"/>
<path d="M48.73 111.77L49.72 116.1L50.9 111.77H51.67L52.86 116.11L53.85 111.77H54.63L53.25 117.1H52.5L51.29 112.68L50.0701 117.1H49.33L47.96 111.77H48.73Z" fill="white"/>
<path d="M56.36 111.77H60.16V112.42H57.05V114.04H59.92V114.66H57.05V116.47H60.21V117.1H56.36V111.77Z" fill="white"/>
<path d="M62.34 111.77H63.0601V117.1H62.34V111.77Z" fill="white"/>
<path d="M72.8101 111.76H74.05L75.91 117.11H74.72L74.37 116.01H72.4401L72.08 117.11H70.9301L72.8101 111.76ZM72.74 115.09H74.09L73.4301 112.99L72.75 115.09H72.74Z" fill="white"/>
<path d="M80.97 111.9C81.16 111.98 81.33 112.11 81.46 112.27C81.57 112.41 81.66 112.56 81.72 112.72C81.78 112.88 81.8201 113.07 81.8201 113.28C81.8201 113.53 81.76 113.78 81.63 114.03C81.5 114.28 81.3 114.45 81.01 114.55C81.25 114.65 81.42 114.79 81.53 114.97C81.63 115.15 81.6801 115.43 81.6801 115.81V116.17C81.6801 116.41 81.68 116.58 81.71 116.67C81.74 116.81 81.81 116.91 81.91 116.97V117.1H80.7C80.67 116.98 80.64 116.89 80.63 116.81C80.6 116.66 80.59 116.51 80.58 116.35V115.85C80.57 115.51 80.51 115.28 80.4 115.17C80.29 115.06 80.08 115 79.77 115H78.7V117.1H77.63V111.75H80.14C80.5 111.75 80.78 111.8 80.97 111.89V111.9ZM78.7 112.69V114.13H79.88C80.11 114.13 80.29 114.1 80.41 114.04C80.62 113.94 80.72 113.74 80.72 113.44C80.72 113.12 80.62 112.9 80.42 112.79C80.31 112.73 80.14 112.7 79.91 112.7H78.7V112.69Z" fill="white"/>
<path d="M84.39 112.29C84.81 111.85 85.35 111.63 86 111.63C86.87 111.63 87.51 111.93 87.92 112.52C88.14 112.85 88.26 113.18 88.28 113.52H87.1801C87.1101 113.26 87.02 113.07 86.91 112.94C86.71 112.71 86.42 112.59 86.04 112.59C85.66 112.59 85.34 112.75 85.11 113.08C84.88 113.41 84.77 113.87 84.77 114.47C84.77 115.07 84.89 115.52 85.13 115.82C85.37 116.12 85.67 116.27 86.04 116.27C86.41 116.27 86.7 116.14 86.9 115.89C87.01 115.75 87.1 115.55 87.17 115.27H88.26C88.17 115.85 87.93 116.33 87.54 116.69C87.15 117.05 86.66 117.24 86.05 117.24C85.3 117.24 84.71 116.99 84.29 116.5C83.86 116 83.65 115.32 83.65 114.46C83.65 113.53 83.89 112.81 84.38 112.3L84.39 112.29Z" fill="white"/>
<path d="M90.1801 117.11V111.76H91.27V113.8H93.3101V111.76H94.4V117.11H93.3101V114.72H91.27V117.11H90.1801Z" fill="white"/>
<path d="M97.48 117.11H96.39V111.76H97.48V117.11Z" fill="white"/>
<path d="M103.35 111.76V112.71H101.78V117.11H100.67V112.71H99.09V111.76H103.35Z" fill="white"/>
<path d="M108.89 112.71H106.11V113.85H108.66V114.78H106.11V116.15H109.02V117.11H105.04V111.76H108.89V112.71Z" fill="white"/>
<path d="M111.4 112.29C111.82 111.85 112.36 111.63 113.01 111.63C113.88 111.63 114.52 111.93 114.93 112.52C115.15 112.85 115.27 113.18 115.29 113.52H114.19C114.12 113.26 114.03 113.07 113.92 112.94C113.72 112.71 113.43 112.59 113.05 112.59C112.67 112.59 112.35 112.75 112.12 113.08C111.89 113.41 111.78 113.87 111.78 114.47C111.78 115.07 111.9 115.52 112.14 115.82C112.38 116.12 112.68 116.27 113.05 116.27C113.42 116.27 113.71 116.14 113.91 115.89C114.02 115.75 114.11 115.55 114.18 115.27H115.27C115.18 115.85 114.94 116.33 114.55 116.69C114.16 117.05 113.67 117.24 113.06 117.24C112.31 117.24 111.72 116.99 111.3 116.5C110.87 116 110.66 115.32 110.66 114.46C110.66 113.53 110.9 112.81 111.39 112.3L111.4 112.29Z" fill="white"/>
<path d="M121.01 111.76V112.71H119.44V117.11H118.33V112.71H116.75V111.76H121.01Z" fill="white"/>
<path d="M122.67 111.69H123.79V114.97C123.79 115.34 123.83 115.61 123.92 115.77C124.05 116.07 124.34 116.22 124.79 116.22C125.24 116.22 125.52 116.07 125.65 115.77C125.74 115.6 125.78 115.33 125.78 114.97V111.69H126.9V114.98C126.9 115.55 126.81 115.99 126.64 116.31C126.32 116.89 125.7 117.18 124.79 117.18C123.88 117.18 123.26 116.89 122.94 116.31C122.77 115.99 122.68 115.55 122.68 114.98V111.69H122.67Z" fill="white"/>
<path d="M132.33 111.9C132.52 111.98 132.69 112.11 132.82 112.27C132.93 112.41 133.02 112.56 133.08 112.72C133.14 112.88 133.18 113.07 133.18 113.28C133.18 113.53 133.12 113.78 132.99 114.03C132.86 114.28 132.66 114.45 132.37 114.55C132.61 114.65 132.78 114.79 132.89 114.97C132.99 115.15 133.04 115.43 133.04 115.81V116.17C133.04 116.41 133.04 116.58 133.07 116.67C133.1 116.81 133.17 116.91 133.27 116.97V117.1H132.06C132.03 116.98 132 116.89 131.99 116.81C131.96 116.66 131.95 116.51 131.94 116.35V115.85C131.93 115.51 131.87 115.28 131.76 115.17C131.65 115.06 131.44 115 131.13 115H130.06V117.1H128.99V111.75H131.5C131.86 111.75 132.14 111.8 132.33 111.89V111.9ZM130.06 112.69V114.13H131.24C131.47 114.13 131.65 114.1 131.77 114.04C131.98 113.94 132.08 113.74 132.08 113.44C132.08 113.12 131.98 112.9 131.78 112.79C131.67 112.73 131.5 112.7 131.27 112.7H130.06V112.69Z" fill="white"/>
<path d="M139.14 112.71H136.36V113.85H138.91V114.78H136.36V116.15H139.27V117.11H135.29V111.76H139.14V112.71Z" fill="white"/>
<path d="M105.81 31.6698C105.69 21.9998 100.22 13.6198 92.22 9.35978C91.66 9.05978 91.08 8.76978 90.48 8.51978C89.65 8.14978 88.79 7.82978 87.91 7.54978C86.79 7.18978 85.6301 6.90978 84.4401 6.71978C84.3601 6.70978 84.2701 6.68978 84.1801 6.67978C83.4801 6.56978 82.7801 6.48978 82.0601 6.43978C82.0101 6.43978 81.96 6.43978 81.91 6.43978V4.84978C81.25 3.39978 80.6901 1.95979 80.1801 0.529785C79.6701 1.95979 79.1001 3.38978 78.4401 4.84978V6.44978C65.1001 7.33978 54.55 18.4398 54.55 32.0098C54.55 45.5798 66.02 57.6298 80.17 57.6298C82.68 57.6298 85.11 57.2698 87.4 56.5998C88.19 56.3698 88.96 56.0998 89.72 55.7998C91.98 54.8898 94.08 53.6698 95.97 52.1898C96.99 51.3898 97.9401 50.5198 98.8201 49.5898C100.29 48.0298 101.57 46.2798 102.61 44.3798C104.64 40.7198 105.79 36.4998 105.79 32.0198C105.79 31.9098 105.79 31.8098 105.79 31.6998L105.81 31.6698ZM78.45 7.10978C78.45 7.63978 78.4501 8.15978 78.4401 8.67978V9.34978C78.4101 11.1998 78.35 13.0598 78.3 14.9298C77.85 27.9298 76.5 40.3998 74.41 51.9198C74.42 51.9198 74.44 51.9198 74.45 51.9298C74.45 51.9298 74.45 51.9398 74.45 51.9498C73.69 51.7498 72.96 51.5198 72.23 51.2498C74.29 39.9098 75.64 27.6598 76.09 14.8498C76.15 13.1098 76.19 11.3698 76.22 9.64978C76.22 9.55978 76.22 9.46978 76.22 9.36978C76.16 9.46978 76.11 9.57978 76.05 9.67978C75.01 11.5798 73.85 13.4798 72.58 15.3598C71.54 27.1898 69.52 38.2898 66.74 48.2898C65.81 47.6098 64.93 46.8698 64.12 46.0598C66.6 37.8998 68.51 28.9098 69.72 19.3198C68.82 20.4898 67.87 21.6498 66.88 22.7898C65.29 29.6698 63.23 36.0698 60.76 41.8298C58.61 38.3498 57.37 34.2498 57.37 29.8598C57.37 17.8398 66.66 7.99978 78.45 7.10978ZM100.57 40.1498C100.28 40.7298 99.96 41.2798 99.62 41.8198C97.16 36.0598 95.09 29.6598 93.51 22.7798C92.52 21.6398 91.57 20.4798 90.67 19.3098C91.87 28.8898 93.79 37.8898 96.27 46.0398C95.72 46.5798 95.16 47.1098 94.55 47.5898C94.26 47.8298 93.95 48.0498 93.64 48.2698C90.86 38.2798 88.8401 27.1798 87.8101 15.3498C86.5401 13.4698 85.38 11.5798 84.34 9.66978C84.28 9.56978 84.23 9.45978 84.17 9.35978C84.17 9.44978 84.17 9.53978 84.17 9.63978C84.2 11.3598 84.24 13.0998 84.3 14.8398C84.75 27.6498 86.1 39.8898 88.16 51.2298C87.63 51.4298 87.09 51.6198 86.53 51.7798C86.35 51.8298 86.16 51.8698 85.98 51.9198C83.9 40.3998 82.55 27.9298 82.09 14.9198C82.02 13.0498 81.98 11.1898 81.96 9.33978C81.95 9.10978 81.95 8.88978 81.95 8.66978C81.94 8.12978 81.9401 7.60978 81.9401 7.08978C81.9701 7.08978 82.01 7.08978 82.04 7.08978C82.83 7.14978 83.6 7.24978 84.36 7.38978C84.42 7.39978 84.48 7.40978 84.54 7.41978C85.65 7.62978 86.74 7.92978 87.79 8.29978C88.66 8.60978 89.5101 8.95978 90.3201 9.36978C90.9301 9.66978 91.52 9.99978 92.1 10.3498C98.51 14.2698 102.83 21.2598 103.02 29.2798C103.02 29.4598 103.02 29.6398 103.02 29.8298C103.02 33.5298 102.14 37.0298 100.57 40.1198V40.1498Z" fill="url(#paint0_linear_502_312449)"/>
<defs>
<linearGradient id="paint0_linear_502_312449" x1="57.97" y1="56.0098" x2="98.42" y2="12.2898" gradientUnits="userSpaceOnUse">
<stop stop-color="#C9C69C"/>
<stop offset="0.04" stop-color="#C8C195"/>
<stop offset="0.09" stop-color="#C5B583"/>
<stop offset="0.15" stop-color="#C1A165"/>
<stop offset="0.21" stop-color="#BC8A42"/>
<stop offset="0.25" stop-color="#BE8E48"/>
<stop offset="0.31" stop-color="#C5995A"/>
<stop offset="0.37" stop-color="#D0AC79"/>
<stop offset="0.44" stop-color="#DFC7A2"/>
<stop offset="0.46" stop-color="#E3CDAC"/>
<stop offset="0.52" stop-color="#E6D3B2"/>
<stop offset="0.62" stop-color="#F0E5C3"/>
<stop offset="0.68" stop-color="#FAF6D2"/>
<stop offset="0.72" stop-color="#F3EAC2"/>
<stop offset="0.85" stop-color="#DCC28F"/>
<stop offset="0.95" stop-color="#CEA96F"/>
<stop offset="1" stop-color="#C9A063"/>
</linearGradient>
</defs>
</svg>
