<?xml version="1.0" encoding="utf-8"?>
<!-- Generator: Adobe Illustrator 25.2.3, SVG Export Plug-In . SVG Version: 6.00 Build 0)  -->
<svg version="1.1" id="圖層_1" xmlns="http://www.w3.org/2000/svg" xmlns:xlink="http://www.w3.org/1999/xlink" x="0px" y="0px"
	 viewBox="0 0 300 13" style="enable-background:new 0 0 300 13;" xml:space="preserve">
<style type="text/css">
	.st0{fill:#00404B;}
</style>
<path class="st0" d="M2.5,3c0,0.4-0.2,0.7-0.5,0.9S1.3,4.1,0.8,4.1c-0.1,0-0.3,0-0.8,0V0h0.7c0.4,0,0.7,0.1,1,0.2
	C2,0.4,2.2,0.6,2.2,0.9c0,0.2-0.1,0.4-0.2,0.6C1.8,1.7,1.7,1.8,1.5,1.9C1.8,2,2,2.1,2.2,2.2C2.4,2.4,2.5,2.7,2.5,3z M2.1,3
	c0-0.3-0.1-0.6-0.3-0.8C1.6,2.1,1.4,2,1.1,2H0.9V1.9h0.2c0.3,0,0.5-0.1,0.6-0.3C1.8,1.4,1.9,1.2,1.9,1c0-0.6-0.4-0.9-1.1-0.9H0.6V4
	h0.2C1.7,4,2.1,3.6,2.1,3z"/>
<path class="st0" d="M5.8,2.5H4.2V2.4h1.2c0-0.5-0.2-0.8-0.6-0.8c-0.3,0-0.5,0.1-0.6,0.3C4,2.1,4,2.4,4,2.8s0.1,0.7,0.2,0.9
	C4.4,3.9,4.6,4,4.9,4c0.3,0,0.6-0.1,0.8-0.4l0.1,0.2C5.6,4,5.3,4.2,4.9,4.2S4.2,4.1,4,3.8C3.7,3.5,3.6,3.2,3.6,2.9
	C3.6,2.5,3.7,2.2,4,2c0.2-0.3,0.5-0.4,0.9-0.4c0.3,0,0.5,0.1,0.7,0.3C5.7,2,5.8,2.2,5.8,2.5z"/>
<path class="st0" d="M8.5,2.4v1.7H8.1V3.9C8,4.1,7.7,4.1,7.5,4.1C7.2,4.1,7,4,6.9,3.9C6.7,3.8,6.6,3.5,6.6,3.3
	c0-0.3,0.1-0.5,0.3-0.6c0.2-0.1,0.4-0.2,0.6-0.2c0.1,0,0.1,0,0.2,0c0.1,0,0.2,0.1,0.3,0.1L7.9,2.7C7.8,2.6,7.6,2.6,7.5,2.6
	c-0.2,0-0.3,0.1-0.4,0.2C7,2.9,7,3.1,7,3.3s0.1,0.4,0.2,0.5C7.3,3.9,7.4,4,7.6,4c0.3,0,0.5-0.1,0.6-0.4V2.4c0-0.6-0.2-0.8-0.6-0.8
	C7.4,1.6,7.2,1.7,7,1.8L6.9,1.7c0.2-0.1,0.4-0.2,0.7-0.2C8.2,1.5,8.5,1.8,8.5,2.4z"/>
<path class="st0" d="M11.6,4.1h-0.4V3.7C11,4,10.7,4.2,10.4,4.2c-0.6,0-0.9-0.3-0.9-0.9V1.6h0.4v1.7c0,0.5,0.2,0.8,0.6,0.8
	c0.2,0,0.4-0.1,0.6-0.4c0.1-0.1,0.1-0.3,0.2-0.5V1.5h0.4L11.6,4.1L11.6,4.1z"/>
<path class="st0" d="M13.2,1.6v1.6c0,0.3,0,0.4,0.1,0.6C13.4,3.9,13.5,4,13.7,4v0.1c-0.6,0-0.9-0.3-0.9-0.8V1.7h-0.2V1.6h0.2V1.3
	h0.4V1.6z"/>
<path class="st0" d="M16.9,1.5l-1.4,3.6h-0.1L15.8,4l-1.1-2.6H15l0.9,2.1l0.8-2.1L16.9,1.5L16.9,1.5z"/>
<path class="st0" d="M19.4,4.1H19v-4h0.4V4.1z"/>
<path class="st0" d="M20.9,0.4c0,0.1,0,0.1-0.1,0.2c0,0-0.1,0.1-0.2,0.1s-0.1,0-0.2-0.1s-0.1-0.1-0.1-0.2s0-0.1,0.1-0.2
	c0,0,0.1-0.1,0.2-0.1s0.1,0,0.2,0.1C20.9,0.2,20.9,0.3,20.9,0.4z M20.9,4.1h-0.4V1.5h0.4V4.1z"/>
<path class="st0" d="M24.2,2.5h-1.6V2.4h1.2c0-0.5-0.2-0.8-0.6-0.8c-0.3,0-0.5,0.1-0.6,0.3c-0.2,0.2-0.2,0.5-0.2,0.9
	s0.1,0.7,0.2,0.9C22.8,3.9,23,4,23.3,4c0.3,0,0.6-0.1,0.8-0.4l0.1,0.2C24,4,23.7,4.2,23.3,4.2c-0.4,0-0.7-0.1-0.9-0.4
	C22.1,3.5,22,3.2,22,2.9c0-0.4,0.1-0.7,0.4-0.9c0.2-0.3,0.5-0.4,0.9-0.4c0.3,0,0.5,0.1,0.7,0.3C24.1,2,24.2,2.2,24.2,2.5z"/>
<path class="st0" d="M26.5,3.5c0,0.2-0.1,0.4-0.2,0.5c-0.1,0.1-0.3,0.2-0.5,0.2c-0.3,0-0.5-0.1-0.7-0.3l0.1-0.2
	C25.4,3.9,25.6,4,25.8,4c0.1,0,0.3,0,0.4-0.1c0.1-0.1,0.1-0.2,0.1-0.4s-0.1-0.3-0.2-0.4C26,3,25.8,2.9,25.6,2.8
	c-0.3-0.2-0.4-0.4-0.4-0.7c0-0.2,0.1-0.3,0.2-0.5c0.1-0.1,0.3-0.1,0.5-0.1c0.1,0,0.2,0,0.4,0.1c0.1,0.1,0.2,0.1,0.3,0.2l-0.1,0.1
	c-0.2-0.2-0.3-0.3-0.5-0.3c-0.3,0-0.4,0.1-0.4,0.3s0.1,0.3,0.3,0.5c0.3,0.2,0.5,0.3,0.6,0.4C26.4,3,26.5,3.2,26.5,3.5z"/>
<path class="st0" d="M29.2,0.4c0,0.1,0,0.1-0.1,0.2c-0.1,0-0.1,0.1-0.2,0.1s-0.1,0-0.2-0.1c-0.1-0.1-0.1-0.1-0.1-0.2s0-0.1,0.1-0.2
	c0.1,0,0.1-0.1,0.2-0.1s0.1,0,0.2,0.1C29.1,0.2,29.2,0.3,29.2,0.4z M29.1,4.1h-0.4V1.5h0.4V4.1z"/>
<path class="st0" d="M32.3,4.1h-0.4V2.4c0-0.5-0.2-0.8-0.6-0.8c-0.4,0-0.6,0.2-0.8,0.7v1.8h-0.4V1.5h0.4v0.4
	c0.2-0.3,0.5-0.4,0.8-0.4c0.3,0,0.5,0.1,0.7,0.2c0.2,0.1,0.2,0.4,0.2,0.7L32.3,4.1L32.3,4.1z"/>
<path class="st0" d="M35.1,1.6v1.6c0,0.3,0,0.4,0.1,0.6C35.3,3.9,35.4,4,35.6,4v0.1c-0.6,0-0.9-0.3-0.9-0.8V1.7h-0.2V1.6h0.2V1.3
	h0.4V1.6z"/>
<path class="st0" d="M38.6,4.1h-0.4V2.4c0-0.5-0.2-0.8-0.6-0.8c-0.4,0-0.6,0.2-0.8,0.7v1.8h-0.4v-4h0.4v1.8c0.2-0.3,0.5-0.4,0.8-0.4
	c0.3,0,0.5,0.1,0.7,0.2s0.2,0.4,0.2,0.7L38.6,4.1L38.6,4.1z"/>
<path class="st0" d="M41.9,2.5h-1.6V2.4h1.2c0-0.5-0.2-0.8-0.6-0.8c-0.3,0-0.5,0.1-0.6,0.3c-0.2,0.2-0.2,0.5-0.2,0.9
	s0.1,0.7,0.2,0.9C40.5,3.9,40.7,4,41,4s0.6-0.1,0.8-0.4l0.1,0.2C41.7,4,41.4,4.2,41,4.2s-0.7-0.1-0.9-0.4c-0.3-0.3-0.4-0.6-0.4-0.9
	c0-0.4,0.1-0.7,0.4-0.9c0.2-0.3,0.5-0.4,0.9-0.4c0.3,0,0.5,0.1,0.7,0.3C41.8,2,41.9,2.2,41.9,2.5z"/>
<path class="st0" d="M46.2,3.8c-0.3,0.2-0.6,0.4-0.9,0.4c-0.4,0-0.7-0.1-0.9-0.4C44.1,3.5,44,3.2,44,2.9c0-0.4,0.1-0.7,0.4-0.9
	c0.3-0.3,0.6-0.4,0.9-0.4s0.6,0.1,0.8,0.3L46,2.1c-0.2-0.2-0.4-0.3-0.7-0.3s-0.5,0.1-0.7,0.4c-0.2,0.2-0.3,0.5-0.3,0.8
	s0.1,0.6,0.2,0.8c0.2,0.2,0.4,0.4,0.7,0.4s0.6-0.1,0.8-0.4H46.2z"/>
<path class="st0" d="M49.4,2.8c0,0.4-0.1,0.7-0.4,0.9c-0.3,0.3-0.6,0.4-0.9,0.4c-0.4,0-0.7-0.1-0.9-0.4c-0.3-0.3-0.4-0.6-0.4-0.9
	c0-0.4,0.1-0.7,0.4-0.9c0.3-0.3,0.6-0.4,0.9-0.4c0.4,0,0.7,0.1,0.9,0.4C49.2,2.1,49.4,2.4,49.4,2.8z M48.9,2.8
	c0-0.3-0.1-0.6-0.3-0.8c-0.2-0.2-0.4-0.3-0.6-0.3c-0.3,0-0.5,0.1-0.6,0.3c-0.2,0.2-0.3,0.5-0.3,0.8s0.1,0.6,0.3,0.8
	C47.6,3.8,47.8,4,48,4s0.5-0.1,0.6-0.4C48.9,3.4,48.9,3.1,48.9,2.8z"/>
<path class="st0" d="M53.8,4.1h-0.4V2.3c0-0.3,0-0.4-0.1-0.5c-0.1-0.1-0.2-0.2-0.4-0.2c-0.3,0-0.5,0.2-0.7,0.6v0.1v1.8h-0.4V2.3
	c0-0.3,0-0.4-0.1-0.5c-0.1-0.1-0.2-0.2-0.4-0.2c-0.1,0-0.3,0.1-0.4,0.2c-0.1,0.1-0.2,0.3-0.3,0.5v1.8h-0.4V1.5h0.4v0.3
	c0.2-0.3,0.5-0.4,0.7-0.4c0.4,0,0.7,0.1,0.8,0.4c0.2-0.3,0.5-0.4,0.8-0.4c0.6,0,0.8,0.3,0.8,0.8L53.8,4.1L53.8,4.1z"/>
<path class="st0" d="M57.1,2.8c0,0.4-0.1,0.7-0.3,0.9C56.6,4,56.3,4.1,56,4.1S55.5,4,55.4,3.8V4H55V0h0.4v3.4c0,0.2,0.1,0.3,0.2,0.4
	C55.7,3.9,55.8,4,56,4s0.4-0.1,0.6-0.3c0.1-0.2,0.2-0.5,0.2-0.9s-0.1-0.6-0.2-0.9c-0.1-0.2-0.3-0.3-0.6-0.3c-0.1,0-0.2,0-0.4,0.1
	l-0.1-0.1c0.1-0.1,0.3-0.1,0.5-0.1c0.3,0,0.6,0.1,0.8,0.4C57,2.1,57.1,2.4,57.1,2.8z"/>
<path class="st0" d="M58.6,0.4c0,0.1,0,0.1-0.1,0.2c0,0-0.1,0.1-0.2,0.1c-0.1,0-0.1,0-0.2-0.1C58,0.5,58,0.5,58,0.4s0-0.1,0.1-0.2
	c0,0,0.1-0.1,0.2-0.1c0.1,0,0.1,0,0.2,0.1C58.6,0.2,58.6,0.3,58.6,0.4z M58.5,4.1h-0.4V1.5h0.4V4.1z"/>
<path class="st0" d="M61.7,4.1h-0.4V2.4c0-0.5-0.2-0.8-0.6-0.8c-0.4,0-0.6,0.2-0.8,0.7v1.8h-0.4V1.5h0.4v0.4
	c0.2-0.3,0.5-0.4,0.8-0.4s0.5,0.1,0.7,0.2c0.2,0.1,0.2,0.4,0.2,0.7v1.7H61.7z"/>
<path class="st0" d="M64.6,2.4v1.7h-0.4V3.9c-0.1,0.2-0.4,0.2-0.6,0.2c-0.3,0-0.5-0.1-0.6-0.2c-0.2-0.1-0.3-0.4-0.3-0.6
	c0-0.3,0.1-0.5,0.3-0.6c0.2-0.1,0.4-0.2,0.6-0.2c0.1,0,0.1,0,0.2,0c0.1,0,0.2,0.1,0.3,0.1L64,2.7c-0.1-0.1-0.3-0.1-0.4-0.1
	c-0.2,0-0.3,0.1-0.4,0.2c-0.1,0.1-0.1,0.3-0.1,0.5s0.1,0.4,0.2,0.5C63.4,3.9,63.5,4,63.7,4c0.3,0,0.5-0.1,0.6-0.4V2.4
	c0-0.6-0.2-0.8-0.6-0.8c-0.2,0-0.4,0.1-0.6,0.2L63,1.7c0.2-0.1,0.4-0.2,0.7-0.2C64.3,1.5,64.6,1.8,64.6,2.4z"/>
<path class="st0" d="M66.2,1.6v1.6c0,0.3,0,0.4,0.1,0.6C66.4,3.9,66.5,4,66.7,4v0.1c-0.6,0-0.9-0.3-0.9-0.8V1.7h-0.2V1.6h0.2V1.3
	h0.4V1.6z"/>
<path class="st0" d="M68,0.4c0,0.1,0,0.1-0.1,0.2c-0.1,0-0.1,0.1-0.2,0.1c-0.1,0-0.1,0-0.2-0.1s-0.1-0.1-0.1-0.2s0-0.1,0.1-0.2
	c0,0,0.1-0.1,0.2-0.1c0.1,0,0.1,0,0.2,0.1C68,0.2,68,0.3,68,0.4z M68,4.1h-0.4V1.5H68V4.1z"/>
<path class="st0" d="M71.6,2.8c0,0.4-0.1,0.7-0.4,0.9c-0.3,0.3-0.6,0.4-0.9,0.4c-0.4,0-0.7-0.1-0.9-0.4C69.1,3.4,69,3.1,69,2.8
	c0-0.4,0.1-0.7,0.4-0.9c0.3-0.3,0.6-0.4,0.9-0.4c0.4,0,0.7,0.1,0.9,0.4C71.5,2.1,71.6,2.4,71.6,2.8z M71.2,2.8
	c0-0.3-0.1-0.6-0.3-0.8c-0.2-0.2-0.4-0.3-0.6-0.3c-0.3,0-0.5,0.1-0.6,0.3c-0.2,0.2-0.3,0.5-0.3,0.8s0.1,0.6,0.3,0.8
	C69.9,3.8,70.1,4,70.3,4c0.2,0,0.5-0.1,0.6-0.4C71.1,3.4,71.2,3.1,71.2,2.8z"/>
<path class="st0" d="M74.7,4.1h-0.4V2.4c0-0.5-0.2-0.8-0.6-0.8c-0.4,0-0.6,0.2-0.8,0.7v1.8h-0.4V1.5h0.4v0.4
	c0.2-0.3,0.5-0.4,0.8-0.4c0.3,0,0.5,0.1,0.7,0.2c0.2,0.1,0.2,0.4,0.2,0.7L74.7,4.1L74.7,4.1z"/>
<path class="st0" d="M79.6,2.8c0,0.4-0.1,0.7-0.4,0.9c-0.3,0.3-0.6,0.4-0.9,0.4c-0.4,0-0.7-0.1-0.9-0.4C77.1,3.4,77,3.1,77,2.8
	c0-0.4,0.1-0.7,0.4-0.9c0.3-0.3,0.6-0.4,0.9-0.4c0.4,0,0.7,0.1,0.9,0.4C79.4,2.1,79.6,2.4,79.6,2.8z M79.2,2.8
	c0-0.3-0.1-0.6-0.3-0.8c-0.2-0.2-0.4-0.3-0.6-0.3c-0.3,0-0.5,0.1-0.6,0.3c-0.2,0.2-0.3,0.5-0.3,0.8s0.1,0.6,0.3,0.8
	C77.9,3.8,78.1,4,78.3,4c0.2,0,0.5-0.1,0.6-0.4C79.1,3.4,79.2,3.1,79.2,2.8z"/>
<path class="st0" d="M81.6,1.6H81v2.5h-0.4V1.6h-0.2V1.5h0.2V0.9c0-0.6,0.3-0.8,0.9-0.8v0.1c-0.2,0-0.3,0.1-0.4,0.2S81,0.7,81,1v0.6
	H81.6L81.6,1.6z"/>
<path class="st0" d="M85.8,4.1h-0.4V2.4c0-0.5-0.2-0.8-0.6-0.8c-0.4,0-0.6,0.2-0.8,0.7v1.8h-0.4V1.5H84v0.4c0.2-0.3,0.5-0.4,0.8-0.4
	c0.3,0,0.5,0.1,0.7,0.2c0.2,0.1,0.2,0.4,0.2,0.7v1.7H85.8z"/>
<path class="st0" d="M88.7,2.4v1.7h-0.4V3.9c-0.1,0.2-0.4,0.2-0.6,0.2c-0.3,0-0.5-0.1-0.6-0.2c-0.2-0.1-0.3-0.4-0.3-0.6
	c0-0.3,0.1-0.5,0.3-0.6c0.2-0.1,0.4-0.2,0.6-0.2c0.1,0,0.1,0,0.2,0s0.3,0.1,0.3,0.1l-0.1,0.1c-0.1-0.1-0.3-0.1-0.4-0.1
	c-0.2,0-0.3,0.1-0.4,0.2c-0.1,0.1-0.1,0.3-0.1,0.5s0.1,0.4,0.2,0.5C87.5,3.9,87.6,4,87.8,4c0.3,0,0.5-0.1,0.6-0.4V2.4
	c0-0.6-0.2-0.8-0.6-0.8c-0.2,0-0.4,0.1-0.6,0.2l-0.1-0.1c0.2-0.1,0.4-0.2,0.7-0.2C88.4,1.5,88.7,1.8,88.7,2.4z"/>
<path class="st0" d="M90.3,1.6v1.6c0,0.3,0,0.4,0.1,0.6C90.5,3.9,90.6,4,90.8,4v0.1c-0.6,0-0.9-0.3-0.9-0.8V1.7h-0.2V1.6h0.2V1.3
	h0.4V1.6z"/>
<path class="st0" d="M93.7,4.1h-0.4V3.7c-0.2,0.3-0.5,0.5-0.8,0.5c-0.6,0-0.9-0.3-0.9-0.9V1.6H92v1.7c0,0.5,0.2,0.8,0.6,0.8
	c0.2,0,0.4-0.1,0.6-0.4c0.1-0.1,0.1-0.3,0.2-0.5V1.5h0.4v2.6H93.7z"/>
<path class="st0" d="M96,1.6l-0.1,0.2c-0.1-0.1-0.2-0.1-0.3-0.1s-0.1,0-0.2,0c-0.2,0.1-0.3,0.4-0.3,0.7v1.7h-0.4V1.5h0.4v0.3
	c0.1-0.1,0.1-0.2,0.2-0.2c0.1-0.1,0.2-0.1,0.3-0.1C95.8,1.5,95.9,1.5,96,1.6z"/>
<path class="st0" d="M98.7,2.4v1.7h-0.4V3.9c-0.1,0.2-0.4,0.2-0.6,0.2c-0.3,0-0.5-0.1-0.6-0.2c-0.2-0.1-0.3-0.4-0.3-0.6
	c0-0.3,0.1-0.5,0.3-0.6c0.2-0.1,0.4-0.2,0.6-0.2c0.1,0,0.1,0,0.2,0s0.2,0.1,0.3,0.1l-0.1,0.1c-0.1-0.1-0.3-0.1-0.4-0.1
	c-0.2,0-0.3,0.1-0.4,0.2c-0.1,0.1-0.1,0.3-0.1,0.5s0.1,0.4,0.2,0.5C97.5,3.9,97.6,4,97.8,4c0.3,0,0.5-0.1,0.6-0.4V2.4
	c0-0.6-0.2-0.8-0.6-0.8c-0.2,0-0.4,0.1-0.6,0.2l-0.1-0.1c0.2-0.1,0.4-0.2,0.7-0.2C98.4,1.5,98.7,1.8,98.7,2.4z"/>
<path class="st0" d="M100.1,4.1h-0.4v-4h0.4V4.1z"/>
<path class="st0" d="M102.7,4.1h-0.4v-4h0.4V4.1z"/>
<path class="st0" d="M105.7,2.4v1.7h-0.4V3.9c-0.1,0.2-0.4,0.2-0.6,0.2c-0.3,0-0.5-0.1-0.6-0.2c-0.2-0.1-0.3-0.4-0.3-0.6
	c0-0.3,0.1-0.5,0.3-0.6c0.2-0.1,0.4-0.2,0.6-0.2c0.1,0,0.1,0,0.2,0s0.2,0.1,0.3,0.1l-0.1,0.1c-0.1-0.1-0.3-0.1-0.4-0.1
	c-0.2,0-0.3,0.1-0.4,0.2c-0.1,0.1-0.1,0.3-0.1,0.5s0.1,0.4,0.2,0.5c0.1,0.1,0.2,0.2,0.4,0.2c0.3,0,0.5-0.1,0.6-0.4V2.4
	c0-0.6-0.2-0.8-0.6-0.8c-0.2,0-0.4,0.1-0.6,0.2l-0.1-0.1c0.2-0.1,0.4-0.2,0.7-0.2C105.3,1.5,105.7,1.8,105.7,2.4z"/>
<path class="st0" d="M108.8,4.1h-0.4V2.4c0-0.5-0.2-0.8-0.6-0.8c-0.4,0-0.6,0.2-0.8,0.7v1.8h-0.4V1.5h0.4v0.4
	c0.2-0.3,0.5-0.4,0.8-0.4c0.3,0,0.5,0.1,0.7,0.2c0.2,0.1,0.2,0.4,0.2,0.7v1.7H108.8z"/>
<path class="st0" d="M112,4.1h-0.4V3.9c-0.2,0.2-0.4,0.3-0.6,0.3c-0.3,0-0.6-0.1-0.8-0.4c-0.2-0.3-0.3-0.6-0.3-0.9
	c0-0.4,0.1-0.7,0.3-0.9c0.2-0.3,0.5-0.4,0.8-0.4c0.1,0,0.3,0,0.5,0.1l-0.1,0.1c-0.1-0.1-0.3-0.1-0.4-0.1c-0.2,0-0.4,0.1-0.5,0.3
	c-0.2,0.2-0.2,0.5-0.2,0.9s0.1,0.6,0.2,0.9c0.1,0.2,0.3,0.3,0.6,0.3c0.1,0,0.3-0.1,0.4-0.2c0.1-0.1,0.2-0.2,0.2-0.4V0.1h0.4L112,4.1
	L112,4.1z"/>
<path class="st0" d="M114.5,3.5c0,0.2-0.1,0.4-0.2,0.5c-0.1,0.1-0.3,0.2-0.5,0.2c-0.3,0-0.5-0.1-0.7-0.3l0.1-0.2
	c0.2,0.2,0.4,0.3,0.6,0.3c0.1,0,0.3,0,0.4-0.1c0.1-0.1,0.1-0.2,0.1-0.4s-0.1-0.3-0.2-0.4c-0.1-0.1-0.3-0.2-0.5-0.3
	c-0.3-0.2-0.4-0.4-0.4-0.7c0-0.2,0.1-0.3,0.2-0.5c0.1-0.1,0.3-0.1,0.5-0.1c0.1,0,0.2,0,0.4,0.1c0.1,0.1,0.2,0.1,0.3,0.2l-0.1,0.1
	c-0.2-0.2-0.3-0.3-0.5-0.3c-0.3,0-0.4,0.1-0.4,0.3s0.1,0.3,0.3,0.5c0.3,0.2,0.5,0.3,0.6,0.4C114.4,3,114.5,3.2,114.5,3.5z"/>
<path class="st0" d="M117.6,3.8c-0.3,0.2-0.6,0.4-0.9,0.4c-0.4,0-0.7-0.1-0.9-0.4c-0.3-0.3-0.4-0.6-0.4-0.9c0-0.4,0.1-0.7,0.4-0.9
	c0.3-0.3,0.6-0.4,0.9-0.4c0.3,0,0.6,0.1,0.8,0.3l-0.1,0.2c-0.2-0.2-0.4-0.3-0.7-0.3c-0.3,0-0.5,0.1-0.7,0.4
	c-0.2,0.2-0.3,0.5-0.3,0.8s0.1,0.6,0.2,0.8c0.2,0.2,0.4,0.4,0.7,0.4c0.3,0,0.6-0.1,0.8-0.4H117.6z"/>
<path class="st0" d="M120.2,2.4v1.7h-0.4V3.9c-0.1,0.2-0.4,0.2-0.6,0.2c-0.3,0-0.5-0.1-0.6-0.2c-0.2-0.1-0.3-0.4-0.3-0.6
	c0-0.3,0.1-0.5,0.3-0.6c0.2-0.1,0.4-0.2,0.6-0.2c0.1,0,0.1,0,0.2,0s0.2,0.1,0.3,0.1l-0.1,0.1c-0.1-0.1-0.3-0.1-0.4-0.1
	c-0.2,0-0.3,0.1-0.4,0.2c-0.1,0.1-0.1,0.3-0.1,0.5s0.1,0.4,0.2,0.5c0.1,0.1,0.2,0.2,0.4,0.2c0.3,0,0.5-0.1,0.6-0.4V2.4
	c0-0.6-0.2-0.8-0.6-0.8c-0.2,0-0.4,0.1-0.6,0.2l-0.1-0.1c0.2-0.1,0.4-0.2,0.7-0.2C119.9,1.5,120.2,1.8,120.2,2.4z"/>
<path class="st0" d="M123.5,2.8c0,0.4-0.1,0.7-0.3,0.9c-0.2,0.3-0.5,0.4-0.8,0.4c-0.1,0-0.3,0-0.5-0.1l0.1-0.1
	c0.1,0.1,0.2,0.1,0.4,0.1c0.2,0,0.4-0.1,0.5-0.3s0.2-0.5,0.2-0.9s-0.1-0.6-0.2-0.9c-0.1-0.2-0.3-0.3-0.6-0.3c-0.1,0-0.3,0.1-0.4,0.2
	c-0.1,0.1-0.2,0.2-0.2,0.4v2.9h-0.4V1.6h0.4v0.2c0.2-0.2,0.4-0.3,0.6-0.3c0.3,0,0.6,0.1,0.8,0.4C123.3,2.1,123.5,2.5,123.5,2.8z"/>
<path class="st0" d="M126.7,2.5h-1.6V2.4h1.2c0-0.5-0.2-0.8-0.6-0.8c-0.3,0-0.5,0.1-0.6,0.3c-0.2,0.2-0.2,0.5-0.2,0.9
	s0.1,0.7,0.2,0.9c0.2,0.2,0.4,0.3,0.7,0.3c0.3,0,0.6-0.1,0.8-0.4l0.1,0.2c-0.2,0.2-0.5,0.4-0.9,0.4c-0.4,0-0.7-0.1-0.9-0.4
	c-0.3-0.3-0.4-0.6-0.4-0.9c0-0.4,0.1-0.7,0.4-0.9c0.2-0.3,0.5-0.4,0.9-0.4c0.3,0,0.5,0.1,0.7,0.3C126.6,2,126.7,2.2,126.7,2.5z"/>
<path class="st0" d="M2,9.6v1.7H1.6v-0.2c-0.1,0.2-0.4,0.2-0.6,0.2c-0.3,0-0.5-0.1-0.6-0.2c-0.2-0.1-0.3-0.4-0.3-0.6
	c0-0.3,0.1-0.5,0.3-0.6C0.6,9.8,0.8,9.7,1,9.7c0.1,0,0.1,0,0.2,0s0.2,0.1,0.3,0.1L1.4,9.9C1.3,9.8,1.1,9.8,1,9.8
	c-0.2,0-0.3,0.1-0.4,0.2c-0.1,0.1-0.1,0.3-0.1,0.5s0.1,0.4,0.2,0.5c0.1,0.1,0.2,0.2,0.4,0.2c0.3,0,0.5-0.1,0.6-0.4V9.6
	c0-0.6-0.2-0.8-0.6-0.8C0.9,8.8,0.7,8.9,0.5,9L0.4,8.9c0.2-0.1,0.4-0.2,0.7-0.2C1.7,8.7,2,9,2,9.6z"/>
<path class="st0" d="M5.2,11.3H4.8V9.6c0-0.5-0.2-0.8-0.6-0.8S3.6,9,3.4,9.5v1.8H3V8.7h0.4v0.4c0.2-0.3,0.5-0.4,0.8-0.4
	c0.3,0,0.5,0.1,0.7,0.2C5.1,9,5.1,9.3,5.1,9.6L5.2,11.3L5.2,11.3z"/>
<path class="st0" d="M8.4,11.3H8v-0.2c-0.2,0.2-0.4,0.3-0.6,0.3c-0.3,0-0.6-0.1-0.8-0.4c-0.2-0.3-0.3-0.6-0.3-0.9
	c0-0.4,0.1-0.7,0.3-0.9c0.2-0.3,0.5-0.4,0.8-0.4c0.1,0,0.3,0,0.5,0.1L7.8,9C7.7,8.9,7.5,8.9,7.4,8.9C7.2,8.9,7,9,6.9,9.2
	c-0.2,0.2-0.2,0.5-0.2,0.9c0,0.4,0.1,0.6,0.2,0.9c0.1,0.2,0.3,0.3,0.6,0.3c0.1,0,0.3-0.1,0.4-0.2C8,11,8.1,10.9,8.1,10.7V7.3h0.4v4
	H8.4z"/>
<path class="st0" d="M12.5,9.6v1.7h-0.4v-0.2c-0.1,0.2-0.4,0.2-0.6,0.2c-0.3,0-0.5-0.1-0.6-0.2c-0.2-0.1-0.3-0.4-0.3-0.6
	c0-0.3,0.1-0.5,0.3-0.6c0.2-0.1,0.4-0.2,0.6-0.2c0.1,0,0.1,0,0.2,0c0.1,0,0.2,0.1,0.3,0.1l-0.1,0.1c-0.1-0.1-0.3-0.1-0.4-0.1
	c-0.2,0-0.3,0.1-0.4,0.2C11,10.1,11,10.3,11,10.5s0.1,0.4,0.2,0.5c0.1,0.1,0.2,0.2,0.4,0.2c0.3,0,0.5-0.1,0.6-0.4V9.6
	c0-0.6-0.2-0.8-0.6-0.8c-0.2,0-0.4,0.1-0.6,0.2l-0.1-0.1c0.2-0.1,0.4-0.2,0.7-0.2C12.2,8.7,12.5,9,12.5,9.6z"/>
<path class="st0" d="M14.8,8.8L14.7,9c-0.1-0.1-0.2-0.1-0.3-0.1c-0.1,0-0.1,0-0.2,0C14,9,13.9,9.3,13.9,9.6v1.7h-0.4V8.7H14V9
	c0.1-0.1,0.1-0.2,0.2-0.2c0.1-0.1,0.2-0.1,0.3-0.1S14.7,8.7,14.8,8.8z"/>
<path class="st0" d="M16.3,8.8v1.6c0,0.3,0,0.4,0.1,0.6c0.1,0.1,0.2,0.2,0.4,0.2v0.1c-0.6,0-0.9-0.3-0.9-0.8V8.9h-0.2V8.8h0.2V8.5
	h0.4V8.8z"/>
<path class="st0" d="M18.2,7.6c0,0.1,0,0.1-0.1,0.2c0,0.1-0.1,0.1-0.2,0.1s-0.1,0-0.2-0.1c-0.1-0.1-0.1-0.1-0.1-0.2s0-0.1,0.1-0.2
	c0,0,0.1-0.1,0.2-0.1s0.1,0,0.2,0.1C18.1,7.4,18.2,7.5,18.2,7.6z M18.1,11.3h-0.4V8.7h0.4V11.3z"/>
<path class="st0" d="M20.5,10.7c0,0.2-0.1,0.4-0.2,0.5c-0.1,0.1-0.3,0.2-0.5,0.2c-0.3,0-0.5-0.1-0.7-0.3l0.1-0.2
	c0.2,0.2,0.4,0.3,0.6,0.3c0.1,0,0.3,0,0.4-0.1c0.1-0.1,0.1-0.2,0.1-0.4s-0.1-0.3-0.2-0.4c-0.1-0.1-0.3-0.2-0.5-0.3
	c-0.3-0.2-0.4-0.4-0.4-0.7c0-0.2,0.1-0.3,0.2-0.5c0.1-0.1,0.3-0.1,0.5-0.1c0.1,0,0.2,0,0.4,0.1c0.1,0.1,0.2,0.1,0.3,0.2l-0.1,0.1
	c-0.2-0.2-0.3-0.3-0.5-0.3c-0.3,0-0.4,0.1-0.4,0.3c0,0.2,0.1,0.3,0.3,0.5c0.3,0.2,0.5,0.3,0.6,0.4C20.5,10.2,20.6,10.4,20.5,10.7z"
	/>
<path class="st0" d="M22,8.8v1.6c0,0.3,0,0.4,0.1,0.6c0.1,0.1,0.2,0.2,0.4,0.2v0.1c-0.6,0-0.9-0.3-0.9-0.8V8.9h-0.2V8.8h0.2V8.5H22
	V8.8z"/>
<path class="st0" d="M23.9,7.6c0,0.1,0,0.1-0.1,0.2c-0.1,0.1-0.1,0.1-0.2,0.1s-0.1,0-0.2-0.1c0-0.1-0.1-0.1-0.1-0.2s0-0.1,0.1-0.2
	c0.1,0,0.1-0.1,0.2-0.1s0.1,0,0.2,0.1C23.9,7.4,23.9,7.5,23.9,7.6z M23.8,11.3h-0.4V8.7h0.4V11.3z"/>
<path class="st0" d="M27.1,11c-0.3,0.2-0.6,0.4-0.9,0.4c-0.4,0-0.7-0.1-0.9-0.4c-0.3-0.3-0.4-0.6-0.4-0.9c0-0.4,0.1-0.7,0.4-0.9
	c0.3-0.3,0.6-0.4,0.9-0.4c0.3,0,0.6,0.1,0.8,0.3l-0.1,0.2C26.7,9.1,26.5,9,26.2,9c-0.3,0-0.5,0.1-0.7,0.4c-0.2,0.2-0.3,0.5-0.3,0.8
	c0,0.3,0.1,0.6,0.2,0.8c0.2,0.2,0.4,0.4,0.7,0.4c0.3,0,0.6-0.1,0.8-0.4H27.1z"/>
<path class="st0" d="M31.1,9.7h-1.6V9.6h1.2c0-0.5-0.2-0.8-0.6-0.8c-0.3,0-0.5,0.1-0.6,0.3c-0.2,0.2-0.2,0.5-0.2,0.9
	c0,0.4,0.1,0.7,0.2,0.9c0.2,0.2,0.4,0.3,0.7,0.3c0.3,0,0.6-0.1,0.8-0.4l0.1,0.2c-0.2,0.2-0.5,0.4-0.9,0.4c-0.4,0-0.7-0.1-0.9-0.4
	c-0.3-0.3-0.4-0.6-0.4-0.9c0-0.4,0.1-0.7,0.4-0.9c0.2-0.3,0.5-0.4,0.9-0.4c0.3,0,0.5,0.1,0.7,0.3C31,9.2,31.1,9.4,31.1,9.7z"/>
<path class="st0" d="M34.3,11.3h-0.5L33,10.1l-1,1.2h-0.1L33,10l-0.9-1.3h0.4l0.7,1l0.8-1h0.1l-0.9,1.1L34.3,11.3z"/>
<path class="st0" d="M37.3,10c0,0.4-0.1,0.7-0.3,0.9c-0.2,0.3-0.5,0.4-0.8,0.4c-0.1,0-0.3,0-0.5-0.1l0.1-0.1
	c0.1,0.1,0.2,0.1,0.4,0.1s0.4-0.1,0.5-0.3c0.1-0.2,0.2-0.5,0.2-0.9c0-0.4-0.1-0.6-0.2-0.9c-0.1-0.2-0.3-0.3-0.6-0.3
	c-0.1,0-0.3,0.1-0.4,0.2c-0.1,0.1-0.2,0.2-0.2,0.4v2.9h-0.4V8.8h0.4V9c0.2-0.2,0.4-0.3,0.6-0.3c0.3,0,0.6,0.1,0.8,0.4
	C37.1,9.3,37.3,9.7,37.3,10z"/>
<path class="st0" d="M39.4,8.8L39.3,9c-0.1-0.1-0.2-0.1-0.3-0.1s-0.1,0-0.2,0c-0.2,0.1-0.3,0.4-0.3,0.7v1.7h-0.4V8.7h0.4V9
	c0.1-0.1,0.1-0.2,0.2-0.2c0.1-0.1,0.2-0.1,0.3-0.1C39.2,8.7,39.3,8.7,39.4,8.8z"/>
<path class="st0" d="M42.4,9.7h-1.6V9.6H42c0-0.5-0.2-0.8-0.6-0.8c-0.3,0-0.5,0.1-0.6,0.3c-0.2,0.2-0.2,0.5-0.2,0.9
	c0,0.4,0.1,0.7,0.2,0.9c0.2,0.2,0.4,0.3,0.7,0.3s0.6-0.1,0.8-0.4l0.1,0.2c-0.2,0.2-0.5,0.4-0.9,0.4s-0.7-0.1-0.9-0.4
	c-0.3-0.3-0.4-0.6-0.4-0.9c0-0.4,0.1-0.7,0.4-0.9c0.2-0.3,0.5-0.4,0.9-0.4c0.3,0,0.5,0.1,0.7,0.3C42.3,9.2,42.4,9.4,42.4,9.7z"/>
<path class="st0" d="M44.7,10.7c0,0.2-0.1,0.4-0.2,0.5s-0.3,0.2-0.5,0.2c-0.3,0-0.5-0.1-0.7-0.3l0.1-0.2c0.2,0.2,0.4,0.3,0.6,0.3
	c0.1,0,0.3,0,0.3-0.1c0.1-0.1,0.1-0.2,0.1-0.4s-0.1-0.3-0.2-0.4c-0.1-0.1-0.3-0.2-0.5-0.3c-0.3-0.2-0.4-0.4-0.4-0.7
	c0-0.2,0.1-0.3,0.2-0.5c0.1-0.1,0.3-0.1,0.5-0.1c0.1,0,0.2,0,0.4,0.1c0.1,0.1,0.2,0.1,0.3,0.2l-0.1,0.1c-0.2-0.2-0.3-0.3-0.5-0.3
	c-0.3,0-0.4,0.1-0.4,0.3c0,0.2,0.1,0.3,0.3,0.5c0.3,0.2,0.5,0.3,0.6,0.4C44.6,10.2,44.7,10.4,44.7,10.7z"/>
<path class="st0" d="M47.1,10.7c0,0.2-0.1,0.4-0.2,0.5c-0.1,0.1-0.3,0.2-0.5,0.2c-0.3,0-0.5-0.1-0.7-0.3l0.1-0.2
	c0.2,0.2,0.4,0.3,0.6,0.3c0.1,0,0.3,0,0.3-0.1c0.1-0.1,0.1-0.2,0.1-0.4s-0.1-0.3-0.2-0.4c-0.1-0.1-0.3-0.2-0.5-0.3
	c-0.3-0.2-0.4-0.4-0.4-0.7c0-0.2,0.1-0.3,0.2-0.5c0.1-0.1,0.3-0.1,0.5-0.1c0.1,0,0.2,0,0.4,0.1C46.9,8.9,47,8.9,47.1,9L47,9.1
	c-0.2-0.2-0.3-0.3-0.5-0.3c-0.3,0-0.4,0.1-0.4,0.3c0,0.2,0.1,0.3,0.3,0.5c0.3,0.2,0.5,0.3,0.6,0.4C47,10.2,47.1,10.4,47.1,10.7z"/>
<path class="st0" d="M48.5,7.6c0,0.1,0,0.1-0.1,0.2c0,0.1-0.1,0.1-0.2,0.1c-0.1,0-0.1,0-0.2-0.1s-0.1-0.1-0.1-0.2s0-0.1,0.1-0.2
	c0,0,0.1-0.1,0.2-0.1c0.1,0,0.1,0,0.2,0.1C48.5,7.4,48.5,7.5,48.5,7.6z M48.4,11.3H48V8.7h0.4V11.3z"/>
<path class="st0" d="M52.1,10c0,0.4-0.1,0.7-0.4,0.9c-0.3,0.3-0.6,0.4-0.9,0.4c-0.4,0-0.7-0.1-0.9-0.4c-0.3-0.3-0.4-0.6-0.4-0.9
	c0-0.4,0.1-0.7,0.4-0.9c0.3-0.3,0.6-0.4,0.9-0.4c0.4,0,0.7,0.1,0.9,0.4C52,9.3,52.1,9.6,52.1,10z M51.7,10c0-0.3-0.1-0.6-0.3-0.8
	C51.2,9,51,8.9,50.8,8.9c-0.3,0-0.5,0.1-0.6,0.3C50,9.4,49.9,9.7,49.9,10c0,0.3,0.1,0.6,0.3,0.8c0.2,0.2,0.4,0.4,0.6,0.4
	s0.5-0.1,0.6-0.4C51.6,10.6,51.7,10.3,51.7,10z"/>
<path class="st0" d="M55.2,11.3h-0.4V9.6c0-0.5-0.2-0.8-0.6-0.8c-0.4,0-0.6,0.2-0.8,0.7v1.8H53V8.7h0.4v0.4c0.2-0.3,0.5-0.4,0.8-0.4
	s0.5,0.1,0.7,0.2c0.2,0.1,0.2,0.4,0.2,0.7v1.7H55.2z"/>
<path class="st0" d="M56.7,11.1c0,0.1,0,0.1-0.1,0.2c-0.1,0-0.1,0.1-0.2,0.1c-0.1,0-0.1,0-0.2-0.1c-0.1,0-0.1-0.1-0.1-0.2
	c0-0.1,0-0.1,0.1-0.2c0.1,0,0.1-0.1,0.2-0.1c0.1,0,0.1,0,0.2,0.1C56.7,11,56.7,11,56.7,11.1z"/>
</svg>
