<svg width="110" height="78" viewBox="0 0 110 78" fill="none" xmlns="http://www.w3.org/2000/svg">
<g clip-path="url(#clip0_138_6204)">
<path d="M1.308 39.634V40.186H4.656V39.634H1.308ZM1.026 37.924V40.504H1.602V38.464H4.362V40.492H4.968V37.924H1.026ZM3.546 35.86C4.128 36.4 4.812 37.168 5.106 37.672L5.586 37.324C5.274 36.82 4.56 36.076 3.99 35.56L3.546 35.86ZM0.756 37.462C0.756 37.354 1.11 37.186 1.11 37.186V37.168C1.74 36.652 2.418 35.914 2.982 35.128L2.412 34.882C1.968 35.614 1.284 36.364 1.068 36.562C0.87 36.754 0.72 36.88 0.57 36.91C0.636 37.06 0.732 37.348 0.756 37.462ZM0.756 37.462C1.038 37.366 1.434 37.354 4.98 37.168C4.956 37.048 4.932 36.814 4.926 36.658L1.152 36.814L0.75 37.018L0.756 37.462ZM6.66 36.418V36.982H8.436V36.418H6.66ZM9.636 35.044V39.364C9.636 40.084 9.81 40.288 10.398 40.288C10.512 40.288 11.046 40.288 11.166 40.288C11.79 40.288 11.928 39.844 11.982 38.596C11.826 38.56 11.58 38.446 11.436 38.326C11.4 39.454 11.364 39.736 11.112 39.736C11.004 39.736 10.572 39.736 10.476 39.736C10.26 39.736 10.224 39.682 10.224 39.37V35.044H9.636ZM8.13 35.044V39.502H8.718V35.044H8.13ZM6.462 39.862L6.726 40.438C7.428 40.156 8.358 39.778 9.222 39.412L9.12 38.908C8.16 39.268 7.11 39.652 6.462 39.862ZM9.942 36.412V36.976H11.862V36.412H9.942ZM13.11 40H15.636V39.43H14.772V35.584H14.25C13.992 35.74 13.704 35.848 13.284 35.92V36.358H14.082V39.43H13.11V40ZM18.0319 40.084C18.8959 40.084 19.4599 39.31 19.4599 37.774C19.4599 36.25 18.8959 35.506 18.0319 35.506C17.1619 35.506 16.6039 36.25 16.6039 37.774C16.6039 39.31 17.1619 40.084 18.0319 40.084ZM18.0319 39.532C17.5819 39.532 17.2639 39.052 17.2639 37.774C17.2639 36.514 17.5819 36.046 18.0319 36.046C18.4819 36.046 18.7939 36.514 18.7939 37.774C18.7939 39.052 18.4819 39.532 18.0319 39.532ZM20.5538 40H23.0798V39.43H22.2158V35.584H21.6938C21.4358 35.74 21.1478 35.848 20.7278 35.92V36.358H21.5258V39.43H20.5538V40ZM26.2736 35.71V36.238H29.4836V35.71H26.2736ZM26.4476 37.072V37.594H29.3276V37.072H26.4476ZM26.8736 39.73V40.246H28.8896V39.73H26.8736ZM27.5516 34.93V37.348H28.1276V34.93H27.5516ZM26.5676 38.152V40.504H27.0956V38.662H28.6196V40.48H29.1656V38.152H26.5676ZM25.4876 37.348C25.6436 37.762 25.7996 38.302 25.8596 38.632L26.3036 38.476C26.2376 38.158 26.0696 37.63 25.9076 37.228L25.4876 37.348ZM24.9116 38.908C24.9836 39.34 25.0496 39.904 25.0616 40.276L25.5056 40.186C25.4816 39.814 25.4096 39.262 25.3256 38.83L24.9116 38.908ZM24.2276 38.842C24.1736 39.34 24.0956 39.892 23.9516 40.258C24.0716 40.294 24.2936 40.36 24.3956 40.414C24.5216 40.042 24.6296 39.46 24.6896 38.92L24.2276 38.842ZM24.1196 37.246C24.1196 37.138 24.4436 36.97 24.4436 36.97V36.964C24.8516 36.484 25.2776 35.794 25.5956 35.128L25.0856 34.912C24.8396 35.56 24.4256 36.244 24.2876 36.418C24.1616 36.598 24.0596 36.718 23.9456 36.748C24.0056 36.886 24.0896 37.132 24.1196 37.246ZM24.1196 37.246C24.2276 37.192 24.4016 37.156 25.3556 37.054C25.3616 36.94 25.3796 36.742 25.4036 36.61L24.3476 36.694L24.1016 36.844L24.1196 37.246ZM24.1616 38.614C24.1616 38.512 24.4916 38.344 24.4916 38.344V38.332C25.0796 37.756 25.6856 36.94 26.1476 36.142L25.6736 35.854C25.2836 36.658 24.6476 37.498 24.4496 37.714C24.2576 37.93 24.1256 38.074 23.9816 38.104C24.0476 38.248 24.1316 38.506 24.1616 38.614ZM24.1616 38.614C24.2936 38.548 24.5096 38.494 25.9736 38.284C25.9676 38.17 25.9796 37.966 26.0036 37.828L24.3956 38.032L24.1376 38.2L24.1616 38.614ZM25.5356 38.788C25.6676 39.16 25.8116 39.658 25.8656 39.976L26.2796 39.838C26.2136 39.52 26.0696 39.034 25.9256 38.662L25.5356 38.788ZM32.5736 36.142V36.538H35.6336V36.142H32.5736ZM32.3156 36.88V37.3H35.8376V36.88H32.3156ZM32.2136 39.106V39.538H35.9036V39.106H32.2136ZM32.8796 38.35V38.74H35.2436V38.35H32.8796ZM32.4536 35.41V35.812H35.7236V35.41H32.4536ZM33.1136 34.936V37.078H33.6416V34.936H33.1136ZM33.7916 37.126V39.292H34.3076V37.126H33.7916ZM34.4696 34.936V37.066H35.0036V34.936H34.4696ZM32.5976 37.6V40.48H33.1196V38.002H35.2256V37.6H32.5976ZM35.0156 37.6V39.934C35.0156 40.006 34.9916 40.024 34.9136 40.03C34.8356 40.03 34.5776 40.036 34.3196 40.024C34.3856 40.156 34.4516 40.348 34.4756 40.48C34.8656 40.48 35.1356 40.474 35.3156 40.402C35.4896 40.324 35.5436 40.192 35.5436 39.94V37.6H35.0156ZM30.3536 36.214V36.742H32.3216V36.214H30.3536ZM31.1516 34.936V40.504H31.6676V34.936H31.1516ZM31.1396 36.556C30.9836 37.366 30.6176 38.368 30.2276 38.902C30.3116 39.028 30.4376 39.244 30.4916 39.394C30.9176 38.788 31.2896 37.618 31.4696 36.664L31.1396 36.556ZM31.6376 37.06L31.3916 37.294C31.5536 37.558 31.9436 38.26 32.0816 38.59L32.3816 38.176C32.2796 37.996 31.7756 37.228 31.6376 37.06ZM39.5936 35.206V35.686H42.0776V35.206H39.5936ZM40.2176 37.486H41.4116V37.96H40.2176V37.486ZM40.2176 38.374H41.4116V38.848H40.2176V38.374ZM40.2176 36.604H41.4116V37.072H40.2176V36.604ZM39.7496 36.166V39.286H41.8976V36.166H39.7496ZM40.5536 35.458C40.5416 35.734 40.4876 36.142 40.4336 36.412L40.8896 36.502C40.9676 36.25 41.0576 35.872 41.1476 35.524L40.5536 35.458ZM40.2716 39.412C40.0796 39.67 39.7076 39.994 39.3656 40.174C39.4856 40.264 39.6476 40.42 39.7316 40.516C40.0736 40.324 40.4756 39.988 40.7276 39.682L40.2716 39.412ZM40.9976 39.676C41.2676 39.91 41.5916 40.246 41.7356 40.468L42.1676 40.18C42.0056 39.964 41.6756 39.646 41.4116 39.424L40.9976 39.676ZM38.2916 37.474C38.3936 37.666 38.4956 37.924 38.5436 38.098L38.9456 37.966C38.8976 37.804 38.7836 37.552 38.6756 37.366L38.2916 37.474ZM37.7456 38.512V38.842H39.4256V38.512H37.7456ZM37.7456 39.13V39.466H39.4376V39.13H37.7456ZM38.4716 38.044V39.97H38.8556V38.044H38.4716ZM37.9556 37.864H37.8476L37.5296 38.224V40.444H37.9556V38.23H39.4916V37.864H37.9556ZM37.7696 37.342C37.6316 37.81 37.3976 38.278 37.1156 38.59C37.1996 38.674 37.3316 38.872 37.3796 38.956C37.7036 38.584 37.9976 38.008 38.1716 37.45L37.7696 37.342ZM37.0736 36.016V36.448H38.9156V36.892H37.0736V37.33H39.4256V36.016H37.0736ZM38.9876 35.038C38.4956 35.2 37.6196 35.326 36.8696 35.392C36.9236 35.5 36.9956 35.686 37.0136 35.8C37.8056 35.74 38.7536 35.614 39.4076 35.422L38.9876 35.038ZM36.8636 35.392V37.33C36.8636 38.176 36.8456 39.388 36.5216 40.234C36.6416 40.276 36.8576 40.384 36.9476 40.462C37.2896 39.574 37.3436 38.236 37.3436 37.33V35.392H36.8636ZM37.7576 39.754V40.138H39.5336V39.754H37.7576ZM44.7416 37.84V38.314H46.2536V39.19H44.7416V39.658H46.7876V37.84H44.7416ZM44.4956 37.84V40.012H45.0236V37.84H44.4956ZM43.4576 36.052V36.454H45.0536V36.052H43.4576ZM46.2296 36.052V36.454H47.8496V36.052H46.2296ZM47.6036 35.182V39.784C47.6036 39.898 47.5676 39.934 47.4536 39.934C47.3396 39.94 46.9376 39.946 46.5596 39.928C46.6436 40.078 46.7396 40.348 46.7576 40.504C47.2976 40.504 47.6576 40.498 47.8856 40.402C48.1016 40.306 48.1796 40.138 48.1796 39.79V35.182H47.6036ZM43.4996 35.182V35.626H44.8796V36.91H43.4996V37.354H45.4136V35.182H43.4996ZM47.9096 35.182H45.8936V37.36H47.9096V36.922H46.4336V35.626H47.9096V35.182ZM43.1816 35.182V40.51H43.7456V35.182H43.1816ZM0.294 47.896V48.364H5.7V47.896H0.294ZM1.434 46.858V47.272H4.182V46.858H1.434ZM2.778 47.68V48.928C2.778 49.006 2.754 49.024 2.658 49.03C2.562 49.03 2.214 49.03 1.878 49.018C1.95 49.156 2.034 49.348 2.064 49.498C2.532 49.498 2.844 49.498 3.06 49.426C3.276 49.348 3.336 49.216 3.336 48.946V47.68H2.778ZM4.044 46.858V46.954C3.774 47.188 3.234 47.506 2.778 47.68C2.85 47.746 2.982 47.884 3.042 47.974C3.588 47.764 4.194 47.446 4.626 47.122L4.296 46.828L4.176 46.858H4.044ZM0.414 46.09V47.248H0.954V46.516H5.034V47.248H5.598V46.09H0.414ZM4.734 44.152C4.704 44.842 4.644 45.748 4.566 46.312H5.112C5.178 45.766 5.238 44.86 5.274 44.152H4.734ZM3.822 44.152V44.524H4.956V44.152H3.822ZM1.956 43.978C1.644 44.08 1.122 44.23 0.768 44.29L0.972 44.608C1.332 44.554 1.842 44.458 2.202 44.314L1.956 43.978ZM1.056 44.8V45.166H2.16V44.8H1.056ZM1.08 45.442V45.814H2.184V45.442H1.08ZM3.858 44.8V45.166H4.902V44.8H3.858ZM3.822 45.442V45.814H4.86V45.442H3.822ZM3.258 43.984C3.03 44.29 2.616 44.572 2.208 44.764C2.298 44.824 2.448 44.956 2.514 45.028C2.922 44.812 3.372 44.464 3.642 44.092L3.258 43.984ZM2.322 44.278C2.712 44.464 3.186 44.758 3.414 44.974L3.696 44.716C3.45 44.506 2.976 44.218 2.592 44.044L2.322 44.278ZM3.27 44.998C3.03 45.322 2.586 45.622 2.16 45.814C2.25 45.88 2.394 46.03 2.46 46.102C2.892 45.874 3.366 45.508 3.654 45.112L3.27 44.998ZM2.298 45.292C2.706 45.502 3.198 45.826 3.432 46.06L3.72 45.796C3.474 45.562 2.97 45.256 2.574 45.064L2.298 45.292ZM0.768 44.29L0.894 46.294H1.422L1.308 44.434L0.768 44.29ZM7.332 44.194V44.71H11.982V44.194H7.332ZM7.41 48.874V49.348H11.994V48.874H7.41ZM9.768 47.788V48.238H11.448V47.788H9.768ZM6.972 44.194V46.006C6.972 46.954 6.93 48.292 6.462 49.228C6.6 49.282 6.834 49.414 6.942 49.492C7.44 48.502 7.512 47.014 7.512 46.006V44.194H6.972ZM9.468 47.236V49.138H10.02V47.236H9.468ZM8.13 47.662V49.144H8.67V47.662H8.13ZM7.668 45.712V46.12H9.534V45.712H7.668ZM8.388 45.064V47.26H8.862V45.064H8.388ZM8.328 45.886C8.13 46.276 7.764 46.696 7.416 46.9C7.518 46.984 7.656 47.134 7.728 47.248C8.082 46.978 8.448 46.474 8.646 46.006L8.328 45.886ZM9.702 45.712V46.12H11.874V45.712H9.702ZM10.47 45.064V47.26H10.95V45.064H10.47ZM10.332 45.886C10.14 46.27 9.75 46.69 9.39 46.894C9.492 46.978 9.63 47.134 9.702 47.248C10.074 46.984 10.458 46.474 10.656 46L10.332 45.886ZM8.838 46.102L8.562 46.312C8.73 46.438 9.102 46.774 9.24 46.924L9.522 46.57C9.408 46.48 8.976 46.186 8.838 46.102ZM9.102 44.806C8.784 44.938 8.178 45.034 7.65 45.082C7.704 45.172 7.758 45.322 7.782 45.412C8.346 45.376 9.024 45.274 9.468 45.094L9.102 44.806ZM11.268 44.782C10.92 44.926 10.248 45.016 9.672 45.07C9.72 45.154 9.78 45.31 9.798 45.4C10.416 45.364 11.154 45.256 11.64 45.076L11.268 44.782ZM10.956 46.126L10.698 46.366C10.944 46.54 11.532 47.014 11.754 47.23L12.012 46.852C11.844 46.726 11.16 46.246 10.956 46.126ZM15.6 45.814C15.87 45.814 16.104 45.61 16.104 45.316C16.104 45.016 15.87 44.812 15.6 44.812C15.324 44.812 15.096 45.016 15.096 45.316C15.096 45.61 15.324 45.814 15.6 45.814ZM15.6 48.718C15.87 48.718 16.104 48.514 16.104 48.22C16.104 47.92 15.87 47.716 15.6 47.716C15.324 47.716 15.096 47.92 15.096 48.22C15.096 48.514 15.324 48.718 15.6 48.718ZM1.278 54.43V54.838H4.722V54.43H1.278ZM3.744 54.01C3.96 54.124 4.218 54.298 4.35 54.436L4.614 54.148C4.482 54.016 4.218 53.848 3.996 53.752L3.744 54.01ZM4.074 55.072C3.822 56.056 3.288 56.806 2.502 57.262C2.598 57.34 2.76 57.52 2.82 57.61C3.63 57.088 4.224 56.26 4.524 55.156L4.074 55.072ZM1.218 56.812L1.278 57.232C1.77 57.148 2.388 57.04 2.994 56.932L2.976 56.542C2.322 56.65 1.668 56.746 1.218 56.812ZM1.848 55.492H2.412V56.002H1.848V55.492ZM1.464 55.168V56.326H2.808V55.168H1.464ZM2.982 53.842C3.084 55.642 3.3 57.298 4.092 57.502C4.446 57.646 4.704 57.412 4.788 56.716C4.692 56.668 4.518 56.542 4.428 56.452C4.392 56.824 4.338 57.07 4.26 57.052C3.762 56.956 3.522 55.45 3.462 53.842H2.982ZM0.462 53.206V58.528H1.002V53.722H4.968V58.528H5.532V53.206H0.462ZM0.798 57.748V58.258H5.28V57.748H0.798ZM6.858 54.046V54.616H11.754V54.046H6.858ZM6.594 57.694V58.264H12.006V57.694H6.594ZM7.656 55.012C7.872 55.786 8.112 56.818 8.196 57.484L8.802 57.328C8.7 56.656 8.46 55.666 8.22 54.874L7.656 55.012ZM10.38 54.886C10.188 55.792 9.816 57.052 9.486 57.802L10.044 57.934C10.368 57.19 10.752 55.996 11.016 55L10.38 54.886ZM8.808 53.032C8.922 53.344 9.048 53.758 9.102 54.022L9.69 53.848C9.624 53.59 9.492 53.194 9.366 52.888L8.808 53.032ZM13.152 53.998V56.932H13.722V54.556H17.448V56.902H18.042V53.998H13.152ZM13.452 56.02V56.578H17.784V56.02H13.452ZM15.282 52.936V58.504H15.882V52.936H15.282ZM19.164 56.566V57.088H24.618V56.566H19.164ZM21.39 54.04V54.412H22.362V54.04H21.39ZM23.124 53.194V53.662H24.072V53.194H23.124ZM23.148 54.358V54.82H24.018V54.358H23.148ZM23.112 55.468V55.924H23.964V55.468H23.112ZM19.794 54.346V54.808H20.664V54.346H19.794ZM19.818 55.45V55.912H20.682V55.45H19.818ZM20.832 53.236V56.824H21.24V53.674H22.536V56.824H22.962V53.236H20.832ZM21.708 55.108H22.08V55.792H21.708V55.108ZM21.45 54.766V56.14H22.344V54.766H21.45ZM23.772 53.194C23.778 54.364 23.724 55.96 23.652 56.89H24.144C24.21 55.984 24.258 54.388 24.27 53.194H23.772ZM20.556 52.996C20.28 53.128 19.872 53.272 19.536 53.374C19.59 53.494 19.65 53.674 19.668 53.788C20.016 53.716 20.448 53.602 20.814 53.482L20.556 52.996ZM19.536 53.374L19.632 56.698H20.118L20.028 53.512L19.536 53.374ZM22.434 57.49C23.052 57.79 23.718 58.186 24.12 58.468L24.492 58.03C24.078 57.76 23.376 57.388 22.746 57.094L22.434 57.49ZM20.88 57.142C20.49 57.454 19.758 57.85 19.188 58.072C19.296 58.192 19.44 58.378 19.518 58.498C20.106 58.252 20.844 57.856 21.348 57.496L20.88 57.142ZM25.554 54.616V55.198H30.858V54.616H25.554ZM28.548 54.85L27.978 54.982C28.428 56.614 29.214 57.868 30.546 58.492C30.642 58.33 30.828 58.084 30.972 57.958C29.718 57.442 28.926 56.266 28.548 54.85ZM27.888 52.942C27.87 54.46 27.948 56.914 25.44 58.018C25.602 58.138 25.776 58.342 25.866 58.492C28.47 57.274 28.482 54.628 28.506 52.942H27.888ZM31.794 56.896V57.364H37.2V56.896H31.794ZM32.934 55.858V56.272H35.682V55.858H32.934ZM34.278 56.68V57.928C34.278 58.006 34.254 58.024 34.158 58.03C34.062 58.03 33.714 58.03 33.378 58.018C33.45 58.156 33.534 58.348 33.564 58.498C34.032 58.498 34.344 58.498 34.56 58.426C34.776 58.348 34.836 58.216 34.836 57.946V56.68H34.278ZM35.544 55.858V55.954C35.274 56.188 34.734 56.506 34.278 56.68C34.35 56.746 34.482 56.884 34.542 56.974C35.088 56.764 35.694 56.446 36.126 56.122L35.796 55.828L35.676 55.858H35.544ZM31.914 55.09V56.248H32.454V55.516H36.534V56.248H37.098V55.09H31.914ZM36.234 53.152C36.204 53.842 36.144 54.748 36.066 55.312H36.612C36.678 54.766 36.738 53.86 36.774 53.152H36.234ZM35.322 53.152V53.524H36.456V53.152H35.322ZM33.456 52.978C33.144 53.08 32.622 53.23 32.268 53.29L32.472 53.608C32.832 53.554 33.342 53.458 33.702 53.314L33.456 52.978ZM32.556 53.8V54.166H33.66V53.8H32.556ZM32.58 54.442V54.814H33.684V54.442H32.58ZM35.358 53.8V54.166H36.402V53.8H35.358ZM35.322 54.442V54.814H36.36V54.442H35.322ZM34.758 52.984C34.53 53.29 34.116 53.572 33.708 53.764C33.798 53.824 33.948 53.956 34.014 54.028C34.422 53.812 34.872 53.464 35.142 53.092L34.758 52.984ZM33.822 53.278C34.212 53.464 34.686 53.758 34.914 53.974L35.196 53.716C34.95 53.506 34.476 53.218 34.092 53.044L33.822 53.278ZM34.77 53.998C34.53 54.322 34.086 54.622 33.66 54.814C33.75 54.88 33.894 55.03 33.96 55.102C34.392 54.874 34.866 54.508 35.154 54.112L34.77 53.998ZM33.798 54.292C34.206 54.502 34.698 54.826 34.932 55.06L35.22 54.796C34.974 54.562 34.47 54.256 34.074 54.064L33.798 54.292ZM32.268 53.29L32.394 55.294H32.922L32.808 53.434L32.268 53.29ZM38.484 54.838V55.396H43.122V54.838H38.484ZM38.094 57.688V58.246H43.512V57.688H38.094ZM40.482 52.954V58.06H41.088V52.954H40.482ZM44.484 54.382V54.946H49.722V54.382H44.484ZM46.794 52.942V58.504H47.394V52.942H46.794ZM46.668 54.682C46.176 55.774 45.222 56.878 44.232 57.418C44.364 57.532 44.556 57.754 44.658 57.898C45.678 57.268 46.614 56.104 47.166 54.85L46.668 54.682ZM47.508 54.7L47.028 54.868C47.592 56.074 48.534 57.25 49.524 57.88C49.62 57.724 49.818 57.502 49.956 57.388C48.984 56.854 48.006 55.756 47.508 54.7ZM52.002 56.794C51.702 57.202 51.204 57.628 50.742 57.898C50.886 57.982 51.12 58.168 51.234 58.27C51.684 57.964 52.218 57.472 52.572 57.004L52.002 56.794ZM54.174 57.028C54.648 57.382 55.23 57.892 55.506 58.216L56.004 57.88C55.698 57.55 55.104 57.064 54.63 56.728L54.174 57.028ZM53.154 56.254V57.85C53.154 57.922 53.13 57.94 53.028 57.946C52.926 57.952 52.584 57.952 52.242 57.94C52.332 58.09 52.428 58.33 52.458 58.498C52.896 58.498 53.22 58.492 53.442 58.402C53.67 58.312 53.73 58.162 53.73 57.862V56.254H53.154ZM54.666 52.924C53.778 53.32 52.248 53.668 50.874 53.89C50.934 54.016 51.018 54.226 51.036 54.37C52.434 54.148 54.018 53.818 55.086 53.368L54.666 52.924ZM51.192 56.788C51.192 56.686 51.576 56.56 51.576 56.56V56.542C52.686 56.11 53.856 55.516 54.924 54.742L54.498 54.364C53.532 55.12 52.26 55.78 51.852 55.96C51.486 56.134 51.234 56.23 51.024 56.254C51.084 56.404 51.168 56.674 51.192 56.788ZM51.192 56.788C51.444 56.692 51.816 56.656 55.308 56.392C55.302 56.278 55.302 56.056 55.32 55.906L51.54 56.164L51.174 56.362L51.192 56.788ZM51.486 55.504C51.486 55.402 51.846 55.258 51.846 55.258V55.246C52.47 54.982 53.124 54.592 53.712 54.142L53.214 53.824C52.716 54.274 52.038 54.676 51.822 54.784C51.618 54.892 51.468 54.952 51.324 54.976C51.384 55.12 51.462 55.396 51.486 55.504ZM51.486 55.504C51.66 55.444 51.924 55.414 53.964 55.288C53.97 55.18 54 54.97 54.03 54.832L51.786 54.94L51.48 55.108L51.486 55.504ZM54.324 55.42C54.75 55.852 55.266 56.452 55.512 56.818L55.998 56.524C55.74 56.164 55.23 55.606 54.792 55.186L54.324 55.42ZM1.278 63.43V63.838H4.722V63.43H1.278ZM3.744 63.01C3.96 63.124 4.218 63.298 4.35 63.436L4.614 63.148C4.482 63.016 4.218 62.848 3.996 62.752L3.744 63.01ZM4.074 64.072C3.822 65.056 3.288 65.806 2.502 66.262C2.598 66.34 2.76 66.52 2.82 66.61C3.63 66.088 4.224 65.26 4.524 64.156L4.074 64.072ZM1.218 65.812L1.278 66.232C1.77 66.148 2.388 66.04 2.994 65.932L2.976 65.542C2.322 65.65 1.668 65.746 1.218 65.812ZM1.848 64.492H2.412V65.002H1.848V64.492ZM1.464 64.168V65.326H2.808V64.168H1.464ZM2.982 62.842C3.084 64.642 3.3 66.298 4.092 66.502C4.446 66.646 4.704 66.412 4.788 65.716C4.692 65.668 4.518 65.542 4.428 65.452C4.392 65.824 4.338 66.07 4.26 66.052C3.762 65.956 3.522 64.45 3.462 62.842H2.982ZM0.462 62.206V67.528H1.002V62.722H4.968V67.528H5.532V62.206H0.462ZM0.798 66.748V67.258H5.28V66.748H0.798ZM6.858 63.046V63.616H11.754V63.046H6.858ZM6.594 66.694V67.264H12.006V66.694H6.594ZM7.656 64.012C7.872 64.786 8.112 65.818 8.196 66.484L8.802 66.328C8.7 65.656 8.46 64.666 8.22 63.874L7.656 64.012ZM10.38 63.886C10.188 64.792 9.816 66.052 9.486 66.802L10.044 66.934C10.368 66.19 10.752 64.996 11.016 64L10.38 63.886ZM8.808 62.032C8.922 62.344 9.048 62.758 9.102 63.022L9.69 62.848C9.624 62.59 9.492 62.194 9.366 61.888L8.808 62.032ZM13.908 66.634V67.186H17.256V66.634H13.908ZM13.626 64.924V67.504H14.202V65.464H16.962V67.492H17.568V64.924H13.626ZM16.146 62.86C16.728 63.4 17.412 64.168 17.706 64.672L18.186 64.324C17.874 63.82 17.16 63.076 16.59 62.56L16.146 62.86ZM13.356 64.462C13.356 64.354 13.71 64.186 13.71 64.186V64.168C14.34 63.652 15.018 62.914 15.582 62.128L15.012 61.882C14.568 62.614 13.884 63.364 13.668 63.562C13.47 63.754 13.32 63.88 13.17 63.91C13.236 64.06 13.332 64.348 13.356 64.462ZM13.356 64.462C13.638 64.366 14.034 64.354 17.58 64.168C17.556 64.048 17.532 63.814 17.526 63.658L13.752 63.814L13.35 64.018L13.356 64.462ZM21.9 63.04V63.328H23.028V63.04H21.9ZM21.9 63.496V63.784H23.028V63.496H21.9ZM21.018 66.262V66.622H24.06V66.262H21.018ZM21.72 62.536V62.854H23.166V62.536H21.72ZM22.236 64.258H22.668V64.594H22.236V64.258ZM21.888 63.976V64.876H23.028V63.976H21.888ZM21.12 65.668V66.004H24.144V65.062H20.754V65.404H23.616V65.668H21.12ZM20.958 65.668C20.886 65.98 20.79 66.352 20.694 66.622H21.222C21.306 66.364 21.402 65.998 21.48 65.668H20.958ZM23.886 66.262L23.88 66.322C23.796 66.754 23.706 66.976 23.598 67.054C23.532 67.096 23.466 67.102 23.34 67.102C23.184 67.102 22.788 67.096 22.416 67.06C22.5 67.18 22.56 67.36 22.572 67.486C22.95 67.504 23.316 67.504 23.502 67.504C23.724 67.498 23.868 67.474 24 67.372C24.168 67.24 24.282 66.976 24.384 66.472C24.408 66.406 24.42 66.262 24.42 66.262H23.886ZM19.212 62.392C19.512 62.578 19.884 62.86 20.052 63.064L20.4 62.638C20.214 62.44 19.842 62.182 19.536 62.014L19.212 62.392ZM19.08 63.994C19.386 64.162 19.776 64.432 19.95 64.618L20.28 64.186C20.094 64 19.704 63.754 19.398 63.604L19.08 63.994ZM19.206 67.144L19.71 67.438C19.95 66.868 20.208 66.142 20.406 65.512L19.962 65.218C19.734 65.908 19.428 66.676 19.206 67.144ZM21.276 63.334C21.39 63.532 21.504 63.802 21.552 63.97L21.81 63.85C21.774 63.694 21.648 63.436 21.534 63.244L21.276 63.334ZM21.324 64.114C21.414 64.324 21.492 64.6 21.516 64.774L21.774 64.666C21.756 64.492 21.666 64.228 21.57 64.03L21.324 64.114ZM20.466 64.138C20.424 64.39 20.364 64.654 20.25 64.852C20.322 64.894 20.454 64.978 20.508 65.032C20.622 64.822 20.712 64.504 20.766 64.21L20.466 64.138ZM20.436 63.148C20.436 63.094 20.64 63.01 20.64 63.01V63.004C20.85 62.77 21.066 62.428 21.21 62.098L20.874 61.984C20.784 62.302 20.568 62.656 20.502 62.734C20.442 62.824 20.394 62.884 20.316 62.896C20.358 62.962 20.418 63.094 20.436 63.148ZM20.436 63.148C20.514 63.118 20.658 63.094 21.264 63.046C21.264 62.974 21.288 62.848 21.312 62.758L20.628 62.794L20.424 62.896L20.436 63.148ZM20.448 63.964C20.448 63.904 20.682 63.82 20.682 63.82V63.808C21.03 63.502 21.372 63.058 21.63 62.638L21.312 62.494C21.102 62.926 20.736 63.382 20.616 63.496C20.508 63.61 20.43 63.688 20.334 63.706C20.376 63.772 20.436 63.91 20.448 63.964ZM20.448 63.964C20.544 63.922 20.706 63.886 21.612 63.766C21.582 63.7 21.558 63.574 21.546 63.496L20.616 63.598L20.43 63.7L20.448 63.964ZM20.868 64.198C20.934 64.432 20.982 64.732 20.988 64.924L21.27 64.828C21.264 64.648 21.21 64.36 21.138 64.132L20.868 64.198ZM22.116 62.08C22.2 62.23 22.302 62.434 22.338 62.572L22.734 62.464C22.686 62.344 22.584 62.134 22.494 61.996L22.116 62.08ZM24.096 63.328C24.216 63.538 24.336 63.808 24.384 63.982L24.648 63.874C24.6 63.706 24.474 63.436 24.348 63.238L24.096 63.328ZM24.138 64.108C24.246 64.354 24.342 64.678 24.366 64.882L24.63 64.768C24.6 64.57 24.498 64.258 24.384 64.018L24.138 64.108ZM23.286 64.114C23.244 64.366 23.184 64.63 23.07 64.828C23.148 64.87 23.274 64.954 23.328 65.014C23.442 64.798 23.532 64.48 23.586 64.186L23.286 64.114ZM23.256 63.142C23.256 63.088 23.46 62.998 23.46 62.998V62.992C23.67 62.758 23.892 62.416 24.024 62.098L23.694 61.972C23.598 62.296 23.388 62.644 23.322 62.728C23.262 62.818 23.208 62.878 23.142 62.884C23.178 62.956 23.238 63.088 23.256 63.142ZM23.256 63.142C23.334 63.112 23.478 63.088 24.084 63.04C24.084 62.968 24.102 62.842 24.126 62.752L23.448 62.788L23.244 62.89L23.256 63.142ZM23.274 63.958C23.274 63.898 23.502 63.808 23.502 63.808V63.802C23.85 63.49 24.192 63.052 24.45 62.626L24.126 62.488C23.916 62.92 23.556 63.376 23.436 63.484C23.334 63.604 23.25 63.682 23.154 63.694C23.196 63.766 23.256 63.898 23.274 63.958ZM23.274 63.958C23.364 63.916 23.526 63.88 24.432 63.754C24.408 63.688 24.378 63.568 24.366 63.484L23.436 63.592L23.25 63.694L23.274 63.958ZM23.676 64.198C23.748 64.45 23.802 64.78 23.802 64.984L24.09 64.888C24.084 64.696 24.024 64.378 23.94 64.126L23.676 64.198ZM25.554 63.616V64.198H30.858V63.616H25.554ZM28.548 63.85L27.978 63.982C28.428 65.614 29.214 66.868 30.546 67.492C30.642 67.33 30.828 67.084 30.972 66.958C29.718 66.442 28.926 65.266 28.548 63.85ZM27.888 61.942C27.87 63.46 27.948 65.914 25.44 67.018C25.602 67.138 25.776 67.342 25.866 67.492C28.47 66.274 28.482 63.628 28.506 61.942H27.888ZM31.794 65.896V66.364H37.2V65.896H31.794ZM32.934 64.858V65.272H35.682V64.858H32.934ZM34.278 65.68V66.928C34.278 67.006 34.254 67.024 34.158 67.03C34.062 67.03 33.714 67.03 33.378 67.018C33.45 67.156 33.534 67.348 33.564 67.498C34.032 67.498 34.344 67.498 34.56 67.426C34.776 67.348 34.836 67.216 34.836 66.946V65.68H34.278ZM35.544 64.858V64.954C35.274 65.188 34.734 65.506 34.278 65.68C34.35 65.746 34.482 65.884 34.542 65.974C35.088 65.764 35.694 65.446 36.126 65.122L35.796 64.828L35.676 64.858H35.544ZM31.914 64.09V65.248H32.454V64.516H36.534V65.248H37.098V64.09H31.914ZM36.234 62.152C36.204 62.842 36.144 63.748 36.066 64.312H36.612C36.678 63.766 36.738 62.86 36.774 62.152H36.234ZM35.322 62.152V62.524H36.456V62.152H35.322ZM33.456 61.978C33.144 62.08 32.622 62.23 32.268 62.29L32.472 62.608C32.832 62.554 33.342 62.458 33.702 62.314L33.456 61.978ZM32.556 62.8V63.166H33.66V62.8H32.556ZM32.58 63.442V63.814H33.684V63.442H32.58ZM35.358 62.8V63.166H36.402V62.8H35.358ZM35.322 63.442V63.814H36.36V63.442H35.322ZM34.758 61.984C34.53 62.29 34.116 62.572 33.708 62.764C33.798 62.824 33.948 62.956 34.014 63.028C34.422 62.812 34.872 62.464 35.142 62.092L34.758 61.984ZM33.822 62.278C34.212 62.464 34.686 62.758 34.914 62.974L35.196 62.716C34.95 62.506 34.476 62.218 34.092 62.044L33.822 62.278ZM34.77 62.998C34.53 63.322 34.086 63.622 33.66 63.814C33.75 63.88 33.894 64.03 33.96 64.102C34.392 63.874 34.866 63.508 35.154 63.112L34.77 62.998ZM33.798 63.292C34.206 63.502 34.698 63.826 34.932 64.06L35.22 63.796C34.974 63.562 34.47 63.256 34.074 63.064L33.798 63.292ZM32.268 62.29L32.394 64.294H32.922L32.808 62.434L32.268 62.29ZM38.484 63.838V64.396H43.122V63.838H38.484ZM38.094 66.688V67.246H43.512V66.688H38.094ZM40.482 61.954V67.06H41.088V61.954H40.482ZM44.484 63.382V63.946H49.722V63.382H44.484ZM46.794 61.942V67.504H47.394V61.942H46.794ZM46.668 63.682C46.176 64.774 45.222 65.878 44.232 66.418C44.364 66.532 44.556 66.754 44.658 66.898C45.678 66.268 46.614 65.104 47.166 63.85L46.668 63.682ZM47.508 63.7L47.028 63.868C47.592 65.074 48.534 66.25 49.524 66.88C49.62 66.724 49.818 66.502 49.956 66.388C48.984 65.854 48.006 64.756 47.508 63.7ZM52.002 65.794C51.702 66.202 51.204 66.628 50.742 66.898C50.886 66.982 51.12 67.168 51.234 67.27C51.684 66.964 52.218 66.472 52.572 66.004L52.002 65.794ZM54.174 66.028C54.648 66.382 55.23 66.892 55.506 67.216L56.004 66.88C55.698 66.55 55.104 66.064 54.63 65.728L54.174 66.028ZM53.154 65.254V66.85C53.154 66.922 53.13 66.94 53.028 66.946C52.926 66.952 52.584 66.952 52.242 66.94C52.332 67.09 52.428 67.33 52.458 67.498C52.896 67.498 53.22 67.492 53.442 67.402C53.67 67.312 53.73 67.162 53.73 66.862V65.254H53.154ZM54.666 61.924C53.778 62.32 52.248 62.668 50.874 62.89C50.934 63.016 51.018 63.226 51.036 63.37C52.434 63.148 54.018 62.818 55.086 62.368L54.666 61.924ZM51.192 65.788C51.192 65.686 51.576 65.56 51.576 65.56V65.542C52.686 65.11 53.856 64.516 54.924 63.742L54.498 63.364C53.532 64.12 52.26 64.78 51.852 64.96C51.486 65.134 51.234 65.23 51.024 65.254C51.084 65.404 51.168 65.674 51.192 65.788ZM51.192 65.788C51.444 65.692 51.816 65.656 55.308 65.392C55.302 65.278 55.302 65.056 55.32 64.906L51.54 65.164L51.174 65.362L51.192 65.788ZM51.486 64.504C51.486 64.402 51.846 64.258 51.846 64.258V64.246C52.47 63.982 53.124 63.592 53.712 63.142L53.214 62.824C52.716 63.274 52.038 63.676 51.822 63.784C51.618 63.892 51.468 63.952 51.324 63.976C51.384 64.12 51.462 64.396 51.486 64.504ZM51.486 64.504C51.66 64.444 51.924 64.414 53.964 64.288C53.97 64.18 54 63.97 54.03 63.832L51.786 63.94L51.48 64.108L51.486 64.504ZM54.324 64.42C54.75 64.852 55.266 65.452 55.512 65.818L55.998 65.524C55.74 65.164 55.23 64.606 54.792 64.186L54.324 64.42ZM59.436 62.254V62.788H62.364V62.254H59.436ZM59.274 64.408V64.948H62.484V64.408H59.274ZM61.284 62.476V67.51H61.824V62.476H61.284ZM59.904 62.494V64.564C59.904 65.416 59.82 66.502 59.154 67.216C59.286 67.288 59.49 67.444 59.586 67.54C60.33 66.76 60.438 65.566 60.438 64.57V62.494H59.904ZM56.982 62.248V62.764H59.13V62.248H56.982ZM57.618 64.09V64.6H58.548V66.262H57.618V66.766H59.04V64.09H57.618ZM57.732 62.494C57.576 63.454 57.306 64.366 56.862 64.954C56.946 65.116 57.06 65.458 57.09 65.602C57.672 64.87 58.032 63.748 58.248 62.608L57.732 62.494ZM57.372 64.09V67.228H57.846V64.09H57.372ZM63.672 65.104V65.632H67.146V65.104H63.672ZM66.816 65.104V66.634C66.816 67.222 66.972 67.396 67.5 67.396C67.608 67.396 68.022 67.396 68.136 67.396C68.616 67.396 68.772 67.15 68.826 66.196C68.67 66.154 68.406 66.058 68.286 65.956C68.268 66.724 68.238 66.832 68.076 66.832C67.986 66.832 67.668 66.832 67.596 66.832C67.434 66.832 67.41 66.808 67.41 66.634V65.104H66.816ZM63.444 62.5V63.646H64.014V63.01H68.01V63.598H68.604V62.5H63.444ZM65.334 64.402V65.14C65.334 65.764 65.088 66.568 63.24 67.054C63.372 67.18 63.546 67.39 63.636 67.534C65.64 66.994 65.928 65.986 65.928 65.152V64.402H65.334ZM65.028 62.902C64.944 63.628 64.716 64.006 63.498 64.21C63.612 64.318 63.75 64.528 63.804 64.672C65.19 64.384 65.514 63.856 65.622 62.902H65.028ZM65.568 62.02C65.664 62.278 65.772 62.62 65.82 62.824L66.432 62.698C66.384 62.494 66.258 62.164 66.156 61.924L65.568 62.02ZM66.384 62.896V63.91C66.384 64.414 66.516 64.612 67.086 64.612C67.206 64.612 67.83 64.612 67.98 64.612C68.178 64.612 68.388 64.606 68.496 64.576C68.478 64.444 68.46 64.24 68.448 64.096C68.34 64.12 68.106 64.132 67.962 64.132C67.824 64.132 67.248 64.132 67.122 64.132C66.972 64.132 66.948 64.072 66.948 63.916V62.896H66.384ZM72.732 63.958V64.51H75.072V63.958H72.732ZM73.872 64.348V67.48H74.436V64.348H73.872ZM69.852 62.506V64.642C69.852 65.428 69.822 66.454 69.438 67.168C69.564 67.234 69.804 67.426 69.9 67.528C70.35 66.742 70.41 65.512 70.41 64.642V62.506H69.852ZM74.598 62.008C74.094 62.23 73.242 62.416 72.498 62.518C72.564 62.65 72.642 62.86 72.666 62.998C73.428 62.902 74.346 62.74 74.976 62.5L74.598 62.008ZM70.164 63.448V63.958H71.454V64.816H70.164V65.326H72.006V63.448H70.164ZM71.904 62.056C71.412 62.266 70.572 62.422 69.852 62.506C69.918 62.638 69.99 62.842 70.014 62.974C70.758 62.908 71.658 62.77 72.27 62.536L71.904 62.056ZM72.498 62.518V64.462C72.498 65.314 72.426 66.394 71.658 67.138C71.784 67.216 72.018 67.414 72.108 67.522C72.942 66.724 73.074 65.41 73.074 64.468V62.518H72.498ZM2.508 71.71V72.238H5.718V71.71H2.508ZM2.682 73.072V73.594H5.562V73.072H2.682ZM3.108 75.73V76.246H5.124V75.73H3.108ZM3.786 70.93V73.348H4.362V70.93H3.786ZM2.802 74.152V76.504H3.33V74.662H4.854V76.48H5.4V74.152H2.802ZM1.722 73.348C1.878 73.762 2.034 74.302 2.094 74.632L2.538 74.476C2.472 74.158 2.304 73.63 2.142 73.228L1.722 73.348ZM1.146 74.908C1.218 75.34 1.284 75.904 1.296 76.276L1.74 76.186C1.716 75.814 1.644 75.262 1.56 74.83L1.146 74.908ZM0.462 74.842C0.408 75.34 0.33 75.892 0.186 76.258C0.306 76.294 0.528 76.36 0.63 76.414C0.756 76.042 0.864 75.46 0.924 74.92L0.462 74.842ZM0.354 73.246C0.354 73.138 0.678 72.97 0.678 72.97V72.964C1.086 72.484 1.512 71.794 1.83 71.128L1.32 70.912C1.074 71.56 0.66 72.244 0.522 72.418C0.396 72.598 0.294 72.718 0.18 72.748C0.24 72.886 0.324 73.132 0.354 73.246ZM0.354 73.246C0.462 73.192 0.636 73.156 1.59 73.054C1.596 72.94 1.614 72.742 1.638 72.61L0.582 72.694L0.336 72.844L0.354 73.246ZM0.396 74.614C0.396 74.512 0.726 74.344 0.726 74.344V74.332C1.314 73.756 1.92 72.94 2.382 72.142L1.908 71.854C1.518 72.658 0.882 73.498 0.684 73.714C0.492 73.93 0.36 74.074 0.216 74.104C0.282 74.248 0.366 74.506 0.396 74.614ZM0.396 74.614C0.528 74.548 0.744 74.494 2.208 74.284C2.202 74.17 2.214 73.966 2.238 73.828L0.63 74.032L0.372 74.2L0.396 74.614ZM1.77 74.788C1.902 75.16 2.046 75.658 2.1 75.976L2.514 75.838C2.448 75.52 2.304 75.034 2.16 74.662L1.77 74.788ZM8.808 72.142V72.538H11.868V72.142H8.808ZM8.55 72.88V73.3H12.072V72.88H8.55ZM8.448 75.106V75.538H12.138V75.106H8.448ZM9.114 74.35V74.74H11.478V74.35H9.114ZM8.688 71.41V71.812H11.958V71.41H8.688ZM9.348 70.936V73.078H9.876V70.936H9.348ZM10.026 73.126V75.292H10.542V73.126H10.026ZM10.704 70.936V73.066H11.238V70.936H10.704ZM8.832 73.6V76.48H9.354V74.002H11.46V73.6H8.832ZM11.25 73.6V75.934C11.25 76.006 11.226 76.024 11.148 76.03C11.07 76.03 10.812 76.036 10.554 76.024C10.62 76.156 10.686 76.348 10.71 76.48C11.1 76.48 11.37 76.474 11.55 76.402C11.724 76.324 11.778 76.192 11.778 75.94V73.6H11.25ZM6.588 72.214V72.742H8.556V72.214H6.588ZM7.386 70.936V76.504H7.902V70.936H7.386ZM7.374 72.556C7.218 73.366 6.852 74.368 6.462 74.902C6.546 75.028 6.672 75.244 6.726 75.394C7.152 74.788 7.524 73.618 7.704 72.664L7.374 72.556ZM7.872 73.06L7.626 73.294C7.788 73.558 8.178 74.26 8.316 74.59L8.616 74.176C8.514 73.996 8.01 73.228 7.872 73.06ZM14.988 75.88V76.396H18.372V75.88H14.988ZM15.87 72.766V73.282H17.622V72.766H15.87ZM15.87 74.314V74.812H17.622V74.314H15.87ZM15.492 71.242V76.144H16.014V71.758H17.442V76.144H17.982V71.242H15.492ZM14.418 73.348C14.574 73.762 14.73 74.302 14.784 74.632L15.246 74.476C15.18 74.158 15.006 73.624 14.844 73.216L14.418 73.348ZM13.806 74.908C13.872 75.322 13.938 75.862 13.95 76.216L14.418 76.12C14.4 75.766 14.328 75.232 14.25 74.818L13.806 74.908ZM13.074 74.842C13.026 75.328 12.948 75.868 12.81 76.228C12.93 76.258 13.158 76.336 13.266 76.39C13.392 76.018 13.5 75.448 13.548 74.92L13.074 74.842ZM12.966 73.246C12.966 73.138 13.296 72.97 13.296 72.97V72.958C13.71 72.484 14.142 71.794 14.466 71.122L13.962 70.912C13.704 71.56 13.278 72.244 13.146 72.418C13.014 72.598 12.906 72.718 12.792 72.748C12.852 72.886 12.936 73.132 12.966 73.246ZM12.966 73.246C13.074 73.192 13.26 73.15 14.244 73.048C14.25 72.934 14.268 72.736 14.298 72.598L13.2 72.682L12.954 72.844L12.966 73.246ZM13.008 74.614C13.008 74.512 13.35 74.344 13.35 74.344V74.326C13.962 73.75 14.58 72.934 15.066 72.124L14.586 71.83C14.172 72.64 13.518 73.486 13.302 73.702C13.11 73.918 12.972 74.062 12.828 74.092C12.894 74.236 12.978 74.506 13.008 74.614ZM13.008 74.614C13.14 74.542 13.362 74.494 14.85 74.278C14.844 74.17 14.856 73.966 14.874 73.828L13.242 74.032L12.99 74.206L13.008 74.614ZM14.49 74.788C14.598 75.106 14.724 75.526 14.766 75.802L15.216 75.652C15.156 75.382 15.03 74.968 14.91 74.656L14.49 74.788ZM21.9 73.03C21.516 73.03 21.204 73.342 21.204 73.72C21.204 74.104 21.516 74.416 21.9 74.416C22.278 74.416 22.59 74.104 22.59 73.72C22.59 73.342 22.278 73.03 21.9 73.03ZM27.93 71.188V71.704H30.894V71.188H27.93ZM28.626 73.528H30.15V73.966H28.626V73.528ZM28.626 74.404H30.15V74.848H28.626V74.404ZM28.626 72.658H30.15V73.096H28.626V72.658ZM28.11 72.196V75.31H30.69V72.196H28.11ZM28.692 75.316C28.404 75.64 27.894 75.94 27.408 76.126C27.528 76.222 27.72 76.426 27.81 76.528C28.302 76.294 28.866 75.904 29.214 75.496L28.692 75.316ZM29.118 71.416C29.088 71.71 29.016 72.13 28.956 72.418L29.46 72.508C29.544 72.25 29.652 71.854 29.748 71.488L29.118 71.416ZM25.458 71.212V71.734H27.804V71.212H25.458ZM26.196 73.006V73.51H27.174V75.112H26.196V75.61H27.678V73.006H26.196ZM26.22 71.476C26.082 72.592 25.83 73.648 25.332 74.314C25.44 74.434 25.608 74.704 25.674 74.824C26.25 74.038 26.58 72.838 26.766 71.554L26.22 71.476ZM25.938 73.006V76.102H26.436V73.006H25.938ZM29.616 75.562C29.97 75.844 30.396 76.246 30.588 76.51L31.044 76.222C30.834 75.952 30.396 75.562 30.036 75.298L29.616 75.562ZM32.13 75.634V76.198H36.894V75.634H32.13ZM31.8 72.802V73.36H37.218V72.802H31.8ZM34.182 70.954V76.042H34.788V70.954H34.182Z" fill="black"/>
<path d="M1.134 0.935V1.709H2.925V5.588H1.134V6.371H3.717V0.935H1.134ZM1.143 3.23V3.995H3.249V3.23H1.143ZM4.959 0.782V1.574H7.875V0.782H4.959ZM4.959 2.951V3.725H7.875V2.951H4.959ZM4.923 5.129V5.894H7.857V5.129H4.923ZM0.675 0.935V7.19H1.467V0.935H0.675ZM7.56 0.782V7.712C7.56 7.874 7.497 7.928 7.335 7.928C7.182 7.937 6.624 7.946 6.084 7.919C6.21 8.144 6.345 8.513 6.381 8.747C7.155 8.747 7.659 8.729 7.974 8.594C8.289 8.45 8.406 8.207 8.406 7.721V0.782H7.56ZM4.455 0.782V4.013C4.455 5.399 4.311 7.109 2.79 8.252C2.97 8.36 3.294 8.657 3.42 8.828C5.058 7.595 5.292 5.552 5.292 4.022V0.782H4.455ZM11.394 0.989V8.657H12.267V1.844H16.551V8.63H17.46V0.989H11.394ZM11.988 4.067V4.904H16.929V4.067H11.988ZM11.979 7.217V8.072H16.938V7.217H11.979ZM23.625 3.221V3.968H28.179V3.221H23.625ZM23.274 1.43V2.186H28.449V1.43H23.274ZM23.301 4.832V5.588H28.413V4.832H23.301ZM25.443 0.395V3.644H26.28V0.395H25.443ZM26.604 3.851V7.793C26.604 7.928 26.559 7.964 26.415 7.964C26.271 7.973 25.776 7.973 25.272 7.955C25.389 8.18 25.515 8.522 25.551 8.747C26.253 8.747 26.721 8.738 27.036 8.612C27.342 8.486 27.441 8.252 27.441 7.811V3.851H26.604ZM23.769 6.209C24.174 6.677 24.651 7.352 24.858 7.766L25.614 7.316C25.38 6.902 24.876 6.263 24.471 5.813L23.769 6.209ZM20.835 0.98V1.745H22.32V6.236H20.835V7.001H23.112V0.98H20.835ZM20.871 3.572V4.328H22.698V3.572H20.871ZM20.43 0.98V7.766H21.222V0.98H20.43ZM34.893 4.409V7.577C34.893 8.468 35.127 8.738 36.027 8.738C36.198 8.738 37.044 8.738 37.233 8.738C38.052 8.738 38.277 8.333 38.367 6.812C38.142 6.749 37.773 6.605 37.584 6.461C37.548 7.73 37.494 7.937 37.161 7.937C36.972 7.937 36.288 7.937 36.135 7.937C35.811 7.937 35.748 7.883 35.748 7.577V4.409H34.893ZM32.499 4.454C32.364 6.137 32.112 7.379 29.961 8.027C30.15 8.198 30.393 8.549 30.483 8.765C32.85 7.982 33.246 6.47 33.399 4.454H32.499ZM30.87 1.106C31.302 1.817 31.734 2.762 31.878 3.356L32.706 3.023C32.544 2.42 32.076 1.511 31.644 0.827L30.87 1.106ZM36.747 0.737C36.504 1.457 36.036 2.429 35.658 3.032L36.387 3.32C36.783 2.744 37.26 1.844 37.647 1.052L36.747 0.737ZM30.168 3.788V4.589H38.25V3.788H30.168ZM33.732 0.404V4.112H34.596V0.404H33.732ZM4.032 15.087V15.888H8.559V15.087H4.032ZM3.888 17.796V18.606H8.685V17.796H3.888ZM6.849 13.404V21.747H7.668V13.404H6.849ZM4.932 13.413V17.31C4.932 18.696 4.752 20.289 3.348 21.288C3.555 21.396 3.879 21.648 4.023 21.792C5.508 20.703 5.742 18.957 5.742 17.31V13.413H4.932ZM0.387 17.391V18.129H3.681V17.391H0.387ZM0.531 15.816V16.554H3.537V15.816H0.531ZM1.674 13.404V21.747H2.475V13.404H1.674ZM3.15 13.917C2.511 14.205 1.368 14.448 0.369 14.592C0.468 14.754 0.576 15.042 0.603 15.213C1.656 15.087 2.907 14.853 3.753 14.511L3.15 13.917ZM1.629 17.706C1.368 18.579 0.774 19.686 0.225 20.271C0.351 20.478 0.531 20.811 0.603 21.045C1.242 20.343 1.845 18.993 2.178 17.922L1.629 17.706ZM2.394 18.318L1.962 18.696C2.286 19.02 3.024 19.821 3.312 20.217L3.798 19.605C3.573 19.389 2.664 18.525 2.394 18.318ZM14.229 21.459C14.49 21.342 14.895 21.288 17.91 20.973C17.865 20.793 17.829 20.46 17.829 20.226L14.661 20.505L14.202 20.784L14.229 21.459ZM14.229 21.459C14.229 21.279 14.877 20.973 14.877 20.973V20.955C15.507 19.983 16.182 18.606 16.659 17.256L15.732 16.977C15.363 18.255 14.706 19.605 14.481 19.965C14.274 20.325 14.112 20.568 13.923 20.613C14.031 20.847 14.175 21.27 14.229 21.459ZM14.526 14.079V14.889H18.18V14.079H14.526ZM14.13 16.644V17.445H18.477V16.644H14.13ZM16.677 18.885C17.091 19.785 17.577 21 17.784 21.765L18.576 21.459C18.351 20.685 17.865 19.524 17.433 18.615L16.677 18.885ZM10.251 17.382V18.111H14.04V17.382H10.251ZM10.431 15.816V16.545H13.824V15.816H10.431ZM11.772 13.404V21.747H12.564V13.404H11.772ZM13.473 13.917C12.726 14.241 11.385 14.493 10.215 14.646C10.305 14.817 10.413 15.087 10.44 15.267C11.664 15.132 13.095 14.889 14.058 14.511L13.473 13.917ZM11.709 17.706C11.412 18.579 10.764 19.686 10.179 20.271C10.305 20.478 10.485 20.811 10.566 21.036C11.241 20.343 11.889 19.02 12.258 17.931L11.709 17.706ZM12.501 18.318L12.078 18.687C12.411 19.002 13.176 19.803 13.473 20.199L13.923 19.605C13.698 19.398 12.771 18.525 12.501 18.318ZM20.493 14.169V16.113H21.33V14.952H27.279V16.113H28.152V14.169H20.493ZM21.708 15.654V16.383H26.865V15.654H21.708ZM23.274 17.022C24.768 18.318 24.687 20.361 24.183 20.775C24.039 20.946 23.877 20.973 23.652 20.973C23.454 20.973 23.157 20.964 22.824 20.928C22.977 21.162 23.049 21.504 23.058 21.738C23.337 21.747 23.616 21.756 23.814 21.747C24.246 21.747 24.507 21.666 24.804 21.387C25.614 20.748 25.677 18.147 23.922 16.662L23.274 17.022ZM24.219 15.888C23.409 16.653 21.87 17.238 20.466 17.553C20.61 17.715 20.835 18.066 20.916 18.228C22.365 17.814 23.976 17.121 24.921 16.185L24.219 15.888ZM23.904 17.589C23.139 18.165 21.582 18.804 20.421 19.074C20.574 19.254 20.754 19.542 20.853 19.731C22.023 19.362 23.589 18.642 24.453 17.994L23.904 17.589ZM24.426 18.651C23.544 19.461 21.744 20.298 20.286 20.64C20.448 20.829 20.628 21.135 20.727 21.351C22.203 20.901 24.021 19.992 25.011 19.092L24.426 18.651ZM26.235 18.093L25.488 18.273C25.938 19.686 26.766 20.811 27.981 21.378C28.098 21.162 28.35 20.838 28.539 20.685C27.432 20.244 26.622 19.254 26.235 18.093ZM26.847 16.644C26.226 17.238 25.182 18.003 24.408 18.453L24.957 18.939C25.74 18.516 26.766 17.823 27.549 17.202L26.847 16.644ZM23.544 13.584C23.733 13.926 23.931 14.385 24.003 14.682L24.93 14.385C24.858 14.097 24.633 13.656 24.435 13.332L23.544 13.584Z" fill="#C9A063"/>
</g>
<defs>
<clipPath id="clip0_138_6204">
<rect width="110" height="78" fill="white"/>
</clipPath>
</defs>
</svg>
