<?xml version="1.0" encoding="utf-8"?>
<!-- Generator: Adobe Illustrator 25.2.3, SVG Export Plug-In . SVG Version: 6.00 Build 0)  -->
<svg version="1.1" id="圖層_1" xmlns="http://www.w3.org/2000/svg" xmlns:xlink="http://www.w3.org/1999/xlink" x="0px" y="0px"
	 viewBox="0 0 280 70" style="enable-background:new 0 0 280 70;" xml:space="preserve">
<style type="text/css">
	.st0{fill:#C9A063;}
	.st1{fill:#C79F62;}
</style>
<path class="st0" d="M3.3,2.7H6C6.5,2,6.9,1.6,7.1,1.6s0.5,0.2,1.1,0.6C8.7,2.6,9,2.9,9,3S8.9,3.3,8.7,3.4C8.4,3.7,8.2,3.8,8.2,3.9
	v5.9c0.1,2.3,0.1,3.8,0.1,4.4c0,0.5-0.4,0.7-1.1,0.7c-0.5,0-0.8-0.1-0.9-0.4v-1.3H3.6V15c-0.1,0.4-0.5,0.6-1.2,0.6
	c-0.4,0-0.7-0.1-0.8-0.2c0-2.1,0-4.2,0.1-6.2V5.1c0-1.7-0.1-2.8-0.1-3.1L3.3,2.7z M6.3,7.6V3.2H3.6v4.4C3.6,7.6,6.3,7.6,6.3,7.6z
	 M6.3,12.7V8.1H3.6v4.6C3.6,12.7,6.3,12.7,6.3,12.7z M11.5,14.2c-0.3,0.9-0.8,1.8-1.8,2.7C8.5,18.2,7.2,19,6,19.4
	c-0.1,0-0.2-0.1-0.3-0.2c1.4-1,2.6-2.2,3.4-3.8c0.8-1.2,1.2-3.2,1.2-6.1c0-3.3,0-5.3,0-6.1c0-0.7,0-1.4-0.1-2.3l2.2,1h3.7
	c0.4-0.6,0.8-1,1-1.2c0.2,0,0.5,0.2,1.1,0.5c0.6,0.4,0.9,0.7,0.9,0.9c0,0.1-0.1,0.3-0.4,0.4c-0.3,0.2-0.4,0.3-0.5,0.4v13.4
	c0,1.4-0.8,2.2-2.3,2.5c-0.2,0-0.4-0.1-0.4-0.4c-0.2-0.5-0.7-1-1.2-1.2c-0.8-0.3-1.4-0.5-1.7-0.6c0,0,0-0.1,0-0.4
	c0.8,0.1,1.9,0.1,3.3,0.1c0.3,0,0.5-0.2,0.5-0.5v-4H12C11.9,13,11.7,13.7,11.5,14.2z M12.2,9.4c0,0.8,0,1.6-0.1,2.2h4.3V7.2h-4.2
	V9.4z M12.2,6.7h4.2V2.6h-4.2V6.7z"/>
<path class="st0" d="M39,12.2c0.9,0.8,1.3,1.2,1.3,1.4s-0.1,0.3-0.2,0.3H33c1,0.9,2,1.6,3.2,2c1.2,0.5,2.6,0.7,4.2,0.8
	c0,0.2,0,0.3-0.1,0.4c-0.1,0-0.3,0.2-0.5,0.4c-0.1,0.1-0.3,0.4-0.4,0.8c-0.1,0.3-0.2,0.4-0.4,0.4c-0.7,0-1.8-0.5-3.4-1.4
	c-1.4-0.8-2.4-1.9-3.1-3.3h-0.3l0.1,5.1c0,0.4-0.4,0.6-1.2,0.7c-0.6,0-0.9-0.2-0.9-0.5c0-1.6,0-3.1,0-4.5c-1.5,1.7-4.3,3-8.5,4
	c-0.1,0-0.2-0.1-0.3-0.3c3.4-1.2,5.6-2.6,6.7-4c0.2-0.2,0.3-0.4,0.4-0.5h-1.6c-2.4,0-4,0.1-4.6,0.3c-0.1-0.4-0.3-0.7-0.5-1.1
	c1,0.1,2.8,0.2,5.2,0.2h3.1v-0.2c0-0.7-0.1-1.2-0.1-1.6c-0.6,0.2-1.3,0.4-2,0.5c0,0-0.1-0.1-0.2-0.3c1.7-0.6,2.9-1.5,3.7-2.7
	c-0.6-0.4-1.1-0.7-1.7-0.9c0,0,0.1-0.1,0.1-0.3c0.7,0.1,1.4,0.2,1.9,0.4c0.2-0.5,0.3-1,0.3-1.4c-0.8,0-1.4,0.1-1.7,0.2
	c-0.1-0.3-0.3-0.7-0.4-1c0.3,0.1,1,0.2,2,0.2h3.6C35.8,6,36,5.8,36.2,5.6c-0.4,0-0.6-0.2-0.7-0.7c0-0.1-0.1-0.3-0.1-0.5
	s-0.1-0.3-0.1-0.5c-0.1-0.2-0.2-0.4-0.3-0.5h-1.6c-0.2,0.2-0.4,0.4-0.5,0.5c-0.7,0.6-1.4,1.2-2.2,1.6c0,0-0.1-0.1-0.2-0.2
	c1.3-1.6,2.2-3.1,2.5-4.6c1.8,0.5,2.7,0.9,2.7,1.1c0,0.2-0.4,0.3-1.2,0.4c-0.1,0.2-0.3,0.4-0.4,0.6h3.7c0.5-0.8,0.9-1.2,1.1-1.3H39
	c0.1,0.1,0.4,0.3,0.8,0.6c0.5,0.5,0.8,0.8,0.9,1c0,0.2-0.1,0.3-0.1,0.3h-4.4c0.8,0.3,1.2,0.7,1.2,1.3c0,0.3-0.1,0.6-0.3,0.7
	c0.3,0.1,0.6,0.4,1,0.6c0.5,0.4,0.7,0.7,0.7,0.8c0,0.2-0.3,0.5-0.9,0.8v1.9c0,0.5,0.2,0.7,0.6,0.8c0,0,0,0,0.1,0
	c0.5,0,0.7-0.1,0.8-0.3c0.2-0.3,0.4-0.9,0.5-1.7c0,0,0.1,0.1,0.4,0.1c0,0.3,0,0.7,0,1.2c0,0.2,0.1,0.4,0.3,0.5
	c0.3,0.1,0.5,0.4,0.5,0.6c0,0.3-0.1,0.4-0.1,0.5c-0.2,0.4-0.6,0.6-1.2,0.7C39.5,12,39.3,12,39,12s-0.5,0-0.7,0
	c-1.2,0-1.8-0.6-1.9-1.9V7h-1.9c-0.1,0.9-0.3,1.5-0.5,1.8v0.1c1.1,0.5,1.7,1,1.7,1.7c0,0.2,0,0.3-0.1,0.5c-0.1,0.3-0.3,0.4-0.6,0.4
	s-0.7-0.3-1.2-0.9c-0.2-0.2-0.4-0.4-0.6-0.5c-0.6,0.7-1.4,1.2-2.4,1.5c2,0.3,3,0.6,3,0.8c0,0.1-0.1,0.3-0.4,0.4
	c-0.4,0.2-0.7,0.3-0.7,0.4v0.3h4.8C38.1,12.7,38.6,12.2,39,12.2C38.9,12.1,39,12.1,39,12.2C38.6,11.9,38.8,12.1,39,12.2z M25.3,3.2
	c-1,1.3-2.2,2.2-3.5,2.9c-0.1-0.1-0.2-0.2-0.4-0.2c1.4-1.4,2.5-3.2,3.1-5.5c1.8,0.6,2.7,0.9,2.7,1.1c0,0.3-0.4,0.4-1,0.5
	c-0.1,0.2-0.3,0.4-0.4,0.6h2.7c0.5-0.8,0.9-1.2,1.1-1.3h0.1c0.2,0.1,0.4,0.3,0.8,0.6c0.5,0.5,0.8,0.8,0.9,1c0,0.2-0.1,0.3-0.1,0.3
	h-4.6c1,0.3,1.6,0.9,1.6,1.6c0,0.6-0.3,0.9-0.9,0.9c-0.4,0-0.6-0.2-0.7-0.7c0-0.1-0.1-0.3-0.1-0.6c0-0.2-0.1-0.4-0.1-0.6
	c-0.1-0.3-0.3-0.5-0.4-0.7L25.3,3.2L25.3,3.2z M24.6,7.1c-0.9,0-1.6,0.1-2,0.2c-0.1-0.3-0.2-0.5-0.3-0.8c0.4,0.1,1.2,0.1,2.3,0.1
	h2.9c0.3-0.4,0.5-0.7,0.8-1c0.1-0.1,0.2-0.1,0.2-0.1c0.1,0,0.2,0.1,0.4,0.2c0.7,0.6,1.1,1,1.2,1.2c0,0.2-0.1,0.3-0.1,0.3h-3v2.7
	c1.1-0.1,2.1-0.2,2.9-0.4L30,9.6c-1.6,0.8-3.8,1.6-6.7,2.1c0,0.4-0.1,0.5-0.2,0.5s-0.2-0.2-0.4-0.5c-0.2-0.3-0.4-0.9-0.7-1.6
	c1.2,0,2.3-0.1,3.3-0.2V7.1H24.6z"/>
<path class="st0" d="M49.8,7.2c0.7,0.6,1.1,1,1.1,1.2s-0.1,0.3-0.2,0.3h-2.1v5.5c0.7-0.4,1.4-0.9,2.2-1.4c0,0,0,0.2,0.1,0.4
	c-0.9,1.2-2,2.4-3.3,3.7c0,0.1-0.1,0.4-0.1,0.8c0,0.1-0.1,0.2-0.2,0.2c-0.2,0-0.7-0.7-1.5-2.2c0.3,0,0.7-0.2,1.2-0.5V8.7h-1
	c-0.1,1.9-0.1,3.2-0.3,3.9c-0.5,3.5-1.5,5.8-3.1,6.7c0-0.1-0.1-0.1-0.2-0.2c0.9-1.4,1.5-3.8,1.8-7c0.1-1.2,0.1-2.3,0.1-3.4
	c-0.9,0-1.5,0.1-1.7,0.3c-0.1-0.4-0.3-0.7-0.5-1.1c0.4,0.1,1.1,0.2,2,0.2h1.5V2.3c0-0.8,0-1.4-0.1-1.9C47.2,0.7,48,0.9,48,1.1
	s-0.1,0.3-0.3,0.3c-0.4,0.1-0.5,0.3-0.5,0.4v6.3h0.9c0.5-0.6,0.9-1,1.2-1.2h0.1C49.5,7,49.7,7.1,49.8,7.2z M45.1,5.6
	c0,0.5-0.1,0.8-0.3,1C44.6,6.9,44.4,7,44,7c-0.2,0-0.4-0.4-0.4-1.1c-0.2-1.4-0.5-2.5-0.9-3.2L43,2.5C44.4,3.6,45.1,4.7,45.1,5.6z
	 M50.9,3.1c0.8-0.6,1.2-1.4,1.3-2.3h0.4c0,0.3,0.1,0.6,0.1,1h6c0.5-0.6,0.9-0.9,1.2-1c0.2,0.1,0.5,0.3,0.9,0.7
	c0.5,0.5,0.8,0.8,0.8,1s-0.2,0.3-0.5,0.3s-0.4,0.1-0.5,0.1c-0.5,0.4-1.3,0.8-2.1,1.2c-0.1,0-0.2-0.1-0.2-0.2
	c0.3-0.5,0.5-1.1,0.6-1.6h-6.2v0.1c0,1.6-0.4,2.3-1.2,2.3c-0.7,0-1.1-0.2-1.1-0.7c0-0.2,0.1-0.4,0.2-0.6c-0.2,0-0.3,0.1-0.5,0.1
	c-0.4,1.1-1,2.3-1.9,3.5c-0.1,0-0.3-0.1-0.5-0.1c0.4-1.6,0.8-3.2,0.9-4.9C50,2.5,50.7,2.9,50.9,3.1z M59.9,4.4
	C60.6,5.1,61,5.5,61,5.6c0,0.2-0.1,0.3-0.2,0.3h-4.5v1.6h1.4c0.5-0.5,0.8-0.8,1-0.8s0.5,0.2,1,0.6s0.7,0.6,0.7,0.8
	c0,0.1-0.1,0.3-0.3,0.4c-0.3,0.2-0.4,0.4-0.5,0.4v2.6c0.1,1,0.1,1.7,0.1,2c0,0.4-0.4,0.7-1,0.7c-0.5,0-0.8-0.1-0.8-0.4v-0.3h-1.7V15
	c0,0.2,0,0.4,0,0.5h2.4c0.5-0.6,0.9-1,1.2-1.2h0.1c0.1,0.1,0.3,0.2,0.4,0.3c0.7,0.6,1.1,1,1.1,1.2s-0.1,0.3-0.2,0.3h-5
	c0,1.4,0,2.5,0.1,3.1c0,0.3-0.4,0.5-1.2,0.5c-0.4,0-0.6-0.1-0.6-0.4c0-0.6,0-1.7,0.1-3.2h-1.5c-1.5,0-2.4,0.1-2.8,0.2
	c-0.1-0.4-0.3-0.7-0.5-1.1c0.6,0.1,1.6,0.2,3,0.2h1.8v-2H53v0.4c-0.1,0.4-0.4,0.6-1.1,0.6c-0.4,0-0.6-0.1-0.7-0.2
	c0-1.1,0-2.2,0.1-3.3V8.7c0-0.9-0.1-1.5-0.1-1.7l1.6,0.6h2V6h-0.9c-1.3,0-2.1,0.1-2.4,0.3c-0.1-0.4-0.3-0.7-0.5-1.1
	c0.5,0.1,1.3,0.2,2.5,0.2h1.3V4.7c0-0.6-0.1-1.2-0.2-1.7c0.6,0.1,1.2,0.2,1.9,0.3c0.5,0.1,0.7,0.2,0.7,0.4c0,0.1-0.1,0.2-0.3,0.3
	c-0.3,0.1-0.5,0.2-0.5,0.3v1.2h1.8c0.5-0.6,0.9-1,1.2-1.2h0.1C59.6,4.2,59.7,4.3,59.9,4.4z M54.6,10V8H53v2H54.6z M54.6,12.8v-2.2
	H53v2.2H54.6z M56.3,10H58V8h-1.7V10z M56.3,12.8H58v-2.2h-1.7V12.8z"/>
<path class="st0" d="M80.6,10.6c0.8,0.7,1.2,1.1,1.2,1.3s-0.1,0.3-0.2,0.3H74v2.5h3.1c0.3-0.4,0.6-0.8,1-1.2
	c0.1-0.1,0.2-0.2,0.2-0.2c0.1,0,0.2,0.1,0.4,0.2c0.8,0.7,1.2,1.2,1.3,1.4c0,0.2-0.1,0.3-0.2,0.3H74v2.9h4.9c0.7-0.9,1.2-1.4,1.5-1.6
	c0,0,0.1,0,0.2,0c0.2,0.1,0.4,0.2,0.6,0.4c0.9,0.8,1.4,1.3,1.4,1.6c0,0.2-0.1,0.3-0.2,0.3H68.5c-2.5,0-4.1,0.1-4.7,0.2
	c-0.1-0.4-0.3-0.7-0.5-1.1c1,0.1,2.9,0.2,5.4,0.2H72v-2.9h-3.5c-0.9,0-1.6,0.1-2,0.1c-0.1-0.2-0.2-0.5-0.3-0.8
	c0.4,0.1,1.2,0.1,2.3,0.1H72v-2.5h-2.8c-2.3,0-3.7,0.1-4.2,0.3c-0.1-0.4-0.3-0.7-0.5-1.1c1,0.1,2.6,0.2,4.9,0.2h9.4
	c0.6-0.7,1-1.2,1.3-1.3c0,0,0.1,0,0.2,0C80.3,10.4,80.5,10.5,80.6,10.6z M74,1.3c0,0.1-0.2,0.2-0.5,0.2S73,1.6,72.9,1.6
	c-0.4,0.5-0.9,1-1.6,1.4h6.3c0.5-0.7,0.9-1.1,1.1-1.1s0.5,0.2,1.1,0.6c0.5,0.4,0.8,0.7,0.8,0.8s-0.1,0.3-0.4,0.4
	c-0.4,0.2-0.6,0.4-0.6,0.5v3c0.1,1.2,0.1,1.9,0.1,2.2c0,0.5-0.4,0.7-1.1,0.7c-0.5,0-0.8-0.1-0.9-0.4V9.3H68v0.5
	c-0.1,0.4-0.5,0.6-1.2,0.6c-0.4,0-0.7-0.1-0.8-0.2c0-1.3,0-2.5,0.1-3.7V4.1c0-1-0.1-1.6-0.1-1.8L67.8,3h2.9c0.3-0.8,0.4-1.7,0.5-2.6
	C73.1,0.8,74,1.1,74,1.3z M77.8,3.6h-9.7v2.3h9.7V3.6z M68.1,8.9h9.7V6.5h-9.7V8.9z"/>
<path class="st0" d="M94.3,2h12.8c0.5-0.8,0.9-1.2,1.1-1.3h0.1c0.2,0.1,0.4,0.3,0.8,0.6c0.5,0.5,0.8,0.8,0.9,1
	c0,0.2-0.1,0.3-0.1,0.4H94.3v15.2h13c0.6-0.8,1-1.3,1.2-1.5h0.1c0.2,0,0.5,0.3,0.9,0.7c0.6,0.5,0.9,0.9,0.9,1.1s0,0.3-0.1,0.4h-16
	V19c-0.1,0.4-0.5,0.6-1.2,0.6c-0.4,0-0.7-0.1-0.8-0.2c0-2.9,0-5.7,0.1-8.5V5.4c0-2.4-0.1-3.8-0.1-4.2L94.3,2z M97.8,8.6
	c0,0.3,0,0.5-0.1,0.6c-0.1,0.3-0.4,0.5-0.7,0.5c-0.2,0-0.5-0.3-0.9-0.8c-0.3-0.5-0.8-1-1.2-1.3C95,7.6,95,7.5,95,7.4
	C96.8,7.5,97.7,7.9,97.8,8.6z M99.8,6.6c-0.3,1.1-0.8,2.5-1.3,4.3c-0.5,1.7-0.8,2.8-0.8,3c0,0.4,0.1,0.8,0.2,1.3
	c0.2,0.5,0.3,0.8,0.3,1.1c0,0.6-0.3,0.9-1,0.9c-0.8,0-1.2-0.4-1.2-1.1c0-0.2,0.1-0.7,0.2-1.5c0-0.6-0.1-0.9-0.4-1.1
	c-0.2-0.1-0.4-0.3-0.8-0.4c0-0.1,0-0.2,0-0.3c0.1,0,0.2,0,0.3,0c0.7,0,1.2-0.3,1.5-0.9l2.6-5.4C99.5,6.5,99.6,6.5,99.8,6.6z
	 M98.9,5.3c0,0.3,0,0.5-0.1,0.6c-0.1,0.3-0.4,0.5-0.7,0.5c-0.2,0-0.5-0.3-0.9-0.8c-0.4-0.6-0.8-1-1.4-1.4c0.1,0,0.1-0.1,0.1-0.2
	C97.8,4.1,98.8,4.5,98.9,5.3z M104.1,3.9c0,0.2-0.3,0.3-1,0.4c-0.3,0.8-0.6,1.4-0.9,2.1h4.9c0.5-0.7,0.8-1.1,1-1.2h0.1
	c0.1,0.1,0.4,0.3,0.8,0.6c0.5,0.5,0.7,0.8,0.8,0.9c0,0.2-0.1,0.3-0.1,0.4h-3.8v2h0.8c0.5-0.6,0.8-1,1-1.1h0.1c0.1,0,0.4,0.2,0.7,0.5
	c0.4,0.4,0.7,0.7,0.7,0.8c0,0.2-0.1,0.3-0.1,0.4h-3.2V12h0.8c0.5-0.7,0.8-1.1,1-1.2h0.1c0.1,0,0.4,0.2,0.8,0.6
	c0.5,0.5,0.8,0.8,0.8,0.9c0,0.2-0.1,0.3-0.1,0.4h-3.4V15h1.3c0.5-0.7,0.8-1.1,1-1.2h0.1c0.1,0,0.4,0.2,0.8,0.5
	c0.5,0.5,0.7,0.8,0.8,0.9c0,0.2-0.1,0.3-0.1,0.3h-7.6c0,0.3,0,0.7,0,1.2c0,0.3-0.3,0.4-1,0.5c-0.5,0-0.8,0-0.8-0.2c0-0.3,0-1,0-2.1
	V8.8c-0.5,0.5-0.9,0.9-1.4,1.3c-0.1-0.1-0.1-0.2-0.1-0.2c1.2-1.7,2-4,2.5-6.9C103.3,3.3,104.1,3.6,104.1,3.9z M104.4,6.9h-2.2v2h2.2
	V6.9z M104.4,9.5h-2.2v2.3h2.2V9.5z M104.4,12.4h-2.2V15h2.2V12.4z M105.5,3.6c0.7,0.4,1.1,0.9,1.1,1.5c0,0.4-0.1,0.7-0.4,0.9
	c-0.1,0.1-0.3,0.2-0.6,0.2c-0.3,0-0.5-0.3-0.7-0.9c-0.1-0.5-0.3-0.9-0.4-1.2c-0.1-0.2-0.3-0.5-0.6-0.8c0,0,0.1-0.1,0.2-0.2
	C104.7,3.2,105.2,3.4,105.5,3.6z"/>
<path class="st0" d="M113,19c-0.1-0.1-0.2-0.3-0.4-0.4c2.4-1.6,3.5-3.8,3.5-6.6c1.8,0.3,2.6,0.6,2.6,0.8c0,0.1-0.3,0.3-0.9,0.5
	c0,0.3-0.1,0.5-0.1,0.7c1.9,1.1,2.9,2.1,2.9,3c0,0.6-0.2,0.9-0.5,1.1c-0.1,0.1-0.3,0.1-0.6,0.1s-0.5-0.4-0.7-1.1
	c-0.4-1-0.8-1.9-1.3-2.6C117,16.4,115.4,17.9,113,19z M122.4,0.7c0.7,0.7,1.2,1.1,1.2,1.3s-0.1,0.3-0.1,0.3h-1.6V7
	c0,0.8,0.1,1.7,0.1,2.8c0,0.3-0.3,0.4-1,0.4c-0.5,0-0.8-0.1-0.8-0.3c0-0.4,0.1-1.1,0.1-2.1c-1.3,0.6-3.2,1.2-5.7,1.8
	c-0.1,0.6-0.2,0.8-0.4,0.8c-0.1,0-0.3-0.3-0.4-0.8c-0.2-0.5-0.4-1.1-0.6-1.9c0.4,0.1,1,0.1,1.8,0.1V2.1c-0.6,0-1.2,0.1-1.5,0.2
	c-0.1-0.2-0.2-0.5-0.3-0.8c0.4,0.1,1.2,0.1,2.3,0.1h5.5c0.3-0.4,0.6-0.8,0.9-1.1c0.1-0.1,0.2-0.1,0.2-0.1
	C122.1,0.5,122.2,0.5,122.4,0.7z M114.1,11.8c0-0.1,0-0.2,0-0.3c6-0.6,10.6-1.4,13.7-2.4c1.3,0.9,2,1.4,2,1.6c0,0.1-0.1,0.2-0.3,0.2
	c-0.4,0-0.8-0.1-1.1-0.1c-1.3,0.3-3,0.5-5.2,0.7v4.7c0,0.8,0.1,1.8,0.1,3c0,0.3-0.4,0.4-1.1,0.5c-0.6,0-0.9-0.1-0.9-0.3
	c0-0.6,0.1-1.7,0.1-3.3v-4.5C119.2,11.7,116.8,11.8,114.1,11.8z M120.2,3.6V2.2h-3.5v1.4H120.2z M120.2,5.7V4.2h-3.5v1.5H120.2z
	 M120.2,7.4V6.2h-3.5v1.6C118.2,7.7,119.4,7.6,120.2,7.4z M122.9,3.3c-0.1-0.3-0.2-0.6-0.3-0.9c0.7,0.1,1.6,0.2,2.8,0.2h2.8
	c0.6-0.6,1-0.9,1.2-0.9c0.3,0.1,0.6,0.4,1.1,0.8c0.4,0.3,0.6,0.6,0.6,0.7c0,0.2-0.2,0.3-0.4,0.4c-0.4,0.1-0.6,0.3-0.6,0.3
	c-0.5,1-1.2,1.9-2.1,2.6c1.1,0.5,2.3,0.8,3.6,1c0,0.1,0,0.3,0,0.4c-0.2,0-0.4,0.1-0.6,0.2c-0.2,0.1-0.4,0.4-0.5,0.8
	c-0.1,0.3-0.2,0.4-0.3,0.4c-0.9-0.2-1.9-0.7-3.2-1.7c-0.1,0-0.1-0.1-0.2-0.1c-1.1,0.7-2.3,1.3-3.7,1.8c0,0-0.1-0.1-0.2-0.2
	c1.2-0.7,2.2-1.4,3.1-2.3c-0.8-0.9-1.5-2.1-2-3.6C123.5,3.2,123.2,3.2,122.9,3.3z M123.7,18.8c-0.1-0.1-0.3-0.3-0.4-0.4
	c1.9-1.6,2.8-3.8,2.8-6.5c1.9,0.3,2.9,0.6,2.9,0.8c0,0.1-0.3,0.3-1,0.5c0,0.4-0.1,0.8-0.2,1.1c2.1,1.1,3.2,2.1,3.2,3
	c0,0.6-0.2,1-0.5,1.1c-0.1,0.1-0.3,0.1-0.6,0.1s-0.6-0.4-0.8-1.1c-0.4-1.1-0.9-1.9-1.5-2.6C127,16.4,125.7,17.7,123.7,18.8z
	 M128.3,3.1h-2.9c-0.4,0-0.7,0-1,0c0.8,1.4,1.6,2.3,2.4,2.7C127.5,4.9,128,4,128.3,3.1z"/>
<path class="st0" d="M141.1,1.2c0.6,0.1,0.9,0.3,0.9,0.4s-0.1,0.2-0.4,0.3C141.2,2,141,2.2,141,2.2v11.2c0,2.4,0.1,4.1,0.1,5
	c0,0.4-0.5,0.5-1.4,0.5c-0.5,0-0.7-0.1-0.7-0.4c0-0.6,0-1.6,0.1-3.1c-0.9,0.7-1.9,1.4-3,2c-0.1,0.2-0.2,0.5-0.3,1
	c0,0.2-0.1,0.4-0.3,0.4c-0.3,0-0.6-0.6-1.2-1.8c-0.2-0.6-0.4-1.2-0.7-1.5c1.7-0.2,3.5-0.5,5.4-1V7.9h-1.3c-1.4,0-2.5,0.1-3.3,0.2
	c-0.2-0.3-0.3-0.7-0.3-0.9c0.4,0.1,1.7,0.1,3.8,0.1h1.1V3c0-0.7-0.1-1.3-0.2-2C139.6,0.9,140.3,1,141.1,1.2z M152,6.4
	c0,0.2-0.1,0.3-0.3,0.3c-0.3,0-0.7,0-1-0.1c-1.2,1-2.7,1.9-4.5,2.6v6.9c0.1,0.5,0.6,0.8,1.4,0.8h1.6c0.5,0,0.8-0.6,1-1.7
	c0.3-1.3,0.4-2.1,0.4-2.5c0.1,0,0.2,0,0.4,0c0,0,0.1,1,0.1,3c0,0.3,0.2,0.6,0.5,0.8c0.5,0.3,0.8,0.5,0.8,0.8c0,0.5-0.4,0.9-1.2,1.1
	c-0.6,0.1-1.5,0.2-2.6,0.2c-1.2,0-2,0-2.4-0.1c-1.3-0.1-1.9-0.8-1.9-2.2V2.8c0-0.7,0-1.3-0.1-2c2.1,0.3,3.1,0.6,3.1,0.9
	c0,0.1-0.1,0.2-0.3,0.3c-0.4,0.1-0.7,0.3-0.8,0.4v6.1c1.5-1.1,2.6-2.5,3.4-4C151.2,5.7,152,6.3,152,6.4z"/>
<path class="st0" d="M162.1,1.2c0.6,0.1,0.9,0.3,0.9,0.4s-0.1,0.2-0.4,0.3C162.2,2,162,2.2,162,2.2v11.2c0,2.4,0.1,4.1,0.1,5
	c0,0.4-0.5,0.5-1.4,0.5c-0.5,0-0.7-0.1-0.7-0.4c0-0.6,0-1.6,0.1-3.1c-0.9,0.7-1.9,1.4-3,2c-0.1,0.2-0.2,0.5-0.3,1
	c0,0.2-0.1,0.4-0.3,0.4c-0.3,0-0.6-0.6-1.2-1.8c-0.2-0.6-0.4-1.2-0.7-1.5c1.7-0.2,3.5-0.5,5.4-1V7.9h-1.3c-1.4,0-2.5,0.1-3.3,0.2
	c-0.2-0.3-0.3-0.7-0.3-0.9c0.4,0.1,1.7,0.1,3.8,0.1h1.1V3c0-0.7-0.1-1.3-0.2-2C160.6,0.9,161.3,1,162.1,1.2z M173,6.4
	c0,0.2-0.1,0.3-0.3,0.3c-0.3,0-0.7,0-1-0.1c-1.2,1-2.7,1.9-4.5,2.6v6.9c0.1,0.5,0.6,0.8,1.4,0.8h1.6c0.5,0,0.8-0.6,1-1.7
	c0.3-1.3,0.4-2.1,0.4-2.5c0.1,0,0.2,0,0.4,0c0,0,0.1,1,0.1,3c0,0.3,0.2,0.6,0.5,0.8c0.5,0.3,0.8,0.5,0.8,0.8c0,0.5-0.4,0.9-1.2,1.1
	c-0.6,0.1-1.5,0.2-2.6,0.2c-1.2,0-2,0-2.4-0.1c-1.3-0.1-1.9-0.8-1.9-2.2V2.8c0-0.7,0-1.3-0.1-2c2.1,0.3,3.1,0.6,3.1,0.9
	c0,0.1-0.1,0.2-0.3,0.3c-0.4,0.1-0.7,0.3-0.8,0.4v6.1c1.5-1.1,2.6-2.5,3.4-4C172.2,5.7,173,6.3,173,6.4z"/>
<path class="st0" d="M175.8,6.2c-0.1-0.3-0.3-0.6-0.4-1.1c0.3,0.1,1.4,0.2,3.2,0.3v-3c0-0.6-0.1-1.2-0.2-1.9
	c0.7,0.1,1.3,0.2,2.1,0.3c0.5,0.1,0.8,0.2,0.8,0.4c0,0.1-0.1,0.2-0.4,0.3c-0.4,0.1-0.5,0.2-0.5,0.3v3.6h0.3c0.5-0.8,0.8-1.3,1-1.3
	c0.1,0,0.3,0.2,0.7,0.7c0.3,0.4,0.5,0.7,0.6,0.9c0,0.2-0.1,0.3-0.3,0.3h-2.3v1.2c1.7,0.8,2.6,1.6,2.6,2.4c0,0.4-0.1,0.7-0.4,0.8
	c-0.2,0.1-0.4,0.2-0.6,0.2c-0.4,0-0.7-0.4-0.8-1.2c-0.2-0.7-0.5-1.3-0.9-1.7v6.9c0,2.2,0,3.7,0.1,4.7c0,0.3-0.4,0.5-1.3,0.5
	c-0.5,0-0.7-0.1-0.7-0.4c0-0.8,0.1-2.4,0.1-4.9V10c-0.9,2-1.8,3.5-2.9,4.6c-0.1,0-0.2-0.1-0.3-0.2c1.5-2.5,2.5-5.2,2.9-8.4
	C176.7,6.1,175.8,6.2,175.8,6.2z M188.4,1.5c0,0.1-0.1,0.2-0.3,0.3c-0.4,0.2-0.7,0.3-0.7,0.4v6.9c0,5.6-1.8,9.1-5.5,10.5
	c-0.1-0.1-0.1-0.2-0.2-0.3c1.4-1.2,2.4-2.6,2.9-4.1c0.4-0.9,0.7-2.3,0.9-4.3c-0.5,0.6-1.1,1.2-1.7,1.8c0,0.1-0.1,0.4-0.1,0.9
	c0,0.1-0.1,0.2-0.2,0.2c-0.2,0-0.8-0.8-1.6-2.3c0.5,0,1.7-0.5,3.7-1.5c0-0.7,0.1-1.5,0.1-2.4V2.8c0-0.9-0.1-1.6-0.2-2.2
	C187.4,1,188.3,1.3,188.4,1.5z M185.1,7.2c0,0.7-0.3,1-0.8,1s-0.7-0.3-0.7-0.8c0-0.3-0.1-0.7-0.1-1.2c-0.1-0.5-0.2-1-0.4-1.6
	c-0.2-0.5-0.3-0.8-0.4-1c0.1-0.1,0.2-0.2,0.3-0.2C184.4,4.7,185.1,5.9,185.1,7.2z M191.5,1.6c0,0.1-0.1,0.2-0.3,0.3
	c-0.4,0.1-0.6,0.3-0.7,0.4v4.9c0.8-1.1,1.4-2.4,1.7-3.7c0.3,0.2,0.9,0.5,1.7,1c0.4,0.3,0.6,0.5,0.6,0.6s-0.1,0.2-0.3,0.2
	c-0.4,0-0.7,0.1-0.8,0.1c-0.4,0.5-0.8,1-1.3,1.4s-1,0.8-1.5,1v1.9c0.9,0.2,1.7,0.5,2.3,0.8c0.9,0.5,1.4,1,1.4,1.5s-0.1,0.8-0.2,0.9
	c-0.1,0.3-0.4,0.4-0.7,0.4c-0.2,0-0.5-0.4-0.9-1.1c-0.6-0.9-1.2-1.6-1.8-2v6.6c0,0.5,0.2,0.7,0.6,0.7h0.6c0.6,0,1-0.4,1.2-1.3
	c0.3-1,0.5-1.6,0.5-1.9c0.1,0,0.2,0,0.3,0c0,0,0,0.8,0,2.3c0,0.3,0.1,0.5,0.3,0.6c0.3,0.2,0.5,0.4,0.5,0.6c0,0.5-0.4,0.8-1.1,1
	c-0.4,0.1-0.9,0.2-1.6,0.2c-0.8,0-1.2,0-1.4-0.1c-1.2-0.1-1.8-0.8-1.8-2V2.6c0-0.6,0-1.2-0.1-1.8C190.5,1.1,191.5,1.4,191.5,1.6z"/>
<path class="st0" d="M0.5,47.1c0-0.7,0.4-1.2,0.9-1.2c0.9,0,1.1,1.1,1.1,1.2c0.1,0.3,0.6,1.1,2.6,1.1c2.6,0,4.1-1.9,4.1-3.8
	c0-2.8-1.8-4.5-4-5c-0.5-0.1-0.5,0-0.5-0.4c0-0.3,0.1-0.3,0.3-0.4c1.8-0.3,3.6-1.8,3.6-4c0-1.8-1.1-3.1-2.9-3.1
	c-2.1,0-3.1,1.5-3.7,3.1c-0.1,0.2-0.2,0.3-0.3,0.3l-0.5-0.1c-0.1,0-0.1-0.2,0-0.4c0.4-1.9,2.1-4.5,5.3-4.5c3.1,0,4.1,2.2,4.1,3.7
	c0,2.4-1.7,3.9-3.1,4.8c1.9,0.5,4.1,2.4,4.1,4.9c0,3.6-3.2,6.2-7,6.2C1.4,49.3,0.5,47.9,0.5,47.1z"/>
<path class="st0" d="M14.4,40.5c0-6.4,2.7-10.7,6.2-10.7c4.1,0,6,5.3,6,9.6c0,6.4-2.4,9.9-6,9.9C16.1,49.3,14.4,43.9,14.4,40.5z
	 M23.3,46.3c0.6-1.3,0.9-3.5,0.9-7.6s-1.4-8-3.8-8c-1.1,0-1.9,0.4-2.5,1.7c-1,2-1.1,5.2-1.1,7.6c0,2.7,0.3,4.6,1,5.9
	c0.9,1.8,1.9,2.4,2.9,2.4C21.5,48.3,22.6,48,23.3,46.3z"/>
<path class="st0" d="M37,32c0,0.2-0.5,0.3-1.4,0.5c-0.8,1.4-1.7,2.8-2.7,4c-1.2,1.5-2.5,2.7-4.1,3.7c0,0-0.1-0.1-0.2-0.3
	c2.9-3.1,4.7-6.2,5.4-9.2C35.9,31.3,37,31.7,37,32z M31.8,39.2c-0.1-0.3-0.2-0.7-0.4-1c0.8,0.2,2.1,0.3,3.8,0.3h6.3
	c0.5-0.6,0.9-0.9,1.2-0.9c1.1,0.7,1.7,1.2,1.7,1.6c0,0.1-0.1,0.3-0.4,0.4c-0.3,0.2-0.5,0.3-0.5,0.5c-0.2,3.6-0.6,5.9-1.1,6.9
	c-0.6,1.1-1.5,1.7-2.8,1.7c-0.2,0-0.3-0.2-0.4-0.7c-0.1-0.4-0.4-0.8-0.9-1c-0.4-0.3-0.9-0.5-1.6-0.8c0.1-0.1,0.1-0.3,0.1-0.4
	c0.8,0.2,1.7,0.3,2.6,0.3c0.8,0,1.2-0.3,1.4-0.8c0.4-0.9,0.7-3,0.8-6.2H37c0,0.8-0.1,1.2-0.1,1.2c-0.6,4.5-3.3,7.4-8,8.7
	c-0.1,0-0.1-0.1-0.2-0.1c3.5-1.8,5.6-4.7,6.2-9c0-0.2,0-0.4,0-0.8C33.4,39,32.4,39,31.8,39.2z M42.3,31.2c0,0.2-0.2,0.3-0.7,0.4
	c-0.3,0.1-0.5,0.1-0.5,0.3c0,0.7,0.5,1.6,1.6,2.7c1.5,1.5,3.1,2.4,4.9,2.9c0,0.2,0,0.3-0.1,0.4c-0.4,0-0.8,0.1-0.9,0.4
	c-0.2,0.7-0.5,1-0.7,1c-0.7-0.1-1.6-0.7-2.6-2c-1.5-1.6-2.5-3.5-3-5.8H39c-0.8,0-1.3,0-1.6,0.1c-0.1-0.3-0.3-0.6-0.4-0.9
	c0.4,0.1,1,0.2,1.8,0.2h1.1c0.5-0.7,0.8-1,1-1C41.8,30.5,42.3,30.9,42.3,31.2z"/>
<path class="st0" d="M55,30.6c0,0.2-0.3,0.4-0.9,0.4c0,0.1-0.1,0.1-0.1,0.1c2.2,0.7,3.3,1.5,3.4,2.5c0,0.4-0.1,0.7-0.2,0.8
	c-0.1,0.1-0.3,0.2-0.5,0.2c-0.3,0-0.7-0.4-1.1-1.1c-0.5-0.7-1.1-1.4-1.8-2c-0.8,1.6-1.7,2.9-2.8,3.9c0.5,0.1,1.1,0.1,2,0.1h0.7
	c0.3-0.4,0.6-0.8,0.9-1.1c0.1-0.1,0.2-0.1,0.2-0.1c0.1,0,0.2,0.1,0.4,0.2c0.7,0.7,1.2,1.1,1.2,1.3s-0.1,0.3-0.2,0.3h-2.3v2.6h0.5
	c0.3-0.4,0.5-0.7,0.8-1c0.1-0.1,0.2-0.1,0.2-0.1c0.1,0,0.2,0.1,0.4,0.2c0.7,0.6,1.1,1,1.2,1.2c0,0.2-0.1,0.3-0.1,0.3H54v6.3
	c1.2-0.2,2.1-0.4,2.8-0.7c0.1,0.1,0.1,0.3,0.2,0.3c-1.2,0.8-3.2,1.6-6.1,2.5c-0.1,0.6-0.2,0.9-0.4,0.9c-0.1,0-0.3-0.3-0.5-0.8
	c-0.2-0.6-0.4-1.2-0.6-2.1c0.4,0.1,1,0.1,1.9,0.1c0.3,0,0.7,0,1-0.1v-6.6h-0.4c-0.9,0-1.5,0.1-2,0.1c-0.1-0.2-0.2-0.5-0.3-0.8
	c0.4,0.1,1.2,0.1,2.3,0.1h0.4V36c-0.5,0-1,0.1-1.3,0.1c-0.1-0.2-0.1-0.4-0.2-0.6c-0.4,0.4-0.8,0.7-1.3,1c-0.1-0.1-0.2-0.1-0.3-0.2
	c1.6-1.8,2.8-4,3.4-6.7C54.2,30.2,55,30.5,55,30.6z M51.7,43.6c0,0.7-0.3,1-1,1c-0.4,0-0.5-0.2-0.6-0.6c0-0.1,0-0.3,0.1-0.6
	c0-0.2,0.1-0.4,0.1-0.8c0-0.9-0.2-1.6-0.5-2.1l0.1-0.1C51.1,41.3,51.7,42.3,51.7,43.6z M56.9,40.8c0.4,0.1,0.5,0.3,0.6,0.3
	c0,0.1-0.1,0.2-0.3,0.2c-0.3,0.1-0.5,0.1-0.6,0.2c-0.3,1.2-1,2.1-2,2.8l-0.2-0.1c0.5-1.1,0.8-2.4,0.9-4C56,40.5,56.6,40.6,56.9,40.8
	z M59.4,37.7H65c0.5-0.5,0.8-0.8,1-0.8s0.5,0.2,1,0.6c0.5,0.4,0.7,0.6,0.7,0.8c0,0.1-0.1,0.2-0.3,0.4c-0.3,0.2-0.5,0.4-0.5,0.4v2.2
	C67,42.2,67,42.7,67,43c0,0.4-0.3,0.7-1,0.7c-0.5,0-0.8-0.1-0.8-0.4v-0.1h-2V45h1.7c0.5-0.5,0.8-0.9,1-1H66c0.1,0.1,0.3,0.2,0.4,0.3
	c0.7,0.6,1,0.9,1,1.1s-0.1,0.3-0.2,0.3h-4.1v2h2.1c0.6-0.7,1-1.1,1.3-1.3h0.1c0.1,0.1,0.3,0.2,0.5,0.3c0.8,0.7,1.2,1.1,1.2,1.3
	s-0.1,0.3-0.2,0.3h-9c-1.6,0-2.7,0.1-3.1,0.3c-0.1-0.4-0.3-0.7-0.5-1.1c0.6,0.1,1.7,0.2,3.3,0.2h2.3v-2h-1.2c-1.3,0-2.1,0.1-2.5,0.3
	c-0.1-0.4-0.3-0.7-0.5-1.1c0.5,0.1,1.4,0.2,2.7,0.2h1.5v-1.8h-1.8v0.4c-0.1,0.4-0.4,0.6-1.1,0.6c-0.4,0-0.6-0.1-0.7-0.2
	c0-1.1,0-2.1,0.1-3.1v-2.1c0-0.9-0.1-1.4-0.1-1.6L59.4,37.7z M66.6,33.9c0,0.1-0.3,0.3-0.9,0.5c-0.4,0.5-0.9,1-1.7,1.3h1.8
	c0.5-0.6,0.9-1,1.2-1.2h0.2c0.1,0.1,0.3,0.2,0.4,0.3c0.7,0.6,1.1,1,1.1,1.2s-0.1,0.3-0.2,0.3h-8.3c-1.5,0-2.5,0.1-2.8,0.2
	c-0.1-0.4-0.3-0.7-0.5-1.1c0.6,0.1,1.6,0.2,3.1,0.2h0.4c-0.1-0.2-0.3-0.4-0.4-0.8c-0.3-0.7-0.5-1.2-0.9-1.7c0.1,0,0.1-0.1,0.1-0.3
	c1.5,0.2,2.2,0.7,2.3,1.6c0,0.3,0,0.5-0.1,0.7s-0.2,0.3-0.3,0.4h2.1c0.6-1,0.9-1.9,1-2.9C65.8,33.4,66.6,33.8,66.6,33.9z M67,31.3
	c0.7,0.6,1.1,1,1.1,1.2s-0.1,0.3-0.2,0.3h-7.4c-1.3,0-2.2,0.1-2.5,0.3c-0.1-0.4-0.3-0.7-0.5-1.1c0.5,0.1,1.4,0.2,2.7,0.2h2.1
	c-0.2-0.1-0.4-0.4-0.6-0.7c-0.4-0.6-0.8-1.1-1.4-1.5c0.1,0,0.1-0.1,0.1-0.2c2,0.2,3,0.6,3.1,1.4c0,0.3,0,0.5-0.1,0.7
	c-0.1,0.2-0.2,0.3-0.3,0.4h2.2c0.5-0.6,0.9-1,1.2-1.2h0.1C66.7,31.1,66.8,31.2,67,31.3z M61.5,40.1v-1.9h-1.8v1.9H61.5z M61.5,42.6
	v-1.9h-1.8v1.9H61.5z M65.3,40.1v-1.9h-2v1.9H65.3z M65.3,42.6v-1.9h-2v1.9H65.3z"/>
<path class="st0" d="M79.4,43L79,42.6c0.8-0.7,1.2-1.3,1.2-2c0-0.1-0.1-0.2-0.3-0.2c-1-0.2-1.5-0.7-1.5-1.5c0-0.4,0.1-0.7,0.4-1
	s0.7-0.5,1.2-0.5s0.9,0.2,1.2,0.6c0.2,0.3,0.4,0.7,0.4,1.1C81.6,40.7,80.8,42,79.4,43z"/>
<path class="st0" d="M91.8,35.4c-0.1-0.3-0.3-0.6-0.4-1.1c0.3,0.1,1.4,0.2,3.2,0.3v-3c0-0.6-0.1-1.2-0.2-1.9
	c0.7,0.1,1.3,0.2,2.1,0.3c0.5,0.1,0.8,0.2,0.8,0.4c0,0.1-0.1,0.2-0.4,0.3c-0.4,0.1-0.5,0.2-0.5,0.3v3.6h0.3c0.5-0.8,0.8-1.3,1-1.3
	c0.1,0,0.3,0.2,0.7,0.7c0.3,0.4,0.5,0.7,0.6,0.9c0,0.2-0.1,0.3-0.3,0.3h-2.3v1.2c1.7,0.8,2.6,1.6,2.6,2.4c0,0.4-0.1,0.7-0.4,0.8
	c-0.2,0.1-0.4,0.2-0.6,0.2c-0.4,0-0.7-0.4-0.8-1.2c-0.2-0.7-0.5-1.3-0.9-1.7v6.9c0,2.2,0,3.7,0.1,4.7c0,0.3-0.4,0.5-1.3,0.5
	c-0.5,0-0.7-0.1-0.7-0.4c0-0.8,0.1-2.4,0.1-4.9v-4.5c-0.9,2-1.8,3.5-2.9,4.6c-0.1,0-0.2-0.1-0.3-0.2c1.5-2.5,2.5-5.2,2.9-8.4
	C92.7,35.3,91.8,35.4,91.8,35.4z M104.4,30.7c0,0.1-0.1,0.2-0.3,0.3c-0.4,0.2-0.7,0.3-0.7,0.4v6.9c0,5.6-1.8,9.1-5.5,10.5
	c-0.1-0.1-0.1-0.2-0.2-0.3c1.4-1.2,2.4-2.6,2.9-4.1c0.4-0.9,0.7-2.3,0.9-4.3c-0.5,0.6-1.1,1.2-1.7,1.8c0,0.1-0.1,0.4-0.1,0.9
	c0,0.1-0.1,0.2-0.2,0.2c-0.2,0-0.8-0.8-1.6-2.3c0.5,0,1.7-0.5,3.7-1.5c0-0.7,0.1-1.5,0.1-2.4V32c0-0.9-0.1-1.6-0.2-2.2
	C103.4,30.2,104.3,30.5,104.4,30.7z M101.1,36.4c0,0.7-0.3,1-0.8,1s-0.7-0.3-0.7-0.8c0-0.3-0.1-0.7-0.1-1.2c-0.1-0.5-0.2-1-0.4-1.6
	c-0.2-0.5-0.3-0.8-0.4-1c0.1-0.1,0.2-0.2,0.3-0.2C100.4,33.9,101.1,35.1,101.1,36.4z M107.5,30.8c0,0.1-0.1,0.2-0.3,0.3
	c-0.4,0.1-0.6,0.3-0.7,0.4v4.9c0.8-1.1,1.4-2.4,1.7-3.7c0.3,0.2,0.9,0.5,1.7,1c0.4,0.3,0.6,0.5,0.6,0.6s-0.1,0.2-0.3,0.2
	c-0.4,0-0.7,0.1-0.8,0.1c-0.4,0.5-0.8,1-1.3,1.4s-1,0.8-1.5,1v1.9c0.9,0.2,1.7,0.5,2.3,0.8c0.9,0.5,1.4,1,1.4,1.5s-0.1,0.8-0.2,0.9
	c-0.1,0.3-0.4,0.4-0.7,0.4c-0.2,0-0.5-0.4-0.9-1.1c-0.6-0.9-1.2-1.6-1.8-2V46c0,0.5,0.2,0.7,0.6,0.7h0.6c0.6,0,1-0.4,1.2-1.3
	c0.3-1,0.5-1.6,0.5-1.9c0.1,0,0.2,0,0.3,0c0,0,0,0.8,0,2.3c0,0.3,0.1,0.5,0.3,0.6c0.3,0.2,0.5,0.4,0.5,0.6c0,0.5-0.4,0.8-1.1,1
	c-0.4,0.1-0.9,0.2-1.6,0.2c-0.8,0-1.2,0-1.4-0.1c-1.2-0.1-1.8-0.8-1.8-2V31.8c0-0.6,0-1.2-0.1-1.8C106.5,30.3,107.5,30.6,107.5,30.8
	z"/>
<path class="st0" d="M112.8,35.3c-0.1-0.3-0.3-0.6-0.4-1.1c0.3,0.1,1.2,0.2,2.7,0.3v-3.1c0-0.6-0.1-1.2-0.2-1.7
	c0.6,0.1,1.2,0.2,1.9,0.3c0.5,0.1,0.7,0.2,0.7,0.4c0,0.1-0.1,0.2-0.3,0.2c-0.3,0.1-0.5,0.2-0.5,0.3v3.6c0.4-0.8,0.7-1.2,0.9-1.2
	c0.1,0,0.3,0.2,0.6,0.7c0.3,0.4,0.4,0.7,0.5,0.9c0,0.2-0.1,0.3-0.2,0.3h-1.7v1.6c1.3,0.9,1.9,1.8,1.9,2.6c0,0.3-0.1,0.5-0.2,0.5
	c-0.1,0.1-0.2,0.1-0.4,0.1c-0.4,0-0.7-0.4-0.9-1.3c-0.1-0.5-0.3-0.9-0.5-1.2v6.7c0,2,0.1,3.5,0.1,4.3c0,0.3-0.4,0.5-1.2,0.5
	c-0.4,0-0.6-0.1-0.6-0.4c0-0.7,0-2.2,0.1-4.5v-4.5c-0.7,2-1.5,3.5-2.4,4.6c-0.1,0-0.2-0.1-0.3-0.3c1.2-2.6,2-5.5,2.5-8.8
	C113.5,35.2,112.8,35.3,112.8,35.3z M130.8,40.1c0.4,0.4,0.7,0.7,0.7,0.8c0,0.2-0.1,0.3-0.2,0.3h-5c0.1,0.4,0.2,0.8,0.3,1.1
	c0.2,0.5,0.4,0.9,0.6,1.3c0.5-0.6,0.9-1.3,1.3-2c1.3,0.8,2,1.3,2,1.6c0,0.1-0.1,0.1-0.3,0.1c-0.5,0-0.7,0-0.8,0
	c-0.4,0.6-0.9,1.1-1.4,1.6c0.5,0.7,1.1,1.2,1.7,1.4c0.4,0,0.8-0.9,1.2-2.6c0.1,0,0.2,0.1,0.3,0.1c-0.1,0.5-0.1,1.4-0.2,2.7
	c0,0.4,0.1,0.7,0.4,0.9c0.2,0.2,0.3,0.4,0.3,0.7s-0.4,0.5-1.2,0.5c-1.6-0.2-2.8-1.1-3.8-2.6c-0.2,0.1-0.4,0.3-0.6,0.4
	c-1.7,1-3.6,1.8-5.6,2.2c-0.1-0.1-0.1-0.2-0.2-0.3c1.8-0.7,3.4-1.5,4.8-2.6c0.4-0.3,0.7-0.5,1-0.8c-0.1-0.2-0.2-0.4-0.3-0.7
	c-0.4-0.8-0.7-1.8-1-2.9H122c0,0.5-0.1,0.8-0.1,1.1c0.4,0.1,0.8,0.3,1.1,0.5c0.9,0.5,1.4,1.1,1.4,1.8c0,0.3-0.1,0.5-0.3,0.6
	c-0.1,0.1-0.2,0.1-0.4,0.1c-0.6,0-1-0.4-1.3-1.1c-0.2-0.5-0.4-0.9-0.7-1.2c-0.5,2.4-1.9,4.2-4.1,5.5c0-0.1-0.1-0.1-0.1-0.2
	c1.8-1.9,2.8-4.2,2.8-7.1c-1.3,0-2,0.1-2,0.2c-0.1-0.3-0.3-0.6-0.4-1.1c0.3,0.1,1,0.2,2.4,0.3c0-1,0-1.7-0.1-2
	c1.7,0.2,2.6,0.4,2.6,0.7c0,0.2-0.3,0.3-0.8,0.3c0,0.4,0,0.7,0,1h2.6c-0.4-2.2-0.7-4.9-0.7-8.1c0-0.6-0.1-1.2-0.1-1.9
	c0-0.5,0-0.9-0.1-1.1c1.8,0.3,2.6,0.6,2.6,0.8c0,0.2-0.3,0.4-0.9,0.6c0,4.2,0.3,7.5,0.7,9.6h2.7c0.6-0.7,1-1.1,1.2-1.1
	S130.4,39.7,130.8,40.1z M122.6,31.2c0,0.1-0.3,0.3-1,0.3c-0.4,0.9-0.9,1.7-1.6,2.5c0.4,0,0.9,0.1,1.4,0.1c0.2-0.5,0.3-0.9,0.4-1.4
	c1.2,0.5,1.8,0.8,1.8,0.9c0,0.1-0.3,0.2-0.7,0.3c-0.5,1.1-1.4,2.2-2.6,3.3c0.7,0,1.4,0,2.2,0c-0.1-0.4-0.3-0.8-0.4-1.1
	c0,0,0.1-0.1,0.2-0.1c1,0.7,1.6,1.4,1.6,2c0,0.3-0.1,0.6-0.3,0.7c-0.1,0.1-0.3,0.2-0.5,0.2s-0.3-0.3-0.4-1v-0.1
	c-0.7,0.4-1.8,0.7-3.1,1c-0.1,0.3-0.1,0.4-0.2,0.4c0,0.1-0.1,0.1-0.1,0.1c-0.1,0-0.3-0.7-0.6-2c0.3,0,0.7,0,1.1,0
	c0.5-0.8,1-1.6,1.4-2.4c-0.5,0.2-1,0.4-1.6,0.6c-0.1,0.3-0.1,0.4-0.2,0.4c0,0.1-0.1,0.1-0.1,0.1c-0.1,0-0.3-0.7-0.6-2
	c0.3,0,0.6,0.1,0.9,0.1c0.5-1.4,0.8-2.6,0.8-3.7C121.9,30.6,122.6,30.9,122.6,31.2z M129.7,30.8c0,0.1-0.3,0.2-1,0.3
	c-0.4,0.9-0.9,1.8-1.7,2.6c0.5,0,1.1,0,1.6,0c0.2-0.5,0.4-0.9,0.5-1.4c1.3,0.5,2,0.8,2,1c0,0.1-0.3,0.2-0.8,0.3
	c-0.6,1-1.5,2.1-2.8,3.3c0.7,0,1.4,0,2.2,0c-0.1-0.4-0.3-0.8-0.5-1c0,0,0.1-0.1,0.2-0.2c1.2,0.7,1.8,1.4,1.8,2.1
	c0,0.4-0.1,0.6-0.3,0.8c-0.2,0.1-0.3,0.2-0.5,0.2s-0.4-0.3-0.5-1c0-0.1,0-0.2-0.1-0.3c-0.6,0.3-1.4,0.6-2.3,0.8
	c0.3,0.1,0.5,0.2,0.7,0.3c0.5,0.3,0.8,0.7,0.8,1c0,0.4-0.1,0.6-0.3,0.8c-0.1,0.1-0.3,0.1-0.5,0.1s-0.4-0.2-0.4-0.6
	c-0.1-0.4-0.2-0.7-0.3-0.8c-0.1-0.2-0.3-0.4-0.5-0.6c-0.1,0-0.3,0.1-0.4,0.1c-0.1,0.3-0.1,0.4-0.2,0.4l-0.1,0.1
	c-0.1,0-0.3-0.7-0.6-2h1c0.6-0.8,1.1-1.7,1.5-2.5c-0.5,0.2-1.1,0.4-1.9,0.7c-0.1,0.2-0.1,0.3-0.1,0.4l-0.1,0.1
	c-0.1,0-0.3-0.6-0.6-1.8c0.3,0,0.6,0,0.9,0c0.5-1.5,0.8-2.8,0.9-3.9C128.9,30.3,129.7,30.6,129.7,30.8z"/>
<path class="st0" d="M151.6,30.3c0.5,0.4,0.8,0.7,0.8,0.8s-0.1,0.2-0.3,0.4c-0.3,0.2-0.5,0.4-0.5,0.4v9.6c0,3.3,0.1,5.5,0.1,6.7
	c0,0.4-0.4,0.6-1.3,0.6c-0.4,0-0.5-0.1-0.5-0.4v-0.6h-13.6v0.6c-0.1,0.4-0.5,0.6-1.2,0.6c-0.4,0-0.7-0.1-0.8-0.2c0-3,0-5.9,0.1-8.7
	v-5.7c0-2.4-0.1-3.9-0.2-4.3l1.8,0.7h13.6c0.6-0.6,0.9-0.9,1.1-0.9C150.9,29.8,151.2,30,151.6,30.3z M149.8,47.2V31.3h-13.6v15.9
	C136.2,47.2,149.8,47.2,149.8,47.2z M148.3,33.8c0.7,0.6,1,0.9,1,1.1c0,0.2-0.1,0.3-0.2,0.3h-3.7v1c0.1,1.4,0.2,2.7,0.5,3.8
	c0.4-1,0.7-2.1,0.8-3.4c1.7,0.6,2.5,1,2.5,1.2c0,0.1-0.2,0.2-0.5,0.3l-0.5,0.1c-0.4,1.5-1,2.8-1.7,3.9c0.3,0.8,0.8,1.5,1.3,1.9
	c0.3,0,0.8-0.7,1.5-2c0.1,0.1,0.2,0.1,0.3,0.1c-0.4,0.8-0.7,1.7-0.9,2.5c0,0.3,0.1,0.6,0.2,0.8c0.2,0.3,0.3,0.6,0.3,0.8
	c0,0.3-0.2,0.4-0.6,0.4c-1,0-2-1-2.9-2.9c-0.1-0.1-0.2-0.3-0.3-0.4c-1.3,1.5-3,2.6-5,3.1c0,0,0-0.1-0.1-0.2c1.9-1.1,3.4-2.5,4.5-4.3
	c-0.7-1.8-1-4-1.1-6.8h-3.5c-1.6,0-2.6,0.1-3,0.3c-0.1-0.4-0.3-0.7-0.5-1.1c0.7,0.1,1.8,0.2,3.4,0.2h3.6v-0.6c0-0.8-0.1-1.6-0.2-2.5
	c1.7,0.3,2.6,0.6,2.6,0.8c0,0.1-0.1,0.2-0.2,0.2c-0.3,0.1-0.5,0.2-0.5,0.3c0,0.7,0,1.3,0,1.8h1.3c0.2-0.2,0.3-0.4,0.5-0.5h-0.1
	c-0.2,0-0.4-0.3-0.4-0.8c-0.1-0.4-0.2-0.8-0.3-1s-0.3-0.4-0.4-0.6l0.1-0.1c0.4,0.1,0.7,0.2,1,0.4c0.5,0.4,0.8,0.8,0.8,1.3
	c0,0.1,0,0.2,0,0.3h0.1C148,33.6,148.1,33.7,148.3,33.8z M143.4,42.8c-1,0.8-2.7,1.6-5.1,2.4c-0.1,0.6-0.2,0.8-0.4,0.8
	c-0.1,0-0.3-0.3-0.4-0.8c-0.2-0.5-0.4-1.1-0.6-1.9c0.4,0.1,1,0.1,1.8,0.1c2.1-0.2,3.6-0.5,4.5-1C143.3,42.6,143.3,42.7,143.4,42.8z
	 M138.9,37.1h1.8c0.4-0.6,0.7-0.9,0.9-0.9c0.1,0,0.4,0.2,0.9,0.5c0.4,0.3,0.6,0.5,0.6,0.7c0,0.1-0.1,0.2-0.2,0.3
	c-0.3,0.2-0.4,0.3-0.4,0.4v2c0,0.8,0.1,1.3,0.1,1.5c0,0.4-0.3,0.5-0.8,0.5c-0.4,0-0.7-0.1-0.7-0.3v-0.3h-1.9v0.4
	c-0.1,0.3-0.4,0.5-0.9,0.5c-0.3,0-0.5,0-0.6-0.2c0-0.9,0-1.8,0.1-2.6v-1.7c0-0.7-0.1-1.2-0.1-1.3L138.9,37.1z M141,40.9v-3.2h-1.9
	v3.2H141z"/>
<path class="st0" d="M157.8,31h3.3c0.5-0.5,0.8-0.8,1-0.8s0.5,0.2,1,0.6s0.7,0.6,0.7,0.8c0,0.1-0.1,0.2-0.3,0.4
	c-0.3,0.2-0.5,0.4-0.5,0.4v3.3c0.1,1.3,0.1,2.1,0.1,2.5s-0.4,0.7-1,0.7c-0.5,0-0.8-0.1-0.8-0.4v-0.9h-3.4v10.9
	c-0.1,0.4-0.5,0.6-1.1,0.6c-0.4,0-0.7-0.1-0.8-0.2c0-2.9,0-5.8,0.1-8.6v-5.6c0-2.4-0.1-3.8-0.2-4.3L157.8,31z M161.3,33.8v-2.3h-3.4
	v2.3H161.3z M161.3,36.9v-2.6h-3.4v2.6H161.3z M166.8,30.9h3.3c0.4-0.6,0.8-0.9,1-1.1c0.2,0,0.5,0.2,1.1,0.5
	c0.6,0.4,0.9,0.7,0.9,0.9c0,0.1-0.1,0.3-0.4,0.4c-0.3,0.2-0.4,0.3-0.5,0.4v14c0,1.4-0.8,2.2-2.5,2.5c-0.2,0-0.4-0.1-0.4-0.4
	c-0.2-0.5-0.7-1-1.2-1.2c-0.8-0.3-1.4-0.5-1.7-0.5c0,0,0-0.1,0-0.4c0.8,0.1,2,0.1,3.5,0.1c0.3,0,0.5-0.2,0.5-0.5v-8.3H167V38
	c-0.1,0.4-0.5,0.6-1.2,0.6c-0.4,0-0.7-0.1-0.8-0.2c0-1.3,0-2.6,0.1-3.8v-2.5c0-1-0.1-1.7-0.1-1.9L166.8,30.9z M170.4,31.5H167v2.3
	h3.4V31.5z M170.4,34.3H167v2.6h3.4V34.3z"/>
<path class="st0" d="M191.6,30.5c0.6,0.4,0.9,0.7,0.9,0.9c0,0.1-0.1,0.3-0.3,0.4c-0.3,0.3-0.5,0.4-0.5,0.5v3.6
	c0,1.2,0.1,2.1,0.1,2.5c0,0.5-0.5,0.7-1.4,0.7c-0.4,0-0.6-0.1-0.6-0.5v-0.5h-2.6c1,1.2,2.1,2.1,3.3,2.5c1.2,0.6,2.6,0.9,4.2,1
	c0,0.1,0,0.3,0,0.4c-0.1,0-0.3,0.1-0.5,0.4c-0.1,0.1-0.2,0.4-0.4,0.8c-0.1,0.3-0.2,0.4-0.4,0.4c-0.7,0-1.8-0.5-3.4-1.6
	c-0.1-0.1-0.2-0.1-0.3-0.2c0,0.2-0.1,0.3-0.4,0.4c-0.4,0.2-0.5,0.3-0.5,0.4v6c0,0.3-0.4,0.5-1.2,0.6c-0.5,0-0.7-0.1-0.7-0.4
	c0-1.9,0.1-4.1,0.1-6.6c-0.1-0.5-0.1-0.9-0.1-1.2c1.3,0.2,2.1,0.3,2.6,0.5c-1.1-0.9-2-2-2.6-3.4h-2.4c-0.2,0.3-0.4,0.6-0.7,0.9
	c-0.5,0.7-1.1,1.3-1.9,1.9c1.6,0.3,2.4,0.5,2.4,0.7s-0.3,0.3-1,0.4c0,1.1-0.1,2-0.4,2.5c-0.7,1.9-2.8,3.4-6.2,4.4
	c0-0.1-0.1-0.1-0.2-0.2c3.2-1.5,4.8-3.5,4.9-5.8c0-0.7,0-1.2,0-1.6c-1.4,0.9-3.2,1.7-5.4,2.3c-0.1,0-0.2-0.1-0.2-0.3
	c3.1-1.4,5.2-2.9,6.2-4.5c0.2-0.3,0.3-0.5,0.4-0.6H180v0.4c-0.1,0.4-0.5,0.6-1.2,0.6c-0.4,0-0.7-0.1-0.8-0.2c0-1.3,0-2.6,0.1-3.9
	v-2.6c0-1.1-0.1-1.7-0.2-2l1.6,0.6h9.9c0.6-0.7,1-1,1.2-1C190.9,30.1,191.2,30.2,191.6,30.5z M183.9,34.2v-2.6H180v2.6H183.9z
	 M183.9,37.5v-2.7H180v2.7H183.9z M189.9,34.2v-2.6h-4.1v2.6H189.9z M189.9,37.5v-2.7h-4.1v2.7H189.9z"/>
<g>
	<rect y="69.2" class="st1" width="13" height="0.8"/>
</g>
</svg>
