<svg width="312" height="83" viewBox="0 0 312 83" fill="none" xmlns="http://www.w3.org/2000/svg">
<path d="M12.46 1.46992C13.41 1.64992 13.9 1.88992 13.9 2.20992C13.9 2.44992 13.69 2.58992 13.27 2.66992C12.57 2.90992 12.26 3.08993 12.26 3.22993V21.8899C12.33 25.8799 12.36 28.6499 12.43 30.2599C12.43 30.8599 11.62 31.1699 10.08 31.1699C9.26999 31.1699 8.88999 30.9199 8.88999 30.4699C8.91999 29.4899 8.95999 27.7399 9.02999 25.2199C7.51999 26.4499 5.83999 27.5299 3.94999 28.4799C3.73999 28.8299 3.59999 29.3599 3.52999 30.1899C3.45999 30.5799 3.31999 30.7899 3.03999 30.7899C2.61999 30.7899 1.98999 29.7699 1.07999 27.7799C0.72999 26.7299 0.33999 25.8499 -0.0100098 25.2199C2.89999 24.9399 5.90999 24.3799 9.01999 23.4999V12.4399H6.87999C4.49999 12.4799 2.67999 12.5799 1.34999 12.7599C1.06999 12.1999 0.88999 11.6699 0.78999 11.2499C1.44999 11.3899 3.58999 11.4599 7.15999 11.4899H9.01999V4.27992C8.94999 3.15992 8.80999 2.03992 8.66999 0.919922C9.85999 1.05992 11.12 1.26993 12.45 1.47993L12.46 1.46992ZM30.66 10.1899C30.66 10.4699 30.49 10.6499 30.17 10.6799C29.65 10.6799 29.08 10.6399 28.45 10.5699C26.49 12.2499 24 13.6899 20.99 14.9099V26.4299C21.13 27.3099 21.94 27.7299 23.37 27.7299H26.03C26.8 27.7299 27.36 26.7499 27.64 24.8599C28.06 22.7199 28.27 21.3199 28.34 20.6199C28.48 20.6499 28.69 20.6499 28.93 20.6499C29 20.6499 29.04 22.3699 29.04 25.7299C29.04 26.2899 29.32 26.7499 29.92 27.0299C30.76 27.4899 31.18 27.9399 31.18 28.3899C31.18 29.2699 30.52 29.8999 29.22 30.2799C28.2 30.5199 26.77 30.6699 24.88 30.6699C22.81 30.6699 21.52 30.5999 20.96 30.4899C18.79 30.3199 17.74 29.1199 17.74 26.8799V4.22993C17.74 3.10993 17.67 2.01993 17.53 0.939926C21 1.49993 22.75 1.98993 22.75 2.40993C22.71 2.54993 22.54 2.71993 22.26 2.89993C21.56 3.14993 21.14 3.35992 21 3.52992V13.6799C23.56 11.7899 25.41 9.57992 26.6 7.02992C29.3 8.95992 30.66 10.0099 30.66 10.1799V10.1899Z" fill="white"/>
<path d="M47.46 1.46992C48.41 1.64992 48.9 1.88992 48.9 2.20992C48.9 2.44992 48.69 2.58992 48.27 2.66992C47.57 2.90992 47.26 3.08993 47.26 3.22993V21.8899C47.33 25.8799 47.36 28.6499 47.43 30.2599C47.43 30.8599 46.62 31.1699 45.08 31.1699C44.27 31.1699 43.89 30.9199 43.89 30.4699C43.92 29.4899 43.96 27.7399 44.03 25.2199C42.52 26.4499 40.84 27.5299 38.95 28.4799C38.74 28.8299 38.6 29.3599 38.53 30.1899C38.46 30.5799 38.32 30.7899 38.04 30.7899C37.62 30.7899 36.99 29.7699 36.08 27.7799C35.73 26.7299 35.34 25.8499 34.99 25.2199C37.9 24.9399 40.91 24.3799 44.02 23.4999V12.4399H41.88C39.5 12.4799 37.68 12.5799 36.35 12.7599C36.07 12.1999 35.89 11.6699 35.79 11.2499C36.45 11.3899 38.59 11.4599 42.16 11.4899H44.02V4.27992C43.95 3.15992 43.81 2.03992 43.67 0.919922C44.86 1.05992 46.12 1.26993 47.45 1.47993L47.46 1.46992ZM65.66 10.1899C65.66 10.4699 65.49 10.6499 65.17 10.6799C64.65 10.6799 64.08 10.6399 63.45 10.5699C61.49 12.2499 59 13.6899 55.99 14.9099V26.4299C56.13 27.3099 56.94 27.7299 58.37 27.7299H61.03C61.8 27.7299 62.36 26.7499 62.64 24.8599C63.06 22.7199 63.27 21.3199 63.34 20.6199C63.48 20.6499 63.69 20.6499 63.93 20.6499C64 20.6499 64.04 22.3699 64.04 25.7299C64.04 26.2899 64.32 26.7499 64.92 27.0299C65.76 27.4899 66.18 27.9399 66.18 28.3899C66.18 29.2699 65.52 29.8999 64.22 30.2799C63.2 30.5199 61.77 30.6699 59.88 30.6699C57.81 30.6699 56.52 30.5999 55.96 30.4899C53.79 30.3199 52.74 29.1199 52.74 26.8799V4.22993C52.74 3.10993 52.67 2.01993 52.53 0.939926C56 1.49993 57.75 1.98993 57.75 2.40993C57.71 2.54993 57.54 2.71993 57.26 2.89993C56.56 3.14993 56.14 3.35992 56 3.52992V13.6799C58.56 11.7899 60.41 9.57992 61.6 7.02992C64.3 8.95992 65.66 10.0099 65.66 10.1799V10.1899Z" fill="white"/>
<path d="M82.3199 1.67982C82.3199 1.95982 82.1099 2.16982 81.7199 2.23982C81.0199 2.51982 80.6699 2.76983 80.6699 2.97983V4.90983H90.1199V4.06982C90.1199 2.52982 90.0499 1.26982 89.9099 0.319824C93.1999 0.809824 94.8499 1.22983 94.8499 1.61983C94.8499 1.89983 94.6399 2.10982 94.2499 2.17982C93.5499 2.45982 93.1999 2.70982 93.1999 2.91982V4.91982H94.7399C95.9299 3.40982 96.6999 2.63983 97.0499 2.60983C97.3299 2.60983 97.8599 3.02982 98.6999 3.83982C99.5099 4.60982 99.9599 5.13982 100.07 5.41982C100.07 5.76982 99.9299 5.97983 99.6799 5.97983H93.1999V16.5898H95.7599C96.8099 15.2998 97.5499 14.4898 98.0399 14.1798C98.1099 14.1798 98.2199 14.2098 98.3599 14.2098C98.5999 14.3498 98.8899 14.5598 99.1999 14.7698C100.67 16.0298 101.44 16.8398 101.44 17.1898C101.44 17.5398 101.3 17.6798 101.05 17.6798H90.6199C92.0899 19.2198 93.6299 20.3398 95.2399 20.9698C97.0299 21.8098 99.0899 22.2298 101.44 22.2998C101.44 22.5398 101.4 22.7498 101.37 22.9298C101.16 22.9998 100.88 23.1798 100.53 23.4898C100.35 23.6998 100.14 24.1598 99.8999 24.7898C99.7599 25.2498 99.5099 25.4498 99.1999 25.4498C98.2199 25.4498 96.5699 24.6798 94.2599 23.0698C92.2999 21.7698 90.7599 19.9898 89.7099 17.6798H83.0599C82.7799 18.1698 82.4299 18.6998 82.0399 19.1898C80.0399 22.5198 76.0499 25.1398 70.0699 27.0298C69.9299 27.0298 69.7899 26.8498 69.6799 26.4698C74.2299 24.0498 77.2099 21.4598 78.6099 18.6598C78.8899 18.2698 79.0599 17.9598 79.2099 17.6798H78.3299C74.1599 17.6798 71.5699 17.8198 70.5599 18.0698C70.3199 17.4698 70.0399 16.8798 69.7199 16.2798C71.3299 16.4898 73.9199 16.5898 77.5599 16.5898V5.97983H76.9299C73.5699 6.04983 71.8499 6.15983 71.8499 6.25983C71.6399 5.83983 71.3999 5.23983 71.1499 4.46983C71.6399 4.60983 73.4599 4.77982 76.5799 4.92982H77.5599V4.15983C77.5599 2.61983 77.4899 1.35983 77.3899 0.409828C80.6799 0.899828 82.3299 1.31982 82.3299 1.70982L82.3199 1.67982ZM88.6199 20.9698C88.6199 21.2898 88.4099 21.4898 87.9899 21.5698C87.2899 21.8498 86.9399 22.0998 86.9399 22.3098V24.1698H89.1799C90.0599 23.1198 90.6899 22.4498 91.1099 22.2098C91.1799 22.2098 91.2499 22.2398 91.3599 22.2398C91.5699 22.3798 91.8199 22.5198 92.0999 22.7298C93.3299 23.7798 93.9599 24.4798 93.9599 24.7598C93.9599 25.0798 93.8199 25.2198 93.5699 25.2198H86.9499V29.7698H94.1599C95.2099 28.4698 95.9499 27.6698 96.4399 27.3498C96.5099 27.3498 96.6199 27.3798 96.7599 27.3798C96.9999 27.5198 97.2799 27.7298 97.5999 27.9398C99.0699 29.1998 99.8399 30.0098 99.8399 30.3598C99.8399 30.6798 99.6999 30.8498 99.4499 30.8498H78.6599C74.8399 30.8498 72.4599 30.9498 71.5499 31.2398C71.3099 30.6098 71.0299 30.0098 70.7399 29.4198C72.2799 29.6298 74.9799 29.7698 78.7599 29.7698H83.8699V25.2198H82.4299C80.3999 25.2198 79.0999 25.3598 78.6099 25.6398C78.3699 25.0398 78.0799 24.4498 77.7999 23.8198C78.5399 24.0698 79.8299 24.1698 81.6899 24.1698H83.8599V23.4698C83.8599 21.9298 83.7899 20.6698 83.6499 19.7198C86.9399 20.2098 88.6199 20.6298 88.6199 20.9798V20.9698ZM90.1299 8.71983V5.94982H80.6799V8.71983H90.1299ZM90.1299 12.6098V9.62982H80.6799V12.6098H90.1299ZM90.1299 16.5698V13.5198H80.6799V16.5698H90.1299Z" fill="white"/>
<path d="M105.32 9.90989C105.11 9.44989 104.86 8.85988 104.62 8.08988C105.11 8.26988 106.9 8.43989 109.98 8.57989V3.49989C109.91 2.44989 109.8 1.42988 109.66 0.379883C110.75 0.519883 111.9 0.699889 113.16 0.909889C114.04 1.08989 114.49 1.29989 114.49 1.56989C114.49 1.81989 114.28 1.95988 113.89 2.02988C113.26 2.23988 112.98 2.41988 112.98 2.51988V8.57989H113.54C114.38 7.17989 114.94 6.47989 115.19 6.47989C115.37 6.47989 115.72 6.86988 116.28 7.59988C116.84 8.29988 117.16 8.78989 117.22 9.06989C117.22 9.41989 117.08 9.59988 116.8 9.59988H112.98V11.6299C115.89 12.9999 117.36 14.2899 117.36 15.5499C117.36 16.2499 117.15 16.7099 116.76 16.9499C116.48 17.1599 116.17 17.2599 115.81 17.2599C115.11 17.2599 114.65 16.6299 114.41 15.2999C114.06 14.1399 113.61 13.1999 112.97 12.4299V23.9499C113 27.6299 113.04 30.1799 113.11 31.7199C113.11 32.2799 112.37 32.5599 110.94 32.5599C110.17 32.5599 109.82 32.3499 109.82 31.9299C109.89 30.6299 109.93 27.9699 109.96 23.8399V16.3799C108.49 19.7099 106.88 22.2599 105.09 24.0099C104.88 23.9399 104.74 23.8299 104.64 23.6199C107.09 19.5199 108.74 14.8699 109.54 9.61989C106.74 9.68989 105.3 9.79989 105.3 9.89989L105.32 9.90989ZM126.22 2.09988C126.22 2.30988 126.08 2.48988 125.8 2.58988C125.1 2.89988 124.71 3.10989 124.64 3.21989L124.57 14.6999C124.57 24.0099 121.52 29.8199 115.43 32.1699C115.29 31.9899 115.18 31.8199 115.11 31.6799C117.42 29.6499 119.07 27.3699 119.98 24.7799C120.72 23.2699 121.21 20.8899 121.45 17.6399C120.57 18.6599 119.59 19.6699 118.54 20.7199C118.47 20.9299 118.4 21.4599 118.37 22.2299C118.37 22.4399 118.26 22.5799 118.09 22.6199C117.7 22.6199 116.79 21.3599 115.36 18.7699C116.2 18.6999 118.27 17.8599 121.52 16.3199C121.59 15.1299 121.63 13.7999 121.63 12.3599V4.40989C121.63 2.93989 121.52 1.67989 121.35 0.659889C124.57 1.21989 126.18 1.70988 126.22 2.09988ZM120.86 11.4799C120.86 12.5699 120.4 13.1299 119.49 13.1299C118.65 13.1299 118.26 12.7099 118.26 11.8699C118.26 11.4099 118.16 10.7799 118.02 9.93989C117.85 9.16989 117.63 8.25988 117.35 7.27988C117.07 6.43988 116.83 5.87988 116.65 5.52988C116.89 5.34988 117.04 5.24989 117.07 5.24989C119.59 7.34989 120.85 9.44989 120.85 11.4799H120.86ZM131.47 2.23988C131.44 2.37988 131.3 2.54988 131.02 2.69988C130.35 2.94988 129.97 3.14989 129.83 3.28989V11.5199C131.16 9.62988 132.11 7.55989 132.67 5.31989C133.23 5.66989 134.18 6.22989 135.51 6.96989C136.17 7.41989 136.52 7.73988 136.52 7.91988C136.49 8.12988 136.31 8.22989 136 8.22989C135.33 8.29989 134.88 8.32989 134.63 8.36989C133.96 9.20989 133.23 10.0199 132.39 10.7899C131.62 11.4899 130.74 12.0499 129.83 12.5399V15.6899C131.37 16.0399 132.67 16.4599 133.72 17.0199C135.26 17.7899 136.03 18.6299 136.03 19.5099C136.03 20.2799 135.89 20.7699 135.64 21.0499C135.43 21.4699 135.01 21.6799 134.45 21.6799C134.17 21.6799 133.65 21.0899 132.87 19.8599C131.82 18.3499 130.8 17.2699 129.82 16.5999V27.6299C129.89 28.4399 130.21 28.8199 130.77 28.8199H131.82C132.8 28.8199 133.47 28.1199 133.82 26.6799C134.31 25.0699 134.63 23.9799 134.7 23.4899C134.84 23.5199 135.02 23.5199 135.26 23.5199C135.29 23.5199 135.33 24.8199 135.33 27.4099C135.33 27.8299 135.47 28.1799 135.82 28.3899C136.31 28.7399 136.59 29.0899 136.59 29.4399C136.59 30.2799 135.96 30.8399 134.77 31.1899C134.14 31.3999 133.3 31.5399 132.18 31.5399C130.92 31.5399 130.15 31.4699 129.83 31.3999C127.8 31.2199 126.82 30.0999 126.82 28.0699V3.91988C126.82 2.89988 126.75 1.88989 126.61 0.869888C129.83 1.42989 131.48 1.88988 131.48 2.23988H131.47Z" fill="white"/>
<path d="M151.55 2.09982C151.55 2.51982 150.95 2.79983 149.76 2.89983C149.27 3.66983 148.78 4.40983 148.25 5.03983H165.19C166.1 3.77983 166.73 3.03983 167.12 2.79983C167.15 2.79983 167.23 2.76982 167.33 2.76982C167.57 2.83982 168.03 3.18983 168.7 3.78983C169.58 4.62983 170.07 5.18983 170.17 5.46983C170.17 5.81983 170.1 6.02982 169.96 6.06982H165.62V13.1098H166.39C167.51 11.4298 168.21 10.5898 168.53 10.5498C168.77 10.5498 169.26 11.0098 170.04 11.8798C170.78 12.7198 171.19 13.2798 171.34 13.5598C171.34 13.9098 171.2 14.1198 170.92 14.1198H165.63V21.8898H166.54C167.52 20.2098 168.19 19.3698 168.5 19.3298C168.71 19.3298 169.16 19.7898 169.87 20.6598C170.53 21.4998 170.92 22.0598 171.03 22.3398C171.03 22.6898 170.89 22.8998 170.61 22.8998H146.25C142.85 22.9698 141.14 23.0798 141.14 23.2198C140.93 22.7598 140.72 22.1698 140.47 21.3998C140.93 21.5798 142.5 21.7198 145.2 21.8498V14.1098C142.19 14.1798 140.65 14.2798 140.65 14.4298C140.44 13.9698 140.2 13.3798 139.95 12.6098C140.44 12.7898 142.19 12.9598 145.2 13.0998V8.26982C144.04 9.24982 142.82 10.0198 141.56 10.6498C141.35 10.5098 141.17 10.3998 140.96 10.2998C143.87 7.70983 145.9 4.37982 147.05 0.319824C150.06 1.29982 151.57 1.89983 151.57 2.10983L151.55 2.09982ZM145.77 24.1198C145.84 24.7498 145.87 25.6898 145.87 26.9898C145.84 30.4898 144.54 32.2798 141.95 32.3498C140.83 32.3498 140.27 31.9598 140.2 31.2298C140.2 30.5998 140.55 29.9698 141.32 29.3398C142.02 29.0198 142.83 28.3198 143.74 27.2398C144.34 26.4998 144.83 25.4498 145.18 24.0898C145.57 24.0898 145.78 24.1298 145.78 24.1298L145.77 24.1198ZM150.99 6.05982H148.33V13.0998H150.99V6.05982ZM150.99 14.1098H148.33V21.8798H150.99V14.1098ZM153.79 29.6198C153.79 30.9898 153.23 31.6898 152.14 31.7198C150.98 31.7198 150.39 31.1898 150.39 30.2098V27.0598C150.39 26.1798 150.21 25.4498 149.94 24.8198C150.05 24.8198 150.15 24.7498 150.22 24.6098C152.5 26.1498 153.69 27.7998 153.79 29.6198ZM156.66 6.05982H154.14V13.0998H156.66V6.05982ZM156.66 14.1098H154.14V21.8798H156.66V14.1098ZM162.12 28.7398C162.12 29.7598 161.91 30.4898 161.56 30.9098C161.21 31.3598 160.72 31.6098 160.02 31.6098C159.53 31.6098 159.25 31.0098 159.11 29.8898C158.69 27.7898 158.09 26.1398 157.32 25.0198L157.88 24.6698C160.68 26.1398 162.08 27.5098 162.12 28.7298V28.7398ZM162.47 6.05982H159.81V13.0998H162.47V6.05982ZM162.47 14.1098H159.81V21.8798H162.47V14.1098ZM170.63 29.2698C170.63 30.2198 170.46 30.8798 170.14 31.2698C169.79 31.6898 169.3 31.9298 168.67 31.9298C167.97 31.9298 167.52 31.2998 167.3 30.1098C166.67 27.8298 165.76 26.0798 164.57 24.8598L165.06 24.5098C168.74 26.2598 170.59 27.8398 170.63 29.2698Z" fill="white"/>
<path d="M186.59 2.09986C187.5 2.93986 187.99 3.45986 187.99 3.70986C187.99 3.98986 187.82 4.16987 187.5 4.22987C186.76 4.50987 186.31 4.71986 186.1 4.82986C185.15 6.85986 183.68 9.20986 181.65 11.8299C184.91 13.9999 186.59 16.4899 186.73 19.3199C186.73 22.8599 185.54 24.8899 183.19 25.4499C182.84 25.4499 182.59 25.2399 182.49 24.8499C182.35 24.1199 181.96 23.5599 181.37 23.1299C180.88 22.8499 180.42 22.5999 180 22.4699C180.03 22.3999 180.07 22.2199 180.07 21.9399C180.7 22.0399 181.47 22.1199 182.38 22.1199C183.4 21.9799 183.92 20.9299 183.92 18.8999C183.92 15.8499 182.9 13.5099 180.87 11.8599C181.99 9.61986 182.76 6.70986 183.25 3.13986H179.54V31.3199C179.4 32.0199 178.73 32.3699 177.61 32.3699C176.91 32.3699 176.49 32.2299 176.35 32.0199C176.35 27.1199 176.38 22.3199 176.45 17.6299V8.20986C176.42 4.21986 176.35 1.83986 176.2 1.06986L179.56 2.36987H182.92C183.83 1.41987 184.46 0.929863 184.85 0.859863C185.03 0.859863 185.59 1.27986 186.57 2.08986L186.59 2.09986ZM191.7 2.83986H199.65C200.56 1.85986 201.19 1.36986 201.54 1.32986C201.82 1.36986 202.45 1.71986 203.4 2.37986C204.24 3.00986 204.7 3.49986 204.7 3.77986C204.7 3.98986 204.53 4.19987 204.21 4.40987C203.72 4.79987 203.4 5.07986 203.33 5.21986V11.1399C203.44 13.4499 203.51 14.9199 203.51 15.6199C203.51 16.3899 202.88 16.7799 201.69 16.7799C200.78 16.7799 200.29 16.5699 200.25 16.1499V15.3399H195.56C196.12 18.0699 197.03 20.4499 198.29 22.4099C200.25 20.8699 201.65 19.1199 202.42 17.2299C202.98 17.5799 203.93 18.1399 205.26 18.8699C205.92 19.3299 206.28 19.6399 206.28 19.7799C206.25 20.0299 206.07 20.1299 205.76 20.1299C205.09 20.1999 204.64 20.2299 204.39 20.2699C203.58 20.8299 202.67 21.3899 201.69 21.8799C200.78 22.3299 199.8 22.7199 198.71 22.9999C199.97 24.8199 201.55 26.3299 203.44 27.4799C204.67 28.3199 205.72 28.8099 206.59 29.0199C206.59 29.2299 206.52 29.4399 206.45 29.6199C206.06 29.6899 205.75 29.8299 205.47 30.0099C205.12 30.2599 204.84 30.7099 204.59 31.3399C204.31 31.8999 204.03 32.1799 203.78 32.1799C203.53 32.1799 203.08 31.8599 202.38 31.2999C198.25 28.3599 195.69 23.0399 194.71 15.3399H191.73V27.0299C193.62 26.7799 195.27 26.4699 196.63 26.0799C196.7 26.1199 196.74 26.2199 196.81 26.3999C194.57 28.0799 191.38 29.5199 187.25 30.7799C187.25 31.4499 187.14 31.7999 186.93 31.7999C186.79 31.7999 186.54 31.4499 186.19 30.8199C185.84 30.1499 185.38 29.0999 184.79 27.6999C186.12 27.6299 187.42 27.5199 188.61 27.3799V4.37986C188.57 3.67986 188.5 2.62987 188.36 1.29987C189.59 1.89987 190.71 2.41986 191.69 2.83986H191.7ZM200.24 8.54987V3.71986H191.73V8.54987H200.24ZM200.24 14.4299V9.45986H191.73V14.4299H200.24Z" fill="white"/>
<path d="M226.24 1.04977C227.19 1.22977 227.68 1.46976 227.68 1.78976C227.68 2.03976 227.47 2.17976 227.05 2.24976C226.38 2.49976 226.07 2.66976 226.07 2.80976V6.93977H232.69C233.74 5.46977 234.44 4.55976 234.86 4.27976C234.93 4.23976 235 4.20976 235.1 4.20976C235.42 4.31976 235.94 4.69977 236.71 5.36977C237.76 6.34977 238.32 7.01977 238.46 7.36977C238.46 7.71977 238.36 7.89976 238.22 7.92976H226.07V13.9198H235.63C236.75 12.4798 237.56 11.6098 238.08 11.2898C238.15 11.2898 238.26 11.3198 238.4 11.3198C238.68 11.4598 238.99 11.6698 239.35 11.9198C240.93 13.2498 241.73 14.1298 241.73 14.5098C241.73 14.8298 241.59 14.9698 241.38 14.9698H226.08V17.7698C228.74 18.3698 231.02 19.1398 232.91 20.0798C235.78 21.5198 237.25 23.0198 237.25 24.6298C237.25 25.2598 237.14 25.6798 236.93 25.8898C236.72 26.2398 236.4 26.4198 235.95 26.4198C235.39 26.4198 234.27 25.4698 232.52 23.5798C230.35 21.3398 228.18 19.7298 226.08 18.6798V23.4798C226.11 27.4398 226.15 30.1998 226.22 31.8498C226.22 32.4498 225.41 32.7598 223.87 32.7598C223.06 32.7598 222.68 32.5098 222.68 32.0598C222.75 30.6598 222.79 27.7898 222.82 23.3398V14.9698H218.55C214.38 14.9698 211.79 15.1098 210.78 15.3898C210.54 14.7898 210.25 14.1998 209.94 13.5698C211.66 13.8198 214.6 13.9198 218.76 13.9198H222.82V3.86977C222.75 2.74977 222.64 1.62977 222.51 0.509766C223.7 0.689766 224.93 0.859763 226.26 1.06976L226.24 1.04977Z" fill="white"/>
<path d="M274.02 27.0599C275.74 28.5299 276.61 29.4099 276.61 29.8299C276.61 30.1399 276.47 30.3199 276.26 30.3199H253.33C249.13 30.3199 246.5 30.4599 245.49 30.7399C245.25 30.1099 244.96 29.4799 244.65 28.9199C246.33 29.1299 249.24 29.2699 253.37 29.2699H257.36V4.65989C257.36 2.97989 257.29 1.64988 257.15 0.629883C260.65 1.15988 262.44 1.60988 262.44 1.98988C262.44 2.33988 262.23 2.54989 261.81 2.61989C261.04 2.93989 260.65 3.17988 260.65 3.38988V12.9499H267.41C268.46 11.4399 269.16 10.5699 269.58 10.2899C269.65 10.2599 269.72 10.2199 269.82 10.2199C270.14 10.3199 270.66 10.7099 271.43 11.3799C272.48 12.3599 273.04 12.9899 273.18 13.3399C273.18 13.6899 273.07 13.8999 272.94 13.9299H260.65V29.2599H270.07C271.26 27.6799 272.14 26.7399 272.7 26.3899C272.8 26.3899 272.91 26.4199 273.05 26.4199C273.37 26.5599 273.68 26.7699 274.03 27.0499L274.02 27.0599Z" fill="white"/>
<path d="M283.78 3.07959H288.86C289.77 1.91959 290.4 1.32959 290.75 1.28959C291.03 1.31959 291.66 1.67958 292.61 2.33958C293.45 2.96958 293.91 3.45959 293.91 3.73959C293.91 3.94959 293.73 4.15959 293.45 4.36959C292.99 4.75959 292.71 5.03959 292.64 5.17959V9.13959C292.78 10.6796 292.85 11.6996 292.85 12.1496C292.85 12.9196 292.22 13.3396 291.03 13.3396C290.12 13.3396 289.63 13.1296 289.59 12.6696V12.6296H288.85V17.8496H289.94C290.71 16.5896 291.24 15.8896 291.52 15.8196C291.66 15.8196 292.12 16.2796 292.89 17.1196C293.49 17.8196 293.8 18.2096 293.8 18.3496C293.8 18.4896 293.77 18.5596 293.77 18.5596C295.73 17.1596 297.24 15.8596 298.29 14.7096C298.78 14.2196 299.27 13.6896 299.72 13.1696C298.67 11.8396 297.76 10.3296 297.02 8.61959C296.04 9.98959 295.02 11.1096 293.9 11.9496C293.69 11.8096 293.48 11.6996 293.3 11.5996C295.19 8.65959 296.52 4.90959 297.29 0.32959C300.3 1.30959 301.81 1.90959 301.81 2.11959C301.81 2.53959 301.21 2.81959 300.02 2.91959C299.78 3.54959 299.53 4.10959 299.29 4.66959H304.05C305.17 3.61959 305.87 3.08958 306.15 3.08958C306.54 3.15958 307.13 3.54959 307.94 4.20959C309.03 5.15959 309.59 5.78959 309.59 6.06959C309.59 6.41959 308.96 6.65959 307.73 6.87959C306.22 9.53959 304.58 11.7796 302.79 13.5696C303.07 13.7796 303.32 13.9196 303.6 14.0596C305.88 15.5296 308.5 16.2996 311.44 16.4096C311.44 16.6896 311.41 16.8996 311.37 17.1096C311.16 17.1496 310.88 17.3596 310.46 17.7096C310.29 17.9596 310.04 18.4096 309.76 19.1096C309.62 19.5996 309.37 19.8096 309.02 19.8096C307.72 19.8096 305.59 18.6196 302.61 16.1696C302.12 15.8196 301.7 15.3996 301.28 14.9796C300.72 15.4396 300.19 15.8596 299.67 16.2096C297.08 18.3796 294.17 20.0596 290.92 21.2496C290.74 20.9396 290.64 20.7596 290.64 20.7596C291.66 20.0996 292.57 19.4596 293.41 18.8696H288.86V26.5696C290.44 26.2596 291.98 25.8696 293.45 25.3796C293.45 25.5196 293.49 25.6596 293.55 25.7996C291.03 27.8996 287.32 29.5096 282.35 30.6296C282.25 31.8196 282.04 32.4196 281.69 32.4196C281.48 32.4196 281.03 31.5796 280.32 29.9696C279.9 28.9896 279.65 28.2196 279.55 27.6196C280.11 27.6196 280.64 27.6196 281.13 27.5496V19.2496C281.13 17.9196 281.06 16.8296 280.99 16.0296C283.79 16.4496 285.23 16.7996 285.23 17.1196C285.23 17.3996 285.05 17.5396 284.71 17.6096C284.11 17.8896 283.8 18.0996 283.8 18.2396V27.3796C284.57 27.3096 285.31 27.2396 286.01 27.0996V12.6796H284.43V12.7896C284.29 13.4896 283.62 13.8396 282.5 13.8396C281.8 13.8396 281.38 13.7296 281.24 13.4896C281.24 11.6696 281.27 9.91958 281.35 8.19958V4.72959C281.32 3.25959 281.24 2.37959 281.11 2.09959L283.81 3.11959L283.78 3.07959ZM289.59 11.7296V3.95959H284.41V11.7296H289.59ZM297.22 21.1096H304.29C305.2 20.0296 305.83 19.4696 306.18 19.4296C306.5 19.4696 307.13 19.8096 308.07 20.4796C308.91 21.1496 309.33 21.5996 309.33 21.8796C309.33 22.0896 309.15 22.3296 308.87 22.5396C308.42 22.9296 308.13 23.1696 308.07 23.3096V27.7896C308.18 29.5096 308.25 30.6296 308.25 31.1496C308.25 31.9196 307.62 32.3096 306.43 32.3396C305.52 32.3396 305.03 32.0896 305.03 31.6696V29.9496H297.92V31.2496C297.74 31.9496 297.11 32.2996 295.99 32.2996C295.29 32.2996 294.87 32.1596 294.73 31.9496C294.73 30.0596 294.77 28.2396 294.84 26.4496V22.8096C294.77 21.2696 294.7 20.3596 294.6 20.0796L297.23 21.0996L297.22 21.1096ZM300.76 11.8696C302.34 9.79959 303.49 7.66959 304.23 5.42959H298.91C298.45 6.33959 298 7.14959 297.54 7.84959C298.56 9.45959 299.64 10.8296 300.76 11.8796V11.8696ZM305.03 29.0596V22.0196H297.92V29.0596H305.03Z" fill="white"/>
<path d="M38.15 79.5101C37.94 80.5201 37.73 81.0501 37.45 81.0501C37.24 81.0501 36.96 80.5601 36.68 79.6501C36.33 78.7401 35.98 77.6201 35.63 76.2501C36.3 76.3901 37.31 76.4201 38.68 76.4201V64.7301C37.28 64.8001 36.33 64.9101 35.81 65.0501C35.56 64.4501 35.28 63.8601 34.97 63.2601C36.72 63.4701 39.73 63.5701 44 63.5701H61.33C62.21 62.5201 62.84 61.8901 63.26 61.6401H63.5C63.71 61.7801 63.95 61.9201 64.23 62.1301C65.46 63.1801 66.09 63.8801 66.09 64.1601C66.09 64.5101 65.95 64.6501 65.7 64.6501H49.74V76.7301C49.81 78.0901 49.85 79.7401 49.85 81.7001C49.85 82.1201 49.22 82.4001 48.03 82.4701C47.05 82.4701 46.56 82.3001 46.56 81.9801C46.63 81.0001 46.67 79.2801 46.67 76.8301C44.6 77.7401 41.77 78.6201 38.16 79.4901L38.15 79.5101ZM42.91 52.1401H57.23C58.14 51.1201 58.77 50.6001 59.12 50.5601C59.44 50.6001 60.06 50.9501 61.01 51.6101C61.85 52.2701 62.27 52.7301 62.27 53.0101C62.27 53.2201 62.06 53.4601 61.71 53.6801C61.12 54.0701 60.76 54.3101 60.7 54.4501V58.2301C60.8 59.7001 60.87 60.6501 60.87 61.0701C60.87 61.8401 60.24 62.2301 59.05 62.2301C58.14 62.2301 57.65 62.0201 57.61 61.6001V61.0001H43.5V61.4201C43.36 62.1201 42.69 62.4701 41.57 62.4701C40.87 62.4701 40.45 62.3701 40.31 62.1201C40.31 60.3701 40.34 58.6901 40.45 57.0101V53.6501C40.38 52.2501 40.31 51.3701 40.17 51.0901L42.9 52.1401H42.91ZM41.82 64.6701V67.5401H46.65V64.6701H41.82ZM41.82 68.4501V71.6401H46.65V68.4501H41.82ZM41.82 72.5501V76.2601C43.78 76.1501 45.39 75.9801 46.65 75.7301V72.5401H41.82V72.5501ZM57.61 55.8901V53.0501H43.5V55.8901H57.61ZM57.61 60.0901V56.8001H43.5V60.0901H57.61ZM63.63 66.6401C64.57 67.4101 65.06 67.9301 65.06 68.2501C65.06 68.3901 64.89 68.5601 64.61 68.7401C63.84 68.8801 63.42 69.0901 63.38 69.3701C62.29 71.7901 60.93 73.9201 59.25 75.7401C60.23 76.5101 61.35 77.1401 62.58 77.6701C63.98 78.3401 65.17 78.7601 66.15 78.9001C66.15 79.1401 66.08 79.3601 65.97 79.5701C65.55 79.6401 65.2 79.7801 64.92 79.9601C64.57 80.2401 64.25 80.7301 63.97 81.4301C63.66 81.9901 63.38 82.3101 63.09 82.3101C62.8 82.3101 62.28 82.0601 61.51 81.5701C59.76 80.5901 58.25 79.3601 57.06 77.8601C55.24 79.3701 53.21 80.6601 50.9 81.7801C50.79 81.6001 50.69 81.4601 50.62 81.3601C52.51 79.9901 54.26 78.3101 55.87 76.2101C54.43 73.9701 53.45 71.2701 52.89 68.0901C51.87 68.1601 51.17 68.2601 50.75 68.3401C50.47 67.5701 50.26 67.0401 50.09 66.6901C51.35 66.9701 52.96 67.1101 54.89 67.1501H59.93C61.02 66.0301 61.68 65.4701 61.93 65.4701C62.17 65.5001 62.74 65.8901 63.61 66.6601L63.63 66.6401ZM57.36 74.1301C58.73 72.0601 59.67 70.0301 60.23 68.0001H54.77C54.42 68.0301 54.11 68.0301 53.82 68.0301C54.52 70.4501 55.71 72.4801 57.36 74.1201V74.1301Z" fill="white"/>
<path d="M98.7401 58.7496C100.35 60.0796 101.16 60.9596 101.16 61.3396C101.16 61.6896 101.02 61.8296 100.77 61.8296H88.0301C89.4001 68.3096 92.6201 73.0296 97.6601 76.0396C99.2001 77.0196 100.5 77.6196 101.55 77.8596C101.55 78.1396 101.48 78.3496 101.41 78.5596C100.96 78.6596 100.57 78.8096 100.25 78.9796C99.8601 79.2896 99.5101 79.8196 99.2301 80.5596C98.9201 81.1896 98.6001 81.5096 98.3201 81.5096C98.0001 81.5096 97.4101 81.1596 96.5701 80.4896C91.4601 77.0196 88.2701 70.7896 87.0501 61.8296H86.4201C85.2301 72.7196 79.7301 79.4696 69.9301 82.1996C69.8201 82.1296 69.7201 82.0196 69.6101 81.8496C77.1401 77.8596 81.5501 71.1696 82.8101 61.8296H78.8501C74.8601 61.8296 72.3401 61.9696 71.3601 62.2196C71.1101 61.6296 70.8301 61.0296 70.5501 60.4296C72.1601 60.6396 74.9601 60.7396 78.9201 60.7396H82.9501C83.0901 59.3396 83.1601 57.8996 83.1901 56.3596C82.9801 53.6296 82.8401 51.6996 82.7301 50.5796C86.1301 50.9996 87.8401 51.3796 87.8401 51.8096C87.8401 52.1596 87.4901 52.3996 86.7901 52.5796C86.7601 54.1896 86.7201 55.7996 86.6501 57.3796C86.6501 58.5696 86.5801 59.6896 86.5101 60.7396H95.0201C96.1401 59.3096 96.9501 58.4296 97.4701 58.1096C97.5701 58.1096 97.6801 58.1496 97.7901 58.1496C98.0701 58.2896 98.3901 58.4996 98.7401 58.7396V58.7496Z" fill="white"/>
<path d="M109.8 55.1797C110.36 53.8497 110.75 52.4797 111.03 51.0097C114.11 51.8497 115.69 52.4797 115.69 52.8997C115.51 53.3197 114.85 53.5697 113.73 53.6697C113.2 55.2097 112.47 56.5797 111.56 57.7297C111.7 58.0497 111.84 58.3297 111.98 58.6097C113.35 62.2497 114.05 66.6297 114.12 71.7397C114.12 77.1997 113.31 80.2797 111.7 81.1197C111.24 81.6097 110.33 81.8897 108.93 81.9997C108.51 81.9997 108.27 81.5797 108.16 80.7697C108.02 80.0997 107.74 79.6497 107.39 79.4397C106.58 79.0197 105.95 78.7697 105.5 78.6297C105.6 78.6297 105.67 78.4197 105.67 77.9997H108.4C110.12 77.9997 110.99 75.9297 110.99 71.7297C110.99 69.8697 110.96 68.2297 110.88 66.7597C108.92 70.0197 106.85 72.3297 104.68 73.6897C104.57 73.5897 104.47 73.4497 104.36 73.2697C106.78 70.6397 108.81 66.8997 110.42 61.9997C110.39 61.8597 110.35 61.6897 110.35 61.5397C110.14 60.8397 109.96 60.2097 109.75 59.5797C108.42 60.7297 106.88 61.6797 105.06 62.4497C104.88 62.3097 104.78 62.1997 104.74 62.0597C106.42 60.5497 107.79 58.9097 108.84 57.0897C107.86 54.9197 106.67 53.3097 105.34 52.2597C105.41 52.1197 105.48 52.0097 105.58 51.9097C107.26 52.8597 108.66 53.9397 109.78 55.1697L109.8 55.1797ZM133.01 72.3997C133.64 72.9297 134.06 73.3097 134.27 73.5897C134.27 73.7997 134.13 73.9397 133.89 73.9697C133.61 74.1497 133.29 74.2197 133.01 74.2197C131.61 75.9397 129.96 77.3397 128.14 78.4597C129.65 78.8497 131.26 79.0197 133.01 79.0197C134.34 79.0197 135.43 78.9897 136.23 78.9897V79.4797C135.95 79.5897 135.7 79.7897 135.42 80.0797C135.17 80.2897 135 80.6397 134.86 81.0597C134.65 81.6597 134.37 81.9697 133.98 81.9697C130.55 81.8997 127.71 81.1997 125.4 79.8697C121.97 81.3397 117.94 82.0797 113.32 82.0797C113.25 82.0097 113.21 81.9097 113.21 81.7297C117.06 81.0297 120.42 79.9097 123.26 78.2997C122.03 77.1797 120.88 75.5697 119.76 73.5397H119.3C118.39 73.5397 117.06 73.6097 115.27 73.7197C115.09 73.4097 114.92 73.0197 114.71 72.5297C114.99 72.7097 116.5 72.7797 119.19 72.7797H128.96C130.4 72.0097 131.2 71.5897 131.38 71.5897C131.8 71.7997 132.36 72.0797 132.99 72.4297L133.01 72.3997ZM121.63 58.3297C121.63 58.6097 121.07 58.7497 120.02 58.7897C119.91 58.9297 119.84 59.0697 119.78 59.1797V59.5997H125.66C125.48 59.3897 125.31 59.0697 125.1 58.6497C124.61 57.7397 124.08 56.9997 123.49 56.4397C123.56 56.3697 123.59 56.2597 123.66 56.0897C126.04 56.3697 127.3 57.0697 127.41 58.2597C127.41 58.6497 127.34 58.9597 127.27 59.2097C127.2 59.3897 127.13 59.5197 127.06 59.5997H131.02C131.97 58.3397 132.6 57.6397 132.95 57.5697C133.12 57.5697 133.68 58.0297 134.6 58.8697C135.3 59.5697 135.69 59.9597 135.69 60.0997C135.69 60.4497 135.58 60.5897 135.41 60.5897H127.81V62.8297H130.26C131.14 61.6697 131.73 61.0797 132.05 61.0097C132.19 61.0097 132.68 61.3997 133.52 62.1697C134.18 62.7997 134.54 63.1797 134.54 63.3297C134.54 63.6397 134.43 63.7797 134.26 63.7797H127.82V66.2297H130.17C131.05 65.0797 131.64 64.4397 131.96 64.3697C132.1 64.3697 132.59 64.7897 133.43 65.5597C134.1 66.1897 134.45 66.5797 134.45 66.6797C134.45 67.0297 134.35 67.1697 134.17 67.1697H127.83V69.8697H132.03C132.91 68.6097 133.5 67.9097 133.78 67.8397C133.96 67.8397 134.44 68.2997 135.29 69.1397C135.95 69.7997 136.31 70.2297 136.31 70.3697C136.31 70.6897 136.21 70.8297 136.03 70.8297H119.96V71.4197C119.96 71.9497 119.36 72.2297 118.21 72.2597C117.3 72.2597 116.81 72.1497 116.81 71.9397C116.81 71.4097 116.85 70.1497 116.85 68.1597V62.6597C116.15 63.2897 115.38 63.9197 114.54 64.4797C114.36 64.4797 114.19 64.4097 114.01 64.3397C116.25 61.7497 117.65 59.1597 118.14 56.5997C120.49 57.5097 121.68 58.0697 121.68 58.3497L121.63 58.3297ZM135 52.8997C135.6 53.5997 135.95 54.0897 136.05 54.3697C136.05 54.7197 135.91 54.8997 135.63 54.8997H130.59L130.62 56.7597C130.55 57.3197 129.99 57.6397 128.94 57.6397C128.1 57.6397 127.68 57.4297 127.68 57.0097C127.68 56.2397 127.71 55.5397 127.71 54.9097H122.88L122.91 56.3097C122.84 56.8697 122.32 57.1897 121.26 57.1897C120.38 57.1897 119.96 56.9797 119.96 56.5597C119.96 55.9997 119.99 55.4697 119.99 54.9497C117.26 55.0197 115.89 55.1297 115.89 55.2297C115.68 54.8097 115.43 54.1797 115.19 53.4097C115.65 53.5897 117.26 53.7197 120.02 53.8597V52.8097C119.95 51.7897 119.91 51.0197 119.88 50.4597C122.82 50.9497 124.29 51.3397 124.29 51.6497C124.29 51.8297 124.08 51.9997 123.7 52.1797C123.07 52.4597 122.79 52.6397 122.79 52.7397L122.82 53.8897H127.72V52.7997C127.65 51.7797 127.62 51.0097 127.54 50.4497C130.48 50.9397 131.95 51.3297 131.95 51.6397C131.95 51.8197 131.74 51.9897 131.35 52.1697C130.75 52.4497 130.47 52.6297 130.47 52.7297L130.51 53.8797H131.95C132.86 52.4797 133.46 51.7797 133.74 51.7797C133.95 51.7797 134.34 52.1697 134.97 52.8997H135ZM124.92 60.5697H119.77V62.8097H124.92V60.5697ZM124.92 63.7597H119.77V66.2097H124.92V63.7597ZM124.92 67.1597H119.77V68.3197C119.81 68.7697 119.84 69.2997 119.87 69.8597H124.91V67.1597H124.92ZM124.96 77.2797C126.57 76.2297 127.97 74.9697 129.2 73.5297H120.34C121.64 75.1397 123.18 76.3997 124.96 77.2797Z" fill="white"/>
<path d="M154.14 63.9399C154.14 64.2199 153.93 64.3599 153.58 64.3599H151.79C150.04 66.1799 147.87 67.7899 145.24 69.1599C146.15 69.6199 146.99 69.9999 147.76 70.3499H162.81C163.83 69.3699 164.46 68.8399 164.7 68.8399C164.98 68.8399 165.54 69.1899 166.35 69.8599C167.23 70.5299 167.68 71.0199 167.68 71.2999C167.68 71.4799 167.54 71.6499 167.26 71.7899C166.7 72.2099 166.35 72.5199 166.21 72.6999V79.8099H167.02C168.04 78.2999 168.7 77.5299 169.02 77.4999C169.23 77.4999 169.65 77.9199 170.35 78.7299C171.05 79.4699 171.44 79.9899 171.51 80.3099C171.51 80.6599 171.37 80.8299 171.12 80.8699H145.71C142.35 80.9399 140.63 81.0099 140.63 81.1499C140.42 80.6899 140.18 80.0999 139.93 79.3599C140.42 79.4999 142.1 79.6399 145.01 79.7799V71.8299C144.98 71.2699 144.9 70.4299 144.83 69.3799C143.46 70.0799 141.99 70.7399 140.45 71.3099C140.27 71.1999 140.21 71.0299 140.21 70.7899C144.13 68.3699 147.46 65.1899 150.15 61.1999C152.81 62.7399 154.14 63.6899 154.14 63.9699V63.9399ZM167.97 57.5299C169.58 58.8599 170.39 59.7399 170.39 60.1199C170.39 60.4699 170.25 60.6099 170.04 60.6099H149.14C145.32 60.6099 142.94 60.7499 142.03 60.9999C141.78 60.3999 141.5 59.8099 141.19 59.1799C142.73 59.4199 145.39 59.5299 149.1 59.5299H164.29C165.41 58.0899 166.22 57.2199 166.74 56.8999C166.81 56.8999 166.92 56.9399 167.06 56.9399C167.34 57.0799 167.66 57.2899 167.97 57.5299ZM152.71 56.7899C152.71 57.5599 152.57 58.0899 152.29 58.3699C152.04 58.7199 151.66 58.8999 151.13 58.8999C150.15 58.8999 149.48 58.2699 149.2 56.9399C148.32 54.5599 147.03 52.7399 145.35 51.4799L145.74 51.1999C150.33 53.2299 152.64 55.1199 152.71 56.7999V56.7899ZM151.31 79.7899V71.2099H147.91V79.7899H151.31ZM157.37 79.7899V71.2099H153.94V79.7899H157.37ZM166.33 52.4199C166.33 52.8799 165.73 53.1599 164.54 53.2599C162.96 55.9199 161 57.8499 158.62 59.0699C158.41 58.9299 158.2 58.8299 158.02 58.7199C159.81 56.6199 161.07 53.9599 161.8 50.6699C164.81 51.6199 166.32 52.2099 166.32 52.4199H166.33ZM166.33 64.1499C168.99 65.4099 170.32 66.7799 170.32 68.1799C170.32 68.9199 170.18 69.4099 169.97 69.6499C169.76 70.0699 169.38 70.2399 168.81 70.2399C168.32 70.2399 167.34 69.3599 165.8 67.6099C163.31 64.9499 160.86 63.1999 158.45 62.3599V61.7599C161.67 62.3199 164.3 63.1299 166.33 64.1399V64.1499ZM163.18 79.7999V71.2199H159.96V79.7999H163.18Z" fill="white"/>
<path d="M192.12 51.7899C192.12 52.1399 191.91 52.3499 191.49 52.4199C190.75 52.7399 190.37 53.0199 190.37 53.2299V55.5099H192.58C193.53 54.3199 194.23 53.6199 194.68 53.3399H194.96C195.17 53.4799 195.45 53.6499 195.73 53.8699C197.06 55.0299 197.76 55.7599 197.76 56.1099C197.76 56.4199 197.62 56.5699 197.41 56.5699H190.37V62.0699H192.26C196.01 59.1999 198.91 56.1499 200.94 52.8999C203.6 54.0899 204.97 54.8999 204.97 55.3499C204.94 55.5599 204.79 55.6299 204.51 55.6299H203.32C201.43 58.0799 199.33 60.2199 197.02 62.0699H200.59C201.64 60.7399 202.38 59.9299 202.87 59.6499H203.19C203.43 59.7899 203.71 59.9999 204.03 60.2499C205.5 61.5099 206.27 62.2799 206.27 62.6299C206.27 62.9799 206.13 63.1199 205.88 63.1199H195.73C193.35 64.9399 190.79 66.4499 187.99 67.7099H197.62C198.6 66.5499 199.27 65.9599 199.62 65.9199C199.97 65.9499 200.64 66.3399 201.65 67.0399C202.56 67.7399 203.02 68.2299 203.02 68.5499C203.02 68.7899 202.81 69.0099 202.46 69.2199C201.9 69.6399 201.55 69.9599 201.48 70.0999V76.4699C201.62 78.9199 201.69 80.4999 201.69 81.2299C201.69 82.0699 201.02 82.4899 199.73 82.5199C198.75 82.5199 198.22 82.2799 198.19 81.8199V80.2399H185.97V81.6399C185.97 82.1299 185.31 82.3799 183.97 82.4499C182.92 82.4499 182.36 82.2699 182.36 81.9199C182.43 80.7999 182.5 78.8699 182.5 76.0399V69.8099C180.12 70.5799 177.67 71.2099 175.08 71.6699C175.05 71.5999 174.97 71.4599 174.87 71.2799C181.24 68.8299 186.56 66.1299 190.83 63.1199H183.62C179.56 63.1199 177.04 63.2599 176.02 63.5099C175.81 62.9099 175.53 62.3199 175.21 61.7199C176.89 61.9599 179.8 62.0699 183.89 62.0699H187.04V56.5699H184.03C181.58 56.5699 180.07 56.7099 179.48 56.9899C179.24 56.3999 178.96 55.7999 178.67 55.1699C179.58 55.4199 181.16 55.5199 183.43 55.5199H187.04V54.4699C187.04 52.7899 186.97 51.4599 186.83 50.4399C190.33 50.9699 192.12 51.4199 192.12 51.7999V51.7899ZM198.18 73.4199V68.5499H185.89L185.82 68.5799V73.4099H198.18V73.4199ZM198.18 79.2999V74.3299H185.82V76.2199C185.86 77.1299 185.89 78.1799 185.93 79.2999H198.18Z" fill="white"/>
<path d="M222.32 70.8699C219.69 73.1099 216.47 75.0399 212.66 76.6499C212.49 76.9299 212.38 77.4199 212.31 78.1199C212.24 78.4699 212.1 78.6099 211.85 78.6099C211.5 78.6099 210.97 77.7699 210.2 76.0199C209.88 75.1099 209.57 74.4099 209.25 73.8499C210.93 73.6399 212.61 73.2899 214.33 72.8699V64.0499C211.53 64.1199 210.13 64.2299 210.13 64.3299C209.92 63.8699 209.68 63.2799 209.43 62.5099C209.92 62.6799 211.53 62.8299 214.33 62.9699V54.9899H213.24C211.77 54.9899 210.65 55.0899 209.88 55.2699C209.74 54.8799 209.6 54.4299 209.39 53.8699C210.16 54.0099 211.42 54.1099 213.24 54.1099H217.76C218.29 53.3699 218.81 52.7099 219.37 52.1099C219.55 51.9699 219.69 51.8599 219.79 51.8599C219.89 51.8599 220.11 51.9999 220.46 52.2099C221.79 53.3999 222.53 54.1699 222.7 54.5599C222.7 54.8399 222.59 54.9799 222.46 54.9799H217.49V62.9999H217.8C218.78 61.4599 219.45 60.6899 219.76 60.6499C219.97 60.6499 220.43 61.0699 221.13 61.9099C221.8 62.6799 222.18 63.2099 222.29 63.4899C222.29 63.8399 222.15 64.0099 221.87 64.0099H217.49V71.9599C219 71.5099 220.54 70.9799 222.08 70.3499C222.18 70.5599 222.26 70.7299 222.32 70.8799V70.8699ZM226.07 52.9499H234.68C235.63 51.7599 236.26 51.1299 236.54 51.1299C236.82 51.1999 237.27 51.4499 237.98 51.9399C238.89 52.6399 239.35 53.0999 239.35 53.3099C239.35 53.4799 239.17 53.6999 238.9 53.8999C238.41 54.2899 238.16 54.5299 238.09 54.5999V63.9099C238.12 67.0999 238.2 69.2299 238.27 70.3199C238.27 71.0199 237.53 71.3699 236.1 71.3699C235.54 71.3699 235.26 71.1299 235.26 70.6299V70.3499H233.93V77.7399C234.11 78.5799 234.53 78.9999 235.16 78.9999H237.12C238.1 78.9999 238.66 78.2999 238.8 76.8299C239.22 75.1099 239.46 73.6799 239.61 72.5199C239.82 72.5899 240 72.5899 240.21 72.5899V76.9699C240.21 77.6399 240.42 78.0899 240.88 78.3399C241.54 78.6899 241.9 79.1099 241.9 79.5299C241.9 80.2999 241.27 80.8599 240.04 81.2499C239.37 81.4899 238.25 81.6399 236.71 81.7099C235.52 81.7099 234.71 81.6699 234.36 81.6399C232.19 81.4599 231.1 80.3399 231.1 78.3099V70.3599H230.05C229.77 72.4999 229.45 73.9699 229.04 74.8099C227.36 79.0499 223.58 81.7099 217.73 82.8299C217.7 82.7199 217.59 82.5799 217.42 82.4099C221.9 80.7299 224.88 78.0299 226.35 74.1799C226.77 72.8499 227.01 71.5899 227.09 70.3599H226.49V70.8899C226.35 71.5499 225.75 71.8699 224.74 71.8699C224.07 71.8699 223.69 71.7699 223.55 71.5599C223.55 68.4399 223.58 65.3999 223.66 62.4599V56.4699C223.62 53.9499 223.55 52.4399 223.41 51.9499L226.11 52.9699L226.07 52.9499ZM235.24 58.3399V53.8199H226.45V58.3399H235.24ZM235.24 63.5599V59.2499H226.45V63.5599H235.24ZM235.24 69.4099V64.4699H226.45V69.4099H235.24Z" fill="white"/>
<path d="M264.15 52.0996C264.15 52.3396 263.83 52.4896 263.27 52.5596C262.71 52.6296 262.36 52.6996 262.18 52.7696C261.51 53.7196 260.71 54.5596 259.76 55.2896H266.13C266.83 54.2696 267.43 53.6396 267.88 53.3596C268.19 53.3596 268.79 53.6796 269.7 54.2396C270.72 54.9396 271.24 55.4296 271.24 55.7496C271.24 55.9996 271 56.2396 270.54 56.4896C270.08 56.7996 269.8 57.0496 269.7 57.2296V65.5996C270.82 64.0896 271.73 62.5196 272.43 60.8396C275.23 62.4496 276.63 63.4296 276.63 63.7096C276.6 63.9896 276.45 64.1596 276.21 64.1596C275.86 64.1596 275.33 64.1196 274.6 64.0596C273.13 66.2296 271.52 68.1896 269.7 69.9096V78.2096C269.7 80.4896 268.33 81.8896 265.64 82.4496C265.33 82.4496 265.12 82.1996 264.97 81.7096C264.66 80.7996 264.06 80.0996 263.18 79.6396C261.95 79.1096 261.11 78.7996 260.66 78.7296C260.69 78.6896 260.73 78.4796 260.73 78.0996C261.99 78.2796 263.64 78.3496 265.74 78.3496C266.3 78.3496 266.58 78.0696 266.58 77.5396V72.5296C260.94 76.7296 253.8 79.3896 245.19 80.5796C245.19 80.4396 245.16 80.2596 245.08 80.1196C254.36 77.4596 261.39 73.8896 266.22 69.4396C262.02 71.0096 256.28 72.2396 249 73.1196C248.93 74.3096 248.72 74.9096 248.37 74.9096C248.16 74.9096 247.71 74.0996 247 72.4596C246.58 71.4796 246.34 70.7096 246.23 70.1096C248.05 70.1096 249.87 70.0396 251.62 69.9696V56.8096C251.58 56.1096 251.51 55.0596 251.38 53.7296C252.61 54.3296 253.73 54.8496 254.74 55.3096H258.73C259.01 53.8396 259.19 52.2596 259.29 50.6196C262.51 51.2796 264.12 51.7696 264.12 52.1296L264.15 52.0996ZM266.6 56.1996H254.77V59.5596H266.6V56.1996ZM266.6 60.5096H254.77V64.2596H266.6V60.5096ZM266.6 68.4896V65.1596H254.77V69.7796C258.9 69.4996 262.86 69.0796 266.6 68.4796V68.4896Z" fill="white"/>
</svg>
