<svg width="107" height="93" viewBox="0 0 107 93" fill="none" xmlns="http://www.w3.org/2000/svg">
<path d="M1.48999 41.7001V41.1401H4.06C4.53 41.8901 5.52003 42.6001 7.03003 43.2601L6.58002 43.9101C6.36002 43.8201 6.16999 43.7201 5.98999 43.6201V44.0501H3.97998V45.1501H5.90002V45.7401H3.97998V46.9801H6.75V47.5701H0.51001V46.9801H3.25V45.7401H1.38V45.1501H3.25V44.0501H1.29999V43.6301C1.11999 43.7201 0.92999 43.8201 0.73999 43.9001L0.340027 43.2201C1.09003 42.9301 1.67003 42.6501 2.09003 42.3601C2.39003 42.1801 2.65001 41.9501 2.89001 41.6901H1.5L1.48999 41.7001ZM5.67999 43.4601C5.34999 43.2901 5.07998 43.1101 4.84998 42.9201C4.33998 42.5601 3.94 42.1501 3.62 41.7001C3.39 42.0601 3.14002 42.3401 2.90002 42.5501C2.60002 42.8501 2.16999 43.1501 1.60999 43.4501H5.67999V43.4601Z" fill="#3E3A39"/>
<path d="M11.01 41.2803C10.55 42.1603 10.07 42.8903 9.59003 43.4403C9.73003 43.4503 9.86 43.4503 9.94 43.4503C11.02 43.4503 12.1 43.3603 13.18 43.1903C12.91 42.8303 12.62 42.4703 12.28 42.0903L12.79 41.6103C13.47 42.3703 14.04 43.1203 14.51 43.8703L13.97 44.4103C13.85 44.2103 13.72 44.0003 13.59 43.8003C12.16 44.0203 10.41 44.1303 8.34003 44.1303L8.20001 43.3403C8.45001 43.3703 8.67 43.3803 8.87 43.4003C9.33 42.8303 9.82001 42.0403 10.32 41.0303L10.99 41.2803H11.01ZM13.95 47.7203H13.24V47.2703H9.40002V47.7003H8.69V44.6503H13.95V47.7203ZM13.24 46.6503V45.2703H9.40002V46.6503H13.24Z" fill="#3E3A39"/>
<path d="M18.56 43.4301V41.0801H19.35V43.4301H22.26V44.1601H19.35V47.7201H18.56V44.1601H15.62V43.4301H18.56Z" fill="#3E3A39"/>
<path d="M25.98 42.9204C26.02 42.5304 26.05 42.1004 26.05 41.6304V41.1504H26.79V41.6304C26.79 42.0904 26.76 42.5304 26.72 42.9204H29.7V43.6304H27.52C27.68 44.3704 27.91 44.9704 28.21 45.4304C28.61 46.0404 29.14 46.5404 29.82 46.9304L29.39 47.6404C28.59 47.0904 27.99 46.4804 27.6 45.8004C27.22 45.2104 26.96 44.4804 26.8 43.6204H26.61C26.51 44.1104 26.36 44.5504 26.19 44.9404C25.8 45.8204 25.05 46.7104 23.94 47.6104L23.32 47.0704C24.35 46.3504 25.08 45.5604 25.5 44.7204C25.66 44.4204 25.79 44.0504 25.88 43.6204H23.46V42.9104H25.99L25.98 42.9204Z" fill="#3E3A39"/>
<path d="M34.73 41.5701V41.0601H35.38V41.5701H37.1V42.6101H37.5V43.1501H37.1V44.2201H35.38V44.6801H37.16V45.1901H35.38V45.7001H37.47V46.2401H35.38V46.8501C35.48 46.8501 35.58 46.8501 35.68 46.8501C36.53 46.8501 37.16 46.84 37.58 46.8L37.46 47.5301C35.22 47.5301 33.85 47.4801 33.36 47.3801C32.91 47.2601 32.56 47.0901 32.3 46.8601C32.27 46.8401 32.24 46.8201 32.22 46.7901C31.99 47.0801 31.68 47.3801 31.27 47.7101L30.91 47.0301C31.29 46.7801 31.58 46.4901 31.79 46.1901C31.57 45.8301 31.35 45.3301 31.1 44.7101L31.66 44.5101C31.83 44.9201 31.98 45.26 32.12 45.5201C32.13 45.49 32.14 45.4601 32.16 45.4201C32.25 45.1101 32.32 44.6701 32.36 44.1101H31.13V43.6601C31.56 43.1401 31.96 42.5601 32.32 41.9401H31.01V41.4001H33.07V42.0201C32.66 42.6901 32.29 43.2101 31.96 43.6001H33.04C33.02 44.4101 32.93 45.06 32.79 45.55C32.72 45.78 32.65 45.9901 32.56 46.1801C32.73 46.3801 32.99 46.5301 33.31 46.6301C33.58 46.7201 34.05 46.7701 34.71 46.8101V46.2201H32.99V45.6801H34.71V45.1701H33.3V44.6601H34.71V44.2001H33.38V43.6901H34.71V43.1301H32.99V42.5901H34.71V42.05H33.38V41.5401H34.71L34.73 41.5701ZM35.38 42.6101H36.45V42.0701H35.38V42.6101ZM35.38 43.7201H36.45V43.1601H35.38V43.7201Z" fill="#3E3A39"/>
<path d="M40.33 41.1703C40.26 41.3103 40.2 41.4403 40.13 41.5703H41.95V42.1103C42.27 41.7603 42.51 41.4103 42.65 41.0303L43.3 41.1403C43.23 41.2903 43.17 41.4403 43.1 41.5703H45.27V42.1603H44.08C44.15 42.3303 44.22 42.5103 44.28 42.7003L43.57 42.7603C43.52 42.5403 43.47 42.3503 43.43 42.1703H42.74C42.58 42.4003 42.41 42.6003 42.22 42.7903L41.63 42.4203C41.73 42.3303 41.82 42.2503 41.9 42.1703H40.94C41.01 42.3403 41.08 42.5003 41.15 42.6803L40.44 42.7403C40.39 42.5403 40.34 42.3503 40.28 42.1803H39.74C39.55 42.4203 39.36 42.6403 39.14 42.8303L38.55 42.4603C39.09 42.0303 39.46 41.5703 39.68 41.0803L40.33 41.1903V41.1703ZM41.65 45.2703V44.9203L41.37 44.6803C41.72 44.5603 41.98 44.4503 42.16 44.3203C41.97 44.2303 41.78 44.1603 41.6 44.0903L41.91 43.6303C42.11 43.7003 42.29 43.7703 42.48 43.8403C42.49 43.7803 42.5 43.7003 42.5 43.6303V43.3803H41.7V42.8703H44.3V44.2803C44.3 44.4103 44.37 44.4803 44.5 44.4803H44.53C44.6 44.4803 44.65 44.4603 44.67 44.4203C44.71 44.3803 44.74 44.1903 44.75 43.8303L45.29 44.0003C45.25 44.5003 45.17 44.7903 45.07 44.8803C44.98 44.9703 44.82 45.0203 44.59 45.0203H44.31C44.13 45.0203 43.99 44.9803 43.89 44.8703C43.79 44.7703 43.75 44.6203 43.75 44.4503V43.3803H43.04V43.6303C43.04 43.8003 43.02 43.9403 42.97 44.0603C43.2 44.1603 43.42 44.2803 43.63 44.3903L43.29 44.9303C43.07 44.8003 42.86 44.6803 42.65 44.5603C42.52 44.6803 42.35 44.7903 42.15 44.9003H42.29V45.2703H45.26V45.8603H42.99C43.25 46.0703 43.49 46.2203 43.71 46.3203C44.06 46.5103 44.56 46.6803 45.21 46.8503L44.93 47.4403C44.14 47.1703 43.56 46.9103 43.19 46.6703C42.9 46.5003 42.6 46.2303 42.29 45.8703V47.7103H41.64V45.8703H41.62C41.4 46.1403 41.16 46.3803 40.88 46.5703C40.44 46.8903 39.79 47.1903 38.96 47.5003L38.6 46.9103C39.45 46.6603 40.06 46.4303 40.42 46.2103C40.59 46.1203 40.76 46.0003 40.91 45.8703H38.57V45.2803H41.64L41.65 45.2703ZM41.45 42.9803V43.5703H40.49V44.1903C40.81 44.1303 41.13 44.0703 41.45 43.9903V44.5503C40.69 44.7403 39.81 44.9103 38.8 45.0903L38.66 44.4403C39.07 44.4003 39.46 44.3503 39.85 44.3003V43.5703H38.87V42.9803H41.47H41.45Z" fill="#3E3A39"/>
<path d="M48.3 41.1401C48.23 41.3601 48.15 41.5701 48.05 41.7601H48.98V44.0201H47.14V44.7501H49.11V47.5201H48.46V47.1001H47.14V47.55H46.49V41.7601H47.34C47.45 41.5401 47.53 41.3001 47.59 41.0601L48.3 41.1401ZM48.33 43.4301V42.3501H47.14V43.4301H48.33ZM48.47 46.5001V45.3401H47.15V46.5001H48.47ZM52.91 41.3601V42.0001H51.43V42.7701H52.7V46.4701C52.7 46.6601 52.65 46.8101 52.56 46.9401C52.46 47.0601 52.32 47.1101 52.14 47.1101H51.74L51.57 46.4401L51.94 46.4701C52.03 46.4701 52.08 46.41 52.08 46.2701V43.3901H51.43V47.6901H50.76V43.3901H50.11V47.1401H49.49V42.7601H50.76V41.9901H49.23V41.3501H52.9L52.91 41.3601Z" fill="#3E3A39"/>
<path d="M3.23999 53.3705V51.0205H4.03003V53.3705H6.94V54.1005H4.03003V57.6605H3.23999V54.1005H0.299988V53.3705H3.23999Z" fill="#3E3A39"/>
<path d="M10.67 52.8604C10.71 52.4704 10.74 52.0403 10.74 51.5703V51.0903H11.48V51.5703C11.48 52.0303 11.45 52.4704 11.41 52.8604H14.39V53.5703H12.21C12.37 54.3103 12.6 54.9103 12.9 55.3703C13.3 55.9803 13.83 56.4803 14.51 56.8703L14.08 57.5804C13.28 57.0304 12.68 56.4203 12.29 55.7403C11.91 55.1503 11.65 54.4203 11.49 53.5603H11.3C11.2 54.0503 11.05 54.4903 10.88 54.8803C10.49 55.7603 9.74 56.6403 8.63 57.5503L8.01001 57.0103C9.04001 56.2903 9.77 55.5003 10.19 54.6603C10.35 54.3603 10.48 53.9903 10.57 53.5603H8.15002V52.8503H10.68L10.67 52.8604Z" fill="#3E3A39"/>
<path d="M19.41 51.5002V50.9902H20.06V51.5002H21.78V52.5403H22.18V53.0803H21.78V54.1502H20.06V54.6103H21.84V55.1202H20.06V55.6302H22.15V56.1703H20.06V56.7802C20.16 56.7802 20.26 56.7802 20.36 56.7802C21.21 56.7802 21.84 56.7703 22.26 56.7303L22.14 57.4602C19.9 57.4602 18.53 57.4102 18.04 57.3102C17.59 57.1902 17.24 57.0203 16.98 56.7903C16.95 56.7703 16.92 56.7502 16.9 56.7202C16.67 57.0102 16.36 57.3103 15.95 57.6403L15.59 56.9602C15.97 56.7102 16.26 56.4202 16.47 56.1202C16.25 55.7602 16.03 55.2603 15.78 54.6403L16.34 54.4402C16.51 54.8502 16.66 55.1903 16.8 55.4503C16.81 55.4203 16.82 55.3903 16.84 55.3503C16.93 55.0403 17 54.6003 17.04 54.0403H15.81V53.5902C16.24 53.0702 16.64 52.4902 17 51.8702H15.69V51.3303H17.75V51.9503C17.34 52.6203 16.97 53.1402 16.64 53.5302H17.72C17.7 54.3402 17.61 54.9903 17.47 55.4803C17.4 55.7103 17.33 55.9203 17.24 56.1103C17.41 56.3103 17.67 56.4602 17.99 56.5602C18.26 56.6502 18.73 56.7002 19.39 56.7402V56.1502H17.67V55.6103H19.39V55.1003H17.98V54.5902H19.39V54.1302H18.06V53.6202H19.39V53.0602H17.67V52.5202H19.39V51.9803H18.06V51.4702H19.39L19.41 51.5002ZM20.06 52.5403H21.13V52.0002H20.06V52.5403ZM20.06 53.6502H21.13V53.0902H20.06V53.6502Z" fill="#3E3A39"/>
<path d="M25.03 51.8102H26.05V52.4002H23.31V51.8102H24.37C24.27 51.5502 24.16 51.3003 24.04 51.0703L24.72 50.9902C24.83 51.2402 24.93 51.5002 25.02 51.8102H25.03ZM25.77 57.0902H24.19V57.6003H23.54V55.0002H25.77V57.0902ZM25.77 52.8802V53.4402H23.57V52.8802H25.77ZM25.77 53.9302V54.4902H23.57V53.9302H25.77ZM25.12 56.5002V55.6003H24.19V56.5002H25.12ZM29.03 52.8503C29.03 53.0203 29.11 53.1103 29.28 53.1103H29.84V53.7502H29.13C28.86 53.7502 28.65 53.6903 28.52 53.5803C28.38 53.4703 28.32 53.2802 28.32 52.9902V51.7702H27.22C27.2 52.2502 27.15 52.6002 27.08 52.8002C26.99 53.0902 26.77 53.4202 26.4 53.8002L25.89 53.3503C26.19 53.0203 26.37 52.7602 26.45 52.5602C26.51 52.3902 26.54 51.9203 26.54 51.1703H29.03V52.8303V52.8503ZM29.31 53.9302V54.4102C29.13 55.1502 28.83 55.7802 28.42 56.3002C28.82 56.5602 29.33 56.7802 29.95 56.9602L29.53 57.5803C28.85 57.3303 28.31 57.0802 27.91 56.8102C27.5 57.1302 26.96 57.4003 26.28 57.6403L25.88 57.0502C26.49 56.8602 26.98 56.6302 27.36 56.3702C26.94 55.9702 26.6 55.5103 26.33 54.9803L26.92 54.6403C27.18 55.1503 27.5 55.5702 27.89 55.9102C28.2 55.5302 28.43 55.0702 28.59 54.5302H26.15V53.9402H29.29L29.31 53.9302Z" fill="#3E3A39"/>
<path d="M32.75 53.2003C32.6 53.5803 32.45 53.8903 32.29 54.1603V57.5803H31.67V55.0103C31.48 55.2203 31.29 55.4203 31.08 55.6203L30.86 54.8003C31.12 54.5403 31.36 54.2703 31.56 53.9903C31.76 53.7403 31.97 53.3803 32.16 52.9003L32.75 53.1803V53.2003ZM32.77 51.2003C32.36 51.9503 31.92 52.5303 31.45 52.9203L30.99 52.3603C31.49 51.9703 31.87 51.5403 32.13 51.0603L32.77 51.2003ZM34.1 51.1403C34.01 51.4003 33.91 51.6303 33.81 51.8503H35.29V52.4103H34.56V53.3103H35.44V53.9003H34.56V54.7503H35.26V55.3403H34.56V56.3503C34.82 56.2903 35.1 56.2303 35.38 56.1403V56.7503C34.54 56.9903 33.61 57.1803 32.58 57.3203L32.49 56.6703C32.65 56.6703 32.82 56.6503 32.97 56.6303V54.4103H33.53V56.5503C33.67 56.5403 33.81 56.5103 33.96 56.4803V53.9103H32.74V53.3203H33.96V52.4203H33.5C33.36 52.6403 33.21 52.8503 33.05 53.0403L32.51 52.7003C32.98 52.1903 33.31 51.6303 33.5 51.0303L34.09 51.1503L34.1 51.1403ZM37.43 51.3903V56.2803C37.43 56.4503 37.38 56.6103 37.29 56.7303C37.2 56.8503 37.07 56.9003 36.9 56.9003H36.44L36.27 56.2503L36.69 56.2803C36.78 56.2803 36.83 56.2203 36.83 56.0803V51.9803H36.12V57.5803H35.53V51.3903H37.42H37.43Z" fill="#3E3A39"/>
<path d="M44.96 51.2803V56.7803C44.96 57.0203 44.9 57.2103 44.8 57.3403C44.7 57.4803 44.53 57.5503 44.29 57.5503H43.36L43.19 56.8703L44.09 56.9003C44.22 56.9003 44.29 56.8303 44.29 56.6803V55.4103H42.45V57.4403H41.8V55.4103H39.93C39.9 55.6603 39.86 55.9103 39.82 56.1503C39.7 56.6603 39.51 57.1503 39.23 57.6403L38.63 57.1303C38.89 56.7503 39.06 56.3603 39.17 55.9403C39.24 55.5103 39.29 55.1203 39.29 54.7503V51.2803H44.97H44.96ZM41.8 53.0303V51.9003H39.96V53.0303H41.8ZM41.8 54.8103V53.6203H39.96V54.8103H41.8ZM42.45 53.0303H44.29V51.9003H42.45V53.0303ZM42.45 54.8103H44.29V53.6203H42.45V54.8103Z" fill="#3E3A39"/>
<path d="M50.05 51.5002V50.9902H50.7V51.5002H52.42V52.5403H52.82V53.0803H52.42V54.1502H50.7V54.6103H52.48V55.1202H50.7V55.6302H52.79V56.1703H50.7V56.7802C50.8 56.7802 50.9 56.7802 51 56.7802C51.85 56.7802 52.48 56.7703 52.9 56.7303L52.78 57.4602C50.54 57.4602 49.17 57.4102 48.68 57.3102C48.23 57.1902 47.88 57.0203 47.62 56.7903C47.59 56.7703 47.56 56.7502 47.54 56.7202C47.31 57.0102 47 57.3103 46.59 57.6403L46.23 56.9602C46.61 56.7102 46.9 56.4202 47.11 56.1202C46.89 55.7602 46.67 55.2603 46.42 54.6403L46.98 54.4402C47.15 54.8502 47.3 55.1903 47.44 55.4503C47.45 55.4203 47.46 55.3903 47.48 55.3503C47.57 55.0403 47.64 54.6003 47.68 54.0403H46.45V53.5902C46.88 53.0702 47.28 52.4902 47.64 51.8702H46.33V51.3303H48.39V51.9503C47.98 52.6203 47.61 53.1402 47.28 53.5302H48.36C48.34 54.3402 48.25 54.9903 48.11 55.4803C48.04 55.7103 47.97 55.9203 47.88 56.1103C48.05 56.3103 48.31 56.4602 48.63 56.5602C48.9 56.6502 49.37 56.7002 50.03 56.7402V56.1502H48.31V55.6103H50.03V55.1003H48.62V54.5902H50.03V54.1302H48.7V53.6202H50.03V53.0602H48.31V52.5202H50.03V51.9803H48.7V51.4702H50.03L50.05 51.5002ZM50.7 52.5403H51.77V52.0002H50.7V52.5403ZM50.7 53.6502H51.77V53.0902H50.7V53.6502Z" fill="#3E3A39"/>
<path d="M55.65 51.1005C55.58 51.2405 55.52 51.3705 55.45 51.5005H57.27V52.0405C57.59 51.6905 57.83 51.3404 57.97 50.9604L58.62 51.0705C58.55 51.2205 58.49 51.3705 58.42 51.5005H60.59V52.0905H59.4C59.47 52.2605 59.54 52.4405 59.6 52.6305L58.89 52.6905C58.84 52.4705 58.79 52.2805 58.75 52.1005H58.06C57.9 52.3305 57.73 52.5305 57.54 52.7205L56.95 52.3505C57.05 52.2605 57.14 52.1805 57.22 52.1005H56.26C56.33 52.2705 56.4 52.4305 56.47 52.6105L55.76 52.6705C55.71 52.4705 55.66 52.2805 55.6 52.1105H55.06C54.87 52.3505 54.68 52.5705 54.46 52.7605L53.87 52.3905C54.41 51.9605 54.78 51.5005 55 51.0105L55.65 51.1205V51.1005ZM56.97 55.2005V54.8505L56.69 54.6105C57.04 54.4905 57.3 54.3805 57.48 54.2505C57.29 54.1605 57.1 54.0904 56.92 54.0204L57.23 53.5605C57.43 53.6305 57.61 53.7004 57.8 53.7704C57.81 53.7104 57.82 53.6305 57.82 53.5605V53.3105H57.02V52.8004H59.62V54.2104C59.62 54.3404 59.69 54.4005 59.82 54.4005H59.85C59.91 54.4005 59.97 54.3805 59.99 54.3305C60.03 54.2905 60.06 54.1004 60.07 53.7404L60.61 53.9105C60.57 54.4105 60.49 54.7005 60.39 54.7905C60.3 54.8805 60.14 54.9305 59.91 54.9305H59.63C59.45 54.9305 59.31 54.8905 59.21 54.7905C59.11 54.6905 59.07 54.5405 59.07 54.3705V53.3004H58.36V53.5504C58.36 53.7204 58.34 53.8605 58.29 53.9805C58.52 54.0805 58.74 54.2005 58.95 54.3105L58.61 54.8505C58.39 54.7205 58.18 54.6005 57.97 54.4805C57.84 54.6005 57.67 54.7105 57.47 54.8205H57.61V55.1905H60.58V55.7805H58.31C58.57 55.9905 58.81 56.1404 59.03 56.2404C59.38 56.4304 59.88 56.6004 60.53 56.7704L60.25 57.3605C59.46 57.0905 58.88 56.8305 58.51 56.5905C58.22 56.4205 57.92 56.1505 57.61 55.7905V57.6305H56.96V55.7905H56.94C56.72 56.0605 56.48 56.3004 56.2 56.4904C55.76 56.8104 55.11 57.1105 54.28 57.4205L53.92 56.8305C54.77 56.5805 55.38 56.3505 55.74 56.1305C55.91 56.0405 56.08 55.9205 56.23 55.7905H53.89V55.2005H56.96H56.97ZM56.77 52.9105V53.5005H55.81V54.1205C56.13 54.0605 56.45 54.0005 56.77 53.9205V54.4805C56.01 54.6705 55.13 54.8404 54.12 55.0204L53.98 54.3705C54.38 54.3305 54.78 54.2805 55.17 54.2305V53.5005H54.19V52.9105H56.79H56.77Z" fill="#3E3A39"/>
<path d="M63.62 51.0805C63.55 51.3005 63.47 51.5105 63.37 51.7005H64.3V53.9605H62.46V54.6905H64.43V57.4605H63.78V57.0405H62.46V57.4905H61.81V51.7005H62.66C62.77 51.4805 62.85 51.2405 62.91 51.0005L63.62 51.0805ZM63.65 53.3705V52.2905H62.46V53.3705H63.65ZM63.79 56.4405V55.2805H62.47V56.4405H63.79ZM68.23 51.3005V51.9405H66.75V52.7105H68.02V56.4105C68.02 56.6005 67.97 56.7505 67.88 56.8805C67.78 57.0005 67.64 57.0505 67.46 57.0505H67.06L66.89 56.3805L67.26 56.4105C67.35 56.4105 67.4 56.3505 67.4 56.2105V53.3305H66.75V57.6305H66.08V53.3305H65.43V57.0805H64.81V52.7005H66.08V51.9305H64.55V51.2905H68.22L68.23 51.3005Z" fill="#3E3A39"/>
<path d="M2.56 61.5305C2.31 61.5705 1.90003 61.6205 1.34003 61.6705V62.0405H2.46997V62.5204H1.34003V62.8905H2.46997V63.4005H1.34003V63.8305H5.89001V63.4005H4.82001V62.8905H5.89001V62.5504H4.82001V62.0705H5.89001V61.6705H4.76001V61.1105H6.53998L6.51001 63.8205H6.82001V65.2305H6.16998V64.3805H1.09003V65.2305H0.440002V63.8205H0.719971V61.1905C1.22997 61.1605 1.76002 61.1004 2.33002 60.9904L2.54999 61.5305H2.56ZM5.72998 64.7805V65.2905C5.23998 65.5105 4.69001 65.7205 4.07001 65.9105H6.77002V66.4705H4.03003V67.0905C4.03003 67.2305 3.97997 67.3505 3.90997 67.4305C3.79997 67.5405 3.67003 67.6005 3.53003 67.6005H2.45001L2.34003 67.0405C2.59003 67.0505 2.86997 67.0705 3.15997 67.0705C3.28997 67.0705 3.35999 67.0205 3.35999 66.9305V66.4705H0.570007V65.9105H3.35999V65.6605C3.75999 65.5705 4.19997 65.4505 4.65997 65.2905H1.64001V64.7805H5.73999H5.72998ZM4.62 61.2505C4.46 61.4105 4.31998 61.5505 4.16998 61.6505C4.28998 61.7505 4.40001 61.8405 4.51001 61.9205L4.14001 62.2905C4.02001 62.1705 3.89 62.0505 3.75 61.9405C3.5 62.0805 3.21 62.2205 2.87 62.3505L2.59003 61.8905C2.84003 61.8305 3.08001 61.7305 3.32001 61.6105C3.16001 61.5005 2.99 61.3904 2.81 61.2704L3.15002 60.9604C3.37002 61.0904 3.57001 61.2205 3.76001 61.3505C3.91001 61.2505 4.06001 61.1304 4.20001 60.9904L4.62 61.2505ZM4.71002 62.5705C4.52002 62.7705 4.34999 62.9304 4.17999 63.0504C4.31999 63.1704 4.46003 63.2805 4.59003 63.3805L4.22998 63.7505C4.08998 63.6105 3.93001 63.4805 3.76001 63.3305C3.53001 63.4705 3.26002 63.6005 2.96002 63.7205L2.67999 63.2704C2.89999 63.2104 3.12002 63.1205 3.33002 63.0105C3.19002 62.9105 3.03 62.8104 2.87 62.7104L3.21002 62.4005C3.41002 62.5205 3.59001 62.6405 3.76001 62.7505C3.94001 62.6305 4.11003 62.4805 4.28003 62.3105L4.71002 62.5605V62.5705Z" fill="#3E3A39"/>
<path d="M14.55 61.7201H9.09998V64.1801C9.09998 64.6901 9.05999 65.2101 8.98999 65.7601C8.89999 66.3401 8.77 66.9001 8.56 67.4501L7.98999 66.9401C8.16999 66.5001 8.29 66.0401 8.37 65.5501C8.42 65.0601 8.45001 64.6001 8.45001 64.1701V61.1201H14.55V61.7101V61.7201ZM12.23 65.2501V65.7101H14.15V66.2501H12.23V66.8101H14.61V67.4001H9.13V66.8101H10.03V65.5701H10.65V66.8101H11.6V65.2501H12.22H12.23ZM11.81 62.4001C11.56 62.4701 11.27 62.5201 10.96 62.5501V63.0201H11.69V63.5301H10.96V63.5501C11.25 63.7201 11.54 63.9201 11.84 64.1201L11.53 64.6001C11.31 64.4001 11.12 64.2501 10.97 64.1301V65.2801H10.41V64.2101C10.16 64.5401 9.87 64.8201 9.56 65.0601L9.25 64.5801C9.73 64.2901 10.1 63.9401 10.39 63.5401H9.37V63.0301H10.42V62.6101C10.15 62.6201 9.84998 62.6301 9.53998 62.6301L9.37 62.1201C10.22 62.1201 10.95 62.0601 11.55 61.9201L11.83 62.4001H11.81ZM14.35 62.4001C14.05 62.4901 13.7 62.5501 13.31 62.5901V63.0201H14.5V63.5301H13.31V63.6001C13.71 63.8901 14.13 64.2001 14.55 64.5501L14.21 65.0601C13.85 64.7001 13.54 64.4201 13.31 64.2101V65.2901H12.75V64.1501C12.5 64.5101 12.23 64.8201 11.93 65.0601L11.62 64.5801C12.05 64.2901 12.4 63.9401 12.66 63.5401H11.93V63.0301H12.75V62.6401C12.5 62.6501 12.26 62.6601 12.01 62.6601L11.84 62.1501C12.71 62.1501 13.45 62.0801 14.07 61.9201L14.35 62.4001Z" fill="#3E3A39"/>
<path d="M18.52 63.2604V62.3804H19.4V63.2604H18.52ZM18.52 65.8904V65.0104H19.4V65.8904H18.52Z" fill="#3E3A39"/>
<path d="M2.98999 71.6903H4.26001C4.48001 71.4303 4.66998 71.1503 4.84998 70.8403L5.53003 71.0603C5.37003 71.2903 5.20002 71.4903 5.02002 71.6803H6.58002V72.2703H3.92999V72.7203H6.29999V73.3103H3.92999V73.4603C3.92999 73.5903 3.92999 73.7104 3.92999 73.8304H6.90002V74.4503H3.88C3.85 74.6603 3.81998 74.8503 3.78998 75.0103H6.90997V75.6003H4.47998C4.56998 75.8103 4.69999 75.9803 4.85999 76.0903C5.02999 76.2303 5.29 76.3703 5.63 76.5003C5.93001 76.6203 6.39001 76.7303 7.01001 76.8503L6.59003 77.5003C5.99003 77.3603 5.5 77.2003 5.13 77.0303C4.75 76.8503 4.45 76.6503 4.25 76.4203C4.03 76.2003 3.87999 75.9203 3.79999 75.6003H3.59998C3.49998 75.8503 3.38 76.0703 3.25 76.2603C2.79 76.9003 1.89998 77.3103 0.599976 77.4703L0.289978 76.8203C1.53998 76.7403 2.36 76.4204 2.75 75.8604C2.81 75.7804 2.86002 75.6904 2.90002 75.6104H0.400024V75.0203H3.12C3.16 74.8503 3.18997 74.6603 3.21997 74.4603H0.400024V73.8403H3.28003C3.28003 73.7203 3.28003 73.5903 3.28003 73.4703V73.3203H0.98999V72.7303H3.28003V72.2803H0.679993V71.6903H2.26001C2.13001 71.5203 1.96998 71.3303 1.78998 71.1303L2.46002 70.8803C2.66002 71.1103 2.84 71.3903 3 71.7003L2.98999 71.6903Z" fill="#3E3A39"/>
<path d="M14.38 77.45H13.76V77.22H8.90002V77.45H8.28998V71.04H14.39V77.45H14.38ZM13.76 76.65V71.59H8.90002V76.65H13.76ZM11.53 75.64C10.88 75.81 10.13 75.98 9.27002 76.15L9.13 75.53C9.94 75.45 10.74 75.31 11.53 75.11V75.65V75.64ZM11.48 72.41C11.48 72.19 11.48 71.97 11.48 71.74H12.07C12.07 71.99 12.07 72.21 12.07 72.41H12.75C12.67 72.22 12.58 72.04 12.49 71.87L13 71.7C13.12 71.88 13.24 72.09 13.34 72.32L13.01 72.4H13.56V72.94H12.09C12.11 73.4 12.15 73.76 12.21 74.05C12.25 74.3 12.3 74.51 12.36 74.72C12.57 74.35 12.79 73.82 13.03 73.14L13.51 73.45C13.18 74.32 12.87 74.95 12.61 75.35L12.6 75.36C12.61 75.4 12.64 75.45 12.66 75.48C12.77 75.71 12.88 75.82 12.98 75.82C13.02 75.82 13.09 75.54 13.18 74.97L13.72 75.39C13.56 75.93 13.45 76.24 13.37 76.33C13.28 76.45 13.17 76.5 13.04 76.5C12.84 76.5 12.63 76.37 12.43 76.11C12.36 76.02 12.3 75.93 12.24 75.83C12.01 76.09 11.73 76.34 11.42 76.56L11.08 76.1C11.44 75.84 11.74 75.56 11.98 75.28C11.88 75.03 11.79 74.75 11.72 74.45C11.62 74.07 11.55 73.57 11.52 72.95H9.16998V72.41H11.49H11.48ZM11.1 73.31V74.98H9.38V73.31H11.1ZM10.59 73.79H9.88V74.49H10.59V73.79Z" fill="#3E3A39"/>
<path d="M18.82 70.8701V71.7501H21.7V72.4501H18.82V73.4701H22.21V74.1801H18.82V74.7101C19.72 75.1201 20.62 75.5901 21.53 76.1001L21.1 76.7501C20.16 76.1901 19.4 75.7501 18.81 75.4601V77.5401H18.07V74.1801H15.7V73.4701H18.07V70.8701H18.81H18.82Z" fill="#3E3A39"/>
<path d="M29.41 76.71C29.41 76.96 29.34 77.14 29.22 77.27C29.1 77.39 28.95 77.44 28.76 77.44H27.54L27.4 76.73L28.47 76.79C28.62 76.78 28.7 76.67 28.7 76.48V75.53L28.27 76.03C27.86 75.64 27.53 75.26 27.27 74.9C27.02 74.55 26.81 74.15 26.63 73.7C26.51 73.98 26.4 74.23 26.27 74.45C25.94 75.01 25.45 75.59 24.82 76.15L24.54 75.68V77.48H23.84V72.31H26.3V71.6H24.74V71.04H27V72.31H29.4V76.71H29.41ZM25.75 74C25.92 73.7 26.09 73.33 26.23 72.9H24.54V75.4C25.1 74.89 25.49 74.43 25.74 74H25.75ZM27.6 74.12C27.84 74.53 28.21 74.94 28.71 75.33V72.91H27.02C27.18 73.37 27.37 73.78 27.6 74.13V74.12Z" fill="#3E3A39"/>
<path d="M32.24 71.4301V70.8901H32.86V71.4301H35.66V70.8901H36.31V71.4301H37.41V71.9901H36.31V74.2501H37.53V74.8101H36.26C36.42 74.9701 36.57 75.0901 36.72 75.1601C36.96 75.3201 37.29 75.4601 37.73 75.6001L37.45 76.2201C37.05 76.0501 36.73 75.8901 36.49 75.7401V76.1701H34.6V76.7601H37.23V77.3501H31.32V76.7601H33.95V76.1701H32.14V75.7401C31.84 75.9101 31.53 76.0701 31.18 76.2001L30.84 75.6401C31.34 75.4701 31.73 75.2901 32.02 75.1001C32.15 75.0101 32.27 74.9101 32.39 74.8101H31.04V74.2501H32.26V71.9901H31.16V71.4301H32.26H32.24ZM33.94 75.6101V75.0501H34.58V75.6101H36.27C36.27 75.6101 36.2 75.5601 36.17 75.5401C35.95 75.3801 35.74 75.1401 35.51 74.8201H33.2C33.03 75.0601 32.84 75.2501 32.64 75.4101C32.54 75.4801 32.44 75.5501 32.34 75.6101H33.94ZM35.66 72.3901V71.9901H32.86V72.3901H35.66ZM35.66 73.3201V72.9001H32.86V73.3201H35.66ZM35.66 74.2501V73.8301H32.86V74.2501H35.66Z" fill="#3E3A39"/>
<path d="M41.29 71.6903H42.56C42.78 71.4303 42.97 71.1503 43.15 70.8403L43.83 71.0603C43.67 71.2903 43.5 71.4903 43.32 71.6803H44.88V72.2703H42.23V72.7203H44.6V73.3103H42.23V73.4603C42.23 73.5903 42.23 73.7104 42.23 73.8304H45.2V74.4503H42.18C42.15 74.6603 42.12 74.8503 42.09 75.0103H45.21V75.6003H42.78C42.87 75.8103 43 75.9803 43.16 76.0903C43.33 76.2303 43.59 76.3703 43.93 76.5003C44.23 76.6203 44.69 76.7303 45.31 76.8503L44.89 77.5003C44.29 77.3603 43.81 77.2003 43.43 77.0303C43.05 76.8503 42.75 76.6503 42.55 76.4203C42.33 76.2003 42.18 75.9203 42.1 75.6003H41.9C41.8 75.8503 41.68 76.0703 41.55 76.2603C41.09 76.9003 40.2 77.3103 38.9 77.4703L38.59 76.8203C39.84 76.7403 40.66 76.4204 41.05 75.8604C41.11 75.7804 41.16 75.6904 41.2 75.6104H38.7V75.0203H41.42C41.46 74.8503 41.49 74.6603 41.52 74.4603H38.7V73.8403H41.58C41.58 73.7203 41.58 73.5903 41.58 73.4703V73.3203H39.29V72.7303H41.58V72.2803H38.98V71.6903H40.56C40.43 71.5203 40.27 71.3303 40.09 71.1303L40.76 70.8803C40.96 71.1103 41.14 71.3903 41.3 71.7003L41.29 71.6903Z" fill="#3E3A39"/>
<path d="M49.93 70.8904C50.37 71.3404 50.83 71.7004 51.3 71.9704C51.63 72.1904 52.2 72.4304 53.01 72.7004L52.59 73.3504C52.2 73.2304 51.82 73.0804 51.45 72.8804V73.1504H47.58V72.9504C47.27 73.1104 46.92 73.2704 46.54 73.4304L46.2 72.7804C47.01 72.4904 47.63 72.1904 48.07 71.8804C48.42 71.6404 48.79 71.3104 49.19 70.8804H49.92L49.93 70.8904ZM52.25 76.8004C52.25 77.0304 52.18 77.2104 52.05 77.3404C51.94 77.4504 51.79 77.5104 51.59 77.5104H51.03L50.89 76.8304L51.35 76.8904C51.49 76.8804 51.57 76.7804 51.57 76.6104V75.8404H50.64V77.2204H49.99V75.8404H49.09V77.2504H48.44V75.8404H47.56V77.4804H46.89V73.6904H52.26V76.8004H52.25ZM48.43 75.2404V74.3104H47.55V75.2404H48.43ZM50.89 72.5604C50.45 72.2904 50.01 71.9304 49.57 71.5104C49.14 71.9304 48.71 72.2704 48.3 72.5404C48.29 72.5504 48.28 72.5504 48.28 72.5504H50.89V72.5604ZM49.08 75.2404H49.98V74.3104H49.08V75.2404ZM50.64 75.2404H51.57V74.3104H50.64V75.2404Z" fill="#3E3A39"/>
<path d="M56.62 72.7302C56.66 72.3402 56.69 71.9102 56.69 71.4302V70.9502H57.43V71.4302C57.43 71.8902 57.4 72.3302 57.36 72.7302H60.34V73.4402H58.16C58.32 74.1802 58.55 74.7802 58.85 75.2402C59.25 75.8502 59.78 76.3502 60.46 76.7402L60.03 77.4502C59.23 76.9002 58.63 76.2902 58.24 75.6102C57.86 75.0202 57.6 74.2902 57.44 73.4302H57.25C57.15 73.9202 57 74.3602 56.83 74.7502C56.44 75.6302 55.69 76.5202 54.58 77.4202L53.96 76.8802C54.99 76.1602 55.72 75.3702 56.14 74.5302C56.3 74.2302 56.43 73.8602 56.52 73.4302H54.1V72.7202H56.63L56.62 72.7302Z" fill="#3E3A39"/>
<path d="M63.84 71.4601C63.59 71.5001 63.18 71.5501 62.62 71.6001V71.9701H63.75V72.4501H62.62V72.8201H63.75V73.3301H62.62V73.7601H67.17V73.3301H66.1V72.8201H67.17V72.4801H66.1V72.0001H67.17V71.6001H66.04V71.0401H67.82L67.79 73.7501H68.1V75.1601H67.45V74.3101H62.37V75.1601H61.72V73.7501H62V71.1201C62.51 71.0901 63.04 71.0301 63.61 70.9201L63.83 71.4601H63.84ZM67.01 74.7101V75.2201C66.52 75.4401 65.97 75.6501 65.35 75.8401H68.05V76.4001H65.31V77.0201C65.31 77.1701 65.26 77.2801 65.19 77.3601C65.08 77.4701 64.95 77.5301 64.81 77.5301H63.73L63.62 76.9701C63.87 76.9801 64.15 77.0001 64.44 77.0001C64.57 77.0001 64.64 76.9501 64.64 76.8601V76.4001H61.85V75.8401H64.64V75.5901C65.04 75.5001 65.48 75.3801 65.94 75.2201H62.92V74.7101H67.02H67.01ZM65.9 71.1801C65.74 71.3401 65.6 71.4801 65.45 71.5801C65.57 71.6801 65.68 71.7701 65.79 71.8501L65.42 72.2201C65.3 72.1001 65.17 71.9801 65.03 71.8701C64.78 72.0101 64.49 72.1501 64.15 72.2801L63.87 71.8201C64.12 71.7501 64.36 71.6601 64.6 71.5401C64.44 71.4301 64.27 71.3201 64.09 71.2001L64.43 70.8901C64.65 71.0201 64.85 71.1501 65.04 71.2801C65.19 71.1801 65.34 71.0601 65.48 70.9201L65.9 71.1801ZM65.99 72.5001C65.8 72.7001 65.63 72.8601 65.46 72.9801C65.6 73.1001 65.74 73.2101 65.87 73.3101L65.51 73.6801C65.37 73.5401 65.21 73.4101 65.04 73.2601C64.81 73.4001 64.54 73.5301 64.24 73.6501L63.96 73.2001C64.18 73.1401 64.4 73.0501 64.61 72.9401C64.47 72.8401 64.31 72.7401 64.15 72.6401L64.49 72.3301C64.69 72.4501 64.87 72.5701 65.04 72.6801C65.22 72.5601 65.39 72.4101 65.56 72.2401L65.99 72.4901V72.5001Z" fill="#3E3A39"/>
<path d="M4.09003 81.3103V80.8003H4.73999V81.3103H6.46002V82.3503H6.85999V82.8903H6.46002V83.9603H4.73999V84.4203H6.52002V84.9303H4.73999V85.4403H6.83002V85.9803H4.73999V86.5903C4.83999 86.5903 4.93998 86.5903 5.03998 86.5903C5.88998 86.5903 6.52 86.5803 6.94 86.5403L6.82001 87.2703C4.58001 87.2703 3.20997 87.2203 2.71997 87.1203C2.26997 87.0003 1.91997 86.8303 1.65997 86.6003C1.62997 86.5803 1.60002 86.5603 1.58002 86.5303C1.35002 86.8203 1.04 87.1203 0.630005 87.4503L0.27002 86.7703C0.65002 86.5203 0.940024 86.2303 1.15002 85.9303C0.930024 85.5703 0.710022 85.0703 0.460022 84.4503L1.02002 84.2503C1.19002 84.6603 1.33998 85.0003 1.47998 85.2603C1.48998 85.2303 1.50002 85.2003 1.52002 85.1603C1.61002 84.8503 1.67997 84.4103 1.71997 83.8503H0.48999V83.4003C0.91999 82.8803 1.31999 82.3003 1.67999 81.6803H0.369995V81.1403H2.42999V81.7603C2.01999 82.4303 1.65001 82.9503 1.32001 83.3403H2.40997C2.38997 84.1503 2.29997 84.8003 2.15997 85.2903C2.08997 85.5203 2.01999 85.7303 1.92999 85.9203C2.09999 86.1203 2.35999 86.2703 2.67999 86.3703C2.94999 86.4603 3.42002 86.5103 4.08002 86.5503V85.9603H2.35999V85.4203H4.08002V84.9103H2.66998V84.4003H4.08002V83.9403H2.75V83.4303H4.08002V82.8703H2.35999V82.3303H4.08002V81.7903H2.75V81.2803H4.08002L4.09003 81.3103ZM4.73999 82.3503H5.81V81.8103H4.73999V82.3503ZM4.73999 83.4603H5.81V82.9003H4.73999V83.4603Z" fill="#3E3A39"/>
<path d="M9.69 80.9105C9.63 81.0505 9.55999 81.1805 9.48999 81.3105H11.31V81.8505C11.63 81.5005 11.87 81.1505 12.01 80.7705L12.66 80.8805C12.59 81.0305 12.53 81.1805 12.46 81.3105H14.63V81.9005H13.44C13.51 82.0705 13.58 82.2505 13.64 82.4405L12.93 82.5005C12.88 82.2805 12.83 82.0905 12.79 81.9105H12.1C11.94 82.1405 11.77 82.3405 11.58 82.5305L10.99 82.1605C11.09 82.0705 11.18 81.9905 11.26 81.9105H10.3C10.37 82.0805 10.44 82.2405 10.51 82.4205L9.79999 82.4805C9.74999 82.2805 9.70001 82.0905 9.64001 81.9205H9.09998C8.90998 82.1605 8.72 82.3805 8.5 82.5705L7.90997 82.2005C8.44997 81.7705 8.81998 81.3105 9.03998 80.8205L9.69 80.9305V80.9105ZM11.01 85.0105V84.6605L10.73 84.4205C11.08 84.3005 11.34 84.1905 11.52 84.0605C11.33 83.9705 11.14 83.9005 10.96 83.8305L11.27 83.3705C11.47 83.4405 11.65 83.5105 11.84 83.5805C11.85 83.5205 11.86 83.4405 11.86 83.3705V83.1205H11.06V82.6105H13.66V84.0205C13.66 84.1505 13.72 84.2205 13.86 84.2205H13.89C13.96 84.2205 14.01 84.2005 14.03 84.1605C14.07 84.1205 14.1 83.9305 14.11 83.5705L14.65 83.7405C14.61 84.2405 14.53 84.5305 14.43 84.6205C14.34 84.7105 14.18 84.7605 13.95 84.7605H13.67C13.49 84.7605 13.35 84.7205 13.25 84.6205C13.15 84.5205 13.11 84.3705 13.11 84.2005V83.1305H12.4V83.3805C12.4 83.5505 12.38 83.6905 12.33 83.8105C12.56 83.9105 12.78 84.0305 12.99 84.1405L12.65 84.6805C12.43 84.5505 12.22 84.4305 12.01 84.3105C11.88 84.4305 11.71 84.5405 11.51 84.6505H11.65V85.0205H14.62V85.6105H12.35C12.61 85.8205 12.85 85.9705 13.07 86.0705C13.42 86.2605 13.92 86.4305 14.57 86.6005L14.29 87.1905C13.5 86.9205 12.92 86.6605 12.55 86.4205C12.26 86.2505 11.96 85.9805 11.65 85.6205V87.4605H11V85.6205H10.98C10.76 85.8905 10.52 86.1305 10.24 86.3205C9.79999 86.6405 9.16001 86.9405 8.32001 87.2505L7.96002 86.6605C8.81002 86.4105 9.42003 86.1805 9.78003 85.9605C9.95003 85.8705 10.12 85.7505 10.27 85.6205H7.92999V85.0305H11L11.01 85.0105ZM10.81 82.7205V83.3105H9.84998V83.9305C10.17 83.8705 10.49 83.8105 10.81 83.7305V84.2905C10.05 84.4805 9.16997 84.6505 8.15997 84.8305L8.02002 84.1805C8.43002 84.1405 8.82002 84.0905 9.21002 84.0405V83.3105H8.22998V82.7205H10.83H10.81Z" fill="#3E3A39"/>
<path d="M21.81 81.0005V81.5405H19.26V81.8505H22.17V83.4305H21.49V82.3805H19.26V83.8505H18.59V82.3805H16.38V83.4905H15.7V81.8505H18.59V81.5405H16.07V81.0005H21.81ZM21.72 84.0205V86.2005L22.31 86.3905C22.23 86.8905 22.11 87.1905 21.93 87.2705C21.77 87.3605 21.5 87.4105 21.09 87.4105H19.17C18.97 87.4105 18.81 87.3605 18.69 87.2605C18.57 87.1505 18.52 87.0105 18.52 86.8505V86.3705H16.15V84.0305H21.71L21.72 84.0205ZM18.34 82.6605V83.0905H16.64V82.6605H18.34ZM18.34 83.3105V83.7405H16.64V83.3105H18.34ZM18.54 84.9505V84.5205H16.82V84.9505H18.54ZM18.54 85.4005H16.82V85.8605H18.54V85.4005ZM19.19 84.9505H21.08V84.5205H19.19V84.9505ZM21.08 85.4005H19.19V85.8605H21.08V85.4005ZM19.19 86.6705C19.19 86.8005 19.27 86.8705 19.44 86.8705H21.02C21.22 86.8705 21.37 86.8505 21.47 86.8105C21.56 86.7705 21.63 86.6205 21.67 86.3605H19.18V86.6705H19.19ZM21.28 82.6305V83.0605H19.53V82.6305H21.28ZM21.28 83.3105V83.7405H19.53V83.3105H21.28Z" fill="#3E3A39"/>
<path d="M25.49 81.0001V86.6501C25.49 86.8601 25.44 87.0301 25.35 87.1501C25.26 87.2701 25.1 87.3301 24.89 87.3301H24.47L24.33 86.7101L24.73 86.7401C24.84 86.7401 24.9 86.6801 24.9 86.5401V84.8201C24.73 85.0401 24.54 85.2301 24.34 85.4101L24.18 85.0401C24.17 85.3101 24.15 85.5801 24.12 85.8401C24.05 86.3601 23.95 86.8701 23.8 87.3901L23.29 86.9301C23.41 86.5301 23.49 86.1101 23.54 85.6601C23.58 85.2001 23.6 84.7801 23.6 84.3901V81.0001H25.49ZM24.9 84.1001V83.3701L24.56 83.6001C24.46 83.3401 24.34 83.0501 24.2 82.7201V84.3901C24.2 84.5301 24.2 84.6701 24.2 84.8101C24.43 84.6401 24.66 84.4001 24.91 84.0901L24.9 84.1001ZM24.42 82.1901C24.61 82.5201 24.77 82.8 24.9 83.05V81.6001H24.2V82.3301L24.42 82.1901ZM27.19 81.0301C26.93 81.4201 26.63 81.7901 26.29 82.1301C26.61 82.5301 26.85 82.8701 27.02 83.1801L26.43 83.4301C26.21 83.0201 25.95 82.5801 25.64 82.1001C25.99 81.7201 26.33 81.2901 26.63 80.8301L27.19 81.0301ZM28.57 81.0301C28.32 81.4501 28.04 81.8501 27.72 82.2201C28.05 82.6001 28.31 82.9301 28.48 83.2101L27.89 83.4601C27.85 83.4001 27.82 83.3401 27.78 83.2801C27.72 83.4201 27.66 83.5401 27.58 83.6601H29.75V87.4501H29.13V87.1101H26.48V87.4501H25.86V83.6601H26.96C27.08 83.4701 27.16 83.2801 27.22 83.0701L27.7 83.1401C27.51 82.8401 27.3 82.5301 27.08 82.2001C27.41 81.7901 27.72 81.3301 28.01 80.8401L28.57 81.0401V81.0301ZM29.13 86.5601V84.2201H26.48V86.5601H29.13ZM28.99 84.7301C28.79 84.9901 28.59 85.2101 28.4 85.3901C28.62 85.5601 28.83 85.7301 29.01 85.8901L28.55 86.3401C28.36 86.1701 28.15 85.9801 27.92 85.7901C27.62 86.0101 27.27 86.2201 26.86 86.4301L26.55 85.8901C26.85 85.7701 27.14 85.6201 27.43 85.4201C27.18 85.2501 26.92 85.0801 26.63 84.9001L27.06 84.5001C27.36 84.6901 27.65 84.8601 27.91 85.0401C28.1 84.8701 28.29 84.6601 28.47 84.4301L28.98 84.7401L28.99 84.7301ZM29.89 81.0301C29.64 81.4401 29.36 81.8301 29.04 82.1901C29.4 82.6101 29.68 82.9701 29.86 83.2901L29.27 83.5401C29.02 83.1101 28.73 82.6501 28.39 82.1601C28.72 81.7501 29.03 81.3101 29.32 80.8301L29.88 81.0301H29.89Z" fill="#3E3A39"/>
<path d="M32.03 84.5802V83.7002H32.91V84.5802H32.03Z" fill="#3E3A39"/>
<path d="M38.08 81.1103V81.7203H37.13C37.01 82.3303 36.88 82.8303 36.74 83.2203C36.74 83.2303 36.73 83.2503 36.73 83.2503H37.98V86.6703H36.82V87.3203H36.23V84.2803C36.11 84.4703 36 84.6603 35.87 84.8303L35.5 84.2403C35.85 83.7203 36.1 83.2303 36.24 82.7903C36.34 82.5203 36.43 82.1503 36.51 81.7203H35.71V81.1103H38.08ZM37.38 86.0803V83.8503H36.81V86.0803H37.38ZM39.86 86.4803C39.45 86.8503 38.94 87.1903 38.33 87.4903L37.91 86.9303C38.46 86.7103 38.96 86.4203 39.41 86.0803L39.86 86.4803ZM42.21 81.0303V81.6203H40.53C40.48 81.8103 40.42 81.9903 40.36 82.1603H41.9V85.9703H38.42V82.1603H39.66C39.73 81.9903 39.8 81.8103 39.85 81.6203H38.34V81.0303H42.22H42.21ZM41.28 83.2403V82.7303H39.05V83.2403H41.28ZM41.28 84.3403V83.7803H39.05V84.3403H41.28ZM41.28 84.8803H39.05V85.4203H41.28V84.8803ZM42.23 86.9103L41.87 87.4703C41.36 87.1003 40.84 86.8103 40.32 86.5903L40.63 86.1103C41.21 86.3303 41.74 86.5903 42.24 86.9003L42.23 86.9103Z" fill="#3E3A39"/>
<path d="M46.17 82.9703V80.8203H46.93V82.9703H49.82V83.6503H46.93V86.5103H49.48V87.1503H43.6V86.5103H46.17V83.6503H43.34V82.9703H46.17Z" fill="#3E3A39"/>
<path d="M4.44 8.01028H1.75V8.79028H0.809998V1.52026H4.45001V8.02026L4.44 8.01028ZM3.51001 4.28027V2.41028H1.75V4.28027H3.51001ZM3.51001 7.12027V5.13028H1.75V7.12027H3.51001ZM5.39001 1.29028H9.81V8.98029C9.81 9.30029 9.71998 9.55029 9.53998 9.73029C9.36998 9.88029 9.14999 9.96027 8.87 9.96027H7.19L6.98999 9.02026L8.46002 9.10028C8.67002 9.08028 8.78998 8.95027 8.78998 8.71027V6.96027H6.25C6.17 7.33027 6.06 7.66028 5.94 7.94028C5.64 8.67028 5.04998 9.39029 4.16998 10.1403L3.31 9.44028C4.1 8.88028 4.64998 8.28027 4.97998 7.62027C5.24998 7.09027 5.40002 6.29029 5.40002 5.20029V1.28027L5.39001 1.29028ZM8.78998 6.07028V4.52026H6.41998V5.22028C6.41998 5.53028 6.4 5.82029 6.38 6.08029H8.78998V6.07028ZM8.78998 3.62027V2.19028H6.41998V3.62027H8.78998Z" fill="#3E3A39"/>
<path d="M19.97 10.1005H18.95V9.36053H13.75V10.0705H12.72V1.29053H19.96V10.1005H19.97ZM18.95 4.74051V2.25052H13.75V4.74051H18.95ZM18.95 8.43051V5.71051H13.75V8.43051H18.95Z" fill="#3E3A39"/>
<path d="M25.47 1.51019C25.31 1.98019 25.17 2.38017 25.04 2.71017H27.23V0.930176H28.26V2.71017H32.11V3.6102H28.26V5.71017H31.61V6.57019H28.26V8.94019H32.31V9.84018H22.85V8.94019H27.23V6.57019H23.92V5.71017H27.23V3.6102H24.64C24.64 3.6102 24.61 3.65019 24.61 3.66019C24.38 4.16019 23.97 4.73018 23.38 5.40018L22.56 4.73019C23.06 4.18019 23.47 3.6502 23.79 3.1102C24.07 2.5702 24.31 1.93019 24.52 1.16019L25.46 1.51019H25.47Z" fill="#3E3A39"/>
<path d="M36.12 4.63055L35.51 5.56055C34.93 5.07055 34.35 4.68054 33.75 4.40054L34.27 3.62054C34.94 3.91054 35.55 4.25055 36.11 4.63055H36.12ZM36.53 6.65054C35.98 7.96054 35.36 9.10056 34.65 10.0706L33.86 9.21054C34.44 8.47054 35.03 7.42055 35.66 6.06055L36.52 6.65054H36.53ZM36.33 1.98056L35.71 2.92056C35.16 2.49056 34.6 2.15054 34.03 1.90054L34.56 1.12054C35.19 1.36054 35.78 1.65056 36.32 1.98056H36.33ZM43.08 1.82056C42.3 2.05056 41.4 2.22057 40.38 2.33057V3.77054H43.41V4.63055H40.38V6.06055H42.84V10.0706H41.85V9.44055H37.92V10.0706H36.93V6.06055H39.35V4.63055H36.32V3.77054H39.35V2.42056C38.63 2.47056 37.86 2.49054 37.05 2.49054L36.81 1.71054C39.1 1.71054 41.02 1.50057 42.62 1.08057L43.07 1.82056H43.08ZM41.85 8.62054V6.87054H37.92V8.62054H41.85Z" fill="#3E3A39"/>
<path d="M57.21 2.53033L57.15 3.53033H58.64V4.12033H57.11L57.05 5.10034H50.37L50.45 4.12033H48.98V3.53033H50.49L50.57 2.53033H57.21ZM54.4 1.44034H58.39V3.15033H57.45V2.15033H50.16V3.15033H49.22V1.44034H53.37C53.24 1.28034 53.12 1.12034 52.98 0.970337L54.01 0.860352C54.14 1.04035 54.27 1.23034 54.4 1.44034ZM57.49 5.49033V8.83035H55.45C56.33 8.98035 57.24 9.18035 58.19 9.45035L57.91 10.1903C56.86 9.84034 55.77 9.58034 54.64 9.41034L54.92 8.83035H52.76L53.03 9.18033C52.51 9.43033 52.03 9.61035 51.64 9.73035C51.16 9.87035 50.56 10.0103 49.85 10.1503L49.4 9.37033C50.09 9.27033 50.71 9.15032 51.23 9.02032C51.45 8.96032 51.66 8.90035 51.86 8.83035H50.09V5.49033H57.5H57.49ZM56.59 6.41034V6.06033H50.98V6.41034H56.59ZM56.59 7.35034V6.96033H50.98V7.35034H56.59ZM56.59 7.90033H50.98V8.25034H56.59V7.90033ZM53.23 4.52032L53.26 4.13034H51.33L51.3 4.52032H53.23ZM53.31 3.54034L53.34 3.11035H51.41L51.38 3.54034H53.31ZM54.09 4.52032H56.21L56.23 4.13034H54.12L54.09 4.52032ZM54.17 3.54034H56.26L56.29 3.11035H54.2L54.17 3.54034Z" fill="#3E3A39"/>
<path d="M63.81 1.36023V4.54022H62.91V5.78021H63.94V6.60022H62.91V8.32022C63.3 8.20022 63.7 8.07023 64.09 7.92023V8.82022C62.92 9.24022 61.61 9.57022 60.16 9.82022L60.04 8.88022C60.2 8.88022 60.34 8.85023 60.49 8.83023V5.23022H61.31V8.70023C61.54 8.66023 61.77 8.6102 62 8.5502V4.53021H60.69V1.35022H63.8L63.81 1.36023ZM62.91 2.18021H61.6V3.73022H62.91V2.18021ZM69.46 2.61023L66.42 2.9902C66.48 3.1302 66.56 3.25021 66.62 3.34021C66.68 3.45021 66.75 3.55023 66.83 3.64023C67.23 3.43023 67.65 3.16021 68.07 2.84021L68.73 3.31021C68.32 3.67021 67.89 3.98022 67.44 4.23022C67.5 4.28022 67.56 4.32023 67.62 4.36023C67.94 4.55023 68.22 4.64023 68.44 4.64023C68.59 4.64023 68.79 4.30022 69.02 3.63022L69.8 4.14023C69.52 4.79023 69.28 5.18023 69.07 5.33023C68.88 5.47023 68.68 5.54022 68.45 5.54022C68.1 5.54022 67.71 5.42023 67.25 5.17023C67 5.03023 66.77 4.87023 66.56 4.67023C65.97 4.91023 65.2 5.14022 64.23 5.38022L63.86 4.56021C64.71 4.40021 65.41 4.21022 65.98 4.01022C65.91 3.92022 65.84 3.82021 65.79 3.72021C65.69 3.56021 65.58 3.36023 65.48 3.11023L64.19 3.2702L64.06 2.53021L65.22 2.38022C65.1 2.01022 64.99 1.58021 64.88 1.09021L65.81 0.970215C65.91 1.48021 66.03 1.91022 66.15 2.26022L67.25 2.12021C67.08 1.90021 66.86 1.66023 66.6 1.39023L67.25 1.00021C67.6 1.26021 67.87 1.49023 68.07 1.67023L67.42 2.10022L69.34 1.86023L69.47 2.61023H69.46ZM69.54 6.53021L66.37 7.0502C66.45 7.3102 66.55 7.53021 66.65 7.71021C66.71 7.82021 66.79 7.92022 66.85 8.01022C67.3 7.73022 67.76 7.35023 68.22 6.89023L68.87 7.36023C68.42 7.86023 67.94 8.28021 67.42 8.62021C67.46 8.66021 67.49 8.69021 67.54 8.71021C67.9 8.9502 68.18 9.07022 68.39 9.07022C68.52 9.07022 68.6 9.04023 68.65 8.98022C68.72 8.92022 68.84 8.56022 69 7.91022L69.86 8.34021C69.64 9.12021 69.42 9.59022 69.21 9.79022C69.06 9.93022 68.86 10.0102 68.59 10.0102C68.12 10.0102 67.64 9.8302 67.14 9.4902C66.95 9.3602 66.79 9.22023 66.65 9.08023C66.07 9.36023 65.33 9.64021 64.42 9.93021L64.04 9.11023C64.86 8.91023 65.54 8.68023 66.09 8.42023C65.96 8.26023 65.86 8.08021 65.78 7.90021C65.66 7.69021 65.56 7.46023 65.48 7.20023L64.13 7.43021L64.01 6.69022L65.27 6.48022C65.19 6.12022 65.11 5.72022 65.07 5.29022H66.01C66.05 5.68022 66.11 6.03023 66.18 6.33023L67.03 6.19022C66.87 5.98022 66.68 5.74022 66.46 5.48022L67.04 5.12021C67.35 5.38021 67.6 5.61022 67.77 5.79022L67.24 6.16022L69.41 5.79022L69.54 6.53021Z" fill="#3E3A39"/>
<path d="M79.29 3.19043V4.01044H77.1C76.82 4.23044 76.53 4.41043 76.25 4.57043C76.62 5.02043 76.89 5.46042 77.06 5.87042C77.83 5.55042 78.56 5.07043 79.25 4.44043L79.98 5.11044C79.54 5.50044 79.07 5.83042 78.56 6.09042C78.79 6.61042 79.08 7.09042 79.42 7.52042C79.74 7.94042 80.21 8.39044 80.8 8.86044L80.14 9.68042C79.47 9.10042 78.92 8.51043 78.53 7.91043C78.23 7.50043 77.96 7.02042 77.75 6.49042C77.58 6.57042 77.44 6.63042 77.29 6.68042C77.38 7.11042 77.44 7.53043 77.44 7.94043C77.44 8.70043 77.32 9.22042 77.09 9.55042C76.84 9.90042 76.09 10.0804 74.86 10.0804L74.54 9.11044C74.54 9.11044 74.76 9.19043 75.12 9.19043C75.67 9.19043 76.02 9.12043 76.17 9.00043C76.34 8.81043 76.43 8.46044 76.43 7.95044C76.43 7.81044 76.42 7.66044 76.4 7.51044C75.81 7.95044 75.28 8.29044 74.8 8.51044C74.03 8.89044 73.08 9.26042 71.93 9.62042L71.4 8.76044C72.54 8.47044 73.54 8.12043 74.4 7.72043C75.08 7.40043 75.69 7.02042 76.23 6.59042C76.21 6.51042 76.18 6.42044 76.16 6.33044C76.13 6.24044 76.1 6.15041 76.06 6.05042C75.49 6.44041 74.98 6.73044 74.53 6.92044C73.86 7.22044 73.01 7.52041 71.98 7.80042L71.49 6.98044C72.5 6.76044 73.39 6.49044 74.15 6.17044C74.72 5.94044 75.23 5.67043 75.69 5.35043C75.61 5.23043 75.52 5.10043 75.43 4.97043C74.52 5.35043 73.46 5.67044 72.26 5.92044L71.73 5.10043C73.03 4.86043 74.06 4.61043 74.8 4.35043C75.11 4.24043 75.41 4.12043 75.68 4.00043H72.76V3.18042H79.31L79.29 3.19043ZM76.46 1.68042H80.56V3.70044H79.62V2.54044H72.46V3.70044H71.52V1.68042H75.39C75.26 1.48042 75.14 1.28042 75 1.09042L76.1 0.94043C76.23 1.16043 76.34 1.41042 76.47 1.68042H76.46Z" fill="#3E3A39"/>
<path d="M16.58 18.0005C16.44 18.2205 16.22 18.2905 15.78 18.2905H12.91C13.47 20.9105 15.12 23.5305 16.75 24.9005V25.0505C16 25.4605 15.25 26.1205 15.05 26.9005C13.88 25.0605 13.15 22.1605 12.74 19.4005H12.72V29.0905C12.72 29.2905 11.95 29.7205 11.31 29.7205H10.95V22.3105C9.91001 24.1505 8.49001 25.7405 6.70001 27.0405L6.5 26.8005C8.57 24.6105 9.97001 21.3905 10.63 18.2805H7.69C7.6 18.3005 7.5 18.3005 7.38 18.3005H5.21997V20.4605C7.23997 21.1205 7.89001 22.0605 7.89001 22.7705C7.89001 23.3505 7.45997 23.7705 6.96997 23.7705C6.71997 23.7705 6.43997 23.6505 6.21997 23.3605C6.16997 22.5305 5.73997 21.4605 5.21997 20.7405V29.2005C5.21997 29.2005 4.98001 29.7405 3.45001 29.7405V22.7505C2.70001 24.0205 1.77002 25.1605 0.650024 26.1705L0.429993 25.9305C1.88999 23.8705 2.84003 21.0305 3.34003 18.2805H0.690002L0.599976 17.9405H3.46002V13.7805L5.90997 14.0205C5.88997 14.2605 5.75998 14.3905 5.22998 14.4405V17.9405H5.71002L6.58002 16.7005L8.14001 17.9205H10.96V13.7705L13.42 14.0105C13.39 14.2505 13.23 14.3705 12.72 14.4305V17.9105H13.93L14.86 16.6405L16.58 17.9705V18.0005Z" fill="#C9A063"/>
<path d="M35.23 19.0503C35.09 19.2503 34.89 19.3403 34.4 19.3403H27.92C28.52 22.5503 30.45 25.7803 35.33 27.8103L35.3 28.0103C34.35 28.1803 33.77 28.7103 33.6 29.7803C29.38 27.2603 28.11 23.0103 27.65 19.5503H27.63C27.14 23.6303 25.49 27.2503 19.4 29.8003L19.23 29.5503C23.96 26.6303 25.32 23.1903 25.71 19.3503H19.34L19.24 19.0103H25.73C25.87 17.5503 25.87 16.3404 25.87 13.8604L28.61 14.1003C28.58 14.3403 28.46 14.4903 27.91 14.5403C27.88 16.0703 27.86 17.5703 27.71 19.0103H31.93L33.09 17.5303L35.25 19.0603L35.23 19.0503Z" fill="#C9A063"/>
<path d="M37.75 22.8905C39.06 20.8305 40.47 17.2105 41.25 13.7805L43.82 14.5805C43.75 14.7805 43.6 14.9005 43.14 14.9005C42.7 16.0905 42.19 17.2105 41.63 18.2505L42.31 18.4905C42.26 18.6405 42.11 18.7605 41.78 18.8105V29.2005C41.75 29.3405 41.02 29.7405 40.3 29.7405H39.96V20.8505C39.33 21.6705 38.67 22.4005 37.95 23.0305L37.75 22.8905ZM46.86 18.4005L47.91 18.5705C47.86 18.8105 47.71 18.8905 47.25 18.8905C46.77 20.5605 45.5 22.0205 42.54 22.7805L42.42 22.5305C44.39 21.6605 45.14 20.2205 45.41 18.6505L44.05 18.8905C43.93 19.0905 43.74 19.2105 43.56 19.2305L42.8 17.2405C43.38 17.2405 44.24 17.2405 45.28 17.2205C45.69 16.1505 46.13 14.7605 46.38 13.7705L49.1 14.6405C49.03 14.8305 48.86 14.9105 48.44 14.8805C47.81 15.5405 46.86 16.4405 45.96 17.2305C47.51 17.2005 49.38 17.1505 51.31 17.0905C50.9 16.5305 50.41 16.0005 49.9 15.6505L50 15.5105C52.79 15.8805 53.69 17.0405 53.69 17.9105C53.69 18.4905 53.28 18.9505 52.77 18.9505C52.55 18.9505 52.31 18.8705 52.07 18.6605C51.97 18.2705 51.78 17.8605 51.54 17.4505C50.77 17.6205 49.87 17.8105 48.84 18.0105L50.83 18.1605C50.81 18.3505 50.73 18.4305 50.32 18.5005V20.3405C50.32 20.5805 50.4267 20.7005 50.64 20.7005H52.02C52.46 20.7005 52.55 20.7005 53.09 19.4105H53.24L53.26 20.6005C53.79 20.8205 53.84 20.8705 53.84 21.0905C53.84 21.6805 53.31 21.9605 52.04 21.9605H50.43C49 21.9605 48.75 21.6405 48.75 20.3505V18.0405L46.86 18.4105V18.4005ZM50.75 22.4305L52.42 23.9105C52.3 24.0605 52.11 24.1105 51.72 24.1505C51.18 25.1905 50.46 26.0905 49.56 26.8505C50.77 27.3405 52.19 27.6705 53.88 27.8705L53.85 28.0605C53.12 28.3305 52.73 28.8805 52.63 29.7805C50.78 29.3205 49.38 28.6605 48.3 27.7705C46.79 28.6905 44.9 29.3505 42.64 29.7605L42.57 29.5205C44.54 28.9405 46.17 28.0905 47.43 26.9705C46.75 26.2605 46.21 25.4105 45.75 24.4705C44.87 25.3005 43.85 26.0305 42.76 26.5405L42.59 26.3705C44.02 25.2105 45.34 23.1405 45.94 21.3205L48.35 21.8505C48.3 22.0205 48.16 22.1005 47.7 22.0905C47.43 22.5105 47.12 22.9605 46.77 23.3805H49.73L50.77 22.4305H50.75ZM46.45 23.7205C46.31 23.8905 46.16 24.0405 45.99 24.2005C46.55 25.0005 47.3 25.6605 48.22 26.2105C48.87 25.4605 49.39 24.6505 49.78 23.7305H46.45V23.7205Z" fill="#C9A063"/>
</svg>
