<svg width="101" height="15" viewBox="0 0 101 15" fill="none" xmlns="http://www.w3.org/2000/svg">
<path d="M0.890137 13.6399C4.82014 11.3199 8.56014 6.79987 9.77014 3.26987C9.79014 3.21987 9.80011 3.16986 9.80011 3.13986C9.80011 3.08986 9.75014 3.05986 9.64014 3.05986C9.32014 3.05986 6.7801 3.34986 5.2901 3.64986C4.8901 3.72986 4.76015 3.78987 4.59015 3.90987C4.45015 4.00987 4.33011 4.12987 4.11011 4.12987C3.50011 4.12987 2.59015 3.21986 2.59015 2.52986C2.59015 2.07986 2.91011 1.85986 2.99011 1.85986C3.12011 2.76986 4.0301 2.76987 4.7301 2.76987C5.1901 2.76987 8.28013 2.55986 9.51013 2.39986C9.77013 2.36986 9.86011 2.29986 9.99011 2.17986C10.1701 2.01986 10.3301 1.85986 10.4901 1.85986C10.8301 1.85986 12.0201 2.76986 12.0201 3.05986C12.0201 3.27986 11.8001 3.35987 11.5401 3.43987C11.3201 3.53987 11.1901 3.70986 11.1101 3.86986C10.6001 4.90986 9.40014 6.93986 8.39014 8.17986C9.86014 8.89986 11.6601 10.0299 12.5801 10.9099C13.2701 11.5999 13.8601 12.3499 13.8601 12.9099C13.8601 13.3899 13.5601 13.8199 13.0801 13.8199C12.6501 13.8199 12.3501 13.3099 11.8301 12.4299C11.2401 11.4599 9.5001 9.48986 8.0401 8.57986C6.5401 10.4199 3.95015 12.6899 1.09015 13.9299L0.880127 13.6299L0.890137 13.6399Z" fill="white"/>
<path d="M16.0201 8.31001C19.0401 5.85001 20.4901 2.50001 20.4901 1.81001C20.4901 1.39001 19.8702 1.25002 19.5302 1.25002C19.6402 0.910015 19.8801 0.77002 20.3401 0.77002C21.0601 0.77002 22.4201 1.39001 22.4201 1.87001C22.4201 2.06001 22.2401 2.14002 22.1001 2.24002C21.9601 2.35002 21.8401 2.48002 21.6801 2.80002C21.5501 3.06002 21.4401 3.30002 21.2601 3.57002C21.4001 3.60002 21.5601 3.60002 21.7101 3.60002C22.2401 3.60002 24.0301 3.49002 24.9501 3.36002C25.3001 3.31002 25.3702 3.26002 25.5302 3.10002C25.6602 2.99002 25.8801 2.80002 25.9801 2.80002C26.3301 2.80002 27.4501 3.81001 27.4501 4.06001C27.4501 4.27001 27.2901 4.33001 27.0701 4.43001C26.8801 4.53001 26.6501 4.62002 26.5601 4.85002C26.1101 5.90002 25.2301 7.58002 24.6101 8.49002C25.2501 8.91002 26.3401 9.61001 26.3401 10.42C26.3401 10.82 26.0401 11.09 25.6401 11.09C25.2401 11.09 24.9801 10.66 24.7101 10.37C24.4701 10.11 24.1201 9.84001 23.8501 9.62001C22.4001 11.46 19.8701 13.44 16.6801 14.51L16.4601 14.19C19.1101 12.96 21.5201 10.82 22.9001 8.89001C22.1501 8.38001 21.0101 7.76001 19.5101 7.31001L19.6401 6.99002C21.1101 7.17002 22.6101 7.63002 23.4701 8.00002C24.7801 6.02002 25.3401 4.18002 25.3401 4.07002C25.3401 4.01002 25.3101 3.97002 25.2301 3.97002C24.6401 3.97002 21.9201 4.48001 21.5201 4.48001C21.3001 4.48001 21.0201 4.38001 20.8501 4.26001C19.8001 5.87001 18.4101 7.34002 16.2501 8.61002L16.0302 8.32002L16.0201 8.31001Z" fill="white"/>
<path d="M30.0801 5.66988C31.2501 6.14988 32.1901 7.27988 32.1901 8.15988C32.1901 8.63988 31.9501 8.96988 31.6201 8.96988C31.2501 8.96988 31.0601 8.78988 31.0401 8.40988C30.9801 7.59988 30.5301 6.58987 29.8701 5.86987L30.0801 5.65988V5.66988ZM32.0001 14.2599C37.2901 11.6399 38.4901 6.53988 38.4901 6.02988C38.4901 5.60988 38.0301 5.44988 37.6301 5.43988C37.6301 5.32988 37.8901 5.00987 38.3001 5.00987C39.0001 5.00987 40.0302 5.77988 40.0302 6.18988C40.0302 6.36988 39.8901 6.44988 39.7401 6.55988C39.6801 6.58988 39.6101 6.66989 39.5601 6.81989C38.4301 10.2399 36.1901 13.0199 32.1901 14.5699L32.0001 14.2699V14.2599ZM33.6901 4.87988C34.9201 5.65988 35.5101 6.68987 35.5101 7.44987C35.5101 8.11987 35.2501 8.48988 34.8701 8.48988C34.4901 8.48988 34.2901 8.26989 34.2901 7.81989C34.2701 7.03989 34.1501 6.04987 33.4401 5.03987L33.6801 4.87988H33.6901Z" fill="white"/>
<path d="M43.8601 14.0299C49.3701 11.9199 51.6901 7.25992 52.5401 3.44992C52.5401 3.41992 52.5601 3.38993 52.5601 3.34993C52.5601 3.26993 52.5101 3.26993 52.3701 3.26993C52.1301 3.26993 45.9301 3.64993 44.8601 4.07993C44.5101 4.20993 44.4301 4.29993 44.1101 4.29993C43.4701 4.29993 42.6201 3.30992 42.6201 2.58992C42.6201 2.26992 42.8101 2.00992 43.0401 1.91992L43.0601 1.93993C43.1201 2.25993 43.3801 2.59993 43.6501 2.73993C43.9101 2.87993 44.3201 2.89992 44.8001 2.89992C46.2501 2.89992 51.0801 2.65993 52.1301 2.54993C52.5901 2.49993 52.8201 1.98993 53.0901 1.98993C53.5201 1.98993 54.7501 3.00992 54.7501 3.27992C54.7501 3.43992 54.5401 3.53993 54.3701 3.62993C54.1601 3.73993 54.0301 3.80992 53.9701 4.02992C52.7101 8.35992 50.2601 12.5299 44.0701 14.3199L43.8801 14.0199L43.8601 14.0299Z" fill="white"/>
<path d="M64.8901 6.48981C65.8001 6.42981 66.8101 6.3598 67.4101 6.3098C68.0801 6.2598 68.4201 6.2498 68.8801 5.8298C69.6301 5.8898 70.8101 6.41981 70.8101 6.84981C70.8101 7.22981 70.5201 7.26981 70.0401 7.26981C69.6901 7.26981 68.7901 7.18981 68.2301 7.15981C67.8501 7.12981 67.4001 7.1098 66.8901 7.1098C66.2701 7.1098 65.5601 7.1398 64.8301 7.1898C64.4801 10.4498 63.3101 12.9398 59.3801 14.5498L59.1601 14.2798C62.1201 12.5698 63.3301 10.1898 63.5901 7.2798C62.9001 7.3398 60.0401 7.5998 59.3101 7.8898C58.9901 8.0198 58.8301 8.17979 58.6101 8.17979C57.9101 8.17979 57.0401 7.36981 57.0401 6.73981C57.0401 6.47981 57.1701 6.1598 57.3401 6.0498L57.4001 6.06981C57.5401 6.89981 58.1801 6.8998 59.1901 6.8998C59.7001 6.8998 61.7601 6.7198 63.6301 6.5798C63.6801 6.0798 63.6901 5.5598 63.6901 5.0598C63.6901 3.9298 63.6701 3.6498 63.5101 3.5098C61.8501 3.8498 59.7401 4.14981 57.8901 4.23981L57.8301 3.9198C60.7401 3.4598 63.8001 2.6598 65.2901 2.0498C65.9001 1.8098 65.9801 1.7598 65.9801 1.5098C65.9801 1.3298 65.6901 1.1598 65.3101 1.0898L65.2901 1.06981C65.2901 0.959809 65.5801 0.799805 65.8701 0.799805C66.6401 0.799805 67.9801 1.6798 67.9801 2.2998C67.9801 2.6198 67.4501 2.5098 67.1301 2.6198C66.4301 2.8398 65.4801 3.0698 64.6701 3.2598C64.9601 3.4498 65.2101 3.6798 65.2101 3.8398C65.2101 3.9798 65.1501 4.09981 65.0801 4.15981C65.0001 4.26981 65.0001 4.41981 64.9701 4.73981L64.8701 6.4798L64.8901 6.48981Z" fill="white"/>
<path d="M82.5101 7.03C83.6301 7.03 84.2201 6.89 84.4601 6.89C85.2101 6.91 86.3301 7.16 86.3301 7.62C86.3301 7.94 85.9801 8.10001 85.3101 8.10001C84.7301 8.10001 81.8901 8.05 81.2501 8.05C79.4801 8.05 75.5801 8.05 74.7601 8.39C74.5401 8.47 74.3301 8.61 74.0701 8.61C73.4101 8.61 72.3101 7.54 72.3101 6.88C72.3101 6.46 72.3901 6.23 72.6101 6.02L72.7201 6C72.9001 6.86 73.6301 7.02 75.1801 7.02H82.5001L82.5101 7.03Z" fill="white"/>
<path d="M96.2301 7.77986C98.8001 9.11986 100.99 11.5499 100.99 12.9099C100.99 13.5799 100.81 14.0299 100.24 14.0299C99.7401 14.0299 99.5401 13.5699 99.3301 12.8299C99.2701 12.6199 99.1901 12.3499 99.0901 12.1099C96.5801 12.5599 92.6401 13.0999 90.6401 13.3699C90.1001 13.4499 89.9501 13.7899 89.4701 13.7899C88.8301 13.7899 87.9501 12.6599 87.9501 12.1099C87.9501 11.8499 88.0601 11.4399 88.3301 11.3399C88.4301 11.7099 88.5701 11.9799 88.9201 12.1699C89.0301 12.2299 89.1901 12.2499 89.4001 12.2499C89.5901 12.2499 89.8301 12.2299 90.1201 12.2199C91.4601 8.78986 92.9301 3.31986 92.9301 2.53986C92.9301 1.75986 91.9701 1.70986 91.7601 1.71986L91.7401 1.66986C91.8801 1.34986 92.3502 1.10986 92.7802 1.10986C93.5902 1.10986 94.9201 1.75986 94.9201 2.39986C94.9201 2.58986 94.7001 2.73986 94.5701 2.82986C94.4401 2.93986 94.3502 3.16986 94.2802 3.36986C93.4002 6.04986 92.1901 9.40986 90.8001 12.1699C92.3501 12.1099 96.3801 11.8199 98.8401 11.5799C98.2301 10.3799 97.1101 8.87986 96.0001 8.02986L96.2201 7.75986L96.2301 7.77986Z" fill="white"/>
</svg>
