<?xml version="1.0" encoding="utf-8"?>
<!-- Generator: Adobe Illustrator 25.2.3, SVG Export Plug-In . SVG Version: 6.00 Build 0)  -->
<svg version="1.1" id="圖層_1" xmlns="http://www.w3.org/2000/svg" xmlns:xlink="http://www.w3.org/1999/xlink" x="0px" y="0px"
	 viewBox="0 0 200 75" style="enable-background:new 0 0 200 75;" xml:space="preserve">
<style type="text/css">
	.st0{fill:#3E3A39;}
</style>
<path class="st0" d="M10.6,1v1H6.1C6,2.5,5.9,3,5.7,3.5h4.1v7.6H8.7v-0.8H2.2v0.8H1.1V3.5h3.4C4.7,3,4.8,2.5,4.9,2H0.4V1H10.6z
	 M8.7,6.4V4.6H2.2v1.8C2.2,6.4,8.7,6.4,8.7,6.4z M8.7,9.4V7.3H2.2v2.1H8.7z"/>
<path class="st0" d="M17.5,1.1c-0.1,0.3-0.3,0.5-0.4,0.8h7.1v0.9h-3.7v1.7h3.4v0.9h-3.4v2.3h3.8v1h-3.8v2.4h-1.1V8.7H14v-1h1.8V4.5
	h3.7V2.8h-2.9c-0.1,0.1-0.2,0.2-0.3,0.3c-0.5,0.6-1.1,1.2-1.8,1.7l-0.6-1C14.5,3.5,15,3,15.5,2.4c0.4-0.5,0.8-1.1,1.2-1.9L17.5,1.1z
	 M19.4,5.4h-2.6v2.3h2.6V5.4z"/>
<path class="st0" d="M32.5,1.4V0.6h1v0.8h2.7v1.7h0.6V4h-0.6v1.7h-2.7v0.7h2.8v0.8h-2.8V8h3.3v0.9h-3.3v1c0.2,0,0.3,0,0.5,0
	c1.3,0,2.4,0,3-0.1L36.8,11c-3.6,0-5.7-0.1-6.5-0.2c-0.7-0.2-1.3-0.5-1.7-0.8l-0.1-0.1c-0.4,0.5-0.9,0.9-1.5,1.5l-0.6-1.1
	C27,9.9,27.5,9.4,27.8,9c-0.3-0.6-0.7-1.4-1.1-2.4l0.9-0.3c0.3,0.7,0.5,1.2,0.7,1.6c0,0,0-0.1,0.1-0.2c0.1-0.5,0.3-1.2,0.3-2.1h-2
	V4.9c0.7-0.8,1.3-1.7,1.9-2.7h-2.1V1.3h3.3v1c-0.7,1.1-1.2,1.9-1.8,2.5h1.7c0,1.3-0.2,2.3-0.4,3.1c-0.1,0.4-0.2,0.7-0.4,1
	c0.3,0.3,0.7,0.6,1.2,0.7c0.4,0.1,1.2,0.2,2.2,0.3V9h-2.7V8.1h2.7V7.3h-2.2V6.5h2.2V5.8h-2.1V5h2.1V4.1h-2.7V3h2.7V2.1h-2.1V1.3h2.3
	V1.4z M33.5,3h1.7V2.1h-1.7V3z M33.5,4.8h1.7V3.9h-1.7V4.8z"/>
<path class="st0" d="M50.3,11h-1v-0.4h-7.7V11h-1V0.8h9.7V11z M49.3,9.8v-8h-7.7v8H49.3z M45.8,8.2c-1,0.3-2.2,0.5-3.6,0.8L42,8
	c1.3-0.1,2.6-0.3,3.8-0.7V8.2z M45.7,3c0-0.3,0-0.7,0-1.1h0.9c0,0.4,0,0.7,0,1.1h1.1c-0.1-0.3-0.3-0.6-0.4-0.9l0.8-0.3
	c0.2,0.3,0.4,0.6,0.5,1l-0.5,0.1H49v0.9h-2.3c0,0.7,0.1,1.3,0.2,1.8C47,6,47,6.3,47.1,6.7c0.3-0.6,0.7-1.4,1.1-2.5L49,4.7
	c-0.5,1.4-1,2.4-1.4,3c0,0.1,0.1,0.1,0.1,0.2c0.2,0.4,0.3,0.5,0.5,0.5c0.1,0,0.2-0.4,0.3-1.3l0.9,0.7c-0.3,0.9-0.4,1.4-0.6,1.5
	c-0.1,0.2-0.3,0.3-0.5,0.3c-0.3,0-0.6-0.2-1-0.6c-0.1-0.1-0.2-0.3-0.3-0.4c-0.4,0.4-0.8,0.8-1.3,1.2l-0.5-0.7c0.6-0.4,1-0.9,1.4-1.3
	c-0.2-0.4-0.3-0.8-0.4-1.3c-0.2-0.6-0.3-1.4-0.3-2.4H42V3H45.7z M45.1,4.5v2.7h-2.7V4.5H45.1z M44.3,5.2h-1.1v1.1h1.1V5.2z"/>
<path class="st0" d="M64,11h-1v-0.4h-7.7V11h-1V0.8H64V11z M63,9.8v-8h-7.7v8H63z M59.4,8.2c-1,0.3-2.2,0.5-3.6,0.8l-0.2-1
	c1.3-0.1,2.6-0.3,3.8-0.7V8.2z M59.3,3c0-0.3,0-0.7,0-1.1h0.9c0,0.4,0,0.7,0,1.1h1.1c-0.1-0.3-0.3-0.6-0.4-0.9l0.8-0.3
	c0.2,0.3,0.4,0.6,0.5,1l-0.5,0.1h0.9v0.9h-2.3c0,0.7,0.1,1.3,0.2,1.8c0.1,0.4,0.1,0.7,0.2,1.1c0.3-0.6,0.7-1.4,1.1-2.5l0.8,0.5
	c-0.5,1.4-1,2.4-1.4,3c0,0.1,0.1,0.1,0.1,0.2c0.2,0.4,0.3,0.5,0.5,0.5c0.1,0,0.2-0.4,0.3-1.3L63,7.8c-0.3,0.9-0.4,1.4-0.6,1.5
	c-0.1,0.2-0.3,0.3-0.5,0.3c-0.3,0-0.6-0.2-1-0.6c-0.1-0.1-0.2-0.3-0.3-0.4c-0.4,0.4-0.8,0.8-1.3,1.2l-0.5-0.7c0.6-0.4,1-0.9,1.4-1.3
	C60,7.4,59.9,7,59.8,6.5c-0.2-0.6-0.3-1.4-0.3-2.4h-3.7V3H59.3z M58.7,4.5v2.7H56V4.5H58.7z M57.9,5.2h-1.1v1.1h1.1V5.2z"/>
<path class="st0" d="M69.1,3.1c-0.5,2.2-1.1,4.1-1.9,5.7l-1.1-0.7C67,6.5,67.6,4.8,68,2.9L69.1,3.1z M72.1,0.7v9
	c0,0.5-0.1,0.8-0.3,1c-0.2,0.2-0.6,0.3-1.1,0.3H69l-0.3-1.3c0.7,0.1,1.2,0.1,1.7,0.1c0.3,0,0.5-0.1,0.5-0.3V0.8L72.1,0.7L72.1,0.7z
	 M76.7,8.7L75.5,9c-0.4-2-1-3.9-1.7-5.8l1.1-0.4C75.5,4.5,76.1,6.5,76.7,8.7z"/>
<path class="st0" d="M84.8,7.5c-0.2-0.4-0.6-0.8-1-1.3c-0.3-0.3-0.7-0.7-1.3-1.2l0.7-0.6c0.4,0.3,0.8,0.7,1.4,1.2
	c0.3,0.3,0.7,0.8,1.1,1.3L84.8,7.5z"/>
<path class="st0" d="M97.4,1.4V0.6h1v0.8h2.7v1.7h0.6V4h-0.6v1.7h-2.7v0.7h2.8v0.8h-2.8V8h3.3v0.9h-3.3v1c0.2,0,0.3,0,0.5,0
	c1.3,0,2.4,0,3-0.1l-0.2,1.2c-3.6,0-5.7-0.1-6.5-0.2c-0.7-0.2-1.3-0.5-1.7-0.8l-0.1-0.1c-0.4,0.5-0.9,0.9-1.5,1.5l-0.6-1.1
	c0.6-0.4,1.1-0.9,1.4-1.3c-0.3-0.6-0.7-1.4-1.1-2.4l0.9-0.3C92.8,7,93,7.5,93.2,7.9c0,0,0-0.1,0.1-0.2c0.1-0.5,0.3-1.2,0.3-2.1h-2
	V4.9c0.7-0.8,1.3-1.7,1.9-2.7h-2.1V1.3h3.3v1c-0.7,1.1-1.2,1.9-1.8,2.5h1.7c0,1.3-0.2,2.3-0.4,3.1c-0.1,0.4-0.2,0.7-0.4,1
	c0.3,0.3,0.7,0.6,1.2,0.7c0.4,0.1,1.2,0.2,2.2,0.3V9h-2.7V8.1h2.7V7.3H95V6.5h2.2V5.8h-2.1V5h2.1V4.1h-2.7V3h2.7V2.1h-2.1V1.3h2.3
	V1.4z M98.4,3h1.7V2.1h-1.7V3z M98.4,4.8h1.7V3.9h-1.7V4.8z"/>
<path class="st0" d="M108.5,3.7c-0.4,0.7-0.8,1.3-1.2,1.8V11h-1V6.5c-0.3,0.3-0.7,0.6-1.1,0.9l-0.3-1.2c0.6-0.4,1-0.8,1.5-1.3
	c0.4-0.4,0.9-1,1.3-1.7L108.5,3.7z M108.4,1.1c-0.4,0.6-0.8,1-1.2,1.4c-0.4,0.4-1,0.8-1.7,1.2L105,2.8c0.5-0.2,1-0.5,1.4-0.9
	c0.3-0.3,0.7-0.7,1-1.2L108.4,1.1z M109.6,7.9c-0.3,1.1-0.6,2.1-1,2.9l-0.9-0.6c0.4-0.8,0.8-1.6,0.9-2.5L109.6,7.9z M115.6,6.2v0.9
	h-7.3V6.2H115.6z M111.4,1.3V0.7h1v0.6h2.9v0.9h-2.9v0.6h2.6v2.8h-6.3V2.8h2.6V2.2h-2.8V1.3H111.4z M110.6,3.8h-0.9v1h0.9V3.8z
	 M110.9,7.9v1.7c0,0.2,0.1,0.4,0.4,0.4h1.4c0.2,0,0.3,0,0.4-0.1s0.1-0.3,0.2-0.8l1,0.3c-0.1,0.7-0.2,1.2-0.4,1.3
	c-0.2,0.1-0.5,0.2-1,0.2H111c-0.3,0-0.6-0.1-0.7-0.3c-0.2-0.2-0.3-0.4-0.3-0.7v-2C110,7.9,110.9,7.9,110.9,7.9z M113.2,8.5l-0.7,0.7
	c-0.3-0.4-0.7-0.8-1.3-1.3l0.7-0.6C112.4,7.7,112.9,8.1,113.2,8.5z M112.4,3.8h-0.9v1h0.9V3.8z M114.2,3.8h-0.9v1h0.9V3.8z
	 M115.7,9.9l-0.9,0.6c-0.2-0.8-0.6-1.6-1-2.6l0.8-0.4C115,8.4,115.4,9.2,115.7,9.9z"/>
<path class="st0" d="M128.9,11h-1v-0.4h-7.7V11h-1V0.8h9.7V11z M127.9,9.8v-8h-7.7v8H127.9z M124.3,8.2c-1,0.3-2.2,0.5-3.6,0.8
	l-0.2-1c1.3-0.1,2.6-0.3,3.8-0.7V8.2z M124.2,3c0-0.3,0-0.7,0-1.1h0.9c0,0.4,0,0.7,0,1.1h1.1c-0.1-0.3-0.3-0.6-0.4-0.9l0.8-0.3
	c0.2,0.3,0.4,0.6,0.5,1l-0.5,0.1h0.9v0.9h-2.3c0,0.7,0.1,1.3,0.2,1.8c0.1,0.4,0.1,0.7,0.2,1.1c0.3-0.6,0.7-1.4,1.1-2.5l0.8,0.5
	c-0.5,1.4-1,2.4-1.4,3c0,0.1,0.1,0.1,0.1,0.2c0.2,0.4,0.3,0.5,0.5,0.5c0.1,0,0.2-0.4,0.3-1.3l0.9,0.7c-0.3,0.9-0.4,1.4-0.6,1.5
	c-0.1,0.2-0.3,0.3-0.5,0.3c-0.3,0-0.6-0.2-1-0.6c-0.1-0.1-0.2-0.3-0.3-0.4c-0.4,0.4-0.8,0.8-1.3,1.2l-0.5-0.7c0.6-0.4,1-0.9,1.4-1.3
	c-0.2-0.4-0.3-0.8-0.4-1.3c-0.2-0.6-0.3-1.4-0.3-2.4h-3.7V3H124.2z M123.6,4.5v2.7h-2.7V4.5H123.6z M122.8,5.2h-1.1v1.1h1.1V5.2z"/>
<path class="st0" d="M135.4,3.1c-0.5,2.2-1.1,4.1-1.9,5.7l-1.1-0.7c0.9-1.6,1.5-3.3,1.9-5.2L135.4,3.1z M138.4,0.7v9
	c0,0.5-0.1,0.8-0.3,1S137.5,11,137,11h-1.8l-0.3-1.3c0.7,0.1,1.2,0.1,1.7,0.1c0.3,0,0.5-0.1,0.5-0.3V0.8L138.4,0.7L138.4,0.7z
	 M142.9,8.7L141.7,9c-0.4-2-1-3.9-1.7-5.8l1.1-0.4C141.8,4.5,142.4,6.5,142.9,8.7z"/>
<path class="st0" d="M151,7.5c-0.2-0.4-0.6-0.8-1-1.3c-0.3-0.3-0.7-0.7-1.3-1.2l0.7-0.6c0.4,0.3,0.8,0.7,1.4,1.2
	c0.3,0.3,0.7,0.8,1.1,1.3L151,7.5z"/>
<path class="st0" d="M2.8,23.6h1v0.9c-0.4,0.8-0.7,1.5-1.1,2.1c0.4,0.3,0.8,0.7,1.2,1.1l-0.5,0.9c-0.3-0.3-0.6-0.7-0.9-0.9v4.7h-1
	v-4.2c-0.3,0.4-0.7,0.7-1.1,1.1L0.1,28c0.6-0.5,1.1-1,1.4-1.4c0.4-0.4,0.7-1,1.2-2H0.3v-1h1.5c-0.2-0.6-0.4-1.2-0.7-1.7l1.1-0.1
	C2.4,22.3,2.6,22.9,2.8,23.6z M10.5,22v0.9H4.1V22H10.5z M10.4,32.3h-1v-0.5H5.1v0.5h-1V27h6.3V32.3z M10.1,23.6v2.7H4.6v-2.7H10.1z
	 M6.8,29v-1.1H5.1V29H6.8z M6.8,31v-1.3H5.1V31H6.8z M9.1,24.5H5.6v1h3.5V24.5z M7.8,29h1.7v-1.1H7.8V29z M9.5,31v-1.3H7.8V31H9.5z"
	/>
<path class="st0" d="M22.9,28.4v2.1h-1.4c-0.1,0.3-0.3,0.5-0.5,0.8h3v0.9H13.5v-0.9h2.9c-0.2-0.3-0.3-0.5-0.4-0.8h-1.4v-2.1
	C14.6,28.4,22.9,28.4,22.9,28.4z M23.9,27.1v0.8H13.7v-0.8H23.9z M15,22v3.9h1.3v-0.6h-1v-0.6h1v-0.5h-0.8v-0.7h0.8V23h-0.9v-0.6
	h0.9v-0.5h0.8v0.5H18V23h-0.9v0.5h0.8v0.7h-0.8v0.5H18v0.6h-0.9v0.6h1.3v-4.1h0.9v4.1h1.3v-0.6h-1v-0.6h1v-0.5h-0.8v-0.7h0.8V23
	h-0.9v-0.6h0.9v-0.5h0.8v0.5h0.9V23h-0.9v0.5h0.7v0.7h-0.7v0.5h0.9v0.6h-0.9v0.6h1.2V22h0.9v4.6h-9.4V22H15z M21.9,29.1h-6.4v0.6
	h6.4V29.1z M20.1,31.2c0.2-0.3,0.4-0.5,0.5-0.8H17c0.1,0.3,0.2,0.5,0.4,0.8H20.1z"/>
<path class="st0" d="M37,32.2h-1v-0.4h-7.7v0.4h-1V22H37V32.2z M36,31v-8h-7.7v8H36z M32.5,29.4c-1,0.3-2.2,0.5-3.6,0.8l-0.2-1
	c1.3-0.1,2.6-0.3,3.8-0.7V29.4z M32.4,24.2c0-0.3,0-0.7,0-1.1h0.9c0,0.4,0,0.7,0,1.1h1.1c-0.1-0.3-0.3-0.6-0.4-0.9l0.8-0.3
	c0.2,0.3,0.4,0.6,0.5,1l-0.5,0.1h0.9V25h-2.3c0,0.7,0.1,1.3,0.2,1.8c0.1,0.4,0.1,0.7,0.2,1.1c0.3-0.6,0.7-1.4,1.1-2.5l0.8,0.5
	c-0.5,1.4-1,2.4-1.4,3c0,0.1,0.1,0.1,0.1,0.2c0.2,0.4,0.3,0.5,0.5,0.5c0.1,0,0.2-0.4,0.3-1.3L36,29c-0.3,0.9-0.4,1.4-0.6,1.5
	c-0.1,0.2-0.3,0.3-0.5,0.3c-0.3,0-0.6-0.2-1-0.6c-0.1-0.1-0.2-0.3-0.3-0.4c-0.4,0.4-0.8,0.8-1.3,1.2l-0.5-0.7c0.6-0.4,1-0.9,1.4-1.3
	c-0.2-0.4-0.3-0.8-0.4-1.3c-0.2-0.6-0.3-1.4-0.3-2.4h-3.7v-0.9h3.6V24.2z M31.8,25.7v2.7h-2.7v-2.7H31.8z M31,26.4h-1.1v1.1H31V26.4
	z"/>
<path class="st0" d="M59.2,28.3c-0.2,0.2-0.5,0.5-0.9,0.7l-0.4-0.6c0.5-0.3,0.9-0.6,0.9-1h-0.7V26h1.4v1.1
	C59.5,27.6,59.4,28,59.2,28.3z"/>
<path class="st0" d="M68.7,23.4c-0.1-0.4-0.3-0.8-0.5-1.2l1-0.1c0.1,0.4,0.3,0.8,0.4,1.3h0.8c0.1-0.5,0.2-1,0.3-1.6l1,0.1
	c-0.1,0.5-0.2,1-0.3,1.4H76c-0.1,0.8-0.2,1.5-0.3,2h1.1c-0.1,0.8-0.2,1.5-0.3,2h0.9c0,2.6-0.3,4-0.7,4.4c-0.2,0.3-1,0.5-2.3,0.5
	l-0.2-1.1c0.3,0.1,0.6,0.1,0.9,0.1c0.4,0,0.8-0.1,1-0.3c0.2-0.2,0.3-1.1,0.4-2.7h-6.9c-0.5,0.7-1,1.4-1.6,1.9l-0.9-0.6
	c1.5-1.4,2.7-3.2,3.3-5.2h-2.8v-1L68.7,23.4L68.7,23.4z M70.2,29.3c-0.3,1.1-0.7,2.1-1.3,2.9L68,31.6c0.6-0.8,0.9-1.6,1.2-2.5
	L70.2,29.3z M69.9,27.4h5.4c0.1-0.3,0.1-0.7,0.2-1.1h-5.1C70.3,26.7,70.1,27.1,69.9,27.4z M71.9,32l-1.1,0.1c0-1.2-0.1-2.2-0.2-2.8
	l0.9-0.1C71.7,29.9,71.9,30.8,71.9,32z M70.9,25.4h3.8c0.1-0.3,0.1-0.6,0.2-1h-3.6C71.1,24.7,71,25.1,70.9,25.4z M73.9,31.2l-1,0.2
	c-0.2-0.8-0.4-1.5-0.6-2.2l0.9-0.3C73.4,29.6,73.7,30.4,73.9,31.2z M75.5,30.5l-0.9,0.3c-0.2-0.6-0.4-1.3-0.6-1.9l0.8-0.2
	C75.1,29.4,75.3,29.9,75.5,30.5z"/>
<path class="st0" d="M84.1,22.3v0.8c-0.3,0.6-0.7,1.4-1.3,2.4v1.2c0.4-0.2,0.7-0.4,1.1-0.7v1.2c-0.4,0.3-0.7,0.5-1.1,0.7v3.4
	c0,0.3-0.1,0.6-0.2,0.7c-0.2,0.2-0.4,0.3-0.7,0.3h-1.2l-0.1-1.1c0.3,0.1,0.6,0.1,0.9,0.1c0.2,0,0.3-0.1,0.3-0.4v-2.5
	c-0.4,0.2-0.9,0.4-1.3,0.5l-0.1-1.2c0.5-0.1,0.9-0.2,1.4-0.4v-1.9c0.5-0.7,0.9-1.3,1.3-2.1h-2.7v-0.9h3.7L84.1,22.3L84.1,22.3z
	 M90.6,26.8c-0.6,1-1.2,1.9-1.9,2.6c0.7,0.6,1.4,1.2,2.1,1.9l-0.6,0.9c-0.7-0.9-1.4-1.6-2.2-2.2c-0.1,0.1-0.1,0.1-0.2,0.2
	c-0.9,0.8-2.1,1.5-3.7,2.1l-0.6-0.9c1.5-0.5,2.7-1.2,3.6-2c0.8-0.6,1.7-1.7,2.6-3.2L90.6,26.8z M88,22.9h2.8v1h-3.3
	c-0.3,0.6-0.6,1.3-1.2,2c0.6,0,1.1,0,1.5-0.1c0.2-0.4,0.5-0.8,0.7-1.2l0.9,0.4c-0.6,1.2-1.3,2.2-2.1,3c-0.7,0.7-1.6,1.3-2.8,1.7
	l-0.6-0.9c1.1-0.5,2-1,2.7-1.7c0.2-0.1,0.3-0.3,0.5-0.5c-0.8,0.1-1.7,0.1-2.9,0.2l-0.1-1c0.3,0,0.7,0,1,0c0.5-0.6,1-1.3,1.3-2h-2.1
	v-1h2.6c-0.1-0.3-0.3-0.7-0.5-1l1.1-0.1C87.7,22.1,87.9,22.5,88,22.9z"/>
<path class="st0" d="M102.9,22.3v0.9c-0.6,0.7-1.7,1.5-3.3,2.6v0.8h4.4v1.1h-4.4v3.6c0,0.3-0.1,0.6-0.2,0.8
	c-0.2,0.2-0.5,0.3-0.8,0.3h-2.2l-0.1-1.2c0.7,0.1,1.3,0.1,1.7,0.1c0.2,0,0.3-0.1,0.3-0.4v-3.2h-4.7v-1.1h4.7v-1.4
	c1.1-0.6,2.1-1.2,3-1.8h-6.5v-1L102.9,22.3L102.9,22.3z"/>
<path class="st0" d="M109.7,22.2c-0.2,0.8-0.4,1.5-0.7,2.1v8.1h-1v-6.1c-0.3,0.4-0.5,0.8-0.8,1.2l-0.4-1.3c0.4-0.6,0.7-1.2,1-1.9
	c0.3-0.6,0.6-1.4,0.9-2.5L109.7,22.2z M111,23.5v-1.7h1v1.7h1.4v1H112v2.2h0.8l-0.3-0.4c0.5-0.7,0.9-1.4,1.2-2
	c0.3-0.6,0.5-1.5,0.6-2.5l1,0.1c-0.1,0.6-0.2,1.2-0.4,1.6h2.4v1h-0.6c-0.2,1.9-0.6,3.4-1,4.5c0,0.1-0.1,0.1-0.1,0.2
	c0.4,0.9,1,1.6,1.8,2.2l-0.6,0.9c-0.7-0.6-1.3-1.3-1.7-2c-0.4,0.7-1,1.4-1.6,2l-0.6-0.8c0.7-0.7,1.2-1.4,1.7-2.3
	c-0.4-0.8-0.7-1.8-0.9-2.8c-0.2,0.3-0.3,0.5-0.5,0.8l-0.1-0.2v4.3h-3.3v-4.6h1.2v-2.2h-1.4v-1C109.6,23.5,111,23.5,111,23.5z
	 M112.1,27.6h-1.3v2.7h1.3V27.6z M115.2,28c0.3-0.9,0.5-2.1,0.7-3.4h-1.3v0.1c-0.1,0.2-0.1,0.3-0.2,0.5
	C114.6,26.2,114.9,27.2,115.2,28z"/>
<path class="st0" d="M121.6,23.7c0.1-0.6,0.2-1.2,0.3-1.9l1,0.1c-0.1,0.6-0.2,1.2-0.3,1.8h2.2v1c-0.1,1.3-0.3,2.4-0.6,3.3
	c-0.1,0.5-0.3,0.9-0.5,1.3c0.5,0.4,0.9,0.7,1.4,1.1l-0.6,0.9c-0.4-0.4-0.8-0.7-1.3-1.1c-0.5,0.7-1.2,1.4-2.2,2.2l-0.8-0.9
	c0.9-0.6,1.6-1.3,2.1-2c-0.6-0.4-1.2-0.7-1.8-1.1c0.4-1.2,0.7-2.4,1-3.7h-1.2v-1C120.3,23.7,121.6,23.7,121.6,23.7z M121.7,28
	c0.4,0.2,0.7,0.4,1,0.7c0,0,0,0,0-0.1c0.4-0.9,0.7-2.2,0.9-3.9h-1.3C122.2,25.9,122,27,121.7,28z M130.5,22.3v1.1
	c-0.6,0.8-1.2,1.5-1.9,2.2v1h2.3v1.1h-2.3v3.7c0,0.3-0.1,0.5-0.2,0.7c-0.2,0.2-0.4,0.3-0.7,0.3h-1.9l-0.2-1.1c0.5,0,1,0,1.5,0
	c0.2,0,0.4-0.1,0.4-0.3v-3.4h-2.6v-1.1h2.6v-1.3c0.6-0.4,1.1-1,1.8-1.8h-4.1v-1.1C125.2,22.3,130.5,22.3,130.5,22.3z"/>
<path class="st0" d="M139.2,22c-0.2,0.3-0.3,0.7-0.5,0.9h1.5c-0.2-0.3-0.3-0.7-0.5-1l1.1-0.1c0.2,0.3,0.3,0.7,0.5,1.1h2.5v0.9h-2.5
	v0.7h2.2v0.9h-2.2v0.7h2.2V27h-2.2v0.7h2.7v0.9h-4.7v0.8h4.8v1h-4.8v2h-1.1v-2h-4.8v-1h4.8v-0.8H137v-3c-0.1,0.2-0.3,0.3-0.4,0.4
	l-0.7-0.9c1-1,1.7-2.1,2.2-3.3L139.2,22z M135.9,25l-0.6,1c-0.6-0.4-1.2-0.8-1.7-1l0.5-0.9C134.7,24.3,135.3,24.6,135.9,25z
	 M136.4,26.7c-0.5,0.9-1.1,1.7-1.8,2.5l-0.8-0.9c0.7-0.7,1.3-1.5,1.8-2.4L136.4,26.7z M136.8,22.9l-0.6,0.9
	c-0.6-0.4-1.3-0.8-1.9-1.1l0.5-0.8C135.5,22.3,136.2,22.6,136.8,22.9z M140.3,23.9h-2.1c0,0.1-0.1,0.1-0.1,0.1v0.5h2.2L140.3,23.9
	L140.3,23.9z M140.3,25.4h-2.2v0.7h2.2V25.4z M140.3,26.9h-2.2v0.7h2.2V26.9z"/>
<path class="st0" d="M150,22.2c-0.3,0.9-0.6,1.7-0.9,2.4v7.6h-1v-5.9c-0.3,0.4-0.6,0.8-0.9,1.1l-0.4-1.3c0.4-0.6,0.8-1.2,1.2-1.9
	c0.3-0.6,0.7-1.4,1-2.5L150,22.2z M151.6,22.7v-0.9h1v0.9h1.9v-0.9h1v0.9h1.7v0.9h-1.7v1h2v0.9h-6.2v0.6c0,1.3-0.1,2.4-0.2,3.2
	c-0.2,0.8-0.5,1.7-0.9,2.6l-0.9-0.8c0.4-0.7,0.6-1.4,0.8-2.2c0.1-0.6,0.2-1.6,0.2-2.8v-0.6h-0.7v-0.9h2.1v-1h-1.5v-0.9
	C150.2,22.7,151.6,22.7,151.6,22.7z M156.9,31.3c0,0.3-0.1,0.6-0.3,0.8c-0.2,0.2-0.4,0.2-0.7,0.2h-0.7l-0.2-0.9h0.6
	c0.2,0,0.3-0.1,0.3-0.4v-0.6h-1.2v1.8h-0.9v-1.8h-1.2v1.8h-1v-6.1h5.3L156.9,31.3L156.9,31.3z M154.4,23.6h-1.9v1h1.9V23.6z
	 M153.8,27.9V27h-1.2v0.9H153.8z M153.8,29.6v-0.9h-1.2v0.9H153.8z M154.7,27.9h1.2V27h-1.2V27.9z M154.7,29.6h1.2v-0.9h-1.2V29.6z"
	/>
<path class="st0" d="M4.9,44.4V43H6v1.4h3.8v1.1H6v1.7h4.7v1.1H7.2C7.6,49,8,49.6,8.5,50.1c0.6,0.6,1.3,1.3,2.3,2l-0.8,1
	c-1.1-0.8-1.9-1.6-2.6-2.5c-0.5-0.6-1-1.4-1.4-2.3v5.3H4.9v-5.3H4.7c-0.3,0.8-0.7,1.4-1,1.8C3.1,51,2.1,52,0.7,53l-0.6-1
	c1-0.7,1.8-1.4,2.4-2c0.4-0.4,0.8-1,1.1-1.6H0.2v-1.1h4.7v-1.7H1v-1.1L4.9,44.4L4.9,44.4z"/>
<path class="st0" d="M17,44.2v-1.1h1.1v1.1h4.3v1h-4.3v2.6c0.4,0.9,1,1.6,1.6,2.3s1.7,1.5,3.1,2.2L22,53.2c-1.1-0.7-1.9-1.3-2.6-1.9
	c-0.5-0.5-1-1.1-1.4-1.7v3.8h-1v-3.9c-0.4,0.6-0.8,1.1-1.2,1.4c-0.7,0.8-1.7,1.5-2.8,2.2l-0.6-1c1.1-0.6,2.1-1.3,2.9-2.1
	c0.6-0.6,1.2-1.4,1.7-2.2v-2.6h-4.2v-1H17z M15.6,45.6c-0.1,0.6-0.3,1-0.4,1.4c0.4,0.4,0.8,0.8,1.2,1.2l-0.6,0.9
	c-0.3-0.5-0.7-0.9-1-1.2c-0.3,0.6-0.8,1.3-1.4,2L12.7,49c0.5-0.5,0.9-1.1,1.2-1.6s0.5-1.2,0.6-2L15.6,45.6z M21.1,45.6
	c-0.1,0.6-0.3,1-0.4,1.4c0.6,0.5,1.2,1.1,1.8,1.7l-0.6,0.9c-0.5-0.7-1.1-1.3-1.6-1.8c-0.3,0.4-0.6,0.9-1,1.3l-0.7-0.9
	c0.4-0.4,0.7-0.8,1-1.2c0.2-0.4,0.4-0.9,0.5-1.6L21.1,45.6z"/>
<path class="st0" d="M30.2,49.5c-0.2,0.2-0.5,0.5-0.9,0.7l-0.4-0.6c0.5-0.3,0.9-0.6,0.9-1h-0.7v-1.4h1.4v1.1
	C30.5,48.8,30.4,49.2,30.2,49.5z"/>
<path class="st0" d="M46.4,43.3v0.9h-3.9v0.5h4.6v2.7H46v-1.8h-3.6v2.5h-1.1v-2.5h-3.5v1.9h-1.1v-2.8h4.6v-0.5h-4v-0.9
	C37.3,43.3,46.4,43.3,46.4,43.3z M47.2,48.5v0.9h-4.7l-0.3,0.7h4.6v2.4c0,0.3-0.1,0.5-0.3,0.7c-0.2,0.1-0.4,0.2-0.7,0.2h-1l-0.2-0.9
	h0.8c0.2,0,0.3-0.1,0.3-0.4V51h-1.8v2.4h-1V51h-1.6v2.4h-1V51h-1.7v2.6h-1v-3.4H41l0.3-0.7h-4.5v-0.9L47.2,48.5L47.2,48.5z M41,46
	v0.7h-2.7V46H41z M41,47.3V48h-2.7v-0.7H41z M45.7,46v0.7h-2.8V46H45.7z M45.7,47.3V48h-2.8v-0.7H45.7z"/>
<path class="st0" d="M59.4,43.4v0.9H56v0.9h2.9v3h-4.6c-0.2,0.3-0.4,0.5-0.6,0.8h5.8v0.9h-2.2c-0.4,0.6-0.8,1.2-1.2,1.6
	c1.2,0.4,2.3,0.7,3.3,1.2l-0.9,0.9c-1-0.5-2.1-0.9-3.4-1.3c-1,0.6-2.9,1-5.7,1.4l-0.4-1c2.1-0.1,3.7-0.4,4.7-0.7
	c-1-0.3-2.1-0.5-3.3-0.7c0.4-0.4,0.8-0.9,1.2-1.3h-2.8v-0.9h3.5c0.2-0.3,0.4-0.5,0.6-0.8h-3.4v-3h2.8v-0.9H49v-0.9h10.4V43.4z
	 M52.3,46.1h-1.7v1.2h1.7V46.1z M56.2,49.9H53c-0.2,0.3-0.4,0.5-0.6,0.7c1.1,0.2,2,0.4,2.7,0.6C55.5,50.8,55.8,50.4,56.2,49.9z
	 M54.9,44.3h-1.6v0.9h1.6V44.3z M54.9,46.1h-1.6v1.2h1.6V46.1z M57.8,46.1H56v1.2h1.8V46.1z"/>
<path class="st0" d="M64.6,43.1c-0.1,0.6-0.3,1.2-0.6,1.7h1.7v2.4c0.3-0.6,0.6-1.1,0.8-1.7c0.2-0.6,0.4-1.5,0.6-2.6l1.1,0.2
	c-0.1,0.6-0.2,1.2-0.3,1.6h3.5c0,4-0.1,6.4-0.2,7.2c-0.1,0.6-0.3,1-0.6,1.2c-0.3,0.2-0.9,0.3-1.8,0.3c-0.3,0-0.5,0-0.9,0l-0.2-1.1
	c0.3,0.1,0.7,0.1,1,0.1c0.7,0,1.1-0.2,1.2-0.7c0.1-0.6,0.2-2.5,0.3-5.8h-2.7c0,0.1-0.1,0.1-0.1,0.2c-0.3,0.8-0.7,1.7-1.3,2.6
	L65.6,48v4.7h-1v-0.5h-2.1v0.9h-1v-8.2H63c0.2-0.6,0.4-1.2,0.6-1.8C63.6,43.1,64.6,43.1,64.6,43.1z M64.7,48v-2.2h-2.1V48H64.7z
	 M64.7,51.2v-2.3h-2.1v2.3H64.7z M69.4,50.1l-1.1,0.7C68,50,67.5,49,67,47.9l0.9-0.6C68.5,48.4,69,49.3,69.4,50.1z"/>
<path class="st0" d="M76.8,44.1c-0.4,0.2-1,0.4-1.9,0.6v0.9h1.7v0.9h-1.7v1.3h1.6v0.9H75V50h2v-3h1v3.1h1v-3.6h-2V43h1v0.8h2.1v0.9
	H78v1h2.1v4.5h2.2V49h-1.7v-0.9h1.7v-1.3h-1.7v-0.9h1.7v-1.2h-1.8v-0.9h2.8l-0.1,6.6h0.6v1H73.3v-1H74l-0.1-6.2
	c0.8-0.1,1.6-0.4,2.5-0.8L76.8,44.1z M77.5,51.9c-0.9,0.6-2.1,1.1-3.5,1.6l-0.7-0.9c1.3-0.4,2.4-0.8,3.4-1.4L77.5,51.9z M83.7,52.6
	l-0.7,1c-1.1-0.7-2.2-1.2-3.3-1.6l0.6-0.9C81.5,51.6,82.7,52,83.7,52.6z"/>
<path class="st0" d="M87.5,44.3V43h1v1.3h1.6v0.9h-1.6v0.2c0.6,0.4,1.2,0.9,1.8,1.4l-0.6,0.9c-0.5-0.5-0.9-0.9-1.2-1.2v2.8h-1v-2.7
	c0,0.1-0.1,0.1-0.1,0.2c-0.4,0.8-1,1.5-1.6,2.1l-0.4-1.1c0.9-0.7,1.5-1.6,2.1-2.6h-2v-0.9C85.5,44.3,87.5,44.3,87.5,44.3z
	 M87.7,50.3c-0.4,1.1-0.8,2-1.3,2.8l-0.9-0.6c0.5-0.7,0.9-1.6,1.3-2.6L87.7,50.3z M89.4,49.9v2.2c0,0.2,0.1,0.3,0.4,0.3h2.3
	c0.2,0,0.4-0.1,0.5-0.1c0.1-0.1,0.2-0.6,0.2-1.4l1,0.3c-0.1,1.1-0.3,1.7-0.5,1.9s-0.6,0.3-1.1,0.3h-2.8c-0.3,0-0.6-0.1-0.7-0.3
	c-0.2-0.2-0.3-0.4-0.3-0.7v-2.5H89.4z M92.2,50.7l-0.9,0.6c-0.4-0.5-0.9-1.1-1.5-1.7l0.8-0.4C91.3,49.8,91.8,50.3,92.2,50.7z
	 M95.5,43.4v5.7h-4.9v-5.7H95.5z M94.4,45v-0.7h-2.9V45H94.4z M94.4,46.6v-0.7h-2.9v0.7H94.4z M94.4,47.4h-2.9v0.8h2.9V47.4z
	 M96.1,52l-1,0.7c-0.3-0.8-0.7-1.6-1.3-2.6l0.8-0.5C95.3,50.5,95.8,51.3,96.1,52z"/>
<path class="st0" d="M108.2,43.4v0.9h-3.5v0.9h2.9v3H103c-0.2,0.3-0.4,0.5-0.6,0.8h5.8v0.9H106c-0.4,0.6-0.8,1.2-1.2,1.6
	c1.2,0.4,2.3,0.7,3.3,1.2l-0.9,0.9c-1-0.5-2.1-0.9-3.4-1.3c-1,0.6-2.9,1-5.7,1.4l-0.4-1c2.1-0.1,3.7-0.4,4.7-0.7
	c-1-0.3-2.1-0.5-3.3-0.7c0.4-0.4,0.8-0.9,1.2-1.3h-2.8v-0.9h3.5c0.2-0.3,0.4-0.5,0.6-0.8h-3.4v-3h2.8v-0.9h-3.3v-0.9h10.5
	C108.2,43.5,108.2,43.4,108.2,43.4z M101.1,46.1h-1.7v1.2h1.7V46.1z M104.9,49.9h-3.2c-0.2,0.3-0.4,0.5-0.6,0.7
	c1.1,0.2,2,0.4,2.7,0.6C104.2,50.8,104.6,50.4,104.9,49.9z M103.7,44.3h-1.6v0.9h1.6V44.3z M103.7,46.1h-1.6v1.2h1.6V46.1z
	 M106.5,46.1h-1.8v1.2h1.8V46.1z"/>
<path class="st0" d="M113.3,43.1c-0.1,0.6-0.3,1.2-0.6,1.7h1.7v2.4c0.3-0.6,0.6-1.1,0.8-1.7c0.2-0.6,0.4-1.5,0.6-2.6l1.1,0.2
	c-0.1,0.6-0.2,1.2-0.3,1.6h3.5c0,4-0.1,6.4-0.2,7.2c-0.1,0.6-0.3,1-0.6,1.2c-0.3,0.2-0.9,0.3-1.8,0.3c-0.3,0-0.5,0-0.9,0l-0.2-1.1
	c0.3,0.1,0.7,0.1,1,0.1c0.7,0,1.1-0.2,1.2-0.7c0.1-0.6,0.2-2.5,0.3-5.8h-2.7c0,0.1-0.1,0.1-0.1,0.2c-0.3,0.8-0.7,1.7-1.3,2.6
	l-0.5-0.7v4.7h-1v-0.5h-2.1v0.9h-1v-8.2h1.4c0.2-0.6,0.4-1.2,0.6-1.8C112.2,43.1,113.3,43.1,113.3,43.1z M113.4,48v-2.2h-2.1V48
	H113.4z M113.4,51.2v-2.3h-2.1v2.3H113.4z M118.2,50.1l-1.1,0.7c-0.3-0.8-0.8-1.8-1.3-2.9l0.9-0.6C117.3,48.4,117.8,49.3,118.2,50.1
	z"/>
<path class="st0" d="M127.7,49.5c-0.2,0.2-0.5,0.5-0.9,0.7l-0.4-0.6c0.5-0.3,0.9-0.6,0.9-1h-0.7v-1.4h1.4v1.1
	C128.1,48.8,127.9,49.2,127.7,49.5z"/>
<path class="st0" d="M144.5,47.3v1.1h-10v-1.1H144.5z"/>
<path class="st0" d="M149.8,48.9c-0.7,1.3-1.5,2.5-2.4,3.5l-0.9-0.9c0.8-0.7,1.6-1.8,2.4-3.2L149.8,48.9z M149.3,44.9l-0.7,1.1
	c-0.7-0.7-1.4-1.3-2.1-1.7l0.6-0.9C148,43.8,148.7,44.3,149.3,44.9z M153.1,46.6v0.9c0.3,1.2,0.8,2.2,1.4,3c0.5,0.6,1.4,1.3,2.5,2
	l-0.7,0.9c-1-0.6-1.7-1.1-2.2-1.7c-0.6-0.7-1.2-1.5-1.5-2.5c-0.3,1-0.7,1.8-1.2,2.4c-0.5,0.6-1.3,1.2-2.3,1.8l-0.7-0.9
	c1.3-0.8,2.3-1.6,2.8-2.5s0.8-1.7,0.8-2.5v-0.9H153.1z M152.3,43.2c-0.1,0.5-0.3,1-0.4,1.5h4.8v1c-0.5,1.3-1.1,2.4-1.7,3.2l-0.9-0.7
	c0.5-0.6,1-1.5,1.4-2.6h-4c-0.4,0.9-1,1.6-1.6,2.2l-1-0.7c1.3-1.1,2.1-2.5,2.4-4.2L152.3,43.2z"/>
<path class="st0" d="M2,65.8c-0.1-0.4-0.3-0.8-0.5-1.2l1-0.1c0.1,0.4,0.3,0.8,0.4,1.3h0.8c0.1-0.5,0.2-1,0.3-1.6l1,0.1
	c-0.1,0.5-0.2,1-0.3,1.4h4.5c-0.1,0.8-0.2,1.5-0.3,2H10c-0.1,0.8-0.2,1.5-0.3,2h0.9c0,2.6-0.3,4-0.7,4.4c-0.2,0.3-1,0.5-2.3,0.5
	l-0.2-1.1c0.3,0.1,0.6,0.1,0.9,0.1c0.4,0,0.8-0.1,1-0.3c0.2-0.2,0.3-1.1,0.4-2.7h-7c-0.5,0.7-1,1.4-1.6,1.9L0.2,72
	c1.5-1.4,2.7-3.2,3.3-5.2H0.7v-1H2z M3.5,71.7c-0.3,1.1-0.7,2.1-1.3,2.9L1.3,74c0.6-0.8,0.9-1.6,1.2-2.5L3.5,71.7z M3.2,69.8h5.4
	c0.1-0.3,0.1-0.7,0.2-1.1h-5C3.6,69.1,3.4,69.5,3.2,69.8z M5.2,74.4l-1.1,0.1c0-1.2-0.1-2.2-0.2-2.8l0.9-0.1
	C5,72.3,5.2,73.2,5.2,74.4z M4.2,67.8H8c0.1-0.3,0.1-0.6,0.2-1H4.5C4.4,67.1,4.3,67.5,4.2,67.8z M7.2,73.6l-1,0.2
	C6,73,5.8,72.3,5.6,71.6l0.9-0.3C6.7,72,7,72.8,7.2,73.6z M8.8,72.9l-0.9,0.3c-0.2-0.6-0.4-1.3-0.6-1.9l0.8-0.2
	C8.4,71.8,8.6,72.3,8.8,72.9z"/>
<path class="st0" d="M15.7,64.6c-0.3,0.7-0.7,1.3-1,1.8v4.4h-1v-3.2c-0.3,0.3-0.6,0.6-1,0.9l-0.4-1.2c0.5-0.4,0.9-0.9,1.3-1.3
	c0.4-0.4,0.8-1,1.1-1.8L15.7,64.6z M14.5,71.6c-0.3,1-0.7,1.9-1.1,2.7l-1-0.7c0.4-0.7,0.9-1.5,1.2-2.4L14.5,71.6z M16.2,71.1v2
	c0,0.2,0.1,0.4,0.4,0.4h2.6c0.2,0,0.3,0,0.4-0.1s0.2-0.5,0.2-1.3l1,0.3c-0.1,1-0.3,1.6-0.5,1.8c-0.2,0.2-0.5,0.3-1,0.3h-3.1
	c-0.3,0-0.6-0.1-0.8-0.3c-0.2-0.2-0.3-0.4-0.3-0.7v-2.3h1.1V71.1z M18.1,64.3c-0.1,0.2-0.2,0.4-0.3,0.6h4.7
	c-0.1,0.7-0.3,1.4-0.5,2.2l-1.1-0.3c0.1-0.3,0.2-0.6,0.3-0.9h-1.6v3.8c0,0.4-0.1,0.6-0.3,0.8c-0.2,0.2-0.5,0.2-0.9,0.2h-1.1l-0.2-1
	c0.4,0.1,0.7,0.1,1,0.1s0.4-0.1,0.4-0.2V66h-1.4c-0.4,0.6-0.9,1.2-1.3,1.6l-0.7-0.9c0.9-0.7,1.5-1.5,2-2.4
	C17.1,64.3,18.1,64.3,18.1,64.3z M17.8,67.3c-0.4,1-0.9,1.9-1.5,2.6l-0.9-0.6c0.7-0.7,1.2-1.4,1.4-2.3L17.8,67.3z M19.1,72.4l-1,0.4
	c-0.3-0.6-0.7-1.2-1-1.7l1-0.3C18.4,71.3,18.8,71.8,19.1,72.4z M22.7,69.4l-1,0.7c-0.3-0.7-0.8-1.6-1.4-2.5l0.8-0.5
	C21.7,68,22.3,68.7,22.7,69.4z M23,73.5l-1,0.4c-0.5-1.1-1.1-2-1.7-2.9l1-0.3C22,71.6,22.6,72.5,23,73.5z"/>
<path class="st0" d="M30.2,64.4c-0.2,0.3-0.3,0.7-0.5,0.9h1.5c-0.2-0.3-0.3-0.7-0.5-1l1.1-0.1c0.2,0.3,0.3,0.7,0.5,1.1h2.5v0.9h-2.5
	v0.7h2.2v0.9h-2.2v0.7h2.2v0.9h-2.2v0.7H35V71h-4.7v0.8h4.8v1h-4.8v2h-1.1v-2h-4.8v-1h4.8V71H28v-3c-0.1,0.2-0.3,0.3-0.4,0.4
	l-0.7-0.9c1-1,1.7-2.1,2.2-3.3L30.2,64.4z M26.9,67.4l-0.6,1c-0.6-0.4-1.2-0.8-1.7-1l0.5-0.9C25.7,66.7,26.3,67,26.9,67.4z
	 M27.4,69.1c-0.5,0.9-1.1,1.7-1.8,2.5l-0.8-0.9c0.7-0.7,1.3-1.5,1.8-2.4L27.4,69.1z M27.8,65.3l-0.6,0.9c-0.6-0.4-1.3-0.8-1.9-1.1
	l0.5-0.8C26.5,64.7,27.2,65,27.8,65.3z M31.3,66.3h-2.1c0,0.1-0.1,0.1-0.1,0.1v0.5h2.2V66.3z M31.3,67.8h-2.2v0.7h2.2V67.8z
	 M31.3,69.3h-2.2V70h2.2V69.3z"/>
<path class="st0" d="M39.9,64.6c-0.3,0.9-0.6,1.7-0.9,2.4v7.6h-1v-5.9c-0.3,0.4-0.6,0.8-0.9,1.1l-0.4-1.3c0.4-0.6,0.8-1.2,1.2-1.9
	c0.3-0.6,0.7-1.4,1-2.5L39.9,64.6z M41.4,65.1v-0.9h1v0.9h1.9v-0.9h1v0.9H47V66h-1.7v1h2v0.9h-6.2v0.6c0,1.3-0.1,2.4-0.2,3.2
	c-0.2,0.8-0.5,1.7-0.9,2.6l-0.9-0.8c0.4-0.7,0.6-1.4,0.8-2.2c0.1-0.6,0.2-1.6,0.2-2.8V68h-0.7v-1h2.1v-1H40v-0.9H41.4z M46.8,73.7
	c0,0.3-0.1,0.6-0.3,0.8c-0.2,0.2-0.4,0.2-0.7,0.2h-0.7l-0.2-0.9h0.6c0.2,0,0.3-0.1,0.3-0.4v-0.6h-1.2v1.8h-0.9v-1.8h-1.2v1.8h-1
	v-6.1h5.3C46.8,68.5,46.8,73.7,46.8,73.7z M44.3,66h-1.9v1h1.9V66z M43.6,70.3v-0.9h-1.2v0.9H43.6z M43.6,72v-0.9h-1.2V72H43.6z
	 M44.5,70.3h1.2v-0.9h-1.2V70.3z M44.5,72h1.2v-0.9h-1.2V72z"/>
<path class="st0" d="M55,64.4v1h-2.9l-1,2.3c0.9,0,1.7-0.1,2.5-0.1c-0.2-0.4-0.3-0.7-0.5-1.2l0.8-0.5c0.6,1,1,1.9,1.3,2.6l-1,0.7
	c-0.1-0.2-0.2-0.5-0.3-0.8c-0.4,0.1-0.9,0.1-1.4,0.2v1.5h2.1v1h-2.1v1.7c0.9-0.1,1.7-0.2,2.6-0.4v1c-1.7,0.3-3.6,0.6-5.8,0.9
	L49,73.2c0.9-0.1,1.7-0.1,2.5-0.2v-1.9h-2.1v-1h2.1v-1.4c-0.6,0-1.3,0.1-2.1,0.1l-0.2-1.1c0.2,0,0.5,0,0.7,0l1-2.3H49v-1
	C49,64.4,55,64.4,55,64.4z M56.7,64.9v7.3h-1.1v-7.3H56.7z M58.9,64.2v9.2c0,0.4-0.1,0.7-0.3,0.9c-0.2,0.2-0.5,0.3-0.9,0.3h-1.5
	l-0.3-1.2c0.6,0.1,1.1,0.1,1.5,0.1c0.3,0,0.4-0.1,0.4-0.3v-9H58.9z"/>
<path class="st0" d="M64.4,64.5c-0.3,0.9-0.6,1.7-0.9,2.3v7.8h-1v-6.1c-0.3,0.5-0.7,0.9-1,1.4l-0.4-1.3c0.5-0.6,0.9-1.3,1.3-1.9
	c0.4-0.6,0.7-1.5,1.1-2.6L64.4,64.5z M71.7,73v1H64v-1H71.7z M71.3,66.6v1h-7.1v-1H71.3z M67.4,72.2l-1.1,0.3
	c-0.4-1.4-0.9-2.8-1.4-4.1l1-0.3C66.5,69.2,67,70.6,67.4,72.2z M68.7,65.7l-0.8,0.8c-0.4-0.5-1-1-1.7-1.6l0.7-0.7
	C67.6,64.7,68.2,65.2,68.7,65.7z M70.6,68.3c-0.4,1.6-0.8,3-1.4,4.3l-1.1-0.4c0.5-1.1,1-2.5,1.4-4.2L70.6,68.3z"/>
<path class="st0" d="M45.1,24.5v-2.2h1.2v2.2h4v5.4h-4v2.9h-1.2v-2.9h-4v-5.4H45.1z M45.1,25.5h-2.8v3.4h2.8V25.5z M49.1,25.5h-2.9
	v3.4h2.9V25.5z"/>
</svg>
