<?xml version="1.0" encoding="utf-8"?>
<!-- Generator: Adobe Illustrator 25.2.3, SVG Export Plug-In . SVG Version: 6.00 Build 0)  -->
<svg version="1.1" id="圖層_1" xmlns="http://www.w3.org/2000/svg" xmlns:xlink="http://www.w3.org/1999/xlink" x="0px" y="0px"
	 viewBox="0 0 380 70" style="enable-background:new 0 0 380 70;" xml:space="preserve">
<style type="text/css">
	.st0{fill:#00404B;}
	.st1{fill:#C79F62;}
</style>
<path class="st0" d="M3.7,4.4h2.7c0.5-0.7,0.9-1.1,1.1-1.1S8,3.5,8.6,3.9c0.5,0.4,0.8,0.7,0.8,0.8c0,0.1-0.1,0.3-0.3,0.4
	C8.8,5.4,8.6,5.5,8.6,5.6v5.9c0.1,2.3,0.1,3.8,0.1,4.4c0,0.5-0.4,0.7-1.1,0.7c-0.5,0-0.8-0.1-0.9-0.4V15H4v1.7
	c-0.1,0.4-0.5,0.6-1.2,0.6c-0.4,0-0.7-0.1-0.8-0.2c0-2.1,0-4.2,0.1-6.2V6.8C2.1,5.1,2,4,2,3.7L3.7,4.4z M6.7,9.3V4.9H4v4.4H6.7z
	 M6.7,14.4V9.8H4v4.6H6.7z M11.9,16c-0.3,0.9-0.8,1.8-1.8,2.7c-1.2,1.3-2.5,2.1-3.7,2.5c-0.1,0-0.2-0.1-0.3-0.2
	c1.4-1,2.6-2.2,3.4-3.8c0.8-1.2,1.2-3.2,1.2-6.1c0-3.3,0-5.3,0-6.1c0-0.7,0-1.4-0.1-2.3l2.2,1h3.7c0.4-0.6,0.8-1,1-1.2
	c0.2,0,0.5,0.2,1.1,0.5c0.6,0.4,0.9,0.7,0.9,0.9c0,0.1-0.1,0.3-0.4,0.4c-0.3,0.2-0.4,0.3-0.5,0.4v13.4c0,1.4-0.8,2.2-2.3,2.5
	c-0.2,0-0.4-0.1-0.4-0.4c-0.2-0.5-0.7-1-1.2-1.2c-0.8-0.3-1.4-0.5-1.7-0.6c0,0,0-0.1,0-0.4c0.8,0.1,1.9,0.1,3.3,0.1
	c0.3,0,0.5-0.2,0.5-0.5v-4h-4.3C12.3,14.7,12.2,15.4,11.9,16z M12.6,11.1c0,0.8,0,1.6-0.1,2.2h4.3V9h-4.2
	C12.6,9,12.6,11.1,12.6,11.1z M12.6,8.4h4.2V4.3h-4.2C12.6,4.3,12.6,8.4,12.6,8.4z"/>
<path class="st0" d="M39.4,13.9c0.9,0.8,1.3,1.2,1.3,1.4s-0.1,0.3-0.2,0.3h-7.1c1,0.9,2,1.6,3.2,2c1.2,0.5,2.6,0.7,4.2,0.8
	c0,0.2,0,0.3-0.1,0.4c-0.1,0-0.3,0.2-0.5,0.4c-0.1,0.1-0.3,0.4-0.4,0.8c-0.1,0.3-0.2,0.4-0.4,0.4c-0.7,0-1.8-0.5-3.4-1.4
	c-1.4-0.8-2.4-1.9-3.1-3.3h-0.3l0.1,5.1c0,0.4-0.4,0.6-1.2,0.7c-0.6,0-0.9-0.2-0.9-0.5c0-1.6,0-3.1,0-4.5c-1.5,1.7-4.3,3-8.5,4
	c-0.1,0-0.2-0.1-0.3-0.3c3.4-1.2,5.6-2.6,6.7-4c0.2-0.2,0.3-0.4,0.4-0.5h-1.6c-2.4,0-4,0.1-4.6,0.3c-0.1-0.4-0.3-0.7-0.5-1.1
	c1,0.1,2.8,0.2,5.2,0.2h3.1v-0.2c0-0.7-0.1-1.2-0.1-1.6c-0.6,0.2-1.3,0.4-2,0.5c0,0-0.1-0.1-0.2-0.3c1.7-0.6,2.9-1.5,3.7-2.7
	c-0.6-0.4-1.1-0.7-1.7-0.9c0,0,0.1-0.1,0.1-0.3c0.7,0.1,1.4,0.2,1.9,0.4c0.2-0.5,0.3-1,0.3-1.4c-0.8,0-1.4,0.1-1.7,0.2
	c-0.1-0.3-0.3-0.7-0.4-1c0.3,0.1,1,0.2,2,0.2H36c0.2-0.3,0.4-0.5,0.6-0.7c-0.4,0-0.6-0.2-0.7-0.7c0-0.1-0.1-0.3-0.1-0.5
	s-0.1-0.3-0.1-0.5c-0.1-0.2-0.2-0.4-0.3-0.5h-1.6c-0.2,0.2-0.4,0.4-0.5,0.5c-0.7,0.6-1.4,1.2-2.2,1.6c0,0-0.1-0.1-0.2-0.2
	c1.3-1.6,2.2-3.1,2.5-4.6c1.8,0.5,2.7,0.9,2.7,1.1c0,0.2-0.4,0.3-1.2,0.4c-0.1,0.2-0.3,0.4-0.4,0.6h3.7c0.5-0.8,0.9-1.2,1.1-1.3h0.1
	c0.1,0.1,0.4,0.3,0.8,0.6c0.5,0.5,0.8,0.8,0.9,1C41.1,5,41,5.1,41,5.1h-4.4c0.8,0.3,1.2,0.7,1.2,1.3c0,0.3-0.1,0.6-0.3,0.7
	c0.3,0.1,0.6,0.4,1,0.6c0.5,0.4,0.7,0.7,0.7,0.8c0,0.2-0.3,0.5-0.9,0.8v1.9c0,0.5,0.2,0.7,0.6,0.8c0,0,0,0,0.1,0
	c0.5,0,0.7-0.1,0.8-0.3c0.2-0.3,0.4-0.9,0.5-1.7c0,0,0.1,0.1,0.4,0.1c0,0.3,0,0.7,0,1.2c0,0.2,0.1,0.4,0.3,0.5
	c0.3,0.1,0.5,0.4,0.5,0.6c0,0.3-0.1,0.4-0.1,0.5c-0.2,0.4-0.6,0.6-1.2,0.7c-0.3,0.1-0.5,0.1-0.8,0.1s-0.5,0-0.7,0
	c-1.2,0-1.8-0.6-1.9-1.9V8.7h-1.9c-0.1,0.9-0.3,1.5-0.5,1.8v0.1c1.1,0.5,1.7,1,1.7,1.7c0,0.2,0,0.3-0.1,0.5
	c-0.1,0.3-0.3,0.4-0.6,0.4s-0.7-0.3-1.2-0.9c-0.2-0.2-0.4-0.4-0.6-0.5c-0.6,0.7-1.4,1.2-2.4,1.5c2,0.3,3,0.6,3,0.8
	c0,0.1-0.1,0.3-0.4,0.4c-0.4,0.2-0.7,0.3-0.7,0.4v0.3h4.8c0.6-0.8,1.1-1.3,1.4-1.4C39.3,13.8,39.4,13.8,39.4,13.9
	C39,13.6,39.2,13.8,39.4,13.9z M25.7,4.9c-1,1.3-2.2,2.2-3.5,2.9c-0.1-0.1-0.2-0.2-0.4-0.2c1.4-1.4,2.5-3.2,3.1-5.5
	c1.8,0.6,2.7,0.9,2.7,1.1c0,0.3-0.4,0.4-1,0.5c-0.1,0.2-0.3,0.4-0.4,0.6h2.7C29.4,3.5,29.8,3.1,30,3h0.1c0.2,0.1,0.4,0.3,0.8,0.6
	c0.5,0.5,0.8,0.8,0.9,1c0,0.2-0.1,0.3-0.1,0.3h-4.6c1,0.3,1.6,0.9,1.6,1.6c0,0.6-0.3,0.9-0.9,0.9c-0.4,0-0.6-0.2-0.7-0.7
	c0-0.1-0.1-0.3-0.1-0.6c0-0.2-0.1-0.4-0.1-0.6c-0.1-0.3-0.3-0.5-0.4-0.7L25.7,4.9C25.7,4.8,25.7,4.9,25.7,4.9z M25,8.8
	c-0.9,0-1.6,0.1-2,0.2c-0.1-0.3-0.2-0.5-0.3-0.8c0.4,0.1,1.2,0.1,2.3,0.1h3c0.3-0.4,0.5-0.7,0.8-1C28.9,7.2,29,7.2,29,7.2
	c0.1,0,0.2,0.1,0.4,0.2c0.7,0.6,1.1,1,1.2,1.2c0,0.2-0.1,0.3-0.1,0.3h-3v2.7c1.1-0.1,2.1-0.2,2.9-0.4l0.1,0.1
	c-1.6,0.8-3.8,1.6-6.7,2.1c0,0.4-0.1,0.5-0.2,0.5s-0.2-0.2-0.4-0.5c-0.2-0.3-0.4-0.9-0.7-1.6c1.2,0,2.3-0.1,3.3-0.2V8.8H25z"/>
<path class="st0" d="M50.3,8.9c0.7,0.6,1.1,1,1.1,1.2s-0.1,0.3-0.2,0.3H49v5.5c0.7-0.4,1.4-0.9,2.2-1.4c0,0,0,0.2,0.1,0.4
	c-0.9,1.2-2,2.4-3.3,3.7c0,0.1-0.1,0.4-0.1,0.8c0,0.1-0.1,0.2-0.2,0.2c-0.2,0-0.7-0.7-1.5-2.2c0.3,0,0.7-0.2,1.2-0.5v-6.5h-1
	c-0.1,1.9-0.1,3.2-0.3,3.9c-0.5,3.5-1.5,5.8-3.1,6.7c0-0.1-0.1-0.1-0.2-0.2c0.9-1.4,1.5-3.8,1.8-7c0.1-1.2,0.1-2.3,0.1-3.4
	c-0.9,0-1.5,0.1-1.7,0.3c-0.1-0.4-0.3-0.7-0.5-1.1c0.4,0.1,1.1,0.2,2,0.2H46V4c0-0.8,0-1.4-0.1-1.9c1.7,0.3,2.5,0.5,2.5,0.7
	s-0.1,0.3-0.3,0.3c-0.4,0.1-0.5,0.3-0.5,0.4v6.3h0.9c0.5-0.6,0.9-1,1.2-1.2h0.1C49.9,8.8,50.1,8.8,50.3,8.9z M45.5,7.3
	c0,0.5-0.1,0.8-0.3,1c-0.2,0.3-0.4,0.4-0.8,0.4c-0.2,0-0.4-0.4-0.4-1.1c-0.2-1.4-0.5-2.5-0.9-3.2l0.3-0.2
	C44.8,5.3,45.5,6.4,45.5,7.3z M51.3,4.8c0.8-0.6,1.2-1.4,1.3-2.3H53c0,0.3,0.1,0.6,0.1,1h6c0.5-0.6,0.9-0.9,1.2-1
	c0.2,0.1,0.5,0.3,0.9,0.7C61.7,3.7,62,4,62,4.2s-0.2,0.3-0.5,0.3S61.1,4.6,61,4.6c-0.5,0.4-1.3,0.8-2.1,1.2c-0.1,0-0.2-0.1-0.2-0.2
	C59,5.1,59.2,4.5,59.3,4h-6.2v0.1c0,1.6-0.4,2.3-1.2,2.3c-0.7,0-1.1-0.2-1.1-0.7c0-0.2,0.1-0.4,0.2-0.6c-0.2,0-0.3,0.1-0.5,0.1
	c-0.4,1.1-1,2.3-1.9,3.5c-0.1,0-0.3-0.1-0.5-0.1C48.5,7,48.9,5.4,49,3.7C50.4,4.2,51.2,4.6,51.3,4.8z M60.3,6.1
	c0.7,0.7,1.1,1.1,1.1,1.2c0,0.2-0.1,0.3-0.2,0.3h-4.5v1.6h1.4c0.5-0.5,0.8-0.8,1-0.8s0.5,0.2,1,0.6c0.5,0.4,0.7,0.6,0.7,0.8
	c0,0.1-0.1,0.3-0.3,0.4c-0.3,0.2-0.4,0.4-0.5,0.4v2.6c0.1,1,0.1,1.7,0.1,2c0,0.4-0.4,0.7-1,0.7c-0.5,0-0.8-0.1-0.8-0.4v-0.3h-1.7
	v1.5c0,0.2,0,0.4,0,0.5H59c0.5-0.6,0.9-1,1.2-1.2h0.1c0.1,0.1,0.3,0.2,0.4,0.3c0.7,0.6,1.1,1,1.1,1.2s-0.1,0.3-0.2,0.3h-5
	c0,1.4,0,2.5,0.1,3.1c0,0.3-0.4,0.5-1.2,0.5c-0.4,0-0.6-0.1-0.6-0.4c0-0.6,0-1.7,0.1-3.2h-1.5c-1.5,0-2.4,0.1-2.8,0.2
	c-0.1-0.4-0.3-0.7-0.5-1.1c0.6,0.1,1.6,0.2,3,0.2H55v-2h-1.7v0.4c-0.1,0.4-0.4,0.6-1.1,0.6c-0.4,0-0.6-0.1-0.7-0.2
	c0-1.1,0-2.2,0.1-3.3v-2.2c0-0.9-0.1-1.5-0.1-1.7l1.6,0.6h2V7.7h-0.9c-1.3,0-2.1,0.1-2.4,0.3c-0.1-0.4-0.3-0.7-0.5-1.1
	c0.5,0.1,1.3,0.2,2.5,0.2h1.3V6.4c0-0.6-0.1-1.2-0.2-1.7c0.6,0.1,1.2,0.2,1.9,0.3c0.5,0.1,0.7,0.2,0.7,0.4c0,0.1-0.1,0.2-0.3,0.3
	c-0.3,0.1-0.5,0.2-0.5,0.3v1.2h1.8c0.5-0.6,0.9-1,1.2-1.2h0.1C60,5.9,60.1,6,60.3,6.1z M55.1,11.8v-2h-1.7v2H55.1z M55.1,14.5v-2.2
	h-1.7v2.2H55.1z M56.7,11.8h1.7v-2h-1.7V11.8z M56.7,14.5h1.7v-2.2h-1.7V14.5z"/>
<path class="st0" d="M81,12.3c0.8,0.7,1.2,1.1,1.2,1.3s-0.1,0.3-0.2,0.3h-7.6v2.5h3.1c0.3-0.4,0.6-0.8,1-1.2
	c0.1-0.1,0.2-0.2,0.2-0.2c0.1,0,0.2,0.1,0.4,0.2c0.8,0.7,1.2,1.2,1.3,1.4c0,0.2-0.1,0.3-0.2,0.3h-5.9v2.9h4.9
	c0.7-0.9,1.2-1.4,1.5-1.6c0,0,0.1,0,0.2,0c0.2,0.1,0.4,0.2,0.6,0.4c0.9,0.8,1.4,1.3,1.4,1.6c0,0.2-0.1,0.3-0.2,0.3H68.8
	c-2.5,0-4.1,0.1-4.7,0.2c-0.1-0.4-0.3-0.7-0.5-1.1c1,0.1,2.9,0.2,5.4,0.2h3.3v-2.9h-3.5c-0.9,0-1.6,0.1-2,0.1
	c-0.1-0.2-0.2-0.5-0.3-0.8c0.4,0.1,1.2,0.1,2.3,0.1h3.5v-2.5h-2.8c-2.3,0-3.7,0.1-4.2,0.3c-0.1-0.4-0.3-0.7-0.5-1.1
	c1,0.1,2.6,0.2,4.9,0.2h9.4c0.6-0.7,1-1.2,1.3-1.3c0,0,0.1,0,0.2,0C80.7,12.1,80.9,12.2,81,12.3z M74.4,3c0,0.1-0.2,0.2-0.5,0.2
	s-0.5,0.1-0.6,0.1c-0.4,0.5-0.9,1-1.6,1.4H78c0.5-0.7,0.9-1.1,1.1-1.1s0.5,0.2,1.1,0.6C80.7,4.6,81,4.9,81,5s-0.1,0.3-0.4,0.4
	C80.2,5.6,80,5.8,80,5.9v3c0.1,1.2,0.1,1.9,0.1,2.2c0,0.5-0.4,0.7-1.1,0.7c-0.5,0-0.8-0.1-0.9-0.4V11h-9.7v0.5
	c-0.1,0.4-0.5,0.6-1.2,0.6c-0.4,0-0.7-0.1-0.8-0.2c0-1.3,0-2.5,0.1-3.7V6c0-1-0.1-1.6-0.1-1.8l1.8,0.7h2.9c0.3-0.8,0.4-1.7,0.5-2.6
	C73.5,2.5,74.4,2.8,74.4,3z M78.2,5.3h-9.7v2.3h9.7V5.3z M68.5,10.6h9.7V8.2h-9.7V10.6z"/>
<path class="st0" d="M138.2,20.4c-0.3,0-0.3-0.1-0.3-0.3v-4.9H130c-0.3,0-0.4-0.1-0.4-0.3s0.1-0.3,0.3-0.6L139,1.8
	c0.2-0.2,0.4-0.4,0.6-0.4c0.3,0,0.4,0.2,0.4,0.8v11.2h2.3c0.2,0,0.3,0.1,0.3,0.2v1.3c0,0.2-0.1,0.3-0.4,0.3H140V20
	c0,0.3-0.1,0.4-0.4,0.4H138.2z M137.9,5.8c0-0.4-0.3-0.5-0.5-0.2l-5.2,7.1c-0.3,0.5-0.3,0.8,0.2,0.8h5.5V5.8z"/>
<path class="st0" d="M152.6,4.5c0,0.2-0.5,0.3-1.4,0.5c-0.8,1.4-1.7,2.8-2.7,4c-1.2,1.5-2.5,2.7-4.1,3.7c0,0-0.1-0.1-0.2-0.3
	c2.9-3.1,4.7-6.2,5.4-9.2C151.5,3.8,152.6,4.2,152.6,4.5z M147.4,11.7c-0.1-0.3-0.2-0.7-0.4-1c0.8,0.2,2.1,0.3,3.8,0.3h6.3
	c0.5-0.6,0.9-0.9,1.2-0.9c1.1,0.7,1.7,1.2,1.7,1.6c0,0.1-0.1,0.3-0.4,0.4c-0.3,0.2-0.5,0.3-0.5,0.5c-0.2,3.6-0.6,5.9-1.1,6.9
	c-0.6,1.1-1.5,1.7-2.8,1.7c-0.2,0-0.3-0.2-0.4-0.7c-0.1-0.4-0.4-0.8-0.9-1c-0.4-0.3-0.9-0.5-1.6-0.8c0.1-0.1,0.1-0.3,0.1-0.4
	c0.8,0.2,1.7,0.3,2.6,0.3c0.8,0,1.2-0.3,1.4-0.8c0.4-0.9,0.7-3,0.8-6.2h-4.7c0,0.8-0.1,1.2-0.1,1.2c-0.6,4.5-3.3,7.4-8,8.7
	c-0.1,0-0.1-0.1-0.2-0.1c3.5-1.8,5.6-4.7,6.2-9c0-0.2,0-0.4,0-0.8C149,11.5,148,11.5,147.4,11.7z M157.9,3.7c0,0.2-0.2,0.3-0.7,0.4
	c-0.3,0.1-0.5,0.1-0.5,0.3c0,0.7,0.5,1.6,1.6,2.7c1.5,1.5,3.1,2.4,4.9,2.9c0,0.2,0,0.3-0.1,0.4c-0.4,0-0.8,0.1-0.9,0.4
	c-0.2,0.7-0.5,1-0.7,1c-0.7-0.1-1.6-0.7-2.6-2c-1.5-1.6-2.5-3.5-3-5.8h-1.3c-0.8,0-1.3,0-1.6,0.1c-0.1-0.3-0.3-0.6-0.4-0.9
	c0.4,0.1,1,0.2,1.8,0.2h1.1c0.5-0.7,0.8-1,1-1C157.4,3,157.9,3.5,157.9,3.7z"/>
<path class="st0" d="M170.6,3.1c0,0.2-0.3,0.4-0.9,0.4c0,0.1-0.1,0.1-0.1,0.1c2.2,0.7,3.3,1.5,3.4,2.5c0,0.4-0.1,0.7-0.2,0.8
	c-0.1,0.1-0.3,0.2-0.5,0.2c-0.3,0-0.7-0.4-1.1-1.1c-0.5-0.7-1.1-1.4-1.8-2c-0.8,1.6-1.7,2.9-2.8,3.9c0.5,0.1,1.1,0.1,2,0.1h0.7
	c0.3-0.4,0.6-0.8,0.9-1.1c0.1-0.1,0.2-0.1,0.2-0.1c0.1,0,0.2,0.1,0.4,0.2c0.7,0.7,1.2,1.1,1.2,1.3s-0.1,0.3-0.2,0.3h-2.3v2.6h0.5
	c0.3-0.4,0.5-0.7,0.8-1c0.1-0.1,0.2-0.1,0.2-0.1c0.1,0,0.2,0.1,0.4,0.2c0.7,0.6,1.1,1,1.2,1.2c0,0.2-0.1,0.3-0.1,0.3h-2.9v6.3
	c1.2-0.2,2.1-0.4,2.8-0.7c0.1,0.1,0.1,0.3,0.2,0.3c-1.2,0.8-3.2,1.6-6.1,2.5c-0.1,0.6-0.2,0.9-0.4,0.9c-0.1,0-0.3-0.3-0.5-0.8
	c-0.2-0.6-0.4-1.2-0.6-2.1c0.4,0.1,1,0.1,1.9,0.1c0.3,0,0.7,0,1-0.1v-6.6h-0.4c-0.9,0-1.5,0.1-2,0.1c-0.1-0.2-0.2-0.5-0.3-0.8
	c0.4,0.1,1.2,0.1,2.3,0.1h0.4V8.4c-0.5,0-1,0.1-1.3,0.1c-0.1-0.2-0.1-0.4-0.2-0.6c-0.4,0.4-0.8,0.7-1.3,1c-0.1-0.1-0.2-0.1-0.3-0.2
	c1.6-1.8,2.8-4,3.4-6.7C169.8,2.7,170.6,3,170.6,3.1z M167.3,16.1c0,0.7-0.3,1-1,1c-0.4,0-0.5-0.2-0.6-0.6c0-0.1,0-0.3,0.1-0.6
	c0-0.2,0.1-0.4,0.1-0.8c0-0.9-0.2-1.6-0.5-2.1l0.1-0.1C166.7,13.8,167.3,14.9,167.3,16.1z M172.5,13.3c0.4,0.1,0.5,0.3,0.6,0.3
	c0,0.1-0.1,0.2-0.3,0.2c-0.3,0.1-0.5,0.1-0.6,0.2c-0.3,1.2-1,2.1-2,2.8l-0.2-0.1c0.5-1.1,0.8-2.4,0.9-4
	C171.6,13,172.2,13.2,172.5,13.3z M175,10.2h5.6c0.5-0.5,0.8-0.8,1-0.8s0.5,0.2,1,0.6s0.7,0.6,0.7,0.8c0,0.1-0.1,0.2-0.3,0.4
	c-0.3,0.2-0.5,0.4-0.5,0.4v2.2c0.1,0.9,0.1,1.4,0.1,1.7c0,0.4-0.3,0.7-1,0.7c-0.5,0-0.8-0.1-0.8-0.4v-0.1h-2v1.8h1.7
	c0.5-0.5,0.8-0.9,1-1h0.1c0.1,0.1,0.3,0.2,0.4,0.3c0.7,0.6,1,0.9,1,1.1s-0.1,0.3-0.2,0.3h-4.1v2h2.1c0.6-0.7,1-1.1,1.3-1.3h0.1
	c0.1,0.1,0.3,0.2,0.5,0.3c0.8,0.7,1.2,1.1,1.2,1.3s-0.1,0.3-0.2,0.3h-9c-1.6,0-2.7,0.1-3.1,0.3c-0.1-0.4-0.3-0.7-0.5-1.1
	c0.6,0.1,1.7,0.2,3.3,0.2h2.3v-2h-1.2c-1.3,0-2.1,0.1-2.5,0.3c-0.1-0.4-0.3-0.7-0.5-1.1c0.5,0.1,1.4,0.2,2.7,0.2h1.5v-1.8h-1.8v0.4
	c-0.1,0.4-0.4,0.6-1.1,0.6c-0.4,0-0.6-0.1-0.7-0.2c0-1.1,0-2.1,0.1-3.1v-2.1c0-0.9-0.1-1.4-0.1-1.6L175,10.2z M182.2,6.5
	c0,0.1-0.3,0.3-0.9,0.5c-0.4,0.5-0.9,1-1.7,1.3h1.8c0.5-0.6,0.9-1,1.2-1.2h0.2c0.1,0.1,0.3,0.2,0.4,0.3c0.7,0.6,1.1,1,1.1,1.2
	s-0.1,0.3-0.2,0.3h-8.3c-1.5,0-2.5,0.1-2.8,0.2c-0.1-0.4-0.3-0.7-0.5-1.1c0.6,0.1,1.6,0.2,3.1,0.2h0.4c-0.1-0.2-0.3-0.4-0.4-0.8
	c-0.3-0.7-0.5-1.2-0.9-1.7c0.1,0,0.1-0.1,0.1-0.3c1.5,0.2,2.2,0.7,2.3,1.6c0,0.3,0,0.5-0.1,0.7s-0.2,0.3-0.3,0.4h2.1
	c0.6-1,0.9-1.9,1-2.9C181.4,5.9,182.2,6.3,182.2,6.5z M182.6,3.8c0.7,0.6,1.1,1,1.1,1.2s-0.1,0.3-0.2,0.3H176
	c-1.3,0-2.2,0.1-2.5,0.3c-0.1-0.4-0.3-0.7-0.5-1.1c0.5,0.1,1.4,0.2,2.7,0.2h2.1c-0.2-0.1-0.4-0.4-0.6-0.7c-0.4-0.6-0.8-1.1-1.4-1.5
	c0.1,0,0.1-0.1,0.1-0.2c2,0.2,3,0.6,3.1,1.4c0,0.3,0,0.5-0.1,0.7s-0.2,0.3-0.3,0.4h2.2c0.5-0.6,0.9-1,1.2-1.2h0.1
	C182.3,3.6,182.4,3.7,182.6,3.8z M177.1,12.7v-1.9h-1.8v1.9H177.1z M177.1,15.1v-1.9h-1.8v1.9H177.1z M180.9,12.7v-1.9h-2v1.9H180.9
	z M180.9,15.1v-1.9h-2v1.9H180.9z"/>
<path class="st0" d="M6.4,36.5c0.4,0.4,0.7,0.7,0.7,0.9c0,0.1-0.2,0.3-0.6,0.5C6.3,38,6.1,38,6.1,38.1c-1,1.7-1.7,3-2.2,3.9H5
	c0.5-0.6,0.8-0.9,0.9-0.9c0.2,0,0.5,0.2,1,0.5c0.5,0.4,0.8,0.7,0.8,0.8s-0.1,0.3-0.4,0.4c-0.3,0.1-0.4,0.3-0.5,0.4
	c-0.4,1.4-0.9,2.6-1.5,3.5c0.8,0.6,1.8,1.1,2.8,1.3c1.8,0.4,3.8,0.5,6.3,0.5c2.8,0,4.6-0.1,5.5-0.3c0,0.1,0,0.2,0,0.4
	c-0.3,0-0.5,0.1-0.8,0.4c-0.2,0.2-0.3,0.4-0.4,0.8c-0.1,0.3-0.3,0.4-0.7,0.4c-0.8,0-2.1,0-4-0.1c-3-0.1-5.1-0.4-6.4-1
	C6.4,48.7,5.5,48,5,47.2c-0.3,0.4-0.6,0.8-1,1.1c-1,1.1-2.2,1.9-3.4,2.4c-0.1-0.1-0.1-0.1-0.1-0.2c1.2-1,2.2-2.2,2.9-3.4
	C4.3,45.5,4.8,44,5,42.5H3.3C3.1,42.8,3,43,2.9,43.1c-0.1,0.2-0.3,0.3-0.7,0.3c-0.7,0-1-0.2-1-0.5c1.2-1.9,2.2-3.8,3.1-5.5H1.7
	c-0.2,0-0.5,0.1-0.8,0.1c-0.1-0.3-0.2-0.5-0.3-0.8c0.4,0.1,0.8,0.1,1,0.1h2.6c0.6-0.6,1-1,1.1-1C5.7,35.9,6,36.1,6.4,36.5z
	 M4.3,32.3c0.9,0.6,1.3,1.3,1.3,2.2c0,0.5-0.1,0.8-0.4,1c-0.1,0.1-0.4,0.2-0.7,0.2c-0.5,0-0.8-0.4-0.9-1.3c-0.2-0.8-0.4-1.3-0.6-1.7
	c-0.1-0.3-0.4-0.5-0.6-0.8c0,0,0.1-0.1,0.2-0.2C3.3,31.8,3.9,32,4.3,32.3z M19.2,33.5c0,0.2-0.1,0.3-0.4,0.3
	c-0.6-0.1-1.1-0.1-1.5-0.2c-1.5,0.4-3.6,0.7-6.4,0.8v1.2c0,0.8,0,1.5,0,2.1h5.6c0.6-0.8,1-1.3,1.2-1.5h0.1c0.2,0.1,0.5,0.3,0.9,0.7
	c0.6,0.5,0.9,0.9,1,1.1c0,0.2-0.1,0.3-0.1,0.4h-3.4v5.3c0,0.9,0.1,2,0.1,3.2c0,0.3-0.4,0.5-1.2,0.5c-0.6,0-0.9-0.1-0.9-0.3
	c0-0.7,0.1-1.8,0.1-3.5v-5.2H11c-0.1,1.6-0.2,2.7-0.4,3.4c-0.1,0.8-0.3,1.6-0.7,2.4c-0.6,1.3-1.4,2.3-2.2,2.9
	c-0.2,0-0.3-0.1-0.3-0.2c1.1-1.7,1.7-4.9,1.7-9.4v-2.7c0-0.6-0.1-1-0.2-1.4l1.8,0.7c2.7-0.6,4.7-1.4,6.1-2.4
	C18.4,32.6,19.2,33.3,19.2,33.5z"/>
<path class="st0" d="M23.6,47.8c0-0.7,0.4-1.2,0.9-1.2c0.9,0,1.1,1.1,1.1,1.2c0.1,0.3,0.6,1.1,2.6,1.1c2.6,0,4.1-1.9,4.1-3.8
	c0-2.8-1.8-4.5-4-5c-0.5-0.1-0.5,0-0.5-0.4c0-0.3,0.1-0.3,0.3-0.4c1.8-0.3,3.6-1.8,3.6-4c0-1.8-1.1-3.1-2.9-3.1
	c-2.1,0-3.1,1.5-3.7,3.1c-0.1,0.2-0.2,0.3-0.3,0.3l-0.5-0.1c-0.1,0-0.1-0.2,0-0.4c0.4-1.9,2.1-4.5,5.3-4.5c3.1,0,4.1,2.2,4.1,3.7
	c0,2.4-1.7,3.9-3.1,4.8c1.9,0.5,4.1,2.4,4.1,4.9c0,3.6-3.2,6.2-7,6.2C24.5,50,23.6,48.6,23.6,47.8z"/>
<path class="st0" d="M37.4,41.2c0-6.4,2.7-10.7,6.2-10.7c4.1,0,6,5.3,6,9.6c0,6.4-2.4,9.9-6,9.9C39.2,50,37.4,44.6,37.4,41.2z
	 M46.4,47c0.6-1.3,0.9-3.5,0.9-7.6s-1.4-8-3.8-8c-1.1,0-1.9,0.4-2.5,1.7c-1,2-1.1,5.2-1.1,7.6c0,2.7,0.3,4.6,1,5.9
	c0.9,1.8,1.9,2.4,2.9,2.4C44.6,49,45.7,48.7,46.4,47z"/>
<path class="st0" d="M54.6,49.2c0,2.1-1.9,3.5-2.3,3.8c-0.1,0.1-0.3,0.2-0.4,0.2c-0.2,0-0.2-0.1-0.2-0.2c0-0.1,0-0.2,0.2-0.3
	c0.5-0.4,1.4-1.4,1.4-2.5c0-0.3-0.2-0.5-0.3-0.6c-0.2-0.1-1.1-0.3-1.1-1.3c0-0.5,0.4-0.9,1.1-0.9C53.6,47.3,54.6,48,54.6,49.2z"/>
<path class="st0" d="M56.5,41.2c0-6.4,2.7-10.7,6.2-10.7c4.1,0,6,5.3,6,9.6c0,6.4-2.4,9.9-6,9.9C58.3,50,56.5,44.6,56.5,41.2z
	 M65.5,47c0.6-1.3,0.9-3.5,0.9-7.6s-1.4-8-3.8-8c-1.1,0-1.9,0.4-2.5,1.7c-1,2-1.1,5.2-1.1,7.6c0,2.7,0.3,4.6,1,5.9
	c0.9,1.8,1.9,2.4,2.9,2.4C63.7,49,64.8,48.7,65.5,47z"/>
<path class="st0" d="M70.5,41.2c0-6.4,2.7-10.7,6.2-10.7c4.1,0,6,5.3,6,9.6c0,6.4-2.4,9.9-6,9.9C72.3,50,70.5,44.6,70.5,41.2z
	 M79.5,47c0.6-1.3,0.9-3.5,0.9-7.6s-1.4-8-3.8-8c-1.1,0-1.9,0.4-2.5,1.7c-1,2-1.1,5.2-1.1,7.6c0,2.7,0.3,4.6,1,5.9
	c0.9,1.8,1.9,2.4,2.9,2.4C77.7,49,78.8,48.7,79.5,47z"/>
<path class="st0" d="M84.5,41.2c0-6.4,2.7-10.7,6.2-10.7c4.1,0,6,5.3,6,9.6c0,6.4-2.4,9.9-6,9.9C86.3,50,84.5,44.6,84.5,41.2z
	 M93.5,47c0.6-1.3,0.9-3.5,0.9-7.6s-1.4-8-3.8-8c-1.1,0-1.9,0.4-2.5,1.7c-1,2-1.1,5.2-1.1,7.6c0,2.7,0.3,4.6,1,5.9
	c0.9,1.8,1.9,2.4,2.9,2.4C91.7,49,92.8,48.7,93.5,47z"/>
<path class="st0" d="M105.3,36.8c0.5,0.5,0.7,0.8,0.8,1c0,0.2-0.1,0.3-0.3,0.3H103v6.3c1-0.2,2-0.4,3-0.7c0.1,0.1,0.1,0.2,0.1,0.3
	c-1.5,1-3.3,1.9-5.5,2.6c-0.1,0.2-0.2,0.5-0.2,0.9c0,0.2-0.1,0.3-0.3,0.3c-0.2,0-0.5-0.5-1-1.6c-0.2-0.5-0.4-1-0.6-1.3
	c0.8-0.1,1.7-0.2,2.6-0.3V38c-1.4,0-2.2,0.1-2.2,0.2c-0.1-0.3-0.3-0.6-0.4-1.1c0.3,0.1,1.1,0.2,2.6,0.2V34c0-0.9,0-1.7-0.1-2.2
	c2,0.3,3,0.5,3,0.8c0,0.2-0.1,0.3-0.4,0.4c-0.4,0.2-0.6,0.3-0.6,0.4v4.1h0.1c0.7-1,1.1-1.5,1.3-1.5C104.5,36,104.8,36.2,105.3,36.8z
	 M115.6,31.9c0.8,0.7,1.2,1.2,1.3,1.4c0,0.2-0.1,0.3-0.1,0.3H112v8.7h2.6c0.3-0.5,0.7-0.9,1-1.3c0.1-0.1,0.2-0.2,0.3-0.2
	s0.2,0.1,0.4,0.2c0.8,0.8,1.3,1.2,1.4,1.5c0,0.2-0.1,0.3-0.1,0.3H112v4.1c0,0.9,0.1,2,0.1,3.2c0,0.3-0.4,0.4-1.2,0.5
	c-0.6,0-0.9-0.1-0.9-0.3c0-0.7,0.1-1.8,0.1-3.5v-4H107c-0.9,0-1.6,0.1-2,0.2c-0.1-0.2-0.2-0.5-0.3-0.8c0.5,0.1,1.2,0.1,2.3,0.1h3.1
	v-8.7h-2.5c-0.9,0-1.5,0.1-2,0.2c-0.1-0.3-0.2-0.5-0.3-0.8c0.4,0.1,1.2,0.1,2.3,0.1h6.5c0.3-0.5,0.6-0.9,1-1.2
	c0.1-0.1,0.2-0.2,0.3-0.2S115.4,31.7,115.6,31.9z M109.1,39.3c0,1-0.4,1.4-1.2,1.4c-0.5,0-0.8-0.3-0.8-0.9c0-0.1,0-0.3,0-0.5
	c0-0.3,0-0.6,0-0.9c-0.1-1-0.5-2.1-1.3-3c0.2-0.1,0.3-0.1,0.3-0.2C108.1,36.6,109.1,37.9,109.1,39.3z M116.4,35.5
	c0.5,0.2,0.7,0.3,0.7,0.4s-0.1,0.2-0.4,0.3c-0.4,0.1-0.6,0.2-0.8,0.2c-0.5,1.9-1.5,3.4-3.1,4.5l-0.3-0.1c0.9-1.6,1.4-3.6,1.6-6
	C115.2,35,115.9,35.3,116.4,35.5z"/>
<path class="st0" d="M122.1,32.6h2.2c0.5-0.6,0.9-0.9,1.2-0.9c0.1,0,0.4,0.3,1,0.7c0.5,0.5,0.8,0.8,0.8,1s-0.1,0.3-0.3,0.3
	c-0.4,0.2-0.7,0.3-0.8,0.4c-0.5,1.3-1.4,2.9-2.5,4.6c1.9,1.6,2.9,3.3,3,5.4c0,1.8-0.7,2.9-2.1,3.2c-0.2,0-0.4-0.1-0.4-0.4
	c-0.1-0.5-0.3-0.9-0.7-1.2c-0.3-0.2-0.6-0.3-0.8-0.4c0,0,0.1-0.2,0.1-0.3c0.4,0.1,0.8,0.2,1.4,0.2c0.5,0,0.8-0.5,0.8-1.3
	c0-2.2-0.5-3.9-1.6-5c0.6-1.4,1-3.3,1.3-5.6h-2.2v17c-0.1,0.4-0.5,0.6-1.2,0.6c-0.4,0-0.7-0.1-0.8-0.2c0-2.9,0-5.8,0.1-8.7v-5.7
	c0-2.4-0.1-3.8-0.2-4.3L122.1,32.6z M137.7,39.2c0.8,0.7,1.2,1.1,1.2,1.3s-0.1,0.3-0.2,0.3h-7.5c-0.1,0.2-0.2,0.4-0.3,0.6
	c-0.3,0.4-0.5,0.8-0.8,1.2h5.8c0.6-0.6,0.9-0.9,1.1-0.9c0.3,0,0.7,0.3,1.1,0.6c0.4,0.4,0.7,0.6,0.7,0.8c0,0.1-0.1,0.3-0.4,0.4
	c0,0-0.1,0.1-0.4,0.2c-0.2,1.8-0.5,3.3-0.9,4.5c-0.6,1.4-1.4,2.2-2.5,2.2c-0.1,0-0.3-0.1-0.4-0.4c-0.1-0.4-0.3-0.8-0.8-1
	c-0.2-0.1-0.5-0.3-0.9-0.4c0,0,0.1-0.1,0.1-0.3c0.7,0.1,1.4,0.2,2,0.2c0.4,0,0.7-0.3,0.8-0.6c0.4-1.4,0.6-3,0.8-4.8H135
	c-0.2,1-0.5,1.8-0.8,2.4c-1.1,2.2-3.3,3.8-6.7,4.7c0-0.1,0-0.1-0.1-0.3c2.1-0.9,3.7-2.3,4.9-4.2c0.6-1,0.9-1.9,1-2.7h-0.8
	c-0.1,0.3-0.3,0.6-0.5,0.8c-1.3,1.8-3.1,3.3-5.5,4.5c-0.1-0.1-0.2-0.2-0.2-0.3c2-1.5,3.4-3.1,4.2-4.7c0.1-0.1,0.1-0.3,0.2-0.4h-0.9
	c-0.8,0.9-1.7,1.6-2.7,2.2c-0.1-0.1-0.1-0.2-0.2-0.3c1.3-1.3,2.1-2.7,2.6-4.1c0-0.1,0-0.1,0.1-0.2c-1.4,0-2.4,0.1-2.7,0.2
	c-0.1-0.4-0.3-0.7-0.5-1.1c0.6,0.1,1.7,0.2,3.3,0.2h6.3c0.6-0.7,1-1.1,1.3-1.3c0,0,0.1,0,0.2,0C137.3,39,137.5,39.1,137.7,39.2z
	 M129.8,32.8h4.5c0.5-0.6,0.8-0.9,1-0.9s0.5,0.2,1,0.6s0.7,0.6,0.7,0.8c0,0.1-0.1,0.2-0.3,0.4c-0.3,0.2-0.5,0.4-0.5,0.4v2.5
	c0.1,1,0.1,1.6,0.1,1.9c0,0.4-0.3,0.7-1,0.7c-0.5,0-0.8-0.1-0.8-0.4v-0.2h-4.7V39c-0.1,0.4-0.4,0.6-1.1,0.6c-0.4,0-0.6-0.1-0.7-0.2
	c0-1.1,0-2.2,0.1-3.3v-2.2c0-0.9-0.1-1.5-0.1-1.7L129.8,32.8z M134.6,35.3v-2h-4.7v2H134.6z M134.6,38v-2.2h-4.7V38H134.6z"/>
<path class="st0" d="M143.4,33.6h2.7c0.5-0.7,0.9-1.1,1.1-1.1s0.5,0.2,1.1,0.6c0.5,0.4,0.8,0.7,0.8,0.8s-0.1,0.3-0.3,0.4
	c-0.3,0.3-0.5,0.4-0.5,0.5v5.9c0.1,2.3,0.1,3.8,0.1,4.4c0,0.5-0.4,0.7-1.1,0.7c-0.5,0-0.8-0.1-0.9-0.4v-1.3h-2.7v1.7
	c-0.1,0.4-0.5,0.6-1.2,0.6c-0.4,0-0.7-0.1-0.8-0.2c0-2.1,0-4.2,0.1-6.2v-4c0-1.7-0.1-2.8-0.1-3.1L143.4,33.6z M146.5,38.5v-4.4h-2.7
	v4.4H146.5z M146.5,43.6V39h-2.7v4.6H146.5z M151.7,45.2c-0.3,0.9-0.8,1.8-1.8,2.7c-1.2,1.3-2.5,2.1-3.7,2.5c-0.1,0-0.2-0.1-0.3-0.2
	c1.4-1,2.6-2.2,3.4-3.8c0.8-1.2,1.2-3.2,1.2-6.1c0-3.3,0-5.3,0-6.1c0-0.7,0-1.4-0.1-2.3l2.2,1h3.7c0.4-0.6,0.8-1,1-1.2
	c0.2,0,0.5,0.2,1.1,0.5c0.6,0.4,0.9,0.7,0.9,0.9c0,0.1-0.1,0.3-0.4,0.4c-0.3,0.2-0.4,0.3-0.5,0.4v13.4c0,1.4-0.8,2.2-2.3,2.5
	c-0.2,0-0.4-0.1-0.4-0.4c-0.2-0.5-0.7-1-1.2-1.2c-0.8-0.3-1.4-0.5-1.7-0.6c0,0,0-0.1,0-0.4c0.8,0.1,1.9,0.1,3.3,0.1
	c0.3,0,0.5-0.2,0.5-0.5v-4h-4.3C152.1,43.9,151.9,44.6,151.7,45.2z M152.4,40.3c0,0.8,0,1.6-0.1,2.2h4.3v-4.4h-4.2V40.3z
	 M152.4,37.6h4.2v-4.1h-4.2V37.6z"/>
<path class="st0" d="M167,36.6c0.4,0.4,0.7,0.7,0.7,0.9c0,0.1-0.2,0.3-0.6,0.5c-0.2,0.1-0.4,0.1-0.4,0.2c-0.9,1.7-1.7,3-2.2,3.8h1
	c0.5-0.5,0.8-0.8,0.9-0.8c0.2,0,0.5,0.2,0.9,0.5c0.5,0.4,0.8,0.6,0.8,0.7c0,0.1-0.1,0.3-0.4,0.4c-0.3,0.1-0.4,0.2-0.4,0.3
	c-0.4,1.4-0.8,2.7-1.4,3.7c0.6,0.5,1.4,1,2.6,1.3c1,0.4,3,0.6,6,0.6c3.2-0.1,5.4-0.3,6.6-0.5c0,0.2,0,0.3,0,0.4
	c-0.2,0.1-0.4,0.2-0.6,0.4c-0.2,0.2-0.3,0.4-0.4,0.7c0,0.4-0.2,0.7-0.7,0.7c-3,0-4.9-0.1-5.4-0.1c-3,0-5.1-0.4-6.4-1.1
	c-0.8-0.4-1.4-1-2-1.8c-0.3,0.4-0.5,0.7-0.8,1c-0.9,1.1-2,1.9-3,2.4c-0.1,0-0.1-0.1-0.1-0.2c1.1-1,2-2.1,2.6-3.4
	c0.8-1.5,1.3-3,1.5-4.5h-1.4c-0.2,0.3-0.3,0.5-0.4,0.6c-0.1,0.2-0.3,0.3-0.7,0.3c-0.7,0-1-0.2-1-0.5c1.2-1.9,2.2-3.8,3-5.5h-2.4
	c-0.2,0-0.5,0.1-0.8,0.1c-0.1-0.3-0.2-0.5-0.3-0.8c0.4,0.1,0.8,0.1,1,0.1h2.4c0.6-0.6,1-0.9,1.1-0.9C166.3,36,166.6,36.2,167,36.6z
	 M165,32.4c0.9,0.6,1.4,1.3,1.4,2.2c0,0.5-0.1,0.8-0.4,1c-0.1,0.1-0.4,0.2-0.7,0.2c-0.5,0-0.9-0.4-1-1.3c-0.2-0.8-0.4-1.3-0.7-1.7
	c-0.1-0.3-0.4-0.5-0.6-0.8c0,0,0.1-0.1,0.2-0.2C164,31.8,164.5,32,165,32.4z M179.8,32.4c0.6,0.5,0.9,0.9,0.9,1
	c0,0.2-0.2,0.3-0.6,0.3c-0.3,0-0.4,0.1-0.6,0.1c-0.5,0.4-1.2,0.8-2.1,1.1c-0.1-0.1-0.2-0.1-0.2-0.2c0.2-0.5,0.4-1,0.5-1.4H170
	c0,0.1,0,0.2,0,0.3c0,1-0.2,1.7-0.6,2c0.6,0.1,1.4,0.2,2.5,0.2h1.2c0-0.6-0.1-1.2-0.1-1.7c0.6,0.1,1.2,0.2,1.9,0.3
	c0.5,0.1,0.7,0.2,0.7,0.4c0,0.1-0.1,0.2-0.3,0.2c-0.3,0.1-0.5,0.2-0.5,0.3v0.6h2.4c0.5-0.6,0.8-0.9,1-1h0.1c0.1,0.1,0.3,0.1,0.4,0.3
	c0.7,0.6,1,0.9,1,1.1s-0.1,0.3-0.2,0.3h-4.8v1.6h2c0.6-0.5,0.9-0.8,1.1-0.8s0.5,0.2,0.9,0.5c0.5,0.4,0.8,0.7,0.8,0.8
	s-0.1,0.2-0.3,0.4c-0.3,0.2-0.4,0.4-0.4,0.4v2.2c0,0.8,0.1,1.3,0.1,1.6c0,0.4-0.4,0.6-1.3,0.6c-0.4,0-0.5-0.1-0.5-0.4v-0.2h-2.4v0.3
	c0,0.6,0,1.1,0,1.5h3c0.5-0.6,0.9-1,1.2-1.2h0.1c0.1,0.1,0.3,0.2,0.4,0.3c0.7,0.6,1.1,1,1.1,1.2s-0.1,0.3-0.2,0.3h-5.6
	c0,0.9,0,1.7,0,2.2c0,0.3-0.4,0.5-1.2,0.5c-0.4,0-0.6-0.1-0.6-0.4c0-0.4,0-1.2,0.1-2.3h-2c-1.7,0-2.8,0.1-3.2,0.3
	c-0.1-0.4-0.3-0.7-0.5-1.1c0.7,0.1,1.8,0.2,3.5,0.2h2.1v-1.8h-2.3v0.2c-0.1,0.4-0.4,0.6-1,0.6c-0.4,0-0.6-0.1-0.7-0.2
	c0-1,0-2,0.1-2.9v-1.9c0-0.8-0.1-1.3-0.1-1.4l1.5,0.6h2.6v-1.6h-1c-1.4,0-2.2,0.1-2.5,0.2c-0.1-0.3-0.3-0.6-0.4-0.9
	c-0.1,0.1-0.3,0.1-0.5,0.1c-0.8,0-1.2-0.3-1.2-0.8c0-0.4,0.2-0.7,0.7-1c0.8-0.5,1.2-1.3,1.3-2.1h0.4c0,0.3,0.1,0.6,0.1,1h7.5
	c0.6-0.7,1-1.1,1.2-1.2C178.9,31.7,179.3,32,179.8,32.4z M173.2,40.1v-1.7h-2.3v1.7H173.2z M173.2,42.4v-1.7h-2.3v1.7H173.2z
	 M174.9,40.1h2.4v-1.7h-2.4V40.1z M174.9,42.4h2.4v-1.7h-2.4V42.4z"/>
<path class="st0" d="M193.3,32.9c0,0.1-0.1,0.2-0.4,0.2c-0.5,0-0.9-0.1-1.2-0.1c-0.8,0.2-1.6,0.4-2.6,0.5v1.8h1.8
	c0.5-0.6,0.9-1,1.2-1.2h0.1c0.1,0.1,0.3,0.2,0.4,0.3c0.7,0.7,1.1,1.1,1.1,1.2c0,0.2-0.1,0.3-0.2,0.3H189v1.7h1.5
	c0.5-0.5,0.9-0.7,1-0.8c0.2,0,0.5,0.2,1,0.6c0.5,0.4,0.7,0.6,0.7,0.8c0,0.1-0.1,0.2-0.3,0.4c-0.3,0.2-0.4,0.4-0.4,0.4v2.4
	c0.1,0.9,0.1,1.5,0.1,1.8c0,0.4-0.3,0.7-1,0.7c-0.5,0-0.8-0.1-0.8-0.4v-0.1h-2v2h1.7c0.5-0.6,0.8-0.9,1-1h0.1
	c0.1,0.1,0.3,0.1,0.4,0.3c0.7,0.6,1,0.9,1,1.1s-0.1,0.3-0.2,0.3h-4.1v1.7c1.3-0.1,2.5-0.3,3.7-0.5c0,0.1,0,0.2,0.1,0.2
	c-2,1-4.9,1.7-8.7,2.2c0,0.6-0.2,1-0.4,1c-0.1,0-0.4-0.5-0.8-1.3c-0.2-0.5-0.4-1-0.4-1.3c1.6,0,3.1-0.1,4.7-0.2V46h-1.4
	c-1.3,0-2.2,0.1-2.5,0.2c-0.1-0.4-0.3-0.7-0.5-1.1c0.5,0.1,1.4,0.2,2.7,0.2h1.6v-2H185v0.4c-0.1,0.4-0.4,0.6-1.1,0.6
	c-0.4,0-0.6-0.1-0.7-0.2c0-1.1,0-2.2,0.1-3.3v-2.1c0-0.9-0.1-1.5-0.1-1.6l1.4,0.5h2.2v-1.7h-1.4c-1.4,0-2.3,0.1-2.6,0.3
	c-0.1-0.4-0.3-0.7-0.5-1.1c0.5,0.1,1.5,0.2,2.8,0.2h1.7v-1.6c-1.2,0.1-2.5,0.2-3.9,0.2c0-0.1,0-0.2-0.1-0.3c3.6-0.5,6.3-1.3,8.1-2.3
	C192.6,32.2,193.3,32.7,193.3,32.9z M187.2,40.1v-2h-1.8v2H187.2z M187.2,42.8v-2.1h-1.8v2.1H187.2z M189.1,40.1h2v-2h-2V40.1z
	 M189.1,42.8h2v-2.1h-2V42.8z M200.7,36.1c0.5,0.5,0.8,0.8,0.8,0.9c0,0.1-0.1,0.3-0.3,0.4c-0.1,0.1-0.3,0.2-0.5,0.4
	c-0.1,5.7-0.4,9.2-0.8,10.5c-0.3,1.3-1.2,2-2.5,2.2c-0.2,0-0.3-0.2-0.3-0.5c-0.1-0.4-0.4-0.8-0.9-1.1c-0.3-0.2-0.7-0.4-1.1-0.6
	c0-0.1,0.1-0.2,0.1-0.3c1,0.2,1.7,0.3,2.1,0.3c0.5,0,0.8-0.3,0.9-0.8c0.5-2.4,0.7-5.8,0.7-10.3h-2c-0.1,7.2-1.9,11.7-5.5,13.5
	c-0.1-0.1-0.1-0.2-0.2-0.3c1.4-1.6,2.4-3.4,2.9-5.4c0.5-1.5,0.9-4.1,1-7.8c-0.8,0-1.4,0.1-1.8,0.2c-0.1-0.2-0.2-0.5-0.4-0.9
	c0.6,0.1,1.3,0.2,2.2,0.2v-3.9c0-0.5-0.1-0.9-0.2-1.2c1.9,0.3,2.9,0.6,2.9,0.9c0,0.1-0.1,0.2-0.3,0.3c-0.4,0.2-0.7,0.3-0.7,0.4v3.5
	h1.8c0.6-0.7,0.9-1.1,1.1-1.1C200.1,35.6,200.4,35.8,200.7,36.1z"/>
<path class="st0" d="M212.4,34.1c0,0.2-0.5,0.4-1.5,0.5c-0.7,1.5-1.6,2.9-2.7,4.2c-1.2,1.6-2.5,2.8-4,3.9c0,0-0.1-0.1-0.3-0.3
	c2.8-3.3,4.5-6.5,5.1-9.7C211.2,33.3,212.4,33.8,212.4,34.1z M214.6,40.2c0,0.2-0.5,0.4-1.5,0.5c-0.6,1.3-1.2,2.6-2,3.7
	c-0.7,1-1.4,1.9-2.1,2.6c3.1,0,6-0.1,8.8-0.2c-0.7-1.6-1.5-3-2.4-4c0,0,0.1-0.1,0.3-0.2c3.2,2.2,4.9,4.2,4.9,6c0,0.6-0.2,1-0.5,1.2
	c-0.2,0.1-0.4,0.2-0.6,0.2c-0.5,0-0.8-0.7-1.2-1.9c-0.1-0.3-0.2-0.6-0.3-0.9c-2.5,0.8-6.1,1.5-10.9,1.9c0,0.8-0.2,1.2-0.4,1.2
	c-0.1,0-0.5-0.6-0.9-1.7c-0.3-0.7-0.4-1.2-0.5-1.6c1,0,2,0,3,0c1.8-2.8,2.8-5.5,3.2-8.2C213.5,39.4,214.6,39.9,214.6,40.2z
	 M217.8,33.2c0,0.2-0.2,0.4-0.7,0.4c-0.3,0.1-0.5,0.1-0.6,0.3c0,0.8,0.5,1.8,1.4,3.1c1.3,1.7,2.8,2.8,4.5,3.3c0,0.2-0.1,0.4-0.1,0.4
	c-0.5,0-0.8,0.1-1,0.4c-0.3,0.8-0.5,1.1-0.7,1.1c-0.6-0.1-1.4-0.8-2.4-2.3c-1.3-1.8-2.2-4-2.7-6.7h-1.3c-0.8,0-1.3,0-1.6,0.1
	c-0.1-0.3-0.3-0.6-0.4-0.9c0.4,0.1,1,0.2,1.7,0.2h1c0.5-0.7,0.9-1,1.1-1C217.3,32.5,217.8,33,217.8,33.2z"/>
<path class="st0" d="M242.4,32c0.6,0.4,0.9,0.7,0.9,0.9c0,0.1-0.1,0.3-0.3,0.4c-0.3,0.3-0.5,0.4-0.5,0.5v9.7c0,3.3,0.1,5.5,0.1,6.7
	c0,0.4-0.5,0.7-1.4,0.7c-0.4,0-0.5-0.2-0.5-0.5v-1.2h-12.9v0.9c-0.1,0.4-0.5,0.6-1.2,0.6c-0.4,0-0.7-0.1-0.8-0.2
	c0-2.9,0-5.8,0.1-8.6v-5.6c0-2.4-0.1-3.8-0.1-4.3l2,0.8h12.6c0.6-0.8,1-1.2,1.2-1.2C241.6,31.6,241.9,31.7,242.4,32z M240.6,48.6
	V33.3h-12.9v15.3H240.6z M238.8,34.9c0.4,0.4,0.7,0.7,0.7,0.8c0,0.2-0.1,0.3-0.2,0.3h-4.4v1.6h2.8c0.6-0.8,1-1.2,1.2-1.3
	c0.1,0,0.4,0.2,0.8,0.7c0.4,0.4,0.7,0.7,0.7,0.9s-0.1,0.3-0.2,0.3h-8.7c-2,0-3.1,0.1-3.1,0.2c-0.1-0.3-0.3-0.6-0.4-1.1
	c0.3,0.1,1.4,0.2,3.2,0.3h2V36h-0.6c-2,0-3,0.1-3,0.2c-0.1-0.3-0.3-0.6-0.4-1.1c0.3,0.1,1.4,0.2,3.3,0.3h0.8c0-0.7-0.1-1.3-0.1-1.8
	c1.8,0.3,2.8,0.5,2.8,0.7s-0.1,0.3-0.3,0.3c-0.4,0.2-0.6,0.3-0.6,0.4v0.4h2c0.6-0.8,1-1.1,1.2-1.1C238.1,34.3,238.3,34.5,238.8,34.9
	z M228.3,47.3c-0.1-0.1-0.2-0.2-0.2-0.3c2.2-1.3,3.7-2.6,4.6-3.9c0-0.1,0.1-0.1,0.1-0.2h-1.4c-0.1,0.4-0.5,0.6-1.1,0.6
	c-0.4,0-0.6-0.1-0.7-0.2c0-0.7,0-1.4,0.1-2V40c0-0.6-0.1-0.9-0.1-1l1.6,0.6h5.1c0.5-0.6,0.9-1,1-1c0.2,0,0.5,0.2,1,0.6
	s0.7,0.6,0.7,0.8c0,0.1-0.1,0.3-0.3,0.4c-0.3,0.2-0.4,0.4-0.4,0.4v1.1c0.1,0.4,0.1,0.7,0.1,0.8c0.3,0.2,0.7,0.4,1.2,0.7
	c0.3,0.2,0.5,0.4,0.5,0.5S240,44,239.8,44c-0.3,0-0.5,0.1-0.7,0.1c-0.3,0.2-0.6,0.4-1,0.6c-0.2,0.1-0.3,0.2-0.5,0.2
	c1.1,0.5,1.7,1.1,1.7,1.8c0,0.3-0.1,0.5-0.2,0.6c-0.1,0.3-0.3,0.4-0.7,0.4c-0.3,0-0.7-0.5-1.3-1.4c-0.6-0.7-1.4-1.3-2.4-1.9v2.4
	c0,0.3,0,0.6,0,0.8c0,0.4-0.4,0.5-1.1,0.5c-0.5,0-0.8-0.1-0.8-0.3v-3.1C231.8,45.7,230.2,46.5,228.3,47.3z M236.6,42.3V40h-5.2v2.3
	H236.6z M238,43.1c-0.2,0.1-0.4,0.1-0.6,0.1c-0.5,0-0.8-0.1-0.8-0.3H235v1c0.8,0.2,1.6,0.4,2.1,0.6C237.5,44.1,237.8,43.6,238,43.1z
	"/>
<path class="st0" d="M254.6,44.7l-0.4-0.4c0.8-0.7,1.2-1.3,1.2-2c0-0.1-0.1-0.2-0.3-0.2c-1-0.2-1.5-0.7-1.5-1.5c0-0.4,0.1-0.7,0.4-1
	c0.3-0.3,0.7-0.5,1.2-0.5s0.9,0.2,1.2,0.6c0.2,0.3,0.4,0.7,0.4,1.1C256.8,42.4,256,43.7,254.6,44.7z"/>
<path class="st0" d="M271.6,32.7c0,0.2-0.1,0.3-0.3,0.3c-0.4,0.2-0.6,0.3-0.6,0.4v3.9h0.1c0.5-0.7,0.9-1,1-1.1h0.1
	c0.1,0,0.4,0.3,1,0.9c0.3,0.3,0.4,0.5,0.4,0.6c0,0.2-0.1,0.3-0.3,0.3h-2.2v5.8c0.8-0.3,1.6-0.5,2.5-0.9c0.1-1.1,0.1-2.4,0.2-3.9
	c0-1.8,0-2.9,0-3.4c0-0.4,0-0.8-0.1-1.3l2,0.9h4c0-2.4,0-3.7-0.1-4c1.9,0.2,2.9,0.4,3,0.7V32c1.4,0.2,2.2,0.7,2.3,1.5
	c0,0.2,0,0.4-0.1,0.5c0.2,0.1,0.4,0.3,0.7,0.5c0.5,0.5,0.8,0.8,0.8,0.9c0,0.2,0,0.3-0.1,0.3h-4.5c0,1.1,0.1,2.2,0.1,3.5
	c0.1,1,0.2,2,0.4,2.9c0.6-1.4,1.1-2.9,1.4-4.5c1.8,1,2.7,1.7,2.7,1.9s-0.1,0.3-0.3,0.3c-0.2,0-0.6,0-1,0c-0.7,1.9-1.4,3.5-2.3,4.8
	c0.5,1.6,1,2.6,1.8,2.9c0.3-0.1,0.8-1.2,1.5-3.3c0.1,0,0.3,0.1,0.4,0.2c-0.4,1.8-0.6,3.1-0.6,3.9c0,0.3,0.2,0.6,0.4,0.9
	c0.1,0.2,0.2,0.4,0.2,0.6c0,0.4-0.3,0.5-0.8,0.5c-0.4,0-0.7-0.1-1.1-0.3c-1.2-0.7-2.2-1.9-2.9-3.7c-1.7,2.1-3.8,3.4-6.3,4.1
	c0-0.1,0-0.2-0.1-0.3c2.4-1.4,4.3-3.3,5.8-5.5c-0.6-2.3-1-5.2-1.1-8.7h-4v3v0.4h1.4c0.5-0.5,0.8-0.8,0.9-0.8c0.2,0,0.5,0.2,0.9,0.6
	c0.4,0.4,0.7,0.7,0.7,0.8s-0.1,0.2-0.3,0.3c-0.2,0.1-0.3,0.2-0.4,0.3c-0.1,2.2-0.4,3.7-0.7,4.3c-0.2,0.9-0.8,1.5-1.7,1.7
	c-0.1,0-0.2-0.1-0.2-0.4c-0.1-0.4-0.2-0.7-0.4-0.9c-0.2-0.3-0.4-0.4-0.6-0.5c0,0,0-0.1,0.1-0.3c0.3,0.2,0.7,0.3,1,0.4
	c0.3,0,0.4-0.2,0.5-0.5c0.1-0.5,0.3-1.9,0.4-4.3h-1.6c0,2-0.2,3.6-0.5,4.6c-0.2,1-0.6,2-1.3,3.1c-0.9,1.5-1.8,2.4-2.8,2.9
	c-0.1,0-0.2-0.1-0.3-0.2c0.9-1.2,1.7-2.6,2.2-4.3c0.2-0.6,0.4-1.4,0.5-2.4c-1.4,1-2.9,1.9-4.7,2.7c-0.1,0.2-0.2,0.4-0.2,0.8
	c0,0.2-0.1,0.3-0.2,0.3c-0.2,0-0.5-0.5-0.9-1.4c-0.2-0.5-0.3-0.9-0.5-1.2c0.8-0.1,1.7-0.3,2.5-0.5V38h-1.1c-0.4,0-0.7,0-1,0.1
	c-0.2-0.3-0.4-0.7-0.5-1c0.3,0.2,0.6,0.3,1,0.3h1.6V34c0-0.8,0-1.5-0.1-2.1C270.7,32.2,271.6,32.5,271.6,32.7z M281,32.7
	c0,0.8,0,1.7,0,2.6h1.9c0.2-0.3,0.4-0.5,0.5-0.7c-0.2-0.1-0.5-0.4-0.8-0.9s-0.7-1-1.1-1.3C281.3,32.6,281.1,32.7,281,32.7z"/>
<path class="st0" d="M305.4,33.5c0.9,0.8,1.4,1.3,1.4,1.5s-0.1,0.3-0.2,0.3h-13.9c-2.5,0-4.1,0.1-4.7,0.3c-0.1-0.4-0.3-0.7-0.5-1.1
	c1,0.1,2.8,0.2,5.4,0.2h4.2c-0.2-0.2-0.5-0.5-0.8-1c-0.5-0.8-1-1.5-1.7-2c0,0,0.1-0.1,0.1-0.3c2.4,0.3,3.6,1,3.7,2.1
	c0,0.3,0,0.5-0.1,0.7s-0.1,0.3-0.2,0.4h5.2c0.7-0.9,1.2-1.4,1.5-1.6c0,0,0.1,0,0.2,0C305,33.2,305.2,33.3,305.4,33.5z M298.3,36.1
	c0.6,0.1,0.9,0.3,0.9,0.4c0,0.1-0.1,0.3-0.4,0.3c-0.4,0.1-0.6,0.3-0.6,0.3V39h4.1c0.7-0.7,1.1-1,1.2-1c0.2,0.1,0.5,0.2,1,0.5
	c0.6,0.4,0.9,0.8,0.9,0.9c0,0.2-0.1,0.3-0.3,0.5c-0.2,0.1-0.4,0.2-0.6,0.4v5.9c0,1.3-0.9,2.1-2.6,2.4c-0.3-0.1-0.5-0.2-0.5-0.4
	c-0.1-0.5-0.3-0.8-0.6-1c-0.3-0.2-0.8-0.4-1.5-0.7c0-0.1,0-0.2,0-0.3c1,0.1,1.8,0.2,2.4,0.2c0.5,0,0.8-0.1,0.8-0.4v-6.4h-4.4v5.6
	c0,2.4,0.1,4,0.1,5c0,0.4-0.5,0.5-1.4,0.5c-0.5,0-0.7-0.1-0.7-0.4c0-0.8,0.1-2.6,0.1-5.2v-5.5h-4.1v8.7c-0.1,0.5-0.5,0.7-1.2,0.7
	c-0.5,0-0.7-0.1-0.8-0.2c0-1.6,0-3.3,0.1-4.8v-3.1c0-1.3-0.1-2.1-0.2-2.4l1.9,0.7h4.3v-1.3c0-0.7-0.1-1.3-0.2-2
	C296.7,35.9,297.5,36,298.3,36.1z"/>
<path class="st0" d="M310.8,48c-0.1,1.4-0.6,2.1-1.6,2.1c-0.6,0-0.9-0.3-0.9-0.7s0.2-0.8,0.7-1.2c0.6-0.6,1-1.4,1.2-2.4
	c0-0.4,0.1-0.8,0.1-1.2c0.1,0,0.2,0,0.3-0.1C310.7,45.8,310.8,47,310.8,48z M316.4,42.5c0,0.7-0.3,1-0.8,1s-0.8-0.3-0.8-0.8
	c0-0.1,0-0.3-0.1-0.6c-1.1,0.4-2.7,0.8-4.8,1.2c-0.1,0.5-0.2,0.8-0.4,0.8s-0.3-0.2-0.4-0.7c-0.2-0.5-0.4-1-0.5-1.8
	c0.4,0.1,0.9,0.1,1.7,0.1c1.2-1.3,2.2-2.8,3-4.2c-0.9,0.3-2,0.7-3.3,1c-0.1,0.5-0.2,0.8-0.3,0.8c-0.1,0-0.3-0.2-0.4-0.7
	c-0.2-0.5-0.4-1-0.5-1.7c0.3,0,0.7,0.1,1.2,0.1c1.1-1.6,1.8-3.4,2.1-5.5c1.7,0.4,2.5,0.7,2.5,0.9s-0.2,0.3-0.6,0.3
	c-0.3,0.1-0.4,0.1-0.4,0.1c-0.7,1.5-1.7,2.9-3,4.2c1.3,0,2.4-0.1,3.1-0.1c0.4-0.7,0.7-1.5,0.9-2.3c1.6,0.6,2.4,1,2.4,1.2
	s-0.3,0.3-0.9,0.4c-1,1.8-2.7,3.7-5,5.6c1.5,0,2.7,0,3.5-0.1c-0.1-0.3-0.2-0.6-0.3-0.9c-0.2-0.4-0.3-0.6-0.4-0.8
	c0.1-0.1,0.2-0.2,0.3-0.2C315.7,40.6,316.4,41.5,316.4,42.5z M313.2,48.3c0,1-0.4,1.4-1.1,1.4c-0.4,0-0.6-0.3-0.6-0.8
	c0-0.3,0.1-0.7,0.3-1.5c0.1-0.4,0.1-1.1,0.1-2c0-0.3,0-0.7-0.1-0.9c0.1,0,0.2,0,0.3-0.1C312.8,45.9,313.2,47.2,313.2,48.3z
	 M316,47.9c0,0.8-0.3,1.2-0.9,1.2c-0.4,0-0.7-0.3-0.7-0.7V48c0-0.3,0-0.5,0-0.8c0-1-0.3-2-0.8-2.8c0.2,0,0.3-0.1,0.3-0.1
	C315.3,45.4,316,46.6,316,47.9z M321.9,32.3c0,0.1-0.1,0.2-0.3,0.3c-0.4,0.1-0.6,0.2-0.7,0.3c-0.1,0.3-0.2,0.6-0.3,0.8h2.5
	c0.6-0.7,1-1,1.1-1s0.4,0.2,0.9,0.6s0.8,0.8,0.8,0.9c0,0.2-0.3,0.4-0.9,0.6l-1,4.2h1c0.5-0.6,0.9-1,1.2-1.2c0,0,0.1,0,0.2,0
	c0.1,0.1,0.3,0.2,0.4,0.3c0.7,0.6,1.1,1,1.1,1.2s-0.1,0.3-0.2,0.3h-5c0.3,1.2,0.7,2.4,1.4,3.6c0.7-0.8,1.2-1.7,1.4-2.7
	c0.3,0.2,0.9,0.5,1.6,0.9c0.4,0.3,0.6,0.4,0.6,0.5s-0.1,0.2-0.3,0.2c-0.4,0-0.6,0.1-0.8,0.1c-0.4,0.3-0.8,0.6-1.2,0.9
	c-0.3,0.2-0.7,0.4-1,0.5c0.2,0.3,0.4,0.6,0.5,0.9c0.9,1.2,2,2,3.3,2.5c0,0-0.1,0.1-0.1,0.3c-0.3,0-0.5,0.3-0.7,0.7
	c-0.1,0.2-0.1,0.4-0.2,0.6c-0.1,0.1-0.1,0.2-0.3,0.2c-1.1,0-2.3-1.6-3.6-4.8c-0.3-0.8-0.5-1.6-0.7-2.4V48c0,1.5-0.8,2.4-2.4,2.6
	c-0.1,0-0.3-0.2-0.3-0.7c-0.1-0.5-0.4-0.9-0.9-1.1c-0.4-0.3-0.8-0.4-1.2-0.5c0-0.1,0-0.2,0-0.3c0.6,0,1.4,0.1,2.6,0.2
	c0.4,0,0.6-0.2,0.6-0.5v-3.1c-1,0.8-2,1.5-3.2,2.1c-0.1,0.1-0.1,0.4-0.2,0.7c0,0.2-0.1,0.3-0.2,0.3c-0.2,0-0.4-0.4-0.8-1.3
	c-0.2-0.5-0.3-0.8-0.5-1.1c1.6-0.3,3.2-0.7,4.9-1.5v-4.3h-1.7c-1.6,0-2.5,0.1-2.9,0.3c-0.1-0.4-0.3-0.7-0.5-1.1
	c0.6,0.1,1.7,0.2,3.1,0.2h3.3l0.5-1.9h-3.3c-0.1,0.2-0.1,0.3-0.2,0.4c-0.1,0.3-0.4,0.4-1,0.5c-0.6,0-0.9-0.1-0.9-0.4
	c1.2-2.4,1.8-4.4,2-6.1C321.1,31.9,321.9,32.1,321.9,32.3z M319.6,42.3c0,0.6-0.1,1-0.3,1.2c-0.2,0.2-0.4,0.3-0.7,0.3
	c-0.2,0-0.4-0.3-0.6-1c-0.3-0.7-0.7-1.4-1.3-2c0-0.1,0.1-0.2,0.1-0.3C318.6,41.1,319.5,41.7,319.6,42.3z M322.8,36.6l0.6-2.4h-2.9
	c-0.3,1-0.6,1.8-0.9,2.4H322.8z"/>
<path class="st0" d="M338.5,33c0,0.1-0.1,0.2-0.3,0.2c-0.4,0-0.7-0.1-1-0.1c-0.5,0.3-1.2,0.5-2,0.6V36h0.9c0.3-0.4,0.5-0.7,0.8-1
	c0.1-0.1,0.2-0.1,0.2-0.1c0.1,0,0.2,0.1,0.4,0.2c0.5,0.5,0.8,0.8,1,1c0.8-1.3,1.3-2.8,1.7-4.6c1.7,0.4,2.6,0.7,2.6,0.9
	s-0.3,0.3-0.9,0.4c-0.2,0.3-0.3,0.6-0.5,0.9h4.2c0.5-0.8,0.9-1.2,1.1-1.3h0.1c0.2,0.1,0.4,0.3,0.8,0.6c0.5,0.5,0.8,0.8,0.9,1
	c0,0.2-0.1,0.3-0.1,0.3H341c-0.3,0.5-0.6,0.9-1,1.3l0.8,0.3h4.4c0.5-0.7,0.8-1,1-1s0.5,0.2,1,0.6c0.5,0.4,0.7,0.6,0.7,0.8
	c0,0.1-0.1,0.3-0.3,0.4c-0.3,0.2-0.5,0.4-0.6,0.4v2.4c0.1,0.9,0.1,1.5,0.1,1.8c0,0.4-0.3,0.7-1,0.7c-0.5,0-0.8-0.1-0.8-0.4v-0.1
	h-2.1c-0.1,0.3-0.2,0.6-0.4,0.9c-0.1,0.3-0.3,0.6-0.4,0.9h2.1c0.5-0.5,0.9-0.8,1.1-0.8c0.1,0,0.5,0.2,0.9,0.7
	c0.5,0.4,0.7,0.7,0.7,0.9c0,0.1-0.1,0.2-0.3,0.3c-0.4,0.2-0.7,0.3-0.8,0.5c-0.5,1.2-1.2,2.2-2,3c1.3,0.6,2.9,1,4.6,1.2
	c0,0.1,0,0.3,0,0.4c-0.2,0-0.4,0.1-0.6,0.2c-0.2,0.1-0.4,0.4-0.5,0.8c-0.1,0.3-0.2,0.4-0.4,0.4c-0.9-0.2-2.1-0.7-3.4-1.6
	c-0.3-0.2-0.5-0.4-0.7-0.5c-1.5,1.1-3.5,1.8-5.9,2.2c0-0.1,0-0.2-0.1-0.3c2.4-0.8,4-1.8,5-2.8c-0.5-0.7-1-1.4-1.4-2.4
	c-0.8,0.7-1.7,1.3-2.7,1.7c-0.1,0-0.2-0.1-0.2-0.3c1.6-1.4,2.7-3,3.2-4.6c0.1-0.2,0.2-0.4,0.2-0.6h-0.5v0.2
	c-0.1,0.4-0.4,0.6-1.1,0.6c-0.4,0-0.6-0.1-0.7-0.2c0-1.1,0-2.1,0.1-3.1v-2.1c0-0.1,0-0.2,0-0.3c-0.6,0.6-1.2,1.1-1.9,1.4
	C337,38.1,337,38,337,38c0.3-0.4,0.6-0.8,0.9-1.2h-3v1.3c0,0,0.1-0.1,0.1-0.2c2,0.2,3.1,0.8,3.2,1.8c0,0.2,0,0.4-0.1,0.5
	c-0.1,0.3-0.3,0.4-0.6,0.4s-0.6-0.3-1-1s-0.9-1.2-1.5-1.6v0.8c0,0.8,0.1,1.7,0.1,2.7c0,0.3-0.3,0.4-1,0.4c-0.5,0-0.8-0.1-0.8-0.3
	c0-0.5,0.1-1.5,0.1-3c-1,1.2-2.2,2.1-3.6,2.9c-0.1-0.1-0.1-0.2-0.1-0.2c1.6-1.4,2.7-2.9,3.3-4.5c0.1-0.1,0.1-0.2,0.1-0.3H332
	c-0.9,0-1.6,0.1-2,0.1c-0.1-0.2-0.2-0.5-0.3-0.8c0.4,0.1,1.2,0.1,2.3,0.1h1.4v-2.1c-0.9,0.1-2,0.1-3.2,0.1c0-0.1,0-0.2,0-0.3
	c2.8-0.6,5-1.3,6.4-2.2C337.9,32.4,338.5,32.9,338.5,33z M332.4,42.5h3.2c0.5-0.5,0.8-0.8,1-0.9c0.2,0,0.5,0.2,1,0.6
	c0.5,0.4,0.7,0.6,0.7,0.8c0,0.1-0.1,0.2-0.3,0.3c-0.3,0.2-0.4,0.4-0.5,0.5V47c0.1,1.3,0.1,2.1,0.1,2.4c0,0.4-0.3,0.6-1,0.7
	c-0.5,0-0.8-0.1-0.8-0.4V49h-3.1v0.8c-0.1,0.4-0.4,0.6-1,0.6c-0.4,0-0.6-0.1-0.7-0.2c0-1.3,0-2.6,0.1-3.9v-2.5
	c0-1.1-0.1-1.7-0.1-1.9L332.4,42.5z M335.9,45.4V43h-3.1v2.4H335.9z M335.9,48.6V46h-3.1v2.6H335.9z M345.4,38.4v-2h-4.5v2H345.4z
	 M345.4,40.8V39h-4.5v1.8H345.4z M343,46.8c0.9-1,1.5-2,1.7-3.1h-2.6c-0.3,0.4-0.6,0.8-0.9,1.1C341.9,45.6,342.5,46.3,343,46.8z"/>
<path class="st0" d="M354.2,38.9c0.1,0.7,0.2,1.3,0.3,2.1c0,3.3-0.9,5-2.8,5.1c-0.8,0-1.2-0.3-1.2-0.8c0-0.3,0-0.6,0.1-0.7
	c0.1-0.2,0.5-0.7,1.4-1.4c1-0.9,1.6-2.3,1.8-4.2C354,38.9,354.2,38.9,354.2,38.9z M359.7,36.7c0,0.3-0.4,0.5-1.2,0.8v9.4
	c0,0.7,0.4,1,1.1,1.1h2.9c0.8,0,1.4-0.4,1.7-1.1c0.2-0.5,0.5-1.6,0.8-3.3c0.3,0,0.4,0,0.4,0v3.2c0,0.3,0.2,0.5,0.6,0.6
	c0.4,0.3,0.7,0.5,0.7,0.8c0,0.7-0.7,1.2-2,1.4c-0.9,0.1-1.8,0.2-2.7,0.2c-1.9,0-3.1,0-3.6-0.1c-1.2-0.1-1.8-1.1-1.8-3.1v-8.3
	c0-1.1-0.1-1.9-0.2-2.3C358.6,36.2,359.7,36.5,359.7,36.7z M363.4,34.7c0,0.6-0.1,1-0.3,1.3c-0.2,0.2-0.4,0.3-0.7,0.3
	c-0.5,0-1-0.5-1.5-1.5c-0.8-1.1-1.8-2.2-3.3-3.1c0-0.1,0.1-0.2,0.1-0.3C361.4,32.3,363.3,33.4,363.4,34.7z M369.7,43.6
	c0,0.6-0.1,1-0.3,1.3c-0.2,0.3-0.5,0.4-0.9,0.4c-0.6,0-0.9-0.6-1.1-1.8c-0.5-2.2-1.2-3.8-2.2-5l0.3-0.2
	C368.3,40.3,369.7,42,369.7,43.6z"/>
<g>
	<rect y="69.2" class="st1" width="13" height="0.8"/>
</g>
<g>
	<path class="st0" d="M96.6,2.5c0.6,0.2,1.1,0.4,1.5,0.5c0.9,0.3,1.4,0.5,1.4,0.7c0,0.1-0.1,0.2-0.4,0.3c-0.3,0-0.4,0.1-0.5,0.3
		c-0.3,0.5-0.7,0.8-1,1.1c-0.3,0.2-0.5,0.4-0.8,0.6h5.8c0.3-0.4,0.6-0.7,0.9-1c0.2-0.2,0.4-0.4,0.6-0.4c0.2,0,0.6,0.2,1.3,0.6
		c0.8,0.5,1.2,0.9,1.2,1.1c0,0.2-0.2,0.4-0.5,0.6c-0.3,0.2-0.4,0.4-0.4,0.6v9.7c0,0.6,0,1.5,0.1,2.6c0,0.3-0.4,0.5-1.1,0.6
		c-0.3,0-0.6,0.1-0.7,0.1c-0.4,0-0.6-0.2-0.6-0.6v-0.9h-9.1V20c0,0.3-0.3,0.5-1,0.6c-0.3,0-0.5,0.1-0.7,0.1c-0.4,0-0.6-0.2-0.6-0.6
		c0.1-0.7,0.1-1.4,0.1-2.2V8.1c0-1-0.1-2-0.2-3c0.9,0.3,1.8,0.6,2.8,1h1.4c0.2-0.4,0.3-0.8,0.4-1.3C96.4,4.2,96.5,3.5,96.6,2.5z
		 M94.1,9.9h9.1V6.7h-9.1V9.9z M94.1,14.2h9.1v-3.7h-9.1V14.2z M94.1,18.6h9.1v-3.9h-9.1V18.6z"/>
	<path class="st0" d="M110.2,5.8c0.6,0.1,1.5,0.2,2.7,0.2h2.5c0.4-1.1,0.8-2.2,1.2-3.4c0.7,0.2,1.5,0.4,2.1,0.6c0.7,0.2,1,0.4,1,0.6
		c0,0.2-0.2,0.3-0.5,0.4c-0.4,0.1-0.6,0.1-0.6,0.2c-0.2,0.5-0.5,1.1-0.8,1.6h5.7c0.1,0,0.3-0.3,0.8-0.9c0.6-0.7,0.9-1.1,1-1.1
		c0.3,0,0.7,0.3,1.4,1c0.7,0.7,1,1.1,1,1.2c0,0.2-0.2,0.3-0.5,0.3h-9.6c-0.8,1.4-1.6,2.6-2.6,3.7c-0.2,0.2-0.3,0.4-0.5,0.6
		c0.4,0.1,0.6,0.2,0.6,0.3c0,0.2-0.1,0.4-0.4,0.5c-0.2,0.1-0.2,0.3-0.2,0.5V20c0,0.3-0.3,0.5-1,0.6c-0.3,0-0.5,0.1-0.6,0.1
		c-0.5,0-0.7-0.2-0.7-0.6c0.1-1.4,0.2-2.8,0.2-4.3v-2.9c-0.8,0.7-1.6,1.4-2.6,2.1l-0.3-0.3c2-2,3.5-3.9,4.5-5.6
		c0.5-0.8,0.9-1.6,1.3-2.5h-2.2c-1.1,0-2,0-2.4,0.1L110.2,5.8z M115.7,12.3c0.6,0.1,1.6,0.1,2.8,0.1h1.2v-1.6c0-1.2-0.1-2.3-0.2-3.2
		c0.6,0.1,1.4,0.2,2.4,0.4c0.8,0.1,1.2,0.2,1.2,0.4c0,0.2-0.2,0.4-0.6,0.6c-0.3,0.1-0.4,0.3-0.4,0.5v2.9h0.9c0.1,0,0.3-0.3,0.7-0.9
		c0.5-0.7,0.8-1,0.9-1c0.3,0,0.7,0.3,1.3,0.9c0.6,0.6,0.9,1,0.9,1.2c0,0.2-0.1,0.3-0.4,0.3H122v6.1h1.8c0.1,0,0.3-0.3,0.8-0.9
		c0.6-0.7,0.9-1,1-1c0.3,0,0.7,0.3,1.3,1c0.6,0.7,0.9,1,0.9,1.2c0,0.2-0.1,0.3-0.4,0.3h-9.7c-1.1,0-2,0-2.4,0.1l-0.3-0.8
		c0.6,0.1,1.6,0.2,2.8,0.2h2V13h-1.2c-1.1,0-2,0-2.4,0.1L115.7,12.3z"/>
</g>
</svg>
