<?xml version="1.0" encoding="utf-8"?>
<!-- Generator: Adobe Illustrator 25.2.3, SVG Export Plug-In . SVG Version: 6.00 Build 0)  -->
<svg version="1.1" id="圖層_1" xmlns="http://www.w3.org/2000/svg" xmlns:xlink="http://www.w3.org/1999/xlink" x="0px" y="0px"
	 viewBox="0 0 280 36" style="enable-background:new 0 0 280 36;" xml:space="preserve">
<style type="text/css">
	.st0{fill:none;stroke:#D1AC64;stroke-width:0.25;stroke-miterlimit:10;stroke-dasharray:2,2;}
	.st1{fill:#C39C61;}
	.st2{fill:#C9A063;}
	.st3{fill:#FFFFFF;}
</style>
<path class="st0" d="M55.5,34.8h215.7"/>
<path class="st1" d="M26.9,20.7V22h-9.7h-3.5c0.1,0,0.5-0.7,0.5-0.8c1.2-1.7,2.3-3.4,3.5-5.1c1.4-2,2.8-4,4.1-6.1
	c1.2-1.8,3-3.8,2-6.1c-0.6-1.3-1.9-1.8-3.2-1.9c-0.2,0-0.4,0-0.6,0c-4.4,0-4.7,4.3-4.7,4.3h-1.1c-0.1,0,0.5-2.1,0.6-2.3
	c0.2-0.6,0.5-1.2,0.9-1.7c0.9-1.1,2.1-1.8,3.5-2.1c2.3-0.5,5.4,0.2,6.8,2.2c0.6,0.9,0.8,1.9,0.8,2.9c0.1,1.7-0.6,3.5-1.6,4.8
	l-7.1,10.4h8.8V20.7z"/>
<path class="st2" d="M30,2.3c0.8,1.1,2.1,2.5,3.5,2.7c0.2-1.7-1.4-3.1-2.8-3.6c-0.5-0.2-1-0.3-1.6-0.4C29.4,1.5,29.7,1.9,30,2.3z
	 M37.1,6.7c-0.4,1.6-0.7,3.5,0,5c1.6-1,1.7-3.1,1.3-4.8c-0.2-0.6-0.4-1.3-0.8-1.8C37.4,5.6,37.3,6.1,37.1,6.7z M39,11.4
	c-0.9,1.4-1.7,3.3-1.4,5c2-0.5,2.5-2.6,2.6-4.4c0-0.7-0.1-1.4-0.2-2C39.6,10.5,39.3,10.9,39,11.4z M39.6,16.5
	c-1.3,1.2-2.6,2.8-2.9,4.6c0.5,0,0.8,0,1.3-0.2c1.9-0.9,2.9-3.4,2.9-5.5C40.4,15.8,40,16.2,39.6,16.5z M38.7,21.8
	c-1.6,0.8-3.4,2-4.1,3.6c2,0.7,3.7-0.8,4.8-2.3c0.4-0.6,0.8-1.3,1-2C39.8,21.4,39.3,21.6,38.7,21.8z M36.6,26.7
	c-1.8,0.3-3.8,0.9-5,2.3c0.7,0.5,1.3,0.7,2.1,0.6c1.9-0.2,3.6-1.5,4.7-3C37.7,26.6,37.1,26.6,36.6,26.7z M33.2,30.8
	c-1.8-0.2-4.1-0.1-5.6,0.9c1.3,1.8,3.6,1.4,5.4,0.7c0.7-0.3,1.4-0.7,2-1.2C34.4,31,33.8,30.9,33.2,30.8z M34.1,2.6
	c0,1.6,0.3,3.6,1.4,4.8c1.3-1.3,0.7-3.6-0.1-4.9c-0.3-0.6-0.8-1.1-1.2-1.5C34.1,1.4,34.1,2,34.1,2.6z M28.9,33.9
	c-1.4-0.6-2.5-0.9-4-1c-0.6,0-1.1,0.1-1.7,0.3c0.5,1.1,1.3,1.6,2.4,2.1c0.9,0.2,1.7,0.2,2.6,0.1c0.8-0.1,1.6-0.3,2.3-0.6
	C30,34.4,29.4,34.1,28.9,33.9z M33.2,8.7c0.8,0.2,1.5,0.5,2.1,1.1c0.6,0.6,0.9,1.3,0.9,2.1c-1.9-0.1-3.5-1.8-4.5-3.4
	C32.2,8.5,32.7,8.6,33.2,8.7z M34.4,12.4c1.4,0.7,2.6,2.3,2.2,4c-1.7-0.5-3.1-2.7-3.6-4.4C33.4,12,33.9,12.2,34.4,12.4z M34.6,16.3
	c1.2,1.1,1.8,2.4,1.4,4c-0.1,0.2-0.1,0.3-0.2,0.5c-1.6-0.9-2.4-3.5-2.5-5.3C33.7,15.7,34.2,16,34.6,16.3z M33.7,20.2
	c1,1.3,1.3,3.4,0.1,4.7c-1.4-1.3-1.5-4-1.2-5.8C33,19.4,33.4,19.7,33.7,20.2z M31.9,23.6c0.6,1.4,0.6,2.7-0.3,3.9
	c-0.2,0.3-0.4,0.5-0.7,0.7c-1.1-1.6-0.6-4.3,0.2-6C31.4,22.7,31.7,23.1,31.9,23.6z M29.3,26.4c0.3,1.7-0.4,3.7-2.2,4.4
	c-0.5-1.4,0.2-3.4,0.9-4.7c0.2-0.4,0.5-0.8,0.8-1.2C29,25.3,29.2,25.8,29.3,26.4z M31.1,5.3c1.5,0,3.3,0.9,3.6,2.5
	c-1.8,0.3-3.9-1-5.1-2.2C30.1,5.4,30.6,5.3,31.1,5.3z M26.1,28.3c-0.1,1.4-0.6,2.4-1.7,3.2c-0.5,0.4-1,0.6-1.6,0.7
	c-0.2-1.2,0.2-2.1,0.9-3c0.3-0.5,0.7-1,1.1-1.5c0.3-0.4,0.7-0.7,1.1-1C26.1,27.2,26.1,27.8,26.1,28.3z"/>
<path class="st2" d="M33.5,5.1c1.1,1.5,1.8,2.8,2.4,4.5c1.3,3.8,1.4,7,0.3,10.9c-1,3-2.2,5.1-4.4,7.3c-2.2,2.1-4.3,3.3-7.2,4.2
	c-1.8,0.5-3.6,1.1-5.3,1.6c0.1,0.2,0.1,0.4,0.2,0.5c1.8-0.6,3.5-1.1,5.3-1.6c3-1,5.1-2.2,7.4-4.4c2.2-2.3,3.5-4.5,4.4-7.5
	c1-4,0.9-7.1-0.5-11C35.4,7.8,34.6,6.5,33.5,5.1z"/>
<path class="st2" d="M11.4,2.3C10.6,3.4,9.3,4.8,7.9,5c-0.2-1.7,1.4-3.1,2.8-3.6c0.5-0.2,1-0.3,1.6-0.4C12,1.5,11.7,1.9,11.4,2.3z
	 M4.3,6.7c0.4,1.6,0.7,3.5,0,5c-1.6-1-1.7-3.1-1.3-4.8c0.2-0.6,0.4-1.3,0.8-1.8C4,5.6,4.1,6.1,4.3,6.7z M2.4,11.4
	c0.9,1.4,1.7,3.3,1.4,5c-2-0.5-2.5-2.6-2.6-4.4c0-0.7,0.1-1.4,0.2-2C1.8,10.5,2.1,10.9,2.4,11.4z M1.9,16.5c1.3,1.2,2.6,2.8,2.9,4.6
	c-0.5,0-0.8,0-1.3-0.2c-1.9-0.9-2.9-3.4-2.9-5.5C1,15.8,1.4,16.2,1.9,16.5z M2.7,21.8c1.6,0.8,3.4,2,4.1,3.6c-2,0.7-3.7-0.8-4.8-2.3
	c-0.4-0.6-0.8-1.3-1-2C1.6,21.4,2.1,21.6,2.7,21.8z M4.9,26.7c1.8,0.3,3.8,0.9,5,2.3c-0.7,0.5-1.3,0.7-2.1,0.6
	c-1.9-0.2-3.6-1.5-4.7-3C3.7,26.6,4.3,26.6,4.9,26.7z M8.2,30.8c1.8-0.2,4.1-0.1,5.6,0.9c-1.3,1.8-3.6,1.4-5.4,0.7
	c-0.7-0.3-1.4-0.7-2-1.2C7,31,7.6,30.9,8.2,30.8z M7.3,2.6c0,1.6-0.3,3.6-1.4,4.8C4.6,6.1,5.2,3.8,6,2.5C6.3,1.9,6.8,1.4,7.2,1
	C7.3,1.4,7.3,2,7.3,2.6z M12.5,33.9c1.4-0.6,2.5-0.9,4-1c0.6,0,1.1,0.1,1.7,0.3c-0.5,1.1-1.3,1.6-2.4,2.1c-0.9,0.2-1.7,0.2-2.6,0.1
	c-0.8-0.1-1.6-0.3-2.3-0.6C11.4,34.4,12,34.1,12.5,33.9z M8.2,8.7C7.4,8.9,6.7,9.2,6.1,9.8c-0.6,0.6-0.9,1.3-0.9,2.1
	c1.9-0.1,3.5-1.8,4.5-3.4C9.2,8.5,8.7,8.6,8.2,8.7z M7,12.4c-1.4,0.7-2.6,2.3-2.2,4c1.7-0.5,3.1-2.7,3.6-4.4C8,12,7.5,12.2,7,12.4z
	 M6.8,16.3c-1.2,1.1-1.8,2.4-1.4,4c0.1,0.2,0.1,0.3,0.2,0.5c1.6-0.9,2.4-3.5,2.5-5.3C7.7,15.7,7.2,16,6.8,16.3z M7.7,20.2
	c-1,1.3-1.3,3.4-0.1,4.7c1.4-1.3,1.5-4,1.2-5.8C8.4,19.4,8,19.7,7.7,20.2z M9.5,23.6c-0.6,1.4-0.6,2.7,0.3,3.9
	c0.2,0.3,0.4,0.5,0.7,0.7c1.1-1.6,0.6-4.3-0.2-6C10,22.7,9.7,23.1,9.5,23.6z M12.1,26.4c-0.3,1.7,0.4,3.7,2.2,4.4
	c0.5-1.4-0.2-3.4-0.9-4.7c-0.2-0.4-0.5-0.8-0.8-1.2C12.4,25.3,12.2,25.8,12.1,26.4z M10.3,5.3C8.8,5.3,7,6.2,6.7,7.8
	c1.8,0.3,3.9-1,5.1-2.2C11.3,5.4,10.8,5.3,10.3,5.3z M15.3,28.3c0.1,1.4,0.6,2.4,1.7,3.2c0.5,0.4,1,0.6,1.6,0.7
	c0.2-1.2-0.2-2.1-0.9-3c-0.3-0.5-0.7-1-1.1-1.5c-0.3-0.4-0.7-0.7-1.1-1C15.3,27.2,15.3,27.8,15.3,28.3z"/>
<path class="st2" d="M7.9,5.1C6.8,6.6,6.1,7.9,5.5,9.6c-1.3,3.8-1.4,7-0.3,10.9c1,3,2.2,5.1,4.4,7.3c2.2,2.1,4.3,3.3,7.2,4.2
	c1.8,0.5,3.6,1.1,5.3,1.6C22,33.8,22,34,21.9,34.1c-1.8-0.6-3.5-1.1-5.3-1.6c-3-1-5.1-2.2-7.4-4.4c-2.2-2.3-3.5-4.5-4.4-7.5
	c-1-4-0.9-7.1,0.5-11C6,7.8,6.8,6.5,7.9,5.1z"/>
<path class="st3" d="M66.6,21.1h-1.1v-0.4h-8.7v0.4h-1.1V9.6h11L66.6,21.1L66.6,21.1z M65.5,19.7v-9.1h-8.7v9.1H65.5z M61.5,17.9
	c-1.2,0.3-2.5,0.6-4.1,0.9l-0.2-1.1c1.5-0.1,2.9-0.4,4.3-0.8V17.9z M61.4,12.1c0-0.4,0-0.8,0-1.2h1.1c0,0.4,0,0.8,0,1.2h1.2
	c-0.1-0.3-0.3-0.7-0.5-1l0.9-0.3c0.2,0.3,0.4,0.7,0.6,1.1L64.1,12h1v1h-2.6c0,0.8,0.1,1.5,0.2,2c0.1,0.4,0.2,0.8,0.3,1.2
	c0.4-0.7,0.8-1.6,1.2-2.8l0.9,0.6c-0.6,1.6-1.1,2.7-1.6,3.4c0,0.1,0.1,0.2,0.1,0.2c0.2,0.4,0.4,0.6,0.6,0.6c0.1,0,0.2-0.5,0.4-1.5
	l1,0.8c-0.3,1-0.5,1.5-0.6,1.7c-0.2,0.2-0.4,0.3-0.6,0.3c-0.4,0-0.7-0.2-1.1-0.7c-0.1-0.2-0.2-0.3-0.3-0.5c-0.4,0.5-0.9,0.9-1.5,1.3
	l-0.6-0.8c0.7-0.5,1.2-1,1.6-1.5c-0.2-0.4-0.3-0.9-0.5-1.5c-0.2-0.7-0.3-1.6-0.4-2.7h-4.2v-1H61.4z M60.8,13.7v3h-3.1v-3H60.8z
	 M59.8,14.6h-1.3v1.3h1.3V14.6z"/>
<path class="st3" d="M72.2,9.9v0.9c-0.1,0.5-0.3,0.9-0.4,1.4c0.4-0.4,0.8-0.8,1.1-1.2c0.3-0.4,0.5-0.9,0.8-1.6l1,0.1
	c-0.1,0.2-0.1,0.4-0.2,0.6h1.8c0.3,0.8,0.7,1.6,1.3,2.3c0.3-0.3,0.6-0.8,1-1.3H77v-1h2.8V11c-0.4,0.8-0.9,1.6-1.5,2.2
	c0.5,0.6,1.1,1.1,1.7,1.6l-0.7,1c-0.5-0.4-1-0.8-1.4-1.2v0.7h-4v-0.5c-0.4,0.3-0.8,0.7-1.3,1L72,15c0.5-0.3,1-0.7,1.4-1
	c-0.2-0.2-0.5-0.4-0.8-0.6l0.6-0.6c0.3,0.2,0.6,0.4,0.8,0.6c0.1-0.1,0.2-0.2,0.2-0.3c0.1-0.1,0.1-0.2,0.2-0.2
	c-0.3-0.2-0.6-0.4-0.9-0.6l0.5-0.7c0.3,0.2,0.6,0.3,0.9,0.5c0.2-0.3,0.3-0.7,0.4-1H74c-0.1,0.2-0.2,0.3-0.3,0.5
	c-0.4,0.6-0.9,1.1-1.5,1.6l-0.5-0.7c-0.1,0.5-0.3,0.9-0.4,1.4c0.3,0.6,0.6,1.2,0.7,1.6c0.2,0.5,0.3,0.9,0.3,1.3
	c0,0.7-0.1,1.2-0.4,1.5c-0.3,0.4-0.8,0.5-1.6,0.5l-0.4-1.2c0.2,0,0.4,0.1,0.6,0.1s0.3-0.1,0.4-0.2c0.1-0.1,0.2-0.3,0.2-0.7
	S71,16,70.9,15.7c-0.1-0.5-0.4-1-0.8-1.6c0.4-1.2,0.7-2.2,0.9-3h-1.3v10.3h-1.2V10h3.7V9.9z M74.6,18c-0.6,1-1.4,1.8-2.2,2.5
	l-1.1-0.8c0.8-0.6,1.6-1.4,2.3-2.2L74.6,18z M79.5,16.2v1.1h-2.9V20c0,0.4-0.1,0.7-0.3,0.9c-0.2,0.2-0.5,0.3-1,0.3h-0.9L74.2,20
	c0.3,0.1,0.6,0.1,0.9,0.1c0.3,0,0.5-0.1,0.5-0.3v-2.5h-2.8v-1.1H79.5z M77.7,14.2c-0.2-0.2-0.4-0.4-0.5-0.6
	c-0.5-0.5-0.8-1.1-1.2-1.7c-0.3,0.6-0.6,1.1-0.9,1.5c-0.2,0.3-0.4,0.5-0.6,0.8H77.7z M80.1,19.8l-1,0.7c-0.5-0.7-1.1-1.5-1.9-2.4
	l0.9-0.5C78.9,18.5,79.6,19.2,80.1,19.8z"/>
<path class="st3" d="M87.9,10.2V9.3h1.2v0.9h3.1v1.9h0.7v1h-0.7V15h-3.1v0.8h3.2v0.9h-3.2v0.9h3.8v1h-3.8v1.1c0.2,0,0.4,0,0.5,0
	c1.5,0,2.7,0,3.4-0.1l-0.2,1.3c-4,0-6.5-0.1-7.4-0.3c-0.8-0.2-1.4-0.5-1.9-0.9c-0.1,0-0.1-0.1-0.1-0.1c-0.4,0.5-1,1.1-1.7,1.7
	L81,20.1c0.7-0.5,1.2-1,1.6-1.5c-0.4-0.6-0.8-1.5-1.2-2.7l1-0.4c0.3,0.7,0.6,1.4,0.8,1.8c0-0.1,0-0.1,0.1-0.2
	c0.2-0.6,0.3-1.3,0.4-2.4h-2.2V14c0.8-0.9,1.5-2,2.1-3.1h-2.4v-1h3.7V11c-0.7,1.2-1.4,2.1-2,2.8h2c0,1.5-0.2,2.6-0.5,3.5
	c-0.1,0.4-0.3,0.8-0.4,1.1c0.3,0.4,0.8,0.6,1.4,0.8c0.5,0.2,1.3,0.3,2.5,0.3v-1.1h-3.1v-1h3.1v-0.9h-2.5v-0.9h2.5V15h-2.4v-0.9h2.4
	v-1h-3.1v-1h3.1v-1h-2.4v-0.9H87.9z M89.1,12.1H91v-1h-1.9V12.1z M89.1,14.1H91v-1h-1.9V14.1z"/>
<path class="st3" d="M97.2,9.5c-0.1,0.3-0.2,0.5-0.4,0.7h3.3v1c0.6-0.6,1-1.3,1.3-1.9l1.2,0.2c-0.1,0.3-0.2,0.5-0.4,0.8h3.9v1.1H104
	c0.1,0.3,0.2,0.6,0.4,1l-1.3,0.1c-0.1-0.4-0.2-0.7-0.3-1.1h-1.2c-0.3,0.4-0.6,0.8-0.9,1.1l-1.1-0.7c0.2-0.2,0.3-0.3,0.5-0.5h-1.7
	c0.1,0.3,0.3,0.6,0.4,0.9l-1.3,0.1c-0.1-0.4-0.2-0.7-0.3-1h-1c-0.3,0.4-0.7,0.8-1.1,1.2L94,11.8c1-0.8,1.6-1.6,2-2.5L97.2,9.5z
	 M99.6,16.9v-0.6l-0.5-0.4c0.6-0.2,1.1-0.4,1.4-0.6c-0.3-0.2-0.7-0.3-1-0.4l0.6-0.8c0.4,0.1,0.7,0.2,1,0.4c0-0.1,0-0.2,0-0.4v-0.5
	h-1.4v-0.9h4.7v2.5c0,0.2,0.1,0.4,0.4,0.4h0.1c0.1,0,0.2,0,0.3-0.1c0.1-0.1,0.1-0.4,0.1-1.1l1,0.3c-0.1,0.9-0.2,1.4-0.4,1.6
	c-0.2,0.2-0.5,0.2-0.9,0.2h-0.5c-0.3,0-0.6-0.1-0.8-0.3c-0.2-0.2-0.3-0.4-0.3-0.8v-1.9h-1.3V14c0,0.3,0,0.6-0.1,0.8
	c0.4,0.2,0.8,0.4,1.2,0.6l-0.6,1c-0.4-0.2-0.8-0.5-1.1-0.7c-0.2,0.2-0.5,0.4-0.9,0.6h0.3V17h5.3v1.1H102c0.5,0.4,0.9,0.6,1.3,0.8
	c0.6,0.3,1.5,0.7,2.7,0.9l-0.5,1.1c-1.4-0.5-2.5-0.9-3.1-1.4c-0.5-0.3-1.1-0.8-1.6-1.4v3.3h-1.2v-3.3c-0.4,0.5-0.8,0.9-1.3,1.3
	c-0.8,0.6-2,1.1-3.5,1.7L94.1,20c1.5-0.5,2.6-0.9,3.3-1.3c0.3-0.2,0.6-0.4,0.9-0.6h-4.2V17h5.5V16.9z M99.2,12.7v1.1h-1.7v1.1
	c0.6-0.1,1.2-0.2,1.7-0.4v1c-1.4,0.3-3,0.7-4.8,1l-0.3-1.2c0.7-0.1,1.4-0.2,2.1-0.3v-1.3h-1.8v-1.1L99.2,12.7L99.2,12.7z"/>
<path class="st3" d="M110.8,9.4c-0.1,0.4-0.3,0.8-0.5,1.1h1.7v4.1h-3.3v1.3h3.5v5H111v-0.8h-2.4v0.8h-1.2V10.5h1.5
	c0.2-0.4,0.3-0.8,0.4-1.3L110.8,9.4z M110.8,13.6v-1.9h-2.1v1.9H110.8z M111.1,19.1V17h-2.4v2.1H111.1z M119.1,9.9v1.2h-2.7v1.4h2.3
	v6.7c0,0.3-0.1,0.6-0.3,0.8c-0.2,0.2-0.4,0.3-0.8,0.3H117l-0.3-1.2l0.7,0.1c0.2,0,0.2-0.1,0.2-0.4v-5.2h-1.2v7.7h-1.2v-7.7H114v6.7
	h-1.1v-7.9h2.3V11h-2.7V9.8h6.6V9.9z"/>
<path class="st3" d="M126.7,9.3c0.8,0.9,1.6,1.6,2.4,2.1c0.6,0.4,1.6,0.9,3,1.5l-0.8,1.3c-0.6-0.2-1.1-0.5-1.7-0.8v0.8h-7v-0.8
	c-0.6,0.3-1.2,0.7-1.9,1l-0.7-1.3c1.5-0.6,2.6-1.2,3.4-1.8c0.6-0.5,1.3-1.2,2-2h0.6H126.7z M130.5,21.2h-1.3v-0.7h-6.1v0.7h-1.3
	v-5.5h8.6v5.5H130.5z M129.2,19.4v-2.6h-6.1v2.6H129.2z M129.1,13.1c-1-0.6-2-1.5-3-2.7c-0.8,0.9-1.5,1.6-2.2,2.2
	c-0.2,0.2-0.5,0.3-0.7,0.5H129.1z"/>
<path class="st3" d="M136.9,9.7c-0.4,1.1-0.7,2-1.1,2.7v8.8h-1.2v-6.8c-0.4,0.5-0.8,1-1.2,1.5l-0.4-1.4c0.6-0.7,1.1-1.4,1.5-2.2
	c0.4-0.7,0.8-1.7,1.3-2.9L136.9,9.7z M140.2,9.5c-0.2,0.6-0.4,1.1-0.6,1.6h5.4v1.2h-4.5v1.8h4.2v1.2h-4.2v2h4.2v1.2h-4.2v2.7h-1.2
	v-8.8h-0.1c-0.5,1.1-1.1,2.1-1.7,2.8l-0.9-1.1c1.1-1.4,1.9-3.1,2.5-4.8L140.2,9.5z"/>
<path class="st3" d="M152.5,16.6c-0.2,0.3-0.5,0.5-1,0.8l-0.4-0.6c0.6-0.3,1-0.7,1.1-1.2h-0.8V14h1.6v1.3
	C152.9,15.9,152.8,16.3,152.5,16.6z"/>
<path class="st3" d="M161.7,10.7h1.5v1.1h-4.1v-1.1h1.4c-0.1-0.4-0.2-0.9-0.2-1.3l1.2-0.1C161.6,9.7,161.7,10.2,161.7,10.7z
	 M162.9,12.6v1h-3.5v-1H162.9z M162.9,14.6v1h-3.5v-1H162.9z M163,20.3h-2.3v0.9h-1.2v-4.6h3.5V20.3z M161.8,19.2v-1.6h-1.2v1.6
	H161.8z M167,11.5v2h-0.9v0.6h2v-0.6h-0.7v-2h3.1v2h-1.4v0.6h1.7V15h-1.7v0.6h1.5v0.8h-1.5v0.7h1.8V18H168c0.3,0.5,0.6,0.8,0.8,1.1
	c0.1-0.1,0.3-0.2,0.4-0.3c0.2-0.2,0.3-0.4,0.5-0.7l0.8,0.5c-0.2,0.4-0.4,0.6-0.6,0.8c-0.1,0.1-0.2,0.2-0.3,0.3
	c0.4,0.3,0.9,0.5,1.5,0.7l-0.6,0.9c-1-0.4-1.7-0.8-2.2-1.3s-1-1.1-1.4-2c-0.3,0.2-0.5,0.5-0.8,0.6v1.2c0.6-0.1,1.1-0.2,1.6-0.3v1
	c-1,0.3-2.2,0.5-3.5,0.8l-0.3-1c0.4-0.1,0.8-0.1,1.2-0.2v-0.8c-0.4,0.2-1,0.4-1.6,0.5l-0.4-1c0.8-0.2,1.5-0.4,2-0.6
	c0.1-0.1,0.3-0.1,0.4-0.2h-2.3v-0.9h1.8v-0.7h-1.3v-0.8h1.3V15h-1.5v-0.9h1.5v-0.6h-1.2v-2H167z M167.8,10.1h3.2V11h-7.6v-0.9h3.2
	c-0.1-0.2-0.2-0.5-0.3-0.7l1.2-0.1C167.6,9.5,167.7,9.8,167.8,10.1z M166,12.1h-1.2v0.7h1.2V12.1z M168.1,15h-2v0.6h2V15z
	 M168.1,16.4h-2v0.7h2V16.4z M169.6,12.1h-1.2v0.7h1.2V12.1z"/>
<path class="st3" d="M182.2,12.2v1.1h-2.7c-0.4,0.3-0.7,0.5-1.1,0.7c0.5,0.6,0.8,1.2,1,1.7c0.9-0.4,1.9-1,2.7-1.9l0.9,0.9
	c-0.5,0.5-1.1,0.9-1.8,1.3c0.3,0.7,0.7,1.3,1.1,1.9c0.4,0.5,1,1.1,1.7,1.8l-0.8,1.1c-0.8-0.8-1.5-1.5-2-2.3c-0.4-0.5-0.7-1.2-1-1.9
	c-0.2,0.1-0.4,0.2-0.6,0.2c0.1,0.6,0.2,1.1,0.2,1.7c0,1-0.1,1.7-0.4,2.1c-0.3,0.5-1.2,0.7-2.8,0.7l-0.4-1.3c0,0.1,0.3,0.1,0.7,0.1
	c0.7,0,1.1-0.1,1.3-0.2c0.2-0.2,0.3-0.7,0.3-1.4c0-0.2,0-0.4,0-0.6c-0.7,0.6-1.4,1-2,1.3c-0.9,0.5-2.1,1-3.6,1.5l-0.7-1.1
	c1.4-0.4,2.7-0.8,3.7-1.4c0.8-0.4,1.6-0.9,2.3-1.5c0-0.1-0.1-0.2-0.1-0.3c0-0.1-0.1-0.2-0.1-0.4c-0.7,0.5-1.3,0.9-1.9,1.1
	c-0.8,0.4-1.9,0.8-3.2,1.1l-0.6-1.1c1.2-0.3,2.4-0.6,3.3-1.1c0.7-0.3,1.3-0.7,1.9-1.1c-0.1-0.2-0.2-0.3-0.3-0.5
	c-1.1,0.5-2.4,0.9-3.9,1.2l-0.7-1.1c1.6-0.3,2.9-0.6,3.8-1c0.4-0.1,0.8-0.3,1.1-0.5H174v-1.1h8.2V12.2z M178.7,10.3h5.1v2.6h-1.2
	v-1.5h-8.9v1.5h-1.2v-2.6h4.8c-0.2-0.3-0.3-0.5-0.5-0.8l1.4-0.2C178.4,9.6,178.5,9.9,178.7,10.3z"/>
<path class="st3" d="M190,9.8V14h-1.4v1.6h1.5v1.2h-1.5v2.1c0.5-0.1,1-0.3,1.5-0.4v1.1c-1.4,0.5-3,0.9-4.8,1.3l-0.3-1.1
	c0.2,0,0.4-0.1,0.6-0.1v-4.8h1v4.5c0.3-0.1,0.6-0.1,0.9-0.2V14h-1.7V9.8H190z M188.8,10.8h-1.9v2.1h1.9V10.8z M196.4,15.7h-2.7
	c0.2,0.8,0.4,1.4,0.8,2c0.5-0.4,1-0.9,1.5-1.5l0.9,0.9c-0.5,0.7-1.1,1.2-1.7,1.5c0.5,0.7,1.2,1.2,2.1,1.6l-0.6,1.1
	c-1.2-0.8-2.1-1.6-2.7-2.5c-0.6-0.8-1-1.8-1.2-3h-1v3.9c0.7-0.1,1.4-0.3,1.9-0.6v1.1c-0.7,0.4-2,0.7-3.9,1.1l-0.2-1.3
	c0.4,0,0.7,0,1-0.1V9.8h5.9v5.9H196.4z M195.3,12.1v-1.4h-3.7v1.4H195.3z M195.3,14.6v-1.4h-3.7v1.4H195.3z"/>
<path class="st3" d="M204.2,9.4v3.8h5.1v1.2h-5.1v5.3h5.8v1.2h-11.7v-1.2h4.6V9.4H204.2z"/>
<path class="st3" d="M222.6,21.1h-1.1v-0.4h-8.7v0.4h-1.1V9.6h11L222.6,21.1L222.6,21.1z M221.5,19.7v-9.1h-8.7v9.1H221.5z
	 M217.5,17.9c-1.2,0.3-2.5,0.6-4.1,0.9l-0.2-1.1c1.5-0.1,2.9-0.4,4.3-0.8V17.9z M217.4,12.1c0-0.4,0-0.8,0-1.2h1.1
	c0,0.4,0,0.8,0,1.2h1.2c-0.1-0.3-0.3-0.7-0.5-1l0.9-0.3c0.2,0.3,0.4,0.7,0.6,1.1l-0.6,0.1h1v1h-2.6c0,0.8,0.1,1.5,0.2,2
	c0.1,0.4,0.2,0.8,0.3,1.2c0.4-0.7,0.8-1.6,1.2-2.8l0.9,0.6c-0.6,1.6-1.1,2.7-1.6,3.4c0,0.1,0.1,0.2,0.1,0.2c0.2,0.4,0.4,0.6,0.6,0.6
	c0.1,0,0.2-0.5,0.4-1.5l1,0.8c-0.3,1-0.5,1.5-0.6,1.7c-0.2,0.2-0.4,0.3-0.6,0.3c-0.4,0-0.7-0.2-1.1-0.7c-0.1-0.2-0.2-0.3-0.3-0.5
	c-0.4,0.5-0.9,0.9-1.5,1.3l-0.6-0.8c0.7-0.5,1.2-1,1.6-1.5c-0.2-0.4-0.3-0.9-0.5-1.5c-0.2-0.7-0.3-1.6-0.4-2.7h-4.2v-1H217.4z
	 M216.8,13.7v3h-3.1v-3H216.8z M215.8,14.6h-1.3v1.3h1.3V14.6z"/>
<path class="st3" d="M228.2,9.9v0.9c-0.1,0.5-0.3,0.9-0.4,1.4c0.4-0.4,0.8-0.8,1.1-1.2c0.3-0.4,0.5-0.9,0.8-1.6l1,0.1
	c-0.1,0.2-0.1,0.4-0.2,0.6h1.8c0.3,0.8,0.7,1.6,1.3,2.3c0.3-0.3,0.6-0.8,1-1.3H233v-1h2.8V11c-0.4,0.8-0.9,1.6-1.5,2.2
	c0.5,0.6,1.1,1.1,1.7,1.6l-0.7,1c-0.5-0.4-1-0.8-1.4-1.2v0.7h-4v-0.5c-0.4,0.3-0.8,0.7-1.3,1L228,15c0.5-0.3,1-0.7,1.4-1
	c-0.2-0.2-0.5-0.4-0.8-0.6l0.6-0.6c0.3,0.2,0.6,0.4,0.8,0.6c0.1-0.1,0.2-0.2,0.2-0.3c0.1-0.1,0.1-0.2,0.2-0.2
	c-0.3-0.2-0.6-0.4-0.9-0.6l0.5-0.7c0.3,0.2,0.6,0.3,0.9,0.5c0.2-0.3,0.3-0.7,0.4-1H230c-0.1,0.2-0.2,0.3-0.3,0.5
	c-0.4,0.6-0.9,1.1-1.5,1.6l-0.5-0.7c-0.1,0.5-0.3,0.9-0.4,1.4c0.3,0.6,0.6,1.2,0.7,1.6c0.2,0.5,0.3,0.9,0.3,1.3
	c0,0.7-0.1,1.2-0.4,1.5c-0.3,0.4-0.8,0.5-1.6,0.5l-0.4-1.2c0.2,0,0.4,0.1,0.6,0.1s0.3-0.1,0.4-0.2c0.1-0.1,0.2-0.3,0.2-0.7
	s-0.1-0.8-0.2-1.1c-0.1-0.5-0.4-1-0.8-1.6c0.4-1.2,0.7-2.2,0.9-3h-1.3v10.3h-1.2V10h3.7V9.9z M230.6,18c-0.6,1-1.4,1.8-2.2,2.5
	l-1.1-0.8c0.8-0.6,1.6-1.4,2.3-2.2L230.6,18z M235.5,16.2v1.1h-2.9V20c0,0.4-0.1,0.7-0.3,0.9c-0.2,0.2-0.5,0.3-1,0.3h-0.9l-0.2-1.2
	c0.3,0.1,0.6,0.1,0.9,0.1c0.3,0,0.5-0.1,0.5-0.3v-2.5h-2.8v-1.1H235.5z M233.7,14.2c-0.2-0.2-0.4-0.4-0.5-0.6
	c-0.5-0.5-0.8-1.1-1.2-1.7c-0.3,0.6-0.6,1.1-0.9,1.5c-0.2,0.3-0.4,0.5-0.6,0.8H233.7z M236.1,19.8l-1,0.7c-0.5-0.7-1.1-1.5-1.9-2.4
	l0.9-0.5C234.9,18.5,235.6,19.2,236.1,19.8z"/>
<path class="st3" d="M247.5,9.7v7.1c0,1.5,0.1,2.4,0.2,2.5c0.1,0.2,0.2,0.3,0.2,0.3c0.1,0,0.3-0.5,0.5-1.5l0.9,0.5
	c-0.2,1.1-0.4,1.7-0.6,2.1c-0.2,0.2-0.4,0.3-0.6,0.3c-0.4,0-0.7-0.2-1-0.5c-0.4-0.5-0.7-1.8-0.7-3.8v-6h-7.1V15c0,0.9-0.1,2-0.2,3
	c-0.2,1.1-0.5,2.1-0.9,3.2l-1-0.9c0.4-0.8,0.6-1.7,0.8-2.6c0.1-0.9,0.2-1.8,0.2-2.6V9.7h0.6H247.5z M245.9,11.6v1.1h-2.6v1.1h2.3v4
	h-2.3v1.6c0.5-0.1,1-0.1,1.4-0.2c-0.2-0.3-0.3-0.5-0.5-0.8l1-0.3c0.5,0.8,0.9,1.6,1.3,2.4l-1,0.4c-0.1-0.3-0.2-0.5-0.3-0.8
	c-1.3,0.3-3.2,0.5-5.6,0.6l-0.4-1.2c1.1,0,2.1,0,2.9-0.1v-1.7H240v-4h2.2v-1.1h-2.5v-1.1h6.2V11.6z M242.2,14.7H241v1.9h1.2V14.7z
	 M244.6,14.7h-1.2v1.9h1.2V14.7z"/>
<path class="st3" d="M252.7,10.8l-0.9,0.9c-0.4-0.4-0.9-0.9-1.6-1.4l0.9-0.8C251.7,9.9,252.2,10.3,252.7,10.8z M252.7,16.2
	c-0.4,2-0.9,3.6-1.6,4.9l-0.9-0.9c0.5-1.2,1-2.7,1.4-4.6L252.7,16.2z M252.7,13.7l-0.8,1.2c-0.5-0.6-1.1-1.1-1.7-1.5l0.7-1
	C251.5,12.9,252.1,13.3,252.7,13.7z M254.5,10.4V9.3h1.1v1.1h1.8v1h-1.8v0.9h1.6v4.8h-1.6v1.2h1.6v1h-1.6v2h-1.1v-2h-2v-1h2v-1.2
	h-1.6v-4.8h1.6v-0.9h-1.7v-1H254.5z M256.2,14.3v-1.1H254v1.1H256.2z M256.2,15.1H254v1h2.2V15.1z M261.5,9.7v10.2
	c0,0.4-0.1,0.7-0.2,0.9c-0.2,0.2-0.4,0.3-0.8,0.3h-1.2L259,20l1.1,0.1c0.2,0,0.3-0.1,0.3-0.4v-2.6h-1.5c0,0.6-0.1,1.2-0.2,1.8
	c-0.2,0.8-0.4,1.7-0.8,2.5l-0.9-0.8c0.3-0.6,0.6-1.3,0.7-2c0.1-0.7,0.1-1.4,0.1-2V9.7h0.5H261.5z M260.5,12.8v-2H259v2H260.5z
	 M260.5,16v-2.2H259V16H260.5z"/>
<path class="st3" d="M270.4,16.5c-0.4,0.3-0.8,0.5-1.3,0.5s-0.9-0.2-1.3-0.5c-0.4-0.3-0.5-0.7-0.5-1.2s0.2-0.9,0.5-1.2
	c0.3-0.3,0.8-0.5,1.3-0.5s0.9,0.2,1.3,0.5s0.5,0.8,0.5,1.2C270.9,15.8,270.7,16.2,270.4,16.5z M269.7,14.7c-0.2-0.2-0.4-0.3-0.6-0.3
	c-0.2,0-0.5,0.1-0.6,0.3c-0.2,0.2-0.3,0.4-0.3,0.6c0,0.2,0.1,0.4,0.3,0.6s0.4,0.3,0.6,0.3c0.2,0,0.4-0.1,0.6-0.3
	c0.2-0.2,0.3-0.4,0.3-0.6C270,15.1,269.9,14.9,269.7,14.7z"/>
</svg>
