<svg width="160" height="113" viewBox="0 0 160 113" fill="none" xmlns="http://www.w3.org/2000/svg">
<path d="M0.892212 112.68L5.89769 100.366L11.0033 112.68H9.2013L8.2002 110.377H2.59406L1.69308 112.68H0.892212ZM2.8944 109.777H8L5.39714 103.57L2.8944 109.777Z" fill="#D8B165"/>
<path d="M13.2056 108.175C13.2056 108.275 13.2056 108.475 13.2056 108.575C13.2056 111.679 15.7084 114.081 18.111 110.978L18.4114 111.278C18.3112 111.478 17.5104 112.98 15.3079 112.98C13.0054 112.98 11.6039 111.078 11.6039 108.675C11.6039 106.173 13.0054 104.371 15.3079 104.371C18.111 104.371 18.4114 106.773 18.4114 107.674V108.275H13.2056V108.175ZM13.3058 107.574H16.6094C16.6094 105.772 16.309 104.871 15.3079 104.871C14.3069 104.871 13.506 105.472 13.3058 107.574Z" fill="#D8B165"/>
<path d="M25.7194 110.678C25.7194 112.079 24.3178 112.88 22.4158 112.88C21.3146 112.88 19.7128 112.279 19.7128 110.477H20.3135C20.3135 111.879 21.5148 112.279 22.4158 112.379C23.4169 112.379 24.2177 111.879 24.2177 111.178C24.2177 110.077 23.4169 109.877 22.0153 109.176C21.1143 108.775 19.6127 108.075 19.6127 106.473C19.6127 105.272 20.6138 104.17 22.616 104.17C23.1165 104.17 25.0186 104.371 25.0186 106.173H24.5181C24.5181 104.871 23.2166 104.571 22.616 104.571C21.715 104.571 21.0142 104.971 21.0142 105.872C21.0142 106.773 21.9152 107.074 23.0164 107.674C24.8184 108.575 25.7194 109.176 25.7194 110.678Z" fill="#D8B165"/>
<path d="M31.6258 111.779C31.2254 112.279 30.7249 112.98 29.4234 112.98C28.0219 112.98 27.9218 112.179 27.9218 111.378V104.971H26.7205V104.371H27.9218V103.97C27.9218 103.169 27.4212 102.468 26.6204 102.368V102.268H29.5236V104.371H31.1253V104.971H29.5236V111.078C29.5236 111.579 29.4234 112.279 29.924 112.379C30.2243 112.479 30.9251 112.279 31.2254 111.579L31.6258 111.779Z" fill="#D8B165"/>
<path d="M39.9349 107.074V112.78H38.3331V107.174C38.3331 105.572 37.5323 104.871 36.8315 104.871C35.9305 104.871 35.3299 105.372 34.9294 105.972V112.78H33.4278V102.168C33.4278 101.367 32.9272 100.667 32.1263 100.566V100.466H35.0295V105.272C35.5301 104.771 36.1307 104.371 36.9316 104.371C39.0339 104.27 39.9349 105.672 39.9349 107.074Z" fill="#D8B165"/>
<path d="M43.1385 108.175C43.1385 108.275 43.1385 108.475 43.1385 108.575C43.1385 111.679 45.6412 114.081 48.0439 110.978L48.3442 111.278C48.2441 111.478 47.4432 112.98 45.2408 112.98C42.9383 112.98 41.5367 111.078 41.5367 108.675C41.5367 106.173 42.9383 104.371 45.2408 104.371C48.0438 104.371 48.3442 106.773 48.3442 107.674V108.275H43.1385V108.175ZM43.1385 107.574H46.4421C46.4421 105.772 46.1418 104.871 45.1407 104.871C44.2397 104.871 43.3387 105.472 43.1385 107.574Z" fill="#D8B165"/>
<path d="M54.1505 111.779C53.75 112.279 53.2495 112.98 51.9481 112.98C50.5466 112.98 50.4464 112.179 50.4464 111.378V104.971H49.3452V104.371H50.5466V103.97C50.5466 103.169 50.046 102.468 49.2451 102.368V102.268H52.1483V104.371H53.75V104.971H52.1483V111.078C52.1483 111.579 52.0482 112.279 52.5488 112.379C52.8491 112.479 53.5498 112.279 53.8502 111.579L54.1505 111.779Z" fill="#D8B165"/>
<path d="M57.6544 104.17V112.68H56.1527V105.872C56.1527 105.071 55.6522 104.371 54.8513 104.27V104.17H57.6544V104.17ZM56.8535 100.767C56.353 100.767 55.8524 101.267 55.8524 101.868C55.8524 102.468 56.2529 102.869 56.8535 102.869C57.3541 102.869 57.7545 102.368 57.7545 101.868C57.8546 101.267 57.3541 100.767 56.8535 100.767Z" fill="#D8B165"/>
<path d="M65.4629 111.178C65.1626 111.779 64.2616 112.98 62.7599 112.98C60.5575 112.98 59.2561 111.078 59.2561 108.675C59.2561 106.173 60.5575 104.371 62.7599 104.371C64.3617 104.371 65.1626 105.572 65.4629 106.173L65.0625 106.573C63.3606 103.77 60.7577 104.871 60.7577 108.775C60.7577 112.78 63.2605 113.781 64.9624 111.078L65.4629 111.178Z" fill="#D8B165"/>
<path d="M75.2737 112.68L80.2792 100.366L85.3848 112.68H83.5828L82.5817 110.377H76.9756L76.0746 112.68H75.2737ZM77.1758 109.777H82.2814L79.6785 103.57L77.1758 109.777Z" fill="#D8B165"/>
<path d="M90.9909 104.27V105.272C89.8897 105.272 88.6884 105.071 88.2879 107.674V112.78H86.7863V106.072C86.7863 105.272 86.2857 104.571 85.4849 104.471V104.371H88.388V106.573C88.6884 104.671 89.6895 104.27 90.9909 104.27Z" fill="#D8B165"/>
<path d="M97.8985 111.178C97.5981 111.779 96.6971 112.98 95.1955 112.98C92.9931 112.98 91.6917 111.078 91.6917 108.675C91.6917 106.173 92.9931 104.371 95.1955 104.371C96.7972 104.371 97.5981 105.572 97.8985 106.173L97.498 106.573C95.7962 103.77 93.1933 104.871 93.1933 108.775C93.1933 112.78 95.696 113.781 97.3979 111.078L97.8985 111.178Z" fill="#D8B165"/>
<path d="M105.507 107.074V112.78H104.005V107.174C104.005 105.572 103.204 104.871 102.504 104.871C101.603 104.871 101.002 105.372 100.601 105.972V112.78H99.0998V102.168C99.0998 101.367 98.5992 100.667 97.7983 100.566V100.466H100.702V105.272C101.202 104.771 101.803 104.371 102.604 104.371C104.606 104.27 105.507 105.672 105.507 107.074Z" fill="#D8B165"/>
<path d="M109.211 104.17V112.68H107.709V105.872C107.709 105.071 107.209 104.371 106.408 104.27V104.17H109.211V104.17ZM108.41 100.767C107.909 100.767 107.409 101.267 107.409 101.868C107.409 102.468 107.809 102.869 108.41 102.869C108.91 102.869 109.311 102.368 109.311 101.868C109.311 101.267 108.91 100.767 108.41 100.767Z" fill="#D8B165"/>
<path d="M116.018 111.779C115.618 112.279 115.117 112.98 113.816 112.98C112.414 112.98 112.314 112.179 112.314 111.378V104.971H111.113V104.371H112.314V103.97C112.314 103.169 111.814 102.468 111.013 102.368V102.268H113.916V104.371H115.518V104.971H113.916V111.078C113.916 111.579 113.816 112.279 114.316 112.379C114.617 112.479 115.317 112.279 115.618 111.579L116.018 111.779Z" fill="#D8B165"/>
<path d="M118.621 108.175C118.621 108.275 118.621 108.475 118.621 108.575C118.621 111.679 121.124 114.081 123.526 110.978L123.827 111.278C123.727 111.478 122.926 112.98 120.723 112.98C118.421 112.98 117.019 111.078 117.019 108.675C117.019 106.173 118.421 104.371 120.723 104.371C123.526 104.371 123.827 106.773 123.827 107.674V108.275H118.621V108.175ZM118.721 107.574H122.025C122.025 105.772 121.724 104.871 120.723 104.871C119.722 104.871 118.921 105.472 118.721 107.574Z" fill="#D8B165"/>
<path d="M131.235 111.178C130.935 111.779 130.034 112.98 128.532 112.98C126.33 112.98 125.028 111.078 125.028 108.675C125.028 106.173 126.33 104.371 128.532 104.371C130.134 104.371 130.935 105.572 131.235 106.173L130.834 106.573C129.133 103.77 126.53 104.871 126.53 108.775C126.53 112.78 129.032 113.781 130.734 111.078L131.235 111.178Z" fill="#D8B165"/>
<path d="M136.641 111.779C136.24 112.279 135.74 112.98 134.438 112.98C133.037 112.98 132.937 112.179 132.937 111.378V104.971H131.735V104.371H132.937V103.97C132.937 103.169 132.436 102.468 131.635 102.368V102.268H134.539V104.371H136.14V104.971H134.539V111.078C134.539 111.579 134.438 112.279 134.939 112.379C135.239 112.479 135.94 112.279 136.24 111.579L136.641 111.779Z" fill="#D8B165"/>
<path d="M145.35 104.27V112.68H143.849V111.979C143.348 112.48 142.748 112.88 141.947 112.88C139.744 112.88 138.943 111.478 138.943 110.077V105.872C138.943 105.071 138.443 104.371 137.642 104.27V104.17H140.545V109.977C140.545 111.579 141.346 112.079 142.047 112.079C142.948 112.079 143.548 111.779 143.949 111.278V104.27H145.35V104.27Z" fill="#D8B165"/>
<path d="M152.258 104.27V105.272C151.157 105.272 149.955 105.071 149.555 107.674V112.78H148.053V106.072C148.053 105.272 147.553 104.571 146.752 104.471V104.371H149.655V106.573C150.055 104.671 150.956 104.27 152.258 104.27Z" fill="#D8B165"/>
<path d="M154.26 108.175C154.26 108.275 154.26 108.475 154.26 108.575C154.26 111.679 156.763 114.081 159.165 110.978L159.466 111.278C159.366 111.478 158.565 112.98 156.362 112.98C154.06 112.98 152.658 111.078 152.658 108.675C152.658 106.173 154.06 104.371 156.362 104.371C159.165 104.371 159.466 106.773 159.466 107.674V108.275H154.26V108.175ZM154.36 107.574H157.664C157.664 105.772 157.363 104.871 156.362 104.871C155.361 104.871 154.56 105.472 154.36 107.574Z" fill="#D8B165"/>
<path d="M88.0877 25.4843H85.3847H84.9843V88.353H85.3847H88.0877H88.4881V25.4843H88.0877Z" fill="#D8B165"/>
<path d="M105.407 81.9461H94.9951V14.3721H91.9918V84.9494H108.41V14.3721H105.407V81.9461Z" fill="#D8B165"/>
<path d="M101.402 0.8573H98.9995V76.7404H101.402V0.8573Z" fill="#D8B165"/>
<path d="M81.3802 34.4942H78.6772V88.353H81.3802V34.4942Z" fill="#D8B165"/>
<path d="M47.7434 25.4843H45.1406H44.64V88.353H45.1406H47.7434H48.244V25.4843H47.7434Z" fill="#D8B165"/>
<path d="M74.673 25.4843H71.97H71.5696V88.353H71.97H74.673H75.0734V25.4843H74.673Z" fill="#D8B165"/>
<path d="M65.0624 81.9461H54.651V14.3721H51.6477V84.9494H68.0657V14.3721H65.0624V81.9461Z" fill="#D8B165"/>
<path d="M61.0581 0.8573H58.6554V76.7404H61.0581V0.8573Z" fill="#D8B165"/>
<path d="M115.017 25.4843H112.314H111.914V88.353H112.314H115.017H115.418V25.4843H115.017Z" fill="#D8B165"/>
</svg>
