<svg width="5" height="353" viewBox="0 0 5 353" fill="none" xmlns="http://www.w3.org/2000/svg">
<path d="M0.599976 0.100098V274.2" stroke="#C9A063" stroke-width="0.35" stroke-miterlimit="10"/>
<path d="M4.69998 282V280.7H0.0999756V280.2H4.69998V278.9H4.79998V282.1H4.69998V282Z" fill="#C9A063"/>
<path d="M0.0999756 285.8V285.3H2.59998V282.9H0.0999756V282.4H4.79998V282.9H2.79998V285.3H4.89998V285.8H0.0999756Z" fill="#C9A063"/>
<path d="M0.0999756 289.7V287.3H4.79998V289.6H4.69998V287.8H2.79998V289.4H2.59998V287.8H0.199976V289.7H0.0999756Z" fill="#C9A063"/>
<path d="M4.8 296.3L0 294.3L4.8 292.3V292.9L0.9 294.5L4.8 296.1V296.3Z" fill="#C9A063"/>
<path d="M2.49998 302C1.79998 302 1.19998 301.8 0.799976 301.3C0.299976 300.8 0.0999756 300.2 0.0999756 299.5C0.0999756 298.8 0.299976 298.1 0.799976 297.7C1.29998 297.2 1.79998 297 2.49998 297C3.19998 297 3.79998 297.2 4.19998 297.7C4.69998 298.2 4.89998 298.8 4.89998 299.5C4.89998 300.2 4.69998 300.9 4.19998 301.3C3.69998 301.8 3.09998 302 2.49998 302ZM2.49998 301.5C3.19998 301.5 3.69998 301.3 4.09998 301C4.59998 300.6 4.79998 300.1 4.79998 299.5C4.79998 298.9 4.59998 298.4 4.09998 298C3.69998 297.6 3.09998 297.5 2.49998 297.5C1.79998 297.5 1.29998 297.7 0.899976 298C0.399976 298.4 0.199976 298.9 0.199976 299.5C0.199976 300.1 0.399976 300.6 0.899976 301C1.29998 301.3 1.79998 301.5 2.49998 301.5Z" fill="#C9A063"/>
<path d="M0.0999756 303.7V303.2H4.79998V303.7H0.0999756Z" fill="#C9A063"/>
<path d="M0.7 308.9C0.3 308.5 0 308 0 307.4C0 306.8 0.2 306.2 0.7 305.8C1.2 305.3 1.7 305.1 2.4 305.1C3.1 305.1 3.6 305.3 4.1 305.7C4.6 306.1 4.8 306.6 4.8 307.3C4.8 307.9 4.6 308.4 4.3 308.8L4.1 308.6C4.5 308.2 4.6 307.8 4.6 307.3C4.6 306.8 4.4 306.4 3.9 306.1C3.5 305.8 2.9 305.7 2.3 305.7C1.7 305.7 1.1 305.9 0.7 306.2C0.3 306.5 0 307 0 307.5C0 308.1 0.2 308.5 0.7 308.8V308.9Z" fill="#C9A063"/>
<path d="M0.0999756 312.3V310H4.79998V312.3H4.69998V310.5H2.79998V312.1H2.59998V310.5H0.199976V312.4H0.0999756V312.3Z" fill="#C9A063"/>
<path d="M4.69998 318.1V316.8H0.0999756V316.3H4.69998V315H4.79998V318.2H4.69998V318.1Z" fill="#C9A063"/>
<path d="M0.0999756 322V321.5H2.59998V319.1H0.0999756V318.6H4.79998V319.1H2.79998V321.5H4.89998V322H0.0999756Z" fill="#C9A063"/>
<path d="M0.0999756 325.9V323.5H4.79998V325.8H4.69998V324H2.79998V325.6H2.59998V324H0.199976V325.9H0.0999756Z" fill="#C9A063"/>
<path d="M4.8 334.1L0 332.6L3.9 331.2L0 329.9L4.8 328.4V328.9L1.1 330.1L4.9 331.4L1 332.8L4.8 334V334.1Z" fill="#C9A063"/>
<path d="M2.49998 339.7C1.79998 339.7 1.19998 339.5 0.799976 339C0.299976 338.5 0.0999756 337.9 0.0999756 337.2C0.0999756 336.5 0.299976 335.8 0.799976 335.4C1.29998 334.9 1.79998 334.7 2.49998 334.7C3.19998 334.7 3.79998 334.9 4.19998 335.4C4.69998 335.9 4.89998 336.5 4.89998 337.2C4.89998 337.9 4.69998 338.6 4.19998 339C3.69998 339.5 3.09998 339.7 2.49998 339.7ZM2.49998 339.2C3.19998 339.2 3.69998 339 4.09998 338.7C4.59998 338.3 4.79998 337.8 4.79998 337.2C4.79998 336.6 4.59998 336.1 4.09998 335.7C3.69998 335.3 3.09998 335.2 2.49998 335.2C1.79998 335.2 1.29998 335.4 0.899976 335.7C0.399976 336.1 0.199976 336.6 0.199976 337.2C0.199976 337.8 0.399976 338.3 0.899976 338.7C1.29998 339 1.79998 339.2 2.49998 339.2Z" fill="#C9A063"/>
<path d="M0.0999756 343.9V343.4L2.69998 341.8C2.69998 341.9 2.69998 342 2.69998 342C2.69998 342.7 2.99998 343.1 3.69998 343.1C4.39998 343.1 4.69998 342.6 4.69998 341.7V341.4H0.0999756V340.9H4.79998C4.79998 341 4.79998 341.3 4.79998 341.8C4.79998 343 4.39998 343.6 3.59998 343.6C3.29998 343.6 2.99998 343.5 2.79998 343.3C2.59998 343.1 2.49998 342.8 2.39998 342.4L0.0999756 343.9Z" fill="#C9A063"/>
<path d="M0.0999756 347.3V344.9H4.79998V345.4H0.199976V347.3H0.0999756Z" fill="#C9A063"/>
<path d="M2.49995 352.2C1.59995 352.2 0.999951 351.9 0.599951 351.2C0.299951 350.7 0.199951 350.2 0.199951 349.6V348.3H4.89995V349.6C4.89995 350.2 4.79995 350.7 4.49995 351.2C3.99995 351.8 3.29995 352.2 2.49995 352.2ZM2.49995 351.7C3.29995 351.7 3.89995 351.4 4.29995 350.8C4.59995 350.4 4.69995 349.9 4.69995 349.3V348.8H0.199951V349.3C0.199951 350 0.299951 350.5 0.599951 350.9C0.999951 351.4 1.59995 351.7 2.49995 351.7Z" fill="#C9A063"/>
</svg>
