<svg width="110" height="79" viewBox="0 0 110 79" fill="none" xmlns="http://www.w3.org/2000/svg">
<g clip-path="url(#clip0_138_6254)">
<path d="M1.278 44.43V44.838H4.722V44.43H1.278ZM3.744 44.01C3.96 44.124 4.218 44.298 4.35 44.436L4.614 44.148C4.482 44.016 4.218 43.848 3.996 43.752L3.744 44.01ZM4.074 45.072C3.822 46.056 3.288 46.806 2.502 47.262C2.598 47.34 2.76 47.52 2.82 47.61C3.63 47.088 4.224 46.26 4.524 45.156L4.074 45.072ZM1.218 46.812L1.278 47.232C1.77 47.148 2.388 47.04 2.994 46.932L2.976 46.542C2.322 46.65 1.668 46.746 1.218 46.812ZM1.848 45.492H2.412V46.002H1.848V45.492ZM1.464 45.168V46.326H2.808V45.168H1.464ZM2.982 43.842C3.084 45.642 3.3 47.298 4.092 47.502C4.446 47.646 4.704 47.412 4.788 46.716C4.692 46.668 4.518 46.542 4.428 46.452C4.392 46.824 4.338 47.07 4.26 47.052C3.762 46.956 3.522 45.45 3.462 43.842H2.982ZM0.462 43.206V48.528H1.002V43.722H4.968V48.528H5.532V43.206H0.462ZM0.798 47.748V48.258H5.28V47.748H0.798ZM6.732 43.176V48.492H7.224V43.686H8.112V43.176H6.732ZM7.938 43.176V43.326C7.836 43.728 7.644 44.454 7.452 44.994C7.824 45.456 7.914 45.858 7.914 46.17C7.914 46.35 7.878 46.512 7.8 46.572C7.758 46.608 7.698 46.62 7.632 46.626C7.548 46.626 7.452 46.626 7.332 46.62C7.41 46.752 7.452 46.962 7.458 47.088C7.59 47.1 7.734 47.094 7.842 47.082C7.962 47.064 8.07 47.034 8.154 46.962C8.328 46.836 8.394 46.578 8.394 46.23C8.394 45.864 8.31 45.432 7.926 44.94C8.106 44.46 8.31 43.86 8.46 43.356L8.112 43.158L8.028 43.176H7.938ZM9.282 45.306V45.768H11.1V45.306H9.282ZM8.706 46.26V46.728H11.706V46.26H8.706ZM9.024 43.386V43.776H9.966V43.386H9.024ZM8.79 44.112C9.036 44.298 9.336 44.562 9.48 44.736L9.738 44.436C9.588 44.274 9.276 44.022 9.042 43.854L8.79 44.112ZM10.848 47.184C11.13 47.508 11.502 47.958 11.682 48.222L12.12 47.934C11.928 47.676 11.55 47.244 11.262 46.932L10.848 47.184ZM9.834 43.386V43.476C9.624 44.454 9.03 45.3 8.358 45.696C8.46 45.78 8.592 45.936 8.652 46.044C9.396 45.564 10.02 44.682 10.284 43.482L9.99 43.368L9.912 43.386H9.834ZM10.554 43.26V43.65H11.664V43.26H10.554ZM9.066 42.942C8.88 43.506 8.55 44.034 8.136 44.382C8.238 44.448 8.418 44.592 8.49 44.67C8.904 44.28 9.276 43.68 9.498 43.038L9.066 42.942ZM11.502 43.26V43.35C11.382 43.734 11.136 44.244 10.872 44.55C10.968 44.622 11.112 44.766 11.184 44.862C11.508 44.508 11.826 43.944 12.012 43.416L11.7 43.236L11.604 43.26H11.502ZM9.036 46.986C8.838 47.322 8.538 47.706 8.262 47.97C8.394 48.036 8.61 48.174 8.718 48.264C8.976 47.982 9.318 47.532 9.546 47.154L9.036 46.986ZM10.65 43.506L10.224 43.614C10.518 44.652 11.052 45.576 11.796 46.05C11.868 45.93 12.018 45.744 12.126 45.654C11.436 45.264 10.908 44.418 10.65 43.506ZM9.942 46.458V48.498H10.482V46.458H9.942ZM8.268 44.796L8.328 45.168C8.604 45.12 8.862 45.078 9.162 45.024L9.15 44.7C8.802 44.742 8.52 44.772 8.268 44.796ZM14.016 44.706V45.234H17.166V44.706H14.016ZM13.278 45.966V46.482H17.916V45.966H13.278ZM13.002 47.832V48.354H18.204V47.832H13.002ZM15.282 44.952V48.084H15.888V44.952H15.282ZM13.74 46.734C13.962 47.064 14.19 47.52 14.28 47.802L14.772 47.592C14.676 47.304 14.43 46.86 14.202 46.542L13.74 46.734ZM16.938 46.542C16.8 46.878 16.548 47.334 16.35 47.628L16.776 47.808C16.986 47.538 17.25 47.124 17.478 46.746L16.938 46.542ZM15.81 43.218L15.342 43.452C15.996 44.214 17.088 44.928 18.066 45.276C18.156 45.132 18.33 44.904 18.462 44.784C17.484 44.496 16.374 43.86 15.81 43.218ZM15.558 42.876C14.988 43.77 13.89 44.436 12.756 44.784C12.9 44.922 13.056 45.144 13.14 45.306C14.328 44.874 15.426 44.136 16.092 43.116L15.558 42.876ZM19.14 46.77V47.238H24.678V46.77H19.14ZM22.854 46.416C23.064 46.56 23.328 46.776 23.454 46.914L23.736 46.632C23.598 46.494 23.334 46.296 23.124 46.164L22.854 46.416ZM21.21 44.856V45.24H24.582V44.856H21.21ZM23.316 44.436V45.732C23.316 45.792 23.298 45.81 23.226 45.816C23.154 45.816 22.926 45.816 22.68 45.804C22.746 45.936 22.812 46.098 22.836 46.23C23.202 46.23 23.454 46.236 23.634 46.17C23.808 46.098 23.856 45.99 23.856 45.75V44.436H23.316ZM19.17 44.754V45.21H20.796V44.754H19.17ZM20.478 42.954V46.368H20.994V42.954H20.478ZM19.434 43.086V44.352H20.772V43.908H19.914V43.086H19.434ZM21.624 45.432C21.858 45.588 22.128 45.828 22.254 45.996L22.62 45.696C22.488 45.528 22.206 45.306 21.972 45.162L21.624 45.432ZM22.164 43.584C22.452 43.8 22.776 44.112 22.92 44.328L23.304 44.19C23.136 43.962 22.806 43.65 22.524 43.452L22.164 43.584ZM23.922 43.242V43.314C23.478 44.058 22.35 44.418 21.192 44.544C21.27 44.634 21.366 44.778 21.414 44.88C22.686 44.706 23.874 44.322 24.408 43.38L24.114 43.224L24.018 43.242H23.922ZM22.83 42.918C22.512 43.176 21.954 43.416 21.228 43.584C21.318 43.656 21.456 43.806 21.516 43.908C22.302 43.68 22.884 43.398 23.31 43.02L22.83 42.918ZM22.632 43.242L22.2 43.572H24.066V43.242H22.632ZM19.56 44.94V45.222C19.56 45.456 19.494 45.906 19.128 46.194C19.26 46.248 19.47 46.362 19.566 46.44C19.98 46.104 20.064 45.534 20.064 45.24V44.94H19.56ZM21.594 46.188V46.566C21.594 47.028 21.3 47.724 19.098 48.072C19.212 48.198 19.35 48.402 19.416 48.534C21.828 48.138 22.158 47.238 22.158 46.584V46.188H21.594ZM22.062 47.526C22.83 47.808 23.904 48.24 24.432 48.504L24.696 48.06C24.138 47.802 23.052 47.4 22.314 47.142L22.062 47.526ZM21.372 43.998L21.426 44.31C21.72 44.28 22.026 44.256 22.362 44.226L22.356 43.938C21.978 43.962 21.654 43.986 21.372 43.998ZM25.626 43.266V43.818H30.618V43.266H25.626ZM25.578 47.628V48.18H30.816V47.628H25.578ZM26.526 44.562V45.114H29.538V46.182H26.526V46.734H30.12V44.562H26.526ZM26.184 43.494V47.988H26.778V43.494H26.184ZM32.22 46.602V46.986H36.828V46.602H32.22ZM31.764 47.274V47.67H37.236V47.274H31.764ZM34.218 46.038V47.952C34.218 48.036 34.188 48.06 34.092 48.06C33.996 48.072 33.642 48.072 33.318 48.06C33.39 48.18 33.468 48.36 33.498 48.492C33.978 48.492 34.29 48.492 34.5 48.42C34.71 48.354 34.782 48.24 34.782 47.97V46.038H34.218ZM36.132 45.81C35.268 45.936 33.696 46.002 32.388 46.014C32.43 46.104 32.478 46.266 32.484 46.362C33.822 46.362 35.418 46.29 36.48 46.14L36.132 45.81ZM34.512 43.338V43.716H37.056V43.338H34.512ZM34.518 44.958V45.336H37.068V44.958H34.518ZM34.362 44.232V44.616H37.218V44.232H34.362ZM35.508 44.442V45.792H36.042V44.442H35.508ZM32.334 43.146V43.53H33.654V43.902H32.334V44.292H34.17V43.146H32.334ZM36.21 43.71C36.162 43.89 36.06 44.154 35.982 44.328L36.396 44.418C36.48 44.256 36.57 44.034 36.672 43.806L36.21 43.71ZM32.082 43.146V43.764C32.082 44.232 32.034 44.88 31.668 45.366C31.758 45.432 31.962 45.654 32.028 45.762C32.478 45.186 32.58 44.358 32.58 43.77V43.146H32.082ZM32.838 44.958H33.744V45.378H32.838V44.958ZM32.388 44.586V45.756H34.218V44.586H32.388ZM34.854 43.812C34.938 43.98 35.016 44.214 35.046 44.364L35.478 44.262C35.454 44.118 35.364 43.89 35.268 43.722L34.854 43.812ZM35.412 43.014C35.496 43.2 35.568 43.458 35.586 43.62L36.12 43.494C36.102 43.332 36.018 43.086 35.934 42.906L35.412 43.014ZM0.552 52.998V55.932H1.122V53.556H4.848V55.902H5.442V52.998H0.552ZM0.852 55.02V55.578H5.184V55.02H0.852ZM2.682 51.936V57.504H3.282V51.936H2.682ZM9.384 53.964H10.854V54.87H9.384V53.964ZM8.844 53.466V55.374H11.418V53.466H8.844ZM9.33 55.284C9.258 56.058 9.084 56.7 8.208 57.06C8.334 57.156 8.49 57.366 8.556 57.498C9.564 57.048 9.804 56.262 9.894 55.284H9.33ZM10.308 55.212V56.724C10.308 57.246 10.422 57.414 10.932 57.414C11.028 57.414 11.376 57.414 11.478 57.414C11.904 57.414 12.042 57.198 12.09 56.37C11.946 56.334 11.706 56.238 11.592 56.148C11.58 56.808 11.556 56.898 11.424 56.898C11.346 56.898 11.076 56.898 11.022 56.898C10.89 56.898 10.872 56.88 10.872 56.718V55.212H10.308ZM9.438 51.99C9.174 52.566 8.73 53.142 8.256 53.502C8.382 53.586 8.598 53.772 8.694 53.868C9.162 53.454 9.66 52.806 9.966 52.146L9.438 51.99ZM7.242 51.936V57.504H7.788V51.936H7.242ZM6.732 53.106C6.69 53.598 6.582 54.264 6.432 54.666L6.87 54.822C7.02 54.372 7.128 53.67 7.158 53.166L6.732 53.106ZM7.752 52.98C7.89 53.37 8.022 53.868 8.058 54.174L8.406 54.036C8.37 53.742 8.226 53.256 8.082 52.872L7.752 52.98ZM10.332 52.23C10.806 52.722 11.352 53.406 11.586 53.844L12.018 53.526C11.766 53.1 11.202 52.44 10.728 51.966L10.332 52.23ZM15.882 52.092C16.074 52.404 16.272 52.818 16.35 53.082L16.902 52.872C16.818 52.608 16.596 52.212 16.398 51.912L15.882 52.092ZM14.22 51.96C13.896 52.848 13.35 53.73 12.774 54.294C12.876 54.432 13.044 54.75 13.098 54.882C13.752 54.21 14.376 53.154 14.766 52.134L14.22 51.96ZM13.596 53.556V57.498H14.166V52.992L14.16 52.986L13.596 53.556ZM14.652 53.094V53.634H18.312V53.094H14.652ZM14.85 54.846V55.386H18.138V54.846H14.85ZM14.508 56.766V57.306H18.402V56.766H14.508ZM16.188 53.28V57.102H16.764V53.28H16.188ZM23.136 53.31C22.35 53.622 20.982 53.856 19.758 53.982C19.824 54.114 19.902 54.342 19.926 54.48C21.174 54.36 22.608 54.132 23.586 53.778L23.136 53.31ZM21.336 54.132V56.55C21.336 57.222 21.552 57.414 22.338 57.414C22.506 57.414 23.43 57.414 23.61 57.414C24.288 57.414 24.474 57.162 24.558 56.286C24.384 56.25 24.132 56.154 23.994 56.058C23.946 56.724 23.892 56.856 23.568 56.856C23.352 56.856 22.56 56.856 22.386 56.856C22.02 56.856 21.954 56.808 21.954 56.55V54.132H21.336ZM19.35 52.524V53.814H19.926V53.058H23.85V53.814H24.456V52.524H19.35ZM21.42 52.074C21.558 52.32 21.702 52.65 21.756 52.86L22.35 52.674C22.284 52.464 22.128 52.146 21.978 51.906L21.42 52.074ZM19.482 55.056V55.614H24.198V55.056H19.482ZM27.924 55.434V57.102H28.524V55.434H27.924ZM25.614 52.602V54.006H26.178V53.118H30.18V53.874H30.768V52.602H25.614ZM26.214 55.158V55.686H30.234V55.158H26.214ZM25.614 56.838V57.378H30.81V56.838H25.614ZM27.66 52.056C27.804 52.338 27.966 52.71 28.032 52.944L28.662 52.746C28.584 52.518 28.404 52.158 28.26 51.894L27.66 52.056ZM27.366 52.986C27.306 53.886 27.12 54.27 25.65 54.45C25.752 54.558 25.878 54.774 25.914 54.912C27.582 54.666 27.87 54.12 27.948 52.986H27.366ZM28.584 52.986V53.976C28.584 54.528 28.746 54.72 29.346 54.72C29.478 54.72 30.18 54.72 30.348 54.72C30.558 54.72 30.792 54.714 30.9 54.678C30.882 54.546 30.864 54.324 30.852 54.174C30.732 54.204 30.48 54.216 30.324 54.216C30.162 54.216 29.496 54.216 29.352 54.216C29.178 54.216 29.148 54.156 29.148 53.982V52.986H28.584ZM33.624 55.608V56.028H35.364V55.608H33.624ZM33.594 54.708V55.14H35.094V56.52H33.594V56.946H35.628V54.708H33.594ZM33.354 54.708V57.252H33.87V54.708H33.354ZM32.292 53.028V53.424H33.888V53.028H32.292ZM35.064 53.028V53.424H36.684V53.028H35.064ZM36.45 52.182V56.796C36.45 56.898 36.414 56.934 36.306 56.934C36.198 56.94 35.832 56.946 35.49 56.928C35.574 57.084 35.658 57.348 35.682 57.504C36.192 57.504 36.522 57.498 36.738 57.402C36.954 57.306 37.02 57.132 37.02 56.802V52.182H36.45ZM32.334 52.182V52.608H33.714V53.874H32.334V54.294H34.248V52.182H32.334ZM36.744 52.182H34.728V54.306H36.744V53.886H35.268V52.608H36.744V52.182ZM32.01 52.182V57.51H32.574V52.182H32.01ZM38.31 53.76V54.198H40.116V53.76H38.31ZM38.31 54.558V54.996H40.128V54.558H38.31ZM38.058 52.944V53.406H40.374V52.944H38.058ZM38.562 55.374V55.836H39.624V56.694H38.562V57.156H40.122V55.374H38.562ZM38.31 55.374V57.426H38.802V55.374H38.31ZM38.688 52.128C38.85 52.38 39.042 52.734 39.126 52.956L39.588 52.698C39.492 52.482 39.3 52.158 39.132 51.912L38.688 52.128ZM40.944 52.146V52.674H42.522V52.146H40.944ZM40.29 54.57V55.098H42.936V54.57H40.29ZM42.732 54.57V54.66C42.366 55.926 41.31 56.706 40.068 56.994C40.17 57.12 40.296 57.354 40.356 57.504C41.718 57.114 42.84 56.274 43.29 54.696L42.936 54.546L42.84 54.57H42.732ZM40.992 55.044L40.506 55.212C41.04 56.37 41.958 57.156 43.266 57.492C43.338 57.336 43.494 57.096 43.62 56.976C42.366 56.712 41.436 56.01 40.992 55.044ZM40.842 52.146V52.8C40.842 53.214 40.752 53.682 40.098 54.036C40.2 54.12 40.398 54.336 40.464 54.45C41.202 54.036 41.364 53.376 41.364 52.818V52.146H40.842ZM42.24 52.146V53.496C42.24 54.018 42.336 54.222 42.804 54.222C42.882 54.222 43.086 54.222 43.164 54.222C43.284 54.222 43.404 54.216 43.482 54.18C43.458 54.054 43.446 53.844 43.44 53.706C43.362 53.724 43.242 53.736 43.164 53.736C43.104 53.736 42.912 53.736 42.852 53.736C42.774 53.736 42.768 53.676 42.768 53.502V52.146H42.24ZM44.724 53.76V54.198H46.716V53.76H44.724ZM44.724 54.558V54.996H46.704V54.558H44.724ZM44.46 52.944V53.406H46.968V52.944H44.46ZM45.006 55.374V55.836H46.224V56.694H45.006V57.156H46.716V55.374H45.006ZM44.76 55.374V57.426H45.246V55.374H44.76ZM45.15 52.128C45.312 52.38 45.504 52.734 45.594 52.956L46.044 52.698C45.948 52.482 45.762 52.158 45.594 51.912L45.15 52.128ZM46.956 53.982V54.54H49.848V53.982H46.956ZM48.078 52.044V57.504H48.666V52.044H48.078ZM51.072 52.836V53.316H52.206V54.084H51.072V54.57H52.71V52.836H51.072ZM51.09 55.05V55.536H52.26V56.436H51.09V56.916H52.77V55.05H51.09ZM50.856 52.836V57.312H51.366V52.836H50.856ZM52.914 52.236V52.752H56.148V52.236H52.914ZM51.582 51.93C51.534 52.242 51.42 52.674 51.318 52.968L51.768 53.058C51.906 52.788 52.074 52.374 52.206 52.008L51.582 51.93ZM54.258 52.47V57.498H54.792V52.47H54.258ZM53.13 53.406V56.592H53.652V53.916H55.722V53.406H53.13ZM55.452 53.406V56.04C55.452 56.1 55.434 56.118 55.374 56.118C55.32 56.124 55.146 56.124 54.954 56.118C55.026 56.256 55.092 56.466 55.11 56.61C55.422 56.61 55.632 56.604 55.788 56.514C55.944 56.43 55.98 56.286 55.98 56.046V53.406H55.452ZM1.308 65.634V66.186H4.656V65.634H1.308ZM1.026 63.924V66.504H1.602V64.464H4.362V66.492H4.968V63.924H1.026ZM3.546 61.86C4.128 62.4 4.812 63.168 5.106 63.672L5.586 63.324C5.274 62.82 4.56 62.076 3.99 61.56L3.546 61.86ZM0.756 63.462C0.756 63.354 1.11 63.186 1.11 63.186V63.168C1.74 62.652 2.418 61.914 2.982 61.128L2.412 60.882C1.968 61.614 1.284 62.364 1.068 62.562C0.87 62.754 0.72 62.88 0.57 62.91C0.636 63.06 0.732 63.348 0.756 63.462ZM0.756 63.462C1.038 63.366 1.434 63.354 4.98 63.168C4.956 63.048 4.932 62.814 4.926 62.658L1.152 62.814L0.75 63.018L0.756 63.462ZM6.66 62.418V62.982H8.436V62.418H6.66ZM9.636 61.044V65.364C9.636 66.084 9.81 66.288 10.398 66.288C10.512 66.288 11.046 66.288 11.166 66.288C11.79 66.288 11.928 65.844 11.982 64.596C11.826 64.56 11.58 64.446 11.436 64.326C11.4 65.454 11.364 65.736 11.112 65.736C11.004 65.736 10.572 65.736 10.476 65.736C10.26 65.736 10.224 65.682 10.224 65.37V61.044H9.636ZM8.13 61.044V65.502H8.718V61.044H8.13ZM6.462 65.862L6.726 66.438C7.428 66.156 8.358 65.778 9.222 65.412L9.12 64.908C8.16 65.268 7.11 65.652 6.462 65.862ZM9.942 62.412V62.976H11.862V62.412H9.942ZM15.294 63.276V63.744H16.218V63.276H15.294ZM16.038 63.276V63.36C16.014 64.674 15.996 65.112 15.93 65.214C15.888 65.268 15.846 65.286 15.774 65.286C15.708 65.286 15.564 65.28 15.39 65.262C15.462 65.406 15.51 65.616 15.516 65.784C15.72 65.79 15.912 65.784 16.032 65.766C16.17 65.742 16.254 65.694 16.344 65.574C16.464 65.418 16.488 64.872 16.518 63.48C16.518 63.414 16.518 63.276 16.518 63.276H16.038ZM17.364 61.182C17.58 61.404 17.832 61.716 17.94 61.914L18.33 61.68C18.216 61.476 17.958 61.182 17.742 60.978L17.364 61.182ZM17.766 62.958C17.466 64.38 16.824 65.532 16.026 66.192C16.146 66.264 16.308 66.402 16.38 66.486C17.208 65.79 17.88 64.596 18.24 63.15L17.766 62.958ZM16.71 60.948C16.752 64.194 16.914 66.474 17.832 66.51C18.054 66.516 18.306 66.27 18.432 65.262C18.348 65.22 18.132 65.082 18.048 64.98C18.012 65.538 17.946 65.868 17.844 65.868C17.406 65.838 17.202 63.642 17.208 60.948H16.71ZM15.186 62.022V62.532H18.312V62.022H15.186ZM14.952 62.022V63.6C14.952 64.368 14.91 65.43 14.514 66.186C14.628 66.24 14.85 66.426 14.934 66.522C15.39 65.7 15.468 64.446 15.468 63.6V62.022H14.952ZM12.996 62.766V63.204H14.562V62.766H12.996ZM12.996 63.576V64.014H14.562V63.576H12.996ZM12.75 61.932V62.394H14.718V61.932H12.75ZM13.26 64.392V64.848H14.094V65.712H13.26V66.168H14.556V64.392H13.26ZM12.984 64.392V66.438H13.44V64.392H12.984ZM13.236 61.164C13.434 61.41 13.65 61.746 13.734 61.968L14.214 61.71C14.112 61.494 13.902 61.176 13.692 60.948L13.236 61.164ZM20.766 61.728H23.04V62.724H20.766V61.728ZM20.214 61.188V63.264H23.616V61.188H20.214ZM19.362 63.846V66.504H19.902V64.386H21V66.462H21.57V63.846H19.362ZM22.158 63.846V66.504H22.704V64.386H23.898V66.474H24.468V63.846H22.158ZM19.602 65.646V66.192H21.234V65.646H19.602ZM22.428 65.646V66.192H24.168V65.646H22.428ZM25.47 62.172V62.7H27.57V62.172H25.47ZM26.316 60.936V66.504H26.832V60.936H26.316ZM26.31 62.538C26.142 63.354 25.764 64.356 25.356 64.872C25.458 65.022 25.584 65.274 25.644 65.436C26.064 64.824 26.454 63.642 26.628 62.664L26.31 62.538ZM26.808 62.922L26.544 63.132C26.718 63.396 27.108 64.104 27.246 64.428L27.582 64.032C27.468 63.852 26.952 63.09 26.808 62.922ZM27.768 66.27C27.768 66.162 28.17 65.958 28.17 65.958V65.946C28.62 65.184 29.088 64.104 29.406 63.042L28.836 62.892C28.584 63.882 28.128 64.944 27.972 65.22C27.828 65.508 27.72 65.694 27.588 65.73C27.654 65.88 27.744 66.156 27.768 66.27ZM27.768 66.27C27.966 66.174 28.242 66.138 30.456 65.838C30.426 65.724 30.384 65.502 30.378 65.346L28.05 65.616L27.75 65.814L27.768 66.27ZM29.58 64.5C29.868 65.112 30.222 65.922 30.384 66.408L30.906 66.156C30.732 65.694 30.36 64.896 30.066 64.308L29.58 64.5ZM28.326 61.146C28.188 62.028 27.948 62.874 27.552 63.42C27.666 63.522 27.864 63.75 27.936 63.864C28.38 63.228 28.686 62.244 28.866 61.248L28.326 61.146ZM29.412 61.104V61.38H29.526C29.712 62.286 30.054 63.246 30.492 63.852C30.594 63.714 30.792 63.498 30.918 63.402C30.498 62.898 30.156 61.986 29.994 61.104H29.412ZM29.034 61.104V61.584H29.892V61.104H29.034ZM33.192 60.936V62.208H33.744V60.936H33.192ZM35.238 60.936V62.208H35.796V60.936H35.238ZM31.746 62.838V63.342H34.416V62.838H31.746ZM32.712 63.828V64.332H33.762V63.828H32.712ZM32.454 63.132C32.424 64.296 32.358 65.454 31.704 66.114C31.836 66.204 32.004 66.378 32.088 66.51C32.844 65.742 32.964 64.458 33.012 63.132H32.454ZM33.606 63.828V63.924C33.564 65.28 33.51 65.76 33.414 65.88C33.372 65.934 33.324 65.946 33.246 65.946C33.162 65.946 32.982 65.94 32.778 65.928C32.85 66.06 32.904 66.27 32.916 66.426C33.15 66.432 33.378 66.432 33.51 66.414C33.666 66.396 33.774 66.348 33.876 66.216C34.02 66.036 34.08 65.496 34.134 64.05C34.134 63.984 34.14 63.828 34.14 63.828H33.606ZM35.118 64.164C35.514 64.368 35.988 64.698 36.204 64.932L36.546 64.56C36.312 64.32 35.832 64.014 35.442 63.822L35.118 64.164ZM32.658 62.34C32.79 62.58 32.928 62.904 32.982 63.096L33.534 62.964C33.474 62.778 33.318 62.46 33.186 62.232L32.658 62.34ZM34.512 65.322C35.256 65.592 36.174 66.054 36.624 66.414L36.93 65.952C36.462 65.592 35.526 65.16 34.8 64.914L34.512 65.322ZM35.58 62.238C35.298 62.862 34.746 63.528 34.116 63.948C34.236 64.032 34.416 64.212 34.5 64.314C35.154 63.834 35.718 63.138 36.066 62.388L35.58 62.238ZM35.832 62.412L35.52 62.694C35.832 63.126 36.462 63.888 36.984 64.314C37.074 64.194 37.248 64.008 37.362 63.918C36.816 63.546 36.138 62.856 35.832 62.412ZM31.836 61.344V61.848H34.386V61.344H31.836ZM34.602 61.344V61.848H37.152V61.344H34.602ZM38.376 66H39.006V63.822C39.006 63.42 38.952 62.856 38.916 62.454H38.94L39.294 63.474L40.062 65.58H40.494L41.262 63.474L41.622 62.454H41.646C41.61 62.856 41.556 63.42 41.556 63.822V66H42.198V61.584H41.394L40.596 63.822C40.5 64.11 40.416 64.41 40.308 64.71H40.284C40.182 64.41 40.092 64.11 39.984 63.822L39.18 61.584H38.376V66ZM43.6565 66H46.3385V65.412H44.3585V63.99H45.9725V63.396H44.3585V62.172H46.2725V61.584H43.6565V66ZM48.6281 66.084C49.4801 66.084 49.9901 65.58 49.9901 64.842C49.9901 63.444 48.1361 63.648 48.1361 62.772C48.1361 62.412 48.3701 62.196 48.7601 62.196C49.1021 62.196 49.3061 62.322 49.5521 62.562L49.9121 62.154C49.6241 61.848 49.2821 61.626 48.7301 61.626C47.9741 61.626 47.4701 62.094 47.4701 62.808C47.4701 64.092 49.3181 63.924 49.3181 64.896C49.3181 65.28 49.0901 65.514 48.6281 65.514C48.2441 65.514 47.9201 65.334 47.6141 65.082L47.2961 65.556C47.6321 65.868 48.1661 66.084 48.6281 66.084ZM48.4601 66.744H48.9461V65.82H48.4601V66.744ZM48.4601 61.86H48.9461V60.96H48.4601V61.86ZM51.732 66H52.578L53.16 63.546C53.226 63.204 53.304 62.874 53.37 62.538H53.394C53.454 62.874 53.52 63.204 53.598 63.546L54.186 66H55.05L55.92 61.584H55.254L54.834 63.882C54.762 64.35 54.684 64.824 54.612 65.304H54.582C54.474 64.824 54.384 64.344 54.276 63.882L53.706 61.584H53.088L52.524 63.882C52.422 64.35 52.32 64.824 52.224 65.304H52.2C52.122 64.824 52.044 64.35 51.96 63.882L51.552 61.584H50.832L51.732 66ZM56.9373 66H59.6193V65.412H57.6393V63.99H59.2533V63.396H57.6393V62.172H59.5533V61.584H56.9373V66ZM61.807 63.228V63.708H65.725V63.228H61.807ZM61.657 64.248V64.734H65.971V64.248H61.657ZM62.647 62.706V64.494H63.169V62.706H62.647ZM64.243 62.706V64.488H64.777V62.706H64.243ZM61.069 61.212V62.982C61.069 63.942 61.021 65.292 60.421 66.228C60.559 66.282 60.811 66.432 60.925 66.516C61.555 65.532 61.645 64.02 61.645 62.982V61.212H61.069ZM61.417 61.212V61.698H65.059V62.214H61.417V62.706H65.629V61.212H61.417ZM63.907 64.434L63.433 64.542C63.829 65.556 64.567 66.222 65.707 66.51C65.779 66.36 65.929 66.15 66.043 66.036C64.975 65.832 64.237 65.262 63.907 64.434ZM65.275 64.716C65.023 64.926 64.579 65.214 64.267 65.382L64.627 65.658C64.951 65.496 65.377 65.256 65.701 65.01L65.275 64.716ZM62.167 66.522C62.287 66.45 62.485 66.396 63.913 66.06C63.907 65.946 63.925 65.73 63.949 65.586L62.365 65.922L62.143 66.102L62.167 66.522ZM62.167 66.528C62.167 66.324 62.779 65.94 62.779 65.94V64.488L62.251 64.47V65.556C62.251 65.838 62.065 65.994 61.951 66.06C62.029 66.168 62.137 66.396 62.167 66.528ZM67.849 63.93C67.609 64.584 67.189 65.238 66.733 65.646C66.877 65.724 67.141 65.898 67.261 66C67.705 65.538 68.167 64.818 68.449 64.086L67.849 63.93ZM70.723 64.128C71.143 64.698 71.581 65.478 71.731 65.97L72.319 65.712C72.145 65.196 71.683 64.452 71.257 63.894L70.723 64.128ZM67.453 61.344V61.908H71.689V61.344H67.453ZM66.907 62.796V63.366H72.229V62.796H66.907ZM69.229 62.982V66.486H69.829V62.982H69.229ZM76.093 65.778V66.258H77.959V65.778H76.093ZM75.769 62.556V66.498H76.273V62.556H75.769ZM76.087 62.556V63.012H77.569V63.672H76.087V64.128H78.049V62.556H76.087ZM75.421 61.626V62.652H75.889V62.082H78.067V62.652H78.553V61.626H75.421ZM76.051 64.572V65.046H77.815V66.474H78.319V64.572H76.051ZM76.555 61.092C76.663 61.302 76.807 61.596 76.867 61.776L77.377 61.536C77.305 61.356 77.167 61.092 77.047 60.894L76.555 61.092ZM73.711 63.582V63.99H74.953V63.582H73.711ZM73.765 62.76V63.174H74.695V64.422H73.759V64.842H75.193V62.76H73.765ZM74.179 61.53C74.509 61.716 74.965 61.992 75.187 62.16L75.433 61.722C75.199 61.566 74.737 61.308 74.419 61.14L74.179 61.53ZM74.251 60.876C73.981 61.368 73.495 61.824 73.027 62.118C73.099 62.238 73.225 62.514 73.261 62.622C73.813 62.25 74.377 61.65 74.701 61.038L74.251 60.876ZM74.413 65.094C74.617 65.49 74.875 66.018 74.989 66.33L75.403 66.12C75.283 65.826 75.013 65.31 74.803 64.932L74.413 65.094ZM73.369 66.498C73.369 66.33 73.903 66.108 73.903 66.108V62.76H73.411V65.67C73.411 65.892 73.285 65.982 73.183 66.024C73.261 66.138 73.345 66.372 73.369 66.498ZM73.369 66.498C73.489 66.402 73.687 66.312 74.989 65.802C74.959 65.7 74.917 65.508 74.905 65.376L73.525 65.874L73.321 66.06L73.369 66.498ZM73.873 62.07V62.454H74.911V62.07H73.873ZM2.724 73.434V75.102H3.324V73.434H2.724ZM0.414 70.602V72.006H0.978V71.118H4.98V71.874H5.568V70.602H0.414ZM1.014 73.158V73.686H5.034V73.158H1.014ZM0.414 74.838V75.378H5.61V74.838H0.414ZM2.46 70.056C2.604 70.338 2.766 70.71 2.832 70.944L3.462 70.746C3.384 70.518 3.204 70.158 3.06 69.894L2.46 70.056ZM2.166 70.986C2.106 71.886 1.92 72.27 0.45 72.45C0.552 72.558 0.678 72.774 0.714 72.912C2.382 72.666 2.67 72.12 2.748 70.986H2.166ZM3.384 70.986V71.976C3.384 72.528 3.546 72.72 4.146 72.72C4.278 72.72 4.98 72.72 5.148 72.72C5.358 72.72 5.592 72.714 5.7 72.678C5.682 72.546 5.664 72.324 5.652 72.174C5.532 72.204 5.28 72.216 5.124 72.216C4.962 72.216 4.296 72.216 4.152 72.216C3.978 72.216 3.948 72.156 3.948 71.982V70.986H3.384ZM8.424 73.608V74.028H10.164V73.608H8.424ZM8.394 72.708V73.14H9.894V74.52H8.394V74.946H10.428V72.708H8.394ZM8.154 72.708V75.252H8.67V72.708H8.154ZM7.092 71.028V71.424H8.688V71.028H7.092ZM9.864 71.028V71.424H11.484V71.028H9.864ZM11.25 70.182V74.796C11.25 74.898 11.214 74.934 11.106 74.934C10.998 74.94 10.632 74.946 10.29 74.928C10.374 75.084 10.458 75.348 10.482 75.504C10.992 75.504 11.322 75.498 11.538 75.402C11.754 75.306 11.82 75.132 11.82 74.802V70.182H11.25ZM7.134 70.182V70.608H8.514V71.874H7.134V72.294H9.048V70.182H7.134ZM11.544 70.182H9.528V72.306H11.544V71.886H10.068V70.608H11.544V70.182ZM6.81 70.182V75.51H7.374V70.182H6.81ZM13.11 71.76V72.198H14.916V71.76H13.11ZM13.11 72.558V72.996H14.928V72.558H13.11ZM12.858 70.944V71.406H15.174V70.944H12.858ZM13.362 73.374V73.836H14.424V74.694H13.362V75.156H14.922V73.374H13.362ZM13.11 73.374V75.426H13.602V73.374H13.11ZM13.488 70.128C13.65 70.38 13.842 70.734 13.926 70.956L14.388 70.698C14.292 70.482 14.1 70.158 13.932 69.912L13.488 70.128ZM15.744 70.146V70.674H17.322V70.146H15.744ZM15.09 72.57V73.098H17.736V72.57H15.09ZM17.532 72.57V72.66C17.166 73.926 16.11 74.706 14.868 74.994C14.97 75.12 15.096 75.354 15.156 75.504C16.518 75.114 17.64 74.274 18.09 72.696L17.736 72.546L17.64 72.57H17.532ZM15.792 73.044L15.306 73.212C15.84 74.37 16.758 75.156 18.066 75.492C18.138 75.336 18.294 75.096 18.42 74.976C17.166 74.712 16.236 74.01 15.792 73.044ZM15.642 70.146V70.8C15.642 71.214 15.552 71.682 14.898 72.036C15 72.12 15.198 72.336 15.264 72.45C16.002 72.036 16.164 71.376 16.164 70.818V70.146H15.642ZM17.04 70.146V71.496C17.04 72.018 17.136 72.222 17.604 72.222C17.682 72.222 17.886 72.222 17.964 72.222C18.084 72.222 18.204 72.216 18.282 72.18C18.258 72.054 18.246 71.844 18.24 71.706C18.162 71.724 18.042 71.736 17.964 71.736C17.904 71.736 17.712 71.736 17.652 71.736C17.574 71.736 17.568 71.676 17.568 71.502V70.146H17.04ZM19.524 71.76V72.198H21.516V71.76H19.524ZM19.524 72.558V72.996H21.504V72.558H19.524ZM19.26 70.944V71.406H21.768V70.944H19.26ZM19.806 73.374V73.836H21.024V74.694H19.806V75.156H21.516V73.374H19.806ZM19.56 73.374V75.426H20.046V73.374H19.56ZM19.95 70.128C20.112 70.38 20.304 70.734 20.394 70.956L20.844 70.698C20.748 70.482 20.562 70.158 20.394 69.912L19.95 70.128ZM21.756 71.982V72.54H24.648V71.982H21.756ZM22.878 70.044V75.504H23.466V70.044H22.878ZM25.872 70.836V71.316H27.006V72.084H25.872V72.57H27.51V70.836H25.872ZM25.89 73.05V73.536H27.06V74.436H25.89V74.916H27.57V73.05H25.89ZM25.656 70.836V75.312H26.166V70.836H25.656ZM27.714 70.236V70.752H30.948V70.236H27.714ZM26.382 69.93C26.334 70.242 26.22 70.674 26.118 70.968L26.568 71.058C26.706 70.788 26.874 70.374 27.006 70.008L26.382 69.93ZM29.058 70.47V75.498H29.592V70.47H29.058ZM27.93 71.406V74.592H28.452V71.916H30.522V71.406H27.93ZM30.252 71.406V74.04C30.252 74.1 30.234 74.118 30.174 74.118C30.12 74.124 29.946 74.124 29.754 74.118C29.826 74.256 29.892 74.466 29.91 74.61C30.222 74.61 30.432 74.604 30.588 74.514C30.744 74.43 30.78 74.286 30.78 74.046V71.406H30.252Z" fill="black"/>
<path d="M1.134 -0.0650002V0.708999H2.925V4.588H1.134V5.371H3.717V-0.0650002H1.134ZM1.143 2.23V2.995H3.249V2.23H1.143ZM4.959 -0.218V0.574H7.875V-0.218H4.959ZM4.959 1.951V2.725H7.875V1.951H4.959ZM4.923 4.129V4.894H7.857V4.129H4.923ZM0.675 -0.0650002V6.19H1.467V-0.0650002H0.675ZM7.56 -0.218V6.712C7.56 6.874 7.497 6.928 7.335 6.928C7.182 6.937 6.624 6.946 6.084 6.919C6.21 7.144 6.345 7.513 6.381 7.747C7.155 7.747 7.659 7.729 7.974 7.594C8.289 7.45 8.406 7.207 8.406 6.721V-0.218H7.56ZM4.455 -0.218V3.013C4.455 4.399 4.311 6.109 2.79 7.252C2.97 7.36 3.294 7.657 3.42 7.828C5.058 6.595 5.292 4.552 5.292 3.022V-0.218H4.455ZM11.394 -0.0110004V7.657H12.267V0.844H16.551V7.63H17.46V-0.0110004H11.394ZM11.988 3.067V3.904H16.929V3.067H11.988ZM11.979 6.217V7.072H16.938V6.217H11.979ZM21.51 -0.164001V0.637H26.955V-0.164001H21.51ZM21.105 -0.164001V2.851C21.105 4.228 21.015 6.055 20.07 7.315C20.259 7.405 20.619 7.639 20.754 7.783C21.771 6.433 21.915 4.336 21.915 2.851V-0.164001H21.105ZM26.604 -0.164001C26.631 4.093 26.541 7.765 27.81 7.765C28.314 7.765 28.476 7.279 28.557 6.154C28.404 6.01 28.206 5.74 28.062 5.506C28.044 6.262 27.99 6.847 27.9 6.847C27.423 6.847 27.414 3.292 27.441 -0.164001H26.604ZM23.832 1.717V6.586H24.579V1.717H23.832ZM23.013 3.247H25.425V4.462H23.013V3.247ZM22.338 2.59V5.128H26.127V2.59H22.338ZM21.852 6.361L21.915 7.126C23.013 7.045 24.588 6.928 26.091 6.811V6.1C24.525 6.208 22.905 6.316 21.852 6.361ZM25.137 5.461C25.542 6.1 25.938 6.946 26.064 7.495L26.766 7.252C26.631 6.694 26.217 5.866 25.785 5.254L25.137 5.461ZM22.257 1.141V1.834H26.217V1.141H22.257ZM34.704 0.367V1.105H37.17V0.367H34.704ZM33.84 4.426V7.765H34.632V5.155H36.864V7.738H37.692V4.426H33.84ZM34.164 6.667V7.405H37.314V6.667H34.164ZM34.902 -0.605C34.488 0.475 33.759 1.501 32.931 2.14C33.12 2.266 33.453 2.563 33.588 2.716C34.416 1.987 35.226 0.834999 35.712 -0.38L34.902 -0.605ZM36.945 0.367V0.511C36.324 2.365 34.587 3.751 32.751 4.318C32.922 4.489 33.138 4.804 33.237 5.011C35.208 4.291 37.017 2.842 37.782 0.582999L37.242 0.34L37.098 0.367H36.945ZM34.695 0.907L34.065 1.267C34.686 2.617 36.018 4.111 37.998 4.804C38.106 4.597 38.349 4.264 38.52 4.102C36.567 3.526 35.262 2.149 34.695 0.907ZM30.132 1.303V2.104H33.318V1.303H30.132ZM31.419 -0.596V7.756H32.22V-0.596H31.419ZM31.392 1.834C31.14 3.067 30.546 4.552 29.916 5.353C30.06 5.551 30.258 5.884 30.339 6.109C31.014 5.2 31.617 3.454 31.905 2.005L31.392 1.834ZM32.184 2.383L31.779 2.743C32.04 3.085 32.634 3.985 32.85 4.399L33.336 3.751C33.165 3.526 32.4 2.59 32.184 2.383ZM0.45 18.875V19.388H8.523V18.875H0.45ZM1.584 17.984V18.497H7.461V17.984H1.584ZM5.598 19.613C6.318 19.928 7.182 20.477 7.623 20.873L8.208 20.477C7.749 20.099 6.894 19.568 6.174 19.271L5.598 19.613ZM1.206 20.765C1.206 20.639 1.755 20.459 1.755 20.459V20.45C2.493 20.162 3.33 19.703 4.086 19.163L3.249 18.929C2.646 19.424 1.845 19.847 1.584 19.955C1.341 20.072 1.143 20.144 0.963 20.162C1.053 20.333 1.17 20.63 1.206 20.765ZM1.206 20.765C1.593 20.657 2.133 20.639 7.308 20.423C7.254 20.297 7.2 20.063 7.173 19.901L1.737 20.09L1.206 20.315V20.765ZM1.035 14.213V14.672H4.077V14.213H1.035ZM4.689 14.6V15.221H7.308V14.6H4.689ZM0.954 16.427V16.877H4.194V16.427H0.954ZM0.612 14.987V15.455H4.491V14.987H0.612ZM2.574 12.395V13.925H3.402V12.395H2.574ZM2.205 13.952V15.302H2.925V13.952H2.205ZM2.205 15.968V17.498H2.925V15.968H2.205ZM5.562 12.395V13.925H6.399V12.395H5.562ZM0.567 17.336L0.612 17.858C1.629 17.795 3.069 17.696 4.473 17.597V17.129C3.024 17.219 1.539 17.291 0.567 17.336ZM1.62 15.23C1.548 15.671 1.278 15.869 0.45 15.986C0.567 16.076 0.702 16.274 0.756 16.4C1.728 16.211 2.07 15.878 2.169 15.23H1.62ZM6.948 14.6V16.778C6.948 17.282 6.993 17.426 7.11 17.543C7.227 17.66 7.416 17.714 7.587 17.714C7.677 17.714 7.857 17.714 7.956 17.714C8.091 17.714 8.244 17.687 8.334 17.624C8.442 17.57 8.523 17.48 8.568 17.336C8.622 17.21 8.649 16.832 8.667 16.517C8.496 16.463 8.298 16.364 8.172 16.256C8.163 16.562 8.154 16.805 8.136 16.913C8.127 17.012 8.1 17.075 8.064 17.093C8.037 17.12 7.983 17.129 7.929 17.129C7.884 17.129 7.812 17.129 7.767 17.129C7.722 17.129 7.686 17.12 7.668 17.084C7.641 17.057 7.632 16.958 7.632 16.787V14.6H6.948ZM4.545 15.896C5.247 16.202 6.075 16.706 6.48 17.093L6.894 16.562C6.471 16.175 5.625 15.698 4.932 15.419L4.545 15.896ZM5.67 14.015V14.861C5.67 15.608 5.517 16.652 4.248 17.435C4.419 17.552 4.644 17.759 4.752 17.894C6.138 17.021 6.327 15.815 6.327 14.879V14.015H5.67ZM2.808 15.221V15.581C2.808 16.031 2.898 16.22 3.357 16.22C3.465 16.22 3.816 16.22 3.933 16.22C4.086 16.22 4.266 16.211 4.356 16.184C4.338 16.049 4.329 15.896 4.32 15.761C4.212 15.797 4.023 15.797 3.924 15.797C3.825 15.797 3.555 15.797 3.483 15.797C3.357 15.797 3.348 15.752 3.348 15.59V15.221H2.808ZM0.531 12.962V13.574H4.374V12.962H0.531ZM4.662 12.962V13.574H8.487V12.962H4.662ZM12.627 14.564V15.356H16.092V14.564H12.627ZM13.905 12.458V20.729H14.652V12.458H13.905ZM16.29 13.106V13.862H18.441V13.106H16.29ZM16.074 15.248V16.013H18.576V15.248H16.074ZM14.895 13.16C15.183 13.529 15.507 14.033 15.651 14.357L16.2 14.033C16.056 13.709 15.723 13.223 15.426 12.872L14.895 13.16ZM17.001 15.608V19.712C17.001 19.82 16.965 19.847 16.839 19.847C16.713 19.856 16.308 19.856 15.894 19.838C16.002 20.081 16.11 20.432 16.128 20.666C16.749 20.666 17.172 20.657 17.451 20.522C17.739 20.378 17.811 20.144 17.811 19.712V15.608H17.001ZM11.745 12.404C11.43 13.007 10.8 13.754 10.215 14.204C10.35 14.357 10.566 14.663 10.665 14.843C11.349 14.303 12.069 13.457 12.519 12.683L11.745 12.404ZM11.196 16.112V20.765H11.979V15.473L11.871 15.437L11.196 16.112ZM11.934 14.258C11.502 15.239 10.782 16.193 10.044 16.814C10.197 16.994 10.44 17.408 10.53 17.579C11.349 16.832 12.177 15.653 12.699 14.51L11.934 14.258ZM12.897 15.896C12.888 17.435 12.825 18.398 12.285 18.983C12.438 19.1 12.627 19.343 12.708 19.487C13.41 18.785 13.5 17.633 13.518 15.896H12.897ZM15.084 15.896V18.299C15.084 18.983 15.192 19.217 15.795 19.217C15.867 19.217 15.993 19.217 16.056 19.217C16.191 19.217 16.317 19.208 16.416 19.172C16.398 19.028 16.362 18.731 16.353 18.569C16.263 18.596 16.146 18.605 16.065 18.605C16.002 18.605 15.849 18.605 15.786 18.605C15.714 18.605 15.705 18.551 15.705 18.308V15.896H15.084ZM20.493 13.169V15.113H21.33V13.952H27.279V15.113H28.152V13.169H20.493ZM21.708 14.654V15.383H26.865V14.654H21.708ZM23.274 16.022C24.768 17.318 24.687 19.361 24.183 19.775C24.039 19.946 23.877 19.973 23.652 19.973C23.454 19.973 23.157 19.964 22.824 19.928C22.977 20.162 23.049 20.504 23.058 20.738C23.337 20.747 23.616 20.756 23.814 20.747C24.246 20.747 24.507 20.666 24.804 20.387C25.614 19.748 25.677 17.147 23.922 15.662L23.274 16.022ZM24.219 14.888C23.409 15.653 21.87 16.238 20.466 16.553C20.61 16.715 20.835 17.066 20.916 17.228C22.365 16.814 23.976 16.121 24.921 15.185L24.219 14.888ZM23.904 16.589C23.139 17.165 21.582 17.804 20.421 18.074C20.574 18.254 20.754 18.542 20.853 18.731C22.023 18.362 23.589 17.642 24.453 16.994L23.904 16.589ZM24.426 17.651C23.544 18.461 21.744 19.298 20.286 19.64C20.448 19.829 20.628 20.135 20.727 20.351C22.203 19.901 24.021 18.992 25.011 18.092L24.426 17.651ZM26.235 17.093L25.488 17.273C25.938 18.686 26.766 19.811 27.981 20.378C28.098 20.162 28.35 19.838 28.539 19.685C27.432 19.244 26.622 18.254 26.235 17.093ZM26.847 15.644C26.226 16.238 25.182 17.003 24.408 17.453L24.957 17.939C25.74 17.516 26.766 16.823 27.549 16.202L26.847 15.644ZM23.544 12.584C23.733 12.926 23.931 13.385 24.003 13.682L24.93 13.385C24.858 13.097 24.633 12.656 24.435 12.332L23.544 12.584Z" fill="#C9A063"/>
</g>
<defs>
<clipPath id="clip0_138_6254">
<rect width="110" height="79" fill="white"/>
</clipPath>
</defs>
</svg>
