<?xml version="1.0" encoding="utf-8"?>
<!-- Generator: Adobe Illustrator 25.2.3, SVG Export Plug-In . SVG Version: 6.00 Build 0)  -->
<svg version="1.1" id="圖層_1" xmlns="http://www.w3.org/2000/svg" xmlns:xlink="http://www.w3.org/1999/xlink" x="0px" y="0px"
	 viewBox="0 0 280 46" style="enable-background:new 0 0 280 46;" xml:space="preserve">
<style type="text/css">
	.st0{fill:#C9A063;}
</style>
<path class="st0" d="M37.2,32.6h-4.4v12.3h-2V32.6h-4.3v-0.8h10.7V32.6z"/>
<path class="st0" d="M52.9,44.8l-2.5,0.1c-0.6,0-1-0.5-1-1.1v-5.2h-6.6v6.3h-2V33.6c0-0.8-0.5-1.4-1.2-1.6c0,0,0,0-0.1,0l-0.3-0.1
	v-0.1h2.5c0.3,0,0.6,0.1,0.8,0.3s0.3,0.5,0.3,0.8v5h6.6v-6.1h2V43c0,0.8,0.5,1.4,1.2,1.6L52.9,44.8z"/>
<path class="st0" d="M64.3,44.2v0.7H56V33.6c0-0.8-0.5-1.4-1.6-1.7v-0.1h9.9v0.7H58v5.2h5.2v0.8H58v5.8h6.3V44.2z"/>
<path class="st0" d="M80.3,41.5c0,0.7-0.5,3.4-5.1,3.4h-4.8V33.6c0-0.8-0.6-1.6-1.6-1.8v-0.1h6.4c4-0.1,4.5,2.8,4.5,3.4
	c0,1.8-1.2,2.6-2.3,3C78.7,38.5,80.3,39.3,80.3,41.5z M72.4,37.8h2.9c1.1,0,2.5-0.8,2.5-2.5c0-1.8-1.2-2.9-2.8-2.9h-2.5L72.4,37.8
	L72.4,37.8z M78.1,41.4c0-2.7-2.8-3-3.4-3h-2.3v5.8h2.8C75.2,44.2,78.1,44.1,78.1,41.4z"/>
<path class="st0" d="M90.9,44.2v0.7h-8.3V33.6c0-0.8-0.5-1.4-1.6-1.7v-0.1h9.9v0.7h-6.3v5.2h5.2v0.8h-5.2v5.8h6.3V44.2z"/>
<path class="st0" d="M103.8,32.6h-4.3v12.3h-2V32.6h-4.4v-0.8h10.7V32.6z"/>
<path class="st0" d="M117,32.6h-4.3v12.3h-2V32.6h-4.4v-0.8H117V32.6z"/>
<path class="st0" d="M129.1,44.2v0.7h-8.3V33.6c0-0.8-0.5-1.4-1.6-1.7v-0.1h9.9v0.7h-6.3v5.2h5.2v0.8h-5.2v5.8h6.3V44.2z"/>
<path class="st0" d="M142.3,44.9h-2.2l-4.2-5.9c-0.5,0-1,0-1.5,0v5.9h-2V33.6c0-0.8-0.6-1.6-1.6-1.8v-0.1h3.6c2.1,0,6.2-0.1,6.2,3.7
	c0,2.1-1.3,3-2.7,3.4L142.3,44.9z M137.9,37.5c0.1-0.1,0.3-0.3,0.3-0.5c0.1-0.2,0.2-0.4,0.2-0.7c0.1-0.3,0.1-0.6,0.1-0.9
	c-0.1-2.8-2.3-3-2.7-3h-1.4v5.9h1.4c0.2,0,0.5,0,0.7-0.1c0.3-0.1,0.7-0.2,1-0.3C137.6,37.8,137.8,37.7,137.9,37.5z"/>
<path class="st0" d="M157.4,32.6h-4.3v12.3h-2V32.6h-4.4v-0.8h10.7V32.6z"/>
<path class="st0" d="M170.4,38.3c0,4.7-2.8,6.8-6.3,6.8s-6.3-2.1-6.3-6.8c0-4.6,2.8-6.8,6.3-6.8C167.5,31.5,170.4,33.7,170.4,38.3z
	 M168.2,38.3c0-4.2-1.9-6.2-4.2-6.2s-4.2,2-4.2,6.2c0,4.3,1.9,6.2,4.2,6.2S168.2,42.6,168.2,38.3z"/>
<path class="st0" d="M186.5,44.9h-2l-1.6-9l-4.9,9l-4.5-8.4l-1,8.4h-0.8l0.9-8.1c0.1-1.1,0.6-4.1-1.4-4.6V32
	c2.5,0.1,3.4,2.4,4.1,3.6l3.3,6.3l5.5-10.2L186.5,44.9z"/>
<path class="st0" d="M200,38.3c0,4.7-2.8,6.8-6.3,6.8s-6.3-2.1-6.3-6.8c0-4.6,2.8-6.8,6.3-6.8C197.1,31.5,200,33.7,200,38.3z
	 M197.8,38.3c0-4.2-1.9-6.2-4.2-6.2c-2.3,0-4.2,2-4.2,6.2c0,4.3,1.9,6.2,4.2,6.2C196,44.5,197.8,42.6,197.8,38.3z"/>
<path class="st0" d="M211.3,44.9h-2.2l-4.2-5.9c-0.5,0-1,0-1.5,0v5.9h-2V33.6c0-0.8-0.6-1.6-1.6-1.8v-0.1h3.6c2.1,0,6.2-0.1,6.2,3.7
	c0,2.1-1.3,3-2.7,3.4L211.3,44.9z M206.9,37.5c0.1-0.1,0.3-0.3,0.3-0.5c0.1-0.2,0.2-0.4,0.2-0.7c0.1-0.3,0.1-0.6,0.1-0.9
	c-0.1-2.8-2.3-3-2.7-3h-1.4v5.9h1.4c0.2,0,0.5,0,0.7-0.1c0.3-0.1,0.7-0.2,1-0.3C206.6,37.8,206.7,37.7,206.9,37.5z"/>
<path class="st0" d="M222.8,44.9h-2.2l-4.2-5.9c-0.5,0-1,0-1.5,0v5.9h-2V33.6c0-0.8-0.6-1.6-1.6-1.8v-0.1h3.6c2.1,0,6.2-0.1,6.2,3.7
	c0,2.1-1.3,3-2.7,3.4L222.8,44.9z M218.4,37.5c0.1-0.1,0.3-0.3,0.3-0.5c0.1-0.2,0.2-0.4,0.2-0.7c0.1-0.3,0.1-0.6,0.1-0.9
	c-0.1-2.8-2.3-3-2.7-3h-1.4v5.9h1.4c0.2,0,0.5,0,0.7-0.1c0.3-0.1,0.7-0.2,1-0.3C218.1,37.8,218.3,37.7,218.4,37.5z"/>
<path class="st0" d="M235.8,38.3c0,4.7-2.8,6.8-6.3,6.8s-6.3-2.1-6.3-6.8c0-4.6,2.8-6.8,6.3-6.8C232.9,31.5,235.8,33.7,235.8,38.3z
	 M233.6,38.3c0-4.2-1.9-6.2-4.2-6.2c-2.3,0-4.2,2-4.2,6.2c0,4.3,1.9,6.2,4.2,6.2C231.8,44.5,233.6,42.6,233.6,38.3z"/>
<path class="st0" d="M252.1,31.8l-5,13.4l-3.2-9.1l-3.1,9.1l-4.5-12.3c-0.1-0.2-0.2-0.4-0.4-0.6c-0.2-0.1-0.4-0.3-0.6-0.3l-0.4-0.1
	v-0.1h1.8c0.7,0,1.3,0.4,1.5,1.1l3,8.4l3.2-9.5l3.2,9.3l3.5-9.3H252.1z"/>
<path class="st0" d="M37.2,32.6h-4.4v12.3h-2V32.6h-4.3v-0.8h10.7V32.6z"/>
<path class="st0" d="M52.9,44.8l-2.5,0.1c-0.6,0-1-0.5-1-1.1v-5.2h-6.6v6.3h-2V33.6c0-0.8-0.5-1.4-1.2-1.6c0,0,0,0-0.1,0l-0.3-0.1
	v-0.1h2.5c0.3,0,0.6,0.1,0.8,0.3s0.3,0.5,0.3,0.8v5h6.6v-6.1h2V43c0,0.8,0.5,1.4,1.2,1.6L52.9,44.8z"/>
<path class="st0" d="M64.3,44.2v0.7H56V33.6c0-0.8-0.5-1.4-1.6-1.7v-0.1h9.9v0.7H58v5.2h5.2v0.8H58v5.8h6.3V44.2z"/>
<path class="st0" d="M80.3,41.5c0,0.7-0.5,3.4-5.1,3.4h-4.8V33.6c0-0.8-0.6-1.6-1.6-1.8v-0.1h6.4c4-0.1,4.5,2.8,4.5,3.4
	c0,1.8-1.2,2.6-2.3,3C78.7,38.5,80.3,39.3,80.3,41.5z M72.4,37.8h2.9c1.1,0,2.5-0.8,2.5-2.5c0-1.8-1.2-2.9-2.8-2.9h-2.5L72.4,37.8
	L72.4,37.8z M78.1,41.4c0-2.7-2.8-3-3.4-3h-2.3v5.8h2.8C75.2,44.2,78.1,44.1,78.1,41.4z"/>
<path class="st0" d="M90.9,44.2v0.7h-8.3V33.6c0-0.8-0.5-1.4-1.6-1.7v-0.1h9.9v0.7h-6.3v5.2h5.2v0.8h-5.2v5.8h6.3V44.2z"/>
<path class="st0" d="M103.8,32.6h-4.3v12.3h-2V32.6h-4.4v-0.8h10.7V32.6z"/>
<path class="st0" d="M117,32.6h-4.3v12.3h-2V32.6h-4.4v-0.8H117V32.6z"/>
<path class="st0" d="M129.1,44.2v0.7h-8.3V33.6c0-0.8-0.5-1.4-1.6-1.7v-0.1h9.9v0.7h-6.3v5.2h5.2v0.8h-5.2v5.8h6.3V44.2z"/>
<path class="st0" d="M142.3,44.9h-2.2l-4.2-5.9c-0.5,0-1,0-1.5,0v5.9h-2V33.6c0-0.8-0.6-1.6-1.6-1.8v-0.1h3.6c2.1,0,6.2-0.1,6.2,3.7
	c0,2.1-1.3,3-2.7,3.4L142.3,44.9z M137.9,37.5c0.1-0.1,0.3-0.3,0.3-0.5c0.1-0.2,0.2-0.4,0.2-0.7c0.1-0.3,0.1-0.6,0.1-0.9
	c-0.1-2.8-2.3-3-2.7-3h-1.4v5.9h1.4c0.2,0,0.5,0,0.7-0.1c0.3-0.1,0.7-0.2,1-0.3C137.6,37.8,137.8,37.7,137.9,37.5z"/>
<path class="st0" d="M157.4,32.6h-4.3v12.3h-2V32.6h-4.4v-0.8h10.7V32.6z"/>
<path class="st0" d="M170.4,38.3c0,4.7-2.8,6.8-6.3,6.8s-6.3-2.1-6.3-6.8c0-4.6,2.8-6.8,6.3-6.8C167.5,31.5,170.4,33.7,170.4,38.3z
	 M168.2,38.3c0-4.2-1.9-6.2-4.2-6.2s-4.2,2-4.2,6.2c0,4.3,1.9,6.2,4.2,6.2S168.2,42.6,168.2,38.3z"/>
<path class="st0" d="M186.5,44.9h-2l-1.6-9l-4.9,9l-4.5-8.4l-1,8.4h-0.8l0.9-8.1c0.1-1.1,0.6-4.1-1.4-4.6V32
	c2.5,0.1,3.4,2.4,4.1,3.6l3.3,6.3l5.5-10.2L186.5,44.9z"/>
<path class="st0" d="M200,38.3c0,4.7-2.8,6.8-6.3,6.8s-6.3-2.1-6.3-6.8c0-4.6,2.8-6.8,6.3-6.8C197.1,31.5,200,33.7,200,38.3z
	 M197.8,38.3c0-4.2-1.9-6.2-4.2-6.2c-2.3,0-4.2,2-4.2,6.2c0,4.3,1.9,6.2,4.2,6.2C196,44.5,197.8,42.6,197.8,38.3z"/>
<path class="st0" d="M211.3,44.9h-2.2l-4.2-5.9c-0.5,0-1,0-1.5,0v5.9h-2V33.6c0-0.8-0.6-1.6-1.6-1.8v-0.1h3.6c2.1,0,6.2-0.1,6.2,3.7
	c0,2.1-1.3,3-2.7,3.4L211.3,44.9z M206.9,37.5c0.1-0.1,0.3-0.3,0.3-0.5c0.1-0.2,0.2-0.4,0.2-0.7c0.1-0.3,0.1-0.6,0.1-0.9
	c-0.1-2.8-2.3-3-2.7-3h-1.4v5.9h1.4c0.2,0,0.5,0,0.7-0.1c0.3-0.1,0.7-0.2,1-0.3C206.6,37.8,206.7,37.7,206.9,37.5z"/>
<path class="st0" d="M222.8,44.9h-2.2l-4.2-5.9c-0.5,0-1,0-1.5,0v5.9h-2V33.6c0-0.8-0.6-1.6-1.6-1.8v-0.1h3.6c2.1,0,6.2-0.1,6.2,3.7
	c0,2.1-1.3,3-2.7,3.4L222.8,44.9z M218.4,37.5c0.1-0.1,0.3-0.3,0.3-0.5c0.1-0.2,0.2-0.4,0.2-0.7c0.1-0.3,0.1-0.6,0.1-0.9
	c-0.1-2.8-2.3-3-2.7-3h-1.4v5.9h1.4c0.2,0,0.5,0,0.7-0.1c0.3-0.1,0.7-0.2,1-0.3C218.1,37.8,218.3,37.7,218.4,37.5z"/>
<path class="st0" d="M235.8,38.3c0,4.7-2.8,6.8-6.3,6.8s-6.3-2.1-6.3-6.8c0-4.6,2.8-6.8,6.3-6.8C232.9,31.5,235.8,33.7,235.8,38.3z
	 M233.6,38.3c0-4.2-1.9-6.2-4.2-6.2c-2.3,0-4.2,2-4.2,6.2c0,4.3,1.9,6.2,4.2,6.2C231.8,44.5,233.6,42.6,233.6,38.3z"/>
<path class="st0" d="M252.1,31.8l-5,13.4l-3.2-9.1l-3.1,9.1l-4.5-12.3c-0.1-0.2-0.2-0.4-0.4-0.6c-0.2-0.1-0.4-0.3-0.6-0.3l-0.4-0.1
	v-0.1h1.8c0.7,0,1.3,0.4,1.5,1.1l3,8.4l3.2-9.5l3.2,9.3l3.5-9.3H252.1z"/>
<path class="st0" d="M41.2,4.5c0.4,0.3,0.6,0.5,0.7,0.7c0,0.2-0.3,0.3-0.7,0.4l-1,3h0.9c0.6-0.7,1-1,1.1-1c0.1,0,0.4,0.2,0.9,0.6
	c0.5,0.5,0.8,0.8,0.8,0.9c0,0.2-0.3,0.4-0.9,0.6L42.5,12h0.7c0.5-0.7,0.8-1.1,1-1.1s0.5,0.2,1,0.5c0.5,0.4,0.8,0.7,0.8,0.8
	c0,0.2-0.2,0.4-0.6,0.6c-0.1,0.1-0.2,0.3-0.2,0.5c-0.1,2-0.4,3.6-0.7,4.8c-0.3,1.1-1.3,1.6-2.8,1.6c-0.2,0-0.3-0.2-0.4-0.5
	c-0.1-0.2-0.2-0.4-0.5-0.6c-0.4-0.3-0.9-0.5-1.6-0.6c0-0.1,0-0.2,0-0.4c0.7,0,1.3,0.1,1.7,0.1c1.3,0,2-0.3,2-1
	c0.3-0.9,0.5-2.3,0.5-4.2H31.9c-1.4,1.8-3,3.2-4.9,4.4c-0.1-0.1-0.2-0.2-0.2-0.3c3.3-3.3,5.6-7,6.9-11.2h-3.6c-0.9,0-1.6,0-2.3,0.1
	c0-0.1-0.1-0.3-0.3-0.8c0.8,0.1,1.6,0.2,2.7,0.2h3.7c0.4-1.4,0.7-2.8,1-4.3c2,0.5,3,1,3,1.2c-0.1,0.3-0.5,0.4-1.3,0.5
	c-0.2,0.9-0.4,1.8-0.7,2.6h3.4c0.6-0.7,1-1,1.2-1.1C40.7,4.2,41,4.3,41.2,4.5z M31.4,14.6c0,0.4,0.1,0.9,0.1,1.7c0,2-0.7,3-2,3
	c-0.7,0-1-0.2-1-0.7c0-0.4,0.2-0.8,0.7-1.1c0.4-0.2,0.8-0.6,1.2-1.2c0.3-0.4,0.6-1,0.7-1.7H31.4z M31.2,1.5c0.9,0.6,1.3,1.2,1.3,2
	c0,0.5-0.2,0.9-0.4,1c-0.1,0.1-0.4,0.2-0.7,0.2c-0.4,0-0.7-0.4-0.9-1.2c-0.2-0.7-0.4-1.2-0.6-1.6c-0.2-0.3-0.4-0.6-0.7-0.9
	c0-0.1,0.1-0.1,0.2-0.3C30.2,1,30.7,1.2,31.2,1.5z M32.4,12h8.3l0.6-2.8h-7.1C33.6,10.2,33,11.1,32.4,12z M33.9,14.3
	c0.8,1,1.2,1.8,1.2,2.5c-0.1,1.2-0.4,1.8-1,1.8c-0.6,0-0.9-0.2-0.9-0.7c0-0.4,0.1-0.7,0.2-1.2c0.1-0.4,0.2-1,0.3-1.8v-0.6
	C33.8,14.4,33.9,14.4,33.9,14.3z M34.5,8.6h3.7l1.2-3h-3.7C35.3,6.7,34.9,7.6,34.5,8.6z M38.5,16.4c0,0.8-0.3,1.2-0.9,1.2
	c-0.7,0-1-0.3-1-0.8c0-0.1,0.1-0.5,0.1-1c0-0.3,0-0.6,0-0.9c0-0.5-0.1-0.9-0.3-1.3c0.1,0,0.1,0,0.2-0.1
	C37.9,14.4,38.5,15.4,38.5,16.4z M41.8,15.3c0,0.5-0.1,0.8-0.3,1c-0.2,0.3-0.4,0.4-0.8,0.4c-0.3,0-0.5-0.3-0.6-0.9
	c-0.3-1.1-0.6-2-1.1-2.6l0.3-0.2C41,13.9,41.8,14.6,41.8,15.3z"/>
<path class="st0" d="M48.3,19.7c0-0.1-0.1-0.2-0.3-0.2c2.3-1.5,4.3-3.7,6-6.7c1.4-2.1,2.2-5.5,2.3-10.2l-0.1-0.9
	c0-0.2-0.1-0.4-0.2-0.5c2.5,0.3,3.8,0.7,3.8,1c0,0.2-0.2,0.4-0.6,0.4c-0.3,0.1-0.5,0.3-0.5,0.5v0.4c0,0.5-0.1,0.9-0.1,1.3
	c0.4,3.2,1.5,6,3.4,8.5c1.5,2,3.1,3.3,5,4c0,0.2,0,0.4-0.1,0.5c-0.4,0-0.6,0.1-0.6,0.2c-0.3,0.1-0.5,0.3-0.8,0.7
	c-0.3,0.5-0.5,0.8-0.7,0.8c-0.6,0-1.7-1.2-3.3-3.4c-1.7-2.4-2.8-5.5-3.2-9.2C57,13.2,53.7,17.5,48.3,19.7z"/>
<path class="st0" d="M83.2,4.5c0.4,0.3,0.6,0.5,0.7,0.7c0,0.2-0.3,0.3-0.7,0.4l-1,3h0.9c0.6-0.7,1-1,1.1-1c0.1,0,0.4,0.2,0.9,0.6
	c0.5,0.5,0.8,0.8,0.8,0.9c0,0.2-0.3,0.4-0.9,0.6L84.5,12h0.7c0.5-0.7,0.8-1.1,1-1.1c0.2,0,0.5,0.2,1,0.5c0.5,0.4,0.8,0.7,0.8,0.8
	c0,0.2-0.2,0.4-0.6,0.6c-0.1,0.1-0.2,0.3-0.2,0.5c-0.1,2-0.4,3.6-0.7,4.8c-0.3,1.1-1.3,1.6-2.8,1.6c-0.2,0-0.3-0.2-0.4-0.5
	c-0.1-0.2-0.2-0.4-0.5-0.6c-0.4-0.3-0.9-0.5-1.6-0.6c0-0.1,0-0.2,0-0.4c0.7,0,1.3,0.1,1.7,0.1c1.3,0,2-0.3,2-1
	c0.3-0.9,0.5-2.3,0.5-4.2H73.9c-1.4,1.8-3,3.2-4.9,4.4c-0.1-0.1-0.2-0.2-0.2-0.3c3.3-3.3,5.6-7,6.9-11.2h-3.6c-0.9,0-1.6,0-2.3,0.1
	c0-0.1-0.1-0.3-0.3-0.8c0.8,0.1,1.6,0.2,2.7,0.2h3.7c0.4-1.4,0.7-2.8,1-4.3c2,0.5,3,1,3,1.2c-0.1,0.3-0.5,0.4-1.3,0.5
	c-0.2,0.9-0.4,1.8-0.7,2.6h3.4c0.6-0.7,1-1,1.2-1.1C82.7,4.2,83,4.3,83.2,4.5z M73.4,14.6c0,0.4,0.1,0.9,0.1,1.7c0,2-0.7,3-2,3
	c-0.7,0-1-0.2-1-0.7c0-0.4,0.2-0.8,0.7-1.1c0.4-0.2,0.8-0.6,1.2-1.2c0.3-0.4,0.6-1,0.7-1.7H73.4z M73.2,1.5c0.9,0.6,1.3,1.2,1.3,2
	c0,0.5-0.2,0.9-0.4,1c-0.1,0.1-0.4,0.2-0.7,0.2c-0.4,0-0.7-0.4-0.9-1.2c-0.2-0.7-0.4-1.2-0.6-1.6c-0.2-0.3-0.4-0.6-0.7-0.9
	c0-0.1,0.1-0.1,0.2-0.3C72.2,1,72.7,1.2,73.2,1.5z M74.4,12h8.3l0.6-2.8h-7.1C75.6,10.2,75,11.1,74.4,12z M75.9,14.3
	c0.8,1,1.2,1.8,1.2,2.5c-0.1,1.2-0.4,1.8-1,1.8s-0.9-0.2-0.9-0.7c0-0.4,0.1-0.7,0.2-1.2c0.1-0.4,0.2-1,0.3-1.8v-0.6
	C75.8,14.4,75.9,14.4,75.9,14.3z M76.5,8.6h3.7l1.2-3h-3.7C77.3,6.7,76.9,7.6,76.5,8.6z M80.5,16.4c0,0.8-0.3,1.2-0.9,1.2
	c-0.7,0-1-0.3-1-0.8c0-0.1,0.1-0.5,0.1-1c0-0.3,0-0.6,0-0.9c0-0.5-0.1-0.9-0.3-1.3c0.1,0,0.1,0,0.2-0.1
	C79.9,14.4,80.5,15.4,80.5,16.4z M83.8,15.3c0,0.5-0.1,0.8-0.3,1c-0.2,0.3-0.4,0.4-0.8,0.4c-0.3,0-0.5-0.3-0.6-0.9
	c-0.3-1.1-0.6-2-1.1-2.6l0.3-0.2C83,13.9,83.8,14.6,83.8,15.3z"/>
<path class="st0" d="M108.2,3.1c0.6,0.5,0.9,0.9,0.9,1c0,0.2-0.2,0.3-0.6,0.3c-0.3,0-0.4,0.1-0.6,0.1c-0.5,0.4-1.2,0.7-2,1.1
	c0.6,0.5,0.9,0.9,0.9,1c0,0.2-0.1,0.3-0.2,0.3h-5.5c-0.2,0.2-0.4,0.4-0.7,0.5c-0.5,0.3-1,0.7-1.5,0.9c0.9,0.8,1.6,1.8,2.1,3
	c1.6-1,2.8-2.2,3.6-3.7c1.6,1.2,2.4,1.8,2.4,1.9c0,0.2-0.1,0.3-0.3,0.3c-0.3,0-0.7,0-1-0.1c-0.7,0.5-1.6,0.9-2.5,1.3
	c0.5,1,1.3,2,2.4,2.9c1.2,1,2.4,1.6,3.3,1.8c0,0.2,0,0.3,0,0.4c-0.4,0.2-0.7,0.4-0.8,0.7c-0.1,0.3-0.2,0.5-0.3,0.7
	c-0.1,0.2-0.1,0.3-0.3,0.3c-0.6,0-1.7-1-3.1-3.1c-0.7-1.1-1.3-2.2-1.7-3.5c-0.5,0.2-1,0.4-1.5,0.5c0.4,1.2,0.6,2.5,0.6,4
	c0,2-0.7,3.3-2,3.8c-0.2,0.1-0.4,0.1-0.7,0.1c-0.2-0.1-0.4-0.3-0.4-0.5c-0.2-0.5-0.5-0.9-1.1-1.1c-0.5-0.2-0.9-0.3-1.1-0.3
	c0-0.2,0-0.3,0.1-0.4c0.5,0.1,1,0.2,1.4,0.2c1.3,0,1.9-0.9,2-2.8c0-0.2,0-0.5,0-0.7c-2.8,1.6-6,2.8-9.4,3.6c-0.1,0-0.1-0.1-0.2-0.4
	c3.8-1.3,7-3.1,9.4-5.3c-0.1-0.4-0.2-0.7-0.3-1.1C97,12.3,94.1,13.4,91,14c0,0-0.1-0.1-0.2-0.3c3.3-1.2,6-2.7,8-4.6
	c-0.1-0.3-0.3-0.5-0.4-0.7c-1.8,0.9-4.1,1.7-6.8,2.4c-0.1-0.2-0.3-0.3-0.3-0.4c3.1-1.1,5.3-2.3,6.6-3.6C98,6.7,98,6.7,98.1,6.6h-1.4
	c-1.8,0-2.9,0.1-3.4,0.3c-0.1-0.4-0.3-0.7-0.5-1.1C93.5,5.9,94.7,6,96.5,6h7c0.6-0.8,1.1-1.3,1.4-1.4c0,0,0.1,0,0.2,0
	c0.2,0.1,0.3,0.2,0.5,0.3c0,0,0,0.1,0.1,0.1c0.3-0.4,0.5-0.9,0.6-1.3H93.1v0.1c0,1.8-0.5,2.7-1.6,2.7c-0.8,0-1.2-0.3-1.2-0.8
	c0-0.3,0-0.5,0.2-0.7c0-0.1,0.3-0.4,0.9-0.8c0.6-0.5,1-1.3,1.2-2.5c0.2,0,0.3,0,0.4,0c0.1,0.5,0.2,0.9,0.2,1.4h12.9
	c0.6-0.7,1-1.1,1.2-1.2C107.4,2.4,107.7,2.7,108.2,3.1z M100.9,2.1c0,0.3,0,0.5-0.1,0.7c-0.2,0.4-0.4,0.6-0.8,0.6
	c-0.3,0-0.7-0.3-1.2-0.9s-1-1.1-1.7-1.5c0.1,0,0.1-0.1,0.1-0.3C99.6,0.9,100.8,1.3,100.9,2.1z"/>
<path class="st0" d="M119.9,14l-0.4-0.4c0.8-0.7,1.2-1.3,1.2-2c0-0.1-0.1-0.2-0.3-0.2c-1-0.2-1.5-0.7-1.5-1.5c0-0.4,0.1-0.7,0.4-1
	c0.3-0.3,0.7-0.5,1.2-0.5s0.9,0.2,1.2,0.6c0.2,0.3,0.4,0.7,0.4,1.1C122.1,11.8,121.3,13,119.9,14z"/>
<path class="st0" d="M149.5,12.4c0.9,0.8,1.3,1.2,1.3,1.4c0,0.2-0.1,0.3-0.2,0.3h-7.1c1,0.9,2,1.6,3.2,2c1.2,0.5,2.6,0.7,4.2,0.8
	c0,0.2,0,0.3-0.1,0.4c-0.1,0-0.3,0.2-0.5,0.4c-0.1,0.1-0.3,0.4-0.4,0.8c-0.1,0.3-0.2,0.4-0.4,0.4c-0.7,0-1.8-0.5-3.4-1.4
	c-1.4-0.8-2.4-1.9-3.1-3.3h-0.3l0.1,5.1c0,0.4-0.4,0.6-1.2,0.7c-0.6,0-0.9-0.2-0.9-0.5c0-1.6,0-3.1,0-4.5c-1.5,1.7-4.3,3-8.5,4
	c-0.1,0-0.2-0.1-0.3-0.3c3.4-1.2,5.6-2.6,6.7-4c0.2-0.2,0.3-0.4,0.4-0.5h-1.6c-2.4,0-4,0.1-4.6,0.3c-0.1-0.4-0.3-0.7-0.5-1.1
	c1,0.1,2.8,0.2,5.2,0.2h3.1v-0.2c0-0.7-0.1-1.2-0.1-1.6c-0.6,0.2-1.3,0.4-2,0.5c0,0-0.1-0.1-0.2-0.3c1.7-0.6,2.9-1.5,3.7-2.7
	c-0.6-0.4-1.1-0.7-1.7-0.9c0,0,0.1-0.1,0.1-0.3c0.7,0.1,1.4,0.2,1.9,0.4c0.2-0.5,0.3-1,0.3-1.4c-0.8,0-1.4,0.1-1.7,0.2
	c-0.1-0.3-0.3-0.7-0.4-1c0.3,0.1,1,0.2,2,0.2h3.6c0.2-0.3,0.4-0.5,0.6-0.7c-0.4,0-0.6-0.2-0.7-0.7c0-0.1-0.1-0.3-0.1-0.5
	s-0.1-0.3-0.1-0.5c-0.1-0.2-0.2-0.4-0.3-0.5h-1.6c-0.2,0.2-0.4,0.4-0.5,0.5c-0.7,0.6-1.4,1.2-2.2,1.6c0,0-0.1-0.1-0.2-0.2
	c1.3-1.6,2.2-3.1,2.5-4.6c1.8,0.5,2.7,0.9,2.7,1.1s-0.4,0.3-1.2,0.4c-0.1,0.2-0.3,0.4-0.4,0.6h3.7c0.5-0.8,0.9-1.2,1.1-1.3h0.1
	c0.1,0.1,0.4,0.3,0.8,0.6c0.5,0.5,0.8,0.8,0.9,1c0,0.2-0.1,0.3-0.1,0.3h-4.4c0.8,0.3,1.2,0.7,1.2,1.3c0,0.3-0.1,0.6-0.3,0.7
	c0.3,0.1,0.6,0.4,1,0.6c0.5,0.4,0.7,0.7,0.7,0.8c0,0.2-0.3,0.5-0.9,0.8v1.9c0,0.5,0.2,0.7,0.6,0.8c0,0,0,0,0.1,0
	c0.5,0,0.7-0.1,0.8-0.3c0.2-0.3,0.4-0.9,0.5-1.7c0,0,0.1,0.1,0.4,0.1c0,0.3,0,0.7,0,1.2c0,0.2,0.1,0.4,0.3,0.5
	c0.3,0.1,0.5,0.4,0.5,0.6c0,0.3-0.1,0.4-0.1,0.5c-0.2,0.4-0.6,0.6-1.2,0.7c-0.3,0.1-0.5,0.1-0.8,0.1s-0.5,0-0.7,0
	c-1.2,0-1.8-0.6-1.9-1.9V7H145c-0.1,0.9-0.3,1.5-0.5,1.8v0.1c1.1,0.5,1.7,1,1.7,1.7c0,0.2,0,0.3-0.1,0.5c-0.1,0.3-0.3,0.4-0.6,0.4
	s-0.7-0.3-1.2-0.9c-0.2-0.2-0.4-0.4-0.6-0.5c-0.6,0.7-1.4,1.2-2.4,1.5c2,0.3,3,0.6,3,0.8c0,0.1-0.1,0.3-0.4,0.4
	c-0.4,0.2-0.7,0.3-0.7,0.4v0.3h4.8c0.6-0.8,1.1-1.3,1.4-1.4c0,0,0.1,0,0.2,0C149.1,12.2,149.3,12.3,149.5,12.4z M135.8,3.4
	c-1,1.3-2.2,2.2-3.5,2.9c-0.1-0.1-0.2-0.2-0.4-0.2c1.4-1.4,2.5-3.2,3.1-5.5c1.8,0.6,2.7,0.9,2.7,1.1c0,0.3-0.4,0.4-1,0.5
	c-0.1,0.2-0.3,0.4-0.4,0.6h2.7c0.5-0.8,0.9-1.2,1.1-1.3h0.1c0.2,0.1,0.4,0.3,0.8,0.6c0.5,0.5,0.8,0.8,0.9,1c0,0.2-0.1,0.3-0.1,0.3
	h-4.6c1,0.3,1.6,0.9,1.6,1.6c0,0.6-0.3,0.9-0.9,0.9c-0.4,0-0.6-0.2-0.7-0.7c0-0.1-0.1-0.3-0.1-0.6c0-0.2-0.1-0.4-0.1-0.6
	c-0.1-0.3-0.3-0.5-0.4-0.7L135.8,3.4L135.8,3.4z M135.1,7.3c-0.9,0-1.6,0.1-2,0.2c-0.1-0.3-0.2-0.5-0.3-0.8c0.4,0.1,1.2,0.1,2.3,0.1
	h2.9c0.3-0.4,0.5-0.7,0.8-1c0.1-0.1,0.2-0.1,0.2-0.1c0.1,0,0.2,0.1,0.4,0.2c0.7,0.6,1.1,1,1.2,1.2c0,0.2-0.1,0.3-0.1,0.3h-3v2.7
	c1.1-0.1,2.1-0.2,2.9-0.4l0.1,0.1c-1.6,0.8-3.8,1.6-6.7,2.1c0,0.4-0.1,0.5-0.2,0.5c-0.1,0-0.2-0.2-0.4-0.5s-0.4-0.9-0.7-1.6
	c1.2,0,2.3-0.1,3.3-0.2V7.3H135.1z"/>
<path class="st0" d="M170.3,1.2c0.9,0.8,1.3,1.2,1.3,1.4s-0.1,0.3-0.2,0.3h-7.9v2.2h3.3c0.6-0.8,1-1.2,1.2-1.2s0.6,0.3,1.2,0.7
	c0.5,0.4,0.8,0.7,0.8,0.9c0,0.1-0.1,0.3-0.3,0.4c-0.3,0.3-0.5,0.4-0.6,0.5v3.5c0.1,1.4,0.1,2.2,0.1,2.6c0,0.5-0.4,0.8-1.2,0.8
	c-0.6,0-0.9-0.1-0.9-0.4V12h-3.8c-0.3,1.8-0.7,3.2-1.3,4.1c2.3,0.8,4.9,1.2,8,1.2c0.9,0,1.7,0,2.2,0v0.4c-0.2,0.1-0.4,0.2-0.6,0.4
	c-0.2,0.2-0.3,0.4-0.4,0.7c-0.1,0.4-0.4,0.6-0.6,0.7c-3.9,0-7.1-0.7-9.5-2c-1.4,1.6-4,2.4-8,2.4c0-0.1,0-0.2,0-0.3
	c3-0.7,5.1-1.6,6.3-2.9c0.1-0.1,0.1-0.1,0.2-0.2c-0.9-0.7-1.9-1.7-2.8-2.8l0.2-0.2c0.9,0.8,2,1.5,3.2,2.1c0.5-0.8,0.8-2,1-3.4h-3.4
	v0.1c-0.1,0.5-0.5,0.7-1.2,0.7c-0.5,0-0.7-0.1-0.8-0.2c0-1.3,0-2.6,0.1-3.9V6.4c0-1.1-0.1-1.7-0.2-1.9l2,0.8h3.9V3.1h-3.3
	c-2.4,0-3.9,0.1-4.5,0.3c-0.1-0.4-0.3-0.7-0.5-1.1c1,0.1,2.7,0.2,5.1,0.2h9.8c0.6-0.8,1.1-1.3,1.4-1.4c0.1,0,0.1,0,0.2,0
	C169.9,0.9,170.1,1,170.3,1.2z M161.5,7.8V5.6h-3.7v2.5h3.7C161.5,8.1,161.5,8,161.5,7.8z M161.5,8.7h-3.7v2.8h3.5
	C161.4,10.7,161.5,9.8,161.5,8.7z M167.1,8.7h-3.6c0,1-0.1,2-0.2,2.8h3.8V8.7z M167.1,5.7h-3.6v2.5h3.6V5.7z"/>
<path class="st0" d="M191.7,2.2c0.6,0.6,0.9,1,0.9,1.3c0,0.2-0.3,0.3-0.9,0.3c0,0-0.2,0-0.5,0c-0.8,0.7-1.8,1.5-3.1,2.4
	c0.2,0,0.4,0.1,0.5,0.1c0.1,0.1,0.1,0.1,0.1,0.3c0,0.1-0.1,0.2-0.3,0.3c-0.2,0.1-0.3,0.1-0.3,0.2v2.7h1.6c0.6-0.9,1-1.4,1.3-1.6h0.1
	c0.2,0.1,0.5,0.3,1,0.7c0.6,0.6,1,1,1,1.2c0,0.2-0.1,0.3-0.1,0.3h-4.9v7.2c-0.1,1.3-0.9,2-2.4,2.2c-0.2,0-0.3-0.2-0.4-0.5
	c-0.1-0.4-0.5-0.8-1.1-1.1c-0.4-0.2-0.8-0.3-1.3-0.4c0-0.1,0-0.3,0.1-0.4c0.7,0.1,1.4,0.2,2.2,0.2c0.6,0,0.9-0.2,0.9-0.7v-6.5h-4.6
	c-0.3,1.4-0.7,2.6-1.2,3.7c1.1,0.7,1.7,1.4,1.7,2.2c0,0.5-0.1,0.8-0.3,0.9c-0.1,0.2-0.3,0.2-0.5,0.2c-0.5,0-1-0.5-1.6-1.6
	c-0.1-0.1-0.1-0.2-0.2-0.2c-1.3,2-2.9,3.3-4.9,4.1c0,0-0.1-0.1-0.2-0.3c1.6-1.2,2.9-2.9,4-5v-0.1c-0.5-0.5-1.1-0.9-1.7-1.3
	c-0.1,0.2-0.1,0.4-0.2,0.5c-0.1,0.3-0.4,0.5-1,0.5c-0.6,0-0.9-0.1-0.9-0.5c1-2.7,1.8-5.2,2.3-7.5c-0.9,0-1.7,0.1-2.2,0.2
	c-0.1-0.3-0.2-0.6-0.4-1c0.5,0.1,1.4,0.2,2.5,0.2h0.2c0.3-1.6,0.5-3,0.6-4.4c1.9,0.4,2.8,0.7,2.8,0.8c0,0.1-0.1,0.2-0.3,0.3
	c-0.4,0.1-0.7,0.2-0.8,0.3c-0.2,1.1-0.4,2.1-0.7,3h1.4c0.6-0.6,1-1,1.2-1c0.2,0,0.6,0.3,1.2,0.8c0.5,0.5,0.8,0.8,0.8,0.9
	c0,0.2-0.1,0.3-0.3,0.3c-0.3,0.1-0.5,0.2-0.8,0.3c-0.1,1-0.3,2-0.5,2.9h4.5V9.2c0-1.7,0-2.9-0.1-3.6c0.4,0.1,0.9,0.1,1.3,0.2
	c0.8-1,1.6-2,2.1-2.9h-5.1C183,3,182.3,3,182,3.2c-0.2-0.5-0.4-0.8-0.5-1.1c0.7,0.2,1.5,0.3,2.5,0.3h5.2c0.8-0.7,1.3-1,1.5-1
	C190.9,1.5,191.2,1.7,191.7,2.2z M178.8,13.2c0.8-2,1.2-4.4,1.4-7.2h-1.7c-0.6,2.8-1.2,4.9-1.7,6.5C177.6,12.7,178.2,13,178.8,13.2z
	"/>
<path class="st0" d="M198.2,5.1h0.4c0.4-1.3,0.6-2.8,0.7-4.3c1.7,0.5,2.6,0.9,2.6,1c0,0.3-0.4,0.4-1,0.4c-0.4,1-0.9,1.9-1.6,2.8h1.7
	c0.6-0.7,1-1,1.2-1s0.5,0.2,0.9,0.5c0.6,0.4,0.9,0.7,0.9,0.9c0,0.1-0.1,0.3-0.3,0.4c-0.3,0.3-0.5,0.4-0.5,0.5v7c0,2.4,0.1,4,0.1,4.8
	c0,0.4-0.5,0.7-1.4,0.7c-0.4,0-0.5-0.1-0.5-0.4v-1.2h-3.1v1.6c-0.1,0.4-0.5,0.6-1.1,0.6c-0.4,0-0.7-0.1-0.8-0.2c0-2.4,0-4.7,0.1-6.9
	V7.8c0-1.9-0.1-3.1-0.1-3.4L198.2,5.1z M201.3,10.7v-5h-3.1v5H201.3z M201.3,16.6v-5.4h-3.1v5.4H201.3z M209,1.8
	c0,0.2-0.4,0.4-1,0.4c-0.3,1-0.6,1.9-0.9,2.7h3.9c0.6-0.7,1-1.1,1.2-1.1c0.3,0.1,0.7,0.3,1.2,0.7c0.5,0.5,0.8,0.8,0.8,0.9
	c0,0.2-0.2,0.3-0.5,0.4s-0.4,0.3-0.5,0.4c-0.3,5.8-0.7,9.5-1.1,11.2c-0.4,1.5-1.3,2.3-2.7,2.5c-0.2,0-0.4-0.2-0.5-0.6
	c-0.2-0.6-0.5-1-0.9-1.2c-0.7-0.3-1.3-0.6-1.9-0.8c0-0.1,0-0.3,0-0.5c0.6,0.1,1.7,0.2,3.1,0.3c0.8-0.1,1.2-0.4,1.2-1
	c0.4-0.6,0.7-4.2,1.1-10.7H207c-1,2.1-2.1,3.8-3.3,4.9c-0.1-0.1-0.1-0.2-0.1-0.2c1.3-2.3,2.3-5.4,2.8-9.3C208,1.2,209,1.5,209,1.8z
	 M209.2,12.3c0,0.6-0.1,1-0.3,1.3c-0.2,0.3-0.5,0.4-0.9,0.4s-0.6-0.4-0.7-1.3c-0.3-1.6-0.8-2.8-1.3-3.7l0.3-0.2
	C208.2,10.1,209.2,11.2,209.2,12.3z"/>
<path class="st0" d="M218.8,2.9h2.7c0.5-0.7,0.9-1.1,1.1-1.1c0.2,0,0.5,0.2,1.1,0.6c0.5,0.4,0.8,0.7,0.8,0.8c0,0.1-0.1,0.3-0.3,0.4
	c-0.3,0.3-0.5,0.4-0.5,0.5V10c0.1,2.3,0.1,3.8,0.1,4.4c0,0.5-0.4,0.7-1.1,0.7c-0.5,0-0.8-0.1-0.9-0.4v-1.3h-2.7v1.7
	c-0.1,0.4-0.5,0.6-1.2,0.6c-0.4,0-0.7-0.1-0.8-0.2c0-2.1,0-4.2,0.1-6.2V5.2c0-1.7-0.1-2.8-0.1-3.1L218.8,2.9z M221.8,7.8V3.4h-2.7
	v4.4H221.8z M221.8,13V8.4h-2.7V13H221.8z M227,14.5c-0.3,0.9-0.8,1.8-1.8,2.7c-1.2,1.3-2.5,2.1-3.7,2.5c-0.1,0-0.2-0.1-0.3-0.2
	c1.4-1,2.6-2.2,3.4-3.8c0.8-1.2,1.2-3.2,1.2-6.1c0-3.3,0-5.3,0-6.1c0-0.7,0-1.4-0.1-2.3l2.2,1h3.7c0.4-0.6,0.8-1,1-1.2
	c0.2,0,0.5,0.2,1.1,0.5c0.6,0.4,0.9,0.7,0.9,0.9c0,0.1-0.1,0.3-0.4,0.4c-0.3,0.2-0.4,0.3-0.5,0.4v13.4c0,1.4-0.8,2.2-2.3,2.5
	c-0.2,0-0.4-0.1-0.4-0.4c-0.2-0.5-0.7-1-1.2-1.2c-0.8-0.3-1.4-0.5-1.7-0.6c0,0,0-0.1,0-0.4c0.8,0.1,1.9,0.1,3.3,0.1
	c0.3,0,0.5-0.2,0.5-0.5v-4h-4.4C227.4,13.2,227.2,13.9,227,14.5z M227.7,9.6c0,0.8,0,1.6-0.1,2.2h4.3V7.4h-4.2V9.6z M227.7,6.9h4.2
	V2.8h-4.2V6.9z"/>
<path class="st0" d="M252.6,2.2c0.6,0.5,0.9,0.8,0.9,0.9c0,0.1-0.1,0.3-0.3,0.4c-0.3,0.3-0.5,0.4-0.5,0.5v8.7c0,3,0.1,5,0.1,6
	c0,0.5-0.5,0.7-1.5,0.7c-0.4,0-0.6-0.2-0.6-0.5v-1.4h-8.5v1.4c-0.1,0.4-0.5,0.7-1.2,0.7c-0.5,0-0.7-0.1-0.8-0.2c0-2.7,0-5.4,0.1-8V6
	c0-2.2-0.1-3.6-0.2-4l1.8,0.7h8.4c0.7-0.8,1.1-1.1,1.3-1.1C251.8,1.7,252.2,1.9,252.6,2.2z M250.8,9.7V3.3h-8.5v6.4H250.8z
	 M250.8,17v-6.7h-8.5V17H250.8z"/>
</svg>
