<?xml version="1.0" encoding="utf-8"?>
<!-- Generator: Adobe Illustrator 25.2.3, SVG Export Plug-In . SVG Version: 6.00 Build 0)  -->
<svg version="1.1" id="圖層_1" xmlns="http://www.w3.org/2000/svg" xmlns:xlink="http://www.w3.org/1999/xlink" x="0px" y="0px"
	 viewBox="0 0 380 127" style="enable-background:new 0 0 380 127;" xml:space="preserve">
<style type="text/css">
	.st0{fill:#C9A063;}
	.st1{opacity:0.6;}
	.st2{fill:#FFFFFF;}
</style>
<path class="st0" d="M8.8,1.7v12.9h13v2h-13v15.9H3.9v-28C3.9,2.6,2.7,1,0,0.2V0h24.4v1.7H8.8z"/>
<path class="st0" d="M56.8,0v22c0,2-0.4,11.1-12.6,11.1c0,0-12.7,0.6-12.7-11.1V4.5c0-1.9-1.2-3.5-3.9-4.3V0h8.8v22
	c0,9.8,8.3,9.2,8.3,9.2c2.6,0,10.2-1,10.2-9.2V0H56.8z"/>
<path class="st0" d="M86.3,2H75.5v30.5h-4.9V2H59.9V0h26.4V2z"/>
<path class="st0" d="M118.7,0v22c0,2-0.4,11.1-12.6,11.1c0,0-12.7,0.6-12.7-11.1V4.5c0-1.9-1.2-3.5-3.9-4.3V0h8.8v22
	c0,9.8,8.3,9.2,8.3,9.2c2.6,0,10.2-1,10.2-9.2V0H118.7z"/>
<path class="st0" d="M150.1,32.5h-5.5l-10.3-14.6c-1.3,0-2.6,0-3.6,0v14.6h-4.9V4.6c0-2-1.5-4-3.9-4.3V0h8.8
	c5.1,0,15.4-0.1,15.4,9.1c0,5.2-3.2,7.4-6.7,8.3L150.1,32.5z M139.2,14.3c0.3-0.4,0.6-0.8,0.8-1.2c0.3-0.5,0.4-1.1,0.6-1.7
	c0.1-0.7,0.2-1.5,0.2-2.3c-0.2-7.1-5.7-7.5-6.7-7.5h-3.5v14.6h3.5c0.6,0,1.2,0,1.7-0.1c0.8-0.1,1.7-0.4,2.4-0.8
	C138.6,14.9,138.9,14.6,139.2,14.3z"/>
<path class="st0" d="M175.5,30.8v1.7H155v-28c0-1.9-1.2-3.5-3.9-4.3V0h24.4v1.7h-15.6v12.9h13v2h-13v14.2H175.5z"/>
<path class="st0" d="M8.4,47.3v32.5H3.9v-28c0-1.9-1.2-3.5-3.9-4.3v-0.2H8.4z"/>
<path class="st0" d="M34.4,71.4c0,3.4-2.5,9-10.2,9c-6.1,0-10-2.6-10.9-9.3h1.5c1,6.1,6,7.4,9,7.4c5.2,0,6.4-3.6,6.4-5.2
	c0-3.4-2.8-5.3-8.1-8c-3.4-1.7-9.1-4.6-9.1-10.1c0-7.1,7-8.5,9.5-8.5c6.2,0,8.8,3.3,9.7,7.9h-1.6c-0.7-2.4-2.4-6.1-8-6.1
	c-2.8,0-5.7,2.2-5.7,5c0,3.3,3.9,5.4,8,7.5C32.6,64.8,34.4,67.6,34.4,71.4z"/>
<path class="st0" d="M34,126.8v0.2h-6.3c-1.4-0.1-2.6-1.2-2.6-2.7v-13H8.8V127H3.9V99c0-1.9-1.2-3.5-3-4H0.8L0,94.7v-0.2h6.2
	c0.8,0,1.4,0.3,1.9,0.8c0.4,0.5,0.8,1.2,0.8,1.9v12.5h16.3V94.5H30v28c0,1.9,1.2,3.5,3.1,4.1h0.1L34,126.8z"/>
<path class="st0" d="M59.4,125.3v1.7H39V99c0-1.9-1.2-3.5-3.9-4.3v-0.2h24.4v1.7H43.9v12.9h13v2h-13v14.2H59.4z"/>
<path class="st0" d="M90.8,127h-5.5L75,112.3c-1.3,0-2.6,0-3.6,0V127h-4.9V99.1c0-2-1.5-4-3.9-4.3v-0.2h8.8c5.1,0,15.4-0.1,15.4,9.1
	c0,5.2-3.2,7.4-6.7,8.3L90.8,127z M80,108.8c0.3-0.4,0.6-0.8,0.8-1.2c0.3-0.5,0.4-1.1,0.6-1.7c0.1-0.7,0.2-1.5,0.2-2.3
	c-0.2-7.1-5.7-7.5-6.7-7.5h-3.5v14.6h3.5c0.6,0,1.2,0,1.7-0.1c0.8-0.1,1.7-0.4,2.4-0.8C79.3,109.4,79.7,109.2,80,108.8z"/>
<path class="st0" d="M116.3,125.3v1.7H95.8V99c0-1.9-1.2-3.5-3.9-4.3v-0.2h24.4v1.7h-15.6v12.9h13v2h-13v14.2H116.3z"/>
<g class="st1">
	<path class="st2" d="M65.5,55.9c0,0.5-0.2,0.9-0.7,1.2c-0.4,0.2-0.8,0.3-1.4,0.3c-0.1,0-0.4,0-0.9,0v-5.2h0.9
		c0.5,0,0.9,0.1,1.2,0.2c0.4,0.2,0.6,0.5,0.6,0.9c0,0.3-0.1,0.5-0.3,0.8c-0.2,0.2-0.4,0.4-0.7,0.5c0.4,0.1,0.7,0.2,0.9,0.4
		C65.3,55.2,65.5,55.5,65.5,55.9z M65,55.9c0-0.4-0.1-0.7-0.4-0.9c-0.2-0.2-0.5-0.3-0.9-0.3h-0.3v-0.2h0.2c0.4,0,0.6-0.1,0.8-0.4
		c0.1-0.2,0.2-0.5,0.2-0.7c0-0.7-0.5-1.1-1.4-1.1h-0.3v4.9h0.3C64.4,57.2,65,56.8,65,55.9z"/>
	<path class="st2" d="M69.7,55.3h-2v-0.2h1.5c0-0.6-0.3-0.9-0.8-0.9c-0.3,0-0.6,0.1-0.8,0.4c-0.2,0.3-0.3,0.6-0.3,1.1
		s0.1,0.8,0.3,1.1c0.2,0.3,0.5,0.4,0.8,0.4c0.4,0,0.7-0.2,1-0.5l0.2,0.2c-0.3,0.3-0.7,0.5-1.1,0.5c-0.5,0-0.8-0.2-1.2-0.5
		c-0.3-0.3-0.5-0.7-0.5-1.2s0.2-0.9,0.5-1.2c0.3-0.3,0.7-0.5,1.1-0.5c0.3,0,0.6,0.1,0.9,0.4C69.6,54.7,69.7,55,69.7,55.3z"/>
	<path class="st2" d="M73.4,55.2v2.1h-0.5V57c-0.2,0.2-0.5,0.3-0.8,0.3c-0.3,0-0.6-0.1-0.8-0.3c-0.2-0.2-0.4-0.4-0.4-0.8
		c0-0.3,0.1-0.6,0.4-0.8c0.2-0.2,0.5-0.3,0.7-0.3c0.1,0,0.2,0,0.2,0c0.2,0,0.3,0.1,0.4,0.1l-0.1,0.2c-0.2-0.1-0.3-0.2-0.5-0.2
		s-0.4,0.1-0.5,0.2c-0.1,0.2-0.2,0.4-0.2,0.7s0.1,0.5,0.2,0.6c0.1,0.2,0.3,0.2,0.5,0.2c0.3,0,0.6-0.2,0.8-0.5v-1.5
		c0-0.7-0.2-1-0.7-1c-0.3,0-0.5,0.1-0.8,0.3L71.2,54c0.2-0.2,0.5-0.2,0.9-0.2C73,54,73.4,54.4,73.4,55.2z"/>
	<path class="st2" d="M77.6,57.3h-0.5v-0.6c-0.2,0.4-0.6,0.6-1,0.6c-0.8,0-1.2-0.4-1.2-1.2v-2.2h0.5v2.2c0,0.7,0.2,1,0.7,1
		c0.3,0,0.5-0.2,0.7-0.5c0.1-0.2,0.2-0.4,0.2-0.6v-2.1h0.5L77.6,57.3L77.6,57.3z"/>
	<path class="st2" d="M80.4,54.2h-0.6v2c0,0.3,0,0.6,0.1,0.7c0.1,0.1,0.2,0.2,0.5,0.2v0.2c-0.7,0-1.1-0.4-1.1-1.1v-2H79V54h0.3v-0.4
		h0.5V54h0.6V54.2z"/>
	<path class="st2" d="M84.6,54.1l-1.8,4.5h-0.2l0.5-1.3l-1.4-3.2h0.5l1.1,2.6l1-2.6H84.6z"/>
	<path class="st2" d="M88.3,57.3h-0.5v-5h0.5V57.3z"/>
	<path class="st2" d="M90.5,52.7c0,0.1,0,0.2-0.1,0.2S90.3,53,90.2,53c-0.1,0-0.2,0-0.2-0.1c0-0.1-0.1-0.1-0.1-0.2
		c0-0.1,0-0.2,0.1-0.2c0.1-0.1,0.1-0.1,0.2-0.1c0.1,0,0.2,0,0.2,0.1C90.5,52.5,90.5,52.6,90.5,52.7z M90.4,57.3H90v-3.2h0.5
		L90.4,57.3L90.4,57.3z"/>
	<path class="st2" d="M94.8,55.3h-2v-0.2h1.5c0-0.6-0.3-0.9-0.8-0.9c-0.3,0-0.6,0.1-0.8,0.4c-0.2,0.3-0.3,0.6-0.3,1.1
		s0.1,0.8,0.3,1.1c0.2,0.3,0.5,0.4,0.8,0.4c0.4,0,0.7-0.2,1-0.5l0.2,0.2c-0.3,0.3-0.7,0.5-1.1,0.5c-0.5,0-0.8-0.2-1.2-0.5
		c-0.3-0.3-0.5-0.7-0.5-1.2s0.2-0.9,0.5-1.2c0.3-0.3,0.7-0.5,1.1-0.5c0.3,0,0.6,0.1,0.9,0.4C94.7,54.7,94.8,55,94.8,55.3z"/>
	<path class="st2" d="M97.9,56.5c0,0.3-0.1,0.5-0.3,0.6c-0.2,0.2-0.4,0.2-0.7,0.2c-0.4,0-0.7-0.1-0.9-0.4l0.2-0.2
		c0.2,0.3,0.5,0.4,0.8,0.4c0.2,0,0.3-0.1,0.4-0.2c0.1-0.1,0.2-0.3,0.2-0.4c0-0.2-0.1-0.4-0.3-0.5c-0.1-0.1-0.3-0.2-0.6-0.4
		c-0.4-0.2-0.5-0.5-0.5-0.9c0-0.2,0.1-0.4,0.3-0.6c0.2-0.1,0.4-0.2,0.6-0.2c0.2,0,0.3,0,0.5,0.1c0.2,0.1,0.3,0.2,0.3,0.3l-0.2,0.2
		c-0.2-0.3-0.4-0.4-0.7-0.4s-0.5,0.1-0.6,0.4c0,0.2,0.1,0.4,0.3,0.6c0.4,0.2,0.6,0.4,0.7,0.5C97.8,55.9,98,56.2,97.9,56.5z"/>
	<path class="st2" d="M101.9,52.7c0,0.1,0,0.2-0.1,0.2c-0.1,0-0.1,0.1-0.2,0.1s-0.2,0-0.2-0.1c0-0.1-0.1-0.1-0.1-0.2
		c0-0.1,0-0.2,0.1-0.2c0.1-0.1,0.1-0.1,0.2-0.1s0.2,0,0.2,0.1C101.9,52.5,101.9,52.6,101.9,52.7z M101.8,57.3h-0.5v-3.2h0.5V57.3z"
		/>
	<path class="st2" d="M106,57.3h-0.5v-2.2c0-0.7-0.2-1-0.7-1s-0.8,0.3-1,0.9v2.3h-0.5v-3.2h0.5v0.4c0.3-0.4,0.6-0.5,1-0.5
		c0.4,0,0.7,0.1,0.8,0.2c0.2,0.2,0.3,0.5,0.3,0.9L106,57.3L106,57.3z"/>
	<path class="st2" d="M110.8,54.2h-0.6v2c0,0.3,0,0.6,0.1,0.7c0.1,0.1,0.2,0.2,0.5,0.2v0.2c-0.7,0-1.1-0.4-1.1-1.1v-2h-0.3V54h0.3
		v-0.4h0.5V54h0.6V54.2z"/>
	<path class="st2" d="M114.8,57.3h-0.5v-2.2c0-0.7-0.2-1-0.7-1s-0.8,0.3-1,0.9v2.3h-0.5v-5h0.5v2.2c0.3-0.4,0.6-0.5,1-0.5
		s0.7,0.1,0.8,0.2c0.2,0.2,0.3,0.5,0.3,0.9v2.2H114.8z"/>
	<path class="st2" d="M119.1,55.3h-2v-0.2h1.5c0-0.6-0.3-0.9-0.8-0.9c-0.3,0-0.6,0.1-0.8,0.4c-0.2,0.3-0.3,0.6-0.3,1.1
		s0.1,0.8,0.3,1.1s0.5,0.4,0.8,0.4c0.4,0,0.7-0.2,1-0.5l0.2,0.2c-0.3,0.3-0.7,0.5-1.1,0.5c-0.5,0-0.8-0.2-1.2-0.5
		c-0.3-0.3-0.5-0.7-0.5-1.2s0.2-0.9,0.5-1.2c0.3-0.3,0.7-0.5,1.1-0.5c0.3,0,0.6,0.1,0.9,0.4C119,54.7,119.1,55,119.1,55.3z"/>
	<path class="st2" d="M125.1,56.9c-0.3,0.3-0.7,0.4-1.1,0.4c-0.5,0-0.8-0.2-1.2-0.5c-0.3-0.3-0.5-0.7-0.5-1.2s0.2-0.9,0.5-1.2
		c0.3-0.3,0.7-0.5,1.2-0.5c0.4,0,0.7,0.1,1,0.3l-0.1,0.2c-0.2-0.2-0.5-0.4-0.9-0.4c-0.3,0-0.6,0.2-0.8,0.5c-0.2,0.3-0.3,0.6-0.3,1
		c0,0.4,0.1,0.8,0.3,1c0.2,0.3,0.5,0.5,0.8,0.5c0.4,0,0.7-0.2,1-0.5L125.1,56.9z"/>
	<path class="st2" d="M129.3,55.7c0,0.5-0.2,0.9-0.5,1.2c-0.3,0.3-0.7,0.5-1.2,0.5c-0.5,0-0.8-0.2-1.2-0.5c-0.3-0.3-0.5-0.7-0.5-1.2
		s0.2-0.9,0.5-1.2c0.3-0.3,0.7-0.5,1.2-0.5c0.5,0,0.8,0.2,1.2,0.5C129.2,54.9,129.3,55.2,129.3,55.7z M128.8,55.7
		c0-0.4-0.1-0.8-0.3-1.1c-0.2-0.3-0.5-0.4-0.8-0.4c-0.3,0-0.6,0.1-0.8,0.4c-0.2,0.3-0.3,0.6-0.3,1.1c0,0.4,0.1,0.8,0.3,1.1
		c0.2,0.3,0.5,0.4,0.8,0.4c0.3,0,0.6-0.1,0.8-0.4S128.8,56.1,128.8,55.7z"/>
	<path class="st2" d="M135.2,57.3h-0.5v-2.2c0-0.3,0-0.5-0.1-0.7c-0.1-0.1-0.2-0.2-0.5-0.2c-0.4,0-0.6,0.3-0.9,0.8v0.1v2.2h-0.5
		v-2.2c0-0.3,0-0.5-0.1-0.7c-0.1-0.2-0.3-0.2-0.5-0.2c-0.2,0-0.3,0.1-0.5,0.2c-0.2,0.2-0.3,0.4-0.4,0.6v2.3h-0.5v-3.2h0.5v0.4
		c0.3-0.3,0.6-0.5,0.9-0.5c0.5,0,0.8,0.2,1,0.5c0.3-0.4,0.6-0.5,1-0.5c0.7,0,1.1,0.4,1.1,1.1V57.3z"/>
	<path class="st2" d="M139.5,55.7c0,0.5-0.1,0.9-0.4,1.2c-0.3,0.3-0.6,0.5-1.1,0.5c-0.3,0-0.6-0.1-0.8-0.4v0.3h-0.5v-5h0.5v4.2
		c0.1,0.2,0.2,0.4,0.3,0.5c0.1,0.1,0.3,0.2,0.5,0.2c0.3,0,0.5-0.1,0.7-0.4s0.3-0.6,0.3-1.1c0-0.4-0.1-0.8-0.3-1.1s-0.4-0.4-0.7-0.4
		c-0.2,0-0.3,0.1-0.5,0.2l-0.1-0.2c0.2-0.1,0.4-0.1,0.6-0.1c0.4,0,0.8,0.2,1.1,0.5C139.4,54.9,139.5,55.2,139.5,55.7z"/>
	<path class="st2" d="M141.6,52.7c0,0.1,0,0.2-0.1,0.2s-0.1,0.1-0.2,0.1c-0.1,0-0.2,0-0.2-0.1c0-0.1-0.1-0.1-0.1-0.2
		c0-0.1,0-0.2,0.1-0.2c0.1-0.1,0.1-0.1,0.2-0.1c0.1,0,0.2,0,0.2,0.1C141.6,52.5,141.6,52.6,141.6,52.7z M141.5,57.3H141v-3.2h0.5
		V57.3z"/>
	<path class="st2" d="M145.7,57.3h-0.5v-2.2c0-0.7-0.2-1-0.7-1s-0.8,0.3-1,0.9v2.3H143v-3.2h0.5v0.4c0.3-0.4,0.6-0.5,1-0.5
		s0.7,0.1,0.8,0.2c0.2,0.2,0.3,0.5,0.3,0.9L145.7,57.3L145.7,57.3z"/>
	<path class="st2" d="M149.6,55.2v2.1h-0.5V57c-0.2,0.2-0.5,0.3-0.8,0.3s-0.6-0.1-0.8-0.3c-0.2-0.2-0.4-0.4-0.4-0.8
		c0-0.3,0.1-0.6,0.4-0.8c0.2-0.2,0.5-0.3,0.7-0.3c0.1,0,0.2,0,0.2,0c0.2,0,0.3,0.1,0.4,0.1l-0.1,0.2c-0.2-0.1-0.3-0.2-0.5-0.2
		s-0.4,0.1-0.5,0.2c-0.1,0.2-0.2,0.4-0.2,0.7s0.1,0.5,0.2,0.6c0.1,0.2,0.3,0.2,0.5,0.2c0.3,0,0.6-0.2,0.8-0.5v-1.5
		c0-0.7-0.2-1-0.7-1c-0.3,0-0.5,0.1-0.8,0.3l-0.1-0.2c0.2-0.2,0.5-0.2,0.9-0.2C149.2,54,149.6,54.4,149.6,55.2z"/>
	<path class="st2" d="M152.4,54.2h-0.6v2c0,0.3,0,0.6,0.1,0.7c0.1,0.1,0.2,0.2,0.5,0.2v0.2c-0.7,0-1.1-0.4-1.1-1.1v-2H151V54h0.3
		v-0.4h0.5V54h0.6V54.2z"/>
	<path class="st2" d="M154.4,52.7c0,0.1,0,0.2-0.1,0.2c-0.1,0-0.1,0.1-0.2,0.1c-0.1,0-0.2,0-0.2-0.1c0-0.1-0.1-0.1-0.1-0.2
		c0-0.1,0-0.2,0.1-0.2c0.1-0.1,0.1-0.1,0.2-0.1c0.1,0,0.2,0,0.2,0.1C154.4,52.5,154.4,52.6,154.4,52.7z M154.3,57.3h-0.5v-3.2h0.5
		V57.3z"/>
	<path class="st2" d="M159.1,55.7c0,0.5-0.2,0.9-0.5,1.2c-0.3,0.3-0.7,0.5-1.2,0.5s-0.8-0.2-1.2-0.5c-0.3-0.3-0.5-0.7-0.5-1.2
		s0.2-0.9,0.5-1.2s0.7-0.5,1.2-0.5s0.8,0.2,1.2,0.5C158.9,54.9,159.1,55.2,159.1,55.7z M158.6,55.7c0-0.4-0.1-0.8-0.3-1.1
		c-0.2-0.3-0.5-0.4-0.8-0.4s-0.6,0.1-0.8,0.4c-0.2,0.3-0.3,0.6-0.3,1.1c0,0.4,0.1,0.8,0.3,1.1s0.5,0.4,0.8,0.4s0.6-0.1,0.8-0.4
		S158.6,56.1,158.6,55.7z"/>
	<path class="st2" d="M163.2,57.3h-0.5v-2.2c0-0.7-0.2-1-0.7-1s-0.8,0.3-1,0.9v2.3h-0.5v-3.2h0.5v0.4c0.3-0.4,0.6-0.5,1-0.5
		s0.7,0.1,0.8,0.2c0.2,0.2,0.3,0.5,0.3,0.9L163.2,57.3L163.2,57.3z"/>
	<path class="st2" d="M169.9,55.7c0,0.5-0.2,0.9-0.5,1.2c-0.3,0.3-0.7,0.5-1.2,0.5s-0.8-0.2-1.2-0.5c-0.3-0.3-0.5-0.7-0.5-1.2
		s0.2-0.9,0.5-1.2s0.7-0.5,1.2-0.5s0.8,0.2,1.2,0.5C169.7,54.9,169.9,55.2,169.9,55.7z M169.4,55.7c0-0.4-0.1-0.8-0.3-1.1
		c-0.2-0.3-0.5-0.4-0.8-0.4s-0.6,0.1-0.8,0.4c-0.2,0.3-0.3,0.6-0.3,1.1c0,0.4,0.1,0.8,0.3,1.1s0.5,0.4,0.8,0.4s0.6-0.1,0.8-0.4
		C169.2,56.5,169.4,56.1,169.4,55.7z"/>
	<path class="st2" d="M172.6,54.2H172v3.1h-0.5v-3.1h-0.3V54h0.3v-0.7c0-0.7,0.4-1,1.1-1v0.2c-0.2,0-0.4,0.1-0.5,0.2
		c-0.1,0.1-0.1,0.4-0.1,0.7v0.7L172.6,54.2L172.6,54.2z"/>
	<path class="st2" d="M65,66.3h-0.5v-2.2c0-0.7-0.2-1-0.7-1c-0.5,0-0.8,0.3-1,0.9v2.3h-0.5v-3.2h0.5v0.4c0.3-0.4,0.6-0.5,1-0.5
		s0.7,0.1,0.8,0.2c0.2,0.2,0.3,0.5,0.3,0.9L65,66.3L65,66.3z"/>
	<path class="st2" d="M68.9,64.2v2.1h-0.5V66c-0.2,0.2-0.5,0.3-0.8,0.3c-0.3,0-0.6-0.1-0.8-0.3c-0.2-0.2-0.4-0.4-0.4-0.8
		c0-0.3,0.1-0.6,0.4-0.8c0.2-0.2,0.5-0.3,0.7-0.3c0.1,0,0.2,0,0.2,0c0.2,0,0.3,0.1,0.4,0.1L68,64.4c-0.2-0.1-0.3-0.2-0.5-0.2
		s-0.4,0.1-0.5,0.2c0,0.5,0,0.7,0,1s0.1,0.5,0.2,0.6c0.1,0.2,0.3,0.2,0.5,0.2c0.3,0,0.6-0.2,0.8-0.5v-1.5c0-0.7-0.2-1-0.7-1
		c-0.3,0-0.5,0.1-0.8,0.3l-0.1-0.2c0.2-0.2,0.5-0.2,0.9-0.2C68.5,63,68.9,63.4,68.9,64.2z"/>
	<path class="st2" d="M71.7,63.2h-0.6v2c0,0.3,0,0.6,0.1,0.7c0.1,0.1,0.2,0.2,0.5,0.2v0.2c-0.7,0-1.1-0.4-1.1-1.1v-2h-0.3V63h0.3
		v-0.4h0.5V63h0.6V63.2z"/>
	<path class="st2" d="M75.7,66.3h-0.5v-0.6c-0.2,0.4-0.6,0.6-1,0.6c-0.8,0-1.2-0.4-1.2-1.2v-2.2h0.5v2.2c0,0.7,0.2,1,0.7,1
		c0.3,0,0.5-0.2,0.7-0.5c0.1-0.2,0.2-0.4,0.2-0.6v-2.1h0.5L75.7,66.3L75.7,66.3z"/>
	<path class="st2" d="M78.8,63.2l-0.1,0.2c-0.1-0.1-0.3-0.1-0.4-0.1c-0.1,0-0.1,0-0.2,0.1c-0.2,0.1-0.3,0.4-0.3,0.9v2.1h-0.5v-3.2
		h0.5v0.4c0.1-0.1,0.1-0.2,0.2-0.3s0.2-0.1,0.4-0.1C78.5,63,78.7,63.1,78.8,63.2z"/>
	<path class="st2" d="M82.4,64.2v2.1h-0.5V66c-0.2,0.2-0.5,0.3-0.8,0.3c-0.3,0-0.6-0.1-0.8-0.3c-0.2-0.2-0.4-0.4-0.4-0.8
		c0-0.3,0.1-0.6,0.4-0.8c0.2-0.2,0.5-0.3,0.7-0.3c0.1,0,0.2,0,0.2,0c0.2,0,0.3,0.1,0.4,0.1l-0.1,0.2c-0.2-0.1-0.3-0.2-0.5-0.2
		s-0.4,0.1-0.5,0.2c-0.1,0.2-0.2,0.4-0.2,0.7c0,0.3,0.1,0.5,0.2,0.6c0.1,0.2,0.3,0.2,0.5,0.2c0.3,0,0.6-0.2,0.8-0.5v-1.5
		c0-0.7-0.2-1-0.7-1c-0.3,0-0.5,0.1-0.8,0.3L80.2,63c0.2-0.2,0.5-0.2,0.9-0.2C82,63,82.4,63.4,82.4,64.2z"/>
	<path class="st2" d="M84.4,66.3h-0.5v-5h0.5V66.3z"/>
	<path class="st2" d="M88.3,66.3h-0.5v-5h0.5V66.3z"/>
	<path class="st2" d="M92.2,64.2v2.1h-0.5V66c-0.2,0.2-0.5,0.3-0.8,0.3c-0.3,0-0.6-0.1-0.8-0.3c-0.2-0.2-0.4-0.4-0.4-0.8
		c0-0.3,0.1-0.6,0.4-0.8c0.2-0.2,0.5-0.3,0.7-0.3c0.1,0,0.2,0,0.2,0c0.2,0,0.3,0.1,0.4,0.1l-0.1,0.2c-0.2-0.1-0.3-0.2-0.5-0.2
		c-0.2,0-0.4,0.1-0.5,0.2c-0.1,0.2-0.2,0.4-0.2,0.7c0,0.3,0.1,0.5,0.2,0.6c0.1,0.2,0.3,0.2,0.5,0.2c0.3,0,0.6-0.2,0.8-0.5v-1.5
		c0-0.7-0.2-1-0.7-1c-0.3,0-0.5,0.1-0.8,0.3L90,63c0.2-0.2,0.5-0.2,0.9-0.2C91.8,63,92.2,63.4,92.2,64.2z"/>
	<path class="st2" d="M96.4,66.3h-0.5v-2.2c0-0.7-0.2-1-0.7-1s-0.8,0.3-1,0.9v2.3h-0.5v-3.2h0.5v0.4c0.3-0.4,0.6-0.5,1-0.5
		c0.4,0,0.7,0.1,0.8,0.2c0.2,0.2,0.3,0.5,0.3,0.9L96.4,66.3L96.4,66.3z"/>
	<path class="st2" d="M100.6,66.3h-0.5V66c-0.2,0.2-0.5,0.4-0.8,0.4c-0.4,0-0.8-0.2-1.1-0.5c-0.3-0.3-0.4-0.7-0.4-1.2
		s0.1-0.9,0.4-1.2c0.3-0.3,0.6-0.5,1.1-0.5c0.2,0,0.4,0,0.6,0.1l-0.1,0.2c-0.1-0.1-0.3-0.2-0.5-0.2c-0.2,0-0.5,0.1-0.6,0.4
		c-0.2,0.3-0.3,0.7-0.3,1.1c0,0.4,0.1,0.8,0.3,1.1c0.2,0.3,0.4,0.4,0.7,0.4c0.2,0,0.3-0.1,0.5-0.2c0.1-0.1,0.2-0.3,0.3-0.5v-4.2h0.5
		L100.6,66.3L100.6,66.3z"/>
	<path class="st2" d="M103.9,65.5c0,0.3-0.1,0.5-0.3,0.6c-0.2,0.2-0.4,0.2-0.7,0.2c-0.4,0-0.7-0.1-0.9-0.4l0.1-0.2
		c0.2,0.3,0.5,0.4,0.8,0.4c0.2,0,0.3-0.1,0.4-0.2c0.1-0.1,0.2-0.3,0.2-0.4c0-0.2-0.1-0.4-0.3-0.5c-0.1-0.1-0.3-0.2-0.6-0.4
		c-0.4-0.2-0.5-0.5-0.5-0.9c0-0.2,0.1-0.4,0.3-0.6c0.2-0.1,0.4-0.2,0.6-0.2c0.1,0,0.3,0,0.5,0.1c0.2,0.1,0.3,0.2,0.3,0.3l-0.2,0.2
		c-0.2-0.3-0.4-0.4-0.7-0.4c-0.3,0-0.5,0.1-0.5,0.4c0,0.2,0.1,0.4,0.3,0.6c0.4,0.2,0.6,0.4,0.7,0.5C103.8,64.9,104,65.2,103.9,65.5z
		"/>
	<path class="st2" d="M108.1,65.9c-0.3,0.3-0.7,0.4-1.1,0.4c-0.5,0-0.8-0.2-1.2-0.5c-0.3-0.3-0.5-0.7-0.5-1.2s0.2-0.9,0.5-1.2
		c0.3-0.3,0.7-0.5,1.2-0.5c0.4,0,0.7,0.1,1,0.3l-0.1,0.2c-0.2-0.2-0.5-0.4-0.9-0.4c-0.3,0-0.6,0.2-0.8,0.5c-0.2,0.3-0.3,0.6-0.3,1
		c0,0.4,0.1,0.8,0.3,1c0.2,0.3,0.5,0.5,0.8,0.5c0.4,0,0.7-0.2,1-0.5L108.1,65.9z"/>
	<path class="st2" d="M111.6,64.2v2.1h-0.5V66c-0.2,0.2-0.5,0.3-0.8,0.3c-0.3,0-0.6-0.1-0.8-0.3c-0.2-0.2-0.4-0.4-0.4-0.8
		c0-0.3,0.1-0.6,0.4-0.8c0.2-0.2,0.5-0.3,0.7-0.3c0.1,0,0.2,0,0.2,0c0.2,0,0.3,0.1,0.4,0.1l-0.1,0.2c-0.2-0.1-0.3-0.2-0.5-0.2
		c-0.2,0-0.4,0.1-0.5,0.2c-0.1,0.2-0.2,0.4-0.2,0.7c0,0.3,0.1,0.5,0.2,0.6c0.1,0.2,0.3,0.2,0.5,0.2c0.3,0,0.6-0.2,0.8-0.5v-1.5
		c0-0.7-0.2-1-0.7-1c-0.3,0-0.5,0.1-0.8,0.3l-0.1-0.2c0.2-0.2,0.5-0.2,0.9-0.2C111.2,63,111.6,63.4,111.6,64.2z"/>
	<path class="st2" d="M115.9,64.7c0,0.5-0.1,0.8-0.4,1.2c-0.3,0.3-0.6,0.5-1,0.5c-0.2,0-0.4,0-0.6-0.1l0.1-0.2
		c0.1,0.1,0.3,0.2,0.5,0.2s0.5-0.1,0.6-0.4c0.2-0.3,0.3-0.6,0.3-1.1c0-0.4-0.1-0.8-0.3-1.1c-0.2-0.3-0.4-0.4-0.7-0.4
		c-0.2,0-0.3,0.1-0.5,0.2c-0.2,0.1-0.2,0.3-0.3,0.5v3.6h-0.5v-4.4h0.5v0.3c0.2-0.2,0.5-0.4,0.8-0.4c0.4,0,0.8,0.2,1,0.5
		C115.7,63.9,115.9,64.3,115.9,64.7z"/>
	<path class="st2" d="M120.1,64.3h-2v-0.2h1.5c0-0.6-0.3-0.9-0.8-0.9c-0.3,0-0.6,0.1-0.8,0.4c-0.2,0.3-0.3,0.6-0.3,1.1
		s0.1,0.8,0.3,1.1c0.2,0.3,0.5,0.4,0.8,0.4c0.4,0,0.7-0.2,1-0.5l0.2,0.2c-0.3,0.3-0.7,0.5-1.1,0.5c-0.5,0-0.8-0.2-1.2-0.5
		c-0.3-0.3-0.5-0.7-0.5-1.2s0.2-0.9,0.5-1.2c0.3-0.3,0.7-0.5,1.1-0.5c0.3,0,0.6,0.1,0.9,0.4C120,63.7,120.1,64,120.1,64.3z"/>
	<path class="st2" d="M64.8,73.2v2.1h-0.5V75c-0.2,0.2-0.5,0.3-0.8,0.3s-0.6-0.1-0.8-0.3s-0.4-0.4-0.4-0.8c0-0.3,0.1-0.6,0.4-0.8
		c0.2-0.2,0.5-0.3,0.7-0.3c0.1,0,0.2,0,0.2,0c0.2,0,0.3,0.1,0.4,0.1v0.4c-0.2-0.1-0.3-0.2-0.5-0.2s-0.4,0.1-0.5,0.2
		c-0.1,0.2-0.2,0.4-0.2,0.7c0,0.3,0.1,0.5,0.2,0.6c0.1,0.2,0.3,0.2,0.5,0.2c0.3,0,0.6-0.2,0.8-0.5v-1.5c0-0.7-0.2-1-0.7-1
		c-0.3,0-0.5,0.1-0.8,0.3l-0.1-0.2c0.2-0.2,0.5-0.2,0.9-0.2C64.4,72,64.8,72.4,64.8,73.2z"/>
	<path class="st2" d="M69,75.3h-0.5v-2.2c0-0.7-0.2-1-0.7-1s-0.8,0.3-1,0.9v2.3h-0.5v-3.2h0.5v0.4c0.3-0.4,0.6-0.5,1-0.5
		c0.4,0,0.7,0.1,0.8,0.2c0.2,0.2,0.3,0.5,0.3,0.9L69,75.3L69,75.3z"/>
	<path class="st2" d="M73.3,75.3h-0.5V75c-0.2,0.2-0.5,0.4-0.8,0.4c-0.4,0-0.8-0.2-1.1-0.5c-0.3-0.3-0.4-0.7-0.4-1.2
		s0.1-0.9,0.4-1.2c0.3-0.3,0.6-0.5,1.1-0.5c0.2,0,0.4,0,0.6,0.1l-0.1,0.2c-0.1-0.1-0.3-0.2-0.5-0.2s-0.5,0.1-0.6,0.4
		c-0.2,0.3-0.3,0.7-0.3,1.1c0,0.4,0.1,0.8,0.3,1.1c0.2,0.3,0.4,0.4,0.7,0.4c0.2,0,0.3-0.1,0.5-0.2c0.1-0.1,0.2-0.3,0.3-0.5v-4.2h0.5
		L73.3,75.3L73.3,75.3z"/>
	<path class="st2" d="M79.1,73.2v2.1h-0.5V75c-0.2,0.2-0.5,0.3-0.8,0.3c-0.3,0-0.6-0.1-0.8-0.3c-0.2-0.2-0.4-0.4-0.4-0.8
		c0-0.3,0.1-0.6,0.4-0.8c0.2-0.2,0.5-0.3,0.7-0.3c0.1,0,0.2,0,0.2,0c0.2,0,0.3,0.1,0.4,0.1l-0.1,0.2c-0.2-0.1-0.3-0.2-0.5-0.2
		c-0.2,0-0.4,0.1-0.5,0.2c-0.1,0.2-0.2,0.4-0.2,0.7c0,0.3,0.1,0.5,0.2,0.6c0.1,0.2,0.3,0.2,0.5,0.2c0.3,0,0.6-0.2,0.8-0.5v-1.5
		c0-0.7-0.2-1-0.7-1c-0.3,0-0.5,0.1-0.8,0.3v0.1c0.2-0.2,0.5-0.2,0.9-0.2C78.7,72,79.1,72.4,79.1,73.2z"/>
	<path class="st2" d="M82.1,72.2L82,72.4c-0.1-0.1-0.3-0.1-0.4-0.1s-0.1,0-0.2,0.1c-0.2,0.1-0.3,0.4-0.3,0.9v2.1h-0.5v-3.2h0.5v0.4
		c0.1-0.1,0.1-0.2,0.2-0.3c0.1-0.1,0.2-0.1,0.4-0.1C81.9,72,82,72.1,82.1,72.2z"/>
	<path class="st2" d="M84.9,72.2h-0.6v2c0,0.3,0,0.6,0.1,0.7s0.2,0.2,0.5,0.2v0.2c-0.7,0-1.1-0.4-1.1-1.1v-2h-0.3V72h0.3v-0.4h0.5
		V72h0.6V72.2z"/>
	<path class="st2" d="M86.8,70.7c0,0.1,0,0.2-0.1,0.2c-0.1,0-0.1,0.1-0.2,0.1s-0.2,0-0.2-0.1s-0.1-0.1-0.1-0.2s0-0.2,0.1-0.2
		c0.1-0.1,0.1-0.1,0.2-0.1s0.2,0,0.2,0.1C86.8,70.5,86.8,70.6,86.8,70.7z M86.7,75.3h-0.5v-3.2h0.5V75.3z"/>
	<path class="st2" d="M90,74.5c0,0.3-0.1,0.5-0.3,0.6c-0.2,0.2-0.4,0.2-0.7,0.2c-0.4,0-0.7-0.1-0.9-0.4l0.1-0.2
		c0.2,0.3,0.5,0.4,0.8,0.4c0.2,0,0.3-0.1,0.4-0.2s0.2-0.3,0.2-0.4c0-0.2-0.1-0.4-0.3-0.5c-0.1-0.1-0.3-0.2-0.6-0.4
		c-0.4-0.2-0.5-0.5-0.5-0.9c0-0.2,0.1-0.4,0.3-0.6c0.2-0.1,0.4-0.2,0.6-0.2c0.2,0,0.3,0,0.5,0.1c0.2,0.1,0.3,0.2,0.3,0.3l-0.2,0.2
		c-0.2-0.3-0.4-0.4-0.7-0.4s-0.5,0.1-0.5,0.4c0,0.2,0.1,0.4,0.3,0.6c0.4,0.2,0.6,0.4,0.7,0.5C89.9,73.9,90.1,74.2,90,74.5z"/>
	<path class="st2" d="M92.8,72.2h-0.6v2c0,0.3,0,0.6,0.1,0.7c0.1,0.1,0.2,0.2,0.5,0.2v0.2c-0.7,0-1.1-0.4-1.1-1.1v-2h-0.3V72h0.3
		v-0.4h0.5V72h0.6V72.2z"/>
	<path class="st2" d="M94.7,70.7c0,0.1,0,0.2-0.1,0.2S94.5,71,94.4,71s-0.2,0-0.2-0.1s-0.1-0.1-0.1-0.2s0-0.2,0.1-0.2
		c0.1-0.1,0.1-0.1,0.2-0.1s0.2,0,0.2,0.1C94.7,70.5,94.7,70.6,94.7,70.7z M94.7,75.3h-0.5v-3.2h0.5V75.3z"/>
	<path class="st2" d="M98.9,74.9c-0.3,0.3-0.7,0.4-1.1,0.4c-0.5,0-0.8-0.2-1.2-0.5c-0.3-0.3-0.5-0.7-0.5-1.2s0.2-0.9,0.5-1.2
		c0.3-0.3,0.7-0.5,1.2-0.5c0.4,0,0.7,0.1,1,0.3l-0.1,0.2c-0.2-0.2-0.5-0.4-0.9-0.4c-0.3,0-0.6,0.2-0.8,0.5c-0.2,0.3-0.3,0.6-0.3,1
		c0,0.4,0.1,0.8,0.3,1c0.2,0.3,0.5,0.5,0.8,0.5c0.4,0,0.7-0.2,1-0.5L98.9,74.9z"/>
	<path class="st2" d="M104.6,73.3h-2v-0.2h1.5c0-0.6-0.3-0.9-0.8-0.9c-0.3,0-0.6,0.1-0.8,0.4c-0.2,0.3-0.3,0.6-0.3,1.1
		s0.1,0.8,0.3,1.1c0.2,0.3,0.5,0.4,0.8,0.4c0.4,0,0.7-0.2,1-0.5l0.2,0.2c-0.3,0.3-0.7,0.5-1.1,0.5c-0.5,0-0.8-0.2-1.2-0.5
		c-0.3-0.3-0.5-0.7-0.5-1.2s0.2-0.9,0.5-1.2c0.3-0.3,0.7-0.5,1.1-0.5c0.3,0,0.6,0.1,0.9,0.4C104.5,72.7,104.6,73,104.6,73.3z"/>
	<path class="st2" d="M108.8,75.3h-0.6l-1-1.5l-1.2,1.5h-0.2l1.3-1.6l-1.1-1.6h0.6l0.9,1.2l1-1.2h0.2l-1.1,1.4L108.8,75.3z"/>
	<path class="st2" d="M112.7,73.7c0,0.5-0.1,0.8-0.4,1.2c-0.3,0.3-0.6,0.5-1,0.5c-0.2,0-0.4,0-0.6-0.1l0.1-0.2
		c0.1,0.1,0.3,0.2,0.5,0.2c0.2,0,0.5-0.1,0.6-0.4c0.2-0.3,0.3-0.6,0.3-1.1c0-0.4-0.1-0.8-0.3-1.1c-0.2-0.3-0.4-0.4-0.7-0.4
		c-0.2,0-0.3,0.1-0.5,0.2c-0.1,0.1-0.2,0.3-0.3,0.5v3.6H110v-4.4h0.5v0.3c0.2-0.2,0.5-0.4,0.8-0.4c0.4,0,0.8,0.2,1,0.5
		C112.6,72.9,112.7,73.3,112.7,73.7z"/>
	<path class="st2" d="M115.7,72.2l-0.1,0.2c-0.1-0.1-0.3-0.1-0.4-0.1c-0.1,0-0.1,0-0.2,0.1c-0.2,0.1-0.3,0.4-0.3,0.9v2.1h-0.5v-3.2
		h0.5v0.4c0.1-0.1,0.1-0.2,0.2-0.3s0.2-0.1,0.4-0.1C115.5,72,115.6,72.1,115.7,72.2z"/>
	<path class="st2" d="M119.6,73.3h-2v-0.2h1.5c0-0.6-0.3-0.9-0.8-0.9c-0.3,0-0.6,0.1-0.8,0.4c-0.2,0.3-0.3,0.6-0.3,1.1
		s0.1,0.8,0.3,1.1c0.2,0.3,0.5,0.4,0.8,0.4c0.4,0,0.7-0.2,1-0.5l0.2,0.2c-0.3,0.3-0.7,0.5-1.1,0.5c-0.5,0-0.8-0.2-1.2-0.5
		c-0.3-0.3-0.5-0.7-0.5-1.2s0.2-0.9,0.5-1.2c0.3-0.3,0.7-0.5,1.1-0.5c0.3,0,0.6,0.1,0.9,0.4C119.5,72.7,119.6,73,119.6,73.3z"/>
	<path class="st2" d="M122.8,74.5c0,0.3-0.1,0.5-0.3,0.6c-0.2,0.2-0.4,0.2-0.7,0.2c-0.4,0-0.7-0.1-0.9-0.4l0.1-0.2
		c0.2,0.3,0.5,0.4,0.8,0.4c0.2,0,0.3-0.1,0.4-0.2c0.1-0.1,0.2-0.3,0.2-0.4c0-0.2-0.1-0.4-0.3-0.5c-0.1-0.1-0.3-0.2-0.6-0.4
		c-0.4-0.2-0.5-0.5-0.5-0.9c0-0.2,0.1-0.4,0.3-0.6c0.2-0.1,0.4-0.2,0.6-0.2c0.2,0,0.3,0,0.5,0.1c0.2,0.1,0.3,0.2,0.3,0.3l-0.2,0.2
		c-0.2-0.3-0.4-0.4-0.7-0.4c-0.3,0-0.5,0.1-0.6,0.4c0,0.2,0.1,0.4,0.3,0.6c0.4,0.2,0.6,0.4,0.7,0.5
		C122.6,73.9,122.8,74.2,122.8,74.5z"/>
	<path class="st2" d="M126,74.5c0,0.3-0.1,0.5-0.3,0.6c-0.2,0.2-0.4,0.2-0.7,0.2c-0.4,0-0.7-0.1-0.9-0.4l0.1-0.2
		c0.2,0.3,0.5,0.4,0.8,0.4c0.2,0,0.3-0.1,0.4-0.2s0.2-0.3,0.2-0.4c0-0.2-0.1-0.4-0.3-0.5c-0.1-0.1-0.3-0.2-0.6-0.4
		c-0.4-0.2-0.5-0.5-0.5-0.9c0-0.2,0.1-0.4,0.3-0.6c0.2-0.1,0.4-0.2,0.6-0.2c0.2,0,0.3,0,0.5,0.1c0.2,0.1,0.3,0.2,0.3,0.3l-0.2,0.2
		c-0.2-0.3-0.4-0.4-0.7-0.4s-0.5,0.1-0.6,0.4c0,0.2,0.1,0.4,0.3,0.6c0.4,0.2,0.6,0.4,0.7,0.5C125.9,73.9,126,74.2,126,74.5z"/>
	<path class="st2" d="M128,70.7c0,0.1,0,0.2-0.1,0.2s-0.1,0.1-0.2,0.1c-0.1,0-0.2,0-0.2-0.1s-0.1-0.1-0.1-0.2s0-0.2,0.1-0.2
		c0.1-0.1,0.1-0.1,0.2-0.1c0.1,0,0.2,0,0.2,0.1C128,70.5,128,70.6,128,70.7z M127.9,75.3h-0.5v-3.2h0.5V75.3z"/>
	<path class="st2" d="M132.7,73.7c0,0.5-0.2,0.9-0.5,1.2c-0.3,0.3-0.7,0.5-1.2,0.5s-0.8-0.2-1.2-0.5c-0.3-0.3-0.5-0.7-0.5-1.2
		s0.2-0.9,0.5-1.2s0.7-0.5,1.2-0.5s0.8,0.2,1.2,0.5C132.6,72.9,132.7,73.2,132.7,73.7z M132.2,73.7c0-0.4-0.1-0.8-0.3-1.1
		c-0.2-0.3-0.5-0.4-0.8-0.4c-0.3,0-0.6,0.1-0.8,0.4c-0.2,0.3-0.3,0.6-0.3,1.1c0,0.4,0.1,0.8,0.3,1.1c0.2,0.3,0.5,0.4,0.8,0.4
		c0.3,0,0.6-0.1,0.8-0.4C132.1,74.5,132.2,74.1,132.2,73.7z"/>
	<path class="st2" d="M136.8,75.3h-0.5v-2.2c0-0.7-0.2-1-0.7-1s-0.8,0.3-1,0.9v2.3h-0.5v-3.2h0.5v0.4c0.3-0.4,0.6-0.5,1-0.5
		c0.4,0,0.7,0.1,0.8,0.2c0.2,0.2,0.3,0.5,0.3,0.9v2.2H136.8z"/>
	<path class="st2" d="M139,75.1c0,0.1,0,0.2-0.1,0.2c-0.1,0-0.1,0.1-0.2,0.1c-0.1,0-0.2,0-0.2-0.1s-0.1-0.1-0.1-0.2
		c0-0.1,0-0.2,0.1-0.2s0.1-0.1,0.2-0.1c0.1,0,0.2,0,0.2,0.1S139,75,139,75.1z"/>
</g>
</svg>
