<svg width="107" height="93" viewBox="0 0 107 93" fill="none" xmlns="http://www.w3.org/2000/svg">
<path d="M6.21027 75.4102V76.0302H3.98022V77.3002H6.95026V77.9502H0.280273V77.3002H3.25024V76.0302H1.04022V75.4102H6.21027ZM3.27026 73.3802C3.00026 73.8402 2.69027 74.2002 2.34027 74.4402C1.98027 74.6902 1.44021 74.9002 0.720215 75.0802L0.35022 74.4302C1.10022 74.2902 1.62027 74.1202 1.90027 73.9302C2.17027 73.7802 2.44026 73.4802 2.70026 73.0402L3.26025 73.3802H3.27026ZM4.04022 72.1702H6.72021V73.6702H6.05023V72.7902H4.72021V73.9202C4.72021 74.0902 4.81024 74.1802 5.00024 74.1802H6.87024V74.7702H4.84027C4.58027 74.7702 4.38023 74.7202 4.24023 74.6202C4.09023 74.5302 4.02026 74.3702 4.02026 74.1502V72.7902H1.20026V73.6702H0.520264V72.1702H3.33026C3.24026 71.9602 3.13027 71.7602 3.03027 71.5802L3.76025 71.4702C3.86025 71.6802 3.96023 71.9102 4.05023 72.1702H4.04022Z" fill="#3E3A39"/>
<path d="M10.9603 74.3599H8.84027V78.09H8.19025V71.6699H10.9603V74.3499V74.3599ZM10.3102 72.72V72.2399H8.84027V72.72H10.3102ZM10.3102 73.7999V73.2599H8.84027V73.7999H10.3102ZM12.7402 74.7V77.4399H9.77026V74.7H12.7402ZM12.0903 75.77V75.2599H10.4202V75.77H12.0903ZM12.0903 76.3099H10.4202V76.8799H12.0903V76.3099ZM14.3502 71.6799V77.39C14.3502 77.64 14.2803 77.83 14.1403 77.95C14.0203 78.06 13.8103 78.1199 13.5303 78.1199H12.9902L12.8502 77.45L13.3903 77.4799C13.5703 77.4799 13.6602 77.3699 13.6702 77.1699V74.3699H11.4902V71.6899H14.3403L14.3502 71.6799ZM13.6802 72.7499V72.2399H12.1802V72.7499H13.6802ZM13.6802 73.2599H12.1802V73.7999H13.6802V73.2599Z" fill="#3E3A39"/>
<path d="M17.3702 72.2702H18.3903V72.8602H15.6503V72.2702H16.7103C16.6103 72.0102 16.5002 71.7602 16.3802 71.5302L17.0602 71.4502C17.1702 71.7002 17.2702 71.9602 17.3602 72.2702H17.3702ZM18.1102 77.5502H16.5303V78.0602H15.8802V75.4602H18.1102V77.5502ZM18.1102 73.3402V73.9002H15.9102V73.3402H18.1102ZM18.1102 74.3902V74.9502H15.9102V74.3902H18.1102ZM17.4603 76.9602V76.0602H16.5303V76.9602H17.4603ZM21.3702 73.3102C21.3702 73.4802 21.4502 73.5702 21.6202 73.5702H22.1802V74.2102H21.4702C21.2002 74.2102 20.9902 74.1502 20.8602 74.0402C20.7202 73.9302 20.6602 73.7402 20.6602 73.4502V72.2302H19.5602C19.5402 72.7102 19.4902 73.0602 19.4202 73.2602C19.3302 73.5502 19.1102 73.8802 18.7402 74.2602L18.2302 73.8102C18.5302 73.4802 18.7102 73.2202 18.7902 73.0202C18.8502 72.8502 18.8802 72.3802 18.8802 71.6302H21.3702V73.2902V73.3102ZM21.6503 74.3902V74.8702C21.4703 75.6102 21.1703 76.2402 20.7603 76.7602C21.1603 77.0202 21.6702 77.2402 22.2902 77.4202L21.8702 78.0402C21.1902 77.7902 20.6502 77.5402 20.2502 77.2702C19.8402 77.5902 19.3002 77.8602 18.6202 78.1002L18.2202 77.5102C18.8302 77.3202 19.3203 77.0902 19.7003 76.8302C19.2803 76.4302 18.9402 75.9702 18.6702 75.4402L19.2603 75.1002C19.5203 75.6102 19.8402 76.0302 20.2302 76.3702C20.5402 75.9902 20.7702 75.5302 20.9302 74.9902H18.4902V74.4002H21.6302L21.6503 74.3902Z" fill="#3E3A39"/>
<path d="M25.2302 72.2702H26.4202V72.8602H23.3102V72.2702H24.5703C24.4403 72.0102 24.3003 71.7602 24.1403 71.5302L24.8203 71.4502C24.9603 71.7002 25.1002 71.9602 25.2402 72.2702H25.2302ZM26.1602 73.3702V73.9302H23.5602V73.3702H26.1602ZM26.1602 74.3902V74.9502H23.5602V74.3902H26.1602ZM24.2402 78.0602H23.6002V75.4602H26.1102V77.9502H25.4603V77.5502H24.2402V78.0602ZM25.4603 76.0502H24.2402V76.9502H25.4603V76.0502ZM27.9202 73.5102V71.4502H28.6302V73.5102H30.0103V74.1602H28.6302V78.0902H27.9202V74.1602H26.5402V73.5102H27.9202Z" fill="#3E3A39"/>
<path d="M32.9802 71.5399C32.9202 71.7599 32.8302 71.9699 32.7302 72.1599H33.6602V74.4199H31.8203V75.15H33.7902V77.9199H33.1403V77.4999H31.8203V77.95H31.1702V72.1599H32.0203C32.1303 71.9399 32.2103 71.7 32.2703 71.46L32.9802 71.5399ZM33.0103 73.83V72.7499H31.8203V73.83H33.0103ZM33.1503 76.9V75.7399H31.8303V76.9H33.1503ZM37.5903 71.7599V72.4H36.1102V73.1699H37.3802V76.8699C37.3802 77.0599 37.3302 77.21 37.2402 77.34C37.1402 77.46 37.0003 77.5099 36.8203 77.5099H36.4202L36.2502 76.84L36.6202 76.8699C36.7102 76.8699 36.7603 76.7999 36.7603 76.6699V73.7899H36.1102V78.09H35.4402V73.7899H34.7902V77.5399H34.1702V73.1599H35.4402V72.39H33.9102V71.7499H37.5803L37.5903 71.7599Z" fill="#3E3A39"/>
<path d="M2.31024 81.9802C2.08024 82.0202 1.72021 82.0702 1.22021 82.1202V82.4902H2.23022V82.9702H1.22021V83.3402H2.23022V83.8502H1.22021V84.2802H5.31024V83.8502H4.35022V83.3402H5.31024V83.0002H4.35022V82.5202H5.31024V82.1202H4.30023V81.5602H5.90027L5.87024 84.2702H6.15027V85.6802H5.57025V84.8302H1.00024V85.6802H0.410217V84.2702H0.660217V81.6402C1.12022 81.6102 1.60023 81.5502 2.11023 81.4402L2.31024 81.9802ZM5.16022 85.2302V85.7402C4.72022 85.9602 4.22023 86.1702 3.67023 86.3602H6.09027V86.9202H3.63025V87.5402C3.63025 87.6902 3.58026 87.8002 3.52026 87.8802C3.42026 87.9902 3.31024 88.0502 3.18024 88.0502H2.21027L2.11023 87.4902C2.34023 87.5002 2.58027 87.5202 2.84027 87.5202C2.96027 87.5202 3.02026 87.4702 3.02026 87.3802V86.9202H0.510254V86.3602H3.02026V86.1102C3.38026 86.0202 3.77025 85.9002 4.19025 85.7402H1.47021V85.2302H5.16022ZM4.17023 81.7002C4.03023 81.8602 3.90026 82.0002 3.77026 82.1002C3.87026 82.2002 3.98026 82.2902 4.08026 82.3702L3.75024 82.7402C3.65024 82.6202 3.53027 82.5002 3.40027 82.3902C3.18027 82.5302 2.92023 82.6702 2.61023 82.8002L2.36023 82.3402C2.58023 82.2802 2.80026 82.1802 3.02026 82.0602C2.88026 81.9502 2.73025 81.8402 2.57025 81.7202L2.88025 81.4102C3.08025 81.5402 3.26024 81.6702 3.43024 81.8002C3.57024 81.7002 3.70026 81.5802 3.83026 81.4402L4.21027 81.7002H4.17023ZM4.25024 83.0202C4.08024 83.2202 3.92027 83.3802 3.78027 83.5002C3.91027 83.6202 4.03027 83.7302 4.15027 83.8302L3.82025 84.2002C3.70025 84.0602 3.55027 83.9302 3.40027 83.7802C3.19027 83.9202 2.95024 84.0502 2.68024 84.1702L2.43024 83.7202C2.63024 83.6602 2.83025 83.5702 3.01025 83.4602C2.88025 83.3602 2.74022 83.2602 2.60022 83.1602L2.91022 82.8502C3.09022 82.9702 3.25027 83.0902 3.40027 83.2002C3.56027 83.0802 3.72024 82.9302 3.87024 82.7602L4.25024 83.0102V83.0202Z" fill="#3E3A39"/>
<path d="M12.7003 82.1801H7.80023V84.6401C7.80023 85.1501 7.77026 85.6701 7.70026 86.2201C7.62026 86.8001 7.50025 87.36 7.32025 87.91L6.81024 87.4001C6.97024 86.9601 7.08027 86.5001 7.15027 86.0101C7.20027 85.5201 7.22021 85.0601 7.22021 84.6301V81.5801H12.7103V82.17L12.7003 82.1801ZM10.6102 85.7101V86.17H12.3403V86.7101H10.6102V87.2701H12.7502V87.86H7.82025V87.2701H8.63025V86.0301H9.19025V87.2701H10.0502V85.7101H10.6102ZM10.2302 82.86C10.0002 82.93 9.75021 82.9801 9.47021 83.0101V83.48H10.1302V83.9901H9.47021V84.0101C9.73021 84.1801 9.99025 84.3801 10.2603 84.5801L9.98022 85.0601C9.78022 84.8601 9.61021 84.7101 9.47021 84.5901V85.7401H8.96027V84.67C8.73027 85 8.48025 85.2801 8.19025 85.5201L7.91022 85.04C8.34022 84.75 8.68024 84.4001 8.93024 84.0001H8.01025V83.4901H8.95026V83.0701C8.70026 83.0801 8.44022 83.0901 8.16022 83.0901L8.01025 82.5801C8.78025 82.5801 9.43021 82.5201 9.97021 82.3801L10.2202 82.86H10.2302ZM12.5103 82.86C12.2403 82.95 11.9303 83.01 11.5703 83.05V83.48H12.6403V83.9901H11.5703V84.0601C11.9303 84.3501 12.3102 84.6601 12.6902 85.0101L12.3802 85.5201C12.0602 85.1601 11.7803 84.88 11.5703 84.67V85.7501H11.0602V84.61C10.8402 84.97 10.5903 85.2801 10.3203 85.5201L10.0402 85.04C10.4302 84.75 10.7402 84.4001 10.9802 84.0001H10.3203V83.4901H11.0602V83.1C10.8402 83.11 10.6203 83.1201 10.4003 83.1201L10.2502 82.61C11.0302 82.61 11.7002 82.5401 12.2502 82.3801L12.5002 82.86H12.5103Z" fill="#3E3A39"/>
<path d="M15.8903 83.7203V82.8403H16.6802V83.7203H15.8903ZM15.8903 86.3503V85.4703H16.6802V86.3503H15.8903Z" fill="#3E3A39"/>
<path d="M22.8203 82.7701V81.3901H23.4802V82.7701H25.7703V86.1901H23.4802V88.0302H22.8203V86.1901H20.5602V82.7701H22.8203ZM22.8203 83.4201H21.2202V85.5401H22.8203V83.4201ZM25.1002 83.4201H23.4702V85.5401H25.1002V83.4201Z" fill="#3E3A39"/>
<path d="M32.6702 82.3002H30.5103C30.4603 82.5202 30.3902 82.7302 30.3102 82.9202H32.1902V85.7102H30.6202V87.3202C30.6202 87.5702 30.5703 87.7402 30.4603 87.8402C30.3603 87.9402 30.1902 88.0002 29.9302 88.0002H29.2902L29.1602 87.3202C29.3902 87.3602 29.5902 87.3802 29.7502 87.3802C29.9202 87.3802 30.0002 87.3202 30.0002 87.2102V85.7102H28.3203V82.9202H29.6503C29.7303 82.7202 29.8102 82.5202 29.8602 82.3002H27.8403V84.5302C27.8403 85.0602 27.7903 85.6102 27.7103 86.1902C27.6103 86.7902 27.4302 87.3802 27.1802 87.9502L26.6503 87.4402C26.8803 86.9802 27.0302 86.4902 27.1202 85.9802C27.1902 85.4602 27.2302 84.9702 27.2302 84.5302V81.6802H32.6602V82.3002H32.6702ZM29.3002 86.2002C29.0202 86.7902 28.7003 87.3002 28.3303 87.7302L27.8203 87.3302C28.1803 86.9302 28.5202 86.4702 28.8102 85.9402L29.2902 86.2002H29.3002ZM31.6102 84.0202V83.4802H28.9202V84.0202H31.6102ZM31.6102 84.5602H28.9202V85.1502H31.6102V84.5602ZM32.6802 87.3302L32.1302 87.7502C31.8802 87.3102 31.5503 86.8002 31.1403 86.2302L31.6002 85.9202C32.0702 86.4702 32.4302 86.9402 32.6902 87.3302H32.6802Z" fill="#3E3A39"/>
<path d="M35.6102 83.25C35.6502 82.86 35.6702 82.43 35.6702 81.96V81.48H36.3303V81.96C36.3303 82.42 36.3003 82.86 36.2603 83.25H38.9402V83.96H36.9802C37.1202 84.7 37.3302 85.3 37.6002 85.76C37.9602 86.37 38.4402 86.87 39.0402 87.26L38.6602 87.97C37.9402 87.42 37.4002 86.81 37.0502 86.13C36.7102 85.54 36.4703 84.81 36.3303 83.95H36.1602C36.0702 84.44 35.9403 84.88 35.7803 85.27C35.4303 86.15 34.7603 87.03 33.7603 87.94L33.2003 87.4C34.1303 86.68 34.7902 85.89 35.1602 85.05C35.3002 84.75 35.4202 84.38 35.5002 83.95H33.3203V83.24H35.6002L35.6102 83.25Z" fill="#3E3A39"/>
<path d="M41.7202 81.9802C41.4902 82.0202 41.1302 82.0702 40.6302 82.1202V82.4902H41.6403V82.9702H40.6302V83.3402H41.6403V83.8502H40.6302V84.2802H44.7202V83.8502H43.7603V83.3402H44.7202V83.0002H43.7603V82.5202H44.7202V82.1202H43.7103V81.5602H45.3102L45.2803 84.2702H45.5602V85.6802H44.9702V84.8302H40.4003V85.6802H39.8102V84.2702H40.0602V81.6402C40.5202 81.6102 41.0003 81.5502 41.5103 81.4402L41.7103 81.9802H41.7202ZM44.5703 85.2302V85.7402C44.1303 85.9602 43.6303 86.1702 43.0803 86.3602H45.5002V86.9202H43.0402V87.5402C43.0402 87.6902 42.9902 87.8002 42.9302 87.8802C42.8302 87.9902 42.7203 88.0502 42.5903 88.0502H41.6202L41.5203 87.4902C41.7503 87.5002 41.9902 87.5202 42.2502 87.5202C42.3702 87.5202 42.4302 87.4702 42.4302 87.3802V86.9202H39.9202V86.3602H42.4302V86.1102C42.7902 86.0202 43.1802 85.9002 43.6002 85.7402H40.8802V85.2302H44.5703ZM43.5803 81.7002C43.4403 81.8602 43.3102 82.0002 43.1802 82.1002C43.2802 82.2002 43.3902 82.2902 43.4902 82.3702L43.1602 82.7402C43.0602 82.6202 42.9402 82.5002 42.8102 82.3902C42.5902 82.5302 42.3303 82.6702 42.0203 82.8002L41.7703 82.3402C41.9903 82.2802 42.2102 82.1802 42.4302 82.0602C42.2902 81.9502 42.1402 81.8402 41.9702 81.7202L42.2803 81.4102C42.4803 81.5402 42.6603 81.6702 42.8303 81.8002C42.9703 81.7002 43.1002 81.5802 43.2302 81.4402L43.6102 81.7002H43.5803ZM43.6602 83.0202C43.4902 83.2202 43.3402 83.3802 43.1902 83.5002C43.3202 83.6202 43.4402 83.7302 43.5602 83.8302L43.2402 84.2002C43.1202 84.0602 42.9703 83.9302 42.8203 83.7802C42.6103 83.9202 42.3702 84.0502 42.1002 84.1702L41.8502 83.7202C42.0502 83.6602 42.2502 83.5702 42.4402 83.4602C42.3102 83.3602 42.1703 83.2602 42.0303 83.1602L42.3403 82.8502C42.5203 82.9702 42.6803 83.0902 42.8303 83.2002C42.9903 83.0802 43.1502 82.9302 43.3002 82.7602L43.6802 83.0102L43.6602 83.0202Z" fill="#3E3A39"/>
<path d="M51.3702 83.2001V83.7901H50.6403C51.1103 84.2701 51.5003 84.7401 51.8303 85.2001L51.4202 85.6501C51.3002 85.4601 51.1703 85.2701 51.0303 85.0901C50.6003 85.1501 50.0803 85.2001 49.4603 85.2401V85.9101H51.8002V86.5302H49.4603V87.1701H52.0803V87.7601H46.2902V87.1701H48.8602V86.5302H46.6002V85.9101H48.8602V85.2701C48.2402 85.3101 47.5403 85.3401 46.7703 85.3601L46.6202 84.7202C46.9202 84.7202 47.2102 84.7202 47.4902 84.7202C47.7602 84.4302 47.9902 84.1301 48.1702 83.7901H47.0502V83.2001H51.3702ZM49.5903 82.0401H52.0903V83.5201H51.4802V82.6701H46.9402V83.5201H46.3303V82.0401H48.9402C48.8702 81.8501 48.7903 81.6801 48.7103 81.5001L49.3702 81.3901C49.4502 81.5901 49.5203 81.8002 49.5903 82.0302V82.0401ZM50.1802 84.1101L50.4702 83.8001H48.8303C48.6903 84.1001 48.5103 84.4001 48.2603 84.7101C49.2003 84.7001 49.9902 84.6501 50.6102 84.5801C50.4702 84.4301 50.3302 84.2701 50.1702 84.1101H50.1802Z" fill="#3E3A39"/>
<path d="M58.2003 87.2403C58.2003 87.4903 58.1403 87.6703 58.0303 87.8003C57.9303 87.9203 57.7902 87.9703 57.6102 87.9703H56.5203L56.4003 87.2603L57.3602 87.3203C57.5002 87.3103 57.5703 87.2003 57.5703 87.0103V86.0603L57.1902 86.5603C56.8202 86.1703 56.5202 85.7903 56.2902 85.4303C56.0702 85.0803 55.8802 84.6803 55.7202 84.2303C55.6202 84.5103 55.5103 84.7603 55.3903 84.9803C55.0903 85.5403 54.6603 86.1203 54.0803 86.6803L53.8303 86.2103V88.0103H53.2003V82.8403H55.4102V82.1303H54.0103V81.5703H56.0402V82.8403H58.2003V87.2403ZM54.9102 84.5303C55.0702 84.2303 55.2202 83.8603 55.3502 83.4303H53.8403V85.9303C54.3403 85.4203 54.7002 84.9603 54.9202 84.5303H54.9102ZM56.5703 84.6503C56.7803 85.0603 57.1202 85.4703 57.5602 85.8603V83.4403H56.0502C56.1902 83.9003 56.3603 84.3103 56.5703 84.6603V84.6503Z" fill="#3E3A39"/>
<path d="M60.7703 82.2101H61.6902V82.8001H59.2302V82.2101H60.1902C60.1002 81.9501 60.0003 81.7002 59.9003 81.4702L60.5103 81.3901C60.6103 81.6401 60.7003 81.9001 60.7803 82.2101H60.7703ZM61.4302 87.4901H60.0103V88.0001H59.4202V85.4001H61.4202V87.4901H61.4302ZM61.4302 83.2802V83.8401H59.4503V83.2802H61.4302ZM61.4302 84.3301V84.8901H59.4503V84.3301H61.4302ZM60.8403 86.9001V86.0001H60.0103V86.9001H60.8403ZM64.3502 83.2601C64.3502 83.4301 64.4203 83.5201 64.5803 83.5201H65.0903V84.1601H64.4503C64.2003 84.1601 64.0103 84.1001 63.9003 83.9901C63.7803 83.8801 63.7202 83.6901 63.7202 83.4001V82.1801H62.7302C62.7102 82.6601 62.6602 83.0101 62.6002 83.2101C62.5202 83.5001 62.3202 83.8301 61.9902 84.2101L61.5303 83.7601C61.8003 83.4301 61.9702 83.1702 62.0402 82.9702C62.0902 82.8002 62.1202 82.3301 62.1202 81.5801H64.3602V83.2401L64.3502 83.2601ZM64.6002 84.3401V84.8201C64.4402 85.5601 64.1702 86.1901 63.8002 86.7101C64.1602 86.9701 64.6202 87.1901 65.1802 87.3701L64.8002 87.9901C64.1902 87.7401 63.7003 87.4902 63.3403 87.2202C62.9803 87.5402 62.4902 87.8101 61.8802 88.0501L61.5203 87.4601C62.0703 87.2701 62.5102 87.0402 62.8502 86.7802C62.4702 86.3802 62.1702 85.9201 61.9202 85.3901L62.4503 85.0501C62.6803 85.5601 62.9703 85.9801 63.3203 86.3201C63.6003 85.9401 63.8103 85.4801 63.9503 84.9401H61.7603V84.3501H64.5803L64.6002 84.3401Z" fill="#3E3A39"/>
<path d="M67.4503 82.2101H68.5203V82.8001H65.7202V82.2101H66.8502C66.7302 81.9501 66.6003 81.7002 66.4603 81.4702L67.0703 81.3901C67.2003 81.6401 67.3203 81.9001 67.4503 82.2101ZM68.2902 83.3101V83.8701H65.9603V83.3101H68.2902ZM68.2902 84.3301V84.8901H65.9603V84.3301H68.2902ZM66.5602 88.0001H65.9802V85.4001H68.2402V87.8901H67.6503V87.4901H66.5602V88.0001ZM67.6503 85.9901H66.5602V86.8901H67.6503V85.9901ZM69.8602 83.4501V81.3901H70.5002V83.4501H71.7402V84.1001H70.5002V88.0302H69.8602V84.1001H68.6202V83.4501H69.8602Z" fill="#3E3A39"/>
<path d="M74.3403 86.19C73.9003 86.78 73.3502 87.3 72.6902 87.77L72.2803 87.18C72.8803 86.8 73.4202 86.33 73.9102 85.77L74.3502 86.2L74.3403 86.19ZM77.9003 82.06C77.1103 82.24 76.1602 82.37 75.0602 82.44C74.8902 82.76 74.6403 83.08 74.3203 83.43C74.8103 83.41 75.3003 83.38 75.7803 83.34C76.0303 83.09 76.2903 82.82 76.5303 82.54L77.1102 82.85C76.2802 83.75 75.4603 84.49 74.6503 85.07C75.5703 85.04 76.3402 84.99 76.9702 84.91C76.8302 84.64 76.6803 84.37 76.5303 84.09L76.9802 83.78C77.4502 84.52 77.8302 85.16 78.1002 85.7L77.5402 86.13C77.4502 85.91 77.3502 85.68 77.2302 85.44C76.7802 85.5 76.2402 85.56 75.6102 85.61V87.27C75.6102 87.54 75.5502 87.73 75.4302 87.83C75.3302 87.95 75.1303 88 74.8403 88H74.2502L74.1202 87.26C74.3302 87.3 74.5103 87.32 74.6503 87.32C74.8303 87.32 74.9302 87.26 74.9302 87.15V85.65C74.2602 85.69 73.5102 85.74 72.6702 85.77L72.5103 85.12C72.9203 85.12 73.3102 85.12 73.6802 85.12C74.1902 84.77 74.6702 84.37 75.1602 83.93C74.4702 84 73.7002 84.06 72.8702 84.12L72.7502 83.53C73.0002 83.53 73.2402 83.52 73.4802 83.5C73.8302 83.2 74.1202 82.86 74.3502 82.5C73.7802 82.53 73.1903 82.54 72.5703 82.54L72.3903 81.95C74.4303 81.95 76.1702 81.81 77.6002 81.52L77.8802 82.08L77.9003 82.06ZM78.1002 87.23L77.6503 87.74C77.2903 87.26 76.7702 86.75 76.1002 86.19L76.5402 85.73C77.1602 86.24 77.6802 86.74 78.1102 87.23H78.1002Z" fill="#3E3A39"/>
<path d="M81.0703 81.7002V82.3102H80.1102C80.0102 82.9202 79.8903 83.4302 79.7603 83.8402H80.9702V87.2602H79.8102V87.9102H79.2803V84.9902C79.1803 85.1802 79.0703 85.3802 78.9503 85.5702L78.6202 84.9502C78.9302 84.4002 79.1602 83.8902 79.2902 83.4302C79.3802 83.1402 79.4602 82.7602 79.5402 82.3202H78.8802V81.7102H81.0903L81.0703 81.7002ZM80.4302 86.6702V84.4402H79.8002V86.6702H80.4302ZM84.5703 81.7202V82.3102H83.9902V84.0402H84.7003V84.6602H83.9902V88.0202H83.4003V84.6602H82.5002C82.4702 85.2702 82.4002 85.8002 82.2902 86.2302C82.1502 86.8102 81.8702 87.3902 81.4702 88.0002L80.9902 87.5202C81.3402 87.0602 81.5902 86.5702 81.7402 86.0302C81.8402 85.7002 81.9002 85.2502 81.9202 84.6702H81.1503V84.0502H81.9402V82.3202H81.3002V81.7302H84.5803L84.5703 81.7202ZM83.4003 82.3102H82.5203V84.0402H83.4003V82.3102Z" fill="#3E3A39"/>
<path d="M87.8802 83.1101C87.6302 83.5301 87.3503 83.8601 87.0303 84.0901C86.7003 84.3101 86.2002 84.5101 85.5402 84.6701L85.2202 84.0501C85.9202 83.9201 86.4002 83.7701 86.6602 83.6001C86.9102 83.4601 87.1602 83.1901 87.4102 82.8001L87.8903 83.1101H87.8802ZM87.6202 85.1101C87.6202 85.1101 87.6202 85.0401 87.6202 85.0001V84.1201H88.2202V85.0001C88.2202 85.0001 88.2202 85.0801 88.2202 85.1101H89.8102L89.6802 86.8301C89.6802 87.0101 89.7002 87.1301 89.7402 87.1801C89.7902 87.2301 89.8503 87.2501 89.9003 87.2501H90.3602C90.3602 87.2501 90.4402 87.2301 90.4802 87.1801C90.5102 87.1501 90.5403 86.7601 90.5903 86.0101L91.1902 86.2101C91.1302 87.0501 91.0303 87.5301 90.9003 87.6601C90.7803 87.7801 90.6103 87.8401 90.4003 87.8401H89.6102C89.4702 87.8401 89.3402 87.7801 89.2302 87.6701C89.0902 87.5301 89.0303 87.3301 89.0303 87.0601L89.1102 85.7001H88.1403C88.0403 86.2101 87.8303 86.6302 87.5203 86.9702C87.1203 87.4302 86.4503 87.7802 85.5203 88.0302L85.2003 87.4401C86.1203 87.1901 86.7503 86.8902 87.0903 86.5302C87.3003 86.3002 87.4403 86.0201 87.5203 85.7101H85.7302V85.1201H87.6002L87.6202 85.1101ZM88.4402 82.0101H90.9003V83.4801H90.2603V82.6001H89.2502V83.6701C89.2502 83.8401 89.3202 83.9201 89.4802 83.9201H91.1002V84.5101H89.3403C89.1203 84.5101 88.9403 84.4701 88.8203 84.3701C88.6903 84.2801 88.6302 84.1201 88.6302 83.8901V82.6001H86.1102V83.4801H85.4802V82.0101H87.7703C87.6803 81.8301 87.5902 81.6601 87.4802 81.5001L88.1702 81.3901C88.2502 81.5801 88.3402 81.7801 88.4202 82.0101H88.4402Z" fill="#3E3A39"/>
<path d="M94.7103 82.0902C94.1203 82.3102 93.4803 82.4402 92.7803 82.4702V83.1902H94.3802V85.5302H92.7603C92.7303 85.8902 92.6902 86.2702 92.6302 86.6502C92.5402 87.1502 92.4003 87.6202 92.2003 88.0702L91.7402 87.5302C91.8802 87.1702 91.9902 86.7902 92.0502 86.4202C92.1102 86.0202 92.1502 85.5402 92.1702 85.0002V81.9202C93.0602 81.9202 93.8102 81.7702 94.4102 81.4602L94.7202 82.0802L94.7103 82.0902ZM93.8203 84.9202V83.8202H92.7803V84.9202H93.8203ZM97.7003 82.0902C97.0203 82.3102 96.2602 82.4402 95.4202 82.4802V83.7302H97.7302V84.3802H97.0703V88.0502H96.4603V84.3802H95.4202V85.2002C95.4002 85.6802 95.3303 86.2002 95.2003 86.7302C95.0703 87.1902 94.8703 87.6302 94.5803 88.0502L94.1202 87.5102C94.3402 87.1802 94.5102 86.8402 94.6102 86.5002C94.7002 86.1202 94.7702 85.6902 94.8002 85.2002V81.8902C95.8302 81.8902 96.6802 81.7302 97.3702 81.4102L97.6902 82.0902H97.7003Z" fill="#3E3A39"/>
<path d="M4.44025 7.76025H1.75024V8.54022H0.810242V1.27026H4.45026V7.77026L4.44025 7.76025ZM3.51025 4.03027V2.16022H1.75024V4.03027H3.51025ZM3.51025 6.87024V4.88025H1.75024V6.87024H3.51025ZM5.39026 1.04022H9.81024V8.73022C9.81024 9.05022 9.72022 9.30022 9.54022 9.48022C9.37022 9.63022 9.15024 9.71027 8.87024 9.71027H7.19025L6.99023 8.77026L8.46027 8.85022C8.67027 8.83022 8.79022 8.70027 8.79022 8.46027V6.71027H6.25024C6.17024 7.08027 6.06025 7.41025 5.94025 7.69025C5.64025 8.42025 5.05023 9.14026 4.17023 9.89026L3.31024 9.19025C4.10024 8.63025 4.65022 8.03024 4.98022 7.37024C5.25022 6.84024 5.40027 6.04026 5.40027 4.95026V1.03027L5.39026 1.04022ZM8.79022 5.82025V4.27026H6.42023V4.97028C6.42023 5.28028 6.40025 5.57026 6.38025 5.83026H8.79022V5.82025ZM8.79022 3.37024V1.94025H6.42023V3.37024H8.79022Z" fill="#3E3A39"/>
<path d="M19.9702 9.85004H18.9503V9.11005H13.7502V9.82007H12.7202V1.04004H19.9603V9.85004H19.9702ZM18.9503 4.49005V2.00006H13.7502V4.49005H18.9503ZM18.9503 8.18005V5.46008H13.7502V8.18005H18.9503Z" fill="#3E3A39"/>
<path d="M31.0303 1.00024V6.44025C31.0303 7.59025 31.0802 8.24025 31.1902 8.38025C31.2502 8.54025 31.3202 8.61023 31.3702 8.61023C31.4702 8.61023 31.5902 8.24023 31.7402 7.49023L32.4302 7.88025C32.2902 8.70025 32.1403 9.21026 31.9503 9.45026C31.8003 9.62026 31.6403 9.71027 31.4503 9.71027C31.1103 9.71027 30.8503 9.59023 30.6403 9.36023C30.2803 8.96023 30.1102 8.00025 30.1102 6.44025V1.85022H24.3802V5.15027C24.3802 5.88027 24.3203 6.64025 24.2003 7.44025C24.0503 8.28025 23.8102 9.08026 23.4802 9.89026L22.6602 9.19025C22.9602 8.55025 23.1702 7.88023 23.3002 7.17023C23.3802 6.44023 23.4402 5.77027 23.4402 5.15027V0.990234H31.0502L31.0303 1.00024ZM29.7603 2.43024V3.25024H27.6702V4.07025H29.5203V7.10022H27.6702V8.32025C28.0802 8.28025 28.4503 8.23023 28.7703 8.17023C28.6403 7.95023 28.5303 7.75024 28.4003 7.56024L29.1902 7.33026C29.5802 7.91026 29.9103 8.53025 30.2103 9.19025L29.4302 9.50024C29.3502 9.30024 29.2502 9.10023 29.1702 8.92023C28.1302 9.12023 26.6203 9.27026 24.6403 9.39026L24.3602 8.45026C25.2402 8.45026 26.0302 8.43026 26.7302 8.39026V7.09027H24.9302V4.06024H26.7302V3.24023H24.7302V2.42023H29.7603V2.43024ZM26.7302 4.85022H25.7902V6.32025H26.7302V4.85022ZM28.6602 4.85022H27.6702V6.32025H28.6602V4.85022Z" fill="#3E3A39"/>
<path d="M35.3102 2.59045V0.69043H36.2103V2.59045H37.3502V3.00043C37.7102 2.70043 38.0002 2.37041 38.2402 2.04041C38.4602 1.74041 38.6702 1.30041 38.8702 0.730408L39.8602 0.850403C39.7802 1.1204 39.6803 1.37045 39.5903 1.59045H42.6802V2.26044C42.1302 3.10044 41.5803 3.75041 41.0103 4.23041C41.6403 4.57041 42.4503 4.8604 43.4503 5.1004L42.8802 5.88043C41.7402 5.55043 40.8703 5.20044 40.2603 4.83044C39.5803 5.29044 38.7103 5.68043 37.6403 6.00043L37.2603 5.32043L36.9802 5.72046C36.6802 5.30046 36.4103 4.94041 36.2003 4.67041V9.8504H35.3002V5.19043C34.9602 6.01043 34.5802 6.71043 34.1202 7.32043L33.7502 6.34045C34.3802 5.50045 34.8902 4.55045 35.3002 3.46045V3.42041H33.8203V2.6004H35.3002L35.3102 2.59045ZM39.5002 4.25043C39.1002 3.93043 38.7702 3.59046 38.4802 3.22046C38.2602 3.46046 38.0203 3.68043 37.7603 3.88043L37.3502 3.3504V3.4104H36.2103V3.65045C36.6403 4.05045 37.0803 4.49045 37.5203 4.96045L37.4302 5.09045C38.2502 4.85045 38.9403 4.57043 39.5103 4.25043H39.5002ZM42.6302 9.82043H41.6403V9.27045H38.9503V9.82043H37.9603V6.01044H42.6202V9.82043H42.6302ZM41.6403 8.46045V6.83044H38.9503V8.46045H41.6403ZM40.2502 3.74042C40.6402 3.40042 41.0603 2.94041 41.5203 2.36041H39.1503C39.1103 2.42041 39.0702 2.47044 39.0502 2.51044C39.3902 3.00044 39.7903 3.41042 40.2603 3.74042H40.2502Z" fill="#3E3A39"/>
<path d="M51.6002 1.19019V0.690186H52.5303V1.19019H53.6403V1.90021H52.5303V2.17017H51.6002V1.90021H48.9402V1.19019H51.6002ZM51.2603 2.51019V2.24017H52.1202V2.51019H53.7703V3.06018H52.1202V3.41016H54.0903V4.00018H53.1503V4.11017C53.1503 4.22017 53.2402 4.2702 53.4302 4.2702H54.0502V4.74017H53.2703C53.0003 4.74017 52.7903 4.71019 52.6403 4.63019C52.4803 4.56019 52.4102 4.4402 52.4102 4.2702V4.00018H50.9402C50.8802 4.27018 50.7603 4.49017 50.5703 4.67017C50.4903 4.75017 50.4002 4.8302 50.3002 4.8902H51.2103V4.35016H52.1102V4.8902H53.5903V5.44019H52.1102V5.81018C52.7202 5.78018 53.2802 5.74018 53.8002 5.68018V6.22021C52.9402 6.35021 51.4503 6.47019 49.3303 6.57019L49.2502 5.91016C49.9402 5.91016 50.6003 5.89017 51.2103 5.86017V5.44019H49.9402V5.09021C49.7802 5.16021 49.6103 5.23016 49.4503 5.29016L49.0402 4.66016C49.4502 4.56016 49.7502 4.45018 49.9402 4.31018C50.0702 4.23018 50.1503 4.13018 50.2003 4.00018H49.1602V3.41016H51.2502V3.06018H49.4902V2.51019H51.2502H51.2603ZM58.5103 7.60016V8.26019H56.8403C57.3303 8.65019 57.7603 9.06018 58.1403 9.50018L57.3102 9.85016C57.2102 9.71016 57.1003 9.59016 57.0103 9.48016C55.5103 9.57016 53.0502 9.66017 49.6202 9.74017L49.4902 9.00018C49.9302 9.00018 50.3603 8.99017 50.7803 8.99017C51.0303 8.75017 51.2403 8.51018 51.4003 8.25018H49.0803V7.59021H58.5002L58.5103 7.60016ZM57.4402 6.62018V7.25018H50.2402V6.62018H57.4402ZM55.9302 8.41016L56.4802 8.25018H52.5703C52.4203 8.50018 52.2202 8.74022 51.9802 8.97021C53.6402 8.95021 55.1102 8.91018 56.4402 8.87018C56.2702 8.71018 56.1002 8.55016 55.9402 8.41016H55.9302ZM55.3502 3.01019V2.38019H56.1302V3.01019H57.6102V5.19019C57.6602 5.48019 57.7302 5.62018 57.8102 5.62018C57.8902 5.62018 57.9703 5.31018 58.0203 4.68018L58.6002 5.11017C58.4702 5.80017 58.3502 6.18021 58.2202 6.28021C58.0802 6.41021 57.9302 6.47021 57.7402 6.47021C57.4902 6.47021 57.2902 6.40018 57.1602 6.25018C56.9602 6.05018 56.8603 5.70019 56.8403 5.19019V3.67017H56.1403C56.1203 4.13017 56.0703 4.52021 55.9603 4.84021C56.2303 5.03021 56.5103 5.22017 56.7603 5.42017L56.3502 6.05017C56.1202 5.85017 55.9002 5.67018 55.6702 5.50018C55.4502 5.86018 55.1203 6.21016 54.7103 6.54016L54.0602 6.00018C54.5002 5.70018 54.8303 5.38016 55.0303 5.04016C54.7603 4.87016 54.4802 4.72021 54.2202 4.59021L54.5903 4.04016C54.8203 4.16016 55.0503 4.29016 55.2803 4.41016C55.3203 4.19016 55.3502 3.93021 55.3602 3.65021H54.2202V2.99017H55.3602L55.3502 3.01019ZM55.2703 1.18018V0.680176H56.2103V1.18018H58.6202V1.8902H56.2103V2.28021H55.2703V1.8902H54.1702V1.18018H55.2703Z" fill="#3E3A39"/>
<path d="M62.7402 1.31018C62.1802 2.01018 61.4903 2.62018 60.6503 3.18018L60.0402 2.3902C60.7902 1.9502 61.4803 1.41019 62.0803 0.760193L62.7302 1.31018H62.7402ZM62.6702 3.49017C62.4402 4.00017 62.2102 4.43021 61.9702 4.78021V9.82019H61.0703V5.8302C60.8503 6.0502 60.6202 6.27016 60.3802 6.48016L60.0602 5.43018C60.4202 5.11018 60.7403 4.7902 61.0303 4.4502C61.3103 4.1502 61.5902 3.7102 61.8602 3.1402L62.6802 3.49017H62.6702ZM63.6902 4.2702C63.6602 5.8702 63.4903 7.38019 63.2003 8.82019L62.3403 8.62018C62.6703 7.14018 62.8303 5.68016 62.8303 4.23016L63.6902 4.2702ZM64.1002 2.56018V0.700195H65.0002V2.56018H66.5602V3.38019H65.0002V9.84021H64.1002V3.38019H62.7202V2.56018H64.1002ZM66.5602 2.01019L65.7402 2.37018C65.5602 1.91018 65.3702 1.51016 65.1602 1.16016L65.9802 0.930176C66.1902 1.27018 66.3902 1.64019 66.5602 2.01019ZM66.2703 4.23016V7.1402C66.2703 7.3202 66.3702 7.41016 66.6102 7.41016H67.0203V8.19019H66.4003C66.0903 8.19019 65.8402 8.13019 65.6802 8.01019C65.5002 7.89019 65.4202 7.69016 65.4202 7.41016V4.23016H66.2803H66.2703ZM69.7202 4.00018V4.8902H68.7803V8.78021C68.7803 9.14021 68.7003 9.39021 68.5303 9.53021C68.3803 9.68021 68.1103 9.76019 67.7103 9.76019H66.8102L66.6102 8.79016C66.9502 8.85016 67.2402 8.87018 67.4702 8.87018C67.7002 8.87018 67.8403 8.79019 67.8403 8.63019V4.90021H66.7302V4.01019H69.7302L69.7202 4.00018ZM69.5103 1.2702V2.17017H66.8502V1.2702H69.5103Z" fill="#3E3A39"/>
<path d="M79.2902 2.94043V3.76044H77.1002C76.8202 3.98044 76.5302 4.16043 76.2502 4.32043C76.6202 4.77043 76.8902 5.21042 77.0602 5.62042C77.8302 5.30042 78.5602 4.82043 79.2502 4.19043L79.9802 4.86041C79.5402 5.25041 79.0702 5.58045 78.5602 5.84045C78.7902 6.36045 79.0802 6.83045 79.4202 7.27045C79.7402 7.69045 80.2102 8.14041 80.8002 8.61041L80.1403 9.43042C79.4703 8.85042 78.9203 8.2604 78.5303 7.6604C78.2303 7.2504 77.9602 6.77042 77.7502 6.24042C77.5802 6.32042 77.4402 6.38042 77.2902 6.43042C77.3802 6.86042 77.4402 7.28043 77.4402 7.69043C77.4402 8.45043 77.3203 8.97042 77.0903 9.30042C76.8403 9.65042 76.0902 9.83044 74.8602 9.83044L74.5402 8.86041C74.5402 8.86041 74.7602 8.94043 75.1202 8.94043C75.6702 8.94043 76.0202 8.87043 76.1702 8.75043C76.3402 8.56043 76.4302 8.21044 76.4302 7.70044C76.4302 7.56044 76.4203 7.41044 76.4003 7.26044C75.8103 7.70044 75.2802 8.04044 74.8002 8.26044C74.0302 8.64044 73.0802 9.01042 71.9302 9.37042L71.4003 8.51044C72.5403 8.22044 73.5403 7.87046 74.4003 7.47046C75.0803 7.15046 75.6902 6.77045 76.2302 6.34045C76.2102 6.26045 76.1802 6.17044 76.1602 6.08044C76.1302 5.99044 76.1002 5.90041 76.0602 5.80042C75.4902 6.19041 74.9803 6.48041 74.5303 6.67041C73.8603 6.97041 73.0102 7.27041 71.9802 7.55042L71.4902 6.73041C72.5002 6.51041 73.3903 6.24041 74.1503 5.92041C74.7203 5.69041 75.2302 5.4204 75.6902 5.1004C75.6102 4.9804 75.5202 4.85046 75.4302 4.72046C74.5202 5.10046 73.4603 5.42042 72.2603 5.68042L71.7302 4.86041C73.0302 4.62041 74.0602 4.37041 74.8002 4.11041C75.1102 4.00041 75.4102 3.88044 75.6802 3.76044H72.7603V2.94043H79.3102H79.2902ZM76.4603 1.43042H80.5602V3.45044H79.6202V2.29041H72.4603V3.45044H71.5203V1.43042H75.3903C75.2603 1.23042 75.1402 1.03045 75.0002 0.840454L76.1002 0.69043C76.2302 0.91043 76.3402 1.16042 76.4702 1.43042H76.4603Z" fill="#3E3A39"/>
<path d="M14.3702 20.8601V23.1401C14.3702 23.1901 14.2203 23.2901 14.0103 23.3801L15.6902 24.5001C15.6202 24.6001 15.5203 24.6901 15.3303 24.6901C15.2603 24.6901 15.1602 24.6701 15.0402 24.6401C14.4502 25.0301 13.5302 25.5201 12.6602 25.9101C13.7502 26.7401 15.0602 27.3401 16.5002 27.6301L16.4802 27.8201C15.8502 27.9901 15.3602 28.5201 15.1902 29.3301C12.6202 28.3101 11.0802 26.5301 10.1902 23.6901V27.6001C10.1902 28.7401 9.90026 29.5502 7.83026 29.7202C7.83026 28.5302 7.34025 28.2901 6.01025 28.1201V27.9001H8.10022C8.34022 27.9001 8.41022 27.8201 8.41022 27.6101V23.0001H4.84027L4.74023 22.6601H8.41022V20.8601H3.70026C3.68026 23.6101 3.43027 27.1701 0.710266 29.5601L0.510254 29.4201C1.87025 26.7901 1.94025 23.4501 1.94025 20.5001V15.4901L4.00024 16.2401H8.01025V13.6201L10.5103 13.8601C10.4803 14.1001 10.3103 14.2201 9.78027 14.3001V16.2401H13.6702L14.6702 14.8801L16.4902 16.2701C16.3702 16.4901 16.1502 16.5801 15.6602 16.5801H9.66022L10.9003 16.6801C10.8803 16.9201 10.7803 17.0401 10.2003 17.1101V18.3801H12.4802L13.1403 17.5101L14.9802 18.7802C14.9002 18.9002 14.6902 19.0301 14.3702 19.0901V20.5201H14.5903L15.3002 19.3801L16.6102 20.5701C16.4702 20.7701 16.2703 20.8601 15.8303 20.8601H14.3702ZM8.42023 26.1801C7.55023 26.7901 6.26022 27.6801 4.41022 28.8001C4.36022 29.0201 4.22023 29.1701 4.05023 29.2401L2.88025 27.4001C3.85025 27.2001 6.09022 26.6201 8.35022 25.9901L8.42023 26.1801ZM3.71027 20.5201H8.42023V18.7202H4.95026L4.83026 18.3801H8.42023V16.5801H3.71027V20.5201ZM4.42023 23.4301C6.51023 23.7001 7.17023 24.5201 7.17023 25.1801C7.17023 25.6701 6.80027 26.0801 6.34027 26.0801C6.12027 26.0801 5.90025 26.0001 5.69025 25.7901C5.52025 25.0201 4.94024 24.0701 4.31024 23.5601L4.41022 23.4201L4.42023 23.4301ZM12.6302 18.7202H10.2003V20.5201H12.6302V18.7202ZM10.2003 20.8601V22.6601H12.6302V20.8601H10.2003ZM12.6302 23.0001H10.3403C10.8003 24.0001 11.4403 24.8701 12.2803 25.5801C12.8403 24.9201 13.4502 24.0501 13.8102 23.4601C13.3502 23.6301 13.1003 23.6301 12.6403 23.6301V23.0001H12.6302Z" fill="#C9A063"/>
<path d="M23.6002 21.71V26.6599C24.5002 26.5399 25.4702 26.4199 26.4402 26.2899L26.4702 26.53C25.2002 27.09 23.3302 27.8599 20.6202 28.8199C20.5202 29.0399 20.3502 29.18 20.1602 29.21L19.2402 27.15C19.8202 27.1 20.7902 26.9999 21.9402 26.8599V21.71H19.3702L19.2803 21.39H21.9302V18.9099H20.3702L20.3002 18.65C19.9902 18.94 19.6503 19.23 19.3303 19.47L19.1403 19.33C20.2803 17.89 21.2502 15.3999 21.6602 13.6699L24.1802 13.9099C24.1502 14.1099 23.9903 14.22 23.5303 14.28C25.8103 14.94 26.5402 15.8899 26.5402 16.6099C26.5402 17.1699 26.1002 17.5599 25.6102 17.5599C25.3702 17.5599 25.1302 17.4699 24.9102 17.2499C24.7602 16.4699 24.2603 15.36 23.4503 14.45C22.7903 15.79 21.6803 17.3399 20.3903 18.5599H23.5502L24.4003 17.4199L25.9802 18.59C25.8602 18.81 25.6203 18.9 25.2003 18.9H23.5903V21.3799H24.1702L24.9902 20.2399L26.5402 21.4099C26.4002 21.6299 26.2002 21.7 25.7402 21.7H23.6002V21.71ZM19.7803 22.46C21.0703 23.4 21.5002 24.3299 21.5002 25.0399C21.5002 25.7499 21.0702 26.21 20.6302 26.21C20.4102 26.21 20.1902 26.0899 20.0002 25.8199C20.0302 25.5999 20.0502 25.38 20.0502 25.14C20.0502 24.24 19.8502 23.22 19.5602 22.52L19.7803 22.45V22.46ZM26.6503 22.95C26.6003 23.14 26.4502 23.2599 26.0402 23.2599C25.5102 24.2499 24.8302 25.3299 24.2202 26.0499L23.9503 25.9099C24.1903 25.0399 24.4802 23.63 24.6802 22.39L26.6503 22.95ZM33.3802 21.9799L35.1802 23.3099C35.0602 23.4499 34.8703 23.5499 34.5203 23.6199V28.89C34.5203 29.01 33.9803 29.3499 33.0903 29.3499H32.8002V28.2599H29.5402V29.1099C29.5402 29.2299 29.0303 29.6199 28.2003 29.6199H27.8903V23.9899C27.2303 24.4299 26.5303 24.8199 25.7703 25.1799L25.6702 24.9399C27.2802 23.8499 28.6802 22.4099 29.8002 20.8099C29.7502 20.8299 29.7003 20.83 29.6503 20.83C29.4303 20.83 29.2102 20.7499 28.9902 20.5399C28.8902 19.8399 28.4103 19.0599 27.8203 18.5499C27.2603 19.1399 26.6602 19.65 26.0002 20.08L25.8102 19.9299C27.1202 18.4699 28.2103 15.8699 28.6503 13.6699L31.1802 14.0099C31.1302 14.2099 31.0102 14.2999 30.5502 14.3199C30.3302 14.8299 30.0702 15.3599 29.7902 15.8699H32.0703L33.0903 14.8799L34.7703 16.39C34.6503 16.58 34.4602 16.61 34.0602 16.65C33.0702 18.91 31.5802 21.0699 29.4902 22.8199L29.7803 22.9399H32.6902L33.4003 21.9899L33.3802 21.9799ZM29.5703 16.2C29.1403 16.91 28.6502 17.59 28.1102 18.22C29.7602 18.46 30.4003 19.1199 30.5103 19.7299C31.1903 18.5699 31.7503 17.3799 32.1403 16.1899H29.5703V16.2ZM29.5402 27.9099H32.8002V23.2499H29.5402V27.9099Z" fill="#C9A063"/>
<path d="M54.0203 20.9902C53.9003 21.2102 53.7002 21.2802 53.2202 21.2802H50.5502V23.7602H50.8203L51.6902 22.6402L53.3203 23.8002C53.1803 24.0402 52.9803 24.1102 52.5203 24.1102H46.7402V26.2502H50.8203L51.8102 25.0102L53.6602 26.3002C53.5202 26.5202 53.3003 26.5902 52.8403 26.5902H46.7402V29.1702C46.7402 29.2702 46.2003 29.6302 45.2803 29.6302H44.9603V26.5902H38.3102L38.2103 26.2502H44.9603V24.1102H39.0402L38.9603 23.7702H41.2703V21.2902H38.0103L37.9102 20.9502H41.2803V18.5902H39.2603L39.1602 18.2502H50.2803L51.1602 17.1502L52.8403 18.2902C52.7203 18.5102 52.5202 18.6002 52.0602 18.6002H50.5602V20.9602H51.3203L52.2703 19.7902L54.0203 21.0102V20.9902ZM42.2402 15.9902H38.0602L37.9702 15.6502H42.2402V13.6602L44.6702 13.8502C44.6402 14.0902 44.5203 14.1902 44.0203 14.2602V15.6502H47.6902V13.6602L50.1403 13.8502C50.1203 14.0902 49.9902 14.1902 49.4902 14.2602V15.6502H51.1602L52.0903 14.3402L53.8602 15.7002C53.7402 15.8902 53.5502 15.9902 53.1002 15.9902H49.5002V17.2502C49.5002 17.2502 49.3303 17.7102 47.7003 17.7102V15.9902H44.0303V17.3302C44.0303 17.3302 43.8402 17.7902 42.2502 17.7902V15.9902H42.2402ZM43.0002 18.5702V20.9302H44.9503V18.5702H43.0002ZM43.0002 23.7502H44.9503V21.2702H43.0002V23.7502ZM48.7803 18.5702H46.7402V20.9302H48.7803V18.5702ZM48.7803 23.7502V21.2702H46.7402V23.7502H48.7803Z" fill="#C9A063"/>
<path d="M6.65002 48.2204H6.03998V47.9904H1.23999V48.2204H0.630005V41.8804H6.65997V48.2204H6.65002ZM6.03998 47.4304V42.4304H1.23999V47.4304H6.03998ZM3.84003 46.4304C3.20003 46.6004 2.44998 46.7704 1.59998 46.9304L1.46002 46.3204C2.26002 46.2404 3.05002 46.1103 3.83002 45.9103V46.4404L3.84003 46.4304ZM3.78998 43.2404C3.78998 43.0304 3.78998 42.8004 3.78998 42.5804H4.38C4.38 42.8204 4.38 43.0404 4.38 43.2404H5.04999C4.96999 43.0504 4.88998 42.8804 4.78998 42.7104L5.28998 42.5504C5.40998 42.7304 5.53 42.9403 5.63 43.1603L5.31 43.2404H5.84998V43.7804H4.40002C4.42002 44.2304 4.46001 44.6004 4.51001 44.8804C4.55001 45.1204 4.59997 45.3403 4.65997 45.5403C4.86997 45.1803 5.09001 44.6504 5.32001 43.9704L5.78998 44.2804C5.45998 45.1404 5.16002 45.7603 4.90002 46.1603H4.89001C4.90001 46.2203 4.93001 46.2603 4.95001 46.2903C5.06001 46.5203 5.16001 46.6304 5.26001 46.6304C5.30001 46.6304 5.37001 46.3503 5.45001 45.7903L5.98999 46.2004C5.82999 46.7304 5.72002 47.0404 5.65002 47.1304C5.56002 47.2404 5.46001 47.2903 5.32001 47.2903C5.12001 47.2903 4.91997 47.1604 4.71997 46.9004C4.64997 46.8104 4.59003 46.7204 4.53003 46.6204C4.30003 46.8804 4.02997 47.1204 3.71997 47.3404L3.38 46.8904C3.74 46.6304 4.03002 46.3604 4.27002 46.0804C4.17002 45.8404 4.08001 45.5604 4.01001 45.2604C3.91001 44.8804 3.85 44.3904 3.81 43.7704H1.48999V43.2303H3.78003L3.78998 43.2404ZM3.41998 44.1304V45.7804H1.71997V44.1304H3.41998ZM2.91998 44.6104H2.21997V45.3004H2.91998V44.6104Z" fill="#3E3A39"/>
<path d="M10.16 42.0202V42.4902C10.09 42.7402 10.02 42.9902 9.95001 43.2502C10.18 43.0502 10.38 42.8402 10.55 42.6102C10.69 42.4102 10.84 42.1102 10.97 41.7202L11.53 41.7702C11.49 41.9002 11.46 42.0102 11.42 42.1102H12.43C12.58 42.5502 12.81 42.9702 13.12 43.3802C13.28 43.1902 13.46 42.9502 13.65 42.6602H12.79V42.1002H14.33V42.6102C14.09 43.0602 13.81 43.4702 13.5 43.8202C13.77 44.1302 14.09 44.4202 14.44 44.7002L14.08 45.2302C13.79 45.0202 13.54 44.7902 13.32 44.5702V44.9802H11.12V44.7302C10.91 44.9202 10.68 45.1002 10.42 45.2902L10.06 44.8402C10.35 44.6502 10.6 44.4702 10.81 44.3002C10.69 44.1902 10.55 44.0702 10.4 43.9502L10.74 43.6402C10.9 43.7602 11.05 43.8502 11.17 43.9602C11.22 43.9002 11.26 43.8502 11.31 43.8002C11.34 43.7602 11.37 43.7102 11.41 43.6702C11.25 43.5402 11.1 43.4302 10.94 43.3302L11.2 42.9402C11.37 43.0302 11.53 43.1202 11.69 43.2202C11.78 43.0502 11.85 42.8602 11.93 42.6602H11.19C11.14 42.7502 11.09 42.8402 11.03 42.9102C10.82 43.2402 10.54 43.5402 10.19 43.8102L9.91998 43.4502C9.84998 43.7002 9.77 43.9502 9.69 44.2002C9.87 44.5402 10 44.8402 10.08 45.0902C10.17 45.3702 10.22 45.6002 10.22 45.7902C10.21 46.1602 10.14 46.4302 10.02 46.5902C9.88002 46.7802 9.58 46.8802 9.13 46.8802L8.92999 46.2402C9.04999 46.2602 9.17002 46.2702 9.27002 46.2702C9.37002 46.2702 9.44999 46.2302 9.48999 46.1602C9.54999 46.1002 9.58002 45.9802 9.58002 45.8002C9.58002 45.5902 9.53998 45.3802 9.47998 45.1902C9.39998 44.9402 9.25999 44.6402 9.04999 44.3002C9.27999 43.6402 9.44999 43.0902 9.54999 42.6302H8.84998V48.3002H8.21002V42.0502H10.19L10.16 42.0202ZM11.45 46.5102C11.09 47.0502 10.69 47.5002 10.22 47.8802L9.63 47.4602C10.09 47.1202 10.52 46.7202 10.91 46.2602L11.45 46.5102ZM14.16 45.5102V46.1002H12.57V47.6102C12.57 47.8402 12.51 48.0002 12.4 48.1002C12.3 48.2002 12.11 48.2602 11.84 48.2602H11.34L11.2 47.6202C11.39 47.6602 11.54 47.6802 11.67 47.6802C11.83 47.6802 11.92 47.6202 11.92 47.5102V46.1202H10.38V45.5302H14.15L14.16 45.5102ZM13.17 44.4202C13.06 44.3102 12.97 44.2102 12.9 44.1002C12.65 43.8102 12.44 43.4902 12.26 43.1502C12.11 43.4902 11.95 43.7702 11.79 43.9902C11.69 44.1302 11.58 44.2802 11.44 44.4302H13.17V44.4202ZM14.47 47.4902L13.91 47.8802C13.66 47.4902 13.32 47.0602 12.88 46.5602L13.35 46.2802C13.82 46.7502 14.2 47.1502 14.47 47.4802V47.4902Z" fill="#3E3A39"/>
<path d="M19.05 41.7202C19.48 42.1902 19.93 42.5702 20.4 42.8602C20.73 43.0902 21.29 43.3502 22.09 43.6502L21.68 44.3202C21.35 44.2102 21.04 44.0802 20.73 43.9102V44.2102H19.11V45.0002H21.71V45.6402H19.11V47.4602H19.77C19.98 47.0002 20.18 46.5002 20.34 45.9302L21.04 46.1502C20.87 46.6402 20.68 47.0802 20.48 47.4602H21.87V48.0702H15.67V47.4602H17.08C16.94 47.0802 16.77 46.6702 16.54 46.2102L17.18 45.9802C17.39 46.3902 17.59 46.8902 17.77 47.4602H18.41V45.6402H15.81V45.0002H18.41V44.2102H16.84V43.8702C16.54 44.0402 16.2 44.2102 15.83 44.3802L15.47 43.7102C16.27 43.4002 16.89 43.0902 17.31 42.7702C17.65 42.5102 18.02 42.1702 18.42 41.7302H19.03L19.05 41.7202ZM20.14 43.5602C19.68 43.2502 19.21 42.8502 18.74 42.3602C18.32 42.8002 17.91 43.1602 17.52 43.4502C17.46 43.4902 17.41 43.5302 17.36 43.5602H20.14Z" fill="#3E3A39"/>
<path d="M25.95 46.01C25.99 45.82 26.02 45.61 26.02 45.37L26.63 45.43C26.63 45.64 26.62 45.84 26.59 46.02H27.33C27.22 45.93 27.09 45.84 26.96 45.74L27.32 45.4C27.59 45.57 27.83 45.74 28.02 45.91L27.91 46.02H29.41V46.58H27.14C27.3 46.79 27.52 46.97 27.8 47.11C28.24 47.34 28.82 47.53 29.56 47.67L29.2 48.28C28.34 48.02 27.69 47.74 27.27 47.44C26.91 47.2 26.64 46.9 26.48 46.57H26.44C26.41 46.63 26.39 46.67 26.37 46.71C26.11 47.13 25.76 47.45 25.3 47.67C24.92 47.86 24.36 48.06 23.62 48.28L23.17 47.69C23.99 47.5 24.59 47.31 24.99 47.13C25.27 47.01 25.5 46.82 25.7 46.57H23.29V46.01H25.96H25.95ZM24.21 41.94V42.75H24.9V41.74H25.51V45.74H24.9V44.17H24.38C24.36 44.53 24.32 44.78 24.27 44.92C24.2 45.21 24.03 45.49 23.78 45.76L23.28 45.37C23.48 45.18 23.62 45.01 23.69 44.82C23.73 44.67 23.77 44.46 23.8 44.17H23.31V43.64H24.9V43.25H23.62V41.94H24.21ZM27.64 41.8C27.58 41.89 27.53 41.98 27.47 42.05H29.29V42.44C29.03 42.8 28.74 43.08 28.41 43.28C28.07 43.52 27.41 43.75 26.43 43.98H28.37V43.39H28.99V43.98H29.55V44.45H28.99V45.06C28.99 45.27 28.93 45.41 28.83 45.49C28.73 45.58 28.55 45.62 28.29 45.62H27.79L27.68 45.06C27.86 45.1 28.01 45.12 28.13 45.12C28.29 45.12 28.38 45.08 28.38 44.98V44.44H26.89C27.13 44.6 27.33 44.76 27.51 44.92L27.09 45.33C26.91 45.14 26.66 44.92 26.34 44.69L26.61 44.43H25.77V43.96H26.02L25.83 43.49C26.08 43.45 26.31 43.4 26.52 43.36C26.43 43.19 26.33 43.04 26.25 42.89C26.18 42.93 26.11 42.95 26.06 42.98L25.7 42.54C26.04 42.43 26.33 42.3 26.56 42.17C26.74 42.07 26.91 41.93 27.07 41.73L27.66 41.79L27.64 41.8ZM27.03 43.27C27.17 43.24 27.29 43.21 27.4 43.17C27.28 42.93 27.15 42.71 27.02 42.5H26.98C26.88 42.57 26.78 42.64 26.67 42.7C26.8 42.89 26.91 43.07 27.02 43.26L27.03 43.27ZM27.87 42.99C28.1 42.89 28.33 42.73 28.56 42.5H27.59C27.69 42.67 27.78 42.83 27.87 42.99Z" fill="#3E3A39"/>
<path d="M37.06 41.9902V42.6302H32.26V43.6403H36.42V46.2402H32.26V47.4102H37.21V48.0203H30.62V47.4102H31.51V42.6403H30.7V42.0002H37.07L37.06 41.9902ZM35.72 45.6102V44.2502H32.25V45.6102H35.72Z" fill="#3E3A39"/>
<path d="M39.16 43.8902C39.06 44.2102 38.9 44.5302 38.67 44.8402L38.2 44.4202C38.41 44.2002 38.55 43.9602 38.64 43.7102C38.7 43.4502 38.73 43.2202 38.73 43.0002V41.9102H41.22V43.2502H39.28C39.27 43.4602 39.23 43.6802 39.17 43.8902H39.16ZM44 45.4602C43.39 45.5302 42.69 45.5902 41.91 45.6202V45.9602H44.37V46.4402H41.91V46.8302H44.7V47.3102H41.91V47.7202C41.91 47.9302 41.85 48.0802 41.75 48.1702C41.65 48.2602 41.46 48.3102 41.19 48.3102H40.32L40.21 47.7202C40.54 47.7602 40.8 47.7802 41.02 47.7802C41.18 47.7802 41.27 47.7302 41.27 47.6402V47.3002H38.34V46.8202H41.27V46.4302H38.65V45.9502H41.27V45.6402C40.6 45.6702 39.88 45.6802 39.1 45.6802L38.96 45.2102C40.85 45.2102 42.45 45.1502 43.76 45.0202L44.01 45.4602H44ZM39.28 42.3602V42.8102H40.65V42.3602H39.28ZM41.26 43.5902V44.8802H39.28V43.5902H41.26ZM40.7 44.0102H39.84V44.4502H40.7V44.0102ZM43.41 42.1702H44.67V42.6202H44.13L43.92 43.1802H44.76V43.6202H43.36V44.0102H44.62V44.4502H43.36V44.9002H42.77V44.4502H41.49V44.0102H42.77V43.6202H41.43V43.1802H42.22L41.96 42.6202H41.52V42.1702H42.78C42.71 42.0302 42.63 41.9002 42.55 41.7802L43.19 41.7002C43.26 41.8402 43.34 42.0002 43.41 42.1702ZM43.33 43.1802L43.54 42.6202H42.53L42.79 43.1802H43.32H43.33Z" fill="#3E3A39"/>
<path d="M0.590027 56.6303C0.760027 56.2503 1.10999 55.9103 1.60999 55.6103L2.37 55.1603C2.71 54.9503 2.95002 54.7803 3.08002 54.6303C3.29002 54.4003 3.40002 54.1403 3.40002 53.8503C3.40002 53.5103 3.29998 53.2403 3.09998 53.0303C2.89998 52.8303 2.64 52.7303 2.31 52.7303C1.82 52.7303 1.48999 52.9203 1.29999 53.3103C1.19999 53.5203 1.14 53.8003 1.13 54.1703H0.409973C0.409973 53.6603 0.509993 53.2403 0.679993 52.9203C0.989993 52.3503 1.53 52.0703 2.31 52.0703C2.96 52.0703 3.42998 52.2503 3.72998 52.6203C4.02998 52.9803 4.17999 53.3903 4.17999 53.8303C4.17999 54.3003 4.02001 54.7003 3.70001 55.0403C3.52001 55.2303 3.19002 55.4703 2.71002 55.7503L2.16998 56.0603C1.90998 56.2103 1.71 56.3503 1.56 56.4803C1.3 56.7203 1.13 56.9803 1.06 57.2703H4.14001V57.9703H0.27002C0.30002 57.4603 0.400007 57.0203 0.570007 56.6503L0.590027 56.6303Z" fill="#3E3A39"/>
<path d="M8.28998 53.0203C8.53998 53.5003 8.66998 54.1703 8.66998 55.0103C8.66998 55.8103 8.56002 56.4703 8.33002 56.9903C8.00002 57.7403 7.46002 58.1103 6.71002 58.1103C6.03002 58.1103 5.53001 57.8003 5.20001 57.1903C4.92001 56.6803 4.78998 55.9903 4.78998 55.1303C4.78998 54.4603 4.86998 53.8903 5.03998 53.4103C5.34998 52.5203 5.90997 52.0703 6.71997 52.0703C7.44997 52.0703 7.97999 52.3803 8.29999 53.0103L8.28998 53.0203ZM7.58002 56.9303C7.80002 56.5903 7.90997 55.9603 7.90997 55.0303C7.90997 54.3603 7.82998 53.8103 7.66998 53.3803C7.50998 52.9503 7.21 52.7303 6.75 52.7303C6.33 52.7303 6.03002 52.9303 5.83002 53.3403C5.64002 53.7503 5.53998 54.3503 5.53998 55.1503C5.53998 55.7503 5.59998 56.2303 5.72998 56.5903C5.91998 57.1503 6.24001 57.4203 6.70001 57.4203C7.07001 57.4203 7.36002 57.2503 7.58002 56.9103V56.9303Z" fill="#3E3A39"/>
<path d="M9.57001 56.6303C9.74001 56.2503 10.09 55.9103 10.59 55.6103L11.35 55.1603C11.69 54.9503 11.93 54.7803 12.06 54.6303C12.27 54.4003 12.38 54.1403 12.38 53.8503C12.38 53.5103 12.28 53.2403 12.08 53.0303C11.88 52.8303 11.62 52.7303 11.29 52.7303C10.8 52.7303 10.47 52.9203 10.28 53.3103C10.18 53.5203 10.12 53.8003 10.11 54.1703H9.39001C9.39001 53.6603 9.48997 53.2403 9.65997 52.9203C9.96997 52.3503 10.51 52.0703 11.29 52.0703C11.94 52.0703 12.41 52.2503 12.71 52.6203C13.01 52.9803 13.16 53.3903 13.16 53.8303C13.16 54.3003 13 54.7003 12.68 55.0403C12.5 55.2303 12.17 55.4703 11.69 55.7503L11.15 56.0603C10.89 56.2103 10.69 56.3503 10.54 56.4803C10.28 56.7203 10.11 56.9803 10.04 57.2703H13.12V57.9703H9.25C9.28 57.4603 9.37999 57.0203 9.54999 56.6503L9.57001 56.6303Z" fill="#3E3A39"/>
<path d="M14.14 57.54C13.84 57.16 13.69 56.6901 13.69 56.1501H14.43C14.46 56.5301 14.53 56.81 14.64 56.98C14.82 57.29 15.16 57.4401 15.64 57.4401C16.01 57.4401 16.31 57.3401 16.54 57.1301C16.77 56.9201 16.88 56.6501 16.88 56.3301C16.88 55.9301 16.76 55.64 16.52 55.48C16.28 55.32 15.95 55.2401 15.53 55.2401C15.48 55.2401 15.43 55.2401 15.39 55.2401C15.34 55.2401 15.29 55.2401 15.24 55.2401V54.5901C15.31 54.5901 15.38 54.6 15.43 54.61C15.48 54.61 15.53 54.61 15.59 54.61C15.86 54.61 16.07 54.57 16.24 54.48C16.54 54.33 16.69 54.05 16.69 53.66C16.69 53.37 16.59 53.14 16.39 52.98C16.19 52.82 15.96 52.7401 15.69 52.7401C15.22 52.7401 14.89 52.9 14.71 53.23C14.61 53.41 14.55 53.6701 14.54 54.0001H13.84C13.84 53.5601 13.92 53.1901 14.09 52.8801C14.38 52.3301 14.89 52.0601 15.61 52.0601C16.19 52.0601 16.63 52.1901 16.95 52.4601C17.27 52.7301 17.42 53.1101 17.42 53.6201C17.42 53.9801 17.33 54.2701 17.14 54.5001C17.02 54.6401 16.87 54.7501 16.69 54.8301C16.99 54.9101 17.22 55.0801 17.38 55.3201C17.55 55.5601 17.63 55.8601 17.63 56.2101C17.63 56.7701 17.45 57.2301 17.1 57.5801C16.75 57.9301 16.24 58.11 15.59 58.11C14.94 58.11 14.44 57.92 14.14 57.54Z" fill="#3E3A39"/>
<path d="M21.4 52.36H22.66C22.87 52.1 23.07 51.82 23.24 51.52L23.91 51.74C23.75 51.97 23.58 52.17 23.4 52.35H24.94V52.94H22.32V53.38H24.66V53.97H22.32V54.11C22.32 54.24 22.32 54.36 22.32 54.47H25.26V55.08H22.27C22.24 55.29 22.21 55.47 22.18 55.64H25.26V56.23H22.86C22.95 56.44 23.08 56.6 23.24 56.72C23.41 56.86 23.66 57 24 57.12C24.29 57.23 24.75 57.35 25.37 57.46L24.96 58.1C24.37 57.96 23.89 57.8 23.52 57.64C23.14 57.46 22.85 57.27 22.65 57.04C22.44 56.82 22.29 56.55 22.21 56.23H22.02C21.92 56.48 21.81 56.69 21.68 56.88C21.22 57.52 20.34 57.92 19.06 58.07L18.75 57.43C19.99 57.35 20.79 57.04 21.18 56.48C21.24 56.4 21.29 56.32 21.33 56.23H18.86V55.64H21.55C21.59 55.47 21.62 55.28 21.65 55.08H18.86V54.47H21.71C21.71 54.35 21.71 54.23 21.71 54.11V53.97H19.44V53.38H21.71V52.94H19.14V52.35H20.7C20.57 52.18 20.41 51.99 20.23 51.79L20.9 51.54C21.09 51.77 21.27 52.04 21.44 52.35L21.4 52.36Z" fill="#3E3A39"/>
<path d="M32.66 58.0499H32.05V57.8199H27.25V58.0499H26.64V51.71H32.67V58.0499H32.66ZM32.05 57.2599V52.2599H27.25V57.2599H32.05ZM29.85 56.2599C29.21 56.4299 28.46 56.5999 27.61 56.7599L27.47 56.15C28.27 56.07 29.06 55.9399 29.84 55.7399V56.27L29.85 56.2599ZM29.8 53.0699C29.8 52.8599 29.8 52.6299 29.8 52.4099H30.39C30.39 52.6499 30.39 52.8699 30.39 53.0699H31.06C30.98 52.8799 30.9 52.7099 30.8 52.5399L31.3 52.3799C31.42 52.5599 31.54 52.7699 31.64 52.9899L31.32 53.0699H31.86V53.6099H30.41C30.43 54.0599 30.47 54.43 30.52 54.71C30.56 54.95 30.61 55.1699 30.67 55.3699C30.88 55.0099 31.1 54.4799 31.33 53.7999L31.8 54.1099C31.47 54.9699 31.17 55.5899 30.91 55.9899L30.9 55.9999C30.91 56.0399 30.94 56.0899 30.96 56.1099C31.07 56.3399 31.17 56.45 31.27 56.45C31.31 56.45 31.38 56.1699 31.46 55.6099L32 56.02C31.84 56.55 31.73 56.86 31.66 56.95C31.57 57.06 31.47 57.1099 31.33 57.1099C31.13 57.1099 30.93 56.98 30.73 56.72C30.66 56.63 30.6 56.5399 30.54 56.4399C30.31 56.6999 30.04 56.9399 29.73 57.1599L29.39 56.71C29.75 56.45 30.04 56.18 30.28 55.9C30.18 55.66 30.09 55.38 30.02 55.08C29.92 54.7 29.86 54.21 29.82 53.59H27.5V53.0499H29.79L29.8 53.0699ZM29.43 53.96V55.6099H27.73V53.96H29.43ZM28.93 54.4399H28.23V55.1299H28.93V54.4399Z" fill="#3E3A39"/>
<path d="M37.65 52.0503V51.5503H38.29V52.0503H39.99V53.0803H40.38V53.6203H39.99V54.6803H38.29V55.1303H40.05V55.6303H38.29V56.1303H40.36V56.6603H38.29V57.2703C38.39 57.2703 38.49 57.2703 38.59 57.2703C39.43 57.2703 40.06 57.2603 40.47 57.2203L40.36 57.9403C38.14 57.9403 36.79 57.8903 36.31 57.7903C35.87 57.6803 35.52 57.5003 35.26 57.2703C35.23 57.2503 35.2 57.2303 35.18 57.2003C34.95 57.4903 34.64 57.7903 34.24 58.1103L33.88 57.4403C34.25 57.1903 34.54 56.9103 34.75 56.6103C34.54 56.2503 34.31 55.7603 34.07 55.1403L34.63 54.9503C34.8 55.3603 34.95 55.6903 35.09 55.9503C35.1 55.9203 35.11 55.8903 35.13 55.8503C35.22 55.5403 35.29 55.1103 35.32 54.5603H34.1V54.1203C34.53 53.6103 34.92 53.0303 35.28 52.4203H33.99V51.8803H36.03V52.4903C35.62 53.1503 35.26 53.6703 34.94 54.0603H36.01C35.99 54.8603 35.9 55.5003 35.76 55.9903C35.69 56.2203 35.62 56.4303 35.53 56.6103C35.7 56.8003 35.95 56.9503 36.27 57.0503C36.54 57.1403 37.01 57.1903 37.65 57.2303V56.6503H35.95V56.1203H37.65V55.6203H36.26V55.1203H37.65V54.6703H36.34V54.1703H37.65V53.6103H35.95V53.0703H37.65V52.5403H36.34V52.0403H37.65V52.0503ZM38.29 53.0803H39.35V52.5503H38.29V53.0803ZM38.29 54.1703H39.35V53.6103H38.29V54.1703Z" fill="#3E3A39"/>
<path d="M43.19 51.66C43.13 51.8 43.06 51.93 42.99 52.05H44.78V52.59C45.09 52.25 45.33 51.9 45.47 51.52L46.11 51.63C46.05 51.78 45.98 51.92 45.92 52.05H48.06V52.64H46.89C46.96 52.81 47.03 52.99 47.09 53.17L46.39 53.23C46.34 53.02 46.29 52.82 46.25 52.64H45.57C45.41 52.87 45.24 53.07 45.05 53.25L44.46 52.89C44.56 52.8 44.65 52.73 44.72 52.64H43.77C43.84 52.8 43.91 52.97 43.98 53.14L43.28 53.2C43.23 53 43.18 52.81 43.12 52.64H42.59C42.4 52.88 42.21 53.09 42 53.28L41.41 52.92C41.94 52.5 42.31 52.04 42.52 51.55L43.16 51.66H43.19ZM44.5 55.71V55.36L44.22 55.12C44.56 55.01 44.82 54.89 45 54.76C44.81 54.67 44.63 54.6 44.45 54.53L44.76 54.08C44.95 54.15 45.14 54.22 45.32 54.29C45.33 54.23 45.34 54.15 45.34 54.08V53.83H44.55V53.33H47.12V54.72C47.12 54.85 47.18 54.91 47.31 54.91H47.34C47.4 54.91 47.45 54.89 47.48 54.85C47.52 54.81 47.54 54.62 47.56 54.27L48.09 54.44C48.05 54.93 47.98 55.22 47.88 55.31C47.79 55.4 47.63 55.45 47.4 55.45H47.12C46.94 55.45 46.81 55.41 46.71 55.31C46.61 55.21 46.57 55.07 46.57 54.9V53.84H45.87V54.09C45.87 54.25 45.85 54.4 45.81 54.52C46.04 54.62 46.25 54.73 46.46 54.85L46.12 55.38C45.91 55.25 45.7 55.13 45.49 55.02C45.36 55.13 45.2 55.25 45 55.36H45.14V55.72H48.07V56.31H45.83C46.09 56.52 46.32 56.67 46.55 56.76C46.89 56.95 47.39 57.12 48.03 57.28L47.75 57.87C46.97 57.6 46.4 57.35 46.03 57.11C45.74 56.94 45.44 56.67 45.14 56.32V58.14H44.5V56.32H44.48C44.27 56.59 44.02 56.83 43.75 57.01C43.31 57.32 42.68 57.62 41.85 57.93L41.49 57.34C42.33 57.09 42.93 56.86 43.29 56.65C43.46 56.56 43.63 56.44 43.78 56.31H41.46V55.72H44.5V55.71ZM44.31 53.44V54.03H43.36V54.64C43.68 54.58 44 54.52 44.31 54.45V55.01C43.56 55.2 42.69 55.37 41.69 55.54L41.55 54.9C41.95 54.86 42.34 54.81 42.72 54.76V54.04H41.75V53.45H44.32L44.31 53.44Z" fill="#3E3A39"/>
<path d="M51.08 51.6303C51.02 51.8503 50.93 52.0603 50.83 52.2403H51.75V54.4803H49.93V55.2003H51.88V57.9403H51.24V57.5303H49.93V57.9703H49.29V52.2403H50.13C50.24 52.0303 50.32 51.7903 50.37 51.5503L51.07 51.6303H51.08ZM51.11 53.9003V52.8303H49.94V53.9003H51.11ZM51.25 56.9403V55.8003H49.94V56.9403H51.25ZM55.64 51.8703V52.5103H54.18V53.2703H55.44V56.9303C55.44 57.1203 55.39 57.2703 55.3 57.3903C55.2 57.5003 55.06 57.5603 54.89 57.5603H54.5L54.34 56.9003L54.7 56.9303C54.79 56.9303 54.84 56.8703 54.84 56.7303V53.8903H54.2V58.1403H53.54V53.8903H52.9V57.6003H52.29V53.2803H53.55V52.5203H52.04V51.8803H55.67L55.64 51.8703Z" fill="#3E3A39"/>
<path d="M59.32 53.3904C59.36 53.0004 59.38 52.5804 59.38 52.1104V51.6304H60.11V52.1104C60.11 52.5704 60.08 53.0004 60.04 53.3904H62.98V54.0904H60.82C60.98 54.8204 61.21 55.4104 61.51 55.8704C61.9 56.4804 62.43 56.9704 63.1 57.3604L62.68 58.0604C61.89 57.5204 61.29 56.9204 60.91 56.2404C60.54 55.6504 60.27 54.9304 60.12 54.0904H59.93C59.83 54.5804 59.69 55.0004 59.52 55.3904C59.13 56.2504 58.4 57.1304 57.3 58.0304L56.69 57.5004C57.71 56.7804 58.43 56.0104 58.85 55.1804C59.01 54.8904 59.14 54.5204 59.23 54.0904H56.84V53.3904H59.34H59.32Z" fill="#3E3A39"/>
<path d="M67.12 55.8503C67.16 55.6603 67.19 55.4503 67.19 55.2103L67.8 55.2703C67.8 55.4803 67.79 55.6803 67.76 55.8603H68.5C68.39 55.7703 68.26 55.6803 68.13 55.5803L68.49 55.2403C68.76 55.4103 69 55.5803 69.19 55.7503L69.08 55.8603H70.58V56.4203H68.31C68.47 56.6303 68.69 56.8103 68.97 56.9503C69.41 57.1803 69.99 57.3703 70.73 57.5103L70.37 58.1203C69.51 57.8603 68.86 57.5803 68.44 57.2803C68.08 57.0403 67.81 56.7403 67.65 56.4103H67.61C67.58 56.4703 67.56 56.5103 67.54 56.5503C67.28 56.9703 66.93 57.2903 66.47 57.5103C66.09 57.7003 65.53 57.9003 64.79 58.1203L64.34 57.5303C65.15 57.3403 65.76 57.1503 66.16 56.9703C66.44 56.8503 66.67 56.6603 66.87 56.4103H64.46V55.8503H67.13H67.12ZM65.38 51.7803V52.5903H66.07V51.5803H66.69V55.5703H66.07V54.0003H65.56C65.54 54.3603 65.5 54.6103 65.45 54.7503C65.38 55.0403 65.21 55.3203 64.96 55.5903L64.46 55.2003C64.66 55.0103 64.8 54.8403 64.87 54.6503C64.91 54.5003 64.95 54.2903 64.98 54.0003H64.49V53.4703H66.08V53.0803H64.8V51.7703H65.39L65.38 51.7803ZM68.81 51.6403C68.75 51.7303 68.7 51.8203 68.64 51.8903H70.46V52.2803C70.2 52.6403 69.91 52.9203 69.58 53.1203C69.24 53.3603 68.58 53.5903 67.6 53.8203H69.54V53.2303H70.16V53.8203H70.72V54.2903H70.16V54.9003C70.16 55.1103 70.1 55.2503 69.99 55.3303C69.89 55.4203 69.71 55.4603 69.45 55.4603H68.95L68.84 54.9003C69.02 54.9403 69.17 54.9603 69.29 54.9603C69.45 54.9603 69.54 54.9203 69.54 54.8203V54.2803H68.05C68.29 54.4403 68.49 54.6003 68.67 54.7603L68.25 55.1703C68.07 54.9803 67.82 54.7603 67.5 54.5303L67.77 54.2703H66.93V53.8003H67.18L66.99 53.3303C67.24 53.2903 67.47 53.2403 67.68 53.2003C67.59 53.0303 67.49 52.8803 67.41 52.7303C67.34 52.7703 67.27 52.7903 67.22 52.8203L66.86 52.3803C67.2 52.2703 67.49 52.1403 67.72 52.0103C67.9 51.9103 68.07 51.7703 68.23 51.5703L68.82 51.6303L68.81 51.6403ZM68.2 53.1103C68.34 53.0803 68.46 53.0503 68.57 53.0103C68.45 52.7703 68.32 52.5503 68.19 52.3403H68.15C68.05 52.4103 67.95 52.4803 67.84 52.5403C67.97 52.7303 68.08 52.9103 68.19 53.1003L68.2 53.1103ZM69.04 52.8303C69.27 52.7303 69.5 52.5703 69.73 52.3403H68.76C68.86 52.5103 68.95 52.6703 69.04 52.8303Z" fill="#3E3A39"/>
<path d="M73.54 52.3603H74.55V52.9503H71.84V52.3603H72.89C72.79 52.1003 72.68 51.8603 72.57 51.6303L73.24 51.5503C73.35 51.7903 73.45 52.0603 73.54 52.3603ZM74.27 57.5803H72.71V58.0903H72.07V55.5203H74.27V57.5903V57.5803ZM74.27 53.4203V53.9803H72.1V53.4203H74.27ZM74.27 54.4603V55.0203H72.1V54.4603H74.27ZM73.63 57.0003V56.1103H72.72V57.0003H73.63ZM77.49 53.4003C77.49 53.5703 77.57 53.6603 77.74 53.6603H78.3V54.3003H77.6C77.33 54.3003 77.12 54.2403 76.99 54.1303C76.85 54.0203 76.79 53.8303 76.79 53.5503V52.3503H75.7C75.68 52.8303 75.63 53.1703 75.56 53.3703C75.47 53.6603 75.25 53.9803 74.89 54.3603L74.39 53.9203C74.68 53.5903 74.87 53.3303 74.95 53.1403C75.01 52.9703 75.04 52.5103 75.04 51.7703H77.5V53.4103L77.49 53.4003ZM77.77 54.4703V54.9403C77.59 55.6703 77.3 56.2903 76.89 56.8103C77.29 57.0703 77.79 57.2803 78.41 57.4603L78 58.0703C77.33 57.8303 76.79 57.5803 76.4 57.3103C76 57.6203 75.46 57.9003 74.79 58.1303L74.4 57.5403C75 57.3503 75.49 57.1303 75.86 56.8703C75.45 56.4803 75.11 56.0203 74.84 55.5003L75.43 55.1603C75.69 55.6603 76 56.0803 76.39 56.4203C76.7 56.0403 76.93 55.5903 77.08 55.0603H74.67V54.4703H77.77Z" fill="#3E3A39"/>
<path d="M81.32 52.3603H82.49V52.9503H79.42V52.3603H80.66C80.53 52.1003 80.39 51.8603 80.23 51.6303L80.9 51.5503C81.04 51.7903 81.18 52.0603 81.31 52.3603H81.32ZM82.24 53.4503V54.0103H79.67V53.4503H82.24ZM82.24 54.4603V55.0203H79.67V54.4603H82.24ZM80.34 58.0903H79.7V55.5203H82.18V57.9803H81.54V57.5903H80.34V58.1003V58.0903ZM81.54 56.1003H80.34V56.9903H81.54V56.1003ZM83.97 53.5903V51.5503H84.67V53.5903H86.04V54.2303H84.67V58.1103H83.97V54.2303H82.61V53.5903H83.97Z" fill="#3E3A39"/>
<path d="M88.68 51.8303C88.56 52.3003 88.44 52.7003 88.32 53.0503V58.1403H87.71V54.3703C87.57 54.6303 87.41 54.8803 87.24 55.1303L87.01 54.3103C87.23 53.9303 87.43 53.5403 87.6 53.1303C87.77 52.7703 87.94 52.2403 88.1 51.5503L88.69 51.8303H88.68ZM93.31 51.7403V52.2103H91.34C91.3 52.3103 91.26 52.4003 91.22 52.4903H92.92V54.3003H93.45V55.2803H92.97C93.14 55.5003 93.28 55.6903 93.39 55.8703L92.92 56.2103C92.75 55.8903 92.51 55.5203 92.22 55.1003L92.61 54.8503C92.69 54.9503 92.76 55.0403 92.83 55.1203V54.7303H91.15C91.29 54.8003 91.41 54.8703 91.54 54.9503L91.26 55.4003C91.03 55.2303 90.8 55.0903 90.56 54.9803L90.72 54.7303H89.13V55.2903H88.52V54.3103H89.13V52.5003H90.49C90.54 52.4103 90.58 52.3203 90.62 52.2203H88.75V51.7503H93.3L93.31 51.7403ZM90.49 54.8903V55.4003C90.49 55.4903 90.55 55.5403 90.68 55.5403H91.52C91.52 55.5403 91.61 55.5303 91.63 55.4903C91.66 55.4603 91.67 55.3103 91.69 55.0403L92.19 55.1803C92.15 55.5703 92.08 55.7903 92 55.8603C91.92 55.9303 91.78 55.9703 91.58 55.9703H90.79C90.72 56.0603 90.64 56.1503 90.57 56.2203H92.69V56.6103C92.42 56.8803 92.12 57.1103 91.8 57.2803C92.2 57.3803 92.76 57.4503 93.48 57.5003L93.34 58.0903C92.47 58.0203 91.81 57.9003 91.35 57.7303C91.25 57.6903 91.15 57.6603 91.06 57.6203C90.5 57.8103 89.73 57.9803 88.76 58.1303L88.53 57.5403C89.26 57.4803 89.87 57.3903 90.37 57.2603C90.15 57.1303 89.93 56.9803 89.73 56.8103C89.5 56.9203 89.24 57.0303 88.94 57.1503L88.52 56.6503C89.05 56.5103 89.44 56.3603 89.71 56.2203C89.88 56.1303 90.03 56.0303 90.16 55.9003C90.13 55.8903 90.11 55.8703 90.1 55.8603C90 55.7803 89.96 55.6703 89.96 55.5303V54.9203H90.49V54.8903ZM89.87 55.1403C89.68 55.5703 89.46 55.9303 89.2 56.2303L88.73 55.8903C88.98 55.6203 89.21 55.3003 89.42 54.9403L89.87 55.1303V55.1403ZM92.27 53.1303V52.9103H89.78V53.1303H92.27ZM92.27 53.7203V53.5003H89.78V53.7203H92.27ZM92.27 54.3103V54.0903H89.78V54.3103H92.27ZM91.11 57.0303C91.38 56.9403 91.62 56.8103 91.84 56.6403H90.41C90.65 56.8103 90.89 56.9303 91.11 57.0303Z" fill="#3E3A39"/>
<path d="M98.15 56.5804C97.83 56.8404 97.46 57.0704 97.01 57.2704C97.11 57.3004 97.22 57.3104 97.33 57.3304C97.68 57.3804 98.38 57.4103 99.42 57.4203C100.17 57.4203 100.74 57.4104 101.11 57.3604L101.02 58.0004C99.02 58.0004 97.8 57.9704 97.37 57.9304C96.97 57.8704 96.65 57.7904 96.41 57.6904C96.19 57.6004 95.94 57.4004 95.65 57.0804C95.48 57.4204 95.26 57.7703 94.99 58.1603L94.55 57.6904C94.87 57.3004 95.09 56.9503 95.22 56.6603C95.33 56.4803 95.45 56.1103 95.59 55.5403H94.71V55.0104C94.95 54.7204 95.21 54.3204 95.48 53.8404H94.59V53.2804H96.16V53.7504C95.96 54.1404 95.71 54.5503 95.41 54.9803H96.19V55.3704C96.09 55.9004 95.99 56.3004 95.88 56.5604C96.19 56.8804 96.44 57.0704 96.64 57.1504C96.69 57.1804 96.75 57.2004 96.82 57.2104L96.48 56.7604C96.94 56.6004 97.34 56.4103 97.71 56.1703L98.15 56.5604V56.5804ZM96.11 52.6104L95.67 53.0604C95.49 52.7404 95.24 52.3904 94.91 52.0204L95.33 51.6304C95.64 51.9604 95.89 52.2904 96.11 52.6104ZM97.43 54.6504V54.3404H98.04V54.6504H99.15V54.3404H99.76V54.6504H100.82V55.1504H99.76V55.6603H100.96V56.1304H96.38V55.6603H97.42V55.1504H96.47V54.6504H97.42H97.43ZM98.41 53.1703H97.04V53.5304C97.04 53.6404 97.1 53.6904 97.24 53.6904H97.77C97.86 53.6904 97.93 53.6804 97.97 53.6504C98.02 53.6304 98.06 53.5104 98.08 53.2804L98.61 53.4504C98.56 53.8104 98.48 54.0204 98.37 54.0804C98.27 54.1504 98.09 54.1804 97.83 54.1804H97.04C96.87 54.1804 96.73 54.1403 96.63 54.0403C96.53 53.9503 96.48 53.8303 96.48 53.6703V51.7804H98.41V53.1703ZM97.04 52.7004H97.86V52.2504H97.04V52.7004ZM99.16 55.6603V55.1504H98.05V55.6603H99.16ZM100.75 53.1404H99.35V53.5604C99.35 53.6704 99.42 53.7204 99.58 53.7204H100.08C100.18 53.7204 100.25 53.7104 100.3 53.6804C100.36 53.6504 100.39 53.5204 100.41 53.2804L100.97 53.4504C100.91 53.8104 100.83 54.0204 100.71 54.0804C100.61 54.1504 100.42 54.1804 100.16 54.1804H99.34C99.16 54.1804 99.02 54.1404 98.91 54.0504C98.8 53.9604 98.75 53.8504 98.75 53.7004V51.7804H100.74V53.1504L100.75 53.1404ZM100.72 56.7404L100.36 57.3004C99.93 57.0304 99.49 56.8103 99.04 56.6603L99.35 56.1904C99.85 56.3504 100.31 56.5304 100.72 56.7504V56.7404ZM99.35 52.6904H100.17V52.2104H99.35V52.6904Z" fill="#3E3A39"/>
<path d="M3.33002 61.6104C2.87002 62.4804 2.39998 63.2004 1.91998 63.7504C2.05998 63.7604 2.18002 63.7604 2.27002 63.7604C3.34002 63.7604 4.40997 63.6704 5.46997 63.5004C5.20997 63.1404 4.91002 62.7803 4.58002 62.4103L5.09003 61.9404C5.76003 62.6904 6.32998 63.4303 6.78998 64.1703L6.26001 64.7004C6.15001 64.5004 6.02001 64.2904 5.89001 64.0904C4.47001 64.3004 2.74001 64.4203 0.700012 64.4203L0.559998 63.6404C0.799998 63.6704 1.01997 63.6804 1.21997 63.7004C1.67997 63.1404 2.16002 62.3604 2.65002 61.3604L3.31 61.6104H3.33002ZM6.23999 67.9704H5.53998V67.5304H1.73999V67.9504H1.03998V64.9304H6.23999V67.9704ZM5.53998 66.9103V65.5403H1.73999V66.9103H5.53998Z" fill="#3E3A39"/>
<path d="M10.66 61.4602V66.4402C10.87 66.3702 11.09 66.2902 11.3 66.2102V66.8802C10.38 67.2202 9.3 67.5502 8.06 67.8902L7.90002 67.1002C8.61002 66.9902 9.30999 66.8402 9.98999 66.6402V64.3102H8.03003V63.6402H9.98999V61.4602H10.66ZM12.34 61.4602V63.8502C13.01 63.5602 13.58 63.2402 14.04 62.8902L14.46 63.5002C13.85 63.9402 13.14 64.3002 12.34 64.6002V66.7402C12.34 66.8502 12.37 66.9402 12.43 67.0102C12.49 67.0702 12.57 67.1002 12.67 67.1002H13.42C13.51 67.1002 13.59 67.0702 13.63 67.0102C13.69 66.9502 13.76 66.5002 13.84 65.6702L14.51 65.8902C14.42 66.8002 14.33 67.3302 14.22 67.4802C14.07 67.6502 13.86 67.7402 13.59 67.7402H12.47C12.21 67.7402 12.02 67.6802 11.9 67.5502C11.72 67.3602 11.64 67.1402 11.64 66.8702V61.4502H12.34V61.4602Z" fill="#3E3A39"/>
<path d="M16.95 62.1601H17.85V62.7501H15.45V62.1601H16.3C16.26 61.9201 16.21 61.6801 16.17 61.4601L16.84 61.3801C16.88 61.6101 16.91 61.8701 16.95 62.1601ZM17.59 63.1901V63.7501H15.67V63.1901H17.59ZM17.62 64.2001V64.7601H15.67V64.2001H17.62ZM17.57 67.3001H16.31V67.7701H15.67V65.2601H17.57V67.3001ZM16.93 66.7101V65.8401H16.32V66.7101H16.93ZM22.01 63.0201H20.72C20.74 63.8201 20.78 64.5001 20.83 65.0401C21 64.6301 21.17 64.1301 21.36 63.5201L21.86 63.7802C21.6 64.6902 21.31 65.4501 20.97 66.0601C21.11 66.8101 21.24 67.1801 21.38 67.1801C21.47 67.1801 21.56 66.8301 21.66 66.1201L22.13 66.5901C21.94 67.4301 21.69 67.8501 21.38 67.8501C21.15 67.8501 20.96 67.7101 20.79 67.4401C20.68 67.3001 20.59 67.0802 20.52 66.7802C20.25 67.1402 19.92 67.4501 19.54 67.7401L19.2 67.2401C19.66 66.8801 20.04 66.4601 20.35 65.9801C20.35 65.9701 20.35 65.9601 20.35 65.9501C20.22 65.3201 20.14 64.3401 20.1 63.0201H18.59V63.7501H19.85C19.81 65.2601 19.76 66.0701 19.7 66.1901C19.66 66.3801 19.59 66.5201 19.49 66.5901C19.41 66.6901 19.27 66.7401 19.06 66.7501C18.85 66.7501 18.67 66.7501 18.53 66.7301L18.47 66.3101C18.39 66.8401 18.28 67.3601 18.12 67.8801L17.58 67.4001C17.74 66.9301 17.84 66.4401 17.9 65.9201C17.94 65.3901 17.97 64.9001 17.97 64.4401V62.4001H20.08C20.07 62.0801 20.07 61.7401 20.07 61.3701H20.68C20.68 61.7401 20.68 62.0801 20.69 62.4001H21.42C21.29 62.1901 21.14 61.9601 20.96 61.7001L21.41 61.4201C21.64 61.6801 21.82 61.8901 21.97 62.0601L21.48 62.4001H22V63.0101L22.01 63.0201ZM18.99 66.1201C19.06 66.1201 19.11 66.0801 19.14 65.9801C19.18 65.9201 19.21 65.3801 19.24 64.3601H18.6V64.4401C18.6 64.9601 18.56 65.5101 18.51 66.0701C18.78 66.1101 18.94 66.1201 19 66.1201H18.99Z" fill="#3E3A39"/>
<path d="M25.94 67.9504H25.33V67.5004H23.96V67.9504H23.35V64.6604H25.94V67.9504ZM25.33 66.9404V65.2104H23.96V66.9404H25.33ZM28.71 61.6904V64.0604H24.1V61.6904H28.71ZM28.04 62.3004H24.77V63.4504H28.04V62.3004ZM29.35 67.9504H28.74V67.5004H27.23V67.9504H26.62V64.6604H29.35V67.9504ZM28.74 66.9404V65.2104H27.23V66.9404H28.74Z" fill="#3E3A39"/>
<path d="M31.76 62.7504V61.3804H32.35V62.7504H33.24V63.3404H32.35V63.6603C32.72 64.0203 33.11 64.4204 33.49 64.8804L33.13 65.4404C32.82 65.0004 32.57 64.6504 32.35 64.3704V67.9504H31.76V64.4904C31.76 64.4904 31.73 64.5804 31.72 64.6104C31.49 65.2204 31.22 65.7604 30.9 66.2104L30.62 65.4604C31.05 64.8504 31.41 64.1404 31.69 63.3404H30.72V62.7504H31.76ZM34.66 61.8604C34.47 62.5504 34.31 63.0504 34.17 63.3604C34.03 63.7004 33.8 64.1004 33.46 64.5704L32.93 64.0904C33.22 63.7204 33.45 63.3503 33.63 62.9803C33.79 62.6103 33.93 62.1604 34.04 61.6404L34.65 61.8604H34.66ZM35.3 63.9304C34.96 65.0604 34.57 66.0504 34.15 66.9004C34.81 66.8404 35.4 66.7404 35.94 66.6104C35.78 66.2104 35.6 65.8204 35.42 65.4404L36.01 65.2804C36.38 65.9804 36.72 66.7803 37.01 67.6703L36.37 67.8404C36.3 67.6004 36.22 67.3604 36.14 67.1304C35.48 67.3104 34.45 67.4804 33.05 67.6404L32.96 66.9704C33.12 66.9704 33.27 66.9704 33.43 66.9504C33.89 65.9904 34.29 64.9104 34.63 63.7004L35.3 63.9203V63.9304ZM36.11 61.7204C36.28 62.5304 36.65 63.3004 37.2 64.0104L36.78 64.6003C36.49 64.2603 36.27 63.9104 36.11 63.5604C35.91 63.1904 35.75 62.7704 35.63 62.3004H34.83V61.7104H36.11V61.7204Z" fill="#3E3A39"/>
<path d="M39.93 61.8804V61.3804H40.6V61.8804H41.32V62.4904H40.6V62.9904H39.93V62.4904H38.23V61.8804H39.93ZM40.43 63.3904L40.07 63.7504H41.55V64.3104H39.66V64.9704H41.25C41.25 66.3104 41.22 67.1103 41.18 67.3503C41.14 67.5403 41.06 67.6704 40.96 67.7404C40.84 67.8104 40.61 67.8503 40.28 67.8503C40.13 67.8503 39.96 67.8404 39.77 67.8204L39.66 67.1804C39.86 67.2204 40.06 67.2404 40.27 67.2404C40.44 67.2404 40.54 67.1804 40.57 67.0504C40.6 66.8904 40.62 66.3804 40.63 65.5104H39.63C39.6 65.9104 39.54 66.2604 39.46 66.5504C39.34 66.9904 39.1 67.4403 38.76 67.9103L38.23 67.4304C38.52 67.0904 38.72 66.7204 38.84 66.3204C38.95 66.0104 39 65.5204 39 64.8604V64.3004H38.33V63.7404H39.87C39.66 63.5904 39.39 63.4304 39.05 63.2604L39.46 62.8704C39.83 63.0404 40.15 63.2104 40.41 63.3704L40.43 63.3904ZM43.2 63.1703C43.43 63.5603 43.67 63.8804 43.93 64.1104C44.11 64.3004 44.42 64.5204 44.84 64.7604L44.45 65.3503C44.25 65.2603 44.06 65.1304 43.87 64.9704C43.57 64.7304 43.27 64.3804 42.97 63.9304C42.76 64.2404 42.56 64.4904 42.37 64.6904C42.16 64.9004 41.88 65.1203 41.54 65.3503L41.23 64.7404C41.64 64.5004 41.95 64.2504 42.17 64.0004C42.34 63.8004 42.53 63.5304 42.73 63.1804H43.18L43.2 63.1703ZM42.47 61.8804V61.3804H43.14V61.8804H44.76V62.4904H43.14V63.0204H42.47V62.4904H41.69V61.8804H42.47ZM44.34 67.4103L43.95 68.0004C43.24 67.5004 42.52 67.1104 41.78 66.8304L42.12 66.3304C42.93 66.6404 43.67 67.0003 44.35 67.4203L44.34 67.4103ZM44.09 65.7903L43.73 66.3503C43.23 65.9803 42.72 65.6804 42.19 65.4604L42.5 64.9803C43.08 65.2103 43.61 65.4804 44.09 65.8004V65.7903Z" fill="#3E3A39"/>
<path d="M46.12 61.7603H47.24L48.9 66.8602L50.55 61.7603H51.66V67.7902H50.91V64.2302C50.91 64.1102 50.91 63.9002 50.91 63.6202C50.91 63.3402 50.91 63.0303 50.91 62.7103L49.26 67.7902H48.48L46.81 62.7103V62.8903C46.81 63.0403 46.81 63.2603 46.82 63.5703C46.82 63.8703 46.83 64.0902 46.83 64.2402V67.8002H46.08V61.7703L46.12 61.7603Z" fill="#3E3A39"/>
<path d="M52.45 61.7603H56.65V62.5002H53.22V64.3303H56.4V65.0303H53.22V67.0703H56.71V67.7902H52.45V61.7603Z" fill="#3E3A39"/>
<path d="M57.82 63.7C57.74 63.5 57.7 63.31 57.7 63.12C57.7 62.73 57.83 62.41 58.08 62.15C58.33 61.89 58.67 61.77 59.09 61.77C59.51 61.77 59.8 61.89 60.03 62.13C60.26 62.37 60.37 62.65 60.37 62.98C60.37 63.37 60.25 63.7 60.02 63.99C59.88 64.16 59.66 64.35 59.34 64.58L60.39 65.89C60.46 65.67 60.51 65.51 60.53 65.4C60.56 65.29 60.58 65.14 60.61 64.95H61.28C61.24 65.33 61.15 65.71 61.01 66.06C60.88 66.41 60.81 66.56 60.81 66.49L61.84 67.79H60.93L60.39 67.1C60.18 67.34 59.98 67.52 59.8 67.63C59.49 67.83 59.13 67.93 58.72 67.93C58.12 67.93 57.69 67.76 57.41 67.42C57.14 67.08 57 66.7 57 66.28C57 65.82 57.13 65.44 57.4 65.14C57.56 64.95 57.86 64.72 58.31 64.44C58.07 64.15 57.9 63.9 57.82 63.7ZM59.52 67.07C59.73 66.93 59.89 66.77 60 66.6L58.7 64.94C58.33 65.2 58.09 65.39 57.98 65.53C57.81 65.74 57.72 65.99 57.72 66.28C57.72 66.6 57.83 66.85 58.06 67.02C58.29 67.19 58.52 67.28 58.78 67.28C59.07 67.28 59.32 67.21 59.53 67.07H59.52ZM59.46 63.65C59.61 63.47 59.69 63.26 59.69 63.03C59.69 62.85 59.63 62.7 59.52 62.57C59.41 62.44 59.26 62.38 59.07 62.38C58.78 62.38 58.58 62.48 58.47 62.68C58.41 62.78 58.38 62.9 58.38 63.02C58.38 63.19 58.42 63.35 58.51 63.5C58.6 63.65 58.74 63.85 58.95 64.09C59.2 63.91 59.37 63.76 59.46 63.64V63.65Z" fill="#3E3A39"/>
<path d="M62.39 61.7603L63.48 66.6602L64.79 61.7603H65.64L66.95 66.6702L68.04 61.7603H68.9L67.38 67.7902H66.56L65.22 62.7902L63.88 67.7902H63.06L61.55 61.7603H62.4H62.39Z" fill="#3E3A39"/>
<path d="M69.21 61.7603H73.41V62.5002H69.98V64.3303H73.16V65.0303H69.98V67.0703H73.47V67.7902H69.21V61.7603Z" fill="#3E3A39"/>
<path d="M81.25 65.0701V65.66H78.89C79.04 65.95 79.21 66.1901 79.41 66.4001C79.73 66.2501 80.04 66.0201 80.33 65.7201L80.77 66.17C80.49 66.43 80.18 66.64 79.85 66.79C80.19 67.05 80.66 67.2401 81.24 67.3701L80.96 67.9601C80.24 67.7401 79.64 67.4201 79.15 67.0201C78.76 66.6901 78.44 66.23 78.17 65.66H77.44V67.11C77.85 67.04 78.27 66.9501 78.7 66.8301V67.4401C77.91 67.6401 77.05 67.8 76.11 67.92L76.02 67.2801C76.28 67.2701 76.54 67.2401 76.8 67.2101V65.66H75.84C75.84 65.66 75.84 65.7101 75.84 65.7201C75.71 66.4301 75.49 67.1201 75.19 67.8101L74.6 67.3101C74.89 66.7501 75.09 66.15 75.19 65.54C75.28 64.9 75.32 64.3101 75.32 63.7701V61.5601H80.99V63.35H79.9V63.91H81.01V64.4701H79.9V65.0901H81.24L81.25 65.0701ZM76 63.7601C76 64.1901 75.97 64.6301 75.92 65.0701H77.17V64.4501H76.14V63.8901H77.17V63.3301H76V63.7501V63.7601ZM76 62.1401V62.7501H80.35V62.1401H76ZM79.27 63.3401H77.79V63.9001H79.27V63.3401ZM79.27 65.0701V64.4501H77.79V65.0701H79.27Z" fill="#3E3A39"/>
<path d="M88.83 63.3304V64.0004H85.96V67.1204C85.96 67.3804 85.9 67.5603 85.78 67.6603C85.67 67.7703 85.47 67.8204 85.18 67.8204H84.26L84.12 67.1204C84.47 67.1604 84.76 67.1804 84.99 67.1804C85.18 67.1804 85.27 67.1304 85.27 67.0204V64.0004H82.23V63.3304H88.84H88.83ZM84.28 64.7504C84.05 65.4404 83.85 65.9404 83.68 66.2504C83.52 66.5904 83.23 66.9904 82.83 67.4604L82.27 66.9904C82.63 66.6004 82.91 66.2304 83.13 65.8604C83.33 65.4904 83.5 65.0304 83.65 64.5004L84.29 64.7504H84.28ZM87.96 61.6504V62.2903H83.11V61.6504H87.96ZM88.69 67.0604L87.99 67.3704C87.6 66.3604 87.18 65.4503 86.71 64.6703L87.37 64.4404C87.87 65.2604 88.31 66.1304 88.68 67.0604H88.69Z" fill="#3E3A39"/>
<path d="M91.81 61.4101C92.15 61.7701 92.46 62.1502 92.73 62.5302L92.31 62.9201C92.02 62.5101 91.8 62.1901 91.62 61.9801C91.16 62.4901 90.61 62.9801 89.97 63.4601L89.78 62.8501C90.34 62.4601 90.87 61.9801 91.35 61.4201H91.82L91.81 61.4101ZM91.94 63.2802H92.62V65.8701H90.89V67.0302C91.25 66.9702 91.61 66.8901 91.96 66.8001C91.84 66.5701 91.72 66.3601 91.59 66.1601L92.15 65.9901C92.45 66.4501 92.71 66.9301 92.93 67.4401L92.37 67.6901C92.31 67.5501 92.25 67.4002 92.19 67.2802C91.54 67.4502 90.8 67.6301 89.97 67.8101L89.83 67.2001C89.97 67.1901 90.11 67.1701 90.24 67.1401V63.2901H91.34C91.27 63.0801 91.19 62.8701 91.1 62.6801L91.71 62.6001C91.78 62.8101 91.85 63.0401 91.92 63.2901L91.94 63.2802ZM91.98 64.3201V63.7901H90.89V64.3201H91.98ZM91.98 65.3801V64.7901H90.89V65.3801H91.98ZM94.9 62.0302H96.31V63.4601H95.89V65.0501H93.69V65.5901H96.17V67.9801H95.56V67.5701H93.69V67.9801H93.08V63.4601H92.83V62.0302H94.28C94.19 61.8302 94.1 61.6402 94 61.4702L94.64 61.3901C94.73 61.5801 94.83 61.8002 94.91 62.0302H94.9ZM95.69 63.1501V62.6101H93.42V63.1501H95.69ZM95.27 64.4301V63.7601H93.68V64.4301H95.27ZM95.55 66.9702V66.1301H93.68V66.9702H95.55Z" fill="#3E3A39"/>
</svg>
