<?xml version="1.0" encoding="utf-8"?>
<!-- Generator: Adobe Illustrator 25.2.3, SVG Export Plug-In . SVG Version: 6.00 Build 0)  -->
<svg version="1.1" id="圖層_1" xmlns="http://www.w3.org/2000/svg" xmlns:xlink="http://www.w3.org/1999/xlink" x="0px" y="0px"
	 viewBox="0 0 380 115" style="enable-background:new 0 0 380 115;" xml:space="preserve">
<style type="text/css">
	.st0{fill:#C9A063;}
	.st1{fill:#FFFFFF;}
</style>
<path class="st0" d="M25,31.5v1.7H4.6v-28c0-1.9-1.2-3.5-3.9-4.3V0.7H25v1.7H9.5v12.9h13v2h-13v14.2H25z"/>
<path class="st0" d="M59.5,32.9v0.2h-4.8c-2,0-3.8-1-4.9-2.7l-7.4-11.3l-11,14h-2.5l12.3-15.8L32,3.2c-0.4-0.5-0.8-1-1.3-1.3
	c-0.5-0.4-1.2-0.7-1.8-0.8l-0.8-0.2V0.7H33c2,0,3.8,1,4.9,2.6l6.6,10.1l9.9-12.7h2.5L45.6,15.1l10,15.4c0.4,0.5,0.8,1,1.3,1.4
	c0.5,0.4,1.2,0.7,1.8,0.8L59.5,32.9z"/>
<path class="st0" d="M90.1,41.9v0.8c0,0-10.7-0.2-19.8-9.4C63.8,31.7,59,26.5,59,16.9C59,5.5,66,0,74.7,0s15.7,5.4,15.7,16.9
	c0,10-5.1,15.2-11.9,16.6C78.4,33.4,82.4,41.3,90.1,41.9z M74.7,32.3c5.7,0,10.3-4.7,10.3-15.4C85,6.4,80.4,1.5,74.7,1.5
	c-5.7,0-10.3,5.1-10.3,15.4C64.4,27.6,69,32.3,74.7,32.3z"/>
<path class="st0" d="M121,0.7v22c0,2-0.4,11.1-12.6,11.1c0,0-12.7,0.6-12.7-11.1V5.2c0-1.9-1.2-3.5-3.9-4.3V0.7h8.8v22
	c0,9.8,8.3,9.2,8.3,9.2c2.6,0,10.2-1,10.2-9.2v-22H121z"/>
<path class="st0" d="M132.5,0.7v32.5h-4.4v-28c0-1.9-1.2-3.5-3.9-4.3V0.7H132.5z"/>
<path class="st0" d="M157.7,24.8c0,3.4-2.5,9-10.2,9c-6.1,0-10-2.6-10.9-9.3h1.5c1,6.1,6,7.4,9,7.4c5.2,0,6.4-3.6,6.4-5.2
	c0-3.4-2.8-5.3-8.1-8c-3.4-1.7-9.1-4.6-9.1-10.1c0-7.1,7-8.5,9.5-8.5c6.2,0,8.8,3.3,9.7,7.9h-1.6c-0.7-2.4-2.4-6.1-8-6.1
	c-2.8,0-5.7,2.2-5.7,5c0,3.3,3.9,5.4,8,7.5C155.8,18.2,157.7,21,157.7,24.8z"/>
<path class="st0" d="M167.2,0.7v32.5h-4.4v-28c0-1.9-1.2-3.5-3.9-4.3V0.7H167.2z"/>
<path class="st0" d="M196.6,2.7h-10.7v30.5H181V2.7h-10.8v-2h26.4V2.7z"/>
<path class="st0" d="M224.1,31.5v1.7h-20.5v-28c0-1.9-1.2-3.5-3.9-4.3V0.7h24.4v1.7h-15.6v12.9h13v2h-13v14.2H224.1z"/>
<path class="st0" d="M29.5,74.5c-0.4,0.8-4,6.7-13.2,6.7c-9.9,0-15.7-7.5-15.7-16.9c0-9.3,5.8-16.9,15.7-16.9
	c9.4,0,12.9,6.2,13.3,6.8l-1.1,1.1c-10.2-12.2-22.3-4.1-22.3,9c0,12.1,12.1,21.3,22.2,9.1L29.5,74.5z"/>
<path class="st0" d="M58.9,80.4h-5.5L43,65.8c-1.3,0-2.6,0-3.6,0v14.6h-4.9V52.5c0-2-1.5-4-3.9-4.3V48h8.8c5.1,0,15.4-0.1,15.4,9.1
	c0,5.2-3.2,7.4-6.7,8.3L58.9,80.4z M48,62.2c0.3-0.4,0.6-0.8,0.8-1.2c0.3-0.5,0.4-1.1,0.6-1.7c0.1-0.7,0.2-1.5,0.2-2.3
	c-0.2-7.1-5.7-7.5-6.7-7.5h-3.5v14.6h3.5c0.6,0,1.2,0,1.7-0.1c0.8-0.1,1.7-0.4,2.4-0.8C47.4,62.8,47.7,62.6,48,62.2z"/>
<path class="st0" d="M62,80.4l14.6-32.5l14.9,32.5h-5.4l-2.8-6.1H66.9l-2.8,6.1H62z M67.7,72.6h14.8L75,56.3L67.7,72.6z"/>
<path class="st0" d="M101.3,49.6v12.9h13v2h-13v15.9h-4.9v-28c0-1.9-1.2-3.5-3.9-4.3v-0.2h24.4v1.7H101.3z"/>
<path class="st0" d="M146.4,49.9h-10.7v30.5h-4.9V49.9H120v-2h26.4V49.9z"/>
<path class="st0" d="M169.8,72.1c0,3.4-2.5,9-10.2,9c-6.1,0-10-2.6-10.9-9.3h1.5c1,6.1,6,7.4,9,7.4c5.2,0,6.4-3.6,6.4-5.2
	c0-3.4-2.8-5.3-8.1-8c-3.4-1.7-9.1-4.6-9.1-10.1c0-7.1,7-8.5,9.5-8.5c6.2,0,8.8,3.3,9.7,7.9H166c-0.7-2.4-2.4-6.1-8-6.1
	c-2.8,0-5.7,2.2-5.7,5c0,3.3,3.9,5.4,8,7.5C168,65.5,169.8,68.2,169.8,72.1z"/>
<path class="st1" d="M4.7,102.9c0,0.5-0.2,0.9-0.7,1.2c-0.4,0.2-0.8,0.3-1.4,0.3c-0.1,0-0.4,0-0.9,0v-5.2h0.9c0.5,0,0.9,0.1,1.2,0.2
	c0.4,0.2,0.6,0.5,0.6,0.9c0,0.3-0.1,0.5-0.3,0.8c-0.2,0.2-0.4,0.4-0.7,0.5c0.4,0.1,0.7,0.2,0.9,0.4C4.6,102.3,4.7,102.6,4.7,102.9z
	 M4.2,102.9c0-0.4-0.1-0.7-0.4-0.9c-0.2-0.2-0.5-0.3-0.9-0.3H2.6v-0.2h0.2c0.4,0,0.6-0.1,0.8-0.4c0.1-0.2,0.2-0.5,0.2-0.7
	c0-0.7-0.5-1.1-1.4-1.1H2.1v4.9h0.3C3.6,104.2,4.2,103.8,4.2,102.9z"/>
<path class="st1" d="M8.5,102.3h-2v-0.2H8c0-0.6-0.3-0.9-0.8-0.9c-0.3,0-0.6,0.1-0.8,0.4c-0.2,0.3-0.3,0.6-0.3,1.1s0.1,0.8,0.3,1.1
	c0.2,0.3,0.5,0.4,0.8,0.4c0.4,0,0.7-0.2,1-0.5l0.2,0.2c-0.3,0.3-0.7,0.5-1.1,0.5c-0.5,0-0.8-0.2-1.2-0.5c-0.3-0.3-0.5-0.7-0.5-1.2
	s0.2-0.9,0.5-1.2c0.3-0.3,0.7-0.5,1.1-0.5c0.3,0,0.6,0.1,0.9,0.4C8.4,101.7,8.5,102,8.5,102.3z"/>
<path class="st1" d="M11.7,102.3v2.1h-0.5v-0.3c-0.2,0.2-0.5,0.3-0.8,0.3c-0.3,0-0.6-0.1-0.8-0.3c-0.2-0.2-0.4-0.4-0.4-0.8
	c0-0.3,0.1-0.6,0.4-0.8c0.2-0.2,0.5-0.3,0.7-0.3c0.1,0,0.2,0,0.2,0c0.2,0,0.3,0.1,0.4,0.1l-0.1,0.2c-0.2-0.1-0.3-0.2-0.5-0.2
	s-0.4,0.1-0.5,0.2c-0.1,0.2-0.2,0.4-0.2,0.7c0,0.3,0.1,0.5,0.2,0.6c0.1,0.2,0.3,0.2,0.5,0.2c0.3,0,0.6-0.2,0.8-0.5V102
	c0-0.7-0.2-1-0.7-1c-0.3,0-0.5,0.1-0.8,0.3l-0.1-0.2c0.2-0.2,0.5-0.2,0.9-0.2C11.3,101.1,11.7,101.5,11.7,102.3z"/>
<path class="st1" d="M15.5,104.4H15v-0.6c-0.2,0.4-0.6,0.6-1,0.6c-0.8,0-1.2-0.4-1.2-1.2V101h0.5v2.2c0,0.7,0.2,1,0.7,1
	c0.3,0,0.5-0.2,0.7-0.5c0.1-0.2,0.2-0.4,0.2-0.6V101h0.5v3.4H15.5z"/>
<path class="st1" d="M17.9,101.3h-0.6v2c0,0.3,0,0.6,0.1,0.7s0.2,0.2,0.5,0.2v0.2c-0.7,0-1.1-0.4-1.1-1.1v-2h-0.3v-0.2h0.3v-0.4h0.5
	v0.4h0.6V101.3z"/>
<path class="st1" d="M21.6,101.1l-1.8,4.5h-0.2l0.5-1.3l-1.4-3.2h0.5l1.1,2.6l1-2.6H21.6z"/>
<path class="st1" d="M24.4,104.4h-0.5v-5h0.5V104.4z"/>
<path class="st1" d="M26.2,99.7c0,0.1,0,0.2-0.1,0.2S26,100,25.9,100s-0.2,0-0.2-0.1c0-0.1-0.1-0.1-0.1-0.2s0-0.2,0.1-0.2
	c0.1-0.1,0.1-0.1,0.2-0.1s0.2,0,0.2,0.1C26.1,99.5,26.2,99.6,26.2,99.7z M26.1,104.4h-0.5v-3.2h0.5V104.4z"/>
<path class="st1" d="M30,102.3h-2v-0.2h1.5c0-0.6-0.3-0.9-0.8-0.9c-0.3,0-0.6,0.1-0.8,0.4c-0.2,0.3-0.3,0.6-0.3,1.1s0.1,0.8,0.3,1.1
	c0.2,0.3,0.5,0.4,0.8,0.4c0.4,0,0.7-0.2,1-0.5l0.2,0.2c-0.3,0.3-0.7,0.5-1.1,0.5c-0.5,0-0.8-0.2-1.2-0.5c-0.3-0.3-0.5-0.7-0.5-1.2
	s0.2-0.9,0.5-1.2c0.3-0.3,0.7-0.5,1.1-0.5c0.3,0,0.6,0.1,0.9,0.4C29.9,101.7,30,102,30,102.3z"/>
<path class="st1" d="M32.7,103.6c0,0.3-0.1,0.5-0.3,0.6c-0.2,0.2-0.4,0.2-0.7,0.2c-0.4,0-0.7-0.1-0.9-0.4l0.2-0.2
	c0.2,0.3,0.5,0.4,0.8,0.4c0.2,0,0.3-0.1,0.4-0.2c0.1-0.1,0.2-0.3,0.2-0.4c0-0.2-0.1-0.4-0.3-0.5c-0.1-0.1-0.3-0.2-0.6-0.4
	c-0.4-0.2-0.5-0.5-0.5-0.9c0-0.2,0.1-0.4,0.3-0.6c0.2-0.1,0.4-0.2,0.6-0.2c0.1,0,0.3,0,0.5,0.1c0.2,0.1,0.3,0.2,0.3,0.3l-0.2,0.2
	c-0.2-0.3-0.4-0.4-0.7-0.4s-0.5,0.1-0.5,0.4c0,0.2,0.1,0.4,0.3,0.6c0.4,0.2,0.6,0.4,0.7,0.5C32.6,102.9,32.7,103.2,32.7,103.6z"/>
<path class="st1" d="M35.7,99.7c0,0.1,0,0.2-0.1,0.2c-0.1,0-0.1,0.1-0.2,0.1c-0.1,0-0.2,0-0.2-0.1c0-0.1-0.1-0.1-0.1-0.2
	s0-0.2,0.1-0.2c0.1-0.1,0.1-0.1,0.2-0.1c0.1,0,0.2,0,0.2,0.1C35.7,99.5,35.7,99.6,35.7,99.7z M35.6,104.4h-0.5v-3.2h0.5V104.4z"/>
<path class="st1" d="M39.4,104.4h-0.5v-2.2c0-0.7-0.2-1-0.7-1s-0.8,0.3-1,0.9v2.3h-0.5v-3.2h0.5v0.4c0.3-0.4,0.6-0.5,1-0.5
	c0.4,0,0.7,0.1,0.8,0.2c0.2,0.2,0.3,0.5,0.3,0.9v2.2H39.4z"/>
<path class="st1" d="M43.3,101.3h-0.6v2c0,0.3,0,0.6,0.1,0.7c0.1,0.1,0.2,0.2,0.5,0.2v0.2c-0.7,0-1.1-0.4-1.1-1.1v-2h-0.3v-0.2h0.3
	v-0.4h0.5v0.4h0.6V101.3z"/>
<path class="st1" d="M46.8,104.4h-0.5v-2.2c0-0.7-0.2-1-0.7-1s-0.8,0.3-1,0.9v2.3h-0.5v-5h0.5v2.2c0.3-0.4,0.6-0.5,1-0.5
	c0.4,0,0.7,0.1,0.8,0.2c0.2,0.2,0.3,0.5,0.3,0.9L46.8,104.4L46.8,104.4z"/>
<path class="st1" d="M50.7,102.3h-2v-0.2h1.5c0-0.6-0.3-0.9-0.8-0.9c-0.3,0-0.6,0.1-0.8,0.4c-0.2,0.3-0.3,0.6-0.3,1.1
	s0.1,0.8,0.3,1.1c0.2,0.3,0.5,0.4,0.8,0.4c0.4,0,0.7-0.2,1-0.5l0.2,0.2c-0.3,0.3-0.7,0.5-1.1,0.5c-0.5,0-0.8-0.2-1.2-0.5
	c-0.3-0.3-0.5-0.7-0.5-1.2s0.2-0.9,0.5-1.2s0.7-0.5,1.1-0.5c0.3,0,0.6,0.1,0.9,0.4C50.6,101.7,50.7,102,50.7,102.3z"/>
<path class="st1" d="M55.8,104c-0.3,0.3-0.7,0.4-1.1,0.4c-0.5,0-0.8-0.2-1.2-0.5c-0.3-0.3-0.5-0.7-0.5-1.2s0.2-0.9,0.5-1.2
	s0.7-0.5,1.2-0.5c0.4,0,0.7,0.1,1,0.3l-0.1,0.2c-0.2-0.2-0.5-0.4-0.9-0.4c-0.3,0-0.6,0.2-0.8,0.5c-0.2,0.3-0.3,0.6-0.3,1
	s0.1,0.8,0.3,1c0.2,0.3,0.5,0.5,0.8,0.5c0.4,0,0.7-0.2,1-0.5L55.8,104z"/>
<path class="st1" d="M59.6,102.7c0,0.5-0.2,0.9-0.5,1.2c-0.3,0.3-0.7,0.5-1.2,0.5s-0.8-0.2-1.2-0.5c-0.3-0.3-0.5-0.7-0.5-1.2
	s0.2-0.9,0.5-1.2s0.7-0.5,1.2-0.5s0.8,0.2,1.2,0.5C59.4,101.9,59.6,102.3,59.6,102.7z M59,102.7c0-0.4-0.1-0.8-0.3-1.1
	c-0.2-0.3-0.5-0.4-0.8-0.4c-0.3,0-0.6,0.1-0.8,0.4c-0.2,0.3-0.3,0.6-0.3,1.1s0.1,0.8,0.3,1.1c0.2,0.3,0.5,0.4,0.8,0.4
	c0.3,0,0.6-0.1,0.8-0.4C58.9,103.5,59,103.1,59,102.7z"/>
<path class="st1" d="M65,104.4h-0.5v-2.2c0-0.3,0-0.5-0.1-0.7c-0.1-0.1-0.2-0.2-0.5-0.2c-0.4,0-0.6,0.3-0.9,0.8v0.1v2.2h-0.5v-2.2
	c0-0.3,0-0.5-0.1-0.7c-0.1-0.1-0.3-0.2-0.5-0.2c-0.2,0-0.3,0.1-0.5,0.2c-0.2,0.2-0.3,0.4-0.4,0.6v2.3h-0.5v-3.2H61v0.4
	c0.3-0.3,0.6-0.5,0.9-0.5c0.5,0,0.8,0.2,1,0.5c0.3-0.4,0.6-0.5,1-0.5c0.7,0,1.1,0.4,1.1,1.1V104.4z"/>
<path class="st1" d="M68.8,102.7c0,0.5-0.1,0.9-0.4,1.2c-0.3,0.3-0.6,0.5-1.1,0.5c-0.3,0-0.6-0.1-0.8-0.4v0.3H66v-5h0.5v4.2
	c0.1,0.2,0.2,0.4,0.3,0.5c0.1,0.1,0.3,0.2,0.5,0.2c0.3,0,0.5-0.1,0.7-0.4c0.2-0.3,0.3-0.6,0.3-1.1c0-0.4-0.1-0.8-0.3-1.1
	c-0.2-0.3-0.4-0.4-0.7-0.4c-0.2,0-0.3,0.1-0.4,0.2l-0.1-0.2c0.2-0.1,0.4-0.1,0.6-0.1c0.4,0,0.8,0.2,1.1,0.5
	C68.7,101.9,68.8,102.3,68.8,102.7z"/>
<path class="st1" d="M70.5,99.7c0,0.1,0,0.2-0.1,0.2s-0.1,0.1-0.2,0.1c-0.1,0-0.2,0-0.2-0.1c0-0.1-0.1-0.1-0.1-0.2s0-0.2,0.1-0.2
	c0.1-0.1,0.1-0.1,0.2-0.1c0.1,0,0.2,0,0.2,0.1C70.4,99.5,70.5,99.6,70.5,99.7z M70.4,104.4h-0.5v-3.2h0.5V104.4z"/>
<path class="st1" d="M74.2,104.4h-0.5v-2.2c0-0.7-0.2-1-0.7-1s-0.8,0.3-1,0.9v2.3h-0.5v-3.2H72v0.4c0.3-0.4,0.6-0.5,1-0.5
	s0.7,0.1,0.8,0.2c0.2,0.2,0.3,0.5,0.3,0.9L74.2,104.4L74.2,104.4z"/>
<path class="st1" d="M77.6,102.3v2.1h-0.5v-0.3c-0.2,0.2-0.5,0.3-0.8,0.3c-0.3,0-0.6-0.1-0.8-0.3c-0.2-0.2-0.4-0.4-0.4-0.8
	c0-0.3,0.1-0.6,0.4-0.8c0.2-0.2,0.5-0.3,0.7-0.3c0.1,0,0.2,0,0.2,0c0.2,0,0.3,0.1,0.4,0.1l-0.1,0.2c-0.2-0.1-0.3-0.2-0.5-0.2
	c-0.2,0-0.4,0.1-0.5,0.2c-0.1,0.2-0.2,0.4-0.2,0.7c0,0.3,0.1,0.5,0.2,0.6c0.1,0.2,0.3,0.2,0.5,0.2c0.3,0,0.6-0.2,0.8-0.5V102
	c0-0.7-0.2-1-0.7-1c-0.3,0-0.5,0.1-0.8,0.3l-0.1-0.2c0.2-0.2,0.5-0.2,0.9-0.2C77.2,101.1,77.6,101.5,77.6,102.3z"/>
<path class="st1" d="M80,101.3h-0.6v2c0,0.3,0,0.6,0.1,0.7s0.2,0.2,0.5,0.2v0.2c-0.7,0-1.1-0.4-1.1-1.1v-2h-0.3v-0.2h0.3v-0.4h0.5
	v0.4H80V101.3z"/>
<path class="st1" d="M81.5,99.7c0,0.1,0,0.2-0.1,0.2s-0.1,0.1-0.2,0.1c-0.1,0-0.2,0-0.2-0.1c0-0.1-0.1-0.1-0.1-0.2s0-0.2,0.1-0.2
	c0.1-0.1,0.1-0.1,0.2-0.1c0.1,0,0.2,0,0.2,0.1C81.4,99.5,81.5,99.6,81.5,99.7z M81.4,104.4h-0.5v-3.2h0.5V104.4z"/>
<path class="st1" d="M85.7,102.7c0,0.5-0.2,0.9-0.5,1.2c-0.3,0.3-0.7,0.5-1.2,0.5s-0.8-0.2-1.2-0.5c-0.3-0.3-0.5-0.7-0.5-1.2
	s0.2-0.9,0.5-1.2c0.3-0.3,0.7-0.5,1.2-0.5s0.8,0.2,1.2,0.5C85.6,101.9,85.7,102.3,85.7,102.7z M85.2,102.7c0-0.4-0.1-0.8-0.3-1.1
	c-0.2-0.3-0.5-0.4-0.8-0.4c-0.3,0-0.6,0.1-0.8,0.4c-0.2,0.3-0.3,0.6-0.3,1.1s0.1,0.8,0.3,1.1c0.2,0.3,0.5,0.4,0.8,0.4
	c0.3,0,0.6-0.1,0.8-0.4C85.1,103.5,85.2,103.1,85.2,102.7z"/>
<path class="st1" d="M89.4,104.4h-0.5v-2.2c0-0.7-0.2-1-0.7-1s-0.8,0.3-1,0.9v2.3h-0.5v-3.2h0.5v0.4c0.3-0.4,0.6-0.5,1-0.5
	c0.4,0,0.7,0.1,0.8,0.2c0.2,0.2,0.3,0.5,0.3,0.9L89.4,104.4L89.4,104.4z"/>
<path class="st1" d="M95.2,102.7c0,0.5-0.2,0.9-0.5,1.2c-0.3,0.3-0.7,0.5-1.2,0.5s-0.8-0.2-1.2-0.5c-0.3-0.3-0.5-0.7-0.5-1.2
	s0.2-0.9,0.5-1.2c0.3-0.3,0.7-0.5,1.2-0.5s0.8,0.2,1.2,0.5C95,101.9,95.2,102.3,95.2,102.7z M94.6,102.7c0-0.4-0.1-0.8-0.3-1.1
	c-0.2-0.3-0.5-0.4-0.8-0.4s-0.6,0.1-0.8,0.4c-0.2,0.3-0.3,0.6-0.3,1.1s0.1,0.8,0.3,1.1c0.2,0.3,0.5,0.4,0.8,0.4s0.6-0.1,0.8-0.4
	C94.5,103.5,94.6,103.1,94.6,102.7z"/>
<path class="st1" d="M97.4,101.3h-0.6v3.1h-0.5v-3.1H96v-0.2h0.3v-0.7c0-0.7,0.4-1.1,1.1-1.1v0.2c-0.2,0-0.4,0.1-0.5,0.2
	s-0.1,0.4-0.1,0.7v0.7h0.6V101.3z"/>
<path class="st1" d="M4.3,113.4H3.8v-2.2c0-0.7-0.2-1-0.7-1s-0.8,0.3-1,0.9v2.3H1.6v-3.2h0.5v0.4c0.3-0.4,0.6-0.5,1-0.5
	s0.7,0.1,0.8,0.2c0.2,0.2,0.3,0.5,0.3,0.9v2.2H4.3z"/>
<path class="st1" d="M7.7,111.3v2.1H7.2v-0.3c-0.2,0.2-0.5,0.3-0.8,0.3s-0.6-0.1-0.8-0.3c-0.2-0.2-0.4-0.4-0.4-0.8
	c0-0.3,0.1-0.6,0.4-0.8c0.2-0.2,0.5-0.3,0.7-0.3c0.1,0,0.2,0,0.2,0c0.2,0,0.3,0.1,0.4,0.1l-0.1,0.2c-0.2-0.1-0.3-0.2-0.5-0.2
	c-0.2,0-0.4,0.1-0.5,0.2c-0.1,0.2-0.2,0.4-0.2,0.7c0,0.3,0.1,0.5,0.2,0.6c0.1,0.2,0.3,0.2,0.5,0.2c0.3,0,0.6-0.2,0.8-0.5V111
	c0-0.7-0.2-1-0.7-1c-0.3,0-0.5,0.1-0.8,0.3l-0.1-0.2c0.2-0.2,0.5-0.2,0.9-0.2C7.3,110.1,7.7,110.5,7.7,111.3z"/>
<path class="st1" d="M10.1,110.3H9.4v2c0,0.3,0,0.6,0.1,0.7c0.1,0.1,0.2,0.2,0.5,0.2v0.2c-0.7,0-1.1-0.4-1.1-1.1v-2H8.7v-0.2H9v-0.4
	h0.5v0.4h0.6V110.3z"/>
<path class="st1" d="M13.6,113.4h-0.5v-0.6c-0.2,0.4-0.6,0.6-1,0.6c-0.8,0-1.2-0.4-1.2-1.2V110h0.5v2.2c0,0.7,0.2,1,0.7,1
	c0.3,0,0.5-0.2,0.7-0.5c0.1-0.2,0.2-0.4,0.2-0.6V110h0.5v3.4H13.6z"/>
<path class="st1" d="M16.2,110.2l-0.1,0.2c-0.1-0.1-0.3-0.1-0.4-0.1c-0.1,0-0.1,0-0.2,0.1c-0.2,0.1-0.3,0.4-0.3,0.9v2.1h-0.5v-3.2
	h0.5v0.4c0.1-0.1,0.1-0.2,0.2-0.3c0.1-0.1,0.2-0.1,0.4-0.1S16.1,110.1,16.2,110.2z"/>
<path class="st1" d="M19.3,111.3v2.1h-0.5v-0.3c-0.2,0.2-0.5,0.3-0.8,0.3s-0.6-0.1-0.8-0.3c-0.2-0.2-0.4-0.4-0.4-0.8
	c0-0.3,0.1-0.6,0.4-0.8c0.2-0.2,0.5-0.3,0.7-0.3c0.1,0,0.2,0,0.2,0c0.2,0,0.3,0.1,0.4,0.1l-0.1,0.2c-0.2-0.1-0.3-0.2-0.5-0.2
	c-0.2,0-0.4,0.1-0.5,0.2c-0.1,0.2-0.2,0.4-0.2,0.7c0,0.3,0.1,0.5,0.2,0.6c0.1,0.2,0.3,0.2,0.5,0.2c0.3,0,0.6-0.2,0.8-0.5V111
	c0-0.7-0.2-1-0.7-1c-0.3,0-0.5,0.1-0.8,0.3l-0.1-0.2c0.2-0.2,0.5-0.2,0.9-0.2C18.9,110.1,19.3,110.5,19.3,111.3z"/>
<path class="st1" d="M20.9,113.4h-0.5v-5h0.5V113.4z"/>
<path class="st1" d="M23.9,113.4h-0.5v-5h0.5V113.4z"/>
<path class="st1" d="M27.3,111.3v2.1h-0.5v-0.3c-0.2,0.2-0.5,0.3-0.8,0.3s-0.6-0.1-0.8-0.3c-0.2-0.2-0.4-0.4-0.4-0.8
	c0-0.3,0.1-0.6,0.4-0.8c0.2-0.2,0.5-0.3,0.7-0.3c0.1,0,0.2,0,0.2,0c0.2,0,0.3,0.1,0.4,0.1l-0.1,0.2c-0.2-0.1-0.3-0.2-0.5-0.2
	c-0.2,0-0.4,0.1-0.5,0.2c-0.1,0.2-0.2,0.4-0.2,0.7c0,0.3,0.1,0.5,0.2,0.6c0.1,0.2,0.3,0.2,0.5,0.2c0.3,0,0.6-0.2,0.8-0.5V111
	c0-0.7-0.2-1-0.7-1c-0.3,0-0.5,0.1-0.8,0.3l-0.1-0.2c0.2-0.2,0.5-0.2,0.9-0.2C26.9,110.1,27.3,110.5,27.3,111.3z"/>
<path class="st1" d="M31.1,113.4h-0.5v-2.2c0-0.7-0.2-1-0.7-1s-0.8,0.3-1,0.9v2.3h-0.5v-3.2H29v0.4c0.3-0.4,0.6-0.5,1-0.5
	s0.7,0.1,0.8,0.2c0.2,0.2,0.3,0.5,0.3,0.9V113.4z"/>
<path class="st1" d="M34.9,113.4h-0.5V113c-0.2,0.2-0.5,0.4-0.8,0.4c-0.4,0-0.8-0.2-1.1-0.5c-0.3-0.3-0.4-0.7-0.4-1.2
	s0.1-0.9,0.4-1.2s0.6-0.5,1.1-0.5c0.2,0,0.4,0,0.6,0.1l-0.1,0.2c-0.1-0.1-0.3-0.2-0.5-0.2c-0.2,0-0.5,0.1-0.6,0.4
	c-0.2,0.3-0.3,0.7-0.3,1.1s0.1,0.8,0.3,1.1c0.2,0.3,0.4,0.4,0.7,0.4c0.2,0,0.3-0.1,0.5-0.2c0.1-0.1,0.2-0.3,0.3-0.5v-4.2H35
	L34.9,113.4L34.9,113.4z"/>
<path class="st1" d="M37.8,112.6c0,0.3-0.1,0.5-0.3,0.6c-0.2,0.2-0.4,0.2-0.7,0.2c-0.4,0-0.7-0.1-0.9-0.4l0.2-0.2
	c0.2,0.3,0.5,0.4,0.8,0.4c0.2,0,0.3-0.1,0.4-0.2c0.1-0.1,0.2-0.3,0.2-0.4c0-0.2-0.1-0.4-0.3-0.5c-0.1-0.1-0.3-0.2-0.6-0.4
	c-0.4-0.2-0.5-0.5-0.5-0.9c0-0.2,0.1-0.4,0.3-0.6c0.2-0.1,0.4-0.2,0.6-0.2c0.1,0,0.3,0,0.5,0.1s0.3,0.2,0.3,0.3l-0.2,0.2
	c-0.2-0.3-0.4-0.4-0.7-0.4c-0.3,0-0.5,0.1-0.5,0.4c0,0.2,0.1,0.4,0.3,0.6c0.4,0.2,0.6,0.4,0.7,0.5C37.7,111.9,37.8,112.2,37.8,112.6
	z"/>
<path class="st1" d="M41.5,113c-0.3,0.3-0.7,0.4-1.1,0.4c-0.5,0-0.8-0.2-1.2-0.5c-0.3-0.3-0.5-0.7-0.5-1.2s0.2-0.9,0.5-1.2
	s0.7-0.5,1.2-0.5c0.4,0,0.7,0.1,1,0.3l-0.1,0.2c-0.2-0.2-0.5-0.4-0.9-0.4c-0.3,0-0.6,0.2-0.8,0.5c-0.2,0.3-0.3,0.6-0.3,1
	s0.1,0.8,0.3,1c0.2,0.3,0.5,0.5,0.8,0.5c0.4,0,0.7-0.2,1-0.5L41.5,113z"/>
<path class="st1" d="M44.5,111.3v2.1H44v-0.3c-0.2,0.2-0.5,0.3-0.8,0.3s-0.6-0.1-0.8-0.3c-0.2-0.2-0.4-0.4-0.4-0.8
	c0-0.3,0.1-0.6,0.4-0.8c0.2-0.2,0.5-0.3,0.7-0.3c0.1,0,0.2,0,0.2,0c0.2,0,0.3,0.1,0.4,0.1l-0.1,0.2c-0.2-0.1-0.3-0.2-0.5-0.2
	c-0.2,0-0.4,0.1-0.5,0.2c-0.1,0.2-0.2,0.4-0.2,0.7c0,0.3,0.1,0.5,0.2,0.6c0.1,0.2,0.3,0.2,0.5,0.2c0.3,0,0.6-0.2,0.8-0.5V111
	c0-0.7-0.2-1-0.7-1c-0.3,0-0.5,0.1-0.8,0.3l-0.1-0.2c0.2-0.2,0.5-0.2,0.9-0.2C44.1,110.1,44.5,110.5,44.5,111.3z"/>
<path class="st1" d="M48.4,111.8c0,0.5-0.1,0.8-0.4,1.2c-0.3,0.3-0.6,0.5-1,0.5c-0.2,0-0.4,0-0.6-0.1l0.1-0.2
	c0.1,0.1,0.3,0.2,0.5,0.2s0.5-0.1,0.6-0.4c0.2-0.3,0.3-0.6,0.3-1.1c0-0.4-0.1-0.8-0.3-1.1c-0.2-0.3-0.4-0.4-0.7-0.4
	c-0.2,0-0.3,0.1-0.5,0.2c-0.2,0.1-0.2,0.3-0.3,0.5v3.6h-0.5v-4.4h0.5v0.3c0.2-0.2,0.5-0.4,0.8-0.4c0.4,0,0.8,0.2,1,0.5
	C48.2,110.9,48.4,111.3,48.4,111.8z"/>
<path class="st1" d="M52.2,111.3h-2v-0.2h1.5c0-0.6-0.3-0.9-0.8-0.9c-0.3,0-0.6,0.1-0.8,0.4c-0.2,0.3-0.3,0.6-0.3,1.1
	s0.1,0.8,0.3,1.1c0.2,0.3,0.5,0.4,0.8,0.4c0.4,0,0.7-0.2,1-0.5l0.2,0.2c-0.3,0.3-0.7,0.5-1.1,0.5c-0.5,0-0.8-0.2-1.2-0.5
	c-0.3-0.3-0.5-0.7-0.5-1.2s0.2-0.9,0.5-1.2s0.7-0.5,1.1-0.5c0.3,0,0.6,0.1,0.9,0.4C52,110.7,52.2,111,52.2,111.3z"/>
<path class="st1" d="M56.8,111.3v2.1h-0.5v-0.3c-0.2,0.2-0.5,0.3-0.8,0.3s-0.6-0.1-0.8-0.3c-0.2-0.2-0.4-0.4-0.4-0.8
	c0-0.3,0.1-0.6,0.4-0.8c0.2-0.2,0.5-0.3,0.7-0.3c0.1,0,0.2,0,0.2,0c0.2,0,0.3,0.1,0.4,0.1l-0.1,0.2c-0.2-0.1-0.3-0.2-0.5-0.2
	c-0.2,0-0.4,0.1-0.5,0.2c-0.1,0.2-0.2,0.4-0.2,0.7c0,0.3,0.1,0.5,0.2,0.6c0.1,0.2,0.3,0.2,0.5,0.2c0.3,0,0.6-0.2,0.8-0.5V111
	c0-0.7-0.2-1-0.7-1c-0.3,0-0.5,0.1-0.8,0.3l-0.1-0.2c0.2-0.2,0.5-0.2,0.9-0.2C56.5,110.1,56.8,110.5,56.8,111.3z"/>
<path class="st1" d="M60.6,113.4h-0.5v-2.2c0-0.7-0.2-1-0.7-1s-0.8,0.3-1,0.9v2.3H58v-3.2h0.5v0.4c0.3-0.4,0.6-0.5,1-0.5
	s0.7,0.1,0.8,0.2c0.2,0.2,0.3,0.5,0.3,0.9V113.4z"/>
<path class="st1" d="M64.4,113.4h-0.5V113c-0.2,0.2-0.5,0.4-0.8,0.4c-0.4,0-0.8-0.2-1.1-0.5c-0.3-0.3-0.4-0.7-0.4-1.2
	s0.1-0.9,0.4-1.2s0.6-0.5,1.1-0.5c0.2,0,0.4,0,0.6,0.1l-0.1,0.2c-0.2-0.1-0.3-0.2-0.5-0.2c-0.2,0-0.5,0.1-0.6,0.4
	c-0.2,0.3-0.3,0.7-0.3,1.1s0.1,0.8,0.3,1.1c0.2,0.3,0.4,0.4,0.7,0.4c0.2,0,0.3-0.1,0.5-0.2c0.1-0.1,0.2-0.3,0.3-0.5v-4.2h0.5
	L64.4,113.4L64.4,113.4z"/>
<path class="st1" d="M69.3,111.3v2.1h-0.5v-0.3c-0.2,0.2-0.5,0.3-0.8,0.3s-0.6-0.1-0.8-0.3c-0.2-0.2-0.4-0.4-0.4-0.8
	c0-0.3,0.1-0.6,0.4-0.8c0.2-0.2,0.5-0.3,0.7-0.3c0.1,0,0.2,0,0.2,0c0.2,0,0.3,0.1,0.4,0.1l-0.1,0.2c-0.2-0.1-0.3-0.2-0.5-0.2
	c-0.2,0-0.4,0.1-0.5,0.2c-0.1,0.2-0.2,0.4-0.2,0.7c0,0.3,0.1,0.5,0.2,0.6c0.1,0.2,0.3,0.2,0.5,0.2c0.3,0,0.6-0.2,0.8-0.5V111
	c0-0.7-0.2-1-0.7-1c-0.3,0-0.5,0.1-0.8,0.3l-0.1-0.2c0.2-0.2,0.5-0.2,0.9-0.2C68.9,110.1,69.3,110.5,69.3,111.3z"/>
<path class="st1" d="M71.9,110.2l-0.1,0.2c-0.1-0.1-0.3-0.1-0.4-0.1s-0.1,0-0.2,0.1c-0.2,0.1-0.3,0.4-0.3,0.9v2.1h-0.5v-3.2h0.5v0.4
	c0.1-0.1,0.1-0.2,0.2-0.3c0.1-0.1,0.2-0.1,0.4-0.1C71.7,110.1,71.8,110.1,71.9,110.2z"/>
<path class="st1" d="M74.2,110.3h-0.6v2c0,0.3,0,0.6,0.1,0.7c0.1,0.1,0.2,0.2,0.5,0.2v0.2c-0.7,0-1.1-0.4-1.1-1.1v-2h-0.3v-0.2h0.3
	v-0.4h0.5v0.4h0.6V110.3z"/>
<path class="st1" d="M75.7,108.7c0,0.1,0,0.2-0.1,0.2s-0.1,0.1-0.2,0.1s-0.2,0-0.2-0.1s-0.1-0.1-0.1-0.2c0-0.1,0-0.2,0.1-0.2
	c0.1-0.1,0.1-0.1,0.2-0.1s0.2,0,0.2,0.1C75.7,108.5,75.7,108.6,75.7,108.7z M75.6,113.4h-0.5v-3.2h0.5V113.4z"/>
<path class="st1" d="M78.5,112.6c0,0.3-0.1,0.5-0.3,0.6c-0.2,0.2-0.4,0.2-0.7,0.2c-0.4,0-0.7-0.1-0.9-0.4l0.2-0.2
	c0.2,0.3,0.5,0.4,0.8,0.4c0.2,0,0.3-0.1,0.4-0.2s0.2-0.3,0.2-0.4c0-0.2-0.1-0.4-0.3-0.5c-0.1-0.1-0.3-0.2-0.6-0.4
	c-0.4-0.2-0.5-0.5-0.5-0.9c0-0.2,0.1-0.4,0.3-0.6c0.2-0.1,0.4-0.2,0.6-0.2c0.2,0,0.3,0,0.5,0.1c0.2,0.1,0.3,0.2,0.3,0.3l-0.2,0.2
	c-0.2-0.3-0.4-0.4-0.7-0.4c-0.3,0-0.5,0.1-0.6,0.4c0,0.2,0.1,0.4,0.3,0.6c0.4,0.2,0.6,0.4,0.7,0.5C78.4,111.9,78.5,112.2,78.5,112.6
	z"/>
<path class="st1" d="M80.8,110.3h-0.6v2c0,0.3,0,0.6,0.1,0.7c0.1,0.1,0.2,0.2,0.5,0.2v0.2c-0.7,0-1.1-0.4-1.1-1.1v-2h-0.3v-0.2h0.3
	v-0.4h0.5v0.4h0.6V110.3z"/>
<path class="st1" d="M82.3,108.7c0,0.1,0,0.2-0.1,0.2c-0.1,0-0.2,0.1-0.2,0.1c-0.1,0-0.2,0-0.2-0.1s-0.1-0.1-0.1-0.2
	c0-0.1,0-0.2,0.1-0.2c0.1-0.1,0.1-0.1,0.2-0.1s0.2,0,0.2,0.1C82.2,108.5,82.3,108.6,82.3,108.7z M82.2,113.4h-0.5v-3.2h0.5V113.4z"
	/>
<path class="st1" d="M86,113c-0.3,0.3-0.7,0.4-1.1,0.4c-0.5,0-0.8-0.2-1.2-0.5c-0.3-0.3-0.5-0.7-0.5-1.2s0.2-0.9,0.5-1.2
	c0.3-0.3,0.7-0.5,1.2-0.5c0.4,0,0.7,0.1,1,0.3l-0.1,0.2c-0.2-0.2-0.5-0.4-0.9-0.4c-0.3,0-0.6,0.2-0.8,0.5c-0.2,0.3-0.3,0.6-0.3,1
	s0.1,0.8,0.3,1c0.2,0.3,0.5,0.5,0.8,0.5c0.4,0,0.7-0.2,1-0.5L86,113z"/>
<path class="st1" d="M90.8,111.3h-2v-0.2h1.5c0-0.6-0.3-0.9-0.8-0.9c-0.3,0-0.6,0.1-0.8,0.4c-0.2,0.3-0.3,0.6-0.3,1.1
	s0.1,0.8,0.3,1.1c0.2,0.3,0.5,0.4,0.8,0.4c0.4,0,0.7-0.2,1-0.5l0.2,0.2c-0.3,0.3-0.7,0.5-1.1,0.5c-0.5,0-0.8-0.2-1.2-0.5
	c-0.3-0.3-0.5-0.7-0.5-1.2s0.2-0.9,0.5-1.2c0.3-0.3,0.7-0.5,1.1-0.5c0.3,0,0.6,0.1,0.9,0.4C90.7,110.7,90.8,111,90.8,111.3z"/>
<path class="st1" d="M94.5,113.4h-0.6l-1-1.5l-1.2,1.5h-0.2l1.3-1.6l-1.1-1.6h0.6l0.9,1.3l1-1.3h0.2l-1.1,1.4L94.5,113.4z"/>
<path class="st1" d="M98,111.8c0,0.5-0.1,0.8-0.4,1.2c-0.3,0.3-0.6,0.5-1,0.5c-0.2,0-0.4,0-0.6-0.1l0.1-0.2c0.1,0.1,0.3,0.2,0.5,0.2
	c0.2,0,0.5-0.1,0.6-0.4c0.2-0.3,0.3-0.6,0.3-1.1c0-0.4-0.1-0.8-0.3-1.1c-0.2-0.3-0.4-0.4-0.7-0.4c-0.2,0-0.3,0.1-0.5,0.2
	s-0.2,0.3-0.3,0.5v3.6h-0.5v-4.4h0.5v0.3c0.2-0.2,0.5-0.4,0.8-0.4c0.4,0,0.8,0.2,1,0.5C97.9,110.9,98,111.3,98,111.8z"/>
<path class="st1" d="M100.5,110.2l-0.1,0.2c-0.1-0.1-0.3-0.1-0.4-0.1s-0.1,0-0.2,0.1c-0.2,0.1-0.3,0.4-0.3,0.9v2.1H99v-3.2h0.5v0.4
	c0.1-0.1,0.1-0.2,0.2-0.3c0.1-0.1,0.2-0.1,0.4-0.1C100.3,110.2,100.4,110.1,100.5,110.2z"/>
<path class="st1" d="M104,111.3h-2v-0.2h1.5c0-0.6-0.3-0.9-0.8-0.9c-0.3,0-0.6,0.1-0.8,0.4c-0.2,0.3-0.3,0.6-0.3,1.1
	s0.1,0.8,0.3,1.1c0.2,0.3,0.5,0.4,0.8,0.4c0.4,0,0.7-0.2,1-0.5l0.2,0.2c-0.3,0.3-0.7,0.5-1.1,0.5c-0.5,0-0.8-0.2-1.2-0.5
	c-0.3-0.3-0.5-0.7-0.5-1.2s0.2-0.9,0.5-1.2c0.3-0.3,0.7-0.5,1.1-0.5c0.3,0,0.6,0.1,0.9,0.4C103.9,110.7,104,111,104,111.3z"/>
<path class="st1" d="M106.7,112.6c0,0.3-0.1,0.5-0.3,0.6c-0.2,0.2-0.4,0.2-0.7,0.2c-0.4,0-0.7-0.1-0.9-0.4l0.2-0.2
	c0.2,0.3,0.5,0.4,0.8,0.4c0.2,0,0.3-0.1,0.4-0.2c0.1-0.1,0.2-0.3,0.2-0.4c0-0.2-0.1-0.4-0.3-0.5c-0.1-0.1-0.3-0.2-0.6-0.4
	c-0.4-0.2-0.5-0.5-0.5-0.9c0-0.2,0.1-0.4,0.3-0.6c0.2-0.1,0.4-0.2,0.6-0.2c0.2,0,0.3,0,0.5,0.1c0.2,0.1,0.3,0.2,0.3,0.3l-0.2,0.2
	c-0.2-0.3-0.4-0.4-0.7-0.4c-0.3,0-0.5,0.1-0.5,0.4c0,0.2,0.1,0.4,0.3,0.6c0.4,0.2,0.6,0.4,0.7,0.5
	C106.6,111.9,106.7,112.2,106.7,112.6z"/>
<path class="st1" d="M109.5,112.6c0,0.3-0.1,0.5-0.3,0.6c-0.2,0.2-0.4,0.2-0.7,0.2c-0.4,0-0.7-0.1-0.9-0.4l0.2-0.2
	c0.2,0.3,0.5,0.4,0.8,0.4c0.2,0,0.3-0.1,0.4-0.2s0.2-0.3,0.2-0.4c0-0.2-0.1-0.4-0.3-0.5c-0.1-0.1-0.3-0.2-0.6-0.4
	c-0.4-0.2-0.5-0.5-0.5-0.9c0-0.2,0.1-0.4,0.3-0.6c0.2-0.1,0.4-0.2,0.6-0.2c0.2,0,0.3,0,0.5,0.1c0.2,0.1,0.3,0.2,0.3,0.3l-0.2,0.2
	c-0.2-0.3-0.4-0.4-0.7-0.4c-0.3,0-0.5,0.1-0.5,0.4c0,0.2,0.1,0.4,0.3,0.6c0.4,0.2,0.6,0.4,0.7,0.5
	C109.4,111.9,109.5,112.2,109.5,112.6z"/>
<path class="st1" d="M111.1,108.7c0,0.1,0,0.2-0.1,0.2s-0.1,0.1-0.2,0.1c-0.1,0-0.2,0-0.2-0.1s-0.1-0.1-0.1-0.2c0-0.1,0-0.2,0.1-0.2
	c0.1-0.1,0.1-0.1,0.2-0.1c0.1,0,0.2,0,0.2,0.1C111,108.5,111.1,108.6,111.1,108.7z M111,113.4h-0.5v-3.2h0.5V113.4z"/>
<path class="st1" d="M115.3,111.7c0,0.5-0.2,0.9-0.5,1.2c-0.3,0.3-0.7,0.5-1.2,0.5s-0.8-0.2-1.2-0.5c-0.3-0.3-0.5-0.7-0.5-1.2
	s0.2-0.9,0.5-1.2c0.3-0.3,0.7-0.5,1.2-0.5s0.8,0.2,1.2,0.5C115.2,110.9,115.3,111.3,115.3,111.7z M114.8,111.7
	c0-0.4-0.1-0.8-0.3-1.1c-0.2-0.3-0.5-0.4-0.8-0.4c-0.3,0-0.6,0.1-0.8,0.4c-0.2,0.3-0.3,0.6-0.3,1.1s0.1,0.8,0.3,1.1
	c0.2,0.3,0.5,0.4,0.8,0.4c0.3,0,0.6-0.1,0.8-0.4C114.7,112.5,114.8,112.1,114.8,111.7z"/>
<path class="st1" d="M119,113.4h-0.5v-2.2c0-0.7-0.2-1-0.7-1s-0.8,0.3-1,0.9v2.3h-0.5v-3.2h0.5v0.4c0.3-0.4,0.6-0.5,1-0.5
	c0.4,0,0.7,0.1,0.8,0.2c0.2,0.2,0.3,0.5,0.3,0.9L119,113.4L119,113.4z"/>
<path class="st1" d="M120.7,113.1c0,0.1,0,0.2-0.1,0.2s-0.1,0.1-0.2,0.1s-0.2,0-0.2-0.1c0-0.1-0.1-0.1-0.1-0.2s0-0.2,0.1-0.2
	c0.1,0,0.1-0.1,0.2-0.1s0.2,0,0.2,0.1S120.7,113,120.7,113.1z"/>
</svg>
