<svg width="5" height="582" viewBox="0 0 5 582" fill="none" xmlns="http://www.w3.org/2000/svg">
<path d="M0.599976 0.899902V503.4" stroke="#C9A063" stroke-width="0.35" stroke-miterlimit="10"/>
<path d="M4.69998 511.1V509.8H0.0999756V509.3H4.69998V508H4.79998V511.2H4.69998V511.1Z" fill="#C9A063"/>
<path d="M0.0999756 515V514.5H2.59998V512.1H0.0999756V511.6H4.79998V512.1H2.79998V514.5H4.89998V515H0.0999756Z" fill="#C9A063"/>
<path d="M0.0999756 518.9V516.5H4.79998V518.8H4.69998V517H2.79998V518.6H2.59998V517H0.199976V518.9H0.0999756Z" fill="#C9A063"/>
<path d="M4.8 525.5L0 523.5L4.8 521.5V522.1L0.9 523.7L4.8 525.3V525.5Z" fill="#C9A063"/>
<path d="M2.5 531.2C1.8 531.2 1.2 531 0.8 530.5C0.3 530 0 529.4 0 528.7C0 528 0.2 527.3 0.7 526.9C1.2 526.4 1.7 526.2 2.4 526.2C3.1 526.2 3.7 526.4 4.1 526.9C4.6 527.4 4.8 528 4.8 528.7C4.8 529.4 4.6 530.1 4.1 530.5C3.7 531 3.1 531.2 2.5 531.2ZM2.5 530.7C3.2 530.7 3.7 530.5 4.1 530.2C4.6 529.8 4.8 529.3 4.8 528.7C4.8 528.1 4.6 527.6 4.1 527.2C3.7 526.8 3.1 526.7 2.5 526.7C1.8 526.7 1.3 526.9 0.9 527.2C0.4 527.6 0.2 528.1 0.2 528.7C0.2 529.3 0.4 529.8 0.9 530.2C1.3 530.5 1.8 530.7 2.5 530.7Z" fill="#C9A063"/>
<path d="M0.0999756 532.9V532.4H4.79998V532.9H0.0999756Z" fill="#C9A063"/>
<path d="M0.7 538.1C0.2 537.7 0 537.2 0 536.5C0 535.9 0.2 535.3 0.7 534.9C1.2 534.4 1.7 534.2 2.4 534.2C3.1 534.2 3.6 534.4 4.1 534.8C4.6 535.2 4.8 535.7 4.8 536.4C4.8 537 4.6 537.5 4.3 537.9L4.1 537.7C4.5 537.3 4.6 536.9 4.6 536.4C4.6 535.9 4.4 535.5 3.9 535.2C3.5 534.9 2.9 534.8 2.3 534.8C1.7 534.8 1.1 535 0.7 535.3C0.3 535.6 0 536.1 0 536.6C0 537.2 0.2 537.6 0.7 537.9V538.1Z" fill="#C9A063"/>
<path d="M0.0999756 541.5V539.1H4.79998V541.4H4.69998V539.6H2.79998V541.2H2.59998V539.6H0.199976V541.5H0.0999756Z" fill="#C9A063"/>
<path d="M4.69998 547.3V546H0.0999756V545.5H4.69998V544.2H4.79998V547.4H4.69998V547.3Z" fill="#C9A063"/>
<path d="M0.0999756 551.2V550.7H2.59998V548.3H0.0999756V547.8H4.79998V548.3H2.79998V550.7H4.89998V551.2H0.0999756Z" fill="#C9A063"/>
<path d="M0.0999756 555V552.6H4.79998V554.9H4.69998V553.1H2.79998V554.7H2.59998V553.1H0.199976V555H0.0999756Z" fill="#C9A063"/>
<path d="M4.8 563.3L0 561.8L3.9 560.4L0 559.1L4.8 557.6V558.1L1.1 559.3L4.9 560.6L1 562L4.8 563.2V563.3Z" fill="#C9A063"/>
<path d="M2.49998 568.9C1.79998 568.9 1.19998 568.7 0.799976 568.2C0.299976 567.7 0.0999756 567.1 0.0999756 566.4C0.0999756 565.7 0.299976 565 0.799976 564.6C1.29998 564.1 1.79998 563.9 2.49998 563.9C3.19998 563.9 3.79998 564.1 4.19998 564.6C4.69998 565.1 4.89998 565.7 4.89998 566.4C4.89998 567.1 4.69998 567.8 4.19998 568.2C3.69998 568.7 3.09998 568.9 2.49998 568.9ZM2.49998 568.4C3.19998 568.4 3.69998 568.2 4.09998 567.9C4.59998 567.5 4.79998 567 4.79998 566.4C4.79998 565.8 4.59998 565.3 4.09998 564.9C3.69998 564.5 3.09998 564.4 2.49998 564.4C1.79998 564.4 1.29998 564.6 0.899976 564.9C0.399976 565.3 0.199976 565.8 0.199976 566.4C0.199976 567 0.399976 567.5 0.899976 567.9C1.29998 568.2 1.79998 568.4 2.49998 568.4Z" fill="#C9A063"/>
<path d="M0.0999756 573.1V572.6L2.69998 571C2.69998 571.1 2.69998 571.2 2.69998 571.2C2.69998 571.9 2.99998 572.3 3.69998 572.3C4.39998 572.3 4.69998 571.8 4.69998 570.9V570.6H0.0999756V570.1H4.79998C4.79998 570.2 4.79998 570.5 4.79998 571C4.79998 572.2 4.39998 572.8 3.59998 572.8C3.29998 572.8 2.99998 572.7 2.79998 572.5C2.59998 572.3 2.49998 572 2.39998 571.6L0.0999756 573.1Z" fill="#C9A063"/>
<path d="M0.0999756 576.5V574.1H4.79998V574.6H0.199976V576.5H0.0999756Z" fill="#C9A063"/>
<path d="M2.50001 581.3C1.60001 581.3 1.00001 581 0.600012 580.3C0.300012 579.8 0.200012 579.3 0.200012 578.7V577.4H4.90001V578.7C4.90001 579.3 4.80001 579.8 4.50001 580.3C4.00001 581 3.30001 581.3 2.50001 581.3ZM2.50001 580.9C3.30001 580.9 3.90001 580.6 4.30001 580C4.60001 579.6 4.70001 579.1 4.70001 578.5V578H0.200012V578.5C0.200012 579.2 0.300012 579.7 0.600012 580.1C1.00001 580.6 1.60001 580.9 2.50001 580.9Z" fill="#C9A063"/>
</svg>
